<svg width="16" height="16" viewBox="0 0 16 16" fill="none" xmlns="http://www.w3.org/2000/svg">
<path d="M8 15.1667C7.53333 15.1667 7.06 14.9867 6.70667 14.6333L5.56667 13.5067C5.28001 13.2267 4.90666 13.0733 4.50666 13.0733H4C2.62 13.0733 1.5 11.96 1.5 10.5933V3.31998C1.5 1.95331 2.62 0.839996 4 0.839996H12C13.38 0.839996 14.5 1.95331 14.5 3.31998V10.5933C14.5 11.96 13.38 13.0733 12 13.0733H11.4933C11.0933 13.0733 10.7133 13.2267 10.4333 13.5067L9.29333 14.6333C8.94 14.9867 8.46667 15.1667 8 15.1667ZM4 1.83332C3.17333 1.83332 2.5 2.49997 2.5 3.3133V10.5867C2.5 11.4067 3.17333 12.0667 4 12.0667H4.50666C5.17333 12.0667 5.8 12.3266 6.27333 12.7933L7.41333 13.92C7.74 14.24 8.26667 14.24 8.59333 13.92L9.73333 12.7933C10.2067 12.3266 10.8333 12.0667 11.5 12.0667H12C12.8267 12.0667 13.5 11.4 13.5 10.5867V3.3133C13.5 2.4933 12.8267 1.83332 12 1.83332H4Z" fill="currentColor"/>
<path d="M6.92013 9.67332H5.13349C4.84015 9.67332 4.56682 9.53326 4.39349 9.29326C4.22682 9.06659 4.18681 8.78666 4.26681 8.51999C4.50015 7.80666 5.07348 7.41999 5.58015 7.07332C6.11348 6.71332 6.41348 6.48667 6.41348 6.1C6.41348 5.75334 6.13348 5.4733 5.78681 5.4733C5.44015 5.4733 5.16015 5.75334 5.16015 6.1C5.16015 6.37334 4.93349 6.6 4.66015 6.6C4.38682 6.6 4.16015 6.37334 4.16015 6.1C4.16015 5.20667 4.88681 4.4733 5.78681 4.4733C6.6868 4.4733 7.41347 5.2 7.41347 6.1C7.41347 7.03999 6.7068 7.51999 6.14016 7.90666C5.78683 8.14666 5.45348 8.37332 5.28681 8.67332H6.91347C7.1868 8.67332 7.41347 8.89999 7.41347 9.17332C7.41347 9.44666 7.19347 9.67332 6.92013 9.67332Z" fill="currentColor"/>
<path d="M10.6926 9.67326C10.4193 9.67326 10.1926 9.44659 10.1926 9.17326V8.71326H8.88593C8.88593 8.71326 8.88593 8.71326 8.87927 8.71326C8.5526 8.71326 8.2526 8.53999 8.08593 8.25999C7.91927 7.97332 7.91927 7.61992 8.08593 7.33992C8.53927 6.55996 9.06593 5.67326 9.54593 4.89993C9.75927 4.55993 10.1659 4.40663 10.5459 4.5133C10.9259 4.62663 11.1926 4.97332 11.1859 5.37332V7.71992H11.3326C11.6059 7.71992 11.8326 7.94659 11.8326 8.21992C11.8326 8.49326 11.6059 8.71992 11.3326 8.71992H11.1926V9.17999C11.1926 9.45332 10.9726 9.67326 10.6926 9.67326ZM10.1926 5.75996C9.79927 6.39996 9.3926 7.08659 9.02593 7.71326H10.1926V5.75996Z" fill="currentColor"/>
</svg>
