<svg width="16" height="16" viewBox="0 0 16 16" fill="none" xmlns="http://www.w3.org/2000/svg">
<g clip-path="url(#clip0_2_5095)">
<path d="M14.6666 6.50001C14.3933 6.50001 14.1666 6.27334 14.1666 6.00001V4.66668C14.1666 2.94668 13.0533 1.83334 11.3333 1.83334H4.66665C2.94665 1.83334 1.83331 2.94668 1.83331 4.66668V6.00001C1.83331 6.27334 1.60665 6.50001 1.33331 6.50001C1.05998 6.50001 0.833313 6.27334 0.833313 6.00001V4.66668C0.833313 2.37334 2.37331 0.833344 4.66665 0.833344H11.3333C13.6266 0.833344 15.1666 2.37334 15.1666 4.66668V6.00001C15.1666 6.27334 14.94 6.50001 14.6666 6.50001Z" fill="currentColor"/>
<path d="M11.3333 15.1667H4.66665C2.37331 15.1667 0.833313 13.6267 0.833313 11.3333V10C0.833313 9.72668 1.05998 9.50001 1.33331 9.50001C1.60665 9.50001 1.83331 9.72668 1.83331 10V11.3333C1.83331 13.0533 2.94665 14.1667 4.66665 14.1667H11.3333C13.0533 14.1667 14.1666 13.0533 14.1666 11.3333V10C14.1666 9.72668 14.3933 9.50001 14.6666 9.50001C14.94 9.50001 15.1666 9.72668 15.1666 10V11.3333C15.1666 13.6267 13.6266 15.1667 11.3333 15.1667Z" fill="currentColor"/>
<path d="M8.00038 8.72001C7.91371 8.72001 7.82705 8.69994 7.74705 8.65328L4.21371 6.61329C3.97371 6.47329 3.89371 6.16664 4.03371 5.92664C4.17371 5.68664 4.48038 5.60663 4.71371 5.74663L7.99371 7.64661L11.2537 5.75998C11.4937 5.61998 11.8004 5.70662 11.9337 5.93995C12.0737 6.17995 11.987 6.48664 11.7537 6.62664L8.24705 8.65328C8.17371 8.69328 8.08705 8.72001 8.00038 8.72001Z" fill="currentColor"/>
<path d="M7.99998 12.3467C7.72665 12.3467 7.49998 12.1201 7.49998 11.8467V8.22008C7.49998 7.94674 7.72665 7.72008 7.99998 7.72008C8.27331 7.72008 8.49998 7.94674 8.49998 8.22008V11.8467C8.49998 12.1201 8.27331 12.3467 7.99998 12.3467Z" fill="currentColor"/>
<path d="M8.00011 12.5001C7.61345 12.5001 7.23345 12.4133 6.92678 12.2467L4.79347 11.0601C4.15347 10.7067 3.66013 9.86008 3.66013 9.12674V6.86668C3.66013 6.14004 4.16013 5.2934 4.79347 4.9334L6.92678 3.74671C7.54011 3.40671 8.46011 3.40671 9.07345 3.74671L11.2068 4.9334C11.8468 5.28673 12.3401 6.13337 12.3401 6.86668V9.12674C12.3401 9.85341 11.8401 10.7001 11.2068 11.0601L9.07345 12.2467C8.76678 12.4133 8.38678 12.5001 8.00011 12.5001ZM7.41345 4.62672L5.28013 5.81336C4.95347 5.99336 4.66013 6.50004 4.66013 6.86668V9.12674C4.66013 9.50008 4.95347 10.0001 5.28013 10.1801L7.41345 11.3667C7.72011 11.5333 8.28011 11.5333 8.58678 11.3667L10.7201 10.1801C11.0468 10.0001 11.3401 9.49341 11.3401 9.12674V6.86668C11.3401 6.49337 11.0468 5.99336 10.7201 5.81336L8.58678 4.62672C8.28011 4.46005 7.72011 4.46005 7.41345 4.62672Z" fill="currentColor"/>
</g>
<defs>
<clipPath id="clip0_2_5095">
<rect width="16" height="16" fill="currentColor"/>
</clipPath>
</defs>
</svg>
