<svg width="16" height="16" viewBox="0 0 16 16" fill="none" xmlns="http://www.w3.org/2000/svg">
<g clip-path="url(#clip0_1589_34)">
<path d="M8.00038 8.71994C7.91371 8.71994 7.82705 8.69994 7.74705 8.65328L4.21372 6.6133C3.97372 6.4733 3.89371 6.16664 4.03371 5.93331C4.17371 5.69331 4.47371 5.6133 4.72037 5.7533L8.00038 7.65328L11.2604 5.76664C11.5004 5.62664 11.807 5.7133 11.947 5.94664C12.087 6.18664 12.0004 6.49331 11.767 6.62664L8.26038 8.65328C8.17371 8.69328 8.08705 8.71994 8.00038 8.71994Z" fill="currentColor"/>
<path d="M7.99998 12.3467C7.72665 12.3467 7.49998 12.1201 7.49998 11.8467V8.22008C7.49998 7.94674 7.72665 7.72008 7.99998 7.72008C8.27331 7.72008 8.49998 7.94674 8.49998 8.22008V11.8467C8.49998 12.1201 8.27331 12.3467 7.99998 12.3467Z" fill="currentColor"/>
<path d="M8.00011 12.5C7.61345 12.5 7.23351 12.4133 6.92685 12.2467L4.79348 11.06C4.15348 10.7067 3.66013 9.86001 3.66013 9.12668V6.86668C3.66013 6.14004 4.16015 5.28671 4.79348 4.93338L6.92685 3.74671C7.54018 3.40671 8.46011 3.40671 9.07345 3.74671L11.2068 4.93338C11.8468 5.28671 12.3402 6.13338 12.3402 6.86668V9.12668C12.3402 9.85334 11.8401 10.7067 11.2068 11.06L9.07345 12.2467C8.76678 12.4133 8.38678 12.5 8.00011 12.5ZM8.00011 4.50004C7.78011 4.50004 7.56678 4.54004 7.41345 4.62671L5.28015 5.81338C4.95349 5.99338 4.66013 6.50004 4.66013 6.86668V9.12668C4.66013 9.50001 4.95349 10 5.28015 10.18L7.41345 11.3667C7.72011 11.54 8.28011 11.54 8.58678 11.3667L10.7201 10.18C11.0468 10 11.3402 9.49334 11.3402 9.12668V6.86668C11.3402 6.49338 11.0468 5.99338 10.7201 5.81338L8.58678 4.62671C8.43345 4.54004 8.22011 4.50004 8.00011 4.50004Z" fill="currentColor"/>
<path d="M10.0001 15.1667C9.82011 15.1667 9.65345 15.0667 9.56678 14.9133C9.48011 14.7533 9.48011 14.5667 9.57345 14.4067L10.2734 13.24C10.4134 13.0067 10.7201 12.9267 10.9601 13.0667C11.2001 13.2067 11.2734 13.5133 11.1334 13.7533L10.9534 14.0533C12.7934 13.62 14.1734 11.9667 14.1734 9.99334C14.1734 9.72001 14.4001 9.49334 14.6734 9.49334C14.9468 9.49334 15.1734 9.72001 15.1734 9.99334C15.1668 12.8467 12.8468 15.1667 10.0001 15.1667Z" fill="currentColor"/>
<path d="M1.33331 6.50001C1.05998 6.50001 0.833313 6.27334 0.833313 6.00001C0.833313 3.15334 3.15331 0.833344 5.99998 0.833344C6.17998 0.833344 6.34664 0.933343 6.43331 1.08668C6.51997 1.24668 6.51999 1.43334 6.42665 1.59334L5.72665 2.76001C5.58665 2.99334 5.27998 3.07334 5.03998 2.93334C4.79998 2.79334 4.72664 2.48668 4.86664 2.24668L5.04665 1.94668C3.20665 2.38001 1.82664 4.03334 1.82664 6.00668C1.83331 6.27334 1.60665 6.50001 1.33331 6.50001Z" fill="currentColor"/>
</g>
<defs>
<clipPath id="clip0_1589_34">
<rect width="16" height="16" fill="currentColor"/>
</clipPath>
</defs>
</svg>
