<svg width="16" height="16" viewBox="0 0 16 16" fill="none" xmlns="http://www.w3.org/2000/svg">
<g clip-path="url(#clip0_2_4637)">
<path d="M9.99998 15.1667H5.99998C2.37998 15.1667 0.833313 13.62 0.833313 10V6.00001C0.833313 2.38001 2.37998 0.833344 5.99998 0.833344H9.99998C13.62 0.833344 15.1666 2.38001 15.1666 6.00001V10C15.1666 13.62 13.62 15.1667 9.99998 15.1667ZM5.99998 1.83334C2.92665 1.83334 1.83331 2.92668 1.83331 6.00001V10C1.83331 13.0733 2.92665 14.1667 5.99998 14.1667H9.99998C13.0733 14.1667 14.1666 13.0733 14.1666 10V6.00001C14.1666 2.92668 13.0733 1.83334 9.99998 1.83334H5.99998Z" fill="currentColor"/>
<path d="M8.00038 8.71994C7.91371 8.71994 7.82705 8.69994 7.74705 8.65328L4.21372 6.6133C3.97372 6.4733 3.89371 6.16664 4.03371 5.93331C4.17371 5.69331 4.48039 5.6133 4.71372 5.7533L7.99371 7.65328L11.2537 5.76664C11.4937 5.62664 11.8004 5.7133 11.9337 5.94664C12.067 6.17997 11.987 6.49331 11.7537 6.62664L8.24705 8.65328C8.17371 8.69328 8.08705 8.71994 8.00038 8.71994Z" fill="currentColor"/>
<path d="M7.99998 12.3467C7.72665 12.3467 7.49998 12.1201 7.49998 11.8467V8.22008C7.49998 7.94674 7.72665 7.72008 7.99998 7.72008C8.27331 7.72008 8.49998 7.94674 8.49998 8.22008V11.8467C8.49998 12.1201 8.27331 12.3467 7.99998 12.3467Z" fill="currentColor"/>
<path d="M8.00011 12.5C7.61345 12.5 7.23351 12.4133 6.92685 12.2467L4.79348 11.06C4.15348 10.7067 3.66013 9.86001 3.66013 9.12668V6.86668C3.66013 6.14004 4.16015 5.29338 4.79348 4.93338L6.92685 3.74671C7.54018 3.40671 8.46011 3.40671 9.07345 3.74671L11.2068 4.93338C11.8468 5.28671 12.3402 6.13338 12.3402 6.86668V9.12668C12.3402 9.85334 11.8401 10.7 11.2068 11.06L9.07345 12.2467C8.76678 12.42 8.38678 12.5 8.00011 12.5ZM8.00011 4.50004C7.78011 4.50004 7.56678 4.54004 7.41345 4.62671L5.28015 5.81338C4.95349 5.99338 4.66013 6.50004 4.66013 6.86668V9.12668C4.66013 9.50001 4.95349 10 5.28015 10.18L7.41345 11.3667C7.72011 11.54 8.28011 11.54 8.58678 11.3667L10.7201 10.18C11.0468 10 11.3402 9.49334 11.3402 9.12668V6.86668C11.3402 6.49338 11.0468 5.99338 10.7201 5.81338L8.58678 4.62671C8.43345 4.54004 8.22011 4.50004 8.00011 4.50004Z" fill="currentColor"/>
</g>
<defs>
<clipPath id="clip0_2_4637">
<rect width="16" height="16" fill="currentColor"/>
</clipPath>
</defs>
</svg>
