<svg width="16" height="16" viewBox="0 0 16 16" fill="none" xmlns="http://www.w3.org/2000/svg">
<g clip-path="url(#clip0_1586_22)">
<path d="M7.99998 8.16673C7.70665 8.16673 7.41331 8.0934 7.14665 7.9534L2.80665 5.6134C2.41331 5.40006 2.16665 4.98006 2.16665 4.5134C2.16665 4.04673 2.41331 3.62673 2.80665 3.4134L7.14665 1.0734C7.67998 0.786732 8.31998 0.786732 8.84665 1.0734L13.1866 3.4134C13.58 3.62673 13.8266 4.04673 13.8266 4.5134C13.8266 4.98006 13.58 5.40006 13.1866 5.6134L8.84665 7.9534C8.58665 8.10007 8.29331 8.16673 7.99998 8.16673ZM7.99998 1.8534C7.87331 1.8534 7.73998 1.88673 7.61998 1.9534L3.28665 4.28673C3.17331 4.34673 3.16665 4.4734 3.16665 4.5134C3.16665 4.5534 3.17331 4.68006 3.28665 4.7334L7.62665 7.0734C7.86665 7.20006 8.13998 7.20006 8.37998 7.0734L12.72 4.7334C12.8266 4.6734 12.84 4.54673 12.84 4.5134C12.84 4.4734 12.8333 4.34673 12.72 4.2934L8.37998 1.9534C8.25998 1.88673 8.12665 1.8534 7.99998 1.8534Z" fill="currentColor"/>
<path d="M6.51998 15.1467C6.33331 15.1467 6.13998 15.1 5.96665 15.0133L1.92665 13C1.25331 12.66 0.833313 11.98 0.833313 11.2267V7.41333C0.833313 6.98 1.05331 6.58667 1.41998 6.36C1.79331 6.13334 2.23998 6.11334 2.62665 6.30667L6.66665 8.32C7.33998 8.66 7.75998 9.33333 7.75998 10.0933V13.9067C7.75998 14.34 7.53998 14.7333 7.17331 14.96C6.97331 15.0867 6.74665 15.1467 6.51998 15.1467ZM2.07331 7.17333C2.01998 7.17333 1.97331 7.19333 1.94665 7.20666C1.90665 7.23333 1.83331 7.29333 1.83331 7.41333V11.2267C1.83331 11.6 2.03998 11.94 2.37331 12.1067L6.40665 14.1267C6.51331 14.18 6.59998 14.14 6.63998 14.12C6.67998 14.0933 6.75331 14.0333 6.75331 13.9133V10.1C6.75331 9.72666 6.54665 9.38666 6.21331 9.22L2.17998 7.2C2.13998 7.18 2.10665 7.17333 2.07331 7.17333Z" fill="currentColor"/>
<path d="M9.47958 15.1467C9.25291 15.1467 9.02625 15.0867 8.82625 14.96C8.45958 14.7333 8.23958 14.34 8.23958 13.9067V10.0933C8.23958 9.34 8.65958 8.66 9.33291 8.32L13.3662 6.3C13.7529 6.10667 14.2062 6.12667 14.5729 6.35333C14.9396 6.58 15.1596 6.97333 15.1596 7.40666V11.22C15.1596 11.9733 14.7396 12.6533 14.0662 12.9933L10.0329 15.0133C9.85958 15.1067 9.66625 15.1467 9.47958 15.1467ZM13.9262 7.17333C13.8929 7.17333 13.8596 7.18 13.8196 7.2L9.78625 9.22C9.45291 9.38666 9.24625 9.72 9.24625 10.1V13.9133C9.24625 14.0333 9.31958 14.0933 9.35958 14.12C9.39958 14.1467 9.48625 14.18 9.59291 14.1267L13.6262 12.1067C13.9596 11.94 14.1662 11.6 14.1662 11.2267V7.41333C14.1662 7.29333 14.0929 7.23333 14.0529 7.20667C14.0262 7.19333 13.9796 7.17333 13.9262 7.17333Z" fill="currentColor"/>
</g>
<defs>
<clipPath id="clip0_1586_22">
<rect width="16" height="16" fill="currentColor"/>
</clipPath>
</defs>
</svg>
