<svg width="16" height="16" viewBox="0 0 16 16" fill="none" xmlns="http://www.w3.org/2000/svg">
<g clip-path="url(#clip0_2_5074)">
<path d="M6.24665 15.1667H3.07998C1.54665 15.1667 0.833313 14.4533 0.833313 12.92V9.75334C0.833313 8.21334 1.54665 7.50001 3.07998 7.50001H4.66665C4.93998 7.50001 5.16665 7.72668 5.16665 8.00001V9.58001C5.16665 10.5533 5.44665 10.8333 6.41331 10.8333H7.99998C8.27331 10.8333 8.49998 11.06 8.49998 11.3333V12.92C8.49998 14.4533 7.78665 15.1667 6.24665 15.1667ZM3.07998 8.50001C2.11331 8.50001 1.83331 8.78001 1.83331 9.75334V12.92C1.83331 13.8867 2.11331 14.1667 3.07998 14.1667H6.24665C7.21998 14.1667 7.49998 13.8867 7.49998 12.92V11.8333H6.41331C4.87998 11.8333 4.16665 11.12 4.16665 9.58001V8.50001H3.07998Z" fill="currentColor"/>
<path d="M9.57998 11.8333L6.41331 11.8333C4.87998 11.8333 4.16665 11.12 4.16665 9.58001L4.16665 6.41334C4.16665 4.88001 4.87998 4.16668 6.41331 4.16668H7.99998C8.27331 4.16668 8.49998 4.39334 8.49998 4.66668V6.24668C8.49998 7.22001 8.77998 7.50001 9.74665 7.50001H11.3333C11.6066 7.50001 11.8333 7.72668 11.8333 8.00001V9.58001C11.8333 11.12 11.12 11.8333 9.57998 11.8333ZM6.41331 5.16668C5.44665 5.16668 5.16665 5.44668 5.16665 6.41334V9.58001C5.16665 10.5533 5.44665 10.8333 6.41331 10.8333L9.57998 10.8333C10.5533 10.8333 10.8333 10.5533 10.8333 9.58001V8.50001H9.74665C8.21331 8.50001 7.49998 7.78668 7.49998 6.24668V5.16668H6.41331Z" fill="currentColor"/>
<path d="M12.9133 8.50001H9.74665C8.21331 8.50001 7.49998 7.78668 7.49998 6.24668L7.49998 3.08001C7.49998 1.54668 8.21331 0.833344 9.74665 0.833344H12.9133C14.4533 0.833344 15.1666 1.54668 15.1666 3.08001V6.24668C15.1666 7.78668 14.4533 8.50001 12.9133 8.50001ZM9.74665 1.83334C8.77998 1.83334 8.49998 2.11334 8.49998 3.08001L8.49998 6.24668C8.49998 7.22001 8.77998 7.50001 9.74665 7.50001H12.9133C13.8866 7.50001 14.1666 7.22001 14.1666 6.24668V3.08001C14.1666 2.11334 13.8866 1.83334 12.9133 1.83334H9.74665Z" fill="currentColor"/>
</g>
<defs>
<clipPath id="clip0_2_5074">
<rect width="16" height="16" fill="currentColor"/>
</clipPath>
</defs>
</svg>
