<svg width="16" height="16" viewBox="0 0 16 16" fill="none" xmlns="http://www.w3.org/2000/svg">
<g clip-path="url(#clip0_2_5405)">
<path d="M10 15.1667H6.00001C2.38001 15.1667 0.833344 13.62 0.833344 10V6.00001C0.833344 2.38001 2.38001 0.833344 6.00001 0.833344H10C13.62 0.833344 15.1667 2.38001 15.1667 6.00001V10C15.1667 13.62 13.62 15.1667 10 15.1667ZM6.00001 1.83334C2.92668 1.83334 1.83334 2.92668 1.83334 6.00001V10C1.83334 13.0733 2.92668 14.1667 6.00001 14.1667H10C13.0733 14.1667 14.1667 13.0733 14.1667 10V6.00001C14.1667 2.92668 13.0733 1.83334 10 1.83334H6.00001Z" fill="currentColor"/>
<path d="M4.88675 10.16C4.78008 10.16 4.67342 10.1267 4.58008 10.0533C4.36008 9.88668 4.32008 9.57334 4.48675 9.35334L6.07342 7.29334C6.26675 7.04668 6.54008 6.88668 6.85341 6.84668C7.16008 6.80668 7.47341 6.89334 7.72008 7.08668L8.94008 8.04668C8.98674 8.08668 9.03341 8.08668 9.06674 8.08001C9.09341 8.08001 9.14008 8.06668 9.18008 8.01334L10.7201 6.02668C10.8867 5.80668 11.2067 5.76668 11.4201 5.94002C11.6401 6.10668 11.6801 6.42002 11.5067 6.64002L9.96674 8.62668C9.77341 8.87334 9.50008 9.03334 9.18674 9.06668C8.87341 9.10668 8.56674 9.02001 8.32008 8.82668L7.10008 7.86668C7.05341 7.82668 7.00008 7.82668 6.97341 7.83334C6.94674 7.83334 6.90008 7.84668 6.86008 7.90001L5.27342 9.96001C5.18675 10.0933 5.04008 10.16 4.88675 10.16Z" fill="currentColor"/>
</g>
<defs>
<clipPath id="clip0_2_5405">
<rect width="16" height="16" fill="currentColor"/>
</clipPath>
</defs>
</svg>
