<svg width="16" height="16" viewBox="0 0 16 16" fill="none" xmlns="http://www.w3.org/2000/svg">
<g clip-path="url(#clip0_2_5019)">
<path d="M8.00001 15.1667C4.04668 15.1667 0.833344 11.9533 0.833344 8.00001C0.833344 4.04668 4.04668 0.833344 8.00001 0.833344C11.9533 0.833344 15.1667 4.04668 15.1667 8.00001C15.1667 11.9533 11.9533 15.1667 8.00001 15.1667ZM8.00001 1.83334C4.60001 1.83334 1.83334 4.60001 1.83334 8.00001C1.83334 11.4 4.60001 14.1667 8.00001 14.1667C11.4 14.1667 14.1667 11.4 14.1667 8.00001C14.1667 4.60001 11.4 1.83334 8.00001 1.83334Z" fill="currentColor"/>
<path d="M10.6667 8.50001H5.33334C5.06001 8.50001 4.83334 8.27334 4.83334 8.00001C4.83334 7.72668 5.06001 7.50001 5.33334 7.50001H10.6667C10.94 7.50001 11.1667 7.72668 11.1667 8.00001C11.1667 8.27334 10.94 8.50001 10.6667 8.50001Z" fill="currentColor"/>
<path d="M8.00001 11.1667C7.72668 11.1667 7.50001 10.94 7.50001 10.6667V5.33334C7.50001 5.06001 7.72668 4.83334 8.00001 4.83334C8.27334 4.83334 8.50001 5.06001 8.50001 5.33334V10.6667C8.50001 10.94 8.27334 11.1667 8.00001 11.1667Z" fill="currentColor"/>
</g>
<defs>
<clipPath id="clip0_2_5019">
<path d="M0 8C0 3.58172 3.58172 0 8 0C12.4183 0 16 3.58172 16 8C16 12.4183 12.4183 16 8 16C3.58172 16 0 12.4183 0 8Z" fill="currentColor"/>
</clipPath>
</defs>
</svg>
