<svg width="16" height="16" viewBox="0 0 16 16" fill="none" xmlns="http://www.w3.org/2000/svg">
<g clip-path="url(#clip0_2_5409)">
<path d="M10.6667 8.50001H5.33334C5.06001 8.50001 4.83334 8.27334 4.83334 8.00001C4.83334 7.72668 5.06001 7.50001 5.33334 7.50001H10.6667C10.94 7.50001 11.1667 7.72668 11.1667 8.00001C11.1667 8.27334 10.94 8.50001 10.6667 8.50001Z" fill="currentColor"/>
<path d="M8.00001 11.1667C7.72668 11.1667 7.50001 10.94 7.50001 10.6667V5.33334C7.50001 5.06001 7.72668 4.83334 8.00001 4.83334C8.27334 4.83334 8.50001 5.06001 8.50001 5.33334V10.6667C8.50001 10.94 8.27334 11.1667 8.00001 11.1667Z" fill="currentColor"/>
<path d="M10 15.1667H6.00001C2.38001 15.1667 0.833344 13.62 0.833344 10V6.00001C0.833344 2.38001 2.38001 0.833344 6.00001 0.833344H10C13.62 0.833344 15.1667 2.38001 15.1667 6.00001V10C15.1667 13.62 13.62 15.1667 10 15.1667ZM6.00001 1.83334C2.92668 1.83334 1.83334 2.92668 1.83334 6.00001V10C1.83334 13.0733 2.92668 14.1667 6.00001 14.1667H10C13.0733 14.1667 14.1667 13.0733 14.1667 10V6.00001C14.1667 2.92668 13.0733 1.83334 10 1.83334H6.00001Z" fill="currentColor"/>
</g>
<defs>
<clipPath id="clip0_2_5409">
<rect width="16" height="16" fill="currentColor"/>
</clipPath>
</defs>
</svg>
