<svg width="16" height="16" viewBox="0 0 16 16" fill="none" xmlns="http://www.w3.org/2000/svg">
<g clip-path="url(#clip0_2_5344)">
<path d="M5.33334 11.1667H3.62001C1.82668 11.1667 0.833344 10.18 0.833344 8.38001V3.62001C0.833344 1.82668 1.82001 0.833344 3.62001 0.833344H6.66668C8.46001 0.833344 9.45334 1.82001 9.45334 3.62001C9.45334 3.89334 9.22668 4.12001 8.95334 4.12001C8.68001 4.12001 8.45334 3.89334 8.45334 3.62001C8.45334 2.36668 7.92001 1.83334 6.66668 1.83334H3.62001C2.36668 1.83334 1.83334 2.36668 1.83334 3.62001V8.38001C1.83334 9.63334 2.36668 10.1667 3.62001 10.1667H5.33334C5.60668 10.1667 5.83334 10.3933 5.83334 10.6667C5.83334 10.94 5.60668 11.1667 5.33334 11.1667Z" fill="currentColor"/>
<path d="M12.3802 15.1667H9.33354C7.54021 15.1667 6.54688 14.18 6.54688 12.38V7.62001C6.54688 5.82668 7.53354 4.83334 9.33354 4.83334H12.3802C14.1735 4.83334 15.1669 5.82001 15.1669 7.62001V12.38C15.1669 14.18 14.1802 15.1667 12.3802 15.1667ZM9.33354 5.83334C8.08021 5.83334 7.54688 6.36668 7.54688 7.62001V12.38C7.54688 13.6333 8.08021 14.1667 9.33354 14.1667H12.3802C13.6335 14.1667 14.1669 13.6333 14.1669 12.38V7.62001C14.1669 6.36668 13.6335 5.83334 12.3802 5.83334H9.33354Z" fill="currentColor"/>
<path d="M12.0873 10.5H9.92061C9.64728 10.5 9.42061 10.2733 9.42061 10C9.42061 9.72668 9.64728 9.50001 9.92061 9.50001H12.0873C12.3606 9.50001 12.5873 9.72668 12.5873 10C12.5873 10.2733 12.3606 10.5 12.0873 10.5Z" fill="currentColor"/>
<path d="M11 11.5866C10.7267 11.5866 10.5 11.3599 10.5 11.0866V8.91994C10.5 8.64661 10.7267 8.41994 11 8.41994C11.2733 8.41994 11.5 8.64661 11.5 8.91994V11.0866C11.5 11.3599 11.2733 11.5866 11 11.5866Z" fill="currentColor"/>
</g>
<defs>
<clipPath id="clip0_2_5344">
<rect width="16" height="16" fill="currentColor"/>
</clipPath>
</defs>
</svg>
