<svg width="16" height="16" viewBox="0 0 16 16" fill="none" xmlns="http://www.w3.org/2000/svg">
<path d="M7.96843 8.43198C7.44843 8.43198 6.95509 8.23198 6.57507 7.85865C6.0884 7.37198 5.89507 6.67198 6.05507 5.98532C6.22173 5.28532 6.78176 4.72531 7.48176 4.55864C8.16176 4.39198 8.86176 4.58533 9.35509 5.07866C9.84843 5.572 10.0351 6.26532 9.87509 6.95198C9.70843 7.65199 9.14843 8.21198 8.44843 8.37865C8.28843 8.41198 8.12843 8.43198 7.96843 8.43198ZM7.96843 5.49867C7.88843 5.49867 7.80176 5.51199 7.72176 5.53199C7.38843 5.61199 7.11509 5.8853 7.03509 6.21865C6.94843 6.56532 7.04176 6.90532 7.28843 7.14532C7.53509 7.39198 7.86843 7.47865 8.22176 7.39865C8.55509 7.31865 8.82843 7.04532 8.90843 6.71198C8.99509 6.36532 8.90176 6.02532 8.65509 5.78533C8.46843 5.59866 8.22843 5.49867 7.96843 5.49867Z" fill="currentColor"/>
<path d="M4.01332 11.98C3.89332 11.98 3.76664 11.9333 3.67331 11.8467C2.37998 10.6467 1.63998 8.95334 1.63998 7.19334C1.63998 3.68666 4.49331 0.833344 8.00001 0.833344C11.5067 0.833344 14.3599 3.68666 14.3599 7.19334C14.3599 8.96668 13.6467 10.6067 12.3533 11.8267C12.1533 12.0133 11.8333 12.0067 11.6467 11.8067C11.46 11.6067 11.4667 11.2867 11.6667 11.1C12.76 10.0733 13.3599 8.69334 13.3599 7.20001C13.3599 4.24667 10.9533 1.84002 8.00001 1.84002C5.04664 1.84002 2.63998 4.24667 2.63998 7.20001C2.63998 8.70668 3.24664 10.0933 4.35331 11.12C4.55331 11.3067 4.56665 11.6267 4.37998 11.8267C4.27998 11.9267 4.14665 11.98 4.01332 11.98Z" fill="currentColor"/>
<path d="M10.6663 10.2C10.5463 10.2 10.4197 10.1533 10.3263 10.0667C10.1263 9.88001 10.113 9.56001 10.3063 9.36001C10.8597 8.77334 11.1663 8.00001 11.1663 7.20001C11.1663 5.45338 9.74634 4.04005 8.00634 4.04005C6.26636 4.04005 4.84636 5.46004 4.84636 7.20001C4.84636 8.00668 5.15302 8.77334 5.70636 9.36001C5.89302 9.56001 5.88636 9.88001 5.68636 10.0667C5.48636 10.2533 5.16636 10.2467 4.9797 10.0467C4.25303 9.27341 3.84636 8.26001 3.84636 7.20001C3.84636 4.90671 5.71302 3.04005 8.00634 3.04005C10.2997 3.04005 12.1663 4.90671 12.1663 7.20001C12.1663 8.26001 11.7663 9.27341 11.033 10.0467C10.933 10.1467 10.7997 10.2 10.6663 10.2Z" fill="currentColor"/>
<path d="M8.95981 15.1667H7.04648C6.28647 15.1667 5.61313 14.7401 5.28646 14.0601C4.9598 13.3801 5.04646 12.5867 5.5198 11.9934L6.4798 10.8001C6.85314 10.3334 7.40648 10.0667 8.00648 10.0667C8.60648 10.0667 9.15981 10.3334 9.53314 10.8001L10.4931 11.9934C10.9665 12.5867 11.0598 13.3801 10.7265 14.0601C10.3865 14.7401 9.71314 15.1667 8.95981 15.1667ZM7.25314 11.4201L6.29314 12.6134C6.0598 12.9067 6.01314 13.2867 6.1798 13.6201C6.3398 13.9601 6.66646 14.1601 7.03981 14.1601H8.95314C9.32648 14.1601 9.65314 13.9601 9.81314 13.6201C9.97314 13.2801 9.93314 12.9067 9.69981 12.6134L8.73981 11.4201C8.37981 10.9667 7.61981 10.9667 7.25314 11.4201Z" fill="currentColor"/>
</svg>
