<svg width="16" height="16" viewBox="0 0 16 16" fill="none" xmlns="http://www.w3.org/2000/svg">
<path d="M5.72015 15.0334C5.57348 15.0334 5.42015 15.0067 5.28015 14.9467C4.96682 14.8134 4.72682 14.5534 4.62015 14.2267L4.32682 13.3467C4.19348 12.9467 4.31348 12.4467 4.60682 12.1467L6.12015 10.6267C6.14016 10.6067 6.16682 10.5334 6.16682 10.5001V8.8534L3.12682 10.1667C2.72015 10.3401 2.30682 10.3201 1.99348 10.1134C1.68015 9.90673 1.49348 9.5334 1.49348 9.10006V8.24006C1.49348 7.58673 1.96015 6.88673 2.55348 6.65338L6.16015 5.09338V3.20005C6.16015 2.39338 6.7268 1.46671 7.4468 1.09338C7.79346 0.920046 8.19346 0.920046 8.53346 1.09338C9.26013 1.46671 9.8268 2.38671 9.8268 3.19338V5.08671L13.4535 6.64671C14.0468 6.90006 14.5001 7.58006 14.5001 8.24006V9.10006C14.5001 9.54006 14.3201 9.90673 14.0001 10.1134C13.6801 10.3201 13.2735 10.3401 12.8668 10.1734L9.8268 8.86006V10.5067C9.8268 10.5334 9.85346 10.6001 9.87346 10.6201L11.3935 12.1467C11.6868 12.4401 11.8068 12.9534 11.6735 13.3467L11.3801 14.2267C11.2668 14.5534 11.0268 14.8134 10.7068 14.9401C10.3935 15.0667 10.0468 15.0534 9.7468 14.9067C9.71346 14.8867 9.68013 14.8667 9.6468 14.8401L8.09346 13.5334C8.04013 13.4867 7.93346 13.4934 7.8868 13.5334L6.33348 14.8401C6.30682 14.8667 6.27348 14.8867 6.24015 14.9001C6.08015 14.9934 5.90015 15.0334 5.72015 15.0334ZM6.37349 7.76006C6.52682 7.76006 6.67346 7.80007 6.80013 7.88673C7.03346 8.04006 7.1668 8.30007 7.1668 8.60673V10.5067C7.1668 10.7934 7.0268 11.1334 6.8268 11.3334L5.31348 12.8534C5.28682 12.8867 5.26015 12.9867 5.27348 13.0267L5.56682 13.9134C5.58682 13.9801 5.63348 14.0067 5.66015 14.0201C5.68015 14.0267 5.71348 14.0401 5.75348 14.0267L7.2468 12.7667C7.6668 12.4067 8.3268 12.4067 8.7468 12.7667L10.2335 14.0201C10.2801 14.0267 10.3135 14.0201 10.3335 14.0134C10.3601 14.0001 10.4135 13.9734 10.4335 13.9067L10.7268 13.0267C10.7401 12.9801 10.7135 12.8801 10.6868 12.8534L9.17346 11.3334C8.97346 11.1467 8.8268 10.8001 8.8268 10.5067V8.60673C8.8268 8.30673 8.95346 8.04673 9.18013 7.8934C9.4068 7.74007 9.70013 7.72007 9.98013 7.84007L13.2601 9.2534C13.3601 9.2934 13.4268 9.2934 13.4468 9.28006C13.4668 9.26673 13.4935 9.20673 13.4935 9.10006V8.24006C13.4935 7.98673 13.2801 7.66006 13.0535 7.56673L9.33346 5.96005C9.04013 5.83338 8.83346 5.51338 8.83346 5.19338V3.19338C8.83346 2.75338 8.4868 2.18671 8.0868 1.98671C8.03346 1.96005 7.9668 1.96005 7.9068 1.98671C7.52013 2.18671 7.1668 2.76671 7.1668 3.20005V5.20005C7.1668 5.51338 6.96013 5.84005 6.6668 5.96671L2.94682 7.5734C2.71348 7.66673 2.50015 7.9934 2.50015 8.24006V9.10006C2.50015 9.20673 2.52682 9.26673 2.54682 9.28006C2.56682 9.2934 2.63348 9.2934 2.73348 9.2534L6.00682 7.84007C6.12682 7.78673 6.25349 7.76006 6.37349 7.76006Z" fill="currentColor"/>
</svg>
