<svg width="16" height="16" viewBox="0 0 16 16" fill="none" xmlns="http://www.w3.org/2000/svg">
<g clip-path="url(#clip0_2_4762)">
<path d="M9.63966 13.2201C9.48633 13.2201 9.33299 13.1867 9.19299 13.1134C9.15966 13.0934 9.12633 13.0734 9.09966 13.0467L7.98633 12.1001L6.89299 13.0467C6.85966 13.0734 6.82633 13.0934 6.79299 13.1134C6.53301 13.2401 6.23968 13.2534 5.97968 13.1401C5.71301 13.0267 5.51301 12.8067 5.41968 12.5334L5.20635 11.8934C5.09301 11.5601 5.19301 11.1401 5.43968 10.8867L6.55301 9.79341L6.54635 8.82674L4.53968 9.68674C4.20635 9.82674 3.85968 9.81341 3.59301 9.63341C3.33301 9.46674 3.17968 9.15341 3.17968 8.79341V8.17341C3.17968 7.65341 3.53968 7.10008 4.01968 6.89341L6.54635 5.80676V4.53342C6.54635 3.88009 6.97966 3.17342 7.55966 2.89342C7.84633 2.75342 8.17299 2.75342 8.45966 2.89342C9.03966 3.19342 9.47299 3.90009 9.47299 4.53342V5.80676L11.9997 6.89341C12.4797 7.09341 12.8397 7.64674 12.8397 8.17341V8.79341C12.8397 9.15341 12.6863 9.46674 12.413 9.64008C12.1397 9.81341 11.7997 9.83341 11.4663 9.69341L9.46633 8.83341V9.81341L10.553 10.9001C10.7997 11.1467 10.8997 11.5734 10.7863 11.9067L10.573 12.5401C10.4797 12.8134 10.2797 13.0334 10.013 13.1401C9.89299 13.1934 9.76633 13.2201 9.63966 13.2201ZM7.99966 11.1134C8.22633 11.1134 8.44633 11.1867 8.62633 11.3267L9.65966 12.2067L9.83966 11.5867L8.75299 10.5067C8.57966 10.3401 8.46633 10.0601 8.46633 9.81341V8.58008C8.46633 8.28008 8.59299 8.02008 8.81966 7.86674C9.04633 7.71341 9.33966 7.69341 9.61966 7.81341L11.833 8.76008L11.8397 8.17341C11.8397 8.04674 11.7197 7.86008 11.6063 7.81341L8.97299 6.68008C8.68633 6.56009 8.47299 6.24009 8.47299 5.91342V4.53342C8.47299 4.27342 8.24633 3.90676 8.01299 3.78676C7.77299 3.90676 7.54633 4.26676 7.54633 4.53342V5.91342C7.54633 6.22676 7.33966 6.55342 7.04633 6.68008L4.41968 7.81341C4.30635 7.86008 4.17968 8.05341 4.17968 8.17341V8.76008L6.38635 7.82008C6.65968 7.70008 6.94633 7.71341 7.17966 7.86674C7.41299 8.02008 7.54633 8.28008 7.54633 8.58674V9.82008C7.54633 10.0601 7.43299 10.3401 7.25966 10.5134L6.13968 11.6134L6.35301 12.2001L7.35966 11.3467C7.54633 11.1934 7.77299 11.1134 7.99966 11.1134ZM9.36633 5.76009L9.37299 5.76676C9.37299 5.76009 9.36633 5.76009 9.36633 5.76009Z" fill="currentColor"/>
<path d="M9.99999 15.1667H5.99999C2.37999 15.1667 0.833328 13.62 0.833328 10V6.00001C0.833328 2.38001 2.37999 0.833344 5.99999 0.833344H9.99999C13.62 0.833344 15.1667 2.38001 15.1667 6.00001V10C15.1667 13.62 13.62 15.1667 9.99999 15.1667ZM5.99999 1.83334C2.92666 1.83334 1.83333 2.92668 1.83333 6.00001V10C1.83333 13.0733 2.92666 14.1667 5.99999 14.1667H9.99999C13.0733 14.1667 14.1667 13.0733 14.1667 10V6.00001C14.1667 2.92668 13.0733 1.83334 9.99999 1.83334H5.99999Z" fill="currentColor"/>
</g>
<defs>
<clipPath id="clip0_2_4762">
<rect width="16" height="16" fill="currentColor"/>
</clipPath>
</defs>
</svg>
