<svg width="16" height="16" viewBox="0 0 16 16" fill="none" xmlns="http://www.w3.org/2000/svg">
<g clip-path="url(#clip0_2_5086)">
<path d="M5.74015 13.1667C4.76681 13.1667 3.98016 12.38 3.98016 11.4067V6.86667H3.84681C2.18015 6.86667 0.826813 5.51335 0.826813 3.84668C0.826813 2.18001 2.18015 0.82666 3.84681 0.82666H5.10683C6.42683 0.82666 7.49346 1.90001 7.49346 3.21334V11.4C7.50013 12.38 6.71346 13.1667 5.74015 13.1667ZM3.85349 1.83333C2.74015 1.83333 1.83349 2.74002 1.83349 3.85335C1.83349 4.96669 2.74015 5.87333 3.85349 5.87333H4.48683C4.76016 5.87333 4.98683 6.1 4.98683 6.37333V11.4133C4.98683 11.8333 5.32682 12.1733 5.74682 12.1733C6.16682 12.1733 6.50683 11.8333 6.50683 11.4133V3.22669C6.50683 2.46002 5.88682 1.84001 5.12015 1.84001H3.85349V1.83333Z" fill="currentColor"/>
<path d="M3.85323 4.98002C3.23323 4.98002 2.72655 4.47339 2.72655 3.84672C2.72655 3.22005 3.23323 2.72005 3.85323 2.72005C4.12656 2.72005 4.35323 2.94672 4.35323 3.22005C4.35323 3.49339 4.12656 3.72005 3.85323 3.72005C3.77989 3.72005 3.72655 3.78005 3.72655 3.84672C3.72655 3.91339 3.78656 3.98002 3.85323 3.98002C4.12656 3.98002 4.35323 4.20669 4.35323 4.48002C4.35323 4.75335 4.12656 4.98002 3.85323 4.98002Z" fill="currentColor"/>
<path d="M10.26 13.1667C9.28666 13.1667 8.49999 12.38 8.49999 11.4067V3.22001C8.49999 1.90001 9.57333 0.833333 10.8867 0.833333H12.1467C13.8133 0.833333 15.1667 2.18669 15.1667 3.85335C15.1667 5.52002 13.8133 6.87333 12.1467 6.87333H12.0133V11.4133C12.02 12.38 11.2267 13.1667 10.26 13.1667ZM10.8867 1.83333C10.12 1.83333 9.49999 2.45335 9.49999 3.22001V11.4067C9.49999 11.8267 9.83999 12.1667 10.26 12.1667C10.68 12.1667 11.02 11.8267 11.02 11.4067V6.36666C11.02 6.09333 11.2467 5.86666 11.52 5.86666H12.1533C13.2667 5.86666 14.1733 4.96001 14.1733 3.84668C14.1733 2.73335 13.2667 1.82666 12.1533 1.82666H10.8867V1.83333Z" fill="currentColor"/>
<path d="M12.1465 4.98002C11.8731 4.98002 11.6465 4.75335 11.6465 4.48002C11.6465 4.20669 11.8731 3.98002 12.1465 3.98002C12.2198 3.98002 12.2731 3.92005 12.2731 3.84672C12.2731 3.77339 12.2131 3.72005 12.1465 3.72005C11.8731 3.72005 11.6465 3.49339 11.6465 3.22005C11.6465 2.94672 11.8731 2.72005 12.1465 2.72005C12.7665 2.72005 13.2731 3.22672 13.2731 3.84672C13.2731 4.46672 12.7731 4.98002 12.1465 4.98002Z" fill="currentColor"/>
<path d="M5.66666 15.1667C5.39333 15.1667 5.16666 14.94 5.16666 14.6667V12.6667C5.16666 12.3933 5.39333 12.1667 5.66666 12.1667C5.93999 12.1667 6.16666 12.3933 6.16666 12.6667V14.6667C6.16666 14.94 5.93999 15.1667 5.66666 15.1667Z" fill="currentColor"/>
<path d="M10.3333 15.1667C10.06 15.1667 9.83333 14.94 9.83333 14.6667V12.6667C9.83333 12.3933 10.06 12.1667 10.3333 12.1667C10.6067 12.1667 10.8333 12.3933 10.8333 12.6667V14.6667C10.8333 14.94 10.6067 15.1667 10.3333 15.1667Z" fill="currentColor"/>
</g>
<defs>
<clipPath id="clip0_2_5086">
<rect width="16" height="16" fill="currentColor"/>
</clipPath>
</defs>
</svg>
