<svg width="16" height="16" viewBox="0 0 16 16" fill="none" xmlns="http://www.w3.org/2000/svg">
<path d="M10.0799 15.1667H5.91992C3.23325 15.1667 1.62658 14.64 1.33325 11.94C1.27992 11.5533 1.25325 11.0933 1.25325 10.5V5.50001C1.25325 4.92668 1.27992 4.45334 1.33325 4.05334C1.63992 1.34668 3.17992 0.833344 5.92658 0.833344H10.0933C12.8399 0.833344 14.3866 1.34668 14.6799 4.06668C14.7466 4.51334 14.7599 5.02001 14.7599 5.50001V10.5C14.7599 11.08 14.7333 11.54 14.6799 11.9533C14.3733 14.6533 12.8266 15.1667 10.0799 15.1667ZM5.91992 1.83334C3.08658 1.83334 2.51325 2.44668 2.31992 4.17334C2.26658 4.54001 2.24658 4.97334 2.24658 5.50001V10.5C2.24658 11.0467 2.27325 11.46 2.31992 11.8133C2.51325 13.5533 3.07992 14.1667 5.91992 14.1667H10.0799C12.9133 14.1667 13.4866 13.5533 13.6799 11.8333C13.7266 11.4667 13.7533 11.0333 13.7533 10.5V5.50001C13.7533 5.06001 13.7466 4.59334 13.6866 4.19334C13.4933 2.44668 12.9266 1.83334 10.0866 1.83334H5.91992Z" fill="currentColor"/>
<path d="M14.1533 6.44662H11.4199C11.1466 6.44662 10.9199 6.21996 10.9199 5.94662C10.9199 5.67329 11.1466 5.44662 11.4199 5.44662H14.1533C14.4266 5.44662 14.6533 5.67329 14.6533 5.94662C14.6533 6.21996 14.4266 6.44662 14.1533 6.44662Z" fill="currentColor"/>
<path d="M4.57968 6.44662H1.84635C1.57302 6.44662 1.34635 6.21996 1.34635 5.94662C1.34635 5.67329 1.57302 5.44662 1.84635 5.44662H4.57968C4.85302 5.44662 5.07968 5.67329 5.07968 5.94662C5.07968 6.21996 4.85302 6.44662 4.57968 6.44662Z" fill="currentColor"/>
<path d="M10.0534 7.81341H5.94674C5.44674 7.81341 4.96674 7.61341 4.62008 7.25341C4.27341 6.92008 4.08008 6.44676 4.08008 5.94676C4.08008 4.92009 4.92008 4.08009 5.94674 4.08009H10.0467C10.5467 4.08009 11.0267 4.28676 11.3734 4.64009C11.7201 4.98009 11.9201 5.44676 11.9201 5.94676C11.9201 6.97341 11.0801 7.81341 10.0534 7.81341ZM5.94674 5.08009C5.46674 5.08009 5.07968 5.46662 5.07968 5.94662C5.07968 6.17996 5.16674 6.39342 5.32674 6.54676C5.49341 6.72008 5.71341 6.81341 5.94674 6.81341H10.0534C10.5334 6.81341 10.9199 6.42662 10.9199 5.94662C10.9199 5.71996 10.8267 5.50676 10.6667 5.34676C10.5001 5.17342 10.2801 5.08009 10.0467 5.08009H5.94674Z" fill="currentColor"/>
</svg>
