<svg width="16" height="16" viewBox="0 0 16 16" fill="none" xmlns="http://www.w3.org/2000/svg">
<g clip-path="url(#clip0_2_5232)">
<path d="M14.6667 15.1667H1.33334C1.06 15.1667 0.833336 14.94 0.833336 14.6667C0.833336 14.3933 1.06 14.1667 1.33334 14.1667H14.6667C14.94 14.1667 15.1667 14.3933 15.1667 14.6667C15.1667 14.94 14.94 15.1667 14.6667 15.1667Z" fill="currentColor"/>
<path d="M14 15.1667H2C1.72667 15.1667 1.5 14.94 1.5 14.6667V10C1.5 6.41334 4.41334 3.50001 8 3.50001C11.5867 3.50001 14.5 6.41334 14.5 10V14.6667C14.5 14.94 14.2733 15.1667 14 15.1667ZM2.5 14.1667H13.5V10C13.5 6.96668 11.0333 4.50001 8 4.50001C4.96667 4.50001 2.5 6.96668 2.5 10V14.1667Z" fill="currentColor"/>
<path d="M8 2.50001C7.72667 2.50001 7.5 2.27334 7.5 2.00001V1.33334C7.5 1.06001 7.72667 0.833344 8 0.833344C8.27334 0.833344 8.5 1.06001 8.5 1.33334V2.00001C8.5 2.27334 8.27334 2.50001 8 2.50001Z" fill="currentColor"/>
<path d="M3.33297 3.8333C3.2063 3.8333 3.07964 3.78664 2.97964 3.68664L2.31297 3.01997C2.11964 2.82664 2.11964 2.50664 2.31297 2.3133C2.5063 2.11997 2.8263 2.11997 3.01964 2.3133L3.6863 2.97997C3.87964 3.1733 3.87964 3.4933 3.6863 3.68664C3.5863 3.78664 3.45964 3.8333 3.33297 3.8333Z" fill="currentColor"/>
<path d="M12.6663 3.8333C12.5397 3.8333 12.413 3.78664 12.313 3.68664C12.1197 3.4933 12.1197 3.1733 12.313 2.97997L12.9797 2.3133C13.173 2.11997 13.493 2.11997 13.6863 2.3133C13.8797 2.50664 13.8797 2.82664 13.6863 3.01997L13.0197 3.68664C12.9197 3.78664 12.793 3.8333 12.6663 3.8333Z" fill="currentColor"/>
</g>
<defs>
<clipPath id="clip0_2_5232">
<rect width="16" height="16" fill="currentColor"/>
</clipPath>
</defs>
</svg>
