<svg width="16" height="16" viewBox="0 0 16 16" fill="none" xmlns="http://www.w3.org/2000/svg">
<path d="M11.6 13.3333H4.4C3.12 13.3333 2.5 12.68 2.5 11.3467V10.6533C2.5 9.32001 3.12 8.66668 4.4 8.66668H11.6C12.88 8.66668 13.5 9.32001 13.5 10.6533V11.3467C13.5 12.68 12.88 13.3333 11.6 13.3333ZM4.4 9.66668C3.72667 9.66668 3.5 9.80668 3.5 10.6533V11.3467C3.5 12.1933 3.72667 12.3333 4.4 12.3333H11.6C12.2733 12.3333 12.5 12.1933 12.5 11.3467V10.6533C12.5 9.80668 12.2733 9.66668 11.6 9.66668H4.4Z" fill="currentColor"/>
<path d="M10.2667 7.66668H5.73333C4.45333 7.66668 3.83333 7.01334 3.83333 5.68001V4.98668C3.83333 3.64668 4.45333 3.00001 5.73333 3.00001H10.2667C11.5467 3.00001 12.1667 3.65334 12.1667 4.98668V5.68001C12.1667 7.01334 11.5467 7.66668 10.2667 7.66668ZM5.73333 4.00001C5.06 4.00001 4.83333 4.14001 4.83333 4.98668V5.68001C4.83333 6.52668 5.06 6.66668 5.73333 6.66668H10.2667C10.94 6.66668 11.1667 6.52668 11.1667 5.68001V4.98668C11.1667 4.14001 10.94 4.00001 10.2667 4.00001H5.73333Z" fill="currentColor"/>
<path d="M8 15.1667C7.72667 15.1667 7.5 14.9401 7.5 14.6667V13.0667C7.5 12.7934 7.72667 12.5667 8 12.5667C8.27333 12.5667 8.5 12.7934 8.5 13.0667V14.6667C8.5 14.9401 8.27333 15.1667 8 15.1667Z" fill="currentColor"/>
<path d="M8 9.16668C7.72667 9.16668 7.5 8.94001 7.5 8.66668V7.33334C7.5 7.06001 7.72667 6.83334 8 6.83334C8.27333 6.83334 8.5 7.06001 8.5 7.33334V8.66668C8.5 8.94001 8.27333 9.16668 8 9.16668Z" fill="currentColor"/>
<path d="M8 3.62668C7.72667 3.62668 7.5 3.40001 7.5 3.12668V1.33334C7.5 1.06001 7.72667 0.833344 8 0.833344C8.27333 0.833344 8.5 1.05334 8.5 1.33334V3.12668C8.5 3.40668 8.27333 3.62668 8 3.62668Z" fill="currentColor"/>
</svg>
