<svg width="16" height="16" viewBox="0 0 16 16" fill="none" xmlns="http://www.w3.org/2000/svg">
<path d="M11.3532 13.1667H10.6599C9.31987 13.1667 8.6732 12.5467 8.6732 11.2667V3.40008C8.6732 3.12674 8.89987 2.90008 9.1732 2.90008C9.44654 2.90008 9.6732 3.12674 9.6732 3.40008V11.2667C9.6732 11.9401 9.8132 12.1667 10.6599 12.1667H11.3532C12.1999 12.1667 12.3399 11.9401 12.3399 11.2667V3.40008C12.3399 3.12674 12.5665 2.90008 12.8399 2.90008C13.1132 2.90008 13.3399 3.12674 13.3399 3.40008V11.2667C13.3399 12.5467 12.6932 13.1667 11.3532 13.1667Z" fill="currentColor"/>
<path d="M5.68652 9.83341H4.99318C3.65318 9.83341 3.00652 9.21341 3.00652 7.93341V3.40008C3.00652 3.12674 3.23318 2.90008 3.50652 2.90008C3.77985 2.90008 4.00652 3.12674 4.00652 3.40008V7.93341C4.00652 8.60674 4.14652 8.83341 4.99318 8.83341H5.68652C6.53318 8.83341 6.6732 8.60674 6.6732 7.93341V3.40008C6.6732 3.12674 6.89987 2.90008 7.1732 2.90008C7.44654 2.90008 7.6732 3.12674 7.6732 3.40008V7.93341C7.6732 9.21341 7.02654 9.83341 5.68652 9.83341Z" fill="currentColor"/>
<path d="M14.6667 3.83334H1.33334C1.05334 3.83334 0.833336 3.60668 0.833336 3.33334C0.833336 3.06001 1.05334 2.83334 1.33334 2.83334H14.6667C14.94 2.83334 15.1667 3.06001 15.1667 3.33334C15.1667 3.60668 14.9467 3.83334 14.6667 3.83334Z" fill="currentColor"/>
</svg>
