<svg width="16" height="16" viewBox="0 0 16 16" fill="none" xmlns="http://www.w3.org/2000/svg">
<path d="M5.34667 13.5H4.65333C3.31333 13.5 2.66667 12.88 2.66667 11.6V4.4C2.66667 3.12 3.32 2.5 4.65333 2.5H5.34667C6.68 2.5 7.33333 3.12 7.33333 4.4V11.6C7.33333 12.88 6.68 13.5 5.34667 13.5ZM4.65333 3.5C3.80667 3.5 3.66667 3.72667 3.66667 4.4V11.6C3.66667 12.2733 3.80667 12.5 4.65333 12.5H5.34667C6.19333 12.5 6.33333 12.2733 6.33333 11.6V4.4C6.33333 3.72667 6.19333 3.5 5.34667 3.5H4.65333Z" fill="currentColor"/>
<path d="M11.0133 12.1667H10.32C8.98 12.1667 8.33333 11.5467 8.33333 10.2667V5.73333C8.33333 4.45333 8.98666 3.83333 10.32 3.83333H11.0133C12.3533 3.83333 13 4.45333 13 5.73333V10.2667C13 11.5467 12.3467 12.1667 11.0133 12.1667ZM10.32 4.83333C9.47333 4.83333 9.33333 5.06 9.33333 5.73333V10.2667C9.33333 10.94 9.47333 11.1667 10.32 11.1667H11.0133C11.86 11.1667 12 10.94 12 10.2667V5.73333C12 5.06 11.86 4.83333 11.0133 4.83333H10.32Z" fill="currentColor"/>
<path d="M2.93333 8.5H1.33333C1.06 8.5 0.833332 8.27333 0.833332 8C0.833332 7.72667 1.05333 7.5 1.33333 7.5H2.93333C3.20667 7.5 3.43333 7.72667 3.43333 8C3.43333 8.27333 3.21333 8.5 2.93333 8.5Z" fill="currentColor"/>
<path d="M8.66667 8.5H7.33333C7.06 8.5 6.83333 8.27333 6.83333 8C6.83333 7.72667 7.06 7.5 7.33333 7.5H8.66667C8.94 7.5 9.16667 7.72667 9.16667 8C9.16667 8.27333 8.94 8.5 8.66667 8.5Z" fill="currentColor"/>
<path d="M14.6672 8.5H12.8672C12.5939 8.5 12.3672 8.27333 12.3672 8C12.3672 7.72667 12.5939 7.5 12.8672 7.5H14.6672C14.9405 7.5 15.1672 7.72667 15.1672 8C15.1672 8.27333 14.9472 8.5 14.6672 8.5Z" fill="currentColor"/>
</svg>
