<svg width="16" height="16" viewBox="0 0 16 16" fill="none" xmlns="http://www.w3.org/2000/svg">
<path d="M11.2664 13.3333H3.39974C3.12641 13.3333 2.89974 13.1067 2.89974 12.8333C2.89974 12.56 3.12641 12.3333 3.39974 12.3333H11.2664C11.9397 12.3333 12.1664 12.1933 12.1664 11.3467V10.6533C12.1664 9.80666 11.9397 9.66666 11.2664 9.66666H3.39974C3.12641 9.66666 2.89974 9.43999 2.89974 9.16666C2.89974 8.89333 3.12641 8.66666 3.39974 8.66666H11.2664C12.5464 8.66666 13.1664 9.31999 13.1664 10.6533V11.3467C13.1664 12.68 12.5464 13.3333 11.2664 13.3333Z" fill="currentColor"/>
<path d="M7.93307 7.66666H3.39974C3.12641 7.66666 2.89974 7.43999 2.89974 7.16666C2.89974 6.89333 3.12641 6.66666 3.39974 6.66666H7.93307C8.6064 6.66666 8.83307 6.52666 8.83307 5.67999V4.98666C8.83307 4.13999 8.6064 3.99999 7.93307 3.99999H3.39974C3.12641 3.99999 2.89974 3.77333 2.89974 3.49999C2.89974 3.22666 3.12641 2.99999 3.39974 2.99999H7.93307C9.21307 2.99999 9.83307 3.65333 9.83307 4.98666V5.67999C9.83307 7.01333 9.21307 7.66666 7.93307 7.66666Z" fill="currentColor"/>
<path d="M3.33333 15.1601C3.06 15.1601 2.83333 14.9335 2.83333 14.6601V1.32681C2.83333 1.05348 3.06 0.826813 3.33333 0.826813C3.60667 0.826813 3.83333 1.05348 3.83333 1.32681V14.6601C3.83333 14.9335 3.60667 15.1601 3.33333 15.1601Z" fill="currentColor"/>
</svg>
