<svg width="16" height="16" viewBox="0 0 16 16" fill="none" xmlns="http://www.w3.org/2000/svg">
<path d="M12.6 13.3333H4.73333C3.45333 13.3333 2.83333 12.68 2.83333 11.3467V10.6533C2.83333 9.31999 3.45333 8.66666 4.73333 8.66666H12.6C12.8733 8.66666 13.1 8.89333 13.1 9.16666C13.1 9.43999 12.8733 9.66666 12.6 9.66666H4.73333C4.06 9.66666 3.83333 9.80666 3.83333 10.6533V11.3467C3.83333 12.1933 4.06 12.3333 4.73333 12.3333H12.6C12.8733 12.3333 13.1 12.56 13.1 12.8333C13.1 13.1067 12.8733 13.3333 12.6 13.3333Z" fill="currentColor"/>
<path d="M12.6 7.66666H8.06667C6.78667 7.66666 6.16667 7.01333 6.16667 5.67999V4.98666C6.16667 3.64666 6.78667 2.99999 8.06667 2.99999H12.6C12.8733 2.99999 13.1 3.22666 13.1 3.49999C13.1 3.77333 12.8733 3.99999 12.6 3.99999H8.06667C7.39333 3.99999 7.16667 4.13999 7.16667 4.98666V5.67999C7.16667 6.52666 7.39333 6.66666 8.06667 6.66666H12.6C12.8733 6.66666 13.1 6.89333 13.1 7.16666C13.1 7.43999 12.8733 7.66666 12.6 7.66666Z" fill="currentColor"/>
<path d="M12.6667 15.1601C12.3933 15.1601 12.1667 14.9335 12.1667 14.6601V1.32681C12.1667 1.05348 12.3933 0.826813 12.6667 0.826813C12.94 0.826813 13.1667 1.05348 13.1667 1.32681V14.6601C13.1667 14.9335 12.94 15.1601 12.6667 15.1601Z" fill="currentColor"/>
</svg>
