<svg width="16" height="16" viewBox="0 0 16 16" fill="none" xmlns="http://www.w3.org/2000/svg">
<path d="M8 11.1667C7.72667 11.1667 7.5 10.94 7.5 10.6667C7.5 10.3933 7.72667 10.1667 8 10.1667C10.3 10.1667 12.1667 8.30001 12.1667 6.00001C12.1667 3.70001 10.3 1.83334 8 1.83334C5.7 1.83334 3.83334 3.70001 3.83334 6.00001C3.83334 6.27334 3.60667 6.50001 3.33334 6.50001C3.06 6.50001 2.83334 6.27334 2.83334 6.00001C2.83334 3.15334 5.15334 0.833344 8 0.833344C10.8467 0.833344 13.1667 3.15334 13.1667 6.00001C13.1667 8.84668 10.8467 11.1667 8 11.1667Z" fill="currentColor"/>
<path d="M8 15.1667C7.72667 15.1667 7.5 14.94 7.5 14.6667V10.6667C7.5 10.3933 7.72667 10.1667 8 10.1667C8.27334 10.1667 8.5 10.3933 8.5 10.6667V14.6667C8.5 14.94 8.27334 15.1667 8 15.1667Z" fill="currentColor"/>
<path d="M10 13.1667H6C5.72667 13.1667 5.5 12.94 5.5 12.6667C5.5 12.3933 5.72667 12.1667 6 12.1667H10C10.2733 12.1667 10.5 12.3933 10.5 12.6667C10.5 12.94 10.2733 13.1667 10 13.1667Z" fill="currentColor"/>
</svg>
