<svg width="16" height="16" viewBox="0 0 16 16" fill="none" xmlns="http://www.w3.org/2000/svg">
<g clip-path="url(#clip0_2_5356)">
<path d="M9.99999 15.1667H5.99999C2.37999 15.1667 0.833328 13.62 0.833328 10V6.00001C0.833328 2.38001 2.37999 0.833344 5.99999 0.833344H9.99999C13.62 0.833344 15.1667 2.38001 15.1667 6.00001V10C15.1667 13.62 13.62 15.1667 9.99999 15.1667ZM5.99999 1.83334C2.92666 1.83334 1.83333 2.92668 1.83333 6.00001V10C1.83333 13.0733 2.92666 14.1667 5.99999 14.1667H9.99999C13.0733 14.1667 14.1667 13.0733 14.1667 10V6.00001C14.1667 2.92668 13.0733 1.83334 9.99999 1.83334H5.99999Z" fill="currentColor"/>
<path d="M12 10.1667C11.7267 10.1667 11.5 9.94001 11.5 9.66668C11.5 9.20668 11.1267 8.83334 10.6667 8.83334H5.33333C4.87333 8.83334 4.49999 9.20668 4.49999 9.66668C4.49999 9.94001 4.27333 10.1667 3.99999 10.1667C3.72666 10.1667 3.49999 9.94001 3.49999 9.66668V5.16668C3.49999 4.15334 4.31999 3.33334 5.33333 3.33334H10.6667C11.68 3.33334 12.5 4.15334 12.5 5.16668V9.66668C12.5 9.94001 12.2733 10.1667 12 10.1667ZM5.33333 7.83334H10.6667C10.9667 7.83334 11.2533 7.90668 11.5 8.03334V5.16668C11.5 4.70668 11.1267 4.33334 10.6667 4.33334H5.33333C4.87333 4.33334 4.49999 4.70668 4.49999 5.16668V8.03334C4.74666 7.90668 5.03333 7.83334 5.33333 7.83334Z" fill="currentColor"/>
<path d="M12.6667 11H12C11.7267 11 11.5 10.7733 11.5 10.5C11.5 10.2267 11.7267 10 12 10H12.6667C12.94 10 13.1667 10.2267 13.1667 10.5C13.1667 10.7733 12.94 11 12.6667 11Z" fill="currentColor"/>
<path d="M3.99999 11H3.33333C3.05999 11 2.83333 10.7733 2.83333 10.5C2.83333 10.2267 3.05999 10 3.33333 10H3.99999C4.27333 10 4.49999 10.2267 4.49999 10.5C4.49999 10.7733 4.27333 11 3.99999 11Z" fill="currentColor"/>
<path d="M12 9.83334C11.7267 9.83334 11.5 9.60668 11.5 9.33334V7.33334C11.5 6.87334 11.1267 6.50001 10.6667 6.50001H5.33333C4.87333 6.50001 4.49999 6.87334 4.49999 7.33334V9.33334C4.49999 9.60668 4.27333 9.83334 3.99999 9.83334C3.72666 9.83334 3.49999 9.60668 3.49999 9.33334V7.33334C3.49999 6.32001 4.31999 5.50001 5.33333 5.50001H10.6667C11.68 5.50001 12.5 6.32001 12.5 7.33334V9.33334C12.5 9.60668 12.2733 9.83334 12 9.83334Z" fill="currentColor"/>
<path d="M7.99999 12.6667C6.97999 12.6667 6.12001 11.9533 5.89335 11H3.99999C3.72666 11 3.49999 10.7733 3.49999 10.5V9.66668C3.49999 8.65334 4.31999 7.83334 5.33333 7.83334H10.6667C11.68 7.83334 12.5 8.65334 12.5 9.66668V10.5C12.5 10.7733 12.2733 11 12 11H10.1067C9.87999 11.9533 9.01999 12.6667 7.99999 12.6667ZM4.49999 10H6.33333C6.60666 10 6.83333 10.2267 6.83333 10.5C6.83333 11.14 7.35999 11.6667 7.99999 11.6667C8.63999 11.6667 9.16666 11.14 9.16666 10.5C9.16666 10.2267 9.39333 10 9.66666 10H11.5V9.66668C11.5 9.20668 11.1267 8.83334 10.6667 8.83334H5.33333C4.87333 8.83334 4.49999 9.20668 4.49999 9.66668V10Z" fill="currentColor"/>
</g>
<defs>
<clipPath id="clip0_2_5356">
<rect width="16" height="16" fill="currentColor"/>
</clipPath>
</defs>
</svg>
