<svg width="16" height="16" viewBox="0 0 16 16" fill="none" xmlns="http://www.w3.org/2000/svg">
<g clip-path="url(#clip0_2_5383)">
<path d="M1.33363 15.1666C1.20696 15.1666 1.0803 15.1199 0.980297 15.0199C0.786963 14.8266 0.786963 14.5066 0.980297 14.3133L14.3136 0.97997C14.5069 0.786637 14.8269 0.786637 15.0203 0.97997C15.2136 1.1733 15.2136 1.4933 15.0203 1.68664L1.68696 15.0199C1.58696 15.1199 1.4603 15.1666 1.33363 15.1666Z" fill="currentColor"/>
<path d="M12.5865 15.1667C12.2131 15.1667 11.8131 15.0533 11.4131 14.8333L7.06648 12.12C6.83314 11.9733 6.75981 11.6667 6.90648 11.4333C7.05314 11.2 7.35981 11.1267 7.59314 11.2733L11.9198 13.9733C12.2931 14.18 12.6665 14.2267 12.9065 14.0867C13.1465 13.9467 13.2865 13.6 13.2865 13.14V5.80665C13.2865 5.53332 13.5131 5.30665 13.7865 5.30665C14.0598 5.30665 14.2865 5.53332 14.2865 5.80665V13.14C14.2865 13.96 13.9665 14.62 13.4131 14.9467C13.1665 15.0933 12.8865 15.1667 12.5865 15.1667Z" fill="currentColor"/>
<path d="M2.21355 13.8C1.94022 13.8 1.71355 13.5733 1.71355 13.3V3.90668C1.71355 2.21334 3.09355 0.833344 4.78688 0.833344H11.2202C12.1469 0.833344 13.0202 1.24668 13.6069 1.97334C13.7802 2.18668 13.7469 2.50001 13.5335 2.68001C13.3202 2.85334 13.0069 2.82001 12.8335 2.60668C12.4335 2.11334 11.8469 1.83334 11.2202 1.83334H4.78688C3.64688 1.83334 2.71355 2.76668 2.71355 3.90668V13.3C2.71355 13.5733 2.48688 13.8 2.21355 13.8Z" fill="currentColor"/>
</g>
<defs>
<clipPath id="clip0_2_5383">
<rect width="16" height="16" fill="currentColor"/>
</clipPath>
</defs>
</svg>
