<svg width="16" height="16" viewBox="0 0 16 16" fill="none" xmlns="http://www.w3.org/2000/svg">
<g clip-path="url(#clip0_2_5378)">
<path d="M11 15.1667H5.00001C2.80001 15.1667 2.50001 13.9667 2.50001 12.6667V6.81334C2.50001 6.53999 2.72668 6.31332 3.00001 6.31332C3.27334 6.31332 3.50001 6.53999 3.50001 6.81334V12.6667C3.50001 13.8267 3.70001 14.1667 5.00001 14.1667H11C12.3 14.1667 12.5 13.8267 12.5 12.6667V6.81334C12.5 6.53999 12.7267 6.31332 13 6.31332C13.2733 6.31332 13.5 6.53999 13.5 6.81334V12.6667C13.5 13.9667 13.2 15.1667 11 15.1667Z" fill="currentColor"/>
<path d="M9.66668 11.1999H6.33334C6.06001 11.1999 5.83334 10.9733 5.83334 10.6999C5.83334 10.4266 6.06001 10.1999 6.33334 10.1999H9.66668C9.94001 10.1999 10.1667 10.4266 10.1667 10.6999C10.1667 10.9733 9.94001 11.1999 9.66668 11.1999Z" fill="currentColor"/>
<path d="M8.00001 12.9067C7.72668 12.9067 7.50001 12.68 7.50001 12.4067V9.07332C7.50001 8.79998 7.72668 8.57332 8.00001 8.57332C8.27334 8.57332 8.50001 8.79998 8.50001 9.07332V12.4067C8.50001 12.68 8.27334 12.9067 8.00001 12.9067Z" fill="currentColor"/>
<path d="M12.6667 7.16668H3.33334C1.72001 7.16668 0.833344 6.28001 0.833344 4.66668V3.33334C0.833344 1.72001 1.72001 0.833344 3.33334 0.833344H12.6667C14.28 0.833344 15.1667 1.72001 15.1667 3.33334V4.66668C15.1667 6.28001 14.28 7.16668 12.6667 7.16668ZM3.33334 1.83334C2.28001 1.83334 1.83334 2.28001 1.83334 3.33334V4.66668C1.83334 5.72001 2.28001 6.16668 3.33334 6.16668H12.6667C13.72 6.16668 14.1667 5.72001 14.1667 4.66668V3.33334C14.1667 2.28001 13.72 1.83334 12.6667 1.83334H3.33334Z" fill="currentColor"/>
</g>
<defs>
<clipPath id="clip0_2_5378">
<rect width="16" height="16" fill="currentColor"/>
</clipPath>
</defs>
</svg>
