<svg width="16" height="16" viewBox="0 0 16 16" fill="none" xmlns="http://www.w3.org/2000/svg">
<path d="M9.66666 7.59994H6.33332C6.05999 7.59994 5.83332 7.37328 5.83332 7.09994C5.83332 6.82661 6.05999 6.59994 6.33332 6.59994H9.66666C9.93999 6.59994 10.1667 6.82661 10.1667 7.09994C10.1667 7.37328 9.93999 7.59994 9.66666 7.59994Z" fill="currentColor"/>
<path d="M7.99999 9.30668C7.72666 9.30668 7.49999 9.08001 7.49999 8.80668V5.47332C7.49999 5.19998 7.72666 4.97332 7.99999 4.97332C8.27332 4.97332 8.49999 5.19998 8.49999 5.47332V8.80668C8.49999 9.08001 8.27332 9.30668 7.99999 9.30668Z" fill="currentColor"/>
<path d="M12.7135 15.1667C12.3735 15.1667 12.0002 15.0667 11.6402 14.86L8.38686 13.0533C8.19353 12.9467 7.81352 12.9467 7.62019 13.0533L4.36686 14.86C3.70686 15.2267 3.03353 15.2667 2.5202 14.96C2.00686 14.66 1.71353 14.0533 1.71353 13.3V3.90668C1.71353 2.21334 3.09353 0.833344 4.78686 0.833344H11.2202C12.9135 0.833344 14.2935 2.21334 14.2935 3.90668V13.3C14.2935 14.0533 14.0002 14.66 13.4869 14.96C13.2535 15.1 12.9869 15.1667 12.7135 15.1667ZM8.00019 11.9733C8.31353 11.9733 8.62019 12.04 8.86686 12.18L12.1202 13.9867C12.4602 14.18 12.7735 14.22 12.9735 14.1C13.1735 13.98 13.2869 13.6933 13.2869 13.3V3.90668C13.2869 2.76668 12.3535 1.83334 11.2135 1.83334H4.78686C3.64686 1.83334 2.71353 2.76668 2.71353 3.90668V13.3C2.71353 13.6933 2.82686 13.9867 3.02686 14.1C3.22686 14.2133 3.5402 14.18 3.8802 13.9867L7.13352 12.18C7.38019 12.04 7.68686 11.9733 8.00019 11.9733Z" fill="currentColor"/>
</svg>
