<svg width="16" height="16" viewBox="0 0 16 16" fill="none" xmlns="http://www.w3.org/2000/svg">
<path d="M3.28639 15.1667C3.00639 15.1667 2.74639 15.1 2.51306 14.9667C1.99972 14.6667 1.70639 14.06 1.70639 13.3067V3.90668C1.70639 2.21334 3.08639 0.833344 4.77972 0.833344H11.2131C12.9064 0.833344 14.2864 2.21334 14.2864 3.90668V13.3C14.2864 14.0533 13.9931 14.66 13.4797 14.96C12.9664 15.26 12.2931 15.2267 11.6331 14.86L8.37974 13.0533C8.18641 12.9467 7.80641 12.9467 7.61308 13.0533L4.35972 14.86C3.99972 15.06 3.63306 15.1667 3.28639 15.1667ZM4.78639 1.83334C3.64639 1.83334 2.71306 2.76668 2.71306 3.90668V13.3C2.71306 13.6933 2.82639 13.9867 3.02639 14.1C3.22639 14.2133 3.53972 14.18 3.87972 13.9867L7.13308 12.18C7.62641 11.9067 8.37308 11.9067 8.86641 12.18L12.1197 13.9867C12.4597 14.18 12.7731 14.22 12.9731 14.1C13.1731 13.98 13.2864 13.6867 13.2864 13.3V3.90668C13.2864 2.76668 12.3531 1.83334 11.2131 1.83334H4.78639Z" fill="currentColor"/>
<path d="M7.39354 8.83328C7.26688 8.83328 7.14021 8.78661 7.04021 8.68661L6.04019 7.68661C5.84686 7.49328 5.84686 7.17328 6.04019 6.97994C6.23352 6.78661 6.55352 6.78661 6.74688 6.97994L7.39354 7.62661L9.70688 5.3133C9.90021 5.11997 10.2202 5.11997 10.4135 5.3133C10.6069 5.50664 10.6069 5.82664 10.4135 6.01997L7.74688 8.68661C7.64688 8.78661 7.52021 8.83328 7.39354 8.83328Z" fill="currentColor"/>
</svg>
