<svg width="16" height="16" viewBox="0 0 16 16" fill="none" xmlns="http://www.w3.org/2000/svg">
<path d="M7.99987 6.85341C7.31987 6.85341 6.63985 6.73341 5.99318 6.50004C5.73318 6.40671 5.59985 6.12004 5.69318 5.86004C5.79318 5.60004 6.07985 5.46671 6.33985 5.56004C7.41321 5.94671 8.59321 5.94671 9.66654 5.56004C9.92654 5.46671 10.2132 5.60004 10.3065 5.86004C10.3999 6.12004 10.2665 6.40671 10.0065 6.50004C9.35987 6.73341 8.67987 6.85341 7.99987 6.85341Z" fill="currentColor"/>
<path d="M12.7135 15.1667C12.3735 15.1667 12.0002 15.0667 11.6402 14.86L8.38687 13.0533C8.19354 12.9467 7.81354 12.9467 7.62021 13.0533L4.36688 14.86C3.70688 15.2267 3.03355 15.2667 2.52021 14.96C2.00688 14.66 1.71355 14.0533 1.71355 13.3V3.90668C1.71355 2.21334 3.09355 0.833344 4.78688 0.833344H11.2202C12.9135 0.833344 14.2935 2.21334 14.2935 3.90668V13.3C14.2935 14.0533 14.0002 14.66 13.4869 14.96C13.2535 15.1 12.9869 15.1667 12.7135 15.1667ZM8.00021 11.9733C8.31354 11.9733 8.62021 12.04 8.86687 12.18L12.1202 13.9867C12.4602 14.18 12.7735 14.22 12.9735 14.1C13.1735 13.98 13.2869 13.6933 13.2869 13.3V3.90668C13.2869 2.76668 12.3535 1.83334 11.2135 1.83334H4.78688C3.64688 1.83334 2.71355 2.76668 2.71355 3.90668V13.3C2.71355 13.6933 2.82688 13.9867 3.02688 14.1C3.22688 14.2133 3.53355 14.18 3.88021 13.9867L7.13354 12.18C7.38021 12.04 7.68687 11.9733 8.00021 11.9733Z" fill="currentColor"/>
</svg>
