<svg width="16" height="16" viewBox="0 0 16 16" fill="none" xmlns="http://www.w3.org/2000/svg">
<path d="M10.6667 15.1667H5.33333C2.9 15.1667 1.5 13.7667 1.5 11.3333V4.66668C1.5 2.23334 2.9 0.833344 5.33333 0.833344H10.6667C13.1 0.833344 14.5 2.23334 14.5 4.66668V11.3333C14.5 13.7667 13.1 15.1667 10.6667 15.1667ZM5.33333 1.83334C3.42667 1.83334 2.5 2.76001 2.5 4.66668V11.3333C2.5 13.24 3.42667 14.1667 5.33333 14.1667H10.6667C12.5733 14.1667 13.5 13.24 13.5 11.3333V4.66668C13.5 2.76001 12.5733 1.83334 10.6667 1.83334H5.33333Z" fill="currentColor"/>
<path d="M6 7.40668C5.88667 7.40668 5.77333 7.38668 5.66667 7.34001C5.36 7.20668 5.16667 6.90668 5.16667 6.58001V1.33334C5.16667 1.06001 5.39333 0.833344 5.66667 0.833344H10.3333C10.6067 0.833344 10.8333 1.06001 10.8333 1.33334V6.57334C10.8333 6.90668 10.64 7.20668 10.3333 7.33334C10.0333 7.46668 9.68 7.40668 9.43333 7.18001L8 5.86667L6.56665 7.18668C6.40665 7.33334 6.20667 7.40668 6 7.40668ZM8 4.80669C8.2 4.80669 8.40667 4.88 8.56667 5.02666L9.83333 6.19333V1.83334H6.16667V6.19333L7.43333 5.02666C7.59333 4.88 7.8 4.80669 8 4.80669Z" fill="currentColor"/>
<path d="M11.6667 9.83334H8.83333C8.56 9.83334 8.33333 9.60668 8.33333 9.33334C8.33333 9.06001 8.56 8.83334 8.83333 8.83334H11.6667C11.94 8.83334 12.1667 9.06001 12.1667 9.33334C12.1667 9.60668 11.94 9.83334 11.6667 9.83334Z" fill="currentColor"/>
<path d="M11.6667 12.5H6C5.72667 12.5 5.5 12.2733 5.5 12C5.5 11.7267 5.72667 11.5 6 11.5H11.6667C11.94 11.5 12.1667 11.7267 12.1667 12C12.1667 12.2733 11.94 12.5 11.6667 12.5Z" fill="currentColor"/>
</svg>
