<svg width="16" height="16" viewBox="0 0 16 16" fill="none" xmlns="http://www.w3.org/2000/svg">
<g clip-path="url(#clip0_2_5208)">
<path d="M9.40718 11.74C9.28051 11.74 9.15385 11.6933 9.05385 11.5933C8.86051 11.4 8.86051 11.08 9.05385 10.8867L11.0805 8.86001C11.2738 8.66668 11.5938 8.66668 11.7872 8.86001C11.9805 9.05334 11.9805 9.37334 11.7872 9.56668L9.76051 11.5933C9.66718 11.6867 9.54051 11.74 9.40718 11.74Z" fill="currentColor"/>
<path d="M11.4332 9.71341H4.55987C4.28654 9.71341 4.05987 9.48674 4.05987 9.21341C4.05987 8.94008 4.28654 8.71341 4.55987 8.71341H11.4332C11.7065 8.71341 11.9332 8.94008 11.9332 9.21341C11.9332 9.48674 11.7132 9.71341 11.4332 9.71341Z" fill="currentColor"/>
<path d="M4.56602 7.28674C4.43935 7.28674 4.31269 7.24008 4.21269 7.14008C4.01935 6.94674 4.01935 6.62674 4.21269 6.4334L6.23934 4.40673C6.43267 4.2134 6.75271 4.2134 6.94605 4.40673C7.13938 4.60006 7.13938 4.92008 6.94605 5.11342L4.91935 7.14008C4.81935 7.24008 4.69269 7.28674 4.56602 7.28674Z" fill="currentColor"/>
<path d="M11.4332 7.28661H4.55987C4.28654 7.28661 4.05987 7.05994 4.05987 6.78661C4.05987 6.5133 4.28654 6.28663 4.55987 6.28663H11.4332C11.7065 6.28663 11.9332 6.5133 11.9332 6.78661C11.9332 7.05994 11.7132 7.28661 11.4332 7.28661Z" fill="currentColor"/>
<path d="M7.99998 15.1667C4.04665 15.1667 0.833313 11.9533 0.833313 8.00001C0.833313 4.04668 4.04665 0.833344 7.99998 0.833344C11.9533 0.833344 15.1666 4.04668 15.1666 8.00001C15.1666 11.9533 11.9533 15.1667 7.99998 15.1667ZM7.99998 1.83334C4.59998 1.83334 1.83331 4.60001 1.83331 8.00001C1.83331 11.4 4.59998 14.1667 7.99998 14.1667C11.4 14.1667 14.1666 11.4 14.1666 8.00001C14.1666 4.60001 11.4 1.83334 7.99998 1.83334Z" fill="currentColor"/>
</g>
<defs>
<clipPath id="clip0_2_5208">
<rect width="16" height="16" fill="currentColor"/>
</clipPath>
</defs>
</svg>
