<svg width="16" height="16" viewBox="0 0 16 16" fill="none" xmlns="http://www.w3.org/2000/svg">
<g clip-path="url(#clip0_2_5364)">
<path d="M11.2398 7.09334C11.1131 7.09334 10.9865 7.04668 10.8865 6.94668L8.85988 4.92004C8.66654 4.7267 8.66654 4.4067 8.85988 4.21337C9.05321 4.02004 9.37321 4.02004 9.56654 4.21337L11.5932 6.24002C11.7865 6.43336 11.7865 6.75334 11.5932 6.94668C11.4932 7.04001 11.3665 7.09334 11.2398 7.09334Z" fill="currentColor"/>
<path d="M9.21354 11.9332C8.94021 11.9332 8.71354 11.7065 8.71354 11.4332V4.5599C8.71354 4.28657 8.94021 4.0599 9.21354 4.0599C9.48688 4.0599 9.71354 4.28657 9.71354 4.5599V11.4332C9.71354 11.7132 9.48688 11.9332 9.21354 11.9332Z" fill="currentColor"/>
<path d="M6.78674 11.9332C6.66007 11.9332 6.5334 11.8865 6.4334 11.7865L4.40673 9.75988C4.2134 9.56654 4.2134 9.24654 4.40673 9.05321C4.60006 8.85988 4.92008 8.85988 5.11342 9.05321L7.14008 11.0799C7.33341 11.2732 7.33341 11.5932 7.14008 11.7865C7.04674 11.8865 6.92008 11.9332 6.78674 11.9332Z" fill="currentColor"/>
<path d="M6.78674 11.9332C6.5134 11.9332 6.28647 11.7065 6.28647 11.4332V4.5599C6.28647 4.28657 6.51314 4.0599 6.78648 4.0599C7.05981 4.0599 7.28648 4.28657 7.28648 4.5599V11.4332C7.28648 11.7132 7.06674 11.9332 6.78674 11.9332Z" fill="currentColor"/>
<path d="M8.00001 15.1667C4.04668 15.1667 0.833344 11.9533 0.833344 8.00001C0.833344 4.04668 4.04668 0.833344 8.00001 0.833344C11.9533 0.833344 15.1667 4.04668 15.1667 8.00001C15.1667 11.9533 11.9533 15.1667 8.00001 15.1667ZM8.00001 1.83334C4.60001 1.83334 1.83334 4.60001 1.83334 8.00001C1.83334 11.4 4.60001 14.1667 8.00001 14.1667C11.4 14.1667 14.1667 11.4 14.1667 8.00001C14.1667 4.60001 11.4 1.83334 8.00001 1.83334Z" fill="currentColor"/>
</g>
<defs>
<clipPath id="clip0_2_5364">
<rect width="16" height="16" fill="currentColor"/>
</clipPath>
</defs>
</svg>
