<svg width="16" height="16" viewBox="0 0 16 16" fill="none" xmlns="http://www.w3.org/2000/svg">
<g clip-path="url(#clip0_2_5303)">
<path d="M9.99998 15.1667H5.99998C2.37998 15.1667 0.833313 13.62 0.833313 10V6.00001C0.833313 2.38001 2.37998 0.833344 5.99998 0.833344H9.99998C13.62 0.833344 15.1666 2.38001 15.1666 6.00001V10C15.1666 13.62 13.62 15.1667 9.99998 15.1667ZM5.99998 1.83334C2.92665 1.83334 1.83331 2.92668 1.83331 6.00001V10C1.83331 13.0733 2.92665 14.1667 5.99998 14.1667H9.99998C13.0733 14.1667 14.1666 13.0733 14.1666 10V6.00001C14.1666 2.92668 13.0733 1.83334 9.99998 1.83334H5.99998Z" fill="currentColor"/>
<path d="M6.78671 11.9333C6.66003 11.9333 6.53337 11.8867 6.43337 11.7867L4.4067 9.76001C4.21337 9.56668 4.21337 9.24668 4.4067 9.05334C4.60003 8.86001 4.92003 8.86001 5.11337 9.05334L7.14005 11.08C7.33338 11.2733 7.33338 11.5933 7.14005 11.7867C7.04671 11.8867 6.92005 11.9333 6.78671 11.9333Z" fill="currentColor"/>
<path d="M6.78671 11.9333C6.51337 11.9333 6.28644 11.7067 6.28644 11.4334V4.56674C6.28644 4.29341 6.51311 4.06674 6.78645 4.06674C7.05978 4.06674 7.28645 4.29341 7.28645 4.56674V11.4401C7.28645 11.7134 7.06671 11.9333 6.78671 11.9333Z" fill="currentColor"/>
<path d="M11.2398 7.09334C11.1132 7.09334 10.9865 7.04668 10.8865 6.94668L8.85985 4.92004C8.66651 4.7267 8.66651 4.4067 8.85985 4.21337C9.05318 4.02004 9.37318 4.02004 9.56651 4.21337L11.5932 6.24004C11.7865 6.43337 11.7865 6.75334 11.5932 6.94668C11.4932 7.04001 11.3665 7.09334 11.2398 7.09334Z" fill="currentColor"/>
<path d="M9.21351 11.9334C8.94018 11.9334 8.71351 11.7067 8.71351 11.4334V4.56674C8.71351 4.29341 8.94018 4.06674 9.21351 4.06674C9.48685 4.06674 9.71351 4.29341 9.71351 4.56674V11.4401C9.71351 11.7134 9.48685 11.9334 9.21351 11.9334Z" fill="currentColor"/>
</g>
<defs>
<clipPath id="clip0_2_5303">
<rect width="16" height="16" fill="currentColor"/>
</clipPath>
</defs>
</svg>
