<svg width="16" height="16" viewBox="0 0 16 16" fill="none" xmlns="http://www.w3.org/2000/svg">
<g clip-path="url(#clip0_2_5324)">
<path d="M9.99998 15.1667H5.99998C2.37998 15.1667 0.833313 13.62 0.833313 10V6.00001C0.833313 2.38001 2.37998 0.833344 5.99998 0.833344H9.99998C13.62 0.833344 15.1666 2.38001 15.1666 6.00001V10C15.1666 13.62 13.62 15.1667 9.99998 15.1667ZM5.99998 1.83334C2.92665 1.83334 1.83331 2.92668 1.83331 6.00001V10C1.83331 13.0733 2.92665 14.1667 5.99998 14.1667H9.99998C13.0733 14.1667 14.1666 13.0733 14.1666 10V6.00001C14.1666 2.92668 13.0733 1.83334 9.99998 1.83334H5.99998Z" fill="currentColor"/>
<path d="M9.40718 11.74C9.28051 11.74 9.15385 11.6933 9.05385 11.5933C8.86051 11.4 8.86051 11.08 9.05385 10.8867L11.0805 8.86001C11.2738 8.66668 11.5938 8.66668 11.7872 8.86001C11.9805 9.05334 11.9805 9.37334 11.7872 9.56668L9.76051 11.5933C9.66718 11.6867 9.54051 11.74 9.40718 11.74Z" fill="currentColor"/>
<path d="M11.433 9.71341H4.56639C4.29305 9.71341 4.06639 9.48674 4.06639 9.21341C4.06639 8.94008 4.29305 8.71341 4.56639 8.71341H11.4397C11.713 8.71341 11.9397 8.94008 11.9397 9.21341C11.9397 9.48674 11.713 9.71341 11.433 9.71341Z" fill="currentColor"/>
<path d="M4.56602 7.28674C4.43935 7.28674 4.31269 7.24008 4.21269 7.14008C4.01935 6.94674 4.01935 6.62673 4.21269 6.4334L6.23935 4.40673C6.43269 4.2134 6.75271 4.2134 6.94605 4.40673C7.13938 4.60006 7.13938 4.92006 6.94605 5.1134L4.91935 7.14008C4.81935 7.24008 4.69269 7.28674 4.56602 7.28674Z" fill="currentColor"/>
<path d="M11.433 7.28681L4.56602 7.28674C4.29269 7.28674 4.06639 7.06014 4.06639 6.78681C4.06639 6.51346 4.29305 6.2868 4.56639 6.2868H11.4397C11.713 6.2868 11.9397 6.51346 11.9397 6.78681C11.9397 7.06014 11.713 7.28681 11.433 7.28681Z" fill="currentColor"/>
</g>
<defs>
<clipPath id="clip0_2_5324">
<rect width="16" height="16" fill="currentColor"/>
</clipPath>
</defs>
</svg>
