<svg width="16" height="16" viewBox="0 0 16 16" fill="none" xmlns="http://www.w3.org/2000/svg">
<path d="M5.93974 13.78C5.81307 13.78 5.68641 13.7333 5.58641 13.6333C5.39307 13.44 5.39307 13.12 5.58641 12.9267L9.93307 8.58C10.2531 8.26 10.2531 7.74 9.93307 7.42L5.58641 3.07335C5.39307 2.88001 5.39307 2.56001 5.58641 2.36668C5.77974 2.17335 6.09974 2.17335 6.29307 2.36668L10.6397 6.71333C10.9797 7.05333 11.1731 7.51333 11.1731 8C11.1731 8.48667 10.9864 8.94667 10.6397 9.28667L6.29307 13.6333C6.19307 13.7267 6.06641 13.78 5.93974 13.78Z" fill="currentColor"/>
</svg>
