<svg width="16" height="16" viewBox="0 0 16 16" fill="none" xmlns="http://www.w3.org/2000/svg">
<g clip-path="url(#clip0_2_5189)">
<path d="M8.00001 15.1667C4.04668 15.1667 0.833344 11.9533 0.833344 8.00001C0.833344 4.04668 4.04668 0.833344 8.00001 0.833344C11.9533 0.833344 15.1667 4.04668 15.1667 8.00001C15.1667 11.9533 11.9533 15.1667 8.00001 15.1667ZM8.00001 1.83334C4.60001 1.83334 1.83334 4.60001 1.83334 8.00001C1.83334 11.4 4.60001 14.1667 8.00001 14.1667C11.4 14.1667 14.1667 11.4 14.1667 8.00001C14.1667 4.60001 11.4 1.83334 8.00001 1.83334Z" fill="currentColor"/>
<path d="M10.3333 8.50001H6.33334C6.06001 8.50001 5.83334 8.27334 5.83334 8.00001C5.83334 7.72668 6.06001 7.50001 6.33334 7.50001H10.3333C10.6067 7.50001 10.8333 7.72668 10.8333 8.00001C10.8333 8.27334 10.6067 8.50001 10.3333 8.50001Z" fill="currentColor"/>
<path d="M7.66634 10.4999C7.53968 10.4999 7.41301 10.4533 7.31301 10.3533L5.31298 8.35328C5.11964 8.15994 5.11964 7.83994 5.31298 7.64661L7.31301 5.64664C7.50634 5.4533 7.82634 5.4533 8.01968 5.64664C8.21301 5.83997 8.21301 6.15997 8.01968 6.3533L6.37298 7.99994L8.01968 9.64661C8.21301 9.83994 8.21301 10.1599 8.01968 10.3533C7.91968 10.4533 7.79301 10.4999 7.66634 10.4999Z" fill="currentColor"/>
</g>
<defs>
<clipPath id="clip0_2_5189">
<rect width="16" height="16" fill="currentColor"/>
</clipPath>
</defs>
</svg>
