<svg width="16" height="16" viewBox="0 0 16 16" fill="none" xmlns="http://www.w3.org/2000/svg">
<g clip-path="url(#clip0_2_5014)">
<path d="M7.99998 15.1667C4.04665 15.1667 0.833313 11.9533 0.833313 8.00001C0.833313 4.04668 4.04665 0.833344 7.99998 0.833344C11.9533 0.833344 15.1666 4.04668 15.1666 8.00001C15.1666 11.9533 11.9533 15.1667 7.99998 15.1667ZM7.99998 1.83334C4.59998 1.83334 1.83331 4.60001 1.83331 8.00001C1.83331 11.4 4.59998 14.1667 7.99998 14.1667C11.4 14.1667 14.1666 11.4 14.1666 8.00001C14.1666 4.60001 11.4 1.83334 7.99998 1.83334Z" fill="currentColor"/>
<path d="M10.3534 9.33994C10.2268 9.33994 10.1001 9.29328 10.0001 9.19328L8.00011 7.19328L6.00009 9.19328C5.80675 9.38661 5.48675 9.38661 5.29342 9.19328C5.10009 8.99994 5.10009 8.67994 5.29342 8.48661L7.64678 6.13329C7.84011 5.93996 8.16011 5.93996 8.35345 6.13329L10.7068 8.48661C10.9001 8.67994 10.9001 8.99994 10.7068 9.19328C10.6068 9.29328 10.4801 9.33994 10.3534 9.33994Z" fill="currentColor"/>
</g>
<defs>
<clipPath id="clip0_2_5014">
<rect width="16" height="16" fill="currentColor"/>
</clipPath>
</defs>
</svg>
