<svg width="16" height="16" viewBox="0 0 16 16" fill="none" xmlns="http://www.w3.org/2000/svg">
<g clip-path="url(#clip0_2_5309)">
<path d="M8.00001 15.1667C4.04668 15.1667 0.833344 11.9533 0.833344 8.00001C0.833344 4.04668 4.04668 0.833344 8.00001 0.833344C11.9533 0.833344 15.1667 4.04668 15.1667 8.00001C15.1667 11.9533 11.9533 15.1667 8.00001 15.1667ZM8.00001 1.83334C4.60001 1.83334 1.83334 4.60001 1.83334 8.00001C1.83334 11.4 4.60001 14.1667 8.00001 14.1667C11.4 14.1667 14.1667 11.4 14.1667 8.00001C14.1667 4.60001 11.4 1.83334 8.00001 1.83334Z" fill="currentColor"/>
<path d="M9.66668 8.50001H5.66668C5.39334 8.50001 5.16668 8.27334 5.16668 8.00001C5.16668 7.72668 5.39334 7.50001 5.66668 7.50001H9.66668C9.94001 7.50001 10.1667 7.72668 10.1667 8.00001C10.1667 8.27334 9.94001 8.50001 9.66668 8.50001Z" fill="currentColor"/>
<path d="M8.33301 10.4999C8.20634 10.4999 8.07968 10.4533 7.97968 10.3533C7.78634 10.1599 7.78634 9.83994 7.97968 9.64661L9.62634 7.99994L7.97968 6.3533C7.78634 6.15997 7.78634 5.83997 7.97968 5.64664C8.17301 5.4533 8.49301 5.4533 8.68634 5.64664L10.6863 7.64661C10.8797 7.83994 10.8797 8.15994 10.6863 8.35328L8.68634 10.3533C8.58634 10.4533 8.45968 10.4999 8.33301 10.4999Z" fill="currentColor"/>
</g>
<defs>
<clipPath id="clip0_2_5309">
<rect width="16" height="16" fill="currentColor"/>
</clipPath>
</defs>
</svg>
