<svg width="16" height="16" viewBox="0 0 16 16" fill="none" xmlns="http://www.w3.org/2000/svg">
<g clip-path="url(#clip0_2_5286)">
<path d="M10 15.1667H6C2.38 15.1667 0.833336 13.62 0.833336 10V6.00001C0.833336 2.38001 2.38 0.833344 6 0.833344H10C13.62 0.833344 15.1667 2.38001 15.1667 6.00001V10C15.1667 13.62 13.62 15.1667 10 15.1667ZM6 1.83334C2.92667 1.83334 1.83334 2.92668 1.83334 6.00001V10C1.83334 13.0733 2.92667 14.1667 6 14.1667H10C13.0733 14.1667 14.1667 13.0733 14.1667 10V6.00001C14.1667 2.92668 13.0733 1.83334 10 1.83334H6Z" fill="currentColor"/>
<path d="M10.3535 9.47341C10.2268 9.47341 10.1001 9.42674 10.0001 9.32674L8.00014 7.32674L6.00011 9.32674C5.80678 9.52008 5.48678 9.52008 5.29344 9.32674C5.10011 9.13341 5.10011 8.81341 5.29344 8.62008L7.6468 6.26676C7.84014 6.07342 8.16014 6.07342 8.35347 6.26676L10.7068 8.62008C10.9001 8.81341 10.9001 9.13341 10.7068 9.32674C10.6068 9.42674 10.4801 9.47341 10.3535 9.47341Z" fill="currentColor"/>
</g>
<defs>
<clipPath id="clip0_2_5286">
<rect width="16" height="16" fill="currentColor"/>
</clipPath>
</defs>
</svg>
