<svg width="16" height="16" viewBox="0 0 16 16" fill="none" xmlns="http://www.w3.org/2000/svg">
<g clip-path="url(#clip0_2_5165)">
<path d="M7.99998 15.1667C4.04665 15.1667 0.833313 11.9533 0.833313 8.00001C0.833313 4.04668 4.04665 0.833344 7.99998 0.833344C11.9533 0.833344 15.1666 4.04668 15.1666 8.00001C15.1666 11.9533 11.9533 15.1667 7.99998 15.1667ZM7.99998 1.83334C4.59998 1.83334 1.83331 4.60001 1.83331 8.00001C1.83331 11.4 4.59998 14.1667 7.99998 14.1667C11.4 14.1667 14.1666 11.4 14.1666 8.00001C14.1666 4.60001 11.4 1.83334 7.99998 1.83334Z" fill="currentColor"/>
<path d="M8.83991 10.8535C8.71325 10.8535 8.58658 10.8068 8.48658 10.7068L6.13326 8.35348C5.93993 8.16014 5.93993 7.84014 6.13326 7.64681L8.48658 5.29345C8.67991 5.10012 8.99991 5.10012 9.19325 5.29345C9.38658 5.48678 9.38658 5.80678 9.19325 6.00012L7.19325 8.00014L9.19325 10.0001C9.38658 10.1935 9.38658 10.5135 9.19325 10.7068C9.09991 10.8068 8.97325 10.8535 8.83991 10.8535Z" fill="currentColor"/>
</g>
<defs>
<clipPath id="clip0_2_5165">
<rect width="16" height="16" fill="currentColor"/>
</clipPath>
</defs>
</svg>
