<svg width="16" height="16" viewBox="0 0 16 16" fill="none" xmlns="http://www.w3.org/2000/svg">
<g clip-path="url(#clip0_2_5328)">
<path d="M8 15.1667C4.04667 15.1667 0.833336 11.9533 0.833336 8.00001C0.833336 4.04668 4.04667 0.833344 8 0.833344C11.9533 0.833344 15.1667 4.04668 15.1667 8.00001C15.1667 11.9533 11.9533 15.1667 8 15.1667ZM8 1.83334C4.6 1.83334 1.83334 4.60001 1.83334 8.00001C1.83334 11.4 4.6 14.1667 8 14.1667C11.4 14.1667 14.1667 11.4 14.1667 8.00001C14.1667 4.60001 11.4 1.83334 8 1.83334Z" fill="currentColor"/>
<path d="M8 10.8333C7.72667 10.8333 7.5 10.6067 7.5 10.3333V6.33334C7.5 6.06001 7.72667 5.83334 8 5.83334C8.27334 5.83334 8.5 6.06001 8.5 6.33334V10.3333C8.5 10.6067 8.27334 10.8333 8 10.8333Z" fill="currentColor"/>
<path d="M9.99967 8.16661C9.873 8.16661 9.74634 8.11994 9.64633 8.01994L7.99967 6.3733L6.35297 8.01994C6.15964 8.21328 5.83964 8.21328 5.6463 8.01994C5.45297 7.82661 5.45297 7.50661 5.6463 7.31328L7.64634 5.3133C7.83967 5.11997 8.15967 5.11997 8.353 5.3133L10.353 7.31328C10.5463 7.50661 10.5463 7.82661 10.353 8.01994C10.253 8.11994 10.1263 8.16661 9.99967 8.16661Z" fill="currentColor"/>
</g>
<defs>
<clipPath id="clip0_2_5328">
<rect width="16" height="16" fill="currentColor"/>
</clipPath>
</defs>
</svg>
