<svg width="16" height="16" viewBox="0 0 16 16" fill="none" xmlns="http://www.w3.org/2000/svg">
<g clip-path="url(#clip0_2_5007)">
<path d="M7.99998 15.1667C4.04665 15.1667 0.833313 11.9533 0.833313 8.00001C0.833313 4.04668 4.04665 0.833344 7.99998 0.833344C11.9533 0.833344 15.1666 4.04668 15.1666 8.00001C15.1666 11.9533 11.9533 15.1667 7.99998 15.1667ZM7.99998 1.83334C4.59998 1.83334 1.83331 4.60001 1.83331 8.00001C1.83331 11.4 4.59998 14.1667 7.99998 14.1667C11.4 14.1667 14.1666 11.4 14.1666 8.00001C14.1666 4.60001 11.4 1.83334 7.99998 1.83334Z" fill="currentColor"/>
<path d="M7.99998 10.1667C7.72665 10.1667 7.49998 9.94001 7.49998 9.66668V5.66668C7.49998 5.39334 7.72665 5.16668 7.99998 5.16668C8.27331 5.16668 8.49998 5.39334 8.49998 5.66668V9.66668C8.49998 9.94001 8.27331 10.1667 7.99998 10.1667Z" fill="currentColor"/>
<path d="M7.99965 10.8333C7.87298 10.8333 7.74631 10.7866 7.64631 10.6866L5.64628 8.68661C5.45295 8.49328 5.45295 8.17328 5.64628 7.97994C5.83961 7.78661 6.15961 7.78661 6.35295 7.97994L7.99965 9.62661L9.64631 7.97994C9.83965 7.78661 10.1596 7.78661 10.353 7.97994C10.5463 8.17328 10.5463 8.49328 10.353 8.68661L8.35298 10.6866C8.25298 10.7866 8.12631 10.8333 7.99965 10.8333Z" fill="currentColor"/>
</g>
<defs>
<clipPath id="clip0_2_5007">
<rect width="16" height="16" fill="currentColor"/>
</clipPath>
</defs>
</svg>
