<svg width="16" height="16" viewBox="0 0 16 16" fill="none" xmlns="http://www.w3.org/2000/svg">
<g clip-path="url(#clip0_2_4998)">
<path d="M7.99998 15.1667C7.72665 15.1667 7.49998 14.94 7.49998 14.6667V13.3333C7.49998 13.06 7.72665 12.8333 7.99998 12.8333C8.27331 12.8333 8.49998 13.06 8.49998 13.3333V14.6667C8.49998 14.94 8.27331 15.1667 7.99998 15.1667Z" fill="currentColor"/>
<path d="M7.99998 12.5C7.72665 12.5 7.49998 12.2733 7.49998 12V10.6667C7.49998 10.3933 7.72665 10.1667 7.99998 10.1667C8.27331 10.1667 8.49998 10.3933 8.49998 10.6667V12C8.49998 12.2733 8.27331 12.5 7.99998 12.5Z" fill="currentColor"/>
<path d="M7.99998 9.83333C7.72665 9.83333 7.49998 9.60667 7.49998 9.33333V7.33333C7.49998 4.48667 9.81998 2.16667 12.6666 2.16667H14.6666C14.94 2.16667 15.1666 2.39333 15.1666 2.66667C15.1666 2.94 14.94 3.16667 14.6666 3.16667H12.6666C10.3666 3.16667 8.49998 5.03333 8.49998 7.33333V9.33333C8.49998 9.60667 8.27331 9.83333 7.99998 9.83333Z" fill="currentColor"/>
<path d="M7.99998 9.83333C7.72665 9.83333 7.49998 9.60667 7.49998 9.33333V7.33333C7.49998 5.03333 5.63331 3.16667 3.33331 3.16667H1.33331C1.05998 3.16667 0.833313 2.94 0.833313 2.66667C0.833313 2.39333 1.05998 2.16667 1.33331 2.16667H3.33331C6.17998 2.16667 8.49998 4.48667 8.49998 7.33333V9.33333C8.49998 9.60667 8.27331 9.83333 7.99998 9.83333Z" fill="currentColor"/>
<path d="M2.6663 4.49996C2.53963 4.49996 2.41295 4.45329 2.31295 4.35329L0.979613 3.01996C0.78628 2.82663 0.78628 2.50663 0.979613 2.31329L2.31295 0.979961C2.50628 0.786628 2.82632 0.786628 3.01965 0.979961C3.21299 1.17329 3.21299 1.49329 3.01965 1.68663L2.03963 2.66663L3.01965 3.64663C3.21299 3.83996 3.21299 4.15996 3.01965 4.35329C2.91965 4.45329 2.79297 4.49996 2.6663 4.49996Z" fill="currentColor"/>
<path d="M13.333 4.49996C13.2063 4.49996 13.0796 4.45329 12.9796 4.35329C12.7863 4.15996 12.7863 3.83996 12.9796 3.64663L13.9596 2.66663L12.9796 1.68663C12.7863 1.49329 12.7863 1.17329 12.9796 0.979961C13.173 0.786628 13.493 0.786628 13.6863 0.979961L15.0196 2.31329C15.213 2.50663 15.213 2.82663 15.0196 3.01996L13.6863 4.35329C13.5863 4.45329 13.4596 4.49996 13.333 4.49996Z" fill="currentColor"/>
</g>
<defs>
<clipPath id="clip0_2_4998">
<rect width="16" height="16" fill="currentColor"/>
</clipPath>
</defs>
</svg>
