<svg width="16" height="16" viewBox="0 0 16 16" fill="none" xmlns="http://www.w3.org/2000/svg">
<g clip-path="url(#clip0_2_4719)">
<path d="M7.99998 15.1667C4.04665 15.1667 0.833313 11.9533 0.833313 8.00001C0.833313 4.04668 4.04665 0.833344 7.99998 0.833344C11.9533 0.833344 15.1666 4.04668 15.1666 8.00001C15.1666 11.9533 11.9533 15.1667 7.99998 15.1667ZM7.99998 1.83334C4.59998 1.83334 1.83331 4.60001 1.83331 8.00001C1.83331 11.4 4.59998 14.1667 7.99998 14.1667C11.4 14.1667 14.1666 11.4 14.1666 8.00001C14.1666 4.60001 11.4 1.83334 7.99998 1.83334Z" fill="currentColor"/>
<path d="M7.15978 10.8535C7.03311 10.8535 6.90645 10.8068 6.80645 10.7068C6.61311 10.5135 6.61311 10.1935 6.80645 10.0001L8.80645 8.00014L6.80645 6.00012C6.61311 5.80678 6.61311 5.48678 6.80645 5.29345C6.99978 5.10012 7.31978 5.10012 7.51311 5.29345L9.86645 7.64681C10.0598 7.84014 10.0598 8.16014 9.86645 8.35348L7.51311 10.7068C7.41311 10.8068 7.28645 10.8535 7.15978 10.8535Z" fill="currentColor"/>
</g>
<defs>
<clipPath id="clip0_2_4719">
<rect width="16" height="16" fill="currentColor"/>
</clipPath>
</defs>
</svg>
