<svg width="16" height="16" viewBox="0 0 16 16" fill="none" xmlns="http://www.w3.org/2000/svg">
<g clip-path="url(#clip0_2_5200)">
<path d="M10 15.1667H6C2.38 15.1667 0.833336 13.62 0.833336 10V6.00001C0.833336 2.38001 2.38 0.833344 6 0.833344H10C13.62 0.833344 15.1667 2.38001 15.1667 6.00001V10C15.1667 13.62 13.62 15.1667 10 15.1667ZM6 1.83334C2.92667 1.83334 1.83334 2.92668 1.83334 6.00001V10C1.83334 13.0733 2.92667 14.1667 6 14.1667H10C13.0733 14.1667 14.1667 13.0733 14.1667 10V6.00001C14.1667 2.92668 13.0733 1.83334 10 1.83334H6Z" fill="currentColor"/>
<path d="M8.83994 10.8535C8.71327 10.8535 8.5866 10.8068 8.4866 10.7068L6.13328 8.35348C5.93995 8.16014 5.93995 7.84014 6.13328 7.64681L8.4866 5.29345C8.67994 5.10012 8.99994 5.10012 9.19327 5.29345C9.3866 5.48678 9.3866 5.80678 9.19327 6.00012L7.19327 8.00014L9.19327 10.0001C9.3866 10.1935 9.3866 10.5135 9.19327 10.7068C9.09994 10.8068 8.97327 10.8535 8.83994 10.8535Z" fill="currentColor"/>
</g>
<defs>
<clipPath id="clip0_2_5200">
<rect width="16" height="16" fill="currentColor"/>
</clipPath>
</defs>
</svg>
