<svg width="16" height="16" viewBox="0 0 16 16" fill="none" xmlns="http://www.w3.org/2000/svg">
<path d="M10.0667 12.7665C9.50667 12.7665 8.89333 12.5865 8.27333 12.2265L5.18667 10.4465C4.1 9.8132 3.5 8.94653 3.5 7.99987C3.5 7.0532 4.1 6.18653 5.18667 5.55987L8.27333 3.77987C9.36 3.1532 10.4067 3.06653 11.2333 3.53987C12.0533 4.0132 12.5067 4.96653 12.5067 6.21987V9.77987C12.5067 11.0332 12.0533 11.9865 11.2333 12.4599C10.88 12.6665 10.4867 12.7665 10.0667 12.7665ZM10.0667 4.23987C9.68 4.23987 9.24 4.3732 8.77333 4.64653L5.68667 6.42653C4.92 6.86653 4.5 7.42653 4.5 7.99987C4.5 8.5732 4.92 9.1332 5.68667 9.5732L8.77333 11.3532C9.54 11.7932 10.2333 11.8799 10.7333 11.5932C11.2333 11.3065 11.5067 10.6599 11.5067 9.77987V6.21987C11.5067 5.33987 11.2333 4.6932 10.7333 4.40653C10.5333 4.2932 10.3067 4.23987 10.0667 4.23987Z" fill="currentColor"/>
</svg>
