<svg width="16" height="16" viewBox="0 0 16 16" fill="none" xmlns="http://www.w3.org/2000/svg">
<path d="M12.0461 6.87993C11.9194 6.87993 11.7927 6.83327 11.6927 6.73327L7.9994 3.03996L4.30609 6.73327C4.11276 6.9266 3.79276 6.9266 3.59942 6.73327C3.40609 6.53996 3.40609 6.21996 3.59942 6.02663L7.64606 1.97996C7.8394 1.78663 8.1594 1.78663 8.35273 1.97996L12.3994 6.02663C12.5927 6.21996 12.5927 6.53996 12.3994 6.73327C12.3061 6.83327 12.1727 6.87993 12.0461 6.87993Z" fill="currentColor"/>
<path d="M8 14.1666C7.72666 14.1666 7.5 13.9399 7.5 13.6666V2.44661C7.5 2.17328 7.72666 1.94661 8 1.94661C8.27333 1.94661 8.5 2.17328 8.5 2.44661V13.6666C8.5 13.9399 8.27333 14.1666 8 14.1666Z" fill="currentColor"/>
</svg>
