<svg width="16" height="16" viewBox="0 0 16 16" fill="none" xmlns="http://www.w3.org/2000/svg">
<path d="M11.5192 7.46679C11.3925 7.46679 11.2659 7.42012 11.1659 7.32012C10.9725 7.12679 10.9725 6.80679 11.1659 6.61345L13.2925 4.48679L11.1659 2.36011C10.9725 2.16678 10.9725 1.84679 11.1659 1.65345C11.3591 1.46012 11.6791 1.46012 11.8725 1.65345L14.3525 4.13347C14.4459 4.22681 14.4992 4.35345 14.4992 4.48679C14.4992 4.62012 14.4459 4.7468 14.3525 4.84013L11.8725 7.32012C11.7725 7.41345 11.6459 7.46679 11.5192 7.46679Z" fill="currentColor"/>
<path d="M14 4.98664H2C1.72667 4.98664 1.5 4.75997 1.5 4.48664C1.5 4.21331 1.72667 3.98664 2 3.98664H14C14.2733 3.98664 14.4992 4.21345 14.4992 4.48679C14.4992 4.76012 14.2733 4.98664 14 4.98664Z" fill="currentColor"/>
<path d="M4.47998 14.5C4.35331 14.5 4.22667 14.4533 4.12667 14.3533L1.64665 11.8733C1.55331 11.78 1.5 11.6533 1.5 11.52C1.5 11.3867 1.55331 11.26 1.64665 11.1667L4.12667 8.68665C4.32 8.49332 4.64 8.49332 4.83333 8.68665C5.02667 8.87999 5.02667 9.19999 4.83333 9.39332L2.70667 11.52L4.83333 13.6466C5.02667 13.8399 5.02667 14.16 4.83333 14.3533C4.74 14.4533 4.61331 14.5 4.47998 14.5Z" fill="currentColor"/>
<path d="M14 12.0133H2C1.72667 12.0133 1.5 11.7867 1.5 11.5133C1.5 11.24 1.72667 11.0133 2 11.0133H14C14.2733 11.0133 14.5 11.24 14.5 11.5133C14.5 11.7867 14.2733 12.0133 14 12.0133Z" fill="currentColor"/>
</svg>
