<svg width="16" height="16" viewBox="0 0 16 16" fill="none" xmlns="http://www.w3.org/2000/svg">
<path d="M9.61941 12.5467C9.49274 12.5467 9.36608 12.5001 9.26608 12.4001C9.07274 12.2067 9.07274 11.8867 9.26608 11.6934L12.9594 8.00007L9.26608 4.30675C9.07274 4.11341 9.07274 3.79341 9.26608 3.60008C9.45941 3.40674 9.77941 3.40674 9.97274 3.60008L14.0194 7.64673C14.2127 7.84007 14.2127 8.16007 14.0194 8.3534L9.97274 12.4001C9.87274 12.5001 9.74608 12.5467 9.61941 12.5467Z" fill="currentColor"/>
<path d="M13.5533 8.5H2.33334C2.06001 8.5 1.83334 8.27333 1.83334 8C1.83334 7.72667 2.06001 7.5 2.33334 7.5H13.5533C13.8267 7.5 14.0533 7.72667 14.0533 8C14.0533 8.27333 13.8267 8.5 13.5533 8.5Z" fill="currentColor"/>
</svg>
