<svg width="16" height="16" viewBox="0 0 16 16" fill="none" xmlns="http://www.w3.org/2000/svg">
<g clip-path="url(#clip0_2_5160)">
<path d="M7.99998 15.1667C4.04665 15.1667 0.833313 11.9533 0.833313 8.00001C0.833313 4.04668 4.04665 0.833344 7.99998 0.833344C11.9533 0.833344 15.1666 4.04668 15.1666 8.00001C15.1666 11.9533 11.9533 15.1667 7.99998 15.1667ZM7.99998 1.83334C4.59998 1.83334 1.83331 4.60001 1.83331 8.00001C1.83331 11.4 4.59998 14.1667 7.99998 14.1667C11.4 14.1667 14.1666 11.4 14.1666 8.00001C14.1666 4.60001 11.4 1.83334 7.99998 1.83334Z" fill="currentColor"/>
<path d="M8.00011 10.0066C7.87345 10.0066 7.74678 9.95994 7.64678 9.85994L5.29342 7.50661C5.10009 7.31328 5.10009 6.99328 5.29342 6.79994C5.48675 6.60662 5.80675 6.60662 6.00009 6.79994L8.00011 8.79994L10.0001 6.79994C10.1934 6.60662 10.5134 6.60662 10.7068 6.79994C10.9001 6.99328 10.9001 7.31328 10.7068 7.50661L8.35345 9.85994C8.25345 9.95994 8.12678 10.0066 8.00011 10.0066Z" fill="currentColor"/>
</g>
<defs>
<clipPath id="clip0_2_5160">
<rect width="16" height="16" fill="currentColor"/>
</clipPath>
</defs>
</svg>
