<svg width="16" height="16" viewBox="0 0 16 16" fill="none" xmlns="http://www.w3.org/2000/svg">
<path d="M6.37963 12.5467C6.25296 12.5467 6.12629 12.5001 6.02629 12.4001L1.97963 8.3534C1.78629 8.16007 1.78629 7.84007 1.97963 7.64673L6.02629 3.60008C6.21962 3.40674 6.53962 3.40674 6.73299 3.60008C6.92632 3.79341 6.92632 4.11341 6.73299 4.30675L3.03963 8.00007L6.73299 11.6934C6.92632 11.8867 6.92632 12.2067 6.73299 12.4001C6.63963 12.5001 6.50629 12.5467 6.37963 12.5467Z" fill="currentColor"/>
<path d="M13.6666 8.5H2.44661C2.17327 8.5 1.94661 8.27333 1.94661 8C1.94661 7.72667 2.17327 7.5 2.44661 7.5H13.6666C13.9399 7.5 14.1666 7.72667 14.1666 8C14.1666 8.27333 13.9399 8.5 13.6666 8.5Z" fill="currentColor"/>
</svg>
