<svg width="16" height="16" viewBox="0 0 16 16" fill="none" xmlns="http://www.w3.org/2000/svg">
<path d="M10.3265 13.8399C10.1998 13.8399 10.0731 13.7933 9.97313 13.6933C9.7798 13.4999 9.7798 13.1799 9.97313 12.9866L13.3131 9.64661C13.5065 9.45328 13.8265 9.45328 14.0198 9.64661C14.2131 9.83994 14.2131 10.1599 14.0198 10.3533L10.6798 13.6933C10.5798 13.7866 10.4531 13.8399 10.3265 13.8399Z" fill="currentColor"/>
<path d="M13.6667 10.4935H2.33333C2.06 10.4935 1.83333 10.2668 1.83333 9.99348C1.83333 9.72014 2.06 9.49348 2.33333 9.49348H13.6667C13.94 9.49348 14.1667 9.72014 14.1667 9.99348C14.1667 10.2668 13.94 10.4935 13.6667 10.4935Z" fill="currentColor"/>
<path d="M2.33297 6.50664C2.2063 6.50664 2.07963 6.45997 1.97963 6.35997C1.7863 6.16664 1.7863 5.84664 1.97963 5.6533L5.31963 2.3133C5.51297 2.11997 5.83297 2.11997 6.0263 2.3133C6.21963 2.50664 6.21963 2.82664 6.0263 3.01997L2.6863 6.35997C2.59297 6.4533 2.45963 6.50664 2.33297 6.50664Z" fill="currentColor"/>
<path d="M13.6667 6.50652L2.33297 6.50664C2.05963 6.50664 1.83333 6.27986 1.83333 6.00652C1.83333 5.73319 2.06 5.50652 2.33333 5.50652H13.6667C13.94 5.50652 14.1667 5.73319 14.1667 6.00652C14.1667 6.27986 13.94 6.50652 13.6667 6.50652Z" fill="currentColor"/>
</svg>
