<svg width="16" height="16" viewBox="0 0 16 16" fill="none" xmlns="http://www.w3.org/2000/svg">
<path d="M6.0063 14.1668C5.87963 14.1668 5.75296 14.1201 5.65297 14.0201L2.31296 10.6801C2.11963 10.4868 2.11963 10.1668 2.31296 9.97348C2.5063 9.78014 2.8263 9.78014 3.01963 9.97348L6.35963 13.3135C6.55296 13.5068 6.55296 13.8268 6.35963 14.0201C6.25963 14.1135 6.13296 14.1668 6.0063 14.1668Z" fill="currentColor"/>
<path d="M6.0063 14.1668C5.73296 14.1668 5.50651 13.94 5.50651 13.6667V2.33334C5.50651 2.06001 5.73318 1.83334 6.00651 1.83334C6.27984 1.83334 6.50651 2.06001 6.50651 2.33334V13.6667C6.50651 13.94 6.27963 14.1668 6.0063 14.1668Z" fill="currentColor"/>
<path d="M13.3397 6.1733C13.213 6.1733 13.0863 6.12664 12.9863 6.02664L9.64633 2.68664C9.453 2.4933 9.453 2.1733 9.64633 1.97997C9.83966 1.78664 10.1597 1.78664 10.353 1.97997L13.693 5.31997C13.8863 5.5133 13.8863 5.8333 13.693 6.02664C13.593 6.12664 13.4663 6.1733 13.3397 6.1733Z" fill="currentColor"/>
<path d="M9.99346 14.1667C9.72013 14.1667 9.49346 13.94 9.49346 13.6667V2.33334C9.49346 2.06001 9.72013 1.83334 9.99346 1.83334C10.2668 1.83334 10.4935 2.06001 10.4935 2.33334V13.6667C10.4935 13.94 10.2735 14.1667 9.99346 14.1667Z" fill="currentColor"/>
</svg>
