<svg width="16" height="16" viewBox="0 0 16 16" fill="none" xmlns="http://www.w3.org/2000/svg">
<path d="M7.99938 14.1667C7.87271 14.1667 7.74605 14.1201 7.64605 14.0201L3.59941 9.97341C3.40607 9.78008 3.40607 9.46008 3.59941 9.26674C3.79274 9.07341 4.11274 9.07341 4.30607 9.26674L7.99938 12.9601L11.6927 9.26674C11.886 9.07341 12.206 9.07341 12.3994 9.26674C12.5927 9.46008 12.5927 9.78008 12.3994 9.97341L8.35271 14.0201C8.25271 14.1201 8.12605 14.1667 7.99938 14.1667Z" fill="currentColor"/>
<path d="M7.99998 14.0533C7.72665 14.0533 7.49998 13.8267 7.49998 13.5533V2.33334C7.49998 2.06001 7.72665 1.83334 7.99998 1.83334C8.27331 1.83334 8.49998 2.06001 8.49998 2.33334V13.5533C8.49998 13.8267 8.27331 14.0533 7.99998 14.0533Z" fill="currentColor"/>
</svg>
