<svg width="16" height="16" viewBox="0 0 16 16" fill="none" xmlns="http://www.w3.org/2000/svg">
<path d="M6.9662 4.97998C6.83953 4.97998 6.7128 4.93333 6.61281 4.83333L4.48615 2.70667L2.35948 4.83333C2.16615 5.02667 1.84615 5.02667 1.65281 4.83333C1.45948 4.64 1.45948 4.32 1.65281 4.12667L4.13283 1.64665C4.22617 1.55331 4.35281 1.5 4.48615 1.5C4.61948 1.5 4.74617 1.55331 4.8395 1.64665L7.31947 4.12667C7.5128 4.32 7.5128 4.64 7.31947 4.83333C7.21947 4.93333 7.0928 4.97998 6.9662 4.97998Z" fill="currentColor"/>
<path d="M4.48698 14.5C4.21365 14.5 3.98698 14.2733 3.98698 14V2C3.98698 1.72667 4.21281 1.5 4.48615 1.5C4.75948 1.5 4.98698 1.72667 4.98698 2V14C4.98698 14.2733 4.76031 14.5 4.48698 14.5Z" fill="currentColor"/>
<path d="M11.52 14.4998C11.3867 14.4998 11.26 14.4465 11.1667 14.3532L8.68667 11.8731C8.49333 11.6798 8.49333 11.3598 8.68667 11.1665C8.88 10.9731 9.2 10.9731 9.39333 11.1665L11.52 13.2931L13.6466 11.1665C13.8399 10.9731 14.16 10.9731 14.3533 11.1665C14.5467 11.3598 14.5467 11.6798 14.3533 11.8731L11.8733 14.3532C11.78 14.4465 11.6467 14.4998 11.52 14.4998Z" fill="currentColor"/>
<path d="M11.513 14.5C11.2397 14.5 11.013 14.2733 11.013 14V2C11.013 1.72667 11.2397 1.5 11.513 1.5C11.7863 1.5 12.013 1.72667 12.013 2V14C12.013 14.2733 11.793 14.5 11.513 14.5Z" fill="currentColor"/>
</svg>
