<svg width="16" height="16" viewBox="0 0 16 16" fill="none" xmlns="http://www.w3.org/2000/svg">
<path d="M9.77987 12.5H6.21987C4.96653 12.5 4.0132 12.0467 3.53987 11.2267C3.06653 10.4067 3.1532 9.35333 3.77987 8.26667L5.55987 5.18C6.18653 4.1 7.0532 3.5 7.99987 3.5C8.94653 3.5 9.8132 4.1 10.4399 5.18667L12.2199 8.27333C12.8465 9.36 12.9332 10.4133 12.4599 11.2333C11.9865 12.0467 11.0332 12.5 9.77987 12.5ZM7.99987 4.5C7.42653 4.5 6.86653 4.92 6.42653 5.68667L4.64653 8.77333C4.20653 9.54 4.11987 10.2333 4.40653 10.7333C4.6932 11.2333 5.33987 11.5067 6.21987 11.5067H9.77987C10.6599 11.5067 11.3065 11.2333 11.5932 10.7333C11.8799 10.2333 11.7932 9.54 11.3532 8.77333L9.5732 5.68667C9.1332 4.92 8.5732 4.5 7.99987 4.5Z" fill="currentColor"/>
</svg>
