<svg width="16" height="16" viewBox="0 0 16 16" fill="none" xmlns="http://www.w3.org/2000/svg">
<g clip-path="url(#clip0_2_5264)">
<path d="M9.99999 15.1667H5.99999C2.37999 15.1667 0.833328 13.62 0.833328 10V6.00001C0.833328 2.38001 2.37999 0.833344 5.99999 0.833344H9.99999C13.62 0.833344 15.1667 2.38001 15.1667 6.00001V10C15.1667 13.62 13.62 15.1667 9.99999 15.1667ZM5.99999 1.83334C2.92666 1.83334 1.83333 2.92668 1.83333 6.00001V10C1.83333 13.0733 2.92666 14.1667 5.99999 14.1667H9.99999C13.0733 14.1667 14.1667 13.0733 14.1667 10V6.00001C14.1667 2.92668 13.0733 1.83334 9.99999 1.83334H5.99999Z" fill="currentColor"/>
<path d="M8.00013 9.93988C7.87346 9.93988 7.74679 9.89321 7.64679 9.79321L5.29343 7.43988C5.1001 7.24654 5.1001 6.92654 5.29343 6.73321C5.48677 6.53989 5.80677 6.53989 6.0001 6.73321L8.00013 8.73321L10.0001 6.73321C10.1935 6.53989 10.5135 6.53989 10.7068 6.73321C10.9001 6.92654 10.9001 7.24654 10.7068 7.43988L8.35346 9.79321C8.25346 9.89321 8.12679 9.93988 8.00013 9.93988Z" fill="currentColor"/>
</g>
<defs>
<clipPath id="clip0_2_5264">
<rect width="16" height="16" fill="currentColor"/>
</clipPath>
</defs>
</svg>
