<svg width="16" height="16" viewBox="0 0 16 16" fill="none" xmlns="http://www.w3.org/2000/svg">
<g clip-path="url(#clip0_2_5016)">
<path d="M10 15.1667H6.00001C2.38001 15.1667 0.833344 13.62 0.833344 10V6.00001C0.833344 2.38001 2.38001 0.833344 6.00001 0.833344H10C13.62 0.833344 15.1667 2.38001 15.1667 6.00001V10C15.1667 13.62 13.62 15.1667 10 15.1667ZM6.00001 1.83334C2.92668 1.83334 1.83334 2.92668 1.83334 6.00001V10C1.83334 13.0733 2.92668 14.1667 6.00001 14.1667H10C13.0733 14.1667 14.1667 13.0733 14.1667 10V6.00001C14.1667 2.92668 13.0733 1.83334 10 1.83334H6.00001Z" fill="currentColor"/>
<path d="M7.15981 10.8535C7.03314 10.8535 6.90648 10.8068 6.80648 10.7068C6.61314 10.5135 6.61314 10.1935 6.80648 10.0001L8.80648 8.00014L6.80648 6.00012C6.61314 5.80678 6.61314 5.48678 6.80648 5.29345C6.99981 5.10012 7.31981 5.10012 7.51314 5.29345L9.86648 7.64681C10.0598 7.84014 10.0598 8.16014 9.86648 8.35348L7.51314 10.7068C7.41314 10.8068 7.28648 10.8535 7.15981 10.8535Z" fill="currentColor"/>
</g>
<defs>
<clipPath id="clip0_2_5016">
<rect width="16" height="16" fill="currentColor"/>
</clipPath>
</defs>
</svg>
