<svg width="16" height="16" viewBox="0 0 16 16" fill="none" xmlns="http://www.w3.org/2000/svg">
<g clip-path="url(#clip0_2_5178)">
<path d="M8.09373 10.5465C7.82039 10.5465 7.59373 10.3199 7.59373 10.0465V8.73988C7.59373 6.78654 9.18039 5.19988 11.1404 5.19988H12.4471C12.7204 5.19988 12.9471 5.42654 12.9471 5.69988C12.9471 5.97321 12.7204 6.19988 12.4471 6.19988H11.1404C9.74039 6.19988 8.59373 7.33988 8.59373 8.73988V10.0465C8.59373 10.3265 8.36706 10.5465 8.09373 10.5465Z" fill="currentColor"/>
<path d="M8.09406 12.0001C7.82073 12.0001 7.59406 11.7734 7.59406 11.5001V8.74674C7.59406 7.34674 6.45407 6.20672 5.05407 6.20672H3.74739C3.47405 6.20672 3.24739 5.98005 3.24739 5.70672C3.24739 5.43338 3.47405 5.20672 3.74739 5.20672H5.05407C7.00739 5.20672 8.59406 6.79341 8.59406 8.74674V11.5001C8.59406 11.7734 8.36739 12.0001 8.09406 12.0001Z" fill="currentColor"/>
<path d="M4.75953 7.39994C4.63287 7.39994 4.50618 7.35328 4.40618 7.25328L3.20619 6.0533C3.01286 5.85997 3.01286 5.53997 3.20619 5.34664L4.40618 4.14664C4.59951 3.9533 4.91951 3.9533 5.11285 4.14664C5.30618 4.33997 5.30618 4.65997 5.11285 4.8533L4.26621 5.69997L5.11285 6.54664C5.30618 6.73994 5.30618 7.05994 5.11285 7.25328C5.01285 7.35328 4.8862 7.39994 4.75953 7.39994Z" fill="currentColor"/>
<path d="M11.2405 7.39994C11.1138 7.39994 10.9872 7.35328 10.8872 7.25328C10.6939 7.05994 10.6939 6.73994 10.8872 6.54664L11.7338 5.69997L10.8872 4.8533C10.6939 4.65997 10.6939 4.33997 10.8872 4.14664C11.0805 3.9533 11.4005 3.9533 11.5939 4.14664L12.7939 5.34664C12.9872 5.53997 12.9872 5.85997 12.7939 6.0533L11.5939 7.25328C11.5005 7.35328 11.3671 7.39994 11.2405 7.39994Z" fill="currentColor"/>
<path d="M9.99999 15.1667H5.99999C2.37999 15.1667 0.833328 13.62 0.833328 10V6.00001C0.833328 2.38001 2.37999 0.833344 5.99999 0.833344H9.99999C13.62 0.833344 15.1667 2.38001 15.1667 6.00001V10C15.1667 13.62 13.62 15.1667 9.99999 15.1667ZM5.99999 1.83334C2.92666 1.83334 1.83333 2.92668 1.83333 6.00001V10C1.83333 13.0733 2.92666 14.1667 5.99999 14.1667H9.99999C13.0733 14.1667 14.1667 13.0733 14.1667 10V6.00001C14.1667 2.92668 13.0733 1.83334 9.99999 1.83334H5.99999Z" fill="currentColor"/>
</g>
<defs>
<clipPath id="clip0_2_5178">
<rect width="16" height="16" fill="currentColor"/>
</clipPath>
</defs>
</svg>
