<svg width="16" height="16" viewBox="0 0 16 16" fill="none" xmlns="http://www.w3.org/2000/svg">
<path d="M7.99931 12.5C7.05264 12.5 6.186 11.9 5.55933 10.8133L3.77933 7.72667C3.146 6.64 3.066 5.59333 3.53933 4.77333C4.01266 3.95333 4.966 3.5 6.21933 3.5H9.77931C11.0326 3.5 11.986 3.95333 12.4593 4.77333C12.9326 5.59333 12.846 6.64667 12.2193 7.73333L10.4393 10.82C9.81264 11.9 8.94598 12.5 7.99931 12.5ZM6.21933 4.5C5.33266 4.5 4.69266 4.77333 4.406 5.27333C4.11266 5.77333 4.19933 6.46667 4.63933 7.22667L6.41933 10.3133C6.85931 11.08 7.41931 11.5 7.99265 11.5C8.56598 11.5 9.12598 11.08 9.56598 10.3133L11.346 7.22667C11.786 6.46 11.8726 5.76667 11.586 5.26667C11.2993 4.76667 10.6526 4.49333 9.77264 4.49333H6.21933V4.5Z" fill="currentColor"/>
</svg>
