<svg width="16" height="16" viewBox="0 0 16 16" fill="none" xmlns="http://www.w3.org/2000/svg">
<g clip-path="url(#clip0_2_5132)">
<path d="M8.13319 11.5866C7.66653 11.5866 7.19319 11.4066 6.83986 11.0533C6.49317 10.7066 6.29984 10.2466 6.29984 9.75994C6.29984 9.27328 6.49317 8.80661 6.83986 8.46661L7.77979 7.52661C7.97313 7.33328 8.29313 7.33328 8.48646 7.52661C8.67979 7.71994 8.67979 8.03994 8.48646 8.23328L7.54653 9.17328C7.38653 9.33328 7.29986 9.53994 7.29986 9.75994C7.29986 9.97994 7.38653 10.1933 7.54653 10.3466C7.87319 10.6733 8.39986 10.6733 8.72653 10.3466L10.2065 8.86661C11.0532 8.01994 11.0532 6.64664 10.2065 5.79997C9.35986 4.9533 7.98653 4.9533 7.13986 5.79997L5.52648 7.41328C5.18648 7.75328 4.99983 8.19994 4.99983 8.67328C4.99983 9.14661 5.18648 9.59994 5.52648 9.93328C5.71981 10.1266 5.71981 10.4466 5.52648 10.6399C5.33315 10.8333 5.01315 10.8333 4.81982 10.6399C4.29315 10.1133 4.00651 9.41328 4.00651 8.66661C4.00651 7.91994 4.29315 7.21994 4.81982 6.69328L6.43318 5.07996C7.66653 3.84662 9.67986 3.84662 10.9132 5.07996C12.1465 6.31329 12.1465 8.32661 10.9132 9.55994L9.43319 11.0399C9.07319 11.4066 8.60653 11.5866 8.13319 11.5866Z" fill="currentColor"/>
<path d="M7.99999 15.1667C4.04666 15.1667 0.833328 11.9533 0.833328 8.00001C0.833328 4.04668 4.04666 0.833344 7.99999 0.833344C11.9533 0.833344 15.1667 4.04668 15.1667 8.00001C15.1667 11.9533 11.9533 15.1667 7.99999 15.1667ZM7.99999 1.83334C4.59999 1.83334 1.83333 4.60001 1.83333 8.00001C1.83333 11.4 4.59999 14.1667 7.99999 14.1667C11.4 14.1667 14.1667 11.4 14.1667 8.00001C14.1667 4.60001 11.4 1.83334 7.99999 1.83334Z" fill="currentColor"/>
</g>
<defs>
<clipPath id="clip0_2_5132">
<rect width="16" height="16" fill="currentColor"/>
</clipPath>
</defs>
</svg>
