<svg width="16" height="16" viewBox="0 0 16 16" fill="none" xmlns="http://www.w3.org/2000/svg">
<g clip-path="url(#clip0_2_5312)">
<path d="M9.99999 15.1667H5.99999C2.37999 15.1667 0.833328 13.62 0.833328 10V6.00001C0.833328 2.38001 2.37999 0.833344 5.99999 0.833344H9.99999C13.62 0.833344 15.1667 2.38001 15.1667 6.00001V10C15.1667 13.62 13.62 15.1667 9.99999 15.1667ZM5.99999 1.83334C2.92666 1.83334 1.83333 2.92668 1.83333 6.00001V10C1.83333 13.0733 2.92666 14.1667 5.99999 14.1667H9.99999C13.0733 14.1667 14.1667 13.0733 14.1667 10V6.00001C14.1667 2.92668 13.0733 1.83334 9.99999 1.83334H5.99999Z" fill="currentColor"/>
<path d="M6.41333 12.0333C5.35999 12.0333 4.49999 11.1734 4.49999 10.1201C4.49999 9.06674 5.35999 8.20674 6.41333 8.20674C7.46666 8.20674 8.32666 9.06674 8.32666 10.1201C8.32666 11.1734 7.46666 12.0333 6.41333 12.0333ZM6.41333 9.21341C5.91333 9.21341 5.49999 9.62008 5.49999 10.1267C5.49999 10.6267 5.90666 11.0401 6.41333 11.0401C6.91333 11.0401 7.32666 10.6334 7.32666 10.1267C7.32666 9.62008 6.91333 9.21341 6.41333 9.21341Z" fill="currentColor"/>
<path d="M7.82679 10.62C7.55346 10.62 7.32679 10.3933 7.32679 10.12V5.18002C7.32679 4.90669 7.55346 4.68002 7.82679 4.68002C8.10013 4.68002 8.32679 4.90669 8.32679 5.18002L8.32666 10.1201C8.32666 10.4001 8.10013 10.62 7.82679 10.62Z" fill="currentColor"/>
<path d="M10.3469 7.61981C10.2069 7.61981 10.0601 7.59314 9.91346 7.54648L8.35353 7.02648C7.76686 6.83314 7.32679 6.21984 7.32679 5.59984V5.18651C7.32679 4.76651 7.5002 4.39984 7.80686 4.17984C8.11353 3.95984 8.51346 3.90649 8.91346 4.03982L10.4735 4.55984C11.0602 4.75317 11.5001 5.36648 11.5001 5.98648V6.3998C11.5001 6.81981 11.3269 7.18648 11.0202 7.40648C10.8269 7.54648 10.5935 7.61981 10.3469 7.61981ZM8.47353 4.9665C8.44019 4.9665 8.40686 4.97314 8.38686 4.98648C8.34686 5.01314 8.32013 5.0865 8.32013 5.17984V5.59316C8.32013 5.77983 8.49346 6.01314 8.66679 6.07314L10.2269 6.59316C10.3135 6.61983 10.3935 6.61983 10.4335 6.59316C10.4735 6.5665 10.5001 6.49314 10.5001 6.3998V5.98648C10.5001 5.79981 10.3268 5.5665 10.1535 5.5065L8.59353 4.98648C8.55353 4.97314 8.50686 4.9665 8.47353 4.9665Z" fill="currentColor"/>
</g>
<defs>
<clipPath id="clip0_2_5312">
<rect width="16" height="16" fill="currentColor"/>
</clipPath>
</defs>
</svg>
