<svg width="16" height="16" viewBox="0 0 16 16" fill="none" xmlns="http://www.w3.org/2000/svg">
<path d="M7.99986 15.1667C7.59986 15.1667 7.20653 15.0734 6.88653 14.8934L3.73318 13.0734C2.42651 12.1934 2.33984 12.0334 2.33984 10.6534V7.34674C2.33984 5.96672 2.42651 5.80672 3.70651 4.94672L6.8932 3.10672C7.52653 2.74005 8.47986 2.74005 9.1132 3.10672L12.2665 4.92672C13.5732 5.80672 13.6599 5.96672 13.6599 7.34674V10.6534C13.6599 12.0334 13.5732 12.1934 12.2932 13.0534L9.10653 14.8934C8.7932 15.0801 8.3932 15.1667 7.99986 15.1667ZM7.99986 3.83338C7.7732 3.83338 7.54653 3.88005 7.38653 3.97338L4.23318 5.79338C3.33984 6.40005 3.33984 6.40005 3.33984 7.34674V10.6534C3.33984 11.6001 3.33984 11.6001 4.26651 12.2267L7.3932 14.0267C7.7132 14.2134 8.2932 14.2134 8.6132 14.0267L11.7665 12.2067C12.6599 11.6001 12.6599 11.6001 12.6599 10.6534V7.34674C12.6599 6.40005 12.6599 6.40005 11.7332 5.77338L8.60653 3.97338C8.4532 3.88005 8.22653 3.83338 7.99986 3.83338Z" fill="currentColor"/>
<path d="M11.6667 5.58668C11.3933 5.58668 11.1667 5.36001 11.1667 5.08668V3.33334C11.1667 2.28001 10.72 1.83334 9.66666 1.83334H6.33333C5.28 1.83334 4.83333 2.28001 4.83333 3.33334V5.04001C4.83333 5.31334 4.60666 5.54001 4.33333 5.54001C4.06 5.54001 3.83333 5.32001 3.83333 5.04001V3.33334C3.83333 1.72001 4.72 0.833344 6.33333 0.833344H9.66666C11.28 0.833344 12.1667 1.72001 12.1667 3.33334V5.08668C12.1667 5.36001 11.94 5.58668 11.6667 5.58668Z" fill="currentColor"/>
<path d="M9.0868 11.7534C8.9468 11.7534 8.80013 11.7267 8.65346 11.6667L8.00013 11.4134L7.3468 11.6734C6.99346 11.8134 6.63349 11.7801 6.36682 11.5867C6.10016 11.3934 5.96016 11.0601 5.98016 10.6801L6.02016 9.98008L5.57349 9.44008C5.33349 9.14008 5.25349 8.79341 5.36016 8.47341C5.46016 8.16008 5.73349 7.92008 6.10016 7.82674L6.78013 7.65341L7.16013 7.06008C7.5668 6.42009 8.44013 6.42009 8.8468 7.06008L9.2268 7.65341L9.9068 7.82674C10.2735 7.92008 10.5468 8.16008 10.6468 8.47341C10.7468 8.78674 10.6668 9.14008 10.4268 9.43341L9.98013 9.97341L10.0201 10.6734C10.0401 11.0534 9.90013 11.3801 9.63346 11.5801C9.47346 11.6934 9.2868 11.7534 9.0868 11.7534ZM6.34682 8.80008L6.79346 9.34008C6.9468 9.52008 7.03346 9.80674 7.02013 10.0401L6.98013 10.7401L7.63346 10.4801C7.85346 10.3934 8.1468 10.3934 8.3668 10.4801L9.02013 10.7401L8.98013 10.0401C8.9668 9.80674 9.05346 9.52674 9.2068 9.34008L9.65346 8.80008L8.97346 8.62674C8.7468 8.56674 8.5068 8.39341 8.38013 8.20008L8.0068 7.61341L7.6268 8.20008C7.50013 8.40008 7.26013 8.57341 7.03346 8.63341L6.34682 8.80008Z" fill="currentColor"/>
</svg>
