<svg width="16" height="16" viewBox="0 0 16 16" fill="none" xmlns="http://www.w3.org/2000/svg">
<path d="M8.25372 11.2802H6.72705C6.45373 11.2802 6.22706 11.0535 6.22706 10.7802C6.22706 10.5069 6.45373 10.2802 6.72705 10.2802H8.25372C8.54039 10.2802 8.77372 10.0469 8.77372 9.76021C8.77372 9.47355 8.54039 9.24021 8.25372 9.24021H6.72705C6.56706 9.24021 6.41373 9.16021 6.3204 9.03355C6.22707 8.90688 6.2004 8.73355 6.25373 8.58021L6.76039 7.05355C6.82705 6.84688 7.02039 6.71355 7.23372 6.71355H9.27372C9.54705 6.71355 9.77372 6.94021 9.77372 7.21355C9.77372 7.48688 9.54705 7.71355 9.27372 7.71355H7.59372L7.42039 8.24021H8.25372C9.09372 8.24021 9.77372 8.92021 9.77372 9.76021C9.77372 10.6002 9.09372 11.2802 8.25372 11.2802Z" fill="currentColor"/>
<path d="M6.67999 3.47997C6.56663 3.47997 6.45997 3.44665 6.36663 3.36665C6.1533 3.19331 6.11997 2.87999 6.28664 2.66665L7.60665 1.02001C7.77999 0.806672 8.09332 0.773298 8.30665 0.939965C8.51999 1.1133 8.55332 1.42667 8.38665 1.64L7.06665 3.28665C6.97332 3.41331 6.82665 3.47997 6.67999 3.47997Z" fill="currentColor"/>
<path d="M7.99959 15.1665C4.45958 15.1665 1.57291 12.2865 1.57291 8.73981C1.57291 7.35981 2.01958 6.03316 2.87291 4.89983C3.03958 4.67983 3.35291 4.63319 3.57291 4.79986C3.7929 4.96653 3.83959 5.27985 3.67292 5.49985C2.95292 6.45985 2.57291 7.57981 2.57291 8.73981C2.57291 11.7331 5.00625 14.1665 7.99959 14.1665C10.9929 14.1665 13.4263 11.7331 13.4263 8.73981C13.4263 5.74651 10.9929 3.31317 7.99959 3.31317C7.61292 3.31317 7.21959 3.35985 6.79292 3.45985C6.52625 3.51985 6.25292 3.35318 6.19292 3.08652C6.13292 2.81985 6.29959 2.54651 6.56625 2.48651C7.06625 2.37317 7.53959 2.31317 7.99959 2.31317C11.5396 2.31317 14.4263 5.19317 14.4263 8.73981C14.4263 12.2865 11.5396 15.1665 7.99959 15.1665Z" fill="currentColor"/>
</svg>
