<svg width="16" height="16" viewBox="0 0 16 16" fill="none" xmlns="http://www.w3.org/2000/svg">
<path d="M13.3667 12.2401C13.06 12.2401 12.7467 12.1601 12.4667 11.9934L8.24001 9.55341C8.04668 9.44008 7.89334 9.30674 7.78001 9.16008C7.70668 9.07341 7.66668 8.96008 7.66668 8.84674V7.14008C7.66668 7.02674 7.70668 6.91341 7.78001 6.82674C7.90001 6.68008 8.05334 6.54672 8.24001 6.44006L12.4733 3.99338C13.0333 3.66672 13.7067 3.66672 14.2733 3.99338C14.84 4.32005 15.1733 4.90004 15.1733 5.55338V10.4334C15.1733 11.0867 14.84 11.6667 14.2733 11.9934C13.9867 12.1601 13.6733 12.2401 13.3667 12.2401ZM8.66001 8.64008C8.68668 8.66008 8.71334 8.68008 8.74001 8.69341L12.96 11.1267C13.2133 11.2734 13.5133 11.2734 13.76 11.1267C14.0133 10.9801 14.16 10.7201 14.16 10.4334V5.55338C14.16 5.26671 14.0133 5.00673 13.76 4.86006C13.5067 4.7134 13.2133 4.7134 12.96 4.86006L8.73334 7.30008C8.70668 7.31341 8.68001 7.33341 8.66001 7.35341V8.64008Z" fill="currentColor"/>
<path d="M6.86001 12.2401C6.55335 12.2401 6.24001 12.1601 5.96001 11.9934L1.73335 9.55341C1.17335 9.22674 0.833344 8.64674 0.833344 7.99341C0.833344 7.34008 1.16668 6.76008 1.73335 6.43338L5.96001 3.99338C6.52001 3.66672 7.19334 3.66672 7.76001 3.99338C8.32668 4.32005 8.66001 4.90004 8.66001 5.55338V10.4334C8.66001 11.0867 8.32668 11.6667 7.76001 11.9934C7.48001 12.1601 7.16668 12.2401 6.86001 12.2401ZM6.86001 4.76006C6.72001 4.76006 6.58668 4.79338 6.46001 4.86672L2.23335 7.30674C1.98002 7.45341 1.83334 7.71341 1.83334 8.00008C1.83334 8.28674 1.98002 8.54674 2.23335 8.69341L6.46001 11.1334C6.71334 11.2801 7.01334 11.2801 7.26001 11.1334C7.51334 10.9867 7.66001 10.7334 7.66001 10.4401V5.56005C7.66001 5.27338 7.51334 5.01338 7.26001 4.86672C7.13334 4.79338 7.00001 4.76006 6.86001 4.76006Z" fill="currentColor"/>
</svg>
