<svg width="16" height="16" viewBox="0 0 16 16" fill="none" xmlns="http://www.w3.org/2000/svg">
<g clip-path="url(#clip0_2_4717)">
<path d="M10 15.1667H6.00001C2.38001 15.1667 0.833344 13.62 0.833344 10V6.00001C0.833344 2.38001 2.38001 0.833344 6.00001 0.833344H10C13.62 0.833344 15.1667 2.38001 15.1667 6.00001V10C15.1667 13.62 13.62 15.1667 10 15.1667ZM6.00001 1.83334C2.92668 1.83334 1.83334 2.92668 1.83334 6.00001V10C1.83334 13.0733 2.92668 14.1667 6.00001 14.1667H10C13.0733 14.1667 14.1667 13.0733 14.1667 10V6.00001C14.1667 2.92668 13.0733 1.83334 10 1.83334H6.00001Z" fill="currentColor"/>
<path d="M9.28028 10.7531H6.00027C5.72694 10.7531 5.50027 10.5265 5.50027 10.2531C5.50027 9.97981 5.72694 9.75314 6.00027 9.75314H9.28028C10.1336 9.75314 10.8336 9.05981 10.8336 8.19981C10.8336 7.33981 10.1403 6.6465 9.28028 6.6465H4.76694C4.4936 6.6465 4.26694 6.41983 4.26694 6.1465C4.26694 5.87316 4.4936 5.6465 4.76694 5.6465H9.28028C10.6869 5.6465 11.8336 6.79314 11.8336 8.19981C11.8336 9.60648 10.6869 10.7531 9.28028 10.7531Z" fill="currentColor"/>
<path d="M5.71298 7.67988C5.58631 7.67988 5.45964 7.63321 5.35964 7.53321L4.31298 6.48656C4.11964 6.29323 4.11964 5.97322 4.31298 5.77989L5.35964 4.73322C5.55298 4.53989 5.87298 4.53989 6.06631 4.73322C6.25964 4.92656 6.25964 5.24656 6.06631 5.4399L5.37298 6.13322L6.06631 6.82654C6.25964 7.01988 6.25964 7.33988 6.06631 7.53321C5.97298 7.62654 5.84631 7.67988 5.71298 7.67988Z" fill="currentColor"/>
</g>
<defs>
<clipPath id="clip0_2_4717">
<rect width="16" height="16" fill="currentColor"/>
</clipPath>
</defs>
</svg>
