<svg width="16" height="16" viewBox="0 0 16 16" fill="none" xmlns="http://www.w3.org/2000/svg">
<g clip-path="url(#clip0_2_5336)">
<path d="M12.5666 7.83334H10.7666C8.99331 7.83334 8.16665 7.00668 8.16665 5.23335V3.43334C8.16665 1.66 8.99331 0.833344 10.7666 0.833344H12.5666C14.34 0.833344 15.1666 1.66 15.1666 3.43334V5.23335C15.1666 7.00668 14.34 7.83334 12.5666 7.83334ZM10.7666 1.83334C9.53998 1.83334 9.16665 2.20667 9.16665 3.43334V5.23335C9.16665 6.46002 9.53998 6.83334 10.7666 6.83334H12.5666C13.7933 6.83334 14.1666 6.46002 14.1666 5.23335V3.43334C14.1666 2.20667 13.7933 1.83334 12.5666 1.83334H10.7666Z" fill="currentColor"/>
<path d="M5.23331 15.1667H3.43331C1.65998 15.1667 0.833313 14.34 0.833313 12.5667V10.7667C0.833313 8.99334 1.65998 8.16668 3.43331 8.16668H5.23331C7.00665 8.16668 7.83331 8.99334 7.83331 10.7667V12.5667C7.83331 14.34 7.00665 15.1667 5.23331 15.1667ZM3.43331 9.16668C2.20665 9.16668 1.83331 9.54001 1.83331 10.7667V12.5667C1.83331 13.7933 2.20665 14.1667 3.43331 14.1667H5.23331C6.45998 14.1667 6.83331 13.7933 6.83331 12.5667V10.7667C6.83331 9.54001 6.45998 9.16668 5.23331 9.16668H3.43331Z" fill="currentColor"/>
<path d="M9.08071 12.0867H7.33405C7.06071 12.0867 6.83405 11.8601 6.83405 11.5867L6.83331 10.7667C6.83331 9.54001 6.45998 9.16668 5.23331 9.16668L4.41404 9.16674C4.14071 9.16674 3.91404 8.94008 3.91404 8.66674V6.92008C3.91404 4.8401 4.84071 3.91342 6.92071 3.91342H8.66738C8.94071 3.91342 9.16738 4.14009 9.16738 4.41342L9.16665 5.23335C9.16665 6.46002 9.53998 6.83334 10.7666 6.83334L11.5874 6.83341C11.8607 6.83341 12.0874 7.06008 12.0874 7.33341V9.08008C12.0874 11.1601 11.1607 12.0867 9.08071 12.0867ZM7.83405 11.0867H9.08071C10.6007 11.0867 11.0874 10.6001 11.0874 9.08008V7.83341L10.7666 7.83334C8.99331 7.83334 8.16665 7.00668 8.16665 5.23335L8.16738 4.91342H6.92071C5.40071 4.91342 4.91404 5.4001 4.91404 6.92008V8.16674L5.23331 8.16668C7.00665 8.16668 7.83331 8.99334 7.83331 10.7667L7.83405 11.0867Z" fill="currentColor"/>
</g>
<defs>
<clipPath id="clip0_2_5336">
<rect width="16" height="16" fill="currentColor"/>
</clipPath>
</defs>
</svg>
