<svg width="16" height="16" viewBox="0 0 16 16" fill="none" xmlns="http://www.w3.org/2000/svg">
<path d="M6.35969 11.1134C6.08635 11.1134 5.85969 10.8867 5.85969 10.6134V8.35341L5.73302 8.49341C5.54635 8.70008 5.23302 8.71341 5.02635 8.53341C4.81969 8.34675 4.80635 8.03341 4.98635 7.82675L5.98635 6.71341C6.12635 6.56006 6.34635 6.50673 6.53968 6.58006C6.73299 6.65339 6.85965 6.84008 6.85965 7.04674V10.6134C6.85965 10.8934 6.63969 11.1134 6.35969 11.1134Z" fill="currentColor"/>
<path d="M6.67999 3.47997C6.56663 3.47997 6.45997 3.44665 6.36663 3.36665C6.1533 3.19331 6.11997 2.87999 6.28664 2.66665L7.60665 1.02001C7.77999 0.806672 8.09332 0.773298 8.30665 0.939965C8.51999 1.10663 8.55332 1.42667 8.38665 1.64L7.06665 3.28665C6.97332 3.41331 6.82665 3.47997 6.67999 3.47997Z" fill="currentColor"/>
<path d="M7.99959 15.1665C4.45958 15.1665 1.57291 12.2865 1.57291 8.73981C1.57291 7.35981 2.01958 6.03316 2.87291 4.89983C3.03958 4.67983 3.35291 4.63319 3.57291 4.79986C3.7929 4.96653 3.83959 5.27985 3.67292 5.49985C2.95292 6.45985 2.57291 7.57981 2.57291 8.73981C2.57291 11.7331 5.00625 14.1665 7.99959 14.1665C10.9929 14.1665 13.4263 11.7331 13.4263 8.73981C13.4263 5.74651 10.9929 3.31317 7.99959 3.31317C7.61292 3.31317 7.21959 3.35985 6.79292 3.45985C6.52625 3.51985 6.25292 3.35318 6.19292 3.08652C6.13292 2.81985 6.29959 2.54651 6.56625 2.48651C7.06625 2.37317 7.53959 2.31317 7.99959 2.31317C11.5396 2.31317 14.4263 5.19317 14.4263 8.73981C14.4263 12.2865 11.5396 15.1665 7.99959 15.1665Z" fill="currentColor"/>
<path d="M9.33332 11.1135C8.31999 11.1135 7.49999 10.2935 7.49999 9.28021V8.38021C7.49999 7.36688 8.31999 6.54689 9.33332 6.54689C10.3467 6.54689 11.1667 7.36688 11.1667 8.38021V9.28021C11.1667 10.2935 10.3467 11.1135 9.33332 11.1135ZM9.33332 7.55355C8.87332 7.55355 8.49999 7.92688 8.49999 8.38688V9.28688C8.49999 9.74688 8.87332 10.1202 9.33332 10.1202C9.79332 10.1202 10.1667 9.74688 10.1667 9.28688V8.38688C10.1667 7.92688 9.79332 7.55355 9.33332 7.55355Z" fill="currentColor"/>
</svg>
