<svg width="16" height="16" viewBox="0 0 16 16" fill="none" xmlns="http://www.w3.org/2000/svg">
<path d="M9.61959 11.2802H8.09299C7.81965 11.2802 7.59299 11.0535 7.59299 10.7802C7.59299 10.5069 7.81965 10.2802 8.09299 10.2802H9.61959C9.90625 10.2802 10.1397 10.0469 10.1397 9.76021C10.1397 9.47355 9.90625 9.24021 9.61959 9.24021H8.09299C7.93299 9.24021 7.77965 9.16021 7.68632 9.03355C7.59299 8.90688 7.56625 8.73355 7.61959 8.58021L8.12625 7.05355C8.19292 6.84688 8.38632 6.71355 8.59965 6.71355H10.6397C10.913 6.71355 11.1397 6.94021 11.1397 7.21355C11.1397 7.48688 10.913 7.71355 10.6397 7.71355H8.95959L8.78625 8.24021H9.61959C10.4596 8.24021 11.1397 8.92021 11.1397 9.76021C11.1397 10.6002 10.4529 11.2802 9.61959 11.2802Z" fill="currentColor"/>
<path d="M6.35969 11.2799C6.08635 11.2799 5.85969 11.0532 5.85969 10.7799V8.51995L5.73302 8.66655C5.54635 8.87321 5.23302 8.88655 5.02635 8.70655C4.81969 8.51988 4.80635 8.20655 4.98635 7.99988L5.98635 6.88655C6.12635 6.73321 6.34637 6.67988 6.5397 6.75321C6.73305 6.82655 6.85965 7.01321 6.85965 7.21988V10.7865C6.85965 11.0599 6.63969 11.2799 6.35969 11.2799Z" fill="currentColor"/>
<path d="M6.67999 3.47997C6.56665 3.47997 6.45997 3.44665 6.36663 3.36665C6.1533 3.19331 6.11997 2.87999 6.28664 2.66665L7.60665 1.02001C7.77999 0.806672 8.09332 0.773298 8.30665 0.939965C8.51999 1.10663 8.55332 1.42667 8.38665 1.64L7.06665 3.28665C6.97332 3.41331 6.82665 3.47997 6.67999 3.47997Z" fill="currentColor"/>
<path d="M7.99959 15.1665C4.45958 15.1665 1.57291 12.2865 1.57291 8.73981C1.57291 7.35981 2.01958 6.03316 2.87291 4.89983C3.03958 4.67983 3.35291 4.63319 3.57291 4.79986C3.7929 4.96653 3.83959 5.27985 3.67292 5.49985C2.95292 6.45985 2.57291 7.57981 2.57291 8.73981C2.57291 11.7331 5.00625 14.1665 7.99959 14.1665C10.9929 14.1665 13.4263 11.7331 13.4263 8.73981C13.4263 5.74651 10.9929 3.31317 7.99959 3.31317C7.61292 3.31317 7.21959 3.35985 6.79292 3.45985C6.51958 3.51985 6.2529 3.35318 6.1929 3.08652C6.1329 2.81985 6.29957 2.54651 6.56623 2.48651C7.06625 2.37317 7.53959 2.31317 7.99959 2.31317C11.5396 2.31317 14.4263 5.19317 14.4263 8.73981C14.4263 12.2865 11.5396 15.1665 7.99959 15.1665Z" fill="currentColor"/>
</svg>
