<svg width="16" height="16" viewBox="0 0 16 16" fill="none" xmlns="http://www.w3.org/2000/svg">
<g clip-path="url(#clip0_2_5325)">
<path d="M8.92685 12.0733C8.80018 12.0733 8.67351 12.0267 8.57351 11.9267L6.73351 10.0867C6.54019 9.89334 6.54019 9.57333 6.73351 9.38C6.92685 9.18667 7.24685 9.18667 7.44018 9.38L9.28018 11.22C9.47351 11.4133 9.47351 11.7333 9.28018 11.9267C9.18685 12.0267 9.06018 12.0733 8.92685 12.0733Z" fill="currentColor"/>
<path d="M7.07385 12.0934C6.94718 12.0934 6.82051 12.0467 6.72051 11.9467C6.52717 11.7534 6.52717 11.4334 6.72051 11.2401L8.56051 9.40007C8.75385 9.20673 9.07385 9.20673 9.26718 9.40007C9.46051 9.5934 9.46051 9.9134 9.26718 10.1067L7.42718 11.9467C7.32718 12.0467 7.20051 12.0934 7.07385 12.0934Z" fill="currentColor"/>
<path d="M3.46055 4.25329C3.33389 4.25329 3.20055 4.19996 3.10722 4.10663C2.91389 3.91329 2.91389 3.59329 3.10722 3.39996L5.52722 0.979961C5.72055 0.786628 6.04055 0.786628 6.23389 0.979961C6.42722 1.17329 6.42722 1.49329 6.23389 1.68663L3.81389 4.10663C3.71389 4.19996 3.58722 4.25329 3.46055 4.25329Z" fill="currentColor"/>
<path d="M12.5394 4.25329C12.4127 4.25329 12.286 4.20663 12.186 4.10663L9.76605 1.68663C9.57271 1.49329 9.57271 1.17329 9.76605 0.979961C9.95938 0.786628 10.2794 0.786628 10.4727 0.979961L12.8927 3.39996C13.086 3.59329 13.086 3.91329 12.8927 4.10663C12.7994 4.19996 12.666 4.25329 12.5394 4.25329Z" fill="currentColor"/>
<path d="M13.4733 7.06673C13.4266 7.06673 13.38 7.06673 13.3333 7.06673H2.66665C2.19998 7.0734 1.66665 7.0734 1.27998 6.68673C0.973313 6.38673 0.833313 5.92007 0.833313 5.2334C0.833313 3.40007 2.17331 3.40007 2.81331 3.40007H13.1866C13.8266 3.40007 15.1666 3.40007 15.1666 5.2334C15.1666 5.92673 15.0266 6.38673 14.72 6.68673C14.3733 7.0334 13.9066 7.06673 13.4733 7.06673ZM13.34 6.06673C13.64 6.0734 13.92 6.0734 14.0133 5.98007C14.06 5.9334 14.16 5.7734 14.16 5.2334C14.16 4.48007 13.9733 4.40007 13.18 4.40007H2.81331C2.01998 4.40007 1.83331 4.48007 1.83331 5.2334C1.83331 5.7734 1.93998 5.9334 1.97998 5.98007C2.07331 6.06673 2.35998 6.06673 2.65331 6.06673H13.34Z" fill="currentColor"/>
<path d="M9.92711 15.1667H5.90713C3.52047 15.1667 2.98713 13.7467 2.78047 12.5133L1.84047 6.74667C1.7938 6.47333 1.98047 6.22 2.2538 6.17334C2.52713 6.12667 2.78047 6.31333 2.82713 6.58667L3.76713 12.3467C3.96047 13.5267 4.36047 14.1667 5.90713 14.1667H9.92711C11.6404 14.1667 11.8338 13.5667 12.0538 12.4067L13.1738 6.57333C13.2271 6.3 13.4871 6.12 13.7604 6.18C14.0338 6.23334 14.2071 6.49333 14.1538 6.76667L13.0338 12.6C12.7738 13.9533 12.3404 15.1667 9.92711 15.1667Z" fill="currentColor"/>
</g>
<defs>
<clipPath id="clip0_2_5325">
<rect width="16" height="16" fill="currentColor"/>
</clipPath>
</defs>
</svg>
