<svg width="16" height="16" viewBox="0 0 16 16" fill="none" xmlns="http://www.w3.org/2000/svg">
<path d="M8 13.1667C6.25333 13.1667 4.83333 11.7467 4.83333 10C4.83333 8.25334 6.25333 6.83334 8 6.83334C9.74667 6.83334 11.1667 8.25334 11.1667 10C11.1667 11.7467 9.74667 13.1667 8 13.1667ZM8 7.83334C6.80666 7.83334 5.83333 8.80667 5.83333 10C5.83333 11.1933 6.80666 12.1667 8 12.1667C9.19333 12.1667 10.1667 11.1933 10.1667 10C10.1667 8.80667 9.19333 7.83334 8 7.83334Z" fill="currentColor"/>
<path d="M7.62726 11.0267C7.41393 11.0267 7.2006 10.9467 7.0406 10.78L6.60724 10.3467C6.41391 10.1533 6.41391 9.83334 6.60724 9.64C6.8006 9.44667 7.1206 9.44667 7.31393 9.64L7.63393 9.96L8.70726 8.97334C8.90726 8.78667 9.22727 8.8 9.41393 9C9.6006 9.2 9.58727 9.52 9.38727 9.70667L8.2006 10.8C8.03393 10.9533 7.82726 11.0267 7.62726 11.0267Z" fill="currentColor"/>
<path d="M9.99986 15.1667H5.99988C2.91988 15.1667 2.34655 13.7333 2.19988 12.34L1.69988 8.34667C1.62655 7.62667 1.59988 6.59334 2.29988 5.82C2.89988 5.15334 3.89321 4.83334 5.33321 4.83334H10.6665C12.1132 4.83334 13.1065 5.16 13.6999 5.82C14.3932 6.59334 14.3732 7.62667 14.2999 8.33334L13.7999 12.34C13.6532 13.7333 13.0799 15.1667 9.99986 15.1667ZM5.33321 5.83334C4.20655 5.83334 3.43321 6.05334 3.03988 6.49334C2.71321 6.85334 2.60655 7.40667 2.69321 8.23334L3.19321 12.2267C3.30655 13.2933 3.59988 14.1733 5.99988 14.1733H9.99986C12.3999 14.1733 12.6932 13.3 12.8065 12.24L13.3065 8.23334C13.3932 7.42 13.2865 6.86667 12.9599 6.5C12.5665 6.05334 11.7932 5.83334 10.6665 5.83334H5.33321Z" fill="currentColor"/>
<path d="M11 5.75337C10.7267 5.75337 10.5 5.5267 10.5 5.25337V4.33337C10.5 3.63338 10.2 2.95337 9.68 2.48004C9.15333 2.00004 8.46667 1.78004 7.75333 1.8467C6.55333 1.96004 5.5 3.1867 5.5 4.4667V5.11337C5.5 5.3867 5.27333 5.61337 5 5.61337C4.72667 5.61337 4.5 5.3867 4.5 5.11337V4.46004C4.5 2.6667 5.94666 1.01337 7.66 0.846703C8.66 0.75337 9.62 1.0667 10.3533 1.74004C11.08 2.40004 11.5 3.3467 11.5 4.33337V5.25337C11.5 5.5267 11.2733 5.75337 11 5.75337Z" fill="currentColor"/>
</svg>
