<svg width="16" height="16" viewBox="0 0 16 16" fill="none" xmlns="http://www.w3.org/2000/svg">
<g clip-path="url(#clip0_2_4935)">
<path d="M14 7.8334H2.00002C1.36002 7.8334 0.833354 7.30673 0.833354 6.66673V4.45342C0.833354 4.00008 1.14667 3.54008 1.56667 3.37342L7.56669 0.973438C7.82002 0.873437 8.18002 0.873437 8.43335 0.973438L14.4334 3.37342C14.8534 3.54008 15.1667 4.00675 15.1667 4.45342V6.66673C15.1667 7.30673 14.64 7.8334 14 7.8334ZM8.00002 1.89344C7.97335 1.89344 7.94669 1.8934 7.93335 1.90007L1.94 4.3001C1.9 4.3201 1.83335 4.40675 1.83335 4.45342V6.66673C1.83335 6.76006 1.90669 6.8334 2.00002 6.8334H14C14.0934 6.8334 14.1667 6.76006 14.1667 6.66673V4.45342C14.1667 4.40675 14.1067 4.3201 14.06 4.3001L8.06002 1.90007C8.04669 1.8934 8.02669 1.89344 8.00002 1.89344Z" fill="currentColor"/>
<path d="M14.6667 15.1667H1.33335C1.06002 15.1667 0.833354 14.94 0.833354 14.6667V12.6667C0.833354 12.0267 1.36002 11.5 2.00002 11.5H14C14.64 11.5 15.1667 12.0267 15.1667 12.6667V14.6667C15.1667 14.94 14.94 15.1667 14.6667 15.1667ZM1.83335 14.1667H14.1667V12.6667C14.1667 12.5733 14.0934 12.5 14 12.5H2.00002C1.90669 12.5 1.83335 12.5733 1.83335 12.6667V14.1667Z" fill="currentColor"/>
<path d="M2.66669 12.5C2.39335 12.5 2.16669 12.2733 2.16669 12V7.33333C2.16669 7.06 2.39335 6.83333 2.66669 6.83333C2.94002 6.83333 3.16669 7.06 3.16669 7.33333V12C3.16669 12.2733 2.94002 12.5 2.66669 12.5Z" fill="currentColor"/>
<path d="M5.33335 12.5C5.06002 12.5 4.83335 12.2733 4.83335 12V7.33333C4.83335 7.06 5.06002 6.83333 5.33335 6.83333C5.60669 6.83333 5.83335 7.06 5.83335 7.33333V12C5.83335 12.2733 5.60669 12.5 5.33335 12.5Z" fill="currentColor"/>
<path d="M8.00002 12.5C7.72669 12.5 7.50002 12.2733 7.50002 12V7.33333C7.50002 7.06 7.72669 6.83333 8.00002 6.83333C8.27335 6.83333 8.50002 7.06 8.50002 7.33333V12C8.50002 12.2733 8.27335 12.5 8.00002 12.5Z" fill="currentColor"/>
<path d="M10.6667 12.5C10.3934 12.5 10.1667 12.2733 10.1667 12V7.33333C10.1667 7.06 10.3934 6.83333 10.6667 6.83333C10.94 6.83333 11.1667 7.06 11.1667 7.33333V12C11.1667 12.2733 10.94 12.5 10.6667 12.5Z" fill="currentColor"/>
<path d="M13.3334 12.5C13.06 12.5 12.8334 12.2733 12.8334 12V7.33333C12.8334 7.06 13.06 6.83333 13.3334 6.83333C13.6067 6.83333 13.8334 7.06 13.8334 7.33333V12C13.8334 12.2733 13.6067 12.5 13.3334 12.5Z" fill="currentColor"/>
<path d="M15.3334 15.1667H0.666687C0.393354 15.1667 0.166687 14.94 0.166687 14.6667C0.166687 14.3933 0.393354 14.1667 0.666687 14.1667H15.3334C15.6067 14.1667 15.8334 14.3933 15.8334 14.6667C15.8334 14.94 15.6067 15.1667 15.3334 15.1667Z" fill="currentColor"/>
<path d="M8.00002 6.16666C7.17335 6.16666 6.50002 5.49333 6.50002 4.66666C6.50002 3.84 7.17335 3.16666 8.00002 3.16666C8.82669 3.16666 9.50002 3.84 9.50002 4.66666C9.50002 5.49333 8.82669 6.16666 8.00002 6.16666ZM8.00002 4.16666C7.72669 4.16666 7.50002 4.39333 7.50002 4.66666C7.50002 4.94 7.72669 5.16666 8.00002 5.16666C8.27335 5.16666 8.50002 4.94 8.50002 4.66666C8.50002 4.39333 8.27335 4.16666 8.00002 4.16666Z" fill="currentColor"/>
</g>
<defs>
<clipPath id="clip0_2_4935">
<rect width="16" height="16" fill="currentColor"/>
</clipPath>
</defs>
</svg>
