<svg width="16" height="16" viewBox="0 0 16 16" fill="none" xmlns="http://www.w3.org/2000/svg">
<path d="M11.3333 14.1667H4.66665C2.23331 14.1667 0.833313 12.7667 0.833313 10.3333V5.66668C0.833313 3.23334 2.23331 1.83334 4.66665 1.83334H11.3333C13.7666 1.83334 15.1666 3.23334 15.1666 5.66668V10.3333C15.1666 12.7667 13.7666 14.1667 11.3333 14.1667ZM4.66665 2.83334C2.75998 2.83334 1.83331 3.76001 1.83331 5.66668V10.3333C1.83331 12.24 2.75998 13.1667 4.66665 13.1667H11.3333C13.24 13.1667 14.1666 12.24 14.1666 10.3333V5.66668C14.1666 3.76001 13.24 2.83334 11.3333 2.83334H4.66665Z" fill="currentColor"/>
<path d="M3.99998 11.1667C3.72665 11.1667 3.49998 10.94 3.49998 10.6667V5.33334C3.49998 5.06001 3.72665 4.83334 3.99998 4.83334C4.27331 4.83334 4.49998 5.06001 4.49998 5.33334V10.6667C4.49998 10.94 4.27331 11.1667 3.99998 11.1667Z" fill="currentColor"/>
<path d="M5.99998 8.50001C5.72665 8.50001 5.49998 8.27334 5.49998 8.00001V5.33334C5.49998 5.06001 5.72665 4.83334 5.99998 4.83334C6.27331 4.83334 6.49998 5.06001 6.49998 5.33334V8.00001C6.49998 8.27334 6.27331 8.50001 5.99998 8.50001Z" fill="currentColor"/>
<path d="M5.99998 11.1667C5.72665 11.1667 5.49998 10.94 5.49998 10.6667V10C5.49998 9.72668 5.72665 9.50001 5.99998 9.50001C6.27331 9.50001 6.49998 9.72668 6.49998 10V10.6667C6.49998 10.94 6.27331 11.1667 5.99998 11.1667Z" fill="currentColor"/>
<path d="M9.99998 6.50001C9.72665 6.50001 9.49998 6.27334 9.49998 6.00001V5.33334C9.49998 5.06001 9.72665 4.83334 9.99998 4.83334C10.2733 4.83334 10.5 5.06001 10.5 5.33334V6.00001C10.5 6.27334 10.2733 6.50001 9.99998 6.50001Z" fill="currentColor"/>
<path d="M7.99998 11.1667C7.72665 11.1667 7.49998 10.94 7.49998 10.6667V5.33334C7.49998 5.06001 7.72665 4.83334 7.99998 4.83334C8.27331 4.83334 8.49998 5.06001 8.49998 5.33334V10.6667C8.49998 10.94 8.27331 11.1667 7.99998 11.1667Z" fill="currentColor"/>
<path d="M9.99998 11.1667C9.72665 11.1667 9.49998 10.94 9.49998 10.6667V8.00001C9.49998 7.72668 9.72665 7.50001 9.99998 7.50001C10.2733 7.50001 10.5 7.72668 10.5 8.00001V10.6667C10.5 10.94 10.2733 11.1667 9.99998 11.1667Z" fill="currentColor"/>
<path d="M12 11.1667C11.7266 11.1667 11.5 10.94 11.5 10.6667V5.33334C11.5 5.06001 11.7266 4.83334 12 4.83334C12.2733 4.83334 12.5 5.06001 12.5 5.33334V10.6667C12.5 10.94 12.2733 11.1667 12 11.1667Z" fill="currentColor"/>
</svg>
