<svg width="16" height="16" viewBox="0 0 16 16" fill="none" xmlns="http://www.w3.org/2000/svg">
<path d="M13.6666 10.1667C13.3933 10.1667 13.1666 9.93999 13.1666 9.66665C13.1666 9.39332 13.3933 9.16665 13.6666 9.16665C14.06 9.16665 14.1466 9.10665 14.1533 9.10665C14.1666 9.06665 14.1666 8.83332 14.1666 8.66665V7.33332C14.1666 7.16665 14.1666 6.93999 14.14 6.87999C14.1333 6.88665 14.0333 6.83332 13.6666 6.83332C13.3933 6.83332 13.1666 6.60665 13.1666 6.33332C13.1666 6.05999 13.3933 5.83332 13.6666 5.83332C15.0533 5.83332 15.1666 6.51332 15.1666 7.33332V8.66665C15.1666 9.48665 15.0533 10.1667 13.6666 10.1667Z" fill="currentColor"/>
<path d="M2.66723 14.8334C2.5739 14.8334 2.48057 14.8067 2.40057 14.7534C2.16723 14.6067 2.0939 14.3001 2.24723 14.0667L10.2472 1.40007C10.3939 1.16673 10.7072 1.10007 10.9339 1.24673C11.1672 1.3934 11.2406 1.70007 11.0872 1.9334L3.08723 14.6001C2.9939 14.7534 2.8339 14.8334 2.66723 14.8334Z" fill="currentColor"/>
<path d="M3.59331 13.1133C3.57331 13.1133 3.55331 13.1133 3.53998 13.1133C1.27331 12.86 0.833313 11.54 0.833313 9.33332V6.66665C0.833313 3.72665 1.72665 2.83332 4.66665 2.83332C4.93998 2.83332 5.16665 3.05999 5.16665 3.33332C5.16665 3.60665 4.93998 3.83332 4.66665 3.83332C2.28665 3.83332 1.83331 4.28665 1.83331 6.66665V9.33332C1.83331 11.5467 2.28665 11.9667 3.64665 12.12C3.91998 12.1533 4.11998 12.4 4.08665 12.6733C4.05998 12.9267 3.83998 13.1133 3.59331 13.1133Z" fill="currentColor"/>
<path d="M8.66665 13.1667C8.39331 13.1667 8.16665 12.94 8.16665 12.6667C8.16665 12.3933 8.39331 12.1667 8.66665 12.1667C11.0466 12.1667 11.5 11.7133 11.5 9.33332V6.66663C11.5 4.45996 11.0466 4.03329 9.69331 3.87996C9.41998 3.84663 9.21998 3.59996 9.25331 3.32663C9.28665 3.05329 9.52665 2.84663 9.80665 2.88663C12.06 3.13996 12.5 4.46663 12.5 6.66663V9.33332C12.5 12.2733 11.6066 13.1667 8.66665 13.1667Z" fill="currentColor"/>
</svg>
