<svg width="16" height="16" viewBox="0 0 16 16" fill="none" xmlns="http://www.w3.org/2000/svg">
<path d="M13.6666 10.1667C13.3933 10.1667 13.1666 9.94001 13.1666 9.66668C13.1666 9.39334 13.3933 9.16668 13.6666 9.16668C14.06 9.16668 14.1466 9.10668 14.1533 9.10668C14.1666 9.06668 14.1666 8.83334 14.1666 8.66668V7.33334C14.1666 7.16668 14.1666 6.94001 14.14 6.88001C14.1333 6.88668 14.0333 6.83334 13.6666 6.83334C13.3933 6.83334 13.1666 6.60668 13.1666 6.33334C13.1666 6.06001 13.3933 5.83334 13.6666 5.83334C15.0533 5.83334 15.1666 6.51334 15.1666 7.33334V8.66668C15.1666 9.48668 15.0533 10.1667 13.6666 10.1667Z" fill="currentColor"/>
<path d="M4.25303 9.83341C4.21303 9.83341 4.17303 9.82674 4.13303 9.82008C3.86637 9.75341 3.6997 9.48008 3.76637 9.21341C3.96637 8.42008 3.96637 7.58008 3.76637 6.78674C3.6997 6.52008 3.8597 6.24674 4.13303 6.18008C4.3997 6.11341 4.66637 6.28008 4.73303 6.54674C4.97303 7.50008 4.97303 8.50674 4.73303 9.45341C4.6797 9.68008 4.47303 9.83341 4.25303 9.83341Z" fill="currentColor"/>
<path d="M6.58637 9.83328C6.54637 9.83328 6.50637 9.82661 6.46637 9.81994C6.19971 9.75328 6.03303 9.47994 6.0997 9.21328C6.2997 8.41994 6.2997 7.57994 6.0997 6.78661C6.03303 6.51998 6.19304 6.24664 6.46637 6.17998C6.73305 6.11331 7.00638 6.27331 7.07305 6.54664C7.31305 7.49994 7.31305 8.50661 7.07305 9.45328C7.01305 9.67994 6.80638 9.83328 6.58637 9.83328Z" fill="currentColor"/>
<path d="M8.66665 13.1667H4.66665C1.72665 13.1667 0.833313 12.2733 0.833313 9.33334V6.66668C0.833313 3.72668 1.72665 2.83334 4.66665 2.83334H8.66665C11.6066 2.83334 12.5 3.72668 12.5 6.66668V9.33334C12.5 12.2733 11.6066 13.1667 8.66665 13.1667ZM4.66665 3.83334C2.28665 3.83334 1.83331 4.28668 1.83331 6.66668V9.33334C1.83331 11.7133 2.28665 12.1667 4.66665 12.1667H8.66665C11.0466 12.1667 11.5 11.7133 11.5 9.33334V6.66668C11.5 4.28668 11.0466 3.83334 8.66665 3.83334H4.66665Z" fill="currentColor"/>
</svg>
