<svg width="16" height="16" viewBox="0 0 16 16" fill="none" xmlns="http://www.w3.org/2000/svg">
<path d="M13.6666 10.1667C13.3933 10.1667 13.1666 9.94001 13.1666 9.66668C13.1666 9.39334 13.3933 9.16668 13.6666 9.16668C14.06 9.16668 14.1466 9.10668 14.1533 9.10668C14.1666 9.06668 14.1666 8.83334 14.1666 8.66668V7.33334C14.1666 7.16668 14.1666 6.94001 14.14 6.88001C14.1333 6.88668 14.0333 6.83334 13.6666 6.83334C13.3933 6.83334 13.1666 6.60668 13.1666 6.33334C13.1666 6.06001 13.3933 5.83334 13.6666 5.83334C15.0533 5.83334 15.1666 6.51334 15.1666 7.33334V8.66668C15.1666 9.48668 15.0533 10.1667 13.6666 10.1667Z" fill="currentColor"/>
<path d="M6.66725 11.1667C6.55394 11.1667 6.43394 11.1267 6.34061 11.0467C6.13394 10.8667 6.10727 10.5533 6.28727 10.34L7.67391 8.72001C7.69391 8.66001 7.67391 8.60668 7.66058 8.58001C7.64058 8.54668 7.60058 8.50001 7.51391 8.50001H5.98061C5.56061 8.50001 5.18061 8.28001 4.96727 7.92001C4.75394 7.56001 4.75394 7.12001 4.96727 6.75334L6.26727 5.03336C6.43394 4.81336 6.74725 4.7667 6.96725 4.93336C7.18725 5.10003 7.23391 5.41336 7.06725 5.63336L5.80727 7.30001C5.80061 7.32001 5.82727 7.38001 5.84061 7.41334C5.86061 7.44668 5.90061 7.49334 5.98727 7.49334H7.52058C7.94058 7.49334 8.32058 7.71334 8.53391 8.07334C8.74725 8.43334 8.74725 8.87334 8.53391 9.24001C8.52058 9.26668 8.50058 9.29334 8.48058 9.31334L7.05391 10.98C6.94725 11.1067 6.80725 11.1667 6.66725 11.1667Z" fill="currentColor"/>
<path d="M4.66665 13.1667C1.72665 13.1667 0.833313 12.2733 0.833313 9.33334V6.66668C0.833313 3.72668 1.72665 2.83334 4.66665 2.83334C4.93998 2.83334 5.16665 3.06001 5.16665 3.33334C5.16665 3.60668 4.93998 3.83334 4.66665 3.83334C2.28665 3.83334 1.83331 4.28668 1.83331 6.66668V9.33334C1.83331 11.7133 2.28665 12.1667 4.66665 12.1667C4.93998 12.1667 5.16665 12.3933 5.16665 12.6667C5.16665 12.94 4.93998 13.1667 4.66665 13.1667Z" fill="currentColor"/>
<path d="M8.66665 13.1667C8.39331 13.1667 8.16665 12.94 8.16665 12.6667C8.16665 12.3933 8.39331 12.1667 8.66665 12.1667C11.0466 12.1667 11.5 11.7133 11.5 9.33334V6.66668C11.5 4.28668 11.0466 3.83334 8.66665 3.83334C8.39331 3.83334 8.16665 3.60668 8.16665 3.33334C8.16665 3.06001 8.39331 2.83334 8.66665 2.83334C11.6066 2.83334 12.5 3.72668 12.5 6.66668V9.33334C12.5 12.2733 11.6066 13.1667 8.66665 13.1667Z" fill="currentColor"/>
</svg>
