<svg width="16" height="16" viewBox="0 0 16 16" fill="none" xmlns="http://www.w3.org/2000/svg">
<path d="M8.66668 13.1667H4.66668C1.72668 13.1667 0.833344 12.2733 0.833344 9.33334V6.66668C0.833344 3.72668 1.72668 2.83334 4.66668 2.83334H8.66668C11.6067 2.83334 12.5 3.72668 12.5 6.66668V9.33334C12.5 12.2733 11.6067 13.1667 8.66668 13.1667ZM4.66668 3.83334C2.28001 3.83334 1.83334 4.28668 1.83334 6.66668V9.33334C1.83334 11.7133 2.28001 12.1667 4.66668 12.1667H8.66668C11.0533 12.1667 11.5 11.7133 11.5 9.33334V6.66668C11.5 4.28668 11.0533 3.83334 8.66668 3.83334H4.66668Z" fill="currentColor"/>
<path d="M13.6667 10.1667C13.3933 10.1667 13.1667 9.94001 13.1667 9.66668C13.1667 9.39334 13.3933 9.16668 13.6667 9.16668C14.06 9.16668 14.1467 9.10668 14.1533 9.10668C14.1667 9.06668 14.1667 8.83334 14.1667 8.66668V7.33334C14.1667 7.16668 14.1667 6.94001 14.14 6.88001C14.1333 6.88668 14.0333 6.83334 13.6667 6.83334C13.3933 6.83334 13.1667 6.60668 13.1667 6.33334C13.1667 6.06001 13.3933 5.83334 13.6667 5.83334C15.0533 5.83334 15.1667 6.51334 15.1667 7.33334V8.66668C15.1667 9.48668 15.0533 10.1667 13.6667 10.1667Z" fill="currentColor"/>
<path d="M4.25306 9.83341C4.21306 9.83341 4.17306 9.82674 4.13306 9.82008C3.8664 9.75341 3.69973 9.48008 3.7664 9.21341C3.9664 8.42008 3.9664 7.58008 3.7664 6.78674C3.69973 6.52008 3.85973 6.24674 4.13306 6.18008C4.39306 6.11341 4.6664 6.28008 4.73306 6.54674C4.97306 7.50008 4.97306 8.50674 4.73306 9.45341C4.67973 9.68008 4.47306 9.83341 4.25306 9.83341Z" fill="currentColor"/>
</svg>
