<svg width="16" height="16" viewBox="0 0 16 16" fill="none" xmlns="http://www.w3.org/2000/svg">
<path d="M1.99999 6.49999C0.986657 6.49999 0.166656 5.67999 0.166656 4.66666C0.166656 3.65332 0.986657 2.83332 1.99999 2.83332C3.01332 2.83332 3.83332 3.65332 3.83332 4.66666C3.83332 5.67999 3.01332 6.49999 1.99999 6.49999ZM1.99999 3.83332C1.53999 3.83332 1.16666 4.20666 1.16666 4.66666C1.16666 5.12666 1.53999 5.49999 1.99999 5.49999C2.45999 5.49999 2.83332 5.12666 2.83332 4.66666C2.83332 4.20666 2.45999 3.83332 1.99999 3.83332Z" fill="currentColor"/>
<path d="M14 6.49999C12.9867 6.49999 12.1667 5.67999 12.1667 4.66666C12.1667 3.65332 12.9867 2.83332 14 2.83332C15.0133 2.83332 15.8333 3.65332 15.8333 4.66666C15.8333 5.67999 15.0133 6.49999 14 6.49999ZM14 3.83332C13.54 3.83332 13.1667 4.20666 13.1667 4.66666C13.1667 5.12666 13.54 5.49999 14 5.49999C14.46 5.49999 14.8333 5.12666 14.8333 4.66666C14.8333 4.20666 14.46 3.83332 14 3.83332Z" fill="currentColor"/>
<path d="M12.6667 5.16666H9.99999C9.72666 5.16666 9.49999 4.93999 9.49999 4.66666C9.49999 4.39332 9.72666 4.16666 9.99999 4.16666H12.6667C12.94 4.16666 13.1667 4.39332 13.1667 4.66666C13.1667 4.93999 12.94 5.16666 12.6667 5.16666Z" fill="currentColor"/>
<path d="M5.99999 5.16666H3.33332C3.05999 5.16666 2.83332 4.93999 2.83332 4.66666C2.83332 4.39332 3.05999 4.16666 3.33332 4.16666H5.99999C6.27332 4.16666 6.49999 4.39332 6.49999 4.66666C6.49999 4.93999 6.27332 5.16666 5.99999 5.16666Z" fill="currentColor"/>
<path d="M3.99999 13.8333H2.66666C1.83999 13.8333 1.16666 13.16 1.16666 12.3333V11C1.16666 10.1733 1.83999 9.49999 2.66666 9.49999H3.99999C4.82666 9.49999 5.49999 10.1733 5.49999 11V12.3333C5.49999 12.9333 5.14666 13.4667 4.59999 13.7C4.41999 13.7867 4.21332 13.8333 3.99999 13.8333ZM2.66666 10.5C2.39332 10.5 2.16666 10.7267 2.16666 11V12.3333C2.16666 12.6067 2.39332 12.8333 2.66666 12.8333H3.99999C4.06666 12.8333 4.12666 12.8201 4.19332 12.7867C4.38666 12.7067 4.49999 12.5267 4.49999 12.3333V11C4.49999 10.7267 4.27332 10.5 3.99999 10.5H2.66666Z" fill="currentColor"/>
<path d="M13.3333 13.8333H12C11.7867 13.8333 11.58 13.7867 11.38 13.6933C10.8533 13.4733 10.5 12.9333 10.5 12.3333V11C10.5 10.1733 11.1733 9.49999 12 9.49999H13.3333C14.16 9.49999 14.8333 10.1733 14.8333 11V12.3333C14.8333 13.16 14.16 13.8333 13.3333 13.8333ZM12 10.5C11.7267 10.5 11.5 10.7267 11.5 11V12.3333C11.5 12.5267 11.6133 12.7067 11.7867 12.78C11.8733 12.82 11.9333 12.8333 12 12.8333H13.3333C13.6067 12.8333 13.8333 12.6067 13.8333 12.3333V11C13.8333 10.7267 13.6067 10.5 13.3333 10.5H12Z" fill="currentColor"/>
<path d="M8.99999 7.16666H6.99999C6.17332 7.16666 5.49999 6.49332 5.49999 5.66666V3.66666C5.49999 2.83999 6.17332 2.16666 6.99999 2.16666H8.99999C9.82666 2.16666 10.5 2.83999 10.5 3.66666V5.66666C10.5 6.49332 9.82666 7.16666 8.99999 7.16666ZM6.99999 3.16666C6.72666 3.16666 6.49999 3.39332 6.49999 3.66666V5.66666C6.49999 5.93999 6.72666 6.16666 6.99999 6.16666H8.99999C9.27332 6.16666 9.49999 5.93999 9.49999 5.66666V3.66666C9.49999 3.39332 9.27332 3.16666 8.99999 3.16666H6.99999Z" fill="currentColor"/>
<path d="M12.6471 10.4999C12.6271 10.4999 12.6071 10.4999 12.5871 10.4999C12.3138 10.4665 12.1138 10.2199 12.1471 9.94652C12.1605 9.85319 12.1605 9.76652 12.1605 9.67319C12.1605 7.93986 11.2205 6.33981 9.76712 5.60648C9.52046 5.47981 9.42046 5.17984 9.54712 4.93318C9.67379 4.68651 9.97379 4.5865 10.2205 4.71317C12.0071 5.61984 13.1605 7.56652 13.1605 9.67319C13.1605 9.80652 13.1538 9.93312 13.1338 10.0665C13.1138 10.3131 12.9005 10.4999 12.6471 10.4999Z" fill="currentColor"/>
<path d="M3.35332 10.5C3.09999 10.5 2.88666 10.3133 2.85999 10.06C2.84666 9.92666 2.83332 9.79999 2.83332 9.66666C2.83332 7.55999 3.98666 5.61332 5.77332 4.70666C6.01999 4.57999 6.31999 4.68 6.44666 4.92667C6.57332 5.17334 6.47332 5.47334 6.22666 5.60001C4.77332 6.33334 3.83332 7.93332 3.83332 9.66666C3.83332 9.75999 3.83999 9.84666 3.84666 9.93999C3.87999 10.2133 3.67999 10.46 3.40666 10.4933C3.39332 10.5 3.37332 10.5 3.35332 10.5Z" fill="currentColor"/>
</svg>
