<svg width="16" height="16" viewBox="0 0 16 16" fill="none" xmlns="http://www.w3.org/2000/svg">
<path d="M7.99994 14.8332C7.45328 14.8332 6.90661 14.6599 6.45328 14.3199L2.97995 11.7199C2.33328 11.2332 1.94662 10.4599 1.94662 9.65319V1.17317H14.0533V9.65319C14.0533 10.4599 13.6666 11.2332 13.0199 11.7199L9.54661 14.3199C9.09328 14.6599 8.54661 14.8332 7.99994 14.8332ZM2.94662 2.1665V9.64652C2.94662 10.1399 3.18661 10.6132 3.57994 10.9132L7.05328 13.5132C7.61328 13.9332 8.39328 13.9332 8.95328 13.5132L12.4266 10.9132C12.8199 10.6132 13.0599 10.1399 13.0599 9.64652V2.1665H2.94662Z" fill="currentColor"/>
<path d="M14.6667 2.16666H1.33334C1.06001 2.16666 0.833344 1.93999 0.833344 1.66666C0.833344 1.39332 1.06001 1.16666 1.33334 1.16666H14.6667C14.94 1.16666 15.1667 1.39332 15.1667 1.66666C15.1667 1.93999 14.94 2.16666 14.6667 2.16666Z" fill="currentColor"/>
<path d="M10.6667 5.83332H5.33334C5.06001 5.83332 4.83334 5.60666 4.83334 5.33332C4.83334 5.05999 5.06001 4.83332 5.33334 4.83332H10.6667C10.94 4.83332 11.1667 5.05999 11.1667 5.33332C11.1667 5.60666 10.94 5.83332 10.6667 5.83332Z" fill="currentColor"/>
<path d="M10.6667 9.16666H5.33334C5.06001 9.16666 4.83334 8.93999 4.83334 8.66666C4.83334 8.39332 5.06001 8.16666 5.33334 8.16666H10.6667C10.94 8.16666 11.1667 8.39332 11.1667 8.66666C11.1667 8.93999 10.94 9.16666 10.6667 9.16666Z" fill="currentColor"/>
</svg>
