<svg width="16" height="16" viewBox="0 0 16 16" fill="none" xmlns="http://www.w3.org/2000/svg">
<g clip-path="url(#clip0_2_4984)">
<path d="M10.6668 15.8133C10.4868 15.8133 10.3201 15.7133 10.2335 15.56C10.1468 15.4067 10.1468 15.2133 10.2401 15.06L10.9401 13.8933C11.0801 13.6533 11.3868 13.58 11.6268 13.72C11.8668 13.86 11.9401 14.1667 11.8001 14.4067L11.6201 14.7067C13.4601 14.2733 14.8401 12.62 14.8401 10.6467C14.8401 10.3733 15.0668 10.1467 15.3401 10.1467C15.6135 10.1467 15.8401 10.3733 15.8401 10.6467C15.8335 13.4933 13.5135 15.8133 10.6668 15.8133Z" fill="currentColor"/>
<path d="M0.666656 5.8133C0.393323 5.8133 0.166656 5.58664 0.166656 5.3133C0.166656 2.46664 2.48666 0.146637 5.33332 0.146637C5.51332 0.146637 5.67999 0.24664 5.76666 0.399974C5.85332 0.553307 5.85332 0.746643 5.75999 0.899976L5.05999 2.06664C4.91999 2.30664 4.61332 2.37998 4.37332 2.23998C4.13332 2.09998 4.05999 1.79334 4.19999 1.55334L4.37999 1.25332C2.53999 1.68666 1.15999 3.33997 1.15999 5.3133C1.16666 5.58664 0.93999 5.8133 0.666656 5.8133Z" fill="currentColor"/>
<path d="M6.28739 10.7201H4.41405C4.14072 10.7201 3.91405 10.4934 3.91405 10.2201V8.72006C3.91405 8.44672 4.14072 8.22006 4.41405 8.22006H6.28739C6.95406 8.22006 7.54072 8.80672 7.54072 9.47339C7.54072 10.1534 6.97406 10.7201 6.28739 10.7201ZM4.91405 9.72006H6.28739C6.42739 9.72006 6.54072 9.60672 6.54072 9.46672C6.54072 9.36672 6.42739 9.21339 6.28739 9.21339H4.91405V9.72006Z" fill="currentColor"/>
<path d="M6.55291 12.2201H4.40624C4.13291 12.2201 3.90624 11.9934 3.90624 11.7201V10.2201C3.90624 9.94672 4.13291 9.72006 4.40624 9.72006H6.55291C7.29959 9.72006 7.91292 10.2801 7.91292 10.9734C7.91292 11.6667 7.30626 12.2201 6.55291 12.2201ZM4.9129 11.2201H6.55957C6.77292 11.2201 6.91959 11.0867 6.91959 10.9667C6.91959 10.8467 6.77292 10.7134 6.55957 10.7134H4.9129V11.2201Z" fill="currentColor"/>
<path d="M5.61327 12.9665C5.33994 12.9665 5.11327 12.7399 5.11327 12.4665V11.7132C5.11327 11.4399 5.33994 11.2132 5.61327 11.2132C5.8866 11.2132 6.11327 11.4399 6.11327 11.7132V12.4665C6.11327 12.7465 5.8866 12.9665 5.61327 12.9665Z" fill="currentColor"/>
<path d="M5.61327 9.21326C5.33994 9.21326 5.11327 8.98659 5.11327 8.71326V7.95992C5.11327 7.68659 5.33994 7.45992 5.61327 7.45992C5.8866 7.45992 6.11327 7.68659 6.11327 7.95992V8.71326C6.11327 8.99326 5.8866 9.21326 5.61327 9.21326Z" fill="currentColor"/>
<path d="M5.77999 14.8333C3.23332 14.8333 1.16666 12.76 1.16666 10.22C1.16666 7.67999 3.23999 5.6066 5.77999 5.6066C5.89999 5.6066 6.00666 5.61328 6.12666 5.61994C8.38666 5.79328 10.2133 7.61992 10.38 9.86659C10.3867 10.0133 10.3933 10.1133 10.3933 10.22C10.4 12.76 8.32666 14.8333 5.77999 14.8333ZM5.77999 6.59996C3.78666 6.59996 2.16666 8.21992 2.16666 10.2133C2.16666 12.2066 3.78666 13.8266 5.77999 13.8266C7.77332 13.8266 9.39999 12.2066 9.39999 10.2133C9.39999 10.1266 9.39332 10.0399 9.38666 9.95326C9.25332 8.16659 7.81999 6.73992 6.05999 6.6066C5.97332 6.6066 5.87999 6.59996 5.77999 6.59996Z" fill="currentColor"/>
<path d="M10.2201 10.4H9.89346C9.63346 10.4 9.41346 10.2 9.39346 9.93999C9.26012 8.17332 7.83346 6.74666 6.06676 6.61331C5.80676 6.59331 5.60676 6.37331 5.60676 6.11331V5.78665C5.60676 3.23998 7.68012 1.17333 10.2268 1.17333C12.7735 1.17333 14.8401 3.24665 14.8401 5.78665C14.8401 8.32666 12.7601 10.4 10.2201 10.4ZM6.6001 5.67333C8.48012 6.01333 9.98679 7.51332 10.3268 9.39999C12.2735 9.33999 13.8335 7.73999 13.8335 5.78665C13.8335 3.79332 12.2135 2.17333 10.2201 2.17333C8.26012 2.16666 6.6601 3.72666 6.6001 5.67333Z" fill="currentColor"/>
</g>
<defs>
<clipPath id="clip0_2_4984">
<rect width="16" height="16" fill="currentColor"/>
</clipPath>
</defs>
</svg>
