<svg width="16" height="16" viewBox="0 0 16 16" fill="none" xmlns="http://www.w3.org/2000/svg">
<path d="M2.9798 8.11341C2.85314 8.11341 2.72647 8.06674 2.62647 7.96674L1.8198 7.16008L1.01314 7.96674C0.819803 8.16008 0.499801 8.16008 0.306469 7.96674C0.113135 7.77341 0.113135 7.45341 0.306469 7.26008L1.46647 6.10009C1.6598 5.90676 1.9798 5.90676 2.17314 6.10009L3.33314 7.26008C3.52647 7.45341 3.52647 7.77341 3.33314 7.96674C3.2398 8.06674 3.10647 8.11341 2.9798 8.11341Z" fill="currentColor"/>
<path d="M14.1739 10.0467C14.0473 10.0467 13.9206 10 13.8206 9.90001L12.6606 8.74001C12.4673 8.54668 12.4673 8.22668 12.6606 8.03334C12.8539 7.84001 13.1739 7.84001 13.3673 8.03334L14.1739 8.84001L14.9806 8.03334C15.1739 7.84001 15.4939 7.84001 15.6873 8.03334C15.8806 8.22668 15.8806 8.54668 15.6873 8.74001L14.5273 9.90001C14.4339 9.99334 14.3006 10.0467 14.1739 10.0467Z" fill="currentColor"/>
<path d="M14.1739 10.0467C13.9006 10.0467 13.6734 9.82001 13.6734 9.54668V8.00001C13.6734 4.87334 11.1267 2.32667 8.00008 2.32667C6.27338 2.32667 4.66004 3.1 3.57338 4.45334C3.40004 4.66667 3.08671 4.7 2.87338 4.53334C2.66004 4.36 2.62005 4.04668 2.79338 3.83334C4.06671 2.24001 5.96671 1.33334 8.00008 1.33334C11.6801 1.33334 14.6734 4.32668 14.6734 8.00668V9.55334C14.6734 9.82001 14.4539 10.0467 14.1739 10.0467Z" fill="currentColor"/>
<path d="M8.00014 14.6733C4.32017 14.6733 1.32683 11.6799 1.32683 7.99994V6.4533C1.32683 6.17996 1.5535 5.9533 1.82683 5.9533C2.10016 5.9533 2.32683 6.17996 2.32683 6.4533V7.99994C2.32683 11.1266 4.8735 13.6733 8.00014 13.6733C9.72681 13.6733 11.3401 12.8999 12.4268 11.5466C12.6001 11.3333 12.9135 11.2933 13.1268 11.4667C13.3401 11.64 13.3801 11.9533 13.2068 12.1666C11.9335 13.7599 10.0335 14.6733 8.00014 14.6733Z" fill="currentColor"/>
<path d="M8.92001 8.50001H6.00001C5.72668 8.50001 5.50001 8.27334 5.50001 8.00001V5.66668C5.50001 5.39334 5.72668 5.16668 6.00001 5.16668H8.92001C9.80668 5.16668 10.5867 5.94668 10.5867 6.83334C10.5867 7.75334 9.83334 8.50001 8.92001 8.50001ZM6.50001 7.50001H8.91334C9.28001 7.50001 9.58001 7.20001 9.58001 6.83334C9.58001 6.53334 9.28001 6.16668 8.91334 6.16668H6.50001V7.50001Z" fill="currentColor"/>
<path d="M9.33334 10.8333H6.00001C5.72668 10.8333 5.50001 10.6067 5.50001 10.3333V8.00001C5.50001 7.72668 5.72668 7.50001 6.00001 7.50001H9.33334C10.3467 7.50001 11.1667 8.24668 11.1667 9.16668C11.1667 10.0867 10.3467 10.8333 9.33334 10.8333ZM6.50001 9.83334H9.33334C9.79334 9.83334 10.1667 9.53334 10.1667 9.16668C10.1667 8.80001 9.79334 8.50001 9.33334 8.50001H6.50001V9.83334Z" fill="currentColor"/>
<path d="M7.86721 12C7.59388 12 7.36721 11.7733 7.36721 11.5V10.3333C7.36721 10.06 7.59388 9.83334 7.86721 9.83334C8.14054 9.83334 8.36721 10.06 8.36721 10.3333V11.5C8.36721 11.7733 8.14054 12 7.86721 12Z" fill="currentColor"/>
<path d="M7.86721 6.16668C7.59388 6.16668 7.36721 5.94001 7.36721 5.66668V4.50001C7.36721 4.22668 7.59388 4.00001 7.86721 4.00001C8.14054 4.00001 8.36721 4.22668 8.36721 4.50001V5.66668C8.36721 5.94001 8.14054 6.16668 7.86721 6.16668Z" fill="currentColor"/>
</svg>
