<svg width="16" height="16" viewBox="0 0 16 16" fill="none" xmlns="http://www.w3.org/2000/svg">
<path d="M8.66668 6.16668H1.33334C1.06001 6.16668 0.833344 5.94001 0.833344 5.66668C0.833344 5.39334 1.06001 5.16668 1.33334 5.16668H8.66668C8.94001 5.16668 9.16668 5.39334 9.16668 5.66668C9.16668 5.94001 8.94001 6.16668 8.66668 6.16668Z" fill="currentColor"/>
<path d="M5.33334 11.5H4.00001C3.72668 11.5 3.50001 11.2733 3.50001 11C3.50001 10.7267 3.72668 10.5 4.00001 10.5H5.33334C5.60668 10.5 5.83334 10.7267 5.83334 11C5.83334 11.2733 5.60668 11.5 5.33334 11.5Z" fill="currentColor"/>
<path d="M9.66668 11.5H7.00001C6.72668 11.5 6.50001 11.2733 6.50001 11C6.50001 10.7267 6.72668 10.5 7.00001 10.5H9.66668C9.94001 10.5 10.1667 10.7267 10.1667 11C10.1667 11.2733 9.94001 11.5 9.66668 11.5Z" fill="currentColor"/>
<path d="M11.7067 14.1667H4.29334C1.64001 14.1667 0.833344 13.3667 0.833344 10.74V5.26002C0.833344 2.63335 1.64001 1.83334 4.29334 1.83334H8.85334C9.12668 1.83334 9.35334 2.06001 9.35334 2.33334C9.35334 2.60668 9.12668 2.83334 8.85334 2.83334H4.29334C2.20001 2.83334 1.83334 3.19335 1.83334 5.26002V10.74C1.83334 12.8067 2.20001 13.1667 4.29334 13.1667H11.7067C13.8 13.1667 14.1667 12.8067 14.1667 10.74V7.55334C14.1667 7.28001 14.3933 7.05334 14.6667 7.05334C14.94 7.05334 15.1667 7.28001 15.1667 7.55334V10.74C15.1667 13.3667 14.36 14.1667 11.7067 14.1667Z" fill="currentColor"/>
<path d="M13.4133 4.33334H11.3333C11.06 4.33334 10.8333 4.10668 10.8333 3.83334V2.16668C10.8333 1.89334 11.06 1.66668 11.3333 1.66668H13.42C14.1333 1.66668 14.7533 2.28668 14.7533 3.00001C14.7467 3.73334 14.1533 4.33334 13.4133 4.33334ZM11.8333 3.33334H13.42C13.6067 3.33334 13.7533 3.18668 13.7533 3.00001C13.7533 2.85334 13.5933 2.66668 13.42 2.66668H11.8333V3.33334Z" fill="currentColor"/>
<path d="M13.7133 6.00001H11.3333C11.06 6.00001 10.8333 5.77334 10.8333 5.50001V3.83334C10.8333 3.56001 11.06 3.33334 11.3333 3.33334H13.7133C14.5133 3.33334 15.1667 3.93334 15.1667 4.66668C15.1667 5.40001 14.5133 6.00001 13.7133 6.00001ZM11.8333 5.00001H13.7133C13.96 5.00001 14.1667 4.84668 14.1667 4.66668C14.1667 4.48668 13.96 4.33334 13.7133 4.33334H11.8333V5.00001Z" fill="currentColor"/>
<path d="M12.5065 6.83334C12.2332 6.83334 12.0065 6.60668 12.0065 6.33334V5.50001C12.0065 5.22668 12.2332 5.00001 12.5065 5.00001C12.7799 5.00001 13.0065 5.22668 13.0065 5.50001V6.33334C13.0065 6.61334 12.7865 6.83334 12.5065 6.83334Z" fill="currentColor"/>
<path d="M12.5065 2.66668C12.2332 2.66668 12.0065 2.44001 12.0065 2.16668V1.33334C12.0065 1.06001 12.2332 0.833344 12.5065 0.833344C12.7799 0.833344 13.0065 1.06001 13.0065 1.33334V2.16668C13.0065 2.44001 12.7865 2.66668 12.5065 2.66668Z" fill="currentColor"/>
<path d="M12.1267 2.66668H10.6667C10.3933 2.66668 10.1667 2.44001 10.1667 2.16668C10.1667 1.89334 10.3933 1.66668 10.6667 1.66668H12.1267C12.4 1.66668 12.6267 1.89334 12.6267 2.16668C12.6267 2.44001 12.4 2.66668 12.1267 2.66668Z" fill="currentColor"/>
<path d="M12.1267 6.00001H10.6667C10.3933 6.00001 10.1667 5.77334 10.1667 5.50001C10.1667 5.22668 10.3933 5.00001 10.6667 5.00001H12.1267C12.4 5.00001 12.6267 5.22668 12.6267 5.50001C12.6267 5.77334 12.4 6.00001 12.1267 6.00001Z" fill="currentColor"/>
</svg>
