<svg width="16" height="16" viewBox="0 0 16 16" fill="none" xmlns="http://www.w3.org/2000/svg">
<g clip-path="url(#clip0_2_5321)">
<path d="M5.98046 11.1667C5.72046 11.1667 5.4938 11.1467 5.28046 11.1133C2.74713 10.78 0.813797 8.58001 0.813797 6.00001C0.813797 3.15334 3.1338 0.833344 5.98046 0.833344C8.56046 0.833344 10.7605 2.76001 11.0938 5.31334C11.1271 5.51334 11.1471 5.74001 11.1471 6.00001C11.1471 8.84668 8.8338 11.1667 5.98046 11.1667ZM5.98046 1.83334C3.68046 1.83334 1.8138 3.70001 1.8138 6.00001C1.8138 8.08001 3.36713 9.85334 5.42713 10.1267C5.60046 10.1533 5.78046 10.1667 5.98046 10.1667C8.28046 10.1667 10.1471 8.30001 10.1471 6.00001C10.1471 5.80001 10.1338 5.62001 10.1071 5.46001C9.8338 3.38668 8.06713 1.83334 5.98046 1.83334Z" fill="currentColor"/>
<path d="M9.97946 15.1668C7.39946 15.1668 5.19944 13.2401 4.8661 10.6868C4.8461 10.5268 4.89944 10.3735 5.01277 10.2601C5.1261 10.1468 5.29277 10.1001 5.4461 10.1268C5.6061 10.1535 5.78046 10.1667 5.98046 10.1667C8.28046 10.1667 10.1471 8.30001 10.1471 6.00001C10.1471 5.80001 10.1338 5.62001 10.1071 5.46001C10.0805 5.30668 10.1328 5.14682 10.2395 5.03349C10.3461 4.92016 10.4995 4.86016 10.6661 4.88682C13.2195 5.22016 15.1461 7.42014 15.1461 10.0001C15.1461 12.8468 12.8328 15.1668 9.97946 15.1668ZM5.9861 11.1668C6.49277 12.9135 8.1128 14.1668 9.97946 14.1668C12.2795 14.1668 14.1461 12.3001 14.1461 10.0001C14.1461 8.13348 12.8928 6.50682 11.1461 6.00682C11.1461 8.84681 8.8328 11.1668 5.9861 11.1668Z" fill="currentColor"/>
<path d="M10.2863 10.7732C10.1597 10.7732 10.033 10.7265 9.933 10.6332L9.06633 9.77988C8.873 9.58654 8.86633 9.26654 9.05966 9.07321C9.253 8.87988 9.56633 8.87321 9.76633 9.06654L10.633 9.91988C10.8263 10.1132 10.833 10.4332 10.6397 10.6265C10.5463 10.7199 10.413 10.7732 10.2863 10.7732Z" fill="currentColor"/>
<path d="M11.3135 8.49994C11.1868 8.49994 11.0601 8.45328 10.9601 8.35328L10.2935 7.68661C10.1001 7.49328 10.1001 7.17328 10.2935 6.97994C10.4868 6.78661 10.8068 6.78661 11.0001 6.97994L11.6668 7.64661C11.8601 7.83994 11.8601 8.15994 11.6668 8.35328C11.5735 8.45328 11.4468 8.49994 11.3135 8.49994Z" fill="currentColor"/>
<path d="M7.98013 11.8333C7.85346 11.8333 7.7268 11.7866 7.6268 11.6866L6.96013 11.0199C6.7668 10.8266 6.7668 10.5066 6.96013 10.3133C7.15346 10.1199 7.47346 10.1199 7.6668 10.3133L8.33346 10.9799C8.5268 11.1733 8.5268 11.4933 8.33346 11.6866C8.24013 11.7866 8.11346 11.8333 7.98013 11.8333Z" fill="currentColor"/>
</g>
<defs>
<clipPath id="clip0_2_5321">
<rect width="16" height="16" fill="currentColor"/>
</clipPath>
</defs>
</svg>
