<svg width="16" height="16" viewBox="0 0 16 16" fill="none" xmlns="http://www.w3.org/2000/svg">
<path d="M10.6471 12.5C9.5338 12.5 8.46713 12.0867 7.64713 11.3467C7.54046 11.2533 7.48046 11.1133 7.48046 10.9733C7.48046 10.8333 7.54046 10.6933 7.64713 10.6C8.38713 9.94667 8.8138 9 8.8138 8C8.8138 7 8.38713 6.05333 7.64713 5.4C7.54046 5.30667 7.48046 5.17333 7.48046 5.02667C7.48046 4.88667 7.54046 4.74667 7.64713 4.65333C8.4738 3.90667 9.5338 3.5 10.6471 3.5C13.1271 3.5 15.1471 5.52 15.1471 8C15.1471 10.48 13.1338 12.5 10.6471 12.5ZM8.7338 10.9267C9.30046 11.3 9.96046 11.5 10.6538 11.5C12.5805 11.5 14.1538 9.92667 14.1538 8C14.1538 6.07333 12.5805 4.5 10.6538 4.5C9.96713 4.5 9.30046 4.7 8.7338 5.07333C9.42713 5.88 9.82046 6.91333 9.82046 8C9.82046 9.08667 9.42713 10.12 8.7338 10.9267Z" fill="currentColor"/>
<path d="M5.3138 12.5C2.8338 12.5 0.813797 10.48 0.813797 8C0.813797 5.52 2.8338 3.5 5.3138 3.5C6.42713 3.5 7.4938 3.91333 8.3138 4.65333C9.26046 5.49333 9.8138 6.71333 9.8138 8C9.8138 9.28667 9.26713 10.5 8.3138 11.3467C7.4938 12.0867 6.42713 12.5 5.3138 12.5ZM5.3138 4.5C3.38713 4.5 1.8138 6.07333 1.8138 8C1.8138 9.92667 3.38713 11.5 5.3138 11.5C6.18046 11.5 7.00713 11.18 7.64713 10.6C8.3938 9.94 8.8138 8.99333 8.8138 8C8.8138 7.00667 8.38713 6.05333 7.64713 5.4C7.00713 4.82 6.18046 4.5 5.3138 4.5Z" fill="currentColor"/>
</svg>
