<svg width="16" height="16" viewBox="0 0 16 16" fill="none" xmlns="http://www.w3.org/2000/svg">
<path d="M8.75326 15.1667C8.57326 15.1667 8.4332 15.1201 8.3332 15.0734C8.0932 14.9601 7.68653 14.6467 7.68653 13.8067V9.50673L4.09324 12.8001C3.89324 12.9867 3.57322 12.9734 3.38655 12.7667C3.19988 12.5601 3.21323 12.2467 3.4199 12.0601L7.68653 8.14673V7.84673L3.4199 3.93339C3.21323 3.74672 3.19988 3.43339 3.38655 3.22672C3.57322 3.02672 3.89324 3.00673 4.09324 3.19339L7.68653 6.48673V2.18672C7.68653 1.34672 8.0932 1.02673 8.3332 0.920059C8.5732 0.806725 9.0732 0.700045 9.71986 1.24005L12.2865 3.38006C12.5665 3.61339 12.7332 3.94673 12.7399 4.30007C12.7465 4.65339 12.5999 4.99338 12.3265 5.24005L9.32653 7.9934L12.3265 10.7467C12.5932 10.9934 12.7465 11.3401 12.7399 11.6867C12.7332 12.0401 12.5665 12.3734 12.2865 12.6067L9.71986 14.7467C9.33986 15.0734 9.0066 15.1667 8.75326 15.1667ZM8.68653 8.76673V13.8067C8.68653 14.0534 8.73986 14.1601 8.76653 14.1734C8.7732 14.1667 8.8932 14.1401 9.07986 13.9867L11.6465 11.8467C11.7065 11.7934 11.7399 11.7334 11.7399 11.6667C11.7399 11.6001 11.7133 11.5401 11.6533 11.4867L8.68653 8.76673ZM8.74653 1.83339C8.73986 1.84005 8.68653 1.95339 8.68653 2.19339V7.2334L11.6533 4.51338C11.7133 4.46005 11.7399 4.40005 11.7399 4.33339C11.7399 4.26672 11.7065 4.20673 11.6465 4.15339L9.0732 2.01338C8.89986 1.86671 8.78653 1.83339 8.74653 1.83339Z" fill="currentColor"/>
</svg>
