<svg width="16" height="16" viewBox="0 0 16 16" fill="none" xmlns="http://www.w3.org/2000/svg">
<g clip-path="url(#clip0_2_5257)">
<path d="M8.4 12.0733C8.25334 12.0733 8.14 12.0333 8.07334 12.0066C7.92667 11.9399 7.5934 11.7199 7.5934 11.1133V9.33328L6.06003 10.7399C5.86003 10.9266 5.54003 10.9133 5.35336 10.7066C5.1667 10.4999 5.18002 10.1866 5.38669 9.99994L7.57334 7.99328L5.38669 5.98664C5.18002 5.79997 5.1667 5.48664 5.35336 5.27997C5.54003 5.07997 5.86003 5.05996 6.06003 5.24663L7.5934 6.6533V4.87997C7.5934 4.27997 7.92667 4.05997 8.07334 3.98664C8.21334 3.91997 8.6 3.80663 9.06667 4.18663L10.44 5.3333C10.64 5.49996 10.76 5.74663 10.7667 5.99996C10.7733 6.2533 10.6667 6.50662 10.4733 6.67994L9.05334 7.97994L10.4733 9.27994C10.6667 9.45994 10.7733 9.70661 10.7667 9.95994C10.76 10.2133 10.64 10.4599 10.44 10.6266L9.06667 11.7733C8.81334 12.0133 8.58 12.0733 8.4 12.0733ZM8.6 8.93994V10.8866L9.7134 9.95994L8.6 8.93994ZM8.6 5.1133V7.05994L9.7134 6.03996L8.6 5.1133Z" fill="currentColor"/>
<path d="M8 15.1667C4.04667 15.1667 0.833336 11.9533 0.833336 8.00001C0.833336 4.04668 4.04667 0.833344 8 0.833344C11.9533 0.833344 15.1667 4.04668 15.1667 8.00001C15.1667 11.9533 11.9533 15.1667 8 15.1667ZM8 1.83334C4.6 1.83334 1.83334 4.60001 1.83334 8.00001C1.83334 11.4 4.6 14.1667 8 14.1667C11.4 14.1667 14.1667 11.4 14.1667 8.00001C14.1667 4.60001 11.4 1.83334 8 1.83334Z" fill="currentColor"/>
</g>
<defs>
<clipPath id="clip0_2_5257">
<rect width="16" height="16" fill="currentColor"/>
</clipPath>
</defs>
</svg>
