<svg width="16" height="16" viewBox="0 0 16 16" fill="none" xmlns="http://www.w3.org/2000/svg">
<path d="M8.0866 15.1667C7.9066 15.1667 7.76653 15.1201 7.66653 15.0734C7.42653 14.9601 7.01986 14.6467 7.01986 13.8067V9.50673L3.42657 12.8001C3.22657 12.9867 2.90655 12.9734 2.71988 12.7667C2.53322 12.5601 2.54656 12.2467 2.75323 12.0601L7.01986 8.14673V7.84673L2.75323 3.93339C2.54656 3.74672 2.53322 3.43339 2.71988 3.22672C2.90655 3.02672 3.22657 3.00673 3.42657 3.19339L7.01986 6.48673V2.18672C7.01986 1.34672 7.42653 1.02673 7.66653 0.920059C7.90653 0.806725 8.40653 0.700045 9.0532 1.24005L11.6199 3.38006C11.8999 3.61339 12.0665 3.94673 12.0732 4.30007C12.0799 4.65339 11.9332 4.99338 11.6599 5.24005L8.65986 7.9934L11.6599 10.7467C11.9265 10.9934 12.0799 11.3401 12.0732 11.6867C12.0665 12.0401 11.8999 12.3734 11.6199 12.6067L9.0532 14.7467C8.6732 15.0734 8.33993 15.1667 8.0866 15.1667ZM8.01986 8.76673V13.8067C8.01986 14.0534 8.0732 14.1601 8.09986 14.1734C8.10653 14.1667 8.22653 14.1401 8.4132 13.9867L10.9799 11.8467C11.0399 11.7934 11.0732 11.7334 11.0732 11.6667C11.0732 11.6001 11.0466 11.5401 10.9866 11.4867L8.01986 8.76673ZM8.07986 1.83339C8.0732 1.84005 8.01986 1.95339 8.01986 2.19339V7.2334L10.9866 4.51338C11.0466 4.46005 11.0732 4.40005 11.0732 4.33339C11.0732 4.26672 11.0399 4.20673 10.9799 4.15339L8.40653 2.01338C8.2332 1.86671 8.11986 1.83339 8.07986 1.83339Z" fill="currentColor"/>
<path d="M3.33333 9.16667C2.69333 9.16667 2.16666 8.64 2.16666 8C2.16666 7.36 2.69333 6.83333 3.33333 6.83333C3.97333 6.83333 4.5 7.36 4.5 8C4.5 8.64 3.97333 9.16667 3.33333 9.16667ZM3.33333 7.83333C3.24 7.83333 3.16666 7.90667 3.16666 8C3.16666 8.18667 3.5 8.18667 3.5 8C3.5 7.90667 3.42666 7.83333 3.33333 7.83333Z" fill="currentColor"/>
<path d="M12.6667 9.16667C12.0267 9.16667 11.5 8.64 11.5 8C11.5 7.36 12.0267 6.83333 12.6667 6.83333C13.3067 6.83333 13.8333 7.36 13.8333 8C13.8333 8.64 13.3067 9.16667 12.6667 9.16667ZM12.6667 7.83333C12.5733 7.83333 12.5 7.90667 12.5 8C12.5 8.18667 12.8333 8.18667 12.8333 8C12.8333 7.90667 12.76 7.83333 12.6667 7.83333Z" fill="currentColor"/>
</svg>
