<svg width="16" height="16" viewBox="0 0 16 16" fill="none" xmlns="http://www.w3.org/2000/svg">
<path d="M8.00033 15.1667C4.74699 15.1667 2.10034 12.52 2.10034 9.26668C2.08034 5.44668 5.72032 2.26668 7.287 1.07334C7.707 0.753344 8.29367 0.753344 8.71367 1.07334C10.2803 2.28668 13.9203 5.50668 13.9003 9.27334C13.9003 12.52 11.2537 15.1667 8.00033 15.1667ZM8.00033 1.83334C7.967 1.83334 7.927 1.84668 7.89367 1.87334C6.767 2.73334 3.08697 5.80668 3.10697 9.26668C3.10697 11.9733 5.307 14.1667 8.007 14.1667C10.707 14.1667 12.907 11.9733 12.907 9.27334C12.927 5.86001 9.24033 2.74668 8.107 1.87334C8.067 1.84668 8.03367 1.83334 8.00033 1.83334Z" fill="currentColor"/>
<path d="M8.00033 15.1667C7.727 15.1667 7.5 14.94 7.5 14.6667V1.33334C7.5 1.06001 7.72667 0.833344 8 0.833344C8.27333 0.833344 8.5 1.06001 8.5 1.33334V14.6667C8.5 14.94 8.27367 15.1667 8.00033 15.1667Z" fill="currentColor"/>
<path d="M7.99993 13.1401C7.81327 13.1401 7.63327 13.0335 7.5466 12.8601C7.4266 12.6135 7.5266 12.3135 7.77993 12.1935L12.9133 9.70014C13.1599 9.58014 13.4599 9.68681 13.5799 9.93348C13.6999 10.1801 13.6 10.4801 13.3467 10.6001L8.21327 13.0935C8.1466 13.1201 8.07327 13.1401 7.99993 13.1401Z" fill="currentColor"/>
<path d="M7.99993 9.80674C7.81327 9.80674 7.63327 9.70008 7.5466 9.52674C7.4266 9.28008 7.5266 8.98008 7.77993 8.86008L12.6933 6.4734C12.9399 6.3534 13.2399 6.4534 13.3599 6.70674C13.4799 6.96008 13.3799 7.25341 13.1266 7.37341L8.21327 9.76008C8.1466 9.78674 8.07327 9.80674 7.99993 9.80674Z" fill="currentColor"/>
<path d="M7.99993 6.47332C7.81327 6.47332 7.63327 6.36666 7.5466 6.19332C7.4266 5.94666 7.5266 5.64666 7.77993 5.52666L11.1333 3.89999C11.38 3.77999 11.68 3.88665 11.8 4.13332C11.92 4.37998 11.8199 4.67998 11.5666 4.79998L8.21327 6.42666C8.1466 6.45332 8.07327 6.47332 7.99993 6.47332Z" fill="currentColor"/>
</svg>
