<svg width="16" height="16" viewBox="0 0 16 16" fill="none" xmlns="http://www.w3.org/2000/svg">
<g clip-path="url(#clip0_2_5247)">
<path d="M9.99999 15.1667H5.99999C2.37999 15.1667 0.833328 13.62 0.833328 10V6.00001C0.833328 2.38001 2.37999 0.833344 5.99999 0.833344H9.99999C13.62 0.833344 15.1667 2.38001 15.1667 6.00001V10C15.1667 13.62 13.62 15.1667 9.99999 15.1667ZM5.99999 1.83334C2.92666 1.83334 1.83333 2.92668 1.83333 6.00001V10C1.83333 13.0733 2.92666 14.1667 5.99999 14.1667H9.99999C13.0733 14.1667 14.1667 13.0733 14.1667 10V6.00001C14.1667 2.92668 13.0733 1.83334 9.99999 1.83334H5.99999Z" fill="currentColor"/>
<path d="M8.00006 12.6334C7.84006 12.6334 7.68006 12.5934 7.54673 12.5201C6.77339 12.1001 5.40675 11.6467 4.54675 11.5334L4.42008 11.5134C3.76675 11.4334 3.24674 10.8467 3.24674 10.1734V5.04007C3.24674 4.66007 3.40675 4.2934 3.68009 4.04007C3.96009 3.78674 4.32007 3.66008 4.70674 3.69341C5.68007 3.77341 7.09339 4.24008 7.92673 4.76008L7.99339 4.80008L8.02013 4.78008C8.86013 4.25341 10.2734 3.78008 11.2534 3.69341C11.2667 3.69341 11.3067 3.69341 11.3201 3.69341C11.6667 3.66008 12.0401 3.7934 12.3134 4.04007C12.5934 4.2934 12.7467 4.64673 12.7467 5.0334V10.1601C12.7467 10.8267 12.2267 11.4134 11.5667 11.5001L11.4267 11.5201C10.5734 11.6334 9.20006 12.0867 8.44006 12.5067C8.31339 12.6001 8.16006 12.6334 8.00006 12.6334ZM4.59342 4.70006C4.50009 4.70006 4.42006 4.7334 4.36006 4.78673C4.28673 4.8534 4.25341 4.94674 4.25341 5.04674V10.1801C4.25341 10.3401 4.40009 10.5067 4.55342 10.5267L4.68009 10.5467C5.65342 10.6801 7.14673 11.1667 8.01339 11.6401C8.82006 11.1734 10.3201 10.6734 11.3001 10.5467L11.4467 10.5267C11.6001 10.5067 11.7467 10.3401 11.7467 10.1801V5.05339C11.7467 4.94672 11.7067 4.86007 11.6401 4.7934C11.5667 4.72674 11.4734 4.70007 11.3667 4.70674C11.3534 4.70674 11.3134 4.70674 11.3001 4.70674C10.5267 4.7734 9.25339 5.20006 8.56006 5.64006L8.49339 5.68006C8.20006 5.86006 7.78673 5.86007 7.50673 5.68674L7.40673 5.62674C6.70673 5.18674 5.43341 4.76673 4.62674 4.70006C4.61341 4.70006 4.60675 4.70006 4.59342 4.70006Z" fill="currentColor"/>
<path d="M7.99999 12.2734C7.72666 12.2734 7.49999 12.0467 7.49999 11.7734V5.40008C7.49999 5.12674 7.72666 4.90008 7.99999 4.90008C8.27333 4.90008 8.49999 5.12674 8.49999 5.40008V11.7734C8.49999 12.0534 8.27333 12.2734 7.99999 12.2734Z" fill="currentColor"/>
</g>
<defs>
<clipPath id="clip0_2_5247">
<rect width="16" height="16" fill="currentColor"/>
</clipPath>
</defs>
</svg>
