<svg width="16" height="16" viewBox="0 0 16 16" fill="none" xmlns="http://www.w3.org/2000/svg">
<path d="M7.99986 14.72C7.79986 14.72 7.59986 14.6733 7.4332 14.58C6.18652 13.9 3.99984 13.18 2.6265 13L2.43318 12.9733C1.55985 12.8667 0.839844 12.0467 0.839844 11.16V3.10665C0.839844 2.57998 1.04651 2.1 1.42651 1.75333C1.80651 1.40667 2.29982 1.23999 2.81982 1.28666C4.27982 1.40666 6.49316 2.14 7.74653 2.92L7.90646 3.01334C7.95313 3.03334 8.0532 3.04001 8.0932 3.01334L8.1998 2.94665C8.64646 2.66665 9.20646 2.39331 9.8198 2.14665C9.97313 2.08665 10.1465 2.10665 10.2865 2.19999C10.4265 2.29332 10.5065 2.44665 10.5065 2.61332V4.39998L11.0599 4.03332C11.2265 3.91999 11.4465 3.91999 11.6131 4.03332L12.1665 4.39998V1.85335C12.1665 1.61335 12.3398 1.40665 12.5731 1.35998C12.7665 1.32665 12.9599 1.29999 13.1332 1.28666C13.1465 1.28666 13.1999 1.28666 13.2132 1.28666C13.6999 1.24666 14.1998 1.41334 14.5731 1.76001C14.9531 2.10667 15.1598 2.58665 15.1598 3.11332V11.16C15.1598 12.0533 14.4399 12.8667 13.5599 12.9733L13.3399 13C11.9665 13.18 9.76653 13.9067 8.54653 14.58C8.39986 14.6733 8.19986 14.72 7.99986 14.72ZM2.65316 2.27331C2.43982 2.27331 2.24651 2.34665 2.09318 2.48665C1.92651 2.63999 1.83317 2.85998 1.83317 3.10665V11.16C1.83317 11.5533 2.17318 11.9333 2.55318 11.9867L2.75317 12.0133C4.25317 12.2133 6.55318 12.9667 7.88653 13.7C7.94653 13.7267 8.03313 13.7333 8.06646 13.72C9.40646 12.98 11.7132 12.22 13.2199 12.02L13.4465 11.9933C13.8265 11.9467 14.1665 11.56 14.1665 11.1667V3.11999C14.1665 2.87333 14.0731 2.65999 13.9065 2.49999C13.7398 2.34666 13.5065 2.27333 13.2665 2.28666C13.2465 2.28666 13.1865 2.28666 13.1732 2.28666V5.33333C13.1732 5.51999 13.0731 5.68665 12.9065 5.77332C12.7398 5.85998 12.5465 5.85333 12.3932 5.74666L11.3399 5.04667L10.2865 5.74666C10.1331 5.84666 9.9398 5.85998 9.77313 5.77332C9.61313 5.68665 9.50653 5.51999 9.50653 5.33333V3.38C9.21986 3.52 8.9598 3.66 8.73313 3.79333L8.62653 3.85998C8.25986 4.08665 7.73986 4.08666 7.38653 3.86665L7.22653 3.76668C6.09985 3.06001 4.04649 2.37998 2.73982 2.27331C2.70649 2.27331 2.67982 2.27331 2.65316 2.27331Z" fill="currentColor"/>
<path d="M8 14.1601C7.72666 14.1601 7.5 13.9335 7.5 13.6601V3.66014C7.5 3.38681 7.72666 3.16014 8 3.16014C8.27333 3.16014 8.5 3.38681 8.5 3.66014V13.6601C8.5 13.9401 8.27333 14.1601 8 14.1601Z" fill="currentColor"/>
<path d="M12.6667 5.83331C12.5667 5.83331 12.4733 5.80664 12.3867 5.74664L11.3333 5.04665L10.28 5.74664C10.1267 5.84664 9.93333 5.85996 9.76666 5.77329C9.60666 5.68663 9.5 5.51998 9.5 5.33331V2.6133C9.5 2.40663 9.62666 2.22663 9.81333 2.14663C10.7333 1.77996 11.74 1.4933 12.5867 1.35997C12.7333 1.3333 12.88 1.37999 12.9933 1.47333C13.1067 1.56666 13.1667 1.70667 13.1667 1.85333V5.33331C13.1667 5.51998 13.0667 5.68663 12.9 5.77329C12.8267 5.81329 12.7467 5.83331 12.6667 5.83331ZM11.3333 3.94663C11.4267 3.94663 11.5265 3.97332 11.6131 4.03332L12.1665 4.39998L12.1667 2.45998C11.6333 2.57998 11.0533 2.75331 10.5 2.95998V4.39996L11.0533 4.03331C11.14 3.97331 11.24 3.94663 11.3333 3.94663Z" fill="currentColor"/>
</svg>
