<svg width="16" height="16" viewBox="0 0 16 16" fill="none" xmlns="http://www.w3.org/2000/svg">
<g clip-path="url(#clip0_2_5248)">
<path d="M10 15.1667H6C2.38 15.1667 0.833336 13.62 0.833336 10V6.00001C0.833336 2.38001 2.38 0.833344 6 0.833344H10C13.62 0.833344 15.1667 2.38001 15.1667 6.00001V10C15.1667 13.62 13.62 15.1667 10 15.1667ZM6 1.83334C2.92667 1.83334 1.83334 2.92668 1.83334 6.00001V10C1.83334 13.0733 2.92667 14.1667 6 14.1667H10C13.0733 14.1667 14.1667 13.0733 14.1667 10V6.00001C14.1667 2.92668 13.0733 1.83334 10 1.83334H6Z" fill="currentColor"/>
<path d="M5.78667 10.2199C5.50667 10.2199 5.24667 10.1533 5.02 10.0266C4.46667 9.71328 4.16667 9.09328 4.16667 8.27994V1.62664C4.16667 1.3533 4.39334 1.12664 4.66667 1.12664C4.94 1.12664 5.16667 1.3533 5.16667 1.62664V8.27994C5.16667 8.71328 5.29334 9.03328 5.51334 9.15328C5.74667 9.28661 6.10667 9.21994 6.5 8.98661L7.38 8.45994C7.74 8.24661 8.25334 8.24661 8.61334 8.45994L9.49333 8.98661C9.89334 9.22661 10.2533 9.28661 10.48 9.15328C10.7 9.02661 10.8267 8.70661 10.8267 8.27994V1.62664C10.8267 1.3533 11.0533 1.12664 11.3267 1.12664C11.6 1.12664 11.8267 1.3533 11.8267 1.62664V8.27994C11.8267 9.09328 11.5267 9.71328 10.9733 10.0266C10.42 10.3399 9.69334 10.2733 8.98 9.84661L8.1 9.31994C8.06 9.29328 7.93334 9.29328 7.89334 9.31994L7.01334 9.84661C6.6 10.0933 6.17334 10.2199 5.78667 10.2199Z" fill="currentColor"/>
<path d="M10 15.1667H6C2.38 15.1667 0.833336 13.62 0.833336 10V6.00001C0.833336 2.38001 2.38 0.833344 6 0.833344H10C13.62 0.833344 15.1667 2.38001 15.1667 6.00001V10C15.1667 13.62 13.62 15.1667 10 15.1667ZM6 1.83334C2.92667 1.83334 1.83334 2.92668 1.83334 6.00001V10C1.83334 13.0733 2.92667 14.1667 6 14.1667H10C13.0733 14.1667 14.1667 13.0733 14.1667 10V6.00001C14.1667 2.92668 13.0733 1.83334 10 1.83334H6Z" fill="currentColor"/>
<path d="M5.78667 10.2199C5.50667 10.2199 5.24667 10.1533 5.02 10.0266C4.46667 9.71328 4.16667 9.09328 4.16667 8.27994V1.62664C4.16667 1.3533 4.39334 1.12664 4.66667 1.12664C4.94 1.12664 5.16667 1.3533 5.16667 1.62664V8.27994C5.16667 8.71328 5.29334 9.03328 5.51334 9.15328C5.74667 9.28661 6.10667 9.21994 6.5 8.98661L7.38 8.45994C7.74 8.24661 8.25334 8.24661 8.61334 8.45994L9.49333 8.98661C9.89334 9.22661 10.2533 9.28661 10.48 9.15328C10.7 9.02661 10.8267 8.70661 10.8267 8.27994V1.62664C10.8267 1.3533 11.0533 1.12664 11.3267 1.12664C11.6 1.12664 11.8267 1.3533 11.8267 1.62664V8.27994C11.8267 9.09328 11.5267 9.71328 10.9733 10.0266C10.42 10.3399 9.69334 10.2733 8.98 9.84661L8.1 9.31994C8.06 9.29328 7.93334 9.29328 7.89334 9.31994L7.01334 9.84661C6.6 10.0933 6.17334 10.2199 5.78667 10.2199Z" fill="currentColor"/>
</g>
<defs>
<clipPath id="clip0_2_5248">
<rect width="16" height="16" fill="currentColor"/>
</clipPath>
</defs>
</svg>
