<svg width="16" height="16" viewBox="0 0 16 16" fill="none" xmlns="http://www.w3.org/2000/svg">
<path d="M8 14.72C7.8 14.72 7.6 14.6733 7.43334 14.58C6.18667 13.9 3.99334 13.18 2.62 13L2.42667 12.9733C1.55334 12.8667 0.833336 12.0467 0.833336 11.16V3.10666C0.833336 2.57999 1.04 2.09999 1.42 1.75333C1.8 1.40666 2.29334 1.23999 2.81334 1.28666C4.28 1.39999 6.49334 2.13333 7.74667 2.92L7.90667 3.01333C7.95333 3.03999 8.05334 3.04 8.09334 3.02L8.2 2.95333C9.45334 2.16666 11.6667 1.41999 13.14 1.29333C13.1533 1.29333 13.2067 1.29333 13.22 1.29333C13.7067 1.24666 14.2067 1.42 14.58 1.76666C14.96 2.11333 15.1667 2.59333 15.1667 3.11999V11.1667C15.1667 12.06 14.4467 12.8733 13.5667 12.98L13.3467 13.0067C11.9733 13.1867 9.77334 13.9133 8.55334 14.5867C8.39334 14.68 8.2 14.72 8 14.72ZM2.65334 2.28C2.44 2.28 2.24667 2.35333 2.09334 2.49333C1.92667 2.64666 1.83334 2.86666 1.83334 3.10666V11.16C1.83334 11.5533 2.17334 11.9333 2.55334 11.9867L2.75334 12.0133C4.25334 12.2133 6.55334 12.9667 7.88667 13.6933C7.94667 13.72 8.03334 13.7267 8.06667 13.7133C9.4 12.9733 11.7133 12.2133 13.22 12.0133L13.4467 11.9867C13.8267 11.94 14.1667 11.5533 14.1667 11.16V3.11333C14.1667 2.86666 14.0733 2.65333 13.9067 2.49333C13.7333 2.34 13.5133 2.26666 13.2667 2.28C13.2533 2.28 13.2 2.28 13.1867 2.28C11.9133 2.39333 9.86 3.08 8.74 3.77999L8.63334 3.85333C8.26667 4.08 7.74667 4.07999 7.39334 3.85999L7.23334 3.76666C6.09334 3.06666 4.04 2.38666 2.73334 2.28C2.70667 2.28 2.68 2.28 2.65334 2.28Z" fill="currentColor"/>
<path d="M8 14.16C7.72667 14.16 7.5 13.9333 7.5 13.66V3.65998C7.5 3.38665 7.72667 3.15998 8 3.15998C8.27334 3.15998 8.5 3.38665 8.5 3.65998V13.66C8.5 13.94 8.27334 14.16 8 14.16Z" fill="currentColor"/>
<path d="M5.16667 6.15998H3.66667C3.39334 6.15998 3.16667 5.93332 3.16667 5.65998C3.16667 5.38665 3.39334 5.15998 3.66667 5.15998H5.16667C5.44 5.15998 5.66667 5.38665 5.66667 5.65998C5.66667 5.93332 5.44 6.15998 5.16667 6.15998Z" fill="currentColor"/>
<path d="M5.66667 8.15999H3.66667C3.39334 8.15999 3.16667 7.93332 3.16667 7.65999C3.16667 7.38666 3.39334 7.15999 3.66667 7.15999H5.66667C5.94 7.15999 6.16667 7.38666 6.16667 7.65999C6.16667 7.93332 5.94 8.15999 5.66667 8.15999Z" fill="currentColor"/>
</svg>
