<svg width="16" height="16" viewBox="0 0 16 16" fill="none" xmlns="http://www.w3.org/2000/svg">
<g clip-path="url(#clip0_2_5251)">
<path d="M10.2067 10.0133C9.81999 10.0133 9.39999 9.88668 8.97999 9.62668L8.09999 9.09334C8.05999 9.06668 7.93999 9.06668 7.89999 9.09334L7.01999 9.62668C6.29999 10.0667 5.59333 10.1333 5.02666 9.81334C4.47333 9.50001 4.16666 8.87334 4.16666 8.05334V3.35334C4.16666 1.72668 5.05333 0.833344 6.66666 0.833344H9.33333C10.9467 0.833344 11.8333 1.72668 11.8333 3.35334V8.05334C11.8333 8.88001 11.5267 9.50668 10.9733 9.81334C10.74 9.94668 10.48 10.0133 10.2067 10.0133ZM7.99999 8.07334C8.21999 8.07334 8.43999 8.12668 8.61999 8.23334L9.49999 8.76668C9.89333 9.00668 10.2533 9.06668 10.48 8.94001C10.7 8.81334 10.8267 8.48668 10.8267 8.04668V3.35334C10.8267 2.28668 10.38 1.83334 9.32666 1.83334H6.65999C5.60666 1.83334 5.15999 2.28668 5.15999 3.35334V8.05334C5.15999 8.49334 5.28666 8.82001 5.50666 8.94668C5.73333 9.07334 6.09333 9.01334 6.48666 8.77334L7.36666 8.24001C7.55999 8.12668 7.77999 8.07334 7.99999 8.07334Z" fill="currentColor"/>
<path d="M9.99999 15.1667H5.99999C2.37999 15.1667 0.833328 13.6067 0.833328 9.95334V7.93334C0.833328 4.82668 1.95333 3.25335 4.45999 2.83335C4.72666 2.78668 4.98666 2.97335 5.03333 3.24668C5.07999 3.52002 4.89333 3.77335 4.61999 3.82002C2.61333 4.15335 1.82666 5.30668 1.82666 7.93334V9.95334C1.82666 13.0267 2.95333 14.1667 5.99333 14.1667H9.99333C13.0333 14.1667 14.16 13.0267 14.16 9.95334V7.93334C14.16 5.26668 13.3467 4.11335 11.2533 3.80002C10.98 3.76002 10.7933 3.50668 10.8333 3.23335C10.8733 2.96002 11.1267 2.77335 11.4 2.81335C14 3.20002 15.16 4.77335 15.16 7.93334V9.95334C15.1667 13.6067 13.62 15.1667 9.99999 15.1667Z" fill="currentColor"/>
</g>
<defs>
<clipPath id="clip0_2_5251">
<rect width="16" height="16" fill="currentColor"/>
</clipPath>
</defs>
</svg>
