<svg width="16" height="16" viewBox="0 0 16 16" fill="none" xmlns="http://www.w3.org/2000/svg">
<path d="M2.33333 12.5C2.06 12.5 1.83333 12.2733 1.83333 12V4.66668C1.83333 1.72668 2.72667 0.833344 5.66667 0.833344H10.3333C13.2733 0.833344 14.1667 1.72668 14.1667 4.66668V11.3333C14.1667 11.44 14.1667 11.54 14.16 11.6467C14.14 11.92 13.8933 12.1333 13.6267 12.1133C13.3533 12.0933 13.14 11.8533 13.16 11.58C13.1667 11.5 13.1667 11.4133 13.1667 11.3333V4.66668C13.1667 2.28668 12.72 1.83334 10.3333 1.83334H5.66667C3.28 1.83334 2.83333 2.28668 2.83333 4.66668V12C2.83333 12.2733 2.60667 12.5 2.33333 12.5Z" fill="currentColor"/>
<path d="M11.3333 15.1667H4.66667C3.10667 15.1667 1.83333 13.8933 1.83333 12.3333V11.9C1.83333 10.5733 2.91333 9.50001 4.23333 9.50001H13.6667C13.94 9.50001 14.1667 9.72668 14.1667 10V12.3333C14.1667 13.8933 12.8933 15.1667 11.3333 15.1667ZM4.23333 10.5C3.46 10.5 2.83333 11.1267 2.83333 11.9V12.3333C2.83333 13.3467 3.65333 14.1667 4.66667 14.1667H11.3333C12.3467 14.1667 13.1667 13.3467 13.1667 12.3333V10.5H4.23333Z" fill="currentColor"/>
<path d="M10.6667 5.16668H5.33333C5.06 5.16668 4.83333 4.94001 4.83333 4.66668C4.83333 4.39334 5.06 4.16668 5.33333 4.16668H10.6667C10.94 4.16668 11.1667 4.39334 11.1667 4.66668C11.1667 4.94001 10.94 5.16668 10.6667 5.16668Z" fill="currentColor"/>
<path d="M8.66667 7.50001H5.33333C5.06 7.50001 4.83333 7.27334 4.83333 7.00001C4.83333 6.72668 5.06 6.50001 5.33333 6.50001H8.66667C8.94 6.50001 9.16667 6.72668 9.16667 7.00001C9.16667 7.27334 8.94 7.50001 8.66667 7.50001Z" fill="currentColor"/>
</svg>
