<svg width="16" height="16" viewBox="0 0 16 16" fill="none" xmlns="http://www.w3.org/2000/svg">
<path d="M7.9994 8.86674C7.91274 8.86674 7.82607 8.84674 7.74607 8.80008L1.85941 5.39341C1.62608 5.25341 1.53941 4.94674 1.67941 4.70674C1.81941 4.46674 2.12608 4.38674 2.36608 4.52674L7.9994 7.78674L13.5994 4.54674C13.8394 4.40674 14.1461 4.49341 14.2861 4.72674C14.4261 4.96674 14.3394 5.27341 14.1061 5.41341L8.2594 8.80008C8.17274 8.84008 8.08607 8.86674 7.9994 8.86674Z" fill="currentColor"/>
<path d="M8 14.9067C7.72667 14.9067 7.5 14.68 7.5 14.4067V8.36001C7.5 8.08668 7.72667 7.86001 8 7.86001C8.27334 7.86001 8.5 8.08668 8.5 8.36001V14.4067C8.5 14.68 8.27334 14.9067 8 14.9067Z" fill="currentColor"/>
<path d="M8.0004 15.1667C7.41374 15.1667 6.83374 15.04 6.37376 14.7867L2.81375 12.8067C1.84708 12.2733 1.09375 10.9867 1.09375 9.88001V6.11334C1.09375 5.00668 1.84708 3.72668 2.81375 3.18668L6.37376 1.21334C7.28707 0.706677 8.71374 0.706677 9.62707 1.21334L13.1871 3.19334C14.1537 3.72668 14.9071 5.01334 14.9071 6.12001V9.88668C14.9071 10.9933 14.1537 12.2733 13.1871 12.8133L9.62707 14.7867C9.16707 15.04 8.58707 15.1667 8.0004 15.1667ZM8.0004 1.83334C7.5804 1.83334 7.16707 1.92001 6.8604 2.08668L3.30042 4.06668C2.66042 4.42001 2.09376 5.38001 2.09376 6.11334V9.88001C2.09376 10.6133 2.66042 11.5733 3.30042 11.9333L6.8604 13.9133C7.46707 14.2533 8.53374 14.2533 9.1404 13.9133L12.7004 11.9333C13.3404 11.5733 13.9071 10.62 13.9071 9.88001V6.11334C13.9071 5.38001 13.3404 4.42001 12.7004 4.06001L9.1404 2.08001C8.83374 1.92001 8.4204 1.83334 8.0004 1.83334Z" fill="currentColor"/>
</svg>
