<svg width="16" height="16" viewBox="0 0 16 16" fill="none" xmlns="http://www.w3.org/2000/svg">
<path d="M12.6673 15.1666C11.5873 15.1666 10.5673 14.6066 9.994 13.6866C9.68733 13.2133 9.514 12.6466 9.50066 12.0666C9.48066 11.0933 9.89406 10.1866 10.6341 9.57328C11.1874 9.11328 11.8807 8.85328 12.5941 8.83328C13.4607 8.82661 14.2407 9.12661 14.854 9.71328C15.4673 10.2999 15.814 11.0866 15.8273 11.9333C15.8407 12.5133 15.694 13.0799 15.4007 13.5799C15.2407 13.8599 15.034 14.1199 14.7873 14.3399C14.2407 14.8533 13.5073 15.1533 12.7273 15.1666C12.714 15.1666 12.694 15.1666 12.6673 15.1666ZM12.6673 9.83328C12.654 9.83328 12.634 9.83328 12.6207 9.83328C12.1273 9.84661 11.6607 10.0199 11.274 10.3399C10.7673 10.7599 10.4873 11.3799 10.5007 12.0466C10.5073 12.4399 10.6273 12.8266 10.834 13.1533C11.2407 13.8066 11.9473 14.2066 12.7073 14.1666C13.234 14.1533 13.7341 13.9533 14.1141 13.5999C14.2874 13.4466 14.4273 13.2733 14.534 13.0866C14.734 12.7399 14.834 12.3533 14.8273 11.9599C14.814 11.3799 14.5807 10.8399 14.1607 10.4399C13.7607 10.0466 13.2273 9.83328 12.6673 9.83328Z" fill="currentColor"/>
<path d="M12.2993 13.1666C12.1726 13.1666 12.0526 13.1199 11.9526 13.0266L11.2793 12.3866C11.0793 12.1933 11.0726 11.8799 11.2659 11.6799C11.4593 11.4799 11.7726 11.4733 11.9726 11.6666L12.2993 11.9799L13.3459 10.9666C13.5459 10.7733 13.8593 10.7799 14.0526 10.9799C14.2459 11.1799 14.2393 11.4933 14.0393 11.6867L12.6459 13.0333C12.5459 13.1199 12.4193 13.1666 12.2993 13.1666Z" fill="currentColor"/>
<path d="M7.9996 8.86661C7.91293 8.86661 7.82626 8.84661 7.74626 8.79994L1.85957 5.39328C1.61957 5.25328 1.53956 4.94659 1.67956 4.70659C1.81956 4.46659 2.12624 4.38658 2.35957 4.52658L7.99286 7.78661L13.5929 4.5466C13.8329 4.4066 14.1396 4.49328 14.2729 4.72661C14.4129 4.96661 14.3263 5.27326 14.0929 5.41326L8.24626 8.79994C8.17293 8.83994 8.08626 8.86661 7.9996 8.86661Z" fill="currentColor"/>
<path d="M8 14.9065C7.72666 14.9065 7.5 14.6799 7.5 14.4065V8.35988C7.5 8.08654 7.72666 7.85988 8 7.85988C8.27333 7.85988 8.5 8.08654 8.5 8.35988V14.4065C8.5 14.6799 8.27333 14.9065 8 14.9065Z" fill="currentColor"/>
<path d="M7.99926 15.1666C7.4126 15.1666 6.82593 15.0399 6.3726 14.7799L2.8126 12.8066C1.84593 12.2733 1.08594 10.9866 1.08594 9.87994V6.10661C1.08594 4.99994 1.84593 3.71997 2.8126 3.17997L6.3726 1.20662C7.27926 0.693291 8.70593 0.693291 9.61926 1.20662L13.1793 3.17997C14.1459 3.7133 14.9059 4.99994 14.9059 6.10661V9.87994C14.9059 9.94661 14.9059 9.99994 14.8926 10.0666C14.8593 10.2399 14.7326 10.3866 14.5659 10.4399C14.3993 10.4999 14.2126 10.4599 14.0726 10.3466C13.3059 9.67994 12.1193 9.65328 11.3126 10.2999C10.7993 10.7066 10.4993 11.3266 10.4993 11.9866C10.4993 12.3799 10.6059 12.7666 10.8126 13.0999C10.8659 13.1933 10.9193 13.2666 10.9793 13.3399C11.0793 13.4533 11.1193 13.6066 11.0926 13.7533C11.0659 13.8999 10.9726 14.0266 10.8393 14.0999L9.61926 14.7733C9.16593 15.0399 8.58593 15.1666 7.99926 15.1666ZM7.99926 1.83329C7.58593 1.83329 7.16593 1.91996 6.86593 2.08663L3.30592 4.05998C2.65926 4.41331 2.09926 5.37328 2.09926 6.10661V9.87994C2.09926 10.6133 2.66592 11.5733 3.30592 11.9266L6.86593 13.8999C7.4726 14.2399 8.5326 14.2399 9.13926 13.8999L9.88593 13.4866C9.63926 13.0399 9.50593 12.5199 9.50593 11.9866C9.50593 11.0133 9.93926 10.1133 10.6926 9.51328C11.5993 8.78661 12.8926 8.63328 13.9126 9.06661V6.0933C13.9126 5.35997 13.3459 4.39996 12.7059 4.04663L9.14593 2.07328C8.8326 1.91995 8.4126 1.83329 7.99926 1.83329Z" fill="currentColor"/>
</svg>
