<svg width="16" height="16" viewBox="0 0 16 16" fill="none" xmlns="http://www.w3.org/2000/svg">
<path d="M7.9996 8.8666C7.91293 8.8666 7.82627 8.8466 7.74627 8.79993L1.85957 5.39327C1.61957 5.25327 1.53956 4.94658 1.67956 4.70658C1.81956 4.46658 2.11956 4.38657 2.36623 4.52657L7.9996 7.7866L13.5995 4.54659C13.8395 4.40659 14.1462 4.49327 14.2862 4.7266C14.4262 4.9666 14.3396 5.27325 14.1063 5.41325L8.2596 8.79993C8.17293 8.83993 8.08627 8.8666 7.9996 8.8666Z" fill="currentColor"/>
<path d="M8 14.9067C7.72666 14.9067 7.5 14.68 7.5 14.4067V8.36C7.5 8.08667 7.72666 7.86 8 7.86C8.27333 7.86 8.5 8.08667 8.5 8.36V14.4067C8.5 14.68 8.27333 14.9067 8 14.9067Z" fill="currentColor"/>
<path d="M7.99926 15.1667C7.3926 15.1667 6.8126 15.0267 6.3726 14.78L2.8126 12.8067C1.84593 12.2733 1.08594 10.9867 1.08594 9.88V6.10665C1.08594 4.99998 1.84593 3.72001 2.8126 3.18001L6.3726 1.20666C7.27926 0.699993 8.70593 0.699993 9.61926 1.20666L13.1793 3.18001C14.1459 3.71334 14.9059 4.99998 14.9059 6.10665V8.54667C14.9059 8.82 14.6793 9.04667 14.4059 9.04667C14.1326 9.04667 13.9059 8.82 13.9059 8.54667V6.10665C13.9059 5.37331 13.3393 4.41335 12.6993 4.06001L9.13927 2.08667C8.5326 1.74667 7.4726 1.74667 6.86593 2.08667L3.30592 4.06001C2.65926 4.42001 2.09926 5.37331 2.09926 6.10665V9.88C2.09926 10.6133 2.66592 11.5733 3.30592 11.9267L6.86593 13.9C7.4526 14.2267 8.55926 14.2267 9.13927 13.9C9.37926 13.7667 9.68593 13.8533 9.81926 14.0933C9.9526 14.3333 9.86593 14.64 9.62593 14.7733C9.18593 15.0267 8.60593 15.1667 7.99926 15.1667Z" fill="currentColor"/>
<path d="M12.8 14.7667C11.3467 14.7667 10.1667 13.5867 10.1667 12.1333C10.1667 10.68 11.3467 9.5 12.8 9.5C14.2533 9.5 15.4333 10.68 15.4333 12.1333C15.4333 13.5867 14.2533 14.7667 12.8 14.7667ZM12.8 10.5C11.9 10.5 11.1667 11.2333 11.1667 12.1333C11.1667 13.0333 11.9 13.7667 12.8 13.7667C13.7 13.7667 14.4333 13.0333 14.4333 12.1333C14.4333 11.2333 13.7 10.5 12.8 10.5Z" fill="currentColor"/>
<path d="M15.333 15.1667C15.2063 15.1667 15.0797 15.12 14.9797 15.02L14.313 14.3533C14.1197 14.16 14.1197 13.8399 14.313 13.6466C14.5063 13.4533 14.8263 13.4533 15.0197 13.6466L15.6863 14.3133C15.8797 14.5066 15.8797 14.8267 15.6863 15.02C15.5863 15.12 15.4597 15.1667 15.333 15.1667Z" fill="currentColor"/>
</svg>
