<svg width="16" height="16" viewBox="0 0 16 16" fill="none" xmlns="http://www.w3.org/2000/svg">
<path d="M7.9996 8.86661C7.91293 8.86661 7.82626 8.84661 7.74626 8.79994L1.85957 5.39328C1.61957 5.25328 1.53956 4.94659 1.67956 4.70659C1.81956 4.46659 2.12624 4.38658 2.35957 4.52658L7.99286 7.78661L13.5929 4.5466C13.8329 4.4066 14.1396 4.49328 14.2729 4.72661C14.4129 4.96661 14.3263 5.27326 14.0929 5.41326L8.24626 8.79994C8.17293 8.83994 8.08626 8.86661 7.9996 8.86661Z" fill="currentColor"/>
<path d="M8 14.9065C7.72666 14.9065 7.5 14.6799 7.5 14.4065V8.35988C7.5 8.08654 7.72666 7.85988 8 7.85988C8.27333 7.85988 8.5 8.08654 8.5 8.35988V14.4065C8.5 14.6799 8.27333 14.9065 8 14.9065Z" fill="currentColor"/>
<path d="M7.99926 15.1666C7.4126 15.1666 6.82593 15.0399 6.3726 14.7799L2.8126 12.8066C1.84593 12.2733 1.08594 10.9866 1.08594 9.87994V6.10661C1.08594 4.99994 1.84593 3.71997 2.8126 3.17997L6.3726 1.20662C7.27926 0.693291 8.70593 0.693291 9.61926 1.20662L13.1793 3.17997C14.1459 3.7133 14.9059 4.99994 14.9059 6.10661V9.87994C14.9059 9.94661 14.9059 9.99994 14.8926 10.0666C14.8593 10.2399 14.7326 10.3866 14.5659 10.4399C14.3993 10.4999 14.2126 10.4599 14.0726 10.3466C13.3059 9.67994 12.1193 9.65328 11.3126 10.2999C10.7993 10.7066 10.4993 11.3266 10.4993 11.9866C10.4993 12.3799 10.6059 12.7666 10.8126 13.0999C10.8659 13.1933 10.9193 13.2666 10.9793 13.3399C11.0793 13.4533 11.1193 13.6066 11.0926 13.7533C11.0659 13.8999 10.9726 14.0266 10.8393 14.0999L9.61926 14.7733C9.16593 15.0399 8.58593 15.1666 7.99926 15.1666ZM7.99926 1.83329C7.58593 1.83329 7.16593 1.91996 6.86593 2.08663L3.30592 4.05998C2.65926 4.41331 2.09926 5.37328 2.09926 6.10661V9.87994C2.09926 10.6133 2.66592 11.5733 3.30592 11.9266L6.86593 13.8999C7.4726 14.2399 8.5326 14.2399 9.13927 13.8999L9.88593 13.4866C9.63927 13.0399 9.50593 12.5199 9.50593 11.9866C9.50593 11.0133 9.93926 10.1133 10.6926 9.51328C11.5993 8.78661 12.8993 8.63328 13.9126 9.06661V6.09331C13.9126 5.35997 13.3459 4.39996 12.7059 4.04663L9.14593 2.07328C8.8326 1.91995 8.4126 1.83329 7.99926 1.83329Z" fill="currentColor"/>
<path d="M12.6667 15.1667C11.56 15.1667 10.52 14.58 9.96 13.6267C9.66 13.1467 9.5 12.58 9.5 12C9.5 11.0267 9.93333 10.1267 10.6867 9.52668C11.2467 9.08001 11.9533 8.83335 12.6667 8.83335C14.4133 8.83335 15.8333 10.2533 15.8333 12C15.8333 12.58 15.6733 13.1467 15.3733 13.6333C15.2133 13.9133 14.9933 14.1667 14.74 14.38C14.1867 14.8867 13.4467 15.1667 12.6667 15.1667ZM12.6667 9.83335C12.1733 9.83335 11.7067 10 11.3133 10.3133C10.8 10.72 10.5 11.34 10.5 12C10.5 12.3933 10.6067 12.78 10.8133 13.1133C11.2067 13.78 11.9 14.1667 12.6667 14.1667C13.1933 14.1667 13.7 13.9733 14.0867 13.6267C14.26 13.48 14.4067 13.3067 14.5133 13.12C14.7267 12.78 14.8333 12.3933 14.8333 12C14.8333 10.8067 13.86 9.83335 12.6667 9.83335Z" fill="currentColor"/>
<path d="M13.3803 13.1934C13.2536 13.1934 13.1269 13.1467 13.0269 13.0467L11.6203 11.6401C11.4269 11.4467 11.4269 11.1267 11.6203 10.9334C11.8136 10.7401 12.1336 10.7401 12.3269 10.9334L13.7336 12.3401C13.9269 12.5334 13.9269 12.8534 13.7336 13.0467C13.6336 13.1467 13.5069 13.1934 13.3803 13.1934Z" fill="currentColor"/>
<path d="M11.9541 13.2133C11.8274 13.2133 11.7007 13.1666 11.6007 13.0666C11.4074 12.8733 11.4074 12.5533 11.6007 12.3599L13.0074 10.9533C13.2007 10.7599 13.5207 10.7599 13.7141 10.9533C13.9074 11.1466 13.9074 11.4666 13.7141 11.6599L12.3074 13.0666C12.2074 13.1666 12.0807 13.2133 11.9541 13.2133Z" fill="currentColor"/>
</svg>
