<svg width="16" height="16" viewBox="0 0 16 16" fill="none" xmlns="http://www.w3.org/2000/svg">
<path d="M7.9996 8.8666C7.91293 8.8666 7.82626 8.8466 7.74626 8.79993L1.85957 5.39327C1.61957 5.25327 1.53956 4.94658 1.67956 4.70658C1.81956 4.46658 2.11956 4.38657 2.36622 4.52657L7.9996 7.7866L13.5995 4.54659C13.8395 4.40659 14.1462 4.49327 14.2862 4.7266C14.4262 4.9666 14.3396 5.27325 14.1063 5.41325L8.2596 8.79993C8.17293 8.83993 8.08626 8.8666 7.9996 8.8666Z" fill="currentColor"/>
<path d="M8 14.9067C7.72666 14.9067 7.5 14.68 7.5 14.4067V8.36C7.5 8.08667 7.72666 7.86 8 7.86C8.27333 7.86 8.5 8.08667 8.5 8.36V14.4067C8.5 14.68 8.27333 14.9067 8 14.9067Z" fill="currentColor"/>
<path d="M7.99926 15.1667C7.4126 15.1667 6.82593 15.04 6.3726 14.78L2.8126 12.8067C1.84593 12.2733 1.08594 10.9867 1.08594 9.88V6.10665C1.08594 4.99998 1.84593 3.72001 2.8126 3.18001L6.3726 1.20666C7.27926 0.699993 8.70593 0.699993 9.61926 1.20666L13.1793 3.18001C14.1459 3.71334 14.9059 4.99998 14.9059 6.10665V9.88C14.9059 9.92667 14.9059 9.99333 14.8859 10.08C14.8459 10.2533 14.7193 10.3933 14.5526 10.4467C14.3859 10.5 14.1993 10.4667 14.0659 10.3467C13.3059 9.68 12.1193 9.65333 11.3059 10.3C10.7926 10.7067 10.4926 11.3267 10.4926 11.9867C10.4926 12.38 10.5993 12.7667 10.8059 13.1C10.8593 13.1933 10.9126 13.2667 10.9726 13.3333C11.0726 13.4467 11.1126 13.6 11.0859 13.7467C11.0593 13.8933 10.9659 14.0267 10.8326 14.0933L9.6126 14.7667C9.16593 15.04 8.58593 15.1667 7.99926 15.1667ZM7.99926 1.83333C7.58593 1.83333 7.16593 1.92 6.86593 2.08667L3.30592 4.06001C2.65926 4.42001 2.09926 5.37331 2.09926 6.10665V9.88C2.09926 10.6133 2.66592 11.5733 3.30592 11.9267L6.86593 13.9C7.4726 14.24 8.5326 14.24 9.13927 13.9L9.88593 13.4867C9.63927 13.04 9.50593 12.52 9.50593 11.9867C9.50593 11.0133 9.93926 10.1133 10.6926 9.51333C11.6059 8.78667 12.8993 8.63333 13.9126 9.07333V6.10001C13.9126 5.36668 13.3459 4.40667 12.7059 4.05334L9.14593 2.07999C8.8326 1.91999 8.4126 1.83333 7.99926 1.83333Z" fill="currentColor"/>
<path d="M12.6667 15.1667C10.92 15.1667 9.5 13.7467 9.5 12C9.5 11.0267 9.93333 10.1267 10.6867 9.52667C11.2467 9.08 11.9533 8.83333 12.6667 8.83333C14.4133 8.83333 15.8333 10.2533 15.8333 12C15.8333 12.9067 15.44 13.7733 14.7533 14.3733C14.1733 14.8867 13.4333 15.1667 12.6667 15.1667ZM12.6667 9.83333C12.1733 9.83333 11.7067 10 11.3133 10.3133C10.8 10.72 10.5 11.34 10.5 12C10.5 13.1933 11.4733 14.1667 12.6667 14.1667C13.1867 14.1667 13.6933 13.9733 14.1 13.6267C14.5667 13.2133 14.8333 12.6267 14.8333 12C14.8333 10.8067 13.86 9.83333 12.6667 9.83333Z" fill="currentColor"/>
<path d="M11.9999 13.1667C11.8333 13.1667 11.6666 13.08 11.5733 12.9267C11.4333 12.6867 11.5066 12.38 11.7466 12.24L12.3399 11.8867V11.1667C12.3399 10.8933 12.5666 10.6667 12.8399 10.6667C13.1133 10.6667 13.3399 10.8933 13.3399 11.1667V12.1667C13.3399 12.34 13.2466 12.5067 13.0999 12.5933L12.2666 13.0933C12.1733 13.1467 12.0866 13.1667 11.9999 13.1667Z" fill="currentColor"/>
</svg>
