<svg width="16" height="16" viewBox="0 0 16 16" fill="none" xmlns="http://www.w3.org/2000/svg">
<path d="M7.99959 15.1667C7.95959 15.1667 7.91959 15.16 7.88625 15.1533C7.84625 15.1467 7.80625 15.1267 7.76625 15.1067L6.29291 14.3733C6.04624 14.2467 5.94623 13.9467 6.06623 13.7C6.1929 13.4533 6.49291 13.3533 6.73959 13.4733L7.49959 13.8533V12.8133C7.49959 12.54 7.72625 12.3133 7.99959 12.3133C8.27292 12.3133 8.49959 12.54 8.49959 12.8133V13.8533L9.25959 13.4733C9.50625 13.3533 9.80625 13.4533 9.93292 13.7C10.0596 13.9467 9.95959 14.2467 9.70625 14.3733L8.23292 15.1067C8.19292 15.1267 8.15292 15.14 8.11292 15.1533C8.07292 15.16 8.03959 15.1667 7.99959 15.1667ZM12.4463 12.9467C12.2663 12.9467 12.0863 12.8467 11.9996 12.6733C11.8729 12.4267 11.9729 12.1267 12.2263 12L13.4329 11.4V9.86001C13.4329 9.58668 13.6596 9.36001 13.9329 9.36001C14.2063 9.36001 14.4329 9.58668 14.4329 9.86001V11.7133C14.4329 11.9 14.3263 12.0733 14.1596 12.16L12.6796 12.9C12.5929 12.9267 12.5196 12.9467 12.4463 12.9467ZM3.55291 12.9467C3.47957 12.9467 3.39957 12.9267 3.3329 12.8933L1.8529 12.1533C1.68623 12.0667 1.57957 11.8933 1.57957 11.7067V9.85334C1.57957 9.58001 1.80624 9.35334 2.07957 9.35334C2.35291 9.35334 2.57957 9.58001 2.57957 9.85334V11.3933L3.78623 11.9933C4.0329 12.12 4.1329 12.42 4.0129 12.6667C3.9129 12.84 3.73957 12.9467 3.55291 12.9467ZM7.99959 9.61334C7.72625 9.61334 7.49959 9.38668 7.49959 9.11334V7.57334L6.29291 6.97334C6.04624 6.84668 5.94623 6.5467 6.06623 6.30004C6.1929 6.05337 6.49291 5.95337 6.73959 6.07337L7.99959 6.70001L9.25959 6.07337C9.50625 5.95337 9.80625 6.0467 9.93292 6.30004C10.0596 6.55337 9.95959 6.84668 9.70625 6.97334L8.49959 7.57334V9.11334C8.49959 9.38668 8.27292 9.61334 7.99959 9.61334ZM13.9263 6.6467C13.6529 6.6467 13.4263 6.42004 13.4263 6.1467V5.10671L12.6663 5.4867C12.4196 5.61337 12.1196 5.51337 11.9929 5.26004C11.8663 5.01337 11.9663 4.71338 12.2196 4.58671L12.8063 4.29337L12.2196 4.00004C11.9729 3.87337 11.8729 3.57338 11.9929 3.32671C12.1196 3.08004 12.4196 2.98004 12.6663 3.10004L14.1396 3.83337C14.1529 3.84004 14.1729 3.8467 14.1863 3.86003C14.2263 3.88003 14.2596 3.91337 14.2929 3.9467C14.3129 3.97337 14.3329 4.00003 14.3529 4.0267C14.3796 4.07336 14.3996 4.12004 14.4129 4.17337C14.4196 4.21337 14.4263 4.25336 14.4263 4.2867V4.29337V6.13337C14.4263 6.4267 14.1996 6.6467 13.9263 6.6467ZM2.07291 6.6467C1.79957 6.6467 1.57291 6.42004 1.57291 6.1467V4.30671V4.30004C1.57291 4.26004 1.57957 4.22004 1.58623 4.1867C1.59957 4.13337 1.61957 4.0867 1.64624 4.04004C1.66624 4.0067 1.68623 3.98003 1.7129 3.95336C1.73957 3.9267 1.7729 3.90004 1.80623 3.88004C1.81957 3.87338 1.83957 3.86004 1.8529 3.85337L3.32623 3.12003C3.5729 3.00003 3.8729 3.09338 3.99957 3.34671C4.12623 3.60004 4.02624 3.89337 3.77291 4.02004L3.18623 4.31337L3.77291 4.60671C4.01957 4.73338 4.11957 5.03337 3.99957 5.28004C3.8729 5.5267 3.57957 5.6267 3.32623 5.5067L2.56623 5.1267V6.1667C2.5729 6.4267 2.3529 6.6467 2.07291 6.6467ZM9.47959 2.57337C9.40625 2.57337 9.32625 2.55337 9.25959 2.52004L7.99959 1.89337L6.73959 2.52004C6.49291 2.6467 6.1929 2.5467 6.06623 2.29337C5.93957 2.0467 6.03957 1.7467 6.29291 1.62003L7.77292 0.880043C7.91292 0.806709 8.07959 0.806709 8.21959 0.880043L9.69959 1.62003C9.94625 1.7467 10.0463 2.0467 9.92625 2.29337C9.83959 2.47337 9.66625 2.57337 9.47959 2.57337Z" fill="currentColor"/>
</svg>
