<svg width="16" height="16" viewBox="0 0 16 16" fill="none" xmlns="http://www.w3.org/2000/svg">
<path d="M12.6668 15.1667C11.7335 15.1667 10.8601 14.76 10.2601 14.0467C10.2535 14.0333 10.2135 14 10.1801 13.9467C10.1068 13.8733 10.0201 13.74 9.9468 13.6133C9.65346 13.14 9.49346 12.58 9.49346 11.9933C9.49346 11.02 9.9268 10.12 10.6801 9.52001C11.2401 9.07335 11.9468 8.82668 12.6601 8.82668C13.4335 8.82668 14.1468 9.09335 14.7201 9.59335C14.8001 9.64668 14.8935 9.74668 14.9801 9.84001C15.5201 10.4333 15.8201 11.1933 15.8201 11.9867C15.8201 12.5667 15.6601 13.1333 15.3601 13.62C15.2001 13.9 14.9801 14.1533 14.7268 14.3667C14.1868 14.8867 13.4468 15.1667 12.6668 15.1667ZM12.6668 9.83335C12.1735 9.83335 11.7068 10 11.3135 10.3133C10.8001 10.72 10.5001 11.34 10.5001 12C10.5001 12.3933 10.6068 12.78 10.8135 13.1133C10.8668 13.2067 10.9201 13.28 10.9801 13.3533C10.9935 13.3667 11.0335 13.4067 11.0668 13.46C11.4335 13.8933 12.0335 14.1733 12.6668 14.1733C13.1935 14.1733 13.7001 13.98 14.0868 13.6333C14.2601 13.4867 14.4068 13.3133 14.5135 13.1267C14.7268 12.7867 14.8335 12.4 14.8335 12.0067C14.8335 11.4667 14.6268 10.94 14.2535 10.5333C14.2068 10.48 14.1535 10.4267 14.1001 10.3867C13.6801 10.0133 13.1935 9.83335 12.6668 9.83335Z" fill="currentColor"/>
<path d="M13.66 12.4867H11.6667C11.3933 12.4867 11.1667 12.26 11.1667 11.9867C11.1667 11.7133 11.3933 11.4867 11.6667 11.4867H13.66C13.9333 11.4867 14.16 11.7133 14.16 11.9867C14.16 12.26 13.94 12.4867 13.66 12.4867Z" fill="currentColor"/>
<path d="M12.6667 13.5067C12.3933 13.5067 12.1667 13.28 12.1667 13.0067V11.0133C12.1667 10.74 12.3933 10.5133 12.6667 10.5133C12.94 10.5133 13.1667 10.74 13.1667 11.0133V13.0067C13.1667 13.2867 12.94 13.5067 12.6667 13.5067Z" fill="currentColor"/>
<path d="M7.99953 8.86661C7.91286 8.86661 7.8262 8.84661 7.7462 8.79994L1.85956 5.39328C1.61956 5.25328 1.53956 4.94659 1.67956 4.70659C1.81956 4.46659 2.12622 4.38658 2.35956 4.52658L7.99293 7.78661L13.5929 4.5466C13.8329 4.4066 14.1396 4.49328 14.2729 4.72661C14.4129 4.96661 14.3262 5.27326 14.0929 5.41326L8.2462 8.79994C8.17286 8.83994 8.0862 8.86661 7.99953 8.86661Z" fill="currentColor"/>
<path d="M8 14.9065C7.72666 14.9065 7.5 14.6799 7.5 14.4065V8.35988C7.5 8.08654 7.72666 7.85988 8 7.85988C8.27333 7.85988 8.5 8.08654 8.5 8.35988V14.4065C8.5 14.6799 8.27333 14.9065 8 14.9065Z" fill="currentColor"/>
<path d="M7.99926 15.1666C7.4126 15.1666 6.82593 15.0399 6.3726 14.7799L2.8126 12.8066C1.84593 12.2733 1.08594 10.9866 1.08594 9.87994V6.10661C1.08594 4.99994 1.84593 3.71997 2.8126 3.17997L6.3726 1.20662C7.27926 0.693291 8.70593 0.693291 9.61926 1.20662L13.1793 3.17997C14.1459 3.7133 14.9059 4.99994 14.9059 6.10661V9.87994C14.9059 9.94661 14.9059 9.99994 14.8926 10.0666C14.8593 10.2399 14.7326 10.3866 14.5659 10.4399C14.3993 10.4999 14.2126 10.4599 14.0726 10.3466C13.3059 9.67994 12.1193 9.65328 11.3126 10.2999C10.7993 10.7066 10.4993 11.3266 10.4993 11.9866C10.4993 12.3799 10.6059 12.7666 10.8126 13.0999C10.8659 13.1933 10.9193 13.2666 10.9793 13.3399C11.0793 13.4533 11.1193 13.6066 11.0926 13.7533C11.0659 13.8999 10.9726 14.0266 10.8393 14.0999L9.61926 14.7733C9.16593 15.0399 8.58593 15.1666 7.99926 15.1666ZM7.99926 1.83329C7.58593 1.83329 7.16593 1.91996 6.86593 2.08663L3.30594 4.05998C2.65927 4.41331 2.09926 5.37328 2.09926 6.10661V9.87994C2.09926 10.6133 2.66594 11.5733 3.30594 11.9266L6.86593 13.8999C7.4726 14.2399 8.5326 14.2399 9.13926 13.8999L9.88593 13.4866C9.63926 13.0399 9.50593 12.5199 9.50593 11.9866C9.50593 11.0133 9.93926 10.1133 10.6926 9.51328C11.5993 8.78661 12.8993 8.63328 13.9126 9.06661V6.09331C13.9126 5.35997 13.3459 4.39996 12.7059 4.04663L9.14593 2.07328C8.8326 1.91995 8.4126 1.83329 7.99926 1.83329Z" fill="currentColor"/>
</svg>
