<svg width="16" height="16" viewBox="0 0 16 16" fill="none" xmlns="http://www.w3.org/2000/svg">
<path d="M7.9996 8.86661C7.91294 8.86661 7.82627 8.84661 7.74627 8.79994L1.85958 5.39328C1.61958 5.25328 1.53956 4.94659 1.67956 4.70659C1.81956 4.46659 2.11956 4.38658 2.36623 4.52658L7.9996 7.78661L13.5995 4.5466C13.8395 4.4066 14.1462 4.49328 14.2862 4.72661C14.4262 4.96661 14.3396 5.27326 14.1063 5.41326L8.2596 8.79994C8.17294 8.83994 8.08627 8.86661 7.9996 8.86661Z" fill="currentColor"/>
<path d="M8 14.9067C7.72667 14.9067 7.5 14.68 7.5 14.4067V8.36001C7.5 8.08668 7.72667 7.86001 8 7.86001C8.27334 7.86001 8.5 8.08668 8.5 8.36001V14.4067C8.5 14.68 8.27334 14.9067 8 14.9067Z" fill="currentColor"/>
<path d="M8.0004 15.1667C7.41374 15.1667 6.83374 15.04 6.37374 14.7867L2.81374 12.8067C1.84708 12.2733 1.09375 10.9867 1.09375 9.88001V6.11333C1.09375 5.00666 1.84708 3.72669 2.81374 3.18669L6.37374 1.21334C7.28707 0.706677 8.71374 0.706677 9.62707 1.21334L13.1871 3.19332C14.1537 3.72666 14.9071 5.01334 14.9071 6.12V9.88668C14.9071 10.9933 14.1537 12.2733 13.1871 12.8133L9.62707 14.7867C9.16707 15.04 8.58707 15.1667 8.0004 15.1667ZM8.0004 1.83334C7.5804 1.83334 7.16707 1.92001 6.8604 2.08668L3.30042 4.06666C2.66042 4.42666 2.09375 5.38 2.09375 6.12V9.88668C2.09375 10.62 2.66042 11.58 3.30042 11.94L6.8604 13.92C7.46707 14.26 8.53374 14.26 9.1404 13.92L12.7004 11.94C13.3404 11.58 13.9071 10.6267 13.9071 9.88668V6.12C13.9071 5.38667 13.3404 4.42666 12.7004 4.06666L9.1404 2.08668C8.83374 1.92001 8.4204 1.83334 8.0004 1.83334Z" fill="currentColor"/>
<path d="M11.3341 9.32668C11.0608 9.32668 10.8341 9.10001 10.8341 8.82668V6.68008L4.75411 3.17339C4.51411 3.03339 4.4341 2.72671 4.5741 2.49338C4.7141 2.25338 5.01411 2.17336 5.25411 2.31336L11.5808 5.96672C11.7341 6.05339 11.8341 6.22003 11.8341 6.40003V8.84008C11.8341 9.10008 11.6075 9.32668 11.3341 9.32668Z" fill="currentColor"/>
</svg>
