<svg width="16" height="16" viewBox="0 0 16 16" fill="none" xmlns="http://www.w3.org/2000/svg">
<g clip-path="url(#clip0_202_15)">
<path fill-rule="evenodd" clip-rule="evenodd" d="M7.99998 7.33332C6.8212 7.33332 5.86665 8.28787 5.86665 9.46665C5.86665 10.6454 6.8212 11.6 7.99998 11.6C9.17876 11.6 10.1333 10.6454 10.1333 9.46665C10.1333 8.28787 9.17876 7.33332 7.99998 7.33332ZM4.79998 9.46665C4.79998 7.69877 6.2321 6.26665 7.99998 6.26665C9.76787 6.26665 11.2 7.69877 11.2 9.46665C11.2 11.2345 9.76787 12.6667 7.99998 12.6667C6.2321 12.6667 4.79998 11.2345 4.79998 9.46665Z" fill="currentColor"/>
<path fill-rule="evenodd" clip-rule="evenodd" d="M8.00487 7.97999C8.29942 7.97901 8.539 8.21699 8.53998 8.51154L8.54664 10.5049C8.54762 10.7994 8.30964 11.039 8.01509 11.04C7.72054 11.041 7.48096 10.803 7.47998 10.5084L7.47332 8.5151C7.47234 8.22055 7.71032 7.98098 8.00487 7.97999Z" fill="currentColor"/>
<path fill-rule="evenodd" clip-rule="evenodd" d="M6.45997 9.51332C6.45997 9.21877 6.69876 8.97999 6.99331 8.97999H8.99331C9.28786 8.97999 9.52664 9.21877 9.52664 9.51332C9.52664 9.80788 9.28786 10.0467 8.99331 10.0467H6.99331C6.69876 10.0467 6.45997 9.80788 6.45997 9.51332Z" fill="currentColor"/>
<path fill-rule="evenodd" clip-rule="evenodd" d="M1.55682 4.52335C2.15645 3.81046 3.1807 3.46665 4.66664 3.46665H11.3333C12.8192 3.46665 13.8435 3.81046 14.4431 4.52335C15.0366 5.22896 15.0912 6.1536 14.9972 7.00748L14.497 12.3435C14.4233 13.031 14.2501 13.7928 13.6289 14.3604C13.0124 14.9236 12.0613 15.2 10.6666 15.2H5.33331C3.93866 15.2 2.9875 14.9236 2.37108 14.3604C1.74982 13.7928 1.57666 13.031 1.503 12.3435L1.50225 12.3364L1.0027 7.00745C0.908768 6.15358 0.963317 5.22895 1.55682 4.52335ZM2.37312 5.20996C2.06767 5.5731 1.97802 6.12312 2.0634 6.89466L2.06438 6.90353L2.56397 12.2333C2.63044 12.8506 2.76738 13.2777 3.09053 13.5729C3.41911 13.8731 4.04796 14.1333 5.33331 14.1333H10.6666C11.952 14.1333 12.5808 13.8731 12.9094 13.5729C13.2326 13.2777 13.3695 12.8506 13.436 12.2333L13.9365 6.89465C14.0219 6.12311 13.9323 5.5731 13.6268 5.20996C13.3265 4.85285 12.694 4.53332 11.3333 4.53332H4.66664C3.30591 4.53332 2.6735 4.85285 2.37312 5.20996Z" fill="currentColor"/>
<path fill-rule="evenodd" clip-rule="evenodd" d="M5.89549 2.70455C5.86751 2.91892 5.86665 3.16315 5.86665 3.46665V3.99999C5.86665 4.29454 5.62787 4.53332 5.33331 4.53332C5.03876 4.53332 4.79998 4.29454 4.79998 3.99999V3.46665C4.79998 3.46059 4.79998 3.45451 4.79998 3.44842C4.79996 3.16672 4.79994 2.85645 4.8378 2.56646C4.87711 2.2654 4.96166 1.94303 5.16124 1.65425C5.58204 1.04543 6.34986 0.799988 7.46666 0.799988H8.53331C9.6501 0.799988 10.4179 1.04543 10.8387 1.65425C11.0383 1.94303 11.1229 2.2654 11.1622 2.56646C11.2 2.85645 11.2 3.16672 11.2 3.44842L11.2 3.99999C11.2 4.29454 10.9612 4.53332 10.6666 4.53332C10.3721 4.53332 10.1333 4.29454 10.1333 3.99999V3.46665C10.1333 3.16315 10.1325 2.91892 10.1045 2.70455C10.0771 2.49499 10.0283 2.35778 9.96124 2.26072C9.84869 2.09788 9.54985 1.86665 8.53331 1.86665H7.46666C6.45012 1.86665 6.15127 2.09788 6.03872 2.26072C5.97164 2.35778 5.92285 2.49499 5.89549 2.70455Z" fill="currentColor"/>
<path fill-rule="evenodd" clip-rule="evenodd" d="M14.8645 7.01948C15.0379 7.25763 14.9853 7.59121 14.7472 7.76454C13.5654 8.6246 12.2231 9.25389 10.8033 9.61058C10.5176 9.68235 10.2278 9.50895 10.1561 9.22327C10.0843 8.9376 10.2577 8.64783 10.5434 8.57606C11.8303 8.25275 13.0479 7.68204 14.1195 6.9021C14.3576 6.72877 14.6912 6.78132 14.8645 7.01948Z" fill="currentColor"/>
<path fill-rule="evenodd" clip-rule="evenodd" d="M1.30708 7.21129C1.47389 6.96852 1.80591 6.90695 2.04868 7.07376C3.08224 7.78393 4.24289 8.30398 5.46013 8.60194C5.74623 8.67198 5.92139 8.96069 5.85135 9.24679C5.78132 9.5329 5.49261 9.70806 5.2065 9.63802C3.86374 9.30932 2.58438 8.73605 1.44461 7.95289C1.20184 7.78608 1.14027 7.45406 1.30708 7.21129Z" fill="currentColor"/>
</g>
<defs>
<clipPath id="clip0_202_15">
<rect width="16" height="16" fill="currentColor"/>
</clipPath>
</defs>
</svg>
