<svg width="16" height="16" viewBox="0 0 16 16" fill="none" xmlns="http://www.w3.org/2000/svg">
<g clip-path="url(#clip0_303_49)">
<path d="M10.8918 15.3333H5.19459C1.91439 15.3333 1.31014 13.8228 1.22382 12.3963L0.705892 6.94172C0.619571 6.18647 0.619571 5.17948 1.31014 4.34032C2.00071 3.66899 3.03656 3.33332 4.50402 3.33332H11.496C13.0498 3.33332 14.0857 3.66899 14.6899 4.34032C15.3805 5.09556 15.3805 6.18647 15.2941 6.94172L14.7762 12.3963C14.6899 13.8228 14.0857 15.3333 10.8918 15.3333ZM4.50402 4.34032C3.29552 4.34032 2.51863 4.59206 2.08703 5.01165C1.74174 5.34731 1.65542 5.93472 1.74174 6.77388L2.25967 12.2284C2.34599 13.3193 2.69128 14.2424 5.19459 14.2424H10.8055C13.3088 14.2424 13.654 13.3193 13.7404 12.2284L14.2583 6.77388C14.3446 5.93472 14.2583 5.34731 13.913 5.01165C13.4814 4.59206 12.7045 4.34032 11.496 4.34032H4.50402Z" fill="currentColor"/>
<path d="M10.8139 3.92592C10.5541 3.92592 10.2944 3.70369 10.2944 3.48147V3.03703C10.2944 1.99999 10.2944 1.55555 8.56279 1.55555H7.43725C5.70565 1.55555 5.70565 1.92592 5.70565 3.03703V3.55555C5.70565 3.77777 5.44591 3.99999 5.18617 3.99999C4.92643 3.99999 4.66669 3.77777 4.66669 3.55555V3.03703C4.66669 1.99999 4.66669 0.666656 7.43725 0.666656H8.56279C11.3334 0.666656 11.3334 1.99999 11.3334 3.03703V3.55555C11.3334 3.70369 11.0736 3.92592 10.8139 3.92592Z" fill="currentColor"/>
<path d="M8.78559 11.0893H7.31521C7.18735 11.0893 7.05949 11.0893 6.93163 10.9615C6.80377 10.8336 6.8677 10.7697 6.8677 10.6418V10.3861C6.16448 9.93858 5.7809 9.17142 5.7809 8.40427C5.7809 7.70104 6.10055 7.06175 6.61198 6.61424C7.12342 6.16673 7.89058 6.03887 8.5938 6.16673C9.2331 6.29459 9.80847 6.7421 10.1281 7.38139C10.7035 8.53213 10.1281 9.81072 9.2331 10.3861V10.5779C9.2331 10.6418 9.2331 10.7697 9.10524 10.8975C9.04131 11.0893 8.91345 11.0893 8.78559 11.0893ZM7.25128 10.7057H8.84952V10.3861C8.84952 10.3222 8.91345 10.2582 8.97738 10.1943C9.74454 9.74679 10.3199 8.59606 9.80847 7.63711C9.55275 7.12567 9.10524 6.80603 8.52987 6.67817C7.95451 6.55031 7.37914 6.67817 6.93163 7.06175C6.35626 7.38139 6.10055 7.89283 6.10055 8.4682C6.10055 9.23535 6.61198 9.87465 7.12342 10.1304C7.18735 10.1943 7.25128 10.2582 7.25128 10.3222V10.7057Z" fill="currentColor"/>
<path d="M8.78557 11.2811H7.31519C7.18733 11.2811 6.99554 11.2811 6.80375 11.0893C6.6759 10.9615 6.67589 10.7697 6.67589 10.6418V10.514C5.97267 10.0025 5.58909 9.23536 5.58909 8.4682C5.58909 7.70105 5.90874 6.99782 6.48411 6.55031C7.05947 6.1028 7.82663 5.91102 8.59378 6.03888C9.29701 6.16673 9.93631 6.67817 10.256 7.31747C10.8953 8.53213 10.256 9.87465 9.42487 10.514V10.6418C9.42487 10.7057 9.42487 10.8975 9.29701 11.0893C9.10522 11.2172 8.97736 11.2811 8.78557 11.2811ZM8.01842 6.35852C7.50698 6.35852 7.05947 6.55031 6.67589 6.80603C6.16446 7.18961 5.84481 7.82891 5.84481 8.4682C5.84481 9.17143 6.29232 9.87465 6.86768 10.3222L6.93161 10.3861V10.7057C6.93161 10.7697 6.93161 10.8336 6.99554 10.8975C7.05947 10.9615 7.18733 10.9615 7.25126 10.9615H8.72164C8.8495 10.9615 8.91343 10.9615 8.97736 10.8975C9.04129 10.8336 9.04129 10.7697 9.04129 10.7057V10.3861L9.10522 10.3222C9.93631 9.81072 10.4477 8.59606 9.93631 7.50926C9.68059 6.93389 9.10522 6.55031 8.52985 6.42245C8.33807 6.35852 8.21021 6.35852 8.01842 6.35852ZM8.78557 10.8336H7.1234V10.3222C6.54804 9.93858 6.0366 9.23536 6.0366 8.4682C6.0366 7.82891 6.29232 7.25354 6.80375 6.86996C7.31519 6.48638 7.95449 6.35852 8.59378 6.48638C9.16915 6.61424 9.68059 6.99782 10.0002 7.57319C10.5117 8.65999 10.0002 9.81072 9.10522 10.3222V10.8336L8.97736 10.8975C8.8495 10.8336 8.78557 10.8336 8.78557 10.8336ZM7.37912 10.514H8.65771V10.3222C8.65771 10.1943 8.72164 10.0664 8.8495 10.0025C9.55273 9.55501 10.0642 8.53213 9.61666 7.63712C9.42487 7.18961 8.97736 6.86996 8.46592 6.7421C7.95449 6.61424 7.37912 6.7421 6.99554 7.06175C6.61196 7.3814 6.35625 7.89283 6.35625 8.40427C6.35625 9.1075 6.80375 9.68286 7.31519 9.93858C7.44305 10.0025 7.50698 10.1304 7.50698 10.2582V10.514H7.37912Z" fill="currentColor"/>
<path d="M8.97737 12.5434C8.91344 12.5434 8.91344 12.5434 8.97737 12.5434C8.33807 12.3516 7.7627 12.3516 7.18734 12.5434C7.05948 12.5434 6.99555 12.4795 6.93162 12.4155C6.86769 12.2877 6.99555 12.2238 7.05948 12.1598C7.69878 11.968 8.402 11.968 9.0413 12.1598C9.16916 12.1598 9.23309 12.2877 9.16916 12.4155C9.10523 12.4795 9.0413 12.5434 8.97737 12.5434Z" fill="currentColor"/>
<path d="M8.97734 12.6713C8.91341 12.6713 8.91341 12.6713 8.84948 12.6713C8.33805 12.5434 7.69875 12.5434 7.18731 12.6713C6.99552 12.7352 6.80374 12.6073 6.73981 12.4155C6.73981 12.3516 6.73981 12.2238 6.73981 12.1598C6.80374 12.0959 6.86767 12.032 6.93159 11.968C7.63482 11.7763 8.33805 11.7763 8.97734 11.968C9.04127 11.968 9.16913 12.032 9.16913 12.1598C9.29699 12.2238 9.29699 12.3516 9.29699 12.4155C9.23306 12.6073 9.1052 12.6713 8.97734 12.6713ZM8.0184 12.2238C8.33805 12.2238 8.65769 12.2877 8.91341 12.3516C8.91341 12.3516 8.91341 12.3516 8.97734 12.3516V12.2877C8.33805 12.0959 7.69875 12.0959 7.05945 12.2877C7.05945 12.2877 6.99552 12.2877 7.05945 12.3516C7.05945 12.3516 7.05945 12.4155 7.12338 12.3516C7.3791 12.2877 7.69875 12.2238 8.0184 12.2238Z" fill="currentColor"/>
</g>
<defs>
<clipPath id="clip0_303_49">
<rect width="16" height="16" fill="currentColor"/>
</clipPath>
</defs>
</svg>
