<svg width="16" height="16" viewBox="0 0 16 16" fill="none" xmlns="http://www.w3.org/2000/svg">
<path d="M10.2 15.2H5.80002C3.26668 15.2 2.80002 14 2.73335 12.8667L2.33335 8.53332C2.26668 7.93332 2.26668 7.13332 2.80002 6.46665C3.33335 5.93332 4.13335 5.66665 5.26668 5.66665H10.6667C11.8667 5.66665 12.6667 5.93332 13.1334 6.46665C13.6667 7.06665 13.6667 7.93332 13.6 8.53332L13.2 12.8667C13.1333 14 12.6667 15.2 10.2 15.2ZM5.26668 6.46665C4.33335 6.46665 3.73335 6.66665 3.40002 6.99999C3.13335 7.26665 3.06668 7.73332 3.13335 8.39999L3.53335 12.7333C3.60002 13.6 3.86668 14.3333 5.80002 14.3333H10.1333C12.0667 14.3333 12.3333 13.6 12.4 12.7333L12.8 8.39999C12.8667 7.73332 12.8 7.26665 12.5333 6.99999C12.2 6.66665 11.6 6.46665 10.6667 6.46665H5.26668Z" fill="currentColor"/>
<path d="M10.2 6.46665C10 6.46665 9.80002 6.26665 9.80002 6.06665V5.66665C9.80002 4.73332 9.80002 4.33332 8.46668 4.33332H7.60002C6.26668 4.33332 6.26668 4.66665 6.26668 5.66665V6.13332C6.26668 6.33332 6.06668 6.53332 5.86668 6.53332C5.66668 6.53332 5.46668 6.33332 5.46668 6.13332V5.66665C5.46668 4.73332 5.46668 3.53332 7.60002 3.53332H8.46668C10.6 3.53332 10.6 4.73332 10.6 5.66665V6.13332C10.6 6.26665 10.4 6.46665 10.2 6.46665Z" fill="currentColor"/>
<path d="M8.00002 11.9333C6.53335 11.9333 6.53335 11 6.53335 10.4667V9.93332C6.53335 9.19999 6.73335 8.99999 7.46668 8.99999H8.53335C9.26668 8.99999 9.46668 9.19999 9.46668 9.93332V10.4667C9.46668 11 9.46668 11.9333 8.00002 11.9333ZM7.33335 9.73332C7.33335 9.79999 7.33335 9.79999 7.33335 9.86665V10.4C7.33335 10.9333 7.33335 11.0667 8.00002 11.0667C8.66668 11.0667 8.66668 11 8.66668 10.4V9.86665C8.66668 9.79999 8.66668 9.79999 8.66668 9.73332C8.60002 9.73332 8.60002 9.73332 8.53335 9.73332H7.46668C7.40002 9.73332 7.33335 9.73332 7.33335 9.73332Z" fill="currentColor"/>
<path d="M9.06668 10.8667C8.86668 10.8667 8.66668 10.7333 8.66668 10.5333C8.66668 10.3333 8.80002 10.1333 9.00002 10.0667C10.4 9.86665 11.8 9.33332 12.9333 8.53332C13.1334 8.39999 13.4 8.46665 13.5333 8.59999C13.6667 8.79999 13.6 9.06665 13.4667 9.19999C12.2 10.0667 10.7334 10.6667 9.06668 10.8667C9.13335 10.8667 9.13335 10.8667 9.06668 10.8667Z" fill="currentColor"/>
<path d="M6.93335 10.8667C6.86668 10.8667 6.86668 10.8667 6.93335 10.8667C5.40002 10.6667 3.93335 10.1333 2.66668 9.26665C2.46668 9.13332 2.46668 8.86665 2.53335 8.73332C2.66668 8.53332 2.93335 8.46665 3.06668 8.59999C4.20002 9.39999 5.53335 9.86665 6.86668 9.99999C7.06668 9.99999 7.26668 10.2 7.20002 10.4667C7.26668 10.6667 7.13335 10.8667 6.93335 10.8667Z" fill="currentColor"/>
<path d="M8.00002 2.53332C7.73335 2.53332 7.46668 2.33332 7.46668 1.99999V1.33332C7.46668 1.06665 7.66668 0.799988 8.00002 0.799988C8.33335 0.799988 8.53335 0.999988 8.53335 1.33332V1.99999C8.53335 2.26665 8.26668 2.53332 8.00002 2.53332Z" fill="currentColor"/>
<path d="M3.33335 3.79999C3.20002 3.79999 3.06668 3.73332 3.00002 3.66665L2.33335 2.99999C2.13335 2.79999 2.13335 2.46665 2.33335 2.26665C2.53335 2.06665 2.86668 2.06665 3.06668 2.26665L3.73335 2.93332C3.93335 3.13332 3.93335 3.46665 3.73335 3.66665C3.60002 3.79999 3.46668 3.79999 3.33335 3.79999Z" fill="currentColor"/>
<path d="M12.6667 3.79999C12.5333 3.79999 12.4 3.73332 12.3333 3.66665C12.1333 3.46665 12.1333 3.13332 12.3333 2.93332L13 2.26665C13.2 2.06665 13.5334 2.06665 13.7334 2.26665C13.9334 2.46665 13.9334 2.79999 13.7334 2.99999L13.0667 3.66665C12.9334 3.79999 12.8 3.79999 12.6667 3.79999Z" fill="currentColor"/>
</svg>
