<svg width="16" height="16" viewBox="0 0 16 16" fill="none" xmlns="http://www.w3.org/2000/svg">
<path d="M13.2667 6.40001C12.7333 5.86668 11.9333 5.60001 10.7333 5.60001H10.6667C10.6667 4.66668 10.6 3.40001 8.46667 3.40001H7.6C5.4 3.40001 5.33334 4.66668 5.33334 5.60001H5.26667C4.06667 5.60001 3.26667 5.86668 2.73334 6.40001C2.13334 7.06668 2.13334 7.93335 2.2 8.53335L2.66667 12.8667C2.8 14 3.26667 15.2667 5.86667 15.2667H10.2C12.8 15.2667 13.2667 14.0667 13.4 12.8667L13.8 8.53335C13.8 7.93335 13.8 7.06668 13.2667 6.40001ZM6.33334 5.60001C6.33334 4.66668 6.33334 4.40001 7.6 4.40001H8.46667C9.66667 4.40001 9.73334 4.66668 9.73334 5.60001H6.33334ZM10.7333 6.53335C11.6 6.53335 12.2667 6.73335 12.5333 7.06668C12.8 7.33335 12.8667 7.80001 12.8 8.40001L12.4 12.7333C12.3333 13.6 12.0667 14.2667 10.2 14.2667H5.8C3.93334 14.2667 3.66667 13.6 3.6 12.8L3.2 8.46668C3.13334 7.80001 3.2 7.40001 3.46667 7.13335C3.8 6.80001 4.4 6.60001 5.26667 6.60001L10.7333 6.53335Z" fill="currentColor"/>
<path d="M8.00001 2.53335C7.73334 2.53335 7.46667 2.33335 7.46667 2.00002V1.33335C7.46667 1.06668 7.66668 0.800018 8.00001 0.800018C8.33334 0.800018 8.53334 1.00002 8.53334 1.33335V2.00002C8.53334 2.26669 8.26667 2.53335 8.00001 2.53335Z" fill="currentColor"/>
<path d="M3.33333 3.8C3.2 3.8 3.06666 3.73334 3 3.66667L2.33333 3C2.13333 2.8 2.13333 2.46667 2.33333 2.26667C2.53333 2.06667 2.86666 2.06667 3.06666 2.26667L3.73333 2.93334C3.93333 3.13334 3.93333 3.46667 3.73333 3.66667C3.6 3.8 3.46666 3.8 3.33333 3.8Z" fill="currentColor"/>
<path d="M12.6667 3.8C12.5333 3.8 12.4 3.73334 12.3333 3.66667C12.1333 3.46667 12.1333 3.13334 12.3333 2.93334L13 2.26667C13.2 2.06667 13.5333 2.06667 13.7333 2.26667C13.9333 2.46667 13.9333 2.8 13.7333 3L13.0667 3.66667C12.9333 3.8 12.8 3.8 12.6667 3.8Z" fill="currentColor"/>
<path d="M7.4 11.9333C7.26667 11.9333 7.13333 11.8667 7.06667 11.8L6.06667 10.8C5.86667 10.6 5.86667 10.2667 6.06667 10.0667C6.26667 9.86668 6.6 9.86668 6.8 10.0667L7.46667 10.7333L9.26667 9.06668C9.46667 8.86668 9.8 8.86668 10 9.06668C10.2 9.26668 10.2 9.60001 10 9.80001L7.86667 11.8C7.66667 11.8667 7.53333 11.9333 7.4 11.9333Z" fill="currentColor"/>
</svg>
