<svg width="16" height="16" viewBox="0 0 16 16" fill="none" xmlns="http://www.w3.org/2000/svg">
<g clip-path="url(#clip0_2_4693)">
<path d="M10.6668 15.1667H5.33351C2.25351 15.1667 1.68017 13.7333 1.53351 12.34L1.03351 7.00001C0.960172 6.30002 0.940172 5.26668 1.63351 4.49335C2.23351 3.82668 3.22684 3.50668 4.66684 3.50668H11.3335C12.7802 3.50668 13.7735 3.83335 14.3668 4.49335C15.0602 5.26668 15.0402 6.30002 14.9668 7.00668L14.4668 12.3333C14.3202 13.7333 13.7468 15.1667 10.6668 15.1667ZM4.66684 4.50002C3.54017 4.50002 2.76684 4.72002 2.37351 5.16002C2.04684 5.52002 1.94017 6.07335 2.02684 6.90001L2.52684 12.24C2.64017 13.2933 2.92684 14.1667 5.33351 14.1667H10.6668C13.0668 14.1667 13.3602 13.2933 13.4735 12.2333L13.9735 6.90668C14.0602 6.07335 13.9535 5.52002 13.6268 5.16002C13.2335 4.72002 12.4602 4.50002 11.3335 4.50002H4.66684Z" fill="currentColor"/>
<path d="M10.6667 4.50001C10.3934 4.50001 10.1667 4.27334 10.1667 4.00001V3.46668C10.1667 2.28001 10.1667 1.83334 8.53335 1.83334H7.46669C5.83335 1.83334 5.83335 2.28001 5.83335 3.46668V4.00001C5.83335 4.27334 5.60669 4.50001 5.33335 4.50001C5.06002 4.50001 4.83335 4.27334 4.83335 4.00001V3.46668C4.83335 2.29334 4.83335 0.833344 7.46669 0.833344H8.53335C11.1667 0.833344 11.1667 2.29334 11.1667 3.46668V4.00001C11.1667 4.27334 10.94 4.50001 10.6667 4.50001Z" fill="currentColor"/>
<path d="M8.00002 11.1667C6.16669 11.1667 6.16669 10.0333 6.16669 9.35334V8.66668C6.16669 7.72668 6.39335 7.50001 7.33335 7.50001H8.66669C9.60669 7.50001 9.83335 7.72668 9.83335 8.66668V9.33334C9.83335 10.0267 9.83335 11.1667 8.00002 11.1667ZM7.16669 8.50001C7.16669 8.55334 7.16669 8.61334 7.16669 8.66668V9.35334C7.16669 10.04 7.16669 10.1667 8.00002 10.1667C8.83335 10.1667 8.83335 10.06 8.83335 9.34668V8.66668C8.83335 8.61334 8.83335 8.55334 8.83335 8.50001C8.78002 8.50001 8.72002 8.50001 8.66669 8.50001H7.33335C7.28002 8.50001 7.22002 8.50001 7.16669 8.50001Z" fill="currentColor"/>
<path d="M9.33302 9.84668C9.08635 9.84668 8.86635 9.66001 8.83968 9.40668C8.80635 9.13334 8.99969 8.88001 9.27302 8.84668C11.033 8.62668 12.7197 7.96001 14.1397 6.92668C14.3597 6.76001 14.673 6.81334 14.8397 7.04001C14.9997 7.26001 14.953 7.57334 14.7264 7.74001C13.1664 8.87334 11.3264 9.60001 9.39302 9.84668C9.37302 9.84668 9.35302 9.84668 9.33302 9.84668Z" fill="currentColor"/>
<path d="M6.66715 9.85328C6.64717 9.85328 6.62717 9.85328 6.60717 9.85328C4.7805 9.64661 3.0005 8.97994 1.4605 7.92661C1.23383 7.77328 1.17383 7.45994 1.32717 7.23328C1.4805 7.00661 1.79383 6.94661 2.0205 7.09994C3.42717 8.05994 5.04717 8.66661 6.71382 8.85994C6.98715 8.89328 7.18715 9.13994 7.15382 9.41328C7.13382 9.66661 6.92049 9.85328 6.66715 9.85328Z" fill="currentColor"/>
</g>
<defs>
<clipPath id="clip0_2_4693">
<rect width="16" height="16" fill="currentColor"/>
</clipPath>
</defs>
</svg>
