<svg width="16" height="16" viewBox="0 0 16 16" fill="none" xmlns="http://www.w3.org/2000/svg">
<g clip-path="url(#clip0_2_5349)">
<path d="M8.00002 12.6333C6.25335 12.6333 4.83335 11.2133 4.83335 9.46668C4.83335 7.72001 6.25335 6.29998 8.00002 6.29998C9.74669 6.29998 11.1667 7.72001 11.1667 9.46668C11.1667 11.2133 9.74669 12.6333 8.00002 12.6333ZM8.00002 7.30001C6.80669 7.30001 5.83335 8.27334 5.83335 9.46668C5.83335 10.66 6.80669 11.6333 8.00002 11.6333C9.19335 11.6333 10.1667 10.66 10.1667 9.46668C10.1667 8.27334 9.19335 7.30001 8.00002 7.30001Z" fill="currentColor"/>
<path d="M7.33329 10.6333C7.16662 10.6333 6.99995 10.5467 6.90662 10.3933C6.76662 10.1533 6.83995 9.84668 7.07995 9.70668L7.58662 9.40001C7.63995 9.37334 7.66662 9.31334 7.66662 9.26001V8.64001C7.66662 8.36668 7.89329 8.14001 8.16662 8.14001C8.43995 8.14001 8.66662 8.36001 8.66662 8.63334V9.25334C8.66662 9.66001 8.44662 10.0467 8.09995 10.2533L7.59329 10.56C7.51329 10.6133 7.41995 10.6333 7.33329 10.6333Z" fill="currentColor"/>
<path d="M10.6668 15.1667H5.33351C2.25351 15.1667 1.68017 13.7333 1.53351 12.34L1.03351 7.00001C0.960172 6.30002 0.940172 5.26668 1.63351 4.49335C2.23351 3.82668 3.22684 3.50668 4.66684 3.50668H11.3335C12.7802 3.50668 13.7735 3.83335 14.3668 4.49335C15.0602 5.26668 15.0402 6.30002 14.9668 7.00668L14.4668 12.3333C14.3202 13.7333 13.7468 15.1667 10.6668 15.1667ZM4.66684 4.50002C3.54017 4.50002 2.76684 4.72002 2.37351 5.16002C2.04684 5.52002 1.94017 6.07335 2.02684 6.90001L2.52684 12.24C2.64017 13.2933 2.92684 14.1667 5.33351 14.1667H10.6668C13.0668 14.1667 13.3602 13.2933 13.4735 12.2333L13.9735 6.90668C14.0602 6.07335 13.9535 5.52002 13.6268 5.16002C13.2335 4.72002 12.4602 4.50002 11.3335 4.50002H4.66684Z" fill="currentColor"/>
<path d="M10.6667 4.50001C10.3934 4.50001 10.1667 4.27334 10.1667 4.00001V3.46668C10.1667 2.28001 10.1667 1.83334 8.53335 1.83334H7.46669C5.83335 1.83334 5.83335 2.28001 5.83335 3.46668V4.00001C5.83335 4.27334 5.60669 4.50001 5.33335 4.50001C5.06002 4.50001 4.83335 4.27334 4.83335 4.00001V3.46668C4.83335 2.29334 4.83335 0.833344 7.46669 0.833344H8.53335C11.1667 0.833344 11.1667 2.29334 11.1667 3.46668V4.00001C11.1667 4.27334 10.94 4.50001 10.6667 4.50001Z" fill="currentColor"/>
<path d="M10.6737 9.59341C10.447 9.59341 10.247 9.44008 10.187 9.21341C10.1204 8.94674 10.2804 8.67341 10.547 8.60674C11.847 8.28008 13.0537 7.71341 14.1337 6.92674C14.3537 6.76674 14.667 6.81341 14.8337 7.04008C14.9937 7.26008 14.947 7.57341 14.7204 7.74008C13.5337 8.60008 12.2137 9.22008 10.787 9.58008C10.7537 9.58674 10.7137 9.59341 10.6737 9.59341Z" fill="currentColor"/>
<path d="M5.33383 9.61328C5.29383 9.61328 5.25383 9.60661 5.21383 9.59994C3.87383 9.27328 2.61383 8.70661 1.4605 7.91994C1.23383 7.76661 1.17383 7.45328 1.32717 7.22661C1.4805 6.99994 1.79383 6.93994 2.0205 7.09328C3.07383 7.81328 4.2205 8.32661 5.44717 8.62661C5.71383 8.69328 5.8805 8.95994 5.81383 9.23328C5.76717 9.45994 5.5605 9.61328 5.33383 9.61328Z" fill="currentColor"/>
</g>
<defs>
<clipPath id="clip0_2_5349">
<rect width="16" height="16" fill="currentColor"/>
</clipPath>
</defs>
</svg>
