<svg width="16" height="16" viewBox="0 0 16 16" fill="none" xmlns="http://www.w3.org/2000/svg">
<path d="M4.29987 5.66673C4.25987 5.66673 4.21987 5.66005 4.17987 5.65338C4.05321 5.62005 3.93987 5.54008 3.8732 5.42674L2.83321 3.72008C2.57987 3.30674 2.49987 2.8134 2.61987 2.3334C2.7332 1.86006 3.02653 1.45339 3.44653 1.20006C3.85987 0.946724 4.35321 0.866717 4.83321 0.986717C5.31321 1.10005 5.7132 1.39338 5.96653 1.81338L7.00655 3.52008C7.15322 3.75342 7.07322 4.06006 6.83989 4.20673L4.55987 5.59341C4.47987 5.64008 4.3932 5.66673 4.29987 5.66673ZM4.3932 1.93342C4.23987 1.93342 4.0932 1.97341 3.96653 2.05341C3.77987 2.16674 3.64654 2.35338 3.59321 2.56672C3.53987 2.78672 3.5732 3.00672 3.68653 3.19338L4.46653 4.47341L5.8932 3.60671L5.1132 2.32672C4.99987 2.14006 4.8132 2.00672 4.59987 1.95339C4.52653 1.94006 4.45987 1.93342 4.3932 1.93342Z" fill="currentColor"/>
<path d="M7.61295 15.0733C7.41295 15.0733 7.21295 15.0467 7.01962 14.9867C6.43293 14.8133 5.95959 14.4134 5.68626 13.8467L4.31959 11.0601C3.59293 9.58008 4.10627 7.82008 5.51293 6.96008L7.61962 5.68006C9.02629 4.82006 10.833 5.17338 11.813 6.50005L13.6596 8.99334C14.033 9.50001 14.173 10.1067 14.0596 10.7C13.9463 11.2933 13.5863 11.8067 13.0463 12.1334L8.75962 14.74C8.39962 14.96 8.00629 15.0733 7.61295 15.0733ZM9.26629 6.21338C8.87962 6.21338 8.49295 6.32004 8.13295 6.53337L6.02625 7.81334C5.05959 8.40001 4.71293 9.60668 5.20626 10.62L6.57293 13.4067C6.72629 13.7133 6.97962 13.9333 7.29295 14.0267C7.60629 14.12 7.93962 14.0667 8.22629 13.8934L12.513 11.2867C12.8063 11.1067 12.9996 10.8334 13.0663 10.5134C13.1263 10.1934 13.053 9.86674 12.8463 9.59341L10.9996 7.10008C10.5796 6.52006 9.93295 6.21338 9.26629 6.21338Z" fill="currentColor"/>
<path d="M5.12029 8.28661C5.08029 8.28661 5.0403 8.27994 5.0003 8.27328C4.87363 8.23994 4.76029 8.15994 4.69363 8.04661L3.30697 5.76664C3.16031 5.53331 3.24031 5.22663 3.47364 5.07996L6.88695 2.99996C7.12029 2.85996 7.43362 2.9333 7.57362 3.16663L8.96029 5.44662C9.02695 5.55995 9.05362 5.69329 9.02029 5.82662C8.98695 5.95329 8.90695 6.06664 8.79362 6.1333L5.38031 8.21328C5.30031 8.26661 5.20696 8.28661 5.12029 8.28661ZM4.4203 5.67998L5.28696 7.10661L7.84695 5.54664L6.98029 4.11996L4.4203 5.67998Z" fill="currentColor"/>
<path d="M10.6396 13.5133C10.473 13.5133 10.3063 13.4265 10.213 13.2732L9.11295 11.4666C8.96629 11.2333 9.04629 10.9266 9.27962 10.7799C9.51295 10.6399 9.82629 10.7133 9.96629 10.9466L11.0663 12.7533C11.213 12.9866 11.133 13.2932 10.8996 13.4399C10.8196 13.4865 10.7263 13.5133 10.6396 13.5133Z" fill="currentColor"/>
<path d="M8.93389 14.5533C8.76722 14.5533 8.60055 14.4666 8.50722 14.3133L7.40722 12.5066C7.26055 12.2733 7.34055 11.9666 7.57389 11.8199C7.80722 11.6799 8.12055 11.7533 8.26055 11.9866L9.36055 13.7933C9.50722 14.0266 9.42722 14.3333 9.19389 14.4799C9.11389 14.5266 9.02055 14.5533 8.93389 14.5533Z" fill="currentColor"/>
<path d="M12.3467 12.4734C12.18 12.4734 12.0134 12.3867 11.92 12.2333L10.82 10.4267C10.6734 10.1934 10.7534 9.88668 10.9867 9.74001C11.22 9.60001 11.5334 9.67334 11.6734 9.90668L12.7734 11.7134C12.92 11.9467 12.84 12.2533 12.6067 12.4C12.5267 12.4467 12.44 12.4734 12.3467 12.4734Z" fill="currentColor"/>
</svg>
