<svg width="16" height="16" viewBox="0 0 16 16" fill="none" xmlns="http://www.w3.org/2000/svg">
<path d="M6.66669 11.1667C6.39335 11.1667 6.16669 10.94 6.16669 10.6667C6.16669 9.55334 6.16669 8.16668 8.66669 8.16668H11.3334C12.8334 8.16668 12.8334 7.96668 12.8334 6.66668V5.33334C12.8334 4.03334 12.8334 3.83334 11.3334 3.83334H10.6667C10.3934 3.83334 10.1667 3.60668 10.1667 3.33334C10.1667 3.06001 10.3934 2.83334 10.6667 2.83334H11.3334C13.6667 2.83334 13.8334 3.78001 13.8334 5.33334V6.66668C13.8334 8.22001 13.6667 9.16668 11.3334 9.16668H8.66669C7.16669 9.16668 7.16669 9.57334 7.16669 10.6667C7.16669 10.94 6.94002 11.1667 6.66669 11.1667Z" fill="currentColor"/>
<path d="M8.00062 5.83334H5.33398C5.12065 5.83334 4.92731 5.69334 4.86065 5.49334C4.40065 4.10001 4.40065 2.56668 4.86065 1.18001C4.92731 0.973343 5.12065 0.833344 5.33398 0.833344H8.00062C8.21395 0.833344 8.40729 0.973343 8.47395 1.17334C8.94062 2.56668 8.94062 4.10001 8.47395 5.48668C8.40729 5.69334 8.22062 5.83334 8.00062 5.83334ZM5.70731 4.83334H7.63395C7.89395 3.85334 7.89395 2.81334 7.63395 1.83334H5.70731C5.44731 2.81334 5.44731 3.85334 5.70731 4.83334Z" fill="currentColor"/>
<path d="M5.33398 5.83334H4.66669C3.05335 5.83334 2.16669 4.94668 2.16669 3.33334C2.16669 1.72001 3.05335 0.833344 4.66669 0.833344H5.33398C5.50731 0.833344 5.66669 0.92001 5.76002 1.07334C5.85335 1.22001 5.86002 1.40668 5.78002 1.56001C5.18002 2.75334 5.18002 3.92001 5.78002 5.11334C5.86002 5.26668 5.84669 5.45334 5.76002 5.60001C5.66669 5.74668 5.50731 5.83334 5.33398 5.83334ZM4.58669 1.83334C3.59335 1.86001 3.16669 2.30668 3.16669 3.33334C3.16669 4.35334 3.59335 4.80668 4.58002 4.83334C4.24669 3.83334 4.24669 2.83334 4.58669 1.83334Z" fill="currentColor"/>
<path d="M8.66615 5.83334H8.00062C7.82729 5.83334 7.66615 5.74668 7.57282 5.59334C7.47949 5.44668 7.47282 5.26001 7.55282 5.10668C8.14615 3.91334 8.14615 2.74668 7.55282 1.55334C7.47282 1.40001 7.48615 1.21334 7.57282 1.06668C7.66615 0.92001 7.82729 0.833344 8.00062 0.833344H8.66615C10.2795 0.833344 11.1662 1.72001 11.1662 3.33334C11.1662 4.94668 10.2795 5.83334 8.66615 5.83334ZM8.74615 1.83334C9.07949 2.83334 9.07949 3.83334 8.74615 4.83334C9.73949 4.80668 10.1595 4.36001 10.1595 3.33334C10.1662 2.30668 9.73949 1.86001 8.74615 1.83334Z" fill="currentColor"/>
<path d="M7.00002 15.1667H6.33335C5.64669 15.1667 4.83335 14.9067 4.83335 13.6667V11.6667C4.83335 10.4267 5.64669 10.1667 6.33335 10.1667H7.00002C7.68669 10.1667 8.50002 10.4267 8.50002 11.6667V13.6667C8.50002 14.9067 7.68669 15.1667 7.00002 15.1667ZM6.33335 11.1667C5.83335 11.1667 5.83335 11.3133 5.83335 11.6667V13.6667C5.83335 14.02 5.83335 14.1667 6.33335 14.1667H7.00002C7.50002 14.1667 7.50002 14.02 7.50002 13.6667V11.6667C7.50002 11.3133 7.50002 11.1667 7.00002 11.1667H6.33335Z" fill="currentColor"/>
</svg>
