<svg width="16" height="16" viewBox="0 0 16 16" fill="none" xmlns="http://www.w3.org/2000/svg">
<g clip-path="url(#clip0_2_5234)">
<path d="M9.98045 15.1667H5.98045C2.36045 15.1667 0.813782 13.62 0.813782 10V6.00001C0.813782 2.38001 2.36045 0.833344 5.98045 0.833344H7.31378C7.58712 0.833344 7.81378 1.06001 7.81378 1.33334C7.81378 1.60668 7.58712 1.83334 7.31378 1.83334H5.98045C2.90711 1.83334 1.81378 2.92668 1.81378 6.00001V10C1.81378 13.0733 2.90711 14.1667 5.98045 14.1667H9.98045C13.0538 14.1667 14.1471 13.0733 14.1471 10V8.66668C14.1471 8.39334 14.3738 8.16668 14.6471 8.16668C14.9204 8.16668 15.1471 8.39334 15.1471 8.66668V10C15.1471 13.62 13.6071 15.1667 9.98045 15.1667Z" fill="currentColor"/>
<path d="M8.51972 10.1599C8.41971 10.1599 8.32638 10.1333 8.23972 10.0733C8.09972 9.97994 8.01972 9.82661 8.01972 9.65994C8.01972 9.58661 8.01305 9.50661 7.99972 9.42661C7.95305 9.07328 7.79305 8.75994 7.52638 8.48661C7.25305 8.21328 6.91972 8.03994 6.55305 7.99328C6.49972 7.98661 6.41305 7.97994 6.33305 7.98661C6.16638 7.99994 5.99971 7.92661 5.89971 7.79328C5.79972 7.65994 5.77305 7.47994 5.82638 7.31994C5.90638 7.09328 6.03305 6.87994 6.17972 6.71328L6.99972 5.6866C8.42638 3.9066 11.2997 1.77327 13.4197 0.926603C13.9064 0.739937 14.4197 0.846604 14.773 1.19994C15.1397 1.5666 15.2464 2.0866 15.053 2.55994C14.2064 4.67327 12.073 7.55328 10.2997 8.97328L9.25305 9.81328C9.04638 9.95994 8.87971 10.0599 8.70638 10.1266C8.64638 10.1466 8.57972 10.1599 8.51972 10.1599ZM7.14638 7.11328C7.55305 7.24661 7.91971 7.47328 8.23305 7.77994C8.53971 8.08661 8.75972 8.43994 8.88638 8.81994L9.67305 8.18661C11.333 6.85328 13.333 4.15994 14.1264 2.17994C14.1797 2.05327 14.1197 1.95994 14.0664 1.89994C14.033 1.8666 13.9397 1.79327 13.7864 1.85327C11.813 2.6466 9.11971 4.6466 7.78638 6.3066L7.14638 7.11328Z" fill="currentColor"/>
<path d="M5.13396 12.5001C4.7073 12.5001 4.30063 12.3335 3.99396 12.0268C3.64063 11.6735 3.4673 11.1868 3.5273 10.6868L3.6673 9.38014C3.81396 8.02681 4.91396 7.02681 6.29396 7.00014C6.40063 6.99348 6.53396 7.00014 6.66063 7.00681C7.26731 7.08681 7.80731 7.35348 8.23398 7.78681C8.66065 8.21348 8.92065 8.72014 8.99398 9.29348C9.01398 9.42014 9.02065 9.54681 9.02065 9.66681C9.02065 10.3935 8.74065 11.0801 8.22731 11.5935C7.80731 12.0135 7.26065 12.2735 6.64063 12.3535L5.32063 12.4935C5.25396 12.5001 5.19396 12.5001 5.13396 12.5001ZM6.40063 7.99348C6.38063 7.99348 6.35396 7.99348 6.33396 7.99348C5.5673 8.01348 4.76063 8.52681 4.66063 9.48681L4.52063 10.8001C4.50063 10.9935 4.5673 11.1868 4.70063 11.3201C4.83396 11.4535 5.02063 11.5201 5.2073 11.5001L6.52063 11.3601C6.90731 11.3135 7.25398 11.1468 7.51398 10.8868C7.83398 10.5601 8.01398 10.1335 8.01398 9.66681C8.01398 9.59348 8.00732 9.51348 7.99398 9.43348C7.94732 9.08014 7.78732 8.76681 7.52065 8.49348C7.24732 8.22014 6.91398 8.04681 6.54729 8.00014C6.51396 7.99348 6.46063 7.99348 6.40063 7.99348Z" fill="currentColor"/>
<path d="M10.5462 8.48661C10.2728 8.48661 10.0462 8.25994 10.0462 7.98661C10.0462 6.87328 9.13951 5.95997 8.01952 5.95997C7.74618 5.95997 7.51952 5.7333 7.51952 5.45997C7.51952 5.18664 7.74618 4.95997 8.01952 4.95997C9.68618 4.95997 11.0462 6.3133 11.0462 7.98661C11.0462 8.25994 10.8262 8.48661 10.5462 8.48661Z" fill="currentColor"/>
</g>
<defs>
<clipPath id="clip0_2_5234">
<rect width="16" height="16" fill="currentColor"/>
</clipPath>
</defs>
</svg>
