<svg width="16" height="16" viewBox="0 0 16 16" fill="none" xmlns="http://www.w3.org/2000/svg">
<path d="M13.3333 6.04668H2.66667C2.39334 6.04668 2.16667 5.82002 2.16667 5.54668V2.66668C2.16667 1.65334 2.98667 0.833344 4 0.833344H12C13.0133 0.833344 13.8333 1.65334 13.8333 2.66668V5.54668C13.8333 5.82002 13.6067 6.04668 13.3333 6.04668ZM3.16667 5.04668H12.8333V2.66668C12.8333 2.20668 12.46 1.83334 12 1.83334H4C3.54 1.83334 3.16667 2.20668 3.16667 2.66668V5.04668Z" fill="currentColor"/>
<path d="M8.33347 15.1667H7.6668C6.6535 15.1667 5.8335 14.3467 5.8335 13.3334V11.9334C5.8335 11.6334 5.67349 11.3534 5.40682 11.2067L3.43352 10.0934C2.64685 9.65341 2.16016 8.82008 2.16016 7.91341V5.54005C2.16016 5.26672 2.38682 5.04005 2.66016 5.04005H13.3268C13.6001 5.04005 13.8268 5.26672 13.8268 5.54005V7.91341C13.8268 8.81341 13.3402 9.64674 12.5535 10.0934L10.5801 11.2067C10.3201 11.3534 10.1535 11.6334 10.1535 11.9334V13.3334C10.1668 14.3467 9.3468 15.1667 8.33347 15.1667ZM3.16683 6.04672V7.92008C3.16683 8.46008 3.46018 8.96008 3.92684 9.22674L5.90015 10.3401C6.47348 10.6667 6.83347 11.2734 6.83347 11.9334V13.3334C6.83347 13.7934 7.2068 14.1667 7.6668 14.1667H8.33347C8.79347 14.1667 9.1668 13.7934 9.1668 13.3334V11.9334C9.1668 11.2734 9.52687 10.6601 10.1002 10.3401L12.0735 9.22674C12.5468 8.96008 12.8335 8.46008 12.8335 7.92008V6.04672H3.16683Z" fill="currentColor"/>
</svg>
