<svg width="16" height="16" viewBox="0 0 16 16" fill="none" xmlns="http://www.w3.org/2000/svg">
<path d="M8.00002 15.1667C6.80669 15.1667 5.83335 14.1933 5.83335 13V12.5H3.00002C2.50669 12.5 2.04669 12.3067 1.70002 11.9533C1.36002 11.62 1.16669 11.16 1.16669 10.6667C1.16669 9.73334 1.89335 8.93334 2.82669 8.84001C2.86002 8.83334 2.92669 8.83334 3.00002 8.83334H13C13.0734 8.83334 13.14 8.83334 13.2067 8.84668C13.6 8.88001 13.9934 9.06668 14.3 9.38001C14.68 9.74668 14.8734 10.28 14.8267 10.8267C14.7467 11.7667 13.9134 12.5 12.9267 12.5H10.1667V13C10.1667 14.1933 9.19335 15.1667 8.00002 15.1667ZM3.00002 9.83334C2.98669 9.83334 2.93335 9.83334 2.92002 9.84001C2.50002 9.88001 2.16669 10.2467 2.16669 10.6667C2.16669 10.8867 2.25335 11.0933 2.40669 11.2467C2.56669 11.4133 2.77335 11.5 3.00002 11.5H6.33335C6.60669 11.5 6.83335 11.7267 6.83335 12V13C6.83335 13.64 7.36002 14.1667 8.00002 14.1667C8.64002 14.1667 9.16669 13.64 9.16669 13V12C9.16669 11.7267 9.39335 11.5 9.66669 11.5H12.9267C13.3867 11.5 13.7934 11.16 13.8334 10.74C13.8534 10.4867 13.7667 10.2533 13.5934 10.08C13.4467 9.93334 13.2734 9.84668 13.0867 9.83334L13 9.82668H3.00002V9.83334Z" fill="currentColor"/>
<path d="M13.1264 9.84001C13.0998 9.84001 13.0731 9.84001 13.0464 9.83334H3.00002C2.86002 9.86001 2.69312 9.82001 2.58645 9.72668C2.47312 9.64001 2.38645 9.50668 2.37979 9.36668L2.05312 3.56001C1.98645 2.88001 2.21312 2.18001 2.68645 1.65334C3.15979 1.13334 3.83312 0.833344 4.53979 0.833344H11.4598C12.1665 0.833344 12.8398 1.13334 13.3131 1.66001C13.7798 2.18001 14.0131 2.88001 13.9464 3.57334L13.6264 9.36668C13.6198 9.50668 13.5531 9.64001 13.4398 9.72668C13.3531 9.80001 13.2398 9.84001 13.1264 9.84001ZM3.34645 8.83334H12.6531L12.9464 3.50668C12.9464 3.50001 12.9464 3.49334 12.9464 3.48001C12.9864 3.05334 12.8531 2.64001 12.5665 2.32668C12.2798 2.01334 11.8798 1.83334 11.4532 1.83334H4.53979C4.11979 1.83334 3.71312 2.01334 3.42645 2.32668C3.13979 2.64668 3.00645 3.05334 3.05312 3.48001L3.34645 8.83334Z" fill="currentColor"/>
<path d="M5.32684 5.16668C5.05351 5.16668 4.82684 4.94001 4.82684 4.66668V1.33334C4.82684 1.06001 5.05351 0.833344 5.32684 0.833344C5.60017 0.833344 5.82684 1.06001 5.82684 1.33334V4.66668C5.82684 4.94001 5.60017 5.16668 5.32684 5.16668Z" fill="currentColor"/>
<path d="M8.00002 3.16668C7.72669 3.16668 7.50002 2.94001 7.50002 2.66668V1.33334C7.50002 1.06001 7.72669 0.833344 8.00002 0.833344C8.27335 0.833344 8.50002 1.06001 8.50002 1.33334V2.66668C8.50002 2.94001 8.27335 3.16668 8.00002 3.16668Z" fill="currentColor"/>
</svg>
