<svg width="16" height="16" viewBox="0 0 16 16" fill="none" xmlns="http://www.w3.org/2000/svg">
<path d="M10.3939 8.67334C8.23393 8.67334 6.47396 6.91334 6.47396 4.75334C6.47396 2.59334 8.23393 0.833344 10.3939 0.833344C12.5539 0.833344 14.3139 2.59334 14.3139 4.75334C14.3139 6.91334 12.5539 8.67334 10.3939 8.67334ZM10.3939 1.83334C8.78727 1.83334 7.47393 3.14001 7.47393 4.75334C7.47393 6.36668 8.7806 7.67334 10.3939 7.67334C12.0073 7.67334 13.3139 6.36668 13.3139 4.75334C13.3139 3.14001 12.0006 1.83334 10.3939 1.83334Z" fill="currentColor"/>
<path d="M4.24083 13.46C2.83416 13.46 1.6875 12.3133 1.6875 10.9067C1.6875 9.50001 2.83416 8.35334 4.24083 8.35334C5.64749 8.35334 6.7942 9.50001 6.7942 10.9067C6.7942 12.3133 5.64749 13.46 4.24083 13.46ZM4.24083 9.35334C3.38749 9.35334 2.6875 10.0467 2.6875 10.9067C2.6875 11.76 3.38083 12.46 4.24083 12.46C5.09416 12.46 5.79417 11.7667 5.79417 10.9067C5.79417 10.0533 5.09416 9.35334 4.24083 9.35334Z" fill="currentColor"/>
<path d="M11.0803 15.1666C9.86033 15.1666 8.87367 14.1733 8.87367 12.9599C8.87367 11.7399 9.867 10.7533 11.0803 10.7533C12.2937 10.7533 13.287 11.7466 13.287 12.9599C13.287 14.1733 12.2937 15.1666 11.0803 15.1666ZM11.0803 11.7466C10.4137 11.7466 9.87367 12.2866 9.87367 12.9533C9.87367 13.6199 10.4137 14.1599 11.0803 14.1599C11.747 14.1599 12.287 13.6199 12.287 12.9533C12.287 12.2933 11.747 11.7466 11.0803 11.7466Z" fill="currentColor"/>
</svg>
