<svg width="16" height="16" viewBox="0 0 16 16" fill="none" xmlns="http://www.w3.org/2000/svg">
<g clip-path="url(#clip0_2_4975)">
<path d="M7.07271 11.54C6.67938 11.54 6.28603 11.3599 5.91937 10.9933L4.32602 9.39994C3.59269 8.66661 3.59269 7.82668 4.32602 7.10001L6.98605 4.43995C7.07938 4.34662 7.20605 4.2933 7.33938 4.2933C7.47271 4.2933 7.59938 4.34662 7.69271 4.43995L10.6194 7.36661C10.786 7.53328 10.8727 7.75328 10.8727 7.98661C10.8727 8.21994 10.7794 8.44001 10.6127 8.60668L8.21938 10.9999C7.85938 11.3533 7.46605 11.54 7.07271 11.54ZM7.33938 5.4933L5.03269 7.80001C4.91935 7.91334 4.77937 8.08661 4.77937 8.24661C4.77937 8.40661 4.91935 8.57334 5.03269 8.69334L6.62603 10.2867C6.73938 10.4 6.91271 10.54 7.07271 10.54C7.23271 10.54 7.39938 10.4 7.51938 10.2867L9.82605 7.97994L7.33938 5.4933Z" fill="currentColor"/>
<path d="M7.34025 5.28657C7.21358 5.28657 7.08691 5.23992 6.98691 5.13992L6.45357 4.60656C6.26024 4.41322 6.26024 4.09322 6.45357 3.89989C6.64691 3.70656 6.96691 3.70656 7.16025 3.89989L7.69358 4.43326C7.88691 4.62659 7.88691 4.94659 7.69358 5.13992C7.59358 5.23992 7.46691 5.28657 7.34025 5.28657Z" fill="currentColor"/>
<path d="M4.30656 8.71988C4.03989 8.71988 3.81989 8.51328 3.80656 8.23994C3.79323 7.96661 4.00656 7.73328 4.28656 7.71994L10.3066 7.45994C10.5799 7.43994 10.8132 7.65994 10.8266 7.93994C10.8399 8.21994 10.6266 8.44654 10.3466 8.45988L4.32656 8.71988C4.31989 8.71988 4.31323 8.71988 4.30656 8.71988Z" fill="currentColor"/>
<path d="M10.9807 11.9668C10.3007 11.9668 9.74738 11.4135 9.74738 10.7335C9.74738 10.1001 10.414 9.32681 10.614 9.10681C10.8007 8.90014 11.1607 8.90014 11.3474 9.10681C11.5474 9.32681 12.214 10.1001 12.214 10.7335C12.2207 11.4135 11.6674 11.9668 10.9807 11.9668ZM10.9807 10.2535C10.8407 10.4601 10.7474 10.6468 10.7474 10.7335C10.7474 10.8601 10.854 10.9668 10.9807 10.9668C11.1074 10.9668 11.214 10.8601 11.214 10.7335C11.2207 10.6468 11.1207 10.4601 10.9807 10.2535Z" fill="currentColor"/>
<path d="M7.99998 15.1667C4.04665 15.1667 0.833313 11.9533 0.833313 8.00001C0.833313 4.04668 4.04665 0.833344 7.99998 0.833344C11.9533 0.833344 15.1666 4.04668 15.1666 8.00001C15.1666 11.9533 11.9533 15.1667 7.99998 15.1667ZM7.99998 1.83334C4.59998 1.83334 1.83331 4.60001 1.83331 8.00001C1.83331 11.4 4.59998 14.1667 7.99998 14.1667C11.4 14.1667 14.1666 11.4 14.1666 8.00001C14.1666 4.60001 11.4 1.83334 7.99998 1.83334Z" fill="currentColor"/>
</g>
<defs>
<clipPath id="clip0_2_4975">
<rect width="16" height="16" fill="currentColor"/>
</clipPath>
</defs>
</svg>
