<svg width="16" height="16" viewBox="0 0 16 16" fill="none" xmlns="http://www.w3.org/2000/svg">
<g clip-path="url(#clip0_2_4932)">
<path d="M6.90038 12.2601C6.44706 12.2601 6.01372 12.0535 5.60039 11.6401L3.71373 9.75348C2.88706 8.92681 2.88706 7.98014 3.71373 7.16014L6.86038 4.0135C7.05371 3.82016 7.37371 3.82016 7.56705 4.0135L11.027 7.47348C11.207 7.65348 11.3004 7.88681 11.3004 8.14014C11.3004 8.39348 11.2004 8.63348 11.027 8.80681L8.19371 11.6401C7.79371 12.0535 7.35371 12.2601 6.90038 12.2601ZM7.22038 5.0668L4.42707 7.86014C4.21373 8.07348 4.10039 8.27354 4.10039 8.45354C4.10039 8.62688 4.20707 8.82681 4.42707 9.04681L6.31373 10.9335C6.74705 11.3668 7.06038 11.3668 7.49371 10.9335L10.287 8.14014L7.22038 5.0668Z" fill="currentColor"/>
<path d="M7.22005 4.86002C7.09338 4.86002 6.96671 4.81337 6.86671 4.71337L6.24003 4.0867C6.0467 3.89337 6.0467 3.57337 6.24003 3.38004C6.43337 3.1867 6.75338 3.1867 6.94671 3.38004L7.57338 4.0067C7.76671 4.20004 7.76671 4.52004 7.57338 4.71337C7.47338 4.81337 7.34671 4.86002 7.22005 4.86002Z" fill="currentColor"/>
<path d="M3.62687 8.92681C3.36021 8.92681 3.14021 8.72021 3.12687 8.44688C3.11354 8.17354 3.32687 7.94014 3.60687 7.92681L10.7268 7.61348C11.0002 7.58681 11.2335 7.81348 11.2468 8.09348C11.2602 8.36681 11.0468 8.60021 10.7668 8.61354L3.64687 8.92681C3.64021 8.92681 3.63354 8.92681 3.62687 8.92681Z" fill="currentColor"/>
<path d="M11.5334 12.7666C10.7801 12.7666 10.1601 12.1532 10.1601 11.3932C10.1601 10.6732 10.9268 9.78661 11.1601 9.53328C11.3468 9.32661 11.7068 9.32661 11.8934 9.53328C12.1268 9.78661 12.8934 10.6799 12.8934 11.3932C12.9001 12.1532 12.2868 12.7666 11.5334 12.7666ZM11.5334 10.6665C11.3268 10.9599 11.1601 11.2532 11.1601 11.3932C11.1601 11.5932 11.3268 11.7666 11.5334 11.7666C11.7401 11.7666 11.9068 11.5999 11.9068 11.3932C11.9001 11.2532 11.7401 10.9599 11.5334 10.6665Z" fill="currentColor"/>
<path d="M9.99998 15.1667H5.99998C2.37998 15.1667 0.833313 13.62 0.833313 10V6.00001C0.833313 2.38001 2.37998 0.833344 5.99998 0.833344H9.99998C13.62 0.833344 15.1666 2.38001 15.1666 6.00001V10C15.1666 13.62 13.62 15.1667 9.99998 15.1667ZM5.99998 1.83334C2.92665 1.83334 1.83331 2.92668 1.83331 6.00001V10C1.83331 13.0733 2.92665 14.1667 5.99998 14.1667H9.99998C13.0733 14.1667 14.1666 13.0733 14.1666 10V6.00001C14.1666 2.92668 13.0733 1.83334 9.99998 1.83334H5.99998Z" fill="currentColor"/>
</g>
<defs>
<clipPath id="clip0_2_4932">
<rect width="16" height="16" fill="currentColor"/>
</clipPath>
</defs>
</svg>
