<svg width="16" height="16" viewBox="0 0 16 16" fill="none" xmlns="http://www.w3.org/2000/svg">
<path d="M6.01331 13.1668C5.43998 13.1668 4.86665 12.8935 4.31998 12.3469L1.64665 9.67352C1.10665 9.13352 0.833313 8.56679 0.833313 7.98012C0.833313 7.40012 1.10665 6.82679 1.64665 6.28682L6.09998 1.83348C6.19331 1.74015 6.31998 1.68684 6.45331 1.68684C6.58665 1.68684 6.71331 1.74015 6.80665 1.83348L11.7066 6.73346C11.92 6.94679 12.04 7.22679 12.04 7.53346C12.04 7.83346 11.92 8.12012 11.7066 8.33346L7.69331 12.3469C7.15998 12.8935 6.58665 13.1668 6.01331 13.1668ZM6.45998 2.90014L2.35998 7.00012C2.01331 7.34679 1.83998 7.68012 1.83998 7.98679C1.83998 8.29346 2.01331 8.62679 2.35998 8.96679L5.03331 11.6401C5.73331 12.3401 6.29998 12.3401 6.99998 11.6401L11.0133 7.62679C11.0533 7.58679 11.06 7.48679 11.0133 7.44012L6.45998 2.90014Z" fill="currentColor"/>
<path d="M6.45935 2.69308C6.33269 2.69308 6.20602 2.64644 6.10602 2.54644L5.21269 1.65309C5.01935 1.45976 5.01935 1.13976 5.21269 0.946422C5.40602 0.753089 5.72602 0.753089 5.91935 0.946422L6.81271 1.83978C7.00605 2.03311 7.00605 2.3531 6.81271 2.54644C6.71271 2.64644 6.58602 2.69308 6.45935 2.69308Z" fill="currentColor"/>
<path d="M1.38078 8.44646C1.11411 8.44646 0.894113 8.23979 0.88078 7.96646C0.867446 7.69312 1.08078 7.45979 1.36078 7.44646L11.4474 7.00646C11.7208 6.99312 11.9541 7.20639 11.9674 7.48639C11.9808 7.75972 11.7674 7.99312 11.4874 8.00646L1.40078 8.44646C1.39411 8.44646 1.38745 8.44646 1.38078 8.44646Z" fill="currentColor"/>
<path d="M10.6666 15.1667H1.99998C1.72665 15.1667 1.49998 14.94 1.49998 14.6667C1.49998 14.3933 1.72665 14.1667 1.99998 14.1667H10.6666C10.94 14.1667 11.1666 14.3933 11.1666 14.6667C11.1666 14.94 10.94 15.1667 10.6666 15.1667Z" fill="currentColor"/>
<path d="M12.5666 13.8867C11.6133 13.8867 10.8333 13.1067 10.8333 12.1534C10.8333 11.1867 11.9733 9.90672 12.2 9.65339C12.3866 9.44672 12.7466 9.44672 12.9333 9.65339C13.16 9.90005 14.3 11.18 14.3 12.1467C14.3 13.1133 13.52 13.8867 12.5666 13.8867ZM12.5666 10.7801C12.2 11.2601 11.8333 11.8467 11.8333 12.1601C11.8333 12.5667 12.16 12.8933 12.5666 12.8933C12.9733 12.8933 13.3 12.5667 13.3 12.1601C13.3 11.8401 12.9333 11.2534 12.5666 10.7801Z" fill="currentColor"/>
</svg>
