<svg width="16" height="16" viewBox="0 0 16 16" fill="none" xmlns="http://www.w3.org/2000/svg">
<g clip-path="url(#clip0_2_4890)">
<path d="M4.46668 12.5H2.76669C1.54002 12.5 0.833344 11.7933 0.833344 10.5667V2.76669C0.833344 1.54002 1.54002 0.833344 2.76669 0.833344H5.63335C6.86001 0.833344 7.56668 1.54002 7.56668 2.76669V4.00001C7.56668 4.27334 7.34001 4.50001 7.06668 4.50001C6.79334 4.50001 6.56666 4.27334 6.56666 4.00001V2.76669C6.56666 2.08669 6.31335 1.83334 5.63335 1.83334H2.76669C2.08669 1.83334 1.83334 2.08669 1.83334 2.76669V10.5667C1.83334 11.2467 2.08669 11.5 2.76669 11.5H4.46668C4.74002 11.5 4.96668 11.7267 4.96668 12C4.96668 12.2733 4.74002 12.5 4.46668 12.5Z" fill="currentColor"/>
<path d="M9.97348 15.1667H6.08013C4.74013 15.1667 3.96681 14.3933 3.96681 13.0533V5.61333C3.96681 4.27333 4.74013 3.50001 6.08013 3.50001H9.97348C11.3135 3.50001 12.0801 4.27333 12.0801 5.61333V13.0533C12.0801 14.3933 11.3135 15.1667 9.97348 15.1667ZM6.08013 4.50001C5.28013 4.50001 4.96681 4.81333 4.96681 5.61333V13.0533C4.96681 13.8533 5.28013 14.1667 6.08013 14.1667H9.97348C10.7668 14.1667 11.0801 13.8533 11.0801 13.0533V5.61333C11.0801 4.81333 10.7668 4.50001 9.97348 4.50001H6.08013Z" fill="currentColor"/>
<path d="M13.2335 12.5H11.5803C11.3069 12.5 11.0803 12.2733 11.0803 12C11.0803 11.7267 11.3069 11.5 11.5803 11.5H13.2335C13.9135 11.5 14.1669 11.2467 14.1669 10.5667V2.76669C14.1669 2.08669 13.9135 1.83334 13.2335 1.83334H10.3669C9.68694 1.83334 9.43361 2.08669 9.43361 2.76669V4.00001C9.43361 4.27334 9.20694 4.50001 8.93361 4.50001C8.66028 4.50001 8.43361 4.27334 8.43361 4.00001V2.76669C8.43361 1.54002 9.14028 0.833344 10.3669 0.833344H13.2335C14.4602 0.833344 15.1669 1.54002 15.1669 2.76669V10.5667C15.1669 11.7933 14.4602 12.5 13.2335 12.5Z" fill="currentColor"/>
<path d="M9.33334 7.83334H6.66668C6.39334 7.83334 6.16668 7.60668 6.16668 7.33334C6.16668 7.06001 6.39334 6.83334 6.66668 6.83334H9.33334C9.60668 6.83334 9.83334 7.06001 9.83334 7.33334C9.83334 7.60668 9.60668 7.83334 9.33334 7.83334Z" fill="currentColor"/>
<path d="M9.33334 9.83334H6.66668C6.39334 9.83334 6.16668 9.60668 6.16668 9.33334C6.16668 9.06001 6.39334 8.83334 6.66668 8.83334H9.33334C9.60668 8.83334 9.83334 9.06001 9.83334 9.33334C9.83334 9.60668 9.60668 9.83334 9.33334 9.83334Z" fill="currentColor"/>
<path d="M8.00001 15.1667C7.72668 15.1667 7.50001 14.94 7.50001 14.6667V12.6667C7.50001 12.3933 7.72668 12.1667 8.00001 12.1667C8.27334 12.1667 8.50001 12.3933 8.50001 12.6667V14.6667C8.50001 14.94 8.27334 15.1667 8.00001 15.1667Z" fill="currentColor"/>
</g>
<defs>
<clipPath id="clip0_2_4890">
<rect width="16" height="16" fill="currentColor"/>
</clipPath>
</defs>
</svg>
