<svg width="16" height="16" viewBox="0 0 16 16" fill="none" xmlns="http://www.w3.org/2000/svg">
<path d="M15.3333 15.1667H0.666656C0.393323 15.1667 0.166656 14.94 0.166656 14.6667C0.166656 14.3933 0.393323 14.1667 0.666656 14.1667H15.3333C15.6067 14.1667 15.8333 14.3933 15.8333 14.6667C15.8333 14.94 15.6067 15.1667 15.3333 15.1667Z" fill="currentColor"/>
<path d="M13.1869 15.1732C12.9135 15.1732 12.6869 14.9465 12.6869 14.6732V11.6999C12.6869 11.4265 12.9135 11.1999 13.1869 11.1999C13.4602 11.1999 13.6869 11.4265 13.6869 11.6999V14.6732C13.6869 14.9465 13.4669 15.1732 13.1869 15.1732Z" fill="currentColor"/>
<path d="M13.1997 12.1999C12.1131 12.1999 11.2331 11.3199 11.2331 10.2333V8.71992C11.2331 7.63325 12.1131 6.75325 13.1997 6.75325C14.2864 6.75325 15.1664 7.63325 15.1664 8.71992V10.2333C15.1664 11.3199 14.2864 12.1999 13.1997 12.1999ZM13.1997 7.75992C12.6664 7.75992 12.2331 8.19325 12.2331 8.72659V10.2399C12.2331 10.7733 12.6664 11.2066 13.1997 11.2066C13.7331 11.2066 14.1664 10.7733 14.1664 10.2399V8.72659C14.1664 8.19325 13.7331 7.75992 13.1997 7.75992Z" fill="currentColor"/>
<path d="M9.53319 15.1665C9.25986 15.1665 9.03319 14.9399 9.03319 14.6665V4.01985C9.03319 2.95985 8.58652 2.5065 7.54652 2.5065H3.39322C2.34655 2.5065 1.89322 2.95985 1.89322 4.01985V14.6665C1.89322 14.9399 1.66655 15.1665 1.39322 15.1665C1.11988 15.1665 0.893217 14.9399 0.893217 14.6665V4.01985C0.893217 2.39985 1.77988 1.5065 3.39322 1.5065H7.54652C9.15319 1.5065 10.0332 2.39985 10.0332 4.01985V14.6665C10.0332 14.9399 9.80652 15.1665 9.53319 15.1665Z" fill="currentColor"/>
<path d="M7.16652 5.99999H3.86652C3.59319 5.99999 3.36652 5.77332 3.36652 5.49999C3.36652 5.22665 3.59319 4.99999 3.86652 4.99999H7.16652C7.43986 4.99999 7.66652 5.22665 7.66652 5.49999C7.66652 5.77332 7.43986 5.99999 7.16652 5.99999Z" fill="currentColor"/>
<path d="M7.16652 8.49999H3.86652C3.59319 8.49999 3.36652 8.27332 3.36652 7.99999C3.36652 7.72665 3.59319 7.49999 3.86652 7.49999H7.16652C7.43986 7.49999 7.66652 7.72665 7.66652 7.99999C7.66652 8.27332 7.43986 8.49999 7.16652 8.49999Z" fill="currentColor"/>
<path d="M5.49999 15.1667C5.22666 15.1667 4.99999 14.94 4.99999 14.6667V12.1667C4.99999 11.8933 5.22666 11.6667 5.49999 11.6667C5.77332 11.6667 5.99999 11.8933 5.99999 12.1667V14.6667C5.99999 14.94 5.77332 15.1667 5.49999 15.1667Z" fill="currentColor"/>
</svg>
