<svg width="16" height="16" viewBox="0 0 16 16" fill="none" xmlns="http://www.w3.org/2000/svg">
<path d="M14.6667 15.1667H1.33334C1.06001 15.1667 0.833344 14.94 0.833344 14.6667C0.833344 14.3933 1.06001 14.1667 1.33334 14.1667H14.6667C14.94 14.1667 15.1667 14.3933 15.1667 14.6667C15.1667 14.94 14.94 15.1667 14.6667 15.1667Z" fill="currentColor"/>
<path d="M2.00668 15.1735C1.87335 15.1735 1.74666 15.1202 1.65333 15.0269C1.56 14.9335 1.50668 14.8069 1.50668 14.6735L1.50001 4.71353C1.50001 4.10686 1.80666 3.53351 2.31332 3.19351L4.97999 1.41352C5.59999 1.00018 6.40002 1.00018 7.01334 1.41352L9.68001 3.19351C10.1933 3.53351 10.4933 4.1002 10.4933 4.71353L10.5 14.6602C10.5 14.9335 10.28 15.1602 10 15.1602L2.00668 15.1735ZM6.00001 2.1002C5.84001 2.1002 5.68001 2.14684 5.54001 2.24018L2.87334 4.02021C2.64001 4.17354 2.50001 4.43353 2.50001 4.71353L2.50668 14.1735L9.50668 14.1602L9.50001 4.71353C9.50001 4.43353 9.36001 4.17351 9.13334 4.02684L6.46668 2.24685C6.32668 2.14685 6.16001 2.1002 6.00001 2.1002Z" fill="currentColor"/>
<path d="M13.3203 15.1733C13.047 15.1733 12.8203 14.9467 12.8203 14.6733V12C12.8203 11.7267 13.047 11.5 13.3203 11.5C13.5937 11.5 13.8203 11.7267 13.8203 12V14.6733C13.8203 14.9467 13.6003 15.1733 13.3203 15.1733Z" fill="currentColor"/>
<path d="M13.3333 12.5C12.32 12.5 11.5 11.68 11.5 10.6667V9.33333C11.5 8.32 12.32 7.5 13.3333 7.5C14.3467 7.5 15.1667 8.32 15.1667 9.33333V10.6667C15.1667 11.68 14.3467 12.5 13.3333 12.5ZM13.3333 8.5C12.8733 8.5 12.5 8.87334 12.5 9.33333V10.6667C12.5 11.1267 12.8733 11.5 13.3333 11.5C13.7933 11.5 14.1667 11.1267 14.1667 10.6667V9.33333C14.1667 8.87334 13.7933 8.5 13.3333 8.5Z" fill="currentColor"/>
<path d="M10 9.83333H2.00001C1.72668 9.83333 1.50001 9.60667 1.50001 9.33333C1.50001 9.06 1.72668 8.83334 2.00001 8.83334H10C10.2733 8.83334 10.5 9.06 10.5 9.33333C10.5 9.60667 10.2733 9.83333 10 9.83333Z" fill="currentColor"/>
<path d="M6.00001 15.1667C5.72668 15.1667 5.50001 14.94 5.50001 14.6667V12.1667C5.50001 11.8933 5.72668 11.6667 6.00001 11.6667C6.27334 11.6667 6.50001 11.8933 6.50001 12.1667V14.6667C6.50001 14.94 6.27334 15.1667 6.00001 15.1667Z" fill="currentColor"/>
<path d="M6.00001 7.5C5.17334 7.5 4.50001 6.82667 4.50001 6C4.50001 5.17334 5.17334 4.5 6.00001 4.5C6.82668 4.5 7.50001 5.17334 7.50001 6C7.50001 6.82667 6.82668 7.5 6.00001 7.5ZM6.00001 5.5C5.72668 5.5 5.50001 5.72667 5.50001 6C5.50001 6.27334 5.72668 6.5 6.00001 6.5C6.27334 6.5 6.50001 6.27334 6.50001 6C6.50001 5.72667 6.27334 5.5 6.00001 5.5Z" fill="currentColor"/>
</svg>
