<svg width="16" height="16" viewBox="0 0 16 16" fill="none" xmlns="http://www.w3.org/2000/svg">
<g clip-path="url(#clip0_2_4929)">
<path d="M8.33312 15.1668H2.71981C1.67314 15.1668 0.813141 14.3268 0.813141 13.2868V3.39347C0.813141 2.37347 1.19314 1.58014 1.88647 1.1468C2.58647 0.706802 3.49314 0.720135 4.43314 1.1868L7.39312 2.64014C8.19979 3.04014 8.83312 4.0468 8.83312 4.94014V14.6668C8.83312 14.9401 8.60645 15.1668 8.33312 15.1668ZM3.03981 1.83347C2.80647 1.83347 2.59314 1.8868 2.41314 2.00014C2.02647 2.24014 1.81314 2.74013 1.81314 3.39347V13.2868C1.81314 13.7735 2.21981 14.1668 2.71981 14.1668H7.83312V4.94014C7.83312 4.4268 7.41979 3.7668 6.94645 3.54014L3.98647 2.0868C3.64647 1.92014 3.32647 1.83347 3.03981 1.83347Z" fill="currentColor"/>
<path d="M12.54 15.1665L8.33312 15.1668C8.05979 15.1668 7.83332 14.9399 7.83332 14.6665V6.94654C7.83332 6.79321 7.89999 6.65319 8.01999 6.55986C8.13999 6.46653 8.28665 6.42653 8.43999 6.45986L8.75332 6.52653L13.1133 7.49988C14.44 7.79321 15.1067 8.57321 15.1467 9.89988C15.1533 9.89988 15.1533 9.96654 15.1533 10.0399V12.5599C15.1467 14.2665 14.2467 15.1665 12.54 15.1665ZM8.83332 14.1665H12.54C13.7133 14.1665 14.1467 13.7332 14.1467 12.5599V9.98654C14.1133 9.07321 13.7667 8.66654 12.8933 8.47321L8.83332 7.56654V14.1665Z" fill="currentColor"/>
<path d="M5.97999 6.50001H3.66665C3.39332 6.50001 3.16665 6.27334 3.16665 6.00001C3.16665 5.72668 3.39332 5.50001 3.66665 5.50001H5.97999C6.25332 5.50001 6.47999 5.72668 6.47999 6.00001C6.47999 6.27334 6.25999 6.50001 5.97999 6.50001Z" fill="currentColor"/>
<path d="M5.97999 9.16668H3.66665C3.39332 9.16668 3.16665 8.94001 3.16665 8.66668C3.16665 8.39334 3.39332 8.16668 3.66665 8.16668H5.97999C6.25332 8.16668 6.47999 8.39334 6.47999 8.66668C6.47999 8.94001 6.25999 9.16668 5.97999 9.16668Z" fill="currentColor"/>
<path d="M10.1465 11.8333C9.04645 11.8333 8.14645 10.9333 8.14645 9.83334V7.01334C8.14645 6.86001 8.21312 6.72001 8.33312 6.62C8.45312 6.52 8.60645 6.48666 8.75312 6.51999L11.7531 7.19334C11.9798 7.24668 12.1465 7.44668 12.1465 7.68001V9.82668C12.1465 10.9333 11.2531 11.8333 10.1465 11.8333ZM9.14645 7.64001V9.83334C9.14645 10.3867 9.59312 10.8333 10.1465 10.8333C10.6998 10.8333 11.1465 10.3867 11.1465 9.83334V8.08668L9.14645 7.64001Z" fill="currentColor"/>
<path d="M13.1465 11.8334C12.0465 11.8334 11.1465 10.9333 11.1465 9.83334V7.68674C11.1465 7.53341 11.2131 7.39341 11.3331 7.30008C11.4531 7.20674 11.6065 7.16674 11.7531 7.20008L13.1065 7.50008C14.4331 7.79341 15.0998 8.57341 15.1398 9.90007C15.1398 9.91341 15.1398 9.92674 15.1398 9.94007C15.0865 11.0001 14.2131 11.8334 13.1465 11.8334ZM12.1465 8.30674V9.83341C12.1465 10.3867 12.5931 10.8334 13.1465 10.8334C13.6731 10.8334 14.1065 10.4267 14.1398 9.90674C14.1065 9.06674 13.76 8.66654 12.8933 8.47321L12.1465 8.30674Z" fill="currentColor"/>
</g>
<defs>
<clipPath id="clip0_2_4929">
<rect width="16" height="16" fill="currentColor"/>
</clipPath>
</defs>
</svg>
