<svg width="16" height="16" viewBox="0 0 16 16" fill="none" xmlns="http://www.w3.org/2000/svg">
<g clip-path="url(#clip0_1143_17)">
<path d="M14.6667 15.1667H1.30666C1.03333 15.1667 0.806664 14.94 0.806664 14.6667C0.806664 14.3933 1.03333 14.1667 1.30666 14.1667H14.6667C14.94 14.1667 15.1667 14.3933 15.1667 14.6667C15.1667 14.94 14.94 15.1667 14.6667 15.1667Z" fill="currentColor"/>
<path d="M7.30666 6.26666H4.00666C3.73333 6.26666 3.50666 6.03999 3.50666 5.76666C3.50666 5.49333 3.73333 5.26666 4.00666 5.26666H7.30666C7.58 5.26666 7.80666 5.49333 7.80666 5.76666C7.80666 6.03999 7.58 6.26666 7.30666 6.26666Z" fill="currentColor"/>
<path d="M7.30666 8.76666H4.00666C3.73333 8.76666 3.50666 8.53999 3.50666 8.26666C3.50666 7.99333 3.73333 7.76666 4.00666 7.76666H7.30666C7.58 7.76666 7.80666 7.99333 7.80666 8.26666C7.80666 8.53999 7.58 8.76666 7.30666 8.76666Z" fill="currentColor"/>
<path d="M14.18 14.74C13.9067 14.74 13.68 14.5133 13.68 14.24V8.06666C13.68 7.61333 13.4667 7.19999 13.1133 6.95333L9.56666 4.34666C9.34666 4.17999 9.29333 3.87333 9.46 3.64666C9.62666 3.42666 9.93333 3.37333 10.16 3.53999L13.6933 6.13999C14.3067 6.55999 14.68 7.27999 14.68 8.06666V14.2333C14.68 14.5133 14.4533 14.74 14.18 14.74Z" fill="currentColor"/>
<path d="M1.84666 14.74C1.57333 14.74 1.34666 14.5133 1.34666 14.24V4.99999C1.34666 4.03999 1.92 3.15999 2.78 2.81333L7.06666 1.07999C7.74 0.80666 8.47333 0.88666 9.08 1.29333C9.72 1.72666 10.1067 2.45999 10.1067 3.25999V14.2267C10.1067 14.5 9.88 14.7267 9.60666 14.7267C9.33333 14.7267 9.10666 14.5 9.10666 14.2267V3.27333C9.10666 2.80666 8.88666 2.37999 8.52 2.13333C8.19333 1.91333 7.8 1.87333 7.44 2.01333L3.15333 3.74666C2.67333 3.93999 2.34666 4.44666 2.34666 4.99999V14.2333C2.34666 14.5133 2.12 14.74 1.84666 14.74Z" fill="currentColor"/>
<path d="M5.63333 14.98C5.36 14.98 5.13333 14.7533 5.13333 14.48V11.98C5.13333 11.7067 5.36 11.48 5.63333 11.48C5.90666 11.48 6.13333 11.7067 6.13333 11.98V14.48C6.13333 14.7533 5.90666 14.98 5.63333 14.98Z" fill="currentColor"/>
</g>
<defs>
<clipPath id="clip0_1143_17">
<rect width="16" height="16" fill="currentColor"/>
</clipPath>
</defs>
</svg>
