<svg width="16" height="16" viewBox="0 0 16 16" fill="none" xmlns="http://www.w3.org/2000/svg">
<g clip-path="url(#clip0_2_5209)">
<path d="M8.66668 15.1667H3.33334C1.72001 15.1667 0.833344 14.28 0.833344 12.6667V7.33334C0.833344 5.72001 1.72001 4.83334 3.33334 4.83334H6.66668C6.94001 4.83334 7.16668 5.06001 7.16668 5.33334V12.6667C7.16668 13.72 7.61334 14.1667 8.66668 14.1667C8.94001 14.1667 9.16668 14.3933 9.16668 14.6667C9.16668 14.94 8.94001 15.1667 8.66668 15.1667ZM3.33334 5.83334C2.28001 5.83334 1.83334 6.28001 1.83334 7.33334V12.6667C1.83334 13.72 2.28001 14.1667 3.33334 14.1667H6.53334C6.29334 13.7733 6.16668 13.2733 6.16668 12.6667V5.83334H3.33334Z" fill="currentColor"/>
<path d="M6.66668 5.83334H3.33334C3.06001 5.83334 2.83334 5.60668 2.83334 5.33334V4.00001C2.83334 2.98668 3.65334 2.16668 4.66668 2.16668H6.74001C6.89334 2.16668 7.04001 2.24 7.13334 2.36C7.22668 2.48666 7.26001 2.64668 7.22001 2.79334C7.18001 2.94001 7.16668 3.10668 7.16668 3.33334V5.33334C7.16668 5.60668 6.94001 5.83334 6.66668 5.83334ZM3.83334 4.83334H6.16668V3.33334C6.16668 3.27334 6.16668 3.22001 6.16668 3.16668H4.66668C4.20668 3.16668 3.83334 3.54001 3.83334 4.00001V4.83334Z" fill="currentColor"/>
<path d="M9.33334 9.16668C9.06001 9.16668 8.83334 8.94001 8.83334 8.66668V5.33334C8.83334 5.06001 9.06001 4.83334 9.33334 4.83334C9.60668 4.83334 9.83334 5.06001 9.83334 5.33334V8.66668C9.83334 8.94001 9.60668 9.16668 9.33334 9.16668Z" fill="currentColor"/>
<path d="M12 9.16668C11.7267 9.16668 11.5 8.94001 11.5 8.66668V5.33334C11.5 5.06001 11.7267 4.83334 12 4.83334C12.2733 4.83334 12.5 5.06001 12.5 5.33334V8.66668C12.5 8.94001 12.2733 9.16668 12 9.16668Z" fill="currentColor"/>
<path d="M12 15.1667H9.33334C9.06001 15.1667 8.83334 14.94 8.83334 14.6667V12C8.83334 11.36 9.36001 10.8333 10 10.8333H11.3333C11.9733 10.8333 12.5 11.36 12.5 12V14.6667C12.5 14.94 12.2733 15.1667 12 15.1667ZM9.83334 14.1667H11.5V12C11.5 11.9067 11.4267 11.8333 11.3333 11.8333H10C9.90668 11.8333 9.83334 11.9067 9.83334 12V14.1667Z" fill="currentColor"/>
<path d="M4.00001 11.8333C3.72668 11.8333 3.50001 11.6067 3.50001 11.3333V8.66668C3.50001 8.39334 3.72668 8.16668 4.00001 8.16668C4.27334 8.16668 4.50001 8.39334 4.50001 8.66668V11.3333C4.50001 11.6067 4.27334 11.8333 4.00001 11.8333Z" fill="currentColor"/>
<path d="M12.6667 15.1667H8.66668C7.05334 15.1667 6.16668 14.28 6.16668 12.6667V3.33334C6.16668 1.72001 7.05334 0.833344 8.66668 0.833344H12.6667C14.28 0.833344 15.1667 1.72001 15.1667 3.33334V12.6667C15.1667 14.28 14.28 15.1667 12.6667 15.1667ZM8.66668 1.83334C7.61334 1.83334 7.16668 2.28001 7.16668 3.33334V12.6667C7.16668 13.72 7.61334 14.1667 8.66668 14.1667H12.6667C13.72 14.1667 14.1667 13.72 14.1667 12.6667V3.33334C14.1667 2.28001 13.72 1.83334 12.6667 1.83334H8.66668Z" fill="currentColor"/>
</g>
<defs>
<clipPath id="clip0_2_5209">
<rect width="16" height="16" fill="currentColor"/>
</clipPath>
</defs>
</svg>
