<svg width="16" height="16" viewBox="0 0 16 16" fill="none" xmlns="http://www.w3.org/2000/svg">
<g clip-path="url(#clip0_1079_9)">
<path d="M15 1.00001C14.8 0.800006 14.4667 0.800006 14.2667 1.00001L10.6667 4.60001V4.66667L4.99999 10.3333L3.99999 11.3333L0.999995 14.3333C0.799995 14.5333 0.799995 14.8667 0.999995 15.0667C1.06666 15.2 1.19999 15.2 1.33333 15.2C1.46666 15.2 1.59999 15.1333 1.66666 15.0667L15.1333 1.60001C15.2 1.46667 15.2 1.20001 15 1.00001Z" fill="currentColor"/>
<path d="M6.66667 6.8C6.4 6.8 6.13334 7 6.13334 7.33333C6.13334 7.46666 6.2 7.53333 6.2 7.6C6.26667 7.73333 6.46667 7.8 6.6 7.8H7.4L8.4 6.8H6.66667Z" fill="currentColor"/>
<path d="M15.1333 3.6V3.53333C15.1333 3.26666 14.9333 3 14.6 3C14.2667 3 14.0667 3.2 14.0667 3.53333V10.5333C14.0667 11.2 13.8 11.4667 13.1333 11.4667H12V6.53333C12 6.26666 11.8 6 11.4667 6C11.1333 6 10.9333 6.2 10.9333 6.53333V13C10.9333 13.8 10.6 14.1333 9.8 14.1333H8.33334V12.6667C8.33334 12.4 8.13334 12.1333 7.8 12.1333C7.53334 12.1333 7.26667 12.3333 7.26667 12.6667V14.1333H6.06667C5.33334 14.1333 5 13.8667 4.93334 13.1333L4.13334 14C4.4 14.7333 5.06667 15.2 6.06667 15.2H10C11.3333 15.2 12.1333 14.4 12.1333 13.0667V12.5333H13.2667C14.4667 12.5333 15.2 11.8 15.2 10.6L15.1333 3.6Z" fill="currentColor"/>
<path d="M9.8 9.33333C9.8 9.06666 9.6 8.8 9.26667 8.8H9.2L8.2 9.8H9.33334C9.6 9.86666 9.8 9.6 9.8 9.33333Z" fill="currentColor"/>
<path d="M6.06667 3.46666C4.73334 3.46666 4 4.26666 4 5.6L3.99999 11.3333L4.99999 10.3333L5 5.6C5 4.8 5.33334 4.46666 6.13334 4.46666H10C10.2667 4.46666 10.5333 4.53334 10.6667 4.60001L11.4 3.86666C11.1333 3.66666 10.8 3.53333 10.4 3.46666C10.2667 3.46666 10.1333 3.46666 10 3.46666H9.46667V2.8C9.46667 2.13333 9.73334 1.86666 10.4 1.86666H13.2667C13.3333 1.86666 13.4 1.86666 13.4667 1.86666L14.2667 1.06666C14 0.933331 13.6667 0.866665 13.2667 0.866665H10.4C9.2 0.866665 8.46667 1.6 8.46667 2.8V3.53333H7.6V2.8C7.6 1.6 6.86667 0.866665 5.66667 0.866665H2.73334C1.53334 0.866665 0.800003 1.6 0.800003 2.8V10.6C0.800003 11.4 1.06667 11.9333 1.6 12.2667C1.86667 12.4667 2.26667 12.5333 2.73334 12.5333L3.73334 11.5333H2.73334C2.6 11.5333 2.46667 11.5333 2.4 11.4667C2 11.4 1.8 11.1333 1.8 10.6V2.8C1.8 2.13333 2.06667 1.86666 2.73334 1.86666H5.6C6.26667 1.86666 6.53334 2.13333 6.53334 2.8V3.53333H6.06667V3.46666Z" fill="currentColor"/>
</g>
<defs>
<clipPath id="clip0_1079_9">
<rect width="16" height="16" fill="currentColor"/>
</clipPath>
</defs>
</svg>
