<svg width="16" height="16" viewBox="0 0 16 16" fill="none" xmlns="http://www.w3.org/2000/svg">
<g clip-path="url(#clip0_2_5139)">
<path d="M14.6667 15.1667H1.33334C1.06001 15.1667 0.833344 14.94 0.833344 14.6667C0.833344 14.3933 1.06001 14.1667 1.33334 14.1667H14.6667C14.94 14.1667 15.1667 14.3933 15.1667 14.6667C15.1667 14.94 14.94 15.1667 14.6667 15.1667Z" fill="currentColor"/>
<path d="M14 15.1667H2.00001C1.72668 15.1667 1.50001 14.94 1.50001 14.6667V4.00001C1.50001 1.98668 2.65334 0.833344 4.66668 0.833344H11.3333C13.3467 0.833344 14.5 1.98668 14.5 4.00001V14.6667C14.5 14.94 14.2733 15.1667 14 15.1667ZM2.50001 14.1667H13.5V4.00001C13.5 2.52001 12.8133 1.83334 11.3333 1.83334H4.66668C3.18668 1.83334 2.50001 2.52001 2.50001 4.00001V14.1667Z" fill="currentColor"/>
<path d="M6.66668 11.5H4.66668C4.39334 11.5 4.16668 11.2733 4.16668 11C4.16668 10.7267 4.39334 10.5 4.66668 10.5H6.66668C6.94001 10.5 7.16668 10.7267 7.16668 11C7.16668 11.2733 6.94001 11.5 6.66668 11.5Z" fill="currentColor"/>
<path d="M11.3333 11.5H9.33334C9.06001 11.5 8.83334 11.2733 8.83334 11C8.83334 10.7267 9.06001 10.5 9.33334 10.5H11.3333C11.6067 10.5 11.8333 10.7267 11.8333 11C11.8333 11.2733 11.6067 11.5 11.3333 11.5Z" fill="currentColor"/>
<path d="M6.66668 8.50001H4.66668C4.39334 8.50001 4.16668 8.27334 4.16668 8.00001C4.16668 7.72668 4.39334 7.50001 4.66668 7.50001H6.66668C6.94001 7.50001 7.16668 7.72668 7.16668 8.00001C7.16668 8.27334 6.94001 8.50001 6.66668 8.50001Z" fill="currentColor"/>
<path d="M11.3333 8.50001H9.33334C9.06001 8.50001 8.83334 8.27334 8.83334 8.00001C8.83334 7.72668 9.06001 7.50001 9.33334 7.50001H11.3333C11.6067 7.50001 11.8333 7.72668 11.8333 8.00001C11.8333 8.27334 11.6067 8.50001 11.3333 8.50001Z" fill="currentColor"/>
<path d="M6.66668 5.50001H4.66668C4.39334 5.50001 4.16668 5.27334 4.16668 5.00001C4.16668 4.72668 4.39334 4.50001 4.66668 4.50001H6.66668C6.94001 4.50001 7.16668 4.72668 7.16668 5.00001C7.16668 5.27334 6.94001 5.50001 6.66668 5.50001Z" fill="currentColor"/>
<path d="M11.3333 5.50001H9.33334C9.06001 5.50001 8.83334 5.27334 8.83334 5.00001C8.83334 4.72668 9.06001 4.50001 9.33334 4.50001H11.3333C11.6067 4.50001 11.8333 4.72668 11.8333 5.00001C11.8333 5.27334 11.6067 5.50001 11.3333 5.50001Z" fill="currentColor"/>
</g>
<defs>
<clipPath id="clip0_2_5139">
<rect width="16" height="16" fill="currentColor"/>
</clipPath>
</defs>
</svg>
