<svg width="16" height="16" viewBox="0 0 16 16" fill="none" xmlns="http://www.w3.org/2000/svg">
<path d="M11.2667 15.1667H4.73333C3.32 15.1667 2.16666 14.0133 2.16666 12.6V3.40002C2.16666 1.98668 3.32 0.833344 4.73333 0.833344H11.2667C12.68 0.833344 13.8333 1.98668 13.8333 3.40002V12.6C13.8333 14.0133 12.68 15.1667 11.2667 15.1667ZM4.73333 1.83334C3.87333 1.83334 3.16666 2.53335 3.16666 3.40002V12.6C3.16666 13.46 3.86666 14.1667 4.73333 14.1667H11.2667C12.1267 14.1667 12.8333 13.4667 12.8333 12.6V3.40002C12.8333 2.54002 12.1333 1.83334 11.2667 1.83334H4.73333Z" fill="currentColor"/>
<path d="M12.3333 9.16668H3.66666C2.83999 9.16668 2.16666 8.49334 2.16666 7.66668V6.33334C2.16666 5.50668 2.83999 4.83334 3.66666 4.83334H12.3333C13.16 4.83334 13.8333 5.50668 13.8333 6.33334V7.66668C13.8333 8.49334 13.16 9.16668 12.3333 9.16668ZM3.66666 5.83334C3.39332 5.83334 3.16666 6.06001 3.16666 6.33334V7.66668C3.16666 7.94001 3.39332 8.16668 3.66666 8.16668H12.3333C12.6067 8.16668 12.8333 7.94001 12.8333 7.66668V6.33334C12.8333 6.06001 12.6067 5.83334 12.3333 5.83334H3.66666Z" fill="currentColor"/>
<path d="M5.33332 12.5001C5.11332 12.5001 4.89999 12.4134 4.74666 12.2534C4.70666 12.2201 4.67333 12.1734 4.64 12.1267C4.61333 12.0867 4.58666 12.0334 4.56666 11.9867C4.54 11.9334 4.52666 11.8801 4.51332 11.8267C4.50666 11.7734 4.49999 11.7201 4.49999 11.6667C4.49999 11.6134 4.50666 11.5601 4.51332 11.5067C4.52666 11.4534 4.54 11.4001 4.56666 11.3467C4.58666 11.3001 4.61333 11.2467 4.64 11.2067C4.67333 11.1601 4.70666 11.1134 4.74666 11.0801C5.05332 10.7667 5.60666 10.7667 5.91999 11.0801C5.95999 11.1134 5.99332 11.1601 6.02665 11.2067C6.05332 11.2467 6.07998 11.3001 6.09998 11.3467C6.12665 11.4001 6.13999 11.4534 6.15332 11.5067C6.15999 11.5601 6.16666 11.6134 6.16666 11.6667C6.16666 11.7201 6.15999 11.7734 6.15332 11.8267C6.13999 11.8801 6.12665 11.9334 6.09998 11.9867C6.07998 12.0334 6.05332 12.0867 6.02665 12.1267C5.99332 12.1734 5.95999 12.2201 5.91999 12.2534C5.76666 12.4134 5.55332 12.5001 5.33332 12.5001Z" fill="currentColor"/>
<path d="M10.6667 12.5001C10.4467 12.5001 10.2333 12.4134 10.08 12.2534C9.91999 12.1001 9.83332 11.8867 9.83332 11.6667C9.83332 11.4467 9.91999 11.2334 10.08 11.0801C10.3867 10.7667 10.9467 10.7667 11.2533 11.0801C11.4133 11.2334 11.5 11.4467 11.5 11.6667C11.5 11.8867 11.4133 12.1001 11.2533 12.2534C11.1 12.4134 10.8867 12.5001 10.6667 12.5001Z" fill="currentColor"/>
<path d="M9.66666 3.83334H6.33332C6.05999 3.83334 5.83332 3.60668 5.83332 3.33334C5.83332 3.06001 6.05999 2.83334 6.33332 2.83334H9.66666C9.93999 2.83334 10.1667 3.06001 10.1667 3.33334C10.1667 3.60668 9.93999 3.83334 9.66666 3.83334Z" fill="currentColor"/>
</svg>
