<svg width="16" height="16" viewBox="0 0 16 16" fill="none" xmlns="http://www.w3.org/2000/svg">
<g clip-path="url(#clip0_2_4856)">
<path d="M10.3332 10.5C10.2132 10.5 10.0799 10.4933 9.95988 10.4867C9.71321 10.4733 9.51314 10.2733 9.49314 10.0267C9.34648 8.16666 7.83321 6.65998 5.97985 6.51332C5.73318 6.49332 5.53318 6.29333 5.51984 6.04666C5.51318 5.92666 5.50652 5.79333 5.50652 5.67333C5.50652 3.00666 7.67321 0.839996 10.3399 0.839996C13.0065 0.839996 15.1732 3.00666 15.1732 5.67333C15.1732 8.33999 12.9999 10.5 10.3332 10.5ZM6.49985 5.57332C8.48654 5.92665 10.0799 7.51332 10.4265 9.49999C12.4999 9.44666 14.1665 7.75332 14.1665 5.66666C14.1665 3.55332 12.4465 1.83332 10.3332 1.83332C8.25321 1.83332 6.55318 3.49998 6.49985 5.57332Z" fill="currentColor"/>
<path d="M5.66668 15.1667C3.00001 15.1667 0.833344 13 0.833344 10.3333C0.833344 7.66666 3.00001 5.49999 5.66668 5.49999C5.78668 5.49999 5.92001 5.50665 6.04001 5.51332C8.39334 5.69998 10.3 7.60666 10.48 9.94666C10.4867 10.08 10.4933 10.2133 10.4933 10.3333C10.5 13 8.33334 15.1667 5.66668 15.1667ZM5.66668 6.49999C3.55334 6.49999 1.83334 8.21999 1.83334 10.3333C1.83334 12.4467 3.55334 14.1667 5.66668 14.1667C7.78001 14.1667 9.50001 12.4467 9.50001 10.3333C9.50001 10.2267 9.49334 10.12 9.48668 10.0133C9.34001 8.16666 7.82668 6.65333 5.97334 6.50666C5.88 6.50666 5.77334 6.49999 5.66668 6.49999Z" fill="currentColor"/>
<path d="M5.66668 12.5C5.48668 12.5 5.31334 12.4 5.22668 12.24L4.70668 11.2933L3.76002 10.7733C3.60002 10.6867 3.50001 10.52 3.50001 10.3333C3.50001 10.1467 3.60002 9.97999 3.76002 9.89332L4.70668 9.37332L5.22668 8.42666C5.40001 8.10666 5.92668 8.10666 6.10668 8.42666L6.62668 9.37332L7.57334 9.89332C7.73334 9.97999 7.83334 10.1467 7.83334 10.3333C7.83334 10.52 7.73334 10.6867 7.57334 10.7733L6.62668 11.2933L6.10668 12.24C6.02001 12.4 5.84668 12.5 5.66668 12.5ZM5.04001 10.3333L5.31334 10.4867C5.40001 10.5333 5.46667 10.6 5.51334 10.6867L5.66668 10.96L5.82002 10.6867C5.86668 10.6 5.93334 10.5333 6.02001 10.4867L6.29334 10.3333L6.02001 10.18C5.93334 10.1333 5.86668 10.0667 5.82002 9.97999L5.66668 9.70666L5.51334 9.97999C5.46667 10.0667 5.40001 10.1333 5.31334 10.18L5.04001 10.3333Z" fill="currentColor"/>
</g>
<defs>
<clipPath id="clip0_2_4856">
<rect width="16" height="16" fill="currentColor"/>
</clipPath>
</defs>
</svg>
