<svg width="16" height="16" viewBox="0 0 16 16" fill="none" xmlns="http://www.w3.org/2000/svg">
<g clip-path="url(#clip0_2_5282)">
<path d="M14.6667 15.1667H1.33333C1.05999 15.1667 0.833328 14.94 0.833328 14.6667C0.833328 14.3933 1.05999 14.1667 1.33333 14.1667H14.6667C14.94 14.1667 15.1667 14.3933 15.1667 14.6667C15.1667 14.94 14.94 15.1667 14.6667 15.1667Z" fill="currentColor"/>
<path d="M13.9263 15.1667C13.6529 15.1667 13.4263 14.94 13.4263 14.6667V8.66668C13.4263 7.84001 12.6529 7.16668 11.7063 7.16668H4.29291C3.34624 7.16668 2.57291 7.84001 2.57291 8.66668V14.6667C2.57291 14.94 2.34624 15.1667 2.07291 15.1667C1.79958 15.1667 1.57291 14.94 1.57291 14.6667V8.66668C1.57291 7.28668 2.79291 6.16668 4.29291 6.16668H11.6996C13.1996 6.16668 14.4196 7.28668 14.4196 8.66668V14.6667C14.4263 14.94 14.1996 15.1667 13.9263 15.1667Z" fill="currentColor"/>
<path d="M12.2937 7.16668C12.0203 7.16668 11.7937 6.94001 11.7937 6.66668V4.78001C11.7937 4.26001 11.2937 3.83334 10.687 3.83334H5.32036C4.70703 3.83334 4.21369 4.26001 4.21369 4.78001V6.66668C4.21369 6.94001 3.98703 7.16668 3.71369 7.16668C3.44036 7.16668 3.20703 6.94001 3.20703 6.66668V4.78001C3.20703 3.70668 4.15369 2.83334 5.31369 2.83334H10.6803C11.8403 2.83334 12.787 3.70668 12.787 4.78001V6.66668C12.7937 6.94001 12.567 7.16668 12.2937 7.16668Z" fill="currentColor"/>
<path d="M11.5538 11.8333C10.7805 11.8333 10.1538 11.2067 10.1538 10.4333V10.2267C10.1538 10.0067 9.97379 9.82668 9.75379 9.82668C9.53379 9.82668 9.35379 10.0067 9.35379 10.2267V10.4333C9.35379 11.2067 8.72713 11.8333 7.95379 11.8333C7.18046 11.8333 6.55378 11.2067 6.55378 10.4333V10.2267C6.55378 10.0067 6.37378 9.82668 6.15378 9.82668C5.93378 9.82668 5.75378 10.0067 5.75378 10.2267V10.4333C5.75378 11.2067 5.12711 11.8333 4.35378 11.8333C3.58045 11.8333 2.95378 11.2067 2.95378 10.4333V10.2133C2.95378 10 2.78045 9.82001 2.56045 9.81334H2.31378C2.04045 9.80668 1.81378 9.58001 1.82045 9.30668C1.82711 9.03334 2.04711 8.81334 2.32045 8.81334H2.57378C3.33378 8.82668 3.95378 9.45334 3.95378 10.2133V10.4333C3.95378 10.6533 4.13378 10.8333 4.35378 10.8333C4.57378 10.8333 4.75378 10.6533 4.75378 10.4333V10.2267C4.75378 9.45334 5.38045 8.82668 6.15378 8.82668C6.92713 8.82668 7.55379 9.45334 7.55379 10.2267V10.4333C7.55379 10.6533 7.73379 10.8333 7.95379 10.8333C8.17379 10.8333 8.35379 10.6533 8.35379 10.4333V10.2267C8.35379 9.45334 8.98046 8.82668 9.75379 8.82668C10.5271 8.82668 11.1538 9.45334 11.1538 10.2267V10.4333C11.1538 10.6533 11.3338 10.8333 11.5538 10.8333C11.7738 10.8333 11.9538 10.6533 11.9538 10.4333V10.2267C11.9538 9.45334 12.5805 8.82668 13.3538 8.82668H13.6538C13.9271 8.82668 14.1538 9.05334 14.1538 9.32668C14.1538 9.60001 13.9271 9.82668 13.6538 9.82668H13.3538C13.1338 9.82668 12.9538 10.0067 12.9538 10.2267V10.4333C12.9538 11.2067 12.3271 11.8333 11.5538 11.8333Z" fill="currentColor"/>
<path d="M5.33333 3.83334C5.05999 3.83334 4.83333 3.60668 4.83333 3.33334V2.00001C4.83333 1.72668 5.05999 1.50001 5.33333 1.50001C5.60666 1.50001 5.83333 1.72668 5.83333 2.00001V3.33334C5.83333 3.60668 5.60666 3.83334 5.33333 3.83334Z" fill="currentColor"/>
<path d="M10.6667 3.83334C10.3933 3.83334 10.1667 3.60668 10.1667 3.33334V2.00001C10.1667 1.72668 10.3933 1.50001 10.6667 1.50001C10.94 1.50001 11.1667 1.72668 11.1667 2.00001V3.33334C11.1667 3.60668 10.94 3.83334 10.6667 3.83334Z" fill="currentColor"/>
<path d="M7.99999 3.83334C7.72666 3.83334 7.49999 3.60668 7.49999 3.33334V1.33334C7.49999 1.06001 7.72666 0.833344 7.99999 0.833344C8.27333 0.833344 8.49999 1.06001 8.49999 1.33334V3.33334C8.49999 3.60668 8.27333 3.83334 7.99999 3.83334Z" fill="currentColor"/>
</g>
<defs>
<clipPath id="clip0_2_5282">
<rect width="16" height="16" fill="currentColor"/>
</clipPath>
</defs>
</svg>
