<svg width="16" height="16" viewBox="0 0 16 16" fill="none" xmlns="http://www.w3.org/2000/svg">
<path d="M9.33333 15.1667H6.66667C3.04667 15.1667 1.5 13.62 1.5 10V6.00001C1.5 2.38001 3.04667 0.833344 6.66667 0.833344H9.33333C12.9533 0.833344 14.5 2.38001 14.5 6.00001V10C14.5 13.62 12.9533 15.1667 9.33333 15.1667ZM6.66667 1.83334C3.59333 1.83334 2.5 2.92668 2.5 6.00001V10C2.5 13.0733 3.59333 14.1667 6.66667 14.1667H9.33333C12.4067 14.1667 13.5 13.0733 13.5 10V6.00001C13.5 2.92668 12.4067 1.83334 9.33333 1.83334H6.66667Z" fill="currentColor"/>
<path d="M10 7.22008H6C5.17333 7.22008 4.5 6.54673 4.5 5.72006V5.0534C4.5 4.22673 5.17333 3.5534 6 3.5534H10C10.8267 3.5534 11.5 4.22673 11.5 5.0534V5.72006C11.5 6.54673 10.8267 7.22008 10 7.22008ZM6 4.5534C5.72667 4.5534 5.5 4.78006 5.5 5.0534V5.72006C5.5 5.9934 5.72667 6.22006 6 6.22006H10C10.2733 6.22006 10.5 5.9934 10.5 5.72006V5.0534C10.5 4.78006 10.2733 4.5534 10 4.5534H6Z" fill="currentColor"/>
<path d="M5.43344 9.94674C5.34677 9.94674 5.26011 9.92674 5.18011 9.89341C5.10011 9.86008 5.02677 9.81341 4.96677 9.75341C4.84011 9.62674 4.77344 9.46008 4.77344 9.28008C4.77344 9.19341 4.78677 9.10674 4.82011 9.02674C4.85344 8.94008 4.90011 8.87341 4.96677 8.80674C4.99344 8.78008 5.02677 8.74674 5.06677 8.72674C5.10011 8.70008 5.14011 8.68008 5.18011 8.66674C5.22011 8.64674 5.26677 8.63341 5.30677 8.62674C5.52011 8.58008 5.75344 8.65341 5.90677 8.80674C5.96677 8.86674 6.02011 8.94008 6.05344 9.02674C6.08677 9.10674 6.10677 9.19341 6.10677 9.28008C6.10677 9.46008 6.03344 9.62674 5.90677 9.75341C5.78011 9.88008 5.61344 9.94674 5.43344 9.94674Z" fill="currentColor"/>
<path d="M8.1068 9.94661C7.9268 9.94661 7.76013 9.87994 7.63347 9.75328C7.5068 9.62661 7.44013 9.45994 7.44013 9.27994C7.44013 9.19328 7.45347 9.10661 7.4868 9.02661C7.52013 8.93994 7.5668 8.87328 7.63347 8.80661C7.66013 8.77994 7.69347 8.74661 7.73347 8.72661C7.7668 8.69994 7.8068 8.67994 7.8468 8.66661C7.8868 8.64661 7.93347 8.63328 7.97347 8.62661C8.10013 8.59994 8.23347 8.61328 8.36013 8.66661C8.44013 8.69994 8.51347 8.74661 8.57347 8.80661C8.63347 8.87328 8.6868 8.93994 8.72013 9.02661C8.75347 9.10661 8.77347 9.19328 8.77347 9.27994C8.77347 9.45994 8.70013 9.62661 8.57347 9.75328C8.4468 9.87994 8.28013 9.94661 8.1068 9.94661Z" fill="currentColor"/>
<path d="M10.7668 9.94674C10.6801 9.94674 10.5935 9.92674 10.5135 9.89341C10.4335 9.86008 10.3601 9.81341 10.3001 9.75341C10.2335 9.68674 10.1868 9.61341 10.1535 9.53341C10.1201 9.45341 10.1068 9.36674 10.1068 9.28008C10.1068 9.19341 10.1201 9.10674 10.1535 9.02674C10.1868 8.94008 10.2335 8.87341 10.3001 8.80674C10.5468 8.56008 10.9935 8.56008 11.2401 8.80674C11.3668 8.93341 11.4401 9.10674 11.4401 9.28008C11.4401 9.46008 11.3668 9.62674 11.2401 9.75341C11.1201 9.87341 10.9535 9.94674 10.7668 9.94674Z" fill="currentColor"/>
<path d="M5.44026 12.6133C5.26026 12.6133 5.09359 12.5466 4.96693 12.4199C4.84026 12.2933 4.76693 12.1266 4.76693 11.9466C4.76693 11.7733 4.84026 11.5999 4.96693 11.4733C4.99359 11.4466 5.03359 11.4133 5.06693 11.3933C5.10026 11.3666 5.14026 11.3466 5.18026 11.3333C5.22026 11.3133 5.26693 11.2999 5.30693 11.2933C5.52693 11.2533 5.75359 11.3199 5.90693 11.4733C5.94026 11.5066 5.96693 11.5399 5.99359 11.5733C6.01359 11.6133 6.03359 11.6533 6.05359 11.6933C6.06693 11.7333 6.08026 11.7733 6.09359 11.8133C6.10026 11.8599 6.10693 11.8999 6.10693 11.9466C6.10693 12.1266 6.03359 12.2933 5.90693 12.4199C5.78026 12.5466 5.61359 12.6133 5.44026 12.6133Z" fill="currentColor"/>
<path d="M8.10693 12.6133C7.92693 12.6133 7.76027 12.5466 7.6336 12.4199C7.50693 12.2933 7.4336 12.1266 7.4336 11.9466C7.4336 11.7733 7.50693 11.5999 7.6336 11.4733C7.78693 11.3199 8.02027 11.2533 8.2336 11.2933C8.2736 11.2999 8.32027 11.3133 8.36027 11.3333C8.40027 11.3466 8.44027 11.3666 8.4736 11.3933C8.50693 11.4133 8.54027 11.4466 8.5736 11.4733C8.70027 11.5999 8.76693 11.7733 8.76693 11.9466C8.76693 12.1266 8.70027 12.2933 8.5736 12.4199C8.44693 12.5466 8.28027 12.6133 8.10693 12.6133Z" fill="currentColor"/>
<path d="M10.7668 12.6133C10.5935 12.6133 10.4268 12.5467 10.3001 12.42C10.1735 12.2933 10.1068 12.1267 10.1068 11.9467C10.1068 11.7733 10.1735 11.6 10.3001 11.4733C10.3601 11.4133 10.4335 11.3667 10.5135 11.3333C10.7601 11.2333 11.0601 11.2867 11.2401 11.4733C11.3668 11.6 11.4335 11.7733 11.4335 11.9467C11.4335 12.1267 11.3668 12.2933 11.2401 12.42C11.1801 12.48 11.1068 12.5267 11.0268 12.56C10.9468 12.5933 10.8601 12.6133 10.7668 12.6133Z" fill="currentColor"/>
</svg>
