<svg width="16" height="16" viewBox="0 0 16 16" fill="none" xmlns="http://www.w3.org/2000/svg">
<path d="M5.33333 3.83334C5.06 3.83334 4.83333 3.60668 4.83333 3.33334V1.33334C4.83333 1.06001 5.06 0.833344 5.33333 0.833344C5.60667 0.833344 5.83333 1.06001 5.83333 1.33334V3.33334C5.83333 3.60668 5.60667 3.83334 5.33333 3.83334Z" fill="currentColor"/>
<path d="M10.6667 3.83334C10.3933 3.83334 10.1667 3.60668 10.1667 3.33334V1.33334C10.1667 1.06001 10.3933 0.833344 10.6667 0.833344C10.94 0.833344 11.1667 1.06001 11.1667 1.33334V3.33334C11.1667 3.60668 10.94 3.83334 10.6667 3.83334Z" fill="currentColor"/>
<path d="M10 15.1667H6C2.25333 15.1667 1.5 13.4 1.5 10.5467V6.43334C1.5 3.27334 2.56667 1.98668 5.30667 1.83334H10.6667C10.6733 1.83334 10.6867 1.83334 10.6933 1.83334C13.4333 1.98668 14.5 3.27334 14.5 6.43334V10.5467C14.5 13.4 13.7467 15.1667 10 15.1667ZM5.33333 2.83334C3.46667 2.94001 2.5 3.52668 2.5 6.43334V10.5467C2.5 13.1 2.98667 14.1667 6 14.1667H10C13.0133 14.1667 13.5 13.1 13.5 10.5467V6.43334C13.5 3.53334 12.54 2.94001 10.6533 2.83334H5.33333Z" fill="currentColor"/>
<path d="M13.8333 12.2334H2.16667C1.89333 12.2334 1.66667 12.0067 1.66667 11.7334C1.66667 11.4601 1.89333 11.2334 2.16667 11.2334H13.8333C14.1067 11.2334 14.3333 11.4601 14.3333 11.7334C14.3333 12.0067 14.1067 12.2334 13.8333 12.2334Z" fill="currentColor"/>
<path d="M8 5.50001C7.18 5.50001 6.48667 5.94668 6.48667 6.81334C6.48667 7.22668 6.68 7.54001 6.97333 7.74001C6.56667 7.98001 6.33333 8.36668 6.33333 8.82001C6.33333 9.64668 6.96667 10.16 8 10.16C9.02667 10.16 9.66667 9.64668 9.66667 8.82001C9.66667 8.36668 9.43333 7.97334 9.02 7.74001C9.32 7.53334 9.50667 7.22668 9.50667 6.81334C9.50667 5.94668 8.82 5.50001 8 5.50001ZM8 7.39334C7.65333 7.39334 7.4 7.18668 7.4 6.86001C7.4 6.52668 7.65333 6.33334 8 6.33334C8.34667 6.33334 8.6 6.52668 8.6 6.86001C8.6 7.18668 8.34667 7.39334 8 7.39334ZM8 9.33334C7.56 9.33334 7.24 9.11334 7.24 8.71334C7.24 8.31334 7.56 8.10001 8 8.10001C8.44 8.10001 8.76 8.32001 8.76 8.71334C8.76 9.11334 8.44 9.33334 8 9.33334Z" fill="currentColor"/>
</svg>
