<svg width="16" height="16" viewBox="0 0 16 16" fill="none" xmlns="http://www.w3.org/2000/svg">
<path d="M5.33333 3.83334C5.06 3.83334 4.83333 3.60668 4.83333 3.33334V1.33334C4.83333 1.06001 5.06 0.833344 5.33333 0.833344C5.60667 0.833344 5.83333 1.06001 5.83333 1.33334V3.33334C5.83333 3.60668 5.60667 3.83334 5.33333 3.83334Z" fill="currentColor"/>
<path d="M10.6667 3.83334C10.3933 3.83334 10.1667 3.60668 10.1667 3.33334V1.33334C10.1667 1.06001 10.3933 0.833344 10.6667 0.833344C10.94 0.833344 11.1667 1.06001 11.1667 1.33334V3.33334C11.1667 3.60668 10.94 3.83334 10.6667 3.83334Z" fill="currentColor"/>
<path d="M5.66667 9.66661C5.49333 9.66661 5.32 9.59328 5.19333 9.47328C5.07333 9.34661 5 9.17994 5 8.99994C5 8.91328 5.02 8.82661 5.05333 8.74661C5.08667 8.66661 5.13333 8.59334 5.19333 8.52668C5.44 8.28001 5.88667 8.28001 6.14 8.52668C6.26 8.65334 6.33333 8.82661 6.33333 8.99994C6.33333 9.03994 6.32667 9.08668 6.32 9.13334C6.31333 9.17334 6.3 9.21328 6.28 9.25328C6.26667 9.29328 6.24667 9.33328 6.22 9.37328C6.19333 9.40661 6.16667 9.43994 6.14 9.47328C6.01333 9.59328 5.84 9.66661 5.66667 9.66661Z" fill="currentColor"/>
<path d="M8 9.66674C7.91333 9.66674 7.82667 9.64674 7.74667 9.61341C7.66 9.58008 7.59333 9.53341 7.52667 9.47341C7.40667 9.34674 7.33333 9.18008 7.33333 9.00008C7.33333 8.91341 7.35333 8.82674 7.38667 8.74674C7.42 8.66674 7.46667 8.59341 7.52667 8.52674C7.59333 8.46674 7.66 8.42008 7.74667 8.38674C7.99333 8.28674 8.28667 8.34008 8.47333 8.52674C8.59333 8.65341 8.66667 8.82674 8.66667 9.00008C8.66667 9.04008 8.66 9.08674 8.65333 9.13341C8.64667 9.17341 8.63333 9.21341 8.61333 9.25341C8.6 9.29341 8.58 9.33341 8.55333 9.37341C8.53333 9.40674 8.5 9.44008 8.47333 9.47341C8.34667 9.59341 8.17333 9.66674 8 9.66674Z" fill="currentColor"/>
<path d="M5.66667 12C5.58 12 5.49333 11.98 5.41333 11.9467C5.32667 11.9133 5.25333 11.8667 5.19333 11.8067C5.13333 11.7467 5.08667 11.6733 5.05333 11.5867C5.02 11.5067 5 11.42 5 11.3333C5 11.2467 5.02 11.16 5.05333 11.08C5.08667 10.9933 5.13333 10.92 5.19333 10.86C5.25333 10.8 5.32667 10.7533 5.41333 10.72C5.57333 10.6533 5.76 10.6467 5.92 10.72C6.00667 10.7533 6.08 10.8 6.14 10.86C6.2 10.92 6.24667 10.9933 6.28 11.08C6.31333 11.16 6.33333 11.2467 6.33333 11.3333C6.33333 11.42 6.31333 11.5067 6.28 11.5867C6.24667 11.6733 6.2 11.7467 6.14 11.8067C6.08 11.8667 6.00667 11.9133 5.92 11.9467C5.84 11.98 5.75333 12 5.66667 12Z" fill="currentColor"/>
<path d="M13.6667 6.5599H2.33333C2.06 6.5599 1.83333 6.33324 1.83333 6.0599C1.83333 5.78657 2.06 5.5599 2.33333 5.5599H13.6667C13.94 5.5599 14.1667 5.78657 14.1667 6.0599C14.1667 6.33324 13.94 6.5599 13.6667 6.5599Z" fill="currentColor"/>
<path d="M12 15.8333C11.22 15.8333 10.48 15.5533 9.91333 15.04C9.67333 14.84 9.46 14.5867 9.28667 14.2933C8.99333 13.8133 8.83333 13.2467 8.83333 12.6667C8.83333 10.92 10.2533 9.50001 12 9.50001C12.9067 9.50001 13.7733 9.89334 14.3733 10.5733C14.8867 11.16 15.1667 11.9 15.1667 12.6667C15.1667 13.2467 15.0067 13.8133 14.7067 14.3C14.1467 15.2467 13.1067 15.8333 12 15.8333ZM12 10.5C10.8067 10.5 9.83333 11.4733 9.83333 12.6667C9.83333 13.06 9.94 13.4467 10.1467 13.78C10.26 13.98 10.4067 14.1467 10.5667 14.2867C10.9667 14.6467 11.4667 14.8333 12 14.8333C12.7667 14.8333 13.46 14.44 13.8533 13.7867C14.06 13.4467 14.1667 13.0667 14.1667 12.6667C14.1667 12.1467 13.9733 11.64 13.6267 11.2333C13.2133 10.7667 12.62 10.5 12 10.5Z" fill="currentColor"/>
<path d="M11.6199 13.8267C11.4933 13.8267 11.3666 13.78 11.2666 13.68L10.6066 13.02C10.4133 12.8267 10.4133 12.5067 10.6066 12.3134C10.7999 12.1201 11.1199 12.1201 11.3133 12.3134L11.6333 12.6334L12.6999 11.6467C12.8999 11.4601 13.2199 11.4734 13.4066 11.6734C13.5933 11.8734 13.5799 12.1934 13.3799 12.3801L11.9599 13.6934C11.8599 13.7801 11.7399 13.8267 11.6199 13.8267Z" fill="currentColor"/>
<path d="M10.2467 15.1667H5.33333C2.9 15.1667 1.5 13.7667 1.5 11.3333V5.66668C1.5 3.23334 2.9 1.83334 5.33333 1.83334H10.6667C13.1 1.83334 14.5 3.23334 14.5 5.66668V10.9067C14.5 11.1133 14.3733 11.3 14.1733 11.3733C13.98 11.4467 13.76 11.3933 13.62 11.2333C13.2067 10.7667 12.6133 10.5 11.9933 10.5C10.8 10.5 9.82667 11.4733 9.82667 12.6667C9.82667 13.06 9.93333 13.4467 10.14 13.78C10.2533 13.98 10.4 14.1467 10.56 14.2867C10.72 14.42 10.78 14.64 10.7067 14.84C10.6467 15.0333 10.46 15.1667 10.2467 15.1667ZM5.33333 2.83334C3.42667 2.83334 2.5 3.76001 2.5 5.66668V11.3333C2.5 13.24 3.42667 14.1667 5.33333 14.1667H9.21333C8.96667 13.7133 8.83333 13.2 8.83333 12.6667C8.83333 10.92 10.2533 9.50001 12 9.50001C12.5267 9.50001 13.0467 9.63334 13.5 9.88001V5.66668C13.5 3.76001 12.5733 2.83334 10.6667 2.83334H5.33333Z" fill="currentColor"/>
</svg>
