<svg width="16" height="16" viewBox="0 0 16 16" fill="none" xmlns="http://www.w3.org/2000/svg">
<g clip-path="url(#clip0_2_4901)">
<path d="M8 15.1667C4.04667 15.1667 0.833333 11.9533 0.833333 8.00001C0.833333 4.04668 4.04667 0.833344 8 0.833344C11.9533 0.833344 15.1667 4.04668 15.1667 8.00001C15.1667 11.9533 11.9533 15.1667 8 15.1667ZM8 1.83334C4.6 1.83334 1.83333 4.60001 1.83333 8.00001C1.83333 11.4 4.6 14.1667 8 14.1667C11.4 14.1667 14.1667 11.4 14.1667 8.00001C14.1667 4.60001 11.4 1.83334 8 1.83334Z" fill="currentColor"/>
<path d="M6.59375 5.72006C6.32042 5.72006 6.09375 5.4934 6.09375 5.22006V3.88673C6.09375 3.6134 6.32042 3.38673 6.59375 3.38673C6.86707 3.38673 7.09373 3.6134 7.09373 3.88673V5.22006C7.09373 5.4934 6.87373 5.72006 6.59375 5.72006Z" fill="currentColor"/>
<path d="M9.40627 5.72006C9.13293 5.72006 8.90627 5.4934 8.90627 5.22006V3.88673C8.90627 3.6134 9.13293 3.38673 9.40627 3.38673C9.6796 3.38673 9.90627 3.6134 9.90627 3.88673V5.22006C9.90627 5.4934 9.6796 5.72006 9.40627 5.72006Z" fill="currentColor"/>
<path d="M10.9797 7.26008H5.01302C4.73969 7.26008 4.51302 7.03341 4.51302 6.76008C4.51302 6.48677 4.73969 6.2601 5.01302 6.2601H10.9797C11.253 6.2601 11.4797 6.48677 11.4797 6.76008C11.4797 7.03341 11.2597 7.26008 10.9797 7.26008Z" fill="currentColor"/>
<path d="M9 12.2799H7C5.16667 12.2799 3.83333 10.9466 3.83333 9.11328V7.11328C3.83333 5.27996 5.16667 3.94662 7 3.94662H9C10.8333 3.94662 12.1667 5.27996 12.1667 7.11328V9.11328C12.1667 10.9466 10.8333 12.2799 9 12.2799ZM7 4.94662C5.5 4.94662 4.83333 6.03329 4.83333 7.11328V9.11328C4.83333 10.1933 5.5 11.2799 7 11.2799H9C10.5 11.2799 11.1667 10.1933 11.1667 9.11328V7.11328C11.1667 6.03329 10.5 4.94662 9 4.94662H7Z" fill="currentColor"/>
</g>
<defs>
<clipPath id="clip0_2_4901">
<rect width="16" height="16" fill="currentColor"/>
</clipPath>
</defs>
</svg>
