<svg width="16" height="16" viewBox="0 0 16 16" fill="none" xmlns="http://www.w3.org/2000/svg">
<path d="M5.33333 3.83334C5.06 3.83334 4.83333 3.60668 4.83333 3.33334V1.33334C4.83333 1.06001 5.06 0.833344 5.33333 0.833344C5.60667 0.833344 5.83333 1.06001 5.83333 1.33334V3.33334C5.83333 3.60668 5.60667 3.83334 5.33333 3.83334Z" fill="currentColor"/>
<path d="M10.6667 3.83334C10.3933 3.83334 10.1667 3.60668 10.1667 3.33334V1.33334C10.1667 1.06001 10.3933 0.833344 10.6667 0.833344C10.94 0.833344 11.1667 1.06001 11.1667 1.33334V3.33334C11.1667 3.60668 10.94 3.83334 10.6667 3.83334Z" fill="currentColor"/>
<path d="M5.66667 9.66661C5.49333 9.66661 5.31999 9.59328 5.19333 9.47328C5.16666 9.43994 5.13333 9.40661 5.11333 9.37328C5.08667 9.33328 5.06667 9.29328 5.05333 9.25328C5.03333 9.21328 5.02 9.17334 5.01333 9.13334C5.00667 9.08668 5 9.03994 5 8.99994C5 8.82661 5.07333 8.65334 5.19333 8.52668C5.43999 8.28001 5.88667 8.28001 6.14001 8.52668C6.26001 8.65334 6.33333 8.82661 6.33333 8.99994C6.33333 9.03994 6.32667 9.08668 6.32 9.13334C6.31333 9.17334 6.3 9.21328 6.28 9.25328C6.26667 9.29328 6.24667 9.33328 6.22 9.37328C6.19333 9.40661 6.16667 9.43994 6.14001 9.47328C6.01334 9.59328 5.84 9.66661 5.66667 9.66661Z" fill="currentColor"/>
<path d="M8 9.66661C7.91333 9.66661 7.82667 9.64661 7.74667 9.61328C7.66 9.57994 7.58667 9.53328 7.52667 9.47328C7.5 9.43994 7.46667 9.40661 7.44667 9.37328C7.42 9.33328 7.4 9.29328 7.38667 9.25328C7.36667 9.21328 7.35333 9.17328 7.34667 9.13328C7.34 9.08661 7.33333 9.03994 7.33333 8.99994C7.33333 8.82661 7.40667 8.65328 7.52667 8.52661C7.58667 8.46661 7.66 8.41994 7.74667 8.38661C7.98667 8.27994 8.28667 8.33994 8.47333 8.52661C8.59333 8.65328 8.66667 8.82661 8.66667 8.99994C8.66667 9.03994 8.66 9.08661 8.65333 9.13328C8.64667 9.17328 8.63333 9.21328 8.61333 9.25328C8.6 9.29328 8.58 9.33328 8.55333 9.37328C8.52667 9.40661 8.5 9.43994 8.47333 9.47328C8.34667 9.59328 8.17333 9.66661 8 9.66661Z" fill="currentColor"/>
<path d="M5.66667 12C5.48667 12 5.31999 11.9267 5.19333 11.8067C5.07333 11.68 5 11.5067 5 11.3333C5 11.16 5.07333 10.9867 5.19333 10.86C5.22666 10.8333 5.26 10.8 5.29333 10.78C5.33333 10.7533 5.37333 10.7333 5.41333 10.72C5.45333 10.7 5.49333 10.6867 5.53333 10.68C5.66667 10.6533 5.8 10.6667 5.92 10.72C6.00667 10.7533 6.07334 10.8 6.14001 10.86C6.26001 10.9867 6.33333 11.16 6.33333 11.3333C6.33333 11.5067 6.26001 11.68 6.14001 11.8067C6.07334 11.8667 6.00667 11.9133 5.92 11.9467C5.84 11.98 5.75333 12 5.66667 12Z" fill="currentColor"/>
<path d="M13.6667 6.5599H2.33333C2.06 6.5599 1.83333 6.33324 1.83333 6.0599C1.83333 5.78657 2.06 5.5599 2.33333 5.5599H13.6667C13.94 5.5599 14.1667 5.78657 14.1667 6.0599C14.1667 6.33324 13.94 6.5599 13.6667 6.5599Z" fill="currentColor"/>
<path d="M12 15.8333C10.2533 15.8333 8.83333 14.4133 8.83333 12.6667C8.83333 10.92 10.2533 9.50001 12 9.50001C13.7467 9.50001 15.1667 10.92 15.1667 12.6667C15.1667 14.4133 13.7467 15.8333 12 15.8333ZM12 10.5C10.8067 10.5 9.83333 11.4733 9.83333 12.6667C9.83333 13.86 10.8067 14.8333 12 14.8333C13.1933 14.8333 14.1667 13.86 14.1667 12.6667C14.1667 11.4733 13.1933 10.5 12 10.5Z" fill="currentColor"/>
<path d="M12.7136 13.9066C12.5869 13.9066 12.4603 13.86 12.3603 13.76L10.9536 12.3533C10.7603 12.1599 10.7603 11.8399 10.9536 11.6466C11.1469 11.4533 11.4669 11.4533 11.6603 11.6466L13.0669 13.0533C13.2603 13.2466 13.2603 13.5667 13.0669 13.76C12.9669 13.86 12.8403 13.9066 12.7136 13.9066Z" fill="currentColor"/>
<path d="M11.2867 13.9267C11.1601 13.9267 11.0334 13.88 10.9334 13.78C10.7401 13.5867 10.7401 13.2667 10.9334 13.0733L12.3401 11.6667C12.5334 11.4733 12.8534 11.4733 13.0467 11.6667C13.2401 11.86 13.2401 12.18 13.0467 12.3733L11.6401 13.78C11.5401 13.8733 11.4134 13.9267 11.2867 13.9267Z" fill="currentColor"/>
<path d="M10.2467 15.1667H5.33333C2.9 15.1667 1.5 13.7667 1.5 11.3333V5.66668C1.5 3.23334 2.9 1.83334 5.33333 1.83334H10.6667C13.1 1.83334 14.5 3.23334 14.5 5.66668V10.9067C14.5 11.1133 14.3733 11.3 14.1733 11.3733C13.98 11.4467 13.76 11.3933 13.62 11.2333C13.2067 10.7667 12.6133 10.5 11.9933 10.5C10.8 10.5 9.82667 11.4733 9.82667 12.6667C9.82667 13.06 9.93333 13.4467 10.14 13.78C10.2533 13.98 10.4 14.1467 10.56 14.2867C10.72 14.42 10.78 14.64 10.7067 14.84C10.6467 15.0333 10.46 15.1667 10.2467 15.1667ZM5.33333 2.83334C3.42667 2.83334 2.5 3.76001 2.5 5.66668V11.3333C2.5 13.24 3.42667 14.1667 5.33333 14.1667H9.21333C8.96667 13.7133 8.83333 13.2 8.83333 12.6667C8.83333 10.92 10.2533 9.50001 12 9.50001C12.5267 9.50001 13.0467 9.63334 13.5 9.88001V5.66668C13.5 3.76001 12.5733 2.83334 10.6667 2.83334H5.33333Z" fill="currentColor"/>
</svg>
