<svg width="16" height="16" viewBox="0 0 16 16" fill="none" xmlns="http://www.w3.org/2000/svg">
<path d="M5.33333 3.83334C5.06 3.83334 4.83333 3.60668 4.83333 3.33334V1.33334C4.83333 1.06001 5.06 0.833344 5.33333 0.833344C5.60667 0.833344 5.83333 1.06001 5.83333 1.33334V3.33334C5.83333 3.60668 5.60667 3.83334 5.33333 3.83334Z" fill="currentColor"/>
<path d="M10.6667 3.83334C10.3933 3.83334 10.1667 3.60668 10.1667 3.33334V1.33334C10.1667 1.06001 10.3933 0.833344 10.6667 0.833344C10.94 0.833344 11.1667 1.06001 11.1667 1.33334V3.33334C11.1667 3.60668 10.94 3.83334 10.6667 3.83334Z" fill="currentColor"/>
<path d="M12.1333 14.7667C10.68 14.7667 9.5 13.5867 9.5 12.1333C9.5 10.68 10.68 9.50001 12.1333 9.50001C13.5867 9.50001 14.7667 10.68 14.7667 12.1333C14.7667 13.5867 13.5867 14.7667 12.1333 14.7667ZM12.1333 10.5C11.2333 10.5 10.5 11.2333 10.5 12.1333C10.5 13.0333 11.2333 13.7667 12.1333 13.7667C13.0333 13.7667 13.7667 13.0333 13.7667 12.1333C13.7667 11.2333 13.0333 10.5 12.1333 10.5Z" fill="currentColor"/>
<path d="M14.6663 15.1666C14.5397 15.1666 14.413 15.1199 14.313 15.0199L13.6463 14.3533C13.453 14.1599 13.453 13.8399 13.6463 13.6466C13.8397 13.4533 14.1597 13.4533 14.353 13.6466L15.0197 14.3133C15.213 14.5066 15.213 14.8266 15.0197 15.0199C14.9197 15.1199 14.793 15.1666 14.6663 15.1666Z" fill="currentColor"/>
<path d="M5.66667 9.66661C5.58 9.66661 5.49333 9.64661 5.41333 9.61328C5.32667 9.57994 5.25333 9.53328 5.19333 9.47328C5.16666 9.43994 5.13333 9.40661 5.11333 9.37328C5.08667 9.33328 5.06667 9.29328 5.05333 9.25328C5.03333 9.21328 5.02 9.17328 5.01333 9.13328C5.00667 9.08661 5 9.03994 5 8.99994C5 8.82661 5.07333 8.65328 5.19333 8.52661C5.25333 8.46661 5.32667 8.41994 5.41333 8.38661C5.65333 8.27994 5.95334 8.33994 6.14001 8.52661C6.26001 8.65328 6.33333 8.82661 6.33333 8.99994C6.33333 9.03994 6.32667 9.08661 6.32 9.13328C6.31333 9.17328 6.3 9.21328 6.28 9.25328C6.26667 9.29328 6.24667 9.33328 6.22 9.37328C6.19333 9.40661 6.16667 9.43994 6.14001 9.47328C6.01334 9.59328 5.84 9.66661 5.66667 9.66661Z" fill="currentColor"/>
<path d="M8 9.66661C7.82667 9.66661 7.65333 9.59328 7.52667 9.47328C7.40667 9.34661 7.33333 9.17994 7.33333 8.99994C7.33333 8.91328 7.35333 8.82661 7.38667 8.74661C7.42 8.66661 7.46667 8.59334 7.52667 8.52668C7.77333 8.28001 8.22 8.28001 8.47333 8.52668C8.59333 8.65334 8.66667 8.82661 8.66667 8.99994C8.66667 9.03994 8.66 9.08668 8.65333 9.13334C8.64667 9.17334 8.63333 9.21328 8.61333 9.25328C8.6 9.29328 8.58 9.33328 8.55333 9.37328C8.52667 9.40661 8.5 9.43994 8.47333 9.47328C8.34667 9.59328 8.17333 9.66661 8 9.66661Z" fill="currentColor"/>
<path d="M5.66667 11.9999C5.49333 11.9999 5.31999 11.9266 5.19333 11.8066C5.07333 11.6799 5 11.5066 5 11.3333C5 11.2466 5.02 11.1599 5.05333 11.0799C5.08667 10.9933 5.13333 10.92 5.19333 10.86C5.43999 10.6133 5.89334 10.6133 6.14001 10.86C6.26001 10.9867 6.33333 11.1599 6.33333 11.3333C6.33333 11.5066 6.26001 11.6799 6.14001 11.8066C6.01334 11.9266 5.84 11.9999 5.66667 11.9999Z" fill="currentColor"/>
<path d="M13.6667 6.5599H2.33333C2.06 6.5599 1.83333 6.33324 1.83333 6.0599C1.83333 5.78657 2.06 5.5599 2.33333 5.5599H13.6667C13.94 5.5599 14.1667 5.78657 14.1667 6.0599C14.1667 6.33324 13.94 6.5599 13.6667 6.5599Z" fill="currentColor"/>
<path d="M8.91333 15.1667H5.33333C2.9 15.1667 1.5 13.7667 1.5 11.3333V5.66668C1.5 3.23334 2.9 1.83334 5.33333 1.83334H10.6667C13.1 1.83334 14.5 3.23334 14.5 5.66668V8.66668C14.5 8.94001 14.2733 9.16668 14 9.16668C13.7267 9.16668 13.5 8.94001 13.5 8.66668V5.66668C13.5 3.76001 12.5733 2.83334 10.6667 2.83334H5.33333C3.42667 2.83334 2.5 3.76001 2.5 5.66668V11.3333C2.5 13.24 3.42667 14.1667 5.33333 14.1667H8.91333C9.18667 14.1667 9.41333 14.3933 9.41333 14.6667C9.41333 14.94 9.18667 15.1667 8.91333 15.1667Z" fill="currentColor"/>
</svg>
