<svg width="16" height="16" viewBox="0 0 16 16" fill="none" xmlns="http://www.w3.org/2000/svg">
<path d="M5.33333 3.83334C5.06 3.83334 4.83333 3.60668 4.83333 3.33334V1.33334C4.83333 1.06001 5.06 0.833344 5.33333 0.833344C5.60667 0.833344 5.83333 1.06001 5.83333 1.33334V3.33334C5.83333 3.60668 5.60667 3.83334 5.33333 3.83334Z" fill="currentColor"/>
<path d="M10.6667 3.83334C10.3933 3.83334 10.1667 3.60668 10.1667 3.33334V1.33334C10.1667 1.06001 10.3933 0.833344 10.6667 0.833344C10.94 0.833344 11.1667 1.06001 11.1667 1.33334V3.33334C11.1667 3.60668 10.94 3.83334 10.6667 3.83334Z" fill="currentColor"/>
<path d="M5.66667 9.66674C5.58 9.66674 5.49333 9.64674 5.41333 9.61341C5.32667 9.58008 5.26 9.53341 5.19333 9.47341C5.07333 9.34674 5 9.18008 5 9.00008C5 8.91341 5.02 8.82674 5.05333 8.74674C5.08667 8.66674 5.13333 8.59341 5.19333 8.52674C5.26 8.46674 5.32667 8.42008 5.41333 8.38674C5.65333 8.28674 5.95333 8.34008 6.14 8.52674C6.26 8.65341 6.33333 8.82674 6.33333 9.00008C6.33333 9.04008 6.32667 9.08674 6.32 9.13341C6.31333 9.17341 6.3 9.21341 6.28 9.25341C6.26667 9.29341 6.24667 9.33341 6.22 9.37341C6.2 9.40674 6.16667 9.44008 6.14 9.47341C6.01333 9.59341 5.84 9.66674 5.66667 9.66674Z" fill="currentColor"/>
<path d="M8 9.66661C7.91333 9.66661 7.82667 9.64661 7.74667 9.61328C7.66 9.57994 7.59333 9.53328 7.52667 9.47328C7.40667 9.34661 7.33333 9.17994 7.33333 8.99994C7.33333 8.91328 7.35333 8.82661 7.38667 8.74661C7.42 8.66661 7.46667 8.59328 7.52667 8.52661C7.59333 8.46661 7.66 8.41994 7.74667 8.38661C7.98667 8.27994 8.28667 8.33994 8.47333 8.52661C8.59333 8.65328 8.66667 8.82661 8.66667 8.99994C8.66667 9.03994 8.66 9.08661 8.65333 9.13328C8.64667 9.17328 8.63333 9.21328 8.61333 9.25328C8.6 9.29328 8.58 9.33328 8.55333 9.37328C8.53333 9.40661 8.5 9.43994 8.47333 9.47328C8.34667 9.59328 8.17333 9.66661 8 9.66661Z" fill="currentColor"/>
<path d="M10.3333 9.66661C10.2467 9.66661 10.16 9.64661 10.08 9.61328C9.99333 9.57994 9.92667 9.53328 9.86 9.47328C9.83333 9.43994 9.80667 9.40661 9.78 9.37328C9.75333 9.33328 9.73333 9.29328 9.72 9.25328C9.7 9.21328 9.68667 9.17328 9.68 9.13328C9.67333 9.08661 9.66667 9.03994 9.66667 8.99994C9.66667 8.82661 9.74 8.65328 9.86 8.52661C9.92667 8.46661 9.99333 8.41994 10.08 8.38661C10.3267 8.27994 10.62 8.33994 10.8067 8.52661C10.9267 8.65328 11 8.82661 11 8.99994C11 9.03994 10.9933 9.08661 10.9867 9.13328C10.98 9.17328 10.9667 9.21328 10.9467 9.25328C10.9333 9.29328 10.9133 9.33328 10.8867 9.37328C10.8667 9.40661 10.8333 9.43994 10.8067 9.47328C10.68 9.59328 10.5067 9.66661 10.3333 9.66661Z" fill="currentColor"/>
<path d="M5.66667 11.9999C5.58 11.9999 5.49333 11.98 5.41333 11.9467C5.33333 11.9133 5.26 11.8666 5.19333 11.8066C5.07333 11.6799 5 11.5066 5 11.3333C5 11.2466 5.02 11.1599 5.05333 11.0799C5.08667 10.9933 5.13333 10.92 5.19333 10.86C5.44 10.6133 5.89333 10.6133 6.14 10.86C6.26 10.9867 6.33333 11.1599 6.33333 11.3333C6.33333 11.5066 6.26 11.6799 6.14 11.8066C6.01333 11.9266 5.84 11.9999 5.66667 11.9999Z" fill="currentColor"/>
<path d="M8 11.9999C7.82667 11.9999 7.65333 11.9266 7.52667 11.8066C7.40667 11.6799 7.33333 11.5066 7.33333 11.3333C7.33333 11.2466 7.35333 11.1599 7.38667 11.0799C7.42 10.9933 7.46667 10.92 7.52667 10.86C7.77333 10.6133 8.22667 10.6133 8.47333 10.86C8.53333 10.92 8.58 10.9933 8.61333 11.0799C8.64667 11.1599 8.66667 11.2466 8.66667 11.3333C8.66667 11.5066 8.59333 11.6799 8.47333 11.8066C8.34667 11.9266 8.17333 11.9999 8 11.9999Z" fill="currentColor"/>
<path d="M10.3333 11.9999C10.16 11.9999 9.98667 11.9266 9.86 11.8066C9.8 11.7466 9.75333 11.6733 9.72 11.5866C9.68667 11.5066 9.66667 11.4199 9.66667 11.3333C9.66667 11.2466 9.68667 11.1599 9.72 11.0799C9.75333 10.9933 9.8 10.9199 9.86 10.8599C10.0133 10.7066 10.2467 10.6333 10.46 10.6799C10.5067 10.6866 10.5467 10.6999 10.5867 10.7199C10.6267 10.7333 10.6667 10.7533 10.7067 10.7799C10.74 10.7999 10.7733 10.8333 10.8067 10.8599C10.9267 10.9866 11 11.1599 11 11.3333C11 11.5066 10.9267 11.6799 10.8067 11.8066C10.68 11.9266 10.5067 11.9999 10.3333 11.9999Z" fill="currentColor"/>
<path d="M13.6667 6.5599H2.33333C2.06 6.5599 1.83333 6.33324 1.83333 6.0599C1.83333 5.78657 2.06 5.5599 2.33333 5.5599H13.6667C13.94 5.5599 14.1667 5.78657 14.1667 6.0599C14.1667 6.33324 13.94 6.5599 13.6667 6.5599Z" fill="currentColor"/>
<path d="M10.6667 15.1667H5.33333C2.9 15.1667 1.5 13.7667 1.5 11.3333V5.66668C1.5 3.23334 2.9 1.83334 5.33333 1.83334H10.6667C13.1 1.83334 14.5 3.23334 14.5 5.66668V11.3333C14.5 13.7667 13.1 15.1667 10.6667 15.1667ZM5.33333 2.83334C3.42667 2.83334 2.5 3.76001 2.5 5.66668V11.3333C2.5 13.24 3.42667 14.1667 5.33333 14.1667H10.6667C12.5733 14.1667 13.5 13.24 13.5 11.3333V5.66668C13.5 3.76001 12.5733 2.83334 10.6667 2.83334H5.33333Z" fill="currentColor"/>
</svg>
