<svg width="16" height="16" viewBox="0 0 16 16" fill="none" xmlns="http://www.w3.org/2000/svg">
<path d="M5.33333 3.83334C5.06 3.83334 4.83333 3.60668 4.83333 3.33334V1.33334C4.83333 1.06001 5.06 0.833344 5.33333 0.833344C5.60667 0.833344 5.83333 1.06001 5.83333 1.33334V3.33334C5.83333 3.60668 5.60667 3.83334 5.33333 3.83334Z" fill="currentColor"/>
<path d="M10.6667 3.83334C10.3933 3.83334 10.1667 3.60668 10.1667 3.33334V1.33334C10.1667 1.06001 10.3933 0.833344 10.6667 0.833344C10.94 0.833344 11.1667 1.06001 11.1667 1.33334V3.33334C11.1667 3.60668 10.94 3.83334 10.6667 3.83334Z" fill="currentColor"/>
<path d="M5.66667 9.66661C5.58 9.66661 5.49333 9.64661 5.41333 9.61328C5.32667 9.57994 5.26001 9.53328 5.19334 9.47328C5.07334 9.34661 5 9.17328 5 8.99994C5 8.82661 5.07334 8.65328 5.19334 8.52661C5.26001 8.46661 5.33333 8.41994 5.41333 8.38661C5.57333 8.31994 5.76 8.31994 5.92 8.38661C6 8.41994 6.07333 8.46661 6.13999 8.52661C6.16666 8.55994 6.19999 8.59328 6.21999 8.62661C6.24666 8.66661 6.26667 8.70661 6.28001 8.74661C6.30001 8.78661 6.31334 8.82661 6.32001 8.86661C6.32667 8.91328 6.33333 8.95994 6.33333 8.99994C6.33333 9.17328 6.25999 9.34661 6.13999 9.47328C6.07333 9.53328 6 9.57994 5.92 9.61328C5.84 9.64661 5.75333 9.66661 5.66667 9.66661Z" fill="currentColor"/>
<path d="M8 9.66661C7.91333 9.66661 7.82667 9.64668 7.74667 9.61334C7.66 9.58001 7.59333 9.53328 7.52667 9.47328C7.40667 9.34661 7.33333 9.17328 7.33333 8.99994C7.33333 8.95994 7.34 8.91328 7.34667 8.86661C7.35333 8.82661 7.36667 8.78661 7.38667 8.74661C7.4 8.70661 7.42 8.66661 7.44667 8.62661C7.47333 8.59328 7.5 8.56001 7.52667 8.52668C7.77333 8.28001 8.22 8.28001 8.47333 8.52668C8.5 8.56001 8.52667 8.59328 8.55333 8.62661C8.58 8.66661 8.6 8.70661 8.61333 8.74661C8.63333 8.78661 8.64667 8.82661 8.65333 8.86661C8.66 8.91328 8.66667 8.95994 8.66667 8.99994C8.66667 9.17328 8.59333 9.34661 8.47333 9.47328C8.34667 9.59328 8.18 9.66661 8 9.66661Z" fill="currentColor"/>
<path d="M5.66667 11.9999C5.58 11.9999 5.49333 11.9799 5.41333 11.9466C5.33333 11.9133 5.26001 11.8666 5.19334 11.8066C5.07334 11.6799 5 11.5066 5 11.3333C5 11.2933 5.00666 11.2466 5.01333 11.2066C5.01999 11.1599 5.03333 11.1199 5.05333 11.0799C5.06666 11.0399 5.08667 10.9999 5.11334 10.9599C5.13334 10.9266 5.16667 10.8933 5.19334 10.8599C5.26001 10.7999 5.33333 10.7533 5.41333 10.7199C5.57333 10.6533 5.76 10.6533 5.92 10.7199C6 10.7533 6.07333 10.7999 6.13999 10.8599C6.16666 10.8933 6.19999 10.9266 6.21999 10.9599C6.24666 10.9999 6.26667 11.0399 6.28001 11.0799C6.30001 11.1199 6.31334 11.1599 6.32001 11.2066C6.32667 11.2466 6.33333 11.2933 6.33333 11.3333C6.33333 11.5066 6.25999 11.6799 6.13999 11.8066C6.07333 11.8666 6 11.9133 5.92 11.9466C5.84 11.9799 5.75333 11.9999 5.66667 11.9999Z" fill="currentColor"/>
<path d="M13.6667 6.5599H2.33333C2.06 6.5599 1.83333 6.33324 1.83333 6.0599C1.83333 5.78657 2.06 5.5599 2.33333 5.5599H13.6667C13.94 5.5599 14.1667 5.78657 14.1667 6.0599C14.1667 6.33324 13.94 6.5599 13.6667 6.5599Z" fill="currentColor"/>
<path d="M10.5464 15.1867C10.2931 15.1867 10.0531 15.0934 9.87973 14.9201C9.67307 14.7134 9.57973 14.4134 9.6264 14.1001L9.75307 13.2001C9.7864 12.9667 9.9264 12.6867 10.0931 12.5201L12.4531 10.1601C12.7731 9.84008 13.0864 9.67341 13.4264 9.64008C13.8464 9.60008 14.2531 9.77341 14.6397 10.1601C15.0464 10.5667 15.5931 11.3934 14.6397 12.3467L12.2797 14.7067C12.1131 14.8734 11.8331 15.0134 11.5997 15.0467L10.6997 15.1734C10.6463 15.1801 10.5997 15.1867 10.5464 15.1867ZM13.5397 10.6334C13.5331 10.6334 13.5264 10.6334 13.5197 10.6334C13.4264 10.6401 13.2997 10.7267 13.1597 10.8667L10.7997 13.2267C10.7797 13.2467 10.7464 13.3134 10.7464 13.3401L10.6264 14.1734L11.4597 14.0534C11.4864 14.0467 11.553 14.0134 11.573 13.9934L13.9331 11.6334C14.2264 11.3401 14.2664 11.1934 13.9331 10.8601C13.8264 10.7601 13.6731 10.6334 13.5397 10.6334Z" fill="currentColor"/>
<path d="M13.9471 12.8333C13.9004 12.8333 13.8537 12.8266 13.8137 12.8133C12.9337 12.5666 12.2337 11.8666 11.9871 10.9866C11.9137 10.7199 12.0671 10.4466 12.3337 10.3666C12.6004 10.2933 12.8737 10.4466 12.9537 10.7133C13.1071 11.2599 13.5404 11.6933 14.0871 11.8466C14.3537 11.9199 14.5071 12.1999 14.4337 12.4666C14.3671 12.6866 14.1671 12.8333 13.9471 12.8333Z" fill="currentColor"/>
<path d="M8 15.1667H5.33333C2.9 15.1667 1.5 13.7667 1.5 11.3333V5.66668C1.5 3.23334 2.9 1.83334 5.33333 1.83334H10.6667C13.1 1.83334 14.5 3.23334 14.5 5.66668V8.00001C14.5 8.27334 14.2733 8.50001 14 8.50001C13.7267 8.50001 13.5 8.27334 13.5 8.00001V5.66668C13.5 3.76001 12.5733 2.83334 10.6667 2.83334H5.33333C3.42667 2.83334 2.5 3.76001 2.5 5.66668V11.3333C2.5 13.24 3.42667 14.1667 5.33333 14.1667H8C8.27333 14.1667 8.5 14.3933 8.5 14.6667C8.5 14.94 8.27333 15.1667 8 15.1667Z" fill="currentColor"/>
</svg>
