<svg width="16" height="16" viewBox="0 0 16 16" fill="none" xmlns="http://www.w3.org/2000/svg">
<path d="M5.33333 3.83334C5.06 3.83334 4.83333 3.60668 4.83333 3.33334V1.33334C4.83333 1.06001 5.06 0.833344 5.33333 0.833344C5.60667 0.833344 5.83333 1.06001 5.83333 1.33334V3.33334C5.83333 3.60668 5.60667 3.83334 5.33333 3.83334Z" fill="currentColor"/>
<path d="M10.6667 3.83334C10.3933 3.83334 10.1667 3.60668 10.1667 3.33334V1.33334C10.1667 1.06001 10.3933 0.833344 10.6667 0.833344C10.94 0.833344 11.1667 1.06001 11.1667 1.33334V3.33334C11.1667 3.60668 10.94 3.83334 10.6667 3.83334Z" fill="currentColor"/>
<path d="M13.6667 6.5599H2.33333C2.06 6.5599 1.83333 6.33324 1.83333 6.0599C1.83333 5.78657 2.06 5.5599 2.33333 5.5599H13.6667C13.94 5.5599 14.1667 5.78657 14.1667 6.0599C14.1667 6.33324 13.94 6.5599 13.6667 6.5599Z" fill="currentColor"/>
<path d="M10.6667 15.1667H5.33333C2.9 15.1667 1.5 13.7667 1.5 11.3333V5.66668C1.5 3.23334 2.9 1.83334 5.33333 1.83334H10.6667C13.1 1.83334 14.5 3.23334 14.5 5.66668V11.3333C14.5 13.7667 13.1 15.1667 10.6667 15.1667ZM5.33333 2.83334C3.42667 2.83334 2.5 3.76001 2.5 5.66668V11.3333C2.5 13.24 3.42667 14.1667 5.33333 14.1667H10.6667C12.5733 14.1667 13.5 13.24 13.5 11.3333V5.66668C13.5 3.76001 12.5733 2.83334 10.6667 2.83334H5.33333Z" fill="currentColor"/>
<path d="M5.66667 9.66668C5.58 9.66668 5.49333 9.64668 5.41333 9.61334C5.33333 9.58001 5.26001 9.53334 5.19334 9.47334C5.13334 9.40668 5.08666 9.33334 5.05333 9.25334C5.01999 9.17334 5 9.08668 5 9.00001C5 8.82668 5.07334 8.65334 5.19334 8.52668C5.26001 8.46668 5.33333 8.42001 5.41333 8.38668C5.53333 8.33334 5.66667 8.32001 5.80001 8.34668C5.84001 8.35334 5.88 8.36668 5.92 8.38668C5.96 8.40001 6 8.42001 6.04 8.44668C6.07333 8.47334 6.10666 8.50001 6.13999 8.52668C6.16666 8.56001 6.19999 8.59334 6.21999 8.62668C6.24666 8.66668 6.26667 8.70668 6.28001 8.74668C6.30001 8.78668 6.31334 8.82668 6.32001 8.86668C6.32667 8.91334 6.33333 8.95334 6.33333 9.00001C6.33333 9.17334 6.25999 9.34668 6.13999 9.47334C6.01333 9.59334 5.84 9.66668 5.66667 9.66668Z" fill="currentColor"/>
<path d="M8 9.66661C7.82667 9.66661 7.65333 9.59328 7.52667 9.47328C7.5 9.43994 7.47333 9.40661 7.44667 9.37328C7.42 9.33328 7.4 9.29328 7.38667 9.25328C7.36667 9.21328 7.35333 9.17328 7.34667 9.13328C7.34 9.08661 7.33333 9.04661 7.33333 8.99994C7.33333 8.91328 7.35333 8.82661 7.38667 8.74661C7.42 8.66661 7.46667 8.59328 7.52667 8.52661C7.71333 8.33994 8.01333 8.27994 8.25333 8.38661C8.34 8.41994 8.40667 8.46661 8.47333 8.52661C8.59333 8.65328 8.66667 8.82661 8.66667 8.99994C8.66667 9.04661 8.66 9.08661 8.65333 9.13328C8.64667 9.17328 8.63333 9.21328 8.61333 9.25328C8.6 9.29328 8.58 9.33328 8.55333 9.37328C8.52667 9.40661 8.5 9.43994 8.47333 9.47328C8.40667 9.53328 8.34 9.57994 8.25333 9.61328C8.17333 9.64661 8.08667 9.66661 8 9.66661Z" fill="currentColor"/>
<path d="M5.66667 11.9999C5.58 11.9999 5.49333 11.9799 5.41333 11.9466C5.33333 11.9133 5.26001 11.8666 5.19334 11.8066C5.13334 11.7399 5.08666 11.6733 5.05333 11.5866C5.01999 11.5066 5 11.4199 5 11.3333C5 11.1599 5.07334 10.9866 5.19334 10.8599C5.26001 10.7999 5.33333 10.7533 5.41333 10.7199C5.66 10.6133 5.95333 10.6733 6.13999 10.8599C6.16666 10.8933 6.19999 10.9266 6.21999 10.9599C6.24666 10.9999 6.26667 11.0399 6.28001 11.0799C6.30001 11.1199 6.31334 11.1599 6.32001 11.2066C6.32667 11.2466 6.33333 11.2933 6.33333 11.3333C6.33333 11.5066 6.25999 11.6799 6.13999 11.8066C6.01333 11.9266 5.84 11.9999 5.66667 11.9999Z" fill="currentColor"/>
</svg>
