<svg width="16" height="16" viewBox="0 0 16 16" fill="none" xmlns="http://www.w3.org/2000/svg">
<path d="M5.33333 3.83334C5.06 3.83334 4.83333 3.60668 4.83333 3.33334V1.33334C4.83333 1.06001 5.06 0.833344 5.33333 0.833344C5.60667 0.833344 5.83333 1.06001 5.83333 1.33334V3.33334C5.83333 3.60668 5.60667 3.83334 5.33333 3.83334Z" fill="currentColor"/>
<path d="M10.6667 3.83334C10.3933 3.83334 10.1667 3.60668 10.1667 3.33334V1.33334C10.1667 1.06001 10.3933 0.833344 10.6667 0.833344C10.94 0.833344 11.1667 1.06001 11.1667 1.33334V3.33334C11.1667 3.60668 10.94 3.83334 10.6667 3.83334Z" fill="currentColor"/>
<path d="M5.66667 9.66674C5.58 9.66674 5.49333 9.65341 5.41333 9.61341C5.33333 9.58008 5.25999 9.53341 5.19333 9.47341C5.07333 9.34674 5 9.17341 5 9.00008C5 8.91341 5.02 8.82674 5.05333 8.74674C5.08667 8.66674 5.13333 8.59341 5.19333 8.52674C5.25999 8.46674 5.33333 8.42008 5.41333 8.38674C5.65333 8.28674 5.95334 8.34008 6.14001 8.52674C6.20001 8.59341 6.24667 8.66674 6.28 8.74674C6.31333 8.82674 6.33333 8.91341 6.33333 9.00008C6.33333 9.17341 6.26001 9.34674 6.14001 9.47341C6.01334 9.59341 5.84 9.66674 5.66667 9.66674Z" fill="currentColor"/>
<path d="M8 9.66661C7.82667 9.66661 7.65333 9.59328 7.52667 9.47328C7.46667 9.40661 7.42 9.33328 7.38667 9.25328C7.35333 9.17328 7.33333 9.08661 7.33333 8.99994C7.33333 8.82661 7.40667 8.65328 7.52667 8.52661C7.71333 8.33994 8.00667 8.27994 8.25333 8.38661C8.33333 8.41994 8.40667 8.46661 8.47333 8.52661C8.59333 8.65328 8.66667 8.82661 8.66667 8.99994C8.66667 9.08661 8.65333 9.17328 8.61333 9.25328C8.58 9.33328 8.53333 9.40661 8.47333 9.47328C8.40667 9.53328 8.33333 9.57994 8.25333 9.61328C8.17333 9.65328 8.08667 9.66661 8 9.66661Z" fill="currentColor"/>
<path d="M5.66667 11.9999C5.58 11.9999 5.49333 11.9799 5.41333 11.9466C5.33333 11.9133 5.25999 11.8666 5.19333 11.8066C5.07333 11.6799 5 11.5133 5 11.3333C5 11.2466 5.02 11.1599 5.05333 11.0799C5.08667 10.9933 5.13333 10.9266 5.19333 10.8599C5.25999 10.7999 5.33333 10.7533 5.41333 10.7199C5.65333 10.6133 5.95334 10.6733 6.14001 10.8599C6.20001 10.9266 6.24667 10.9933 6.28 11.0799C6.31333 11.1599 6.33333 11.2466 6.33333 11.3333C6.33333 11.5133 6.26001 11.6799 6.14001 11.8066C6.01334 11.9266 5.84 11.9999 5.66667 11.9999Z" fill="currentColor"/>
<path d="M13.6667 6.5599H2.33333C2.06 6.5599 1.83333 6.33324 1.83333 6.0599C1.83333 5.78657 2.06 5.5599 2.33333 5.5599H13.6667C13.94 5.5599 14.1667 5.78657 14.1667 6.0599C14.1667 6.33324 13.94 6.5599 13.6667 6.5599Z" fill="currentColor"/>
<path d="M12 15.8333C10.2533 15.8333 8.83333 14.4133 8.83333 12.6667C8.83333 10.92 10.2533 9.50001 12 9.50001C13.7467 9.50001 15.1667 10.92 15.1667 12.6667C15.1667 14.4133 13.7467 15.8333 12 15.8333ZM12 10.5C10.8067 10.5 9.83333 11.4733 9.83333 12.6667C9.83333 13.86 10.8067 14.8333 12 14.8333C13.1933 14.8333 14.1667 13.86 14.1667 12.6667C14.1667 11.4733 13.1933 10.5 12 10.5Z" fill="currentColor"/>
<path d="M12.9933 13.1999H11C10.7267 13.1999 10.5 12.9732 10.5 12.6999C10.5 12.4265 10.7267 12.1999 11 12.1999H12.9933C13.2667 12.1999 13.4933 12.4265 13.4933 12.6999C13.4933 12.9732 13.2733 13.1999 12.9933 13.1999Z" fill="currentColor"/>
<path d="M12 14.2199C11.7267 14.2199 11.5 13.9932 11.5 13.7199V11.7265C11.5 11.4532 11.7267 11.2265 12 11.2265C12.2733 11.2265 12.5 11.4532 12.5 11.7265V13.7199C12.5 13.9932 12.2733 14.2199 12 14.2199Z" fill="currentColor"/>
<path d="M10.2467 15.1667H5.33333C2.9 15.1667 1.5 13.7667 1.5 11.3333V5.66668C1.5 3.23334 2.9 1.83334 5.33333 1.83334H10.6667C13.1 1.83334 14.5 3.23334 14.5 5.66668V10.9067C14.5 11.1133 14.3733 11.3 14.1733 11.3733C13.98 11.4467 13.76 11.3933 13.62 11.2333C13.2067 10.7667 12.6133 10.5 11.9933 10.5C10.8 10.5 9.82667 11.4733 9.82667 12.6667C9.82667 13.06 9.93333 13.4467 10.14 13.78C10.2533 13.98 10.4 14.1467 10.56 14.2867C10.72 14.42 10.78 14.64 10.7067 14.84C10.6467 15.0333 10.46 15.1667 10.2467 15.1667ZM5.33333 2.83334C3.42667 2.83334 2.5 3.76001 2.5 5.66668V11.3333C2.5 13.24 3.42667 14.1667 5.33333 14.1667H9.21333C8.96667 13.7133 8.83333 13.2 8.83333 12.6667C8.83333 10.92 10.2533 9.50001 12 9.50001C12.5267 9.50001 13.0467 9.63334 13.5 9.88001V5.66668C13.5 3.76001 12.5733 2.83334 10.6667 2.83334H5.33333Z" fill="currentColor"/>
</svg>
