<svg width="16" height="16" viewBox="0 0 16 16" fill="none" xmlns="http://www.w3.org/2000/svg">
<g clip-path="url(#clip0_2_5236)">
<path d="M11.6334 15.1668C10.8801 15.1668 10.0867 14.9868 9.26674 14.6401C8.46674 14.3001 7.66008 13.8335 6.87341 13.2668L6.58008 13.0468C6.36008 12.8801 6.32008 12.5668 6.48675 12.3468C6.65342 12.1268 6.96674 12.0868 7.18674 12.2535L7.46674 12.4601C8.18674 12.9868 8.92674 13.4135 9.66008 13.7201C10.8001 14.2068 11.8667 14.3201 12.7467 13.9535C13.0867 13.8135 13.3867 13.6001 13.6601 13.2935C13.8134 13.1268 13.9334 12.9468 14.0334 12.7335C14.1134 12.5668 14.1534 12.3935 14.1534 12.2201C14.1534 12.1135 14.1334 12.0068 14.0801 11.8868C14.0667 11.8535 14.0201 11.7735 13.8934 11.6868L11.6801 10.1135C11.5467 10.0201 11.4267 9.95348 11.3134 9.90681C11.1401 9.84014 11.0267 9.83348 10.8801 9.92681C10.7467 9.99348 10.6267 10.0935 10.4934 10.2268L9.98674 10.7268C9.72674 10.9801 9.32674 11.0401 9.02008 10.9268C9.00674 10.9201 8.94008 10.8935 8.92674 10.8868C8.92008 10.8801 8.84674 10.8535 8.84008 10.8468C8.69341 10.7735 8.53341 10.6668 8.34674 10.5335C8.12674 10.3735 8.07341 10.0601 8.23341 9.83348C8.39341 9.60681 8.70674 9.56014 8.93341 9.72014C9.07341 9.82014 9.20008 9.90014 9.30674 9.96014L9.30008 10.0001L9.78674 9.51348C9.99341 9.30681 10.1934 9.15348 10.3867 9.05348C10.7534 8.82681 11.2201 8.78681 11.6867 8.98014C11.8601 9.05348 12.0467 9.15348 12.2467 9.29348L14.4601 10.8668C14.7001 11.0335 14.8867 11.2468 14.9934 11.5001C15.0934 11.7535 15.1401 11.9868 15.1401 12.2201C15.1401 12.5401 15.0667 12.8601 14.9267 13.1601C14.7867 13.4601 14.6134 13.7201 14.3934 13.9601C14.0134 14.3801 13.6001 14.6801 13.1201 14.8735C12.6601 15.0668 12.1601 15.1668 11.6334 15.1668ZM9.30008 10.0068L9.19341 10.4601L9.37341 9.99348C9.34674 9.98681 9.31341 9.99348 9.30008 10.0068Z" fill="currentColor"/>
<path d="M4.98001 11.4933C4.85334 11.4933 4.72001 11.4467 4.62668 11.3467C3.92668 10.64 3.28001 9.88668 2.72001 9.10668C2.14668 8.30668 1.68668 7.51334 1.36001 6.73334C1.00668 5.91334 0.833344 5.11334 0.833344 4.36001C0.833344 3.84001 0.926677 3.34668 1.10668 2.88668C1.30001 2.40668 1.59334 1.97334 2.00001 1.59334C2.51334 1.09334 3.10001 0.833344 3.72668 0.833344C3.98668 0.833344 4.25334 0.893344 4.48001 1.00001C4.74001 1.12001 4.96001 1.30001 5.12001 1.54001L6.66668 3.72001C6.80668 3.91334 6.91334 4.10001 6.98668 4.28668C7.07334 4.48668 7.12001 4.68668 7.12001 4.88001C7.12001 5.13334 7.04668 5.38001 6.90668 5.61334C6.80668 5.79334 6.65334 5.98668 6.46001 6.18001L6.00668 6.65334C6.01334 6.67334 6.02001 6.68668 6.02668 6.70001C6.10668 6.84001 6.26668 7.08001 6.57334 7.44001C6.89334 7.81334 7.20668 8.14668 7.51334 8.46668C7.70668 8.66668 7.70668 8.98001 7.50668 9.17334C7.30668 9.36668 6.99334 9.36668 6.80001 9.16668C6.47334 8.83334 6.15334 8.48001 5.81334 8.08668C5.50001 7.72001 5.27334 7.40668 5.13334 7.14668C5.12001 7.12001 5.10668 7.09334 5.10001 7.06668L5.05334 6.95334C5.01334 6.80668 5.00001 6.72001 5.00001 6.62668C5.00001 6.38668 5.08668 6.17334 5.25334 6.00668L5.75334 5.48668C5.88668 5.35334 5.98668 5.22668 6.05334 5.11334C6.10668 5.02668 6.12668 4.95334 6.12668 4.88668C6.12668 4.83334 6.10668 4.75334 6.07334 4.67334C6.02001 4.54668 5.94668 4.43334 5.85334 4.30001L4.30668 2.11334C4.24001 2.02001 4.16001 1.95334 4.06001 1.90668C3.96001 1.86001 3.84668 1.83334 3.72668 1.83334C3.36001 1.83334 3.02001 1.99334 2.69334 2.31334C2.39334 2.60001 2.17334 2.91334 2.04001 3.25334C1.90001 3.60001 1.83334 3.96668 1.83334 4.36001C1.83334 4.98001 1.98001 5.65334 2.27334 6.34668C2.57334 7.05334 2.99334 7.78668 3.52668 8.52001C4.06001 9.25334 4.66668 9.96668 5.33334 10.64C5.52668 10.8333 5.52668 11.1533 5.33334 11.3467C5.23334 11.4467 5.10668 11.4933 4.98001 11.4933Z" fill="currentColor"/>
<path d="M1.33363 15.1666C1.20696 15.1666 1.0803 15.1199 0.980297 15.0199C0.786964 14.8266 0.786964 14.5066 0.980297 14.3133L14.3136 0.97997C14.5069 0.786637 14.8269 0.786637 15.0203 0.97997C15.2136 1.1733 15.2136 1.4933 15.0203 1.68664L1.68696 15.0199C1.58696 15.1199 1.4603 15.1666 1.33363 15.1666Z" fill="currentColor"/>
</g>
<defs>
<clipPath id="clip0_2_5236">
<rect width="16" height="16" fill="currentColor"/>
</clipPath>
</defs>
</svg>
