<svg width="16" height="16" viewBox="0 0 16 16" fill="none" xmlns="http://www.w3.org/2000/svg">
<g clip-path="url(#clip0_2_4671)">
<path d="M11.6333 15.1667C10.88 15.1667 10.0867 14.9867 9.26668 14.64C8.46668 14.3 7.66001 13.8333 6.87334 13.2667C6.08668 12.6933 5.33334 12.0467 4.62668 11.3467C3.92001 10.6333 3.28001 9.88001 2.71334 9.10668C2.14001 8.30668 1.68001 7.51334 1.35334 6.73334C1.00668 5.91334 0.833344 5.11334 0.833344 4.36001C0.833344 3.84001 0.926677 3.34668 1.10668 2.88668C1.30001 2.40668 1.59334 1.97334 2.00001 1.59334C2.51334 1.09334 3.10001 0.833344 3.72668 0.833344C3.98668 0.833344 4.25334 0.893344 4.48001 1.00001C4.74001 1.12001 4.96001 1.30001 5.12001 1.54001L6.66668 3.72001C6.80668 3.91334 6.91334 4.10001 6.98668 4.28668C7.07334 4.48668 7.12001 4.68668 7.12001 4.88001C7.12001 5.13334 7.04668 5.38001 6.90668 5.61334C6.80668 5.79334 6.65334 5.98668 6.46001 6.18001L6.00668 6.65334C6.01334 6.67334 6.02001 6.68668 6.02668 6.70001C6.10668 6.84001 6.26668 7.08001 6.57334 7.44001C6.89334 7.81334 7.20668 8.14668 7.51334 8.46668C7.91334 8.86001 8.23334 9.16001 8.54001 9.41334C8.92001 9.73334 9.16668 9.89334 9.31334 9.96668L9.30001 10L9.78668 9.52001C9.99334 9.31334 10.1933 9.16001 10.3867 9.06001C10.7533 8.83334 11.22 8.79334 11.6867 8.98668C11.86 9.06001 12.0467 9.16001 12.2467 9.30001L14.46 10.8733C14.7 11.04 14.8867 11.2533 14.9933 11.5067C15.0933 11.76 15.14 11.9933 15.14 12.2267C15.14 12.5467 15.0667 12.8667 14.9267 13.1667C14.7867 13.4667 14.6133 13.7267 14.3933 13.9667C14.0133 14.3867 13.6 14.6867 13.12 14.88C12.66 15.0667 12.16 15.1667 11.6333 15.1667ZM3.72668 1.83334C3.36001 1.83334 3.02001 1.99334 2.69334 2.31334C2.39334 2.60001 2.17334 2.91334 2.04001 3.25334C1.90001 3.60001 1.83334 3.96668 1.83334 4.36001C1.83334 4.98001 1.98001 5.65334 2.27334 6.34668C2.57334 7.05334 2.99334 7.78668 3.52668 8.52001C4.06001 9.25334 4.66668 9.96668 5.33334 10.64C6.00001 11.3 6.72001 11.9133 7.46001 12.4533C8.18001 12.98 8.92001 13.4067 9.65334 13.7133C10.7933 14.2 11.86 14.3133 12.74 13.9467C13.08 13.8067 13.38 13.5933 13.6533 13.2867C13.8067 13.12 13.9267 12.94 14.0267 12.7267C14.1067 12.56 14.1467 12.3867 14.1467 12.2133C14.1467 12.1067 14.1267 12 14.0733 11.88C14.06 11.8467 14.0133 11.7667 13.8867 11.68L11.6733 10.1067C11.54 10.0133 11.42 9.94668 11.3067 9.90001C11.1333 9.83334 11.02 9.82668 10.8733 9.92001C10.74 9.98668 10.62 10.0867 10.4867 10.22L9.98001 10.72C9.72001 10.9733 9.32001 11.0333 9.01334 10.92L8.83334 10.84C8.56001 10.6933 8.24001 10.4667 7.88668 10.1667C7.56001 9.89334 7.22668 9.58001 6.80001 9.16001C6.46668 8.82001 6.14668 8.46668 5.80668 8.08001C5.49334 7.71334 5.26668 7.40001 5.12668 7.14001L5.04001 6.94001C5.00001 6.79334 4.98668 6.70668 4.98668 6.61334C4.98668 6.37334 5.07334 6.16001 5.24001 5.99334L5.74001 5.47334C5.87334 5.34001 5.97334 5.21334 6.04001 5.10001C6.09334 5.01334 6.11334 4.94001 6.11334 4.87334C6.11334 4.82001 6.09334 4.74001 6.06001 4.66001C6.02001 4.54668 5.94668 4.43334 5.85334 4.30001L4.30668 2.11334C4.24001 2.02001 4.16001 1.95334 4.06001 1.90668C3.95334 1.86001 3.84001 1.83334 3.72668 1.83334ZM9.30001 10.0067L9.19334 10.46L9.37334 9.99334C9.34668 9.98668 9.32001 9.99334 9.30001 10.0067Z" fill="currentColor"/>
<path d="M13.6667 4.50001H10.3333C10.06 4.50001 9.83334 4.27334 9.83334 4.00001C9.83334 3.72668 10.06 3.50001 10.3333 3.50001H13.6667C13.94 3.50001 14.1667 3.72668 14.1667 4.00001C14.1667 4.27334 13.94 4.50001 13.6667 4.50001Z" fill="currentColor"/>
</g>
<defs>
<clipPath id="clip0_2_4671">
<rect width="16" height="16" fill="currentColor"/>
</clipPath>
</defs>
</svg>
