<svg width="16" height="16" viewBox="0 0 16 16" fill="none" xmlns="http://www.w3.org/2000/svg">
<g clip-path="url(#clip0_2_4895)">
<path d="M11.6333 15.1667C10.88 15.1667 10.0867 14.9867 9.26666 14.64C8.46666 14.3 7.66 13.8333 6.87333 13.2667C6.09333 12.6933 5.33999 12.0533 4.62666 11.3533C3.91999 10.64 3.27999 9.88668 2.71333 9.11334C2.13999 8.31334 1.67999 7.51334 1.35333 6.74001C1.00666 5.91334 0.833328 5.11334 0.833328 4.36001C0.833328 3.84001 0.926662 3.34668 1.10666 2.88668C1.29333 2.41334 1.59333 1.97334 1.99999 1.59334C2.51333 1.08668 3.09999 0.833344 3.72666 0.833344C3.98666 0.833344 4.25333 0.893344 4.47999 1.00001C4.73999 1.12001 4.95999 1.30001 5.11999 1.54001L6.66666 3.72001C6.80666 3.91334 6.91333 4.10001 6.98666 4.28668C7.07333 4.48668 7.11999 4.68668 7.11999 4.88001C7.11999 5.13334 7.04666 5.38001 6.90666 5.61334C6.80666 5.79334 6.65333 5.98668 6.45999 6.18001L6.00666 6.65334C6.01333 6.67334 6.01999 6.68668 6.02666 6.70001C6.10666 6.84001 6.26666 7.08001 6.57333 7.44001C6.89999 7.81334 7.20666 8.15334 7.51333 8.46668C7.90666 8.85334 8.23333 9.16001 8.53999 9.41334C8.91999 9.73334 9.16666 9.89334 9.31333 9.96668L9.29999 10L9.78666 9.52001C9.99333 9.31334 10.1933 9.16001 10.3867 9.06001C10.7533 8.83334 11.22 8.79334 11.6867 8.98668C11.86 9.06001 12.0467 9.16001 12.2467 9.30001L14.46 10.8733C14.7067 11.04 14.8867 11.2533 14.9933 11.5067C15.0933 11.76 15.14 11.9933 15.14 12.2267C15.14 12.5467 15.0667 12.8667 14.9267 13.1667C14.7867 13.4667 14.6133 13.7267 14.3933 13.9667C14.0133 14.3867 13.6 14.6867 13.12 14.88C12.66 15.0667 12.16 15.1667 11.6333 15.1667ZM3.72666 1.83334C3.35999 1.83334 3.01999 1.99334 2.69333 2.31334C2.38666 2.60001 2.17333 2.91334 2.03999 3.25334C1.89999 3.60001 1.83333 3.96668 1.83333 4.36001C1.83333 4.98001 1.97999 5.65334 2.27333 6.34668C2.57333 7.05334 2.99333 7.78668 3.52666 8.52001C4.05999 9.25334 4.66666 9.96668 5.33333 10.64C5.99999 11.3 6.71999 11.9133 7.45999 12.4533C8.17999 12.98 8.91999 13.4067 9.65333 13.7133C10.7933 14.2 11.86 14.3133 12.74 13.9467C13.08 13.8067 13.38 13.5933 13.6533 13.2867C13.8067 13.12 13.9267 12.94 14.0267 12.7267C14.1067 12.56 14.1467 12.3867 14.1467 12.2133C14.1467 12.1067 14.1267 12 14.0733 11.88C14.0533 11.84 14.0133 11.7667 13.8867 11.68L11.6733 10.1067C11.54 10.0133 11.42 9.94668 11.3067 9.90001C11.16 9.84001 11.1 9.78001 10.8733 9.92001C10.74 9.98668 10.62 10.0867 10.4867 10.22L9.97999 10.72C9.71999 10.9733 9.31999 11.0333 9.01333 10.92L8.83333 10.84C8.55999 10.6933 8.23999 10.4667 7.88666 10.1667C7.56666 9.89334 7.21999 9.57334 6.79999 9.16001C6.47333 8.82668 6.14666 8.47334 5.80666 8.08001C5.49333 7.71334 5.26666 7.40001 5.12666 7.14001L5.04666 6.94001C5.00666 6.78668 4.99333 6.70001 4.99333 6.60668C4.99333 6.36668 5.07999 6.15334 5.24666 5.98668L5.74666 5.46668C5.87999 5.33334 5.97999 5.20668 6.04666 5.09334C6.09999 5.00668 6.11999 4.93334 6.11999 4.86668C6.11999 4.81334 6.1 4.73334 6.06666 4.65334C6.01999 4.54668 5.94666 4.42668 5.85333 4.30001L4.30666 2.11334C4.23999 2.02001 4.15999 1.95334 4.05999 1.90668C3.95333 1.86001 3.83999 1.83334 3.72666 1.83334ZM9.29999 10.0067L9.19333 10.46L9.37333 9.99334C9.33999 9.98668 9.31333 9.99334 9.29999 10.0067Z" fill="currentColor"/>
<path d="M12.3333 6.50001C12.06 6.50001 11.8333 6.27334 11.8333 6.00001C11.8333 5.76001 11.5933 5.26001 11.1933 4.83334C10.8 4.41334 10.3667 4.16668 9.99999 4.16668C9.72666 4.16668 9.49999 3.94001 9.49999 3.66668C9.49999 3.39334 9.72666 3.16668 9.99999 3.16668C10.6467 3.16668 11.3267 3.51334 11.92 4.14668C12.4733 4.74001 12.8333 5.46668 12.8333 6.00001C12.8333 6.27334 12.6067 6.50001 12.3333 6.50001Z" fill="currentColor"/>
<path d="M14.6667 6.50001C14.3933 6.50001 14.1667 6.27334 14.1667 6.00001C14.1667 3.70001 12.3 1.83334 9.99999 1.83334C9.72666 1.83334 9.49999 1.60668 9.49999 1.33334C9.49999 1.06001 9.72666 0.833344 9.99999 0.833344C12.8467 0.833344 15.1667 3.15334 15.1667 6.00001C15.1667 6.27334 14.94 6.50001 14.6667 6.50001Z" fill="currentColor"/>
</g>
<defs>
<clipPath id="clip0_2_4895">
<rect width="16" height="16" fill="currentColor"/>
</clipPath>
</defs>
</svg>
