<svg width="16" height="16" viewBox="0 0 16 16" fill="none" xmlns="http://www.w3.org/2000/svg">
<g clip-path="url(#clip0_2_5361)">
<path d="M11.6333 15.1667C10.88 15.1667 10.0867 14.9867 9.26666 14.64C8.46666 14.3 7.66 13.8333 6.87333 13.2667C6.09333 12.6933 5.33999 12.0533 4.62666 11.3533C3.92 10.64 3.28 9.88668 2.71333 9.11334C2.14 8.31334 1.67999 7.51334 1.35333 6.74001C1.00666 5.91334 0.833328 5.11334 0.833328 4.36001C0.833328 3.84001 0.926662 3.34668 1.10666 2.88668C1.29333 2.41334 1.59333 1.97334 1.99999 1.59334C2.51333 1.08668 3.1 0.833344 3.72666 0.833344C3.98666 0.833344 4.25333 0.893344 4.47999 1.00001C4.73999 1.12001 4.95999 1.30001 5.12 1.54001L6.66666 3.72001C6.80666 3.91334 6.91333 4.10001 6.98666 4.28668C7.07333 4.48668 7.12 4.68668 7.12 4.88001C7.12 5.13334 7.04666 5.38001 6.90666 5.61334C6.80666 5.79334 6.65333 5.98668 6.45999 6.18001L6.00666 6.65334C6.01333 6.67334 6.02 6.68668 6.02666 6.70001C6.10666 6.84001 6.26666 7.08001 6.57333 7.44001C6.89999 7.81334 7.20666 8.15334 7.51333 8.46668C7.90666 8.85334 8.23333 9.16001 8.54 9.41334C8.92 9.73334 9.16666 9.89334 9.31333 9.96668L9.3 10L9.78666 9.52001C9.99333 9.31334 10.1933 9.16001 10.3867 9.06001C10.7533 8.83334 11.22 8.79334 11.6867 8.98668C11.86 9.06001 12.0467 9.16001 12.2467 9.30001L14.46 10.8733C14.7067 11.04 14.8867 11.2533 14.9933 11.5067C15.0933 11.76 15.14 11.9933 15.14 12.2267C15.14 12.5467 15.0667 12.8667 14.9267 13.1667C14.7867 13.4667 14.6133 13.7267 14.3933 13.9667C14.0133 14.3867 13.6 14.6867 13.12 14.88C12.66 15.0667 12.16 15.1667 11.6333 15.1667ZM3.72666 1.83334C3.36 1.83334 3.01999 1.99334 2.69333 2.31334C2.38666 2.60001 2.17333 2.91334 2.03999 3.25334C1.89999 3.60001 1.83333 3.96668 1.83333 4.36001C1.83333 4.98001 1.98 5.65334 2.27333 6.34668C2.57333 7.05334 2.99333 7.78668 3.52666 8.52001C4.05999 9.25334 4.66666 9.96668 5.33333 10.64C6 11.3 6.72 11.9133 7.45999 12.4533C8.18 12.98 8.92 13.4067 9.65333 13.7133C10.7933 14.2 11.86 14.3133 12.74 13.9467C13.08 13.8067 13.38 13.5933 13.6533 13.2867C13.8067 13.12 13.9267 12.94 14.0267 12.7267C14.1067 12.56 14.1467 12.3867 14.1467 12.2133C14.1467 12.1067 14.1267 12 14.0733 11.88C14.0533 11.84 14.0133 11.7667 13.8867 11.68L11.6733 10.1067C11.54 10.0133 11.42 9.94668 11.3067 9.90001C11.16 9.84001 11.1 9.78001 10.8733 9.92001C10.74 9.98668 10.62 10.0867 10.4867 10.22L9.98 10.72C9.72 10.9733 9.32 11.0333 9.01333 10.92L8.83333 10.84C8.56 10.6933 8.24 10.4667 7.88666 10.1667C7.56666 9.89334 7.22 9.57334 6.79999 9.16001C6.47333 8.82668 6.14666 8.47334 5.80666 8.08001C5.49333 7.71334 5.26666 7.40001 5.12666 7.14001L5.04666 6.94001C5.00666 6.78668 4.99333 6.70001 4.99333 6.60668C4.99333 6.36668 5.08 6.15334 5.24666 5.98668L5.74666 5.46668C5.87999 5.33334 5.97999 5.20668 6.04666 5.09334C6.09999 5.00668 6.12 4.93334 6.12 4.86668C6.12 4.81334 6.1 4.73334 6.06666 4.65334C6.02 4.54668 5.94666 4.42668 5.85333 4.30001L4.30666 2.11334C4.24 2.02001 4.16 1.95334 4.06 1.90668C3.95333 1.86001 3.84 1.83334 3.72666 1.83334ZM9.3 10.0067L9.19333 10.46L9.37333 9.99334C9.34 9.98668 9.31333 9.99334 9.3 10.0067Z" fill="currentColor"/>
</g>
<defs>
<clipPath id="clip0_2_5361">
<rect width="16" height="16" fill="currentColor"/>
</clipPath>
</defs>
</svg>
