<svg width="16" height="16" viewBox="0 0 16 16" fill="none" xmlns="http://www.w3.org/2000/svg">
<g clip-path="url(#clip0_2_5334)">
<path d="M11.6333 15.1667C10.88 15.1667 10.0867 14.9867 9.26666 14.64C8.46666 14.3 7.66 13.8333 6.87333 13.2667C6.08666 12.6933 5.33333 12.0467 4.62666 11.3467C3.92 10.6333 3.27999 9.88001 2.71333 9.10668C2.14 8.30668 1.67999 7.51334 1.35333 6.73334C1.00666 5.91334 0.833328 5.11334 0.833328 4.36001C0.833328 3.84001 0.926662 3.34668 1.10666 2.88668C1.29999 2.40668 1.59333 1.97334 1.99999 1.59334C2.51333 1.09334 3.1 0.833344 3.72666 0.833344C3.98666 0.833344 4.25333 0.893344 4.47999 1.00001C4.73999 1.12001 4.96 1.30001 5.12 1.54001L6.66666 3.72001C6.80666 3.91334 6.91333 4.10001 6.98666 4.28668C7.07333 4.48668 7.12 4.68668 7.12 4.88001C7.12 5.13334 7.04666 5.38001 6.90666 5.61334C6.80666 5.79334 6.65333 5.98668 6.45999 6.18001L6.00666 6.65334C6.01333 6.67334 6.01999 6.68668 6.02666 6.70001C6.10666 6.84001 6.26666 7.08001 6.57333 7.44001C6.89333 7.81334 7.20666 8.14668 7.51333 8.46668C7.91333 8.86001 8.23333 9.16001 8.54 9.41334C8.92 9.73334 9.16666 9.89334 9.31333 9.96668L9.3 10L9.78666 9.52001C9.99333 9.31334 10.1933 9.16001 10.3867 9.06001C10.7533 8.83334 11.22 8.79334 11.6867 8.98668C11.86 9.06001 12.0467 9.16001 12.2467 9.30001L14.46 10.8733C14.7 11.04 14.8867 11.2533 14.9933 11.5067C15.0933 11.76 15.14 11.9933 15.14 12.2267C15.14 12.5467 15.0667 12.8667 14.9267 13.1667C14.7867 13.4667 14.6133 13.7267 14.3933 13.9667C14.0133 14.3867 13.6 14.6867 13.12 14.88C12.66 15.0667 12.16 15.1667 11.6333 15.1667ZM3.72666 1.83334C3.36 1.83334 3.01999 1.99334 2.69333 2.31334C2.39333 2.60001 2.17333 2.91334 2.03999 3.25334C1.89999 3.60001 1.83333 3.96668 1.83333 4.36001C1.83333 4.98001 1.98 5.65334 2.27333 6.34668C2.57333 7.05334 2.99333 7.78668 3.52666 8.52001C4.06 9.25334 4.66666 9.96668 5.33333 10.64C6 11.3 6.72 11.9133 7.45999 12.4533C8.17999 12.98 8.91999 13.4067 9.65333 13.7133C10.7933 14.2 11.86 14.3133 12.74 13.9467C13.08 13.8067 13.38 13.5933 13.6533 13.2867C13.8067 13.12 13.9267 12.94 14.0267 12.7267C14.1067 12.56 14.1467 12.3867 14.1467 12.2133C14.1467 12.1067 14.1267 12 14.0733 11.88C14.06 11.8467 14.0133 11.7667 13.8867 11.68L11.6733 10.1067C11.54 10.0133 11.42 9.94668 11.3067 9.90001C11.1333 9.83334 11.02 9.82668 10.8733 9.92001C10.74 9.98668 10.62 10.0867 10.4867 10.22L9.98 10.72C9.72 10.9733 9.32 11.0333 9.01333 10.92L8.83333 10.84C8.56 10.6933 8.24 10.4667 7.88666 10.1667C7.56 9.89334 7.22666 9.58001 6.79999 9.16001C6.46666 8.82001 6.14666 8.46668 5.80666 8.08001C5.49333 7.71334 5.26666 7.40001 5.12666 7.14001L5.04 6.94001C5 6.79334 4.98666 6.70668 4.98666 6.61334C4.98666 6.37334 5.07333 6.16001 5.24 5.99334L5.74 5.47334C5.87333 5.34001 5.97333 5.21334 6.04 5.10001C6.09333 5.01334 6.11333 4.94001 6.11333 4.87334C6.11333 4.82001 6.09333 4.74001 6.06 4.66001C6.02 4.54668 5.94666 4.43334 5.85333 4.30001L4.30666 2.11334C4.24 2.02001 4.16 1.95334 4.06 1.90668C3.95333 1.86001 3.84 1.83334 3.72666 1.83334ZM9.3 10.0067L9.19333 10.46L9.37333 9.99334C9.34666 9.98668 9.31999 9.99334 9.3 10.0067Z" fill="currentColor"/>
<path d="M13.6667 4.50001H10.3333C10.06 4.50001 9.83333 4.27334 9.83333 4.00001C9.83333 3.72668 10.06 3.50001 10.3333 3.50001H13.6667C13.94 3.50001 14.1667 3.72668 14.1667 4.00001C14.1667 4.27334 13.94 4.50001 13.6667 4.50001Z" fill="currentColor"/>
<path d="M12 6.16668C11.7267 6.16668 11.5 5.94001 11.5 5.66668V2.33334C11.5 2.06001 11.7267 1.83334 12 1.83334C12.2733 1.83334 12.5 2.06001 12.5 2.33334V5.66668C12.5 5.94001 12.2733 6.16668 12 6.16668Z" fill="currentColor"/>
</g>
<defs>
<clipPath id="clip0_2_5334">
<rect width="16" height="16" fill="currentColor"/>
</clipPath>
</defs>
</svg>
