<svg width="16" height="16" viewBox="0 0 16 16" fill="none" xmlns="http://www.w3.org/2000/svg">
<g clip-path="url(#clip0_2_5245)">
<path d="M11.4931 15.1667H4.50647C2.6398 15.1667 1.45313 14.0533 1.34647 12.1933L0.9998 6.69334C0.946467 5.86001 1.23313 5.06001 1.80647 4.45334C2.37313 3.84668 3.17313 3.50001 3.9998 3.50001C4.21313 3.50001 4.4198 3.37334 4.5198 3.17334L4.9998 2.22001C5.39313 1.44001 6.37979 0.833344 7.23981 0.833344H8.76647C9.62647 0.833344 10.6065 1.44001 10.9998 2.21334L11.4798 3.18668C11.5798 3.37334 11.7798 3.50001 11.9998 3.50001C12.8265 3.50001 13.6265 3.84668 14.1931 4.45334C14.7665 5.06668 15.0531 5.86001 14.9998 6.69334L14.6531 12.2C14.5331 14.0867 13.3798 15.1667 11.4931 15.1667ZM7.23981 1.83334C6.74647 1.83334 6.1198 2.22001 5.89313 2.66668L5.41313 3.62668C5.13313 4.16668 4.59313 4.50001 3.9998 4.50001C3.4398 4.50001 2.91979 4.72668 2.53313 5.13334C2.15313 5.54001 1.9598 6.07334 1.9998 6.62668L2.34647 12.1333C2.42646 13.48 3.15313 14.1667 4.50647 14.1667H11.4931C12.8398 14.1667 13.5665 13.48 13.6531 12.1333L13.9998 6.62668C14.0331 6.07334 13.8465 5.54001 13.4665 5.13334C13.0798 4.72668 12.5598 4.50001 11.9998 4.50001C11.4065 4.50001 10.8665 4.16668 10.5865 3.64001L10.0998 2.66668C9.87981 2.22668 9.25314 1.84001 8.75981 1.84001H7.23981V1.83334Z" fill="currentColor"/>
<path d="M9.00001 5.83334H7.00001C6.72667 5.83334 6.50001 5.60668 6.50001 5.33334C6.50001 5.06001 6.72667 4.83334 7.00001 4.83334H9.00001C9.27334 4.83334 9.50001 5.06001 9.50001 5.33334C9.50001 5.60668 9.27334 5.83334 9.00001 5.83334Z" fill="currentColor"/>
<path d="M8.00001 12.5C6.52667 12.5 5.33334 11.3067 5.33334 9.83334C5.33334 8.36001 6.52667 7.16668 8.00001 7.16668C9.47334 7.16668 10.6667 8.36001 10.6667 9.83334C10.6667 11.3067 9.47334 12.5 8.00001 12.5ZM8.00001 8.16668C7.08001 8.16668 6.33334 8.91334 6.33334 9.83334C6.33334 10.7533 7.08001 11.5 8.00001 11.5C8.92001 11.5 9.66667 10.7533 9.66667 9.83334C9.66667 8.91334 8.92001 8.16668 8.00001 8.16668Z" fill="currentColor"/>
</g>
<defs>
<clipPath id="clip0_2_5245">
<rect width="16" height="16" fill="currentColor"/>
</clipPath>
</defs>
</svg>
