<svg width="16" height="16" viewBox="0 0 16 16" fill="none" xmlns="http://www.w3.org/2000/svg">
<g clip-path="url(#clip0_2_5244)">
<path d="M6.00002 7.16668H4.00002C3.72669 7.16668 3.50002 6.94001 3.50002 6.66668C3.50002 6.39334 3.72669 6.16668 4.00002 6.16668H6.00002C6.27336 6.16668 6.50002 6.39334 6.50002 6.66668C6.50002 6.94001 6.27336 7.16668 6.00002 7.16668Z" fill="currentColor"/>
<path d="M11.4932 15.1667H4.50654C4.2332 15.1667 4.00654 14.94 4.00654 14.6667C4.00654 14.3933 4.2332 14.1667 4.50654 14.1667H11.4932C12.8399 14.1667 13.5666 13.48 13.6532 12.1333L13.9999 6.6267C14.0332 6.15337 13.8932 5.6867 13.6066 5.3067C13.4399 5.0867 13.4866 4.77337 13.7066 4.6067C13.9266 4.44004 14.2399 4.4867 14.4066 4.7067C14.8332 5.28004 15.0466 5.98004 14.9999 6.69334L14.6532 12.2C14.5332 14.0867 13.3799 15.1667 11.4932 15.1667Z" fill="currentColor"/>
<path d="M2.29315 14.14C2.13315 14.14 1.97314 14.06 1.87314 13.9133C1.56648 13.4467 1.38648 12.8667 1.34648 12.1933L0.999816 6.69334C0.946482 5.86001 1.23315 5.06001 1.80648 4.45334C2.37315 3.84668 3.17315 3.50001 3.99982 3.50001C4.21315 3.50001 4.41982 3.37334 4.51982 3.17334L4.99982 2.22001C5.39315 1.44001 6.37981 0.833344 7.23982 0.833344H8.76649C9.62649 0.833344 10.6065 1.44001 10.9998 2.21334L11.4798 3.18668C11.5798 3.37334 11.7798 3.50001 11.9998 3.50001C12.2732 3.50001 12.4998 3.72668 12.4998 4.00001C12.4998 4.27334 12.2732 4.50001 11.9998 4.50001C11.4065 4.50001 10.8665 4.16668 10.5865 3.64001L10.0998 2.66668C9.87982 2.22668 9.25315 1.84001 8.75982 1.84001H7.23316C6.73982 1.84001 6.11315 2.22668 5.88648 2.67334L5.41315 3.62668C5.13315 4.16668 4.59315 4.50001 3.99982 4.50001C3.43982 4.50001 2.91981 4.72668 2.53315 5.13334C2.15315 5.54001 1.95982 6.07334 1.99982 6.62668L2.34648 12.1333C2.37314 12.62 2.49982 13.0467 2.71315 13.36C2.86648 13.5933 2.79981 13.9 2.57314 14.0533C2.48648 14.1133 2.38648 14.14 2.29315 14.14Z" fill="currentColor"/>
<path d="M7.99982 12.5001C7.40649 12.5001 6.82649 12.3001 6.35981 11.9334C6.13981 11.7601 6.10648 11.4467 6.27314 11.2334C6.44648 11.0134 6.75982 10.9801 6.97316 11.1467C7.26649 11.3734 7.62649 11.5001 7.99982 11.5001C8.91982 11.5001 9.66649 10.7534 9.66649 9.83341C9.66649 9.51341 9.57982 9.20674 9.41316 8.94674C9.26649 8.71341 9.33315 8.40674 9.56649 8.25341C9.79982 8.10674 10.1065 8.17341 10.2598 8.40674C10.5265 8.82674 10.6732 9.32008 10.6732 9.82674C10.6665 11.3067 9.47316 12.5001 7.99982 12.5001Z" fill="currentColor"/>
<path d="M1.33299 15.1666C1.20632 15.1666 1.07966 15.1199 0.979656 15.0199C0.786322 14.8266 0.786322 14.5066 0.979656 14.3133L14.313 0.97997C14.5064 0.786637 14.8264 0.786637 15.0197 0.97997C15.213 1.1733 15.213 1.4933 15.0197 1.68664L1.68632 15.0199C1.58632 15.1199 1.45966 15.1666 1.33299 15.1666Z" fill="currentColor"/>
</g>
<defs>
<clipPath id="clip0_2_5244">
<rect width="16" height="16" fill="currentColor"/>
</clipPath>
</defs>
</svg>
