<svg width="16" height="16" viewBox="0 0 16 16" fill="none" xmlns="http://www.w3.org/2000/svg">
<path d="M14.6666 12.1667H9.99998C9.72665 12.1667 9.49998 11.94 9.49998 11.6667C9.49998 11.3933 9.72665 11.1667 9.99998 11.1667H14.6666C14.94 11.1667 15.1666 11.3933 15.1666 11.6667C15.1666 11.94 14.94 12.1667 14.6666 12.1667Z" fill="currentColor"/>
<path d="M3.33331 12.1667H1.33331C1.05998 12.1667 0.833313 11.94 0.833313 11.6667C0.833313 11.3933 1.05998 11.1667 1.33331 11.1667H3.33331C3.60665 11.1667 3.83331 11.3933 3.83331 11.6667C3.83331 11.94 3.60665 12.1667 3.33331 12.1667Z" fill="currentColor"/>
<path d="M14.6666 4.83334H12.6666C12.3933 4.83334 12.1666 4.60668 12.1666 4.33334C12.1666 4.06001 12.3933 3.83334 12.6666 3.83334H14.6666C14.94 3.83334 15.1666 4.06001 15.1666 4.33334C15.1666 4.60668 14.94 4.83334 14.6666 4.83334Z" fill="currentColor"/>
<path d="M5.99998 4.83334H1.33331C1.05998 4.83334 0.833313 4.60668 0.833313 4.33334C0.833313 4.06001 1.05998 3.83334 1.33331 3.83334H5.99998C6.27331 3.83334 6.49998 4.06001 6.49998 4.33334C6.49998 4.60668 6.27331 4.83334 5.99998 4.83334Z" fill="currentColor"/>
<path d="M8.66665 14.1667H4.66665C3.51998 14.1667 2.83331 13.48 2.83331 12.3333V11C2.83331 9.85334 3.51998 9.16668 4.66665 9.16668H8.66665C9.81331 9.16668 10.5 9.85334 10.5 11V12.3333C10.5 13.48 9.81331 14.1667 8.66665 14.1667ZM4.66665 10.1667C4.07331 10.1667 3.83331 10.4067 3.83331 11V12.3333C3.83331 12.9267 4.07331 13.1667 4.66665 13.1667H8.66665C9.25998 13.1667 9.49998 12.9267 9.49998 12.3333V11C9.49998 10.4067 9.25998 10.1667 8.66665 10.1667H4.66665Z" fill="currentColor"/>
<path d="M11.3333 6.83334H7.33331C6.18665 6.83334 5.49998 6.14668 5.49998 5.00001V3.66668C5.49998 2.52001 6.18665 1.83334 7.33331 1.83334H11.3333C12.48 1.83334 13.1666 2.52001 13.1666 3.66668V5.00001C13.1666 6.14668 12.48 6.83334 11.3333 6.83334ZM7.33331 2.83334C6.73998 2.83334 6.49998 3.07334 6.49998 3.66668V5.00001C6.49998 5.59334 6.73998 5.83334 7.33331 5.83334H11.3333C11.9266 5.83334 12.1666 5.59334 12.1666 5.00001V3.66668C12.1666 3.07334 11.9266 2.83334 11.3333 2.83334H7.33331Z" fill="currentColor"/>
</svg>
