<svg width="16" height="16" viewBox="0 0 16 16" fill="none" xmlns="http://www.w3.org/2000/svg">
<path d="M4.33331 15.1667C4.05998 15.1667 3.83331 14.94 3.83331 14.6667V10C3.83331 9.72668 4.05998 9.50001 4.33331 9.50001C4.60665 9.50001 4.83331 9.72668 4.83331 10V14.6667C4.83331 14.94 4.60665 15.1667 4.33331 15.1667Z" fill="currentColor"/>
<path d="M4.33331 3.83334C4.05998 3.83334 3.83331 3.60668 3.83331 3.33334V1.33334C3.83331 1.06001 4.05998 0.833344 4.33331 0.833344C4.60665 0.833344 4.83331 1.06001 4.83331 1.33334V3.33334C4.83331 3.60668 4.60665 3.83334 4.33331 3.83334Z" fill="currentColor"/>
<path d="M11.6666 15.1667C11.3933 15.1667 11.1666 14.94 11.1666 14.6667V12.6667C11.1666 12.3933 11.3933 12.1667 11.6666 12.1667C11.94 12.1667 12.1666 12.3933 12.1666 12.6667V14.6667C12.1666 14.94 11.94 15.1667 11.6666 15.1667Z" fill="currentColor"/>
<path d="M11.6666 6.50001C11.3933 6.50001 11.1666 6.27334 11.1666 6.00001V1.33334C11.1666 1.06001 11.3933 0.833344 11.6666 0.833344C11.94 0.833344 12.1666 1.06001 12.1666 1.33334V6.00001C12.1666 6.27334 11.94 6.50001 11.6666 6.50001Z" fill="currentColor"/>
<path d="M4.99998 10.5H3.66665C2.51998 10.5 1.83331 9.81334 1.83331 8.66668V4.66668C1.83331 3.52001 2.51998 2.83334 3.66665 2.83334H4.99998C6.14665 2.83334 6.83331 3.52001 6.83331 4.66668V8.66668C6.83331 9.81334 6.14665 10.5 4.99998 10.5ZM3.66665 3.83334C3.07331 3.83334 2.83331 4.07334 2.83331 4.66668V8.66668C2.83331 9.26001 3.07331 9.50001 3.66665 9.50001H4.99998C5.59331 9.50001 5.83331 9.26001 5.83331 8.66668V4.66668C5.83331 4.07334 5.59331 3.83334 4.99998 3.83334H3.66665Z" fill="currentColor"/>
<path d="M12.3333 13.1667H11C9.85331 13.1667 9.16665 12.48 9.16665 11.3333V7.33334C9.16665 6.18668 9.85331 5.50001 11 5.50001H12.3333C13.48 5.50001 14.1666 6.18668 14.1666 7.33334V11.3333C14.1666 12.48 13.48 13.1667 12.3333 13.1667ZM11 6.50001C10.4066 6.50001 10.1666 6.74001 10.1666 7.33334V11.3333C10.1666 11.9267 10.4066 12.1667 11 12.1667H12.3333C12.9266 12.1667 13.1666 11.9267 13.1666 11.3333V7.33334C13.1666 6.74001 12.9266 6.50001 12.3333 6.50001H11Z" fill="currentColor"/>
</svg>
