<svg width="16" height="16" viewBox="0 0 16 16" fill="none" xmlns="http://www.w3.org/2000/svg">
<path d="M13.3329 7.8334H2.66624C2.51291 7.8334 2.37291 7.76673 2.27958 7.64673C2.18624 7.5334 2.14625 7.3734 2.17958 7.22673L2.93291 3.62672C3.17958 2.46005 3.67958 1.38672 5.65958 1.38672H10.3463C12.3263 1.38672 12.8263 2.46672 13.0729 3.62672L13.8263 7.2334C13.8596 7.38006 13.8196 7.5334 13.7263 7.6534C13.6263 7.76673 13.4863 7.8334 13.3329 7.8334ZM3.27958 6.8334H12.7129L12.0863 3.83339C11.8996 2.96005 11.6796 2.38672 10.3396 2.38672H5.65958C4.31958 2.38672 4.09958 2.96005 3.91291 3.83339L3.27958 6.8334Z" fill="currentColor"/>
<path d="M13.3064 15.1667H12.0531C10.9731 15.1667 10.7664 14.5467 10.6331 14.14L10.4997 13.74C10.3264 13.2333 10.3064 13.1667 9.7064 13.1667H6.29306C5.69306 13.1667 5.65307 13.28 5.49973 13.74L5.3664 14.14C5.2264 14.5533 5.0264 15.1667 3.9464 15.1667H2.69306C2.1664 15.1667 1.65973 14.9467 1.3064 14.56C0.959732 14.18 0.793065 13.6733 0.839732 13.1667L1.21306 9.10666C1.31306 8.00666 1.6064 6.83333 3.7464 6.83333H12.2531C14.3931 6.83333 14.6797 8.00666 14.7864 9.10666L15.1597 13.1667C15.2064 13.6733 15.0397 14.18 14.6931 14.56C14.3397 14.9467 13.8331 15.1667 13.3064 15.1667ZM6.29306 12.1667H9.7064C10.9197 12.1667 11.2064 12.7067 11.4464 13.4133L11.5864 13.8267C11.6997 14.1667 11.6997 14.1733 12.0597 14.1733H13.3131C13.5597 14.1733 13.7931 14.0733 13.9597 13.8933C14.1197 13.72 14.1931 13.5 14.1731 13.2667L13.7997 9.20667C13.7131 8.30667 13.6064 7.84 12.2664 7.84H3.7464C2.39973 7.84 2.29306 8.30667 2.21306 9.20667L1.83973 13.2667C1.81973 13.5 1.89306 13.72 2.05306 13.8933C2.21306 14.0733 2.45306 14.1733 2.69973 14.1733H3.95306C4.31306 14.1733 4.31306 14.1667 4.4264 13.8333L4.55973 13.4267C4.7264 12.8933 4.97306 12.1667 6.29306 12.1667Z" fill="currentColor"/>
<path d="M2.66666 5.83333H2C1.72666 5.83333 1.5 5.60667 1.5 5.33333C1.5 5.06 1.72666 4.83333 2 4.83333H2.66666C2.94 4.83333 3.16666 5.06 3.16666 5.33333C3.16666 5.60667 2.94 5.83333 2.66666 5.83333Z" fill="currentColor"/>
<path d="M14 5.83333H13.3333C13.06 5.83333 12.8333 5.60667 12.8333 5.33333C12.8333 5.06 13.06 4.83333 13.3333 4.83333H14C14.2733 4.83333 14.5 5.06 14.5 5.33333C14.5 5.60667 14.2733 5.83333 14 5.83333Z" fill="currentColor"/>
<path d="M8 3.83333C7.72666 3.83333 7.5 3.60667 7.5 3.33333V2C7.5 1.72667 7.72666 1.5 8 1.5C8.27333 1.5 8.5 1.72667 8.5 2V3.33333C8.5 3.60667 8.27333 3.83333 8 3.83333Z" fill="currentColor"/>
<path d="M9 3.83333H7C6.72666 3.83333 6.5 3.60667 6.5 3.33333C6.5 3.06 6.72666 2.83333 7 2.83333H9C9.27333 2.83333 9.5 3.06 9.5 3.33333C9.5 3.60667 9.27333 3.83333 9 3.83333Z" fill="currentColor"/>
<path d="M6 10.5H4C3.72667 10.5 3.5 10.2733 3.5 10C3.5 9.72666 3.72667 9.5 4 9.5H6C6.27333 9.5 6.5 9.72666 6.5 10C6.5 10.2733 6.27333 10.5 6 10.5Z" fill="currentColor"/>
<path d="M12 10.5H10C9.72666 10.5 9.5 10.2733 9.5 10C9.5 9.72666 9.72666 9.5 10 9.5H12C12.2733 9.5 12.5 9.72666 12.5 10C12.5 10.2733 12.2733 10.5 12 10.5Z" fill="currentColor"/>
</svg>
