<svg width="16" height="16" viewBox="0 0 16 16" fill="none" xmlns="http://www.w3.org/2000/svg">
<path d="M9.66665 6.16668H1.33331C1.05998 6.16668 0.833313 5.94001 0.833313 5.66668C0.833313 5.39334 1.05998 5.16668 1.33331 5.16668H9.66665C9.93998 5.16668 10.1666 5.39334 10.1666 5.66668C10.1666 5.94001 9.93998 6.16668 9.66665 6.16668Z" fill="currentColor"/>
<path d="M5.33331 11.5H3.99998C3.72665 11.5 3.49998 11.2733 3.49998 11C3.49998 10.7267 3.72665 10.5 3.99998 10.5H5.33331C5.60665 10.5 5.83331 10.7267 5.83331 11C5.83331 11.2733 5.60665 11.5 5.33331 11.5Z" fill="currentColor"/>
<path d="M9.66665 11.5H6.99998C6.72665 11.5 6.49998 11.2733 6.49998 11C6.49998 10.7267 6.72665 10.5 6.99998 10.5H9.66665C9.93998 10.5 10.1666 10.7267 10.1666 11C10.1666 11.2733 9.93998 11.5 9.66665 11.5Z" fill="currentColor"/>
<path d="M11.7066 14.1667H4.29331C1.63998 14.1667 0.833313 13.3667 0.833313 10.74V5.26001C0.833313 2.63334 1.63998 1.83334 4.29331 1.83334H9.66665C9.93998 1.83334 10.1666 2.06001 10.1666 2.33334C10.1666 2.60668 9.93998 2.83334 9.66665 2.83334H4.29331C2.19998 2.83334 1.83331 3.19334 1.83331 5.26001V10.7333C1.83331 12.8 2.19998 13.16 4.29331 13.16H11.7C13.7933 13.16 14.16 12.8 14.16 10.7333V9.34668C14.16 9.07334 14.3866 8.84668 14.66 8.84668C14.9333 8.84668 15.16 9.07334 15.16 9.34668V10.7333C15.1666 13.3667 14.36 14.1667 11.7066 14.1667Z" fill="currentColor"/>
<path d="M13.3333 6.83328C13.06 6.83328 12.8333 6.60664 12.8333 6.3333V2.3333C12.8333 2.1333 12.9533 1.94664 13.14 1.8733C13.3266 1.79997 13.54 1.83997 13.6866 1.97997L15.02 3.3133C15.2133 3.50664 15.2133 3.82664 15.02 4.01997C14.8266 4.2133 14.5066 4.2133 14.3133 4.01997L13.8333 3.53997V6.3333C13.8333 6.60664 13.6066 6.83328 13.3333 6.83328Z" fill="currentColor"/>
<path d="M11.9996 4.16664C11.873 4.16664 11.7463 4.11997 11.6463 4.01997C11.453 3.82664 11.453 3.50664 11.6463 3.3133L12.9796 1.97997C13.173 1.78664 13.4933 1.78664 13.6866 1.97997C13.88 2.1733 13.8796 2.4933 13.6863 2.68664L12.353 4.01997C12.253 4.11997 12.1263 4.16664 11.9996 4.16664Z" fill="currentColor"/>
</svg>
