<svg width="16" height="16" viewBox="0 0 16 16" fill="none" xmlns="http://www.w3.org/2000/svg">
<path d="M7.66665 6.16668H1.33331C1.05998 6.16668 0.833313 5.94001 0.833313 5.66668C0.833313 5.39334 1.05998 5.16668 1.33331 5.16668H7.66665C7.93998 5.16668 8.16665 5.39334 8.16665 5.66668C8.16665 5.94001 7.93998 6.16668 7.66665 6.16668Z" fill="currentColor"/>
<path d="M5.33331 11.5H3.99998C3.72665 11.5 3.49998 11.2733 3.49998 11C3.49998 10.7267 3.72665 10.5 3.99998 10.5H5.33331C5.60665 10.5 5.83331 10.7267 5.83331 11C5.83331 11.2733 5.60665 11.5 5.33331 11.5Z" fill="currentColor"/>
<path d="M9.66665 11.5H6.99998C6.72665 11.5 6.49998 11.2733 6.49998 11C6.49998 10.7267 6.72665 10.5 6.99998 10.5H9.66665C9.93998 10.5 10.1666 10.7267 10.1666 11C10.1666 11.2733 9.93998 11.5 9.66665 11.5Z" fill="currentColor"/>
<path d="M11.7066 14.1667H4.29331C1.63998 14.1667 0.833313 13.3667 0.833313 10.74V5.26001C0.833313 2.63334 1.63998 1.83334 4.29331 1.83334H9.66665C9.93998 1.83334 10.1666 2.06001 10.1666 2.33334C10.1666 2.60668 9.93998 2.83334 9.66665 2.83334H4.29331C2.19998 2.83334 1.83331 3.19334 1.83331 5.26001V10.7333C1.83331 12.8 2.19998 13.16 4.29331 13.16H11.7C13.7933 13.16 14.16 12.8 14.16 10.7333V8.01334C14.16 7.74001 14.3866 7.51334 14.66 7.51334C14.9333 7.51334 15.16 7.74001 15.16 8.01334V10.7333C15.1666 13.3667 14.36 14.1667 11.7066 14.1667Z" fill="currentColor"/>
<path d="M10.3462 7.62674C10.0862 7.62674 9.83958 7.53341 9.66625 7.35341C9.45291 7.14008 9.35958 6.83341 9.40625 6.51338L9.53958 5.56671C9.57291 5.32671 9.71958 5.04004 9.88625 4.87338L12.3596 2.40004C13.3396 1.42004 14.1929 1.98004 14.6196 2.40004C15.0396 2.82004 15.5996 3.67338 14.6196 4.66004L12.1462 7.13341C11.9729 7.30674 11.6862 7.44674 11.4529 7.48008L10.5062 7.61341C10.4529 7.62008 10.3996 7.62674 10.3462 7.62674ZM13.4862 2.85338C13.3529 2.85338 13.2329 2.94671 13.0662 3.10671L10.5996 5.58004C10.5796 5.60671 10.5396 5.68004 10.5329 5.71338L10.3996 6.61338L11.3062 6.48671C11.3396 6.48004 11.4129 6.44004 11.4396 6.42004L13.9129 3.94671C14.2262 3.63338 14.2729 3.46004 13.9129 3.10671C13.7396 2.93338 13.6129 2.85338 13.4862 2.85338Z" fill="currentColor"/>
<path d="M13.9134 5.16005C13.8668 5.16005 13.8201 5.15338 13.7801 5.14005C12.8668 4.88005 12.1401 4.16005 11.8868 3.24672C11.8134 2.98005 11.9668 2.70672 12.2334 2.62672C12.5001 2.55338 12.7734 2.70672 12.8534 2.97338C13.0201 3.55338 13.4801 4.01338 14.0601 4.18005C14.3268 4.25338 14.4801 4.53338 14.4068 4.79338C14.3334 5.01338 14.1334 5.16005 13.9134 5.16005Z" fill="currentColor"/>
</svg>
