<svg width="16" height="16" viewBox="0 0 16 16" fill="none" xmlns="http://www.w3.org/2000/svg">
<path d="M14.6666 6.16668H1.33331C1.05998 6.16668 0.833313 5.94001 0.833313 5.66668C0.833313 5.39334 1.05998 5.16668 1.33331 5.16668H14.6666C14.94 5.16668 15.1666 5.39334 15.1666 5.66668C15.1666 5.94001 14.94 6.16668 14.6666 6.16668Z" fill="currentColor"/>
<path d="M5.33331 11.5H3.99998C3.72665 11.5 3.49998 11.2733 3.49998 11C3.49998 10.7267 3.72665 10.5 3.99998 10.5H5.33331C5.60665 10.5 5.83331 10.7267 5.83331 11C5.83331 11.2733 5.60665 11.5 5.33331 11.5Z" fill="currentColor"/>
<path d="M9.66665 11.5H6.99998C6.72665 11.5 6.49998 11.2733 6.49998 11C6.49998 10.7267 6.72665 10.5 6.99998 10.5H9.66665C9.93998 10.5 10.1666 10.7267 10.1666 11C10.1666 11.2733 9.93998 11.5 9.66665 11.5Z" fill="currentColor"/>
<path d="M11.7066 14.1667H4.29331C1.63998 14.1667 0.833313 13.3667 0.833313 10.74V5.26001C0.833313 2.63334 1.63998 1.83334 4.29331 1.83334H11.7C14.3533 1.83334 15.16 2.63334 15.16 5.26001V10.7333C15.1666 13.3667 14.36 14.1667 11.7066 14.1667ZM4.29331 2.83334C2.19998 2.83334 1.83331 3.19334 1.83331 5.26001V10.7333C1.83331 12.8 2.19998 13.16 4.29331 13.16H11.7C13.7933 13.16 14.16 12.8 14.16 10.7333V5.26001C14.16 3.19334 13.7933 2.83334 11.7 2.83334H4.29331Z" fill="currentColor"/>
</svg>
