<svg width="16" height="16" viewBox="0 0 16 16" fill="none" xmlns="http://www.w3.org/2000/svg">
<path d="M12.6666 8.9066H1.33331C1.05998 8.9066 0.833313 8.67993 0.833313 8.4066C0.833313 8.13327 1.05998 7.9066 1.33331 7.9066H12.6666C12.94 7.9066 13.1666 8.13327 13.1666 8.4066C13.1666 8.67993 12.94 8.9066 12.6666 8.9066Z" fill="currentColor"/>
<path d="M10.1466 14.4999H3.85333C1.56667 14.4999 0.833313 13.7732 0.833313 11.5132V6.8532C0.833313 5.05987 1.23999 3.99987 3.30666 3.87987C3.47999 3.87321 3.66 3.86653 3.85333 3.86653H10.1466C12.4333 3.86653 13.1666 4.5932 13.1666 6.8532V11.6199C13.14 13.7999 12.4066 14.4999 10.1466 14.4999ZM3.85333 4.86653C3.67333 4.86653 3.50667 4.87321 3.35333 4.87987C2.16 4.95321 1.83331 5.20653 1.83331 6.8532V11.5132C1.83331 13.2199 2.11333 13.4999 3.85333 13.4999H10.1466C11.8666 13.4999 12.1466 13.2332 12.1666 11.6132V6.8532C12.1666 5.14653 11.8866 4.86653 10.1466 4.86653H3.85333Z" fill="currentColor"/>
<path d="M12.6666 12.12C12.54 12.12 12.4133 12.0733 12.3266 11.9867C12.2266 11.8933 12.1666 11.76 12.1666 11.62V6.8532C12.1666 5.14653 11.8866 4.86653 10.1466 4.86653H3.85333C3.67333 4.86653 3.50667 4.87321 3.35333 4.87987C3.22 4.88654 3.08663 4.83333 2.98663 4.74C2.88663 4.64667 2.83331 4.51333 2.83331 4.37333C2.85998 2.2 3.59333 1.5 5.85333 1.5H12.1466C14.4333 1.5 15.1666 2.22667 15.1666 4.48667V9.14667C15.1666 10.94 14.76 12 12.6933 12.12C12.6866 12.12 12.6733 12.12 12.6666 12.12ZM3.85333 3.86653H10.1466C12.4333 3.86653 13.1666 4.5932 13.1666 6.8532V11.0667C13.94 10.9267 14.1666 10.5267 14.1666 9.14667V4.48667C14.1666 2.78 13.8866 2.5 12.1466 2.5H5.85333C4.33333 2.5 3.94 2.70653 3.85333 3.86653Z" fill="currentColor"/>
<path d="M4.64016 12.3734H3.49347C3.22013 12.3734 2.99347 12.1467 2.99347 11.8734C2.99347 11.6001 3.22013 11.3734 3.49347 11.3734H4.64016C4.91349 11.3734 5.14016 11.6001 5.14016 11.8734C5.14016 12.1467 4.92016 12.3734 4.64016 12.3734Z" fill="currentColor"/>
<path d="M8.36625 12.3734H6.0729C5.79957 12.3734 5.5729 12.1467 5.5729 11.8734C5.5729 11.6001 5.79957 11.3734 6.0729 11.3734H8.36625C8.63958 11.3734 8.86625 11.6001 8.86625 11.8734C8.86625 12.1467 8.64625 12.3734 8.36625 12.3734Z" fill="currentColor"/>
</svg>
