<svg width="16" height="16" viewBox="0 0 16 16" fill="none" xmlns="http://www.w3.org/2000/svg">
<path d="M14.6002 7.18686H1.26691C0.993573 7.18686 0.766907 6.96019 0.766907 6.68686C0.766907 6.4135 0.993573 6.18684 1.26691 6.18684H14.6002C14.8736 6.18684 15.1002 6.4135 15.1002 6.68686C15.1002 6.96019 14.8802 7.18686 14.6002 7.18686Z" fill="currentColor"/>
<path d="M7.64025 14.1867H4.23354C1.58021 14.1867 0.766907 13.3867 0.766907 10.76V5.28002C0.766907 3.18002 1.21357 2.01335 3.59357 1.87335C3.80023 1.86668 4.00687 1.86002 4.23354 1.86002H11.6402C14.2936 1.86002 15.1068 2.66002 15.1068 5.28668V8.22666C15.1068 8.49999 14.8802 8.72666 14.6068 8.72666C14.3335 8.72666 14.1068 8.49999 14.1068 8.22666V5.28668C14.1068 3.22668 13.7402 2.86002 11.6402 2.86002H4.23354C4.02021 2.86002 3.82691 2.86668 3.64024 2.87335C2.19357 2.96002 1.76691 3.28668 1.76691 5.28668V10.7667C1.76691 12.8267 2.13354 13.1933 4.23354 13.1933H7.64025C7.91358 13.1933 8.14025 13.42 8.14025 13.6933C8.14025 13.9667 7.91358 14.1867 7.64025 14.1867Z" fill="currentColor"/>
<path d="M11.9336 15.1869C10.1869 15.1869 8.76691 13.7669 8.76691 12.0202C8.76691 10.2735 10.1869 8.85352 11.9336 8.85352C13.6802 8.85352 15.1002 10.2735 15.1002 12.0202C15.1002 13.7669 13.6802 15.1869 11.9336 15.1869ZM11.9336 9.85352C10.7402 9.85352 9.76691 10.8269 9.76691 12.0202C9.76691 13.2135 10.7402 14.1869 11.9336 14.1869C13.1269 14.1869 14.1002 13.2135 14.1002 12.0202C14.1002 10.8269 13.1269 9.85352 11.9336 9.85352Z" fill="currentColor"/>
<path d="M12.6471 13.2667C12.5204 13.2667 12.3938 13.22 12.2938 13.12L10.8872 11.7133C10.6938 11.52 10.6938 11.2 10.8872 11.0067C11.0805 10.8133 11.4005 10.8133 11.5938 11.0067L13.0005 12.4133C13.1938 12.6067 13.1938 12.9267 13.0005 13.12C12.9072 13.2133 12.7738 13.2667 12.6471 13.2667Z" fill="currentColor"/>
<path d="M11.2197 13.28C11.093 13.28 10.9663 13.2333 10.8663 13.1333C10.673 12.94 10.673 12.62 10.8663 12.4267L12.273 11.02C12.4663 10.8267 12.7863 10.8267 12.9796 11.02C13.173 11.2133 13.173 11.5333 12.9796 11.7267L11.573 13.1333C11.4796 13.2333 11.353 13.28 11.2197 13.28Z" fill="currentColor"/>
<path d="M6.60024 11.1869H3.93357C3.66024 11.1869 3.43357 10.9602 3.43357 10.6869C3.43357 10.4135 3.66024 10.1869 3.93357 10.1869H6.60024C6.87358 10.1869 7.10025 10.4135 7.10025 10.6869C7.10025 10.9602 6.88025 11.1869 6.60024 11.1869Z" fill="currentColor"/>
</svg>
