<svg width="16" height="16" viewBox="0 0 16 16" fill="none" xmlns="http://www.w3.org/2000/svg">
<path d="M9.66665 6.16668H1.33331C1.05998 6.16668 0.833313 5.94001 0.833313 5.66668C0.833313 5.39334 1.05998 5.16668 1.33331 5.16668H9.66665C9.93998 5.16668 10.1666 5.39334 10.1666 5.66668C10.1666 5.94001 9.93998 6.16668 9.66665 6.16668Z" fill="currentColor"/>
<path d="M5.33331 11.5H3.99998C3.72665 11.5 3.49998 11.2733 3.49998 11C3.49998 10.7267 3.72665 10.5 3.99998 10.5H5.33331C5.60665 10.5 5.83331 10.7267 5.83331 11C5.83331 11.2733 5.60665 11.5 5.33331 11.5Z" fill="currentColor"/>
<path d="M9.66665 11.5H6.99998C6.72665 11.5 6.49998 11.2733 6.49998 11C6.49998 10.7267 6.72665 10.5 6.99998 10.5H9.66665C9.93998 10.5 10.1666 10.7267 10.1666 11C10.1666 11.2733 9.93998 11.5 9.66665 11.5Z" fill="currentColor"/>
<path d="M11.7066 14.1667H4.29331C1.63998 14.1667 0.833313 13.3667 0.833313 10.74V5.26001C0.833313 2.63334 1.63998 1.83334 4.29331 1.83334H9.66665C9.93998 1.83334 10.1666 2.06001 10.1666 2.33334C10.1666 2.60668 9.93998 2.83334 9.66665 2.83334H4.29331C2.19998 2.83334 1.83331 3.19334 1.83331 5.26001V10.7333C1.83331 12.8 2.19998 13.16 4.29331 13.16H11.7C13.7933 13.16 14.16 12.8 14.16 10.7333V9.34668C14.16 9.07334 14.3866 8.84668 14.66 8.84668C14.9333 8.84668 15.16 9.07334 15.16 9.34668V10.7333C15.1666 13.3667 14.36 14.1667 11.7066 14.1667Z" fill="currentColor"/>
<path d="M13.3333 6.83334C13.2666 6.83334 13.2066 6.82001 13.14 6.79334C12.9533 6.71334 12.8333 6.53334 12.8333 6.33334V2.33334C12.8333 2.06001 13.06 1.83334 13.3333 1.83334C13.6066 1.83334 13.8333 2.06001 13.8333 2.33334V5.12668L14.3133 4.64668C14.5066 4.45334 14.8266 4.45334 15.02 4.64668C15.2133 4.84001 15.2133 5.16001 15.02 5.35334L13.6866 6.68668C13.5933 6.78001 13.4666 6.83334 13.3333 6.83334Z" fill="currentColor"/>
<path d="M13.3333 6.83334C13.2066 6.83334 13.0796 6.78661 12.9796 6.68661L11.6463 5.3533C11.453 5.15997 11.453 4.83997 11.6463 4.64664C11.8396 4.4533 12.1596 4.4533 12.353 4.64664L13.6863 5.97997C13.8796 6.1733 13.88 6.49337 13.6866 6.68668C13.5866 6.78668 13.46 6.83334 13.3333 6.83334Z" fill="currentColor"/>
</svg>
