<svg width="16" height="16" viewBox="0 0 16 16" fill="none" xmlns="http://www.w3.org/2000/svg">
<path d="M14.6667 7.16666H1.33333C1.05999 7.16666 0.833326 6.94 0.833326 6.66666C0.833326 6.39333 1.05999 6.16666 1.33333 6.16666H14.6667C14.94 6.16666 15.1667 6.39333 15.1667 6.66666C15.1667 6.94 14.94 7.16666 14.6667 7.16666Z" fill="currentColor"/>
<path d="M7.70013 14.1665H4.29349C1.64016 14.1665 0.826813 13.3665 0.826813 10.7399V5.25984C0.826813 3.15984 1.27347 1.99318 3.65347 1.85318C3.85347 1.84651 4.06683 1.83984 4.29349 1.83984H11.7001C14.3535 1.83984 15.1668 2.63984 15.1668 5.26651V8.20653C15.1668 8.47986 14.9401 8.70653 14.6668 8.70653C14.3935 8.70653 14.1668 8.47986 14.1668 8.20653V5.26651C14.1668 3.20651 13.8001 2.83984 11.7001 2.83984H4.29349C4.08016 2.83984 3.88681 2.84651 3.70015 2.85318C2.25348 2.93984 1.82681 3.26651 1.82681 5.26651V10.7465C1.82681 12.8065 2.19349 13.1732 4.29349 13.1732H7.70013C7.97346 13.1732 8.20013 13.3999 8.20013 13.6732C8.20013 13.9465 7.98013 14.1665 7.70013 14.1665Z" fill="currentColor"/>
<path d="M6.66666 11.1667H3.99999C3.72666 11.1667 3.49999 10.94 3.49999 10.6667C3.49999 10.3933 3.72666 10.1667 3.99999 10.1667H6.66666C6.93999 10.1667 7.16666 10.3933 7.16666 10.6667C7.16666 10.94 6.93999 11.1667 6.66666 11.1667Z" fill="currentColor"/>
<path d="M12 15.1667C10.8933 15.1667 9.85333 14.58 9.29333 13.6267C8.99333 13.1467 8.83333 12.58 8.83333 12C8.83333 10.2533 10.2533 8.83333 12 8.83333C13.7467 8.83333 15.1667 10.2533 15.1667 12C15.1667 12.58 15.0067 13.1467 14.7067 13.6333C14.1467 14.58 13.1067 15.1667 12 15.1667ZM12 9.83333C10.8067 9.83333 9.83333 10.8067 9.83333 12C9.83333 12.3933 9.93999 12.78 10.1467 13.1133C10.5333 13.7667 11.2467 14.1667 12 14.1667C12.7533 14.1667 13.4667 13.7667 13.8533 13.12C14.06 12.78 14.1667 12.4 14.1667 12C14.1667 10.8067 13.1933 9.83333 12 9.83333Z" fill="currentColor"/>
<path d="M11.6193 13.1601C11.4926 13.1601 11.366 13.1134 11.266 13.0134L10.6059 12.3534C10.4126 12.1601 10.4126 11.8401 10.6059 11.6467C10.7993 11.4534 11.1193 11.4534 11.3126 11.6467L11.6326 11.9667L12.6993 10.9801C12.8993 10.7934 13.2193 10.8067 13.4059 11.0067C13.5926 11.2067 13.5793 11.5267 13.3793 11.7134L11.9593 13.0267C11.8593 13.1133 11.7393 13.1601 11.6193 13.1601Z" fill="currentColor"/>
</svg>
