<svg width="16" height="16" viewBox="0 0 16 16" fill="none" xmlns="http://www.w3.org/2000/svg">
<path d="M8.99998 6.16668H1.33331C1.05998 6.16668 0.833313 5.94001 0.833313 5.66668C0.833313 5.39334 1.05998 5.16668 1.33331 5.16668H8.99998C9.27331 5.16668 9.49998 5.39334 9.49998 5.66668C9.49998 5.94001 9.27331 6.16668 8.99998 6.16668Z" fill="currentColor"/>
<path d="M5.33331 11.5H3.99998C3.72665 11.5 3.49998 11.2733 3.49998 11C3.49998 10.7267 3.72665 10.5 3.99998 10.5H5.33331C5.60665 10.5 5.83331 10.7267 5.83331 11C5.83331 11.2733 5.60665 11.5 5.33331 11.5Z" fill="currentColor"/>
<path d="M9.66665 11.5H6.99998C6.72665 11.5 6.49998 11.2733 6.49998 11C6.49998 10.7267 6.72665 10.5 6.99998 10.5H9.66665C9.93998 10.5 10.1666 10.7267 10.1666 11C10.1666 11.2733 9.93998 11.5 9.66665 11.5Z" fill="currentColor"/>
<path d="M11.7066 14.1667H4.29331C1.63998 14.1667 0.833313 13.3667 0.833313 10.74V5.26001C0.833313 2.63334 1.63998 1.83334 4.29331 1.83334H8.99998C9.27331 1.83334 9.49998 2.06001 9.49998 2.33334C9.49998 2.60668 9.27331 2.83334 8.99998 2.83334H4.29331C2.19998 2.83334 1.83331 3.19334 1.83331 5.26001V10.7333C1.83331 12.8 2.19998 13.16 4.29331 13.16H11.7C13.7933 13.16 14.16 12.8 14.16 10.7333V8.01334C14.16 7.74001 14.3866 7.51334 14.66 7.51334C14.9333 7.51334 15.16 7.74001 15.16 8.01334V10.7333C15.1666 13.3667 14.36 14.1667 11.7066 14.1667Z" fill="currentColor"/>
<path d="M14.6666 4.66668H11C10.7266 4.66668 10.5 4.44001 10.5 4.16668C10.5 3.89334 10.7266 3.66668 11 3.66668H14.6666C14.94 3.66668 15.1666 3.89334 15.1666 4.16668C15.1666 4.44001 14.94 4.66668 14.6666 4.66668Z" fill="currentColor"/>
<path d="M12.8333 6.50001C12.56 6.50001 12.3333 6.27334 12.3333 6.00001V2.33334C12.3333 2.06001 12.56 1.83334 12.8333 1.83334C13.1066 1.83334 13.3333 2.06001 13.3333 2.33334V6.00001C13.3333 6.27334 13.1066 6.50001 12.8333 6.50001Z" fill="currentColor"/>
</svg>
