<svg width="16" height="16" viewBox="0 0 16 16" fill="none" xmlns="http://www.w3.org/2000/svg">
<g clip-path="url(#clip0_2_5216)">
<path d="M7.99998 11.8734H1.33331C1.05998 11.8734 0.833313 11.6467 0.833313 11.3734C0.833313 11.1001 1.05998 10.8734 1.33331 10.8734H7.99998C8.27331 10.8734 8.49998 11.1001 8.49998 11.3734C8.49998 11.6534 8.27331 11.8734 7.99998 11.8734Z" fill="currentColor"/>
<path d="M6.51984 15.1667H2.81981C1.35981 15.1667 0.839826 14.6533 0.839826 13.2V10.4667C0.839826 9.01334 1.35981 8.50001 2.81981 8.50001H6.51984C7.97985 8.50001 8.49985 9.01334 8.49985 10.4667V13.2067C8.49985 14.6533 7.97985 15.1667 6.51984 15.1667ZM2.81313 9.50001C1.90647 9.50001 1.83315 9.57334 1.83315 10.4667V13.2067C1.83315 14.1 1.90647 14.1733 2.81313 14.1733H6.51317C7.41985 14.1733 7.49311 14.1 7.49311 13.2067V10.4667C7.49311 9.57334 7.41985 9.50001 6.51317 9.50001H2.81313Z" fill="currentColor"/>
<path d="M10.0001 15.1667C9.82011 15.1667 9.65345 15.0667 9.56678 14.9133C9.48011 14.7533 9.48011 14.5667 9.57345 14.4067L10.2734 13.24C10.4134 13.0067 10.7201 12.9267 10.9601 13.0667C11.2001 13.2067 11.2734 13.5133 11.1334 13.7533L10.9534 14.0533C12.7934 13.62 14.1734 11.9667 14.1734 9.99334C14.1734 9.72001 14.4001 9.49334 14.6734 9.49334C14.9468 9.49334 15.1734 9.72001 15.1734 9.99334C15.1668 12.8467 12.8468 15.1667 10.0001 15.1667Z" fill="currentColor"/>
<path d="M1.33331 6.50001C1.05998 6.50001 0.833313 6.27334 0.833313 6.00001C0.833313 3.15334 3.15331 0.833344 5.99998 0.833344C6.17998 0.833344 6.34666 0.933343 6.43333 1.08668C6.51999 1.24668 6.51999 1.43334 6.42665 1.59334L5.72667 2.76001C5.58667 2.99334 5.27998 3.07334 5.03998 2.93334C4.79998 2.79334 4.72664 2.48668 4.86664 2.24668L5.04665 1.94668C3.20665 2.38001 1.82664 4.03334 1.82664 6.00668C1.83331 6.27334 1.60665 6.50001 1.33331 6.50001Z" fill="currentColor"/>
<path d="M12.3333 7.83334C10.4066 7.83334 8.83331 6.26668 8.83331 4.33334C8.83331 2.40001 10.4 0.833344 12.3333 0.833344C14.2666 0.833344 15.8333 2.40001 15.8333 4.33334C15.8333 6.26668 14.26 7.83334 12.3333 7.83334ZM12.3333 1.83334C10.9533 1.83334 9.83331 2.95334 9.83331 4.33334C9.83331 5.71334 10.9533 6.83334 12.3333 6.83334C13.7133 6.83334 14.8333 5.71334 14.8333 4.33334C14.8333 2.95334 13.7133 1.83334 12.3333 1.83334Z" fill="currentColor"/>
</g>
<defs>
<clipPath id="clip0_2_5216">
<rect width="16" height="16" fill="currentColor"/>
</clipPath>
</defs>
</svg>
