<svg width="16" height="16" viewBox="0 0 16 16" fill="none" xmlns="http://www.w3.org/2000/svg">
<g clip-path="url(#clip0_2_4925)">
<path d="M2.61941 11.0867C2.49274 11.0867 2.36607 11.0401 2.26607 10.9401C2.07274 10.7467 2.07274 10.4267 2.26607 10.2334L10.2327 2.26674C10.426 2.0734 10.746 2.0734 10.9394 2.26674C11.1327 2.46007 11.1327 2.78007 10.9394 2.9734L2.97274 10.9467C2.87941 11.0401 2.74607 11.0867 2.61941 11.0867Z" fill="currentColor"/>
<path d="M7.39938 12.6867C7.27271 12.6867 7.14605 12.64 7.04605 12.54C6.85271 12.3467 6.85271 12.0267 7.04605 11.8333L7.84605 11.0333C8.03938 10.84 8.35938 10.84 8.55271 11.0333C8.74605 11.2267 8.74605 11.5467 8.55271 11.74L7.75271 12.54C7.65938 12.6333 7.53271 12.6867 7.39938 12.6867Z" fill="currentColor"/>
<path d="M9.19365 10.8934C9.06698 10.8934 8.94031 10.8467 8.84031 10.7467C8.64698 10.5534 8.64698 10.2334 8.84031 10.0401L10.4336 8.44672C10.627 8.25339 10.947 8.25339 11.1403 8.44672C11.3336 8.64006 11.3336 8.96006 11.1403 9.15339L9.54698 10.7467C9.45365 10.8401 9.32031 10.8934 9.19365 10.8934Z" fill="currentColor"/>
<path d="M7.40058 15.1666C6.74725 15.1666 6.09391 14.7666 5.30057 13.9733L2.02724 10.6999C0.433907 9.10659 0.440574 8.07992 2.04724 6.47326L6.47391 2.0466C8.08058 0.439933 9.10725 0.433267 10.7006 2.0266L13.9739 5.29993C15.5672 6.89326 15.5606 7.91992 13.9539 9.52659L9.52725 13.9533C8.72058 14.7599 8.06058 15.1666 7.40058 15.1666ZM8.60058 1.83326C8.25391 1.83326 7.81391 2.11993 7.18058 2.75326L2.75391 7.17992C2.12057 7.81326 1.83391 8.25326 1.83391 8.59326C1.83391 8.93992 2.10057 9.35992 2.73391 9.99326L6.00724 13.2666C6.64057 13.8999 7.05391 14.1666 7.40058 14.1666C7.40058 14.1666 7.40058 14.1666 7.40725 14.1666C7.75391 14.1666 8.18725 13.8799 8.82058 13.2466L13.2472 8.81992C13.8806 8.18659 14.1672 7.74659 14.1672 7.40659C14.1672 7.05992 13.9006 6.63993 13.2672 6.0066L9.99391 2.73326C9.36725 2.09993 8.94725 1.83326 8.60058 1.83326Z" fill="currentColor"/>
<path d="M14.6666 15.1667H1.33331C1.05998 15.1667 0.833313 14.94 0.833313 14.6667C0.833313 14.3933 1.05998 14.1667 1.33331 14.1667H14.6666C14.94 14.1667 15.1666 14.3933 15.1666 14.6667C15.1666 14.94 14.94 15.1667 14.6666 15.1667Z" fill="currentColor"/>
</g>
<defs>
<clipPath id="clip0_2_4925">
<rect width="16" height="16" fill="currentColor"/>
</clipPath>
</defs>
</svg>
