<svg width="16" height="16" viewBox="0 0 16 16" fill="none" xmlns="http://www.w3.org/2000/svg">
<path d="M9.00001 6.16668H1.33334C1.06001 6.16668 0.833344 5.94001 0.833344 5.66668C0.833344 5.39334 1.06001 5.16668 1.33334 5.16668H9.00001C9.27334 5.16668 9.50001 5.39334 9.50001 5.66668C9.50001 5.94001 9.27334 6.16668 9.00001 6.16668Z" fill="currentColor"/>
<path d="M5.33334 11.5H4.00001C3.72668 11.5 3.50001 11.2733 3.50001 11C3.50001 10.7267 3.72668 10.5 4.00001 10.5H5.33334C5.60668 10.5 5.83334 10.7267 5.83334 11C5.83334 11.2733 5.60668 11.5 5.33334 11.5Z" fill="currentColor"/>
<path d="M9.66668 11.5H7.00001C6.72668 11.5 6.50001 11.2733 6.50001 11C6.50001 10.7267 6.72668 10.5 7.00001 10.5H9.66668C9.94001 10.5 10.1667 10.7267 10.1667 11C10.1667 11.2733 9.94001 11.5 9.66668 11.5Z" fill="currentColor"/>
<path d="M11.7067 14.1667H4.29334C1.64001 14.1667 0.833344 13.3667 0.833344 10.74V5.26001C0.833344 2.63334 1.64001 1.83334 4.29334 1.83334H9.00001C9.27334 1.83334 9.50001 2.06001 9.50001 2.33334C9.50001 2.60668 9.27334 2.83334 9.00001 2.83334H4.29334C2.20001 2.83334 1.83334 3.19334 1.83334 5.26001V10.7333C1.83334 12.8 2.20001 13.16 4.29334 13.16H11.7C13.7933 13.16 14.16 12.8 14.16 10.7333V7.34668C14.16 7.07334 14.3867 6.84668 14.66 6.84668C14.9333 6.84668 15.16 7.07334 15.16 7.34668V10.7333C15.1667 13.3667 14.36 14.1667 11.7067 14.1667Z" fill="currentColor"/>
<path d="M11.9997 5.49997C11.873 5.49997 11.7463 5.4533 11.6463 5.3533L10.6463 4.3533C10.453 4.15997 10.453 3.83997 10.6463 3.64664C10.8397 3.4533 11.1597 3.4533 11.353 3.64664L11.9997 4.2933L14.313 1.97997C14.5063 1.78664 14.8263 1.78664 15.0197 1.97997C15.213 2.1733 15.213 2.4933 15.0197 2.68664L12.353 5.3533C12.253 5.4533 12.1263 5.49997 11.9997 5.49997Z" fill="currentColor"/>
</svg>
