<svg width="16" height="16" viewBox="0 0 16 16" fill="none" xmlns="http://www.w3.org/2000/svg">
<g clip-path="url(#clip0_2_5399)">
<path d="M10.16 6.16667H1.33334C1.06001 6.16667 0.833344 5.94 0.833344 5.66667C0.833344 5.39333 1.06001 5.16667 1.33334 5.16667H10.16C10.4333 5.16667 10.66 5.39333 10.66 5.66667C10.66 5.94 10.4333 6.16667 10.16 6.16667Z" fill="currentColor"/>
<path d="M4.86001 11.5H4.00001C3.72668 11.5 3.50001 11.2733 3.50001 11C3.50001 10.7267 3.72668 10.5 4.00001 10.5H4.86001C5.13334 10.5 5.36001 10.7267 5.36001 11C5.36001 11.2733 5.14001 11.5 4.86001 11.5Z" fill="currentColor"/>
<path d="M9.66668 11.5H7.33334C7.06001 11.5 6.83334 11.2733 6.83334 11C6.83334 10.7267 7.06001 10.5 7.33334 10.5H9.66668C9.94001 10.5 10.1667 10.7267 10.1667 11C10.1667 11.2733 9.94001 11.5 9.66668 11.5Z" fill="currentColor"/>
<path d="M11.707 14.1667H5.32032C5.04699 14.1667 4.82032 13.9401 4.82032 13.6667C4.82032 13.3934 5.04699 13.1667 5.32032 13.1667H11.707C13.8003 13.1667 14.167 12.8067 14.167 10.7401V4.59343C14.167 4.32009 14.3937 4.09343 14.667 4.09343C14.9403 4.09343 15.167 4.32009 15.167 4.59343V10.7334C15.167 13.3667 14.3603 14.1667 11.707 14.1667Z" fill="currentColor"/>
<path d="M2.47334 13.9267C2.41334 13.9267 2.34668 13.9133 2.28668 13.8933C1.08001 13.4133 0.833344 12.2867 0.833344 10.74V5.26C0.833344 2.63333 1.64001 1.83333 4.29334 1.83333H11.7C12.46 1.83333 13.02 1.89333 13.46 2.02667C13.7267 2.10667 13.8733 2.38 13.8 2.64667C13.72 2.91333 13.44 3.06 13.18 2.98667C12.8333 2.88667 12.3667 2.84 11.7 2.84H4.29334C2.20001 2.84 1.83334 3.2 1.83334 5.26667V10.74C1.83334 12.3333 2.12001 12.7533 2.66001 12.9667C2.92001 13.0667 3.04001 13.36 2.94001 13.6133C2.86001 13.8067 2.67334 13.9267 2.47334 13.9267Z" fill="currentColor"/>
<path d="M1.33298 15.1666C1.20631 15.1666 1.07964 15.1199 0.979644 15.0199C0.78631 14.8266 0.78631 14.5066 0.979644 14.3133L14.313 0.979961C14.5063 0.786628 14.8263 0.786628 15.0197 0.979961C15.213 1.17329 15.213 1.49329 15.0197 1.68663L1.68631 15.0199C1.58631 15.1199 1.45964 15.1666 1.33298 15.1666Z" fill="currentColor"/>
</g>
<defs>
<clipPath id="clip0_2_5399">
<rect width="16" height="16" fill="currentColor"/>
</clipPath>
</defs>
</svg>
