<svg width="16" height="16" viewBox="0 0 16 16" fill="none" xmlns="http://www.w3.org/2000/svg">
<g clip-path="url(#clip0_2_5164)">
<path d="M4.66668 7.16668H3.33334C1.72001 7.16668 0.833344 6.28001 0.833344 4.66668V3.33334C0.833344 1.72001 1.72001 0.833344 3.33334 0.833344H4.66668C6.28001 0.833344 7.16668 1.72001 7.16668 3.33334V4.66668C7.16668 6.28001 6.28001 7.16668 4.66668 7.16668ZM3.33334 1.83334C2.28001 1.83334 1.83334 2.28001 1.83334 3.33334V4.66668C1.83334 5.72001 2.28001 6.16668 3.33334 6.16668H4.66668C5.72001 6.16668 6.16668 5.72001 6.16668 4.66668V3.33334C6.16668 2.28001 5.72001 1.83334 4.66668 1.83334H3.33334Z" fill="currentColor"/>
<path d="M12.6667 7.16668H11.3333C9.72001 7.16668 8.83334 6.28001 8.83334 4.66668V3.33334C8.83334 1.72001 9.72001 0.833344 11.3333 0.833344H12.6667C14.28 0.833344 15.1667 1.72001 15.1667 3.33334V4.66668C15.1667 6.28001 14.28 7.16668 12.6667 7.16668ZM11.3333 1.83334C10.28 1.83334 9.83334 2.28001 9.83334 3.33334V4.66668C9.83334 5.72001 10.28 6.16668 11.3333 6.16668H12.6667C13.72 6.16668 14.1667 5.72001 14.1667 4.66668V3.33334C14.1667 2.28001 13.72 1.83334 12.6667 1.83334H11.3333Z" fill="currentColor"/>
<path d="M12.6667 15.1667H11.3333C9.72001 15.1667 8.83334 14.28 8.83334 12.6667V11.3333C8.83334 9.72001 9.72001 8.83334 11.3333 8.83334H12.6667C14.28 8.83334 15.1667 9.72001 15.1667 11.3333V12.6667C15.1667 14.28 14.28 15.1667 12.6667 15.1667ZM11.3333 9.83334C10.28 9.83334 9.83334 10.28 9.83334 11.3333V12.6667C9.83334 13.72 10.28 14.1667 11.3333 14.1667H12.6667C13.72 14.1667 14.1667 13.72 14.1667 12.6667V11.3333C14.1667 10.28 13.72 9.83334 12.6667 9.83334H11.3333Z" fill="currentColor"/>
<path d="M4.66668 15.1667H3.33334C1.72001 15.1667 0.833344 14.28 0.833344 12.6667V11.3333C0.833344 9.72001 1.72001 8.83334 3.33334 8.83334H4.66668C6.28001 8.83334 7.16668 9.72001 7.16668 11.3333V12.6667C7.16668 14.28 6.28001 15.1667 4.66668 15.1667ZM3.33334 9.83334C2.28001 9.83334 1.83334 10.28 1.83334 11.3333V12.6667C1.83334 13.72 2.28001 14.1667 3.33334 14.1667H4.66668C5.72001 14.1667 6.16668 13.72 6.16668 12.6667V11.3333C6.16668 10.28 5.72001 9.83334 4.66668 9.83334H3.33334Z" fill="currentColor"/>
</g>
<defs>
<clipPath id="clip0_2_5164">
<rect width="16" height="16" fill="currentColor"/>
</clipPath>
</defs>
</svg>
