<svg width="16" height="16" viewBox="0 0 16 16" fill="none" xmlns="http://www.w3.org/2000/svg">
<g clip-path="url(#clip0_2_5162)">
<path d="M12.6667 7.16668H11.3333C9.72001 7.16668 8.83334 6.28001 8.83334 4.66668V3.33334C8.83334 1.72001 9.72001 0.833344 11.3333 0.833344H12.6667C14.28 0.833344 15.1667 1.72001 15.1667 3.33334V4.66668C15.1667 6.28001 14.28 7.16668 12.6667 7.16668ZM11.3333 1.83334C10.28 1.83334 9.83334 2.28001 9.83334 3.33334V4.66668C9.83334 5.72001 10.28 6.16668 11.3333 6.16668H12.6667C13.72 6.16668 14.1667 5.72001 14.1667 4.66668V3.33334C14.1667 2.28001 13.72 1.83334 12.6667 1.83334H11.3333Z" fill="currentColor"/>
<path d="M4.66668 15.1667H3.33334C1.72001 15.1667 0.833344 14.28 0.833344 12.6667V11.3333C0.833344 9.72001 1.72001 8.83334 3.33334 8.83334H4.66668C6.28001 8.83334 7.16668 9.72001 7.16668 11.3333V12.6667C7.16668 14.28 6.28001 15.1667 4.66668 15.1667ZM3.33334 9.83334C2.28001 9.83334 1.83334 10.28 1.83334 11.3333V12.6667C1.83334 13.72 2.28001 14.1667 3.33334 14.1667H4.66668C5.72001 14.1667 6.16668 13.72 6.16668 12.6667V11.3333C6.16668 10.28 5.72001 9.83334 4.66668 9.83334H3.33334Z" fill="currentColor"/>
<path d="M4.00001 7.16668C2.25334 7.16668 0.833344 5.74668 0.833344 4.00001C0.833344 2.25334 2.25334 0.833344 4.00001 0.833344C5.74668 0.833344 7.16668 2.25334 7.16668 4.00001C7.16668 5.74668 5.74668 7.16668 4.00001 7.16668ZM4.00001 1.83334C2.80668 1.83334 1.83334 2.80668 1.83334 4.00001C1.83334 5.19334 2.80668 6.16668 4.00001 6.16668C5.19334 6.16668 6.16668 5.19334 6.16668 4.00001C6.16668 2.80668 5.19334 1.83334 4.00001 1.83334Z" fill="currentColor"/>
<path d="M12 15.1667C10.2533 15.1667 8.83334 13.7467 8.83334 12C8.83334 10.2533 10.2533 8.83334 12 8.83334C13.7467 8.83334 15.1667 10.2533 15.1667 12C15.1667 13.7467 13.7467 15.1667 12 15.1667ZM12 9.83334C10.8067 9.83334 9.83334 10.8067 9.83334 12C9.83334 13.1933 10.8067 14.1667 12 14.1667C13.1933 14.1667 14.1667 13.1933 14.1667 12C14.1667 10.8067 13.1933 9.83334 12 9.83334Z" fill="currentColor"/>
</g>
<defs>
<clipPath id="clip0_2_5162">
<rect width="16" height="16" fill="currentColor"/>
</clipPath>
</defs>
</svg>
