<svg width="16" height="16" viewBox="0 0 16 16" fill="none" xmlns="http://www.w3.org/2000/svg">
<g clip-path="url(#clip0_2_5158)">
<path d="M8.00001 15.1667C4.04668 15.1667 0.833344 11.9533 0.833344 8.00001C0.833344 4.04668 4.04668 0.833344 8.00001 0.833344C11.9533 0.833344 15.1667 4.04668 15.1667 8.00001C15.1667 11.9533 11.9533 15.1667 8.00001 15.1667ZM8.00001 1.83334C4.60001 1.83334 1.83334 4.60001 1.83334 8.00001C1.83334 11.4 4.60001 14.1667 8.00001 14.1667C11.4 14.1667 14.1667 11.4 14.1667 8.00001C14.1667 4.60001 11.4 1.83334 8.00001 1.83334Z" fill="currentColor"/>
<path d="M8.00001 9.83334C6.98668 9.83334 6.16668 9.01334 6.16668 8.00001C6.16668 6.98668 6.98668 6.16668 8.00001 6.16668C9.01334 6.16668 9.83334 6.98668 9.83334 8.00001C9.83334 9.01334 9.01334 9.83334 8.00001 9.83334ZM8.00001 7.16668C7.54001 7.16668 7.16668 7.54001 7.16668 8.00001C7.16668 8.46001 7.54001 8.83334 8.00001 8.83334C8.46001 8.83334 8.83334 8.46001 8.83334 8.00001C8.83334 7.54001 8.46001 7.16668 8.00001 7.16668Z" fill="currentColor"/>
</g>
<defs>
<clipPath id="clip0_2_5158">
<rect width="16" height="16" fill="currentColor"/>
</clipPath>
</defs>
</svg>
