<svg width="25" height="24" viewBox="0 0 25 24" fill="none" xmlns="http://www.w3.org/2000/svg">
<path d="M11.0368 8.0574C14.0053 6.10029 18.0438 6.04458 21.1623 8.44082C23.3206 10.0997 24.5194 12.5682 24.5651 15.145C24.6068 16.3256 24.4093 17.5024 23.9845 18.6046C22.9031 21.4263 20.6269 23.2843 18.0401 23.964C17.4224 24.1266 16.8004 23.722 16.7267 23.0877L16.6712 22.6097C16.6672 22.5737 16.6792 22.54 16.6787 22.5043L16.6712 22.4437C16.6095 21.922 16.9521 21.454 17.4564 21.3163C18.3064 21.0852 19.0968 20.6738 19.7739 20.1103C20.451 19.5467 20.999 18.8441 21.3806 18.0501C21.7616 17.2612 21.9683 16.3997 21.9869 15.5238C21.9817 13.633 21.1243 11.7711 19.5581 10.5896C17.3609 8.93253 14.5347 8.97738 12.4496 10.3434C12.0273 10.6199 11.463 10.5225 11.1316 10.1411L10.8171 9.77994C10.729 9.67797 10.6618 9.5596 10.6196 9.43164C10.5773 9.30368 10.5607 9.16863 10.5708 9.03424C10.552 8.84434 10.5856 8.65292 10.6677 8.4807C10.7499 8.30847 10.8776 8.162 11.0371 8.05711L11.0368 8.0574ZM0.312663 12.1259C0.481232 11.5088 1.14122 11.1716 1.72692 11.4239L2.16663 11.6148C2.56662 11.7871 2.78119 12.1845 2.76948 12.6053C2.78691 12.7425 2.78434 12.8847 2.74719 13.0267C2.63852 13.44 2.57275 13.8634 2.55091 14.2902C2.51694 15.5743 2.88591 16.8369 3.60604 17.9007C5.23572 20.3175 8.42824 21.2737 11.1042 20.1309C13.6162 19.0595 14.9893 16.6098 14.8741 14.1339C14.8501 13.6096 15.1893 13.1396 15.7035 13.0387L16.1741 12.9465C16.7935 12.8245 17.3721 13.2836 17.4084 13.9144C17.4221 14.1524 17.4247 14.3887 17.4198 14.6253C17.4055 17.9924 15.4581 21.2492 12.0142 22.6832C8.32881 24.216 3.97403 22.9609 1.64607 19.7101C0.426661 18.0067 -0.0876159 16.0524 0.0120967 14.1556C0.0332429 13.4696 0.134109 12.7886 0.312663 12.1259ZM12.1105 0.0443914C14.891 -0.232747 17.4307 0.807521 19.1995 2.61206C19.4338 2.85063 19.5183 3.16805 19.4792 3.47262C19.4901 3.79976 19.3661 4.12775 19.0809 4.34146L18.6972 4.6266C18.2921 4.92945 17.7209 4.90088 17.3644 4.54117C16.1513 3.31834 14.4344 2.59835 12.5485 2.73377C9.64765 2.94063 7.22483 5.23516 6.87284 8.13026C6.83627 8.43111 6.82998 8.72567 6.83484 9.01795C6.883 10.1127 7.22128 11.175 7.81504 12.0959C8.4088 13.0169 9.23669 13.7635 10.2139 14.2593C10.5799 14.4453 10.7671 14.8364 10.7408 15.2341C10.7539 15.3793 10.7476 15.5276 10.6979 15.6724L10.5436 16.1255C10.3391 16.7247 9.65336 16.9967 9.08937 16.7127C6.27256 15.2933 4.33145 12.3913 4.2866 9.02567C4.27108 8.53663 4.29516 8.04714 4.35859 7.56198C4.87659 3.59347 8.13853 0.440099 12.1102 0.0449628L12.1105 0.0443914Z" fill="currentColor"/>
</svg>
