<svg width="16" height="16" viewBox="0 0 16 16" fill="none" xmlns="http://www.w3.org/2000/svg">
<g clip-path="url(#clip0_2_5157)">
<path d="M7.99999 15.1667C4.04666 15.1667 0.833328 11.9533 0.833328 8.00001C0.833328 6.42668 1.33333 4.93334 2.27999 3.68001C2.44666 3.46001 2.75999 3.42001 2.97999 3.58668C3.19999 3.75334 3.24666 4.06668 3.07999 4.28668C2.26666 5.36001 1.83333 6.64668 1.83333 8.00001C1.83333 11.4 4.59999 14.1667 7.99999 14.1667C11.4 14.1667 14.1667 11.4 14.1667 8.00001C14.1667 4.60001 11.4 1.83334 7.99999 1.83334C7.72666 1.83334 7.49999 1.60668 7.49999 1.33334C7.49999 1.06001 7.72666 0.833344 7.99999 0.833344C11.9533 0.833344 15.1667 4.04668 15.1667 8.00001C15.1667 11.9533 11.9533 15.1667 7.99999 15.1667Z" fill="currentColor"/>
<path d="M7.99999 13.1667C5.15333 13.1667 2.83333 10.8467 2.83333 8.00001C2.83333 7.72668 3.05999 7.50001 3.33333 7.50001C3.60666 7.50001 3.83333 7.72668 3.83333 8.00001C3.83333 10.3 5.69999 12.1667 7.99999 12.1667C10.3 12.1667 12.1667 10.3 12.1667 8.00001C12.1667 5.70001 10.3 3.83334 7.99999 3.83334C7.72666 3.83334 7.49999 3.60668 7.49999 3.33334C7.49999 3.06001 7.72666 2.83334 7.99999 2.83334C10.8467 2.83334 13.1667 5.15334 13.1667 8.00001C13.1667 10.8467 10.8467 13.1667 7.99999 13.1667Z" fill="currentColor"/>
<path d="M7.99999 11.1667C7.72666 11.1667 7.49999 10.94 7.49999 10.6667C7.49999 10.3933 7.72666 10.1667 7.99999 10.1667C9.19333 10.1667 10.1667 9.19334 10.1667 8.00001C10.1667 6.80668 9.19333 5.83334 7.99999 5.83334C7.72666 5.83334 7.49999 5.60668 7.49999 5.33334C7.49999 5.06001 7.72666 4.83334 7.99999 4.83334C9.74666 4.83334 11.1667 6.25334 11.1667 8.00001C11.1667 9.74668 9.74666 11.1667 7.99999 11.1667Z" fill="currentColor"/>
</g>
<defs>
<clipPath id="clip0_2_5157">
<rect width="16" height="16" fill="currentColor"/>
</clipPath>
</defs>
</svg>
