<svg width="16" height="16" viewBox="0 0 16 16" fill="none" xmlns="http://www.w3.org/2000/svg">
<g clip-path="url(#clip0_2_5346)">
<path d="M14.6667 15.1667H1.33334C1.06001 15.1667 0.833344 14.94 0.833344 14.6667C0.833344 14.3933 1.06001 14.1667 1.33334 14.1667H14.6667C14.94 14.1667 15.1667 14.3933 15.1667 14.6667C15.1667 14.94 14.94 15.1667 14.6667 15.1667Z" fill="currentColor"/>
<path d="M9.50001 15.1667H6.50001C6.22668 15.1667 6.00001 14.94 6.00001 14.6667V2.66668C6.00001 1.52001 6.63334 0.833344 7.70001 0.833344H8.30001C9.36668 0.833344 10 1.52001 10 2.66668V14.6667C10 14.94 9.77334 15.1667 9.50001 15.1667ZM7.00001 14.1667H9.00001V2.66668C9.00001 1.90001 8.64001 1.83334 8.30001 1.83334H7.70001C7.36001 1.83334 7.00001 1.90001 7.00001 2.66668V14.1667Z" fill="currentColor"/>
<path d="M4.66668 15.1667H2.00001C1.72668 15.1667 1.50001 14.94 1.50001 14.6667V6.66668C1.50001 5.52001 2.08668 4.83334 3.06668 4.83334H3.60001C4.58001 4.83334 5.16668 5.52001 5.16668 6.66668V14.6667C5.16668 14.94 4.94001 15.1667 4.66668 15.1667ZM2.50001 14.1667H4.16668V6.66668C4.16668 5.83334 3.80001 5.83334 3.60001 5.83334H3.06668C2.86668 5.83334 2.50001 5.83334 2.50001 6.66668V14.1667Z" fill="currentColor"/>
<path d="M14 15.1667H11.3333C11.06 15.1667 10.8333 14.94 10.8333 14.6667V10C10.8333 8.85334 11.42 8.16668 12.4 8.16668H12.9333C13.9133 8.16668 14.5 8.85334 14.5 10V14.6667C14.5 14.94 14.2733 15.1667 14 15.1667ZM11.8333 14.1667H13.5V10C13.5 9.16668 13.1333 9.16668 12.9333 9.16668H12.4C12.2 9.16668 11.8333 9.16668 11.8333 10V14.1667Z" fill="currentColor"/>
</g>
<defs>
<clipPath id="clip0_2_5346">
<rect width="16" height="16" fill="currentColor"/>
</clipPath>
</defs>
</svg>
