<svg width="16" height="16" viewBox="0 0 16 16" fill="none" xmlns="http://www.w3.org/2000/svg">
<g clip-path="url(#clip0_2_5341)">
<path d="M4.66668 9.79334C4.39334 9.79334 4.16668 9.56668 4.16668 9.29334V7.15334C4.16668 6.88001 4.39334 6.65333 4.66668 6.65333C4.94001 6.65333 5.16668 6.88001 5.16668 7.15334V9.29334C5.16668 9.57334 4.94001 9.79334 4.66668 9.79334Z" fill="currentColor"/>
<path d="M8.00001 10.9533C7.72668 10.9533 7.50001 10.7267 7.50001 10.4533V6.00001C7.50001 5.72668 7.72668 5.50001 8.00001 5.50001C8.27334 5.50001 8.50001 5.72668 8.50001 6.00001V10.4533C8.50001 10.7267 8.27334 10.9533 8.00001 10.9533Z" fill="currentColor"/>
<path d="M11.3333 9.79334C11.06 9.79334 10.8333 9.56668 10.8333 9.29334V7.15334C10.8333 6.88001 11.06 6.65333 11.3333 6.65333C11.6067 6.65333 11.8333 6.88001 11.8333 7.15334V9.29334C11.8333 9.57334 11.6067 9.79334 11.3333 9.79334Z" fill="currentColor"/>
<path d="M10 15.1667H6.00001C2.38001 15.1667 0.833344 13.62 0.833344 10V6.00001C0.833344 2.38001 2.38001 0.833344 6.00001 0.833344H10C13.62 0.833344 15.1667 2.38001 15.1667 6.00001V10C15.1667 13.62 13.62 15.1667 10 15.1667ZM6.00001 1.83334C2.92668 1.83334 1.83334 2.92668 1.83334 6.00001V10C1.83334 13.0733 2.92668 14.1667 6.00001 14.1667H10C13.0733 14.1667 14.1667 13.0733 14.1667 10V6.00001C14.1667 2.92668 13.0733 1.83334 10 1.83334H6.00001Z" fill="currentColor"/>
</g>
<defs>
<clipPath id="clip0_2_5341">
<rect width="16" height="16" fill="currentColor"/>
</clipPath>
</defs>
</svg>
