<svg width="16" height="16" viewBox="0 0 16 16" fill="none" xmlns="http://www.w3.org/2000/svg">
<g clip-path="url(#clip0_2_5203)">
<path d="M9.99999 15.1667H5.99999C2.37999 15.1667 0.833328 13.62 0.833328 10V6.00001C0.833328 2.38001 2.37999 0.833344 5.99999 0.833344H9.99999C13.62 0.833344 15.1667 2.38001 15.1667 6.00001V10C15.1667 13.62 13.62 15.1667 9.99999 15.1667ZM5.99999 1.83334C2.92666 1.83334 1.83333 2.92668 1.83333 6.00001V10C1.83333 13.0733 2.92666 14.1667 5.99999 14.1667H9.99999C13.0733 14.1667 14.1667 13.0733 14.1667 10V6.00001C14.1667 2.92668 13.0733 1.83334 9.99999 1.83334H5.99999Z" fill="currentColor"/>
<path d="M10.3333 12.8333C9.31999 12.8333 8.49999 12.0133 8.49999 11V5.00001C8.49999 3.98668 9.31999 3.16668 10.3333 3.16668C11.3467 3.16668 12.1667 3.98668 12.1667 5.00001V11C12.1667 12.0133 11.3467 12.8333 10.3333 12.8333ZM10.3333 4.16668C9.87333 4.16668 9.49999 4.54001 9.49999 5.00001V11C9.49999 11.46 9.87333 11.8333 10.3333 11.8333C10.7933 11.8333 11.1667 11.46 11.1667 11V5.00001C11.1667 4.54001 10.7933 4.16668 10.3333 4.16668Z" fill="currentColor"/>
<path d="M5.66666 12.8333C4.65333 12.8333 3.83333 12.0133 3.83333 11V8.66668C3.83333 7.65334 4.65333 6.83334 5.66666 6.83334C6.67999 6.83334 7.49999 7.65334 7.49999 8.66668V11C7.49999 12.0133 6.67999 12.8333 5.66666 12.8333ZM5.66666 7.83334C5.20666 7.83334 4.83333 8.20668 4.83333 8.66668V11C4.83333 11.46 5.20666 11.8333 5.66666 11.8333C6.12666 11.8333 6.49999 11.46 6.49999 11V8.66668C6.49999 8.20668 6.12666 7.83334 5.66666 7.83334Z" fill="currentColor"/>
</g>
<defs>
<clipPath id="clip0_2_5203">
<rect width="16" height="16" fill="currentColor"/>
</clipPath>
</defs>
</svg>
