<svg width="16" height="16" viewBox="0 0 16 16" fill="none" xmlns="http://www.w3.org/2000/svg">
<g clip-path="url(#clip0_2_5151)">
<path d="M11.4866 14.3466C11.3599 14.3466 11.2333 14.2999 11.1333 14.1999C10.9399 14.0066 10.9399 13.6866 11.1333 13.4933L13.4933 11.1333C13.6866 10.9399 14.0066 10.9399 14.1999 11.1333C14.3933 11.3266 14.3933 11.6466 14.1999 11.8399L11.8399 14.1999C11.7466 14.2933 11.6133 14.3466 11.4866 14.3466Z" fill="currentColor"/>
<path d="M13.8466 14.3466C13.7199 14.3466 13.5933 14.2999 13.4933 14.1999L11.1333 11.8399C10.9399 11.6466 10.9399 11.3266 11.1333 11.1333C11.3266 10.9399 11.6466 10.9399 11.8399 11.1333L14.1999 13.4933C14.3933 13.6866 14.3933 14.0066 14.1999 14.1999C14.0999 14.2933 13.9733 14.3466 13.8466 14.3466Z" fill="currentColor"/>
<path d="M4.66667 9.50001C4.39334 9.50001 4.16667 9.27334 4.16667 9.00001V7.00001C4.16667 6.72668 4.39334 6.50001 4.66667 6.50001C4.94 6.50001 5.16667 6.72668 5.16667 7.00001V9.00001C5.16667 9.27334 4.94 9.50001 4.66667 9.50001Z" fill="currentColor"/>
<path d="M8 9.50001C7.72667 9.50001 7.5 9.27334 7.5 9.00001V7.00001C7.5 6.72668 7.72667 6.50001 8 6.50001C8.27334 6.50001 8.5 6.72668 8.5 7.00001V9.00001C8.5 9.27334 8.27334 9.50001 8 9.50001Z" fill="currentColor"/>
<path d="M11.3333 9.50001C11.06 9.50001 10.8333 9.27334 10.8333 9.00001V7.00001C10.8333 6.72668 11.06 6.50001 11.3333 6.50001C11.6067 6.50001 11.8333 6.72668 11.8333 7.00001V9.00001C11.8333 9.27334 11.6067 9.50001 11.3333 9.50001Z" fill="currentColor"/>
<path d="M8.66667 15.1667H6C2.38 15.1667 0.833336 13.62 0.833336 10V6.00001C0.833336 2.38001 2.38 0.833344 6 0.833344H10C13.62 0.833344 15.1667 2.38001 15.1667 6.00001V8.66668C15.1667 8.94001 14.94 9.16668 14.6667 9.16668C14.3933 9.16668 14.1667 8.94001 14.1667 8.66668V6.00001C14.1667 2.92668 13.0733 1.83334 10 1.83334H6C2.92667 1.83334 1.83334 2.92668 1.83334 6.00001V10C1.83334 13.0733 2.92667 14.1667 6 14.1667H8.66667C8.94 14.1667 9.16667 14.3933 9.16667 14.6667C9.16667 14.94 8.94 15.1667 8.66667 15.1667Z" fill="currentColor"/>
</g>
<defs>
<clipPath id="clip0_2_5151">
<rect width="16" height="16" fill="currentColor"/>
</clipPath>
</defs>
</svg>
