<svg width="16" height="16" viewBox="0 0 16 16" fill="none" xmlns="http://www.w3.org/2000/svg">
<g clip-path="url(#clip0_2_4844)">
<path d="M6.7402 12.1001H4.21354C3.94021 12.1001 3.71354 11.8734 3.71354 11.6001V8.18681C3.71354 7.49348 4.2802 6.92674 4.97354 6.92674H6.7402C7.01354 6.92674 7.2402 7.15341 7.2402 7.42674V11.5934C7.2402 11.8734 7.01354 12.1001 6.7402 12.1001ZM4.71354 11.1001H6.2402V7.93341H4.97354C4.83354 7.93341 4.71354 8.04674 4.71354 8.19341V11.1001Z" fill="currentColor"/>
<path d="M9.25974 12.1001H6.73307C6.45974 12.1001 6.23308 11.8734 6.23308 11.6001V5.16008C6.23308 4.46675 6.79974 3.90008 7.49307 3.90008H8.5064C9.19973 3.90008 9.7664 4.46675 9.7664 5.16008V11.6001C9.75974 11.8734 9.53973 12.1001 9.25974 12.1001ZM8.7664 11.1001V5.16008C8.7664 5.02008 8.65307 4.90008 8.5064 4.90008H7.49307C7.35307 4.90008 7.23307 5.01342 7.23307 5.16008V11.1001H8.7664Z" fill="currentColor"/>
<path d="M11.7871 12.1001H9.25974C8.9864 12.1001 8.7604 11.8734 8.7604 11.6001V8.56674C8.7604 8.29341 8.98707 8.06674 9.2604 8.06674H11.0271C11.7204 8.06674 12.2871 8.63341 12.2871 9.32674V11.6001C12.2871 11.8734 12.0671 12.1001 11.7871 12.1001ZM9.7604 11.1001H11.2871V9.32674C11.2871 9.18674 11.1737 9.06674 11.0271 9.06674H9.7604V11.1001Z" fill="currentColor"/>
<path d="M10 15.1667H6C2.38 15.1667 0.833336 13.62 0.833336 10V6.00001C0.833336 2.38001 2.38 0.833344 6 0.833344H10C13.62 0.833344 15.1667 2.38001 15.1667 6.00001V10C15.1667 13.62 13.62 15.1667 10 15.1667ZM6 1.83334C2.92667 1.83334 1.83334 2.92668 1.83334 6.00001V10C1.83334 13.0733 2.92667 14.1667 6 14.1667H10C13.0733 14.1667 14.1667 13.0733 14.1667 10V6.00001C14.1667 2.92668 13.0733 1.83334 10 1.83334H6Z" fill="currentColor"/>
</g>
<defs>
<clipPath id="clip0_2_4844">
<rect width="16" height="16" fill="currentColor"/>
</clipPath>
</defs>
</svg>
