<svg width="16" height="16" viewBox="0 0 16 16" fill="none" xmlns="http://www.w3.org/2000/svg">
<g clip-path="url(#clip0_2_5149)">
<path d="M8.66667 15.1667H6C2.38 15.1667 0.833332 13.62 0.833332 10V6.00001C0.833332 2.38001 2.38 0.833344 6 0.833344H10C13.62 0.833344 15.1667 2.38001 15.1667 6.00001V8.66668C15.1667 8.94001 14.94 9.16668 14.6667 9.16668C14.3933 9.16668 14.1667 8.94001 14.1667 8.66668V6.00001C14.1667 2.92668 13.0733 1.83334 10 1.83334H6C2.92667 1.83334 1.83333 2.92668 1.83333 6.00001V10C1.83333 13.0733 2.92667 14.1667 6 14.1667H8.66667C8.94 14.1667 9.16667 14.3933 9.16667 14.6667C9.16667 14.94 8.94 15.1667 8.66667 15.1667Z" fill="currentColor"/>
<path d="M8.66667 15.1667H6C2.38 15.1667 0.833332 13.62 0.833332 10V6.00001C0.833332 2.38001 2.38 0.833344 6 0.833344H10C13.62 0.833344 15.1667 2.38001 15.1667 6.00001V8.66668C15.1667 8.94001 14.94 9.16668 14.6667 9.16668C14.3933 9.16668 14.1667 8.94001 14.1667 8.66668V6.00001C14.1667 2.92668 13.0733 1.83334 10 1.83334H6C2.92667 1.83334 1.83333 2.92668 1.83333 6.00001V10C1.83333 13.0733 2.92667 14.1667 6 14.1667H8.66667C8.94 14.1667 9.16667 14.3933 9.16667 14.6667C9.16667 14.94 8.94 15.1667 8.66667 15.1667Z" fill="currentColor"/>
<path d="M4.66667 9.79334C4.39333 9.79334 4.16667 9.56668 4.16667 9.29334V7.15334C4.16667 6.88001 4.39333 6.65333 4.66667 6.65333C4.94 6.65333 5.16667 6.88001 5.16667 7.15334V9.29334C5.16667 9.57334 4.94 9.79334 4.66667 9.79334Z" fill="currentColor"/>
<path d="M11.3333 9.79334C11.06 9.79334 10.8333 9.56668 10.8333 9.29334V7.15334C10.8333 6.88001 11.06 6.65333 11.3333 6.65333C11.6067 6.65333 11.8333 6.88001 11.8333 7.15334V9.29334C11.8333 9.57334 11.6067 9.79334 11.3333 9.79334Z" fill="currentColor"/>
<path d="M8.66667 15.1667H6C2.38 15.1667 0.833332 13.62 0.833332 10V6.00001C0.833332 2.38001 2.38 0.833344 6 0.833344H10C13.62 0.833344 15.1667 2.38001 15.1667 6.00001V8.66668C15.1667 8.94001 14.94 9.16668 14.6667 9.16668C14.3933 9.16668 14.1667 8.94001 14.1667 8.66668V6.00001C14.1667 2.92668 13.0733 1.83334 10 1.83334H6C2.92667 1.83334 1.83333 2.92668 1.83333 6.00001V10C1.83333 13.0733 2.92667 14.1667 6 14.1667H8.66667C8.94 14.1667 9.16667 14.3933 9.16667 14.6667C9.16667 14.94 8.94 15.1667 8.66667 15.1667Z" fill="currentColor"/>
<path d="M11.7202 14.5001C11.5869 14.5001 11.4602 14.4468 11.3669 14.3535L10.3135 13.3068C10.1202 13.1135 10.1135 12.7935 10.3135 12.6001C10.5069 12.4068 10.8269 12.4001 11.0202 12.6001L11.6935 13.2668L13.6269 11.0068C13.8069 10.7935 14.1202 10.7735 14.3335 10.9535C14.5402 11.1335 14.5669 11.4468 14.3869 11.6601L12.1069 14.3268C12.0135 14.4335 11.8869 14.4935 11.7469 14.5001C11.7335 14.5001 11.7269 14.5001 11.7202 14.5001Z" fill="currentColor"/>
<path d="M8 9.50001C7.72667 9.50001 7.5 9.27334 7.5 9.00001V7.00001C7.5 6.72668 7.72667 6.50001 8 6.50001C8.27333 6.50001 8.5 6.72668 8.5 7.00001V9.00001C8.5 9.27334 8.27333 9.50001 8 9.50001Z" fill="currentColor"/>
</g>
<defs>
<clipPath id="clip0_2_5149">
<rect width="16" height="16" fill="currentColor"/>
</clipPath>
</defs>
</svg>
