<svg width="16" height="16" viewBox="0 0 16 16" fill="none" xmlns="http://www.w3.org/2000/svg">
<path d="M14 15.1667H2C1.72667 15.1667 1.5 14.94 1.5 14.6667C1.5 14.3933 1.72667 14.1667 2 14.1667H14C14.2733 14.1667 14.5 14.3933 14.5 14.6667C14.5 14.94 14.2733 15.1667 14 15.1667Z" fill="currentColor"/>
<path d="M3.73332 13.1666H2.66667C2.02667 13.1666 1.5 12.6399 1.5 11.9999V6.25326C1.5 5.61326 2.02667 5.0866 2.66667 5.0866H3.73332C4.37332 5.0866 4.89999 5.61326 4.89999 6.25326V11.9999C4.89999 12.6399 4.37332 13.1666 3.73332 13.1666ZM2.66667 6.07992C2.57333 6.07992 2.5 6.15326 2.5 6.24659V11.9999C2.5 12.0933 2.57333 12.1666 2.66667 12.1666H3.73332C3.82665 12.1666 3.89999 12.0933 3.89999 11.9999V6.25326C3.89999 6.15993 3.82665 6.0866 3.73332 6.0866H2.66667V6.07992Z" fill="currentColor"/>
<path d="M8.53347 13.1666H7.4668C6.8268 13.1666 6.30013 12.6399 6.30013 11.9999V4.12664C6.30013 3.48664 6.8268 2.95997 7.4668 2.95997H8.53347C9.17347 2.95997 9.70013 3.48664 9.70013 4.12664V11.9999C9.70013 12.6399 9.17347 13.1666 8.53347 13.1666ZM7.4668 3.95997C7.37347 3.95997 7.30013 4.0333 7.30013 4.12664V11.9999C7.30013 12.0933 7.37347 12.1666 7.4668 12.1666H8.53347C8.6268 12.1666 8.70013 12.0933 8.70013 11.9999V4.12664C8.70013 4.0333 8.6268 3.95997 8.53347 3.95997H7.4668Z" fill="currentColor"/>
<path d="M13.3336 13.1667H12.2669C11.6269 13.1667 11.1003 12.64 11.1003 12V2.00001C11.1003 1.36001 11.6269 0.833344 12.2669 0.833344H13.3336C13.9736 0.833344 14.5003 1.36001 14.5003 2.00001V12C14.5003 12.64 13.9736 13.1667 13.3336 13.1667ZM12.2669 1.83334C12.1736 1.83334 12.1003 1.90668 12.1003 2.00001V12C12.1003 12.0933 12.1736 12.1667 12.2669 12.1667H13.3336C13.4269 12.1667 13.5003 12.0933 13.5003 12V2.00001C13.5003 1.90668 13.4269 1.83334 13.3336 1.83334H12.2669Z" fill="currentColor"/>
</svg>
