<svg width="16" height="16" viewBox="0 0 16 16" fill="none" xmlns="http://www.w3.org/2000/svg">
<g clip-path="url(#clip0_2_5197)">
<path d="M8 15.1667C4.04667 15.1667 0.833334 11.9533 0.833334 8.00001C0.833334 4.04668 4.04667 0.833344 8 0.833344C11.9533 0.833344 15.1667 4.04668 15.1667 8.00001C15.1667 11.9533 11.9533 15.1667 8 15.1667ZM8 1.83334C4.6 1.83334 1.83333 4.60001 1.83333 8.00001C1.83333 11.4 4.6 14.1667 8 14.1667C11.4 14.1667 14.1667 11.4 14.1667 8.00001C14.1667 4.60001 11.4 1.83334 8 1.83334Z" fill="currentColor"/>
<path d="M8 11.1667C6.25333 11.1667 4.83333 9.74668 4.83333 8.00001C4.83333 6.25334 6.25333 4.83334 8 4.83334C9.74667 4.83334 11.1667 6.25334 11.1667 8.00001C11.1667 9.74668 9.74667 11.1667 8 11.1667ZM8 5.83334C6.80667 5.83334 5.83333 6.80668 5.83333 8.00001C5.83333 9.19334 6.80667 10.1667 8 10.1667C9.19333 10.1667 10.1667 9.19334 10.1667 8.00001C10.1667 6.80668 9.19333 5.83334 8 5.83334Z" fill="currentColor"/>
<path d="M14.1132 5.8333C14.0799 5.8333 14.0399 5.82664 14.0065 5.81997C12.0465 5.3933 10.0665 5.3933 8.10653 5.81997C7.8332 5.87997 7.5732 5.70664 7.5132 5.43997C7.4532 5.16664 7.62653 4.90664 7.8932 4.84664C9.9932 4.38664 12.1199 4.38664 14.2199 4.84664C14.4865 4.90664 14.6599 5.1733 14.5999 5.43997C14.5532 5.6733 14.3465 5.8333 14.1132 5.8333Z" fill="currentColor"/>
<path d="M5.69318 9.83341C5.55318 9.83341 5.41318 9.77341 5.31318 9.66008C3.92651 8.06674 2.87318 6.24672 2.17318 4.24672L2.63318 4.04006L3.10651 3.88006L3.11985 3.92006C3.77318 5.79339 4.76651 7.50674 6.07318 9.00674C6.25318 9.21341 6.23318 9.53341 6.02651 9.71341C5.92651 9.79341 5.80651 9.83341 5.69318 9.83341Z" fill="currentColor"/>
<path d="M7.2532 15.1267C7.1332 15.1267 7.0132 15.0867 6.91987 15C6.7132 14.8133 6.69987 14.5 6.88653 14.2933C8.21987 12.8267 9.20653 11.1267 9.81987 9.24001C9.90653 8.98001 10.1999 8.80668 10.4599 8.89334C10.7199 8.98001 10.8732 9.23334 10.7932 9.49334C10.1199 11.5733 9.05987 13.4 7.6332 14.9733C7.52653 15.0733 7.38653 15.1267 7.2532 15.1267Z" fill="currentColor"/>
</g>
<defs>
<clipPath id="clip0_2_5197">
<rect width="16" height="16" fill="currentColor"/>
</clipPath>
</defs>
</svg>
