<svg width="16" height="16" viewBox="0 0 16 16" fill="none" xmlns="http://www.w3.org/2000/svg">
<path d="M9.33367 11.2734C9.207 11.2734 9.08033 11.2267 8.98033 11.1267L6.34031 8.48674C6.14698 8.29341 6.14698 7.97341 6.34031 7.78008C6.53365 7.58674 6.85367 7.58674 7.047 7.78008L9.687 10.4201C9.88033 10.6134 9.88033 10.9334 9.687 11.1267C9.587 11.2201 9.46033 11.2734 9.33367 11.2734Z" fill="currentColor"/>
<path d="M6.6663 11.3001C6.53963 11.3001 6.41297 11.2535 6.31297 11.1535C6.11963 10.9601 6.11963 10.6401 6.31297 10.4468L8.953 7.80681C9.14633 7.61348 9.46633 7.61348 9.65967 7.80681C9.853 8.00014 9.853 8.32014 9.65967 8.51348L7.01967 11.1535C6.91967 11.2535 6.793 11.3001 6.6663 11.3001Z" fill="currentColor"/>
<path d="M9.33333 4.50001H6.66667C6.02667 4.50001 4.83333 4.50001 4.83333 2.66668C4.83333 0.833344 6.02667 0.833344 6.66667 0.833344H9.33333C9.97333 0.833344 11.1667 0.833344 11.1667 2.66668C11.1667 3.30668 11.1667 4.50001 9.33333 4.50001ZM6.66667 1.83334C6.00667 1.83334 5.83333 1.83334 5.83333 2.66668C5.83333 3.50001 6.00667 3.50001 6.66667 3.50001H9.33333C10.1667 3.50001 10.1667 3.32668 10.1667 2.66668C10.1667 1.83334 9.99333 1.83334 9.33333 1.83334H6.66667Z" fill="currentColor"/>
<path d="M10 15.1666H6C2.25333 15.1666 1.5 13.4466 1.5 10.6666V6.66663C1.5 3.62663 2.6 2.32663 5.30667 2.18663C5.58667 2.1733 5.82 2.37996 5.83333 2.65996C5.84667 2.93996 5.63333 3.16663 5.36 3.17996C3.46667 3.28663 2.5 3.8533 2.5 6.66663V10.6666C2.5 13.1333 2.98667 14.1666 6 14.1666H10C13.0133 14.1666 13.5 13.1333 13.5 10.6666V6.66663C13.5 3.8533 12.5333 3.28663 10.64 3.17996C10.3667 3.16663 10.1533 2.92663 10.1667 2.6533C10.18 2.37996 10.42 2.16663 10.6933 2.17996C13.4 2.32663 14.5 3.62663 14.5 6.65996V10.6599C14.5 13.4466 13.7467 15.1666 10 15.1666Z" fill="currentColor"/>
</svg>
