<svg width="16" height="16" viewBox="0 0 16 16" fill="none" xmlns="http://www.w3.org/2000/svg">
<path d="M9.33333 4.50001H6.66667C6.02667 4.50001 4.83333 4.50001 4.83333 2.66668C4.83333 0.833344 6.02667 0.833344 6.66667 0.833344H9.33333C9.97333 0.833344 11.1667 0.833344 11.1667 2.66668C11.1667 3.30668 11.1667 4.50001 9.33333 4.50001ZM6.66667 1.83334C6.00667 1.83334 5.83333 1.83334 5.83333 2.66668C5.83333 3.50001 6.00667 3.50001 6.66667 3.50001H9.33333C10.1667 3.50001 10.1667 3.32668 10.1667 2.66668C10.1667 1.83334 9.99333 1.83334 9.33333 1.83334H6.66667Z" fill="currentColor"/>
<path d="M9.33333 15.1668H6C2.25333 15.1668 1.5 13.4468 1.5 10.6668V6.66681C1.5 3.62682 2.6 2.32682 5.30667 2.18682C5.57333 2.17348 5.82 2.38015 5.83333 2.66015C5.84667 2.94015 5.63333 3.16682 5.36 3.18015C3.46667 3.28682 2.5 3.85348 2.5 6.66681V10.6668C2.5 13.1335 2.98667 14.1668 6 14.1668H9.33333C9.60667 14.1668 9.83333 14.3935 9.83333 14.6668C9.83333 14.9401 9.60667 15.1668 9.33333 15.1668Z" fill="currentColor"/>
<path d="M14.0006 10.4999C13.7273 10.4999 13.5006 10.2733 13.5006 9.99994V6.66663C13.5006 3.8533 12.5339 3.28663 10.6406 3.17996C10.3673 3.16663 10.1539 2.92663 10.1673 2.6533C10.1806 2.37996 10.4273 2.16663 10.6939 2.17996C13.4006 2.32663 14.5006 3.62663 14.5006 6.65996V9.99328C14.5006 10.2733 14.2739 10.4999 14.0006 10.4999Z" fill="currentColor"/>
<path d="M14 15.1667H12C11.7267 15.1667 11.5 14.94 11.5 14.6667C11.5 14.3933 11.7267 14.1667 12 14.1667H13.5V12.6667C13.5 12.3933 13.7267 12.1667 14 12.1667C14.2733 12.1667 14.5 12.3933 14.5 12.6667V14.6667C14.5 14.94 14.2733 15.1667 14 15.1667Z" fill="currentColor"/>
<path d="M13.973 15.1399C13.8463 15.1399 13.7197 15.0933 13.6197 14.9933L9.64633 11.0199C9.453 10.8266 9.453 10.5066 9.64633 10.3133C9.83967 10.1199 10.1597 10.1199 10.353 10.3133L14.3263 14.2866C14.5197 14.4799 14.5197 14.7999 14.3263 14.9933C14.2263 15.0866 14.0997 15.1399 13.973 15.1399Z" fill="currentColor"/>
</svg>
