<svg width="16" height="16" viewBox="0 0 16 16" fill="none" xmlns="http://www.w3.org/2000/svg">
<path d="M8.69967 12.9467C8.33967 12.9467 7.95967 12.9134 7.54634 12.8467L4.41967 12.3534C3.433 12.2001 2.673 11.9267 2.10634 11.5267C0.646334 10.5134 0.733002 8.77341 0.919669 7.55341L1.413 4.42671C1.86634 1.56004 3.34634 0.486711 6.213 0.933377L9.33967 1.42671C10.813 1.66004 12.793 2.25338 12.9197 4.74004C12.9463 5.16671 12.9197 5.65338 12.8263 6.22671L12.3397 9.35341C11.953 11.8001 10.813 12.9467 8.69967 12.9467ZM5.01967 1.83338C3.433 1.83338 2.713 2.64004 2.39967 4.58671L1.90634 7.71341C1.59967 9.68008 2.15967 10.3467 2.67967 10.7134C3.11967 11.0267 3.73967 11.2401 4.573 11.3667L7.69967 11.8601C10.0263 12.2267 10.9863 11.5267 11.353 9.19341L11.8397 6.06671C11.9197 5.56671 11.9463 5.14671 11.9197 4.79338V4.78671C11.8463 3.38671 11.053 2.70004 9.17967 2.40671L6.05967 1.92004C5.673 1.86004 5.333 1.83338 5.01967 1.83338Z" fill="currentColor"/>
<path d="M9.7862 15.1667C9.21954 15.1667 8.57954 15.0467 7.83954 14.8L4.83286 13.8C3.11952 13.2333 2.19286 12.4199 1.91286 11.2333C1.86619 11.0333 1.94619 10.8199 2.11952 10.7066C2.29286 10.5933 2.51952 10.5933 2.68619 10.7133C3.12619 11.0266 3.73967 11.2401 4.573 11.3667L7.69967 11.8601C10.0263 12.2267 10.9863 11.5267 11.353 9.19341L11.8397 6.06671C11.9197 5.56671 11.9463 5.14671 11.9197 4.79338C11.913 4.62004 11.9995 4.44664 12.1529 4.34664C12.3062 4.24664 12.4995 4.23998 12.6595 4.32664C14.4462 5.27998 14.9195 6.80661 14.1462 9.13994L13.1462 12.1466C12.6729 13.5599 12.0529 14.4267 11.1862 14.86C10.7662 15.0667 10.3062 15.1667 9.7862 15.1667ZM3.81952 12.24C4.13952 12.4533 4.56619 12.66 5.14619 12.8533L8.15287 13.8533C9.29954 14.2333 10.1195 14.2667 10.7329 13.9667C11.3462 13.66 11.8129 12.9799 12.1929 11.8333L13.1929 8.82661C13.7395 7.17328 13.5262 6.29331 12.8929 5.69998C12.8795 5.86664 12.853 6.04004 12.8263 6.22671L12.3397 9.35341C11.8863 12.2201 10.4062 13.2933 7.53954 12.8533L4.41286 12.36C4.20619 12.3199 4.00619 12.28 3.81952 12.24Z" fill="currentColor"/>
<path d="M5.49334 6.48C4.58 6.48 3.83334 5.73334 3.83334 4.82C3.83334 3.90667 4.58 3.16 5.49334 3.16C6.40667 3.16 7.15334 3.90667 7.15334 4.82C7.15334 5.73334 6.40667 6.48 5.49334 6.48ZM5.49334 4.16667C5.13334 4.16667 4.83334 4.46 4.83334 4.82667C4.83334 5.19334 5.12667 5.48667 5.49334 5.48667C5.85334 5.48667 6.15334 5.19334 6.15334 4.82667C6.15334 4.46 5.85334 4.16667 5.49334 4.16667Z" fill="currentColor"/>
</svg>
