<svg width="16" height="16" viewBox="0 0 16 16" fill="none" xmlns="http://www.w3.org/2000/svg">
<g clip-path="url(#clip0_2_5140)">
<path d="M8.00001 15.1667C4.04668 15.1667 0.833344 11.9533 0.833344 8.00001C0.833344 4.04668 4.04668 0.833344 8.00001 0.833344C11.9533 0.833344 15.1667 4.04668 15.1667 8.00001C15.1667 11.9533 11.9533 15.1667 8.00001 15.1667ZM8.00001 1.83334C4.60001 1.83334 1.83334 4.60001 1.83334 8.00001C1.83334 11.4 4.60001 14.1667 8.00001 14.1667C11.4 14.1667 14.1667 11.4 14.1667 8.00001C14.1667 4.60001 11.4 1.83334 8.00001 1.83334Z" fill="currentColor"/>
<path d="M10.4731 10.62C10.3864 10.62 10.2997 10.6 10.2197 10.5467L8.15308 9.31334C7.63974 9.00668 7.25974 8.33334 7.25974 7.74001V5.00668C7.25974 4.73335 7.48641 4.50668 7.75974 4.50668C8.03308 4.50668 8.25974 4.73335 8.25974 5.00668V7.74001C8.25974 7.98001 8.45974 8.33334 8.66641 8.45334L10.7331 9.68668C10.9731 9.82668 11.0464 10.1333 10.9064 10.3733C10.8064 10.5333 10.6397 10.62 10.4731 10.62Z" fill="currentColor"/>
</g>
<defs>
<clipPath id="clip0_2_5140">
<rect width="16" height="16" fill="currentColor"/>
</clipPath>
</defs>
</svg>
