<svg width="16" height="16" viewBox="0 0 16 16" fill="none" xmlns="http://www.w3.org/2000/svg">
<path d="M8.93332 9.73328C8.80666 9.73328 8.67999 9.68661 8.57999 9.58661L7.64666 8.65328C7.55332 8.55994 7.49999 8.43328 7.49999 8.29994V6.43995C7.49999 6.16662 7.72666 5.93995 7.99999 5.93995C8.27332 5.93995 8.49999 6.16662 8.49999 6.43995V8.09328L9.28666 8.87994C9.47999 9.07328 9.47999 9.39328 9.28666 9.58661C9.18666 9.68661 9.05999 9.73328 8.93332 9.73328Z" fill="currentColor"/>
<path d="M7.99999 12.8333C6.93999 12.8333 5.93999 12.5 5.09999 11.8667C5.07999 11.8533 5.06666 11.8467 5.04666 11.8333C3.85332 10.9067 3.16666 9.50668 3.16666 8.00001C3.16666 5.33334 5.33332 3.16668 7.99999 3.16668C10.6667 3.16668 12.8333 5.33334 12.8333 8.00001C12.8333 9.50001 12.1533 10.8867 10.9733 11.8133C10.9533 11.8267 10.94 11.84 10.92 11.8533C10.0733 12.4933 9.06666 12.8333 7.99999 12.8333ZM5.61999 11.0067C5.63999 11.02 5.65332 11.0267 5.66666 11.04C7.01999 12.0867 9.00666 12.08 10.3533 11.0267C10.3667 11.0133 10.3867 11 10.4 10.9933C11.3133 10.26 11.8333 9.17334 11.8333 8.00001C11.8333 5.88668 10.1133 4.16668 7.99999 4.16668C5.88666 4.16668 4.16666 5.88668 4.16666 8.00001C4.16666 9.18001 4.69332 10.2733 5.61999 11.0067Z" fill="currentColor"/>
<path d="M8.36639 15.1667H7.63972C6.33305 15.1667 5.53305 14.5201 5.19305 13.1801L4.85972 11.5334C4.83305 11.3867 4.86638 11.2334 4.96638 11.1201C5.06638 11.0067 5.20638 10.9401 5.35305 10.9401H5.35972C5.47305 10.9401 5.57972 10.9734 5.66638 11.0467C7.01972 12.0934 9.00639 12.0867 10.3531 11.0334C10.5597 10.8734 10.8864 10.9067 11.0531 11.1134C11.1464 11.2267 11.1864 11.3801 11.1597 11.5267L10.8197 13.1734C10.4664 14.5201 9.66639 15.1667 8.36639 15.1667ZM6.05972 12.4267L6.16638 12.9601C6.41972 13.9601 6.93972 14.1667 7.63972 14.1667H8.36639C9.05972 14.1667 9.57972 13.9601 9.83972 12.9467L9.94639 12.4267C8.73972 12.9601 7.27306 12.9667 6.05972 12.4267Z" fill="currentColor"/>
<path d="M10.6669 5.08001C10.5535 5.08001 10.4402 5.04001 10.3535 4.97334C9.00686 3.92001 7.02019 3.91334 5.66682 4.96001C5.46016 5.12001 5.13349 5.08668 4.97349 4.88668C4.88016 4.77334 4.84016 4.62001 4.86682 4.47334L5.19349 2.84668C5.53349 1.48001 6.33349 0.833344 7.64019 0.833344H8.36686C9.66686 0.833344 10.4668 1.48001 10.8068 2.80668L11.1535 4.48001C11.1869 4.62668 11.1469 4.78001 11.0535 4.89334C10.9602 5.01334 10.8202 5.08001 10.6669 5.08001ZM7.99999 3.16668C8.68666 3.16668 9.34019 3.30668 9.94686 3.57334L9.83352 3.03334C9.57352 2.04668 9.06019 1.83334 8.36686 1.83334H7.64019C6.94019 1.83334 6.42016 2.04001 6.16682 3.06668L6.06016 3.57334C6.66686 3.30668 7.31999 3.16668 7.99999 3.16668Z" fill="currentColor"/>
</svg>
