<svg width="16" height="16" viewBox="0 0 16 16" fill="none" xmlns="http://www.w3.org/2000/svg">
<path d="M8.85013 8L11.8256 5.02456C12.0581 4.79198 12.0581 4.40702 11.8256 4.17444C11.593 3.94185 11.208 3.94185 10.9754 4.17444L8 7.14987L5.02456 4.17444C4.79198 3.94185 4.40702 3.94185 4.17444 4.17444C3.94185 4.40702 3.94185 4.79198 4.17444 5.02456L7.14987 8L4.17444 10.9754C3.94185 11.208 3.94185 11.593 4.17444 11.8256C4.40702 12.0581 4.79198 12.0581 5.02456 11.8256L8 8.85013L10.9754 11.8256C11.208 12.0581 11.593 12.0581 11.8256 11.8256C12.0581 11.593 12.0581 11.208 11.8256 10.9754L8.85013 8Z" fill="currentColor"/>
</svg>
