<svg width="16" height="16" viewBox="0 0 16 16" fill="none" xmlns="http://www.w3.org/2000/svg">
<g clip-path="url(#clip0_2_4826)">
<path d="M6.11292 10.3867C5.98626 10.3867 5.8596 10.3401 5.7596 10.2401C5.56626 10.0467 5.56626 9.72674 5.7596 9.53341L9.53294 5.76008C9.72628 5.56675 10.0463 5.56675 10.2396 5.76008C10.4329 5.95342 10.4329 6.27342 10.2396 6.46675L6.46626 10.2401C6.37292 10.3401 6.23959 10.3867 6.11292 10.3867Z" fill="currentColor"/>
<path d="M9.88628 10.3867C9.75961 10.3867 9.63294 10.3401 9.53294 10.2401L5.7596 6.46675C5.56626 6.27342 5.56626 5.95342 5.7596 5.76008C5.95292 5.56675 6.27292 5.56675 6.46626 5.76008L10.2396 9.53341C10.4329 9.72674 10.4329 10.0467 10.2396 10.2401C10.1396 10.3401 10.0129 10.3867 9.88628 10.3867Z" fill="currentColor"/>
<path d="M10 15.1667H6.00001C2.38001 15.1667 0.833344 13.62 0.833344 10V6.00001C0.833344 2.38001 2.38001 0.833344 6.00001 0.833344H10C13.62 0.833344 15.1667 2.38001 15.1667 6.00001V10C15.1667 13.62 13.62 15.1667 10 15.1667ZM6.00001 1.83334C2.92668 1.83334 1.83334 2.92668 1.83334 6.00001V10C1.83334 13.0733 2.92668 14.1667 6.00001 14.1667H10C13.0733 14.1667 14.1667 13.0733 14.1667 10V6.00001C14.1667 2.92668 13.0733 1.83334 10 1.83334H6.00001Z" fill="currentColor"/>
</g>
<defs>
<clipPath id="clip0_2_4826">
<rect width="16" height="16" fill="currentColor"/>
</clipPath>
</defs>
</svg>
