<svg width="16" height="16" viewBox="0 0 16 16" fill="none" xmlns="http://www.w3.org/2000/svg">
<g clip-path="url(#clip0_2_5137)">
<path d="M8.00001 15.1667C4.04668 15.1667 0.833344 11.9533 0.833344 8.00001C0.833344 4.04668 4.04668 0.833344 8.00001 0.833344C11.9533 0.833344 15.1667 4.04668 15.1667 8.00001C15.1667 11.9533 11.9533 15.1667 8.00001 15.1667ZM8.00001 1.83334C4.60001 1.83334 1.83334 4.60001 1.83334 8.00001C1.83334 11.4 4.60001 14.1667 8.00001 14.1667C11.4 14.1667 14.1667 11.4 14.1667 8.00001C14.1667 4.60001 11.4 1.83334 8.00001 1.83334Z" fill="currentColor"/>
<path d="M6.11292 10.3867C5.98626 10.3867 5.8596 10.3401 5.7596 10.2401C5.56626 10.0467 5.56626 9.72674 5.7596 9.53341L9.53294 5.76008C9.72628 5.56675 10.0463 5.56675 10.2396 5.76008C10.4329 5.95342 10.4329 6.27342 10.2396 6.46675L6.46626 10.2401C6.37292 10.3401 6.23959 10.3867 6.11292 10.3867Z" fill="currentColor"/>
<path d="M9.88628 10.3867C9.75961 10.3867 9.63294 10.3401 9.53294 10.2401L5.7596 6.46675C5.56626 6.27342 5.56626 5.95342 5.7596 5.76008C5.95292 5.56675 6.27292 5.56675 6.46626 5.76008L10.2396 9.53341C10.4329 9.72674 10.4329 10.0467 10.2396 10.2401C10.1396 10.3401 10.0129 10.3867 9.88628 10.3867Z" fill="currentColor"/>
</g>
<defs>
<clipPath id="clip0_2_5137">
<rect width="16" height="16" fill="currentColor"/>
</clipPath>
</defs>
</svg>
