<svg width="16" height="16" viewBox="0 0 16 16" fill="none" xmlns="http://www.w3.org/2000/svg">
<path d="M4.97352 12.8934H3.69348C1.73348 12.7534 0.853516 11.2467 0.853516 9.90674C0.853516 8.56674 1.73349 7.05341 3.66016 6.92007C3.93349 6.89341 4.17348 7.10674 4.19348 7.38674C4.21348 7.66007 4.00685 7.90007 3.72685 7.92007C2.43352 8.01341 1.85352 8.98674 1.85352 9.91341C1.85352 10.8401 2.43352 11.8134 3.72685 11.9067H4.97352C5.24685 11.9067 5.47352 12.1334 5.47352 12.4067C5.47352 12.6801 5.24685 12.8934 4.97352 12.8934Z" fill="currentColor"/>
<path d="M11.1133 12.8933C11.0999 12.8933 11.0933 12.8933 11.0799 12.8933C10.8066 12.8933 10.5533 12.6667 10.5533 12.3933C10.5533 12.1067 10.7666 11.8933 11.0466 11.8933C11.8666 11.8933 12.5999 11.6067 13.1733 11.0933C14.2133 10.1867 14.2799 8.88001 13.9999 7.96001C13.7199 7.04667 12.9399 6.00001 11.5799 5.83334C11.3599 5.80667 11.1866 5.64001 11.1466 5.42001C10.8799 3.82001 10.0199 2.71334 8.71327 2.31334C7.3666 1.89334 5.79326 2.30667 4.81326 3.33334C3.85992 4.32667 3.63993 5.72002 4.19326 7.25334C4.2866 7.51334 4.1533 7.80001 3.8933 7.89334C3.6333 7.98667 3.34662 7.85334 3.25328 7.59334C2.57995 5.71334 2.88662 3.91334 4.09329 2.64667C5.32662 1.35334 7.3066 0.840008 9.0066 1.36001C10.5666 1.84001 11.6666 3.12667 12.0666 4.91334C13.4266 5.22001 14.5199 6.25335 14.9533 7.68001C15.4266 9.23334 14.9999 10.8333 13.8333 11.8467C13.0933 12.5133 12.1266 12.8933 11.1133 12.8933Z" fill="currentColor"/>
<path d="M8 14.8533C6.66 14.8533 5.40668 14.14 4.72002 12.9867C4.64668 12.8733 4.57335 12.74 4.51335 12.5933C4.28668 12.12 4.16667 11.58 4.16667 11.02C4.16667 8.90667 5.88667 7.18667 8 7.18667C10.1133 7.18667 11.8333 8.90667 11.8333 11.02C11.8333 11.5867 11.7133 12.12 11.4733 12.6133C11.42 12.74 11.3467 12.8733 11.2667 13C10.5933 14.14 9.34 14.8533 8 14.8533ZM8 8.18667C6.44 8.18667 5.16667 9.46001 5.16667 11.02C5.16667 11.4333 5.25334 11.82 5.42 12.1733C5.47334 12.2867 5.52 12.38 5.57333 12.4667C6.08 13.3267 7.00667 13.8533 7.99334 13.8533C8.98 13.8533 9.90667 13.3267 10.4067 12.48C10.4667 12.38 10.52 12.2867 10.56 12.1933C10.74 11.8267 10.8267 11.44 10.8267 11.0267C10.8333 9.46001 9.56 8.18667 8 8.18667Z" fill="currentColor"/>
<path d="M7.61994 12.1799C7.49327 12.1799 7.3666 12.1332 7.2666 12.0332L6.60659 11.3732C6.41326 11.1799 6.41326 10.8599 6.60659 10.6665C6.79994 10.4732 7.11994 10.4732 7.31327 10.6665L7.63327 10.9865L8.69994 9.99987C8.9066 9.81321 9.21994 9.82654 9.4066 10.0265C9.59327 10.2265 9.57994 10.5465 9.37994 10.7332L7.95994 12.0465C7.85994 12.1332 7.73994 12.1799 7.61994 12.1799Z" fill="currentColor"/>
</svg>
