<svg width="16" height="16" viewBox="0 0 16 16" fill="none" xmlns="http://www.w3.org/2000/svg">
<path d="M11.0997 13.8333C11.093 13.8333 11.0797 13.8333 11.073 13.8333C10.7997 13.8333 10.573 13.6067 10.5797 13.3267C10.5797 13.0533 10.8263 12.8067 11.0863 12.8333C11.8197 12.8333 12.593 12.5533 13.1597 12.0333C14.193 11.1267 14.2663 9.83334 13.9863 8.92C13.7063 8.00667 12.9263 6.97334 11.5797 6.8C11.3597 6.77334 11.1863 6.60668 11.1463 6.38668C10.8863 4.79334 10.0197 3.69334 8.72633 3.29334C7.37967 2.88001 5.82633 3.28668 4.85299 4.30668C3.90633 5.30002 3.68633 6.68 4.23299 8.20667C4.32633 8.46667 4.19299 8.75334 3.93299 8.84667C3.67299 8.94 3.38633 8.80667 3.29299 8.54667C2.61966 6.67334 2.92633 4.88001 4.13299 3.62001C5.36633 2.33334 7.32633 1.82001 9.02633 2.34668C10.5797 2.82668 11.6797 4.10668 12.073 5.88001C13.433 6.18668 14.5197 7.21334 14.953 8.63334C15.4263 10.18 14.9997 11.7667 13.8397 12.78C13.073 13.46 12.1063 13.8333 11.0997 13.8333Z" fill="currentColor"/>
<path d="M3.71339 13.8334C3.70005 13.8334 3.68672 13.8334 3.68005 13.8334C1.76005 13.7001 0.886719 12.1934 0.886719 10.8534C0.886719 9.5134 1.76005 8.0134 3.68005 7.8734C4.18672 7.88007 4.66005 7.98007 5.08672 8.1934C5.33339 8.32007 5.42672 8.62007 5.30672 8.86674C5.18005 9.1134 4.88005 9.20674 4.63339 9.08674C4.35339 8.94007 4.04005 8.8734 3.72672 8.8734C2.46672 8.96674 1.89339 9.9334 1.89339 10.8534C1.89339 11.7734 2.46672 12.7401 3.75339 12.8334C4.02672 12.8534 4.23339 13.0934 4.22005 13.3667C4.19339 13.6334 3.97339 13.8334 3.71339 13.8334Z" fill="currentColor"/>
<path d="M10.5471 7.09334C10.3604 7.09334 10.1871 6.99334 10.1004 6.81334C9.97373 6.56665 10.0737 6.26665 10.3271 6.13998C10.7337 5.93332 11.1937 5.81998 11.6471 5.81332H11.6537C11.9271 5.81332 12.1471 6.03332 12.1537 6.30665C12.1604 6.57998 11.9404 6.81334 11.6604 6.81334C11.3537 6.82 11.0471 6.89334 10.7671 7.03334C10.6937 7.08 10.6204 7.09334 10.5471 7.09334Z" fill="currentColor"/>
<path d="M8.65367 12.6667C8.28033 12.6667 7.987 12.3667 7.987 12C7.987 11.6333 8.287 11.3333 8.65367 11.3333C9.02033 11.3333 9.32033 11.6333 9.32033 12C9.32033 12.3667 9.02033 12.6667 8.65367 12.6667Z" fill="currentColor"/>
<path d="M5.98698 12.6667C5.61365 12.6667 5.32031 12.3667 5.32031 12C5.32031 11.6333 5.62031 11.3333 5.98698 11.3333C6.35365 11.3333 6.65365 11.6333 6.65365 12C6.65365 12.3667 6.35365 12.6667 5.98698 12.6667Z" fill="currentColor"/>
<path d="M7.32033 14.6667C6.947 14.6667 6.65365 14.3667 6.65365 14C6.65365 13.6333 6.95367 13.3333 7.32033 13.3333C7.687 13.3333 7.987 13.6333 7.987 14C7.987 14.3667 7.687 14.6667 7.32033 14.6667Z" fill="currentColor"/>
</svg>
