<svg width="16" height="16" viewBox="0 0 16 16" fill="none" xmlns="http://www.w3.org/2000/svg">
<path d="M2.86004 8.24652C2.65337 8.24652 2.46006 8.11986 2.38672 7.91319C1.71339 6.03322 2.02006 4.22656 3.22673 2.96656C4.46006 1.67323 6.4334 1.15988 8.14005 1.68655C9.70005 2.16655 10.8 3.45321 11.2001 5.23988C12.4001 5.51321 13.4067 6.35321 13.92 7.55319C14.0267 7.80652 13.9134 8.09992 13.66 8.21326C13.4067 8.31992 13.1134 8.20652 13 7.95319C12.5667 6.95319 11.7334 6.30656 10.7067 6.17322C10.4867 6.14656 10.3134 5.9799 10.2734 5.7599C10.0067 4.1599 9.14005 3.05322 7.84005 2.65322C6.49339 2.23989 4.9267 2.64655 3.9467 3.66655C2.99337 4.65988 2.77337 6.05322 3.32004 7.58652C3.41337 7.84652 3.28007 8.13319 3.02007 8.22652C2.9734 8.23319 2.91337 8.24652 2.86004 8.24652Z" fill="currentColor"/>
<path d="M9.69298 6.45332C9.50632 6.45332 9.33298 6.35333 9.24632 6.17333C9.11965 5.92666 9.22632 5.62666 9.47298 5.49999C9.89298 5.29332 10.3396 5.18 10.7996 5.17333C11.0863 5.18666 11.3063 5.38666 11.3063 5.66666C11.313 5.93999 11.0929 6.17333 10.8129 6.17333C10.4996 6.18 10.1996 6.25332 9.91298 6.39332C9.83965 6.43999 9.76632 6.45332 9.69298 6.45332Z" fill="currentColor"/>
<path d="M13.3333 10.52H2.66665C2.39332 10.52 2.16665 10.2933 2.16665 10.02C2.16665 9.74666 2.39332 9.51999 2.66665 9.51999H13.3333C13.6066 9.51999 13.8333 9.74666 13.8333 10.02C13.8333 10.2933 13.6066 10.52 13.3333 10.52Z" fill="currentColor"/>
<path d="M12 12.52H3.99998C3.72665 12.52 3.49998 12.2933 3.49998 12.02C3.49998 11.7467 3.72665 11.52 3.99998 11.52H12C12.2733 11.52 12.5 11.7467 12.5 12.02C12.5 12.2933 12.2733 12.52 12 12.52Z" fill="currentColor"/>
<path d="M9.99998 14.52H5.99998C5.72665 14.52 5.49998 14.2933 5.49998 14.02C5.49998 13.7467 5.72665 13.52 5.99998 13.52H9.99998C10.2733 13.52 10.5 13.7467 10.5 14.02C10.5 14.2933 10.2733 14.52 9.99998 14.52Z" fill="currentColor"/>
</svg>
