<svg width="16" height="16" viewBox="0 0 16 16" fill="none" xmlns="http://www.w3.org/2000/svg">
<path d="M8.64651 12.2399C8.51984 12.2399 8.39318 12.1933 8.29318 12.0933L6.88651 10.6866C6.69318 10.4933 6.69318 10.1733 6.88651 9.97994C7.07984 9.78661 7.39984 9.78661 7.59318 9.97994L8.99984 11.3866C9.19318 11.5799 9.19318 11.8999 8.99984 12.0933C8.90651 12.1933 8.77318 12.2399 8.64651 12.2399Z" fill="currentColor"/>
<path d="M7.21964 12.26C7.09298 12.26 6.96631 12.2133 6.86631 12.1133C6.67298 11.92 6.67298 11.6 6.86631 11.4067L8.27298 10C8.46631 9.80667 8.78631 9.80667 8.97964 10C9.17298 10.1933 9.17298 10.5133 8.97964 10.7067L7.57298 12.1133C7.47964 12.2067 7.35298 12.26 7.21964 12.26Z" fill="currentColor"/>
<path d="M4.97284 12.8934H3.69284C1.73284 12.7534 0.852844 11.2467 0.852844 9.90007C0.852844 8.55341 1.73284 7.04674 3.65951 6.91341C3.92618 6.88674 4.17284 7.10007 4.19284 7.38007C4.21284 7.66007 4.00618 7.89341 3.72618 7.91341C2.43284 8.00674 1.85284 8.98007 1.85284 9.90674C1.85284 10.8334 2.43284 11.8067 3.72618 11.9001H4.97284C5.24618 11.9001 5.47284 12.1267 5.47284 12.4001C5.47284 12.6734 5.24618 12.8934 4.97284 12.8934Z" fill="currentColor"/>
<path d="M11.1132 12.8933C11.0999 12.8933 11.0932 12.8933 11.0799 12.8933C10.8066 12.8933 10.5532 12.6667 10.5532 12.3933C10.5532 12.1067 10.7732 11.8933 11.0466 11.8933C11.8732 11.8933 12.5999 11.6067 13.1732 11.0933C14.2132 10.1867 14.2799 8.88001 13.9999 7.96001C13.7199 7.04667 12.9399 6.00001 11.5799 5.83334C11.3599 5.80667 11.1866 5.64001 11.1466 5.42001C10.8799 3.82001 10.0199 2.71334 8.71324 2.31334C7.35991 1.89334 5.79326 2.30667 4.81326 3.33334C3.85992 4.32667 3.63992 5.72002 4.19326 7.25334C4.28659 7.51334 4.15326 7.80001 3.89326 7.89334C3.63326 7.98667 3.34659 7.85334 3.25326 7.59334C2.57992 5.71334 2.88659 3.91334 4.09326 2.64667C5.32659 1.35334 7.30658 0.840008 9.00658 1.36001C10.5666 1.84001 11.6666 3.12667 12.0666 4.91334C13.4332 5.22001 14.5199 6.25335 14.9532 7.68001C15.4266 9.23334 14.9999 10.8333 13.8399 11.8467C13.0932 12.5133 12.1266 12.8933 11.1132 12.8933Z" fill="currentColor"/>
<path d="M7.99998 14.8533C6.65998 14.8533 5.40664 14.14 4.71998 12.9867C4.64664 12.8733 4.57331 12.7333 4.51331 12.5933C4.28664 12.12 4.16664 11.5867 4.16664 11.02C4.16664 8.90667 5.88664 7.18667 7.99998 7.18667C10.1133 7.18667 11.8333 8.90667 11.8333 11.02C11.8333 11.5867 11.7133 12.12 11.48 12.6133C11.4266 12.74 11.3533 12.8733 11.2733 13C10.5933 14.14 9.33998 14.8533 7.99998 14.8533ZM7.99998 8.18667C6.43998 8.18667 5.16664 9.46001 5.16664 11.02C5.16664 11.4333 5.25331 11.8267 5.41998 12.1733C5.47331 12.2867 5.51998 12.38 5.57331 12.4667C6.07998 13.3267 7.00664 13.8533 7.99331 13.8533C8.97998 13.8533 9.90664 13.3267 10.4066 12.48C10.4666 12.38 10.5133 12.2933 10.56 12.1933C10.74 11.8267 10.8266 11.44 10.8266 11.02C10.8333 9.46001 9.55998 8.18667 7.99998 8.18667Z" fill="currentColor"/>
</svg>
