<svg width="16" height="16" viewBox="0 0 16 16" fill="none" xmlns="http://www.w3.org/2000/svg">
<path d="M11.0997 13.8333C11.093 13.8333 11.0797 13.8333 11.073 13.8333C10.7997 13.8333 10.573 13.6067 10.5797 13.3267C10.5797 13.0533 10.813 12.8067 11.0863 12.8333C11.8597 12.8333 12.593 12.5533 13.1597 12.0333C14.193 11.1267 14.2663 9.83334 13.9863 8.92C13.7063 8.00667 12.9263 6.97334 11.5797 6.8C11.3597 6.77334 11.1863 6.60668 11.1463 6.38668C10.8863 4.79334 10.0197 3.69334 8.72633 3.29334C7.37967 2.88001 5.82633 3.28668 4.85299 4.30668C3.90633 5.30002 3.68633 6.68 4.23299 8.20667C4.32633 8.46667 4.19299 8.75334 3.93299 8.84667C3.67299 8.94 3.38633 8.80667 3.29299 8.54667C2.61966 6.67334 2.92633 4.88001 4.13299 3.62001C5.36633 2.33334 7.32633 1.82001 9.02633 2.34668C10.5797 2.82668 11.6797 4.10668 12.073 5.88001C13.433 6.18668 14.5197 7.21334 14.953 8.63334C15.4263 10.18 14.9997 11.7667 13.8397 12.78C13.073 13.46 12.1063 13.8333 11.0997 13.8333Z" fill="currentColor"/>
<path d="M3.71339 13.8334C3.70005 13.8334 3.68672 13.8334 3.68005 13.8334C1.76005 13.7001 0.886719 12.1934 0.886719 10.8534C0.886719 9.5134 1.76005 8.0134 3.68005 7.8734C4.18672 7.88007 4.66005 7.98007 5.08672 8.1934C5.33339 8.32007 5.42672 8.62007 5.30672 8.86674C5.18005 9.1134 4.88005 9.20674 4.63339 9.08674C4.35339 8.94007 4.03339 8.8734 3.72672 8.8734C2.46672 8.96674 1.89339 9.9334 1.89339 10.8534C1.89339 11.7734 2.46672 12.7401 3.75339 12.8334C4.02672 12.8534 4.23339 13.0934 4.22005 13.3667C4.19339 13.6334 3.97339 13.8334 3.71339 13.8334Z" fill="currentColor"/>
<path d="M10.5471 7.09334C10.3604 7.09334 10.1871 6.99334 10.1004 6.81334C9.97373 6.56665 10.0737 6.26665 10.3271 6.13998C10.7337 5.93332 11.1937 5.81998 11.6471 5.81332H11.6537C11.9271 5.81332 12.1471 6.03332 12.1537 6.30665C12.1604 6.57998 11.9404 6.81334 11.6604 6.81334C11.3537 6.82 11.0471 6.89334 10.7671 7.03334C10.6937 7.08 10.6204 7.09334 10.5471 7.09334Z" fill="currentColor"/>
<path d="M7.0738 15.0799C6.98713 15.0799 6.8938 15.0666 6.80713 15.0333C6.51383 14.9199 6.32049 14.6466 6.32049 14.3333V13.2799H6.15382C5.65382 13.2799 5.47383 12.9866 5.41383 12.8666C5.36049 12.7333 5.26716 12.3999 5.59383 12.0333L7.22713 10.1733C7.4338 9.93994 7.76047 9.85327 8.0538 9.9666C8.34713 10.0799 8.54047 10.3533 8.54047 10.6666V11.7199H8.70713C9.20047 11.7199 9.38713 12.0133 9.44713 12.1333C9.50713 12.2533 9.60047 12.5866 9.2738 12.9599L7.64047 14.8199C7.48713 14.9866 7.28047 15.0799 7.0738 15.0799ZM6.70713 12.2733H6.82047C7.0938 12.2733 7.32047 12.4999 7.32047 12.7733V13.6599L8.14713 12.7199H8.0338C7.76047 12.7199 7.5338 12.4933 7.5338 12.2199V11.3333L6.70713 12.2733Z" fill="currentColor"/>
</svg>
