<svg width="16" height="16" viewBox="0 0 16 16" fill="none" xmlns="http://www.w3.org/2000/svg">
<path d="M11.0998 13.8333C11.0931 13.8333 11.0798 13.8333 11.0731 13.8333C10.7998 13.8333 10.5731 13.6067 10.5798 13.3267C10.5798 13.0533 10.8065 12.8333 11.0798 12.8333C11.0865 12.8333 11.0998 12.8333 11.1065 12.8333C11.8665 12.8333 12.5931 12.5533 13.1531 12.0333C14.1865 11.1267 14.2598 9.83334 13.9798 8.92C13.6998 8.00667 12.9265 6.97334 11.5731 6.8C11.3531 6.77334 11.1798 6.60668 11.1398 6.38668C10.8731 4.79334 10.0131 3.69334 8.7198 3.29334C7.37313 2.88001 5.81982 3.28668 4.84649 4.30668C3.89982 5.30002 3.67982 6.68 4.22649 8.20667C4.31982 8.46667 4.18649 8.75334 3.92649 8.84667C3.66649 8.94 3.37982 8.80667 3.28649 8.54667C2.61315 6.67334 2.91982 4.88001 4.12649 3.62001C5.35982 2.33334 7.3198 1.82001 9.0198 2.34668C10.5731 2.82668 11.6731 4.10668 12.0665 5.88001C13.4265 6.18668 14.5131 7.21334 14.9465 8.63334C15.4198 10.18 14.9865 11.7667 13.8331 12.78C13.0731 13.46 12.1065 13.8333 11.0998 13.8333Z" fill="currentColor"/>
<path d="M3.71339 13.8333C3.70005 13.8333 3.68672 13.8333 3.68005 13.8333C1.76005 13.7 0.886719 12.1933 0.886719 10.8533C0.886719 9.51334 1.76005 8.01334 3.68005 7.87334C4.17339 7.86667 4.66005 7.98 5.08672 8.19334C5.33339 8.32 5.42672 8.62 5.30672 8.86667C5.18005 9.11334 4.88005 9.20667 4.63339 9.08667C4.35339 8.94 4.03339 8.88 3.72672 8.87334C2.46672 8.96667 1.89339 9.93334 1.89339 10.8533C1.89339 11.7733 2.46672 12.74 3.76005 12.8333C4.03339 12.8533 4.24005 13.0933 4.22005 13.3667C4.19339 13.6333 3.97339 13.8333 3.71339 13.8333Z" fill="currentColor"/>
<path d="M10.5471 7.09334C10.3671 7.09334 10.1871 6.99334 10.1004 6.81334C9.97373 6.56665 10.0737 6.26665 10.3271 6.13998C10.7337 5.93332 11.1937 5.81998 11.6471 5.81332C11.9071 5.82665 12.1537 6.02665 12.1537 6.30665C12.1604 6.57998 11.9404 6.81334 11.6604 6.81334C11.3537 6.82 11.0471 6.89334 10.7671 7.03334C10.7004 7.08 10.6204 7.09334 10.5471 7.09334Z" fill="currentColor"/>
<path d="M8.64713 13.8333H5.98047C5.70713 13.8333 5.48047 13.6067 5.48047 13.3333C5.48047 13.06 5.70713 12.8333 5.98047 12.8333H8.64713C8.92047 12.8333 9.14713 13.06 9.14713 13.3333C9.14713 13.6067 8.92713 13.8333 8.64713 13.8333Z" fill="currentColor"/>
<path d="M7.3138 15.1667C7.04047 15.1667 6.8138 14.94 6.8138 14.6667V12C6.8138 11.7267 7.04047 11.5 7.3138 11.5C7.58713 11.5 7.8138 11.7267 7.8138 12V14.6667C7.8138 14.94 7.5938 15.1667 7.3138 15.1667Z" fill="currentColor"/>
</svg>
