<svg width="16" height="16" viewBox="0 0 16 16" fill="none" xmlns="http://www.w3.org/2000/svg">
<g clip-path="url(#clip0_2_5057)">
<path d="M9.87334 11.3999C9.86668 11.3999 9.86001 11.3999 9.85334 11.3999H5.40667C4.08667 11.3066 3.50001 10.3 3.50001 9.39994C3.50001 8.64661 3.91335 7.82001 4.80002 7.51334C4.60002 6.51334 4.84668 5.58 5.50668 4.88667C6.30002 4.05334 7.57334 3.72668 8.66668 4.06001C9.64001 4.36001 10.34 5.14001 10.6133 6.22668C11.4467 6.46001 12.1067 7.11334 12.38 8.00001C12.6867 9.01334 12.4067 10.0533 11.6467 10.7133C11.1667 11.1533 10.5333 11.3999 9.87334 11.3999ZM5.42668 8.39994C4.74668 8.45994 4.50001 8.97328 4.50001 9.39994C4.50001 9.83328 4.74668 10.3533 5.44001 10.3999H9.85334C10.2867 10.3999 10.6667 10.2533 10.9733 9.96668C11.5333 9.48001 11.5667 8.78001 11.42 8.28668C11.2733 7.79334 10.8533 7.23328 10.1267 7.14661C9.90668 7.11994 9.73334 6.95328 9.69334 6.73328C9.54668 5.84664 9.07334 5.24001 8.36668 5.02001C7.64001 4.79334 6.75334 5.02666 6.22668 5.57999C5.70668 6.11999 5.59334 6.88661 5.89334 7.73328C5.98668 7.99328 5.85335 8.28001 5.59335 8.37334C5.54002 8.39334 5.45335 8.40668 5.42668 8.39994Z" fill="currentColor"/>
<path d="M6.00001 15.1667C3.15334 15.1667 0.833344 12.8467 0.833344 10C0.833344 9.72668 1.06001 9.50001 1.33334 9.50001C1.60668 9.50001 1.83334 9.72668 1.83334 10C1.83334 11.9733 3.20667 13.6267 5.05334 14.06L4.87334 13.76C4.73334 13.52 4.80668 13.2133 5.04668 13.0733C5.28002 12.9333 5.59335 13.0067 5.73335 13.2467L6.43334 14.4133C6.52667 14.5667 6.52668 14.76 6.44001 14.9133C6.34668 15.0667 6.18001 15.1667 6.00001 15.1667Z" fill="currentColor"/>
<path d="M14.6669 6.50001C14.3936 6.50001 14.1669 6.27334 14.1669 6.00001C14.1669 4.02668 12.7936 2.37332 10.9469 1.93999L11.1269 2.24C11.2669 2.48 11.1936 2.78668 10.9536 2.92668C10.7203 3.06668 10.4069 2.99335 10.2669 2.75334L9.56694 1.58668C9.47361 1.43334 9.47361 1.24001 9.56028 1.08668C9.64694 0.926677 9.81361 0.833344 9.99361 0.833344C12.8403 0.833344 15.1603 3.15334 15.1603 6.00001C15.1669 6.27334 14.9403 6.50001 14.6669 6.50001Z" fill="currentColor"/>
</g>
<defs>
<clipPath id="clip0_2_5057">
<rect width="16" height="16" fill="currentColor"/>
</clipPath>
</defs>
</svg>
