<svg width="16" height="16" viewBox="0 0 16 16" fill="none" xmlns="http://www.w3.org/2000/svg">
<path d="M11.1128 13.8866C11.0995 13.8866 11.0928 13.8866 11.0862 13.8866H3.69284C1.73284 13.7466 0.852844 12.2333 0.852844 10.8933C0.852844 9.69325 1.55284 8.35992 3.07284 7.99326C2.40618 5.43329 3.67284 3.63996 5.16618 2.79329C6.89951 1.80662 9.47951 1.79996 11.0462 3.69996C11.0595 3.71996 11.0728 3.73996 11.0862 3.75996C11.5528 4.35329 11.8795 5.06662 12.0662 5.89329C12.8862 6.07329 13.5928 6.51329 14.1462 7.16659C15.4062 8.65326 15.6462 11.2399 13.8462 12.8266C13.0995 13.5133 12.1328 13.8866 11.1128 13.8866ZM7.65951 3.13329C6.95284 3.13329 6.25284 3.32662 5.66618 3.65996C4.05284 4.57996 3.50618 6.28662 4.19951 8.23326C4.25284 8.38659 4.23284 8.55992 4.13951 8.68659C4.04618 8.81325 3.89284 8.89992 3.73284 8.89992C2.43951 8.99326 1.85951 9.96659 1.85951 10.8933C1.85951 11.8199 2.43951 12.7933 3.73284 12.8933H11.0928C11.8662 12.8999 12.6128 12.6133 13.1795 12.0933L13.1862 12.0866C14.5395 10.8999 14.3395 8.94659 13.3862 7.81992C12.9195 7.26659 12.2995 6.92659 11.5862 6.83326C11.3662 6.80659 11.1928 6.63996 11.1595 6.41996C11.0195 5.59329 10.7262 4.89996 10.2862 4.35329C10.2728 4.33996 10.2662 4.31996 10.2528 4.30662C9.54618 3.47996 8.59951 3.13329 7.65951 3.13329Z" fill="currentColor"/>
<path d="M4.83987 9.17339C4.76654 9.17339 4.68654 9.15339 4.61987 9.12006C4.33987 8.98006 4.0332 8.90672 3.71987 8.90005C3.44654 8.89339 3.22654 8.66672 3.22654 8.39339C3.2332 8.12006 3.4932 7.89339 3.7332 7.90005C4.1932 7.90672 4.6532 8.02006 5.05987 8.22672C5.30654 8.34672 5.40654 8.65339 5.28654 8.90005C5.19987 9.07339 5.02654 9.17339 4.83987 9.17339Z" fill="currentColor"/>
<path d="M10.5666 7.11332C10.38 7.11332 10.2066 7.01332 10.12 6.83332C9.99331 6.58664 10.1 6.28664 10.3466 6.15998C10.76 5.95331 11.22 5.83998 11.6733 5.83331C11.94 5.82664 12.18 6.04664 12.18 6.32664C12.1866 6.59998 11.9666 6.83332 11.6866 6.83332C11.38 6.83999 11.0666 6.91332 10.7866 7.05332C10.7133 7.09332 10.64 7.11332 10.5666 7.11332Z" fill="currentColor"/>
<path d="M13.7666 7.98666C13.6266 7.98666 13.48 7.92666 13.38 7.80666C12.92 7.25332 12.2933 6.91332 11.58 6.81999C11.36 6.79332 11.1866 6.62666 11.1533 6.40666C11.0133 5.57999 10.72 4.88666 10.28 4.33999C10.2066 4.25332 10.1666 4.13999 10.1666 4.02666C10.1666 3.89332 10.22 3.75999 10.3133 3.66666C10.8466 3.12666 11.5533 2.83332 12.3133 2.83332C13.8733 2.83332 15.1466 4.10666 15.1466 5.66666C15.1466 6.53332 14.76 7.33999 14.08 7.87999C13.9866 7.95332 13.88 7.98666 13.7666 7.98666ZM12.0733 5.89332C12.7133 6.03332 13.2933 6.33332 13.7733 6.77332C14.0133 6.45999 14.1466 6.07332 14.1466 5.66666C14.1466 4.65332 13.3266 3.83332 12.3133 3.83332C11.9666 3.83332 11.6333 3.92666 11.3466 4.11332C11.6866 4.62666 11.9266 5.22666 12.0733 5.89332Z" fill="currentColor"/>
</svg>
