<svg width="16" height="16" viewBox="0 0 16 16" fill="none" xmlns="http://www.w3.org/2000/svg">
<path d="M10.7066 11.1666C10.6999 11.1666 10.6932 11.1666 10.6799 11.1666H4.23989C2.48656 11.0466 1.69989 9.69994 1.69989 8.49994C1.69989 7.44661 2.30657 6.27997 3.62657 5.9333C3.2799 4.48664 3.5999 3.13327 4.5399 2.1466C5.63323 0.999937 7.37989 0.546637 8.89322 1.0133C10.2666 1.4333 11.2332 2.55327 11.5932 4.1066C12.7866 4.39327 13.7399 5.29997 14.1199 6.5533C14.5399 7.92661 14.1532 9.33328 13.1199 10.2333C12.4732 10.8333 11.6132 11.1666 10.7066 11.1666ZM4.26656 6.83994C3.19323 6.92661 2.71324 7.73328 2.71324 8.49994C2.71324 9.27328 3.1999 10.0866 4.28656 10.1666H10.6932C10.6999 10.1666 10.7066 10.1666 10.7132 10.1666C11.3666 10.1666 11.9932 9.92661 12.4666 9.48661C13.3466 8.71994 13.4066 7.61994 13.1732 6.83994C12.9332 6.05996 12.2732 5.17995 11.1132 5.03328C10.8932 5.00662 10.7199 4.83995 10.6799 4.61995C10.4532 3.25328 9.71322 2.3133 8.60656 1.9733C7.46656 1.62664 6.0999 1.97997 5.27324 2.84664C4.46657 3.6933 4.2799 4.8733 4.74656 6.17997C4.8399 6.43997 4.70658 6.72661 4.44658 6.81994C4.38658 6.83328 4.33323 6.84661 4.26656 6.83994Z" fill="currentColor"/>
<path d="M8.00002 13.1667C7.72669 13.1667 7.50002 12.94 7.50002 12.6667V10.6667C7.50002 10.3933 7.72669 10.1667 8.00002 10.1667C8.27336 10.1667 8.50002 10.3933 8.50002 10.6667V12.6667C8.50002 12.94 8.27336 13.1667 8.00002 13.1667Z" fill="currentColor"/>
<path d="M8.00002 15.8333C6.98669 15.8333 6.16669 15.0133 6.16669 14C6.16669 12.9867 6.98669 12.1667 8.00002 12.1667C9.01336 12.1667 9.83336 12.9867 9.83336 14C9.83336 15.0133 9.01336 15.8333 8.00002 15.8333ZM8.00002 13.1667C7.54002 13.1667 7.16669 13.54 7.16669 14C7.16669 14.46 7.54002 14.8333 8.00002 14.8333C8.46002 14.8333 8.83336 14.46 8.83336 14C8.83336 13.54 8.46002 13.1667 8.00002 13.1667Z" fill="currentColor"/>
<path d="M12 14.5H9.33336C9.06002 14.5 8.83336 14.2733 8.83336 14C8.83336 13.7267 9.06002 13.5 9.33336 13.5H12C12.2734 13.5 12.5 13.7267 12.5 14C12.5 14.2733 12.2734 14.5 12 14.5Z" fill="currentColor"/>
<path d="M6.66669 14.5H4.00002C3.72669 14.5 3.50002 14.2733 3.50002 14C3.50002 13.7267 3.72669 13.5 4.00002 13.5H6.66669C6.94002 13.5 7.16669 13.7267 7.16669 14C7.16669 14.2733 6.94002 14.5 6.66669 14.5Z" fill="currentColor"/>
</svg>
