<svg width="16" height="16" viewBox="0 0 16 16" fill="none" xmlns="http://www.w3.org/2000/svg">
<path d="M11.1128 13.8867C11.0995 13.8867 11.0928 13.8867 11.0862 13.8867H3.69284C1.73284 13.7467 0.852844 12.2333 0.852844 10.8933C0.852844 9.69334 1.55284 8.36001 3.07284 7.99334C2.65284 6.31335 3.01951 4.74002 4.12618 3.60002C5.37951 2.30668 7.37284 1.80668 9.07284 2.36002C9.33284 2.44668 9.47951 2.72668 9.39284 2.98668C9.30618 3.24668 9.02618 3.39335 8.76618 3.30668C7.41284 2.87335 5.83284 3.26668 4.83951 4.30002C3.87284 5.30002 3.64618 6.69334 4.19951 8.23334C4.25284 8.38668 4.23284 8.56001 4.13951 8.68668C4.04618 8.81334 3.89284 8.90001 3.73284 8.90001C2.43951 8.99334 1.85951 9.96668 1.85951 10.8933C1.85951 11.82 2.43951 12.7933 3.73284 12.8933H11.0928C11.8528 12.9 12.6128 12.6133 13.1795 12.0933C13.9462 11.42 14.2795 10.44 14.1128 9.40001C14.0662 9.12668 14.2528 8.87334 14.5262 8.82668C14.7995 8.78001 15.0528 8.96668 15.0995 9.24001C15.3262 10.6133 14.8528 11.96 13.8528 12.84C13.1062 13.5067 12.1328 13.8867 11.1128 13.8867Z" fill="currentColor"/>
<path d="M4.83987 9.17341C4.76654 9.17341 4.68654 9.15341 4.61987 9.12008C4.33987 8.98008 4.0332 8.90674 3.71987 8.90008C3.44654 8.89341 3.22654 8.66674 3.22654 8.39341C3.2332 8.12008 3.4932 7.89341 3.7332 7.90008C4.1932 7.90674 4.6532 8.02008 5.05987 8.22674C5.30654 8.34674 5.40654 8.65341 5.28654 8.90008C5.19987 9.07341 5.02654 9.17341 4.83987 9.17341Z" fill="currentColor"/>
<path d="M12.3138 8.50001C10.7538 8.50001 9.48044 7.22668 9.48044 5.66668C9.48044 4.93335 9.76044 4.24002 10.2671 3.72002C10.2804 3.70002 10.2938 3.68668 10.3071 3.67335C10.8404 3.13335 11.5471 2.84002 12.3071 2.84002C13.8671 2.84002 15.1404 4.11335 15.1404 5.67335C15.1404 6.54002 14.7538 7.34668 14.0738 7.88668C13.5871 8.28001 12.9604 8.50001 12.3138 8.50001ZM11.0671 4.33335C11.0538 4.35335 11.0404 4.36668 11.0204 4.38668C10.6738 4.72668 10.4804 5.18668 10.4804 5.67335C10.4804 6.68668 11.3004 7.50668 12.3138 7.50668C12.7271 7.50668 13.1338 7.36668 13.4538 7.10668C13.9004 6.75334 14.1471 6.23335 14.1471 5.67335C14.1471 4.66002 13.3271 3.84002 12.3138 3.84002C11.8404 3.83335 11.4004 4.01335 11.0671 4.33335Z" fill="currentColor"/>
</svg>
