<svg width="16" height="16" viewBox="0 0 16 16" fill="none" xmlns="http://www.w3.org/2000/svg">
<path d="M11.1194 13.8867C11.1127 13.8867 11.0994 13.8867 11.0927 13.8867H3.69937C1.73937 13.7467 0.859375 12.2401 0.859375 10.8934C0.859375 9.69339 1.55937 8.36006 3.08604 7.99339C2.65937 6.32671 3.01937 4.76004 4.10604 3.62671C5.33938 2.33338 7.3194 1.82004 9.0194 2.34671C10.5794 2.82671 11.6794 4.11338 12.0794 5.90004C13.4461 6.20671 14.5327 7.24006 14.9727 8.66672C15.4461 10.2201 15.0194 11.8134 13.8527 12.8334C13.1061 13.5067 12.1327 13.8867 11.1194 13.8867ZM3.71271 8.90006C3.70604 8.90006 3.70604 8.90006 3.69937 8.90006C2.43271 8.99339 1.85271 9.96672 1.85271 10.8934C1.85271 11.8201 2.43271 12.7934 3.72604 12.8867H11.0861C11.8594 12.8734 12.5994 12.6067 13.1727 12.0867C14.2127 11.1734 14.2861 9.87339 14.0061 8.96006C13.7261 8.04006 12.9461 7.00006 11.5861 6.82672C11.3661 6.80006 11.1927 6.63338 11.1527 6.41338C10.8861 4.81338 10.0194 3.70671 8.7194 3.30671C7.36607 2.89338 5.80604 3.30004 4.82604 4.32004C3.93937 5.24671 3.68604 6.52671 4.09937 7.93339C4.43937 7.98006 4.76604 8.08006 5.06604 8.23339C5.31271 8.36006 5.41271 8.66006 5.28604 8.90672C5.15938 9.15339 4.85938 9.25339 4.61271 9.12672C4.33938 8.98672 4.03937 8.91339 3.73937 8.91339C3.73271 8.90006 3.72604 8.90006 3.71271 8.90006Z" fill="currentColor"/>
<path d="M10.5667 7.11332C10.38 7.11332 10.2067 7.01332 10.12 6.83332C9.99334 6.58664 10.1 6.28664 10.3467 6.15998C10.76 5.95331 11.22 5.83998 11.6733 5.83331C11.94 5.82664 12.18 6.04664 12.18 6.32664C12.1867 6.59998 11.9667 6.83332 11.6867 6.83332C11.38 6.83999 11.0667 6.91332 10.7867 7.05332C10.7133 7.09332 10.64 7.11332 10.5667 7.11332Z" fill="currentColor"/>
</svg>
