<svg width="16" height="16" viewBox="0 0 16 16" fill="none" xmlns="http://www.w3.org/2000/svg">
<g clip-path="url(#clip0_2_5111)">
<path d="M6.00061 11.8333C5.92727 11.8333 5.84727 11.8133 5.78061 11.7799C5.26727 11.5199 4.82727 11.1333 4.50727 10.6533C4.24061 10.2533 4.24061 9.73994 4.50727 9.33994C4.82727 8.85994 5.26727 8.47328 5.78061 8.21994C6.02727 8.09328 6.32727 8.19994 6.45394 8.44661C6.58061 8.69328 6.48061 8.99328 6.22727 9.11994C5.86727 9.29994 5.56061 9.57328 5.34061 9.90661C5.30061 9.96661 5.30061 10.0466 5.34061 10.1133C5.56061 10.4466 5.86727 10.7199 6.22727 10.8999C6.47394 11.0266 6.57394 11.3266 6.45394 11.5733C6.36061 11.7333 6.18061 11.8333 6.00061 11.8333Z" fill="currentColor"/>
<path d="M10.1394 11.8333C9.95278 11.8333 9.77945 11.7333 9.69278 11.5599C9.56611 11.3133 9.66611 11.0133 9.91945 10.8866C10.2794 10.7066 10.5861 10.4333 10.8061 10.0999C10.8461 10.0399 10.8461 9.95994 10.8061 9.89328C10.5861 9.55994 10.2794 9.28661 9.91945 9.10661C9.67278 8.97994 9.57278 8.67994 9.69278 8.43328C9.81945 8.18661 10.1194 8.08661 10.3661 8.20661C10.8794 8.46661 11.3194 8.85328 11.6394 9.33328C11.9061 9.73328 11.9061 10.2466 11.6394 10.6466C11.3194 11.1266 10.8794 11.5133 10.3661 11.7666C10.2861 11.8133 10.2128 11.8333 10.1394 11.8333Z" fill="currentColor"/>
<path d="M9.99998 15.1667H5.99998C2.37998 15.1667 0.833313 13.62 0.833313 10V6.00001C0.833313 2.38001 2.37998 0.833344 5.99998 0.833344H9.99998C13.62 0.833344 15.1666 2.38001 15.1666 6.00001V10C15.1666 13.62 13.62 15.1667 9.99998 15.1667ZM5.99998 1.83334C2.92665 1.83334 1.83331 2.92668 1.83331 6.00001V10C1.83331 13.0733 2.92665 14.1667 5.99998 14.1667H9.99998C13.0733 14.1667 14.1666 13.0733 14.1666 10V6.00001C14.1666 2.92668 13.0733 1.83334 9.99998 1.83334H5.99998Z" fill="currentColor"/>
<path d="M1.48696 5.84001C1.21363 5.84001 0.98696 5.61334 0.98696 5.34001C0.98696 5.06668 1.20696 4.84001 1.48696 4.84001L14.3003 4.83334C14.5736 4.83334 14.8003 5.06001 14.8003 5.33334C14.8003 5.60668 14.5803 5.83334 14.3003 5.83334L1.48696 5.84001Z" fill="currentColor"/>
</g>
<defs>
<clipPath id="clip0_2_5111">
<rect width="16" height="16" fill="currentColor"/>
</clipPath>
</defs>
</svg>
