<svg width="16" height="16" viewBox="0 0 16 16" fill="none" xmlns="http://www.w3.org/2000/svg">
<g clip-path="url(#clip0_2_5113)">
<path d="M4.5939 10.5C4.40723 10.5 4.2339 10.4 4.14723 10.2267C4.02057 9.98001 4.12057 9.68001 4.3739 9.55334C4.9539 9.26668 5.44723 8.82668 5.80057 8.29334C5.92057 8.11334 5.92057 7.88668 5.80057 7.70668C5.44057 7.17334 4.94723 6.73334 4.3739 6.44669C4.12057 6.32669 4.02057 6.02669 4.14723 5.77336C4.26723 5.52669 4.56723 5.42669 4.8139 5.55336C5.54723 5.92002 6.1739 6.47336 6.62723 7.15334C6.96725 7.66668 6.96725 8.33334 6.62723 8.84668C6.1739 9.52668 5.54723 10.08 4.8139 10.4467C4.74723 10.48 4.66723 10.5 4.5939 10.5Z" fill="currentColor"/>
<path d="M11.3333 10.5H8.66665C8.39331 10.5 8.16665 10.2733 8.16665 10C8.16665 9.72668 8.39331 9.50001 8.66665 9.50001H11.3333C11.6066 9.50001 11.8333 9.72668 11.8333 10C11.8333 10.2733 11.6066 10.5 11.3333 10.5Z" fill="currentColor"/>
<path d="M9.99998 15.1667H5.99998C2.37998 15.1667 0.833313 13.62 0.833313 10V6.00001C0.833313 2.38001 2.37998 0.833344 5.99998 0.833344H9.99998C13.62 0.833344 15.1666 2.38001 15.1666 6.00001V10C15.1666 13.62 13.62 15.1667 9.99998 15.1667ZM5.99998 1.83334C2.92665 1.83334 1.83331 2.92668 1.83331 6.00001V10C1.83331 13.0733 2.92665 14.1667 5.99998 14.1667H9.99998C13.0733 14.1667 14.1666 13.0733 14.1666 10V6.00001C14.1666 2.92668 13.0733 1.83334 9.99998 1.83334H5.99998Z" fill="currentColor"/>
</g>
<defs>
<clipPath id="clip0_2_5113">
<rect width="16" height="16" fill="currentColor"/>
</clipPath>
</defs>
</svg>
