<svg width="16" height="16" viewBox="0 0 16 16" fill="none" xmlns="http://www.w3.org/2000/svg">
<g clip-path="url(#clip0_2_5110)">
<path d="M5.33295 9.83334C5.20628 9.83334 5.07961 9.78668 4.97961 9.68668L3.64628 8.35334C3.45295 8.16001 3.45295 7.83994 3.64628 7.64661L4.97961 6.3133C5.17295 6.11997 5.49295 6.11997 5.68628 6.3133C5.87961 6.50664 5.87961 6.82668 5.68628 7.02001L4.70628 8.00001L5.68628 8.97994C5.87961 9.17328 5.87961 9.49334 5.68628 9.68668C5.58628 9.78668 5.45961 9.83334 5.33295 9.83334Z" fill="currentColor"/>
<path d="M10.6663 9.83334C10.5396 9.83334 10.413 9.78668 10.313 9.68668C10.1196 9.49334 10.1196 9.17328 10.313 8.97994L11.293 8.00001L10.313 7.02001C10.1196 6.82668 10.1196 6.50664 10.313 6.3133C10.5063 6.11997 10.8263 6.11997 11.0196 6.3133L12.353 7.64661C12.5463 7.83994 12.5463 8.16001 12.353 8.35334L11.0196 9.68668C10.9196 9.78668 10.793 9.83334 10.6663 9.83334Z" fill="currentColor"/>
<path d="M7.99998 15.1667C4.04665 15.1667 0.833313 11.9533 0.833313 8.00001C0.833313 4.04668 4.04665 0.833344 7.99998 0.833344C11.9533 0.833344 15.1666 4.04668 15.1666 8.00001C15.1666 11.9533 11.9533 15.1667 7.99998 15.1667ZM7.99998 1.83334C4.59998 1.83334 1.83331 4.60001 1.83331 8.00001C1.83331 11.4 4.59998 14.1667 7.99998 14.1667C11.4 14.1667 14.1666 11.4 14.1666 8.00001C14.1666 4.60001 11.4 1.83334 7.99998 1.83334Z" fill="currentColor"/>
<path d="M7.33338 10.0534C7.26671 10.0534 7.20005 10.0401 7.14005 10.0134C6.88671 9.90674 6.76671 9.61341 6.88005 9.35341L8.21338 6.24004C8.32005 5.9867 8.61338 5.86669 8.86671 5.98002C9.12005 6.08669 9.24005 6.38006 9.12671 6.64006L7.79338 9.75341C7.71338 9.94008 7.52671 10.0534 7.33338 10.0534Z" fill="currentColor"/>
</g>
<defs>
<clipPath id="clip0_2_5110">
<rect width="16" height="16" fill="currentColor"/>
</clipPath>
</defs>
</svg>
