<svg width="16" height="16" viewBox="0 0 16 16" fill="none" xmlns="http://www.w3.org/2000/svg">
<path d="M9.05334 15.1667H4.14001C2.31334 15.1667 0.833344 13.68 0.833344 11.86V6.98C0.833344 5.15334 2.32001 3.67334 4.14001 3.67334H9.05334C10.88 3.67334 12.36 5.16001 12.36 6.98V11.86C12.36 13.68 10.8733 15.1667 9.05334 15.1667ZM4.14001 4.67334C2.86668 4.67334 1.83334 5.70667 1.83334 6.98V11.86C1.83334 13.1333 2.86668 14.1667 4.14001 14.1667H9.05334C10.3267 14.1667 11.36 13.1333 11.36 11.86V6.98C11.36 5.70667 10.3267 4.67334 9.05334 4.67334H4.14001Z" fill="currentColor"/>
<path d="M3.66668 3.16667C3.39334 3.16667 3.16668 2.94 3.16668 2.66667V1.5C3.16668 1.22667 3.39334 1 3.66668 1C3.94001 1 4.16668 1.22667 4.16668 1.5V2.66667C4.16668 2.94 3.94001 3.16667 3.66668 3.16667Z" fill="currentColor"/>
<path d="M6.33334 3.16667C6.06001 3.16667 5.83334 2.94 5.83334 2.66667V1.5C5.83334 1.22667 6.06001 1 6.33334 1C6.60668 1 6.83334 1.22667 6.83334 1.5V2.66667C6.83334 2.94 6.60668 3.16667 6.33334 3.16667Z" fill="currentColor"/>
<path d="M9.00001 3.16667C8.72668 3.16667 8.50001 2.94 8.50001 2.66667V1.5C8.50001 1.22667 8.72668 1 9.00001 1C9.27334 1 9.50001 1.22667 9.50001 1.5V2.66667C9.50001 2.94 9.27334 3.16667 9.00001 3.16667Z" fill="currentColor"/>
<path d="M11.8594 12.08C11.5861 12.08 11.3594 11.8533 11.3594 11.58V5.96663C11.3594 5.6933 11.5861 5.46663 11.8594 5.46663C13.6861 5.46663 15.1661 6.95333 15.1661 8.77333C15.1661 10.5933 13.6794 12.08 11.8594 12.08ZM12.3594 6.51997V11.0267C13.3927 10.8 14.1661 9.87333 14.1661 8.77333C14.1661 7.67333 13.3927 6.74667 12.3594 6.51997Z" fill="currentColor"/>
<path d="M11.6733 8.5H1.33334C1.06001 8.5 0.833344 8.27333 0.833344 8C0.833344 7.72667 1.06001 7.5 1.33334 7.5H11.6733C11.9467 7.5 12.1733 7.72667 12.1733 8C12.1733 8.27333 11.9467 8.5 11.6733 8.5Z" fill="currentColor"/>
</svg>
