<svg width="16" height="16" viewBox="0 0 16 16" fill="none" xmlns="http://www.w3.org/2000/svg">
<g clip-path="url(#clip0_2_5107)">
<path d="M7.22668 9.02679H6.22668C5.46001 9.02679 4.84001 8.38679 4.84001 7.59346C4.84001 7.32013 5.06668 7.09346 5.34001 7.09346C5.61334 7.09346 5.84001 7.32013 5.84001 7.59346C5.84001 7.83346 6.01334 8.02679 6.22668 8.02679H7.22668C7.38001 8.02679 7.50001 7.88679 7.50001 7.71346C7.50001 7.48013 7.46001 7.46679 7.30668 7.41346L5.70001 6.85346C5.12001 6.65346 4.83334 6.24679 4.83334 5.61346C4.83334 4.89346 5.40668 4.30013 6.10668 4.30013H7.10668C7.87334 4.30013 8.49334 4.94013 8.49334 5.73346C8.49334 6.00679 8.26668 6.23346 7.99334 6.23346C7.72001 6.23346 7.49334 6.00679 7.49334 5.73346C7.49334 5.49346 7.32001 5.30013 7.10668 5.30013H6.10668C5.95334 5.30013 5.83334 5.44013 5.83334 5.61346C5.83334 5.84679 5.87334 5.86013 6.02668 5.91346L7.63334 6.47346C8.21334 6.68013 8.49334 7.08679 8.49334 7.71346C8.50001 8.44013 7.92668 9.02679 7.22668 9.02679Z" fill="currentColor"/>
<path d="M6.66668 9.56006C6.39334 9.56006 6.16668 9.33339 6.16668 9.06006V8.56673C6.16668 8.29339 6.39334 8.06673 6.66668 8.06673C6.94001 8.06673 7.16668 8.29339 7.16668 8.56673V9.06006C7.16668 9.34006 6.94001 9.56006 6.66668 9.56006Z" fill="currentColor"/>
<path d="M6.66668 5.29343C6.39334 5.29343 6.16668 5.06677 6.16668 4.79343V4.27343C6.16668 4.0001 6.39334 3.77343 6.66668 3.77343C6.94001 3.77343 7.16668 4.0001 7.16668 4.27343V4.79343C7.16668 5.06677 6.94001 5.29343 6.66668 5.29343Z" fill="currentColor"/>
<path d="M6.66001 12.4801C3.44668 12.4801 0.833344 9.86679 0.833344 6.65348C0.833344 3.44015 3.44668 0.826813 6.66001 0.826813C9.87334 0.826813 12.4867 3.44015 12.4867 6.65348C12.4867 9.86679 9.86668 12.4801 6.66001 12.4801ZM6.66001 1.83348C4.00001 1.83348 1.83334 4.00015 1.83334 6.66015C1.83334 9.32013 4.00001 11.4801 6.66001 11.4801C9.32001 11.4801 11.4867 9.31346 11.4867 6.65348C11.4867 3.99348 9.32001 1.83348 6.66001 1.83348Z" fill="currentColor"/>
<path d="M11.346 15.1465C10.1127 15.1465 8.95268 14.5465 8.23934 13.5332C8.07934 13.3065 8.13268 12.9932 8.35934 12.8332C8.58601 12.6732 8.89934 12.7265 9.05934 12.9532C9.58601 13.6999 10.4393 14.1399 11.346 14.1399C12.8927 14.1399 14.146 12.8865 14.146 11.3399C14.146 10.4399 13.706 9.58653 12.9727 9.05986C12.746 8.89986 12.6993 8.58653 12.8593 8.35986C13.0193 8.13319 13.3327 8.08653 13.5593 8.24653C14.5527 8.95986 15.146 10.1132 15.146 11.3399C15.146 13.4465 13.446 15.1465 11.346 15.1465Z" fill="currentColor"/>
</g>
<defs>
<clipPath id="clip0_2_5107">
<rect width="16" height="16" fill="currentColor"/>
</clipPath>
</defs>
</svg>
