<svg width="16" height="16" viewBox="0 0 16 16" fill="none" xmlns="http://www.w3.org/2000/svg">
<path d="M7.99999 15.1666C5.33332 15.1666 3.16666 13.2533 3.16666 10.8999V8.43328C3.16666 8.15994 3.39332 7.93328 3.66666 7.93328C3.93999 7.93328 4.16666 8.15994 4.16666 8.43328C4.16666 10.1799 5.81332 11.4999 7.99999 11.4999C10.1867 11.4999 11.8333 10.1799 11.8333 8.43328C11.8333 8.15994 12.06 7.93328 12.3333 7.93328C12.6067 7.93328 12.8333 8.15994 12.8333 8.43328V10.8999C12.8333 13.2533 10.6667 15.1666 7.99999 15.1666ZM4.16666 10.9733C4.21332 12.7399 5.91332 14.1666 7.99999 14.1666C10.0867 14.1666 11.7867 12.7399 11.8333 10.9733C10.9667 11.9133 9.59332 12.4999 7.99999 12.4999C6.40666 12.4999 5.03999 11.9133 4.16666 10.9733Z" fill="currentColor"/>
<path d="M7.99999 9.16668C6.15999 9.16668 4.50665 8.34001 3.69998 7.00668C3.35332 6.44001 3.16666 5.78001 3.16666 5.10001C3.16666 3.95334 3.67999 2.87334 4.60666 2.06001C5.51332 1.26668 6.71999 0.833344 7.99999 0.833344C9.27999 0.833344 10.48 1.26668 11.3933 2.05334C12.32 2.87334 12.8333 3.95334 12.8333 5.10001C12.8333 5.78001 12.6467 6.43334 12.3 7.00668C11.4933 8.34001 9.83999 9.16668 7.99999 9.16668ZM7.99999 1.83334C6.95999 1.83334 5.98666 2.18001 5.26 2.82001C4.55333 3.43334 4.16666 4.24668 4.16666 5.10001C4.16666 5.60001 4.29998 6.06668 4.55332 6.48668C5.18665 7.52668 6.50666 8.16668 7.99999 8.16668C9.49332 8.16668 10.8133 7.52001 11.4467 6.48668C11.7067 6.06668 11.8333 5.60001 11.8333 5.10001C11.8333 4.24668 11.4467 3.43334 10.7333 2.80668C10.0067 2.18001 9.03999 1.83334 7.99999 1.83334Z" fill="currentColor"/>
<path d="M7.99999 12.4999C5.24666 12.4999 3.16666 10.7533 3.16666 8.43328V5.10001C3.16666 2.74668 5.33332 0.833344 7.99999 0.833344C9.27999 0.833344 10.48 1.26668 11.3933 2.05334C12.32 2.87334 12.8333 3.95334 12.8333 5.10001V8.43328C12.8333 10.7533 10.7533 12.4999 7.99999 12.4999ZM7.99999 1.83334C5.88666 1.83334 4.16666 3.30001 4.16666 5.10001V8.43328C4.16666 10.1799 5.81332 11.4999 7.99999 11.4999C10.1867 11.4999 11.8333 10.1799 11.8333 8.43328V5.10001C11.8333 4.24668 11.4467 3.43334 10.7333 2.80668C10.0067 2.18001 9.03999 1.83334 7.99999 1.83334Z" fill="currentColor"/>
</svg>
