<svg width="16" height="16" viewBox="0 0 16 16" fill="none" xmlns="http://www.w3.org/2000/svg">
<g clip-path="url(#clip0_2_5097)">
<path d="M6.4 12.4999C4.8 12.4999 3.50001 11.1999 3.50001 9.59994C3.50001 8.29328 4.38002 7.13994 5.64002 6.79994C5.88669 6.73328 6.14 6.85994 6.23333 7.09994C6.45333 7.65328 6.92668 8.07994 7.50001 8.23328C7.81334 8.31994 8.18668 8.31994 8.50001 8.23328C8.74668 8.16661 9.00668 8.29328 9.10001 8.52661C9.23334 8.86661 9.30001 9.22661 9.30001 9.59328C9.30001 10.4199 8.94668 11.2066 8.33334 11.7533C7.80668 12.2333 7.12001 12.4999 6.4 12.4999ZM5.52666 7.91328C4.90666 8.23328 4.50001 8.87994 4.50001 9.59994C4.50001 10.6466 5.35333 11.4999 6.4 11.4999C6.86668 11.4999 7.32001 11.3266 7.66668 11.0133C8.07334 10.6533 8.30001 10.1399 8.30001 9.59994C8.30001 9.49328 8.29334 9.39328 8.27334 9.28661C7.92001 9.31994 7.56001 9.28661 7.23334 9.19328C6.52 8.99994 5.90666 8.53328 5.52666 7.91328Z" fill="currentColor"/>
<path d="M8.00014 9.29988C7.73348 9.29988 7.47348 9.26654 7.23348 9.19988C6.36012 8.95988 5.64015 8.31321 5.30682 7.47321C5.17348 7.13321 5.10678 6.77321 5.10678 6.40652C5.10678 4.80652 6.4068 3.50652 8.00681 3.50652C9.60681 3.50652 10.9068 4.80652 10.9068 6.40652C10.9068 6.77321 10.8401 7.13321 10.7068 7.47321C10.3735 8.31988 9.64681 8.96654 8.77348 9.19988C8.52681 9.26654 8.26681 9.29988 8.00014 9.29988ZM8.00014 4.49986C6.95348 4.49986 6.10015 5.35319 6.10015 6.39986C6.10015 6.63986 6.14666 6.87994 6.23333 7.09994C6.45333 7.65328 6.92668 8.07994 7.50001 8.23328C7.81334 8.31994 8.18668 8.31994 8.50001 8.23328C9.08001 8.07328 9.55348 7.65321 9.76681 7.09988C9.85348 6.87988 9.90014 6.63986 9.90014 6.39986C9.90014 5.35319 9.04681 4.49986 8.00014 4.49986Z" fill="currentColor"/>
<path d="M9.60001 12.5001C8.88001 12.5001 8.19334 12.2334 7.66668 11.7534C7.56001 11.6601 7.50001 11.5201 7.50001 11.3801C7.50001 11.2401 7.56001 11.1001 7.66668 11.0067C8.06668 10.6534 8.30001 10.1399 8.30001 9.59994C8.30001 9.35994 8.25334 9.12008 8.16668 8.90008C8.11334 8.76674 8.12001 8.62008 8.18668 8.49341C8.24668 8.36674 8.36668 8.27328 8.50001 8.23328C9.07334 8.07328 9.54681 7.65321 9.76681 7.09988C9.86014 6.86654 10.1133 6.73341 10.36 6.80008C11.62 7.14008 12.5 8.29341 12.5 9.60008C12.5 11.2001 11.2 12.5001 9.60001 12.5001ZM8.74668 11.3001C9.00668 11.4334 9.30001 11.5001 9.60001 11.5001C10.6467 11.5001 11.5 10.6467 11.5 9.60008C11.5 8.88008 11.0933 8.23341 10.4733 7.91341C10.18 8.39341 9.74668 8.78008 9.24001 9.02008C9.28001 9.20674 9.30001 9.40008 9.30001 9.60008C9.30001 10.2134 9.10668 10.8067 8.74668 11.3001Z" fill="currentColor"/>
<path d="M10 15.1667H6.00001C2.38001 15.1667 0.833344 13.62 0.833344 10V6.00001C0.833344 2.38001 2.38001 0.833344 6.00001 0.833344H10C13.62 0.833344 15.1667 2.38001 15.1667 6.00001V10C15.1667 13.62 13.62 15.1667 10 15.1667ZM6.00001 1.83334C2.92668 1.83334 1.83334 2.92668 1.83334 6.00001V10C1.83334 13.0733 2.92668 14.1667 6.00001 14.1667H10C13.0733 14.1667 14.1667 13.0733 14.1667 10V6.00001C14.1667 2.92668 13.0733 1.83334 10 1.83334H6.00001Z" fill="currentColor"/>
</g>
<defs>
<clipPath id="clip0_2_5097">
<rect width="16" height="16" fill="currentColor"/>
</clipPath>
</defs>
</svg>
