<svg width="16" height="16" viewBox="0 0 16 16" fill="none" xmlns="http://www.w3.org/2000/svg">
<g clip-path="url(#clip0_2_5100)">
<path d="M5.33334 15.1666C2.85334 15.1666 0.833344 13.1466 0.833344 10.6666C0.833344 8.63994 2.19334 6.85328 4.14668 6.3266C4.39334 6.25994 4.64668 6.3866 4.74001 6.6266C5.14668 7.64661 6.01334 8.42661 7.07334 8.71328C7.66001 8.87328 8.34001 8.87328 8.91334 8.71328C9.16001 8.64661 9.42001 8.77328 9.51334 9.01328C9.72001 9.53994 9.82668 10.0999 9.82668 10.6733C9.82668 11.9533 9.28001 13.1733 8.32668 14.0199C7.51334 14.7533 6.44668 15.1666 5.33334 15.1666ZM4.01334 7.41994C2.71334 7.95328 1.83334 9.23328 1.83334 10.6666C1.83334 12.5933 3.40668 14.1666 5.33334 14.1666C6.20001 14.1666 7.02668 13.8466 7.66668 13.2666C8.41334 12.6066 8.83334 11.6599 8.83334 10.6666C8.83334 10.3599 8.79334 10.0666 8.72001 9.77994C8.09334 9.87994 7.41334 9.84661 6.81334 9.67994C5.60668 9.34661 4.59334 8.51994 4.01334 7.41994Z" fill="currentColor"/>
<path d="M8.00001 9.83334C7.58668 9.83334 7.18668 9.78001 6.81334 9.67334C5.46001 9.30001 4.33334 8.30001 3.81334 6.98668C3.60668 6.46668 3.50001 5.90668 3.50001 5.33334C3.50001 2.85334 5.52001 0.833344 8.00001 0.833344C10.48 0.833344 12.5 2.85334 12.5 5.33334C12.5 5.90668 12.3933 6.46668 12.1867 6.99334C11.6667 8.30001 10.5467 9.30668 9.18668 9.68001C8.81334 9.78001 8.41334 9.83334 8.00001 9.83334ZM8.00001 1.83334C6.07334 1.83334 4.50001 3.40668 4.50001 5.33334C4.50001 5.78001 4.58001 6.21334 4.74668 6.62001C5.15334 7.64001 6.02001 8.42001 7.08001 8.70668C7.66668 8.86668 8.34668 8.86668 8.92001 8.70668C9.98001 8.42001 10.8533 7.63334 11.2533 6.62001C11.4133 6.21334 11.5 5.78001 11.5 5.33334C11.5 3.40668 9.92668 1.83334 8.00001 1.83334Z" fill="currentColor"/>
<path d="M10.6667 15.1668C9.55334 15.1668 8.48668 14.7535 7.66668 14.0135C7.56001 13.9201 7.50001 13.7801 7.50001 13.6401C7.50001 13.5001 7.56001 13.3599 7.66668 13.2666C8.40668 12.6133 8.83334 11.6666 8.83334 10.6666C8.83334 10.2199 8.75334 9.78681 8.58668 9.38014C8.53334 9.24681 8.54001 9.10014 8.60668 8.97348C8.67334 8.84681 8.78668 8.75348 8.92001 8.71348C9.98001 8.42681 10.8467 7.64681 11.2533 6.62682C11.3467 6.38682 11.6067 6.26682 11.8467 6.32682C13.8 6.86014 15.16 8.64014 15.16 10.6668C15.1667 13.1468 13.1467 15.1668 10.6667 15.1668ZM8.74668 13.5935C9.31334 13.9668 9.97334 14.1668 10.6667 14.1668C12.5933 14.1668 14.1667 12.5935 14.1667 10.6668C14.1667 9.23348 13.2867 7.95348 11.9867 7.42014C11.4933 8.36014 10.6667 9.10681 9.68001 9.50681C9.78001 9.88014 9.83334 10.2735 9.83334 10.6668C9.83334 11.7468 9.44668 12.7868 8.74668 13.5935Z" fill="currentColor"/>
</g>
<defs>
<clipPath id="clip0_2_5100">
<rect width="16" height="16" fill="currentColor"/>
</clipPath>
</defs>
</svg>
