<svg width="16" height="16" viewBox="0 0 16 16" fill="none" xmlns="http://www.w3.org/2000/svg">
<g clip-path="url(#clip0_2_5092)">
<path d="M3.99984 15.1665C3.79984 15.1665 3.5865 15.1465 3.37316 15.1065C3.25983 15.0799 3.15983 15.0532 3.05983 15.0265C2.9465 14.9932 2.83982 14.9532 2.73982 14.9132C2.71316 14.9065 2.69318 14.8932 2.67318 14.8865C2.43984 14.7665 2.23983 14.6465 2.05983 14.5132C2.0465 14.5065 2.03984 14.4932 2.0265 14.4865C1.9265 14.4065 1.83316 14.3265 1.7465 14.2332C1.65316 14.1332 1.58649 14.0532 1.51316 13.9732C1.35982 13.7732 1.23316 13.5732 1.11983 13.3399C1.1065 13.3199 1.09984 13.2932 1.09318 13.2665C1.05318 13.1732 1.01983 13.0799 0.993164 12.9799C0.953164 12.8399 0.92649 12.7465 0.90649 12.6465C0.859824 12.4132 0.839844 12.2065 0.839844 12.0065V3.00651C0.839844 1.73318 1.73318 0.839844 3.00651 0.839844H5.00651C6.27984 0.839844 7.1732 1.73318 7.1732 3.00651V11.9999C7.1732 12.8265 6.8532 13.6132 6.27317 14.2065C6.1665 14.3132 6.0865 14.3865 6.01316 14.4465C5.79982 14.6332 5.5265 14.7999 5.23317 14.9199C5.1665 14.9465 5.0865 14.9799 4.99984 15.0132C4.67317 15.1132 4.33317 15.1665 3.99984 15.1665ZM3.15983 13.9999C3.2265 14.0265 3.29317 14.0465 3.35984 14.0665C3.43317 14.0865 3.5065 14.1065 3.57983 14.1265C3.9465 14.1932 4.33984 14.1732 4.65318 14.0665C4.69984 14.0465 4.7665 14.0265 4.8265 13.9999C5.03983 13.9132 5.21316 13.8065 5.36649 13.6799C5.43316 13.6265 5.47984 13.5799 5.5265 13.5399C5.9465 13.1065 6.1665 12.5732 6.1665 12.0065V3.00651C6.1665 2.28651 5.71984 1.83984 4.99984 1.83984H2.99984C2.27984 1.83984 1.83317 2.28651 1.83317 3.00651V11.9999C1.83317 12.1399 1.8465 12.2865 1.87984 12.4399C1.89317 12.4999 1.91316 12.5732 1.93316 12.6532C1.95983 12.7265 1.97984 12.7865 2.00651 12.8532C2.01984 12.8732 2.02649 12.8932 2.03316 12.9065C2.03982 12.9199 2.04649 12.9399 2.05316 12.9532C2.13316 13.0999 2.21318 13.2265 2.29984 13.3399C2.34651 13.3932 2.40651 13.4599 2.46651 13.5265C2.53984 13.6065 2.59984 13.6532 2.6665 13.7065C2.67317 13.7132 2.6865 13.7199 2.69317 13.7265C2.79984 13.8065 2.91983 13.8799 3.05983 13.9532C3.07316 13.9599 3.0865 13.9599 3.09983 13.9665C3.11316 13.9732 3.13316 13.9865 3.15983 13.9999Z" fill="currentColor"/>
<path d="M13 15.1665H3.99984C3.7265 15.1665 3.5 14.9399 3.5 14.6665C3.5 14.3932 3.72666 14.1665 4 14.1665C4.23333 14.1665 4.45984 14.1332 4.65318 14.0665C4.69984 14.0465 4.7665 14.0265 4.8265 13.9999C5.03983 13.9132 5.21316 13.8065 5.36649 13.6799C5.43316 13.6265 5.47984 13.5799 5.5265 13.5399L10.0867 8.98653C10.18 8.8932 10.3067 8.83986 10.44 8.83986H13C14.2733 8.83986 15.1667 9.7332 15.1667 11.0065V13.0065C15.1667 14.2732 14.2733 15.1665 13 15.1665ZM6.30666 14.1665H13C13.72 14.1665 14.1667 13.7199 14.1667 12.9999V10.9999C14.1667 10.2799 13.72 9.8332 13 9.8332H10.6467L6.30666 14.1665Z" fill="currentColor"/>
<path d="M3.2068 15.0467C3.16013 15.0467 3.11347 15.04 3.0668 15.0267C2.57347 14.88 2.12014 14.6067 1.76014 14.24C1.40014 13.8867 1.1268 13.4333 0.98013 12.94C0.90013 12.6733 1.0468 12.4 1.31346 12.32C1.58013 12.24 1.85347 12.3867 1.94014 12.6467C2.15347 13.3267 2.68679 13.86 3.36679 14.0733C3.62679 14.1533 3.77347 14.4333 3.69347 14.7C3.62014 14.9067 3.42013 15.0467 3.2068 15.0467Z" fill="currentColor"/>
<path d="M5.90664 14.3599C5.77998 14.3599 5.65332 14.3133 5.55332 14.2133C5.35998 14.0199 5.35333 13.7066 5.54666 13.5066C5.94666 13.0999 6.16666 12.5599 6.16666 11.9933V5.55328C6.16666 5.41995 6.21999 5.29328 6.31332 5.19995L8.12 3.39328C8.99333 2.51994 10.3133 2.51994 11.1867 3.39328L12.6 4.80662C13.5 5.70662 13.5 6.97326 12.6 7.87326L6.26 14.2066C6.16 14.3133 6.03331 14.3599 5.90664 14.3599ZM7.16666 5.76661V11.8933L11.8933 7.17326C12.4 6.66661 12.4 6.03328 11.8933 5.51994L10.48 4.10662C9.98 3.60662 9.32666 3.60662 8.82666 4.10662L7.16666 5.76661Z" fill="currentColor"/>
<path d="M4 13.1667C3.36 13.1667 2.83333 12.64 2.83333 12C2.83333 11.36 3.36 10.8333 4 10.8333C4.64 10.8333 5.16666 11.36 5.16666 12C5.16666 12.64 4.64 13.1667 4 13.1667ZM4 11.8333C3.90666 11.8333 3.83333 11.9067 3.83333 12C3.83333 12.1867 4.16666 12.1867 4.16666 12C4.16666 11.9067 4.09333 11.8333 4 11.8333Z" fill="currentColor"/>
</g>
<defs>
<clipPath id="clip0_2_5092">
<rect width="16" height="16" fill="currentColor"/>
</clipPath>
</defs>
</svg>
