<svg width="16" height="16" viewBox="0 0 16 16" fill="none" xmlns="http://www.w3.org/2000/svg">
<g clip-path="url(#clip0_2_5330)">
<path d="M9.59981 10.1001H6.39975C6.12642 10.1001 5.89975 9.87341 5.89975 9.60008V6.40008C5.89975 6.12674 6.12642 5.90008 6.39975 5.90008H9.59981C9.87314 5.90008 10.0998 6.12674 10.0998 6.40008V9.60008C10.0998 9.87341 9.87314 10.1001 9.59981 10.1001ZM6.89974 9.10008H9.09981V6.90008H6.89974V9.10008Z" fill="currentColor"/>
<path d="M5.2 12.4999C4.26 12.4999 3.50001 11.7399 3.50001 10.7999C3.50001 9.85994 4.26 9.09994 5.2 9.09994H6.4C6.67334 9.09994 6.90001 9.32661 6.90001 9.59994V10.7999C6.90001 11.7399 6.14 12.4999 5.2 12.4999ZM5.2 10.0999C4.81334 10.0999 4.50001 10.4133 4.50001 10.7999C4.50001 11.1866 4.81334 11.4999 5.2 11.4999C5.58667 11.4999 5.9 11.1866 5.9 10.7999V10.0999H5.2Z" fill="currentColor"/>
<path d="M6.4 6.90001H5.2C4.26 6.90001 3.50001 6.14 3.50001 5.2C3.50001 4.26 4.26 3.50001 5.2 3.50001C6.14 3.50001 6.90001 4.26 6.90001 5.2V6.40002C6.90001 6.67334 6.67334 6.90001 6.4 6.90001ZM5.2 4.50001C4.81334 4.50001 4.50001 4.81334 4.50001 5.2C4.50001 5.58667 4.81334 5.90002 5.2 5.90002H5.9V5.2C5.9 4.81334 5.58667 4.50001 5.2 4.50001Z" fill="currentColor"/>
<path d="M10.8003 6.90001H9.60028C9.32694 6.90001 9.10028 6.67334 9.10028 6.40002V5.2C9.10028 4.26 9.86028 3.50001 10.8003 3.50001C11.7403 3.50001 12.5003 4.26 12.5003 5.2C12.5003 6.14 11.7403 6.90001 10.8003 6.90001ZM10.1003 5.90002H10.8003C11.1869 5.90002 11.5003 5.58667 11.5003 5.2C11.5003 4.81334 11.1869 4.50001 10.8003 4.50001C10.4136 4.50001 10.1003 4.81334 10.1003 5.2V5.90002Z" fill="currentColor"/>
<path d="M10.8003 12.4999C9.86028 12.4999 9.10028 11.7399 9.10028 10.7999V9.59994C9.10028 9.32661 9.32694 9.09994 9.60028 9.09994H10.8003C11.7403 9.09994 12.5003 9.85994 12.5003 10.7999C12.5003 11.7399 11.7403 12.4999 10.8003 12.4999ZM10.1003 10.0999V10.7999C10.1003 11.1866 10.4136 11.4999 10.8003 11.4999C11.1869 11.4999 11.5003 11.1866 11.5003 10.7999C11.5003 10.4133 11.1869 10.0999 10.8003 10.0999H10.1003Z" fill="currentColor"/>
<path d="M10 15.1667H6.00001C2.38001 15.1667 0.833344 13.62 0.833344 10V6.00001C0.833344 2.38001 2.38001 0.833344 6.00001 0.833344H10C13.62 0.833344 15.1667 2.38001 15.1667 6.00001V10C15.1667 13.62 13.62 15.1667 10 15.1667ZM6.00001 1.83334C2.92668 1.83334 1.83334 2.92668 1.83334 6.00001V10C1.83334 13.0733 2.92668 14.1667 6.00001 14.1667H10C13.0733 14.1667 14.1667 13.0733 14.1667 10V6.00001C14.1667 2.92668 13.0733 1.83334 10 1.83334H6.00001Z" fill="currentColor"/>
</g>
<defs>
<clipPath id="clip0_2_5330">
<rect width="16" height="16" fill="currentColor"/>
</clipPath>
</defs>
</svg>
