<svg width="16" height="16" viewBox="0 0 16 16" fill="none" xmlns="http://www.w3.org/2000/svg">
<g clip-path="url(#clip0_2_4633)">
<path d="M10.6667 11.1667H5.33334C5.06001 11.1667 4.83334 10.94 4.83334 10.6667V5.33334C4.83334 5.06001 5.06001 4.83334 5.33334 4.83334H10.6667C10.94 4.83334 11.1667 5.06001 11.1667 5.33334V10.6667C11.1667 10.94 10.94 11.1667 10.6667 11.1667ZM5.83334 10.1667H10.1667V5.83334H5.83334V10.1667Z" fill="currentColor"/>
<path d="M3.33334 15.1667C1.95334 15.1667 0.833344 14.0467 0.833344 12.6667C0.833344 11.2867 1.95334 10.1667 3.33334 10.1667H5.33334C5.60668 10.1667 5.83334 10.3933 5.83334 10.6667V12.6667C5.83334 14.0467 4.71334 15.1667 3.33334 15.1667ZM3.33334 11.1667C2.50668 11.1667 1.83334 11.84 1.83334 12.6667C1.83334 13.4933 2.50668 14.1667 3.33334 14.1667C4.16001 14.1667 4.83334 13.4933 4.83334 12.6667V11.1667H3.33334Z" fill="currentColor"/>
<path d="M5.33334 5.83334H3.33334C1.95334 5.83334 0.833344 4.71334 0.833344 3.33334C0.833344 1.95334 1.95334 0.833344 3.33334 0.833344C4.71334 0.833344 5.83334 1.95334 5.83334 3.33334V5.33334C5.83334 5.60668 5.60668 5.83334 5.33334 5.83334ZM3.33334 1.83334C2.50668 1.83334 1.83334 2.50668 1.83334 3.33334C1.83334 4.16001 2.50668 4.83334 3.33334 4.83334H4.83334V3.33334C4.83334 2.50668 4.16001 1.83334 3.33334 1.83334Z" fill="currentColor"/>
<path d="M12.6667 5.83334H10.6667C10.3933 5.83334 10.1667 5.60668 10.1667 5.33334V3.33334C10.1667 1.95334 11.2867 0.833344 12.6667 0.833344C14.0467 0.833344 15.1667 1.95334 15.1667 3.33334C15.1667 4.71334 14.0467 5.83334 12.6667 5.83334ZM11.1667 4.83334H12.6667C13.4933 4.83334 14.1667 4.16001 14.1667 3.33334C14.1667 2.50668 13.4933 1.83334 12.6667 1.83334C11.84 1.83334 11.1667 2.50668 11.1667 3.33334V4.83334Z" fill="currentColor"/>
<path d="M12.6667 15.1667C11.2867 15.1667 10.1667 14.0467 10.1667 12.6667V10.6667C10.1667 10.3933 10.3933 10.1667 10.6667 10.1667H12.6667C14.0467 10.1667 15.1667 11.2867 15.1667 12.6667C15.1667 14.0467 14.0467 15.1667 12.6667 15.1667ZM11.1667 11.1667V12.6667C11.1667 13.4933 11.84 14.1667 12.6667 14.1667C13.4933 14.1667 14.1667 13.4933 14.1667 12.6667C14.1667 11.84 13.4933 11.1667 12.6667 11.1667H11.1667Z" fill="currentColor"/>
</g>
<defs>
<clipPath id="clip0_2_4633">
<rect width="16" height="16" fill="currentColor"/>
</clipPath>
</defs>
</svg>
