<svg width="16" height="16" viewBox="0 0 16 16" fill="none" xmlns="http://www.w3.org/2000/svg">
<g clip-path="url(#clip0_2_5091)">
<path d="M7.99986 15.1667C7.21986 15.1667 6.49318 14.8667 5.94651 14.32L1.6865 10.06C1.13983 9.51333 0.839844 8.78 0.839844 8.00667C0.839844 7.23333 1.13983 6.49999 1.6865 5.95333L5.94651 1.69332C6.49318 1.14665 7.22653 0.84668 7.99986 0.84668C8.7732 0.84668 9.50646 1.14665 10.0531 1.69332L14.3132 5.95333C14.8599 6.49999 15.1598 7.23333 15.1598 8.00667C15.1598 8.78 14.8599 9.51333 14.3132 10.06L10.0531 14.32C9.50646 14.8667 8.77986 15.1667 7.99986 15.1667ZM7.99986 1.83333C7.48653 1.83333 7.00653 2.03335 6.65318 2.38668L2.39316 6.64665C2.03316 7.00667 1.83984 7.48667 1.83984 7.99333C1.83984 8.5 2.03983 8.98667 2.39316 9.34L6.65318 13.6C7.36653 14.3133 8.63313 14.3133 9.34646 13.6L13.6065 9.34C13.9665 8.98 14.1598 8.50667 14.1598 7.99333C14.1598 7.48 13.9599 7 13.6065 6.64665L9.34646 2.38668C8.99313 2.03335 8.5132 1.83333 7.99986 1.83333Z" fill="currentColor"/>
</g>
<defs>
<clipPath id="clip0_2_5091">
<rect width="16" height="16" fill="currentColor"/>
</clipPath>
</defs>
</svg>
