<svg width="16" height="16" viewBox="0 0 16 16" fill="none" xmlns="http://www.w3.org/2000/svg">
<g clip-path="url(#clip0_2_5090)">
<path d="M9.98046 15.1667H5.98046C2.36046 15.1667 0.813797 13.62 0.813797 10V6.00001C0.813797 2.38001 2.36046 0.833344 5.98046 0.833344H9.98046C13.6005 0.833344 15.1471 2.38001 15.1471 6.00001V10C15.1471 13.62 13.6071 15.1667 9.98046 15.1667ZM5.98046 1.83334C2.90713 1.83334 1.8138 2.92668 1.8138 6.00001V10C1.8138 13.0733 2.90713 14.1667 5.98046 14.1667H9.98046C13.0538 14.1667 14.1471 13.0733 14.1471 10V6.00001C14.1471 2.92668 13.0538 1.83334 9.98046 1.83334H5.98046Z" fill="currentColor"/>
<path d="M2.18062 13.6333C2.05396 13.6333 1.92729 13.5866 1.82729 13.4866C1.63396 13.2933 1.63396 12.9733 1.82729 12.7799L12.7939 1.8133C12.9873 1.61997 13.3073 1.61997 13.5006 1.8133C13.6939 2.00664 13.6939 2.32664 13.5006 2.51997L2.53396 13.4866C2.44062 13.5866 2.31396 13.6333 2.18062 13.6333Z" fill="currentColor"/>
<path d="M10.707 12.5C10.4337 12.5 10.207 12.2733 10.207 12V8.66668C10.207 8.39334 10.4337 8.16668 10.707 8.16668C10.9803 8.16668 11.207 8.39334 11.207 8.66668V12C11.207 12.2733 10.9803 12.5 10.707 12.5Z" fill="currentColor"/>
<path d="M12.3333 10.8333H9C8.72666 10.8333 8.5 10.6067 8.5 10.3333C8.5 10.06 8.72666 9.83334 9 9.83334H12.3333C12.6067 9.83334 12.8333 10.06 12.8333 10.3333C12.8333 10.6067 12.6067 10.8333 12.3333 10.8333Z" fill="currentColor"/>
<path d="M7 5.50001H3.66666C3.39333 5.50001 3.16666 5.27334 3.16666 5.00001C3.16666 4.72668 3.39333 4.50001 3.66666 4.50001H7C7.27333 4.50001 7.5 4.72668 7.5 5.00001C7.5 5.27334 7.27333 5.50001 7 5.50001Z" fill="currentColor"/>
</g>
<defs>
<clipPath id="clip0_2_5090">
<rect width="16" height="16" fill="currentColor"/>
</clipPath>
</defs>
</svg>
