<svg width="16" height="16" viewBox="0 0 16 16" fill="none" xmlns="http://www.w3.org/2000/svg">
<g clip-path="url(#clip0_2_5085)">
<path d="M5.23333 15.1667H3.43333C1.66 15.1667 0.833333 14.34 0.833333 12.5667V10.7667C0.833333 8.99334 1.66 8.16668 3.43333 8.16668H5.23333C7.00667 8.16668 7.83333 8.99334 7.83333 10.7667V12.5667C7.83333 14.34 7.00667 15.1667 5.23333 15.1667ZM3.43333 9.16668C2.20667 9.16668 1.83333 9.54001 1.83333 10.7667V12.5667C1.83333 13.7933 2.20667 14.1667 3.43333 14.1667H5.23333C6.46 14.1667 6.83333 13.7933 6.83333 12.5667V10.7667C6.83333 9.54001 6.46 9.16668 5.23333 9.16668H3.43333Z" fill="currentColor"/>
<path d="M10.0001 15.1667C9.82013 15.1667 9.65347 15.0667 9.5668 14.9133C9.48013 14.76 9.48013 14.5667 9.57347 14.4133L10.2735 13.2467C10.4135 13.0067 10.7201 12.9333 10.9601 13.0733C11.2001 13.2133 11.2735 13.52 11.1335 13.76L10.9535 14.06C12.7935 13.6267 14.1735 11.9733 14.1735 10C14.1735 9.72668 14.4001 9.50001 14.6735 9.50001C14.9468 9.50001 15.1735 9.72668 15.1735 10C15.1668 12.8467 12.8468 15.1667 10.0001 15.1667Z" fill="currentColor"/>
<path d="M1.33333 6.50001C1.06 6.50001 0.833333 6.27334 0.833333 6.00001C0.833333 3.15334 3.15333 0.833344 6 0.833344C6.18 0.833344 6.34667 0.933343 6.43333 1.08668C6.52 1.24001 6.52 1.43334 6.42667 1.58668L5.72667 2.76001C5.58667 2.99334 5.28 3.07334 5.04 2.92668C4.80667 2.78668 4.72667 2.48001 4.87333 2.24001L5.05333 1.94001C3.20667 2.37334 1.83333 4.02668 1.83333 6.00001C1.83333 6.27334 1.60667 6.50001 1.33333 6.50001Z" fill="currentColor"/>
<path d="M11.6667 7.83334C9.74 7.83334 8.16667 6.26001 8.16667 4.33334C8.16667 2.40668 9.74 0.833344 11.6667 0.833344C13.5933 0.833344 15.1667 2.40668 15.1667 4.33334C15.1667 6.26001 13.5933 7.83334 11.6667 7.83334ZM11.6667 1.83334C10.2867 1.83334 9.16667 2.95334 9.16667 4.33334C9.16667 5.71334 10.2867 6.83334 11.6667 6.83334C13.0467 6.83334 14.1667 5.71334 14.1667 4.33334C14.1667 2.95334 13.0467 1.83334 11.6667 1.83334Z" fill="currentColor"/>
</g>
<defs>
<clipPath id="clip0_2_5085">
<rect width="16" height="16" fill="currentColor"/>
</clipPath>
</defs>
</svg>
