<svg width="16" height="16" viewBox="0 0 16 16" fill="none" xmlns="http://www.w3.org/2000/svg">
<g clip-path="url(#clip0_2_5088)">
<path d="M14.6667 4.20672H8C7.72667 4.20672 7.5 3.98005 7.5 3.70672C7.5 3.43338 7.72667 3.20672 8 3.20672H14.6667C14.94 3.20672 15.1667 3.43338 15.1667 3.70672C15.1667 3.98672 14.94 4.20672 14.6667 4.20672Z" fill="currentColor"/>
<path d="M13.1865 7.50001H9.48654C8.02654 7.50001 7.50654 6.98668 7.50654 5.53334V2.80001C7.50654 1.34668 8.02654 0.833344 9.48654 0.833344H13.1865C14.6465 0.833344 15.1665 1.34668 15.1665 2.80001V5.54001C15.1665 6.98668 14.6465 7.50001 13.1865 7.50001ZM9.47987 1.83334C8.5732 1.83334 8.49987 1.90668 8.49987 2.80001V5.54001C8.49987 6.43334 8.5732 6.50668 9.47987 6.50668H13.1798C14.0865 6.50668 14.1598 6.43334 14.1598 5.54001V2.80001C14.1598 1.90668 14.0865 1.83334 13.1798 1.83334H9.47987Z" fill="currentColor"/>
<path d="M8 11.8734H1.33334C1.06 11.8734 0.833336 11.6467 0.833336 11.3734C0.833336 11.1001 1.06 10.8734 1.33334 10.8734H8C8.27334 10.8734 8.5 11.1001 8.5 11.3734C8.5 11.6534 8.27334 11.8734 8 11.8734Z" fill="currentColor"/>
<path d="M6.51984 15.1667H2.81985C1.35985 15.1667 0.839849 14.6533 0.839849 13.2V10.4667C0.839849 9.01334 1.35985 8.50001 2.81985 8.50001H6.51984C7.97987 8.50001 8.49987 9.01334 8.49987 10.4667V13.2067C8.49987 14.6533 7.97987 15.1667 6.51984 15.1667ZM2.81318 9.50001C1.90651 9.50001 1.83318 9.57334 1.83318 10.4667V13.2067C1.83318 14.1 1.90651 14.1733 2.81318 14.1733H6.51316C7.4198 14.1733 7.49314 14.1 7.49314 13.2067V10.4667C7.49314 9.57334 7.4198 9.50001 6.51316 9.50001H2.81318Z" fill="currentColor"/>
<path d="M10.0001 15.1668C9.82014 15.1668 9.65347 15.0668 9.5668 14.9135C9.48014 14.7535 9.48014 14.5668 9.57347 14.4068L10.2735 13.2401C10.4135 13.0068 10.7201 12.9268 10.9601 13.0668C11.2001 13.2068 11.2735 13.5135 11.1335 13.7535L10.9535 14.0535C12.7935 13.6201 14.1735 11.9668 14.1735 9.99348C14.1735 9.72014 14.4001 9.49348 14.6735 9.49348C14.9468 9.49348 15.1735 9.72014 15.1735 9.99348C15.1668 12.8468 12.8468 15.1668 10.0001 15.1668Z" fill="currentColor"/>
<path d="M1.33334 6.50001C1.06 6.50001 0.833336 6.27334 0.833336 6.00001C0.833336 3.15334 3.15334 0.833344 6 0.833344C6.18 0.833344 6.34666 0.933343 6.43333 1.08668C6.52 1.24668 6.52001 1.43334 6.42668 1.59334L5.72667 2.76001C5.58667 2.99334 5.28 3.07334 5.04 2.93334C4.8 2.79334 4.72666 2.48668 4.86666 2.24668L5.04668 1.94668C3.20668 2.38001 1.82666 4.03334 1.82666 6.00668C1.83333 6.27334 1.60667 6.50001 1.33334 6.50001Z" fill="currentColor"/>
</g>
<defs>
<clipPath id="clip0_2_5088">
<rect width="16" height="16" fill="currentColor"/>
</clipPath>
</defs>
</svg>
