<svg width="16" height="16" viewBox="0 0 16 16" fill="none" xmlns="http://www.w3.org/2000/svg">
<g clip-path="url(#clip0_2_5230)">
<path d="M12.5667 8.50001H10.7667C8.99333 8.50001 8.16667 7.67334 8.16667 5.90001V3.43334C8.16667 1.66001 8.99333 0.833344 10.7667 0.833344H12.5667C14.34 0.833344 15.1667 1.66001 15.1667 3.43334V5.90001C15.1667 7.67334 14.34 8.50001 12.5667 8.50001ZM10.7667 1.83334C9.54 1.83334 9.16667 2.20668 9.16667 3.43334V5.90001C9.16667 7.12668 9.54 7.50001 10.7667 7.50001H12.5667C13.7933 7.50001 14.1667 7.12668 14.1667 5.90001V3.43334C14.1667 2.20668 13.7933 1.83334 12.5667 1.83334H10.7667Z" fill="currentColor"/>
<path d="M5.23333 15.1667H3.43333C1.66 15.1667 0.833332 14.34 0.833332 12.5667V10.1C0.833332 8.32668 1.66 7.50001 3.43333 7.50001H5.23333C7.00667 7.50001 7.83333 8.32668 7.83333 10.1V12.5667C7.83333 14.34 7.00667 15.1667 5.23333 15.1667ZM3.43333 8.50001C2.20667 8.50001 1.83333 8.87334 1.83333 10.1V12.5667C1.83333 13.7933 2.20667 14.1667 3.43333 14.1667H5.23333C6.46 14.1667 6.83333 13.7933 6.83333 12.5667V10.1C6.83333 8.87334 6.46 8.50001 5.23333 8.50001H3.43333Z" fill="currentColor"/>
<path d="M10.0001 15.1667C9.82013 15.1667 9.65347 15.0667 9.5668 14.9133C9.48013 14.76 9.48013 14.5667 9.57347 14.4133L10.2735 13.2467C10.4135 13.0067 10.7201 12.9333 10.9601 13.0733C11.2001 13.2133 11.2735 13.52 11.1335 13.76L10.9535 14.06C12.7935 13.6267 14.1735 11.9733 14.1735 10C14.1735 9.72668 14.4001 9.50001 14.6735 9.50001C14.9468 9.50001 15.1735 9.72668 15.1735 10C15.1668 12.8467 12.8468 15.1667 10.0001 15.1667Z" fill="currentColor"/>
<path d="M1.33333 6.50001C1.06 6.50001 0.833332 6.27334 0.833332 6.00001C0.833332 3.15334 3.15333 0.833344 6 0.833344C6.18 0.833344 6.34667 0.933343 6.43333 1.08668C6.52 1.24001 6.52 1.43334 6.42667 1.58668L5.72667 2.76001C5.58667 2.99334 5.28 3.07334 5.04 2.92668C4.80667 2.78668 4.72667 2.48001 4.87333 2.24001L5.05333 1.94001C3.20667 2.37334 1.83333 4.02668 1.83333 6.00001C1.83333 6.27334 1.60667 6.50001 1.33333 6.50001Z" fill="currentColor"/>
</g>
<defs>
<clipPath id="clip0_2_5230">
<rect width="16" height="16" fill="currentColor"/>
</clipPath>
</defs>
</svg>
