<svg width="16" height="16" viewBox="0 0 16 16" fill="none" xmlns="http://www.w3.org/2000/svg">
<g clip-path="url(#clip0_2_5089)">
<path d="M8.00334 15.1551C4.05822 15.1551 0.851562 11.9485 0.851562 8.00334C0.851562 4.05822 4.05822 0.851562 8.00334 0.851562C11.9485 0.851562 15.1551 4.05822 15.1551 8.00334C15.1551 11.9485 11.9418 15.1551 8.00334 15.1551ZM8.00334 1.84949C4.6104 1.84949 1.84949 4.6104 1.84949 8.00334C1.84949 11.3963 4.6104 14.1572 8.00334 14.1572C11.3963 14.1572 14.1572 11.3963 14.1572 8.00334C14.1572 4.6104 11.3963 1.84949 8.00334 1.84949Z" fill="currentColor"/>
<path d="M9.53307 8.63547C9.4 8.63547 9.2736 8.58227 9.18047 8.48914L3.73845 3.03382C3.54552 2.84089 3.54552 2.52155 3.73845 2.32862C3.93138 2.13569 4.25072 2.13569 4.44365 2.32862L9.04074 6.93234L9.0474 5.1095C9.0474 4.83673 9.2736 4.61054 9.54634 4.61054C9.81913 4.59058 10.0453 4.83673 10.0453 5.1095L10.0387 8.13654C10.0387 8.33614 9.91893 8.5224 9.7326 8.59554C9.66607 8.6222 9.5996 8.63547 9.53307 8.63547Z" fill="currentColor"/>
<path d="M11.9087 13.8178C11.7823 13.8178 11.6559 13.7712 11.5561 13.6715L6.959 9.06767L6.95234 10.8905C6.95234 11.1633 6.72614 11.3895 6.45339 11.3895C6.18062 11.3895 5.95443 11.1633 5.95443 10.8905L5.96108 7.86353C5.96108 7.66394 6.08084 7.47767 6.26711 7.40447C6.45339 7.32467 6.66628 7.3712 6.81267 7.51094L12.2547 12.9663C12.4476 13.1592 12.4476 13.4785 12.2547 13.6715C12.1681 13.7712 12.0351 13.8178 11.9087 13.8178Z" fill="currentColor"/>
</g>
<defs>
<clipPath id="clip0_2_5089">
<rect width="16" height="16" fill="currentColor"/>
</clipPath>
</defs>
</svg>
