<svg width="16" height="16" viewBox="0 0 16 16" fill="none" xmlns="http://www.w3.org/2000/svg">
<g clip-path="url(#clip0_2_4765)">
<path d="M10.0001 15.1667C9.82014 15.1667 9.65347 15.0667 9.5668 14.9133C9.48014 14.76 9.48014 14.5667 9.57347 14.4133L10.2735 13.2467C10.4135 13.0067 10.7201 12.9333 10.9601 13.0733C11.2001 13.2133 11.2735 13.52 11.1335 13.76L10.9535 14.06C12.7935 13.6267 14.1735 11.9733 14.1735 10C14.1735 9.72668 14.4001 9.50001 14.6735 9.50001C14.9468 9.50001 15.1735 9.72668 15.1735 10C15.1668 12.8467 12.8468 15.1667 10.0001 15.1667Z" fill="currentColor"/>
<path d="M1.33334 6.50001C1.06 6.50001 0.833336 6.27334 0.833336 6.00001C0.833336 3.15334 3.15334 0.833344 6 0.833344C6.18 0.833344 6.34666 0.933343 6.43333 1.08668C6.52 1.24001 6.52 1.43334 6.42667 1.58668L5.72667 2.75334C5.58667 2.99335 5.28 3.06668 5.04 2.92668C4.8 2.78668 4.72667 2.48 4.86667 2.24L5.04668 1.93999C3.20668 2.37332 1.82668 4.02668 1.82668 6.00001C1.83334 6.27334 1.60667 6.50001 1.33334 6.50001Z" fill="currentColor"/>
<path d="M11.7869 4.99992C11.7003 4.99992 11.6136 4.97994 11.5336 4.93328L8.88694 3.39991C8.64694 3.25991 8.56694 2.95326 8.70694 2.71326C8.84694 2.47326 9.1536 2.39325 9.38694 2.53325L11.7869 3.91993L14.1669 2.53992C14.4069 2.39992 14.7136 2.4866 14.8469 2.71994C14.9869 2.95994 14.9003 3.26658 14.6669 3.40658L12.0336 4.9266C11.9603 4.97327 11.8736 4.99992 11.7869 4.99992Z" fill="currentColor"/>
<path d="M11.7865 7.71321C11.5131 7.71321 11.2865 7.48654 11.2865 7.21321V4.49318C11.2865 4.21984 11.5131 3.99318 11.7865 3.99318C12.0598 3.99318 12.2865 4.21984 12.2865 4.49318V7.21321C12.2865 7.49321 12.0598 7.71321 11.7865 7.71321Z" fill="currentColor"/>
<path d="M11.7863 7.83328C11.4796 7.83328 11.1663 7.76661 10.9196 7.62661L9.3196 6.73994C8.7996 6.4533 8.40627 5.77999 8.40627 5.18666V3.4933C8.40627 2.8933 8.7996 2.22666 9.32627 1.93332L10.9263 1.04664C11.4196 0.77331 12.1596 0.77331 12.6596 1.04664L14.2596 1.93332C14.7796 2.21999 15.1729 2.89329 15.1729 3.48662V5.17998C15.1729 5.77998 14.7796 6.44662 14.2596 6.73328L12.6596 7.61994C12.3996 7.76661 12.0929 7.83328 11.7863 7.83328ZM11.4063 1.9133L9.80627 2.79998C9.60627 2.91332 9.40627 3.25328 9.40627 3.47995V5.17331C9.40627 5.40664 9.60627 5.74666 9.80627 5.85332L11.4063 6.74661C11.5996 6.85328 11.9729 6.85328 12.1663 6.74661L13.7663 5.85996C13.9663 5.74662 14.1663 5.40665 14.1663 5.17998V3.48662C14.1663 3.25329 13.9663 2.91332 13.7663 2.80666L12.1663 1.91998C11.9729 1.80664 11.5929 1.80664 11.4063 1.9133Z" fill="currentColor"/>
<path d="M4.214 12.3333C4.12734 12.3333 4.04066 12.3133 3.96066 12.2666L1.314 10.7332C1.074 10.5932 0.993996 10.2866 1.134 10.0466C1.274 9.80661 1.58066 9.72661 1.814 9.86661L4.214 11.2533L6.594 9.87328C6.834 9.73328 7.14067 9.81994 7.274 10.0533C7.414 10.2933 7.32734 10.5999 7.094 10.7399L4.46066 12.2599C4.38733 12.3066 4.30067 12.3333 4.214 12.3333Z" fill="currentColor"/>
<path d="M4.21354 15.0465C3.94021 15.0465 3.71354 14.8199 3.71354 14.5465V11.8265C3.71354 11.5531 3.94021 11.3265 4.21354 11.3265C4.48688 11.3265 4.71354 11.5531 4.71354 11.8265V14.5465C4.71354 14.8265 4.49354 15.0465 4.21354 15.0465Z" fill="currentColor"/>
<path d="M4.21334 15.1666C3.90668 15.1666 3.59334 15.0999 3.34667 14.9599L1.74667 14.0733C1.22667 13.7866 0.833336 13.1133 0.833336 12.52V10.8266C0.833336 10.2266 1.22667 9.55994 1.74667 9.27328L3.34667 8.38668C3.84 8.11334 4.58667 8.11334 5.08 8.38668L6.68 9.27328C7.2 9.55994 7.59334 10.2333 7.59334 10.8266V12.52C7.59334 13.12 7.2 13.7866 6.67334 14.0799L5.07334 14.9667C4.83334 15.1 4.52668 15.1666 4.21334 15.1666ZM3.83334 9.24661L2.23334 10.1333C2.03334 10.2467 1.83334 10.5866 1.83334 10.8133V12.5067C1.83334 12.74 2.03334 13.08 2.23334 13.1867L3.83334 14.0733C4.02667 14.1799 4.4 14.1799 4.59334 14.0733L6.19333 13.1867C6.39333 13.0733 6.59334 12.7333 6.59334 12.5067V10.8133C6.59334 10.5799 6.39333 10.24 6.19333 10.1333L4.59334 9.23994C4.40667 9.13994 4.02667 9.13994 3.83334 9.24661Z" fill="currentColor"/>
</g>
<defs>
<clipPath id="clip0_2_4765">
<rect width="16" height="16" fill="currentColor"/>
</clipPath>
</defs>
</svg>
