<svg width="16" height="16" viewBox="0 0 16 16" fill="none" xmlns="http://www.w3.org/2000/svg">
<g clip-path="url(#clip0_2_5296)">
<path d="M11.4 0.833344H8.6C5.99334 0.833344 4.83334 1.99334 4.83334 4.60001V5.33334C4.83334 5.60668 5.06 5.83334 5.33334 5.83334H7.4C9.46667 5.83334 10.1667 6.53334 10.1667 8.60001V10.6667C10.1667 10.94 10.3933 11.1667 10.6667 11.1667H11.4C14.0067 11.1667 15.1667 10.0067 15.1667 7.40001V4.60001C15.1667 1.99334 14.0067 0.833344 11.4 0.833344ZM5.83334 4.83334V4.60001C5.83334 2.53334 6.53334 1.83334 8.6 1.83334H11.4C13.4667 1.83334 14.1667 2.53334 14.1667 4.60001V7.40001C14.1667 9.46668 13.4667 10.1667 11.4 10.1667H11.1667V8.60001C11.1667 5.99334 10.0067 4.83334 7.4 4.83334H5.83334Z" fill="currentColor"/>
<path d="M7.4 4.83334H4.6C1.99334 4.83334 0.833336 5.99334 0.833336 8.60001V11.4C0.833336 14.0067 1.99334 15.1667 4.6 15.1667H7.4C10.0067 15.1667 11.1667 14.0067 11.1667 11.4V8.60001C11.1667 5.99334 10.0067 4.83334 7.4 4.83334ZM4.6 14.1667C2.53334 14.1667 1.83334 13.4667 1.83334 11.4V8.60001C1.83334 6.53334 2.53334 5.83334 4.6 5.83334H7.4C9.46667 5.83334 10.1667 6.53334 10.1667 8.60001V11.4C10.1667 13.4667 9.46667 14.1667 7.4 14.1667H4.6Z" fill="currentColor"/>
<path d="M5.35302 11.8C5.22636 11.8 5.09969 11.7533 4.99969 11.6533L3.69969 10.3533C3.50636 10.16 3.50636 9.84001 3.69969 9.64668C3.89302 9.45334 4.21302 9.45334 4.40636 9.64668L5.35302 10.5933L7.593 8.35334C7.78633 8.16001 8.10634 8.16001 8.29967 8.35334C8.493 8.54668 8.493 8.86668 8.29967 9.06001L5.69969 11.6533C5.60636 11.7467 5.47969 11.8 5.35302 11.8Z" fill="currentColor"/>
</g>
<defs>
<clipPath id="clip0_2_5296">
<rect width="16" height="16" fill="currentColor"/>
</clipPath>
</defs>
</svg>
