<svg width="16" height="16" viewBox="0 0 16 16" fill="none" xmlns="http://www.w3.org/2000/svg">
<g clip-path="url(#clip0_2_5316)">
<path d="M8 15.1667C4.04667 15.1667 0.833336 11.9533 0.833336 8.00001C0.833336 4.04668 4.04667 0.833344 8 0.833344C11.9533 0.833344 15.1667 4.04668 15.1667 8.00001C15.1667 11.9533 11.9533 15.1667 8 15.1667ZM8 1.83334C4.6 1.83334 1.83334 4.60001 1.83334 8.00001C1.83334 11.4 4.6 14.1667 8 14.1667C11.4 14.1667 14.1667 11.4 14.1667 8.00001C14.1667 4.60001 11.4 1.83334 8 1.83334Z" fill="currentColor"/>
<path d="M8.16014 11.1667C6.41349 11.1667 4.99349 9.74668 4.99349 8.00001C4.99349 6.25334 6.41349 4.83334 8.16014 4.83334C8.9268 4.83334 9.67347 5.11334 10.2468 5.62668C10.4535 5.80668 10.4735 6.12668 10.2935 6.33334C10.1135 6.54001 9.79347 6.56002 9.5868 6.38002C9.19347 6.03335 8.6868 5.84002 8.16014 5.84002C6.9668 5.84002 5.99349 6.81334 5.99349 8.00668C5.99349 9.20001 6.9668 10.1733 8.16014 10.1733C8.68014 10.1733 9.19347 9.98001 9.5868 9.63334C9.79347 9.45334 10.1135 9.47334 10.2935 9.68001C10.4735 9.88668 10.4535 10.2067 10.2468 10.3867C9.6668 10.8867 8.9268 11.1667 8.16014 11.1667Z" fill="currentColor"/>
</g>
<defs>
<clipPath id="clip0_2_5316">
<rect width="16" height="16" fill="currentColor"/>
</clipPath>
</defs>
</svg>
