<svg width="16" height="16" viewBox="0 0 16 16" fill="none" xmlns="http://www.w3.org/2000/svg">
<g clip-path="url(#clip0_2_5231)">
<path d="M14.6667 15.1667H1.33333C1.05999 15.1667 0.833328 14.94 0.833328 14.6667C0.833328 14.3933 1.05999 14.1667 1.33333 14.1667H14.6667C14.94 14.1667 15.1667 14.3933 15.1667 14.6667C15.1667 14.94 14.94 15.1667 14.6667 15.1667Z" fill="currentColor"/>
<path d="M9.66666 4.15328C9.03999 4.15328 8.41333 4.03329 7.81333 3.79329C7.62666 3.71996 7.49999 3.53328 7.49999 3.32662V1.32662C7.49999 1.15995 7.57999 1.00662 7.71999 0.913289C7.85999 0.819955 8.03333 0.799942 8.18666 0.859942C9.13999 1.23994 10.1933 1.23994 11.1467 0.859942C11.3 0.799942 11.4733 0.819955 11.6133 0.913289C11.7533 1.00662 11.8333 1.15995 11.8333 1.32662V3.32662C11.8333 3.53328 11.7067 3.71329 11.52 3.79329C10.92 4.03329 10.2933 4.15328 9.66666 4.15328ZM8.49999 2.97994C9.25999 3.21327 10.0733 3.21327 10.8333 2.97994V2.0133C10.0667 2.19997 9.26666 2.19997 8.49999 2.0133V2.97994Z" fill="currentColor"/>
<path d="M7.99999 5.83332C7.72666 5.83332 7.49999 5.60666 7.49999 5.33332V3.33332C7.49999 3.05999 7.72666 2.83332 7.99999 2.83332C8.27333 2.83332 8.49999 3.05999 8.49999 3.33332V5.33332C8.49999 5.60666 8.27333 5.83332 7.99999 5.83332Z" fill="currentColor"/>
<path d="M13.3333 15.1667H2.66666C2.39333 15.1667 2.16666 14.94 2.16666 14.6667V7.33332C2.16666 5.71999 3.05333 4.83332 4.66666 4.83332H11.3333C12.9467 4.83332 13.8333 5.71999 13.8333 7.33332V14.6667C13.8333 14.94 13.6067 15.1667 13.3333 15.1667ZM3.16666 14.1667H12.8333V7.33332C12.8333 6.27999 12.3867 5.83332 11.3333 5.83332H4.66666C3.61333 5.83332 3.16666 6.27999 3.16666 7.33332V14.1667Z" fill="currentColor"/>
<path d="M12.9467 8.49999H3.05338C2.78005 8.49999 2.55338 8.27332 2.55338 7.99999C2.55338 7.72666 2.78005 7.49999 3.05338 7.49999H12.9467C13.2201 7.49999 13.4467 7.72666 13.4467 7.99999C13.4467 8.27332 13.2201 8.49999 12.9467 8.49999Z" fill="currentColor"/>
<path d="M5.82681 7.99999H4.82681V14.6667H5.82681V7.99999Z" fill="currentColor"/>
<path d="M8.49346 7.99999H7.49346V14.6667H8.49346V7.99999Z" fill="currentColor"/>
<path d="M11.1601 7.99999H10.1601V14.6667H11.1601V7.99999Z" fill="currentColor"/>
</g>
<defs>
<clipPath id="clip0_2_5231">
<rect width="16" height="16" fill="currentColor"/>
</clipPath>
</defs>
</svg>
