<svg width="16" height="16" viewBox="0 0 16 16" fill="none" xmlns="http://www.w3.org/2000/svg">
<g clip-path="url(#clip0_2_5062)">
<path d="M6.4 13.8333C3.47333 13.8333 2.16666 12.5267 2.16666 9.60001V6.40001C2.16666 3.47334 3.47333 2.16668 6.4 2.16668H9.59999C12.5267 2.16668 13.8333 3.47334 13.8333 6.40001C13.8333 6.67334 13.6067 6.90001 13.3333 6.90001C13.06 6.90001 12.8333 6.67334 12.8333 6.40001C12.8333 4.01334 11.9867 3.16668 9.59999 3.16668H6.4C4.01333 3.16668 3.16666 4.01334 3.16666 6.40001V9.60001C3.16666 11.9867 4.01333 12.8333 6.4 12.8333C6.67333 12.8333 6.9 13.06 6.9 13.3333C6.9 13.6067 6.67333 13.8333 6.4 13.8333Z" fill="currentColor"/>
<path d="M5.32682 11.4C5.22015 11.4 5.10681 11.3667 5.01348 11.2933C4.43348 10.8333 4.16015 10.1 4.16015 9.00001V7.00001C4.16015 5.06668 5.06015 4.16668 6.99346 4.16668H8.99346C10.0935 4.16668 10.8201 4.44001 11.2868 5.02001C11.4601 5.23334 11.4201 5.55334 11.2068 5.72001C10.9935 5.89334 10.6735 5.86001 10.5068 5.64001C10.3468 5.43334 10.0135 5.16668 9.00013 5.16668H7.00013C5.61348 5.16668 5.16681 5.61334 5.16681 7.00001V9.00001C5.16681 10.0133 5.44015 10.3467 5.64015 10.5067C5.85348 10.68 5.89348 10.9933 5.72015 11.2067C5.62015 11.3333 5.47348 11.4 5.32682 11.4Z" fill="currentColor"/>
<path d="M5.33984 3.16668C5.05984 3.16668 4.83984 2.94001 4.83984 2.66668V1.33334C4.83984 1.06001 5.06651 0.833344 5.33984 0.833344C5.61318 0.833344 5.83984 1.06001 5.83984 1.33334V2.66668C5.83984 2.94001 5.61318 3.16668 5.33984 3.16668Z" fill="currentColor"/>
<path d="M8 3.16668C7.72666 3.16668 7.5 2.94001 7.5 2.66668V1.33334C7.5 1.06001 7.72666 0.833344 8 0.833344C8.27333 0.833344 8.5 1.06001 8.5 1.33334V2.66668C8.5 2.94001 8.27333 3.16668 8 3.16668Z" fill="currentColor"/>
<path d="M10.6667 3.16668C10.3933 3.16668 10.1667 2.94001 10.1667 2.66668V1.33334C10.1667 1.06001 10.3933 0.833344 10.6667 0.833344C10.94 0.833344 11.1667 1.06001 11.1667 1.33334V2.66668C11.1667 2.94001 10.94 3.16668 10.6667 3.16668Z" fill="currentColor"/>
<path d="M14.6667 5.83334H13.3333C13.06 5.83334 12.8333 5.60668 12.8333 5.33334C12.8333 5.06001 13.06 4.83334 13.3333 4.83334H14.6667C14.94 4.83334 15.1667 5.06001 15.1667 5.33334C15.1667 5.60668 14.9467 5.83334 14.6667 5.83334Z" fill="currentColor"/>
<path d="M5.33984 15.1667C5.06651 15.1667 4.83984 14.94 4.83984 14.6667V13.3333C4.83984 13.06 5.06651 12.8333 5.33984 12.8333C5.61318 12.8333 5.83984 13.06 5.83984 13.3333V14.6667C5.83984 14.94 5.61318 15.1667 5.33984 15.1667Z" fill="currentColor"/>
<path d="M2.66666 5.83334H1.33333C1.05999 5.83334 0.833328 5.61334 0.833328 5.33334C0.833328 5.05334 1.05999 4.83334 1.33333 4.83334H2.66666C2.94 4.83334 3.16666 5.06001 3.16666 5.33334C3.16666 5.60668 2.94666 5.83334 2.66666 5.83334Z" fill="currentColor"/>
<path d="M2.66666 8.50001H1.33333C1.05999 8.50001 0.833328 8.27334 0.833328 8.00001C0.833328 7.72668 1.05999 7.50001 1.33333 7.50001H2.66666C2.94 7.50001 3.16666 7.72668 3.16666 8.00001C3.16666 8.27334 2.94666 8.50001 2.66666 8.50001Z" fill="currentColor"/>
<path d="M2.66666 11.1667H1.33333C1.05999 11.1667 0.833328 10.94 0.833328 10.6667C0.833328 10.3933 1.05999 10.1667 1.33333 10.1667H2.66666C2.94 10.1667 3.16666 10.3933 3.16666 10.6667C3.16666 10.94 2.94666 11.1667 2.66666 11.1667Z" fill="currentColor"/>
<path d="M11.1401 12.8933C10.2801 12.8933 9.58006 12.1933 9.58006 11.3333C9.58006 10.4733 10.2801 9.77328 11.1401 9.77328C12.0001 9.77328 12.7001 10.4733 12.7001 11.3333C12.6934 12.1933 12.0001 12.8933 11.1401 12.8933ZM11.1401 10.7733C10.8334 10.7733 10.5801 11.0266 10.5801 11.3333C10.5801 11.6399 10.8334 11.8933 11.1401 11.8933C11.4467 11.8933 11.7001 11.6399 11.7001 11.3333C11.6934 11.0266 11.4467 10.7733 11.1401 10.7733Z" fill="currentColor"/>
<path d="M12.2669 15.1666C11.8936 15.1666 11.5269 14.9733 11.3269 14.6266L11.2803 14.5533C11.2069 14.4266 11.1469 14.3933 11.1336 14.3866C11.1269 14.3866 11.0603 14.4266 10.9869 14.5533L10.9469 14.6199C10.6403 15.1466 9.96693 15.3199 9.4536 15.0133L8.8536 14.6666C8.58026 14.5133 8.38693 14.2599 8.30693 13.9533C8.22693 13.6533 8.26693 13.3333 8.42026 13.0666C8.49359 12.9399 8.4936 12.8666 8.48693 12.8533C8.48026 12.8466 8.42026 12.8133 8.2736 12.8133C7.62693 12.8133 7.10026 12.2866 7.10026 11.6466V11.0266C7.10026 10.3799 7.62693 9.85994 8.26693 9.85994C8.4136 9.85994 8.4736 9.81994 8.48693 9.81328C8.48693 9.80661 8.48693 9.73328 8.4136 9.60661C8.26026 9.33328 8.2136 9.01994 8.30026 8.71994C8.38026 8.41994 8.5736 8.16661 8.84693 8.00661L9.4536 7.65328C9.96026 7.35328 10.6336 7.52661 10.9336 8.04661L10.9736 8.11994C11.0469 8.24661 11.1069 8.27994 11.1203 8.28661C11.1269 8.28661 11.1936 8.24661 11.2669 8.11994L11.3069 8.05328C11.6203 7.52661 12.2869 7.35328 12.8003 7.65994L13.4203 7.99994C13.6936 8.15328 13.8869 8.40661 13.9669 8.71328C14.0469 9.01328 14.0069 9.33328 13.8536 9.59994C13.7803 9.72661 13.7803 9.79994 13.7869 9.81328C13.7936 9.81994 13.8536 9.85328 14.0003 9.85328C14.6469 9.85328 15.1736 10.3799 15.1736 11.0199V11.6399C15.1736 12.2866 14.6469 12.8066 14.0069 12.8066C13.8603 12.8066 13.8003 12.8466 13.7869 12.8533C13.7869 12.8599 13.7869 12.9333 13.8603 13.0599C14.0136 13.3333 14.0603 13.6466 13.9736 13.9466C13.8936 14.2466 13.7003 14.4999 13.4269 14.6599L12.8203 15.0133C12.6403 15.1133 12.4536 15.1666 12.2669 15.1666ZM11.1403 13.3866C11.5403 13.3866 11.9069 13.6266 12.1536 14.0533L12.1936 14.1266C12.2136 14.1599 12.2669 14.1799 12.3069 14.1533L12.9203 13.7999C12.9736 13.7733 12.9936 13.7199 13.0003 13.6933C13.0069 13.6666 13.0136 13.6199 12.9869 13.5666C12.7403 13.1466 12.7203 12.7066 12.9203 12.3599C13.1203 12.0133 13.5136 11.8133 14.0003 11.8133C14.0936 11.8133 14.1736 11.7333 14.1736 11.6466V11.0266C14.1736 10.9333 14.0936 10.8599 14.0069 10.8599C13.5203 10.8599 13.1203 10.6599 12.9269 10.3133C12.7269 9.96661 12.7536 9.52661 12.9936 9.10661C13.0269 9.05328 13.0203 8.99994 13.0069 8.97994C13.0003 8.95328 12.9803 8.90661 12.9269 8.87328L12.3203 8.51994C12.2736 8.49328 12.2203 8.51328 12.1936 8.55328L12.1603 8.61328C11.9136 9.03994 11.5469 9.27994 11.1469 9.27994C10.7469 9.27994 10.3803 9.03994 10.1336 8.61328L10.0936 8.54661C10.0736 8.50661 10.0136 8.49328 9.98026 8.51328L9.36693 8.86661C9.31359 8.89328 9.2936 8.94661 9.28693 8.97328C9.28026 8.99994 9.2736 9.04661 9.30026 9.09994C9.54693 9.51994 9.56693 9.95994 9.36693 10.3066C9.16693 10.6533 8.77359 10.8533 8.28693 10.8533C8.19359 10.8533 8.1136 10.9333 8.1136 11.0199V11.6399C8.1136 11.7333 8.19359 11.8066 8.28026 11.8066C8.76693 11.8066 9.16693 12.0066 9.36026 12.3533C9.56026 12.6999 9.5336 13.1399 9.2936 13.5599C9.26693 13.6133 9.27359 13.6599 9.28026 13.6866C9.28693 13.7133 9.30693 13.7599 9.36026 13.7933L9.96693 14.1466C10.0136 14.1733 10.0669 14.1533 10.0936 14.1133L10.1269 14.0466C10.3669 13.6266 10.7403 13.3866 11.1403 13.3866Z" fill="currentColor"/>
</g>
<defs>
<clipPath id="clip0_2_5062">
<rect width="16" height="16" fill="currentColor"/>
</clipPath>
</defs>
</svg>
