<svg width="16" height="16" viewBox="0 0 16 16" fill="none" xmlns="http://www.w3.org/2000/svg">
<g clip-path="url(#clip0_2_5190)">
<path d="M9.59999 13.8333H6.39999C3.47333 13.8333 2.16666 12.5267 2.16666 9.60001V6.40001C2.16666 3.47334 3.47333 2.16668 6.39999 2.16668H9.59999C12.5267 2.16668 13.8333 3.47334 13.8333 6.40001V9.60001C13.8333 12.5267 12.5267 13.8333 9.59999 13.8333ZM6.39999 3.16668C4.01333 3.16668 3.16666 4.01334 3.16666 6.40001V9.60001C3.16666 11.9867 4.01333 12.8333 6.39999 12.8333H9.59999C11.9867 12.8333 12.8333 11.9867 12.8333 9.60001V6.40001C12.8333 4.01334 11.9867 3.16668 9.59999 3.16668H6.39999Z" fill="currentColor"/>
<path d="M8.99999 11.8333H6.99999C5.06666 11.8333 4.16666 10.9333 4.16666 9.00001V7.00001C4.16666 5.06668 5.06666 4.16668 6.99999 4.16668H8.99999C10.9333 4.16668 11.8333 5.06668 11.8333 7.00001V9.00001C11.8333 10.9333 10.9333 11.8333 8.99999 11.8333ZM6.99999 5.16668C5.61333 5.16668 5.16666 5.61334 5.16666 7.00001V9.00001C5.16666 10.3867 5.61333 10.8333 6.99999 10.8333H8.99999C10.3867 10.8333 10.8333 10.3867 10.8333 9.00001V7.00001C10.8333 5.61334 10.3867 5.16668 8.99999 5.16668H6.99999Z" fill="currentColor"/>
<path d="M5.33984 3.16668C5.05984 3.16668 4.83984 2.94001 4.83984 2.66668V1.33334C4.83984 1.06001 5.06651 0.833344 5.33984 0.833344C5.61317 0.833344 5.83984 1.06001 5.83984 1.33334V2.66668C5.83984 2.94001 5.61317 3.16668 5.33984 3.16668Z" fill="currentColor"/>
<path d="M7.99999 3.16668C7.72666 3.16668 7.49999 2.94001 7.49999 2.66668V1.33334C7.49999 1.06001 7.72666 0.833344 7.99999 0.833344C8.27333 0.833344 8.49999 1.06001 8.49999 1.33334V2.66668C8.49999 2.94001 8.27333 3.16668 7.99999 3.16668Z" fill="currentColor"/>
<path d="M10.6667 3.16668C10.3933 3.16668 10.1667 2.94001 10.1667 2.66668V1.33334C10.1667 1.06001 10.3933 0.833344 10.6667 0.833344C10.94 0.833344 11.1667 1.06001 11.1667 1.33334V2.66668C11.1667 2.94001 10.94 3.16668 10.6667 3.16668Z" fill="currentColor"/>
<path d="M14.6667 5.83334H13.3333C13.06 5.83334 12.8333 5.60668 12.8333 5.33334C12.8333 5.06001 13.06 4.83334 13.3333 4.83334H14.6667C14.94 4.83334 15.1667 5.06001 15.1667 5.33334C15.1667 5.60668 14.9467 5.83334 14.6667 5.83334Z" fill="currentColor"/>
<path d="M14.6667 8.50001H13.3333C13.06 8.50001 12.8333 8.27334 12.8333 8.00001C12.8333 7.72668 13.06 7.50001 13.3333 7.50001H14.6667C14.94 7.50001 15.1667 7.72668 15.1667 8.00001C15.1667 8.27334 14.9467 8.50001 14.6667 8.50001Z" fill="currentColor"/>
<path d="M14.6667 11.1667H13.3333C13.06 11.1667 12.8333 10.94 12.8333 10.6667C12.8333 10.3933 13.06 10.1667 13.3333 10.1667H14.6667C14.94 10.1667 15.1667 10.3933 15.1667 10.6667C15.1667 10.94 14.9467 11.1667 14.6667 11.1667Z" fill="currentColor"/>
<path d="M10.6667 15.1667C10.3933 15.1667 10.1667 14.94 10.1667 14.6667V13.3333C10.1667 13.06 10.3933 12.8333 10.6667 12.8333C10.94 12.8333 11.1667 13.06 11.1667 13.3333V14.6667C11.1667 14.94 10.94 15.1667 10.6667 15.1667Z" fill="currentColor"/>
<path d="M8.00653 15.1667C7.73319 15.1667 7.50653 14.94 7.50653 14.6667V13.3333C7.50653 13.06 7.73319 12.8333 8.00653 12.8333C8.27986 12.8333 8.50653 13.06 8.50653 13.3333V14.6667C8.50653 14.94 8.27986 15.1667 8.00653 15.1667Z" fill="currentColor"/>
<path d="M5.33984 15.1667C5.06651 15.1667 4.83984 14.94 4.83984 14.6667V13.3333C4.83984 13.06 5.06651 12.8333 5.33984 12.8333C5.61317 12.8333 5.83984 13.06 5.83984 13.3333V14.6667C5.83984 14.94 5.61317 15.1667 5.33984 15.1667Z" fill="currentColor"/>
<path d="M2.66666 5.83334H1.33333C1.05999 5.83334 0.833328 5.61334 0.833328 5.33334C0.833328 5.05334 1.05999 4.83334 1.33333 4.83334H2.66666C2.93999 4.83334 3.16666 5.06001 3.16666 5.33334C3.16666 5.60668 2.94666 5.83334 2.66666 5.83334Z" fill="currentColor"/>
<path d="M2.66666 8.50001H1.33333C1.05999 8.50001 0.833328 8.27334 0.833328 8.00001C0.833328 7.72668 1.05999 7.50001 1.33333 7.50001H2.66666C2.93999 7.50001 3.16666 7.72668 3.16666 8.00001C3.16666 8.27334 2.94666 8.50001 2.66666 8.50001Z" fill="currentColor"/>
<path d="M2.66666 11.1667H1.33333C1.05999 11.1667 0.833328 10.94 0.833328 10.6667C0.833328 10.3933 1.05999 10.1667 1.33333 10.1667H2.66666C2.93999 10.1667 3.16666 10.3933 3.16666 10.6667C3.16666 10.94 2.94666 11.1667 2.66666 11.1667Z" fill="currentColor"/>
</g>
<defs>
<clipPath id="clip0_2_5190">
<rect width="16" height="16" fill="currentColor"/>
</clipPath>
</defs>
</svg>
