<svg width="16" height="16" viewBox="0 0 16 16" fill="none" xmlns="http://www.w3.org/2000/svg">
<g clip-path="url(#clip0_2_5416)">
<path d="M8.00001 15.1667C4.04668 15.1667 0.833344 11.9533 0.833344 8.00001C0.833344 4.04668 4.04668 0.833344 8.00001 0.833344C11.9533 0.833344 15.1667 4.04668 15.1667 8.00001C15.1667 11.9533 11.9533 15.1667 8.00001 15.1667ZM8.00001 1.83334C4.60001 1.83334 1.83334 4.60001 1.83334 8.00001C1.83334 11.4 4.60001 14.1667 8.00001 14.1667C11.4 14.1667 14.1667 11.4 14.1667 8.00001C14.1667 4.60001 11.4 1.83334 8.00001 1.83334Z" fill="currentColor"/>
<path d="M5.99407 10.4133C4.66074 10.4133 3.58074 9.33328 3.58074 7.99994C3.58074 6.6666 4.66074 5.5866 5.99407 5.5866C6.58074 5.5866 7.14074 5.79995 7.58741 6.18662C7.79408 6.36662 7.81408 6.68661 7.63408 6.89328C7.45408 7.09994 7.13408 7.11994 6.92741 6.93994C6.66741 6.71328 6.34074 6.5866 5.99407 6.5866C5.21407 6.5866 4.58074 7.21994 4.58074 7.99994C4.58074 8.77994 5.21407 9.41328 5.99407 9.41328C6.33407 9.41328 6.66741 9.28661 6.92741 9.05994C7.13408 8.87994 7.44741 8.89994 7.63408 9.10661C7.81408 9.31328 7.79408 9.63321 7.58741 9.81321C7.14074 10.1999 6.57407 10.4133 5.99407 10.4133Z" fill="currentColor"/>
<path d="M10.6607 10.4133C9.32741 10.4133 8.24741 9.33328 8.24741 7.99994C8.24741 6.6666 9.32741 5.5866 10.6607 5.5866C11.2474 5.5866 11.8074 5.79995 12.2541 6.18662C12.4607 6.36662 12.4807 6.68661 12.3007 6.89328C12.1207 7.09994 11.8007 7.11994 11.5941 6.93994C11.3341 6.71328 11.0074 6.5866 10.6607 6.5866C9.88074 6.5866 9.24741 7.21994 9.24741 7.99994C9.24741 8.77994 9.88074 9.41328 10.6607 9.41328C11.0007 9.41328 11.3341 9.28661 11.5941 9.05994C11.8007 8.87994 12.1141 8.89994 12.3007 9.10661C12.4807 9.31328 12.4607 9.63321 12.2541 9.81321C11.8074 10.1999 11.2407 10.4133 10.6607 10.4133Z" fill="currentColor"/>
</g>
<defs>
<clipPath id="clip0_2_5416">
<rect width="16" height="16" fill="currentColor"/>
</clipPath>
</defs>
</svg>
