<svg width="16" height="16" viewBox="0 0 16 16" fill="none" xmlns="http://www.w3.org/2000/svg">
<g clip-path="url(#clip0_2_4618)">
<path d="M12.6667 13.1667H6.60001C3.71334 13.1667 2.83334 12.2867 2.83334 9.40001V3.33334C2.83334 3.06001 3.06001 2.83334 3.33334 2.83334H9.40001C12.2867 2.83334 13.1667 3.71334 13.1667 6.60001V12.6667C13.1667 12.94 12.94 13.1667 12.6667 13.1667ZM3.83334 3.83334V9.40001C3.83334 11.7267 4.27334 12.1667 6.60001 12.1667H12.1667V6.60001C12.1667 4.27334 11.7267 3.83334 9.40001 3.83334H3.83334Z" fill="currentColor"/>
<path d="M3.33334 3.83334C3.06001 3.83334 2.83334 3.60668 2.83334 3.33334V1.33334C2.83334 1.06001 3.06001 0.833344 3.33334 0.833344C3.60668 0.833344 3.83334 1.06001 3.83334 1.33334V3.33334C3.83334 3.60668 3.60668 3.83334 3.33334 3.83334Z" fill="currentColor"/>
<path d="M3.33334 3.83334H1.33334C1.06001 3.83334 0.833344 3.60668 0.833344 3.33334C0.833344 3.06001 1.06001 2.83334 1.33334 2.83334H3.33334C3.60668 2.83334 3.83334 3.06001 3.83334 3.33334C3.83334 3.60668 3.60668 3.83334 3.33334 3.83334Z" fill="currentColor"/>
<path d="M12.6667 15.1667C12.3933 15.1667 12.1667 14.94 12.1667 14.6667V12.6667C12.1667 12.3933 12.3933 12.1667 12.6667 12.1667C12.94 12.1667 13.1667 12.3933 13.1667 12.6667V14.6667C13.1667 14.94 12.94 15.1667 12.6667 15.1667Z" fill="currentColor"/>
<path d="M14.6667 13.1667H12.6667C12.3933 13.1667 12.1667 12.94 12.1667 12.6667C12.1667 12.3933 12.3933 12.1667 12.6667 12.1667H14.6667C14.94 12.1667 15.1667 12.3933 15.1667 12.6667C15.1667 12.94 14.94 13.1667 14.6667 13.1667Z" fill="currentColor"/>
</g>
<defs>
<clipPath id="clip0_2_4618">
<rect width="16" height="16" fill="currentColor"/>
</clipPath>
</defs>
</svg>
