<svg width="16" height="16" viewBox="0 0 16 16" fill="none" xmlns="http://www.w3.org/2000/svg">
<g clip-path="url(#clip0_2_5078)">
<path d="M11.1336 13.1533H4.86695C4.37361 13.1533 3.87361 12.8 3.70695 12.34L0.946948 4.61331C0.60695 3.63998 0.853615 3.19331 1.12028 2.99331C1.38695 2.79331 1.88695 2.67331 2.72695 3.27331L5.32695 5.13331C5.40695 5.17998 5.48028 5.19998 5.53361 5.18664C5.59361 5.16664 5.64028 5.11331 5.67361 5.01998L6.84693 1.89331C7.20027 0.959977 7.72027 0.819977 8.00027 0.819977C8.28027 0.819977 8.80027 0.959977 9.1536 1.89331L10.3269 5.01998C10.3603 5.10664 10.4069 5.16664 10.4669 5.18664C10.5269 5.20664 10.6003 5.18664 10.6736 5.12664L13.1136 3.38664C14.0069 2.74664 14.5269 2.87331 14.8136 3.07998C15.0936 3.29331 15.3536 3.76664 14.9869 4.79998L12.2936 12.34C12.1269 12.8 11.6269 13.1533 11.1336 13.1533ZM1.78695 3.87331C1.80028 3.96664 1.82695 4.09998 1.89361 4.27331L4.65361 12C4.68028 12.0667 4.80028 12.1533 4.86695 12.1533H11.1336C11.2069 12.1533 11.3269 12.0667 11.3469 12L14.0403 4.46664C14.1336 4.21331 14.1603 4.03998 14.1669 3.93998C14.0669 3.97331 13.9136 4.04664 13.6936 4.20664L11.2536 5.94664C10.9203 6.17998 10.5269 6.25331 10.1736 6.14664C9.82027 6.03998 9.5336 5.75998 9.38694 5.37998L8.2136 2.25331C8.12694 2.01998 8.04693 1.90664 8.00027 1.85331C7.9536 1.90664 7.8736 2.01998 7.78693 2.24664L6.61361 5.37331C6.47361 5.75331 6.18695 6.03331 5.82695 6.13998C5.47362 6.24664 5.07362 6.17331 4.74695 5.93998L2.14695 4.07998C1.99361 3.97331 1.87361 3.90664 1.78695 3.87331Z" fill="currentColor"/>
<path d="M11.6667 15.1667H4.33333C4.06 15.1667 3.83333 14.94 3.83333 14.6667C3.83333 14.3933 4.06 14.1667 4.33333 14.1667H11.6667C11.94 14.1667 12.1667 14.3933 12.1667 14.6667C12.1667 14.94 11.94 15.1667 11.6667 15.1667Z" fill="currentColor"/>
<path d="M9.66667 9.83332H6.33333C6.06 9.83332 5.83333 9.60666 5.83333 9.33332C5.83333 9.05999 6.06 8.83332 6.33333 8.83332H9.66667C9.94 8.83332 10.1667 9.05999 10.1667 9.33332C10.1667 9.60666 9.94 9.83332 9.66667 9.83332Z" fill="currentColor"/>
</g>
<defs>
<clipPath id="clip0_2_5078">
<rect width="16" height="16" fill="currentColor"/>
</clipPath>
</defs>
</svg>
