<svg width="16" height="16" viewBox="0 0 16 16" fill="none" xmlns="http://www.w3.org/2000/svg">
<path d="M11.3333 14.0267H4.66668C2.55334 14.0267 0.833344 12.3067 0.833344 10.1934V3.80673C0.833344 2.94007 1.23334 2.64007 1.47334 2.54007C1.71334 2.44007 2.20668 2.36673 2.82001 2.98007L4.54668 4.70673C4.61334 4.7734 4.72001 4.7734 4.78001 4.70673L7.17334 2.3134C7.61334 1.8734 8.38668 1.8734 8.82001 2.3134L11.2133 4.70673C11.28 4.7734 11.3867 4.7734 11.4467 4.70673L13.1733 2.98007C13.7867 2.36673 14.28 2.44673 14.52 2.54007C14.76 2.64007 15.16 2.9334 15.16 3.80673V10.2001C15.1667 12.4867 13.6267 14.0267 11.3333 14.0267ZM1.87334 3.4934C1.85334 3.54673 1.83334 3.64673 1.83334 3.80673V10.2001C1.83334 11.7601 3.10668 13.0334 4.66668 13.0334H11.3333C13.0533 13.0334 14.1667 11.9201 14.1667 10.2001V3.80673C14.1667 3.64673 14.1467 3.5534 14.1267 3.50007C14.0733 3.52673 13.9933 3.58007 13.88 3.6934L12.1533 5.42007C11.7133 5.86007 10.94 5.86007 10.5067 5.42007L8.11334 3.02673C8.04668 2.96007 7.94001 2.96007 7.88001 3.02673L5.49334 5.4134C5.05334 5.8534 4.28001 5.8534 3.84668 5.4134L2.12001 3.68673C2.00668 3.5734 1.92001 3.52007 1.87334 3.4934Z" fill="currentColor"/>
</svg>
