<svg width="16" height="16" viewBox="0 0 16 16" fill="none" xmlns="http://www.w3.org/2000/svg">
<g clip-path="url(#clip0_2_5075)">
<path d="M8.10027 12.9C7.82693 12.9 7.60027 12.6733 7.60027 12.4V11C7.60027 10.7267 7.82693 10.5 8.10027 10.5C8.3736 10.5 8.60027 10.7267 8.60027 11V12.4C8.60027 12.6733 8.3736 12.9 8.10027 12.9Z" fill="currentColor"/>
<path d="M11.9336 15.1667H4.26693V14C4.26693 12.9867 5.08693 12.1667 6.10026 12.1667H10.1003C11.1136 12.1667 11.9336 12.9867 11.9336 14V15.1667ZM5.26693 14.1667H10.9336V14C10.9336 13.54 10.5603 13.1667 10.1003 13.1667H6.10026C5.64026 13.1667 5.26693 13.54 5.26693 14V14.1667Z" fill="currentColor"/>
<path d="M12.1003 15.1667H4.10026C3.82693 15.1667 3.60026 14.94 3.60026 14.6667C3.60026 14.3933 3.82693 14.1667 4.10026 14.1667H12.1003C12.3736 14.1667 12.6003 14.3933 12.6003 14.6667C12.6003 14.94 12.3736 15.1667 12.1003 15.1667Z" fill="currentColor"/>
<path d="M12.2871 8.29341C12.1471 8.29341 12.0071 8.23341 11.9071 8.12008C11.7805 7.97341 11.7471 7.76674 11.8271 7.59341C12.0538 7.07341 12.1671 6.52005 12.1671 5.94005V3.94005C12.1671 3.70672 12.1271 3.48005 12.0471 3.24005C12.0405 3.22005 12.0338 3.19338 12.0271 3.16672C12.0071 3.06672 12.0005 2.96672 12.0005 2.87338C12.0005 2.60005 12.2271 2.37338 12.5005 2.37338H12.9005C14.0938 2.37338 15.0671 3.37338 15.0671 4.60672C15.0671 5.62672 14.6471 6.63338 13.9205 7.36008C13.9071 7.37341 13.8671 7.40674 13.8605 7.41341C13.4671 7.74008 13.0205 8.10674 12.4205 8.27341C12.3738 8.28674 12.3338 8.29341 12.2871 8.29341ZM13.1205 3.39338C13.1538 3.57338 13.1671 3.76005 13.1671 3.94005V5.94005C13.1671 6.21338 13.1471 6.47338 13.1071 6.74008C13.1471 6.70674 13.1805 6.68008 13.2205 6.64672C13.7538 6.11338 14.0671 5.36672 14.0671 4.60672C14.0671 4.00672 13.6605 3.50005 13.1205 3.39338Z" fill="currentColor"/>
<path d="M3.72026 8.26674C3.66693 8.26674 3.62026 8.26008 3.56693 8.24008C3.02026 8.06674 2.50693 7.74674 2.08026 7.32008C1.31359 6.47341 0.933594 5.54674 0.933594 4.56674C0.933594 3.35341 1.88693 2.40008 3.10026 2.40008H3.53359C3.70026 2.40008 3.86026 2.48674 3.95359 2.62674C4.04693 2.76674 4.06026 2.94674 3.99359 3.10008C3.88693 3.34008 3.83359 3.61341 3.83359 3.90008V5.90008C3.83359 6.47341 3.94693 7.03341 4.18026 7.56674C4.26026 7.74674 4.22026 7.95341 4.09359 8.10008C3.99359 8.20674 3.86026 8.26674 3.72026 8.26674ZM2.86693 3.42008C2.32693 3.52674 1.93359 3.99341 1.93359 4.56674C1.93359 5.29341 2.22693 5.99341 2.80693 6.63341C2.83359 6.66674 2.86693 6.69341 2.90026 6.72008C2.85359 6.44674 2.83359 6.17341 2.83359 5.90008V3.90008C2.83359 3.74008 2.84693 3.58008 2.86693 3.42008Z" fill="currentColor"/>
<path d="M8 11.1667C5.15333 11.1667 2.83333 8.84668 2.83333 6.00001V4.00001C2.83333 2.25334 4.25333 0.833344 6 0.833344H10C11.7467 0.833344 13.1667 2.25334 13.1667 4.00001V6.00001C13.1667 8.84668 10.8467 11.1667 8 11.1667ZM6 1.83334C4.80667 1.83334 3.83333 2.80668 3.83333 4.00001V6.00001C3.83333 8.30001 5.7 10.1667 8 10.1667C10.3 10.1667 12.1667 8.30001 12.1667 6.00001V4.00001C12.1667 2.80668 11.1933 1.83334 10 1.83334H6Z" fill="currentColor"/>
</g>
<defs>
<clipPath id="clip0_2_5075">
<rect width="16" height="16" fill="currentColor"/>
</clipPath>
</defs>
</svg>
