<svg width="16" height="16" viewBox="0 0 16 16" fill="none" xmlns="http://www.w3.org/2000/svg">
<path d="M8.00001 9.83332C7.72668 9.83332 7.50001 9.60665 7.50001 9.33332V5.99999C7.50001 5.72666 7.72668 5.49999 8.00001 5.49999C8.27334 5.49999 8.50001 5.72666 8.50001 5.99999V9.33332C8.50001 9.60665 8.27334 9.83332 8.00001 9.83332Z" fill="currentColor"/>
<path d="M8.00001 12.0001C7.96001 12.0001 7.91335 11.9934 7.86668 11.9867C7.82668 11.9801 7.78668 11.9667 7.74668 11.9467C7.70668 11.9334 7.66668 11.9134 7.62668 11.8867C7.59334 11.8601 7.56001 11.8334 7.52668 11.8067C7.40668 11.6801 7.33334 11.5067 7.33334 11.3334C7.33334 11.1601 7.40668 10.9867 7.52668 10.8601C7.56001 10.8334 7.59334 10.8067 7.62668 10.7801C7.66668 10.7534 7.70668 10.7334 7.74668 10.7201C7.78668 10.7001 7.82668 10.6867 7.86668 10.6801C7.95335 10.6601 8.04668 10.6601 8.12668 10.6801C8.17334 10.6867 8.21335 10.7001 8.25335 10.7201C8.29334 10.7334 8.33335 10.7534 8.37335 10.7801C8.40668 10.8067 8.44001 10.8334 8.47334 10.8601C8.59335 10.9867 8.66668 11.1601 8.66668 11.3334C8.66668 11.5067 8.59335 11.6801 8.47334 11.8067C8.44001 11.8334 8.40668 11.8601 8.37335 11.8867C8.33335 11.9134 8.29334 11.9334 8.25335 11.9467C8.21335 11.9667 8.17334 11.9801 8.12668 11.9867C8.08668 11.9934 8.04001 12.0001 8.00001 12.0001Z" fill="currentColor"/>
<path d="M12.0403 14.7734H3.96032C2.66032 14.7734 1.66699 14.3001 1.16032 13.4467C0.660321 12.5934 0.726985 11.4934 1.36032 10.3534L5.40032 3.08672C6.06699 1.88672 6.98701 1.22672 8.00035 1.22672C9.01368 1.22672 9.93368 1.88672 10.6003 3.08672L14.6403 10.3601C15.2737 11.5001 15.347 12.5934 14.8403 13.4534C14.3337 14.3001 13.3403 14.7734 12.0403 14.7734ZM8.00035 2.22672C7.37368 2.22672 6.76035 2.70671 6.27365 3.57338L2.24032 10.8467C1.78699 11.6601 1.71365 12.4067 2.02699 12.9467C2.34032 13.4867 3.03365 13.7801 3.96699 13.7801H12.047C12.9803 13.7801 13.667 13.4867 13.987 12.9467C14.307 12.4067 14.227 11.6667 13.7737 10.8467L9.72701 3.57338C9.24035 2.70671 8.62701 2.22672 8.00035 2.22672Z" fill="currentColor"/>
</svg>
