<svg width="16" height="16" viewBox="0 0 16 16" fill="none" xmlns="http://www.w3.org/2000/svg">
<g clip-path="url(#clip0_2_4601)">
<path d="M13.3333 9.83334C12.32 9.83334 11.5 9.01334 11.5 8.00001C11.5 6.98668 12.32 6.16668 13.3333 6.16668C14.3467 6.16668 15.1667 6.98668 15.1667 8.00001C15.1667 9.01334 14.3467 9.83334 13.3333 9.83334ZM13.3333 7.16668C12.8733 7.16668 12.5 7.54001 12.5 8.00001C12.5 8.46001 12.8733 8.83334 13.3333 8.83334C13.7933 8.83334 14.1667 8.46001 14.1667 8.00001C14.1667 7.54001 13.7933 7.16668 13.3333 7.16668Z" fill="currentColor"/>
<path d="M13.3333 4.50001C12.32 4.50001 11.5 3.68001 11.5 2.66668C11.5 1.65334 12.32 0.833344 13.3333 0.833344C14.3467 0.833344 15.1667 1.65334 15.1667 2.66668C15.1667 3.68001 14.3467 4.50001 13.3333 4.50001ZM13.3333 1.83334C12.8733 1.83334 12.5 2.20668 12.5 2.66668C12.5 3.12668 12.8733 3.50001 13.3333 3.50001C13.7933 3.50001 14.1667 3.12668 14.1667 2.66668C14.1667 2.20668 13.7933 1.83334 13.3333 1.83334Z" fill="currentColor"/>
<path d="M13.3333 15.1667C12.32 15.1667 11.5 14.3467 11.5 13.3333C11.5 12.32 12.32 11.5 13.3333 11.5C14.3467 11.5 15.1667 12.32 15.1667 13.3333C15.1667 14.3467 14.3467 15.1667 13.3333 15.1667ZM13.3333 12.5C12.8733 12.5 12.5 12.8733 12.5 13.3333C12.5 13.7933 12.8733 14.1667 13.3333 14.1667C13.7933 14.1667 14.1667 13.7933 14.1667 13.3333C14.1667 12.8733 13.7933 12.5 13.3333 12.5Z" fill="currentColor"/>
<path d="M2.66668 9.83334C1.65334 9.83334 0.833344 9.01334 0.833344 8.00001C0.833344 6.98668 1.65334 6.16668 2.66668 6.16668C3.68001 6.16668 4.50001 6.98668 4.50001 8.00001C4.50001 9.01334 3.68001 9.83334 2.66668 9.83334ZM2.66668 7.16668C2.20668 7.16668 1.83334 7.54001 1.83334 8.00001C1.83334 8.46001 2.20668 8.83334 2.66668 8.83334C3.12668 8.83334 3.50001 8.46001 3.50001 8.00001C3.50001 7.54001 3.12668 7.16668 2.66668 7.16668Z" fill="currentColor"/>
<path d="M12 8.50001H4.00001C3.72668 8.50001 3.50001 8.27334 3.50001 8.00001C3.50001 7.72668 3.72668 7.50001 4.00001 7.50001H12C12.2733 7.50001 12.5 7.72668 12.5 8.00001C12.5 8.27334 12.2733 8.50001 12 8.50001Z" fill="currentColor"/>
<path d="M12 13.8333H9.33334C7.72001 13.8333 6.83334 12.9467 6.83334 11.3333V4.66668C6.83334 3.05334 7.72001 2.16668 9.33334 2.16668H12C12.2733 2.16668 12.5 2.39334 12.5 2.66668C12.5 2.94001 12.2733 3.16668 12 3.16668H9.33334C8.28001 3.16668 7.83334 3.61334 7.83334 4.66668V11.3333C7.83334 12.3867 8.28001 12.8333 9.33334 12.8333H12C12.2733 12.8333 12.5 13.06 12.5 13.3333C12.5 13.6067 12.2733 13.8333 12 13.8333Z" fill="currentColor"/>
</g>
<defs>
<clipPath id="clip0_2_4601">
<rect width="16" height="16" fill="currentColor"/>
</clipPath>
</defs>
</svg>
