<svg width="16" height="16" viewBox="0 0 16 16" fill="none" xmlns="http://www.w3.org/2000/svg">
<g clip-path="url(#clip0_2_5121)">
<path d="M4.66665 5.83334H2.66665C1.65331 5.83334 0.833313 5.01334 0.833313 4.00001V2.66668C0.833313 1.65334 1.65331 0.833344 2.66665 0.833344H4.66665C5.67998 0.833344 6.49998 1.65334 6.49998 2.66668V4.00001C6.49998 5.01334 5.67998 5.83334 4.66665 5.83334ZM2.66665 1.83334C2.20665 1.83334 1.83331 2.20668 1.83331 2.66668V4.00001C1.83331 4.46001 2.20665 4.83334 2.66665 4.83334H4.66665C5.12665 4.83334 5.49998 4.46001 5.49998 4.00001V2.66668C5.49998 2.20668 5.12665 1.83334 4.66665 1.83334H2.66665Z" fill="currentColor"/>
<path d="M13.8666 5.16668H11.4666C10.7466 5.16668 10.1666 4.58 10.1666 3.86667V2.80002C10.1666 2.08002 10.7533 1.50001 11.4666 1.50001H13.8666C14.5866 1.50001 15.1666 2.08668 15.1666 2.80002V3.86667C15.1666 4.58667 14.5866 5.16668 13.8666 5.16668ZM11.4666 2.50001C11.3066 2.50001 11.1666 2.64002 11.1666 2.80002V3.86667C11.1666 4.02667 11.3066 4.16668 11.4666 4.16668H13.8666C14.0266 4.16668 14.1666 4.02667 14.1666 3.86667V2.80002C14.1666 2.64002 14.0266 2.50001 13.8666 2.50001H11.4666Z" fill="currentColor"/>
<path d="M13.8666 10.1667H11.4666C10.7466 10.1667 10.1666 9.58001 10.1666 8.86668V7.80001C10.1666 7.08001 10.7533 6.50001 11.4666 6.50001H13.8666C14.5866 6.50001 15.1666 7.08668 15.1666 7.80001V8.86668C15.1666 9.58668 14.5866 10.1667 13.8666 10.1667ZM11.4666 7.50001C11.3066 7.50001 11.1666 7.64001 11.1666 7.80001V8.86668C11.1666 9.02668 11.3066 9.16668 11.4666 9.16668H13.8666C14.0266 9.16668 14.1666 9.02668 14.1666 8.86668V7.80001C14.1666 7.64001 14.0266 7.50001 13.8666 7.50001H11.4666Z" fill="currentColor"/>
<path d="M10.6666 3.83334H5.99998C5.72665 3.83334 5.49998 3.60668 5.49998 3.33334C5.49998 3.06001 5.72665 2.83334 5.99998 2.83334H10.6666C10.94 2.83334 11.1666 3.06001 11.1666 3.33334C11.1666 3.60668 10.94 3.83334 10.6666 3.83334Z" fill="currentColor"/>
<path d="M10.6666 13.8333H9.66665C8.65331 13.8333 7.83331 13.0133 7.83331 12V3.33334C7.83331 3.06001 8.05998 2.83334 8.33331 2.83334C8.60665 2.83334 8.83331 3.06001 8.83331 3.33334V12C8.83331 12.46 9.20665 12.8333 9.66665 12.8333H10.6666C10.94 12.8333 11.1666 13.06 11.1666 13.3333C11.1666 13.6067 10.94 13.8333 10.6666 13.8333Z" fill="currentColor"/>
<path d="M10.6666 8.83334H8.33331C8.05998 8.83334 7.83331 8.60668 7.83331 8.33334C7.83331 8.06001 8.05998 7.83334 8.33331 7.83334H10.6666C10.94 7.83334 11.1666 8.06001 11.1666 8.33334C11.1666 8.60668 10.94 8.83334 10.6666 8.83334Z" fill="currentColor"/>
<path d="M13.8666 15.1667H11.4666C10.7466 15.1667 10.1666 14.58 10.1666 13.8667V12.8C10.1666 12.08 10.7533 11.5 11.4666 11.5H13.8666C14.5866 11.5 15.1666 12.0867 15.1666 12.8V13.8667C15.1666 14.5867 14.5866 15.1667 13.8666 15.1667ZM11.4666 12.5C11.3066 12.5 11.1666 12.64 11.1666 12.8V13.8667C11.1666 14.0267 11.3066 14.1667 11.4666 14.1667H13.8666C14.0266 14.1667 14.1666 14.0267 14.1666 13.8667V12.8C14.1666 12.64 14.0266 12.5 13.8666 12.5H11.4666Z" fill="currentColor"/>
</g>
<defs>
<clipPath id="clip0_2_5121">
<rect width="16" height="16" fill="currentColor"/>
</clipPath>
</defs>
</svg>
