<svg width="16" height="16" viewBox="0 0 16 16" fill="none" xmlns="http://www.w3.org/2000/svg">
<g clip-path="url(#clip0_2_5069)">
<path d="M6.95327 12.2466C6.85327 12.2466 6.75993 12.2199 6.67327 12.1599C6.53327 12.0666 6.45327 11.9133 6.45327 11.7466C6.45327 11.6466 6.44661 11.5399 6.43327 11.4333C6.37327 10.9599 6.15994 10.5466 5.79994 10.1866C5.43994 9.82659 4.99327 9.59993 4.51327 9.53992C4.43327 9.53326 4.31994 9.52659 4.21327 9.53326C4.03994 9.54659 3.87994 9.47326 3.77994 9.33326C3.67994 9.19992 3.65327 9.01992 3.70661 8.85992C3.80661 8.58659 3.95327 8.33992 4.12661 8.13992L5.15327 6.84659C6.91993 4.63994 10.4999 1.9866 13.1199 0.933271C13.6799 0.719938 14.2666 0.846604 14.6733 1.2466C15.0933 1.6666 15.2199 2.2666 14.9999 2.81327C13.9466 5.43994 11.2999 9.01326 9.09327 10.7799L7.77993 11.8333C7.53327 12.0133 7.33327 12.1266 7.13327 12.2066C7.07993 12.2333 7.01327 12.2466 6.95327 12.2466ZM5.02661 8.62659C5.58661 8.77326 6.08661 9.06659 6.50661 9.48659C6.9266 9.89993 7.2066 10.3799 7.3466 10.9133L8.47327 10.0066C10.5666 8.33326 13.0799 4.93994 14.0733 2.4466C14.1733 2.19994 14.0333 2.0266 13.9666 1.9666C13.9199 1.91994 13.7466 1.77327 13.4799 1.87327C10.9999 2.87327 7.6066 5.3866 5.92661 7.47992L5.02661 8.62659Z" fill="currentColor"/>
<path d="M2.71959 15.1667C2.21959 15.1667 1.73959 14.9667 1.37959 14.6067C0.966252 14.1934 0.766252 13.6201 0.832919 13.0334L1.01292 11.3934C1.18625 9.76672 2.51959 8.56006 4.17292 8.52672C4.29959 8.52006 4.46625 8.52672 4.61959 8.54006C5.34625 8.63339 5.99292 8.96006 6.51292 9.48006C7.02627 9.99339 7.33293 10.6067 7.42627 11.2934C7.44627 11.4401 7.4596 11.6001 7.4596 11.7401C7.4596 12.6201 7.1196 13.4401 6.50625 14.0601C5.99292 14.5667 5.33292 14.8801 4.58625 14.9734L2.93959 15.1534C2.86625 15.1601 2.79292 15.1667 2.71959 15.1667ZM4.29959 9.53339C4.27292 9.53339 4.23994 9.53326 4.21327 9.53326C3.20661 9.55326 2.13959 10.2401 2.00625 11.5067L1.82625 13.1467C1.79292 13.4267 1.89292 13.7001 2.08625 13.9001C2.27959 14.0934 2.55292 14.1934 2.82625 14.1601L4.46625 13.9801C4.97959 13.9134 5.43959 13.7001 5.78625 13.3534C6.21292 12.9267 6.45292 12.3534 6.45292 11.7401C6.45292 11.6401 6.44625 11.5334 6.43292 11.4267C6.37292 10.9534 6.15959 10.5401 5.79959 10.1801C5.43959 9.82006 4.99292 9.59339 4.51292 9.53339C4.45959 9.53339 4.37959 9.53339 4.29959 9.53339Z" fill="currentColor"/>
<path d="M9.4932 10.1468C9.21987 10.1468 8.9932 9.92012 8.9932 9.64679C8.9932 8.18012 7.79987 6.99346 6.33985 6.99346C6.06651 6.99346 5.83985 6.76679 5.83985 6.49348C5.83985 6.22014 6.05985 5.99348 6.33318 5.99348C8.34653 5.99348 9.98653 7.63346 9.98653 9.64679C9.9932 9.92679 9.76653 10.1468 9.4932 10.1468Z" fill="currentColor"/>
<path d="M10.4536 15.1535C9.8336 15.1535 9.2136 14.8601 8.62027 14.2668C8.42693 14.0735 8.42693 13.7535 8.62027 13.5601C8.8136 13.3668 9.1336 13.3668 9.32693 13.5601C10.1136 14.3468 10.7869 14.3468 11.5736 13.5601L13.5469 11.5868C14.3403 10.7935 14.3403 10.1201 13.5469 9.33346L13.0536 8.84679C12.8603 8.65346 12.8536 8.33346 13.0469 8.14012C13.2403 7.94012 13.5603 7.94012 13.7536 8.13346L14.2469 8.62012C15.4336 9.80679 15.4336 11.1068 14.2469 12.2935L12.2736 14.2668C11.6936 14.8535 11.0736 15.1535 10.4536 15.1535Z" fill="currentColor"/>
<path d="M2.07318 7.50652C1.94651 7.50652 1.81318 7.45986 1.71985 7.35986C0.546509 6.17984 0.546509 4.87317 1.71985 3.69317L3.69318 1.71984C4.86651 0.546502 6.18651 0.546502 7.35987 1.71984L7.8532 2.21317C8.04653 2.4065 8.04653 2.7265 7.8532 2.91984C7.65987 3.11317 7.33987 3.11317 7.14653 2.91984L6.64651 2.4265C5.85985 1.63984 5.17985 1.63984 4.39985 2.4265L2.42651 4.39984C1.63985 5.19317 1.63985 5.8665 2.42651 6.65984C2.61985 6.85319 2.61985 7.17319 2.42651 7.36652C2.32651 7.45986 2.19985 7.50652 2.07318 7.50652Z" fill="currentColor"/>
<path d="M5.03349 5.53335C4.90682 5.53335 4.78015 5.48668 4.68015 5.38668C4.48682 5.19335 4.48682 4.87335 4.68015 4.68002L7.1468 2.21335C7.34013 2.02002 7.65987 2.01984 7.8532 2.21317C8.04653 2.4065 8.04653 2.7265 7.8532 2.91984L5.38682 5.38668C5.28682 5.48668 5.16015 5.53335 5.03349 5.53335Z" fill="currentColor"/>
<path d="M11.4397 10.9535C11.3131 10.9535 11.1864 10.9068 11.0864 10.8068C10.8931 10.6135 10.8931 10.2935 11.0864 10.1001L13.0597 8.12679C13.2531 7.93346 13.5731 7.93346 13.7664 8.12679C13.9597 8.32012 13.9597 8.64012 13.7664 8.83346L11.7931 10.8068C11.6997 10.9068 11.5731 10.9535 11.4397 10.9535Z" fill="currentColor"/>
</g>
<defs>
<clipPath id="clip0_2_5069">
<rect width="16" height="16" fill="currentColor"/>
</clipPath>
</defs>
</svg>
