<svg width="16" height="16" viewBox="0 0 16 16" fill="none" xmlns="http://www.w3.org/2000/svg">
<g clip-path="url(#clip0_2_5067)">
<path d="M10.3333 12.7667H4.33331C2.10665 12.7667 0.833313 11.4933 0.833313 9.26668V5.66668C0.833313 3.44001 2.10665 2.16668 4.33331 2.16668H6.13331C6.29331 2.16668 6.44665 2.24672 6.53998 2.37338C6.63331 2.50005 6.65998 2.67334 6.60665 2.82667C6.53331 3.03334 6.49998 3.26001 6.49998 3.50001V6.10002C6.49998 6.60669 6.65331 7.02668 6.94665 7.32001C7.23998 7.61334 7.65998 7.76668 8.16665 7.76668C8.43998 7.76668 8.66665 7.99334 8.66665 8.26668V9.06668L10.4866 7.84668C10.5666 7.79334 10.6666 7.76001 10.7666 7.76001H12.5C12.74 7.76001 12.9666 7.72668 13.1733 7.65334C13.3266 7.60001 13.4933 7.62668 13.6266 7.72001C13.76 7.81334 13.8333 7.96661 13.8333 8.12661V9.26001C13.8333 11.4933 12.56 12.7667 10.3333 12.7667ZM4.33331 3.16668C2.65331 3.16668 1.83331 3.98668 1.83331 5.66668V9.26668C1.83331 10.9467 2.65331 11.7667 4.33331 11.7667H10.3333C12.0133 11.7667 12.8333 10.9467 12.8333 9.26668V8.74668C12.7266 8.76001 12.6133 8.76668 12.5 8.76668H10.92L9.11998 9.96668C8.82665 10.1533 8.45998 10.1733 8.15998 10.0067C7.85998 9.84668 7.67331 9.53334 7.67331 9.19334V8.72668C7.11331 8.64001 6.61998 8.39334 6.24665 8.02668C5.77331 7.55334 5.50665 6.86668 5.50665 6.10002V3.50001C5.50665 3.38668 5.51331 3.27334 5.51998 3.16668H4.33331Z" fill="currentColor"/>
<path d="M8.59998 10.1201C8.44665 10.1201 8.29331 10.08 8.15331 10.0067C7.85331 9.84668 7.66665 9.53334 7.66665 9.19334V8.72668C7.10665 8.64001 6.61331 8.39334 6.23998 8.02668C5.76665 7.55334 5.49998 6.86668 5.49998 6.10002V3.50001C5.49998 3.14668 5.55331 2.81335 5.65998 2.50668C6.03331 1.46002 6.96665 0.833344 8.16665 0.833344H12.5C14.0666 0.833344 15.1666 1.92668 15.1666 3.50001V6.10002C15.1666 7.30001 14.5466 8.23334 13.5 8.60668C13.18 8.71334 12.8466 8.76668 12.5 8.76668H10.92L9.11998 9.96668C8.95998 10.0733 8.77998 10.1201 8.59998 10.1201ZM8.16665 1.83334C7.39998 1.83334 6.83331 2.20001 6.60665 2.83334C6.53998 3.03334 6.49998 3.26001 6.49998 3.50001V6.10002C6.49998 6.60669 6.65331 7.02668 6.94665 7.32001C7.23998 7.61334 7.65998 7.76668 8.16665 7.76668C8.43998 7.76668 8.66665 7.99334 8.66665 8.26668V9.06668L10.4866 7.84668C10.5666 7.79334 10.6666 7.76001 10.7666 7.76001H12.5C12.74 7.76001 12.9666 7.72668 13.1733 7.65334C13.8066 7.42668 14.1666 6.86001 14.1666 6.09335V3.49334C14.1666 2.46667 13.5266 1.82667 12.5 1.82667H8.16665V1.83334Z" fill="currentColor"/>
<path d="M9.73358 15.1667H4.93357C4.66024 15.1667 4.43357 14.94 4.43357 14.6667C4.43357 14.3933 4.66024 14.1667 4.93357 14.1667H9.73358C10.0069 14.1667 10.2336 14.3933 10.2336 14.6667C10.2336 14.94 10.0069 15.1667 9.73358 15.1667Z" fill="currentColor"/>
<path d="M7.33331 15.1666C7.05998 15.1666 6.83331 14.9399 6.83331 14.6666V12.2666C6.83331 11.9933 7.05998 11.7666 7.33331 11.7666C7.60665 11.7666 7.83331 11.9933 7.83331 12.2666V14.6666C7.83331 14.9399 7.60665 15.1666 7.33331 15.1666Z" fill="currentColor"/>
<path d="M10.293 5.33334C10.013 5.33334 9.79298 5.10668 9.79298 4.83334C9.79298 4.56001 10.0196 4.33334 10.293 4.33334C10.5663 4.33334 10.793 4.56001 10.793 4.83334C10.793 5.10668 10.5663 5.33334 10.293 5.33334Z" fill="currentColor"/>
<path d="M12.1666 5.33334C11.8866 5.33334 11.6666 5.10668 11.6666 4.83334C11.6666 4.56001 11.8933 4.33334 12.1666 4.33334C12.44 4.33334 12.6666 4.56001 12.6666 4.83334C12.6666 5.10668 12.44 5.33334 12.1666 5.33334Z" fill="currentColor"/>
<path d="M8.41405 5.33334C8.13405 5.33334 7.91405 5.10668 7.91405 4.83334C7.91405 4.56001 8.14071 4.33334 8.41405 4.33334C8.68738 4.33334 8.91405 4.56001 8.91405 4.83334C8.91405 5.10668 8.69405 5.33334 8.41405 5.33334Z" fill="currentColor"/>
</g>
<defs>
<clipPath id="clip0_2_5067">
<rect width="16" height="16" fill="currentColor"/>
</clipPath>
</defs>
</svg>
