<svg width="16" height="16" viewBox="0 0 16 16" fill="none" xmlns="http://www.w3.org/2000/svg">
<path d="M8.00056 12.9467C6.97389 12.9467 5.94721 12.5534 5.16721 11.7734C3.60054 10.2067 3.60054 7.66673 5.16721 6.10009C5.92721 5.34009 6.93389 4.92675 8.00056 4.92675C9.06722 4.92675 10.0806 5.34676 10.8339 6.10009C12.4006 7.66673 12.4006 10.2067 10.8339 11.7734C10.0539 12.5534 9.02722 12.9467 8.00056 12.9467ZM8.00056 5.93343C7.20056 5.93343 6.44054 6.24672 5.87388 6.81339C4.70054 7.98673 4.70054 9.89339 5.87388 11.0667C7.04722 12.2401 8.95389 12.2334 10.1272 11.0667C11.3006 9.89339 11.3006 7.98673 10.1272 6.81339C9.56056 6.24672 8.80056 5.93343 8.00056 5.93343Z" fill="currentColor"/>
<path d="M6.93976 10.4999C6.81309 10.4999 6.67976 10.4533 6.58643 10.3533C6.3931 10.1599 6.3931 9.83992 6.58643 9.63993L7.64642 8.57986C7.83976 8.38653 8.15976 8.38653 8.35976 8.57986C8.55309 8.77319 8.55309 9.09326 8.35976 9.29326L7.29976 10.3533C7.19309 10.4533 7.06642 10.4999 6.93976 10.4999Z" fill="currentColor"/>
<path d="M12.5273 5.00667C12.3673 5.00667 12.2206 4.94666 12.1073 4.83333C11.874 4.59999 11.874 4.21999 12.1073 3.99332C12.2206 3.87999 12.3673 3.81998 12.5273 3.81998C12.6873 3.81998 12.834 3.87999 12.9473 3.99332C13.0606 4.10665 13.1206 4.25333 13.1206 4.41333C13.1206 4.57333 13.0606 4.71999 12.9473 4.83333C12.8406 4.94666 12.6873 5.00667 12.5273 5.00667ZM12.4806 4.35998V4.45999C12.494 4.47333 12.514 4.47997 12.534 4.47997C12.614 4.43331 12.614 4.38665 12.5806 4.35998H12.4806Z" fill="currentColor"/>
<path d="M12.527 5.17317C12.3203 5.17317 12.1336 5.09315 11.987 4.94649C11.6936 4.65315 11.6936 4.16649 11.987 3.86649C12.1336 3.71982 12.3203 3.64648 12.527 3.64648C12.7336 3.64648 12.9203 3.72649 13.067 3.87316C13.2136 4.01983 13.287 4.20649 13.287 4.41316C13.287 4.61983 13.207 4.80649 13.0603 4.95316C12.927 5.09316 12.7336 5.17317 12.527 5.17317ZM12.3603 4.57983C12.407 4.62649 12.467 4.64648 12.527 4.64648C12.587 4.64648 12.647 4.61983 12.6936 4.57983C12.787 4.48649 12.787 4.33983 12.6936 4.24649C12.607 4.15983 12.447 4.15983 12.3603 4.24649C12.3203 4.28649 12.2936 4.34649 12.2936 4.41316C12.2936 4.47316 12.3136 4.53316 12.3603 4.57983Z" fill="currentColor"/>
<path d="M3.47356 14.0601C3.32022 14.0601 3.16688 14.0001 3.05355 13.8867C2.94022 13.7734 2.88023 13.6201 2.88023 13.4667C2.88023 13.3067 2.94022 13.1601 3.05355 13.0467C3.16688 12.9334 3.31356 12.8734 3.47356 12.8734C3.63356 12.8734 3.78022 12.9334 3.89356 13.0467C4.12689 13.2801 4.12689 13.6601 3.89356 13.8867C3.78022 14.0001 3.62689 14.0601 3.47356 14.0601ZM3.46023 13.4C3.4469 13.4 3.43356 13.4067 3.42023 13.4201C3.39356 13.4467 3.39356 13.4934 3.42023 13.5201C3.43356 13.5334 3.45357 13.5401 3.4669 13.5401L3.53355 13.4734C3.51355 13.4134 3.4869 13.4 3.46023 13.4Z" fill="currentColor"/>
<path d="M3.47372 14.2267C3.28038 14.2267 3.08038 14.1534 2.93372 14.0067C2.78705 13.8601 2.70706 13.6667 2.70706 13.4667C2.70706 13.2601 2.78705 13.0734 2.93372 12.9267C3.07372 12.7867 3.26705 12.7067 3.47372 12.7067C3.68038 12.7067 3.86705 12.7867 4.01372 12.9334C4.31372 13.2334 4.31372 13.7134 4.01372 14.0134C3.86705 14.1534 3.66705 14.2267 3.47372 14.2267ZM3.47372 13.2267C3.41372 13.2267 3.35372 13.2467 3.30705 13.2934C3.21372 13.3867 3.21372 13.5334 3.30705 13.6267C3.35372 13.6734 3.41372 13.6933 3.47372 13.6933C3.53372 13.6933 3.60038 13.6667 3.64038 13.6201C3.68038 13.5801 3.70706 13.5201 3.70706 13.4534C3.70706 13.3934 3.68038 13.3267 3.64038 13.2867C3.59372 13.2534 3.53372 13.2267 3.47372 13.2267Z" fill="currentColor"/>
<path d="M14.3997 9.53312C14.2464 9.53312 14.093 9.47312 13.9797 9.35979C13.7464 9.12646 13.7464 8.74653 13.9797 8.51319C14.093 8.39986 14.2464 8.37319 14.3997 8.33986C14.5597 8.33986 14.7064 8.39986 14.8197 8.51319C15.053 8.74653 15.053 9.12646 14.8197 9.35979C14.7064 9.47312 14.553 9.53312 14.3997 9.53312ZM14.353 8.98646C14.3664 8.99979 14.3864 9.00653 14.4064 9.00653C14.4797 8.95986 14.4797 8.91319 14.453 8.88653C14.4264 8.85986 14.3797 8.85986 14.353 8.88653C14.3264 8.91319 14.3264 8.95979 14.353 8.98646Z" fill="currentColor"/>
<path d="M14.4004 9.69979C14.2071 9.69979 14.0071 9.62646 13.8604 9.47979C13.5604 9.17979 13.5604 8.69979 13.8604 8.39979C14.0071 8.25313 14.1938 8.17319 14.4004 8.17319C14.6071 8.17319 14.7938 8.25313 14.9404 8.39979C15.2404 8.69979 15.2404 9.17979 14.9404 9.47979C14.7938 9.62646 14.6004 9.69979 14.4004 9.69979ZM14.2338 9.10646C14.2804 9.15313 14.3404 9.17319 14.4004 9.17319C14.4604 9.17319 14.5204 9.14646 14.5671 9.10646C14.6604 9.01313 14.6604 8.86646 14.5671 8.77313C14.4738 8.67979 14.3271 8.67979 14.2338 8.77313C14.1471 8.85979 14.1404 9.01313 14.2338 9.10646Z" fill="currentColor"/>
<path d="M1.60024 9.53352C1.4469 9.53352 1.29356 9.47353 1.18023 9.36019C0.946896 9.12686 0.946896 8.74686 1.18023 8.51353C1.41356 8.28019 1.79358 8.28019 2.02691 8.51353C2.26024 8.74686 2.26024 9.12686 2.02691 9.36019C1.90024 9.47353 1.7469 9.53352 1.60024 9.53352ZM1.54691 8.98686C1.57358 9.01353 1.62024 9.01353 1.6469 8.98686C1.67357 8.96019 1.67357 8.91353 1.6469 8.88686C1.62024 8.86019 1.57358 8.86019 1.54691 8.88686C1.52024 8.91353 1.52024 8.96019 1.54691 8.98686Z" fill="currentColor"/>
<path d="M1.59966 9.69993C1.40632 9.69993 1.20632 9.62659 1.05966 9.47993C0.759656 9.17993 0.759656 8.69993 1.05966 8.39993C1.35966 8.09993 1.84632 8.10659 2.13966 8.39993C2.43966 8.69993 2.43966 9.17993 2.13966 9.47993C1.98632 9.62659 1.79299 9.69993 1.59966 9.69993ZM1.42634 9.10659C1.51967 9.19992 1.66634 9.19992 1.75967 9.10659C1.853 9.01326 1.853 8.85993 1.75967 8.77326C1.66634 8.67992 1.51967 8.67992 1.42634 8.77326C1.33967 8.85993 1.33967 9.01326 1.42634 9.10659Z" fill="currentColor"/>
<path d="M12.5273 14.0599C12.374 14.0599 12.2206 13.9999 12.1073 13.8866C11.874 13.6533 11.874 13.2733 12.1073 13.0399C12.3406 12.8066 12.7206 12.8066 12.954 13.0399C13.0673 13.1533 13.1273 13.2999 13.1273 13.4599C13.1273 13.6199 13.0673 13.7666 12.954 13.8799C12.834 13.9999 12.6806 14.0599 12.5273 14.0599ZM12.5273 13.3933C12.5073 13.3933 12.494 13.3999 12.4806 13.4133V13.5133C12.5073 13.5399 12.554 13.5399 12.5806 13.5133C12.6073 13.4866 12.6073 13.4399 12.5806 13.4133C12.5606 13.3999 12.5473 13.3933 12.5273 13.3933Z" fill="currentColor"/>
<path d="M12.5268 14.2268C12.3334 14.2268 12.1334 14.1535 11.9868 14.0068C11.6868 13.7068 11.6868 13.2268 11.9868 12.9268C12.2868 12.6268 12.7668 12.6268 13.0668 12.9268C13.2134 13.0735 13.2934 13.2601 13.2934 13.4668C13.2934 13.6735 13.2134 13.8601 13.0668 14.0068C12.9201 14.1535 12.7201 14.2268 12.5268 14.2268ZM12.3601 13.6335C12.4534 13.7268 12.6001 13.7268 12.6934 13.6335C12.7868 13.5401 12.7868 13.3935 12.6934 13.3001C12.6001 13.2068 12.4534 13.2068 12.3601 13.3001C12.3134 13.3468 12.2934 13.4068 12.2934 13.4668C12.2934 13.5268 12.3134 13.5868 12.3601 13.6335Z" fill="currentColor"/>
<path d="M3.47356 5.00667C3.31356 5.00667 3.16688 4.94666 3.05355 4.83333C2.94022 4.71999 2.88023 4.57333 2.88023 4.41333C2.88023 4.25333 2.94022 4.10665 3.05355 3.99332C3.16688 3.87999 3.31356 3.81998 3.47356 3.81998C3.63356 3.81998 3.78022 3.87999 3.89356 3.99332C4.12689 4.22665 4.12689 4.60667 3.89356 4.84C3.78022 4.94667 3.63356 5.00667 3.47356 5.00667ZM3.42023 4.45999C3.43356 4.47333 3.45357 4.47997 3.4669 4.47997L3.53355 4.41333L3.4669 4.34667C3.39357 4.38667 3.39356 4.43333 3.42023 4.45999Z" fill="currentColor"/>
<path d="M3.47356 5.17317C3.26689 5.17317 3.08022 5.09315 2.93356 4.94649C2.79356 4.80649 2.71356 4.61315 2.71356 4.40649C2.71356 4.19982 2.79356 4.01315 2.94023 3.86649C3.08023 3.72649 3.27356 3.64648 3.48023 3.64648C3.6869 3.64648 3.87356 3.72649 4.02022 3.87316C4.31356 4.17316 4.31356 4.65316 4.02022 4.95316C3.86689 5.09316 3.68022 5.17317 3.47356 5.17317ZM3.30689 4.57983C3.35356 4.62649 3.41356 4.65315 3.47356 4.65315C3.53356 4.65315 3.59356 4.6265 3.64022 4.5865C3.68689 4.5465 3.70689 4.47983 3.70689 4.41983C3.70689 4.35983 3.68024 4.29317 3.63357 4.25317C3.55357 4.1665 3.3869 4.1665 3.30024 4.25317C3.21357 4.33317 3.21356 4.48649 3.30689 4.57983Z" fill="currentColor"/>
<path d="M7.99962 3.13333C7.83962 3.13333 7.69296 3.07332 7.57962 2.95999C7.46629 2.84665 7.40629 2.69999 7.40629 2.53999C7.40629 2.37999 7.46629 2.23331 7.57962 2.11998C7.81296 1.88665 8.19296 1.88665 8.42629 2.11998C8.65962 2.35331 8.65962 2.73332 8.42629 2.95999C8.31296 3.06665 8.15962 3.13333 7.99962 3.13333ZM8.04629 2.48664L7.94629 2.58665C7.97296 2.61332 8.01962 2.61332 8.04629 2.58665V2.48664ZM7.95296 2.48664C7.92629 2.51331 7.92629 2.55999 7.95296 2.58665L8.05296 2.48664H7.95296Z" fill="currentColor"/>
<path d="M7.99962 3.29991C7.79296 3.29991 7.60629 3.21989 7.45962 3.07322C7.31962 2.93322 7.23962 2.73989 7.23962 2.53322C7.23962 2.32655 7.31962 2.13989 7.46629 1.99322C7.76629 1.69322 8.24629 1.69322 8.54629 1.99322C8.83962 2.29322 8.83962 2.77322 8.54629 3.07322C8.39962 3.21989 8.20629 3.29991 7.99962 3.29991ZM8.16629 2.36655L7.83296 2.69989C7.92629 2.79322 8.07296 2.79322 8.16629 2.69989C8.21296 2.65322 8.23296 2.59322 8.23296 2.53322C8.23296 2.47322 8.21296 2.41322 8.16629 2.36655ZM7.99962 2.29991C7.93962 2.29991 7.87296 2.32656 7.83296 2.37323C7.73962 2.46656 7.73962 2.61323 7.83296 2.70656L8.16629 2.37323C8.12629 2.32656 8.06629 2.29991 7.99962 2.29991Z" fill="currentColor"/>
</svg>
