<svg width="16" height="16" viewBox="0 0 16 16" fill="none" xmlns="http://www.w3.org/2000/svg">
<g clip-path="url(#clip0_2_5388)">
<path d="M11.3396 8.98668C10.673 8.98668 10.1263 8.44001 10.1263 7.77334C10.1263 7.10668 10.673 6.56007 11.3396 6.56007C12.0063 6.56007 12.5529 7.10668 12.5529 7.77334C12.5529 8.44001 12.0063 8.98668 11.3396 8.98668ZM11.3396 7.56008C11.2196 7.56008 11.1263 7.65334 11.1263 7.77334C11.1263 7.89334 11.2196 7.98668 11.3396 7.98668C11.4596 7.98668 11.5529 7.89334 11.5529 7.77334C11.5529 7.65334 11.4596 7.56008 11.3396 7.56008Z" fill="currentColor"/>
<path d="M8.01331 10.9667H3.99998C1.59998 10.9667 0.833313 10.2 0.833313 7.80001V4.00001C0.833313 1.60001 1.59998 0.833344 3.99998 0.833344H10.6666C13.0666 0.833344 13.8333 1.60001 13.8333 4.00001V5.19333C13.8333 5.33333 13.7733 5.47333 13.6666 5.56666C13.56 5.66 13.42 5.7067 13.2733 5.6867C13.1266 5.6667 12.9533 5.66 12.7666 5.66H9.91331C8.75998 5.66 8.51331 5.9067 8.51331 7.06001V10.4667C8.51331 10.74 8.28665 10.9667 8.01331 10.9667ZM3.99998 1.83334C2.13998 1.83334 1.83331 2.14001 1.83331 4.00001V7.80001C1.83331 9.66001 2.13998 9.96668 3.99998 9.96668H7.51331V7.06001C7.51331 5.35336 8.20665 4.66 9.91331 4.66H12.7666C12.7866 4.66 12.8133 4.66 12.8333 4.66V4.00001C12.8333 2.14001 12.5266 1.83334 10.6666 1.83334H3.99998Z" fill="currentColor"/>
<path d="M5.99998 13.8333C5.72665 13.8333 5.49998 13.6066 5.49998 13.3333V10.4667C5.49998 10.1933 5.72665 9.96668 5.99998 9.96668C6.27331 9.96668 6.49998 10.1933 6.49998 10.4667V13.3333C6.49998 13.6066 6.27331 13.8333 5.99998 13.8333Z" fill="currentColor"/>
<path d="M7.99998 8.43328H1.33331C1.05998 8.43328 0.833313 8.20661 0.833313 7.93328C0.833313 7.65994 1.05998 7.43328 1.33331 7.43328H7.99998C8.27331 7.43328 8.49998 7.65994 8.49998 7.93328C8.49998 8.20661 8.27331 8.43328 7.99998 8.43328Z" fill="currentColor"/>
<path d="M8.00011 13.8333H3.96678C3.69345 13.8333 3.46678 13.6067 3.46678 13.3333C3.46678 13.06 3.69345 12.8333 3.96678 12.8333H8.00011C8.27345 12.8333 8.50011 13.06 8.50011 13.3333C8.50011 13.6067 8.27345 13.8333 8.00011 13.8333Z" fill="currentColor"/>
<path d="M11.3396 8.98668C10.673 8.98668 10.1263 8.44001 10.1263 7.77334C10.1263 7.10668 10.673 6.56007 11.3396 6.56007C12.0063 6.56007 12.5529 7.10668 12.5529 7.77334C12.5529 8.44001 12.0063 8.98668 11.3396 8.98668ZM11.3396 7.56008C11.2196 7.56008 11.1263 7.65334 11.1263 7.77334C11.1263 7.89334 11.2196 7.98668 11.3396 7.98668C11.4596 7.98668 11.5529 7.89334 11.5529 7.77334C11.5529 7.65334 11.4596 7.56008 11.3396 7.56008Z" fill="currentColor"/>
<path fill-rule="evenodd" clip-rule="evenodd" d="M8.09799 5.24503C8.53324 4.80978 9.17429 4.69334 9.91298 4.69334H12.7663C12.9925 4.69334 13.2045 4.70789 13.3886 4.72999L13.3924 4.73045C13.9577 4.80302 14.4378 5.00274 14.7513 5.44806C15.0467 5.86783 15.133 6.42452 15.133 7.06001V12.7667C15.133 13.5054 15.0165 14.1464 14.5813 14.5817C14.146 15.0169 13.505 15.1333 12.7663 15.1333H9.91298C9.1743 15.1333 8.53325 15.0169 8.098 14.5817C7.66275 14.1464 7.54631 13.5054 7.54631 12.7667V7.06001C7.54631 6.32133 7.66275 5.68029 8.09799 5.24503ZM8.75797 5.905C8.59988 6.06308 8.47965 6.37204 8.47965 7.06001V12.7667C8.47965 13.4547 8.59988 13.7636 8.75796 13.9217C8.91605 14.0798 9.225 14.2 9.91298 14.2H12.7663C13.4543 14.2 13.7632 14.0798 13.9213 13.9217C14.0794 13.7636 14.1996 13.4547 14.1996 12.7667V7.06001C14.1996 6.47552 14.1126 6.16221 13.988 5.98529C13.8817 5.83417 13.6955 5.71066 13.2754 5.65644C13.1267 5.63866 12.9526 5.62667 12.7663 5.62667H9.91298C9.225 5.62667 8.91605 5.74691 8.75797 5.905ZM11.3397 7.52668C11.2041 7.52668 11.093 7.6378 11.093 7.77334C11.093 7.90889 11.2041 8.02001 11.3397 8.02001C11.4753 8.02001 11.5863 7.909 11.5863 7.77334C11.5863 7.63769 11.4753 7.52668 11.3397 7.52668ZM10.1596 7.77334C10.1596 7.12222 10.6887 6.59334 11.3397 6.59334C11.9908 6.59334 12.5196 7.12233 12.5196 7.77334C12.5196 8.42435 11.9908 8.95334 11.3397 8.95334C10.6887 8.95334 10.1596 8.42447 10.1596 7.77334ZM11.3397 10.38C11.0324 10.38 10.7583 10.5265 10.5811 10.7535C10.4557 10.9149 10.3796 11.1214 10.3796 11.34C10.3796 11.8689 10.8108 12.3 11.3397 12.3C11.8686 12.3 12.2996 11.869 12.2996 11.34C12.2996 11.0583 12.1725 10.7962 11.9653 10.6109C11.7999 10.4688 11.5815 10.38 11.3397 10.38ZM9.84501 10.1797C10.1879 9.74009 10.7271 9.44668 11.3397 9.44668C11.8167 9.44668 12.2506 9.62365 12.5783 9.90704L12.583 9.91119C12.9745 10.2591 13.233 10.7695 13.233 11.34C13.233 12.3844 12.3841 13.2333 11.3397 13.2333C10.2953 13.2333 9.44631 12.3844 9.44631 11.34C9.44631 10.9054 9.59724 10.4982 9.84501 10.1797Z" fill="currentColor"/>
<path d="M11.34 13.2667C10.28 13.2667 9.41338 12.4001 9.41338 11.3401C9.41338 10.9134 9.56005 10.4934 9.82005 10.1601C10.1867 9.68674 10.7467 9.41341 11.34 9.41341C11.8 9.41341 12.2534 9.58008 12.6 9.88008C13.0267 10.2601 13.2667 10.7867 13.2667 11.3401C13.2667 12.4001 12.4 13.2667 11.34 13.2667ZM11.34 10.4134C11.0534 10.4134 10.7867 10.5467 10.6067 10.7734C10.48 10.9334 10.4134 11.1334 10.4134 11.3401C10.4134 11.8534 10.8267 12.2667 11.34 12.2667C11.8534 12.2667 12.2667 11.8534 12.2667 11.3401C12.2667 11.0734 12.1467 10.8201 11.94 10.6334C11.78 10.4934 11.56 10.4134 11.34 10.4134Z" fill="currentColor"/>
<path d="M11.3396 8.98668C10.673 8.98668 10.1263 8.44001 10.1263 7.77334C10.1263 7.10668 10.673 6.56007 11.3396 6.56007C12.0063 6.56007 12.5529 7.10668 12.5529 7.77334C12.5529 8.44001 12.0063 8.98668 11.3396 8.98668ZM11.3396 7.56008C11.2196 7.56008 11.1263 7.65334 11.1263 7.77334C11.1263 7.89334 11.2196 7.98668 11.3396 7.98668C11.4596 7.98668 11.5529 7.89334 11.5529 7.77334C11.5529 7.65334 11.4596 7.56008 11.3396 7.56008Z" fill="currentColor"/>
</g>
<defs>
<clipPath id="clip0_2_5388">
<rect width="16" height="16" fill="currentColor"/>
</clipPath>
</defs>
</svg>
