<svg width="16" height="16" viewBox="0 0 16 16" fill="none" xmlns="http://www.w3.org/2000/svg">
<g clip-path="url(#clip0_2_5063)">
<path d="M14.6666 15.1667H3.33331C1.95331 15.1667 0.833313 14.0467 0.833313 12.6667V1.33334C0.833313 1.06001 1.05998 0.833344 1.33331 0.833344C1.60665 0.833344 1.83331 1.06001 1.83331 1.33334V12.6667C1.83331 13.4933 2.50665 14.1667 3.33331 14.1667H14.6666C14.94 14.1667 15.1666 14.3933 15.1666 14.6667C15.1666 14.94 14.94 15.1667 14.6666 15.1667Z" fill="currentColor"/>
<path d="M3.33319 11.8332C3.21986 11.8332 3.09986 11.7932 3.00653 11.7132C2.79986 11.5332 2.77319 11.2199 2.95319 11.0065L6.01319 7.43321C6.34653 7.04654 6.82651 6.81321 7.33318 6.79321C7.83985 6.77988 8.33985 6.96654 8.69985 7.32654L9.33318 7.95988C9.49985 8.12654 9.71985 8.20654 9.95318 8.20654C10.1865 8.19988 10.3998 8.09321 10.5532 7.91321L13.6132 4.3399C13.7932 4.13323 14.1065 4.10655 14.3198 4.28655C14.5265 4.46655 14.5532 4.77988 14.3732 4.99322L11.3132 8.56654C10.9798 8.95321 10.4998 9.18654 9.99318 9.20654C9.48651 9.21988 8.98651 9.03321 8.62651 8.67321L7.99985 8.03988C7.83318 7.87321 7.61318 7.78654 7.37985 7.79321C7.14651 7.79988 6.93318 7.90654 6.77985 8.08654L3.71986 11.6599C3.61319 11.7732 3.47319 11.8332 3.33319 11.8332Z" fill="currentColor"/>
</g>
<defs>
<clipPath id="clip0_2_5063">
<rect width="16" height="16" fill="currentColor"/>
</clipPath>
</defs>
</svg>
