<svg width="16" height="16" viewBox="0 0 16 16" fill="none" xmlns="http://www.w3.org/2000/svg">
<g clip-path="url(#clip0_2_5102)">
<path d="M8.00055 15.0668C7.26055 15.0668 6.57389 14.7535 6.06055 14.1935L1.48722 9.16679C0.840554 8.46012 0.640551 7.21345 1.02721 6.34009L2.73389 2.50009C3.20056 1.45343 3.98055 0.940094 5.12722 0.940094H10.8539C12.0006 0.940094 12.7806 1.44676 13.2472 2.49343L14.9539 6.33343C15.3406 7.20679 15.1472 8.45345 14.5006 9.16012L9.93389 14.1935C9.43389 14.7535 8.74055 15.0668 8.00055 15.0668ZM10.8606 1.93343H5.13389C4.26055 1.93343 3.90722 2.32009 3.65389 2.90009L1.94722 6.74012C1.72055 7.25345 1.85389 8.07345 2.22722 8.48679L6.80055 13.5135C7.12055 13.8668 7.54722 14.0601 8.00055 14.0601C8.45389 14.0601 8.88056 13.8668 9.20055 13.5135L13.7672 8.48012C14.1472 8.06012 14.2806 7.24679 14.0472 6.73345L12.3406 2.89343C12.0872 2.32009 11.7339 1.93343 10.8606 1.93343Z" fill="currentColor"/>
<path d="M2.33335 5.83331C2.06002 5.83331 1.83335 5.60665 1.83335 5.33331C1.83335 5.05998 2.06002 4.83331 2.33335 4.83331L13.6667 4.82665C13.94 4.82665 14.1667 5.05331 14.1667 5.32665C14.1667 5.59998 13.94 5.82665 13.6667 5.82665L2.33335 5.83331Z" fill="currentColor"/>
</g>
<defs>
<clipPath id="clip0_2_5102">
<rect width="16" height="16" fill="currentColor"/>
</clipPath>
</defs>
</svg>
