<svg width="16" height="16" viewBox="0 0 16 16" fill="none" xmlns="http://www.w3.org/2000/svg">
<path d="M11.8733 14.7066C11.4533 14.7066 11.0333 14.6066 10.6333 14.3933L2.90667 10.3266C2.04 9.87326 1.5 8.97993 1.5 7.99993C1.5 7.01993 2.04 6.12658 2.90667 5.67325L10.6333 1.60658C11.6667 1.06658 12.8667 1.23992 13.7 2.05325C14.5333 2.86658 14.7333 4.06658 14.2133 5.10658L13.1333 7.2666C12.9067 7.71993 12.9067 8.2666 13.1333 8.7266L14.2133 10.8866C14.7333 11.9266 14.5333 13.1266 13.7 13.9399C13.1867 14.4466 12.54 14.7066 11.8733 14.7066ZM11.8667 2.29325C11.6267 2.29325 11.3667 2.35325 11.1 2.49325L3.37333 6.55992C2.82667 6.8466 2.5 7.3866 2.5 7.99993C2.5 8.61326 2.82667 9.15326 3.37333 9.43993L11.1 13.5066C11.8733 13.9133 12.5933 13.6333 13 13.2266C13.4133 12.8266 13.7067 12.1133 13.32 11.3333L12.24 9.17326C11.8733 8.43326 11.8733 7.55993 12.24 6.81993L13.32 4.65992C13.7133 3.87992 13.4133 3.16658 13 2.76658C12.7333 2.50658 12.3333 2.29325 11.8667 2.29325Z" fill="currentColor"/>
</svg>
