<svg width="16" height="16" viewBox="0 0 16 16" fill="none" xmlns="http://www.w3.org/2000/svg">
<g clip-path="url(#clip0_2_4800)">
<path d="M9.99999 15.1667H5.99999C2.37999 15.1667 0.833326 13.62 0.833326 9.99999V5.99999C0.833326 2.37999 2.37999 0.833328 5.99999 0.833328H9.99999C13.62 0.833328 15.1667 2.37999 15.1667 5.99999V9.99999C15.1667 13.62 13.62 15.1667 9.99999 15.1667ZM5.99999 1.83333C2.92666 1.83333 1.83333 2.92666 1.83333 5.99999V9.99999C1.83333 13.0733 2.92666 14.1667 5.99999 14.1667H9.99999C13.0733 14.1667 14.1667 13.0733 14.1667 9.99999V5.99999C14.1667 2.92666 13.0733 1.83333 9.99999 1.83333H5.99999Z" fill="currentColor"/>
<path d="M9.17346 11.8333H6.82013C6.08681 11.8333 5.50681 11.4733 5.18015 10.82L4.58681 9.62666C4.44681 9.33999 4.16015 9.16666 3.84015 9.16666H1.32681C1.05348 9.16666 0.826813 8.93999 0.826813 8.66666C0.826813 8.39333 1.06015 8.16666 1.33348 8.16666H3.84015C4.54015 8.16666 5.16682 8.55333 5.48015 9.17999L6.07348 10.3733C6.22681 10.68 6.47348 10.8333 6.82013 10.8333H9.17346C9.49346 10.8333 9.78013 10.66 9.92013 10.3733L10.5135 9.17999C10.8268 8.55333 11.4535 8.16666 12.1535 8.16666H14.6468C14.9201 8.16666 15.1468 8.39333 15.1468 8.66666C15.1468 8.93999 14.9201 9.16666 14.6468 9.16666H12.1535C11.8335 9.16666 11.5468 9.33999 11.4068 9.62666L10.8135 10.82C10.5001 11.4467 9.87346 11.8333 9.17346 11.8333Z" fill="currentColor"/>
</g>
<defs>
<clipPath id="clip0_2_4800">
<rect width="16" height="16" fill="currentColor"/>
</clipPath>
</defs>
</svg>
