<svg width="16" height="16" viewBox="0 0 16 16" fill="none" xmlns="http://www.w3.org/2000/svg">
<path d="M7.99986 14.4999C7.01987 14.4999 6.12656 13.9599 5.67323 13.0932L1.60657 5.36654C1.0599 4.33321 1.2399 3.13321 2.05323 2.29988C2.86657 1.46654 4.06657 1.26654 5.10657 1.78654L7.26653 2.86654C7.71987 3.09321 8.26653 3.09321 8.72653 2.86654L10.8865 1.78654C11.9332 1.26654 13.1332 1.46654 13.9465 2.29988C14.7599 3.13321 14.9399 4.33321 14.3932 5.36654L10.3265 13.0932C9.8732 13.9599 8.97986 14.4999 7.99986 14.4999ZM3.9199 2.49988C3.44657 2.49988 3.03323 2.72654 2.76657 2.99988C2.36657 3.41321 2.0799 4.12654 2.48657 4.89988L6.55323 12.6265C6.83987 13.1732 7.37987 13.4999 7.9932 13.4999C8.60653 13.4999 9.14653 13.1732 9.4332 12.6265L13.4999 4.89988C13.9065 4.12654 13.6265 3.40654 13.2199 2.99988C12.8199 2.59321 12.1132 2.29321 11.3265 2.67988L9.16653 3.75988C8.42653 4.12654 7.5532 4.12654 6.8132 3.75988L4.6599 2.67988C4.40657 2.55321 4.15323 2.49988 3.9199 2.49988Z" fill="currentColor"/>
</svg>
