<svg width="16" height="16" viewBox="0 0 16 16" fill="none" xmlns="http://www.w3.org/2000/svg">
<g clip-path="url(#clip0_2_5048)">
<path d="M9.17367 11.8333H6.82033C6.08698 11.8333 5.50698 11.4733 5.18031 10.82L4.58698 9.62666C4.44698 9.33999 4.16031 9.16666 3.84031 9.16666H1.32031C1.04698 9.16666 0.820312 8.93999 0.820312 8.66666C0.820312 8.39333 1.04698 8.16666 1.32031 8.16666H3.84698C4.54698 8.16666 5.17365 8.55333 5.48698 9.17999L6.08031 10.3733C6.23365 10.68 6.48031 10.8333 6.827 10.8333H9.18033C9.50033 10.8333 9.787 10.66 9.927 10.3733L10.5203 9.17999C10.8337 8.55333 11.4603 8.16666 12.1603 8.16666H14.6537C14.927 8.16666 15.1537 8.39333 15.1537 8.66666C15.1537 8.93999 14.927 9.16666 14.6537 9.16666H12.1603C11.8403 9.16666 11.5537 9.33999 11.4137 9.62666L10.8203 10.82C10.5003 11.4467 9.87367 11.8333 9.17367 11.8333Z" fill="currentColor"/>
<path d="M12.6667 5.83333C11.2867 5.83333 10.1667 4.71333 10.1667 3.33333C10.1667 1.95333 11.2867 0.833328 12.6667 0.833328C14.0467 0.833328 15.1667 1.95333 15.1667 3.33333C15.1667 4.71333 14.0467 5.83333 12.6667 5.83333ZM12.6667 1.83333C11.84 1.83333 11.1667 2.50666 11.1667 3.33333C11.1667 4.15999 11.84 4.83333 12.6667 4.83333C13.4933 4.83333 14.1667 4.15999 14.1667 3.33333C14.1667 2.50666 13.4933 1.83333 12.6667 1.83333Z" fill="currentColor"/>
<path d="M10 15.1667H6C2.38 15.1667 0.833333 13.62 0.833333 9.99999V5.99999C0.833333 2.37999 2.38 0.833328 6 0.833328H9.33333C9.60667 0.833328 9.83333 1.05999 9.83333 1.33333C9.83333 1.60666 9.60667 1.83333 9.33333 1.83333H6C2.92667 1.83333 1.83333 2.92666 1.83333 5.99999V9.99999C1.83333 13.0733 2.92667 14.1667 6 14.1667H10C13.0733 14.1667 14.1667 13.0733 14.1667 9.99999V6.66666C14.1667 6.39333 14.3933 6.16666 14.6667 6.16666C14.94 6.16666 15.1667 6.39333 15.1667 6.66666V9.99999C15.1667 13.62 13.62 15.1667 10 15.1667Z" fill="currentColor"/>
</g>
<defs>
<clipPath id="clip0_2_5048">
<rect width="16" height="16" fill="currentColor"/>
</clipPath>
</defs>
</svg>
