<svg width="16" height="16" viewBox="0 0 16 16" fill="none" xmlns="http://www.w3.org/2000/svg">
<path d="M8 5.83333C7.93333 5.83333 7.87333 5.81999 7.80667 5.79333C7.62 5.71999 7.5 5.53333 7.5 5.33333V1.33333C7.5 1.05999 7.72667 0.833328 8 0.833328C8.27333 0.833328 8.5 1.05999 8.5 1.33333V4.12666L8.98 3.64666C9.17333 3.45333 9.49333 3.45333 9.68667 3.64666C9.88 3.83999 9.88 4.15999 9.68667 4.35333L8.35333 5.68666C8.26 5.77999 8.12667 5.83333 8 5.83333Z" fill="currentColor"/>
<path d="M8 5.83333C7.87333 5.83333 7.74633 5.78662 7.64633 5.68662L6.31297 4.35329C6.11963 4.15995 6.11963 3.83995 6.31297 3.64662C6.5063 3.45329 6.82633 3.45329 7.01967 3.64662L8.353 4.97995C8.54633 5.17329 8.54667 5.49333 8.35333 5.68666C8.25333 5.78666 8.12667 5.83333 8 5.83333Z" fill="currentColor"/>
<path d="M10.6667 15.1667H5.33333C1.5 15.1667 1.5 13.1333 1.5 11.3333V10.6667C1.5 9.17999 1.5 7.49999 4.66667 7.49999C5.46 7.49999 5.75333 7.69333 6.16667 7.99999C6.18667 8.01999 6.21333 8.03333 6.23333 8.05999L6.91333 8.77999C7.48667 9.38666 8.52667 9.38666 9.1 8.77999L9.78 8.05999C9.8 8.03999 9.82 8.01999 9.84667 7.99999C10.26 7.68666 10.5533 7.49999 11.3467 7.49999C14.5133 7.49999 14.5133 9.17999 14.5133 10.6667V11.3333C14.5 13.88 13.2133 15.1667 10.6667 15.1667ZM4.66667 8.49999C2.5 8.49999 2.5 9.17999 2.5 10.6667V11.3333C2.5 13.16 2.5 14.1667 5.33333 14.1667H10.6667C12.6533 14.1667 13.5 13.32 13.5 11.3333V10.6667C13.5 9.17999 13.5 8.49999 11.3333 8.49999C10.8533 8.49999 10.7533 8.55999 10.4667 8.77333L9.82 9.45999C9.34 9.96666 8.69333 10.2467 8 10.2467C7.30667 10.2467 6.66 9.96666 6.18 9.45999L5.53333 8.77333C5.24667 8.55999 5.14667 8.49999 4.66667 8.49999Z" fill="currentColor"/>
<path d="M3.33333 8.49999C3.06 8.49999 2.83333 8.27333 2.83333 7.99999V5.3333C2.83333 4.03997 2.83333 2.4333 5.28667 2.19997C5.56 2.1733 5.80667 2.3733 5.83333 2.6533C5.86 2.92663 5.66 3.1733 5.38 3.19997C3.83333 3.33997 3.83333 3.96663 3.83333 5.3333V7.99999C3.83333 8.27333 3.60667 8.49999 3.33333 8.49999Z" fill="currentColor"/>
<path d="M12.6663 8.50013C12.3929 8.50013 12.1663 8.27346 12.1663 8.00013V5.33347C12.1663 3.96681 12.1663 3.34014 10.6196 3.19347C10.3463 3.16681 10.1463 2.92014 10.1729 2.64681C10.1996 2.37347 10.4396 2.16681 10.7196 2.20014C13.1729 2.43347 13.1729 4.04014 13.1729 5.33347V8.00013C13.1663 8.27346 12.9396 8.50013 12.6663 8.50013Z" fill="currentColor"/>
</svg>
