<svg width="16" height="16" viewBox="0 0 16 16" fill="none" xmlns="http://www.w3.org/2000/svg">
<g clip-path="url(#clip0_2_5059)">
<path d="M8 6.5C7.93333 6.5 7.87333 6.48666 7.80667 6.45999C7.62 6.38666 7.5 6.2 7.5 6V1.33333C7.5 1.05999 7.72667 0.833328 8 0.833328C8.27333 0.833328 8.5 1.05999 8.5 1.33333V4.79333L8.98 4.31333C9.17333 4.11999 9.49333 4.11999 9.68667 4.31333C9.88 4.50666 9.88 4.82666 9.68667 5.02L8.35333 6.35333C8.26 6.44666 8.13333 6.5 8 6.5Z" fill="currentColor"/>
<path d="M8 6.5C7.87333 6.5 7.74633 6.45329 7.64633 6.35329L6.31297 5.01995C6.11963 4.82662 6.11963 4.50662 6.31297 4.31329C6.5063 4.11996 6.82633 4.11996 7.01967 4.31329L8.353 5.64662C8.54633 5.83996 8.54667 6.16 8.35333 6.35333C8.25333 6.45333 8.12667 6.5 8 6.5Z" fill="currentColor"/>
<path d="M9.17367 11.8333H6.82033C6.12031 11.8333 5.49365 11.4467 5.18031 10.82L4.40031 9.26C4.37365 9.2 4.31365 9.16666 4.25365 9.16666H1.32031C1.04698 9.16666 0.820312 8.93999 0.820312 8.66666C0.820312 8.39333 1.04698 8.16666 1.32031 8.16666H4.26031C4.70698 8.16666 5.10698 8.41333 5.30698 8.81333L6.08698 10.3733C6.22698 10.66 6.51365 10.8333 6.83367 10.8333H9.187C9.507 10.8333 9.79367 10.66 9.93367 10.3733L10.7137 8.81333C10.9137 8.41333 11.3137 8.16666 11.7603 8.16666H14.667C14.9403 8.16666 15.167 8.39333 15.167 8.66666C15.167 8.93999 14.9403 9.16666 14.667 9.16666H11.7603C11.6937 9.16666 11.6403 9.2 11.6137 9.26L10.8337 10.82C10.5003 11.4467 9.87367 11.8333 9.17367 11.8333Z" fill="currentColor"/>
<path d="M10 15.1666H6C2.38 15.1666 0.833333 13.6199 0.833333 9.99993V7.33326C0.833333 4.20661 1.99333 2.63995 4.59333 2.25995C4.87333 2.21995 5.12 2.40661 5.16 2.67995C5.2 2.95328 5.01333 3.20661 4.74 3.24661C2.64667 3.55328 1.83333 4.69995 1.83333 7.33326V9.99993C1.83333 13.0733 2.92667 14.1666 6 14.1666H10C13.0733 14.1666 14.1667 13.0733 14.1667 9.99993V7.33326C14.1667 4.69995 13.3533 3.55328 11.26 3.24661C10.9867 3.20661 10.8 2.95328 10.84 2.67995C10.88 2.40661 11.1333 2.21995 11.4067 2.25995C14.0067 2.63995 15.1667 4.20661 15.1667 7.33326V9.99993C15.1667 13.6199 13.62 15.1666 10 15.1666Z" fill="currentColor"/>
</g>
<defs>
<clipPath id="clip0_2_5059">
<rect width="16" height="16" fill="currentColor"/>
</clipPath>
</defs>
</svg>
