<svg width="16" height="16" viewBox="0 0 16 16" fill="none" xmlns="http://www.w3.org/2000/svg">
<g clip-path="url(#clip0_2_5242)">
<path d="M10 15.1667H6.00002C2.38002 15.1667 0.833357 13.62 0.833357 10V6.00001C0.833357 2.38001 2.38002 0.833344 6.00002 0.833344H10C13.62 0.833344 15.1667 2.38001 15.1667 6.00001V10C15.1667 13.62 13.62 15.1667 10 15.1667ZM6.00002 1.83334C2.92669 1.83334 1.83336 2.92668 1.83336 6.00001V10C1.83336 13.0733 2.92669 14.1667 6.00002 14.1667H10C13.0734 14.1667 14.1667 13.0733 14.1667 10V6.00001C14.1667 2.92668 13.0734 1.83334 10 1.83334H6.00002Z" fill="currentColor"/>
<path d="M9.17349 11.8333H6.82016C6.08684 11.8333 5.50684 11.4733 5.18018 10.82L4.58684 9.62668C4.44684 9.34001 4.16018 9.16668 3.84018 9.16668H1.32684C1.05351 9.16668 0.826843 8.94001 0.826843 8.66668C0.826843 8.39334 1.06018 8.16668 1.33351 8.16668H3.84018C4.54018 8.16668 5.16685 8.55334 5.48018 9.18001L6.07351 10.3733C6.22684 10.68 6.47351 10.8333 6.82016 10.8333H9.17349C9.49349 10.8333 9.78016 10.66 9.92016 10.3733L10.5135 9.18001C10.8268 8.55334 11.4535 8.16668 12.1535 8.16668H14.6468C14.9202 8.16668 15.1468 8.39334 15.1468 8.66668C15.1468 8.94001 14.9202 9.16668 14.6468 9.16668H12.1535C11.8335 9.16668 11.5468 9.34001 11.4068 9.62668L10.8135 10.82C10.5002 11.4467 9.87349 11.8333 9.17349 11.8333Z" fill="currentColor"/>
<path d="M9.11342 5.16668H6.89342C6.61341 5.16668 6.38674 4.94001 6.38674 4.66668C6.38674 4.39334 6.61341 4.16668 6.88676 4.16668H9.10676C9.38009 4.16668 9.60676 4.39334 9.60676 4.66668C9.60676 4.94001 9.38676 5.16668 9.11342 5.16668Z" fill="currentColor"/>
<path d="M9.66669 7.16668H6.33336C6.06002 7.16668 5.83336 6.94001 5.83336 6.66668C5.83336 6.39334 6.06002 6.16668 6.33336 6.16668H9.66669C9.94002 6.16668 10.1667 6.39334 10.1667 6.66668C10.1667 6.94001 9.94002 7.16668 9.66669 7.16668Z" fill="currentColor"/>
</g>
<defs>
<clipPath id="clip0_2_5242">
<rect width="16" height="16" fill="currentColor"/>
</clipPath>
</defs>
</svg>
