<svg width="16" height="16" viewBox="0 0 16 16" fill="none" xmlns="http://www.w3.org/2000/svg">
<path d="M12.0799 14.5C11.6799 14.5 11.2732 14.4067 10.8865 14.2133L8.72653 13.1333C8.2732 12.9067 7.72653 12.9067 7.26653 13.1333L5.10657 14.2133C4.06657 14.7333 2.86657 14.5333 2.05323 13.7C1.2399 12.8667 1.0599 11.6667 1.60657 10.6333L5.67323 2.90667C6.12656 2.04 7.01987 1.5 7.99986 1.5C8.97986 1.5 9.8732 2.04 10.3265 2.90667L14.3932 10.6333C14.9332 11.6667 14.7599 12.8667 13.9465 13.7C13.4332 14.2267 12.7665 14.5 12.0799 14.5ZM7.99986 11.96C8.40653 11.96 8.80653 12.0533 9.1732 12.2333L11.3332 13.3133C12.1132 13.7067 12.8265 13.4067 13.2265 12.9933C13.6265 12.58 13.9132 11.8667 13.5065 11.0933L9.43986 3.36667C9.1532 2.82667 8.6132 2.5 7.99986 2.5C7.38653 2.5 6.84653 2.82667 6.5599 3.37333L2.49323 11.1C2.08657 11.8733 2.36657 12.5933 2.77323 13C3.1799 13.4067 3.88657 13.7067 4.66656 13.32L6.82653 12.24C7.1932 12.0533 7.5932 11.96 7.99986 11.96Z" fill="currentColor"/>
</svg>
