<svg width="16" height="16" viewBox="0 0 16 16" fill="none" xmlns="http://www.w3.org/2000/svg">
<path d="M10.6667 15.1667H5.33333C1.5 15.1667 1.5 13.1333 1.5 11.3333V10.6667C1.5 9.17999 1.5 7.49999 4.66667 7.49999C5.46 7.49999 5.75333 7.69333 6.16667 7.99999C6.18667 8.01999 6.21333 8.03333 6.23333 8.05999L6.91333 8.77999C7.48667 9.38666 8.52667 9.38666 9.1 8.77999L9.78 8.05999C9.8 8.03999 9.82 8.01999 9.84667 7.99999C10.26 7.68666 10.5533 7.49999 11.3467 7.49999C14.5133 7.49999 14.5133 9.17999 14.5133 10.6667V11.3333C14.5 13.88 13.2133 15.1667 10.6667 15.1667ZM4.66667 8.49999C2.5 8.49999 2.5 9.17999 2.5 10.6667V11.3333C2.5 13.16 2.5 14.1667 5.33333 14.1667H10.6667C12.6533 14.1667 13.5 13.32 13.5 11.3333V10.6667C13.5 9.17999 13.5 8.49999 11.3333 8.49999C10.8533 8.49999 10.7533 8.55999 10.4667 8.77333L9.82 9.45999C9.34 9.96666 8.69333 10.2467 8 10.2467C7.30667 10.2467 6.66 9.96666 6.18 9.45999L5.53333 8.77333C5.24667 8.55999 5.14667 8.49999 4.66667 8.49999Z" fill="currentColor"/>
<path d="M12.6667 8.49999C12.3933 8.49999 12.1667 8.27333 12.1667 7.99999V3.99999C12.1667 2.51333 12.1667 1.83333 10 1.83333H6C3.83333 1.83333 3.83333 2.51333 3.83333 3.99999V7.99999C3.83333 8.27333 3.60667 8.49999 3.33333 8.49999C3.06 8.49999 2.83333 8.27333 2.83333 7.99999V3.99999C2.83333 2.51333 2.83333 0.833328 6 0.833328H10C13.1667 0.833328 13.1667 2.51333 13.1667 3.99999V7.99999C13.1667 8.27333 12.94 8.49999 12.6667 8.49999Z" fill="currentColor"/>
<path d="M9.25387 6.65332H7.03387C6.76053 6.65332 6.53385 6.42665 6.53385 6.15332C6.53385 5.87998 6.76053 5.65332 7.03387 5.65332H9.25387C9.5272 5.65332 9.75387 5.87998 9.75387 6.15332C9.75387 6.42665 9.53387 6.65332 9.25387 6.65332Z" fill="currentColor"/>
<path d="M9.8138 4.65331H6.48047C6.20713 4.65331 5.98047 4.42665 5.98047 4.15331C5.98047 3.87998 6.20713 3.65331 6.48047 3.65331H9.8138C10.0871 3.65331 10.3138 3.87998 10.3138 4.15331C10.3138 4.42665 10.0938 4.65331 9.8138 4.65331Z" fill="currentColor"/>
</svg>
