<svg width="16" height="16" viewBox="0 0 16 16" fill="none" xmlns="http://www.w3.org/2000/svg">
<path d="M4.1272 14.7065C3.46053 14.7065 2.81387 14.4465 2.30053 13.9465C1.4672 13.1332 1.2672 11.9332 1.7872 10.8932L2.8672 8.7332C3.09387 8.27987 3.09387 7.7332 2.8672 7.2732L1.7872 5.10657C1.2672 4.06657 1.4672 2.86657 2.30053 2.05323C3.13387 1.2399 4.33387 1.0599 5.3672 1.60657L13.0939 5.67323C13.9605 6.12657 14.5005 7.01987 14.5005 7.99987C14.5005 8.97987 13.9605 9.8732 13.0939 10.3265L5.3672 14.3932C4.9672 14.6065 4.5472 14.7065 4.1272 14.7065ZM4.13387 2.29323C3.67387 2.29323 3.27387 2.50657 3.00053 2.77323C2.5872 3.17323 2.29387 3.88657 2.68053 4.66657L3.76053 6.82653C4.1272 7.56653 4.1272 8.43987 3.76053 9.17987L2.68053 11.3399C2.2872 12.1199 2.5872 12.8332 3.00053 13.2332C3.41387 13.6332 4.1272 13.9199 4.90053 13.5132L12.6272 9.44653C13.1739 9.15987 13.5005 8.61987 13.5005 8.00653C13.5005 7.3932 13.1739 6.8532 12.6272 6.56657L4.90053 2.48657C4.63387 2.34657 4.37387 2.29323 4.13387 2.29323Z" fill="currentColor"/>
</svg>
