<svg width="16" height="16" viewBox="0 0 16 16" fill="none" xmlns="http://www.w3.org/2000/svg">
<g clip-path="url(#clip0_2_5051)">
<path d="M7.99967 6.49999C7.72633 6.49999 7.49967 6.27332 7.49967 5.99999V2.53999L7.01967 3.01999C6.82633 3.21332 6.5063 3.21332 6.31297 3.01999C6.11963 2.82665 6.11963 2.50665 6.31297 2.31332L7.64633 0.979987C7.78633 0.839987 8.00633 0.793321 8.193 0.873321C8.37967 0.946654 8.49967 1.13332 8.49967 1.33332V5.99999C8.49967 6.27332 8.273 6.49999 7.99967 6.49999Z" fill="currentColor"/>
<path d="M9.333 3.16662C9.20633 3.16662 9.07967 3.11995 8.97967 3.01995L7.64633 1.68662C7.453 1.49329 7.453 1.17332 7.64633 0.979987C7.83967 0.786654 8.15967 0.786621 8.353 0.979954L9.68633 2.31329C9.87967 2.50662 9.87967 2.82662 9.68633 3.01995C9.58633 3.11995 9.45967 3.16662 9.333 3.16662Z" fill="currentColor"/>
<path d="M9.17367 11.8333H6.82033C6.12031 11.8333 5.49365 11.4467 5.18031 10.82L4.40031 9.25999C4.37365 9.2 4.31365 9.16666 4.25365 9.16666H1.32031C1.04698 9.16666 0.820312 8.93999 0.820312 8.66666C0.820312 8.39333 1.04698 8.16666 1.32031 8.16666H4.26031C4.70698 8.16666 5.10698 8.41333 5.30698 8.81333L6.08698 10.3733C6.22698 10.66 6.51365 10.8333 6.83367 10.8333H9.187C9.507 10.8333 9.79367 10.66 9.93367 10.3733L10.7137 8.81333C10.9137 8.41333 11.3137 8.16666 11.7603 8.16666H14.667C14.9403 8.16666 15.167 8.39333 15.167 8.66666C15.167 8.93999 14.9403 9.16666 14.667 9.16666H11.7603C11.6937 9.16666 11.6403 9.2 11.6137 9.25999L10.8337 10.82C10.5003 11.4467 9.87367 11.8333 9.17367 11.8333Z" fill="currentColor"/>
<path d="M10 15.1666H6C2.38 15.1666 0.833333 13.6199 0.833333 9.99993V7.99993C0.833333 4.87328 1.99333 3.30661 4.59333 2.92661C4.87333 2.88661 5.12 3.07328 5.16 3.34661C5.2 3.61995 5.01333 3.87328 4.74 3.91328C2.64667 4.21995 1.83333 5.36661 1.83333 7.99993V9.99993C1.83333 13.0733 2.92667 14.1666 6 14.1666H10C13.0733 14.1666 14.1667 13.0733 14.1667 9.99993V7.99993C14.1667 5.36661 13.3533 4.21995 11.26 3.91328C10.9867 3.87328 10.8 3.61995 10.84 3.34661C10.88 3.07328 11.1333 2.88661 11.4067 2.92661C14.0067 3.30661 15.1667 4.87328 15.1667 7.99993V9.99993C15.1667 13.6199 13.62 15.1666 10 15.1666Z" fill="currentColor"/>
</g>
<defs>
<clipPath id="clip0_2_5051">
<rect width="16" height="16" fill="currentColor"/>
</clipPath>
</defs>
</svg>
