<svg width="16" height="16" viewBox="0 0 16 16" fill="none" xmlns="http://www.w3.org/2000/svg">
<path d="M7.99967 5.83332C7.72633 5.83332 7.49967 5.60665 7.49967 5.33332V2.53999L7.01967 3.01999C6.82633 3.21332 6.5063 3.21332 6.31297 3.01999C6.11963 2.82665 6.11963 2.50665 6.31297 2.31332L7.64633 0.979987C7.78633 0.839987 8.00633 0.793321 8.193 0.873321C8.37967 0.946654 8.49967 1.13332 8.49967 1.33332V5.33332C8.49967 5.60665 8.273 5.83332 7.99967 5.83332Z" fill="currentColor"/>
<path d="M9.333 3.16662C9.20633 3.16662 9.07967 3.11995 8.97967 3.01995L7.64633 1.68662C7.453 1.49329 7.453 1.17332 7.64633 0.979987C7.83967 0.786654 8.15967 0.786621 8.353 0.979954L9.68633 2.31329C9.87967 2.50662 9.87967 2.82662 9.68633 3.01995C9.58633 3.11995 9.45967 3.16662 9.333 3.16662Z" fill="currentColor"/>
<path d="M10.6667 15.1667H5.33333C1.5 15.1667 1.5 13.1333 1.5 11.3333V10.6667C1.5 9.17999 1.5 7.49999 4.66667 7.49999C5.46 7.49999 5.75333 7.69333 6.16667 7.99999C6.18667 8.01999 6.21333 8.03333 6.23333 8.05999L6.91333 8.77999C7.48667 9.38666 8.52667 9.38666 9.1 8.77999L9.78 8.05999C9.8 8.03999 9.82 8.01999 9.84667 7.99999C10.26 7.68666 10.5533 7.49999 11.3467 7.49999C14.5133 7.49999 14.5133 9.17999 14.5133 10.6667V11.3333C14.5 13.88 13.2133 15.1667 10.6667 15.1667ZM4.66667 8.49999C2.5 8.49999 2.5 9.17999 2.5 10.6667V11.3333C2.5 13.16 2.5 14.1667 5.33333 14.1667H10.6667C12.6533 14.1667 13.5 13.32 13.5 11.3333V10.6667C13.5 9.17999 13.5 8.49999 11.3333 8.49999C10.8533 8.49999 10.7533 8.55999 10.4667 8.77333L9.82 9.45999C9.34 9.96666 8.69333 10.2467 8 10.2467C7.30667 10.2467 6.66 9.96666 6.18 9.45999L5.53333 8.77333C5.24667 8.55999 5.14667 8.49999 4.66667 8.49999Z" fill="currentColor"/>
<path d="M3.33333 8.50013C3.06 8.50013 2.83333 8.27346 2.83333 8.00013V6.66679C2.83333 5.37347 2.83333 3.76681 5.28667 3.53347C5.55333 3.50014 5.80667 3.70681 5.83333 3.98681C5.86 4.26014 5.66 4.50681 5.38 4.53347C3.83333 4.67347 3.83333 5.30014 3.83333 6.66679V8.00013C3.83333 8.27346 3.60667 8.50013 3.33333 8.50013Z" fill="currentColor"/>
<path d="M12.6663 8.50013C12.3929 8.50013 12.1663 8.27346 12.1663 8.00013V6.66679C12.1663 5.30014 12.1663 4.67347 10.6196 4.52681C10.3463 4.50014 10.1463 4.25347 10.1729 3.98014C10.1996 3.70681 10.4396 3.50014 10.7196 3.53347C13.1729 3.76681 13.1729 5.37347 13.1729 6.66679V8.00013C13.1663 8.27346 12.9396 8.50013 12.6663 8.50013Z" fill="currentColor"/>
</svg>
