<svg width="16" height="16" viewBox="0 0 16 16" fill="none" xmlns="http://www.w3.org/2000/svg">
<g clip-path="url(#clip0_2_5124)">
<path d="M8.00001 15.1667C4.04668 15.1667 0.833344 11.9533 0.833344 7.99999C0.833344 4.04666 4.04668 0.833328 8.00001 0.833328C11.9533 0.833328 15.1667 4.04666 15.1667 7.99999C15.1667 11.9533 11.9533 15.1667 8.00001 15.1667ZM8.00001 1.83333C4.60001 1.83333 1.83334 4.59999 1.83334 7.99999C1.83334 11.4 4.60001 14.1667 8.00001 14.1667C11.4 14.1667 14.1667 11.4 14.1667 7.99999C14.1667 4.59999 11.4 1.83333 8.00001 1.83333Z" fill="currentColor"/>
<path d="M10.0001 10.6667C9.62681 10.6667 9.32681 10.3667 9.32681 9.99999C9.32681 9.63333 9.62681 9.33333 9.99348 9.33333C10.3601 9.33333 10.6601 9.63333 10.6601 9.99999C10.6601 10.3667 10.3668 10.6667 10.0001 10.6667Z" fill="currentColor"/>
<path d="M6.00668 6.66666C5.63335 6.66666 5.33334 6.36666 5.33334 5.99999C5.33334 5.63333 5.63334 5.33333 6.00001 5.33333C6.36668 5.33333 6.66668 5.63333 6.66668 5.99999C6.66668 6.36666 6.37335 6.66666 6.00668 6.66666Z" fill="currentColor"/>
<path d="M5.99966 10.5C5.873 10.5 5.74631 10.4533 5.64631 10.3533C5.45298 10.16 5.45298 9.83993 5.64631 9.64659L9.64634 5.64662C9.83968 5.45329 10.1597 5.45329 10.353 5.64662C10.5463 5.83995 10.5463 6.15999 10.353 6.35333L6.35302 10.3533C6.25302 10.4533 6.12633 10.5 5.99966 10.5Z" fill="currentColor"/>
</g>
<defs>
<clipPath id="clip0_2_5124">
<rect width="16" height="16" fill="currentColor"/>
</clipPath>
</defs>
</svg>
