<svg width="16" height="16" viewBox="0 0 16 16" fill="none" xmlns="http://www.w3.org/2000/svg">
<g clip-path="url(#clip0_2_5045)">
<path d="M8.00001 15.1665C7.58001 15.1665 7.18668 15.0066 6.89334 14.7066L5.88002 13.6933C5.80002 13.6133 5.58668 13.5266 5.48001 13.5266H4.04001C3.17334 13.5266 2.47334 12.8265 2.47334 11.9599V10.5199C2.47334 10.4133 2.38667 10.1999 2.30667 10.1199L1.29334 9.1066C1.00001 8.81327 0.833344 8.41987 0.833344 7.99987C0.833344 7.57987 0.993344 7.18653 1.29334 6.8932L2.30667 5.87986C2.38667 5.79986 2.47334 5.58654 2.47334 5.47988V4.03994C2.47334 3.17327 3.17334 2.4732 4.04001 2.4732H5.48001C5.58668 2.4732 5.80002 2.38654 5.88002 2.30654L6.89334 1.2932C7.48001 0.706528 8.52001 0.706528 9.10668 1.2932L10.12 2.30654C10.2 2.38654 10.4133 2.4732 10.52 2.4732H11.96C12.8267 2.4732 13.5267 3.17327 13.5267 4.03994V5.47988C13.5267 5.58654 13.6133 5.79986 13.6933 5.87986L14.7067 6.8932C15 7.18653 15.1667 7.57987 15.1667 7.99987C15.1667 8.41987 15.0067 8.81327 14.7067 9.1066L13.6933 10.1199C13.6133 10.1999 13.5267 10.4133 13.5267 10.5199V11.9599C13.5267 12.8265 12.8267 13.5266 11.96 13.5266H10.52C10.4133 13.5266 10.2 13.6133 10.12 13.6933L9.10668 14.7066C8.81334 15.0066 8.42001 15.1665 8.00001 15.1665ZM3.01334 9.4132C3.28 9.67987 3.47334 10.1466 3.47334 10.5199V11.9599C3.47334 12.2732 3.72668 12.5266 4.04001 12.5266H5.48001C5.85334 12.5266 6.32002 12.7199 6.58668 12.9865L7.60001 13.9999C7.81334 14.2132 8.18668 14.2132 8.40001 13.9999L9.41334 12.9865C9.68001 12.7199 10.1467 12.5266 10.52 12.5266H11.96C12.2733 12.5266 12.5267 12.2732 12.5267 11.9599V10.5199C12.5267 10.1466 12.72 9.67987 12.9867 9.4132L14 8.39987C14.1067 8.2932 14.1667 8.1532 14.1667 7.99987C14.1667 7.84654 14.1067 7.7066 14 7.59994L12.9867 6.58657C12.72 6.3199 12.5267 5.85321 12.5267 5.47988V4.03994C12.5267 3.7266 12.2733 3.4732 11.96 3.4732H10.52C10.1467 3.4732 9.68001 3.27991 9.41334 3.01324L8.40001 1.9999C8.18668 1.78656 7.81334 1.78656 7.60001 1.9999L6.58668 3.01324C6.32002 3.27991 5.85334 3.4732 5.48001 3.4732H4.04001C3.72668 3.4732 3.47334 3.7266 3.47334 4.03994V5.47988C3.47334 5.85321 3.28 6.3199 3.01334 6.58657L2.00001 7.59994C1.89334 7.7066 1.83334 7.84654 1.83334 7.99987C1.83334 8.1532 1.89334 8.2932 2.00001 8.39987L3.01334 9.4132Z" fill="currentColor"/>
<path d="M10.0001 10.6667C9.62681 10.6667 9.32681 10.3667 9.32681 10C9.32681 9.63334 9.62681 9.33334 9.99348 9.33334C10.3601 9.33334 10.6601 9.63334 10.6601 10C10.6601 10.3667 10.3668 10.6667 10.0001 10.6667Z" fill="currentColor"/>
<path d="M6.00668 6.66667C5.63335 6.66667 5.33334 6.36667 5.33334 6C5.33334 5.63334 5.63334 5.33334 6.00001 5.33334C6.36668 5.33334 6.66668 5.63334 6.66668 6C6.66668 6.36667 6.37335 6.66667 6.00668 6.66667Z" fill="currentColor"/>
<path d="M5.99964 10.5C5.87298 10.5 5.74631 10.4533 5.64631 10.3533C5.45298 10.16 5.45298 9.83994 5.64631 9.6466L9.64634 5.64663C9.83968 5.4533 10.1597 5.4533 10.353 5.64663C10.5463 5.83996 10.5463 6.16 10.353 6.35334L6.35298 10.3533C6.25298 10.4533 6.12631 10.5 5.99964 10.5Z" fill="currentColor"/>
</g>
<defs>
<clipPath id="clip0_2_5045">
<rect width="16" height="16" fill="currentColor"/>
</clipPath>
</defs>
</svg>
