<svg width="16" height="16" viewBox="0 0 16 16" fill="none" xmlns="http://www.w3.org/2000/svg">
<g clip-path="url(#clip0_2_5087)">
<path d="M3.27284 15.2133C2.54617 15.2133 1.92617 14.98 1.47284 14.5267C0.826174 13.88 0.626175 12.8933 0.912841 11.7467L2.56617 5.12668C2.85284 3.98001 3.97284 2.86668 5.11284 2.58001L11.7329 0.92668C12.8795 0.640015 13.8662 0.840013 14.5129 1.48668C15.1595 2.13335 15.3595 3.12001 15.0729 4.26668L13.4195 10.8867C13.1329 12.0333 12.0129 13.1467 10.8729 13.4333L4.25284 15.0867C3.91284 15.1667 3.58617 15.2133 3.27284 15.2133ZM11.9862 1.88668L5.36617 3.54668C4.58617 3.74001 3.73951 4.58668 3.53951 5.36668L1.88617 11.9867C1.68617 12.78 1.79284 13.4267 2.17951 13.82C2.56617 14.2067 3.21951 14.3133 4.01284 14.1133L10.6329 12.46C11.4129 12.2667 12.2595 11.4133 12.4529 10.64L14.1062 4.02001C14.3062 3.22668 14.1995 2.58001 13.8129 2.18668C13.4262 1.79335 12.7795 1.69335 11.9862 1.88668Z" fill="currentColor"/>
<path d="M8 10.8333C6.44 10.8333 5.16667 9.56001 5.16667 8.00001C5.16667 6.44001 6.44 5.16667 8 5.16667C9.56 5.16667 10.8333 6.44001 10.8333 8.00001C10.8333 9.56001 9.56 10.8333 8 10.8333ZM8 6.16667C6.98667 6.16667 6.16667 6.98667 6.16667 8.00001C6.16667 9.01334 6.98667 9.83334 8 9.83334C9.01333 9.83334 9.83333 9.01334 9.83333 8.00001C9.83333 6.98667 9.01333 6.16667 8 6.16667Z" fill="currentColor"/>
</g>
<defs>
<clipPath id="clip0_2_5087">
<rect width="16" height="16" fill="currentColor"/>
</clipPath>
</defs>
</svg>
