<svg width="16" height="16" viewBox="0 0 16 16" fill="none" xmlns="http://www.w3.org/2000/svg">
<g clip-path="url(#clip0_2_5362)">
<path d="M7.99999 15.1667C4.04666 15.1667 0.833328 11.9533 0.833328 7.99999C0.833328 4.04666 4.04666 0.833328 7.99999 0.833328C11.9533 0.833328 15.1667 4.04666 15.1667 7.99999C15.1667 11.9533 11.9533 15.1667 7.99999 15.1667ZM7.99999 1.83333C4.59999 1.83333 1.83333 4.59999 1.83333 7.99999C1.83333 11.4 4.59999 14.1667 7.99999 14.1667C11.4 14.1667 14.1667 11.4 14.1667 7.99999C14.1667 4.59999 11.4 1.83333 7.99999 1.83333Z" fill="currentColor"/>
<path d="M6.99999 11.1667C5.80666 11.1667 4.83333 10.1933 4.83333 8.99999C4.83333 6.69999 6.69999 4.83333 8.99999 4.83333C10.1933 4.83333 11.1667 5.80666 11.1667 6.99999C11.1667 9.29999 9.29999 11.1667 6.99999 11.1667ZM8.99999 5.83333C7.25333 5.83333 5.83333 7.25333 5.83333 8.99999C5.83333 9.63999 6.35999 10.1667 6.99999 10.1667C8.74666 10.1667 10.1667 8.74666 10.1667 6.99999C10.1667 6.35999 9.63999 5.83333 8.99999 5.83333Z" fill="currentColor"/>
</g>
<defs>
<clipPath id="clip0_2_5362">
<rect width="16" height="16" fill="currentColor"/>
</clipPath>
</defs>
</svg>
