<svg width="16" height="16" viewBox="0 0 16 16" fill="none" xmlns="http://www.w3.org/2000/svg">
<path d="M7.19973 14.7333C7.00639 14.7333 6.81306 14.6999 6.63303 14.6333C5.79969 14.3599 5.26636 13.4399 5.45303 12.5866L5.7797 10.4866C5.78636 10.4399 5.78636 10.3733 5.7397 10.3199C5.70636 10.2866 5.65969 10.2666 5.60636 10.2666H2.9397C2.28636 10.2666 1.7197 9.99327 1.38636 9.51993C1.0597 9.05993 0.993029 8.45327 1.20636 7.8666L2.7997 3.01327C3.04636 2.0466 4.0797 1.2666 5.14636 1.2666H7.67973C8.05306 1.2666 8.86639 1.37993 9.29973 1.81327L11.3197 3.37327L10.7064 4.1666L8.63973 2.5666C8.47306 2.39994 8.05306 2.2666 7.67973 2.2666H5.14636C4.54636 2.2666 3.89969 2.7466 3.76636 3.2866L2.15303 8.1866C2.04636 8.47993 2.06636 8.7466 2.20636 8.93994C2.35303 9.1466 2.6197 9.2666 2.94636 9.2666H5.61303C5.95969 9.2666 6.27969 9.41327 6.49969 9.6666C6.72639 9.9266 6.82639 10.2733 6.77306 10.6333L6.43969 12.7733C6.35969 13.1466 6.61303 13.5666 6.97306 13.6866C7.29306 13.8066 7.71973 13.6333 7.86639 13.4199L10.5997 9.35327L11.4264 9.91327L8.69306 13.9799C8.37973 14.4466 7.78639 14.7333 7.19973 14.7333Z" fill="currentColor"/>
<path d="M13.0794 12.0667H12.4127C11.1794 12.0667 10.5794 11.4867 10.5794 10.3V3.76667C10.5794 2.58 11.1794 2 12.4127 2H13.0794C14.3127 2 14.9127 2.58 14.9127 3.76667V10.3C14.9127 11.4867 14.3127 12.0667 13.0794 12.0667ZM12.4127 3C11.6861 3 11.5794 3.17334 11.5794 3.76667V10.3C11.5794 10.8933 11.6861 11.0667 12.4127 11.0667H13.0794C13.8061 11.0667 13.9127 10.8933 13.9127 10.3V3.76667C13.9127 3.17334 13.8061 3 13.0794 3H12.4127Z" fill="currentColor"/>
</svg>
