<svg width="16" height="16" viewBox="0 0 16 16" fill="none" xmlns="http://www.w3.org/2000/svg">
<g clip-path="url(#clip0_1020_54)">
<path d="M10 15.1667H6.00001C4.15334 15.1667 2.90201 14.776 2.06334 13.9367C1.22468 13.0973 0.833344 11.8467 0.833344 10V6.00001C0.833344 4.15334 1.22401 2.90201 2.06334 2.06334C2.90268 1.22468 4.15334 0.833344 6.00001 0.833344H9.33334C9.46595 0.833344 9.59313 0.886022 9.6869 0.97979C9.78066 1.07356 9.83334 1.20074 9.83334 1.33334C9.83334 1.46595 9.78066 1.59313 9.6869 1.6869C9.59313 1.78067 9.46595 1.83334 9.33334 1.83334H6.00001C4.43601 1.83334 3.40934 2.13334 2.77001 2.77001C2.13068 3.40668 1.83334 4.43601 1.83334 6.00001V10C1.83334 11.564 2.13134 12.5907 2.77001 13.23C3.40868 13.8693 4.43601 14.1667 6.00001 14.1667H10C11.564 14.1667 12.5907 13.8687 13.23 13.23C13.8693 12.5913 14.1667 11.564 14.1667 10V6.66668C14.1667 6.53407 14.2194 6.40689 14.3131 6.31312C14.4069 6.21935 14.5341 6.16668 14.6667 6.16668C14.7993 6.16668 14.9265 6.21935 15.0202 6.31312C15.114 6.40689 15.1667 6.53407 15.1667 6.66668V10C15.1667 11.8467 14.776 13.098 13.9367 13.9367C13.0973 14.7753 11.8467 15.1667 10 15.1667Z" fill="currentColor"/>
<path d="M14.6667 7.16668H12C9.72134 7.16668 8.83334 6.27868 8.83334 4.00001V1.33335C8.83333 1.23444 8.86265 1.13776 8.91759 1.05552C8.97254 0.973288 9.05064 0.909193 9.14201 0.871347C9.23337 0.833587 9.33387 0.823757 9.43082 0.843099C9.52776 0.86244 9.61702 0.909862 9.6869 0.97979L15.0202 6.31312C15.0901 6.38305 15.1374 6.47232 15.1567 6.56926C15.1759 6.66619 15.166 6.76665 15.1282 6.85796C15.0904 6.94927 15.0264 7.02733 14.9442 7.08227C14.8621 7.13722 14.7655 7.16659 14.6667 7.16668ZM9.83334 2.54068V4.00001C9.83334 5.72135 10.2787 6.16668 12 6.16668H13.4593L9.83334 2.54068Z" fill="currentColor"/>
<path d="M6.13334 12.1C5.61252 12.1 5.10339 11.9456 4.67034 11.6562C4.23729 11.3669 3.89977 10.9556 3.70046 10.4744C3.50115 9.99323 3.449 9.46376 3.55061 8.95294C3.65222 8.44212 3.90302 7.97291 4.2713 7.60463C4.63957 7.23635 5.10879 6.98555 5.61961 6.88394C6.13042 6.78234 6.6599 6.83448 7.14108 7.03379C7.62226 7.23311 8.03353 7.57063 8.32288 8.00368C8.61224 8.43673 8.76668 8.94585 8.76668 9.46668C8.76597 10.1649 8.48831 10.8343 7.99461 11.3279C7.50092 11.8216 6.83153 12.0993 6.13334 12.1ZM6.13334 7.83334C5.8103 7.83334 5.49451 7.92914 5.22591 8.10861C4.95731 8.28808 4.74796 8.54318 4.62434 8.84163C4.50072 9.14008 4.46837 9.46849 4.53139 9.78533C4.59442 10.1022 4.74998 10.3932 4.9784 10.6216C5.20683 10.85 5.49786 11.0056 5.8147 11.0686C6.13153 11.1316 6.45994 11.0993 6.75839 10.9757C7.05685 10.8521 7.31194 10.6427 7.49141 10.3741C7.67088 10.1055 7.76668 9.78972 7.76668 9.46668C7.76615 9.03365 7.5939 8.61852 7.2877 8.31232C6.98151 8.00613 6.56637 7.83387 6.13334 7.83334Z" fill="currentColor"/>
<path d="M8.66668 12.5C8.60103 12.5 8.53603 12.4871 8.47539 12.4619C8.41476 12.4367 8.35969 12.3998 8.31335 12.3533L7.64668 11.6867C7.55305 11.5929 7.50046 11.4658 7.50046 11.3333C7.50046 11.2008 7.55305 11.0738 7.64668 10.98C7.74043 10.8864 7.86752 10.8338 8.00002 10.8338C8.13252 10.8338 8.2596 10.8864 8.35335 10.98L9.02002 11.6467C9.08985 11.7166 9.1374 11.8056 9.15666 11.9026C9.17592 11.9995 9.16602 12.1 9.12821 12.1913C9.0904 12.2826 9.02638 12.3607 8.94424 12.4156C8.86209 12.4705 8.76551 12.4999 8.66668 12.5Z" fill="currentColor"/>
</g>
<defs>
<clipPath id="clip0_1020_54">
<rect width="16" height="16" fill="currentColor"/>
</clipPath>
</defs>
</svg>
