<svg width="16" height="16" viewBox="0 0 16 16" fill="none" xmlns="http://www.w3.org/2000/svg">
<g clip-path="url(#clip0_2_5174)">
<path d="M10 15.1667H6.00001C2.38001 15.1667 0.833344 13.62 0.833344 9.99999V5.99999C0.833344 2.37999 2.38001 0.833328 6.00001 0.833328H9.33334C9.60668 0.833328 9.83334 1.05999 9.83334 1.33333C9.83334 1.60666 9.60668 1.83333 9.33334 1.83333H6.00001C2.92668 1.83333 1.83334 2.92666 1.83334 5.99999V9.99999C1.83334 13.0733 2.92668 14.1667 6.00001 14.1667H10C13.0733 14.1667 14.1667 13.0733 14.1667 9.99999V6.66666C14.1667 6.39333 14.3933 6.16666 14.6667 6.16666C14.94 6.16666 15.1667 6.39333 15.1667 6.66666V9.99999C15.1667 13.62 13.62 15.1667 10 15.1667Z" fill="currentColor"/>
<path d="M14.6667 7.16666H12C9.72001 7.16666 8.83334 6.27999 8.83334 3.99999V1.33332C8.83334 1.13332 8.95334 0.946655 9.14001 0.873322C9.32668 0.793322 9.54001 0.839988 9.68668 0.979988L15.02 6.31332C15.16 6.45332 15.2067 6.67333 15.1267 6.85999C15.0533 7.04666 14.8667 7.16666 14.6667 7.16666ZM9.83334 2.53999V3.99999C9.83334 5.71999 10.28 6.16666 12 6.16666H13.46L9.83334 2.53999Z" fill="currentColor"/>
<path d="M6.43377 12.4735C6.14044 12.4735 5.86044 12.3601 5.65377 12.1535L4.01377 10.5135C3.65377 10.1535 3.59377 9.54679 3.87377 9.12013L4.6271 7.98679C4.81377 7.70013 5.20044 7.49346 5.5471 7.49346H7.31374C7.65374 7.49346 8.04041 7.70013 8.23374 7.98679L8.98708 9.11346C9.26708 9.53346 9.20708 10.1468 8.84708 10.5068L7.20708 12.1468C7.00708 12.3601 6.72708 12.4735 6.43377 12.4735ZM5.55377 8.50013C5.5271 8.50679 5.47377 8.53346 5.46044 8.55346L4.71377 9.68013C4.69377 9.70679 4.70044 9.78679 4.7271 9.81346L6.3671 11.4535C6.40044 11.4868 6.48044 11.4868 6.51377 11.4535L8.15374 9.81346C8.18041 9.78679 8.18708 9.71346 8.16708 9.68013L7.41374 8.55346C7.40041 8.54013 7.34708 8.51346 7.32041 8.50679L5.55377 8.50013Z" fill="currentColor"/>
</g>
<defs>
<clipPath id="clip0_2_5174">
<rect width="16" height="16" fill="currentColor"/>
</clipPath>
</defs>
</svg>
