<svg width="16" height="16" viewBox="0 0 16 16" fill="none" xmlns="http://www.w3.org/2000/svg">
<g clip-path="url(#clip0_701_9)">
<path d="M9.99999 15.2H5.99999C2.39999 15.2 0.799988 13.6667 0.799988 9.99999V5.99999C0.799988 2.39999 2.33332 0.799988 5.99999 0.799988H9.33332C9.59999 0.799988 9.86665 0.999988 9.86665 1.33332C9.86665 1.66665 9.59999 1.86665 9.33332 1.86665H5.99999C2.93332 1.86665 1.86665 2.93332 1.86665 5.99999V9.99999C1.86665 13.0667 2.93332 14.1333 5.99999 14.1333H9.99999C13.0667 14.1333 14.1333 13.0667 14.1333 9.99999V6.66665C14.1333 6.39999 14.3333 6.13332 14.6667 6.13332C15 6.13332 15.2 6.33332 15.2 6.66665V9.99999C15.2 13.6 13.6 15.2 9.99999 15.2Z" fill="currentColor"/>
<path d="M14.6667 7.19999H12C9.73332 7.19999 8.79999 6.33332 8.79999 3.99999V1.33332C8.79999 1.13332 8.93332 0.933321 9.13332 0.866654C9.33332 0.799988 9.53332 0.799988 9.66665 0.999988L15 6.33332C15.1333 6.46665 15.2 6.66665 15.1333 6.86665C15.0667 7.06665 14.8667 7.19999 14.6667 7.19999ZM9.86665 2.53332V3.99999C9.86665 5.73332 10.3333 6.19999 12 6.19999H13.4667L9.86665 2.53332Z" fill="currentColor"/>
<path d="M5.53332 11V7.66665C5.53332 7.39999 5.73332 7.13332 5.99999 7.13332C6.26665 7.13332 6.53332 7.33332 6.53332 7.66665V11C6.53332 11.2667 6.33332 11.5333 5.99999 11.5333C5.73332 11.5333 5.53332 11.2667 5.53332 11Z" fill="currentColor"/>
<path d="M3.79999 9.33332C3.79999 9.06665 3.99999 8.79999 4.33332 8.79999H7.66665C7.93332 8.79999 8.19999 8.99999 8.19999 9.33332C8.19999 9.66665 7.99999 9.86665 7.66665 9.86665H4.33332C4.06665 9.86665 3.79999 9.59999 3.79999 9.33332Z" fill="currentColor"/>
</g>
<defs>
<clipPath id="clip0_701_9">
<rect width="16" height="16" fill="currentColor"/>
</clipPath>
</defs>
</svg>
