<svg width="16" height="16" viewBox="0 0 16 16" fill="none" xmlns="http://www.w3.org/2000/svg">
<g clip-path="url(#clip0_2_5030)">
<path d="M7.33333 11.8333C7.20666 11.8333 7.07999 11.7866 6.97999 11.6866C6.78666 11.4933 6.78666 11.1733 6.97999 10.9799L7.45999 10.4999H4.66666C4.39333 10.4999 4.16666 10.2733 4.16666 9.99993C4.16666 9.72659 4.39333 9.49993 4.66666 9.49993H7.45999L6.97999 9.01993C6.87999 8.91993 6.83333 8.79326 6.83333 8.66659C6.83333 8.53993 6.87999 8.41326 6.97999 8.31326C7.17333 8.11993 7.49333 8.11993 7.68666 8.31326L9.01999 9.64659C9.10666 9.73326 9.15333 9.84659 9.15999 9.95326C9.15999 9.98659 9.15999 10.0266 9.15999 10.0599C9.14666 10.1533 9.10666 10.2399 9.03999 10.3199C9.03333 10.3266 9.01999 10.3399 9.01333 10.3466L7.67999 11.6799C7.58666 11.7866 7.45999 11.8333 7.33333 11.8333Z" fill="currentColor"/>
<path d="M9.99999 15.1667H5.99999C2.37999 15.1667 0.833328 13.62 0.833328 9.99999V5.99999C0.833328 2.37999 2.37999 0.833328 5.99999 0.833328H9.33333C9.60666 0.833328 9.83333 1.05999 9.83333 1.33333C9.83333 1.60666 9.60666 1.83333 9.33333 1.83333H5.99999C2.92666 1.83333 1.83333 2.92666 1.83333 5.99999V9.99999C1.83333 13.0733 2.92666 14.1667 5.99999 14.1667H9.99999C13.0733 14.1667 14.1667 13.0733 14.1667 9.99999V6.66666C14.1667 6.39333 14.3933 6.16666 14.6667 6.16666C14.94 6.16666 15.1667 6.39333 15.1667 6.66666V9.99999C15.1667 13.62 13.62 15.1667 9.99999 15.1667Z" fill="currentColor"/>
<path d="M14.6667 7.16666H12C9.71999 7.16666 8.83333 6.27999 8.83333 3.99999V1.33332C8.83333 1.13332 8.95333 0.946655 9.13999 0.873322C9.32666 0.793322 9.53999 0.839988 9.68666 0.979988L15.02 6.31332C15.16 6.45332 15.2067 6.67333 15.1267 6.85999C15.0467 7.04666 14.8667 7.16666 14.6667 7.16666ZM9.83333 2.53999V3.99999C9.83333 5.71999 10.28 6.16666 12 6.16666H13.46L9.83333 2.53999Z" fill="currentColor"/>
</g>
<defs>
<clipPath id="clip0_2_5030">
<rect width="16" height="16" fill="currentColor"/>
</clipPath>
</defs>
</svg>
