<svg width="16" height="16" viewBox="0 0 16 16" fill="none" xmlns="http://www.w3.org/2000/svg">
<g clip-path="url(#clip0_2_5025)">
<path d="M10 15.1667H6.00001C2.38001 15.1667 0.833344 13.62 0.833344 9.99999V5.99999C0.833344 2.37999 2.38001 0.833328 6.00001 0.833328H9.33334C9.60668 0.833328 9.83334 1.05999 9.83334 1.33333C9.83334 1.60666 9.60668 1.83333 9.33334 1.83333H6.00001C2.92668 1.83333 1.83334 2.92666 1.83334 5.99999V9.99999C1.83334 13.0733 2.92668 14.1667 6.00001 14.1667H10C13.0733 14.1667 14.1667 13.0733 14.1667 9.99999V6.66666C14.1667 6.39333 14.3933 6.16666 14.6667 6.16666C14.94 6.16666 15.1667 6.39333 15.1667 6.66666V9.99999C15.1667 13.62 13.62 15.1667 10 15.1667Z" fill="currentColor"/>
<path d="M14.6667 7.16666H12C9.72001 7.16666 8.83334 6.27999 8.83334 3.99999V1.33332C8.83334 1.13332 8.95334 0.946655 9.14001 0.873322C9.32668 0.793322 9.54001 0.839988 9.68668 0.979988L15.02 6.31332C15.16 6.45332 15.2067 6.67333 15.1267 6.85999C15.0467 7.04666 14.8667 7.16666 14.6667 7.16666ZM9.83334 2.53999V3.99999C9.83334 5.71999 10.28 6.16666 12 6.16666H13.46L9.83334 2.53999Z" fill="currentColor"/>
<path d="M8.66668 9.16666H4.66668C4.39334 9.16666 4.16668 8.93999 4.16668 8.66666C4.16668 8.39333 4.39334 8.16666 4.66668 8.16666H8.66668C8.94001 8.16666 9.16668 8.39333 9.16668 8.66666C9.16668 8.93999 8.94001 9.16666 8.66668 9.16666Z" fill="currentColor"/>
<path d="M7.33334 11.8333H4.66668C4.39334 11.8333 4.16668 11.6067 4.16668 11.3333C4.16668 11.06 4.39334 10.8333 4.66668 10.8333H7.33334C7.60668 10.8333 7.83334 11.06 7.83334 11.3333C7.83334 11.6067 7.60668 11.8333 7.33334 11.8333Z" fill="currentColor"/>
</g>
<defs>
<clipPath id="clip0_2_5025">
<rect width="16" height="16" fill="currentColor"/>
</clipPath>
</defs>
</svg>
