<svg width="16" height="16" viewBox="0 0 16 16" fill="none" xmlns="http://www.w3.org/2000/svg">
<path d="M9.33333 4.49999H6.66667C6.02667 4.49999 4.83333 4.49999 4.83333 2.66666C4.83333 0.833328 6.02667 0.833328 6.66667 0.833328H9.33333C9.97333 0.833328 11.1667 0.833328 11.1667 2.66666C11.1667 3.30666 11.1667 4.49999 9.33333 4.49999ZM6.66667 1.83333C6.00667 1.83333 5.83333 1.83333 5.83333 2.66666C5.83333 3.49999 6.00667 3.49999 6.66667 3.49999H9.33333C10.1667 3.49999 10.1667 3.32666 10.1667 2.66666C10.1667 1.83333 9.99333 1.83333 9.33333 1.83333H6.66667Z" fill="currentColor"/>
<path d="M10 15.1666H6C2.25333 15.1666 1.5 13.4466 1.5 10.6666V6.66662C1.5 3.62662 2.6 2.32661 5.30667 2.18661C5.58 2.17328 5.82 2.37995 5.83333 2.65995C5.84667 2.93995 5.63333 3.16662 5.36 3.17995C3.46667 3.28661 2.5 3.85328 2.5 6.66662V10.6666C2.5 13.1333 2.98667 14.1666 6 14.1666H10C13.0133 14.1666 13.5 13.1333 13.5 10.6666V6.66662C13.5 3.85328 12.5333 3.28661 10.64 3.17995C10.3667 3.16662 10.1533 2.92661 10.1667 2.65328C10.18 2.37995 10.42 2.16661 10.6933 2.17995C13.4 2.32661 14.5 3.62662 14.5 6.65995V10.6599C14.5 13.4466 13.7467 15.1666 10 15.1666Z" fill="currentColor"/>
</svg>
