<svg width="16" height="16" viewBox="0 0 16 16" fill="none" xmlns="http://www.w3.org/2000/svg">
<g clip-path="url(#clip0_2_5036)">
<path d="M9.99999 15.1667H5.99999C2.37999 15.1667 0.833328 13.62 0.833328 9.99999V5.99999C0.833328 2.37999 2.37999 0.833328 5.99999 0.833328H9.33333C9.60666 0.833328 9.83333 1.05999 9.83333 1.33333C9.83333 1.60666 9.60666 1.83333 9.33333 1.83333H5.99999C2.92666 1.83333 1.83333 2.92666 1.83333 5.99999V9.99999C1.83333 13.0733 2.92666 14.1667 5.99999 14.1667H9.99999C13.0733 14.1667 14.1667 13.0733 14.1667 9.99999V6.66666C14.1667 6.39333 14.3933 6.16666 14.6667 6.16666C14.94 6.16666 15.1667 6.39333 15.1667 6.66666V9.99999C15.1667 13.62 13.62 15.1667 9.99999 15.1667Z" fill="currentColor"/>
<path d="M14.6667 7.16666H12C9.71999 7.16666 8.83333 6.27999 8.83333 3.99999V1.33332C8.83333 1.13332 8.95333 0.946655 9.13999 0.873322C9.32666 0.793322 9.53999 0.839988 9.68666 0.979988L15.02 6.31332C15.16 6.45332 15.2067 6.67333 15.1267 6.85999C15.0467 7.04666 14.8667 7.16666 14.6667 7.16666ZM9.83333 2.53999V3.99999C9.83333 5.71999 10.28 6.16666 12 6.16666H13.46L9.83333 2.53999Z" fill="currentColor"/>
<path d="M6.27958 12.6334C5.69958 12.6334 4.35291 11.9267 3.93958 10.6334C3.65291 9.74006 3.98625 8.57339 5.01958 8.24006C5.45291 8.10006 5.91291 8.16006 6.27958 8.38673C6.63958 8.16006 7.10626 8.10006 7.54626 8.24006C8.57959 8.57339 8.91293 9.74006 8.62626 10.6334C8.20626 11.9534 6.79293 12.6334 6.27958 12.6334ZM4.88625 10.3334C5.16625 11.2067 6.11292 11.6201 6.28625 11.6334C6.47291 11.6134 7.40626 11.1534 7.66626 10.3334C7.80626 9.89339 7.66626 9.33339 7.23293 9.19339C7.05293 9.13339 6.80626 9.16673 6.69293 9.34006C6.59958 9.48006 6.45291 9.56006 6.28625 9.56673C6.10625 9.56673 5.96625 9.49339 5.87291 9.36006C5.73291 9.16673 5.49291 9.14006 5.31958 9.20006C4.89291 9.3334 4.74625 9.89339 4.88625 10.3334Z" fill="currentColor"/>
</g>
<defs>
<clipPath id="clip0_2_5036">
<rect width="16" height="16" fill="currentColor"/>
</clipPath>
</defs>
</svg>
