<svg width="16" height="16" viewBox="0 0 16 16" fill="none" xmlns="http://www.w3.org/2000/svg">
<g clip-path="url(#clip0_2_5408)">
<path d="M6.00033 11.8333C5.87366 11.8333 5.747 11.7867 5.647 11.6867L4.31366 10.3533C4.17366 10.2133 4.127 9.99333 4.207 9.80666C4.287 9.61999 4.467 9.49999 4.667 9.49999H8.66701C8.94034 9.49999 9.16701 9.72666 9.16701 9.99999C9.16701 10.2733 8.94034 10.5 8.66701 10.5H5.87366L6.35366 10.98C6.547 11.1733 6.547 11.4933 6.35366 11.6867C6.25366 11.7867 6.127 11.8333 6.00033 11.8333Z" fill="currentColor"/>
<path d="M4.66631 10.4999C4.53964 10.4999 4.41366 10.4533 4.31366 10.3533C4.12033 10.16 4.11964 9.83993 4.31298 9.64659L5.64631 8.31326C5.83964 8.11993 6.15964 8.11993 6.35298 8.31326C6.54631 8.50659 6.54631 8.82659 6.35298 9.01993L5.01964 10.3533C4.91964 10.4533 4.79298 10.4999 4.66631 10.4999Z" fill="currentColor"/>
<path d="M10 15.1667H6.00001C2.38001 15.1667 0.833344 13.62 0.833344 9.99999V5.99999C0.833344 2.37999 2.38001 0.833328 6.00001 0.833328H9.33334C9.60668 0.833328 9.83334 1.05999 9.83334 1.33333C9.83334 1.60666 9.60668 1.83333 9.33334 1.83333H6.00001C2.92668 1.83333 1.83334 2.92666 1.83334 5.99999V9.99999C1.83334 13.0733 2.92668 14.1667 6.00001 14.1667H10C13.0733 14.1667 14.1667 13.0733 14.1667 9.99999V6.66666C14.1667 6.39333 14.3933 6.16666 14.6667 6.16666C14.94 6.16666 15.1667 6.39333 15.1667 6.66666V9.99999C15.1667 13.62 13.62 15.1667 10 15.1667Z" fill="currentColor"/>
<path d="M14.6667 7.16666H12C9.72001 7.16666 8.83334 6.27999 8.83334 3.99999V1.33332C8.83334 1.13332 8.95334 0.946655 9.14001 0.873322C9.32668 0.793322 9.54001 0.839988 9.68668 0.979988L15.02 6.31332C15.16 6.45332 15.2067 6.67333 15.1267 6.85999C15.0467 7.04666 14.8667 7.16666 14.6667 7.16666ZM9.83334 2.53999V3.99999C9.83334 5.71999 10.28 6.16666 12 6.16666H13.46L9.83334 2.53999Z" fill="currentColor"/>
</g>
<defs>
<clipPath id="clip0_2_5408">
<rect width="16" height="16" fill="currentColor"/>
</clipPath>
</defs>
</svg>
