<svg width="16" height="16" viewBox="0 0 16 16" fill="none" xmlns="http://www.w3.org/2000/svg">
<path d="M10.6667 15.1667H5.33333C2.9 15.1667 1.5 13.7667 1.5 11.3333V4.66666C1.5 2.23333 2.9 0.833328 5.33333 0.833328H10.6667C13.1 0.833328 14.5 2.23333 14.5 4.66666V11.3333C14.5 13.7667 13.1 15.1667 10.6667 15.1667ZM5.33333 1.83333C3.42667 1.83333 2.5 2.75999 2.5 4.66666V11.3333C2.5 13.24 3.42667 14.1667 5.33333 14.1667H10.6667C12.5733 14.1667 13.5 13.24 13.5 11.3333V4.66666C13.5 2.75999 12.5733 1.83333 10.6667 1.83333H5.33333Z" fill="currentColor"/>
<path d="M12.3333 6.16666H11C9.98667 6.16666 9.16667 5.34666 9.16667 4.33333V2.99999C9.16667 2.72666 9.39333 2.49999 9.66667 2.49999C9.94 2.49999 10.1667 2.72666 10.1667 2.99999V4.33333C10.1667 4.79333 10.54 5.16666 11 5.16666H12.3333C12.6067 5.16666 12.8333 5.39333 12.8333 5.66666C12.8333 5.93999 12.6067 6.16666 12.3333 6.16666Z" fill="currentColor"/>
<path d="M6.6663 11.8333C6.53963 11.8333 6.41297 11.7867 6.31297 11.6867L4.97963 10.3533C4.7863 10.16 4.7863 9.83993 4.97963 9.64659L6.31297 8.31326C6.5063 8.11993 6.82633 8.11993 7.01967 8.31326C7.213 8.50659 7.213 8.82666 7.01967 9.01999L6.03963 9.99999L7.01967 10.9799C7.213 11.1733 7.213 11.4933 7.01967 11.6867C6.91967 11.7867 6.793 11.8333 6.6663 11.8333Z" fill="currentColor"/>
<path d="M9.333 11.8333C9.20633 11.8333 9.07967 11.7867 8.97967 11.6867C8.78633 11.4933 8.78633 11.1733 8.97967 10.9799L9.95967 9.99999L8.97967 9.01999C8.78633 8.82666 8.78633 8.50659 8.97967 8.31326C9.173 8.11993 9.493 8.11993 9.68633 8.31326L11.0197 9.64659C11.213 9.83993 11.213 10.16 11.0197 10.3533L9.68633 11.6867C9.58633 11.7867 9.45967 11.8333 9.333 11.8333Z" fill="currentColor"/>
</svg>
