<svg width="16" height="16" viewBox="0 0 16 16" fill="none" xmlns="http://www.w3.org/2000/svg">
<g clip-path="url(#clip0_2_5042)">
<path d="M10 15.1667H6C2.38 15.1667 0.833336 13.62 0.833336 9.99999V5.99999C0.833336 2.37999 2.38 0.833328 6 0.833328H10C13.62 0.833328 15.1667 2.37999 15.1667 5.99999V9.99999C15.1667 13.62 13.62 15.1667 10 15.1667ZM6 1.83333C2.92667 1.83333 1.83334 2.92666 1.83334 5.99999V9.99999C1.83334 13.0733 2.92667 14.1667 6 14.1667H10C13.0733 14.1667 14.1667 13.0733 14.1667 9.99999V5.99999C14.1667 2.92666 13.0733 1.83333 10 1.83333H6Z" fill="currentColor"/>
<path d="M10.5 6.49999H5.5C5.22667 6.49999 5 6.27333 5 5.99999C5 5.72666 5.22667 5.49999 5.5 5.49999H10.5C10.7733 5.49999 11 5.72666 11 5.99999C11 6.27333 10.7733 6.49999 10.5 6.49999Z" fill="currentColor"/>
<path d="M10.5 10.5H5.5C5.22667 10.5 5 10.2733 5 9.99999C5 9.72666 5.22667 9.49999 5.5 9.49999H10.5C10.7733 9.49999 11 9.72666 11 9.99999C11 10.2733 10.7733 10.5 10.5 10.5Z" fill="currentColor"/>
</g>
<defs>
<clipPath id="clip0_2_5042">
<rect width="16" height="16" fill="currentColor"/>
</clipPath>
</defs>
</svg>
