<svg width="16" height="16" viewBox="0 0 16 16" fill="none" xmlns="http://www.w3.org/2000/svg">
<g clip-path="url(#clip0_1020_55)">
<path d="M10 15.1667H6.00001C4.15334 15.1667 2.90201 14.776 2.06334 13.9367C1.22468 13.0973 0.833344 11.8467 0.833344 10V6.00001C0.833344 4.15334 1.22401 2.90201 2.06334 2.06334C2.90268 1.22468 4.15334 0.833344 6.00001 0.833344H9.33334C9.46595 0.833344 9.59313 0.886022 9.6869 0.97979C9.78066 1.07356 9.83334 1.20074 9.83334 1.33334C9.83334 1.46595 9.78066 1.59313 9.6869 1.6869C9.59313 1.78067 9.46595 1.83334 9.33334 1.83334H6.00001C4.43601 1.83334 3.40934 2.13334 2.77001 2.77001C2.13068 3.40668 1.83334 4.43601 1.83334 6.00001V10C1.83334 11.564 2.13134 12.5907 2.77001 13.23C3.40868 13.8693 4.43601 14.1667 6.00001 14.1667H10C11.564 14.1667 12.5907 13.8687 13.23 13.23C13.8693 12.5913 14.1667 11.564 14.1667 10V6.66668C14.1667 6.53407 14.2194 6.40689 14.3131 6.31312C14.4069 6.21935 14.5341 6.16668 14.6667 6.16668C14.7993 6.16668 14.9265 6.21935 15.0202 6.31312C15.114 6.40689 15.1667 6.53407 15.1667 6.66668V10C15.1667 11.8467 14.776 13.098 13.9367 13.9367C13.0973 14.7753 11.8467 15.1667 10 15.1667Z" fill="currentColor"/>
<path d="M14.6667 7.16668H12C9.72134 7.16668 8.83334 6.27868 8.83334 4.00001V1.33335C8.83333 1.23444 8.86265 1.13776 8.91759 1.05552C8.97254 0.973288 9.05064 0.909193 9.14201 0.871347C9.23337 0.833587 9.33387 0.823757 9.43082 0.843099C9.52776 0.86244 9.61702 0.909862 9.6869 0.97979L15.0202 6.31312C15.0901 6.38305 15.1374 6.47232 15.1567 6.56926C15.1759 6.66619 15.166 6.76665 15.1282 6.85796C15.0904 6.94927 15.0264 7.02733 14.9442 7.08227C14.8621 7.13722 14.7655 7.16659 14.6667 7.16668ZM9.83334 2.54068V4.00001C9.83334 5.72135 10.2787 6.16668 12 6.16668H13.4593L9.83334 2.54068Z" fill="currentColor"/>
<path d="M7.23666 9.89129C7.23666 10.0231 7.19756 10.152 7.12431 10.2617C7.05106 10.3713 6.94694 10.4567 6.82512 10.5072C6.7033 10.5577 6.56926 10.5709 6.43994 10.5451C6.31062 10.5194 6.19183 10.4559 6.09859 10.3627C6.00536 10.2695 5.94186 10.1507 5.91614 10.0213C5.89042 9.89202 5.90362 9.75798 5.95408 9.63616C6.00454 9.51435 6.08998 9.41023 6.19962 9.33697C6.30925 9.26372 6.43814 9.22462 6.57 9.22462C6.74681 9.22462 6.91638 9.29486 7.0414 9.41988C7.16643 9.54491 7.23666 9.71447 7.23666 9.89129Z" fill="currentColor"/>
<path d="M6.57002 12.2833C6.05696 12.2627 5.55769 12.1113 5.11957 11.8436C4.68145 11.5758 4.31903 11.2005 4.06668 10.7533C3.91511 10.4914 3.8353 10.194 3.8353 9.89134C3.8353 9.58866 3.91511 9.29134 4.06668 9.02934C4.31906 8.58224 4.68151 8.20706 5.11963 7.9394C5.55776 7.67175 6.05701 7.5205 6.57002 7.50001C7.08318 7.52052 7.58259 7.67184 8.02084 7.93962C8.45908 8.20739 8.82161 8.58274 9.07401 9.03001C9.22559 9.292 9.3054 9.58933 9.3054 9.89201C9.3054 10.1947 9.22559 10.492 9.07401 10.754C8.82158 11.2012 8.45902 11.5764 8.02077 11.8441C7.58253 12.1118 7.08313 12.263 6.57002 12.2833ZM6.57002 8.50001C6.2256 8.5229 5.89262 8.63276 5.6022 8.8193C5.31177 9.00584 5.0734 9.26298 4.90935 9.56668C4.8596 9.66756 4.83373 9.77853 4.83373 9.89101C4.83373 10.0035 4.8596 10.1145 4.90935 10.2153C5.0734 10.519 5.31177 10.7762 5.6022 10.9627C5.89262 11.1493 6.2256 11.2591 6.57002 11.282C6.91443 11.2591 7.24741 11.1493 7.53783 10.9627C7.82826 10.7762 8.06663 10.519 8.23068 10.2153C8.28043 10.1145 8.3063 10.0035 8.3063 9.89101C8.3063 9.77853 8.28043 9.66756 8.23068 9.56668C8.06663 9.26298 7.82826 9.00584 7.53783 8.8193C7.24741 8.63276 6.91443 8.5229 6.57002 8.50001Z" fill="currentColor"/>
</g>
<defs>
<clipPath id="clip0_1020_55">
<rect width="16" height="16" fill="currentColor"/>
</clipPath>
</defs>
</svg>
