<svg width="16" height="16" viewBox="0 0 16 16" fill="none" xmlns="http://www.w3.org/2000/svg">
<g clip-path="url(#clip0_1019_9)">
<path d="M10 15.1667H6.00001C2.38001 15.1667 0.833344 13.62 0.833344 10V6.00001C0.833344 2.38001 2.38001 0.833344 6.00001 0.833344H9.33335C9.60668 0.833344 9.83335 1.06001 9.83335 1.33334C9.83335 1.60668 9.60668 1.83334 9.33335 1.83334H6.00001C2.92668 1.83334 1.83334 2.92668 1.83334 6.00001V10C1.83334 13.0733 2.92668 14.1667 6.00001 14.1667H10C13.0733 14.1667 14.1667 13.0733 14.1667 10V6.66668C14.1667 6.39334 14.3933 6.16668 14.6667 6.16668C14.94 6.16668 15.1667 6.39334 15.1667 6.66668V10C15.1667 13.62 13.62 15.1667 10 15.1667Z" fill="currentColor"/>
<path d="M14.6667 7.16668H12C9.72001 7.16668 8.83334 6.28 8.83334 4V1.33334C8.83334 1.13334 8.95334 0.94667 9.14001 0.873337C9.32668 0.793337 9.54001 0.840003 9.68668 0.980003L15.02 6.31334C15.16 6.45334 15.2067 6.67334 15.1267 6.86001C15.0467 7.04668 14.8667 7.16668 14.6667 7.16668ZM9.83334 2.54V4C9.83334 5.72 10.28 6.16667 12 6.16667H13.46L9.83334 2.54Z" fill="currentColor"/>
<path d="M7.96649 11.6383C7.83982 11.6383 7.71315 11.5917 7.61315 11.4917L4.97313 8.85168C4.7798 8.65834 4.7798 8.33834 4.97313 8.14501C5.16647 7.95168 5.48649 7.95168 5.67982 8.14501L8.31982 10.785C8.51315 10.9783 8.51315 11.2983 8.31982 11.4917C8.21982 11.585 8.09315 11.6383 7.96649 11.6383Z" fill="currentColor"/>
<path d="M5.29834 11.6649C5.17167 11.6649 5.04501 11.6182 4.94501 11.5182C4.75168 11.3249 4.75168 11.0049 4.94501 10.8116L7.58504 8.17157C7.77837 7.97824 8.09838 7.97824 8.29171 8.17157C8.48504 8.36491 8.48504 8.68491 8.29171 8.87824L5.65171 11.5182C5.55171 11.6182 5.42504 11.6649 5.29834 11.6649Z" fill="currentColor"/>
</g>
<defs>
<clipPath id="clip0_1019_9">
<rect width="16" height="16" fill="currentColor"/>
</clipPath>
</defs>
</svg>
