<svg width="16" height="16" viewBox="0 0 16 16" fill="none" xmlns="http://www.w3.org/2000/svg">
<path d="M10.6667 15.1667H7.33333C7.06 15.1667 6.83333 14.94 6.83333 14.6667C6.83333 14.3933 7.06 14.1667 7.33333 14.1667H10.6667C12.5733 14.1667 13.5 13.24 13.5 11.3333V4.66666C13.5 2.75999 12.5733 1.83333 10.6667 1.83333H5.33333C3.42667 1.83333 2.5 2.75999 2.5 4.66666V9.33333C2.5 9.60666 2.27333 9.83333 2 9.83333C1.72667 9.83333 1.5 9.60666 1.5 9.33333V4.66666C1.5 2.23333 2.9 0.833328 5.33333 0.833328H10.6667C13.1 0.833328 14.5 2.23333 14.5 4.66666V11.3333C14.5 13.7667 13.1 15.1667 10.6667 15.1667Z" fill="currentColor"/>
<path d="M12.3333 6.16666H11C9.98667 6.16666 9.16667 5.34666 9.16667 4.33333V2.99999C9.16667 2.72666 9.39333 2.49999 9.66667 2.49999C9.94 2.49999 10.1667 2.72666 10.1667 2.99999V4.33333C10.1667 4.79333 10.54 5.16666 11 5.16666H12.3333C12.6067 5.16666 12.8333 5.39333 12.8333 5.66666C12.8333 5.93999 12.6067 6.16666 12.3333 6.16666Z" fill="currentColor"/>
<path d="M2.6663 14.5C2.53963 14.5 2.41297 14.4533 2.31297 14.3533L0.979633 13.02C0.7863 12.8267 0.7863 12.5066 0.979633 12.3133L2.31297 10.9799C2.5063 10.7866 2.8263 10.7866 3.01963 10.9799C3.21297 11.1733 3.21297 11.4933 3.01963 11.6867L2.03963 12.6667L3.01963 13.6466C3.21297 13.8399 3.21297 14.16 3.01963 14.3533C2.91963 14.4533 2.79297 14.5 2.6663 14.5Z" fill="currentColor"/>
<path d="M4.6663 14.5C4.53963 14.5 4.41297 14.4533 4.31297 14.3533C4.11963 14.16 4.11963 13.8399 4.31297 13.6466L5.29297 12.6667L4.31297 11.6867C4.11963 11.4933 4.11963 11.1733 4.31297 10.9799C4.5063 10.7866 4.8263 10.7866 5.01963 10.9799L6.35297 12.3133C6.5463 12.5066 6.5463 12.8267 6.35297 13.02L5.01963 14.3533C4.91963 14.4533 4.79297 14.5 4.6663 14.5Z" fill="currentColor"/>
</svg>
