<svg width="16" height="16" viewBox="0 0 16 16" fill="none" xmlns="http://www.w3.org/2000/svg">
<g clip-path="url(#clip0_2_5310)">
<path d="M6 11.8333C5.93334 11.8333 5.87334 11.82 5.80667 11.7933C5.62 11.72 5.5 11.5333 5.5 11.3333V7.33333C5.5 7.05999 5.72667 6.83333 6 6.83333C6.27334 6.83333 6.5 7.05999 6.5 7.33333V10.1267L6.98 9.64666C7.17334 9.45333 7.49334 9.45333 7.68667 9.64666C7.88 9.83999 7.88 10.16 7.68667 10.3533L6.35334 11.6867C6.26 11.78 6.12667 11.8333 6 11.8333Z" fill="currentColor"/>
<path d="M6 11.8333C5.87334 11.8333 5.7463 11.7866 5.6463 11.6866L4.31297 10.3533C4.11964 10.1599 4.11964 9.83993 4.31297 9.64659C4.5063 9.45326 4.8263 9.45326 5.01964 9.64659L6.35297 10.9799C6.5463 11.1733 6.54667 11.4933 6.35334 11.6867C6.25334 11.7867 6.12667 11.8333 6 11.8333Z" fill="currentColor"/>
<path d="M10 15.1667H6C2.38 15.1667 0.833336 13.62 0.833336 9.99999V5.99999C0.833336 2.37999 2.38 0.833328 6 0.833328H9.33333C9.60667 0.833328 9.83333 1.05999 9.83333 1.33333C9.83333 1.60666 9.60667 1.83333 9.33333 1.83333H6C2.92667 1.83333 1.83334 2.92666 1.83334 5.99999V9.99999C1.83334 13.0733 2.92667 14.1667 6 14.1667H10C13.0733 14.1667 14.1667 13.0733 14.1667 9.99999V6.66666C14.1667 6.39333 14.3933 6.16666 14.6667 6.16666C14.94 6.16666 15.1667 6.39333 15.1667 6.66666V9.99999C15.1667 13.62 13.62 15.1667 10 15.1667Z" fill="currentColor"/>
<path d="M14.6667 7.16666H12C9.72 7.16666 8.83334 6.27999 8.83334 3.99999V1.33332C8.83334 1.13332 8.95334 0.946655 9.14 0.873322C9.32667 0.793322 9.54 0.839988 9.68667 0.979988L15.02 6.31332C15.16 6.45332 15.2067 6.67333 15.1267 6.85999C15.0467 7.04666 14.8667 7.16666 14.6667 7.16666ZM9.83333 2.53999V3.99999C9.83333 5.71999 10.28 6.16666 12 6.16666H13.46L9.83333 2.53999Z" fill="currentColor"/>
</g>
<defs>
<clipPath id="clip0_2_5310">
<rect width="16" height="16" fill="currentColor"/>
</clipPath>
</defs>
</svg>
