<svg width="16" height="16" viewBox="0 0 16 16" fill="none" xmlns="http://www.w3.org/2000/svg">
<g clip-path="url(#clip0_2_5038)">
<path d="M7.6 15.1667H5.06667C2.14 15.1667 0.833336 13.86 0.833336 10.9333V8.39999C0.833336 5.47333 2.14 4.16666 5.06667 4.16666H7.06667C7.34 4.16666 7.56667 4.39333 7.56667 4.66666C7.56667 4.93999 7.34 5.16666 7.06667 5.16666H5.06667C2.68 5.16666 1.83334 6.01333 1.83334 8.39999V10.9333C1.83334 13.32 2.68 14.1667 5.06667 14.1667H7.6C9.98667 14.1667 10.8333 13.32 10.8333 10.9333V8.93333C10.8333 8.65999 11.06 8.43333 11.3333 8.43333C11.6067 8.43333 11.8333 8.65999 11.8333 8.93333V10.9333C11.8333 13.86 10.5267 15.1667 7.6 15.1667Z" fill="currentColor"/>
<path d="M11.3331 9.43333H9.19974C7.3264 9.43333 6.56641 8.67333 6.56641 6.79999V4.66665C6.56641 4.46665 6.6864 4.27999 6.87307 4.20665C7.05974 4.12665 7.27307 4.17332 7.41974 4.31332L11.6864 8.57999C11.8264 8.71999 11.8731 8.93999 11.7931 9.12666C11.7197 9.31333 11.5331 9.43333 11.3331 9.43333ZM7.5664 5.87332V6.79999C7.5664 8.12666 7.87307 8.43333 9.19974 8.43333H10.1264L7.5664 5.87332Z" fill="currentColor"/>
<path d="M10.3997 1.83333H7.73307C7.45974 1.83333 7.23307 1.60666 7.23307 1.33333C7.23307 1.05999 7.45974 0.833328 7.73307 0.833328H10.3997C10.6731 0.833328 10.8997 1.05999 10.8997 1.33333C10.8997 1.60666 10.6731 1.83333 10.3997 1.83333Z" fill="currentColor"/>
<path d="M4.66667 3.83333C4.39334 3.83333 4.16667 3.60666 4.16667 3.33333C4.16667 1.95333 5.28667 0.833328 6.66667 0.833328H8.41334C8.68667 0.833328 8.91334 1.05999 8.91334 1.33333C8.91334 1.60666 8.68667 1.83333 8.41334 1.83333H6.66667C5.84 1.83333 5.16667 2.50666 5.16667 3.33333C5.16667 3.60666 4.94 3.83333 4.66667 3.83333Z" fill="currentColor"/>
<path d="M12.793 11.8333C12.5197 11.8333 12.293 11.6067 12.293 11.3333C12.293 11.06 12.5197 10.8333 12.793 10.8333C13.553 10.8333 14.1663 10.2133 14.1663 9.45999V5.33333C14.1663 5.05999 14.393 4.83333 14.6663 4.83333C14.9397 4.83333 15.1663 5.05999 15.1663 5.33333V9.45999C15.1663 10.7667 14.0997 11.8333 12.793 11.8333Z" fill="currentColor"/>
<path d="M14.6667 5.83332H12.6667C10.8933 5.83332 10.1667 5.10665 10.1667 3.33332V1.33332C10.1667 1.13332 10.2867 0.946655 10.4733 0.873322C10.66 0.793322 10.8733 0.839988 11.02 0.979988L15.02 4.97999C15.16 5.11999 15.2067 5.33999 15.1267 5.52665C15.0533 5.71332 14.8667 5.83332 14.6667 5.83332ZM11.1667 2.53999V3.33332C11.1667 4.55332 11.4467 4.83332 12.6667 4.83332H13.46L11.1667 2.53999Z" fill="currentColor"/>
</g>
<defs>
<clipPath id="clip0_2_5038">
<rect width="16" height="16" fill="currentColor"/>
</clipPath>
</defs>
</svg>
