<svg width="16" height="16" viewBox="0 0 16 16" fill="none" xmlns="http://www.w3.org/2000/svg">
<g clip-path="url(#clip0_2_5039)">
<path d="M6 15.1667C2.38 15.1667 0.833332 13.62 0.833332 10V6C0.833332 2.38 2.38 0.833328 6 0.833328H9.33333C9.60666 0.833328 9.83333 1.05999 9.83333 1.33333C9.83333 1.60666 9.60666 1.83333 9.33333 1.83333H6C2.92667 1.83333 1.83333 2.92666 1.83333 6V10C1.83333 13.0733 2.92667 14.1667 6 14.1667C6.27333 14.1667 6.5 14.3933 6.5 14.6667C6.5 14.94 6.27333 15.1667 6 15.1667Z" fill="currentColor"/>
<path d="M14.6667 9.16666C14.3933 9.16666 14.1667 8.93999 14.1667 8.66666V6.66666C14.1667 6.39333 14.3933 6.16666 14.6667 6.16666C14.94 6.16666 15.1667 6.39333 15.1667 6.66666V8.66666C15.1667 8.93999 14.94 9.16666 14.6667 9.16666Z" fill="currentColor"/>
<path d="M14.6667 7.16666H12C9.72 7.16666 8.83333 6.27999 8.83333 3.99999V1.33332C8.83333 1.13332 8.95333 0.946655 9.14 0.873322C9.32666 0.793322 9.54 0.839988 9.68666 0.979988L15.02 6.31332C15.16 6.45332 15.2067 6.67333 15.1267 6.85999C15.0467 7.04666 14.8667 7.16666 14.6667 7.16666ZM9.83333 2.53999V3.99999C9.83333 5.71999 10.28 6.16666 12 6.16666H13.46L9.83333 2.53999Z" fill="currentColor"/>
<path d="M12.8933 15.1669C12.8867 15.1669 12.88 15.1669 12.88 15.1669H9.17333C8.06 15.0869 7.5 14.2335 7.5 13.4202C7.5 12.7669 7.86666 12.0802 8.57333 11.8002C8.42666 10.9669 8.64 10.1935 9.19333 9.61353C9.87333 8.9002 10.9667 8.61353 11.9133 8.90686C12.74 9.1602 13.3333 9.81353 13.58 10.7202C14.28 10.9335 14.8333 11.4869 15.06 12.2402C15.3267 13.1135 15.08 14.0069 14.42 14.5802C14.0133 14.9535 13.4667 15.1669 12.8933 15.1669ZM9.19333 12.6735C8.68667 12.7202 8.5 13.1002 8.5 13.4202C8.5 13.7402 8.68667 14.1269 9.20667 14.1669H12.88C13.22 14.1469 13.52 14.0469 13.76 13.8335C14.1933 13.4535 14.2267 12.9135 14.1067 12.5269C13.9867 12.1402 13.66 11.7069 13.1 11.6335C12.88 11.6069 12.7067 11.4402 12.6667 11.2202C12.52 10.3202 12.0133 9.98686 11.62 9.86686C11.04 9.68686 10.34 9.86686 9.92 10.3135C9.63333 10.6135 9.35333 11.1535 9.66667 12.0135C9.76 12.2735 9.62667 12.5602 9.36666 12.6535C9.30667 12.6669 9.24667 12.6735 9.19333 12.6735Z" fill="currentColor"/>
</g>
<defs>
<clipPath id="clip0_2_5039">
<rect width="16" height="16" fill="currentColor"/>
</clipPath>
</defs>
</svg>
