<svg width="16" height="16" viewBox="0 0 16 16" fill="none" xmlns="http://www.w3.org/2000/svg">
<path d="M10.6667 15.1667H5.33333C2.9 15.1667 1.5 13.7667 1.5 11.3333V4.66666C1.5 2.23333 2.9 0.833328 5.33333 0.833328H10.6667C13.1 0.833328 14.5 2.23333 14.5 4.66666V11.3333C14.5 13.7667 13.1 15.1667 10.6667 15.1667ZM5.33333 1.83333C3.42667 1.83333 2.5 2.75999 2.5 4.66666V11.3333C2.5 13.24 3.42667 14.1667 5.33333 14.1667H10.6667C12.5733 14.1667 13.5 13.24 13.5 11.3333V4.66666C13.5 2.75999 12.5733 1.83333 10.6667 1.83333H5.33333Z" fill="currentColor"/>
<path d="M12.3333 6.16666H11C9.98667 6.16666 9.16667 5.34666 9.16667 4.33333V2.99999C9.16667 2.72666 9.39333 2.49999 9.66667 2.49999C9.94 2.49999 10.1667 2.72666 10.1667 2.99999V4.33333C10.1667 4.79333 10.54 5.16666 11 5.16666H12.3333C12.6067 5.16666 12.8333 5.39333 12.8333 5.66666C12.8333 5.93999 12.6067 6.16666 12.3333 6.16666Z" fill="currentColor"/>
<path d="M6.84593 12.48C6.25925 12.4667 4.91925 11.7533 4.51258 10.48C4.22591 9.59333 4.55926 8.42006 5.58593 8.08673C6.02593 7.94673 6.47926 8.00673 6.83927 8.23339C7.19927 8.00673 7.65927 7.94673 8.10593 8.08673C9.1326 8.42006 9.46593 9.58666 9.1926 10.48C8.77927 11.8 7.35927 12.48 6.84593 12.48ZM5.46593 10.1734C5.74593 11.0334 6.69927 11.46 6.8726 11.48C7.0526 11.46 7.98593 11.0001 8.23927 10.1734C8.3726 9.73339 8.2326 9.17339 7.79927 9.03339C7.62593 8.98006 7.37927 9.00673 7.26593 9.18006C7.17927 9.32006 7.01927 9.40673 6.85927 9.40673C6.66593 9.40673 6.53926 9.33339 6.43926 9.19339C6.30593 9.00673 6.06592 8.98006 5.89259 9.03339C5.46592 9.17339 5.32593 9.74006 5.46593 10.1734Z" fill="currentColor"/>
</svg>
