<svg width="16" height="16" viewBox="0 0 16 16" fill="none" xmlns="http://www.w3.org/2000/svg">
<g clip-path="url(#clip0_1019_28)">
<path d="M10 15.1667H6.00001C2.38001 15.1667 0.833344 13.62 0.833344 10V6.00001C0.833344 2.38001 2.38001 0.833344 6.00001 0.833344H9.33335C9.60668 0.833344 9.83335 1.06001 9.83335 1.33334C9.83335 1.60668 9.60668 1.83334 9.33335 1.83334H6.00001C2.92668 1.83334 1.83334 2.92668 1.83334 6.00001V10C1.83334 13.0733 2.92668 14.1667 6.00001 14.1667H10C13.0733 14.1667 14.1667 13.0733 14.1667 10V6.66668C14.1667 6.39334 14.3933 6.16668 14.6667 6.16668C14.94 6.16668 15.1667 6.39334 15.1667 6.66668V10C15.1667 13.62 13.62 15.1667 10 15.1667Z" fill="currentColor"/>
<path d="M14.6667 7.16668H12C9.72001 7.16668 8.83334 6.28 8.83334 4V1.33334C8.83334 1.13334 8.95334 0.94667 9.14001 0.873337C9.32668 0.793337 9.54001 0.840003 9.68668 0.980003L15.02 6.31334C15.16 6.45334 15.2067 6.67334 15.1267 6.86001C15.0467 7.04668 14.8667 7.16668 14.6667 7.16668ZM9.83334 2.54V4C9.83334 5.72 10.28 6.16667 12 6.16667H13.46L9.83334 2.54Z" fill="currentColor"/>
<path d="M6.50001 13C4.75334 13 3.33334 11.58 3.33334 9.83334C3.33334 8.86001 3.76668 7.96001 4.52001 7.36001C5.08001 6.91334 5.78668 6.66668 6.50001 6.66668C8.24668 6.66668 9.66668 8.08668 9.66668 9.83334C9.66668 10.74 9.27334 11.6067 8.58668 12.2067C8.00668 12.72 7.26668 13 6.50001 13ZM6.50001 7.66668C6.00668 7.66668 5.54001 7.83334 5.14668 8.14668C4.63334 8.55334 4.33334 9.17334 4.33334 9.83334C4.33334 11.0267 5.30668 12 6.50001 12C7.02001 12 7.52668 11.8067 7.93334 11.46C8.40001 11.0467 8.66668 10.46 8.66668 9.83334C8.66668 8.64001 7.69334 7.66668 6.50001 7.66668Z" fill="currentColor"/>
<path d="M5.83327 11C5.6666 11 5.49993 10.9133 5.4066 10.76C5.2666 10.52 5.33993 10.2133 5.57993 10.0733L6.17326 9.72001V9.00001C6.17326 8.72668 6.39993 8.50001 6.67326 8.50001C6.9466 8.50001 7.17326 8.72668 7.17326 9.00001V10C7.17326 10.1733 7.07993 10.34 6.93327 10.4267L6.09993 10.9267C6.0066 10.98 5.91993 11 5.83327 11Z" fill="currentColor"/>
</g>
<defs>
<clipPath id="clip0_1019_28">
<rect width="16" height="16" fill="currentColor"/>
</clipPath>
</defs>
</svg>
