<svg width="16" height="16" viewBox="0 0 16 16" fill="none" xmlns="http://www.w3.org/2000/svg">
<g clip-path="url(#clip0_2_5032)">
<path d="M4.72001 10.7335C4.48001 10.7335 4.24001 10.6735 4.02001 10.5469C3.57335 10.2935 3.30667 9.84013 3.30667 9.33346V6.95346C3.30667 6.78013 3.19334 6.48683 3.05334 6.32017L1.37333 4.55348C1.05999 4.24681 0.833328 3.71349 0.833328 3.30682V2.27349C0.833328 1.46683 1.44665 0.826813 2.23331 0.826813H8.16666C8.93999 0.826813 9.56666 1.45349 9.56666 2.22682V3.21349C9.56666 3.73349 9.26666 4.30682 8.97333 4.60015L7.01999 6.32681C6.86666 6.45348 6.73999 6.76019 6.73999 6.98686V8.92013C6.73999 9.38013 6.46 9.89353 6.09333 10.1135L5.47997 10.5135C5.23997 10.6601 4.98001 10.7335 4.72001 10.7335ZM2.23331 1.83349C2.00665 1.83349 1.83333 2.02683 1.83333 2.28017V3.31349C1.83333 3.42683 1.94667 3.71349 2.09333 3.86016L3.81331 5.66682C4.06664 5.98015 4.31331 6.49349 4.31331 6.95346V9.33346C4.31331 9.53346 4.44001 9.63353 4.52001 9.67353C4.62668 9.73353 4.79998 9.76686 4.94665 9.67353L5.56665 9.27346C5.64665 9.22679 5.73999 9.04019 5.73999 8.92686V6.99346C5.73999 6.46681 5.99999 5.88681 6.36665 5.57348L8.28666 3.87349C8.40666 3.75349 8.56666 3.42683 8.56666 3.21349V2.22682C8.56666 2.00682 8.38666 1.82681 8.16666 1.82681H2.23331V1.83349Z" fill="currentColor"/>
<path d="M9.99999 15.1667H5.99999C2.37999 15.1667 0.833328 13.62 0.833328 9.99999V7.99999C0.833328 7.72666 1.05999 7.49999 1.33333 7.49999C1.60666 7.49999 1.83333 7.72666 1.83333 7.99999V9.99999C1.83333 13.0733 2.92666 14.1667 5.99999 14.1667H9.99999C13.0733 14.1667 14.1667 13.0733 14.1667 9.99999V5.99999C14.1667 4.06665 13.7133 2.94665 12.6933 2.36665C12.5867 2.30665 12.2333 2.14666 11.22 1.98666C10.9467 1.94666 10.76 1.68665 10.8067 1.41331C10.8533 1.13998 11.1133 0.953319 11.38 0.999986C12.2533 1.13999 12.8467 1.29998 13.1867 1.49331C14.5333 2.25998 15.1667 3.69332 15.1667 5.99999V9.99999C15.1667 13.62 13.62 15.1667 9.99999 15.1667Z" fill="currentColor"/>
<path d="M12 9.16666H8.66666C8.39333 9.16666 8.16666 8.93999 8.16666 8.66666C8.16666 8.39333 8.39333 8.16666 8.66666 8.16666H12C12.2733 8.16666 12.5 8.39333 12.5 8.66666C12.5 8.93999 12.2733 9.16666 12 9.16666Z" fill="currentColor"/>
<path d="M12 11.8333H7.33333C7.05999 11.8333 6.83333 11.6067 6.83333 11.3333C6.83333 11.06 7.05999 10.8333 7.33333 10.8333H12C12.2733 10.8333 12.5 11.06 12.5 11.3333C12.5 11.6067 12.2733 11.8333 12 11.8333Z" fill="currentColor"/>
</g>
<defs>
<clipPath id="clip0_2_5032">
<rect width="16" height="16" fill="currentColor"/>
</clipPath>
</defs>
</svg>
