<svg width="16" height="16" viewBox="0 0 16 16" fill="none" xmlns="http://www.w3.org/2000/svg">
<g clip-path="url(#clip0_2_4775)">
<path d="M5.99964 11.8333C5.72631 11.8333 5.49964 11.6067 5.49964 11.3333V8.53999L5.01964 9.01999C4.82631 9.21333 4.50631 9.21333 4.31298 9.01999C4.11964 8.82666 4.11964 8.50666 4.31298 8.31333L5.64631 6.97999C5.78631 6.83999 6.00631 6.79333 6.19298 6.87333C6.37964 6.94666 6.49964 7.13333 6.49964 7.33333V11.3333C6.49964 11.6067 6.27298 11.8333 5.99964 11.8333Z" fill="currentColor"/>
<path d="M7.33301 9.16659C7.20634 9.16659 7.07968 9.11993 6.97968 9.01993L5.64631 7.68659C5.45298 7.49326 5.45298 7.17333 5.64631 6.97999C5.83964 6.78666 6.15964 6.78659 6.35298 6.97993L7.68634 8.31326C7.87968 8.50659 7.87968 8.82659 7.68634 9.01993C7.58634 9.11993 7.45968 9.16659 7.33301 9.16659Z" fill="currentColor"/>
<path d="M10 15.1667H6.00001C2.38001 15.1667 0.833344 13.62 0.833344 9.99999V5.99999C0.833344 2.37999 2.38001 0.833328 6.00001 0.833328H9.33334C9.60668 0.833328 9.83334 1.05999 9.83334 1.33333C9.83334 1.60666 9.60668 1.83333 9.33334 1.83333H6.00001C2.92668 1.83333 1.83334 2.92666 1.83334 5.99999V9.99999C1.83334 13.0733 2.92668 14.1667 6.00001 14.1667H10C13.0733 14.1667 14.1667 13.0733 14.1667 9.99999V6.66666C14.1667 6.39333 14.3933 6.16666 14.6667 6.16666C14.94 6.16666 15.1667 6.39333 15.1667 6.66666V9.99999C15.1667 13.62 13.62 15.1667 10 15.1667Z" fill="currentColor"/>
<path d="M14.6667 7.16666H12C9.72001 7.16666 8.83334 6.27999 8.83334 3.99999V1.33332C8.83334 1.13332 8.95334 0.946655 9.14001 0.873322C9.32668 0.793322 9.54001 0.839988 9.68668 0.979988L15.02 6.31332C15.16 6.45332 15.2067 6.67333 15.1267 6.85999C15.0467 7.04666 14.8667 7.16666 14.6667 7.16666ZM9.83334 2.53999V3.99999C9.83334 5.71999 10.28 6.16666 12 6.16666H13.46L9.83334 2.53999Z" fill="currentColor"/>
</g>
<defs>
<clipPath id="clip0_2_4775">
<rect width="16" height="16" fill="currentColor"/>
</clipPath>
</defs>
</svg>
