<svg width="16" height="16" viewBox="0 0 16 16" fill="none" xmlns="http://www.w3.org/2000/svg">
<g clip-path="url(#clip0_2_4596)">
<path d="M8.93345 11.6134H7.26011C6.16675 11.6134 5.28009 10.6934 5.28009 9.56006C5.28009 9.28673 5.50675 9.06006 5.78009 9.06006C6.05342 9.06006 6.28009 9.28673 6.28009 9.56006C6.28009 10.1401 6.72011 10.6134 7.26011 10.6134H8.93345C9.36678 10.6134 9.72678 10.2267 9.72678 9.76006C9.72678 9.18006 9.52011 9.06673 9.18011 8.94673L6.49342 8.00006C5.97342 7.82006 5.27342 7.43339 5.27342 6.24005C5.27342 5.21338 6.08009 4.38671 7.06678 4.38671H8.74011C9.83345 4.38671 10.7201 5.30671 10.7201 6.44005C10.7201 6.71339 10.4934 6.94006 10.2201 6.94006C9.94678 6.94006 9.72011 6.71339 9.72011 6.44005C9.72011 5.86005 9.28011 5.38671 8.74011 5.38671H7.06678C6.63342 5.38671 6.27342 5.77338 6.27342 6.24005C6.27342 6.82006 6.48009 6.93339 6.82011 7.05339L9.50678 8.00006C10.0268 8.18006 10.7268 8.56673 10.7268 9.76006C10.7201 10.7801 9.92011 11.6134 8.93345 11.6134Z" fill="currentColor"/>
<path d="M7.99998 12.5C7.72665 12.5 7.49998 12.2733 7.49998 12V3.99999C7.49998 3.72666 7.72665 3.49999 7.99998 3.49999C8.27331 3.49999 8.49998 3.72666 8.49998 3.99999V12C8.49998 12.2733 8.27331 12.5 7.99998 12.5Z" fill="currentColor"/>
<path d="M9.99998 15.1667H5.99998C2.37998 15.1667 0.833313 13.62 0.833313 9.99999V5.99999C0.833313 2.37999 2.37998 0.833328 5.99998 0.833328H9.99998C13.62 0.833328 15.1666 2.37999 15.1666 5.99999V9.99999C15.1666 13.62 13.62 15.1667 9.99998 15.1667ZM5.99998 1.83333C2.92665 1.83333 1.83331 2.92666 1.83331 5.99999V9.99999C1.83331 13.0733 2.92665 14.1667 5.99998 14.1667H9.99998C13.0733 14.1667 14.1666 13.0733 14.1666 9.99999V5.99999C14.1666 2.92666 13.0733 1.83333 9.99998 1.83333H5.99998Z" fill="currentColor"/>
</g>
<defs>
<clipPath id="clip0_2_4596">
<rect width="16" height="16" fill="currentColor"/>
</clipPath>
</defs>
</svg>
