<svg width="16" height="16" viewBox="0 0 16 16" fill="none" xmlns="http://www.w3.org/2000/svg">
<g clip-path="url(#clip0_2_5023)">
<path d="M8.93348 11.6134H7.26014C6.16678 11.6134 5.28012 10.6934 5.28012 9.56006C5.28012 9.28673 5.50678 9.06006 5.78012 9.06006C6.05345 9.06006 6.28012 9.28673 6.28012 9.56006C6.28012 10.1401 6.72014 10.6134 7.26014 10.6134H8.93348C9.36681 10.6134 9.72681 10.2267 9.72681 9.76006C9.72681 9.18006 9.52014 9.06673 9.18014 8.94673L6.49345 8.00006C5.97345 7.82006 5.27345 7.43339 5.27345 6.24005C5.27345 5.21338 6.08012 4.38671 7.06681 4.38671H8.74014C9.83348 4.38671 10.7201 5.30671 10.7201 6.44005C10.7201 6.71339 10.4935 6.94006 10.2201 6.94006C9.94681 6.94006 9.72014 6.71339 9.72014 6.44005C9.72014 5.86005 9.28014 5.38671 8.74014 5.38671H7.06681C6.63345 5.38671 6.27345 5.77338 6.27345 6.24005C6.27345 6.82006 6.48012 6.93339 6.82014 7.05339L9.50681 8.00006C10.0268 8.18006 10.7268 8.56673 10.7268 9.76006C10.7201 10.7801 9.92014 11.6134 8.93348 11.6134Z" fill="currentColor"/>
<path d="M8.00001 12.5C7.72668 12.5 7.50001 12.2733 7.50001 12V3.99999C7.50001 3.72666 7.72668 3.49999 8.00001 3.49999C8.27334 3.49999 8.50001 3.72666 8.50001 3.99999V12C8.50001 12.2733 8.27334 12.5 8.00001 12.5Z" fill="currentColor"/>
<path d="M8.00001 15.1667C4.04668 15.1667 0.833344 11.9533 0.833344 7.99999C0.833344 4.04666 4.04668 0.833328 8.00001 0.833328C11.9533 0.833328 15.1667 4.04666 15.1667 7.99999C15.1667 11.9533 11.9533 15.1667 8.00001 15.1667ZM8.00001 1.83333C4.60001 1.83333 1.83334 4.59999 1.83334 7.99999C1.83334 11.4 4.60001 14.1667 8.00001 14.1667C11.4 14.1667 14.1667 11.4 14.1667 7.99999C14.1667 4.59999 11.4 1.83333 8.00001 1.83333Z" fill="currentColor"/>
</g>
<defs>
<clipPath id="clip0_2_5023">
<rect width="16" height="16" fill="currentColor"/>
</clipPath>
</defs>
</svg>
