<svg width="16" height="16" viewBox="0 0 16 16" fill="none" xmlns="http://www.w3.org/2000/svg">
<g clip-path="url(#clip0_2_5020)">
<path d="M3.99998 5.99999C3.72665 5.99999 3.49998 5.77333 3.49998 5.49999V4.16666C3.49998 3.89333 3.72665 3.66666 3.99998 3.66666C4.27331 3.66666 4.49998 3.89333 4.49998 4.16666V5.49999C4.49998 5.77333 4.27331 5.99999 3.99998 5.99999Z" fill="currentColor"/>
<path d="M7.99998 15.1667H5.99998C2.37998 15.1667 0.833313 13.62 0.833313 9.99999V5.99999C0.833313 2.37999 2.37998 0.833328 5.99998 0.833328H9.99998C13.62 0.833328 15.1666 2.37999 15.1666 5.99999V7.99999C15.1666 8.27333 14.94 8.49999 14.6666 8.49999C14.3933 8.49999 14.1666 8.27333 14.1666 7.99999V5.99999C14.1666 2.92666 13.0733 1.83333 9.99998 1.83333H5.99998C2.92665 1.83333 1.83331 2.92666 1.83331 5.99999V9.99999C1.83331 13.0733 2.92665 14.1667 5.99998 14.1667H7.99998C8.27331 14.1667 8.49998 14.3933 8.49998 14.6667C8.49998 14.94 8.27331 15.1667 7.99998 15.1667Z" fill="currentColor"/>
<path d="M6.66665 5.99999C6.39331 5.99999 6.16665 5.77333 6.16665 5.49999V4.16666C6.16665 3.89333 6.39331 3.66666 6.66665 3.66666C6.93998 3.66666 7.16665 3.89333 7.16665 4.16666V5.49999C7.16665 5.77333 6.93998 5.99999 6.66665 5.99999Z" fill="currentColor"/>
<path d="M3.99998 12.5C3.72665 12.5 3.49998 12.2733 3.49998 12V10.6667C3.49998 10.3933 3.72665 10.1667 3.99998 10.1667C4.27331 10.1667 4.49998 10.3933 4.49998 10.6667V12C4.49998 12.2733 4.27331 12.5 3.99998 12.5Z" fill="currentColor"/>
<path d="M6.66665 12.5C6.39331 12.5 6.16665 12.2733 6.16665 12V10.6667C6.16665 10.3933 6.39331 10.1667 6.66665 10.1667C6.93998 10.1667 7.16665 10.3933 7.16665 10.6667V12C7.16665 12.2733 6.93998 12.5 6.66665 12.5Z" fill="currentColor"/>
<path d="M12 5.33333H9.33331C9.05998 5.33333 8.83331 5.10666 8.83331 4.83333C8.83331 4.55999 9.05998 4.33333 9.33331 4.33333H12C12.2733 4.33333 12.5 4.55999 12.5 4.83333C12.5 5.10666 12.2733 5.33333 12 5.33333Z" fill="currentColor"/>
<path d="M14.6666 8.49999H1.33331C1.05998 8.49999 0.833313 8.27333 0.833313 7.99999C0.833313 7.72666 1.05998 7.49999 1.33331 7.49999H14.6666C14.94 7.49999 15.1666 7.72666 15.1666 7.99999C15.1666 8.27333 14.94 8.49999 14.6666 8.49999Z" fill="currentColor"/>
<path fill-rule="evenodd" clip-rule="evenodd" d="M9.33335 12.9933C9.33335 12.7724 9.51244 12.5933 9.73335 12.5933H11.0667C11.2876 12.5933 11.4667 12.7724 11.4667 12.9933C11.4667 13.2142 11.2876 13.3933 11.0667 13.3933H10.6229C10.9028 13.6192 11.2547 13.8 11.66 13.8C12.3122 13.8 12.8826 13.4472 13.1869 12.92C13.2974 12.7287 13.542 12.6631 13.7333 12.7736C13.9247 12.884 13.9902 13.1286 13.8798 13.32C13.4375 14.0861 12.6078 14.6 11.66 14.6C11.019 14.6 10.5009 14.3194 10.1334 14.0261V14.2333C10.1334 14.4542 9.95427 14.6333 9.73335 14.6333C9.51244 14.6333 9.33335 14.4542 9.33335 14.2333V13.0071C9.33328 13.0026 9.33328 12.9978 9.33335 12.9933Z" fill="currentColor"/>
<path d="M13.9334 10.9733C13.9334 11.1942 13.7543 11.3733 13.5334 11.3733H12.2C11.9791 11.3733 11.8 11.1942 11.8 10.9733C11.8 10.7524 11.9791 10.5733 12.2 10.5733H12.6439C12.3639 10.3474 12.0121 10.1667 11.6067 10.1667C10.9545 10.1667 10.3842 10.5195 10.0798 11.0467C9.96934 11.238 9.72471 11.3035 9.53339 11.1931C9.34207 11.0826 9.27651 10.838 9.38696 10.6467C9.82927 9.88053 10.6589 9.36666 11.6067 9.36666C12.2477 9.36666 12.7658 9.64724 13.1334 9.94049V9.73333C13.1334 9.51241 13.3125 9.33333 13.5334 9.33333C13.7543 9.33333 13.9334 9.51241 13.9334 9.73333V10.9733Z" fill="currentColor"/>
</g>
<defs>
<clipPath id="clip0_2_5020">
<rect width="16" height="16" fill="currentColor"/>
</clipPath>
</defs>
</svg>
