<svg width="16" height="16" viewBox="0 0 16 16" fill="none" xmlns="http://www.w3.org/2000/svg">
<g clip-path="url(#clip0_2_5018)">
<path d="M11.867 5.78665H4.13369C3.98036 5.78665 3.84035 5.72001 3.74702 5.60001C3.65369 5.48001 3.61369 5.32667 3.64702 5.18001L4.19369 2.56665C4.37368 1.70665 4.76702 0.833328 6.30036 0.833328H9.70033C11.2403 0.833328 11.6337 1.71332 11.807 2.56665L12.3537 5.18001C12.387 5.32667 12.347 5.48001 12.2537 5.60001C12.1603 5.72001 12.0203 5.78665 11.867 5.78665ZM4.74702 4.78665H11.247L10.827 2.77998C10.6937 2.13998 10.5403 1.84 9.69366 1.84H6.29369C5.45369 1.84 5.2937 2.13998 5.16036 2.77998L4.74702 4.78665Z" fill="currentColor"/>
<path d="M11.8469 11.1H10.9402C10.0602 11.1 9.8802 10.5533 9.7802 10.26L9.6802 9.96666C9.57353 9.64666 9.57353 9.6466 9.23353 9.6466H6.7602C6.42022 9.6466 6.42022 9.65333 6.31355 9.96666L6.21356 10.26C6.11356 10.5533 5.93355 11.1 5.05355 11.1H4.14689C3.72689 11.1 3.32022 10.9199 3.04022 10.6133C2.76688 10.3133 2.62688 9.9066 2.66688 9.49993L2.94022 6.55997C3.02689 5.63997 3.32688 4.78662 4.91355 4.78662H11.0802C12.6669 4.78662 12.9669 5.63997 13.0535 6.55997L13.3269 9.5066C13.3669 9.91326 13.2269 10.3199 12.9535 10.6199C12.6735 10.9266 12.2669 11.1 11.8469 11.1ZM10.7869 10.0933C10.8002 10.0933 10.8535 10.1 10.9402 10.1H11.8469C11.9869 10.1 12.1202 10.0466 12.2135 9.93993C12.3002 9.84659 12.3402 9.72 12.3335 9.59333L12.0602 6.6466C12.0069 6.05327 11.9802 5.77994 11.0869 5.77994H4.92022C4.02689 5.77994 4.00022 6.05327 3.94688 6.6466L3.67355 9.59333C3.66022 9.72 3.70022 9.84659 3.79356 9.93993C3.88689 10.0399 4.02023 10.1 4.16023 10.1H5.06689C5.20022 10.1 5.24022 10.0799 5.24688 10.0799C5.24022 10.0799 5.26022 9.99993 5.28022 9.9466L5.38022 9.65326C5.50689 9.27993 5.71356 8.6466 6.77353 8.6466H9.24687C10.2135 8.6466 10.4602 9.12 10.6335 9.64L10.7335 9.93993C10.7469 9.99993 10.7669 10.0667 10.7869 10.0933Z" fill="currentColor"/>
<path d="M4.1338 4.33333H3.64713C3.3738 4.33333 3.14713 4.10666 3.14713 3.83333C3.14713 3.55999 3.3738 3.33333 3.64713 3.33333H4.1338C4.40713 3.33333 4.6338 3.55999 4.6338 3.83333C4.6338 4.10666 4.40713 4.33333 4.1338 4.33333Z" fill="currentColor"/>
<path d="M12.3539 4.33333H11.8672C11.5939 4.33333 11.3672 4.10666 11.3672 3.83333C11.3672 3.55999 11.5939 3.33333 11.8672 3.33333H12.3539C12.6272 3.33333 12.8539 3.55999 12.8539 3.83333C12.8539 4.10666 12.6272 4.33333 12.3539 4.33333Z" fill="currentColor"/>
<path d="M6.54708 7.72006H5.09374C4.82042 7.72006 4.59374 7.4934 4.59374 7.22006C4.59374 6.94673 4.82042 6.72006 5.09374 6.72006H6.54708C6.8204 6.72006 7.04706 6.94673 7.04706 7.22006C7.04706 7.4934 6.82706 7.72006 6.54708 7.72006Z" fill="currentColor"/>
<path d="M10.8999 7.72006H9.4466C9.17326 7.72006 8.9466 7.4934 8.9466 7.22006C8.9466 6.94673 9.17326 6.72006 9.4466 6.72006H10.8999C11.1733 6.72006 11.3999 6.94673 11.3999 7.22006C11.3999 7.4934 11.1733 7.72006 10.8999 7.72006Z" fill="currentColor"/>
<path d="M8 12.5C7.72666 12.5 7.5 12.2733 7.5 12V11.3333C7.5 11.06 7.72666 10.8333 8 10.8333C8.27333 10.8333 8.5 11.06 8.5 11.3333V12C8.5 12.2733 8.27333 12.5 8 12.5Z" fill="currentColor"/>
<path d="M8 15.1667C7.72666 15.1667 7.5 14.94 7.5 14.6667V14C7.5 13.7267 7.72666 13.5 8 13.5C8.27333 13.5 8.5 13.7267 8.5 14V14.6667C8.5 14.94 8.27333 15.1667 8 15.1667Z" fill="currentColor"/>
<path d="M1.33339 15.1667C1.29339 15.1667 1.2534 15.1601 1.2134 15.1534C0.946732 15.0867 0.780065 14.8134 0.846732 14.5467L1.5134 11.8801C1.58007 11.6134 1.84672 11.4467 2.12006 11.5134C2.38672 11.5801 2.55339 11.8534 2.48672 12.1201L1.82006 14.7867C1.76006 15.0134 1.56006 15.1667 1.33339 15.1667Z" fill="currentColor"/>
<path d="M14.6671 15.1666C14.4405 15.1666 14.2405 15.0133 14.1805 14.7866L13.5138 12.1199C13.4471 11.8533 13.6071 11.5799 13.8805 11.5133C14.1471 11.4466 14.4205 11.6066 14.4871 11.8799L15.1538 14.5466C15.2205 14.8133 15.0605 15.0866 14.7871 15.1533C14.7471 15.1599 14.7071 15.1666 14.6671 15.1666Z" fill="currentColor"/>
</g>
<defs>
<clipPath id="clip0_2_5018">
<rect width="16" height="16" fill="currentColor"/>
</clipPath>
</defs>
</svg>
