<svg width="16" height="16" viewBox="0 0 16 16" fill="none" xmlns="http://www.w3.org/2000/svg">
<g clip-path="url(#clip0_2_5417)">
<path d="M3.99998 5.99999C3.72665 5.99999 3.49998 5.77333 3.49998 5.49999V4.16666C3.49998 3.89333 3.72665 3.66666 3.99998 3.66666C4.27331 3.66666 4.49998 3.89333 4.49998 4.16666V5.49999C4.49998 5.77333 4.27331 5.99999 3.99998 5.99999Z" fill="currentColor"/>
<path d="M6.66665 5.99999C6.39331 5.99999 6.16665 5.77333 6.16665 5.49999V4.16666C6.16665 3.89333 6.39331 3.66666 6.66665 3.66666C6.93998 3.66666 7.16665 3.89333 7.16665 4.16666V5.49999C7.16665 5.77333 6.93998 5.99999 6.66665 5.99999Z" fill="currentColor"/>
<path d="M9.99998 15.1667H5.99998C2.37998 15.1667 0.833313 13.62 0.833313 9.99999V5.99999C0.833313 2.37999 2.37998 0.833328 5.99998 0.833328H9.99998C13.62 0.833328 15.1666 2.37999 15.1666 5.99999V9.99999C15.1666 13.62 13.62 15.1667 9.99998 15.1667ZM5.99998 1.83333C2.92665 1.83333 1.83331 2.92666 1.83331 5.99999V9.99999C1.83331 13.0733 2.92665 14.1667 5.99998 14.1667H9.99998C13.0733 14.1667 14.1666 13.0733 14.1666 9.99999V5.99999C14.1666 2.92666 13.0733 1.83333 9.99998 1.83333H5.99998Z" fill="currentColor"/>
<path d="M3.99998 12.5C3.72665 12.5 3.49998 12.2733 3.49998 12V10.6667C3.49998 10.3933 3.72665 10.1667 3.99998 10.1667C4.27331 10.1667 4.49998 10.3933 4.49998 10.6667V12C4.49998 12.2733 4.27331 12.5 3.99998 12.5Z" fill="currentColor"/>
<path d="M6.66665 12.5C6.39331 12.5 6.16665 12.2733 6.16665 12V10.6667C6.16665 10.3933 6.39331 10.1667 6.66665 10.1667C6.93998 10.1667 7.16665 10.3933 7.16665 10.6667V12C7.16665 12.2733 6.93998 12.5 6.66665 12.5Z" fill="currentColor"/>
<path d="M12 5.33333H9.33331C9.05998 5.33333 8.83331 5.10666 8.83331 4.83333C8.83331 4.55999 9.05998 4.33333 9.33331 4.33333H12C12.2733 4.33333 12.5 4.55999 12.5 4.83333C12.5 5.10666 12.2733 5.33333 12 5.33333Z" fill="currentColor"/>
<path d="M12 11.8333H9.33331C9.05998 11.8333 8.83331 11.6067 8.83331 11.3333C8.83331 11.06 9.05998 10.8333 9.33331 10.8333H12C12.2733 10.8333 12.5 11.06 12.5 11.3333C12.5 11.6067 12.2733 11.8333 12 11.8333Z" fill="currentColor"/>
<path d="M14.6666 8.49999H1.33331C1.05998 8.49999 0.833313 8.27333 0.833313 7.99999C0.833313 7.72666 1.05998 7.49999 1.33331 7.49999H14.6666C14.94 7.49999 15.1666 7.72666 15.1666 7.99999C15.1666 8.27333 14.94 8.49999 14.6666 8.49999Z" fill="currentColor"/>
</g>
<defs>
<clipPath id="clip0_2_5417">
<rect width="16" height="16" fill="currentColor"/>
</clipPath>
</defs>
</svg>
