<svg width="16" height="16" viewBox="0 0 16 16" fill="none" xmlns="http://www.w3.org/2000/svg">
<g clip-path="url(#clip0_2_4771)">
<path d="M12.8799 7.16667H3.12651C1.86651 7.16667 0.839844 6.14002 0.839844 4.88002V3.12669C0.839844 1.86669 1.86651 0.840012 3.12651 0.840012H12.8799C14.1399 0.840012 15.1665 1.86669 15.1665 3.12669V4.88002C15.1665 6.14002 14.1399 7.16667 12.8799 7.16667ZM3.11984 1.83335C2.4065 1.83335 1.83318 2.41334 1.83318 3.12001V4.87335C1.83318 5.58668 2.41317 6.16002 3.11984 6.16002H12.8732C13.5865 6.16002 14.1599 5.58001 14.1599 4.87335V3.12001C14.1599 2.40668 13.5799 1.83335 12.8732 1.83335H3.11984Z" fill="currentColor"/>
<path d="M12.8799 15.1667H3.12651C1.86651 15.1667 0.839844 14.14 0.839844 12.88V11.1267C0.839844 9.86667 1.86651 8.84001 3.12651 8.84001H12.8799C14.1399 8.84001 15.1665 9.86667 15.1665 11.1267V12.88C15.1665 14.14 14.1399 15.1667 12.8799 15.1667ZM3.11984 9.83334C2.4065 9.83334 1.83318 10.4133 1.83318 11.12V12.8733C1.83318 13.5867 2.41317 14.16 3.11984 14.16H12.8732C13.5865 14.16 14.1599 13.58 14.1599 12.8733V11.12C14.1599 10.4067 13.5799 9.83334 12.8732 9.83334H3.11984Z" fill="currentColor"/>
<path d="M4 5.16667C3.72666 5.16667 3.5 4.94001 3.5 4.66667V3.33334C3.5 3.06 3.72666 2.83334 4 2.83334C4.27333 2.83334 4.5 3.06 4.5 3.33334V4.66667C4.5 4.94001 4.27333 5.16667 4 5.16667Z" fill="currentColor"/>
<path d="M6.66666 5.16667C6.39333 5.16667 6.16666 4.94001 6.16666 4.66667V3.33334C6.16666 3.06 6.39333 2.83334 6.66666 2.83334C6.94 2.83334 7.16666 3.06 7.16666 3.33334V4.66667C7.16666 4.94001 6.94 5.16667 6.66666 5.16667Z" fill="currentColor"/>
<path d="M4 13.1667C3.72666 13.1667 3.5 12.94 3.5 12.6667V11.3333C3.5 11.06 3.72666 10.8333 4 10.8333C4.27333 10.8333 4.5 11.06 4.5 11.3333V12.6667C4.5 12.94 4.27333 13.1667 4 13.1667Z" fill="currentColor"/>
<path d="M6.66666 13.1667C6.39333 13.1667 6.16666 12.94 6.16666 12.6667V11.3333C6.16666 11.06 6.39333 10.8333 6.66666 10.8333C6.94 10.8333 7.16666 11.06 7.16666 11.3333V12.6667C7.16666 12.94 6.94 13.1667 6.66666 13.1667Z" fill="currentColor"/>
<path d="M12 4.50001H9.33333C9.06 4.50001 8.83333 4.27334 8.83333 4.00001C8.83333 3.72667 9.06 3.50001 9.33333 3.50001H12C12.2733 3.50001 12.5 3.72667 12.5 4.00001C12.5 4.27334 12.2733 4.50001 12 4.50001Z" fill="currentColor"/>
<path d="M12 12.5H9.33333C9.06 12.5 8.83333 12.2733 8.83333 12C8.83333 11.7267 9.06 11.5 9.33333 11.5H12C12.2733 11.5 12.5 11.7267 12.5 12C12.5 12.2733 12.2733 12.5 12 12.5Z" fill="currentColor"/>
</g>
<defs>
<clipPath id="clip0_2_4771">
<rect width="16" height="16" fill="currentColor"/>
</clipPath>
</defs>
</svg>
