<svg width="16" height="16" viewBox="0 0 16 16" fill="none" xmlns="http://www.w3.org/2000/svg">
<path d="M3.69333 13.0134C3.28666 13.0134 2.90666 12.8733 2.63333 12.6133C2.28666 12.2867 2.11999 11.7933 2.17999 11.26L2.42666 9.10001C2.47333 8.69334 2.71999 8.15334 3.00666 7.86001L8.48 2.0667C9.84667 0.620038 11.2733 0.580038 12.72 1.9467C14.1667 3.31337 14.2067 4.74004 12.84 6.18671L7.36667 11.98C7.08667 12.28 6.56666 12.56 6.15999 12.6267L4.01333 12.9933C3.89999 13 3.79999 13.0134 3.69333 13.0134ZM10.62 1.94004C10.1067 1.94004 9.66 2.26004 9.20667 2.74004L3.73333 8.54007C3.59999 8.68007 3.44666 9.0134 3.41999 9.20674L3.17333 11.3667C3.14666 11.5867 3.19999 11.7667 3.31999 11.88C3.43999 11.9933 3.61999 12.0333 3.83999 12L5.98666 11.6334C6.17999 11.6001 6.49999 11.4267 6.63333 11.2867L12.1067 5.49337C12.9333 4.61337 13.2333 3.80004 12.0267 2.66671C11.4933 2.15337 11.0333 1.94004 10.62 1.94004Z" fill="currentColor"/>
<path d="M11.5603 7.29987C11.5469 7.29987 11.5269 7.29987 11.5136 7.29987C9.4336 7.0932 7.76027 5.51324 7.44027 3.44657C7.40027 3.17324 7.58693 2.91991 7.86027 2.87324C8.1336 2.83324 8.38693 3.01991 8.4336 3.29324C8.68693 4.90657 9.9936 6.14657 11.6203 6.30657C11.8936 6.33324 12.0936 6.57991 12.0669 6.85321C12.0336 7.10654 11.8136 7.29987 11.5603 7.29987Z" fill="currentColor"/>
<path d="M14 15.1667H2C1.72667 15.1667 1.5 14.94 1.5 14.6667C1.5 14.3933 1.72667 14.1667 2 14.1667H14C14.2733 14.1667 14.5 14.3933 14.5 14.6667C14.5 14.94 14.2733 15.1667 14 15.1667Z" fill="currentColor"/>
</svg>
