<svg width="16" height="16" viewBox="0 0 16 16" fill="none" xmlns="http://www.w3.org/2000/svg">
<g clip-path="url(#clip0_2_5369)">
<path d="M9.99998 15.1667H5.99998C2.37998 15.1667 0.833313 13.62 0.833313 10V6C0.833313 2.38 2.37998 0.833333 5.99998 0.833333H7.33331C7.60665 0.833333 7.83331 1.06 7.83331 1.33333C7.83331 1.60667 7.60665 1.83333 7.33331 1.83333H5.99998C2.92665 1.83333 1.83331 2.92667 1.83331 6V10C1.83331 13.0733 2.92665 14.1667 5.99998 14.1667H9.99998C13.0733 14.1667 14.1666 13.0733 14.1666 10V8.66667C14.1666 8.39333 14.3933 8.16667 14.6666 8.16667C14.94 8.16667 15.1666 8.39333 15.1666 8.66667V10C15.1666 13.62 13.62 15.1667 9.99998 15.1667Z" fill="currentColor"/>
<path d="M5.66621 11.7934C5.25955 11.7934 4.88621 11.6467 4.61288 11.3801C4.28621 11.0534 4.14621 10.5801 4.21955 10.0801L4.50621 8.0734C4.55955 7.68673 4.81288 7.18673 5.08621 6.9134L10.3395 1.66004C11.6662 0.333372 13.0128 0.333372 14.3395 1.66004C15.0662 2.38671 15.3928 3.12671 15.3262 3.86671C15.2662 4.46671 14.9462 5.05337 14.3395 5.65337L9.08618 10.9067C8.81285 11.1801 8.31285 11.4334 7.92618 11.4867L5.91955 11.7734C5.83288 11.7934 5.74621 11.7934 5.66621 11.7934ZM11.0462 2.36671L5.79288 7.62007C5.66621 7.74673 5.51955 8.04007 5.49288 8.2134L5.20621 10.2201C5.17955 10.4134 5.21955 10.5734 5.31955 10.6734C5.41955 10.7734 5.57955 10.8134 5.77288 10.7867L7.77951 10.5001C7.95285 10.4734 8.25285 10.3267 8.37285 10.2001L13.6262 4.94671C14.0595 4.51337 14.2862 4.12671 14.3195 3.76671C14.3595 3.33337 14.1328 2.87337 13.6262 2.36004C12.5595 1.29337 11.8262 1.59337 11.0462 2.36671Z" fill="currentColor"/>
<path d="M13.233 6.55319C13.1864 6.55319 13.1397 6.54652 13.0997 6.53319C11.3464 6.03985 9.95305 4.64652 9.45971 2.89319C9.38638 2.62652 9.53971 2.35319 9.80638 2.27319C10.073 2.19985 10.3464 2.35319 10.4197 2.61985C10.8197 4.03985 11.9464 5.16652 13.3664 5.56652C13.633 5.63985 13.7864 5.91985 13.713 6.18652C13.653 6.41319 13.453 6.55319 13.233 6.55319Z" fill="currentColor"/>
</g>
<defs>
<clipPath id="clip0_2_5369">
<rect width="16" height="16" fill="currentColor"/>
</clipPath>
</defs>
</svg>
