<svg width="16" height="16" viewBox="0 0 16 16" fill="none" xmlns="http://www.w3.org/2000/svg">
<path d="M8.99998 11.1667H6.99998C5.16665 11.1667 3.83331 9.83333 3.83331 7.99999V4.61333C3.83331 3.63333 4.63332 2.83333 5.61332 2.83333H10.3933C11.3733 2.83333 12.1733 3.63333 12.1733 4.61333V7.99999C12.1666 9.83333 10.8333 11.1667 8.99998 11.1667ZM5.61332 3.83333C5.18665 3.83333 4.83331 4.17999 4.83331 4.61333V7.99999C4.83331 9.07999 5.49998 10.1667 6.99998 10.1667H8.99998C10.5 10.1667 11.1666 9.07999 11.1666 7.99999V4.61333C11.1666 4.18666 10.82 3.83333 10.3866 3.83333H5.61332Z" fill="currentColor"/>
<path d="M6.33331 3.83333C6.05998 3.83333 5.83331 3.60666 5.83331 3.33333V1.33333C5.83331 1.05999 6.05998 0.833328 6.33331 0.833328C6.60665 0.833328 6.83331 1.05999 6.83331 1.33333V3.33333C6.83331 3.60666 6.60665 3.83333 6.33331 3.83333Z" fill="currentColor"/>
<path d="M9.66665 3.83333C9.39331 3.83333 9.16665 3.60666 9.16665 3.33333V1.33333C9.16665 1.05999 9.39331 0.833328 9.66665 0.833328C9.93998 0.833328 10.1666 1.05999 10.1666 1.33333V3.33333C10.1666 3.60666 9.93998 3.83333 9.66665 3.83333Z" fill="currentColor"/>
<path d="M7.99998 15.1667C7.72665 15.1667 7.49998 14.94 7.49998 14.6667V10.6667C7.49998 10.3933 7.72665 10.1667 7.99998 10.1667C8.27331 10.1667 8.49998 10.3933 8.49998 10.6667V14.6667C8.49998 14.94 8.27331 15.1667 7.99998 15.1667Z" fill="currentColor"/>
</svg>
