<svg width="16" height="16" viewBox="0 0 16 16" fill="none" xmlns="http://www.w3.org/2000/svg">
<g clip-path="url(#clip0_2_5005)">
<path d="M13.18 7.49999H10.4866C9.14665 7.49999 8.49998 6.84666 8.49998 5.51333V2.81999C8.49998 1.47999 9.15331 0.833328 10.4866 0.833328H13.18C14.52 0.833328 15.1666 1.48666 15.1666 2.81999V5.51333C15.1666 6.84666 14.5133 7.49999 13.18 7.49999ZM10.4866 1.83333C9.69998 1.83333 9.49998 2.03333 9.49998 2.81999V5.51333C9.49998 6.29999 9.69998 6.49999 10.4866 6.49999H13.18C13.9666 6.49999 14.1666 6.29999 14.1666 5.51333V2.81999C14.1666 2.03333 13.9666 1.83333 13.18 1.83333H10.4866Z" fill="currentColor"/>
<path d="M5.51331 7.49999H2.81998C1.47998 7.49999 0.833313 6.90666 0.833313 5.68V2.65333C0.833313 1.42666 1.48665 0.833328 2.81998 0.833328H5.51331C6.85331 0.833328 7.49998 1.42666 7.49998 2.65333V5.67333C7.49998 6.90666 6.84665 7.49999 5.51331 7.49999ZM2.81998 1.83333C1.92665 1.83333 1.83331 2.08666 1.83331 2.65333V5.67333C1.83331 6.24666 1.92665 6.49333 2.81998 6.49333H5.51331C6.40665 6.49333 6.49998 6.24 6.49998 5.67333V2.65333C6.49998 2.07999 6.40665 1.83333 5.51331 1.83333H2.81998Z" fill="currentColor"/>
<path d="M5.51331 15.1667H2.81998C1.47998 15.1667 0.833313 14.5133 0.833313 13.18V10.4867C0.833313 9.14666 1.48665 8.49999 2.81998 8.49999H5.51331C6.85331 8.49999 7.49998 9.15333 7.49998 10.4867V13.18C7.49998 14.5133 6.84665 15.1667 5.51331 15.1667ZM2.81998 9.49999C2.03331 9.49999 1.83331 9.69999 1.83331 10.4867V13.18C1.83331 13.9667 2.03331 14.1667 2.81998 14.1667H5.51331C6.29998 14.1667 6.49998 13.9667 6.49998 13.18V10.4867C6.49998 9.69999 6.29998 9.49999 5.51331 9.49999H2.81998Z" fill="currentColor"/>
<path d="M14 10.8333H9.99998C9.72665 10.8333 9.49998 10.6067 9.49998 10.3333C9.49998 10.06 9.72665 9.83333 9.99998 9.83333H14C14.2733 9.83333 14.5 10.06 14.5 10.3333C14.5 10.6067 14.2733 10.8333 14 10.8333Z" fill="currentColor"/>
<path d="M14 13.5H9.99998C9.72665 13.5 9.49998 13.2733 9.49998 13C9.49998 12.7267 9.72665 12.5 9.99998 12.5H14C14.2733 12.5 14.5 12.7267 14.5 13C14.5 13.2733 14.2733 13.5 14 13.5Z" fill="currentColor"/>
</g>
<defs>
<clipPath id="clip0_2_5005">
<rect width="16" height="16" fill="currentColor"/>
</clipPath>
</defs>
</svg>
