<svg width="16" height="16" viewBox="0 0 16 16" fill="none" xmlns="http://www.w3.org/2000/svg">
<g clip-path="url(#clip0_2_4754)">
<path d="M13.18 9.16666H10.4866C9.14665 9.16666 8.49998 8.54666 8.49998 7.26666V2.73333C8.49998 1.45333 9.15331 0.833328 10.4866 0.833328H13.18C14.52 0.833328 15.1666 1.45333 15.1666 2.73333V7.26666C15.1666 8.54666 14.5133 9.16666 13.18 9.16666ZM10.4866 1.83333C9.63998 1.83333 9.49998 2.05999 9.49998 2.73333V7.26666C9.49998 7.93999 9.63998 8.16666 10.4866 8.16666H13.18C14.0266 8.16666 14.1666 7.93999 14.1666 7.26666V2.73333C14.1666 2.05999 14.0266 1.83333 13.18 1.83333H10.4866Z" fill="currentColor"/>
<path d="M13.18 15.1667H10.4866C9.14665 15.1667 8.49998 14.5467 8.49998 13.2667V12.0667C8.49998 10.7867 9.15331 10.1667 10.4866 10.1667H13.18C14.52 10.1667 15.1666 10.7867 15.1666 12.0667V13.2667C15.1666 14.5467 14.5133 15.1667 13.18 15.1667ZM10.4866 11.1667C9.63998 11.1667 9.49998 11.3933 9.49998 12.0667V13.2667C9.49998 13.94 9.63998 14.1667 10.4866 14.1667H13.18C14.0266 14.1667 14.1666 13.94 14.1666 13.2667V12.0667C14.1666 11.3933 14.0266 11.1667 13.18 11.1667H10.4866Z" fill="currentColor"/>
<path d="M5.51331 15.1667H2.81998C1.47998 15.1667 0.833313 14.5467 0.833313 13.2667V8.73333C0.833313 7.45333 1.48665 6.83333 2.81998 6.83333H5.51331C6.85331 6.83333 7.49998 7.45333 7.49998 8.73333V13.2667C7.49998 14.5467 6.84665 15.1667 5.51331 15.1667ZM2.81998 7.83333C1.97331 7.83333 1.83331 8.05999 1.83331 8.73333V13.2667C1.83331 13.94 1.97331 14.1667 2.81998 14.1667H5.51331C6.35998 14.1667 6.49998 13.94 6.49998 13.2667V8.73333C6.49998 8.05999 6.35998 7.83333 5.51331 7.83333H2.81998Z" fill="currentColor"/>
<path d="M5.51331 5.83333H2.81998C1.47998 5.83333 0.833313 5.21333 0.833313 3.93333V2.73333C0.833313 1.45333 1.48665 0.833328 2.81998 0.833328H5.51331C6.85331 0.833328 7.49998 1.45333 7.49998 2.73333V3.93333C7.49998 5.21333 6.84665 5.83333 5.51331 5.83333ZM2.81998 1.83333C1.97331 1.83333 1.83331 2.05999 1.83331 2.73333V3.93333C1.83331 4.60666 1.97331 4.83333 2.81998 4.83333H5.51331C6.35998 4.83333 6.49998 4.60666 6.49998 3.93333V2.73333C6.49998 2.05999 6.35998 1.83333 5.51331 1.83333H2.81998Z" fill="currentColor"/>
</g>
<defs>
<clipPath id="clip0_2_4754">
<rect width="16" height="16" fill="currentColor"/>
</clipPath>
</defs>
</svg>
