<svg width="16" height="16" viewBox="0 0 16 16" fill="none" xmlns="http://www.w3.org/2000/svg">
<g clip-path="url(#clip0_2_5008)">
<path d="M13.18 7.49999H10.4866C9.14665 7.49999 8.49998 6.90666 8.49998 5.68V2.65333C8.49998 1.42666 9.15331 0.833328 10.4866 0.833328H13.18C14.52 0.833328 15.1666 1.42666 15.1666 2.65333V5.67333C15.1666 6.90666 14.5133 7.49999 13.18 7.49999ZM10.4866 1.83333C9.59331 1.83333 9.49998 2.08666 9.49998 2.65333V5.67333C9.49998 6.24666 9.59331 6.49333 10.4866 6.49333H13.18C14.0733 6.49333 14.1666 6.24 14.1666 5.67333V2.65333C14.1666 2.07999 14.0733 1.83333 13.18 1.83333H10.4866Z" fill="currentColor"/>
<path d="M13.18 15.1667H10.4866C9.14665 15.1667 8.49998 14.5133 8.49998 13.18V10.4867C8.49998 9.14666 9.15331 8.49999 10.4866 8.49999H13.18C14.52 8.49999 15.1666 9.15333 15.1666 10.4867V13.18C15.1666 14.5133 14.5133 15.1667 13.18 15.1667ZM10.4866 9.49999C9.69998 9.49999 9.49998 9.69999 9.49998 10.4867V13.18C9.49998 13.9667 9.69998 14.1667 10.4866 14.1667H13.18C13.9666 14.1667 14.1666 13.9667 14.1666 13.18V10.4867C14.1666 9.69999 13.9666 9.49999 13.18 9.49999H10.4866Z" fill="currentColor"/>
<path d="M5.51331 7.49999H2.81998C1.47998 7.49999 0.833313 6.90666 0.833313 5.68V2.65333C0.833313 1.42666 1.48665 0.833328 2.81998 0.833328H5.51331C6.85331 0.833328 7.49998 1.42666 7.49998 2.65333V5.67333C7.49998 6.90666 6.84665 7.49999 5.51331 7.49999ZM2.81998 1.83333C1.92665 1.83333 1.83331 2.08666 1.83331 2.65333V5.67333C1.83331 6.24666 1.92665 6.49333 2.81998 6.49333H5.51331C6.40665 6.49333 6.49998 6.24 6.49998 5.67333V2.65333C6.49998 2.07999 6.40665 1.83333 5.51331 1.83333H2.81998Z" fill="currentColor"/>
<path d="M5.51331 15.1667H2.81998C1.47998 15.1667 0.833313 14.5133 0.833313 13.18V10.4867C0.833313 9.14666 1.48665 8.49999 2.81998 8.49999H5.51331C6.85331 8.49999 7.49998 9.15333 7.49998 10.4867V13.18C7.49998 14.5133 6.84665 15.1667 5.51331 15.1667ZM2.81998 9.49999C2.03331 9.49999 1.83331 9.69999 1.83331 10.4867V13.18C1.83331 13.9667 2.03331 14.1667 2.81998 14.1667H5.51331C6.29998 14.1667 6.49998 13.9667 6.49998 13.18V10.4867C6.49998 9.69999 6.29998 9.49999 5.51331 9.49999H2.81998Z" fill="currentColor"/>
</g>
<defs>
<clipPath id="clip0_2_5008">
<rect width="16" height="16" fill="currentColor"/>
</clipPath>
</defs>
</svg>
