<svg width="16" height="16" viewBox="0 0 16 16" fill="none" xmlns="http://www.w3.org/2000/svg">
<g clip-path="url(#clip0_2_4745)">
<path d="M10 15.1667H6.00001C2.38001 15.1667 0.833344 13.62 0.833344 9.99999V5.99999C0.833344 2.37999 2.38001 0.833328 6.00001 0.833328H10C13.62 0.833328 15.1667 2.37999 15.1667 5.99999V9.99999C15.1667 13.62 13.62 15.1667 10 15.1667ZM6.00001 1.83333C2.92668 1.83333 1.83334 2.92666 1.83334 5.99999V9.99999C1.83334 13.0733 2.92668 14.1667 6.00001 14.1667H10C13.0733 14.1667 14.1667 13.0733 14.1667 9.99999V5.99999C14.1667 2.92666 13.0733 1.83333 10 1.83333H6.00001Z" fill="currentColor"/>
<path d="M7.09301 6.33329C6.96634 6.33329 6.83968 6.28662 6.73968 6.18662C6.26631 5.71329 5.49298 5.71329 5.01964 6.18662C4.82631 6.37995 4.50631 6.37995 4.31298 6.18662C4.11964 5.99329 4.11964 5.67329 4.31298 5.47995C5.17298 4.61995 6.57964 4.61995 7.44634 5.47995C7.63968 5.67329 7.63968 5.99329 7.44634 6.18662C7.34634 6.28662 7.21968 6.33329 7.09301 6.33329Z" fill="currentColor"/>
<path d="M8.90721 6.33329C8.78054 6.33329 8.65388 6.28662 8.55388 6.18662C8.36054 5.99329 8.36054 5.67329 8.55388 5.47995C9.41388 4.61995 10.8205 4.61995 11.6872 5.47995C11.8805 5.67329 11.8805 5.99329 11.6872 6.18662C11.4939 6.37995 11.1739 6.37995 10.9805 6.18662C10.5072 5.71329 9.73388 5.71329 9.26054 6.18662C9.16721 6.28662 9.04054 6.33329 8.90721 6.33329Z" fill="currentColor"/>
<path d="M10.4 12.3H5.60001C4.99334 12.3 4.50001 11.8067 4.50001 11.2C4.50001 9.27333 6.06668 7.69999 8.00001 7.69999C9.93334 7.69999 11.5 9.27333 11.5 11.2C11.5 11.8067 11.0067 12.3 10.4 12.3ZM8.00001 8.69999C6.62001 8.69999 5.50001 9.81999 5.50001 11.2C5.50001 11.2533 5.54668 11.3 5.60001 11.3H10.4C10.4533 11.3 10.5 11.2533 10.5 11.2C10.5 9.81999 9.38001 8.69999 8.00001 8.69999Z" fill="currentColor"/>
</g>
<defs>
<clipPath id="clip0_2_4745">
<rect width="16" height="16" fill="currentColor"/>
</clipPath>
</defs>
</svg>
