<svg width="16" height="16" viewBox="0 0 16 16" fill="none" xmlns="http://www.w3.org/2000/svg">
<g clip-path="url(#clip0_2_5002)">
<path d="M10 15.1667H6.00001C2.38001 15.1667 0.833344 13.62 0.833344 9.99999V5.99999C0.833344 2.37999 2.38001 0.833328 6.00001 0.833328H10C13.62 0.833328 15.1667 2.37999 15.1667 5.99999V9.99999C15.1667 13.62 13.62 15.1667 10 15.1667ZM6.00001 1.83333C2.92668 1.83333 1.83334 2.92666 1.83334 5.99999V9.99999C1.83334 13.0733 2.92668 14.1667 6.00001 14.1667H10C13.0733 14.1667 14.1667 13.0733 14.1667 9.99999V5.99999C14.1667 2.92666 13.0733 1.83333 10 1.83333H6.00001Z" fill="currentColor"/>
<path d="M5.87964 6.49995C5.31298 6.49995 4.74631 6.28662 4.31298 5.85329C4.11964 5.65995 4.11964 5.33995 4.31298 5.14662C4.50631 4.95329 4.82631 4.95329 5.01964 5.14662C5.49298 5.61995 6.26631 5.61995 6.73968 5.14662C6.93301 4.95329 7.25301 4.95329 7.44634 5.14662C7.63968 5.33995 7.63968 5.65995 7.44634 5.85329C7.01301 6.27995 6.44631 6.49995 5.87964 6.49995Z" fill="currentColor"/>
<path d="M10.1205 6.49995C9.55388 6.49995 8.98721 6.28662 8.55388 5.85329C8.36054 5.65995 8.36054 5.33995 8.55388 5.14662C8.74721 4.95329 9.06721 4.95329 9.26054 5.14662C9.73388 5.61995 10.5072 5.61995 10.9805 5.14662C11.1739 4.95329 11.4939 4.95329 11.6872 5.14662C11.8805 5.33995 11.8805 5.65995 11.6872 5.85329C11.2539 6.27995 10.6872 6.49995 10.1205 6.49995Z" fill="currentColor"/>
<path d="M8.00001 12.7667C6.06668 12.7667 4.50001 11.1933 4.50001 9.26666C4.50001 8.65999 4.99334 8.16666 5.60001 8.16666H10.4C11.0067 8.16666 11.5 8.65999 11.5 9.26666C11.5 11.1933 9.93334 12.7667 8.00001 12.7667ZM5.60001 9.16666C5.54668 9.16666 5.50001 9.21333 5.50001 9.26666C5.50001 10.6467 6.62001 11.7667 8.00001 11.7667C9.38001 11.7667 10.5 10.6467 10.5 9.26666C10.5 9.21333 10.4533 9.16666 10.4 9.16666H5.60001Z" fill="currentColor"/>
</g>
<defs>
<clipPath id="clip0_2_5002">
<rect width="16" height="16" fill="currentColor"/>
</clipPath>
</defs>
</svg>
