<svg width="16" height="16" viewBox="0 0 16 16" fill="none" xmlns="http://www.w3.org/2000/svg">
<g clip-path="url(#clip0_2_5253)">
<path d="M9.99998 15.1667H5.99998C2.37998 15.1667 0.833313 13.62 0.833313 9.99999V5.99999C0.833313 2.37999 2.37998 0.833328 5.99998 0.833328H9.99998C13.62 0.833328 15.1666 2.37999 15.1666 5.99999V9.99999C15.1666 13.62 13.62 15.1667 9.99998 15.1667ZM5.99998 1.83333C2.92665 1.83333 1.83331 2.92666 1.83331 5.99999V9.99999C1.83331 13.0733 2.92665 14.1667 5.99998 14.1667H9.99998C13.0733 14.1667 14.1666 13.0733 14.1666 9.99999V5.99999C14.1666 2.92666 13.0733 1.83333 9.99998 1.83333H5.99998Z" fill="currentColor"/>
<path d="M10.3333 6.99999C9.50665 6.99999 8.83331 6.32666 8.83331 5.49999C8.83331 4.67333 9.50665 3.99999 10.3333 3.99999C11.16 3.99999 11.8333 4.67333 11.8333 5.49999C11.8333 6.32666 11.16 6.99999 10.3333 6.99999ZM10.3333 4.99999C10.06 4.99999 9.83331 5.22666 9.83331 5.49999C9.83331 5.77333 10.06 5.99999 10.3333 5.99999C10.6066 5.99999 10.8333 5.77333 10.8333 5.49999C10.8333 5.22666 10.6066 4.99999 10.3333 4.99999Z" fill="currentColor"/>
<path d="M5.66665 6.99999C4.83998 6.99999 4.16665 6.32666 4.16665 5.49999C4.16665 4.67333 4.83998 3.99999 5.66665 3.99999C6.49331 3.99999 7.16665 4.67333 7.16665 5.49999C7.16665 6.32666 6.49331 6.99999 5.66665 6.99999ZM5.66665 4.99999C5.39331 4.99999 5.16665 5.22666 5.16665 5.49999C5.16665 5.77333 5.39331 5.99999 5.66665 5.99999C5.93998 5.99999 6.16665 5.77333 6.16665 5.49999C6.16665 5.22666 5.93998 4.99999 5.66665 4.99999Z" fill="currentColor"/>
<path d="M7.99998 12.9667C6.06665 12.9667 4.49998 11.3933 4.49998 9.46666C4.49998 8.85999 4.99331 8.36666 5.59998 8.36666H10.4C11.0066 8.36666 11.5 8.85999 11.5 9.46666C11.5 11.3933 9.93331 12.9667 7.99998 12.9667ZM5.59998 9.36666C5.54665 9.36666 5.49998 9.41333 5.49998 9.46666C5.49998 10.8467 6.61998 11.9667 7.99998 11.9667C9.37998 11.9667 10.5 10.8467 10.5 9.46666C10.5 9.41333 10.4533 9.36666 10.4 9.36666H5.59998Z" fill="currentColor"/>
</g>
<defs>
<clipPath id="clip0_2_5253">
<rect width="16" height="16" fill="currentColor"/>
</clipPath>
</defs>
</svg>
