<svg width="16" height="16" viewBox="0 0 16 16" fill="none" xmlns="http://www.w3.org/2000/svg">
<g clip-path="url(#clip0_2_5001)">
<path d="M11.8267 15.1665H5.08666C4.87332 15.1665 4.68666 15.0332 4.61332 14.8399C4.53999 14.6399 4.59999 14.4198 4.75999 14.2865C4.91999 14.1531 5.06665 13.9799 5.17332 13.7932C5.38665 13.4532 5.49333 13.0665 5.49333 12.6732C5.49333 11.4799 4.52 10.5065 3.32666 10.5065C2.83333 10.5065 2.36666 10.6731 1.97333 10.9865C1.82666 11.1065 1.61999 11.1265 1.44666 11.0465C1.27332 10.9665 1.16666 10.7865 1.16666 10.5932V7.67986C1.16666 6.01985 2.51332 4.67317 4.17332 4.67317H11.8267C13.4867 4.67317 14.8333 6.01985 14.8333 7.67986V8.63986C14.8333 8.91319 14.6067 9.13986 14.3333 9.13986H12.9867C12.7533 9.13986 12.54 9.22653 12.3867 9.38653L12.38 9.39319C12.1933 9.57319 12.1067 9.81979 12.1267 10.0731C12.1667 10.5131 12.5867 10.8665 13.0667 10.8665H14.3333C14.6067 10.8665 14.8333 11.0931 14.8333 11.3665V12.1598C14.8333 13.8198 13.4867 15.1665 11.8267 15.1665ZM6.11998 14.1665H11.8267C12.9333 14.1665 13.8333 13.2665 13.8333 12.1598V11.8665H13.0667C12.06 11.8665 11.2067 11.1198 11.1267 10.1598C11.0733 9.61313 11.2733 9.07319 11.6733 8.67986C12.02 8.32653 12.4867 8.13319 12.9867 8.13319H13.8333V7.67319C13.8333 6.56651 12.9333 5.6665 11.8267 5.6665H4.17332C3.06665 5.6665 2.16666 6.56651 2.16666 7.67319V9.72653C2.53999 9.57986 2.93332 9.49986 3.33332 9.49986C5.07999 9.49986 6.49999 10.9199 6.49999 12.6665C6.49999 13.1932 6.36665 13.7132 6.11998 14.1665Z" fill="currentColor"/>
<path d="M1.66666 8.77333C1.39332 8.77333 1.16666 8.54666 1.16666 8.27333V5.2267C1.16666 4.23337 1.79332 3.33333 2.71999 2.98L8.01332 0.98C8.55999 0.773334 9.16666 0.846694 9.63999 1.18003C10.12 1.51336 10.4 2.05336 10.4 2.63336V5.16668C10.4 5.44001 10.1733 5.66668 9.89999 5.66668C9.62666 5.66668 9.39999 5.44001 9.39999 5.16668V2.63336C9.39999 2.38003 9.27999 2.14668 9.06666 2.00001C8.85332 1.85335 8.59999 1.82001 8.35999 1.91335L3.06666 3.91335C2.52666 4.12001 2.16 4.6467 2.16 5.2267V8.27333C2.16666 8.55333 1.93999 8.77333 1.66666 8.77333Z" fill="currentColor"/>
<path d="M13.0667 11.8665C12.06 11.8665 11.2067 11.1198 11.1267 10.1598C11.0733 9.60646 11.2737 9.06679 11.6737 8.67346C12.0137 8.32679 12.4803 8.13346 12.9803 8.13346H14.367C15.027 8.15346 15.5337 8.67346 15.5337 9.31346V10.6868C15.5337 11.3268 15.027 11.8468 14.387 11.8668L13.0667 11.8665ZM14.3537 9.13346H12.987C12.7537 9.13346 12.5403 9.22013 12.387 9.38013C12.1937 9.56679 12.1 9.81979 12.1267 10.0731C12.1667 10.5131 12.5867 10.8665 13.0667 10.8665L14.3737 10.8668C14.4603 10.8668 14.5403 10.7868 14.5403 10.6868V9.31346C14.5403 9.21346 14.4603 9.14013 14.3537 9.13346Z" fill="currentColor"/>
<path d="M9.33332 8.49999H4.66666C4.39332 8.49999 4.16666 8.27333 4.16666 7.99999C4.16666 7.72666 4.39332 7.49999 4.66666 7.49999H9.33332C9.60666 7.49999 9.83332 7.72666 9.83332 7.99999C9.83332 8.27333 9.60666 8.49999 9.33332 8.49999Z" fill="currentColor"/>
<path d="M3.33332 15.8333C2.22666 15.8333 1.18666 15.2467 0.626658 14.2933C0.326658 13.8133 0.166656 13.2467 0.166656 12.6667C0.166656 11.6933 0.599989 10.7933 1.35332 10.1933C1.91332 9.74666 2.61999 9.49986 3.33332 9.49986C5.07999 9.49986 6.49999 10.9199 6.49999 12.6665C6.49999 13.2465 6.33999 13.8133 6.03999 14.3C5.87999 14.58 5.65999 14.8333 5.40666 15.0467C4.85332 15.5533 4.11332 15.8333 3.33332 15.8333ZM3.33332 10.5C2.83999 10.5 2.37332 10.6667 1.97999 10.98C1.46666 11.3867 1.16666 12.0067 1.16666 12.6667C1.16666 13.06 1.27332 13.4467 1.47999 13.78C1.87332 14.4467 2.56666 14.8333 3.33332 14.8333C3.85999 14.8333 4.36666 14.64 4.75332 14.2933C4.92666 14.1467 5.07332 13.9733 5.17999 13.7867C5.39332 13.4467 5.49999 13.06 5.49999 12.6667C5.49999 11.4733 4.52666 10.5 3.33332 10.5Z" fill="currentColor"/>
<path d="M2.95259 13.8267C2.82592 13.8267 2.69926 13.7801 2.59926 13.6801L1.93926 13.0201C1.74593 12.8267 1.74593 12.5067 1.93926 12.3133C2.1326 12.12 2.45259 12.12 2.64592 12.3133L2.96592 12.6334L4.0326 11.6467C4.2326 11.46 4.55259 11.4734 4.73926 11.6734C4.92592 11.8734 4.9126 12.1934 4.7126 12.3801L3.2926 13.6933C3.19259 13.78 3.07259 13.8267 2.95259 13.8267Z" fill="currentColor"/>
</g>
<defs>
<clipPath id="clip0_2_5001">
<rect width="16" height="16" fill="currentColor"/>
</clipPath>
</defs>
</svg>
