<svg width="16" height="16" viewBox="0 0 16 16" fill="none" xmlns="http://www.w3.org/2000/svg">
<g clip-path="url(#clip0_2_5322)">
<path d="M11.8263 15.1668H5.09301C4.88634 15.1668 4.69968 15.0402 4.62634 14.8402C4.55301 14.6402 4.60634 14.4268 4.76634 14.2868C5.233 13.8735 5.50634 13.2801 5.50634 12.6601C5.50634 11.4668 4.533 10.4935 3.33967 10.4935C2.84634 10.4935 2.37967 10.6602 1.98634 10.9735C1.833 11.0935 1.63301 11.1135 1.45968 11.0335C1.28634 10.9535 1.17968 10.7735 1.17968 10.5801V7.6668C1.17968 6.00683 2.52634 4.66016 4.18634 4.66016H11.8397C13.4997 4.66016 14.8463 6.00683 14.8463 7.6668V8.6268C14.8463 8.90014 14.6197 9.1268 14.3463 9.1268H12.9997C12.7663 9.1268 12.553 9.21347 12.3997 9.37347L12.393 9.38021C12.2063 9.5602 12.1197 9.80687 12.1397 10.0602C12.1797 10.5002 12.5997 10.8535 13.0797 10.8535H14.3463C14.6197 10.8535 14.8463 11.0802 14.8463 11.3535V12.1468C14.833 13.8201 13.4863 15.1668 11.8263 15.1668ZM6.11967 14.1668H11.8263C12.933 14.1668 13.833 13.2668 13.833 12.1601V11.8668H13.0663C12.0597 11.8668 11.2063 11.1201 11.1263 10.1601C11.073 9.61347 11.273 9.07354 11.673 8.6802C12.0197 8.32687 12.4863 8.13354 12.9863 8.13354H13.833V7.67354C13.833 6.56684 12.933 5.66683 11.8263 5.66683H4.173C3.06634 5.66683 2.16634 6.56684 2.16634 7.67354V9.72687C2.53968 9.5802 2.93301 9.50014 3.33301 9.50014C5.07968 9.50014 6.49968 10.9201 6.49968 12.6668C6.49968 13.1935 6.36634 13.7135 6.11967 14.1668Z" fill="currentColor"/>
<path d="M1.66666 8.17354C1.39332 8.17354 1.16666 7.94687 1.16666 7.67354V5.2269C1.16666 4.23357 1.78666 3.32687 2.71333 2.9802L8.00666 0.980204C8.55332 0.780204 9.16666 0.853571 9.63999 1.1869C10.1133 1.52024 10.4 2.06023 10.4 2.63356V5.16689C10.4 5.44022 10.1733 5.66689 9.89999 5.66689C9.62666 5.66689 9.39999 5.44022 9.39999 5.16689V2.63356C9.39999 2.38023 9.27999 2.15356 9.07332 2.0069C8.85999 1.86023 8.59999 1.82688 8.35999 1.91355L3.06666 3.91355C2.52 4.12022 2.16666 4.63357 2.16666 5.2269L2.16634 7.67354C2.16634 7.94687 1.93999 8.17354 1.66666 8.17354Z" fill="currentColor"/>
<path d="M13.0663 11.8668C12.0597 11.8668 11.2063 11.1201 11.1263 10.1601C11.073 9.6068 11.2737 9.0668 11.6737 8.67347C12.0137 8.3268 12.4803 8.13347 12.9803 8.13347H14.367C15.027 8.15347 15.5337 8.67347 15.5337 9.31347V10.6868C15.5337 11.3268 15.027 11.8468 14.387 11.8668L13.0663 11.8668ZM14.3537 9.13347H12.987C12.7537 9.13347 12.5403 9.22014 12.387 9.38014C12.1937 9.5668 12.1003 9.82014 12.127 10.0735C12.167 10.5135 12.587 10.8668 13.067 10.8668H14.3737C14.4603 10.8668 14.5403 10.7868 14.5403 10.6868V9.31347C14.5403 9.21347 14.4603 9.14014 14.3537 9.13347Z" fill="currentColor"/>
<path d="M9.33332 8.5H4.66666C4.39332 8.5 4.16666 8.27334 4.16666 8C4.16666 7.72667 4.39332 7.5 4.66666 7.5H9.33332C9.60666 7.5 9.83332 7.72667 9.83332 8C9.83332 8.27334 9.60666 8.5 9.33332 8.5Z" fill="currentColor"/>
<path d="M3.33332 15.8333C1.58666 15.8333 0.166656 14.4133 0.166656 12.6667C0.166656 11.6933 0.599989 10.7933 1.35332 10.1933C1.91332 9.74667 2.61968 9.50014 3.33301 9.50014C5.07968 9.50014 6.49968 10.9201 6.49968 12.6668C6.49968 13.5735 6.10666 14.44 5.42666 15.04C4.83999 15.5533 4.09999 15.8333 3.33332 15.8333ZM3.33332 10.5C2.83999 10.5 2.37332 10.6667 1.97999 10.98C1.46666 11.3867 1.16666 12.0067 1.16666 12.6667C1.16666 13.86 2.13999 14.8333 3.33332 14.8333C3.85332 14.8333 4.35998 14.64 4.76665 14.2933C5.23332 13.88 5.49999 13.2933 5.49999 12.6667C5.49999 11.4733 4.52666 10.5 3.33332 10.5Z" fill="currentColor"/>
<path d="M2.66658 13.8333C2.49991 13.8333 2.33324 13.7467 2.23991 13.5933C2.09991 13.3533 2.17324 13.0467 2.41324 12.9067L3.00658 12.5533V11.8333C3.00658 11.56 3.23324 11.3333 3.50658 11.3333C3.77991 11.3333 4.00658 11.56 4.00658 11.8333V12.8333C4.00658 13.0067 3.91324 13.1733 3.76658 13.26L2.93324 13.76C2.84658 13.8133 2.75324 13.8333 2.66658 13.8333Z" fill="currentColor"/>
</g>
<defs>
<clipPath id="clip0_2_5322">
<rect width="16" height="16" fill="currentColor"/>
</clipPath>
</defs>
</svg>
