<svg width="16" height="16" viewBox="0 0 16 16" fill="none" xmlns="http://www.w3.org/2000/svg">
<path d="M11.8267 15.1667H4.17332C2.51332 15.1667 1.16666 13.82 1.16666 12.16V7.67333C1.16666 6.01333 2.51332 4.66666 4.17332 4.66666H11.8267C13.4867 4.66666 14.8333 6.01333 14.8333 7.67333V8.63333C14.8333 8.90666 14.6067 9.13333 14.3333 9.13333H12.9867C12.7533 9.13333 12.54 9.21999 12.3867 9.37999L12.38 9.38666C12.1933 9.56666 12.1067 9.81333 12.1267 10.0667C12.1667 10.5067 12.5867 10.86 13.0667 10.86H14.3333C14.6067 10.86 14.8333 11.0867 14.8333 11.36V12.1533C14.8333 13.82 13.4867 15.1667 11.8267 15.1667ZM4.17332 5.66666C3.06666 5.66666 2.16666 6.56667 2.16666 7.67333V12.16C2.16666 13.2667 3.06666 14.1667 4.17332 14.1667H11.8267C12.9333 14.1667 13.8333 13.2667 13.8333 12.16V11.8667H13.0667C12.06 11.8667 11.2067 11.12 11.1267 10.16C11.0733 9.61333 11.2733 9.07333 11.6733 8.67999C12.02 8.32666 12.4867 8.13333 12.9867 8.13333H13.8333V7.67333C13.8333 6.56667 12.9333 5.66666 11.8267 5.66666H4.17332Z" fill="currentColor"/>
<path d="M1.66666 8.77333C1.39332 8.77333 1.16666 8.54666 1.16666 8.27333V5.2267C1.16666 4.23337 1.79332 3.33333 2.71999 2.98L8.01332 0.98C8.55999 0.773334 9.16666 0.846694 9.63999 1.18003C10.12 1.51336 10.4 2.05336 10.4 2.63336V5.16668C10.4 5.44001 10.1733 5.66668 9.89999 5.66668C9.62666 5.66668 9.39999 5.44001 9.39999 5.16668V2.63336C9.39999 2.38003 9.27999 2.14668 9.06666 2.00001C8.85332 1.85335 8.59999 1.82001 8.35999 1.91335L3.06666 3.91335C2.52666 4.12001 2.15999 4.6467 2.15999 5.2267V8.27333C2.16666 8.55333 1.93999 8.77333 1.66666 8.77333Z" fill="currentColor"/>
<path d="M13.0667 11.8667C12.06 11.8667 11.2067 11.12 11.1267 10.16C11.0733 9.60666 11.2737 9.06679 11.6737 8.67346C12.0137 8.32679 12.4803 8.13346 12.9803 8.13346H14.367C15.027 8.15346 15.5337 8.67346 15.5337 9.31346V10.6868C15.5337 11.3268 15.027 11.8468 14.387 11.8668L13.0667 11.8667ZM14.3537 9.13346L12.9867 9.13333C12.7533 9.13333 12.54 9.21999 12.3867 9.37999C12.1933 9.56666 12.1003 9.82013 12.127 10.0735C12.167 10.5135 12.587 10.8668 13.067 10.8668H14.3737C14.4603 10.8668 14.5403 10.7868 14.5403 10.6868V9.31346C14.5403 9.21346 14.4603 9.14013 14.3537 9.13346Z" fill="currentColor"/>
<path d="M9.33332 8.49999H4.66666C4.39332 8.49999 4.16666 8.27333 4.16666 7.99999C4.16666 7.72666 4.39332 7.49999 4.66666 7.49999H9.33332C9.60666 7.49999 9.83332 7.72666 9.83332 7.99999C9.83332 8.27333 9.60666 8.49999 9.33332 8.49999Z" fill="currentColor"/>
</svg>
