<svg width="16" height="16" viewBox="0 0 16 16" fill="none" xmlns="http://www.w3.org/2000/svg">
<path d="M11.8268 15.1667H8.17347C7.90014 15.1667 7.67347 14.94 7.67347 14.6667C7.67347 14.3933 7.90014 14.1667 8.17347 14.1667H11.8268C12.9335 14.1667 13.8335 13.2667 13.8335 12.16V11.8667H13.0668C12.0601 11.8667 11.2068 11.12 11.1268 10.16C11.0735 9.60666 11.2735 9.06666 11.6735 8.67333C12.0135 8.32666 12.4801 8.13333 12.9801 8.13333H13.8268V7.67333C13.8268 6.56667 12.9268 5.66666 11.8201 5.66666H4.16682C3.06016 5.66666 2.16016 6.56667 2.16016 7.67333V8.82666C2.16016 9.09999 1.93349 9.32666 1.66016 9.32666C1.38682 9.32666 1.16016 9.09999 1.16016 8.82666V7.67333C1.16016 6.01333 2.50682 4.66666 4.16682 4.66666H11.8201C13.4801 4.66666 14.8268 6.01333 14.8268 7.67333V8.63333C14.8268 8.90666 14.6001 9.13333 14.3268 9.13333H12.9801C12.7468 9.13333 12.5335 9.21999 12.3801 9.37999C12.1868 9.56666 12.0935 9.81999 12.1201 10.0733C12.1601 10.5133 12.5801 10.8667 13.0601 10.8667H14.3268C14.6001 10.8667 14.8268 11.0933 14.8268 11.3667V12.16C14.8335 13.82 13.4868 15.1667 11.8268 15.1667Z" fill="currentColor"/>
<path d="M1.66667 8.77333C1.39334 8.77333 1.16667 8.54666 1.16667 8.27333V5.2267C1.16667 4.23337 1.79334 3.33333 2.72 2.98L8.01334 0.98C8.56 0.773334 9.16667 0.846694 9.64 1.18003C10.12 1.51336 10.4 2.05336 10.4 2.63336V5.16668C10.4 5.44001 10.1733 5.66668 9.9 5.66668C9.62667 5.66668 9.4 5.44001 9.4 5.16668V2.63336C9.4 2.38003 9.28 2.14668 9.06667 2.00001C8.85334 1.85335 8.6 1.82001 8.36 1.91335L3.06668 3.91335C2.52668 4.12001 2.16001 4.6467 2.16001 5.2267V8.27333C2.16668 8.55333 1.94 8.77333 1.66667 8.77333Z" fill="currentColor"/>
<path d="M13.0668 11.8667C12.0601 11.8667 11.2068 11.12 11.1268 10.16C11.0735 9.60666 11.2735 9.06666 11.6735 8.67333C12.0135 8.32666 12.4801 8.13333 12.9801 8.13333L14.367 8.13346C15.027 8.15346 15.5337 8.67346 15.5337 9.31346V10.6868C15.5337 11.3268 15.027 11.8468 14.387 11.8668L13.0668 11.8667ZM14.3537 9.13346H12.987C12.7537 9.13346 12.5403 9.22013 12.387 9.38013C12.1937 9.56679 12.1003 9.82013 12.127 10.0735C12.167 10.5135 12.587 10.8668 13.067 10.8668H14.3737C14.4603 10.8668 14.5403 10.7868 14.5403 10.6868V9.31346C14.5403 9.21346 14.4603 9.14013 14.3537 9.13346Z" fill="currentColor"/>
<path d="M9.33334 8.49999H4.66667C4.39334 8.49999 4.16667 8.27333 4.16667 7.99999C4.16667 7.72666 4.39334 7.49999 4.66667 7.49999H9.33334C9.60667 7.49999 9.83334 7.72666 9.83334 7.99999C9.83334 8.27333 9.60667 8.49999 9.33334 8.49999Z" fill="currentColor"/>
<path d="M6.33334 13.1267C6.06 13.1267 5.83334 12.9 5.83334 12.6267V11.7733C5.83334 11.6267 5.71334 11.5 5.56 11.5H2C1.72667 11.5 1.5 11.2733 1.5 11C1.5 10.7267 1.72667 10.5 2 10.5H5.56C6.26 10.5 6.83334 11.0733 6.83334 11.7733V12.6267C6.83334 12.9 6.60667 13.1267 6.33334 13.1267Z" fill="currentColor"/>
<path d="M2.81297 12.3131C2.6863 12.3131 2.55964 12.2665 2.45964 12.1665L1.6463 11.3532C1.45297 11.1599 1.45297 10.8398 1.6463 10.6465L2.45964 9.83313C2.65297 9.63979 2.97297 9.63979 3.1663 9.83313C3.35964 10.0265 3.35964 10.3465 3.1663 10.5398L2.7063 10.9998L3.1663 11.4598C3.35964 11.6531 3.35964 11.9731 3.1663 12.1665C3.0663 12.2665 2.93964 12.3131 2.81297 12.3131Z" fill="currentColor"/>
<path d="M6.33334 15.0199H2.77334C2.07334 15.0199 1.5 14.4465 1.5 13.7465V12.8932C1.5 12.6199 1.72667 12.3932 2 12.3932C2.27334 12.3932 2.5 12.6199 2.5 12.8932V13.7465C2.5 13.8932 2.62 14.0199 2.77334 14.0199H6.33334C6.60667 14.0199 6.83334 14.2465 6.83334 14.5199C6.83334 14.7932 6.60667 15.0199 6.33334 15.0199Z" fill="currentColor"/>
<path d="M5.52047 15.8333C5.3938 15.8333 5.26714 15.7867 5.16714 15.6867C4.9738 15.4933 4.9738 15.1733 5.16714 14.9799L5.62714 14.52L5.16714 14.06C4.9738 13.8667 4.9738 13.5467 5.16714 13.3533C5.36047 13.16 5.68047 13.16 5.8738 13.3533L6.68714 14.1667C6.88047 14.36 6.88047 14.68 6.68714 14.8733L5.8738 15.6867C5.78047 15.7867 5.64714 15.8333 5.52047 15.8333Z" fill="currentColor"/>
</svg>
