<svg width="16" height="16" viewBox="0 0 16 16" fill="none" xmlns="http://www.w3.org/2000/svg">
<g clip-path="url(#clip0_2_5215)">
<path d="M14 15.1667H5.99999C5.72666 15.1667 5.49999 14.94 5.49999 14.6667C5.49999 14.3933 5.72666 14.1667 5.99999 14.1667H14C14.2733 14.1667 14.5 14.3933 14.5 14.6667C14.5 14.94 14.2733 15.1667 14 15.1667Z" fill="currentColor"/>
<path d="M5.69341 15.14C5.02675 15.14 4.39344 14.88 3.92677 14.4067L1.58677 12.0667C0.613432 11.0933 0.613432 9.50667 1.58677 8.53333L8.54006 1.58C9.48006 0.64 11.1334 0.64 12.0734 1.58L14.4134 3.91999C15.3867 4.89333 15.3867 6.48 14.4134 7.45333L7.46013 14.4067C6.99346 14.8867 6.36675 15.14 5.69341 15.14ZM2.29343 11.3667L4.63343 13.7067C5.2001 14.2733 6.19343 14.2733 6.75346 13.7067L13.7067 6.75333C14.2934 6.16666 14.2934 5.21999 13.7067 4.63333L11.3667 2.29333C10.8067 1.73333 9.81339 1.72667 9.24673 2.29333L2.29343 9.24667C1.70676 9.82667 1.70676 10.78 2.29343 11.3667Z" fill="currentColor"/>
<path d="M9.91366 11.7532C9.78699 11.7532 9.66033 11.7065 9.56033 11.6065L4.39369 6.43989C4.20036 6.24655 4.20036 5.92655 4.39369 5.73321C4.58703 5.53988 4.90702 5.53988 5.10035 5.73321L10.267 10.8999C10.4603 11.0932 10.4603 11.4132 10.267 11.6065C10.167 11.7065 10.0403 11.7532 9.91366 11.7532Z" fill="currentColor"/>
<path d="M2.34731 12.2733C2.22064 12.2733 2.09395 12.2266 1.99395 12.1266C1.80062 11.9333 1.80062 11.6133 1.99395 11.4199L5.76731 7.6466C5.96064 7.45327 6.28064 7.45327 6.47397 7.6466C6.66733 7.83993 6.66733 8.15993 6.47397 8.35327L2.70062 12.1266C2.60062 12.2266 2.47397 12.2733 2.34731 12.2733Z" fill="currentColor"/>
<path d="M4.22621 14.16C4.09955 14.16 3.97286 14.1133 3.87286 14.0133C3.67953 13.82 3.67953 13.5 3.87286 13.3067L7.64619 9.53333C7.83953 9.34 8.15953 9.34 8.35286 9.53333C8.54619 9.72667 8.54619 10.0467 8.35286 10.24L4.57952 14.0133C4.48619 14.1067 4.35955 14.16 4.22621 14.16Z" fill="currentColor"/>
</g>
<defs>
<clipPath id="clip0_2_5215">
<rect width="16" height="16" fill="currentColor"/>
</clipPath>
</defs>
</svg>
