<svg width="16" height="16" viewBox="0 0 16 16" fill="none" xmlns="http://www.w3.org/2000/svg">
<g clip-path="url(#clip0_2_5130)">
<path d="M9.99999 15.1667H5.99999C2.37999 15.1667 0.833328 13.62 0.833328 9.99999V5.99999C0.833328 2.37999 2.37999 0.833328 5.99999 0.833328H9.99999C13.62 0.833328 15.1667 2.37999 15.1667 5.99999V9.99999C15.1667 13.62 13.62 15.1667 9.99999 15.1667ZM5.99999 1.83333C2.92666 1.83333 1.83333 2.92666 1.83333 5.99999V9.99999C1.83333 13.0733 2.92666 14.1667 5.99999 14.1667H9.99999C13.0733 14.1667 14.1667 13.0733 14.1667 9.99999V5.99999C14.1667 2.92666 13.0733 1.83333 9.99999 1.83333H5.99999Z" fill="currentColor"/>
<path d="M6.72739 12.1666C6.31405 12.1666 5.90739 12.0133 5.59406 11.6999L4.30072 10.4066C3.67405 9.77993 3.67405 8.76659 4.30072 8.13993L8.13406 4.30658C8.76073 3.67991 9.77406 3.67991 10.4007 4.30658L11.6941 5.59991C12.3207 6.22657 12.3207 7.23993 11.6941 7.86659L7.86073 11.6999C7.54739 12.0066 7.14073 12.1666 6.72739 12.1666ZM5.01406 9.69993L6.30739 10.9933C6.54073 11.2266 6.92739 11.2266 7.16073 10.9933L10.9941 7.15993C11.2274 6.92659 11.2274 6.53991 10.9941 6.30658L9.70073 5.01325C9.46739 4.77991 9.08073 4.77991 8.84739 5.01325L5.01406 8.84659C4.78073 9.07993 4.78073 9.45993 5.01406 9.69993Z" fill="currentColor"/>
<path d="M9.05346 10.2934C8.92679 10.2934 8.80013 10.2467 8.70013 10.1467L5.84682 7.29339C5.65348 7.10006 5.65348 6.78006 5.84682 6.58673C6.04015 6.39339 6.36015 6.39339 6.55348 6.58673L9.40679 9.44006C9.60013 9.6334 9.60013 9.95339 9.40679 10.1467C9.31346 10.2467 9.18013 10.2934 9.05346 10.2934Z" fill="currentColor"/>
</g>
<defs>
<clipPath id="clip0_2_5130">
<rect width="16" height="16" fill="currentColor"/>
</clipPath>
</defs>
</svg>
