<svg width="16" height="16" viewBox="0 0 16 16" fill="none" xmlns="http://www.w3.org/2000/svg">
<path d="M10.1737 14.8333H5.82698C2.55365 14.8333 1.15365 13.4333 1.15365 10.16V10.0733C1.15365 7.11333 2.32032 5.68668 4.93365 5.44002C5.20031 5.42002 5.45365 5.62002 5.48032 5.89335C5.50698 6.16668 5.30698 6.41335 5.02698 6.44002C2.93365 6.63335 2.15365 7.62 2.15365 10.08V10.1667C2.15365 12.88 3.11365 13.84 5.82698 13.84H10.1737C12.887 13.84 13.847 12.88 13.847 10.1667V10.08C13.847 7.60666 13.0537 6.62002 10.9203 6.44002C10.647 6.41335 10.4403 6.17335 10.467 5.90002C10.4937 5.62668 10.727 5.42002 11.007 5.44668C13.6603 5.67335 14.847 7.10666 14.847 10.0867V10.1733C14.847 13.4333 13.447 14.8333 10.1737 14.8333Z" fill="currentColor"/>
<path d="M8 10.5001C7.72667 10.5001 7.5 10.2734 7.5 10.0001V2.41341C7.5 2.14008 7.72667 1.91341 8 1.91341C8.27333 1.91341 8.5 2.14008 8.5 2.41341V10.0001C8.5 10.2734 8.27333 10.5001 8 10.5001Z" fill="currentColor"/>
<path d="M10.2332 4.39996C10.1065 4.39996 9.97987 4.35329 9.87987 4.25329L7.99987 2.37329L6.11989 4.25329C5.92656 4.44662 5.60656 4.44662 5.41323 4.25329C5.21989 4.05996 5.21989 3.73996 5.41323 3.54662L7.64653 1.31329C7.83987 1.11996 8.15987 1.11996 8.3532 1.31329L10.5865 3.54662C10.7799 3.73996 10.7799 4.05996 10.5865 4.25329C10.4932 4.35329 10.3599 4.39996 10.2332 4.39996Z" fill="currentColor"/>
</svg>
