<svg width="16" height="16" viewBox="0 0 16 16" fill="none" xmlns="http://www.w3.org/2000/svg">
<g clip-path="url(#clip0_2_4992)">
<path d="M8.66633 7.83333C8.53967 7.83333 8.413 7.78666 8.313 7.68666C8.11966 7.49333 8.11966 7.17333 8.313 6.97999L13.7797 1.51332C13.973 1.31999 14.293 1.31999 14.4863 1.51332C14.6797 1.70665 14.6797 2.02665 14.4863 2.21999L9.01966 7.68666C8.91967 7.78666 8.793 7.83333 8.66633 7.83333Z" fill="currentColor"/>
<path d="M14.6661 5.03333C14.3928 5.03333 14.1661 4.80666 14.1661 4.53333V1.83333H11.4661C11.1928 1.83333 10.9661 1.60666 10.9661 1.33333C10.9661 1.05999 11.1928 0.833328 11.4661 0.833328H14.6661C14.9395 0.833328 15.1661 1.05999 15.1661 1.33333V4.53333C15.1661 4.80666 14.9395 5.03333 14.6661 5.03333Z" fill="currentColor"/>
<path d="M10 15.1667H6C2.38 15.1667 0.833332 13.62 0.833332 9.99999V5.99999C0.833332 2.37999 2.38 0.833328 6 0.833328H7.33333C7.60666 0.833328 7.83333 1.05999 7.83333 1.33333C7.83333 1.60666 7.60666 1.83333 7.33333 1.83333H6C2.92667 1.83333 1.83333 2.92666 1.83333 5.99999V9.99999C1.83333 13.0733 2.92667 14.1667 6 14.1667H10C13.0733 14.1667 14.1667 13.0733 14.1667 9.99999V8.66666C14.1667 8.39333 14.3933 8.16666 14.6667 8.16666C14.94 8.16666 15.1667 8.39333 15.1667 8.66666V9.99999C15.1667 13.62 13.62 15.1667 10 15.1667Z" fill="currentColor"/>
</g>
<defs>
<clipPath id="clip0_2_4992">
<rect width="16" height="16" fill="currentColor"/>
</clipPath>
</defs>
</svg>
