<svg width="16" height="16" viewBox="0 0 16 16" fill="none" xmlns="http://www.w3.org/2000/svg">
<path d="M9.62654 4.83325C9.49987 4.83325 9.37321 4.78658 9.2732 4.68658L7.91987 3.33325L6.56652 4.68658C6.37319 4.87992 6.05319 4.87992 5.85985 4.68658C5.66652 4.49325 5.66652 4.17325 5.85985 3.97992L7.56654 2.27325C7.75987 2.07992 8.07987 2.07992 8.2732 2.27325L9.97987 3.97992C10.1732 4.17325 10.1732 4.49325 9.97987 4.68658C9.87987 4.78658 9.75321 4.83325 9.62654 4.83325Z" fill="currentColor"/>
<path d="M7.92061 9.95333C7.64727 9.95333 7.42061 9.72666 7.42061 9.45333V2.67334C7.42061 2.4 7.64727 2.17334 7.92061 2.17334C8.19394 2.17334 8.42061 2.4 8.42061 2.67334V9.45333C8.42061 9.73333 8.19394 9.95333 7.92061 9.95333Z" fill="currentColor"/>
<path d="M8.00001 13.8333C4.56667 13.8333 2.16667 11.4333 2.16667 8C2.16667 7.72666 2.39334 7.5 2.66667 7.5C2.94001 7.5 3.16667 7.72666 3.16667 8C3.16667 10.8467 5.15334 12.8333 8.00001 12.8333C10.8467 12.8333 12.8333 10.8467 12.8333 8C12.8333 7.72666 13.06 7.5 13.3333 7.5C13.6067 7.5 13.8333 7.72666 13.8333 8C13.8333 11.4333 11.4333 13.8333 8.00001 13.8333Z" fill="currentColor"/>
</svg>
