<svg width="16" height="16" viewBox="0 0 16 16" fill="none" xmlns="http://www.w3.org/2000/svg">
<g clip-path="url(#clip0_2_4996)">
<path d="M8 15.1667C4.04667 15.1667 0.833336 11.9533 0.833336 7.99999C0.833336 4.04666 4.04667 0.833328 8 0.833328C8.27334 0.833328 8.5 1.05999 8.5 1.33333C8.5 1.60666 8.27334 1.83333 8 1.83333C4.6 1.83333 1.83334 4.59999 1.83334 7.99999C1.83334 11.4 4.6 14.1667 8 14.1667C11.4 14.1667 14.1667 11.4 14.1667 7.99999C14.1667 7.72666 14.3933 7.49999 14.6667 7.49999C14.94 7.49999 15.1667 7.72666 15.1667 7.99999C15.1667 11.9533 11.9533 15.1667 8 15.1667Z" fill="currentColor"/>
<path d="M8.66634 7.83333C8.53967 7.83333 8.413 7.78666 8.313 7.68666C8.11967 7.49333 8.11967 7.17333 8.313 6.97999L13.7797 1.51332C13.973 1.31999 14.293 1.31999 14.4863 1.51332C14.6797 1.70665 14.6797 2.02665 14.4863 2.21999L9.01967 7.68666C8.91967 7.78666 8.793 7.83333 8.66634 7.83333Z" fill="currentColor"/>
<path d="M14.6666 5.05333C14.3933 5.05333 14.1666 4.82666 14.1666 4.55333V1.83333H11.4466C11.1733 1.83333 10.9466 1.60666 10.9466 1.33333C10.9466 1.05999 11.1733 0.833328 11.4466 0.833328H14.6666C14.9399 0.833328 15.1666 1.05999 15.1666 1.33333V4.55333C15.1666 4.82666 14.9399 5.05333 14.6666 5.05333Z" fill="currentColor"/>
</g>
<defs>
<clipPath id="clip0_2_4996">
<rect width="16" height="16" fill="currentColor"/>
</clipPath>
</defs>
</svg>
