<svg width="16" height="16" viewBox="0 0 16 16" fill="none" xmlns="http://www.w3.org/2000/svg">
<path d="M10.6667 15.1667H6C3.70667 15.1667 2.16667 13.6267 2.16667 11.3333V4.66666C2.16667 2.37333 3.70667 0.833328 6 0.833328H10.6667C12.96 0.833328 14.5 2.37333 14.5 4.66666V11.3333C14.5 13.6267 12.96 15.1667 10.6667 15.1667ZM6 1.83333C4.28 1.83333 3.16667 2.94666 3.16667 4.66666V11.3333C3.16667 13.0533 4.28 14.1667 6 14.1667H10.6667C12.3867 14.1667 13.5 13.0533 13.5 11.3333V4.66666C13.5 2.94666 12.3867 1.83333 10.6667 1.83333H6Z" fill="currentColor"/>
<path d="M14 10.5H2.66667C2.39333 10.5 2.16667 10.2733 2.16667 9.99999C2.16667 9.72666 2.39333 9.49999 2.66667 9.49999H14C14.2733 9.49999 14.5 9.72666 14.5 9.99999C14.5 10.2733 14.2733 10.5 14 10.5Z" fill="currentColor"/>
<path d="M5.33333 8.49999H4.66667C4.39333 8.49999 4.16667 8.27333 4.16667 7.99999C4.16667 7.72666 4.39333 7.49999 4.66667 7.49999H5.33333C5.60667 7.49999 5.83333 7.72666 5.83333 7.99999C5.83333 8.27333 5.60667 8.49999 5.33333 8.49999Z" fill="currentColor"/>
<path d="M5.33333 6.83333H4.66667C4.39333 6.83333 4.16667 6.60666 4.16667 6.33333C4.16667 6.05999 4.39333 5.83333 4.66667 5.83333H5.33333C5.60667 5.83333 5.83333 6.05999 5.83333 6.33333C5.83333 6.60666 5.60667 6.83333 5.33333 6.83333Z" fill="currentColor"/>
<path d="M5.33333 5.16666H4.66667C4.39333 5.16666 4.16667 4.93999 4.16667 4.66666C4.16667 4.39333 4.39333 4.16666 4.66667 4.16666H5.33333C5.60667 4.16666 5.83333 4.39333 5.83333 4.66666C5.83333 4.93999 5.60667 5.16666 5.33333 5.16666Z" fill="currentColor"/>
<path d="M11.3333 12.9999C11.16 12.9999 10.9867 12.9266 10.86 12.8066C10.74 12.6799 10.6667 12.5066 10.6667 12.3333C10.6667 12.1533 10.74 11.9866 10.86 11.8599C11.0467 11.6733 11.34 11.6133 11.5867 11.7199C11.6667 11.7533 11.74 11.7999 11.8067 11.8599C11.9267 11.9866 12 12.1599 12 12.3333C12 12.5066 11.9267 12.6799 11.8067 12.8066C11.74 12.8666 11.6733 12.9133 11.5867 12.9466C11.5067 12.9799 11.42 12.9999 11.3333 12.9999Z" fill="currentColor"/>
</svg>
