<svg width="16" height="16" viewBox="0 0 16 16" fill="none" xmlns="http://www.w3.org/2000/svg">
<g clip-path="url(#clip0_2_4982)">
<path d="M6.31328 10.1866C6.18661 10.1866 6.05995 10.1399 5.95995 10.0399C5.41328 9.49327 5.11328 8.7666 5.11328 7.99993C5.11328 6.40661 6.40661 5.11328 7.99993 5.11328C8.7666 5.11328 9.49327 5.41328 10.0399 5.95995C10.1333 6.05328 10.1866 6.17995 10.1866 6.31328C10.1866 6.44661 10.1333 6.57328 10.0399 6.66661L6.66661 10.0399C6.56661 10.1399 6.43995 10.1866 6.31328 10.1866ZM7.99993 6.11328C6.95993 6.11328 6.11328 6.95993 6.11328 7.99993C6.11328 8.33327 6.19995 8.65327 6.35995 8.93327L8.93327 6.35995C8.65327 6.19995 8.33327 6.11328 7.99993 6.11328Z" fill="currentColor"/>
<path d="M3.73323 12.34C3.61989 12.34 3.49989 12.3 3.40656 12.22C2.69323 11.6133 2.05323 10.8667 1.50656 10C0.799893 8.9 0.799893 7.10667 1.50656 5.99999C3.13323 3.45332 5.49989 1.98665 7.99987 1.98665C9.46653 1.98665 10.9132 2.49332 12.1799 3.44665C12.3999 3.61332 12.4465 3.92665 12.2799 4.14665C12.1132 4.36665 11.7999 4.41332 11.5799 4.24665C10.4865 3.41999 9.24653 2.98665 7.99987 2.98665C5.84656 2.98665 3.78656 4.27999 2.34656 6.53999C1.84656 7.32 1.84656 8.68 2.34656 9.46C2.84656 10.24 3.41989 10.9133 4.05323 11.46C4.25989 11.64 4.28656 11.9533 4.10656 12.1667C4.01323 12.28 3.87323 12.34 3.73323 12.34Z" fill="currentColor"/>
<path d="M8.0004 14.0133C7.11373 14.0133 6.24703 13.8333 5.4137 13.48C5.16037 13.3733 5.04037 13.08 5.14703 12.8267C5.2537 12.5733 5.54703 12.4533 5.80037 12.56C6.50703 12.86 7.24707 13.0133 7.99373 13.0133C10.1471 13.0133 12.2071 11.72 13.6471 9.46C14.1471 8.68 14.1471 7.32 13.6471 6.54C13.4404 6.21333 13.2137 5.9 12.9737 5.60667C12.8004 5.39333 12.8337 5.08 13.0471 4.9C13.2604 4.72667 13.5737 4.75333 13.7537 4.97333C14.0137 5.29333 14.2671 5.64 14.4937 6C15.2004 7.1 15.2004 8.89333 14.4937 10C12.8671 12.5467 10.5004 14.0133 8.0004 14.0133Z" fill="currentColor"/>
<path d="M8.45973 10.8467C8.2264 10.8467 8.01307 10.6801 7.9664 10.4401C7.91307 10.1667 8.09307 9.90673 8.3664 9.86007C9.09973 9.72673 9.71307 9.1134 9.8464 8.38007C9.89973 8.10673 10.1597 7.9334 10.4331 7.98007C10.7064 8.0334 10.8864 8.2934 10.8331 8.56673C10.6197 9.72007 9.69973 10.6334 8.55307 10.8467C8.51973 10.8401 8.49307 10.8467 8.45973 10.8467Z" fill="currentColor"/>
<path d="M1.33297 15.1667C1.2063 15.1667 1.07963 15.12 0.979633 15.02C0.7863 14.8267 0.7863 14.5067 0.979633 14.3133L5.95963 9.33333C6.15297 9.14 6.47297 9.14 6.6663 9.33333C6.85967 9.52667 6.85998 9.8466 6.66661 10.0399L1.6863 15.02C1.5863 15.12 1.45963 15.1667 1.33297 15.1667Z" fill="currentColor"/>
<path d="M9.68713 6.81327C9.56047 6.81327 9.4338 6.7666 9.3338 6.66663C9.14047 6.47329 9.14047 6.15329 9.3338 5.95996L14.3138 0.979961C14.5071 0.786628 14.8271 0.786628 15.0205 0.979961C15.2138 1.17329 15.2138 1.49329 15.0205 1.68663L10.0399 6.66661C9.93993 6.76659 9.8138 6.81327 9.68713 6.81327Z" fill="currentColor"/>
</g>
<defs>
<clipPath id="clip0_2_4982">
<rect width="16" height="16" fill="currentColor"/>
</clipPath>
</defs>
</svg>
