<svg width="16" height="16" viewBox="0 0 16 16" fill="none" xmlns="http://www.w3.org/2000/svg">
<path d="M7.99993 10.8866C6.40661 10.8866 5.11328 9.59326 5.11328 7.99993C5.11328 6.40661 6.40661 5.11328 7.99993 5.11328C9.59327 5.11328 10.8866 6.40661 10.8866 7.99993C10.8866 9.59326 9.59327 10.8866 7.99993 10.8866ZM7.99993 6.11328C6.95993 6.11328 6.11328 6.95993 6.11328 7.99993C6.11328 9.03993 6.95993 9.8866 7.99993 9.8866C9.03993 9.8866 9.8866 9.03993 9.8866 7.99993C9.8866 6.95993 9.03993 6.11328 7.99993 6.11328Z" fill="currentColor"/>
<path d="M8.00007 14.0133C5.49339 14.0133 3.12672 12.5467 1.50005 10C0.793386 8.9 0.793386 7.10666 1.50005 5.99998C3.13339 3.45332 5.50005 1.98665 8.00007 1.98665C10.5001 1.98665 12.8667 3.45332 14.4934 5.99998C15.2001 7.1 15.2001 8.89333 14.4934 10C12.8667 12.5467 10.5001 14.0133 8.00007 14.0133ZM8.00007 2.98665C5.84672 2.98665 3.78672 4.27998 2.34672 6.53998C1.84672 7.32 1.84672 8.68 2.34672 9.46C3.78672 11.72 5.84672 13.0133 8.00007 13.0133C10.1534 13.0133 12.2134 11.72 13.6534 9.46C14.1534 8.68 14.1534 7.32 13.6534 6.53998C12.2134 4.27998 10.1534 2.98665 8.00007 2.98665Z" fill="currentColor"/>
</svg>
