<svg width="16" height="16" viewBox="0 0 16 16" fill="none" xmlns="http://www.w3.org/2000/svg">
<g clip-path="url(#clip0_14_7)">
<path fill-rule="evenodd" clip-rule="evenodd" d="M9.26665 4.53332C8.51765 4.53332 7.86665 5.20422 7.86665 5.99999V8.73332H6.53332V9.33332H7.86665V14.1333H8.79999V9.26665H10.5392L10.6655 8.66665H8.79999V6.17082C8.80982 5.92117 8.94343 5.7389 9.07515 5.63352C9.19513 5.53754 9.35959 5.46665 9.53332 5.46665H10.8V4.53332H9.26665ZM9.86665 6.53332H11.2C11.3957 6.53332 11.5325 6.43812 11.5982 6.38115C11.6693 6.3196 11.7177 6.25147 11.749 6.19939C11.8023 6.11046 11.8667 5.96446 11.8667 5.79999V4.13332C11.8667 3.93758 11.7715 3.8008 11.7145 3.73507C11.6529 3.66405 11.5848 3.61557 11.5327 3.58432C11.4438 3.53097 11.2978 3.46665 11.1333 3.46665H9.26665C7.88233 3.46665 6.79999 4.66242 6.79999 5.99999V7.66665H6.13332C5.93758 7.66665 5.8008 7.76186 5.73507 7.81883C5.66405 7.88037 5.61557 7.94851 5.58432 8.00059C5.53097 8.08951 5.46665 8.23551 5.46665 8.39999V9.73332C5.46665 9.92906 5.56186 10.0658 5.61883 10.1316C5.68037 10.2026 5.74851 10.2511 5.80059 10.2823C5.88951 10.3357 6.03551 10.4 6.19999 10.4H6.79999V15.2H9.86665V10.3333H10.8C10.9645 10.3333 11.1105 10.269 11.1994 10.2156C11.2515 10.1844 11.3196 10.1359 11.3811 10.0649C11.4296 10.009 11.5058 9.90161 11.5274 9.75026L11.8 8.45552V8.39999C11.8 8.25421 11.7652 8.07793 11.6604 7.92082C11.5451 7.74789 11.3402 7.59999 11.0667 7.59999H9.86665V6.53332Z" fill="currentColor"/>
<path fill-rule="evenodd" clip-rule="evenodd" d="M2.79378 2.79378C2.19273 3.39482 1.86665 4.38592 1.86665 5.99999V9.99999C1.86665 11.6141 2.19273 12.6052 2.79378 13.2062C3.39482 13.8072 4.38592 14.1333 5.99999 14.1333H9.99999C11.6141 14.1333 12.6052 13.8072 13.2062 13.2062C13.8072 12.6052 14.1333 11.6141 14.1333 9.99999V5.99999C14.1333 4.38592 13.8072 3.39482 13.2062 2.79378C12.6052 2.19273 11.6141 1.86665 9.99999 1.86665H5.99999C4.38592 1.86665 3.39482 2.19273 2.79378 2.79378ZM2.03953 2.03953C2.93849 1.14058 4.28072 0.799988 5.99999 0.799988H9.99999C11.7193 0.799988 13.0615 1.14058 13.9604 2.03953C14.8594 2.93849 15.2 4.28072 15.2 5.99999V9.99999C15.2 11.7193 14.8594 13.0615 13.9604 13.9604C13.0615 14.8594 11.7193 15.2 9.99999 15.2H5.99999C4.28072 15.2 2.93849 14.8594 2.03953 13.9604C1.14058 13.0615 0.799988 11.7193 0.799988 9.99999V5.99999C0.799988 4.28072 1.14058 2.93849 2.03953 2.03953Z" fill="currentColor"/>
</g>
<defs>
<clipPath id="clip0_14_7">
<rect width="16" height="16" fill="currentColor"/>
</clipPath>
</defs>
</svg>
