<svg width="16" height="16" viewBox="0 0 16 16" fill="none" xmlns="http://www.w3.org/2000/svg">
<g clip-path="url(#clip0_2_4981)">
<path d="M13.2667 15.1667H2.73334C1.45334 15.1667 0.833336 14.5133 0.833336 13.18V10.4867C0.833336 9.14666 1.45334 8.49999 2.73334 8.49999H13.2667C14.5467 8.49999 15.1667 9.15333 15.1667 10.4867V13.18C15.1667 14.5133 14.5467 15.1667 13.2667 15.1667ZM2.73334 9.49999C2.06 9.49999 1.83334 9.63999 1.83334 10.4867V13.18C1.83334 14.0267 2.06 14.1667 2.73334 14.1667H13.2667C13.94 14.1667 14.1667 14.0267 14.1667 13.18V10.4867C14.1667 9.63999 13.94 9.49999 13.2667 9.49999H2.73334Z" fill="currentColor"/>
<path d="M8.6 7.49999H2.73334C1.45334 7.49999 0.833336 6.84666 0.833336 5.51333V2.81999C0.833336 1.47999 1.45334 0.833328 2.73334 0.833328H8.6C9.88 0.833328 10.5 1.48666 10.5 2.81999V5.51333C10.5 6.84666 9.88 7.49999 8.6 7.49999ZM2.73334 1.83333C2.06 1.83333 1.83334 1.97333 1.83334 2.81999V5.51333C1.83334 6.36 2.06 6.49999 2.73334 6.49999H8.6C9.27334 6.49999 9.5 6.36 9.5 5.51333V2.81999C9.5 1.97333 9.27334 1.83333 8.6 1.83333H2.73334Z" fill="currentColor"/>
</g>
<defs>
<clipPath id="clip0_2_4981">
<rect width="16" height="16" fill="currentColor"/>
</clipPath>
</defs>
</svg>
