<svg width="16" height="16" viewBox="0 0 16 16" fill="none" xmlns="http://www.w3.org/2000/svg">
<g clip-path="url(#clip0_2_4668)">
<path d="M8.66666 15.1667H6C2.38 15.1667 0.833328 13.62 0.833328 9.99999V5.99999C0.833328 2.37999 2.38 0.833328 6 0.833328H10C13.62 0.833328 15.1667 2.37999 15.1667 5.99999V8.66666C15.1667 8.93999 14.94 9.16666 14.6667 9.16666C14.3933 9.16666 14.1667 8.93999 14.1667 8.66666V5.99999C14.1667 2.92666 13.0733 1.83333 10 1.83333H6C2.92666 1.83333 1.83333 2.92666 1.83333 5.99999V9.99999C1.83333 13.0733 2.92666 14.1667 6 14.1667H8.66666C8.93999 14.1667 9.16666 14.3933 9.16666 14.6667C9.16666 14.94 8.93999 15.1667 8.66666 15.1667Z" fill="currentColor"/>
<path d="M4.88672 10.16C4.78006 10.16 4.6734 10.1267 4.58006 10.0533C4.36006 9.88666 4.32008 9.57333 4.48674 9.35333L6.07339 7.29333C6.26672 7.04666 6.54007 6.88666 6.85339 6.84666C7.16673 6.80666 7.4734 6.89333 7.72006 7.08666L8.94006 8.04666C8.98673 8.08666 9.03339 8.07999 9.06673 8.07999C9.0934 8.07999 9.14006 8.06666 9.18006 8.01333L10.7201 6.02666C10.8867 5.80666 11.2001 5.76667 11.4201 5.94C11.6401 6.10667 11.6801 6.42 11.5067 6.64L9.96673 8.62666C9.7734 8.87333 9.50006 9.03333 9.18673 9.06666C8.88006 9.10666 8.56673 9.01999 8.32673 8.82666L7.10673 7.86666C7.06006 7.82666 7.00673 7.82666 6.98006 7.83333C6.9534 7.83333 6.90673 7.84666 6.86673 7.89999L5.28007 9.95999C5.18674 10.0933 5.04006 10.16 4.88672 10.16Z" fill="currentColor"/>
<path d="M13.507 15.1668C13.2737 15.1668 12.9736 15.0935 12.6203 14.8801L12.4536 14.7801C12.4069 14.7535 12.2669 14.7535 12.2203 14.7801L12.0536 14.8801C11.2869 15.3401 10.8003 15.1468 10.587 14.9868C10.367 14.8268 10.0269 14.4268 10.2269 13.5468L10.2603 13.4068C10.2737 13.3535 10.2336 13.2268 10.2003 13.1868L9.967 12.9535C9.57366 12.5535 9.42026 12.0868 9.5536 11.6668C9.68693 11.2535 10.0803 10.9601 10.6337 10.8668L10.8869 10.8268C10.9336 10.8135 11.0269 10.7468 11.0536 10.7001L11.2403 10.3201C11.5003 9.79346 11.9003 9.49346 12.3403 9.49346C12.7803 9.49346 13.1803 9.79346 13.4403 10.3201L13.627 10.6935C13.6537 10.7401 13.747 10.8068 13.7937 10.8201L14.047 10.8601C14.6003 10.9535 14.9937 11.2468 15.127 11.6601C15.2603 12.0735 15.1137 12.5401 14.7137 12.9468L14.4803 13.1801C14.447 13.2201 14.407 13.3468 14.4203 13.4001L14.4536 13.5401C14.6536 14.4201 14.3137 14.8201 14.0937 14.9801C13.9737 15.0735 13.7803 15.1668 13.507 15.1668ZM12.3269 10.5001C12.3203 10.5068 12.227 10.5735 12.1337 10.7668L11.947 11.1468C11.787 11.4735 11.4069 11.7535 11.0536 11.8135L10.8003 11.8535C10.587 11.8868 10.5137 11.9601 10.507 11.9735C10.507 11.9868 10.5269 12.0935 10.6803 12.2468L10.9136 12.4801C11.1869 12.7601 11.3269 13.2401 11.2403 13.6201L11.2069 13.7601C11.1469 14.0201 11.1736 14.1335 11.1869 14.1735C11.2069 14.1601 11.3203 14.1468 11.5403 14.0135L11.7069 13.9135C12.0736 13.6935 12.6003 13.6935 12.967 13.9135L13.1337 14.0135C13.407 14.1801 13.5203 14.1601 13.527 14.1601C13.5003 14.1601 13.5336 14.0268 13.4736 13.7601L13.4403 13.6201C13.3537 13.2335 13.4936 12.7601 13.7669 12.4801L14.0003 12.2468C14.1536 12.0935 14.1737 11.9868 14.1737 11.9668C14.167 11.9535 14.0937 11.8868 13.8803 11.8468L13.627 11.8068C13.267 11.7468 12.8937 11.4668 12.7337 11.1401L12.547 10.7668C12.4403 10.5668 12.3469 10.5068 12.3269 10.5001Z" fill="currentColor"/>
</g>
<defs>
<clipPath id="clip0_2_4668">
<rect width="16" height="16" fill="currentColor"/>
</clipPath>
</defs>
</svg>
