<svg width="16" height="16" viewBox="0 0 16 16" fill="none" xmlns="http://www.w3.org/2000/svg">
<path d="M11.2526 13.5C9.9726 13.5 8.76593 12.82 8.1126 11.72C7.76593 11.16 7.58593 10.5067 7.58593 9.83333C7.58593 7.81333 9.2326 6.16666 11.2526 6.16666C13.2726 6.16666 14.9193 7.81333 14.9193 9.83333C14.9193 10.5067 14.7326 11.16 14.3859 11.7267C13.7393 12.82 12.5393 13.5 11.2526 13.5ZM11.2526 7.16666C9.77926 7.16666 8.58593 8.35999 8.58593 9.83333C8.58593 10.32 8.71926 10.7933 8.9726 11.2C9.4526 12.0067 10.3259 12.5 11.2526 12.5C12.1993 12.5 13.0526 12.02 13.5326 11.2067C13.7859 10.7933 13.9193 10.32 13.9193 9.83333C13.9193 8.35999 12.7259 7.16666 11.2526 7.16666Z" fill="currentColor"/>
<path d="M12.4396 10.32H10.0729C9.79959 10.32 9.57293 10.0933 9.57293 9.81999C9.57293 9.54666 9.79959 9.31999 10.0729 9.31999H12.4396C12.7129 9.31999 12.9396 9.54666 12.9396 9.81999C12.9396 10.0933 12.7129 10.32 12.4396 10.32Z" fill="currentColor"/>
<path d="M11.2526 11.5267C10.9793 11.5267 10.7526 11.3 10.7526 11.0267V8.66666C10.7526 8.39333 10.9793 8.16666 11.2526 8.16666C11.5259 8.16666 11.7526 8.39333 11.7526 8.66666V11.0333C11.7526 11.3067 11.5326 11.5267 11.2526 11.5267Z" fill="currentColor"/>
<path d="M7.2872 15.1667C6.9672 15.1667 6.64718 15.0867 6.36052 14.9267C5.76718 14.5933 5.41385 13.9933 5.41385 13.32V9.75333C5.41385 9.41999 5.19385 8.91333 4.98052 8.65333L2.44718 5.99332C2.02718 5.55999 1.70052 4.83333 1.70052 4.3V2.74666C1.70052 1.67333 2.51385 0.833328 3.54718 0.833328H12.4405C13.4605 0.833328 14.2872 1.66001 14.2872 2.68001V4.15999C14.2872 4.85999 13.8739 5.64668 13.4739 6.06001L12.2739 7.11999C12.1539 7.22666 11.9872 7.26666 11.8272 7.23333C11.6472 7.18666 11.4526 7.16666 11.2526 7.16666C9.77926 7.16666 8.58593 8.35999 8.58593 9.83333C8.58593 10.32 8.72053 10.7933 8.97386 11.2067C9.18719 11.56 9.47386 11.8533 9.80719 12.06C9.95386 12.1533 10.0472 12.3133 10.0472 12.4867V12.7133C10.0472 13.24 9.72719 13.98 9.19386 14.2933L8.27386 14.8867C7.97386 15.0733 7.6272 15.1667 7.2872 15.1667ZM3.55385 1.83333C3.08052 1.83333 2.70718 2.23333 2.70718 2.74666V4.3C2.70718 4.54 2.90718 5.03333 3.17385 5.3L5.74052 7.99999C6.08052 8.41999 6.42052 9.13333 6.42052 9.75999V13.3267C6.42052 13.7667 6.7272 13.9867 6.85386 14.06C7.14053 14.22 7.48053 14.2133 7.74053 14.0533L8.67386 13.4533C8.85386 13.3467 9.03386 13.0067 9.04719 12.7667C8.68053 12.4933 8.36053 12.14 8.12053 11.74C7.77386 11.1733 7.5872 10.52 7.5872 9.85333C7.5872 7.83333 9.23386 6.18668 11.2539 6.18668C11.4405 6.18668 11.6272 6.20001 11.8005 6.22668L12.7872 5.35335C13.0139 5.12001 13.2939 4.56667 13.2939 4.17333V2.69331C13.2939 2.22665 12.9139 1.84667 12.4472 1.84667H3.55385V1.83333Z" fill="currentColor"/>
</svg>
