<svg width="16" height="16" viewBox="0 0 16 16" fill="none" xmlns="http://www.w3.org/2000/svg">
<path d="M7.28721 15.1667C6.96721 15.1667 6.6472 15.0867 6.35386 14.92C5.76053 14.5867 5.4072 13.9933 5.4072 13.32V9.75333C5.4072 9.41333 5.1872 8.91333 4.98053 8.65333L2.4472 5.99332C2.0272 5.57332 1.70053 4.84 1.70053 4.3V2.75333C1.70053 1.67999 2.51386 0.840002 3.5472 0.840002H12.4339C13.4539 0.840002 14.2805 1.66668 14.2805 2.68668V4.16666C14.2805 4.86666 13.8605 5.67331 13.4605 6.06665C13.2672 6.25998 12.9472 6.25998 12.7539 6.06665C12.5605 5.87331 12.5605 5.55331 12.7539 5.35998C13.0005 5.11331 13.2805 4.55999 13.2805 4.16666V2.68668C13.2805 2.22001 12.9005 1.84 12.4339 1.84H3.55386C3.08053 1.84 2.7072 2.23999 2.7072 2.75333V4.3C2.7072 4.54667 2.9072 5.03333 3.1672 5.29333L5.73386 7.99333C6.07386 8.41333 6.4072 9.11999 6.4072 9.75333V13.32C6.4072 13.76 6.70721 13.9733 6.84054 14.0467C7.12721 14.2067 7.46721 14.2 7.73388 14.04L8.66721 13.44C8.90054 13.2933 9.20721 13.36 9.36054 13.5933C9.50721 13.8267 9.44054 14.1333 9.20721 14.2867L8.26721 14.8933C7.96721 15.0733 7.62721 15.1667 7.28721 15.1667Z" fill="currentColor"/>
<path d="M11.2526 13.5C9.97261 13.5 8.76594 12.82 8.11261 11.72C7.76594 11.16 7.58594 10.5067 7.58594 9.83333C7.58594 7.81333 9.23261 6.16666 11.2526 6.16666C13.2726 6.16666 14.9193 7.81333 14.9193 9.83333C14.9193 10.5067 14.7326 11.16 14.3859 11.7267C13.7393 12.82 12.5393 13.5 11.2526 13.5ZM11.2526 7.16666C9.77928 7.16666 8.58594 8.35999 8.58594 9.83333C8.58594 10.32 8.71928 10.7933 8.97261 11.2C9.45261 12.0067 10.3259 12.5 11.2526 12.5C12.1993 12.5 13.0526 12.02 13.5326 11.2067C13.7859 10.7933 13.9193 10.32 13.9193 9.83333C13.9193 8.35999 12.7259 7.16666 11.2526 7.16666Z" fill="currentColor"/>
<path d="M12.1001 11.1599C11.9734 11.1599 11.8467 11.1133 11.7467 11.0133L10.0734 9.33993C9.88008 9.14659 9.88008 8.82659 10.0734 8.63326C10.2667 8.43993 10.5867 8.43993 10.7801 8.63326L12.4534 10.3066C12.6467 10.4999 12.6467 10.8199 12.4534 11.0133C12.3601 11.1133 12.2334 11.1599 12.1001 11.1599Z" fill="currentColor"/>
<path d="M10.4137 11.18C10.287 11.18 10.1603 11.1333 10.0603 11.0333C9.86701 10.84 9.86701 10.52 10.0603 10.3267L11.7337 8.65333C11.927 8.45999 12.247 8.45999 12.4403 8.65333C12.6337 8.84666 12.6337 9.16659 12.4403 9.35993L10.767 11.0333C10.667 11.1333 10.5403 11.18 10.4137 11.18Z" fill="currentColor"/>
<path d="M7.28721 15.1667C6.96721 15.1667 6.6472 15.0867 6.36053 14.9267C5.7672 14.5933 5.41386 13.9933 5.41386 13.32V9.75333C5.41386 9.41999 5.19386 8.91333 4.98053 8.65333L2.4472 5.99332C2.0272 5.55999 1.70053 4.83333 1.70053 4.3V2.74666C1.70053 1.67333 2.51386 0.833328 3.5472 0.833328H12.4405C13.4605 0.833328 14.2872 1.66001 14.2872 2.68001V4.15999C14.2872 4.85999 13.8739 5.64668 13.4739 6.06001L12.2739 7.11999C12.1539 7.22666 11.9805 7.26666 11.8272 7.23333C11.6472 7.18666 11.4526 7.16666 11.2526 7.16666C9.77928 7.16666 8.58594 8.35999 8.58594 9.83333C8.58594 10.32 8.72054 10.7933 8.97388 11.2067C9.18721 11.56 9.47388 11.8533 9.80721 12.06C9.95388 12.1533 10.0472 12.3133 10.0472 12.4867V12.7133C10.0472 13.24 9.72721 13.98 9.19388 14.2933L8.27388 14.8867C7.97388 15.0733 7.62721 15.1667 7.28721 15.1667ZM3.55386 1.83333C3.08053 1.83333 2.7072 2.23333 2.7072 2.74666V4.3C2.7072 4.54 2.9072 5.03333 3.17386 5.3L5.74053 7.99999C6.08053 8.41999 6.42053 9.13333 6.42053 9.75999V13.3267C6.42053 13.7667 6.72721 13.9867 6.85388 14.06C7.14054 14.22 7.48054 14.2133 7.74054 14.0533L8.67388 13.4533C8.85388 13.3467 9.03388 13.0067 9.04721 12.7667C8.68054 12.4933 8.36054 12.14 8.12054 11.74C7.77388 11.1733 7.58721 10.52 7.58721 9.85333C7.58721 7.83333 9.23388 6.18668 11.2539 6.18668C11.4405 6.18668 11.6272 6.20001 11.8005 6.22668L12.7872 5.35335C13.0139 5.12001 13.2939 4.56667 13.2939 4.17333V2.69331C13.2939 2.22665 12.9139 1.84667 12.4472 1.84667H3.55386V1.83333Z" fill="currentColor"/>
</svg>
