<svg width="16" height="16" viewBox="0 0 16 16" fill="none" xmlns="http://www.w3.org/2000/svg">
<g clip-path="url(#clip0_2_5222)">
<path d="M7.58668 12.5999C7.36668 12.5999 7.14668 12.5466 6.94668 12.4333C6.54001 12.2066 6.29334 11.7933 6.29334 11.3266V9.27326C6.29334 9.1466 6.19334 8.89993 6.09334 8.77326L4.64668 7.25326C4.37334 6.97993 4.16668 6.49993 4.16668 6.13326V5.24659C4.16668 4.50659 4.72668 3.93326 5.44001 3.93326H10.5533C11.2533 3.93326 11.8267 4.50659 11.8267 5.20659V6.05993C11.8267 6.52659 11.56 7.03993 11.2933 7.30659L9.60668 8.79993C9.50001 8.89326 9.38668 9.12659 9.38668 9.31993V10.9866C9.38668 11.4066 9.13334 11.8733 8.79334 12.0733L8.26668 12.4133C8.06001 12.5399 7.82668 12.5999 7.58668 12.5999ZM5.44001 4.93326C5.28001 4.93326 5.16668 5.06659 5.16668 5.24659V6.13326C5.16668 6.21993 5.26001 6.44659 5.36668 6.55326L6.84668 8.11326C7.07334 8.39993 7.29334 8.85993 7.29334 9.27326V11.3266C7.29334 11.4599 7.38001 11.5333 7.43334 11.5599C7.50668 11.5999 7.62668 11.6266 7.73334 11.5599L8.26668 11.2133C8.32001 11.1733 8.38668 11.0399 8.38668 10.9733V9.30659C8.38668 8.83326 8.62001 8.30659 8.95334 8.03326L10.6067 6.56659C10.6933 6.47993 10.8267 6.21326 10.8267 6.04659V5.20659C10.8267 5.05993 10.7 4.93326 10.5533 4.93326H5.44001Z" fill="currentColor"/>
<path d="M10 15.1667H6.00001C2.38001 15.1667 0.833344 13.62 0.833344 9.99999V5.99999C0.833344 2.37999 2.38001 0.833328 6.00001 0.833328H10C13.62 0.833328 15.1667 2.37999 15.1667 5.99999V9.99999C15.1667 13.62 13.62 15.1667 10 15.1667ZM6.00001 1.83333C2.92668 1.83333 1.83334 2.92666 1.83334 5.99999V9.99999C1.83334 13.0733 2.92668 14.1667 6.00001 14.1667H10C13.0733 14.1667 14.1667 13.0733 14.1667 9.99999V5.99999C14.1667 2.92666 13.0733 1.83333 10 1.83333H6.00001Z" fill="currentColor"/>
</g>
<defs>
<clipPath id="clip0_2_5222">
<rect width="16" height="16" fill="currentColor"/>
</clipPath>
</defs>
</svg>
