<svg width="16" height="16" viewBox="0 0 16 16" fill="none" xmlns="http://www.w3.org/2000/svg">
<path d="M7.2872 15.1667C6.9672 15.1667 6.64721 15.0867 6.35388 14.9267C5.76054 14.5933 5.40718 14 5.40718 13.3267V9.76C5.40718 9.42 5.18717 8.92 4.9805 8.66L2.44718 6.00002C2.02718 5.58002 1.70052 4.84668 1.70052 4.30668V2.76003C1.70052 1.6867 2.51386 0.84668 3.5472 0.84668H12.4405C13.4605 0.84668 14.2872 1.67336 14.2872 2.69336V4.17336C14.2872 4.87336 13.8672 5.68001 13.4672 6.07335C13.2739 6.26668 12.9539 6.26668 12.7605 6.07335C12.5672 5.88001 12.5672 5.56001 12.7605 5.36668C13.0072 5.12001 13.2872 4.56669 13.2872 4.17336V2.69336C13.2872 2.22669 12.9072 1.84668 12.4405 1.84668H3.5472C3.07386 1.84668 2.70052 2.2467 2.70052 2.76003V4.30668C2.70052 4.55335 2.90052 5.04003 3.16052 5.30003L5.72721 8C6.06721 8.42 6.40051 9.12667 6.40051 9.76V13.3267C6.40051 13.7667 6.70053 13.98 6.83386 14.0533C7.12053 14.2133 7.46053 14.2067 7.7272 14.0467L8.66053 13.4467C8.89386 13.3 9.20053 13.3667 9.35386 13.6C9.50053 13.8333 9.43386 14.14 9.2072 14.2933L8.2672 14.9C7.9672 15.0733 7.6272 15.1667 7.2872 15.1667Z" fill="currentColor"/>
<path d="M9.12713 12.5933C8.8738 12.5933 8.6338 12.5 8.46046 12.3267C8.2538 12.12 8.16046 11.82 8.20713 11.5067L8.3338 10.6067C8.36713 10.3733 8.50713 10.1 8.6738 9.93333L11.0337 7.57333C11.3537 7.25333 11.6671 7.08667 12.0071 7.05333C12.4205 7.01333 12.8338 7.18667 13.2205 7.57333C13.6071 7.96 13.7804 8.36667 13.7404 8.78667C13.7071 9.12 13.5338 9.44 13.2205 9.76L10.8604 12.12C10.6937 12.2867 10.4138 12.4267 10.1805 12.46L9.2804 12.5867C9.22706 12.5933 9.18046 12.5933 9.12713 12.5933ZM12.1205 8.04C12.1138 8.04 12.1071 8.04 12.1005 8.04C12.0071 8.04667 11.8804 8.12667 11.7404 8.27333L9.38046 10.6333C9.36046 10.6533 9.32713 10.72 9.32713 10.7467L9.20713 11.58L10.0405 11.46C10.0671 11.4533 10.1337 11.42 10.1537 11.4L12.5138 9.04C12.6538 8.9 12.7405 8.77333 12.7471 8.68C12.7605 8.54667 12.6271 8.38667 12.5138 8.27333C12.4071 8.16667 12.2538 8.04 12.1205 8.04Z" fill="currentColor"/>
<path d="M12.5265 10.24C12.4798 10.24 12.4332 10.2333 12.3932 10.22C11.5132 9.97333 10.8131 9.27333 10.5665 8.39333C10.4931 8.12667 10.6465 7.85333 10.9131 7.77333C11.1798 7.7 11.4531 7.85333 11.5265 8.12C11.6798 8.66667 12.1131 9.1 12.6598 9.25333C12.9265 9.32667 13.0799 9.60667 13.0065 9.87333C12.9465 10.1 12.7465 10.24 12.5265 10.24Z" fill="currentColor"/>
</svg>
