<svg width="16" height="16" viewBox="0 0 16 16" fill="none" xmlns="http://www.w3.org/2000/svg">
<path d="M7.2936 15.1001C6.9736 15.1001 6.66026 15.0201 6.36692 14.8601C5.78026 14.5334 5.42692 13.9401 5.42692 13.2734V9.74007C5.42692 9.40674 5.20692 8.90674 5.00026 8.6534L2.50692 6.0134C2.08692 5.5934 1.76692 4.8734 1.76692 4.3334V2.80007C1.76692 1.7334 2.57359 0.900071 3.60026 0.900071H12.4003C13.4136 0.900071 14.2336 1.72007 14.2336 2.7334V4.20007C14.2336 4.90007 13.8136 5.6934 13.4203 6.08674L10.5336 8.64007C10.2536 8.8734 10.0336 9.38674 10.0336 9.80007V12.6667C10.0336 13.2601 9.66026 13.9467 9.1936 14.2267L8.2736 14.8201C7.9736 15.0067 7.6336 15.1001 7.2936 15.1001ZM3.60026 1.90007C3.13359 1.90007 2.76692 2.2934 2.76692 2.80007V4.3334C2.76692 4.58007 2.96692 5.06007 3.22026 5.3134L5.76026 7.98674C6.10026 8.40674 6.43359 9.10674 6.43359 9.7334V13.2667C6.43359 13.7001 6.7336 13.9134 6.86026 13.9801C7.14026 14.1334 7.48026 14.1334 7.74026 13.9734L8.66693 13.3801C8.8536 13.2667 9.04026 12.9067 9.04026 12.6667V9.80007C9.04026 9.08674 9.38693 8.30007 9.88693 7.88007L12.7403 5.3534C12.9669 5.12674 13.2403 4.58674 13.2403 4.1934V2.7334C13.2403 2.2734 12.8669 1.90007 12.4069 1.90007H3.60026Z" fill="currentColor"/>
<path d="M3.99978 7.16667C3.90645 7.16667 3.81978 7.14 3.73312 7.09334C3.49978 6.94667 3.42645 6.63335 3.57312 6.40002L6.8598 1.13335C7.00646 0.900018 7.31313 0.826685 7.54646 0.973351C7.7798 1.12002 7.85313 1.42668 7.70646 1.66002L4.41978 6.92667C4.32645 7.08 4.16645 7.16667 3.99978 7.16667Z" fill="currentColor"/>
</svg>
