<svg width="16" height="16" viewBox="0 0 16 16" fill="none" xmlns="http://www.w3.org/2000/svg">
<path d="M11.2526 13.5C10.5459 13.5 9.85928 13.2933 9.27261 12.9C8.81261 12.62 8.41261 12.2067 8.11928 11.72C7.77261 11.1533 7.58594 10.5 7.58594 9.83333C7.58594 7.81333 9.23261 6.16666 11.2526 6.16666C11.5326 6.16666 11.8059 6.2 12.0659 6.26C13.7193 6.62667 14.9193 8.12666 14.9193 9.83333C14.9193 10.5067 14.7393 11.16 14.3926 11.7267C13.7393 12.82 12.5326 13.5 11.2526 13.5ZM11.2526 7.16666C9.77928 7.16666 8.58594 8.35999 8.58594 9.83333C8.58594 10.32 8.71928 10.7933 8.97261 11.2067C9.18594 11.56 9.47261 11.8533 9.80594 12.06C10.2459 12.3533 10.7393 12.5 11.2526 12.5C12.1859 12.5 13.0593 12.0067 13.5393 11.2067C13.7926 10.7933 13.9193 10.32 13.9193 9.83333C13.9193 8.59333 13.0459 7.49999 11.8393 7.23333C11.6459 7.18666 11.4526 7.16666 11.2526 7.16666Z" fill="currentColor"/>
<path d="M10.7992 11.1134C10.6725 11.1134 10.5458 11.0667 10.4458 10.9667L9.66588 10.1867C9.47254 9.99339 9.47254 9.67339 9.66588 9.48006C9.85914 9.28673 10.1791 9.28673 10.3725 9.48006L10.8125 9.92006L12.1525 8.68673C12.3591 8.50006 12.6725 8.51339 12.8591 8.71339C13.0458 8.91339 13.0325 9.23339 12.8325 9.42006L11.1392 10.9801C11.0459 11.0667 10.9192 11.1134 10.7992 11.1134Z" fill="currentColor"/>
<path d="M7.28721 15.1667C6.96721 15.1667 6.64719 15.0867 6.36052 14.9267C5.76719 14.5933 5.41387 13.9933 5.41387 13.32V9.75333C5.41387 9.41333 5.19385 8.91333 4.98052 8.65333L2.4472 5.99332C2.0272 5.55999 1.70053 4.83333 1.70053 4.3V2.74666C1.70053 1.67333 2.51388 0.833328 3.54721 0.833328H12.4405C13.4605 0.833328 14.2872 1.65999 14.2872 2.67999V4.15999C14.2872 4.85999 13.8739 5.64666 13.4672 6.05999L12.2672 7.11999C12.1472 7.22666 11.9805 7.26666 11.8205 7.23333C11.6405 7.18666 11.4472 7.16666 11.2472 7.16666C9.77388 7.16666 8.58054 8.35999 8.58054 9.83333C8.58054 10.32 8.71388 10.7933 8.96721 11.2067C9.18054 11.56 9.46721 11.8533 9.80054 12.06C9.94721 12.1533 10.0405 12.3133 10.0405 12.4867V12.7133C10.0405 13.24 9.72054 13.98 9.18721 14.2933L8.26721 14.8867C7.97388 15.0733 7.62721 15.1667 7.28721 15.1667ZM3.55388 1.83333C3.08055 1.83333 2.7072 2.23333 2.7072 2.74666V4.3C2.7072 4.54 2.90721 5.02666 3.17388 5.29333L5.74053 7.99333C6.08053 8.41333 6.42054 9.11999 6.42054 9.75333V13.32C6.42054 13.76 6.72721 13.98 6.85388 14.0533C7.14054 14.2133 7.48054 14.2067 7.74054 14.0467L8.67388 13.4467C8.85388 13.34 9.03388 13 9.04721 12.76C8.68054 12.4867 8.36054 12.1333 8.12054 11.7333C7.77388 11.1667 7.58721 10.5133 7.58721 9.84666C7.58721 7.82666 9.23388 6.17999 11.2539 6.17999C11.4405 6.17999 11.6272 6.19332 11.8005 6.21999L12.7872 5.34665C13.0139 5.11332 13.2939 4.55999 13.2939 4.16666V2.68666C13.2939 2.21999 12.9139 1.84 12.4472 1.84H3.55388V1.83333Z" fill="currentColor"/>
</svg>
