<svg width="16" height="16" viewBox="0 0 16 16" fill="none" xmlns="http://www.w3.org/2000/svg">
<path d="M7.28721 15.1667C6.96721 15.1667 6.64722 15.0867 6.35389 14.9267C5.76056 14.5933 5.4072 14 5.4072 13.3267V9.76C5.4072 9.42 5.18718 8.92 4.98052 8.66L2.4472 6.00002C2.0272 5.58002 1.70053 4.84668 1.70053 4.30668V2.76003C1.70053 1.6867 2.51388 0.84668 3.54721 0.84668H12.4405C13.4605 0.84668 14.2872 1.67336 14.2872 2.69336V4.17336C14.2872 4.87336 13.8672 5.68001 13.4672 6.07335C13.2739 6.26668 12.9539 6.26668 12.7605 6.07335C12.5672 5.88001 12.5672 5.56001 12.7605 5.36668C13.0072 5.12001 13.2872 4.56669 13.2872 4.17336V2.69336C13.2872 2.22669 12.9072 1.84668 12.4405 1.84668H3.54721C3.07388 1.84668 2.70053 2.2467 2.70053 2.76003V4.30668C2.70053 4.55335 2.90053 5.04003 3.16053 5.30003L5.72722 8C6.06722 8.42 6.40052 9.12667 6.40052 9.76V13.3267C6.40052 13.7667 6.70054 13.98 6.83388 14.0533C7.12054 14.2133 7.46054 14.2067 7.72721 14.0467L8.66054 13.4467C8.85388 13.3333 9.04054 12.9667 9.04054 12.72C9.04054 12.4467 9.26721 12.22 9.54054 12.22C9.81388 12.22 10.0405 12.4467 10.0405 12.72C10.0405 13.32 9.66721 14.0067 9.19388 14.2933L8.26721 14.8933C7.96721 15.0733 7.62721 15.1667 7.28721 15.1667Z" fill="currentColor"/>
<path d="M10.7141 11.5134C9.26074 11.5134 8.08074 10.3334 8.08074 8.88007C8.08074 7.42673 9.26074 6.24675 10.7141 6.24675C12.1674 6.24675 13.3474 7.42673 13.3474 8.88007C13.3474 10.3334 12.1674 11.5134 10.7141 11.5134ZM10.7141 7.24673C9.81408 7.24673 9.08074 7.98007 9.08074 8.88007C9.08074 9.78007 9.81408 10.5134 10.7141 10.5134C11.6141 10.5134 12.3474 9.78007 12.3474 8.88007C12.3474 7.98007 11.6141 7.24673 10.7141 7.24673Z" fill="currentColor"/>
<path d="M13.247 11.9134C13.1203 11.9134 12.9937 11.8667 12.8937 11.7667L12.227 11.1001C12.0337 10.9067 12.0337 10.5867 12.227 10.3934C12.4203 10.2001 12.7403 10.2001 12.9337 10.3934L13.6003 11.0601C13.7937 11.2534 13.7937 11.5734 13.6003 11.7667C13.507 11.8601 13.3737 11.9134 13.247 11.9134Z" fill="currentColor"/>
</svg>
