<svg width="16" height="16" viewBox="0 0 16 16" fill="none" xmlns="http://www.w3.org/2000/svg">
<g clip-path="url(#clip0_2_4974)">
<path d="M8.00001 15.1667C4.04668 15.1667 0.833344 11.9533 0.833344 7.99999C0.833344 4.04666 4.04668 0.833328 8.00001 0.833328C11.9533 0.833328 15.1667 4.04666 15.1667 7.99999C15.1667 11.9533 11.9533 15.1667 8.00001 15.1667ZM8.00001 1.83333C4.60001 1.83333 1.83334 4.59999 1.83334 7.99999C1.83334 11.4 4.60001 14.1667 8.00001 14.1667C11.4 14.1667 14.1667 11.4 14.1667 7.99999C14.1667 4.59999 11.4 1.83333 8.00001 1.83333Z" fill="currentColor"/>
<path d="M7.99974 10.4199C7.11974 10.4199 6.39975 9.69993 6.39975 8.81993V7.17326C6.39975 6.29325 7.11974 5.57324 7.99974 5.57324C8.87974 5.57324 9.59974 6.29325 9.59974 7.17326V8.81993C9.59974 9.70659 8.87974 10.4199 7.99974 10.4199ZM7.99974 6.57991C7.67308 6.57991 7.39974 6.84659 7.39974 7.17993V8.82659C7.39974 9.15993 7.66641 9.42659 7.99974 9.42659C8.33308 9.42659 8.59974 9.15993 8.59974 8.82659V7.17993C8.59974 6.84659 8.32641 6.57991 7.99974 6.57991Z" fill="currentColor"/>
<path d="M8.00001 12.5466C5.88668 12.5466 4.16668 10.8266 4.16668 8.71326V7.28659C4.16668 5.17328 5.88668 3.45328 8.00001 3.45328C9.97334 3.45328 11.6133 4.93331 11.8133 6.89333C11.84 7.16666 11.64 7.41326 11.3667 7.43993C11.0933 7.47326 10.8467 7.26659 10.82 6.99326C10.6733 5.54661 9.46001 4.45328 8.00001 4.45328C6.44001 4.45328 5.16668 5.72661 5.16668 7.28659V8.71326C5.16668 10.2733 6.44001 11.5466 8.00001 11.5466C9.46668 11.5466 10.7067 10.3999 10.8267 8.93993C10.8467 8.66659 11.0867 8.45993 11.3667 8.47993C11.64 8.49993 11.8467 8.73999 11.8267 9.01999C11.6667 11 9.98668 12.5466 8.00001 12.5466Z" fill="currentColor"/>
</g>
<defs>
<clipPath id="clip0_2_4974">
<rect width="16" height="16" fill="currentColor"/>
</clipPath>
</defs>
</svg>
