<svg width="16" height="16" viewBox="0 0 16 16" fill="none" xmlns="http://www.w3.org/2000/svg">
<g clip-path="url(#clip0_2_4708)">
<path d="M7.99974 10.4199C7.11974 10.4199 6.39975 9.69993 6.39975 8.81993V7.17326C6.39975 6.29325 7.11974 5.57324 7.99974 5.57324C8.87974 5.57324 9.59974 6.29325 9.59974 7.17326V8.81993C9.59974 9.70659 8.87974 10.4199 7.99974 10.4199ZM7.99974 6.57991C7.67308 6.57991 7.39974 6.84659 7.39974 7.17993V8.82659C7.39974 9.15993 7.66641 9.42659 7.99974 9.42659C8.33308 9.42659 8.59974 9.15993 8.59974 8.82659V7.17993C8.59974 6.84659 8.32641 6.57991 7.99974 6.57991Z" fill="currentColor"/>
<path d="M8.00001 12.5466C5.88668 12.5466 4.16668 10.8266 4.16668 8.71326V7.28659C4.16668 5.17328 5.88668 3.45328 8.00001 3.45328C9.97334 3.45328 11.6133 4.93331 11.8133 6.89333C11.84 7.16666 11.64 7.41326 11.3667 7.43993C11.0933 7.47326 10.8467 7.26659 10.82 6.99326C10.6733 5.54661 9.46001 4.45328 8.00001 4.45328C6.44001 4.45328 5.16668 5.72661 5.16668 7.28659V8.71326C5.16668 10.2733 6.44001 11.5466 8.00001 11.5466C9.46668 11.5466 10.7067 10.3999 10.8267 8.93993C10.8467 8.66659 11.0867 8.45993 11.3667 8.47993C11.64 8.49993 11.8467 8.73999 11.8267 9.01999C11.6667 11 9.98668 12.5466 8.00001 12.5466Z" fill="currentColor"/>
<path d="M14.6667 6.49999C14.3933 6.49999 14.1667 6.27333 14.1667 5.99999V4.66666C14.1667 2.94666 13.0533 1.83333 11.3333 1.83333H10C9.72668 1.83333 9.50001 1.60666 9.50001 1.33333C9.50001 1.05999 9.72668 0.833328 10 0.833328H11.3333C13.6267 0.833328 15.1667 2.37333 15.1667 4.66666V5.99999C15.1667 6.27333 14.94 6.49999 14.6667 6.49999Z" fill="currentColor"/>
<path d="M1.33334 6.49999C1.06001 6.49999 0.833344 6.27333 0.833344 5.99999V4.66666C0.833344 2.37333 2.37334 0.833328 4.66668 0.833328H6.00001C6.27334 0.833328 6.50001 1.05999 6.50001 1.33333C6.50001 1.60666 6.27334 1.83333 6.00001 1.83333H4.66668C2.94668 1.83333 1.83334 2.94666 1.83334 4.66666V5.99999C1.83334 6.27333 1.60668 6.49999 1.33334 6.49999Z" fill="currentColor"/>
<path d="M11.3333 15.1667H10C9.72668 15.1667 9.50001 14.94 9.50001 14.6667C9.50001 14.3933 9.72668 14.1667 10 14.1667H11.3333C13.0533 14.1667 14.1667 13.0533 14.1667 11.3333V9.99999C14.1667 9.72666 14.3933 9.49999 14.6667 9.49999C14.94 9.49999 15.1667 9.72666 15.1667 9.99999V11.3333C15.1667 13.6267 13.6267 15.1667 11.3333 15.1667Z" fill="currentColor"/>
<path d="M6.00001 15.1667H4.66668C2.37334 15.1667 0.833344 13.6267 0.833344 11.3333V9.99999C0.833344 9.72666 1.06001 9.49999 1.33334 9.49999C1.60668 9.49999 1.83334 9.72666 1.83334 9.99999V11.3333C1.83334 13.0533 2.94668 14.1667 4.66668 14.1667H6.00001C6.27334 14.1667 6.50001 14.3933 6.50001 14.6667C6.50001 14.94 6.27334 15.1667 6.00001 15.1667Z" fill="currentColor"/>
</g>
<defs>
<clipPath id="clip0_2_4708">
<rect width="16" height="16" fill="currentColor"/>
</clipPath>
</defs>
</svg>
