<svg width="16" height="16" viewBox="0 0 16 16" fill="none" xmlns="http://www.w3.org/2000/svg">
<path d="M14 3.50001H9.33333C9.06 3.50001 8.83333 3.27334 8.83333 3.00001C8.83333 2.72667 9.06 2.50001 9.33333 2.50001H14C14.2733 2.50001 14.5 2.72667 14.5 3.00001C14.5 3.27334 14.2733 3.50001 14 3.50001Z" fill="currentColor"/>
<path d="M14 6.83334H9.33333C9.06 6.83334 8.83333 6.60667 8.83333 6.33334C8.83333 6.06 9.06 5.83334 9.33333 5.83334H14C14.2733 5.83334 14.5 6.06 14.5 6.33334C14.5 6.60667 14.2733 6.83334 14 6.83334Z" fill="currentColor"/>
<path d="M14 10.1667H2C1.72667 10.1667 1.5 9.94 1.5 9.66667C1.5 9.39334 1.72667 9.16667 2 9.16667H14C14.2733 9.16667 14.5 9.39334 14.5 9.66667C14.5 9.94 14.2733 10.1667 14 10.1667Z" fill="currentColor"/>
<path d="M14 13.5H2C1.72667 13.5 1.5 13.2733 1.5 13C1.5 12.7267 1.72667 12.5 2 12.5H14C14.2733 12.5 14.5 12.7267 14.5 13C14.5 13.2733 14.2733 13.5 14 13.5Z" fill="currentColor"/>
<path d="M5.28 7.16667H3.38667C2.36 7.16667 1.83333 6.64667 1.83333 5.61334V3.72C1.83333 2.69334 2.35333 2.16667 3.38667 2.16667H5.28667C6.31333 2.16667 6.84 2.68667 6.84 3.72V5.62001C6.83333 6.64667 6.31333 7.16667 5.28 7.16667ZM3.38667 3.16667C2.91333 3.16667 2.83333 3.24667 2.83333 3.72V5.62001C2.83333 6.09334 2.91333 6.17334 3.38667 6.17334H5.28667C5.76 6.17334 5.84 6.09334 5.84 5.62001V3.72C5.84 3.24667 5.76 3.16667 5.28667 3.16667H3.38667Z" fill="currentColor"/>
</svg>
