<svg width="16" height="16" viewBox="0 0 16 16" fill="none" xmlns="http://www.w3.org/2000/svg">
<path d="M4.2995 15.1667C4.02617 15.1667 3.7995 14.94 3.7995 14.6667V1.33333C3.7995 1.05999 4.02617 0.833328 4.2995 0.833328C4.57283 0.833328 4.7995 1.05999 4.7995 1.33333V14.6667C4.7995 14.94 4.57283 15.1667 4.2995 15.1667Z" fill="currentColor"/>
<path d="M4.63273 11.8334C4.44607 11.8334 4.27273 11.7334 4.18607 11.5534C4.06607 11.3067 4.16607 11.0067 4.41273 10.8867L9.94609 8.15339C10.7594 7.73339 11.2194 7.22673 11.1994 6.75339C11.1794 6.2934 10.6861 5.82007 9.83942 5.46007L4.4394 3.12673C4.1794 3.0134 4.06607 2.72007 4.17273 2.46673C4.2794 2.2134 4.5794 2.0934 4.83273 2.20673L10.2328 4.54007C11.8994 5.24673 12.1794 6.20673 12.1994 6.71339C12.2328 7.60006 11.5928 8.42673 10.3994 9.04006L4.8594 11.7801C4.78607 11.8201 4.70607 11.8334 4.63273 11.8334Z" fill="currentColor"/>
</svg>
