<svg width="16" height="16" viewBox="0 0 16 16" fill="none" xmlns="http://www.w3.org/2000/svg">
<g clip-path="url(#clip0_2_4968)">
<path d="M7.99998 15.1667C4.04665 15.1667 0.833313 11.9533 0.833313 7.99999C0.833313 4.04666 4.04665 0.833328 7.99998 0.833328C11.9533 0.833328 15.1666 4.04666 15.1666 7.99999C15.1666 11.9533 11.9533 15.1667 7.99998 15.1667ZM7.99998 1.83333C4.59998 1.83333 1.83331 4.59999 1.83331 7.99999C1.83331 11.4 4.59998 14.1667 7.99998 14.1667C11.4 14.1667 14.1666 11.4 14.1666 7.99999C14.1666 4.59999 11.4 1.83333 7.99998 1.83333Z" fill="currentColor"/>
<path d="M6.47333 11.8933C6.28 11.8933 6.13335 11.8267 6.04668 11.7601C5.86668 11.6401 5.59334 11.3333 5.76667 10.6467L6.28002 8.57333L5.66667 8.41999C5.04667 8.26666 4.90668 7.87333 4.88001 7.71333C4.85335 7.55333 4.84001 7.13339 5.36001 6.76673L8.81331 4.37335C9.39331 3.97335 9.77331 4.12001 9.95331 4.24001C10.1333 4.36001 10.4066 4.66671 10.2333 5.35337L9.71998 7.42673L10.3333 7.57999C10.9533 7.73333 11.0933 8.12666 11.12 8.29333C11.1466 8.45999 11.16 8.87333 10.64 9.23999L7.18665 11.6333C6.89998 11.8267 6.66665 11.8933 6.47333 11.8933ZM6.07333 7.49333L7.00671 7.72673C7.27338 7.79339 7.43998 8.06666 7.37331 8.33333L6.78665 10.6934L9.92671 8.51339L8.99331 8.28006C8.72665 8.21339 8.55998 7.93999 8.62665 7.67333L9.21338 5.31333L6.07333 7.49333Z" fill="currentColor"/>
</g>
<defs>
<clipPath id="clip0_2_4968">
<rect width="16" height="16" fill="currentColor"/>
</clipPath>
</defs>
</svg>
