<svg width="16" height="16" viewBox="0 0 16 16" fill="none" xmlns="http://www.w3.org/2000/svg">
<g clip-path="url(#clip0_2_4966)">
<path d="M7.37951 12.1134C7.26618 12.1134 7.15951 12.0934 7.04618 12.0534C6.67951 11.9134 6.43954 11.5734 6.43954 11.1801V8.98006H5.78621C5.41287 8.98006 5.08621 8.76673 4.93287 8.43339C4.77954 8.09339 4.83954 7.71339 5.08621 7.43339L7.92618 4.20674C8.18618 3.91341 8.58618 3.81341 8.95285 3.95341C9.31951 4.09341 9.55951 4.43341 9.55951 4.82674V7.02673H10.2195C10.5928 7.02673 10.9195 7.24006 11.0728 7.57339C11.2262 7.91339 11.1662 8.29339 10.9195 8.57339L8.07951 11.8001C7.89285 12.0001 7.63951 12.1134 7.37951 12.1134ZM5.93287 7.98006H6.93951C7.21285 7.98006 7.43951 8.20673 7.43951 8.48006V11.0001L10.0662 8.02006H9.05951C8.78618 8.02006 8.55951 7.79339 8.55951 7.52006V5.00007L5.93287 7.98006Z" fill="currentColor"/>
<path d="M7.98045 15.1667C4.03378 15.1667 0.813782 11.9533 0.813782 7.99999C0.813782 4.04666 4.03378 0.833328 7.98045 0.833328C11.9271 0.833328 15.1471 4.04666 15.1471 7.99999C15.1471 11.9533 11.9338 15.1667 7.98045 15.1667ZM7.98045 1.83333C4.58045 1.83333 1.81378 4.59999 1.81378 7.99999C1.81378 11.4 4.58045 14.1667 7.98045 14.1667C11.3804 14.1667 14.1471 11.4 14.1471 7.99999C14.1471 4.59999 11.3804 1.83333 7.98045 1.83333Z" fill="currentColor"/>
</g>
<defs>
<clipPath id="clip0_2_4966">
<rect width="16" height="16" fill="currentColor"/>
</clipPath>
</defs>
</svg>
