<svg width="16" height="16" viewBox="0 0 16 16" fill="none" xmlns="http://www.w3.org/2000/svg">
<g clip-path="url(#clip0_2_5099)">
<path d="M6.65982 15.1667C6.52648 15.1667 6.41982 15.14 6.33982 15.1067C6.07315 15.0067 5.61982 14.68 5.61982 13.6467V12.02C5.61982 11.7467 5.84648 11.52 6.11982 11.52C6.39315 11.52 6.61982 11.7467 6.61982 12.02V13.6467C6.61982 13.98 6.67982 14.1267 6.70649 14.1667C6.72649 14.14 6.86649 14.0733 7.08649 13.82L12.1332 8.08667C12.3198 7.87333 12.3465 7.74 12.3465 7.71333C12.3332 7.70667 12.2132 7.64 11.9332 7.64H11.3132C11.0398 7.64 10.8132 7.41333 10.8132 7.14C10.8132 6.86667 11.0398 6.63997 11.3132 6.63997H11.9332C12.8265 6.63997 13.1465 7.06 13.2598 7.30667C13.3732 7.56 13.4732 8.07333 12.8865 8.74667L7.83982 14.48C7.36649 15.0267 6.95316 15.1667 6.65982 15.1667Z" fill="currentColor"/>
<path d="M6.1204 10.1466C5.84707 10.1466 5.6204 9.91993 5.6204 9.6466V9.35993H4.0604C3.16707 9.35993 2.84707 8.93993 2.73374 8.69327C2.6204 8.43993 2.5204 7.9266 3.10707 7.25327L8.15376 1.51993C8.83376 0.746601 9.38709 0.799934 9.65376 0.899934C9.92042 0.999934 10.3738 1.3266 10.3738 2.35993V5.89993C10.3738 6.17327 10.1471 6.39993 9.87376 6.39993C9.60042 6.39993 9.37376 6.17327 9.37376 5.89993V2.3466C9.37376 2.01327 9.31376 1.8666 9.28709 1.8266C9.26709 1.85327 9.12709 1.91993 8.90709 2.17327L3.8604 7.9066C3.67374 8.11993 3.64707 8.25327 3.64707 8.27993C3.6604 8.2866 3.7804 8.35327 4.0604 8.35327H6.1204C6.39373 8.35327 6.6204 8.57993 6.6204 8.85327V9.63993C6.6204 9.91993 6.39373 10.1466 6.1204 10.1466Z" fill="currentColor"/>
<path d="M1.33299 15.1666C1.20632 15.1666 1.07966 15.1199 0.979656 15.0199C0.786322 14.8266 0.786322 14.5066 0.979656 14.3133L14.313 0.979961C14.5064 0.786628 14.8264 0.786628 15.0197 0.979961C15.213 1.17329 15.213 1.49329 15.0197 1.68663L1.68632 15.0199C1.58632 15.1199 1.45966 15.1666 1.33299 15.1666Z" fill="currentColor"/>
</g>
<defs>
<clipPath id="clip0_2_5099">
<rect width="16" height="16" fill="currentColor"/>
</clipPath>
</defs>
</svg>
