<svg width="16" height="16" viewBox="0 0 16 16" fill="none" xmlns="http://www.w3.org/2000/svg">
<path d="M9.04667 14.9201C8.89333 14.9201 8.74 14.8934 8.59333 14.8401C8.09333 14.6534 7.77333 14.1867 7.77333 13.6534V9.35339H6.21331C5.70665 9.35339 5.26664 9.06673 5.05997 8.60673C4.85331 8.14673 4.93331 7.62673 5.26664 7.24673L10.3133 1.51337C10.6667 1.11337 11.2133 0.973366 11.7133 1.1667C12.2133 1.35337 12.5333 1.82003 12.5333 2.35337V6.65337H14.0933C14.6 6.65337 15.04 6.94006 15.2467 7.40006C15.4533 7.86006 15.3733 8.38006 15.04 8.76006L9.99333 14.4934C9.74667 14.7734 9.4 14.9201 9.04667 14.9201ZM11.2533 2.08003C11.1933 2.08003 11.12 2.10003 11.06 2.17337L6.0133 7.91339C5.90663 8.03339 5.94665 8.15339 5.96665 8.20006C5.98665 8.24673 6.05331 8.36006 6.21331 8.36006H8.27333C8.54667 8.36006 8.77333 8.58673 8.77333 8.86006V13.6601C8.77333 13.8267 8.89333 13.8934 8.94667 13.9134C9 13.9334 9.13327 13.9667 9.23993 13.8401L14.2867 8.10006C14.3933 7.98006 14.3533 7.86006 14.3333 7.81339C14.3133 7.76673 14.2467 7.65339 14.0867 7.65339H12.0267C11.7533 7.65339 11.5267 7.42673 11.5267 7.15339V2.35337C11.5267 2.1867 11.4067 2.12003 11.3533 2.10003C11.3333 2.0867 11.2933 2.08003 11.2533 2.08003Z" fill="currentColor"/>
<path d="M5.66667 3.16666H1C0.726667 3.16666 0.5 2.93999 0.5 2.66666C0.5 2.39333 0.726667 2.16666 1 2.16666H5.66667C5.94 2.16666 6.16667 2.39333 6.16667 2.66666C6.16667 2.93999 5.94 3.16666 5.66667 3.16666Z" fill="currentColor"/>
<path d="M5 13.8333H1C0.726667 13.8333 0.5 13.6067 0.5 13.3333C0.5 13.06 0.726667 12.8333 1 12.8333H5C5.27333 12.8333 5.5 13.06 5.5 13.3333C5.5 13.6067 5.27333 13.8333 5 13.8333Z" fill="currentColor"/>
<path d="M3 8.49999H1C0.726667 8.49999 0.5 8.27333 0.5 7.99999C0.5 7.72666 0.726667 7.49999 1 7.49999H3C3.27333 7.49999 3.5 7.72666 3.5 7.99999C3.5 8.27333 3.27333 8.49999 3 8.49999Z" fill="currentColor"/>
</svg>
