<svg width="16" height="16" viewBox="0 0 16 16" fill="none" xmlns="http://www.w3.org/2000/svg">
<path d="M6.6604 15.1666C6.52706 15.1666 6.4204 15.1399 6.3404 15.1066C6.07373 15.0066 5.6204 14.6799 5.6204 13.6466V9.34659H4.0604C3.16706 9.34659 2.84706 8.92659 2.73373 8.67993C2.6204 8.42659 2.5204 7.91326 3.10706 7.23993L8.15375 1.50658C8.83375 0.733246 9.38708 0.786579 9.65375 0.886579C9.92042 0.986579 10.3738 1.31325 10.3738 2.34658V6.64658H11.9338C12.8271 6.64658 13.1471 7.06659 13.2604 7.31326C13.3738 7.56659 13.4738 8.07993 12.8871 8.75326L7.84042 14.4866C7.36708 15.0266 6.95375 15.1666 6.6604 15.1666ZM9.28708 1.82658C9.26708 1.85325 9.12709 1.91991 8.90708 2.17325L3.8604 7.90659C3.67373 8.11993 3.64706 8.25326 3.64706 8.27993C3.6604 8.28659 3.7804 8.35326 4.0604 8.35326H6.1204C6.39373 8.35326 6.6204 8.57993 6.6204 8.85326V13.6533C6.6204 13.9866 6.68042 14.1333 6.70708 14.1733C6.72708 14.1466 6.86708 14.0799 7.08708 13.8266L12.1338 8.09326C12.3204 7.87993 12.3471 7.74659 12.3471 7.71992C12.3338 7.71326 12.2138 7.64659 11.9338 7.64659H9.87375C9.60042 7.64659 9.37375 7.41993 9.37375 7.14659V2.34658C9.38042 2.01325 9.31375 1.87325 9.28708 1.82658Z" fill="currentColor"/>
</svg>
