<svg width="16" height="16" viewBox="0 0 16 16" fill="none" xmlns="http://www.w3.org/2000/svg">
<g clip-path="url(#clip0_2_4965)">
<path d="M11.3333 15.1667H4.66665C1.72665 15.1667 0.833313 14.2733 0.833313 11.3333V4.66666C0.833313 1.72666 1.72665 0.833328 4.66665 0.833328H5.66665C6.83331 0.833328 7.19998 1.21333 7.66665 1.83333L8.66665 3.16666C8.88665 3.45999 8.91998 3.49999 9.33331 3.49999H11.3333C14.2733 3.49999 15.1666 4.39333 15.1666 7.33333V11.3333C15.1666 14.2733 14.2733 15.1667 11.3333 15.1667ZM4.66665 1.83333C2.27998 1.83333 1.83331 2.28666 1.83331 4.66666V11.3333C1.83331 13.7133 2.27998 14.1667 4.66665 14.1667H11.3333C13.72 14.1667 14.1666 13.7133 14.1666 11.3333V7.33333C14.1666 4.95333 13.72 4.49999 11.3333 4.49999H9.33331C8.47998 4.49999 8.19998 4.20666 7.86665 3.76666L6.86665 2.43333C6.51998 1.97333 6.41331 1.83333 5.66665 1.83333H4.66665Z" fill="currentColor"/>
<path d="M13.3333 4.75333C13.06 4.75333 12.8333 4.52666 12.8333 4.25333V3.33333C12.8333 2.27999 12.3866 1.83333 11.3333 1.83333H5.33331C5.05998 1.83333 4.83331 1.60666 4.83331 1.33333C4.83331 1.05999 5.05998 0.833328 5.33331 0.833328H11.3333C12.9466 0.833328 13.8333 1.71999 13.8333 3.33333V4.25333C13.8333 4.52666 13.6066 4.75333 13.3333 4.75333Z" fill="currentColor"/>
</g>
<defs>
<clipPath id="clip0_2_4965">
<rect width="16" height="16" fill="currentColor"/>
</clipPath>
</defs>
</svg>
