<svg width="16" height="16" viewBox="0 0 16 16" fill="none" xmlns="http://www.w3.org/2000/svg">
<g clip-path="url(#clip0_2_4962)">
<path d="M9.20725 10.9866C9.08058 10.9866 8.95391 10.9399 8.85391 10.8399L6.49394 8.47993C6.30061 8.28659 6.30061 7.96659 6.49394 7.77326C6.68725 7.57993 7.00725 7.57993 7.20058 7.77326L9.56058 10.1333C9.75391 10.3266 9.75391 10.6466 9.56058 10.8399C9.46058 10.9333 9.33391 10.9866 9.20725 10.9866Z" fill="currentColor"/>
<path d="M6.81991 11.0133C6.69325 11.0133 6.56659 10.9666 6.46659 10.8666C6.27326 10.6733 6.27326 10.3533 6.46659 10.1599L8.82658 7.79993C9.01991 7.60659 9.33991 7.60659 9.53325 7.79993C9.72658 7.99326 9.72658 8.31326 9.53325 8.50659L7.17325 10.8666C7.07991 10.9599 6.94658 11.0133 6.81991 11.0133Z" fill="currentColor"/>
<path d="M11.3333 15.1667H4.66665C1.72665 15.1667 0.833313 14.2733 0.833313 11.3333V4.66666C0.833313 1.72666 1.72665 0.833328 4.66665 0.833328H5.66665C6.83331 0.833328 7.19998 1.21333 7.66665 1.83333L8.66665 3.16666C8.88665 3.45999 8.91998 3.49999 9.33331 3.49999H11.3333C14.2733 3.49999 15.1666 4.39333 15.1666 7.33333V11.3333C15.1666 14.2733 14.2733 15.1667 11.3333 15.1667ZM4.66665 1.83333C2.28665 1.83333 1.83331 2.28666 1.83331 4.66666V11.3333C1.83331 13.7133 2.28665 14.1667 4.66665 14.1667H11.3333C13.7133 14.1667 14.1666 13.7133 14.1666 11.3333V7.33333C14.1666 4.95333 13.7133 4.49999 11.3333 4.49999H9.33331C8.47998 4.49999 8.19998 4.20666 7.86665 3.76666L6.86665 2.43333C6.51998 1.97333 6.41998 1.83333 5.66665 1.83333H4.66665Z" fill="currentColor"/>
</g>
<defs>
<clipPath id="clip0_2_4962">
<rect width="16" height="16" fill="currentColor"/>
</clipPath>
</defs>
</svg>
