<svg width="16" height="16" viewBox="0 0 16 16" fill="none" xmlns="http://www.w3.org/2000/svg">
<path d="M12.1939 15.1667H3.80728C1.54062 15.1667 1.42062 13.92 1.32062 12.9133L1.05395 9.57333C0.993951 8.92666 1.18062 8.27999 1.59395 7.75999C2.08728 7.15999 2.78728 6.83333 3.54062 6.83333H12.4606C13.2006 6.83333 13.9006 7.15999 14.3739 7.72666L14.4873 7.87999C14.8473 8.37333 15.0073 8.97333 14.9473 9.57999L14.6806 12.9067C14.5806 13.92 14.4606 15.1667 12.1939 15.1667ZM3.54062 7.83333C3.09395 7.83333 2.66728 8.03333 2.38728 8.37999L2.34062 8.42666C2.12728 8.69999 2.01395 9.08666 2.05395 9.48666L2.32062 12.8267C2.41395 13.8 2.45395 14.1667 3.80728 14.1667H12.1939C13.5539 14.1667 13.5873 13.8 13.6806 12.82L13.9473 9.47999C13.9873 9.08666 13.8739 8.69333 13.6139 8.38666L13.5473 8.30666C13.2473 7.99333 12.8673 7.83333 12.4539 7.83333H3.54062Z" fill="currentColor"/>
<path d="M13.6667 8.14666C13.3933 8.14666 13.1667 7.91999 13.1667 7.64666V6.45335C13.1667 4.46668 12.82 4.12001 10.8333 4.12001H9.13333C8.38 4.12001 8.12 3.85335 7.83333 3.47335L6.97333 2.33335C6.68 1.94668 6.61333 1.85335 6.01333 1.85335H5.16666C3.18 1.85335 2.83333 2.20001 2.83333 4.18668V7.61999C2.83333 7.89333 2.60666 8.11999 2.33333 8.11999C2.06 8.11999 1.83333 7.89333 1.83333 7.61999V4.18668C1.83333 1.63335 2.61333 0.853348 5.16666 0.853348H6.02C7.04666 0.853348 7.36666 1.18668 7.78 1.73335L8.63333 2.86668C8.81333 3.10668 8.82666 3.12001 9.14 3.12001H10.84C13.3933 3.12001 14.1733 3.90001 14.1733 6.45335V7.64666C14.1667 7.91999 13.94 8.14666 13.6667 8.14666Z" fill="currentColor"/>
<path d="M9.71313 11.8333H6.28646C6.01312 11.8333 5.78646 11.6067 5.78646 11.3333C5.78646 11.06 6.01312 10.8333 6.28646 10.8333H9.71313C9.98646 10.8333 10.2131 11.06 10.2131 11.3333C10.2131 11.6067 9.99313 11.8333 9.71313 11.8333Z" fill="currentColor"/>
</svg>
