<svg width="16" height="16" viewBox="0 0 16 16" fill="none" xmlns="http://www.w3.org/2000/svg">
<g clip-path="url(#clip0_2_5054)">
<path d="M8.00025 11.92C7.83358 11.92 7.66025 11.86 7.52691 11.74L5.80694 10.2333C5.16027 9.66666 5.07361 8.69333 5.61361 8.01999C6.16027 7.33999 7.13358 7.21333 7.83358 7.73999L8.00025 7.86666L8.17358 7.73333C8.87358 7.20666 9.84691 7.33333 10.3936 8.01333C10.9336 8.68666 10.8469 9.65999 10.2002 10.2267L8.48025 11.7333C8.34025 11.86 8.16691 11.92 8.00025 11.92ZM6.46027 9.47999L8.00025 10.8267L9.54025 9.47999C9.78691 9.26666 9.82025 8.89999 9.61358 8.64666C9.40691 8.38666 9.04025 8.33999 8.77358 8.53999L8.30025 8.89333C8.12025 9.02666 7.88025 9.02666 7.70025 8.89333L7.22691 8.53999C6.96691 8.33999 6.59361 8.38666 6.38694 8.64666C6.18694 8.89999 6.22027 9.26666 6.46027 9.47999Z" fill="currentColor"/>
<path d="M11.3333 15.1667H4.66665C1.72665 15.1667 0.833313 14.2733 0.833313 11.3333V4.66666C0.833313 1.72666 1.72665 0.833328 4.66665 0.833328H5.66665C6.83331 0.833328 7.19998 1.21333 7.66665 1.83333L8.66665 3.16666C8.88665 3.45999 8.91998 3.49999 9.33331 3.49999H11.3333C14.2733 3.49999 15.1666 4.39333 15.1666 7.33333V11.3333C15.1666 14.2733 14.2733 15.1667 11.3333 15.1667ZM4.66665 1.83333C2.27998 1.83333 1.83331 2.28666 1.83331 4.66666V11.3333C1.83331 13.7133 2.27998 14.1667 4.66665 14.1667H11.3333C13.72 14.1667 14.1666 13.7133 14.1666 11.3333V7.33333C14.1666 4.95333 13.72 4.49999 11.3333 4.49999H9.33331C8.47998 4.49999 8.19998 4.20666 7.86665 3.76666L6.86665 2.43333C6.51998 1.97333 6.41331 1.83333 5.66665 1.83333H4.66665Z" fill="currentColor"/>
</g>
<defs>
<clipPath id="clip0_2_5054">
<rect width="16" height="16" fill="currentColor"/>
</clipPath>
</defs>
</svg>
