<svg width="16" height="16" viewBox="0 0 16 16" fill="none" xmlns="http://www.w3.org/2000/svg">
<g clip-path="url(#clip0_2_5268)">
<path d="M5.99998 15.1667H4.66665C1.72665 15.1667 0.833313 14.2733 0.833313 11.3333V4.66666C0.833313 1.72666 1.72665 0.833328 4.66665 0.833328H5.66665C6.83331 0.833328 7.19998 1.21333 7.66665 1.83333L8.66665 3.16666C8.88665 3.46 8.91998 3.49999 9.33331 3.49999H11.3333C14.2733 3.49999 15.1666 4.39333 15.1666 7.33333V8.66666C15.1666 8.93999 14.94 9.16666 14.6666 9.16666C14.3933 9.16666 14.1666 8.93999 14.1666 8.66666V7.33333C14.1666 4.95333 13.72 4.49999 11.3333 4.49999H9.33331C8.47998 4.49999 8.19998 4.20666 7.86665 3.76665L6.86665 2.43332C6.51997 1.97332 6.41331 1.83333 5.66665 1.83333H4.66665C2.27998 1.83333 1.83331 2.28666 1.83331 4.66666V11.3333C1.83331 13.7133 2.27998 14.1667 4.66665 14.1667H5.99998C6.27331 14.1667 6.49998 14.3933 6.49998 14.6667C6.49998 14.94 6.27331 15.1667 5.99998 15.1667Z" fill="currentColor"/>
<path d="M12.8935 15.2067C12.8868 15.2067 12.8801 15.2067 12.8734 15.2067H9.16678C8.05345 15.1267 7.49345 14.2733 7.49345 13.46C7.49345 12.8067 7.86011 12.12 8.56678 11.84C8.42011 11.0067 8.63351 10.2333 9.18685 9.65333C9.86685 8.93999 10.9601 8.65333 11.9068 8.93999C12.7334 9.19333 13.3268 9.84666 13.5734 10.7533C14.2734 10.9667 14.8268 11.52 15.0535 12.2733C15.3202 13.1467 15.0734 14.04 14.4134 14.6133C14.0134 14.9933 13.4668 15.2067 12.8935 15.2067ZM9.19345 12.7133C8.68678 12.76 8.50011 13.14 8.50011 13.46C8.50011 13.78 8.68678 14.1667 9.20678 14.2067H12.8802C13.2002 14.2333 13.5202 14.0867 13.7602 13.8733C14.1935 13.4933 14.2201 12.9533 14.1068 12.5667C13.9934 12.18 13.6602 11.7467 13.1002 11.6733C12.8802 11.6467 12.7068 11.48 12.6668 11.26C12.5201 10.36 12.0134 10.0267 11.6201 9.9C11.0334 9.72 10.3401 9.90666 9.92011 10.3467C9.63345 10.6467 9.35345 11.1867 9.66678 12.0467C9.76011 12.3067 9.62678 12.5933 9.36678 12.6867C9.30678 12.7067 9.24678 12.7133 9.19345 12.7133Z" fill="currentColor"/>
</g>
<defs>
<clipPath id="clip0_2_5268">
<rect width="16" height="16" fill="currentColor"/>
</clipPath>
</defs>
</svg>
