<svg width="16" height="16" viewBox="0 0 16 16" fill="none" xmlns="http://www.w3.org/2000/svg">
<path d="M7.99998 13.1667C7.72665 13.1667 7.49998 12.94 7.49998 12.6667V10.6667C7.49998 10.3933 7.72665 10.1667 7.99998 10.1667C8.27331 10.1667 8.49998 10.3933 8.49998 10.6667V12.6667C8.49998 12.94 8.27331 13.1667 7.99998 13.1667Z" fill="currentColor"/>
<path d="M7.99998 15.8333C6.98665 15.8333 6.16665 15.0133 6.16665 14C6.16665 12.9867 6.98665 12.1667 7.99998 12.1667C9.01331 12.1667 9.83331 12.9867 9.83331 14C9.83331 15.0133 9.01331 15.8333 7.99998 15.8333ZM7.99998 13.1667C7.53998 13.1667 7.16665 13.54 7.16665 14C7.16665 14.46 7.53998 14.8333 7.99998 14.8333C8.45998 14.8333 8.83331 14.46 8.83331 14C8.83331 13.54 8.45998 13.1667 7.99998 13.1667Z" fill="currentColor"/>
<path d="M12 14.5H9.33331C9.05998 14.5 8.83331 14.2733 8.83331 14C8.83331 13.7267 9.05998 13.5 9.33331 13.5H12C12.2733 13.5 12.5 13.7267 12.5 14C12.5 14.2733 12.2733 14.5 12 14.5Z" fill="currentColor"/>
<path d="M6.66665 14.5H3.99998C3.72665 14.5 3.49998 14.2733 3.49998 14C3.49998 13.7267 3.72665 13.5 3.99998 13.5H6.66665C6.93998 13.5 7.16665 13.7267 7.16665 14C7.16665 14.2733 6.93998 14.5 6.66665 14.5Z" fill="currentColor"/>
<path d="M10.3333 11.1667H5.66665C3.51998 11.1667 2.83331 10.48 2.83331 8.33333V3.66666C2.83331 1.51999 3.51998 0.833328 5.66665 0.833328H6.36664C7.25331 0.833328 7.53998 1.13333 7.88665 1.59334L8.58665 2.52669C8.71998 2.70002 8.71998 2.70003 8.93331 2.70003H10.3333C12.48 2.70003 13.1666 3.38669 13.1666 5.53336V8.33333C13.1666 10.48 12.48 11.1667 10.3333 11.1667ZM5.66665 1.83333C4.07331 1.83333 3.83331 2.07333 3.83331 3.66666V8.33333C3.83331 9.92666 4.07331 10.1667 5.66665 10.1667H10.3333C11.9266 10.1667 12.1666 9.92666 12.1666 8.33333V5.53336C12.1666 3.94003 11.9266 3.70003 10.3333 3.70003H8.93331C8.27331 3.70003 8.03331 3.4533 7.79331 3.1333L7.08665 2.19335C6.85331 1.88002 6.81998 1.83333 6.36664 1.83333H5.66665Z" fill="currentColor"/>
</svg>
