<svg width="16" height="16" viewBox="0 0 16 16" fill="none" xmlns="http://www.w3.org/2000/svg">
<g clip-path="url(#clip0_2_4961)">
<path d="M9.61981 10.2H6.28647C6.01314 10.2 5.78647 9.97333 5.78647 9.69999C5.78647 9.42666 6.01314 9.19999 6.28647 9.19999H9.61981C9.89314 9.19999 10.1198 9.42666 10.1198 9.69999C10.1198 9.97333 9.89314 10.2 9.61981 10.2Z" fill="currentColor"/>
<path d="M11.3333 15.1667H4.66668C1.72668 15.1667 0.833344 14.2733 0.833344 11.3333V4.66666C0.833344 1.72666 1.72668 0.833328 4.66668 0.833328H5.66668C6.83334 0.833328 7.20001 1.21333 7.66668 1.83333L8.66668 3.16666C8.88668 3.45999 8.92001 3.49999 9.33334 3.49999H11.3333C14.2733 3.49999 15.1667 4.39333 15.1667 7.33333V11.3333C15.1667 14.2733 14.2733 15.1667 11.3333 15.1667ZM4.66668 1.83333C2.28001 1.83333 1.83334 2.28666 1.83334 4.66666V11.3333C1.83334 13.7133 2.28001 14.1667 4.66668 14.1667H11.3333C13.72 14.1667 14.1667 13.7133 14.1667 11.3333V7.33333C14.1667 4.95333 13.72 4.49999 11.3333 4.49999H9.33334C8.48001 4.49999 8.20001 4.20666 7.86668 3.76666L6.86668 2.43333C6.52001 1.97333 6.41334 1.83333 5.66668 1.83333H4.66668Z" fill="currentColor"/>
</g>
<defs>
<clipPath id="clip0_2_4961">
<rect width="16" height="16" fill="currentColor"/>
</clipPath>
</defs>
</svg>
