<svg width="16" height="16" viewBox="0 0 16 16" fill="none" xmlns="http://www.w3.org/2000/svg">
<g clip-path="url(#clip0_2_5094)">
<path d="M11.3333 15.1667H4.66665C1.72665 15.1667 0.833313 14.2733 0.833313 11.3333V4.66666C0.833313 1.72666 1.72665 0.833328 4.66665 0.833328H5.66665C6.83331 0.833328 7.19998 1.21333 7.66665 1.83333L8.66665 3.16666C8.88665 3.45999 8.91998 3.49999 9.33331 3.49999H11.3333C14.2733 3.49999 15.1666 4.39333 15.1666 7.33333V11.3333C15.1666 14.2733 14.2733 15.1667 11.3333 15.1667ZM4.66665 1.83333C2.28665 1.83333 1.83331 2.28666 1.83331 4.66666V11.3333C1.83331 13.7133 2.28665 14.1667 4.66665 14.1667H11.3333C13.7133 14.1667 14.1666 13.7133 14.1666 11.3333V7.33333C14.1666 4.95333 13.7133 4.49999 11.3333 4.49999H9.33331C8.47998 4.49999 8.19998 4.20666 7.86665 3.76666L6.86665 2.43333C6.51998 1.97333 6.41998 1.83333 5.66665 1.83333H4.66665Z" fill="currentColor"/>
</g>
<defs>
<clipPath id="clip0_2_5094">
<rect width="16" height="16" fill="currentColor"/>
</clipPath>
</defs>
</svg>
