<svg width="16" height="16" viewBox="0 0 16 16" fill="none" xmlns="http://www.w3.org/2000/svg">
<g clip-path="url(#clip0_2_4918)">
<path d="M9.93334 15.1667H6.06668C5.47335 15.1667 4.71334 14.8533 4.30001 14.4333L1.56668 11.7C1.14668 11.28 0.833344 10.52 0.833344 9.93333V6.06667C0.833344 5.47333 1.14668 4.71333 1.56668 4.3L4.30001 1.56667C4.72001 1.14667 5.48002 0.833328 6.06668 0.833328H9.93334C10.5267 0.833328 11.2867 1.14667 11.7 1.56667L14.4333 4.3C14.8533 4.72 15.1667 5.48 15.1667 6.06667V9.93333C15.1667 10.5267 14.8533 11.2867 14.4333 11.7L11.7 14.4333C11.28 14.8533 10.5267 15.1667 9.93334 15.1667ZM6.06668 1.83333C5.74002 1.83333 5.23334 2.03999 5.00667 2.27333L2.27334 5.00667C2.04668 5.24 1.83334 5.74 1.83334 6.06667V9.93333C1.83334 10.26 2.04001 10.7667 2.27334 10.9933L5.00667 13.7267C5.24 13.9533 5.74002 14.1667 6.06668 14.1667H9.93334C10.26 14.1667 10.7667 13.96 10.9933 13.7267L13.7267 10.9933C13.9533 10.76 14.1667 10.26 14.1667 9.93333V6.06667C14.1667 5.74 13.96 5.23333 13.7267 5.00667L10.9933 2.27333C10.76 2.04666 10.26 1.83333 9.93334 1.83333H6.06668Z" fill="currentColor"/>
<path d="M3.29262 13.2199C3.16595 13.2199 3.03928 13.1733 2.93928 13.0733C2.74595 12.8799 2.74595 12.5599 2.93928 12.3666L12.3659 2.93991C12.5593 2.74658 12.8793 2.74658 13.0726 2.93991C13.2659 3.13325 13.2659 3.45325 13.0726 3.64658L3.64594 13.0733C3.54594 13.1733 3.41928 13.2199 3.29262 13.2199Z" fill="currentColor"/>
</g>
<defs>
<clipPath id="clip0_2_4918">
<rect width="16" height="16" fill="currentColor"/>
</clipPath>
</defs>
</svg>
