<svg width="16" height="16" viewBox="0 0 16 16" fill="none" xmlns="http://www.w3.org/2000/svg">
<g clip-path="url(#clip0_2_4957)">
<path d="M9.93334 15.1667H6.06668C5.47335 15.1667 4.71334 14.8533 4.30001 14.4333L1.56668 11.7C1.14668 11.28 0.833344 10.52 0.833344 9.93333V6.06667C0.833344 5.47333 1.14668 4.71333 1.56668 4.3L4.30001 1.56667C4.72001 1.14667 5.48002 0.833328 6.06668 0.833328H9.93334C10.5267 0.833328 11.2867 1.14667 11.7 1.56667L14.4333 4.3C14.8533 4.72 15.1667 5.48 15.1667 6.06667V9.93333C15.1667 10.5267 14.8533 11.2867 14.4333 11.7L11.7 14.4333C11.28 14.8533 10.5267 15.1667 9.93334 15.1667ZM6.06668 1.83333C5.74002 1.83333 5.23334 2.03999 5.00667 2.27333L2.27334 5.00667C2.04668 5.24 1.83334 5.74 1.83334 6.06667V9.93333C1.83334 10.26 2.04001 10.7667 2.27334 10.9933L5.00667 13.7267C5.24 13.9533 5.74002 14.1667 6.06668 14.1667H9.93334C10.26 14.1667 10.7667 13.96 10.9933 13.7267L13.7267 10.9933C13.9533 10.76 14.1667 10.26 14.1667 9.93333V6.06667C14.1667 5.74 13.96 5.23333 13.7267 5.00667L10.9933 2.27333C10.76 2.04666 10.26 1.83333 9.93334 1.83333H6.06668Z" fill="currentColor"/>
<path d="M5.66631 10.8333C5.53964 10.8333 5.41298 10.7866 5.31298 10.6866C5.11964 10.4933 5.11964 10.1733 5.31298 9.97993L9.97968 5.31329C10.173 5.11995 10.493 5.11995 10.6863 5.31329C10.8797 5.50662 10.8797 5.82662 10.6863 6.01995L6.01964 10.6866C5.91964 10.7866 5.79298 10.8333 5.66631 10.8333Z" fill="currentColor"/>
<path d="M10.333 10.8333C10.2063 10.8333 10.0797 10.7866 9.97968 10.6866L5.31298 6.01995C5.11964 5.82662 5.11964 5.50662 5.31298 5.31329C5.50631 5.11995 5.82631 5.11995 6.01964 5.31329L10.6863 9.97993C10.8797 10.1733 10.8797 10.4933 10.6863 10.6866C10.5863 10.7866 10.4597 10.8333 10.333 10.8333Z" fill="currentColor"/>
</g>
<defs>
<clipPath id="clip0_2_4957">
<rect width="16" height="16" fill="currentColor"/>
</clipPath>
</defs>
</svg>
