<svg width="16" height="16" viewBox="0 0 16 16" fill="none" xmlns="http://www.w3.org/2000/svg">
<path d="M12.4339 5.96667C11.1072 5.96667 10.0339 4.88667 10.0339 3.56667C10.0339 3.02667 10.2139 2.51334 10.5472 2.08667C10.5605 2.06667 10.5805 2.05334 10.5939 2.03334C11.0472 1.48001 11.7139 1.16667 12.4339 1.16667C13.7539 1.16667 14.8339 2.24667 14.8339 3.56667C14.8339 4.30667 14.5005 4.99334 13.9139 5.45334C13.4872 5.78667 12.9739 5.96667 12.4339 5.96667ZM11.3005 2.74667C11.1272 2.98667 11.0339 3.26667 11.0339 3.56667C11.0339 4.34 11.6605 4.96667 12.4339 4.96667C12.7472 4.96667 13.0472 4.86001 13.2939 4.66667C13.6339 4.40001 13.8339 4.00001 13.8339 3.56667C13.8339 2.79334 13.2072 2.16667 12.4339 2.16667C12.0005 2.16667 11.6005 2.36001 11.3405 2.70001C11.3272 2.72001 11.3139 2.73334 11.3005 2.74667Z" fill="currentColor"/>
<path d="M3.56666 5.96667C3.02666 5.96667 2.51332 5.78667 2.08666 5.45334C1.49999 4.99334 1.16666 4.30667 1.16666 3.56667C1.16666 2.24667 2.24666 1.16667 3.56666 1.16667C4.30666 1.16667 4.99332 1.50001 5.45332 2.08667C5.78666 2.51334 5.96666 3.02667 5.96666 3.56667C5.96666 4.88667 4.88666 5.96667 3.56666 5.96667ZM3.56666 2.16667C2.79332 2.16667 2.16666 2.79334 2.16666 3.56667C2.16666 4.00001 2.35999 4.40001 2.70666 4.66667C2.95332 4.86001 3.25332 4.96667 3.56666 4.96667C4.33999 4.96667 4.96666 4.34 4.96666 3.56667C4.96666 3.25334 4.85999 2.95334 4.66666 2.70667C4.39999 2.36001 3.99999 2.16667 3.56666 2.16667Z" fill="currentColor"/>
<path d="M12.4339 14.8332C11.7139 14.8332 11.0472 14.5199 10.5939 13.9665C10.5739 13.9532 10.5605 13.9332 10.5472 13.9132C10.2139 13.4865 10.0339 12.9732 10.0339 12.4332C10.0339 11.1065 11.1139 10.0332 12.4339 10.0332C12.9739 10.0332 13.4872 10.2132 13.9139 10.5465C13.9339 10.5599 13.9472 10.5799 13.9672 10.5932C14.5205 11.0465 14.8339 11.7132 14.8339 12.4332C14.8339 13.7532 13.7539 14.8332 12.4339 14.8332ZM11.3005 13.2532C11.3139 13.2665 11.3272 13.2799 11.3405 13.2999C11.6005 13.6399 12.0005 13.8332 12.4339 13.8332C13.2072 13.8332 13.8339 13.2065 13.8339 12.4332C13.8339 11.9999 13.6405 11.5999 13.3005 11.3399C13.2805 11.3265 13.2672 11.3132 13.2539 11.2999C13.0139 11.1265 12.7339 11.0332 12.4339 11.0332C11.6605 11.0332 11.0339 11.6599 11.0339 12.4332C11.0339 12.7332 11.1272 13.0132 11.3005 13.2532Z" fill="currentColor"/>
<path d="M3.56666 14.8332C2.24666 14.8332 1.16666 13.7532 1.16666 12.4332C1.16666 11.7132 1.47999 11.0465 2.03332 10.5932C2.04666 10.5732 2.06666 10.5599 2.08666 10.5465C2.51332 10.2132 3.02666 10.0332 3.56666 10.0332C4.89332 10.0332 5.96666 11.1132 5.96666 12.4332C5.96666 12.9732 5.78666 13.4865 5.45332 13.9132C4.99332 14.4999 4.30666 14.8332 3.56666 14.8332ZM2.74666 11.2999C2.73332 11.3132 2.71999 11.3265 2.69999 11.3399C2.35999 11.5999 2.16666 11.9999 2.16666 12.4332C2.16666 13.2065 2.79332 13.8332 3.56666 13.8332C3.99999 13.8332 4.39999 13.6399 4.66666 13.2932C4.85999 13.0465 4.96666 12.7465 4.96666 12.4332C4.96666 11.6599 4.33999 11.0332 3.56666 11.0332C3.26666 11.0332 2.98666 11.1265 2.74666 11.2999Z" fill="currentColor"/>
<path d="M7.99999 14.8333C6.89332 14.8333 5.79332 14.56 4.82666 14.0467C4.69332 13.98 4.60666 13.8533 4.57332 13.7067C4.53999 13.56 4.57332 13.4132 4.66666 13.2932C4.85999 13.0465 4.96666 12.7465 4.96666 12.4332C4.96666 11.6599 4.33999 11.0332 3.56666 11.0332C3.25332 11.0332 2.95332 11.14 2.70666 11.3333C2.59332 11.4267 2.43999 11.46 2.29332 11.4267C2.14666 11.3933 2.02666 11.3067 1.95332 11.1733C1.43332 10.1933 1.16666 9.12667 1.16666 8.00001C1.16666 6.89334 1.43999 5.79334 1.95332 4.82667C2.01999 4.69334 2.14666 4.60667 2.29332 4.57334C2.43999 4.54001 2.58666 4.58001 2.70666 4.66667C2.95332 4.86001 3.25332 4.96667 3.56666 4.96667C4.33999 4.96667 4.96666 4.34 4.96666 3.56667C4.96666 3.25334 4.85999 2.95334 4.66666 2.70667C4.57332 2.59334 4.53999 2.44001 4.57332 2.29334C4.60666 2.14667 4.69332 2.02667 4.82666 1.95334C5.79332 1.44001 6.89332 1.16667 7.99999 1.16667C9.12666 1.16667 10.1933 1.43334 11.1733 1.95334C11.3067 2.02001 11.3933 2.14667 11.4267 2.29334C11.46 2.44001 11.42 2.58667 11.3333 2.70667C11.14 2.95334 11.0339 3.25334 11.0339 3.56667C11.0339 4.34 11.6605 4.96667 12.4339 4.96667C12.7472 4.96667 13.0472 4.86001 13.2939 4.66667C13.4072 4.57334 13.56 4.54001 13.7067 4.57334C13.8533 4.60667 13.9733 4.69334 14.0467 4.82667C14.56 5.79334 14.8333 6.89334 14.8333 8.00001C14.8333 9.12667 14.5667 10.1933 14.0467 11.1733C13.98 11.3067 13.8533 11.3933 13.7067 11.4267C13.56 11.46 13.4133 11.42 13.2933 11.3333C13.0467 11.14 12.7472 11.0332 12.4339 11.0332C11.6605 11.0332 11.0339 11.6599 11.0339 12.4332C11.0339 12.7465 11.14 13.0467 11.3333 13.2933C11.4267 13.4067 11.46 13.56 11.4267 13.7067C11.3933 13.8533 11.3067 13.9733 11.1733 14.0467C10.1933 14.5667 9.12666 14.8333 7.99999 14.8333ZM5.76666 13.3867C7.17999 13.98 8.83332 13.9733 10.2267 13.3867C10.0933 13.0867 10.0267 12.7667 10.0267 12.4333C10.0267 11.1067 11.1067 10.0333 12.4267 10.0333C12.76 10.0333 13.08 10.1 13.38 10.2333C13.6733 9.53334 13.8267 8.78667 13.8267 8.00001C13.8267 7.23334 13.6733 6.46667 13.38 5.76667C13.08 5.9 12.76 5.96667 12.4267 5.96667C11.1 5.96667 10.0267 4.88667 10.0267 3.56667C10.0267 3.23334 10.0933 2.91334 10.2267 2.61334C8.83332 2.02667 7.17332 2.02667 5.76666 2.61334C5.89999 2.91334 5.96666 3.23334 5.96666 3.56667C5.96666 4.89334 4.88666 5.96667 3.56666 5.96667C3.23332 5.96667 2.91332 5.9 2.61332 5.76667C2.31999 6.46667 2.16666 7.23334 2.16666 8.00001C2.16666 8.78001 2.31332 9.52667 2.61332 10.2333C2.91332 10.1 3.23332 10.0332 3.56666 10.0332C4.89332 10.0332 5.96666 11.1132 5.96666 12.4332C5.96666 12.7665 5.89999 13.0867 5.76666 13.3867Z" fill="currentColor"/>
</svg>
