<svg width="16" height="16" viewBox="0 0 16 16" fill="none" xmlns="http://www.w3.org/2000/svg">
<g clip-path="url(#clip0_2_5003)">
<path d="M11.3667 13.8333H4.63334C4.48668 13.8333 4.34668 13.7667 4.24668 13.6533C4.14668 13.54 4.11334 13.3867 4.14001 13.24C4.15334 13.16 4.16668 13.08 4.16668 13C4.16668 12.36 3.64001 11.8333 3.00001 11.8333C2.92001 11.8333 2.83334 11.84 2.76001 11.86C2.61334 11.8867 2.46001 11.8467 2.34668 11.7533C2.23334 11.66 2.16668 11.52 2.16668 11.3667V4.63333C2.16668 4.48666 2.23334 4.34666 2.34668 4.24666C2.46001 4.14666 2.60668 4.11333 2.76001 4.13999C2.83334 4.15999 2.92001 4.16666 3.00001 4.16666C3.64001 4.16666 4.16668 3.63999 4.16668 2.99999C4.16668 2.91999 4.16001 2.83333 4.14001 2.75999C4.11334 2.61333 4.15334 2.45999 4.24668 2.34666C4.34001 2.23333 4.48001 2.16666 4.63334 2.16666H11.3667C11.5133 2.16666 11.6533 2.23333 11.7533 2.34666C11.8533 2.45999 11.8867 2.61333 11.86 2.75999C11.8467 2.83999 11.8333 2.91999 11.8333 2.99999C11.8333 3.63999 12.36 4.16666 13 4.16666C13.08 4.16666 13.1667 4.15999 13.24 4.13999C13.3867 4.11333 13.54 4.15333 13.6533 4.24666C13.7667 4.33999 13.8333 4.47999 13.8333 4.63333V11.3667C13.8333 11.5133 13.7667 11.6533 13.6533 11.7533C13.54 11.8533 13.3867 11.8867 13.24 11.86C13.16 11.8467 13.08 11.8333 13 11.8333C12.36 11.8333 11.8333 12.36 11.8333 13C11.8333 13.08 11.84 13.1667 11.86 13.24C11.8867 13.3867 11.8467 13.54 11.7533 13.6533C11.66 13.7667 11.5133 13.8333 11.3667 13.8333ZM5.16001 12.8333H10.84C10.92 11.7733 11.7733 10.92 12.8333 10.84V5.15999C11.7733 5.07999 10.92 4.22666 10.84 3.16666H5.16001C5.08001 4.22666 4.22668 5.07999 3.16668 5.15999V10.84C4.22668 10.92 5.08001 11.7733 5.16001 12.8333Z" fill="currentColor"/>
<path d="M3.00001 5.16666C2.85334 5.16666 2.71334 5.15333 2.57334 5.12666C1.56001 4.91999 0.833344 4.02666 0.833344 2.99999C0.833344 1.80666 1.80668 0.833328 3.00001 0.833328C4.02668 0.833328 4.92001 1.55999 5.12668 2.56666C5.15334 2.71333 5.16668 2.85333 5.16668 2.99999C5.16668 4.19333 4.19334 5.16666 3.00001 5.16666ZM3.00001 1.83333C2.36001 1.83333 1.83334 2.35999 1.83334 2.99999C1.83334 3.55333 2.22668 4.03333 2.76668 4.13999C2.83334 4.15999 2.92001 4.16666 3.00001 4.16666C3.64001 4.16666 4.16668 3.63999 4.16668 2.99999C4.16668 2.91999 4.16001 2.83333 4.14001 2.75999C4.03334 2.22666 3.55334 1.83333 3.00001 1.83333Z" fill="currentColor"/>
<path d="M13 5.16666C11.8067 5.16666 10.8333 4.19333 10.8333 2.99999C10.8333 2.85333 10.8467 2.71333 10.8733 2.57333C11.08 1.55999 11.9733 0.833328 13 0.833328C14.1933 0.833328 15.1667 1.80666 15.1667 2.99999C15.1667 4.02666 14.44 4.91999 13.4333 5.12666C13.2867 5.15333 13.1467 5.16666 13 5.16666ZM13 1.83333C12.4467 1.83333 11.9667 2.22666 11.86 2.76666C11.8467 2.83999 11.8333 2.91999 11.8333 2.99999C11.8333 3.63999 12.36 4.16666 13 4.16666C13.08 4.16666 13.1667 4.15999 13.24 4.13999C13.7733 4.03333 14.1667 3.55333 14.1667 2.99999C14.1667 2.35999 13.64 1.83333 13 1.83333Z" fill="currentColor"/>
<path d="M3.00001 15.1667C1.80668 15.1667 0.833344 14.1933 0.833344 13C0.833344 11.9733 1.56001 11.08 2.56668 10.8733C2.70668 10.8467 2.85334 10.8333 3.00001 10.8333C4.19334 10.8333 5.16668 11.8067 5.16668 13C5.16668 13.1467 5.15334 13.2867 5.12668 13.4267C4.92001 14.44 4.02668 15.1667 3.00001 15.1667ZM3.00001 11.8333C2.92001 11.8333 2.83334 11.84 2.76001 11.86C2.22668 11.9667 1.83334 12.4467 1.83334 13C1.83334 13.64 2.36001 14.1667 3.00001 14.1667C3.55334 14.1667 4.03334 13.7733 4.14001 13.2333C4.15334 13.16 4.16668 13.08 4.16668 13C4.16668 12.36 3.64001 11.8333 3.00001 11.8333Z" fill="currentColor"/>
<path d="M13 15.1667C11.9733 15.1667 11.08 14.44 10.8733 13.4333C10.8467 13.2933 10.8333 13.1467 10.8333 13C10.8333 11.8067 11.8067 10.8333 13 10.8333C13.1467 10.8333 13.2867 10.8467 13.4267 10.8733C14.44 11.08 15.1667 11.9733 15.1667 13C15.1667 14.1933 14.1933 15.1667 13 15.1667ZM13 11.8333C12.36 11.8333 11.8333 12.36 11.8333 13C11.8333 13.08 11.84 13.1667 11.86 13.24C11.9667 13.7733 12.4467 14.1667 13 14.1667C13.64 14.1667 14.1667 13.64 14.1667 13C14.1667 12.4467 13.7733 11.9667 13.2333 11.86C13.1667 11.84 13.08 11.8333 13 11.8333Z" fill="currentColor"/>
</g>
<defs>
<clipPath id="clip0_2_5003">
<rect width="16" height="16" fill="currentColor"/>
</clipPath>
</defs>
</svg>
