<svg width="16" height="16" viewBox="0 0 16 16" fill="none" xmlns="http://www.w3.org/2000/svg">
<g clip-path="url(#clip0_2_4946)">
<path d="M10 15.1667H6C2.38 15.1667 0.833336 13.62 0.833336 9.99999V5.99999C0.833336 2.37999 2.38 0.833328 6 0.833328H10C13.62 0.833328 15.1667 2.37999 15.1667 5.99999V9.99999C15.1667 13.62 13.62 15.1667 10 15.1667ZM6 1.83333C2.92667 1.83333 1.83334 2.92666 1.83334 5.99999V9.99999C1.83334 13.0733 2.92667 14.1667 6 14.1667H10C13.0733 14.1667 14.1667 13.0733 14.1667 9.99999V5.99999C14.1667 2.92666 13.0733 1.83333 10 1.83333H6Z" fill="currentColor"/>
<path d="M10 10.7531H6.72C5.31334 10.7531 4.16667 9.60646 4.16667 8.19979C4.16667 6.79313 5.31334 5.64648 6.72 5.64648H11.2333C11.5067 5.64648 11.7333 5.87315 11.7333 6.14648C11.7333 6.41981 11.5067 6.64648 11.2333 6.64648H6.72C5.86667 6.64648 5.16667 7.33979 5.16667 8.19979C5.16667 9.05979 5.86 9.75313 6.72 9.75313H10C10.2733 9.75313 10.5 9.97979 10.5 10.2531C10.5 10.5265 10.2733 10.7531 10 10.7531Z" fill="currentColor"/>
<path d="M10.2874 7.67986C10.1607 7.67986 10.0341 7.63319 9.93407 7.53319C9.74074 7.33986 9.74074 7.01986 9.93407 6.82653L10.6274 6.13321L9.93407 5.43988C9.74074 5.24655 9.74074 4.92654 9.93407 4.73321C10.1274 4.53987 10.4474 4.53987 10.6407 4.73321L11.6874 5.77987C11.8807 5.97321 11.8807 6.29321 11.6874 6.48655L10.6407 7.53319C10.5407 7.62653 10.4141 7.67986 10.2874 7.67986Z" fill="currentColor"/>
</g>
<defs>
<clipPath id="clip0_2_4946">
<rect width="16" height="16" fill="currentColor"/>
</clipPath>
</defs>
</svg>
