<svg width="16" height="16" viewBox="0 0 16 16" fill="none" xmlns="http://www.w3.org/2000/svg">
<path d="M9.6196 11.2802H8.093C7.81967 11.2802 7.593 11.0535 7.593 10.7802C7.593 10.5069 7.81967 10.2802 8.093 10.2802H9.6196C9.90627 10.2802 10.1397 10.0469 10.1397 9.7602C10.1397 9.47353 9.90627 9.2402 9.6196 9.2402H8.093C7.933 9.2402 7.77967 9.1602 7.68633 9.03353C7.593 8.90687 7.56627 8.73353 7.6196 8.5802L8.12627 7.05353C8.19293 6.84687 8.38633 6.71353 8.59967 6.71353H10.6397C10.913 6.71353 11.1397 6.9402 11.1397 7.21353C11.1397 7.48687 10.913 7.71353 10.6397 7.71353H8.9596L8.78627 8.2402H9.6196C10.4596 8.2402 11.1397 8.9202 11.1397 9.7602C11.1397 10.6002 10.4529 11.2802 9.6196 11.2802Z" fill="currentColor"/>
<path d="M6.3597 11.2799C6.08637 11.2799 5.8597 11.0532 5.8597 10.7799V8.51993L5.73304 8.66653C5.54637 8.8732 5.23303 8.88653 5.02637 8.70653C4.8197 8.51987 4.80637 8.20653 4.98637 7.99987L5.98637 6.88653C6.12637 6.7332 6.34638 6.67987 6.53972 6.7532C6.73307 6.82653 6.85967 7.0132 6.85967 7.21987V10.7865C6.85967 11.0599 6.6397 11.2799 6.3597 11.2799Z" fill="currentColor"/>
<path d="M9.3198 3.47982C9.17314 3.47982 9.02654 3.41317 8.9332 3.29317L7.61314 1.64649C7.4398 1.43315 7.47313 1.11316 7.69314 0.946494C7.90647 0.773161 8.21987 0.806487 8.3932 1.02649L9.7132 2.67318C9.88654 2.88651 9.8532 3.2065 9.6332 3.37317C9.53987 3.43983 9.42647 3.47982 9.3198 3.47982Z" fill="currentColor"/>
<path d="M7.9996 15.1665C4.4596 15.1665 1.57292 12.2865 1.57292 8.7398C1.57292 5.19316 4.45293 2.31315 7.9996 2.31315C8.4596 2.31315 8.92627 2.36649 9.43294 2.48649C9.6996 2.54649 9.87294 2.81984 9.80627 3.08651C9.74627 3.35317 9.47293 3.52651 9.20627 3.45984C8.7796 3.35984 8.3796 3.31315 7.9996 3.31315C5.00626 3.31315 2.57292 5.74649 2.57292 8.7398C2.57292 11.7331 5.00626 14.1665 7.9996 14.1665C10.9929 14.1665 13.4263 11.7331 13.4263 8.7398C13.4263 7.5798 13.0463 6.45984 12.3263 5.49984C12.1596 5.27984 12.2063 4.96651 12.4263 4.79985C12.6463 4.63318 12.9596 4.67982 13.1263 4.89982C13.9796 6.03315 14.4263 7.3598 14.4263 8.7398C14.4263 12.2865 11.5396 15.1665 7.9996 15.1665Z" fill="currentColor"/>
</svg>
