<svg width="16" height="16" viewBox="0 0 16 16" fill="none" xmlns="http://www.w3.org/2000/svg">
<g clip-path="url(#clip0_2_4948)">
<path d="M9.08073 12.0866H6.92739C4.84072 12.0866 3.91405 11.1599 3.91405 9.07326V6.91993C3.91405 4.83325 4.84072 3.90657 6.92739 3.90657H9.08073C11.1674 3.90657 12.0941 4.83325 12.0941 6.91993V9.07326C12.0874 11.1599 11.1607 12.0866 9.08073 12.0866ZM6.92073 4.91324C5.39406 4.91324 4.9074 5.39992 4.9074 6.92659V9.07993C4.9074 10.6066 5.39406 11.0933 6.92073 11.0933H9.07406C10.6007 11.0933 11.0874 10.6066 11.0874 9.07993V6.92659C11.0874 5.39992 10.6007 4.91324 9.07406 4.91324H6.92073Z" fill="currentColor"/>
<path d="M12.1537 9.01333H11.587C11.3137 9.01333 11.087 8.78666 11.087 8.51333L11.0874 6.92659C11.0874 5.39992 10.6007 4.91324 9.07406 4.91324L7.487 4.91333C7.21366 4.91333 6.987 4.68665 6.987 4.41333V3.84665C6.987 1.75999 7.91366 0.833328 10.0003 0.833328H12.1537C14.2403 0.833328 15.167 1.75999 15.167 3.84665V5.99999C15.167 8.08666 14.2403 9.01333 12.1537 9.01333ZM12.087 8.01333H12.1537C13.6803 8.01333 14.167 7.52666 14.167 5.99999V3.84665C14.167 2.31999 13.6803 1.83333 12.1537 1.83333H10.0003C8.47366 1.83333 7.987 2.31999 7.987 3.84665V3.91333H9.07366C11.1603 3.91333 12.087 4.84 12.087 6.92666V8.01333Z" fill="currentColor"/>
<path d="M6 15.1667H3.84666C1.75999 15.1667 0.833328 14.24 0.833328 12.1533V9.99999C0.833328 7.91333 1.75999 6.98666 3.84666 6.98666H4.41333C4.68666 6.98666 4.91333 7.21333 4.91333 7.48666V9.07333C4.91333 10.6 5.4 11.0867 6.92666 11.0867H8.51333C8.78666 11.0867 9.01333 11.3133 9.01333 11.5867V12.1533C9.01333 14.24 8.08666 15.1667 6 15.1667ZM3.84666 7.98666C2.31999 7.98666 1.83333 8.47333 1.83333 9.99999V12.1533C1.83333 13.68 2.31999 14.1667 3.84666 14.1667H6C7.52666 14.1667 8.01333 13.68 8.01333 12.1533V12.0867L6.92739 12.0866C4.84072 12.0866 3.91405 11.1599 3.91405 9.07326L3.91333 7.98666H3.84666Z" fill="currentColor"/>
</g>
<defs>
<clipPath id="clip0_2_4948">
<rect width="16" height="16" fill="currentColor"/>
</clipPath>
</defs>
</svg>
