<svg width="16" height="16" viewBox="0 0 16 16" fill="none" xmlns="http://www.w3.org/2000/svg">
<path d="M9.3198 3.47982C9.17314 3.47982 9.02647 3.41317 8.93314 3.29317L7.61314 1.64649C7.4398 1.43315 7.47313 1.11316 7.69314 0.946494C7.90647 0.773161 8.2198 0.806487 8.39314 1.02649L9.71314 2.67318C9.88647 2.88651 9.85314 3.2065 9.63314 3.37317C9.5398 3.43983 9.42647 3.47982 9.3198 3.47982Z" fill="currentColor"/>
<path d="M7.9996 15.1665C4.4596 15.1665 1.57292 12.2865 1.57292 8.7398C1.57292 5.19316 4.45293 2.31315 7.9996 2.31315C8.4596 2.31315 8.92627 2.36649 9.43294 2.48649C9.6996 2.54649 9.87294 2.81984 9.80627 3.08651C9.74627 3.35317 9.4796 3.52651 9.20627 3.45984C8.7796 3.35984 8.3796 3.31315 7.9996 3.31315C5.00626 3.31315 2.57292 5.74649 2.57292 8.7398C2.57292 11.7331 5.00626 14.1665 7.9996 14.1665C10.9929 14.1665 13.4263 11.7331 13.4263 8.7398C13.4263 7.5798 13.0463 6.45984 12.3263 5.49984C12.1596 5.27984 12.2063 4.96651 12.4263 4.79985C12.6463 4.63318 12.9596 4.67982 13.1263 4.89982C13.9796 6.03315 14.4263 7.3598 14.4263 8.7398C14.4263 12.2865 11.5396 15.1665 7.9996 15.1665Z" fill="currentColor"/>
<path d="M6.3597 11.1134C6.08637 11.1134 5.8597 10.8867 5.8597 10.6134V8.3534L5.73304 8.4934C5.54637 8.70007 5.23303 8.7134 5.02637 8.5334C4.8197 8.34673 4.80637 8.0334 4.98637 7.82673L5.98637 6.7134C6.12637 6.56005 6.34636 6.50671 6.53969 6.58005C6.733 6.65338 6.85967 6.84007 6.85967 7.04673V10.6134C6.85967 10.8934 6.6397 11.1134 6.3597 11.1134Z" fill="currentColor"/>
<path d="M9.33334 11.1135C8.32 11.1135 7.5 10.2935 7.5 9.2802V8.3802C7.5 7.36687 8.32 6.54687 9.33334 6.54687C10.3467 6.54687 11.1667 7.36687 11.1667 8.3802V9.2802C11.1667 10.2935 10.3467 11.1135 9.33334 11.1135ZM9.33334 7.55353C8.87334 7.55353 8.5 7.92687 8.5 8.38687V9.28687C8.5 9.74687 8.87334 10.1202 9.33334 10.1202C9.79334 10.1202 10.1667 9.74687 10.1667 9.28687V8.38687C10.1667 7.92687 9.79334 7.55353 9.33334 7.55353Z" fill="currentColor"/>
</svg>
