<svg width="16" height="16" viewBox="0 0 16 16" fill="none" xmlns="http://www.w3.org/2000/svg">
<path d="M9.3198 3.47995C9.17314 3.47995 9.02654 3.41331 8.9332 3.29331L7.61314 1.64662C7.4398 1.43329 7.47313 1.11329 7.69314 0.946626C7.91314 0.779959 8.21987 0.806626 8.3932 1.02663L9.7132 2.67331C9.88654 2.88665 9.8532 3.20664 9.6332 3.37331C9.53987 3.43997 9.42647 3.47995 9.3198 3.47995Z" fill="currentColor"/>
<path d="M7.9996 15.1665C4.4596 15.1665 1.57292 12.2865 1.57292 8.7398C1.57292 5.19316 4.45293 2.31315 7.9996 2.31315C8.4596 2.31315 8.92627 2.36649 9.43294 2.48649C9.6996 2.54649 9.87294 2.81984 9.80627 3.08651C9.74627 3.35317 9.4796 3.52651 9.20627 3.45984C8.7796 3.35984 8.3796 3.31315 7.9996 3.31315C5.00626 3.31315 2.57292 5.74649 2.57292 8.7398C2.57292 11.7331 5.00626 14.1665 7.9996 14.1665C10.9929 14.1665 13.4263 11.7331 13.4263 8.7398C13.4263 7.5798 13.0463 6.45984 12.3263 5.49984C12.1596 5.27984 12.2063 4.96651 12.4263 4.79985C12.6463 4.63318 12.9596 4.67982 13.1263 4.89982C13.9796 6.03315 14.4263 7.3598 14.4263 8.7398C14.4263 12.2865 11.5396 15.1665 7.9996 15.1665Z" fill="currentColor"/>
<path d="M8.25373 11.2802H6.72707C6.45377 11.2802 6.2271 11.0535 6.2271 10.7802C6.2271 10.5069 6.45377 10.2802 6.72707 10.2802H8.25373C8.5404 10.2802 8.77374 10.0469 8.77374 9.7602C8.77374 9.47353 8.5404 9.2402 8.25373 9.2402H6.72707C6.5671 9.2402 6.41374 9.1602 6.3204 9.03353C6.22707 8.90687 6.20042 8.73353 6.25375 8.5802L6.7604 7.05353C6.82707 6.84687 7.0204 6.71353 7.23374 6.71353H9.27373C9.54707 6.71353 9.77374 6.9402 9.77374 7.21353C9.77374 7.48687 9.54707 7.71353 9.27373 7.71353H7.59373L7.4204 8.2402H8.25373C9.09373 8.2402 9.77374 8.9202 9.77374 9.7602C9.77374 10.6002 9.09373 11.2802 8.25373 11.2802Z" fill="currentColor"/>
</svg>
