<svg width="16" height="16" viewBox="0 0 16 16" fill="none" xmlns="http://www.w3.org/2000/svg">
<path d="M2.63335 12.2401C2.32668 12.2401 2.01335 12.1601 1.73335 11.9934C1.16668 11.6667 0.833344 11.0867 0.833344 10.4334V5.55336C0.833344 4.90003 1.16668 4.32003 1.73335 3.99337C2.30002 3.6667 2.97334 3.6667 3.53334 3.99337L7.76001 6.43337C7.95334 6.5467 8.10668 6.68006 8.22668 6.82673C8.30001 6.91339 8.34001 7.02673 8.34001 7.14006V8.84673C8.34001 8.96006 8.30001 9.07339 8.22668 9.16006C8.10668 9.30673 7.95334 9.44006 7.77334 9.54673L3.53334 12.0001C3.25334 12.1601 2.94668 12.2401 2.63335 12.2401ZM2.63335 4.76005C2.49335 4.76005 2.36002 4.79337 2.23335 4.8667C1.98002 5.01337 1.83334 5.27337 1.83334 5.56003V10.4401C1.83334 10.7267 1.98002 10.9867 2.23335 11.1334C2.48668 11.2801 2.78 11.2801 3.03334 11.1334L7.26001 8.69339C7.28668 8.68006 7.31334 8.66006 7.33334 8.64006V7.35339C7.30668 7.33339 7.28001 7.31339 7.25334 7.30006L3.03334 4.8667C2.90667 4.79337 2.77335 4.76005 2.63335 4.76005Z" fill="currentColor"/>
<path d="M9.13981 12.2401C8.83314 12.2401 8.51981 12.1601 8.23981 11.9934C7.67314 11.6667 7.33988 11.0867 7.33988 10.4334V5.55336C7.33988 4.90003 7.67314 4.32003 8.23981 3.99337C8.80648 3.6667 9.47988 3.6667 10.0399 3.99337L14.2665 6.43337C14.8265 6.76006 15.1665 7.34006 15.1665 7.99339C15.1665 8.64673 14.8332 9.22673 14.2665 9.55339L10.0399 11.9934C9.75988 12.1601 9.44648 12.2401 9.13981 12.2401ZM9.13981 4.76005C8.99981 4.76005 8.86648 4.79337 8.73981 4.8667C8.48648 5.01337 8.33988 5.2667 8.33988 5.56003V10.4401C8.33988 10.7267 8.48648 10.9867 8.73981 11.1334C8.99314 11.2801 9.29321 11.2801 9.53988 11.1334L13.7665 8.69339C14.0198 8.54673 14.1665 8.28673 14.1665 8.00006C14.1665 7.71339 14.0198 7.45339 13.7665 7.30673L9.53988 4.8667C9.41321 4.79337 9.27981 4.76005 9.13981 4.76005Z" fill="currentColor"/>
</svg>
