<svg width="16" height="16" viewBox="0 0 16 16" fill="none" xmlns="http://www.w3.org/2000/svg">
<path d="M8.00027 15.1733C7.2736 15.1733 6.5536 14.9599 5.98693 14.5399L3.12026 12.3999C2.36026 11.8333 1.76693 10.6533 1.76693 9.7066V4.74663C1.76693 3.71996 2.52026 2.62663 3.48693 2.26663L6.8136 1.01996C7.4736 0.773294 8.5136 0.773294 9.1736 1.01996L12.5069 2.26663C13.4736 2.62663 14.2269 3.71996 14.2269 4.74663V9.69993C14.2269 10.6466 13.6336 11.8266 12.8736 12.3933L10.0069 14.5333C9.44694 14.9599 8.72694 15.1733 8.00027 15.1733ZM7.16694 1.95996L3.84026 3.20663C3.26693 3.41996 2.76693 4.13996 2.76693 4.75329V9.7066C2.76693 10.3399 3.2136 11.2266 3.7136 11.5999L6.58026 13.7399C7.34694 14.3133 8.64694 14.3133 9.4136 13.7399L12.2803 11.5999C12.7869 11.2199 13.2269 10.3333 13.2269 9.7066V4.74663C13.2269 4.13996 12.7269 3.41996 12.1536 3.19996L8.82694 1.95329C8.38694 1.79329 7.6136 1.79329 7.16694 1.95996Z" fill="currentColor"/>
<path d="M8 8.83333C6.98667 8.83333 6.16667 8.01333 6.16667 7C6.16667 5.98667 6.98667 5.16667 8 5.16667C9.01334 5.16667 9.83334 5.98667 9.83334 7C9.83334 8.01333 9.01334 8.83333 8 8.83333ZM8 6.16667C7.54 6.16667 7.16667 6.54 7.16667 7C7.16667 7.46 7.54 7.83333 8 7.83333C8.46 7.83333 8.83334 7.46 8.83334 7C8.83334 6.54 8.46 6.16667 8 6.16667Z" fill="currentColor"/>
<path d="M8 10.8333C7.72667 10.8333 7.5 10.6067 7.5 10.3333V8.33333C7.5 8.06 7.72667 7.83333 8 7.83333C8.27334 7.83333 8.5 8.06 8.5 8.33333V10.3333C8.5 10.6067 8.27334 10.8333 8 10.8333Z" fill="currentColor"/>
</svg>
