<svg width="16" height="16" viewBox="0 0 16 16" fill="none" xmlns="http://www.w3.org/2000/svg">
<path d="M12.8399 13.1C12.5665 13.1 12.3399 12.8733 12.3399 12.6V4.73333C12.3399 4.05999 12.1999 3.83333 11.3532 3.83333H10.6599C9.8132 3.83333 9.6732 4.05999 9.6732 4.73333V12.6C9.6732 12.8733 9.44653 13.1 9.1732 13.1C8.89987 13.1 8.6732 12.8733 8.6732 12.6V4.73333C8.6732 3.45333 9.32653 2.83333 10.6599 2.83333H11.3532C12.6932 2.83333 13.3399 3.45333 13.3399 4.73333V12.6C13.3399 12.8733 13.1132 13.1 12.8399 13.1Z" fill="currentColor"/>
<path d="M7.1732 13.1C6.89987 13.1 6.6732 12.8733 6.6732 12.6V8.06666C6.6732 7.39333 6.53318 7.16666 5.68651 7.16666H4.99318C4.14651 7.16666 4.00651 7.39333 4.00651 8.06666V12.6C4.00651 12.8733 3.77985 13.1 3.50651 13.1C3.23318 13.1 3.00651 12.8733 3.00651 12.6V8.06666C3.00651 6.78666 3.65985 6.16666 4.99318 6.16666H5.68651C7.02653 6.16666 7.6732 6.78666 7.6732 8.06666V12.6C7.6732 12.8733 7.44653 13.1 7.1732 13.1Z" fill="currentColor"/>
<path d="M14.6667 13.1667H1.33333C1.06 13.1667 0.833334 12.94 0.833334 12.6667C0.833334 12.3933 1.05333 12.1667 1.33333 12.1667H14.6667C14.94 12.1667 15.1667 12.3933 15.1667 12.6667C15.1667 12.94 14.9467 13.1667 14.6667 13.1667Z" fill="currentColor"/>
</svg>
