<svg width="16" height="16" viewBox="0 0 16 16" fill="none" xmlns="http://www.w3.org/2000/svg">
<g clip-path="url(#clip0_2_4940)">
<path d="M5.51333 15.1667H2.82C1.48 15.1667 0.833333 14.5467 0.833333 13.2667V2.73333C0.833333 1.45333 1.48667 0.833328 2.82 0.833328H5.51333C6.85333 0.833328 7.5 1.45333 7.5 2.73333V13.2667C7.5 14.5467 6.84667 15.1667 5.51333 15.1667ZM2.82 1.83333C1.97333 1.83333 1.83333 2.05999 1.83333 2.73333V13.2667C1.83333 13.94 1.97333 14.1667 2.82 14.1667H5.51333C6.36 14.1667 6.5 13.94 6.5 13.2667V2.73333C6.5 2.05999 6.36 1.83333 5.51333 1.83333H2.82Z" fill="currentColor"/>
<path d="M13.18 7.49999H10.4867C9.14667 7.49999 8.5 6.90666 8.5 5.68V2.65333C8.5 1.42666 9.15333 0.833328 10.4867 0.833328H13.18C14.52 0.833328 15.1667 1.42666 15.1667 2.65333V5.67333C15.1667 6.90666 14.5133 7.49999 13.18 7.49999ZM10.4867 1.83333C9.59333 1.83333 9.5 2.08666 9.5 2.65333V5.67333C9.5 6.24666 9.59333 6.49333 10.4867 6.49333H13.18C14.0733 6.49333 14.1667 6.24 14.1667 5.67333V2.65333C14.1667 2.07999 14.0733 1.83333 13.18 1.83333H10.4867Z" fill="currentColor"/>
<path d="M13.18 15.1667H10.4867C9.14667 15.1667 8.5 14.5133 8.5 13.18V10.4867C8.5 9.14666 9.15333 8.49999 10.4867 8.49999H13.18C14.52 8.49999 15.1667 9.15333 15.1667 10.4867V13.18C15.1667 14.5133 14.5133 15.1667 13.18 15.1667ZM10.4867 9.49999C9.7 9.49999 9.5 9.69999 9.5 10.4867V13.18C9.5 13.9667 9.7 14.1667 10.4867 14.1667H13.18C13.9667 14.1667 14.1667 13.9667 14.1667 13.18V10.4867C14.1667 9.69999 13.9667 9.49999 13.18 9.49999H10.4867Z" fill="currentColor"/>
</g>
<defs>
<clipPath id="clip0_2_4940">
<rect width="16" height="16" fill="currentColor"/>
</clipPath>
</defs>
</svg>
