<svg width="16" height="16" viewBox="0 0 16 16" fill="none" xmlns="http://www.w3.org/2000/svg">
<g clip-path="url(#clip0_2_4995)">
<path d="M2.25334 13.9C2.11334 13.9 1.96668 13.84 1.87334 13.72C1.16001 12.8867 0.833344 11.7 0.833344 9.99999V5.99999C0.833344 2.37999 2.38001 0.833328 6.00001 0.833328H10C11.5933 0.833328 12.76 1.13333 13.5867 1.75333C13.8067 1.91999 13.8533 2.23333 13.6867 2.45333C13.52 2.67333 13.2067 2.71999 12.9867 2.55333C12.34 2.06666 11.3667 1.83333 10 1.83333H6.00001C2.92668 1.83333 1.83334 2.92666 1.83334 5.99999V9.99999C1.83334 11.4333 2.09334 12.44 2.63334 13.08C2.81334 13.2933 2.78668 13.6067 2.57334 13.7867C2.48001 13.86 2.36668 13.9 2.25334 13.9Z" fill="currentColor"/>
<path d="M9.99934 15.1668H5.99936C5.4727 15.1668 4.99936 15.1335 4.56603 15.0735C4.2927 15.0335 4.10603 14.7801 4.14603 14.5068C4.18603 14.2335 4.44603 14.0468 4.7127 14.0868C5.0927 14.1401 5.52603 14.1735 5.99936 14.1735H9.99934C13.0727 14.1735 14.166 13.0801 14.166 10.0068V6.00011C14.166 5.78011 14.1593 5.56011 14.146 5.36011C14.126 5.08677 14.3393 4.84677 14.6127 4.82677C14.8993 4.81344 15.126 5.02011 15.146 5.29344C15.1593 5.52011 15.166 5.75344 15.166 6.00011V10.0001C15.166 13.6201 13.6193 15.1668 9.99934 15.1668Z" fill="currentColor"/>
<path d="M5.33334 7.16666C4.32001 7.16666 3.50001 6.34666 3.50001 5.33333C3.50001 4.31999 4.32001 3.49999 5.33334 3.49999C6.34668 3.49999 7.16668 4.31999 7.16668 5.33333C7.16668 6.34666 6.34668 7.16666 5.33334 7.16666ZM5.33334 4.49999C4.87334 4.49999 4.50001 4.87333 4.50001 5.33333C4.50001 5.79333 4.87334 6.16666 5.33334 6.16666C5.79334 6.16666 6.16668 5.79333 6.16668 5.33333C6.16668 4.87333 5.79334 4.49999 5.33334 4.49999Z" fill="currentColor"/>
<path d="M1.33298 15.1666C1.20631 15.1666 1.07964 15.1199 0.979644 15.0199C0.78631 14.8266 0.78631 14.5066 0.979644 14.3133L14.313 0.979955C14.5063 0.786622 14.8263 0.786622 15.0197 0.979955C15.213 1.17329 15.213 1.49329 15.0197 1.68662L1.68631 15.0199C1.58631 15.1199 1.45964 15.1666 1.33298 15.1666Z" fill="currentColor"/>
<path d="M7.98728 11.6199C7.72728 11.6199 7.46728 11.5199 7.27394 11.3266C7.08061 11.1333 7.08061 10.8133 7.27394 10.6199C7.46728 10.4266 7.78728 10.4266 7.98061 10.6199C7.98728 10.6266 7.99394 10.6266 8.00061 10.6199L11.3539 7.25993C12.0473 6.56657 13.2539 6.56657 13.9406 7.25993L15.0273 8.34659C15.2206 8.53993 15.2206 8.85993 15.0273 9.05326C14.8339 9.24659 14.5139 9.24659 14.3206 9.05326L13.2339 7.96659C12.9206 7.65326 12.3739 7.65326 12.0606 7.96659L8.70728 11.3266C8.50728 11.5199 8.24728 11.6199 7.98728 11.6199Z" fill="currentColor"/>
</g>
<defs>
<clipPath id="clip0_2_4995">
<rect width="16" height="16" fill="currentColor"/>
</clipPath>
</defs>
</svg>
