<svg width="16" height="16" viewBox="0 0 16 16" fill="none" xmlns="http://www.w3.org/2000/svg">
<g clip-path="url(#clip0_2_5382)">
<path d="M5.99999 7.16666C4.98666 7.16666 4.16666 6.34666 4.16666 5.33333C4.16666 4.31999 4.98666 3.49999 5.99999 3.49999C7.01333 3.49999 7.83333 4.31999 7.83333 5.33333C7.83333 6.34666 7.01333 7.16666 5.99999 7.16666ZM5.99999 4.49999C5.53999 4.49999 5.16666 4.87333 5.16666 5.33333C5.16666 5.79333 5.53999 6.16666 5.99999 6.16666C6.45999 6.16666 6.83333 5.79333 6.83333 5.33333C6.83333 4.87333 6.45999 4.49999 5.99999 4.49999Z" fill="currentColor"/>
<path d="M9.99999 15.1667H5.99999C2.37999 15.1667 0.833328 13.62 0.833328 9.99999V5.99999C0.833328 2.37999 2.37999 0.833328 5.99999 0.833328H8.66666C8.93999 0.833328 9.16666 1.05999 9.16666 1.33333C9.16666 1.60666 8.93999 1.83333 8.66666 1.83333H5.99999C2.92666 1.83333 1.83333 2.92666 1.83333 5.99999V9.99999C1.83333 13.0733 2.92666 14.1667 5.99999 14.1667H9.99999C13.0733 14.1667 14.1667 13.0733 14.1667 9.99999V6.66666C14.1667 6.39333 14.3933 6.16666 14.6667 6.16666C14.94 6.16666 15.1667 6.39333 15.1667 6.66666V9.99999C15.1667 13.62 13.62 15.1667 9.99999 15.1667Z" fill="currentColor"/>
<path d="M14.1667 3.83333H10.5C10.2267 3.83333 9.99999 3.60666 9.99999 3.33333C9.99999 3.05999 10.2267 2.83333 10.5 2.83333H14.1667C14.44 2.83333 14.6667 3.05999 14.6667 3.33333C14.6667 3.60666 14.44 3.83333 14.1667 3.83333Z" fill="currentColor"/>
<path d="M12.3333 5.66666C12.06 5.66666 11.8333 5.43999 11.8333 5.16666V1.49999C11.8333 1.22666 12.06 0.999995 12.3333 0.999995C12.6067 0.999995 12.8333 1.22666 12.8333 1.49999V5.16666C12.8333 5.43999 12.6067 5.66666 12.3333 5.66666Z" fill="currentColor"/>
<path d="M1.77954 13.1334C1.61954 13.1334 1.45954 13.0534 1.36621 12.9134C1.21287 12.6867 1.27287 12.3734 1.49954 12.2201L4.78621 10.0134C5.50621 9.53339 6.49954 9.58673 7.15286 10.1401L7.37286 10.3334C7.70619 10.6201 8.27286 10.6201 8.59953 10.3334L11.3729 7.95339C12.0862 7.34673 13.1929 7.34673 13.9062 7.95339L14.9929 8.88673C15.1995 9.06673 15.2262 9.38006 15.0462 9.59339C14.8662 9.80006 14.5529 9.82673 14.3395 9.64673L13.2529 8.71339C12.9195 8.42673 12.3529 8.42673 12.0262 8.71339L9.25286 11.0934C8.54619 11.7001 7.43286 11.7001 6.71953 11.0934L6.49954 10.9001C6.19287 10.6401 5.68621 10.6134 5.34621 10.8467L2.06621 13.0534C1.97287 13.1067 1.87287 13.1334 1.77954 13.1334Z" fill="currentColor"/>
</g>
<defs>
<clipPath id="clip0_2_5382">
<rect width="16" height="16" fill="currentColor"/>
</clipPath>
</defs>
</svg>
