<svg width="16" height="16" viewBox="0 0 16 16" fill="none" xmlns="http://www.w3.org/2000/svg">
<g clip-path="url(#clip0_2_5351)">
<path d="M6.00001 7.16666C4.98668 7.16666 4.16668 6.34666 4.16668 5.33333C4.16668 4.31999 4.98668 3.49999 6.00001 3.49999C7.01334 3.49999 7.83334 4.31999 7.83334 5.33333C7.83334 6.34666 7.01334 7.16666 6.00001 7.16666ZM6.00001 4.49999C5.54001 4.49999 5.16668 4.87333 5.16668 5.33333C5.16668 5.79333 5.54001 6.16666 6.00001 6.16666C6.46001 6.16666 6.83334 5.79333 6.83334 5.33333C6.83334 4.87333 6.46001 4.49999 6.00001 4.49999Z" fill="currentColor"/>
<path d="M10 15.1667H6.00001C2.38001 15.1667 0.833344 13.62 0.833344 9.99999V5.99999C0.833344 2.37999 2.38001 0.833328 6.00001 0.833328H8.66668C8.94001 0.833328 9.16668 1.05999 9.16668 1.33333C9.16668 1.60666 8.94001 1.83333 8.66668 1.83333H6.00001C2.92668 1.83333 1.83334 2.92666 1.83334 5.99999V9.99999C1.83334 13.0733 2.92668 14.1667 6.00001 14.1667H10C13.0733 14.1667 14.1667 13.0733 14.1667 9.99999V6.66666C14.1667 6.39333 14.3933 6.16666 14.6667 6.16666C14.94 6.16666 15.1667 6.39333 15.1667 6.66666V9.99999C15.1667 13.62 13.62 15.1667 10 15.1667Z" fill="currentColor"/>
<path d="M11.04 5.12681C10.9133 5.12681 10.7867 5.08015 10.6867 4.98015C10.4933 4.78681 10.4933 4.46681 10.6867 4.27348L13.28 1.68015C13.4733 1.48681 13.7933 1.48681 13.9867 1.68015C14.18 1.87348 14.18 2.19348 13.9867 2.38681L11.3933 4.98015C11.2933 5.08015 11.1667 5.12681 11.04 5.12681Z" fill="currentColor"/>
<path d="M13.6268 5.12681C13.5001 5.12681 13.3735 5.08015 13.2735 4.98015L10.6801 2.38681C10.4868 2.19348 10.4868 1.87348 10.6801 1.68015C10.8735 1.48681 11.1935 1.48681 11.3868 1.68015L13.9801 4.27348C14.1735 4.46681 14.1735 4.78681 13.9801 4.98015C13.8868 5.08015 13.7601 5.12681 13.6268 5.12681Z" fill="currentColor"/>
<path d="M1.77956 13.1334C1.61956 13.1334 1.45956 13.0534 1.36622 12.9134C1.21289 12.6867 1.27289 12.3734 1.49956 12.2201L4.78622 10.0134C5.50622 9.53339 6.49956 9.58673 7.15288 10.1401L7.37288 10.3334C7.70621 10.6201 8.27288 10.6201 8.59954 10.3334L11.3729 7.95339C12.0795 7.34673 13.1929 7.34673 13.9062 7.95339L14.9929 8.88673C15.1995 9.06673 15.2262 9.38006 15.0462 9.59339C14.8662 9.80006 14.5529 9.82673 14.3395 9.64673L13.2529 8.71339C12.9195 8.42673 12.3529 8.42673 12.0262 8.71339L9.25288 11.0934C8.54621 11.7001 7.43288 11.7001 6.71954 11.0934L6.49956 10.9001C6.19289 10.6401 5.68622 10.6134 5.34622 10.8467L2.06622 13.0534C1.97289 13.1067 1.87289 13.1334 1.77956 13.1334Z" fill="currentColor"/>
</g>
<defs>
<clipPath id="clip0_2_5351">
<rect width="16" height="16" fill="currentColor"/>
</clipPath>
</defs>
</svg>
