<svg width="16" height="16" viewBox="0 0 16 16" fill="none" xmlns="http://www.w3.org/2000/svg">
<g clip-path="url(#clip0_2_4939)">
<path d="M6 7.16667C4.98666 7.16667 4.16666 6.34667 4.16666 5.33334C4.16666 4.32 4.98666 3.5 6 3.5C7.01333 3.5 7.83333 4.32 7.83333 5.33334C7.83333 6.34667 7.01333 7.16667 6 7.16667ZM6 4.5C5.54 4.5 5.16666 4.87334 5.16666 5.33334C5.16666 5.79334 5.54 6.16667 6 6.16667C6.46 6.16667 6.83333 5.79334 6.83333 5.33334C6.83333 4.87334 6.46 4.5 6 4.5Z" fill="currentColor"/>
<path d="M10 15.1667H6C2.38 15.1667 0.833328 13.62 0.833328 10V6C0.833328 2.38 2.38 0.833338 6 0.833338H8.66666C8.93999 0.833338 9.16666 1.06 9.16666 1.33334C9.16666 1.60667 8.93999 1.83334 8.66666 1.83334H6C2.92666 1.83334 1.83333 2.92667 1.83333 6V10C1.83333 13.0733 2.92666 14.1667 6 14.1667H10C13.0733 14.1667 14.1667 13.0733 14.1667 10V6.66667C14.1667 6.39334 14.3933 6.16667 14.6667 6.16667C14.94 6.16667 15.1667 6.39334 15.1667 6.66667V10C15.1667 13.62 13.62 15.1667 10 15.1667Z" fill="currentColor"/>
<path d="M10.4473 6.49996C10.1873 6.49996 9.94726 6.40663 9.77393 6.22663C9.56726 6.01996 9.46726 5.7133 9.51393 5.39996L9.64726 4.4733C9.68059 4.23996 9.82059 3.9533 9.99393 3.78663L12.4139 1.36663C13.3806 0.399964 14.2206 0.953298 14.6339 1.36663C15.0273 1.75996 15.2073 2.1733 15.1673 2.59996C15.1339 2.93996 14.9606 3.26663 14.6339 3.58663L12.2139 6.00663C12.0473 6.1733 11.7606 6.3133 11.5273 6.3533L10.6006 6.48663C10.5473 6.49997 10.4939 6.49996 10.4473 6.49996ZM13.1139 2.07996L10.6939 4.49996C10.6739 4.51996 10.6406 4.5933 10.6339 4.62663L10.5073 5.4933L11.3806 5.3733C11.4073 5.36663 11.4806 5.3333 11.5073 5.30663L13.9273 2.88663C14.0739 2.73996 14.1606 2.60663 14.1673 2.50663C14.1806 2.36663 14.0406 2.1933 13.9273 2.07996C13.5806 1.7333 13.4206 1.7733 13.1139 2.07996Z" fill="currentColor"/>
<path d="M13.9335 4.08651C13.8869 4.08651 13.8402 4.07984 13.8002 4.06651C12.9069 3.81318 12.1935 3.09984 11.9402 2.20651C11.8669 1.93984 12.0202 1.66651 12.2869 1.59318C12.5535 1.51984 12.8269 1.67318 12.9002 1.93984C13.0602 2.49984 13.5069 2.95318 14.0735 3.11318C14.3402 3.18651 14.4935 3.46651 14.4202 3.72651C14.3469 3.93984 14.1469 4.08651 13.9335 4.08651Z" fill="currentColor"/>
<path d="M1.77954 13.1334C1.61954 13.1334 1.45954 13.0534 1.36621 12.9134C1.21287 12.6867 1.27287 12.3734 1.49954 12.2201L4.78621 10.0134C5.50621 9.5334 6.49954 9.58674 7.15286 10.1401L7.37286 10.3334C7.7062 10.6201 8.27286 10.6201 8.59953 10.3334L11.3729 7.9534C12.0795 7.34674 13.1929 7.34674 13.9062 7.9534L14.9929 8.88674C15.1995 9.06674 15.2262 9.38007 15.0462 9.5934C14.8662 9.80007 14.5529 9.82674 14.3395 9.64674L13.2529 8.7134C12.9195 8.42674 12.3529 8.42674 12.0262 8.7134L9.25286 11.0934C8.5462 11.7001 7.43286 11.7001 6.71953 11.0934L6.49954 10.9001C6.19287 10.6401 5.68621 10.6134 5.34621 10.8467L2.06621 13.0534C1.97287 13.1067 1.87287 13.1334 1.77954 13.1334Z" fill="currentColor"/>
</g>
<defs>
<clipPath id="clip0_2_4939">
<rect width="16" height="16" fill="currentColor"/>
</clipPath>
</defs>
</svg>
