<svg width="16" height="16" viewBox="0 0 16 16" fill="none" xmlns="http://www.w3.org/2000/svg">
<g clip-path="url(#clip0_2_4934)">
<path d="M6.00001 7.16666C4.98668 7.16666 4.16668 6.34666 4.16668 5.33333C4.16668 4.31999 4.98668 3.49999 6.00001 3.49999C7.01334 3.49999 7.83334 4.31999 7.83334 5.33333C7.83334 6.34666 7.01334 7.16666 6.00001 7.16666ZM6.00001 4.49999C5.54001 4.49999 5.16668 4.87333 5.16668 5.33333C5.16668 5.79333 5.54001 6.16666 6.00001 6.16666C6.46001 6.16666 6.83334 5.79333 6.83334 5.33333C6.83334 4.87333 6.46001 4.49999 6.00001 4.49999Z" fill="currentColor"/>
<path d="M10 15.1667H6.00001C2.38001 15.1667 0.833344 13.62 0.833344 9.99999V5.99999C0.833344 2.37999 2.38001 0.833328 6.00001 0.833328H8.66668C8.94001 0.833328 9.16668 1.05999 9.16668 1.33333C9.16668 1.60666 8.94001 1.83333 8.66668 1.83333H6.00001C2.92668 1.83333 1.83334 2.92666 1.83334 5.99999V9.99999C1.83334 13.0733 2.92668 14.1667 6.00001 14.1667H10C13.0733 14.1667 14.1667 13.0733 14.1667 9.99999V6.66666C14.1667 6.39333 14.3933 6.16666 14.6667 6.16666C14.94 6.16666 15.1667 6.39333 15.1667 6.66666V9.99999C15.1667 13.62 13.62 15.1667 10 15.1667Z" fill="currentColor"/>
<path d="M11.6397 4.80015C11.513 4.80015 11.3863 4.75348 11.2863 4.65348L10.313 3.68015C10.1197 3.48681 10.1197 3.16681 10.313 2.97348C10.5063 2.78015 10.8263 2.78015 11.0197 2.97348L11.6397 3.59348L13.8863 1.34681C14.0797 1.15348 14.3997 1.15348 14.593 1.34681C14.7863 1.54015 14.7863 1.86015 14.593 2.05348L11.993 4.65348C11.8997 4.75348 11.7663 4.80015 11.6397 4.80015Z" fill="currentColor"/>
<path d="M1.78051 13.1334C1.62051 13.1334 1.46051 13.0534 1.36718 12.9134C1.21384 12.6867 1.27384 12.3734 1.50718 12.2201L4.79384 10.0134C5.51384 9.52673 6.50718 9.58673 7.16048 10.1401L7.38048 10.3334C7.71381 10.6201 8.28048 10.6201 8.60714 10.3334L11.3805 7.95339C12.0871 7.34673 13.2005 7.34673 13.9138 7.95339L15.0005 8.88673C15.2071 9.06673 15.2338 9.38006 15.0538 9.59339C14.8738 9.80006 14.5605 9.82673 14.3471 9.64673L13.2605 8.71339C12.9271 8.42673 12.3605 8.42673 12.0271 8.71339L9.25381 11.0934C8.54714 11.7001 7.43381 11.7001 6.72048 11.0934L6.50051 10.9001C6.19384 10.6401 5.68718 10.6134 5.34718 10.8467L2.06051 13.0534C1.97384 13.1067 1.87384 13.1334 1.78051 13.1334Z" fill="currentColor"/>
</g>
<defs>
<clipPath id="clip0_2_4934">
<rect width="16" height="16" fill="currentColor"/>
</clipPath>
</defs>
</svg>
