<svg width="16" height="16" viewBox="0 0 16 16" fill="none" xmlns="http://www.w3.org/2000/svg">
<g clip-path="url(#clip0_2_4922)">
<path d="M10 15.1667H6C2.38 15.1667 0.833336 13.62 0.833336 9.99999V5.99999C0.833336 2.37999 2.38 0.833328 6 0.833328H10C13.62 0.833328 15.1667 2.37999 15.1667 5.99999V9.99999C15.1667 13.62 13.62 15.1667 10 15.1667ZM6 1.83333C2.92667 1.83333 1.83334 2.92666 1.83334 5.99999V9.99999C1.83334 13.0733 2.92667 14.1667 6 14.1667H10C13.0733 14.1667 14.1667 13.0733 14.1667 9.99999V5.99999C14.1667 2.92666 13.0733 1.83333 10 1.83333H6Z" fill="currentColor"/>
<path d="M6 7.16666C4.98667 7.16666 4.16667 6.34666 4.16667 5.33333C4.16667 4.31999 4.98667 3.49999 6 3.49999C7.01334 3.49999 7.83334 4.31999 7.83334 5.33333C7.83334 6.34666 7.01334 7.16666 6 7.16666ZM6 4.49999C5.54 4.49999 5.16667 4.87333 5.16667 5.33333C5.16667 5.79333 5.54 6.16666 6 6.16666C6.46 6.16666 6.83334 5.79333 6.83334 5.33333C6.83334 4.87333 6.46 4.49999 6 4.49999Z" fill="currentColor"/>
<path d="M1.7805 13.1334C1.6205 13.1334 1.4605 13.0534 1.36717 12.9134C1.21384 12.6867 1.27384 12.3734 1.50717 12.2201L4.79384 10.0134C5.51384 9.52673 6.50717 9.58673 7.16047 10.1401L7.38047 10.3334C7.7138 10.6201 8.28047 10.6201 8.60714 10.3334L11.3805 7.95339C12.0871 7.34673 13.2005 7.34673 13.9138 7.95339L15.0005 8.88673C15.2071 9.06673 15.2338 9.38006 15.0538 9.59339C14.8738 9.80006 14.5605 9.82673 14.3471 9.64673L13.2605 8.71339C12.9271 8.42673 12.3605 8.42673 12.0271 8.71339L9.2538 11.0934C8.54714 11.7001 7.4338 11.7001 6.72047 11.0934L6.5005 10.9001C6.19384 10.6401 5.68717 10.6134 5.34717 10.8467L2.0605 13.0534C1.97384 13.1067 1.87384 13.1334 1.7805 13.1334Z" fill="currentColor"/>
</g>
<defs>
<clipPath id="clip0_2_4922">
<rect width="16" height="16" fill="currentColor"/>
</clipPath>
</defs>
</svg>
