<svg width="16" height="16" viewBox="0 0 16 16" fill="none" xmlns="http://www.w3.org/2000/svg">
<g clip-path="url(#clip0_2_5277)">
<path d="M6 7.16666C4.98666 7.16666 4.16666 6.34666 4.16666 5.33333C4.16666 4.31999 4.98666 3.49999 6 3.49999C7.01333 3.49999 7.83333 4.31999 7.83333 5.33333C7.83333 6.34666 7.01333 7.16666 6 7.16666ZM6 4.49999C5.54 4.49999 5.16666 4.87333 5.16666 5.33333C5.16666 5.79333 5.54 6.16666 6 6.16666C6.46 6.16666 6.83333 5.79333 6.83333 5.33333C6.83333 4.87333 6.46 4.49999 6 4.49999Z" fill="currentColor"/>
<path d="M10 15.1667H6C2.38 15.1667 0.833328 13.62 0.833328 9.99999V5.99999C0.833328 2.37999 2.38 0.833328 6 0.833328H8C8.27333 0.833328 8.5 1.05999 8.5 1.33333C8.5 1.60666 8.27333 1.83333 8 1.83333H6C2.92666 1.83333 1.83333 2.92666 1.83333 5.99999V9.99999C1.83333 13.0733 2.92666 14.1667 6 14.1667H10C13.0733 14.1667 14.1667 13.0733 14.1667 9.99999V7.33333C14.1667 7.05999 14.3933 6.83333 14.6667 6.83333C14.94 6.83333 15.1667 7.05999 15.1667 7.33333V9.99999C15.1667 13.62 13.62 15.1667 10 15.1667Z" fill="currentColor"/>
<path d="M12.6263 5.57329C12.0463 5.57329 10.6863 4.85995 10.2663 3.55995C9.97966 2.65995 10.313 1.47995 11.353 1.14662C11.793 1.00662 12.253 1.06662 12.6197 1.29329C12.9797 1.06662 13.453 0.999955 13.8997 1.14662C14.9397 1.47995 15.273 2.65995 14.9863 3.55995C14.5663 4.88662 13.1397 5.57329 12.6263 5.57329ZM11.2197 3.25329C11.5063 4.13995 12.4663 4.55329 12.6397 4.57329C12.833 4.55329 13.773 4.08662 14.033 3.25329C14.173 2.80662 14.033 2.23995 13.593 2.09329C13.4063 2.03329 13.1597 2.06662 13.0463 2.23995C12.953 2.37995 12.7997 2.46662 12.6397 2.46662C12.4863 2.46662 12.3197 2.39329 12.2263 2.25995C12.0863 2.06662 11.8397 2.03995 11.6663 2.09329C11.2197 2.23995 11.0797 2.80662 11.2197 3.25329Z" fill="currentColor"/>
<path d="M1.78049 13.1334C1.62049 13.1334 1.46049 13.0534 1.36716 12.9134C1.21383 12.6867 1.27383 12.3734 1.50716 12.2201L4.79383 10.0134C5.51383 9.52673 6.50716 9.58673 7.16046 10.1401L7.38046 10.3334C7.71379 10.6201 8.28046 10.6201 8.60713 10.3334L11.3805 7.95339C12.0871 7.34673 13.2005 7.34673 13.9138 7.95339L15.0005 8.88673C15.2071 9.06673 15.2338 9.38006 15.0538 9.59339C14.8738 9.80006 14.5605 9.82673 14.3471 9.64673L13.2605 8.71339C12.9271 8.42673 12.3605 8.42673 12.0271 8.71339L9.2538 11.0934C8.54713 11.7001 7.43379 11.7001 6.72046 11.0934L6.50049 10.9001C6.19383 10.6401 5.68716 10.6134 5.34716 10.8467L2.06049 13.0534C1.97383 13.1067 1.87383 13.1334 1.78049 13.1334Z" fill="currentColor"/>
</g>
<defs>
<clipPath id="clip0_2_5277">
<rect width="16" height="16" fill="currentColor"/>
</clipPath>
</defs>
</svg>
