<svg width="16" height="16" viewBox="0 0 16 16" fill="none" xmlns="http://www.w3.org/2000/svg">
<g clip-path="url(#clip0_2_4990)">
<path d="M6.00001 7.16666C4.98668 7.16666 4.16668 6.34666 4.16668 5.33333C4.16668 4.31999 4.98668 3.49999 6.00001 3.49999C7.01334 3.49999 7.83334 4.31999 7.83334 5.33333C7.83334 6.34666 7.01334 7.16666 6.00001 7.16666ZM6.00001 4.49999C5.54001 4.49999 5.16668 4.87333 5.16668 5.33333C5.16668 5.79333 5.54001 6.16666 6.00001 6.16666C6.46001 6.16666 6.83334 5.79333 6.83334 5.33333C6.83334 4.87333 6.46001 4.49999 6.00001 4.49999Z" fill="currentColor"/>
<path d="M10 15.1667H6.00001C2.38001 15.1667 0.833344 13.62 0.833344 9.99999V5.99999C0.833344 2.37999 2.38001 0.833328 6.00001 0.833328H8.66668C8.94001 0.833328 9.16668 1.05999 9.16668 1.33333C9.16668 1.60666 8.94001 1.83333 8.66668 1.83333H6.00001C2.92668 1.83333 1.83334 2.92666 1.83334 5.99999V9.99999C1.83334 13.0733 2.92668 14.1667 6.00001 14.1667H10C13.0733 14.1667 14.1667 13.0733 14.1667 9.99999V6.66666C14.1667 6.39333 14.3933 6.16666 14.6667 6.16666C14.94 6.16666 15.1667 6.39333 15.1667 6.66666V9.99999C15.1667 13.62 13.62 15.1667 10 15.1667Z" fill="currentColor"/>
<path d="M12 5.83333C11.9333 5.83333 11.8733 5.81999 11.8067 5.79333C11.62 5.71999 11.5 5.53333 11.5 5.33333V1.33333C11.5 1.05999 11.7267 0.833328 12 0.833328C12.2733 0.833328 12.5 1.05999 12.5 1.33333V4.12666L12.98 3.64666C13.1733 3.45333 13.4933 3.45333 13.6867 3.64666C13.88 3.83999 13.88 4.15999 13.6867 4.35333L12.3533 5.68666C12.26 5.77999 12.1333 5.83333 12 5.83333Z" fill="currentColor"/>
<path d="M12 5.83333C11.8733 5.83333 11.7463 5.78662 11.6463 5.68662L10.313 4.35329C10.1197 4.15995 10.1197 3.83995 10.313 3.64662C10.5063 3.45329 10.8263 3.45329 11.0197 3.64662L12.353 4.97995C12.5463 5.17329 12.5467 5.49333 12.3533 5.68666C12.2533 5.78666 12.1267 5.83333 12 5.83333Z" fill="currentColor"/>
<path d="M1.78051 13.1334C1.62051 13.1334 1.46051 13.0534 1.36718 12.9134C1.21384 12.6867 1.27384 12.3734 1.50718 12.2201L4.79384 10.0134C5.51384 9.52673 6.50718 9.58673 7.16048 10.1401L7.38048 10.3334C7.71381 10.6201 8.28048 10.6201 8.60714 10.3334L11.3805 7.95339C12.0871 7.34673 13.2005 7.34673 13.9138 7.95339L15.0005 8.88673C15.2071 9.06673 15.2338 9.38006 15.0538 9.59339C14.8738 9.80006 14.5605 9.82673 14.3471 9.64673L13.2605 8.71339C12.9271 8.42673 12.3605 8.42673 12.0271 8.71339L9.25381 11.0934C8.54714 11.7001 7.43381 11.7001 6.72048 11.0934L6.50051 10.9001C6.19384 10.6401 5.68718 10.6134 5.34718 10.8467L2.06051 13.0534C1.97384 13.1067 1.87384 13.1334 1.78051 13.1334Z" fill="currentColor"/>
</g>
<defs>
<clipPath id="clip0_2_4990">
<rect width="16" height="16" fill="currentColor"/>
</clipPath>
</defs>
</svg>
