<svg width="16" height="16" viewBox="0 0 16 16" fill="none" xmlns="http://www.w3.org/2000/svg">
<path d="M10.6667 15.1667H5.33333C2.9 15.1667 1.5 13.7667 1.5 11.3333V4.66666C1.5 2.23333 2.9 0.833328 5.33333 0.833328H10.6667C13.1 0.833328 14.5 2.23333 14.5 4.66666V11.3333C14.5 13.7667 13.1 15.1667 10.6667 15.1667ZM5.33333 1.83333C3.42667 1.83333 2.5 2.75999 2.5 4.66666V11.3333C2.5 13.24 3.42667 14.1667 5.33333 14.1667H10.6667C12.5733 14.1667 13.5 13.24 13.5 11.3333V4.66666C13.5 2.75999 12.5733 1.83333 10.6667 1.83333H5.33333Z" fill="currentColor"/>
<path d="M10.8333 7.83333H5.16667C4.24667 7.83333 3.5 7.08666 3.5 6.16666V4.49999C3.5 3.57999 4.24667 2.83333 5.16667 2.83333H10.8333C11.7533 2.83333 12.5 3.57999 12.5 4.49999V6.16666C12.5 7.08666 11.7533 7.83333 10.8333 7.83333ZM5.16667 3.83333C4.8 3.83333 4.5 4.13333 4.5 4.49999V6.16666C4.5 6.53333 4.8 6.83333 5.16667 6.83333H10.8333C11.2 6.83333 11.5 6.53333 11.5 6.16666V4.49999C11.5 4.13333 11.2 3.83333 10.8333 3.83333H5.16667Z" fill="currentColor"/>
<path d="M5.33297 12.22C5.2063 12.22 5.07963 12.1733 4.97963 12.0733C4.7863 11.88 4.7863 11.56 4.97963 11.3667L6.51296 9.83333C6.70627 9.63999 7.02627 9.63999 7.2196 9.83333C7.41293 10.0267 7.41293 10.3467 7.2196 10.54L5.6863 12.0733C5.5863 12.1733 5.45963 12.22 5.33297 12.22Z" fill="currentColor"/>
<path d="M6.88647 12.24C6.7598 12.24 6.63314 12.1933 6.53314 12.0933L4.99982 10.56C4.80649 10.3667 4.80649 10.0467 4.99982 9.85333C5.19315 9.65999 5.51315 9.65999 5.70648 9.85333L7.2398 11.3867C7.43313 11.58 7.43313 11.9 7.2398 12.0933C7.1398 12.1933 7.01313 12.24 6.88647 12.24Z" fill="currentColor"/>
<path d="M11.0067 10.8867C10.64 10.8867 10.3333 10.5867 10.3333 10.2201C10.3333 9.85339 10.6267 9.55339 10.9933 9.55339H11.0067C11.3733 9.55339 11.6733 9.85339 11.6733 10.2201C11.6733 10.5867 11.3733 10.8867 11.0067 10.8867Z" fill="currentColor"/>
<path d="M9.66013 12.3267C9.29347 12.3267 8.99347 12.0333 8.99347 11.6667V11.6533C8.99347 11.2867 9.29347 10.9867 9.66013 10.9867C10.0268 10.9867 10.3268 11.2867 10.3268 11.6533C10.3268 12.02 10.0268 12.3267 9.66013 12.3267Z" fill="currentColor"/>
</svg>
