<svg width="16" height="16" viewBox="0 0 16 16" fill="none" xmlns="http://www.w3.org/2000/svg">
<g clip-path="url(#clip0_2_5011)">
<path d="M4.34665 10.8399C4.21998 10.8399 4.09332 10.7933 3.99332 10.6933C3.79998 10.4999 3.79998 10.1799 3.99332 9.98659L6.02665 7.95326C6.21998 7.75993 6.53998 7.75993 6.73334 7.95326C6.92668 8.14659 6.92668 8.46659 6.73334 8.65993L4.69998 10.6933C4.59998 10.7866 4.47332 10.8399 4.34665 10.8399Z" fill="currentColor"/>
<path d="M6.40016 10.8599C6.2735 10.8599 6.14683 10.8133 6.04683 10.7133L4.0135 8.67993C3.82016 8.48659 3.82016 8.16659 4.0135 7.97326C4.20683 7.77993 4.52683 7.77993 4.72016 7.97326L6.75348 10.0066C6.94681 10.1999 6.94681 10.5199 6.75348 10.7133C6.6535 10.8133 6.52683 10.8599 6.40016 10.8599Z" fill="currentColor"/>
<path d="M9.02688 9.99999C8.66021 9.99999 8.35354 9.69999 8.35354 9.33333C8.35354 8.96666 8.64688 8.66666 9.01354 8.66666H9.02688C9.39354 8.66666 9.69354 8.96666 9.69354 9.33333C9.69354 9.69999 9.40021 9.99999 9.02688 9.99999Z" fill="currentColor"/>
<path d="M11.6531 9.99999C11.2865 9.99999 10.9798 9.69999 10.9798 9.33333C10.9798 8.96666 11.2731 8.66666 11.6398 8.66666H11.6531C12.0198 8.66666 12.3198 8.96666 12.3198 9.33333C12.3198 9.69999 12.0198 9.99999 11.6531 9.99999Z" fill="currentColor"/>
<path d="M10.3333 11.3133C9.96668 11.3133 9.66668 11.02 9.66668 10.6533V10.64C9.66668 10.2733 9.96668 9.97333 10.3333 9.97333C10.7 9.97333 11 10.2733 11 10.64C11 11.0067 10.7067 11.3133 10.3333 11.3133Z" fill="currentColor"/>
<path d="M10.3333 8.68666C9.96668 8.68666 9.66668 8.39333 9.66668 8.02666V8.01333C9.66668 7.64666 9.96668 7.34666 10.3333 7.34666C10.7 7.34666 11 7.64666 11 8.01333C11 8.37999 10.7067 8.68666 10.3333 8.68666Z" fill="currentColor"/>
<path d="M10 15.1667H6.00001C2.38001 15.1667 0.833344 13.62 0.833344 9.99999V8.66666C0.833344 5.04666 2.38001 3.49999 6.00001 3.49999H10C13.62 3.49999 15.1667 5.04666 15.1667 8.66666V9.99999C15.1667 13.62 13.62 15.1667 10 15.1667ZM6.00001 4.49999C2.92668 4.49999 1.83334 5.59333 1.83334 8.66666V9.99999C1.83334 13.0733 2.92668 14.1667 6.00001 14.1667H10C13.0733 14.1667 14.1667 13.0733 14.1667 9.99999V8.66666C14.1667 5.59333 13.0733 4.49999 10 4.49999H6.00001Z" fill="currentColor"/>
<path d="M8.66014 4.49999H7.99348C7.35348 4.49999 6.82681 3.97333 6.82681 3.33333C6.82681 2.69333 7.34681 2.16666 7.98681 2.16666C8.09348 2.16666 8.16681 2.09333 8.17348 1.99999L8.18014 1.32666C8.18681 1.05333 8.40681 0.833328 8.68014 0.833328H8.68681C8.96014 0.839995 9.18681 1.06666 9.18014 1.33999L9.17348 2.01333C9.16681 2.64666 8.64014 3.16666 8.00681 3.16666C7.90014 3.16666 7.83348 3.23999 7.83348 3.33333C7.83348 3.42666 7.90681 3.49999 8.00014 3.49999H8.66681C8.94014 3.49999 9.16681 3.72666 9.16681 3.99999C9.16681 4.27333 8.93348 4.49999 8.66014 4.49999Z" fill="currentColor"/>
</g>
<defs>
<clipPath id="clip0_2_5011">
<rect width="16" height="16" fill="currentColor"/>
</clipPath>
</defs>
</svg>
