<svg width="16" height="16" viewBox="0 0 16 16" fill="none" xmlns="http://www.w3.org/2000/svg">
<g clip-path="url(#clip0_2_5397)">
<path d="M11.6667 15.1667H2.33334C2.06001 15.1667 1.83334 14.94 1.83334 14.6667V3.33333C1.83334 1.83999 2.84001 0.833328 4.33334 0.833328H9.66668C11.16 0.833328 12.1667 1.83999 12.1667 3.33333V14.6667C12.1667 14.94 11.94 15.1667 11.6667 15.1667ZM2.83334 14.1667H11.1667V3.33333C11.1667 2.39333 10.6067 1.83333 9.66668 1.83333H4.33334C3.39334 1.83333 2.83334 2.39333 2.83334 3.33333V14.1667Z" fill="currentColor"/>
<path d="M12.6667 15.1667H1.33334C1.06001 15.1667 0.833344 14.94 0.833344 14.6667C0.833344 14.3933 1.06001 14.1667 1.33334 14.1667H12.6667C12.94 14.1667 13.1667 14.3933 13.1667 14.6667C13.1667 14.94 12.94 15.1667 12.6667 15.1667Z" fill="currentColor"/>
<path d="M8.40681 7.16666H5.58683C4.50016 7.16666 3.82683 6.49332 3.82683 5.40665V4.58665C3.82683 3.49999 4.50016 2.82665 5.58683 2.82665H8.40681C9.49348 2.82665 10.1668 3.49999 10.1668 4.58665V5.40665C10.1668 6.49332 9.49348 7.16666 8.40681 7.16666ZM5.5935 3.83331C5.0535 3.83331 4.8335 4.05331 4.8335 4.59331V5.41331C4.8335 5.95331 5.0535 6.17331 5.5935 6.17331H8.41348C8.95348 6.17331 9.17348 5.95331 9.17348 5.41331V4.59331C9.17348 4.05331 8.95348 3.83331 8.41348 3.83331H5.5935Z" fill="currentColor"/>
<path d="M6.33334 9.16666H4.33334C4.06001 9.16666 3.83334 8.93999 3.83334 8.66666C3.83334 8.39333 4.06001 8.16666 4.33334 8.16666H6.33334C6.60668 8.16666 6.83334 8.39333 6.83334 8.66666C6.83334 8.93999 6.60668 9.16666 6.33334 9.16666Z" fill="currentColor"/>
<path d="M11.6667 11.1733C11.3933 11.1733 11.1667 10.9533 11.1667 10.6733C11.1667 10.3999 11.3867 10.1733 11.6667 10.1733L14.1667 10.1666V6.97326L13.1067 6.44661C12.86 6.31994 12.76 6.01995 12.88 5.77328C13.0067 5.52661 13.3067 5.42661 13.5533 5.54661L14.8867 6.21328C15.0533 6.29995 15.16 6.47328 15.16 6.65995V10.6599C15.16 10.9333 14.94 11.1599 14.66 11.1599L11.6667 11.1733Z" fill="currentColor"/>
</g>
<defs>
<clipPath id="clip0_2_5397">
<rect width="16" height="16" fill="currentColor"/>
</clipPath>
</defs>
</svg>
