<svg width="16" height="16" viewBox="0 0 16 16" fill="none" xmlns="http://www.w3.org/2000/svg">
<g clip-path="url(#clip0_2_4711)">
<path d="M10.2202 15.1667C9.94022 15.1667 9.65356 15.0667 9.43356 14.8667L8.10022 13.6467C8.04689 13.6 7.94022 13.6 7.88022 13.6467L6.55353 14.8667C6.11353 15.2733 5.42684 15.2667 4.98684 14.8667L3.6535 13.6467C3.60017 13.6 3.49354 13.6 3.43354 13.6467L2.7735 14.2533C2.16684 14.8067 1.68685 14.72 1.45352 14.6133C1.22018 14.5067 0.826843 14.2133 0.826843 13.38V8.12C0.826843 4.09999 4.04018 0.833328 7.99349 0.833328C11.9468 0.833328 15.1602 4.09999 15.1602 8.12V13.38C15.1602 14.2133 14.7668 14.5133 14.5335 14.6133C14.3002 14.7133 13.8202 14.8067 13.2136 14.2533L12.5469 13.6467C12.4936 13.6 12.3868 13.6 12.3335 13.6467L11.0002 14.8667C10.7868 15.0667 10.5069 15.1667 10.2202 15.1667ZM8.00016 12.6067C8.28016 12.6067 8.56682 12.7067 8.78016 12.9067L10.1135 14.1267C10.1668 14.1733 10.2735 14.1733 10.3268 14.1267L11.6602 12.9067C12.1002 12.5067 12.7869 12.5067 13.2269 12.9067L13.8936 13.5133C14.0069 13.6133 14.0802 13.66 14.1268 13.6733C14.1468 13.6267 14.1668 13.5333 14.1668 13.3733V8.11333C14.1668 4.64667 11.4002 1.82665 8.00016 1.82665C4.60018 1.82665 1.83352 4.64667 1.83352 8.11333V13.3733C1.83352 13.5333 1.86018 13.6267 1.87352 13.6733C1.92018 13.6533 2.00017 13.6133 2.10684 13.5133L2.7735 12.9067C3.2135 12.5067 3.90019 12.5067 4.34019 12.9067L5.67352 14.1267C5.72686 14.1733 5.83353 14.1733 5.88686 14.1267L7.22022 12.9067C7.43356 12.7067 7.72016 12.6067 8.00016 12.6067Z" fill="currentColor"/>
<path d="M8.00022 10.7133C6.95356 10.7133 5.90686 10.3867 5.03352 9.73333C4.81352 9.56666 4.76688 9.25333 4.93355 9.03333C5.10022 8.81333 5.41354 8.76666 5.63354 8.93333C7.02689 9.97999 8.97349 9.97999 10.3668 8.93333C10.5868 8.76666 10.9002 8.81333 11.0668 9.03333C11.2335 9.25333 11.1869 9.56666 10.9669 9.73333C10.0936 10.3867 9.04689 10.7133 8.00022 10.7133Z" fill="currentColor"/>
<path d="M8.00002 7.83333C6.98669 7.83333 6.16669 7.01333 6.16669 6C6.16669 4.98666 6.98669 4.16666 8.00002 4.16666C9.01336 4.16666 9.83336 4.98666 9.83336 6C9.83336 7.01333 9.01336 7.83333 8.00002 7.83333ZM8.00002 5.16666C7.54002 5.16666 7.16669 5.54 7.16669 6C7.16669 6.46 7.54002 6.83333 8.00002 6.83333C8.46002 6.83333 8.83336 6.46 8.83336 6C8.83336 5.54 8.46002 5.16666 8.00002 5.16666Z" fill="currentColor"/>
</g>
<defs>
<clipPath id="clip0_2_4711">
<rect width="16" height="16" fill="currentColor"/>
</clipPath>
</defs>
</svg>
