<svg width="16" height="16" viewBox="0 0 16 16" fill="none" xmlns="http://www.w3.org/2000/svg">
<path d="M10.6472 15.1667H5.31382C3.03382 15.1667 2.14715 14.28 2.14715 12V6.66667C2.14715 6.39334 2.37382 6.16667 2.64715 6.16667H13.3138C13.5872 6.16667 13.8138 6.39334 13.8138 6.66667V12C13.8138 14.28 12.9272 15.1667 10.6472 15.1667ZM3.14715 7.16667V12C3.14715 13.72 3.59382 14.1667 5.31382 14.1667H10.6472C12.3672 14.1667 12.8138 13.72 12.8138 12V7.16667H3.14715Z" fill="currentColor"/>
<path d="M13 7.16667H3.00002C1.83335 7.16667 1.16669 6.50001 1.16669 5.33334V4.66667C1.16669 3.50001 1.83335 2.83334 3.00002 2.83334H13C14.1334 2.83334 14.8334 3.53334 14.8334 4.66667V5.33334C14.8334 6.46667 14.1334 7.16667 13 7.16667ZM3.00002 3.83334C2.39335 3.83334 2.16669 4.06001 2.16669 4.66667V5.33334C2.16669 5.94001 2.39335 6.16667 3.00002 6.16667H13C13.5867 6.16667 13.8334 5.92001 13.8334 5.33334V4.66667C13.8334 4.08001 13.5867 3.83334 13 3.83334H3.00002Z" fill="currentColor"/>
<path d="M7.75942 3.83326H4.07943C3.93943 3.83326 3.8061 3.77326 3.71277 3.67326C3.3061 3.22659 3.31943 2.53993 3.7461 2.11326L4.69277 1.16659C5.13277 0.726594 5.85943 0.726594 6.29943 1.16659L8.11275 2.97993C8.25275 3.11993 8.29942 3.33993 8.21942 3.52659C8.14609 3.71326 7.96609 3.83326 7.75942 3.83326ZM4.4461 2.83326H6.55943L5.59277 1.87326C5.53943 1.81993 5.45277 1.81993 5.39943 1.87326L4.45277 2.81993C4.45277 2.82659 4.4461 2.82659 4.4461 2.83326Z" fill="currentColor"/>
<path d="M11.9134 3.83326H8.23342C8.03342 3.83326 7.84675 3.71326 7.77342 3.52659C7.69342 3.33993 7.74009 3.12659 7.88009 2.97993L9.69342 1.16659C10.1334 0.726594 10.8601 0.726594 11.3001 1.16659L12.2468 2.11326C12.6734 2.53993 12.6934 3.22659 12.2801 3.67326C12.1868 3.77326 12.0534 3.83326 11.9134 3.83326ZM9.44675 2.83326H11.5601C11.5534 2.82659 11.5534 2.82659 11.5468 2.81993L10.6001 1.87326C10.5468 1.81993 10.4601 1.81993 10.4068 1.87326L9.44675 2.83326Z" fill="currentColor"/>
<path d="M6.62632 11.2667C6.43965 11.2667 6.24632 11.22 6.07299 11.1267C5.69299 10.92 5.45965 10.5267 5.45965 10.1V6.66667C5.45965 6.39334 5.68632 6.16667 5.95965 6.16667H9.98635C10.2597 6.16667 10.4864 6.39334 10.4864 6.66667V10.0867C10.4864 10.52 10.253 10.9133 9.87302 11.1133C9.49302 11.32 9.03302 11.2933 8.67302 11.0533L8.07969 10.6533C8.02635 10.6133 7.95302 10.6133 7.89302 10.6533L7.26635 11.0667C7.07302 11.2 6.84635 11.2667 6.62632 11.2667ZM6.45965 10.0933C6.45965 10.18 6.51299 10.22 6.54632 10.24C6.57965 10.26 6.64632 10.28 6.71969 10.2333L7.34635 9.82001C7.73969 9.56001 8.24635 9.56001 8.63302 9.82001L9.22635 10.22C9.29969 10.2667 9.36635 10.2467 9.39969 10.2267C9.43302 10.2067 9.48635 10.1667 9.48635 10.08V7.16001H6.45965V10.0933Z" fill="currentColor"/>
</svg>
