<svg width="16" height="16" viewBox="0 0 16 16" fill="none" xmlns="http://www.w3.org/2000/svg">
<path d="M9.33331 12.1667H6.66665C6.39331 12.1667 6.16665 11.94 6.16665 11.6667C6.16665 11.3933 6.39331 11.1667 6.66665 11.1667H9.33331C9.60665 11.1667 9.83331 11.3933 9.83331 11.6667C9.83331 11.94 9.60665 12.1667 9.33331 12.1667Z" fill="currentColor"/>
<path d="M1.33331 12.1667C1.05998 12.1667 0.833313 11.94 0.833313 11.6667V5C0.833313 2.06001 1.72665 1.16667 4.66665 1.16667C4.93998 1.16667 5.16665 1.39334 5.16665 1.66667C5.16665 1.94001 4.93998 2.16667 4.66665 2.16667C2.28665 2.16667 1.83331 2.61334 1.83331 5V11.6667C1.83331 11.94 1.60665 12.1667 1.33331 12.1667Z" fill="currentColor"/>
<path d="M14.6666 12.1667C14.3933 12.1667 14.1666 11.94 14.1666 11.6667V5C14.1666 2.61334 13.7133 2.16667 11.3333 2.16667C11.06 2.16667 10.8333 1.94001 10.8333 1.66667C10.8333 1.39334 11.06 1.16667 11.3333 1.16667C14.2733 1.16667 15.1666 2.06001 15.1666 5V11.6667C15.1666 11.94 14.94 12.1667 14.6666 12.1667Z" fill="currentColor"/>
<path d="M4.79998 15.1667H3.19998C1.58665 15.1667 0.833313 14.4134 0.833313 12.8001V10.6067C0.833313 8.9934 1.58665 8.24007 3.19998 8.24007H4.79998C6.41331 8.24007 7.16665 8.9934 7.16665 10.6067V12.8001C7.16665 14.4134 6.41331 15.1667 4.79998 15.1667ZM3.19998 9.24007C2.13998 9.24007 1.83331 9.54674 1.83331 10.6067V12.8001C1.83331 13.8601 2.13998 14.1667 3.19998 14.1667H4.79998C5.85998 14.1667 6.16665 13.8601 6.16665 12.8001V10.6067C6.16665 9.54674 5.85998 9.24007 4.79998 9.24007H3.19998Z" fill="currentColor"/>
<path d="M12.8 15.1667H11.2C9.58665 15.1667 8.83331 14.4134 8.83331 12.8001V10.6067C8.83331 8.9934 9.58665 8.24007 11.2 8.24007H12.8C14.4133 8.24007 15.1666 8.9934 15.1666 10.6067V12.8001C15.1666 14.4134 14.4133 15.1667 12.8 15.1667ZM11.2 9.24007C10.14 9.24007 9.83331 9.54674 9.83331 10.6067V12.8001C9.83331 13.8601 10.14 14.1667 11.2 14.1667H12.8C13.86 14.1667 14.1666 13.8601 14.1666 12.8001V10.6067C14.1666 9.54674 13.86 9.24007 12.8 9.24007H11.2Z" fill="currentColor"/>
</svg>
