<svg width="16" height="16" viewBox="0 0 16 16" fill="none" xmlns="http://www.w3.org/2000/svg">
<path d="M10.5595 15.1667H5.43949C3.65282 15.1667 2.83949 14.5 2.47949 13.9467C1.95282 13.1333 1.97282 12.02 2.53949 10.7267L5.09282 4.92666C4.73949 4.83333 4.41282 4.64666 4.15282 4.38666C3.77282 3.99999 3.54615 3.46666 3.54615 2.91333C3.54615 1.76666 4.47949 0.833328 5.62615 0.833328H10.3662C10.9195 0.833328 11.4462 1.05333 11.8395 1.44666C12.3595 1.96666 12.5662 2.70666 12.3928 3.41999C12.2195 4.13333 11.6328 4.69999 10.9128 4.90666L13.4595 10.7333C14.0195 12.02 14.0395 13.1333 13.5062 13.9467C13.1462 14.5 12.3328 15.1667 10.5595 15.1667ZM5.62615 1.83333C5.03282 1.83333 4.54615 2.31999 4.54615 2.91333C4.54615 3.19999 4.66615 3.47999 4.85949 3.67999C5.05949 3.87999 5.33949 3.99333 5.62615 3.99333H5.82615C5.99282 3.99333 6.15282 4.07999 6.24615 4.21999C6.33949 4.35999 6.35282 4.53999 6.28615 4.69333L3.45282 11.1267C3.03282 12.0867 2.97949 12.8933 3.31282 13.4C3.72615 14.0333 4.69282 14.1667 5.43282 14.1667H10.5528C11.2862 14.1667 12.2462 14.0333 12.6662 13.4C12.9995 12.8867 12.9528 12.0867 12.5395 11.1333L9.73285 4.69333C9.66618 4.53999 9.67951 4.35999 9.77285 4.21999C9.86618 4.07999 10.0195 3.99333 10.1928 3.99333H10.2995C10.8328 3.99333 11.3128 3.65333 11.4262 3.17999C11.5195 2.79999 11.4128 2.42666 11.1395 2.15333C10.9328 1.94666 10.6595 1.83333 10.3728 1.83333H5.62615Z" fill="currentColor"/>
<path d="M9.22705 10.0267C8.78705 10.0267 8.31371 9.96673 7.84038 9.80673C5.94701 9.17339 3.99368 9.24006 3.97368 9.24006C3.70701 9.28006 3.46701 9.03339 3.45368 8.76006C3.44035 8.48673 3.66035 8.25339 3.93368 8.24006C4.02035 8.23339 6.09368 8.16673 8.15371 8.85339C9.88705 9.43339 11.587 8.33339 11.607 8.32006C11.8337 8.16673 12.147 8.23339 12.3004 8.46006C12.4537 8.68673 12.3937 9.00006 12.1604 9.15339C12.1004 9.20006 10.8337 10.0267 9.22705 10.0267Z" fill="currentColor"/>
</svg>
