<svg width="16" height="16" viewBox="0 0 16 16" fill="none" xmlns="http://www.w3.org/2000/svg">
<g clip-path="url(#clip0_2_4926)">
<path d="M7.99998 15.1667C4.04665 15.1667 0.833313 11.9533 0.833313 7.99999C0.833313 4.04666 4.04665 0.833328 7.99998 0.833328C11.9533 0.833328 15.1666 4.04666 15.1666 7.99999C15.1666 8.27333 14.94 8.49999 14.6666 8.49999C14.3933 8.49999 14.1666 8.27333 14.1666 7.99999C14.1666 4.59999 11.4 1.83333 7.99998 1.83333C4.59998 1.83333 1.83331 4.59999 1.83331 7.99999C1.83331 11.4 4.59998 14.1667 7.99998 14.1667C8.27331 14.1667 8.49998 14.3933 8.49998 14.6667C8.49998 14.94 8.27331 15.1667 7.99998 15.1667Z" fill="currentColor"/>
<path d="M6.00014 14.5H5.33347C5.06014 14.5 4.83347 14.2733 4.83347 14C4.83347 13.7267 5.0468 13.5067 5.32013 13.5C4.27347 9.92666 4.27347 6.07333 5.32013 2.49999C5.05347 2.49333 4.83347 2.27333 4.83347 1.99999C4.83347 1.72666 5.06014 1.49999 5.33347 1.49999H6.00014C6.16014 1.49999 6.31347 1.57999 6.40681 1.70666C6.50014 1.83999 6.52681 2.00665 6.47348 2.15999C5.22015 5.92665 5.22015 10.08 6.47348 13.8467C6.52681 14 6.50014 14.1667 6.40681 14.3C6.31347 14.4333 6.16014 14.5 6.00014 14.5Z" fill="currentColor"/>
<path d="M10.9736 8.49999C10.7002 8.49999 10.4736 8.27333 10.4736 7.99999C10.4736 6.0133 10.1536 4.04663 9.52691 2.15996C9.44025 1.89996 9.58025 1.61329 9.84025 1.52662C10.1002 1.43996 10.3869 1.57997 10.4736 1.83997C11.1336 3.82664 11.4736 5.89997 11.4736 7.99999C11.4736 8.27333 11.2469 8.49999 10.9736 8.49999Z" fill="currentColor"/>
<path d="M7.99998 11.4732C6.13331 11.4732 4.28665 11.2065 2.49998 10.6799C2.49331 10.9465 2.27331 11.1665 1.99998 11.1665C1.72665 11.1665 1.49998 10.9399 1.49998 10.6665V9.99986C1.49998 9.83986 1.57998 9.68653 1.70665 9.59319C1.83998 9.49986 2.00665 9.47319 2.15999 9.52653C4.04665 10.1532 6.01331 10.4732 7.99998 10.4732C8.27331 10.4732 8.49998 10.6999 8.49998 10.9732C8.49998 11.2465 8.27331 11.4732 7.99998 11.4732Z" fill="currentColor"/>
<path d="M14.0004 6.49992C13.9471 6.49992 13.8938 6.49327 13.8404 6.47327C10.0738 5.21993 5.92042 5.21993 2.15375 6.47327C1.89375 6.55993 1.60709 6.41991 1.52043 6.15991C1.43376 5.89991 1.57376 5.61323 1.83376 5.52657C5.80709 4.1999 10.1804 4.1999 14.1471 5.52657C14.4071 5.61323 14.5471 5.89991 14.4604 6.15991C14.4071 6.36658 14.2071 6.49992 14.0004 6.49992Z" fill="currentColor"/>
<path d="M12.1333 14.7667C10.68 14.7667 9.49998 13.5867 9.49998 12.1333C9.49998 10.68 10.68 9.49999 12.1333 9.49999C13.5866 9.49999 14.7666 10.68 14.7666 12.1333C14.7666 13.5867 13.5866 14.7667 12.1333 14.7667ZM12.1333 10.5C11.2333 10.5 10.5 11.2333 10.5 12.1333C10.5 13.0333 11.2333 13.7667 12.1333 13.7667C13.0333 13.7667 13.7666 13.0333 13.7666 12.1333C13.7666 11.2333 13.0333 10.5 12.1333 10.5Z" fill="currentColor"/>
<path d="M14.6663 15.1667C14.5396 15.1667 14.413 15.12 14.313 15.02L13.6463 14.3533C13.453 14.16 13.453 13.8399 13.6463 13.6466C13.8396 13.4533 14.1596 13.4533 14.353 13.6466L15.0196 14.3133C15.213 14.5066 15.213 14.8267 15.0196 15.02C14.9196 15.12 14.793 15.1667 14.6663 15.1667Z" fill="currentColor"/>
</g>
<defs>
<clipPath id="clip0_2_4926">
<rect width="16" height="16" fill="currentColor"/>
</clipPath>
</defs>
</svg>
