<svg width="16" height="16" viewBox="0 0 16 16" fill="none" xmlns="http://www.w3.org/2000/svg">
<g clip-path="url(#clip0_2_4928)">
<path d="M7.99998 15.1667C4.04665 15.1667 0.833313 11.9533 0.833313 7.99999C0.833313 4.04666 4.04665 0.833328 7.99998 0.833328C11.9533 0.833328 15.1666 4.04666 15.1666 7.99999C15.1666 8.27333 14.94 8.49999 14.6666 8.49999C14.3933 8.49999 14.1666 8.27333 14.1666 7.99999C14.1666 4.59999 11.4 1.83333 7.99998 1.83333C4.59998 1.83333 1.83331 4.59999 1.83331 7.99999C1.83331 11.4 4.59998 14.1667 7.99998 14.1667C8.27331 14.1667 8.49998 14.3933 8.49998 14.6667C8.49998 14.94 8.27331 15.1667 7.99998 15.1667Z" fill="currentColor"/>
<path d="M6.00014 14.5H5.33347C5.06014 14.5 4.83347 14.2733 4.83347 14C4.83347 13.7267 5.0468 13.5067 5.32013 13.5C4.27347 9.92666 4.27347 6.07333 5.32013 2.49999C5.05347 2.49333 4.83347 2.27333 4.83347 1.99999C4.83347 1.72666 5.06014 1.49999 5.33347 1.49999H6.00014C6.16014 1.49999 6.31347 1.57999 6.40681 1.70666C6.50014 1.83999 6.52681 2.00665 6.47348 2.15999C5.22015 5.92665 5.22015 10.08 6.47348 13.8467C6.52681 14 6.50014 14.1667 6.40681 14.3C6.31347 14.4333 6.16014 14.5 6.00014 14.5Z" fill="currentColor"/>
<path d="M10.9736 8.49999C10.7002 8.49999 10.4736 8.27333 10.4736 7.99999C10.4736 6.0133 10.1536 4.04663 9.52691 2.15996C9.44025 1.89996 9.58025 1.61329 9.84025 1.52662C10.1002 1.43996 10.3869 1.57997 10.4736 1.83997C11.1336 3.82664 11.4736 5.89997 11.4736 7.99999C11.4736 8.27333 11.2469 8.49999 10.9736 8.49999Z" fill="currentColor"/>
<path d="M7.99998 11.4732C6.13331 11.4732 4.28665 11.2065 2.49998 10.6799C2.49331 10.9465 2.27331 11.1665 1.99998 11.1665C1.72665 11.1665 1.49998 10.9399 1.49998 10.6665V9.99986C1.49998 9.83986 1.57998 9.68653 1.70665 9.59319C1.83331 9.49986 2.00665 9.47319 2.15999 9.52653C4.04665 10.1532 6.01331 10.4732 7.99998 10.4732C8.27331 10.4732 8.49998 10.6999 8.49998 10.9732C8.49998 11.2465 8.27331 11.4732 7.99998 11.4732Z" fill="currentColor"/>
<path d="M14.0004 6.49992C13.9471 6.49992 13.8938 6.49327 13.8404 6.47327C10.0738 5.21993 5.92042 5.21993 2.15375 6.47327C1.89375 6.55993 1.60709 6.41991 1.52043 6.15991C1.43376 5.89991 1.57376 5.61323 1.83376 5.52657C5.80709 4.1999 10.1804 4.1999 14.1471 5.52657C14.4071 5.61323 14.5471 5.89991 14.4604 6.15991C14.4071 6.36658 14.2071 6.49992 14.0004 6.49992Z" fill="currentColor"/>
<path d="M10.5464 15.1665C10.293 15.1665 10.053 15.0732 9.87971 14.8999C9.67305 14.6932 9.57971 14.3932 9.62638 14.0799L9.75305 13.1799C9.78638 12.9466 9.92638 12.6665 10.093 12.4999L12.453 10.1399C12.773 9.81993 13.0864 9.65319 13.4264 9.61986C13.8464 9.57986 14.253 9.75326 14.6397 10.1399C15.0264 10.5266 15.1997 10.9333 15.1597 11.3533C15.1264 11.6866 14.953 12.0065 14.6397 12.3265L12.2797 14.6866C12.113 14.8533 11.8397 14.9932 11.6064 15.0265L10.7064 15.1532C10.6464 15.1599 10.5997 15.1665 10.5464 15.1665ZM13.5397 10.6132C13.533 10.6132 13.5264 10.6132 13.5197 10.6132C13.4264 10.6199 13.2997 10.6999 13.1597 10.8466L10.7997 13.2065C10.7797 13.2265 10.7464 13.2932 10.7464 13.3199L10.6264 14.1532L11.4597 14.0332C11.4864 14.0265 11.553 13.9933 11.573 13.9733L13.933 11.6132C14.073 11.4732 14.1597 11.3465 14.1664 11.2532C14.1797 11.1199 14.0464 10.9599 13.933 10.8466C13.8264 10.7399 13.673 10.6132 13.5397 10.6132Z" fill="currentColor"/>
<path d="M13.947 12.8132C13.9004 12.8132 13.8537 12.8066 13.8137 12.7933C12.9337 12.5466 12.2337 11.8466 11.987 10.9666C11.9137 10.6999 12.067 10.4266 12.3337 10.3533C12.6004 10.2799 12.8737 10.4333 12.9537 10.6999C13.107 11.2466 13.5404 11.6799 14.087 11.8333C14.3537 11.9066 14.507 12.1866 14.4337 12.4466C14.367 12.6666 14.167 12.8132 13.947 12.8132Z" fill="currentColor"/>
</g>
<defs>
<clipPath id="clip0_2_4928">
<rect width="16" height="16" fill="currentColor"/>
</clipPath>
</defs>
</svg>
