<svg width="16" height="16" viewBox="0 0 16 16" fill="none" xmlns="http://www.w3.org/2000/svg">
<g clip-path="url(#clip0_2_5082)">
<path d="M7.99998 15.1667C4.04665 15.1667 0.833313 11.9533 0.833313 7.99999C0.833313 4.04666 4.04665 0.833328 7.99998 0.833328C11.9533 0.833328 15.1666 4.04666 15.1666 7.99999C15.1666 11.9533 11.9533 15.1667 7.99998 15.1667ZM7.99998 1.83333C4.59998 1.83333 1.83331 4.59999 1.83331 7.99999C1.83331 11.4 4.59998 14.1667 7.99998 14.1667C11.4 14.1667 14.1666 11.4 14.1666 7.99999C14.1666 4.59999 11.4 1.83333 7.99998 1.83333Z" fill="currentColor"/>
<path d="M6.00013 14.5H5.33347C5.06013 14.5 4.83347 14.2733 4.83347 14C4.83347 13.7267 5.0468 13.5067 5.32013 13.5C4.27347 9.92666 4.27347 6.07333 5.32013 2.49999C5.0468 2.49333 4.83347 2.27333 4.83347 1.99999C4.83347 1.72666 5.06013 1.49999 5.33347 1.49999H6.00013C6.16013 1.49999 6.31347 1.57999 6.4068 1.70666C6.50013 1.83999 6.5268 2.00666 6.47347 2.15999C5.22013 5.92666 5.22013 10.0733 6.47347 13.8467C6.5268 14 6.50013 14.1667 6.4068 14.3C6.31347 14.42 6.16013 14.5 6.00013 14.5Z" fill="currentColor"/>
<path d="M10.0002 14.5001C9.94691 14.5001 9.89358 14.4935 9.84025 14.4735C9.58025 14.3868 9.43358 14.1001 9.52691 13.8401C10.7802 10.0735 10.7802 5.92678 9.52691 2.15345C9.44025 1.89345 9.58025 1.60678 9.84025 1.52011C10.1069 1.43345 10.3869 1.57345 10.4736 1.83345C11.8002 5.80678 11.8002 10.1801 10.4736 14.1468C10.4069 14.3668 10.2069 14.5001 10.0002 14.5001Z" fill="currentColor"/>
<path d="M7.99998 11.4665C6.13998 11.4665 4.28665 11.2065 2.49998 10.6799C2.49331 10.9465 2.27331 11.1665 1.99998 11.1665C1.72665 11.1665 1.49998 10.9399 1.49998 10.6665V9.99986C1.49998 9.83986 1.57998 9.68653 1.70665 9.59319C1.83998 9.49986 2.00665 9.47319 2.15998 9.52653C5.92665 10.7799 10.08 10.7799 13.8466 9.52653C14 9.47319 14.1666 9.49986 14.3 9.59319C14.4333 9.68653 14.5066 9.83986 14.5066 9.99986V10.6665C14.5066 10.9399 14.28 11.1665 14.0066 11.1665C13.7333 11.1665 13.5133 10.9532 13.5066 10.6799C11.7133 11.2065 9.85998 11.4665 7.99998 11.4665Z" fill="currentColor"/>
<path d="M13.9998 6.4999C13.9465 6.4999 13.8932 6.49323 13.8398 6.47323C10.0732 5.2199 5.91983 5.2199 2.15317 6.47323C1.8865 6.5599 1.6065 6.4199 1.51983 6.1599C1.43983 5.89323 1.57983 5.61323 1.83983 5.52657C5.81317 4.1999 10.1865 4.1999 14.1532 5.52657C14.4132 5.61323 14.5598 5.8999 14.4665 6.1599C14.4065 6.36657 14.2065 6.4999 13.9998 6.4999Z" fill="currentColor"/>
</g>
<defs>
<clipPath id="clip0_2_5082">
<rect width="16" height="16" fill="currentColor"/>
</clipPath>
</defs>
</svg>
