<svg width="16" height="16" viewBox="0 0 16 16" fill="none" xmlns="http://www.w3.org/2000/svg">
<g clip-path="url(#clip0_2_5407)">
<path d="M7.99998 15.1667C4.04665 15.1667 0.833313 11.9533 0.833313 7.99999C0.833313 4.04666 4.04665 0.833328 7.99998 0.833328C11.9533 0.833328 15.1666 4.04666 15.1666 7.99999C15.1666 8.27333 14.94 8.49999 14.6666 8.49999C14.3933 8.49999 14.1666 8.27333 14.1666 7.99999C14.1666 4.59999 11.4 1.83333 7.99998 1.83333C4.59998 1.83333 1.83331 4.59999 1.83331 7.99999C1.83331 11.4 4.59998 14.1667 7.99998 14.1667C8.27331 14.1667 8.49998 14.3933 8.49998 14.6667C8.49998 14.94 8.27331 15.1667 7.99998 15.1667Z" fill="currentColor"/>
<path d="M6.00013 14.5H5.33346C5.06013 14.5 4.83346 14.2733 4.83346 14C4.83346 13.7267 5.0468 13.5067 5.32013 13.5C4.27347 9.92666 4.27347 6.07333 5.32013 2.49999C5.05347 2.49333 4.83346 2.27333 4.83346 1.99999C4.83346 1.72666 5.06013 1.49999 5.33346 1.49999H6.00013C6.16013 1.49999 6.31345 1.57999 6.40679 1.70666C6.50012 1.83999 6.52679 2.00665 6.47345 2.15999C5.22012 5.92665 5.22012 10.08 6.47345 13.8467C6.52679 14 6.50012 14.1667 6.40679 14.3C6.31345 14.4333 6.16013 14.5 6.00013 14.5Z" fill="currentColor"/>
<path d="M10.9736 8.49999C10.7002 8.49999 10.4736 8.27333 10.4736 7.99999C10.4736 6.0133 10.1536 4.04663 9.52691 2.15996C9.44025 1.89996 9.58025 1.61329 9.84025 1.52662C10.1002 1.43996 10.3869 1.57997 10.4736 1.83997C11.1336 3.82664 11.4736 5.89997 11.4736 7.99999C11.4736 8.27333 11.2469 8.49999 10.9736 8.49999Z" fill="currentColor"/>
<path d="M7.99998 11.4732C6.13331 11.4732 4.28665 11.2065 2.49998 10.6799C2.49331 10.9465 2.27331 11.1665 1.99998 11.1665C1.72665 11.1665 1.49998 10.9399 1.49998 10.6665V9.99986C1.49998 9.83986 1.57998 9.68653 1.70665 9.59319C1.83331 9.49986 2.00664 9.47319 2.15997 9.52653C4.04664 10.1532 6.01331 10.4732 7.99998 10.4732C8.27331 10.4732 8.49998 10.6999 8.49998 10.9732C8.49998 11.2465 8.27331 11.4732 7.99998 11.4732Z" fill="currentColor"/>
<path d="M14.0004 6.49992C13.9471 6.49992 13.8938 6.49327 13.8404 6.47327C10.0738 5.21993 5.92043 5.21993 2.15377 6.47327C1.89377 6.55993 1.60709 6.41991 1.52043 6.15991C1.43376 5.89991 1.57376 5.61323 1.83376 5.52657C5.80709 4.1999 10.1804 4.1999 14.1471 5.52657C14.4071 5.61323 14.5471 5.89991 14.4604 6.15991C14.4071 6.36658 14.2071 6.49992 14.0004 6.49992Z" fill="currentColor"/>
<path d="M12.173 15.1665C10.5197 15.1665 9.17965 13.8199 9.17965 12.1732C9.17965 10.5265 10.5264 9.17319 12.173 9.17319C12.5064 9.17319 12.8397 9.21979 13.153 9.31979C13.4197 9.39979 13.5664 9.67979 13.4864 9.94646C13.4064 10.2131 13.1264 10.3598 12.8597 10.2798C12.6397 10.2131 12.4064 10.1799 12.173 10.1799C11.073 10.1799 10.1796 11.0732 10.1796 12.1799C10.1796 13.2865 11.073 14.1732 12.173 14.1732C13.273 14.1732 14.1663 13.2799 14.1663 12.1799C14.1663 11.7799 14.053 11.3998 13.833 11.0731C13.6796 10.8465 13.7396 10.5332 13.973 10.3799C14.1996 10.2265 14.513 10.2865 14.6663 10.5199C14.9996 11.0132 15.173 11.5932 15.173 12.1865C15.1664 13.8199 13.8197 15.1665 12.173 15.1665Z" fill="currentColor"/>
<path d="M13.3595 10.3665C13.2195 10.3665 13.0795 10.3065 12.9795 10.1932L12.1462 9.23986C11.9662 9.03319 11.9862 8.71319 12.1928 8.53319C12.3995 8.35319 12.7128 8.37319 12.8995 8.57986L13.7328 9.53319C13.9128 9.73986 13.8928 10.0599 13.6862 10.2399C13.5928 10.3265 13.4795 10.3665 13.3595 10.3665Z" fill="currentColor"/>
<path d="M12.387 11.0735C12.2336 11.0735 12.0803 11.0001 11.9803 10.8668C11.8203 10.6468 11.867 10.3335 12.087 10.1668L13.0603 9.46013C13.2803 9.29346 13.5936 9.34679 13.7603 9.56679C13.9203 9.78679 13.8736 10.1001 13.6536 10.2668L12.6803 10.9735C12.5936 11.0401 12.4936 11.0735 12.387 11.0735Z" fill="currentColor"/>
</g>
<defs>
<clipPath id="clip0_2_5407">
<rect width="16" height="16" fill="currentColor"/>
</clipPath>
</defs>
</svg>
