<svg width="16" height="16" viewBox="0 0 16 16" fill="none" xmlns="http://www.w3.org/2000/svg">
<g clip-path="url(#clip0_2_5269)">
<path d="M7.99998 13.4999C7.23331 13.4999 6.49333 13.3465 5.79999 13.0399C5.54666 12.9265 5.43333 12.6332 5.53999 12.3799C5.65333 12.1265 5.94666 12.0132 6.19999 12.1199C6.76665 12.3665 7.37331 12.4932 7.99998 12.4932C10.48 12.4932 12.5 10.4732 12.5 7.99319C12.5 7.36653 12.3733 6.75986 12.1266 6.19317C12.0133 5.93983 12.1333 5.6465 12.3866 5.53317C12.64 5.4265 12.9333 5.53983 13.0466 5.79317C13.3533 6.4865 13.5066 7.22653 13.5066 7.99319C13.5 11.0332 11.0333 13.4999 7.99998 13.4999Z" fill="currentColor"/>
<path d="M4.38665 11.96C4.25331 11.96 4.12665 11.9067 4.02665 11.8067C3.03998 10.7733 2.49998 9.42666 2.49998 7.99999C2.49998 4.96666 4.96665 2.49999 7.99998 2.49999C9.43331 2.49999 10.7866 3.04666 11.82 4.03999C12.02 4.23333 12.0266 4.54666 11.8333 4.74666C11.64 4.94666 11.3266 4.95333 11.1266 4.75999C10.28 3.94666 9.17331 3.49999 7.99998 3.49999C5.51998 3.49999 3.49998 5.51999 3.49998 7.99999C3.49998 9.16666 3.94665 10.2733 4.75331 11.1133C4.94665 11.3133 4.93998 11.6267 4.73998 11.82C4.63998 11.9133 4.51331 11.96 4.38665 11.96Z" fill="currentColor"/>
<path d="M7.99998 3.16666C7.72665 3.16666 7.49998 2.93999 7.49998 2.66666V1.33333C7.49998 1.05999 7.72665 0.833328 7.99998 0.833328C8.27331 0.833328 8.49998 1.05999 8.49998 1.33333V2.66666C8.49998 2.93999 8.27331 3.16666 7.99998 3.16666Z" fill="currentColor"/>
<path d="M2.66665 8.49999H1.33331C1.05998 8.49999 0.833313 8.27333 0.833313 7.99999C0.833313 7.72666 1.05998 7.49999 1.33331 7.49999H2.66665C2.93998 7.49999 3.16665 7.72666 3.16665 7.99999C3.16665 8.27333 2.93998 8.49999 2.66665 8.49999Z" fill="currentColor"/>
<path d="M7.99998 15.1667C7.72665 15.1667 7.49998 14.94 7.49998 14.6667V13.3333C7.49998 13.06 7.72665 12.8333 7.99998 12.8333C8.27331 12.8333 8.49998 13.06 8.49998 13.3333V14.6667C8.49998 14.94 8.27331 15.1667 7.99998 15.1667Z" fill="currentColor"/>
<path d="M14.6666 8.49999H13.3333C13.06 8.49999 12.8333 8.27333 12.8333 7.99999C12.8333 7.72666 13.06 7.49999 13.3333 7.49999H14.6666C14.94 7.49999 15.1666 7.72666 15.1666 7.99999C15.1666 8.27333 14.94 8.49999 14.6666 8.49999Z" fill="currentColor"/>
<path d="M6.58665 9.91333C6.45998 9.91333 6.33331 9.86666 6.23331 9.76666C5.75998 9.29333 5.49998 8.66666 5.49998 7.99999C5.49998 6.61999 6.61998 5.49999 7.99998 5.49999C8.66665 5.49999 9.29331 5.75999 9.76665 6.23333C9.95998 6.42666 9.95998 6.74666 9.76665 6.93999L6.93998 9.76666C6.83998 9.86666 6.71331 9.91333 6.58665 9.91333ZM7.99998 6.49999C7.17331 6.49999 6.49998 7.17333 6.49998 7.99999C6.49998 8.22666 6.55331 8.44666 6.64665 8.64666L8.64665 6.64666C8.44665 6.55333 8.22665 6.49999 7.99998 6.49999Z" fill="currentColor"/>
<path d="M1.33295 15.1666C1.20628 15.1666 1.07961 15.1199 0.979613 15.0199C0.78628 14.8266 0.78628 14.5066 0.979613 14.3133L14.313 0.979955C14.5063 0.786622 14.8263 0.786622 15.0196 0.979955C15.213 1.17329 15.213 1.49329 15.0196 1.68662L1.68628 15.0199C1.58628 15.1199 1.45961 15.1666 1.33295 15.1666Z" fill="currentColor"/>
</g>
<defs>
<clipPath id="clip0_2_5269">
<rect width="16" height="16" fill="currentColor"/>
</clipPath>
</defs>
</svg>
