<svg width="16" height="16" viewBox="0 0 16 16" fill="none" xmlns="http://www.w3.org/2000/svg">
<g clip-path="url(#clip0_2_4924)">
<path d="M7.99998 13.5C4.96665 13.5 2.49998 11.0333 2.49998 7.99999C2.49998 4.96666 4.96665 2.49999 7.99998 2.49999C11.0333 2.49999 13.5 4.96666 13.5 7.99999C13.5 11.0333 11.0333 13.5 7.99998 13.5ZM7.99998 3.49999C5.51998 3.49999 3.49998 5.51999 3.49998 7.99999C3.49998 10.48 5.51998 12.5 7.99998 12.5C10.48 12.5 12.5 10.48 12.5 7.99999C12.5 5.51999 10.48 3.49999 7.99998 3.49999Z" fill="currentColor"/>
<path d="M7.99998 10.5C6.61998 10.5 5.49998 9.37999 5.49998 7.99999C5.49998 6.61999 6.61998 5.49999 7.99998 5.49999C9.37998 5.49999 10.5 6.61999 10.5 7.99999C10.5 9.37999 9.37998 10.5 7.99998 10.5ZM7.99998 6.49999C7.17331 6.49999 6.49998 7.17333 6.49998 7.99999C6.49998 8.82666 7.17331 9.49999 7.99998 9.49999C8.82665 9.49999 9.49998 8.82666 9.49998 7.99999C9.49998 7.17333 8.82665 6.49999 7.99998 6.49999Z" fill="currentColor"/>
<path d="M7.99998 3.16666C7.72665 3.16666 7.49998 2.93999 7.49998 2.66666V1.33333C7.49998 1.05999 7.72665 0.833328 7.99998 0.833328C8.27331 0.833328 8.49998 1.05999 8.49998 1.33333V2.66666C8.49998 2.93999 8.27331 3.16666 7.99998 3.16666Z" fill="currentColor"/>
<path d="M2.66665 8.49999H1.33331C1.05998 8.49999 0.833313 8.27333 0.833313 7.99999C0.833313 7.72666 1.05998 7.49999 1.33331 7.49999H2.66665C2.93998 7.49999 3.16665 7.72666 3.16665 7.99999C3.16665 8.27333 2.93998 8.49999 2.66665 8.49999Z" fill="currentColor"/>
<path d="M7.99998 15.1667C7.72665 15.1667 7.49998 14.94 7.49998 14.6667V13.3333C7.49998 13.06 7.72665 12.8333 7.99998 12.8333C8.27331 12.8333 8.49998 13.06 8.49998 13.3333V14.6667C8.49998 14.94 8.27331 15.1667 7.99998 15.1667Z" fill="currentColor"/>
<path d="M14.6666 8.49999H13.3333C13.06 8.49999 12.8333 8.27333 12.8333 7.99999C12.8333 7.72666 13.06 7.49999 13.3333 7.49999H14.6666C14.94 7.49999 15.1666 7.72666 15.1666 7.99999C15.1666 8.27333 14.94 8.49999 14.6666 8.49999Z" fill="currentColor"/>
</g>
<defs>
<clipPath id="clip0_2_4924">
<rect width="16" height="16" fill="currentColor"/>
</clipPath>
</defs>
</svg>
