<svg width="16" height="16" viewBox="0 0 16 16" fill="none" xmlns="http://www.w3.org/2000/svg">
<g clip-path="url(#clip0_2_4702)">
<path d="M8.00064 15.1465C6.22067 15.1465 4.434 14.5066 3.08066 13.2199C1.66066 11.8733 0.86067 10.0599 0.834003 8.1132C0.807337 6.15989 1.554 4.32656 2.934 2.94656C5.72733 0.15323 10.274 0.15323 13.0673 2.94656C14.4473 4.32656 15.194 6.15989 15.1673 8.1132C15.1406 10.0665 14.3406 11.8799 12.9206 13.2199C11.5673 14.5066 9.78064 15.1465 8.00064 15.1465ZM8.00064 1.85326C6.42067 1.85326 4.84066 2.45323 3.64066 3.65323C2.454 4.83989 1.814 6.41992 1.834 8.09993C1.854 9.77993 2.54066 11.3399 3.76733 12.4933C6.10066 14.7066 9.90064 14.6999 12.234 12.4933C13.454 11.3399 14.1406 9.77327 14.1673 8.09993C14.194 6.42659 13.5473 4.83989 12.3606 3.65323C11.1606 2.45323 9.58064 1.85326 8.00064 1.85326Z" fill="currentColor"/>
<path d="M8.00044 12.2133C6.94711 12.2133 5.90046 11.8333 5.10046 11.0799C4.90046 10.8866 4.8938 10.5733 5.08046 10.3733C5.2738 10.1733 5.58713 10.1666 5.78713 10.3533C7.00711 11.5066 8.99378 11.5066 10.2138 10.3533C10.4138 10.1666 10.7338 10.1733 10.9204 10.3733C11.1071 10.5733 11.1004 10.8933 10.9004 11.0799C10.1004 11.8333 9.05378 12.2133 8.00044 12.2133Z" fill="currentColor"/>
</g>
<defs>
<clipPath id="clip0_2_4702">
<rect width="16" height="16" fill="currentColor"/>
</clipPath>
</defs>
</svg>
