<svg width="16" height="16" viewBox="0 0 16 16" fill="none" xmlns="http://www.w3.org/2000/svg">
<path d="M12.2133 8.50001H9.99998C8.33998 8.50001 7.49998 7.56001 7.49998 5.69998V3.78665C7.49998 3.10665 7.57998 2.13331 8.28665 1.59998C8.87998 1.15998 9.73331 1.12665 10.9933 1.49331C12.6466 1.97331 14.0266 3.35331 14.5066 5.00665C14.8733 6.25998 14.84 7.12001 14.4 7.70667C13.8666 8.42001 12.8933 8.50001 12.2133 8.50001ZM9.51998 2.23998C9.24665 2.23998 9.03331 2.29331 8.89331 2.39998C8.63331 2.59331 8.50665 3.04665 8.50665 3.78665V5.70665C8.50665 7.20001 9.07998 7.50667 10.0066 7.50667H12.22C12.9533 7.50667 13.4066 7.38001 13.6066 7.12001C13.84 6.81334 13.82 6.19998 13.56 5.29998C13.1733 3.98665 12.04 2.84665 10.7266 2.46665C10.2333 2.31331 9.83331 2.23998 9.51998 2.23998Z" fill="currentColor"/>
<path d="M7.38025 15.1665C7.02691 15.1665 6.66691 15.1399 6.30689 15.0799C3.58023 14.6399 1.36023 12.4265 0.920227 9.69987C0.353561 6.19323 2.61356 2.88656 6.07356 2.17989C6.34689 2.12656 6.60689 2.29989 6.66691 2.56656C6.72025 2.83989 6.54689 3.09989 6.28023 3.15989C3.35356 3.75989 1.43356 6.55989 1.92023 9.53987C2.29356 11.8465 4.16689 13.7199 6.47356 14.0932C9.46691 14.5732 12.2602 12.6465 12.8536 9.70654C12.9069 9.43321 13.1736 9.25987 13.4402 9.31321C13.7136 9.36654 13.8869 9.63321 13.8336 9.89987C13.2002 13.0132 10.4802 15.1665 7.38025 15.1665Z" fill="currentColor"/>
</svg>
