<svg width="16" height="16" viewBox="0 0 16 16" fill="none" xmlns="http://www.w3.org/2000/svg">
<g clip-path="url(#clip0_2_4905)">
<path d="M6.66666 15.1667H5.99999C2.37999 15.1667 0.833328 13.62 0.833328 9.99999V5.99999C0.833328 2.37999 2.37999 0.833328 5.99999 0.833328H9.99999C13.62 0.833328 15.1667 2.37999 15.1667 5.99999V7.33333C15.1667 7.60666 14.94 7.83333 14.6667 7.83333C14.3933 7.83333 14.1667 7.60666 14.1667 7.33333V5.99999C14.1667 2.92666 13.0733 1.83333 9.99999 1.83333H5.99999C2.92666 1.83333 1.83333 2.92666 1.83333 5.99999V9.99999C1.83333 13.0733 2.92666 14.1667 5.99999 14.1667H6.66666C6.93999 14.1667 7.16666 14.3933 7.16666 14.6667C7.16666 14.94 6.93999 15.1667 6.66666 15.1667Z" fill="currentColor"/>
<path d="M14.6675 6.16666H1.35416C1.08083 6.16666 0.854162 5.93999 0.854162 5.66666C0.854162 5.39333 1.08083 5.16666 1.35416 5.16666H14.6675C14.9408 5.16666 15.1675 5.39333 15.1675 5.66666C15.1675 5.93999 14.9408 6.16666 14.6675 6.16666Z" fill="currentColor"/>
<path d="M8.00079 10.8333H1.35416C1.08083 10.8333 0.854162 10.6067 0.854162 10.3333C0.854162 10.06 1.08083 9.83333 1.35416 9.83333H8.00079C8.27413 9.83333 8.50079 10.06 8.50079 10.3333C8.50079 10.6067 8.27413 10.8333 8.00079 10.8333Z" fill="currentColor"/>
<path d="M5.67317 15.16C5.39984 15.16 5.17317 14.9333 5.17317 14.66V1.34667C5.17317 1.07334 5.39984 0.846675 5.67317 0.846675C5.94651 0.846675 6.17317 1.07334 6.17317 1.34667V14.66C6.17317 14.9333 5.95318 15.16 5.67317 15.16Z" fill="currentColor"/>
<path d="M10.3399 8.49333C10.0665 8.49333 9.83986 8.26666 9.83986 7.99333V1.34667C9.83986 1.07334 10.0665 0.846675 10.3399 0.846675C10.6132 0.846675 10.8399 1.07334 10.8399 1.34667V7.99333C10.8399 8.26666 10.6199 8.49333 10.3399 8.49333Z" fill="currentColor"/>
<path d="M9.84073 15.1668C9.56073 15.1668 9.30739 15.0667 9.12073 14.8801C8.89406 14.6601 8.79406 14.3335 8.84739 13.9935L9.00073 12.9335C9.03406 12.6801 9.18739 12.3735 9.37406 12.1868L12.1407 9.42013C12.5007 9.06013 12.8541 8.87346 13.2274 8.83346C13.6874 8.78679 14.1474 8.98679 14.5807 9.42013C15.0141 9.85346 15.2141 10.3068 15.1674 10.7735C15.1341 11.1468 14.9407 11.5001 14.5807 11.8601L11.814 14.6267C11.634 14.8067 11.3273 14.9601 11.0673 15.0001L10.0141 15.1535C9.95406 15.1601 9.89406 15.1668 9.84073 15.1668ZM13.3474 9.83346C13.3407 9.83346 13.3273 9.83346 13.3207 9.83346C13.1873 9.84679 13.0274 9.94673 12.8407 10.1334L10.0741 12.9001C10.0407 12.9335 9.99399 13.0335 9.98733 13.0801L9.83406 14.1401L10.9207 14.0201C10.9674 14.0135 11.0674 13.9601 11.1007 13.9335L13.8674 11.1668C14.0541 10.9801 14.1541 10.8201 14.1674 10.6868C14.1807 10.5335 14.0807 10.3534 13.8674 10.1401C13.6674 9.93339 13.4941 9.83346 13.3474 9.83346Z" fill="currentColor"/>
<path d="M13.8267 12.4067C13.78 12.4067 13.74 12.4001 13.6933 12.3867C12.6933 12.1067 11.8933 11.3067 11.6133 10.3067C11.54 10.0401 11.6934 9.76679 11.9601 9.69346C12.2334 9.62013 12.5 9.77346 12.5733 10.0401C12.76 10.7068 13.2934 11.2401 13.9601 11.4267C14.2267 11.5001 14.3801 11.7801 14.3067 12.0401C14.2467 12.2668 14.04 12.4067 13.8267 12.4067Z" fill="currentColor"/>
</g>
<defs>
<clipPath id="clip0_2_4905">
<rect width="16" height="16" fill="currentColor"/>
</clipPath>
</defs>
</svg>
