<svg width="16" height="16" viewBox="0 0 16 16" fill="none" xmlns="http://www.w3.org/2000/svg">
<g clip-path="url(#clip0_2_4904)">
<path d="M6.66667 15.1667H6C2.38 15.1667 0.833336 13.62 0.833336 9.99999V5.99999C0.833336 2.37999 2.38 0.833328 6 0.833328H10C13.62 0.833328 15.1667 2.37999 15.1667 5.99999V7.33333C15.1667 7.60666 14.94 7.83333 14.6667 7.83333C14.3933 7.83333 14.1667 7.60666 14.1667 7.33333V5.99999C14.1667 2.92666 13.0733 1.83333 10 1.83333H6C2.92667 1.83333 1.83334 2.92666 1.83334 5.99999V9.99999C1.83334 13.0733 2.92667 14.1667 6 14.1667H6.66667C6.94 14.1667 7.16667 14.3933 7.16667 14.6667C7.16667 14.94 6.94 15.1667 6.66667 15.1667Z" fill="currentColor"/>
<path d="M14.6675 6.16666H1.35417C1.08084 6.16666 0.854169 5.93999 0.854169 5.66666C0.854169 5.39333 1.08084 5.16666 1.35417 5.16666H14.6675C14.9409 5.16666 15.1675 5.39333 15.1675 5.66666C15.1675 5.93999 14.9409 6.16666 14.6675 6.16666Z" fill="currentColor"/>
<path d="M8.00087 10.8333H1.35417C1.08084 10.8333 0.854169 10.6067 0.854169 10.3333C0.854169 10.06 1.08084 9.83333 1.35417 9.83333H8.00087C8.2742 9.83333 8.50087 10.06 8.50087 10.3333C8.50087 10.6067 8.2742 10.8333 8.00087 10.8333Z" fill="currentColor"/>
<path d="M5.67318 15.16C5.39985 15.16 5.17318 14.9333 5.17318 14.66V1.34667C5.17318 1.07334 5.39985 0.846675 5.67318 0.846675C5.94652 0.846675 6.17318 1.07334 6.17318 1.34667V14.66C6.17318 14.9333 5.95318 15.16 5.67318 15.16Z" fill="currentColor"/>
<path d="M10.3399 8.49333C10.0665 8.49333 9.83987 8.26666 9.83987 7.99333V1.34667C9.83987 1.07334 10.0665 0.846675 10.3399 0.846675C10.6132 0.846675 10.8399 1.07334 10.8399 1.34667V7.99333C10.8399 8.26666 10.6199 8.49333 10.3399 8.49333Z" fill="currentColor"/>
<path d="M13.5997 11.9667C13.3264 11.9667 13.0997 11.74 13.0997 11.4667V10.9333C13.0997 10.1867 12.9331 9.83333 11.9997 9.83333C11.0664 9.83333 10.8997 10.1867 10.8997 10.9333V11.4667C10.8997 11.74 10.6731 11.9667 10.3997 11.9667C10.1264 11.9667 9.89974 11.74 9.89974 11.4667V10.9333C9.89974 9.53999 10.6064 8.83333 11.9997 8.83333C13.3931 8.83333 14.0997 9.53999 14.0997 10.9333V11.4667C14.0997 11.74 13.8731 11.9667 13.5997 11.9667Z" fill="currentColor"/>
<path d="M13.3333 15.1668H10.6667C9.33334 15.1668 8.83334 14.6668 8.83334 13.3335V12.8001C8.83334 11.4668 9.33334 10.9668 10.6667 10.9668H13.3333C14.6667 10.9668 15.1667 11.4668 15.1667 12.8001V13.3335C15.1667 14.6668 14.6667 15.1668 13.3333 15.1668ZM10.6667 11.9668C9.87334 11.9668 9.83334 12.0068 9.83334 12.8001V13.3335C9.83334 14.1201 9.88 14.1668 10.6667 14.1668H13.3333C14.12 14.1668 14.1667 14.1201 14.1667 13.3335V12.8001C14.1667 12.0068 14.1267 11.9668 13.3333 11.9668H10.6667Z" fill="currentColor"/>
</g>
<defs>
<clipPath id="clip0_2_4904">
<rect width="16" height="16" fill="currentColor"/>
</clipPath>
</defs>
</svg>
