<svg width="16" height="16" viewBox="0 0 16 16" fill="none" xmlns="http://www.w3.org/2000/svg">
<g clip-path="url(#clip0_2_4914)">
<path d="M10 15.1667H6.00001C2.38001 15.1667 0.833344 13.62 0.833344 9.99999V5.99999C0.833344 2.37999 2.38001 0.833328 6.00001 0.833328H10C13.62 0.833328 15.1667 2.37999 15.1667 5.99999V9.99999C15.1667 13.62 13.62 15.1667 10 15.1667ZM6.00001 1.83333C2.92668 1.83333 1.83334 2.92666 1.83334 5.99999V9.99999C1.83334 13.0733 2.92668 14.1667 6.00001 14.1667H10C13.0733 14.1667 14.1667 13.0733 14.1667 9.99999V5.99999C14.1667 2.92666 13.0733 1.83333 10 1.83333H6.00001Z" fill="currentColor"/>
<path d="M8.00001 15.1667C7.72668 15.1667 7.50001 14.94 7.50001 14.6667V1.33333C7.50001 1.05999 7.72668 0.833328 8.00001 0.833328C8.27334 0.833328 8.50001 1.05999 8.50001 1.33333V14.6667C8.50001 14.94 8.27334 15.1667 8.00001 15.1667Z" fill="currentColor"/>
<path d="M8.00001 6.83333H1.33334C1.06001 6.83333 0.833344 6.60666 0.833344 6.33333C0.833344 6.05999 1.06001 5.83333 1.33334 5.83333H8.00001C8.27334 5.83333 8.50001 6.05999 8.50001 6.33333C8.50001 6.60666 8.27334 6.83333 8.00001 6.83333Z" fill="currentColor"/>
<path d="M14.6667 10.1667H8.00001C7.72668 10.1667 7.50001 9.93999 7.50001 9.66666C7.50001 9.39333 7.72668 9.16666 8.00001 9.16666H14.6667C14.94 9.16666 15.1667 9.39333 15.1667 9.66666C15.1667 9.93999 14.94 10.1667 14.6667 10.1667Z" fill="currentColor"/>
</g>
<defs>
<clipPath id="clip0_2_4914">
<rect width="16" height="16" fill="currentColor"/>
</clipPath>
</defs>
</svg>
