<svg width="16" height="16" viewBox="0 0 16 16" fill="none" xmlns="http://www.w3.org/2000/svg">
<g clip-path="url(#clip0_2_5403)">
<path d="M9.99999 15.1667H5.99999C2.37999 15.1667 0.833328 13.62 0.833328 9.99999V5.99999C0.833328 2.37999 2.37999 0.833328 5.99999 0.833328H9.99999C13.62 0.833328 15.1667 2.37999 15.1667 5.99999V9.99999C15.1667 13.62 13.62 15.1667 9.99999 15.1667ZM5.99999 1.83333C2.92666 1.83333 1.83333 2.92666 1.83333 5.99999V9.99999C1.83333 13.0733 2.92666 14.1667 5.99999 14.1667H9.99999C13.0733 14.1667 14.1667 13.0733 14.1667 9.99999V5.99999C14.1667 2.92666 13.0733 1.83333 9.99999 1.83333H5.99999Z" fill="currentColor"/>
<path d="M7.99999 15.1667C7.72666 15.1667 7.49999 14.94 7.49999 14.6667V1.33333C7.49999 1.05999 7.72666 0.833328 7.99999 0.833328C8.27333 0.833328 8.49999 1.05999 8.49999 1.33333V14.6667C8.49999 14.94 8.27333 15.1667 7.99999 15.1667Z" fill="currentColor"/>
</g>
<defs>
<clipPath id="clip0_2_5403">
<rect width="16" height="16" fill="currentColor"/>
</clipPath>
</defs>
</svg>
