<svg width="16" height="16" viewBox="0 0 16 16" fill="none" xmlns="http://www.w3.org/2000/svg">
<g clip-path="url(#clip0_2_5191)">
<path d="M6.66666 15.1667H6C2.38 15.1667 0.833328 13.62 0.833328 10V6C0.833328 2.38 2.38 0.833328 6 0.833328H10C13.62 0.833328 15.1667 2.38 15.1667 6V7.33333C15.1667 7.60666 14.94 7.83333 14.6667 7.83333C14.3933 7.83333 14.1667 7.60666 14.1667 7.33333V6C14.1667 2.92666 13.0733 1.83333 10 1.83333H6C2.92666 1.83333 1.83333 2.92666 1.83333 6V10C1.83333 13.0733 2.92666 14.1667 6 14.1667H6.66666C6.93999 14.1667 7.16666 14.3933 7.16666 14.6667C7.16666 14.94 6.93999 15.1667 6.66666 15.1667Z" fill="currentColor"/>
<path d="M14.6675 6.16666H1.35416C1.08083 6.16666 0.854162 5.93999 0.854162 5.66666C0.854162 5.39333 1.08083 5.16666 1.35416 5.16666H14.6675C14.9409 5.16666 15.1675 5.39333 15.1675 5.66666C15.1675 5.93999 14.9409 6.16666 14.6675 6.16666Z" fill="currentColor"/>
<path d="M8.00086 10.8333H1.35416C1.08083 10.8333 0.854162 10.6067 0.854162 10.3333C0.854162 10.06 1.08083 9.83333 1.35416 9.83333H8.00086C8.27419 9.83333 8.50086 10.06 8.50086 10.3333C8.50086 10.6067 8.27419 10.8333 8.00086 10.8333Z" fill="currentColor"/>
<path d="M5.67318 15.16C5.39984 15.16 5.17317 14.9333 5.17317 14.66V1.34667C5.17317 1.07334 5.39984 0.846675 5.67318 0.846675C5.94651 0.846675 6.17318 1.07334 6.17318 1.34667V14.66C6.17318 14.9333 5.95318 15.16 5.67318 15.16Z" fill="currentColor"/>
<path d="M10.3399 8.49333C10.0665 8.49333 9.83986 8.26666 9.83986 7.99333V1.34667C9.83986 1.07334 10.0665 0.846675 10.3399 0.846675C10.6132 0.846675 10.8399 1.07334 10.8399 1.34667V7.99333C10.8399 8.26666 10.6199 8.49333 10.3399 8.49333Z" fill="currentColor"/>
<path d="M10.6328 15.1667C10.2728 15.1667 9.91946 15.0334 9.63946 14.7601L8.57946 13.6934C8.03946 13.1534 8.03946 12.2667 8.57946 11.7133L9.85279 10.4467C10.0461 10.2534 10.3661 10.2534 10.5595 10.4467L12.8928 12.7801C12.9861 12.8734 13.0395 13 13.0395 13.1333C13.0395 13.2667 12.9861 13.3934 12.8928 13.4867L11.6261 14.7534C11.3461 15.0267 10.9928 15.1667 10.6328 15.1667ZM10.1995 11.5134L9.28613 12.4267C9.1328 12.5801 9.1328 12.8401 9.28613 12.9934L10.3395 14.0533C10.4928 14.2067 10.7528 14.2067 10.9061 14.0533L11.8261 13.1401L10.1995 11.5134Z" fill="currentColor"/>
<path d="M12.5335 13.6332C12.4001 13.6332 12.2735 13.5799 12.1801 13.4866L9.8468 11.1533C9.65346 10.9599 9.65346 10.6399 9.8468 10.4466L11.7201 8.5666C12.2668 8.01993 13.1601 8.01993 13.7068 8.5666L14.7602 9.62653C15.0202 9.88653 15.1668 10.2399 15.1668 10.6199C15.1668 10.9999 15.0202 11.3466 14.7602 11.6133L12.8928 13.4867C12.7928 13.5867 12.6668 13.6332 12.5335 13.6332ZM10.9135 10.8065L12.5401 12.4333L14.0535 10.9133C14.1268 10.8399 14.1668 10.7399 14.1668 10.6265C14.1668 10.5199 14.1268 10.4133 14.0535 10.3399L13.0001 9.27993C12.8468 9.1266 12.5868 9.1266 12.4335 9.27993L10.9135 10.8065Z" fill="currentColor"/>
</g>
<defs>
<clipPath id="clip0_2_5191">
<rect width="16" height="16" fill="currentColor"/>
</clipPath>
</defs>
</svg>
