<svg width="16" height="16" viewBox="0 0 16 16" fill="none" xmlns="http://www.w3.org/2000/svg">
<g clip-path="url(#clip0_2_4919)">
<path d="M10 15.1667H6.00001C2.38001 15.1667 0.833344 13.62 0.833344 9.99999V5.99999C0.833344 2.37999 2.38001 0.833328 6.00001 0.833328H10C13.62 0.833328 15.1667 2.37999 15.1667 5.99999V9.99999C15.1667 13.62 13.62 15.1667 10 15.1667ZM6.00001 1.83333C2.92668 1.83333 1.83334 2.92666 1.83334 5.99999V9.99999C1.83334 13.0733 2.92668 14.1667 6.00001 14.1667H10C13.0733 14.1667 14.1667 13.0733 14.1667 9.99999V5.99999C14.1667 2.92666 13.0733 1.83333 10 1.83333H6.00001Z" fill="currentColor"/>
<path d="M14.6662 6.16666H1.35288C1.07954 6.16666 0.852877 5.93999 0.852877 5.66666C0.852877 5.39333 1.07954 5.16666 1.35288 5.16666H14.6662C14.9395 5.16666 15.1662 5.39333 15.1662 5.66666C15.1662 5.93999 14.9395 6.16666 14.6662 6.16666Z" fill="currentColor"/>
<path d="M14.6662 10.8333H1.35288C1.07954 10.8333 0.852877 10.6067 0.852877 10.3333C0.852877 10.06 1.07954 9.83333 1.35288 9.83333H14.6662C14.9395 9.83333 15.1662 10.06 15.1662 10.3333C15.1662 10.6067 14.9395 10.8333 14.6662 10.8333Z" fill="currentColor"/>
<path d="M5.67319 15.1599C5.39986 15.1599 5.17319 14.9332 5.17319 14.6599V1.33984C5.17319 1.06651 5.39986 0.839842 5.67319 0.839842C5.94652 0.839842 6.17319 1.06651 6.17319 1.33984V14.6532C6.17319 14.9332 5.95319 15.1599 5.67319 15.1599Z" fill="currentColor"/>
<path d="M10.3399 15.1599C10.0665 15.1599 9.83988 14.9332 9.83988 14.6599V1.33984C9.83988 1.06651 10.0665 0.839842 10.3399 0.839842C10.6132 0.839842 10.8399 1.06651 10.8399 1.33984V14.6532C10.8399 14.9332 10.6199 15.1599 10.3399 15.1599Z" fill="currentColor"/>
</g>
<defs>
<clipPath id="clip0_2_4919">
<rect width="16" height="16" fill="currentColor"/>
</clipPath>
</defs>
</svg>
