<svg width="16" height="16" viewBox="0 0 16 16" fill="none" xmlns="http://www.w3.org/2000/svg">
<g clip-path="url(#clip0_2_4906)">
<path d="M10 15.1667H6.00001C2.38001 15.1667 0.833344 13.62 0.833344 9.99999V5.99999C0.833344 2.37999 2.38001 0.833328 6.00001 0.833328H10C13.62 0.833328 15.1667 2.37999 15.1667 5.99999V9.99999C15.1667 13.62 13.62 15.1667 10 15.1667ZM6.00001 1.83333C2.92668 1.83333 1.83334 2.92666 1.83334 5.99999V9.99999C1.83334 13.0733 2.92668 14.1667 6.00001 14.1667H10C13.0733 14.1667 14.1667 13.0733 14.1667 9.99999V5.99999C14.1667 2.92666 13.0733 1.83333 10 1.83333H6.00001Z" fill="currentColor"/>
<path d="M14.6667 8.49999H1.33334C1.06001 8.49999 0.833344 8.27333 0.833344 7.99999C0.833344 7.72666 1.06001 7.49999 1.33334 7.49999H14.6667C14.94 7.49999 15.1667 7.72666 15.1667 7.99999C15.1667 8.27333 14.94 8.49999 14.6667 8.49999Z" fill="currentColor"/>
<path d="M5.50001 14.8333C5.22668 14.8333 5.00001 14.6067 5.00001 14.3333V7.99999C5.00001 7.72666 5.22668 7.49999 5.50001 7.49999C5.77334 7.49999 6.00001 7.72666 6.00001 7.99999V14.3333C6.00001 14.6067 5.77334 14.8333 5.50001 14.8333Z" fill="currentColor"/>
<path d="M10.5 15.1667C10.2267 15.1667 10 14.94 10 14.6667V7.99999C10 7.72666 10.2267 7.49999 10.5 7.49999C10.7733 7.49999 11 7.72666 11 7.99999V14.6667C11 14.94 10.7733 15.1667 10.5 15.1667Z" fill="currentColor"/>
<path d="M5.50001 8.49999C5.22668 8.49999 5.00001 8.27333 5.00001 7.99999V1.33333C5.00001 1.05999 5.22668 0.833328 5.50001 0.833328C5.77334 0.833328 6.00001 1.05999 6.00001 1.33333V7.99999C6.00001 8.27333 5.77334 8.49999 5.50001 8.49999Z" fill="currentColor"/>
<path d="M10.5 8.49999C10.2267 8.49999 10 8.27333 10 7.99999V1.69335C10 1.42002 10.2267 1.19335 10.5 1.19335C10.7733 1.19335 11 1.42002 11 1.69335V7.99999C11 8.27333 10.7733 8.49999 10.5 8.49999Z" fill="currentColor"/>
</g>
<defs>
<clipPath id="clip0_2_4906">
<rect width="16" height="16" fill="currentColor"/>
</clipPath>
</defs>
</svg>
