<svg width="16" height="16" viewBox="0 0 16 16" fill="none" xmlns="http://www.w3.org/2000/svg">
<g clip-path="url(#clip0_2_4909)">
<path d="M10 15.1667H6.00001C2.38001 15.1667 0.833344 13.62 0.833344 9.99999V5.99999C0.833344 2.37999 2.38001 0.833328 6.00001 0.833328H10C13.62 0.833328 15.1667 2.37999 15.1667 5.99999V9.99999C15.1667 13.62 13.62 15.1667 10 15.1667ZM6.00001 1.83333C2.92668 1.83333 1.83334 2.92666 1.83334 5.99999V9.99999C1.83334 13.0733 2.92668 14.1667 6.00001 14.1667H10C13.0733 14.1667 14.1667 13.0733 14.1667 9.99999V5.99999C14.1667 2.92666 13.0733 1.83333 10 1.83333H6.00001Z" fill="currentColor"/>
<path d="M6.66668 15.1667C6.39334 15.1667 6.16668 14.94 6.16668 14.6667V1.33333C6.16668 1.05999 6.39334 0.833328 6.66668 0.833328C6.94001 0.833328 7.16668 1.05999 7.16668 1.33333V14.6667C7.16668 14.94 6.94001 15.1667 6.66668 15.1667Z" fill="currentColor"/>
<path d="M14.6667 8.49999H6.66668C6.39334 8.49999 6.16668 8.27333 6.16668 7.99999C6.16668 7.72666 6.39334 7.49999 6.66668 7.49999H14.6667C14.94 7.49999 15.1667 7.72666 15.1667 7.99999C15.1667 8.27333 14.94 8.49999 14.6667 8.49999Z" fill="currentColor"/>
</g>
<defs>
<clipPath id="clip0_2_4909">
<rect width="16" height="16" fill="currentColor"/>
</clipPath>
</defs>
</svg>
