<svg width="16" height="16" viewBox="0 0 16 16" fill="none" xmlns="http://www.w3.org/2000/svg">
<g clip-path="url(#clip0_2_5184)">
<path d="M7.98046 15.1667C4.0338 15.1667 0.813797 11.9533 0.813797 7.99999C0.813797 4.04666 4.0338 0.833328 7.98046 0.833328C11.9271 0.833328 15.1471 4.04666 15.1471 7.99999C15.1471 11.9533 11.9338 15.1667 7.98046 15.1667ZM7.98046 1.83333C4.58046 1.83333 1.8138 4.59999 1.8138 7.99999C1.8138 11.4 4.58046 14.1667 7.98046 14.1667C11.3805 14.1667 14.1471 11.4 14.1471 7.99999C14.1471 4.59999 11.3805 1.83333 7.98046 1.83333Z" fill="currentColor"/>
<path d="M7.99993 12.8333C6.56658 12.8333 5.21992 12.1333 4.39992 10.9533C4.23992 10.7266 4.29992 10.4133 4.52658 10.2599C4.75325 10.0999 5.06658 10.1599 5.21992 10.3866C5.85325 11.2933 6.89326 11.8399 7.99993 11.8399C9.1066 11.8399 10.1466 11.2999 10.7799 10.3866C10.9399 10.1599 11.2466 10.1066 11.4733 10.2599C11.6999 10.4199 11.7533 10.7266 11.5999 10.9533C10.7799 12.1333 9.43326 12.8333 7.99993 12.8333Z" fill="currentColor"/>
</g>
<defs>
<clipPath id="clip0_2_5184">
<rect width="16" height="16" fill="currentColor"/>
</clipPath>
</defs>
</svg>
