<svg width="16" height="16" viewBox="0 0 16 16" fill="none" xmlns="http://www.w3.org/2000/svg">
<g clip-path="url(#clip0_2_4899)">
<path d="M10 15.1667H6C2.38 15.1667 0.833336 13.62 0.833336 9.99999V5.99999C0.833336 2.37999 2.38 0.833328 6 0.833328H10C13.62 0.833328 15.1667 2.37999 15.1667 5.99999V8.66666C15.1667 8.93999 14.94 9.16666 14.6667 9.16666C14.3933 9.16666 14.1667 8.93999 14.1667 8.66666V5.99999C14.1667 2.92666 13.0733 1.83333 10 1.83333H6C2.92667 1.83333 1.83334 2.92666 1.83334 5.99999V9.99999C1.83334 13.0733 2.92667 14.1667 6 14.1667H10C10.2733 14.1667 10.5 14.3933 10.5 14.6667C10.5 14.94 10.2733 15.1667 10 15.1667Z" fill="currentColor"/>
<path d="M12.6663 15.1667C12.393 15.1667 12.1663 14.94 12.1663 14.6667V11.8733L11.6863 12.3533C11.493 12.5467 11.173 12.5467 10.9797 12.3533C10.7863 12.16 10.7863 11.84 10.9797 11.6467L12.313 10.3133C12.453 10.1733 12.673 10.1267 12.8597 10.2067C13.0463 10.2867 13.1663 10.4667 13.1663 10.6667V14.6667C13.1663 14.94 12.9397 15.1667 12.6663 15.1667Z" fill="currentColor"/>
<path d="M13.9997 12.4999C13.873 12.4999 13.7463 12.4533 13.6463 12.3533L12.313 11.0199C12.1197 10.8266 12.1197 10.5067 12.313 10.3133C12.5063 10.12 12.8263 10.1199 13.0197 10.3133L14.353 11.6466C14.5463 11.8399 14.5463 12.1599 14.353 12.3533C14.253 12.4533 14.1263 12.4999 13.9997 12.4999Z" fill="currentColor"/>
<path d="M5.93316 10.9934C5.91316 10.9934 5.89316 10.9934 5.87983 10.9934C5.6065 10.9601 5.4065 10.7134 5.43983 10.4401L6.13316 4.12006C6.1665 3.84673 6.41316 3.64673 6.68647 3.68006C6.9598 3.71339 7.1598 3.96006 7.12647 4.23339L6.4265 10.5467C6.39984 10.8001 6.17983 10.9934 5.93316 10.9934Z" fill="currentColor"/>
<path d="M8.0334 10.9933C8.0134 10.9933 7.9934 10.9933 7.98007 10.9933C7.70674 10.9599 7.50674 10.7133 7.54007 10.4399L8.24007 4.12657C8.2734 3.85323 8.52007 3.65323 8.7934 3.68657C9.06674 3.7199 9.26674 3.96657 9.2334 4.2399L8.5334 10.5533C8.50674 10.7999 8.28674 10.9933 8.0334 10.9933Z" fill="currentColor"/>
<path d="M10.6662 6.77993H4.35287C4.07954 6.77993 3.85287 6.55327 3.85287 6.27994C3.85287 6.00661 4.07954 5.77994 4.35287 5.77994H10.6662C10.9395 5.77994 11.1662 6.00661 11.1662 6.27994C11.1662 6.55327 10.9395 6.77993 10.6662 6.77993Z" fill="currentColor"/>
<path d="M10.3133 8.88673H4C3.72667 8.88673 3.5 8.66006 3.5 8.38673C3.5 8.11339 3.72667 7.88673 4 7.88673H10.3133C10.5867 7.88673 10.8133 8.11339 10.8133 8.38673C10.8133 8.66006 10.5933 8.88673 10.3133 8.88673Z" fill="currentColor"/>
</g>
<defs>
<clipPath id="clip0_2_4899">
<rect width="16" height="16" fill="currentColor"/>
</clipPath>
</defs>
</svg>
