<svg width="16" height="16" viewBox="0 0 16 16" fill="none" xmlns="http://www.w3.org/2000/svg">
<g clip-path="url(#clip0_2_4900)">
<path d="M9.33333 15.1667H6C2.38 15.1667 0.833334 13.62 0.833334 9.99999V5.99999C0.833334 2.37999 2.38 0.833328 6 0.833328H10C13.62 0.833328 15.1667 2.37999 15.1667 5.99999V8.66666C15.1667 8.93999 14.94 9.16666 14.6667 9.16666C14.3933 9.16666 14.1667 8.93999 14.1667 8.66666V5.99999C14.1667 2.92666 13.0733 1.83333 10 1.83333H6C2.92667 1.83333 1.83333 2.92666 1.83333 5.99999V9.99999C1.83333 13.0733 2.92667 14.1667 6 14.1667H9.33333C9.60667 14.1667 9.83333 14.3933 9.83333 14.6667C9.83333 14.94 9.60667 15.1667 9.33333 15.1667Z" fill="currentColor"/>
<path d="M12.6667 15.1667C12.6 15.1667 12.54 15.1533 12.4733 15.1267C12.2867 15.0467 12.1667 14.8667 12.1667 14.6667V10.6667C12.1667 10.3933 12.3933 10.1667 12.6667 10.1667C12.94 10.1667 13.1667 10.3933 13.1667 10.6667V13.46L13.6467 12.98C13.84 12.7867 14.16 12.7867 14.3533 12.98C14.5467 13.1733 14.5467 13.4933 14.3533 13.6867L13.02 15.02C12.9267 15.1133 12.7933 15.1667 12.6667 15.1667Z" fill="currentColor"/>
<path d="M12.6667 15.1667C12.54 15.1667 12.413 15.1199 12.313 15.0199L10.9797 13.6866C10.7863 13.4933 10.7863 13.1733 10.9797 12.9799C11.173 12.7866 11.493 12.7866 11.6863 12.9799L13.0197 14.3133C13.213 14.5066 13.2133 14.8267 13.02 15.02C12.92 15.12 12.7933 15.1667 12.6667 15.1667Z" fill="currentColor"/>
<path d="M5.93316 10.9934C5.91316 10.9934 5.89316 10.9934 5.87983 10.9934C5.60649 10.9601 5.40649 10.7134 5.43983 10.4401L6.13316 4.12006C6.16649 3.84673 6.40649 3.64673 6.68647 3.68006C6.9598 3.71339 7.1598 3.96006 7.12647 4.23339L6.4265 10.5467C6.39983 10.8001 6.17983 10.9934 5.93316 10.9934Z" fill="currentColor"/>
<path d="M8.0334 10.9933C8.0134 10.9933 7.9934 10.9933 7.98007 10.9933C7.70673 10.9599 7.50673 10.7133 7.54007 10.4399L8.24007 4.12657C8.2734 3.85323 8.52007 3.65323 8.7934 3.68657C9.06673 3.7199 9.26673 3.96657 9.2334 4.2399L8.5334 10.5533C8.50673 10.7999 8.28673 10.9933 8.0334 10.9933Z" fill="currentColor"/>
<path d="M10.6662 6.77993H4.35287C4.07953 6.77993 3.85287 6.55327 3.85287 6.27994C3.85287 6.00661 4.07953 5.77994 4.35287 5.77994H10.6662C10.9395 5.77994 11.1662 6.00661 11.1662 6.27994C11.1662 6.55327 10.9395 6.77993 10.6662 6.77993Z" fill="currentColor"/>
<path d="M10.3133 8.88673H4C3.72667 8.88673 3.5 8.66006 3.5 8.38673C3.5 8.11339 3.72667 7.88673 4 7.88673H10.3133C10.5867 7.88673 10.8133 8.11339 10.8133 8.38673C10.8133 8.66006 10.5933 8.88673 10.3133 8.88673Z" fill="currentColor"/>
</g>
<defs>
<clipPath id="clip0_2_4900">
<rect width="16" height="16" fill="currentColor"/>
</clipPath>
</defs>
</svg>
