<svg width="16" height="16" viewBox="0 0 16 16" fill="none" xmlns="http://www.w3.org/2000/svg">
<g clip-path="url(#clip0_2_4696)">
<path d="M10 15.1667H6C2.38 15.1667 0.833333 13.62 0.833333 9.99999V5.99999C0.833333 2.37999 2.38 0.833328 6 0.833328H10C13.62 0.833328 15.1667 2.37999 15.1667 5.99999V9.99999C15.1667 13.62 13.62 15.1667 10 15.1667ZM6 1.83333C2.92667 1.83333 1.83333 2.92666 1.83333 5.99999V9.99999C1.83333 13.0733 2.92667 14.1667 6 14.1667H10C13.0733 14.1667 14.1667 13.0733 14.1667 9.99999V5.99999C14.1667 2.92666 13.0733 1.83333 10 1.83333H6Z" fill="currentColor"/>
<path d="M9.33333 11.8333H6.66667C5.28667 11.8333 4.16667 10.7133 4.16667 9.33333V6.66666C4.16667 5.28666 5.28667 4.16666 6.66667 4.16666H9.33333C10.7133 4.16666 11.8333 5.28666 11.8333 6.66666V9.33333C11.8333 10.7133 10.7133 11.8333 9.33333 11.8333ZM6.66667 5.16666C5.84 5.16666 5.16667 5.83999 5.16667 6.66666V9.33333C5.16667 10.16 5.84 10.8333 6.66667 10.8333H9.33333C10.16 10.8333 10.8333 10.16 10.8333 9.33333V6.66666C10.8333 5.83999 10.16 5.16666 9.33333 5.16666H6.66667Z" fill="currentColor"/>
<path d="M8 11.8333C7.72667 11.8333 7.5 11.6067 7.5 11.3333V4.66666C7.5 4.39333 7.72667 4.16666 8 4.16666C8.27333 4.16666 8.5 4.39333 8.5 4.66666V11.3333C8.5 11.6067 8.27333 11.8333 8 11.8333Z" fill="currentColor"/>
<path d="M11.3333 8.49999H4.66667C4.39333 8.49999 4.16667 8.27333 4.16667 7.99999C4.16667 7.72666 4.39333 7.49999 4.66667 7.49999H11.3333C11.6067 7.49999 11.8333 7.72666 11.8333 7.99999C11.8333 8.27333 11.6067 8.49999 11.3333 8.49999Z" fill="currentColor"/>
</g>
<defs>
<clipPath id="clip0_2_4696">
<rect width="16" height="16" fill="currentColor"/>
</clipPath>
</defs>
</svg>
