<svg width="16" height="16" viewBox="0 0 16 16" fill="none" xmlns="http://www.w3.org/2000/svg">
<path d="M5.3329 14.5C5.3129 14.5 5.2929 14.5 5.27957 14.5C5.00623 14.4667 4.80623 14.22 4.83957 13.9467L6.1729 1.94668C6.20623 1.67335 6.4529 1.48002 6.72627 1.50668C6.9996 1.54002 7.1996 1.78668 7.16627 2.06002L5.8329 14.06C5.79957 14.3133 5.58623 14.5 5.3329 14.5Z" fill="currentColor"/>
<path d="M9.33294 14.5C9.31293 14.5 9.29294 14.5 9.2796 14.5C9.00627 14.4667 8.80627 14.22 8.8396 13.9467L10.1729 1.94668C10.2063 1.67335 10.4463 1.48002 10.7263 1.50668C10.9996 1.54002 11.1996 1.78668 11.1663 2.06002L9.83294 14.06C9.7996 14.3133 9.58627 14.5 9.33294 14.5Z" fill="currentColor"/>
<path d="M14.3333 6.5H2.33333C2.06 6.5 1.83333 6.27333 1.83333 6C1.83333 5.72666 2.06 5.5 2.33333 5.5H14.3333C14.6067 5.5 14.8333 5.72666 14.8333 6C14.8333 6.27333 14.6067 6.5 14.3333 6.5Z" fill="currentColor"/>
<path d="M13.6667 10.5H1.66667C1.39333 10.5 1.16667 10.2733 1.16667 10C1.16667 9.72666 1.39333 9.5 1.66667 9.5H13.6667C13.94 9.5 14.1667 9.72666 14.1667 10C14.1667 10.2733 13.94 10.5 13.6667 10.5Z" fill="currentColor"/>
</svg>
