<svg width="16" height="16" viewBox="0 0 16 16" fill="none" xmlns="http://www.w3.org/2000/svg">
<path d="M5.66666 8.5C5.39333 8.5 5.16666 8.27333 5.16666 8V4.81331C5.16666 4.53998 5.39333 4.31331 5.66666 4.31331C5.94 4.31331 6.16666 4.53998 6.16666 4.81331V8C6.16666 8.27333 5.94 8.5 5.66666 8.5Z" fill="currentColor"/>
<path d="M5.66666 15.1667C5.39333 15.1667 5.16666 14.94 5.16666 14.6667V12.6667C5.16666 12.3933 5.39333 12.1667 5.66666 12.1667C5.94 12.1667 6.16666 12.3933 6.16666 12.6667V14.6667C6.16666 14.94 5.94 15.1667 5.66666 15.1667Z" fill="currentColor"/>
<path d="M10.3333 15.1667C10.06 15.1667 9.83333 14.94 9.83333 14.6667V4.81331C9.83333 4.53998 10.06 4.31331 10.3333 4.31331C10.6067 4.31331 10.8333 4.53998 10.8333 4.81331V14.6667C10.8333 14.94 10.6067 15.1667 10.3333 15.1667Z" fill="currentColor"/>
<path d="M5.53294 5.23332H4.03294C3.83961 5.23332 3.67296 5.12666 3.58629 4.95332C3.49962 4.77999 3.51963 4.58 3.63296 4.42667C3.75963 4.26 3.83295 4.04666 3.83295 3.82666V3.22669C3.83295 3.01335 3.75963 2.8 3.63296 2.62666C3.51963 2.47333 3.49962 2.27334 3.58629 2.10001C3.67296 1.93334 3.84628 1.81999 4.03294 1.81999H5.53294C6.47294 1.81999 7.23293 2.58002 7.23293 3.52002C7.23293 3.98002 7.05293 4.40669 6.72626 4.72669C6.41962 5.05335 5.99294 5.23332 5.53294 5.23332ZM4.79296 4.23332H5.53294C5.71961 4.23332 5.89295 4.15999 6.01962 4.03332C6.15962 3.89999 6.23296 3.72666 6.23296 3.53332C6.23296 3.14666 5.91961 2.83333 5.53294 2.83333H4.79296C4.81962 2.96667 4.83295 3.09998 4.83295 3.23332V3.83333C4.83295 3.96667 4.81962 4.09998 4.79296 4.23332Z" fill="currentColor"/>
<path d="M2.83317 5.83341C2.39317 5.83341 1.8065 5.69339 1.19317 5.14672C0.986504 4.96006 0.839844 4.62674 0.839844 4.33341V2.7734C0.839844 2.5134 0.959844 2.20673 1.13318 2.02673C1.75318 1.38007 2.39318 1.24007 2.81984 1.2334C2.82651 1.2334 2.83318 1.2334 2.83984 1.2334C3.36651 1.2334 3.8865 1.44673 4.25317 1.82006C4.31984 1.88673 4.38651 1.96675 4.44651 2.04675C4.69318 2.37342 4.83295 2.79998 4.83295 3.23332V3.83333C4.83295 4.26666 4.69316 4.6934 4.43316 5.0334C4.09983 5.48007 3.58649 5.76673 3.03316 5.82006C2.97316 5.82673 2.89984 5.83341 2.83317 5.83341ZM2.83317 2.2334C2.8265 2.2334 2.82651 2.2334 2.81984 2.2334C2.47984 2.24006 2.14649 2.40676 1.84649 2.72009C1.84649 2.72009 1.83317 2.76674 1.83317 2.78674V4.34008C1.83317 4.35342 1.85316 4.40008 1.86649 4.42008C2.20649 4.72008 2.57983 4.87341 2.93316 4.83341C3.21316 4.80675 3.45984 4.66673 3.63318 4.44006C3.75984 4.2734 3.83317 4.06008 3.83317 3.84008V3.24007C3.83317 3.02674 3.75984 2.81342 3.63318 2.64009C3.59984 2.58676 3.5665 2.56007 3.53983 2.52673C3.35316 2.34007 3.09984 2.2334 2.83317 2.2334Z" fill="currentColor"/>
<path d="M11.9669 5.23332H10.4669C10.0069 5.23332 9.58026 5.05335 9.26026 4.72669C8.94693 4.42002 8.76693 3.99332 8.76693 3.53332C8.76693 2.59333 9.52693 1.83333 10.4669 1.83333H11.9669C12.1536 1.83333 12.3269 1.93999 12.4136 2.11332C12.5003 2.27999 12.4803 2.48668 12.3669 2.64001C12.2403 2.80668 12.1669 3.01999 12.1669 3.23999V3.84C12.1669 4.06 12.2403 4.26664 12.3669 4.43998C12.4803 4.59331 12.5003 4.79334 12.4136 4.96667C12.3336 5.12667 12.1603 5.23332 11.9669 5.23332ZM10.4669 2.83333C10.0803 2.83333 9.76693 3.14666 9.76693 3.53332C9.76693 3.71999 9.84026 3.89335 9.96693 4.02002C10.1003 4.16002 10.2736 4.23332 10.4669 4.23332H11.2069C11.1803 4.09998 11.1669 3.96667 11.1669 3.83333V3.23332C11.1669 3.09998 11.1803 2.96667 11.2069 2.83333H10.4669Z" fill="currentColor"/>
<path d="M13.1668 5.83325C13.0935 5.83325 13.0268 5.82658 12.9601 5.82658C12.4068 5.77324 11.9001 5.48658 11.5601 5.03992C11.3001 4.69992 11.1601 4.27326 11.1601 3.83993V3.2399C11.1601 2.80657 11.3001 2.37992 11.5601 2.03992C11.6068 1.97325 11.6735 1.89325 11.7401 1.82658C12.1135 1.45325 12.6269 1.23991 13.1535 1.23991C13.1602 1.23991 13.1669 1.23991 13.1735 1.23991C13.6002 1.24657 14.2402 1.38658 14.8602 2.03325C15.0335 2.21325 15.1535 2.5199 15.1535 2.7799V4.33993C15.1535 4.63326 15.0069 4.96656 14.8002 5.14656C14.1935 5.69323 13.6068 5.83325 13.1668 5.83325ZM13.1668 2.23323C12.9001 2.23323 12.6401 2.33991 12.4601 2.52657C12.4335 2.55324 12.4069 2.58658 12.3802 2.61991C12.2402 2.80658 12.1668 3.0199 12.1668 3.23323V3.83325C12.1668 4.05325 12.2401 4.25993 12.3668 4.43326C12.5401 4.65993 12.7869 4.79992 13.0669 4.83325C13.4202 4.87325 13.7935 4.7199 14.1535 4.40657C14.1535 4.40657 14.1669 4.35993 14.1735 4.33993V2.78658C14.1735 2.77325 14.1535 2.72659 14.1468 2.71326C13.8601 2.41326 13.5268 2.24658 13.1868 2.24658C13.1735 2.23325 13.1735 2.23323 13.1668 2.23323Z" fill="currentColor"/>
<path d="M5.66666 13.1667C4.84 13.1667 4.16666 12.4933 4.16666 11.6667V9C4.16666 8.17333 4.84 7.5 5.66666 7.5C6.49333 7.5 7.16666 8.17333 7.16666 9V11.6667C7.16666 12.4933 6.49333 13.1667 5.66666 13.1667ZM5.66666 8.5C5.39333 8.5 5.16666 8.72667 5.16666 9V11.6667C5.16666 11.94 5.39333 12.1667 5.66666 12.1667C5.94 12.1667 6.16666 11.94 6.16666 11.6667V9C6.16666 8.72667 5.94 8.5 5.66666 8.5Z" fill="currentColor"/>
</svg>
