<svg width="16" height="16" viewBox="0 0 16 16" fill="none" xmlns="http://www.w3.org/2000/svg">
<g clip-path="url(#clip0_2_4897)">
<path d="M3.71314 15.1334C2.15314 15.1334 0.833139 13.8133 0.833139 12.2533V8.14667C0.799805 6.20003 1.51981 4.3667 2.86647 2.99337C4.21314 1.6267 6.01981 0.866699 7.96647 0.866699C11.9398 0.866699 15.1665 4.10003 15.1665 8.06667V12.1733C15.1665 13.76 13.8731 15.0533 12.2865 15.0533C10.7265 15.0533 9.40647 13.7333 9.40647 12.1733V10.3C9.40647 9.33333 10.1665 8.57333 11.1331 8.57333C12.0998 8.57333 12.8598 9.33333 12.8598 10.3V12.32C12.8598 12.5933 12.6331 12.82 12.3598 12.82C12.0865 12.82 11.8598 12.5933 11.8598 12.32V10.3C11.8598 9.84667 11.4931 9.57333 11.1331 9.57333C10.6798 9.57333 10.4065 9.94 10.4065 10.3V12.1733C10.4065 13.1934 11.2665 14.0533 12.2865 14.0533C13.3065 14.0533 14.1665 13.1934 14.1665 12.1733V8.06667C14.1665 4.6467 11.3865 1.8667 7.96647 1.8667C6.29314 1.8667 4.73981 2.51337 3.57981 3.69337C2.41981 4.87337 1.79981 6.45337 1.83314 8.13333V12.2533C1.83314 13.2733 2.69314 14.1334 3.71314 14.1334C4.73314 14.1334 5.59314 13.2733 5.59314 12.2533V10.38C5.59314 9.92667 5.22647 9.65333 4.86647 9.65333C4.41314 9.65333 4.13981 10.02 4.13981 10.38V12.3267C4.13981 12.6 3.91314 12.8267 3.63981 12.8267C3.36647 12.8267 3.13981 12.6 3.13981 12.3267V10.38C3.13981 9.41333 3.89981 8.65333 4.86647 8.65333C5.83314 8.65333 6.59314 9.41333 6.59314 10.38V12.2533C6.59314 13.8133 5.27314 15.1334 3.71314 15.1334Z" fill="currentColor"/>
</g>
<defs>
<clipPath id="clip0_2_4897">
<rect width="16" height="16" fill="currentColor"/>
</clipPath>
</defs>
</svg>
