<svg width="16" height="16" viewBox="0 0 16 16" fill="none" xmlns="http://www.w3.org/2000/svg">
<g clip-path="url(#clip0_2_4893)">
<path d="M9.9798 15.1667H5.97982C2.35982 15.1667 0.813156 13.62 0.813156 9.99999V5.99999C0.813156 2.37999 2.35982 0.833328 5.97982 0.833328H9.9798C13.5998 0.833328 15.1465 2.37999 15.1465 5.99999V9.99999C15.1465 13.62 13.6065 15.1667 9.9798 15.1667ZM5.97982 1.83333C2.90649 1.83333 1.81316 2.92666 1.81316 5.99999V9.99999C1.81316 13.0733 2.90649 14.1667 5.97982 14.1667H9.9798C13.0531 14.1667 14.1465 13.0733 14.1465 9.99999V5.99999C14.1465 2.92666 13.0531 1.83333 9.9798 1.83333H5.97982Z" fill="currentColor"/>
<path d="M7.63347 12.0399C7.47347 12.0399 7.0868 11.9799 6.86014 11.3999L6.10016 9.47993C5.99349 9.20659 5.61349 8.95326 5.32682 8.95326L1.32682 8.96659C1.05349 8.96659 0.826823 8.74659 0.826823 8.46659C0.826823 8.19326 1.04682 7.96659 1.32682 7.96659L5.32682 7.95326H5.33349C6.03349 7.95326 6.78014 8.45993 7.04014 9.11326L7.6468 10.6466L9.02014 7.16659C9.2268 6.64659 9.59347 6.57325 9.7468 6.55992C9.90014 6.55325 10.2735 6.58659 10.5335 7.07993L11.2268 8.39326C11.3468 8.61993 11.7068 8.83993 11.9668 8.83993H14.6735C14.9468 8.83993 15.1735 9.06659 15.1735 9.33993C15.1735 9.61326 14.9468 9.83993 14.6735 9.83993H11.9668C11.3335 9.83993 10.6401 9.41993 10.3468 8.85993L9.8268 7.87326L8.4268 11.3999C8.18014 11.9733 7.7868 12.0399 7.63347 12.0399Z" fill="currentColor"/>
</g>
<defs>
<clipPath id="clip0_2_4893">
<rect width="16" height="16" fill="currentColor"/>
</clipPath>
</defs>
</svg>
