<svg width="16" height="16" viewBox="0 0 16 16" fill="none" xmlns="http://www.w3.org/2000/svg">
<path d="M7.99999 14.4334C7.79333 14.4334 7.59333 14.4067 7.42666 14.3467C4.87999 13.4734 0.833328 10.3734 0.833328 5.79339C0.833328 3.46006 2.71999 1.56673 5.03999 1.56673C6.16666 1.56673 7.21999 2.00673 7.99999 2.79339C8.77999 2.00673 9.83333 1.56673 10.96 1.56673C13.28 1.56673 15.1667 3.46673 15.1667 5.79339C15.1667 10.3801 11.12 13.4734 8.57333 14.3467C8.40666 14.4067 8.20666 14.4334 7.99999 14.4334ZM5.03999 2.56673C3.27333 2.56673 1.83333 4.01339 1.83333 5.79339C1.83333 10.3467 6.21333 12.8801 7.75333 13.4067C7.87333 13.4467 8.13333 13.4467 8.25333 13.4067C9.78666 12.8801 14.1733 10.3534 14.1733 5.79339C14.1733 4.01339 12.7333 2.56673 10.9667 2.56673C9.95333 2.56673 9.01333 3.04006 8.40666 3.86006C8.21999 4.11339 7.79333 4.11339 7.60666 3.86006C6.98666 3.03339 6.05333 2.56673 5.03999 2.56673Z" fill="currentColor"/>
</svg>
