<svg width="16" height="16" viewBox="0 0 16 16" fill="none" xmlns="http://www.w3.org/2000/svg">
<g clip-path="url(#clip0_2_5271)">
<path d="M4.07334 12.1667C3.95334 12.1667 3.82666 12.1201 3.73333 12.0334C2.41333 10.7934 0.833344 8.70673 0.833344 5.79341C0.833344 3.46008 2.72001 1.56673 5.04001 1.56673C6.16668 1.56673 7.22001 2.00675 8.00001 2.79341C8.78001 2.00675 9.83334 1.56673 10.96 1.56673C11.8 1.56673 12.6133 1.82007 13.3133 2.28674C13.54 2.44007 13.6 2.75339 13.4467 2.98006C13.2933 3.20673 12.98 3.26673 12.7533 3.1134C12.2267 2.75341 11.6067 2.5601 10.9667 2.5601C9.95334 2.5601 9.01334 3.03343 8.40668 3.85343C8.22001 4.10677 7.79334 4.10677 7.60668 3.85343C6.99334 3.03343 6.06002 2.5601 5.04668 2.5601C3.28002 2.5601 1.84002 4.00674 1.84002 5.78674C1.84002 8.34673 3.24668 10.1934 4.42668 11.3001C4.62668 11.4867 4.64 11.8067 4.45334 12.0067C4.34 12.1134 4.20667 12.1667 4.07334 12.1667Z" fill="currentColor"/>
<path d="M7.99961 14.4334C7.79294 14.4334 7.59294 14.4067 7.42628 14.3467C6.92628 14.1734 6.33296 13.8934 5.75962 13.5534C5.51962 13.4134 5.44628 13.1067 5.58628 12.8667C5.72628 12.6333 6.03293 12.5533 6.27293 12.6933C6.79294 13 7.31961 13.2533 7.75294 13.4C7.87294 13.44 8.13294 13.44 8.25294 13.4C9.78628 12.8733 14.1729 10.3467 14.1729 5.7867C14.1729 5.45337 14.1196 5.12668 14.0263 4.81335C13.9463 4.54668 14.0863 4.26672 14.3529 4.18672C14.6196 4.10672 14.8996 4.25338 14.9796 4.51338C15.1063 4.92671 15.1729 5.35337 15.1729 5.7867C15.1729 10.3733 11.1263 13.4667 8.57961 14.3401C8.40628 14.4067 8.20628 14.4334 7.99961 14.4334Z" fill="currentColor"/>
<path d="M1.333 15.1667C1.20633 15.1667 1.07964 15.12 0.979644 15.02C0.78631 14.8267 0.78631 14.5066 0.979644 14.3133L14.313 0.979961C14.5063 0.786628 14.8263 0.786628 15.0197 0.979961C15.213 1.17329 15.213 1.49333 15.0197 1.68667L1.68635 15.02C1.58635 15.12 1.45966 15.1667 1.333 15.1667Z" fill="currentColor"/>
</g>
<defs>
<clipPath id="clip0_2_5271">
<rect width="16" height="16" fill="currentColor"/>
</clipPath>
</defs>
</svg>
