<svg width="16" height="16" viewBox="0 0 16 16" fill="none" xmlns="http://www.w3.org/2000/svg">
<path d="M11.4669 15.1666C10.1736 15.1666 8.96028 14.4799 8.30028 13.3666C7.95361 12.8066 7.76694 12.1399 7.76694 11.4666C7.76694 9.42659 9.42694 7.76659 11.4669 7.76659C13.5069 7.76659 15.1669 9.42659 15.1669 11.4666C15.1669 12.1466 14.9803 12.8066 14.6269 13.3799C13.9736 14.4799 12.7603 15.1666 11.4669 15.1666ZM11.4669 8.76659C9.98028 8.76659 8.76694 9.97993 8.76694 11.4666C8.76694 11.9599 8.90028 12.4399 9.15361 12.8533C9.64694 13.6799 10.5069 14.1666 11.4669 14.1666C12.4269 14.1666 13.2869 13.6799 13.7736 12.8599C14.0336 12.4399 14.1669 11.9599 14.1669 11.4666C14.1669 9.97993 12.9536 8.76659 11.4669 8.76659Z" fill="currentColor"/>
<path d="M11.0063 12.7533C10.8797 12.7533 10.753 12.7067 10.653 12.6067L9.86634 11.82C9.67301 11.6267 9.67301 11.3067 9.86634 11.1133C10.0597 10.92 10.3797 10.92 10.573 11.1133L11.0197 11.5601L12.373 10.3067C12.5797 10.1201 12.893 10.1333 13.0797 10.3333C13.2663 10.5333 13.253 10.8533 13.053 11.04L11.3463 12.6133C11.253 12.7133 11.1263 12.7533 11.0063 12.7533Z" fill="currentColor"/>
<path d="M8.00001 14.4334C7.79334 14.4334 7.58668 14.4067 7.42001 14.3467C5.71334 13.7667 0.833344 10.9401 0.833344 5.79341C0.833344 3.46007 2.72001 1.56673 5.04001 1.56673C6.14668 1.56673 7.22001 2.01341 8.00001 2.79341C8.78001 2.01341 9.85334 1.56673 10.96 1.56673C13.28 1.56673 15.1667 3.46007 15.1667 5.79341C15.1667 7.09339 14.8533 8.34006 14.2333 9.50673C14.16 9.64673 14.02 9.74673 13.86 9.76673C13.7 9.78673 13.54 9.73339 13.4267 9.61339C12.9067 9.06673 12.2133 8.76006 11.4667 8.76006C9.98001 8.76006 8.76668 9.97339 8.76668 11.4601C8.76668 12.1201 9.01334 12.7601 9.46001 13.2601C9.56668 13.3801 9.60668 13.5401 9.57334 13.6934C9.54001 13.8467 9.43334 13.9801 9.29334 14.0467C9.02668 14.1667 8.78668 14.2667 8.56668 14.3401C8.40668 14.4067 8.20668 14.4334 8.00001 14.4334ZM5.04001 2.56673C3.27334 2.56673 1.83334 4.01341 1.83334 5.79341C1.83334 10.3534 6.21334 12.8734 7.74668 13.4001C7.87334 13.4467 8.12668 13.4401 8.24668 13.4001C8.26668 13.3934 8.28668 13.3867 8.30668 13.3801C7.95334 12.8067 7.76694 12.1466 7.76694 11.4666C7.76694 9.42659 9.42694 7.76659 11.4669 7.76659C12.2403 7.76659 13 8.01339 13.6267 8.46673C13.9867 7.61339 14.1667 6.72006 14.1667 5.79341C14.1667 4.01341 12.7267 2.56673 10.96 2.56673C9.96001 2.56673 9.00001 3.04676 8.40001 3.85343C8.21334 4.10676 7.78668 4.10676 7.60001 3.85343C7.00001 3.04676 6.04001 2.56673 5.04001 2.56673Z" fill="currentColor"/>
</svg>
