<svg width="16" height="16" viewBox="0 0 16 16" fill="none" xmlns="http://www.w3.org/2000/svg">
<g clip-path="url(#clip0_2_4691)">
<path d="M8.00001 15.1667C4.04668 15.1667 0.833344 11.9533 0.833344 7.99999C0.833344 4.04666 4.04668 0.833328 8.00001 0.833328C11.9533 0.833328 15.1667 4.04666 15.1667 7.99999C15.1667 11.9533 11.9533 15.1667 8.00001 15.1667ZM8.00001 1.83333C4.60001 1.83333 1.83334 4.59999 1.83334 7.99999C1.83334 11.4 4.60001 14.1667 8.00001 14.1667C11.4 14.1667 14.1667 11.4 14.1667 7.99999C14.1667 4.59999 11.4 1.83333 8.00001 1.83333Z" fill="currentColor"/>
<path d="M7.99961 12.1667C7.85961 12.1667 7.72628 12.1467 7.61294 12.1067C6.17959 11.6201 3.90626 9.87339 3.90626 7.27339C3.90626 5.88675 5.02626 4.76009 6.40626 4.76009C7.00628 4.76009 7.55961 4.96675 8.00628 5.34008C8.45294 4.96675 9.01294 4.76009 9.59961 4.76009C10.9796 4.76009 12.0996 5.88675 12.0996 7.27339C12.0996 9.86673 9.82628 11.6134 8.38628 12.1067C8.27294 12.1467 8.13294 12.1667 7.99961 12.1667ZM6.3996 5.76674C5.57293 5.76674 4.8996 6.44675 4.8996 7.28006C4.8996 9.60673 7.14628 10.9001 7.93294 11.1667C7.95961 11.1734 8.02628 11.1734 8.05294 11.1667C8.83961 10.9001 11.0863 9.60673 11.0863 7.28006C11.0863 6.44675 10.4129 5.76674 9.58628 5.76674C9.11961 5.76674 8.67294 5.99341 8.39294 6.37341C8.20628 6.62674 7.77961 6.62674 7.59294 6.37341C7.31294 5.98674 6.87961 5.76674 6.3996 5.76674Z" fill="currentColor"/>
</g>
<defs>
<clipPath id="clip0_2_4691">
<rect width="16" height="16" fill="currentColor"/>
</clipPath>
</defs>
</svg>
