<svg width="16" height="16" viewBox="0 0 16 16" fill="none" xmlns="http://www.w3.org/2000/svg">
<path d="M11.4669 15.1666C9.42693 15.1666 7.76693 13.5066 7.76693 11.4666C7.76693 9.42659 9.42693 7.76659 11.4669 7.76659C13.5069 7.76659 15.1669 9.42659 15.1669 11.4666C15.1669 13.5066 13.5069 15.1666 11.4669 15.1666ZM11.4669 8.76659C9.98026 8.76659 8.76693 9.97993 8.76693 11.4666C8.76693 12.9533 9.98026 14.1666 11.4669 14.1666C12.9536 14.1666 14.1669 12.9533 14.1669 11.4666C14.1669 9.97993 12.9536 8.76659 11.4669 8.76659Z" fill="currentColor"/>
<path d="M12.6603 12.0067H10.2669C9.99359 12.0067 9.76693 11.78 9.76693 11.5067C9.76693 11.2333 9.99359 11.0067 10.2669 11.0067H12.6603C12.9336 11.0067 13.1603 11.2333 13.1603 11.5067C13.1603 11.78 12.9403 12.0067 12.6603 12.0067Z" fill="currentColor"/>
<path d="M11.4661 13.2333C11.1928 13.2333 10.9661 13.0067 10.9661 12.7333V10.34C10.9661 10.0667 11.1928 9.83999 11.4661 9.83999C11.7395 9.83999 11.9661 10.0667 11.9661 10.34V12.7333C11.9661 13.0067 11.7395 13.2333 11.4661 13.2333Z" fill="currentColor"/>
<path d="M7.99999 14.4334C7.79333 14.4334 7.58666 14.4067 7.41999 14.3467C5.71333 13.7667 0.833328 10.9401 0.833328 5.79341C0.833328 3.46007 2.71999 1.56673 5.03999 1.56673C6.15333 1.56673 7.21999 2.01341 7.99999 2.79341C8.77999 2.01341 9.85333 1.56673 10.96 1.56673C13.28 1.56673 15.1667 3.46007 15.1667 5.79341C15.1667 7.09339 14.8533 8.34006 14.2333 9.50673C14.16 9.64673 14.02 9.74673 13.86 9.76673C13.6933 9.78673 13.54 9.73339 13.4267 9.61339C12.9067 9.06673 12.2067 8.76006 11.46 8.76006C9.97333 8.76006 8.75999 9.97339 8.75999 11.4601C8.75999 12.1201 9.00666 12.7601 9.45333 13.2601C9.55999 13.3801 9.59999 13.5401 9.56666 13.6934C9.53333 13.8467 9.42666 13.9801 9.28666 14.0467C9.01999 14.1667 8.77999 14.2667 8.55999 14.3401C8.40666 14.4067 8.20666 14.4334 7.99999 14.4334ZM5.03999 2.56673C3.27333 2.56673 1.83333 4.01341 1.83333 5.79341C1.83333 10.3534 6.21332 12.8734 7.74666 13.4001C7.86666 13.4467 8.12666 13.4401 8.24666 13.4001C8.26666 13.3934 8.28666 13.3867 8.30666 13.3801C7.95999 12.8067 7.76693 12.1466 7.76693 11.4666C7.76693 9.42659 9.42693 7.76659 11.4669 7.76659C12.2536 7.76659 13 8.01339 13.6267 8.46006C13.9867 7.60673 14.1667 6.71339 14.1667 5.79341C14.1667 4.01341 12.7267 2.56673 10.96 2.56673C9.95999 2.56673 8.99999 3.04676 8.39999 3.85343C8.21333 4.10676 7.78666 4.10676 7.59999 3.85343C6.99999 3.04676 6.03999 2.56673 5.03999 2.56673Z" fill="currentColor"/>
</svg>
