<svg width="16" height="16" viewBox="0 0 16 16" fill="none" xmlns="http://www.w3.org/2000/svg">
<path d="M8.00001 14.4334C7.85334 14.4334 7.63334 14.4201 7.42668 14.3467C4.88001 13.4734 0.833344 10.3801 0.833344 5.79341C0.833344 3.46007 2.72001 1.56673 5.04001 1.56673C6.16668 1.56673 7.22001 2.00674 8.00001 2.79341C8.78001 2.00674 9.83334 1.56673 10.96 1.56673C13.28 1.56673 15.1667 3.46007 15.1667 5.79341C15.1667 6.60007 15.0467 7.39339 14.8067 8.15339C14.7267 8.41339 14.44 8.56673 14.18 8.48006C13.9133 8.40006 13.7733 8.11346 13.8533 7.85346C14.06 7.19346 14.1667 6.50008 14.1667 5.80008C14.1667 4.02008 12.7267 2.5734 10.96 2.5734C9.94668 2.5734 9.00668 3.04673 8.40001 3.86006C8.21334 4.11339 7.78668 4.11339 7.60001 3.86006C6.98668 3.04006 6.05334 2.5734 5.04001 2.5734C3.27334 2.5734 1.83334 4.02008 1.83334 5.80008C1.83334 10.3601 6.21334 12.8867 7.75334 13.4134C7.79334 13.4267 7.88668 13.4467 8.00001 13.4467C8.27334 13.4467 8.50001 13.6734 8.50001 13.9467C8.50001 14.2201 8.27334 14.4334 8.00001 14.4334Z" fill="currentColor"/>
<path d="M11.8261 14.5001C10.3727 14.5001 9.19274 13.3201 9.19274 11.8667C9.19274 10.4134 10.3727 9.23339 11.8261 9.23339C13.2794 9.23339 14.4594 10.4134 14.4594 11.8667C14.4594 13.3201 13.2794 14.5001 11.8261 14.5001ZM11.8261 10.2334C10.9261 10.2334 10.1927 10.9667 10.1927 11.8667C10.1927 12.7667 10.9261 13.5001 11.8261 13.5001C12.7261 13.5001 13.4594 12.7667 13.4594 11.8667C13.4594 10.9667 12.7261 10.2334 11.8261 10.2334Z" fill="currentColor"/>
<path d="M14.3603 14.9C14.2337 14.9 14.107 14.8533 14.007 14.7533L13.3403 14.0867C13.147 13.8933 13.147 13.5733 13.3403 13.38C13.5337 13.1867 13.8537 13.1867 14.047 13.38L14.7137 14.0467C14.907 14.24 14.907 14.56 14.7137 14.7533C14.6137 14.8467 14.487 14.9 14.3603 14.9Z" fill="currentColor"/>
</svg>
