<svg width="16" height="16" viewBox="0 0 16 16" fill="none" xmlns="http://www.w3.org/2000/svg">
<path d="M11.4669 15.1666C10.4203 15.1666 9.42028 14.7199 8.71361 13.9333C8.10028 13.2466 7.76694 12.3733 7.76694 11.4666C7.76694 9.42659 9.42694 7.76659 11.4669 7.76659C12.4936 7.76659 13.4469 8.17993 14.1603 8.92659C14.1803 8.94659 14.2003 8.97326 14.2136 8.99326C14.8403 9.69993 15.1669 10.5599 15.1669 11.4599C15.1669 13.5066 13.5069 15.1666 11.4669 15.1666ZM11.4669 8.76659C9.98028 8.76659 8.76694 9.97993 8.76694 11.4666C8.76694 12.1266 9.01361 12.7666 9.46028 13.2666C9.97361 13.8399 10.7069 14.1666 11.4669 14.1666C12.9536 14.1666 14.1669 12.9533 14.1669 11.4666C14.1669 10.7799 13.9069 10.1266 13.4269 9.61993C13.4136 9.60659 13.4003 9.58659 13.3869 9.57326C12.8736 9.05326 12.1936 8.76659 11.4669 8.76659Z" fill="currentColor"/>
<path d="M12.3193 12.8599C12.1926 12.8599 12.0659 12.8133 11.9659 12.7133L10.2726 11.02C10.0793 10.8267 10.0793 10.5066 10.2726 10.3133C10.4659 10.1199 10.7859 10.1199 10.9793 10.3133L12.6726 12.0067C12.8659 12.2 12.8659 12.52 12.6726 12.7133C12.5793 12.8067 12.4459 12.8599 12.3193 12.8599Z" fill="currentColor"/>
<path d="M10.6129 12.88C10.4862 12.88 10.3596 12.8333 10.2596 12.7333C10.0663 12.5399 10.0663 12.2199 10.2596 12.0266L11.9529 10.3333C12.1463 10.14 12.4663 10.14 12.6596 10.3333C12.8529 10.5267 12.8529 10.8467 12.6596 11.04L10.9663 12.7333C10.8663 12.8266 10.7395 12.88 10.6129 12.88Z" fill="currentColor"/>
<path d="M8.00001 14.4334C7.79334 14.4334 7.58668 14.4067 7.42001 14.3467C5.71334 13.7667 0.833344 10.9401 0.833344 5.79341C0.833344 3.46007 2.72001 1.56673 5.04001 1.56673C6.15334 1.56673 7.22001 2.01341 8.00001 2.79341C8.78001 2.01341 9.85334 1.56673 10.96 1.56673C13.28 1.56673 15.1667 3.46007 15.1667 5.79341C15.1667 7.09339 14.8533 8.34006 14.2333 9.50673C14.16 9.64673 14.02 9.74673 13.86 9.76673C13.7 9.78673 13.54 9.73339 13.4267 9.61339C12.9067 9.06673 12.2067 8.76006 11.46 8.76006C9.97334 8.76006 8.76001 9.97339 8.76001 11.4601C8.76001 12.1201 9.00668 12.7601 9.45334 13.2601C9.56001 13.3801 9.60001 13.5401 9.56668 13.6934C9.53334 13.8467 9.42668 13.9801 9.28668 14.0467C9.02001 14.1667 8.78001 14.2667 8.56001 14.3401C8.40668 14.4067 8.20668 14.4334 8.00001 14.4334ZM5.04001 2.56673C3.27334 2.56673 1.83334 4.01341 1.83334 5.79341C1.83334 10.3534 6.21334 12.8734 7.74668 13.4001C7.86668 13.4467 8.12668 13.4401 8.24668 13.4001C8.26668 13.3934 8.28668 13.3867 8.30668 13.3801C7.96001 12.8067 7.76694 12.1466 7.76694 11.4666C7.76694 9.42659 9.42694 7.76659 11.4669 7.76659C12.2536 7.76659 13 8.01339 13.6267 8.46006C13.9867 7.60673 14.1667 6.71339 14.1667 5.79341C14.1667 4.01341 12.7267 2.56673 10.96 2.56673C9.96001 2.56673 9.00001 3.04676 8.40001 3.85343C8.21334 4.10676 7.78668 4.10676 7.60001 3.85343C7.00001 3.04676 6.04001 2.56673 5.04001 2.56673Z" fill="currentColor"/>
</svg>
