<svg width="16" height="16" viewBox="0 0 16 16" fill="none" xmlns="http://www.w3.org/2000/svg">
<path d="M8.00001 14.4334C7.85334 14.4334 7.63334 14.4201 7.42668 14.3467C4.88001 13.4734 0.833344 10.3801 0.833344 5.79341C0.833344 3.46007 2.72001 1.56673 5.04001 1.56673C6.16668 1.56673 7.22001 2.00674 8.00001 2.79341C8.78001 2.00674 9.83334 1.56673 10.96 1.56673C13.28 1.56673 15.1667 3.46007 15.1667 5.79341C15.1667 6.60007 15.0467 7.39339 14.8067 8.15339C14.7267 8.41339 14.44 8.56673 14.18 8.48006C13.9133 8.40006 13.7733 8.11346 13.8533 7.85346C14.06 7.19346 14.1667 6.50008 14.1667 5.80008C14.1667 4.02008 12.7267 2.5734 10.96 2.5734C9.94668 2.5734 9.00668 3.04673 8.40001 3.86006C8.21334 4.11339 7.78668 4.11339 7.60001 3.86006C6.98668 3.04006 6.05334 2.5734 5.04001 2.5734C3.27334 2.5734 1.83334 4.02008 1.83334 5.80008C1.83334 10.3601 6.21334 12.8867 7.75334 13.4134C7.79334 13.4267 7.88668 13.4467 8.00001 13.4467C8.27334 13.4467 8.50001 13.6734 8.50001 13.9467C8.50001 14.2201 8.27334 14.4334 8.00001 14.4334Z" fill="currentColor"/>
<path d="M10.5464 15.1667C10.2931 15.1667 10.0531 15.0734 9.87974 14.9001C9.67308 14.6934 9.57974 14.3934 9.62641 14.0801L9.75308 13.1801C9.78641 12.9467 9.92641 12.6667 10.0931 12.5001L12.4531 10.1401C12.7731 9.82006 13.0864 9.65339 13.4264 9.62006C13.8464 9.58006 14.2531 9.75339 14.6397 10.1401C15.0264 10.5267 15.1997 10.9334 15.1597 11.3534C15.1264 11.6867 14.9531 12.0067 14.6397 12.3267L12.2797 14.6867C12.1131 14.8534 11.8397 14.9934 11.6064 15.0267L10.7064 15.1534C10.6464 15.1601 10.5997 15.1667 10.5464 15.1667ZM13.5397 10.6134C13.5331 10.6134 13.5264 10.6134 13.5197 10.6134C13.4264 10.6201 13.2997 10.7001 13.1597 10.8467L10.7997 13.2067C10.7797 13.2267 10.7464 13.2934 10.7464 13.3201L10.6264 14.1534L11.4597 14.0334C11.4864 14.0267 11.5531 13.9934 11.5731 13.9734L13.9331 11.6134C14.0731 11.4734 14.1597 11.3467 14.1664 11.2534C14.1797 11.1201 14.0464 10.9601 13.9331 10.8467C13.8264 10.7401 13.6731 10.6134 13.5397 10.6134Z" fill="currentColor"/>
<path d="M13.9471 12.8134C13.9004 12.8134 13.8537 12.8067 13.8137 12.7934C12.9337 12.5467 12.2337 11.8467 11.9871 10.9667C11.9137 10.7001 12.0671 10.4267 12.3337 10.3534C12.6004 10.2801 12.8737 10.4334 12.9537 10.7001C13.1071 11.2467 13.5404 11.6801 14.0871 11.8334C14.3537 11.9067 14.5071 12.1867 14.4337 12.4467C14.3671 12.6667 14.1671 12.8134 13.9471 12.8134Z" fill="currentColor"/>
</svg>
