<svg width="16" height="16" viewBox="0 0 16 16" fill="none" xmlns="http://www.w3.org/2000/svg">
<g clip-path="url(#clip0_2_4684)">
<path d="M10.9672 10.1C10.6938 10.1 10.4672 9.87333 10.4672 9.59999V5.66666C10.4672 5.57333 10.3938 5.49999 10.3005 5.49999H8.36718C8.09385 5.49999 7.86718 5.27333 7.86718 4.99999C7.86718 4.72666 8.09385 4.49999 8.36718 4.49999H10.3005C10.9405 4.49999 11.4672 5.02666 11.4672 5.66666V9.59999C11.4672 9.87333 11.2405 10.1 10.9672 10.1Z" fill="currentColor"/>
<path d="M9.36665 6.50011C9.25331 6.50011 9.13998 6.4601 9.04665 6.38677L7.84665 5.38677C7.73331 5.29343 7.66665 5.15344 7.66665 5.00011C7.66665 4.84678 7.73331 4.71345 7.84665 4.61345L9.04665 3.61345C9.25998 3.44012 9.57331 3.46677 9.75331 3.6801C9.93331 3.89343 9.89998 4.20677 9.68665 4.38677L8.94665 5.00011L9.68665 5.61345C9.89998 5.79345 9.92665 6.10678 9.75331 6.32011C9.65331 6.44011 9.50665 6.50011 9.36665 6.50011Z" fill="currentColor"/>
<path d="M5.03383 10.1001C4.7605 10.1001 4.53383 9.87346 4.53383 9.60013V6.80013C4.53383 6.52679 4.7605 6.30013 5.03383 6.30013C5.30717 6.30013 5.53383 6.52679 5.53383 6.80013V9.60013C5.53383 9.87346 5.30717 10.1001 5.03383 10.1001Z" fill="currentColor"/>
<path d="M5.13332 7.09999C4.13999 7.09999 3.33331 6.29333 3.33331 5.3C3.33331 4.30667 4.13999 3.49999 5.13332 3.49999C6.12665 3.49999 6.93331 4.30667 6.93331 5.3C6.93331 6.29333 6.12665 7.09999 5.13332 7.09999ZM5.13332 4.49999C4.69332 4.49999 4.33331 4.86 4.33331 5.3C4.33331 5.74 4.69332 6.09999 5.13332 6.09999C5.57332 6.09999 5.93333 5.74 5.93333 5.3C5.93333 4.86 5.57332 4.49999 5.13332 4.49999Z" fill="currentColor"/>
<path d="M5.03331 12.4999C4.09331 12.4999 3.33331 11.7399 3.33331 10.7999C3.33331 9.85993 4.09331 9.09993 5.03331 9.09993C5.97331 9.09993 6.73331 9.85993 6.73331 10.7999C6.73331 11.7399 5.97331 12.4999 5.03331 12.4999ZM5.03383 10.1001C4.64717 10.1001 4.33331 10.4133 4.33331 10.7999C4.33331 11.1866 4.64664 11.4999 5.03331 11.4999C5.41997 11.4999 5.7333 11.1866 5.7333 10.7999C5.7333 10.4133 5.4205 10.1001 5.03383 10.1001Z" fill="currentColor"/>
<path d="M10.9669 12.4999C10.0269 12.4999 9.26691 11.7399 9.26691 10.7999C9.26691 9.85993 10.0269 9.09993 10.9669 9.09993C11.9069 9.09993 12.6669 9.85993 12.6669 10.7999C12.6669 11.7399 11.9069 12.4999 10.9669 12.4999ZM10.9672 10.1C10.5805 10.1 10.2669 10.4133 10.2669 10.7999C10.2669 11.1866 10.5802 11.4999 10.9669 11.4999C11.3536 11.4999 11.6669 11.1866 11.6669 10.7999C11.6669 10.4133 11.3538 10.1 10.9672 10.1Z" fill="currentColor"/>
<path d="M9.99998 15.1667H5.99998C2.37998 15.1667 0.833313 13.62 0.833313 9.99999V5.99999C0.833313 2.37999 2.37998 0.833328 5.99998 0.833328H9.99998C13.62 0.833328 15.1666 2.37999 15.1666 5.99999V9.99999C15.1666 13.62 13.62 15.1667 9.99998 15.1667ZM5.99998 1.83333C2.92665 1.83333 1.83331 2.92666 1.83331 5.99999V9.99999C1.83331 13.0733 2.92665 14.1667 5.99998 14.1667H9.99998C13.0733 14.1667 14.1666 13.0733 14.1666 9.99999V5.99999C14.1666 2.92666 13.0733 1.83333 9.99998 1.83333H5.99998Z" fill="currentColor"/>
</g>
<defs>
<clipPath id="clip0_2_4684">
<rect width="16" height="16" fill="currentColor"/>
</clipPath>
</defs>
</svg>
