<svg width="16" height="16" viewBox="0 0 16 16" fill="none" xmlns="http://www.w3.org/2000/svg">
<g clip-path="url(#clip0_2_5205)">
<path d="M5.2005 9.70006C4.92717 9.70006 4.7005 9.47339 4.7005 9.20006V6.40006C4.7005 6.12673 4.92717 5.90006 5.2005 5.90006C5.47383 5.90006 5.7005 6.12673 5.7005 6.40006V9.20006C5.7005 9.47339 5.47383 9.70006 5.2005 9.70006Z" fill="currentColor"/>
<path d="M5.29999 12.5001C4.30665 12.5001 3.49998 11.6934 3.49998 10.7001C3.49998 9.70673 4.30665 8.90006 5.29999 8.90006C6.29332 8.90006 7.09998 9.70673 7.09998 10.7001C7.09998 11.6934 6.29332 12.5001 5.29999 12.5001ZM5.29999 9.90006C4.85999 9.90006 4.49998 10.2601 4.49998 10.7001C4.49998 11.1401 4.85999 11.5001 5.29999 11.5001C5.73999 11.5001 6.09999 11.1401 6.09999 10.7001C6.09999 10.2601 5.73999 9.90006 5.29999 9.90006Z" fill="currentColor"/>
<path d="M5.19997 6.89999C4.25997 6.89999 3.49998 6.13999 3.49998 5.19999C3.49998 4.25999 4.25997 3.49999 5.19997 3.49999C6.13997 3.49999 6.89998 4.25999 6.89998 5.19999C6.89998 6.13999 6.13997 6.89999 5.19997 6.89999ZM5.19997 4.49999C4.81331 4.49999 4.49998 4.81332 4.49998 5.19999C4.49998 5.58665 4.81383 5.90006 5.2005 5.90006C5.58717 5.90006 5.89997 5.58665 5.89997 5.19999C5.89997 4.81332 5.58664 4.49999 5.19997 4.49999Z" fill="currentColor"/>
<path d="M10.8002 6.89999C9.86025 6.89999 9.10025 6.13999 9.10025 5.19999C9.10025 4.25999 9.86025 3.49999 10.8002 3.49999C11.7402 3.49999 12.5002 4.25999 12.5002 5.19999C12.5002 6.13999 11.7402 6.89999 10.8002 6.89999ZM10.8002 4.49999C10.4136 4.49999 10.1002 4.81332 10.1002 5.19999C10.1002 5.58665 10.4136 5.9 10.8002 5.9C11.1869 5.9 11.5002 5.58665 11.5002 5.19999C11.5002 4.81332 11.1869 4.49999 10.8002 4.49999Z" fill="currentColor"/>
<path d="M5.25305 9.70006C5.21305 9.70006 5.16638 9.69339 5.12638 9.68673C4.85971 9.62006 4.69973 9.34673 4.76639 9.08006C5.00639 8.14006 5.85303 7.49339 6.81971 7.49339H6.82638L8.19971 7.50006H8.20638C9.01305 7.50006 9.72638 6.99339 9.99305 6.23342C10.0864 5.97342 10.373 5.83343 10.6264 5.92676C10.8864 6.02009 11.0264 6.30009 10.933 6.56675C10.5264 7.73339 9.43305 8.51339 8.19305 8.50673L6.81971 8.50006C6.81971 8.50006 6.81971 8.50006 6.81305 8.50006C6.29969 8.50006 5.85306 8.84673 5.72639 9.34006C5.67973 9.55339 5.47305 9.70006 5.25305 9.70006Z" fill="currentColor"/>
<path d="M9.99998 15.1667H5.99998C2.37998 15.1667 0.833313 13.62 0.833313 9.99999V5.99999C0.833313 2.37999 2.37998 0.833328 5.99998 0.833328H9.99998C13.62 0.833328 15.1666 2.37999 15.1666 5.99999V9.99999C15.1666 13.62 13.62 15.1667 9.99998 15.1667ZM5.99998 1.83333C2.92665 1.83333 1.83331 2.92666 1.83331 5.99999V9.99999C1.83331 13.0733 2.92665 14.1667 5.99998 14.1667H9.99998C13.0733 14.1667 14.1666 13.0733 14.1666 9.99999V5.99999C14.1666 2.92666 13.0733 1.83333 9.99998 1.83333H5.99998Z" fill="currentColor"/>
</g>
<defs>
<clipPath id="clip0_2_5205">
<rect width="16" height="16" fill="currentColor"/>
</clipPath>
</defs>
</svg>
