<svg width="16" height="16" viewBox="0 0 16 16" fill="none" xmlns="http://www.w3.org/2000/svg">
<g clip-path="url(#clip0_2_5235)">
<path d="M5.2005 10.1001C4.92717 10.1001 4.7005 9.87346 4.7005 9.60013V6.80013C4.7005 6.52679 4.92717 6.30013 5.2005 6.30013C5.47383 6.30013 5.7005 6.52679 5.7005 6.80013V9.60013C5.7005 9.87346 5.47383 10.1001 5.2005 10.1001Z" fill="currentColor"/>
<path d="M5.29999 7.09999C4.30665 7.09999 3.49998 6.29333 3.49998 5.3C3.49998 4.30667 4.30665 3.49999 5.29999 3.49999C6.29332 3.49999 7.09998 4.30667 7.09998 5.3C7.09998 6.29333 6.29332 7.09999 5.29999 7.09999ZM5.29999 4.49999C4.85999 4.49999 4.49998 4.86 4.49998 5.3C4.49998 5.74 4.85999 6.09999 5.29999 6.09999C5.73999 6.09999 6.09999 5.74 6.09999 5.3C6.09999 4.86 5.73999 4.49999 5.29999 4.49999Z" fill="currentColor"/>
<path d="M5.19997 12.4999C4.25997 12.4999 3.49998 11.7399 3.49998 10.7999C3.49998 9.85993 4.25997 9.09993 5.19997 9.09993C6.13997 9.09993 6.89998 9.85993 6.89998 10.7999C6.89998 11.7399 6.13997 12.4999 5.19997 12.4999ZM5.2005 10.1001C4.81383 10.1001 4.49998 10.4133 4.49998 10.7999C4.49998 11.1866 4.81331 11.4999 5.19997 11.4999C5.58664 11.4999 5.89997 11.1866 5.89997 10.7999C5.89997 10.4133 5.58717 10.1001 5.2005 10.1001Z" fill="currentColor"/>
<path d="M10.8002 12.4999C9.86025 12.4999 9.10025 11.7399 9.10025 10.7999C9.10025 9.85993 9.86025 9.09993 10.8002 9.09993C11.7402 9.09993 12.5002 9.85993 12.5002 10.7999C12.5002 11.7399 11.7402 12.4999 10.8002 12.4999ZM10.8002 10.0999C10.4136 10.0999 10.1002 10.4133 10.1002 10.7999C10.1002 11.1866 10.4136 11.4999 10.8002 11.4999C11.1869 11.4999 11.5002 11.1866 11.5002 10.7999C11.5002 10.4133 11.1869 10.0999 10.8002 10.0999Z" fill="currentColor"/>
<path d="M10.4664 10.1133C10.2597 10.1133 10.0664 9.98666 9.99305 9.77999C9.72638 9.01999 9.01305 8.51333 8.20638 8.51333H8.19971L6.82638 8.51999H6.81971C5.85303 8.51999 5.00639 7.86666 4.76639 6.93333C4.69973 6.66663 4.85971 6.39329 5.12638 6.32663C5.38638 6.25996 5.66636 6.41997 5.73303 6.68666C5.85969 7.17999 6.30637 7.52666 6.81971 7.52666C6.81971 7.52666 6.81971 7.52666 6.82638 7.52666L8.19971 7.51999C8.20638 7.51999 8.20638 7.51999 8.21305 7.51999C9.43971 7.51999 10.5397 8.29999 10.9464 9.45999C11.0397 9.71999 10.8997 10.0067 10.6397 10.1C10.5797 10.1067 10.5197 10.1133 10.4664 10.1133Z" fill="currentColor"/>
<path d="M9.99998 15.1667H5.99998C2.37998 15.1667 0.833313 13.62 0.833313 9.99999V5.99999C0.833313 2.37999 2.37998 0.833328 5.99998 0.833328H9.99998C13.62 0.833328 15.1666 2.37999 15.1666 5.99999V9.99999C15.1666 13.62 13.62 15.1667 9.99998 15.1667ZM5.99998 1.83333C2.92665 1.83333 1.83331 2.92666 1.83331 5.99999V9.99999C1.83331 13.0733 2.92665 14.1667 5.99998 14.1667H9.99998C13.0733 14.1667 14.1666 13.0733 14.1666 9.99999V5.99999C14.1666 2.92666 13.0733 1.83333 9.99998 1.83333H5.99998Z" fill="currentColor"/>
</g>
<defs>
<clipPath id="clip0_2_5235">
<rect width="16" height="16" fill="currentColor"/>
</clipPath>
</defs>
</svg>
