<svg width="16" height="16" viewBox="0 0 16 16" fill="none" xmlns="http://www.w3.org/2000/svg">
<g clip-path="url(#clip0_2_4884)">
<path d="M3.33334 11.1667C3.06001 11.1667 2.83334 10.94 2.83334 10.6667V5.99999C2.83334 5.72666 3.06001 5.49999 3.33334 5.49999C3.60668 5.49999 3.83334 5.72666 3.83334 5.99999V10.6667C3.83334 10.94 3.60668 11.1667 3.33334 11.1667Z" fill="currentColor"/>
<path d="M3.50001 6.16666C2.02668 6.16666 0.833344 4.97333 0.833344 3.49999C0.833344 2.02666 2.02668 0.833328 3.50001 0.833328C4.97334 0.833328 6.16668 2.02666 6.16668 3.49999C6.16668 4.97333 4.97334 6.16666 3.50001 6.16666ZM3.50001 1.83333C2.58001 1.83333 1.83334 2.57999 1.83334 3.49999C1.83334 4.41999 2.58001 5.16666 3.50001 5.16666C4.42001 5.16666 5.16668 4.41999 5.16668 3.49999C5.16668 2.57999 4.42001 1.83333 3.50001 1.83333Z" fill="currentColor"/>
<path d="M3.33334 15.1667C1.95334 15.1667 0.833344 14.0467 0.833344 12.6667C0.833344 11.2867 1.95334 10.1667 3.33334 10.1667C4.71334 10.1667 5.83334 11.2867 5.83334 12.6667C5.83334 14.0467 4.71334 15.1667 3.33334 15.1667ZM3.33334 11.1667C2.50668 11.1667 1.83334 11.84 1.83334 12.6667C1.83334 13.4933 2.50668 14.1667 3.33334 14.1667C4.16001 14.1667 4.83334 13.4933 4.83334 12.6667C4.83334 11.84 4.16001 11.1667 3.33334 11.1667Z" fill="currentColor"/>
<path d="M12.6667 15.1667C11.2867 15.1667 10.1667 14.0467 10.1667 12.6667C10.1667 11.2867 11.2867 10.1667 12.6667 10.1667C14.0467 10.1667 15.1667 11.2867 15.1667 12.6667C15.1667 14.0467 14.0467 15.1667 12.6667 15.1667ZM12.6667 11.1667C11.84 11.1667 11.1667 11.84 11.1667 12.6667C11.1667 13.4933 11.84 14.1667 12.6667 14.1667C13.4933 14.1667 14.1667 13.4933 14.1667 12.6667C14.1667 11.84 13.4933 11.1667 12.6667 11.1667Z" fill="currentColor"/>
<path d="M12.1131 11.1933C11.9064 11.1933 11.7131 11.0667 11.6397 10.86C11.1531 9.46 9.83308 8.51999 8.34641 8.51999C8.33974 8.51999 8.33974 8.51999 8.33308 8.51999L6.04642 8.52666C6.03976 8.52666 6.03976 8.52666 6.03309 8.52666C4.57309 8.52666 3.29976 7.53999 2.93309 6.12665C2.86642 5.85999 3.02642 5.58665 3.29309 5.51999C3.55976 5.45332 3.83309 5.61333 3.89976 5.87999C4.15309 6.85333 5.02642 7.53333 6.03309 7.53333H6.03976L8.32641 7.52666C8.33308 7.52666 8.33974 7.52666 8.34641 7.52666C10.2531 7.52666 11.9531 8.73333 12.5797 10.54C12.6731 10.8 12.5331 11.0867 12.2731 11.1733C12.2197 11.18 12.1664 11.1933 12.1131 11.1933Z" fill="currentColor"/>
</g>
<defs>
<clipPath id="clip0_2_4884">
<rect width="16" height="16" fill="currentColor"/>
</clipPath>
</defs>
</svg>
