<svg width="16" height="16" viewBox="0 0 16 16" fill="none" xmlns="http://www.w3.org/2000/svg">
<g clip-path="url(#clip0_2_4880)">
<path d="M3.33331 10.5C3.05998 10.5 2.83331 10.2733 2.83331 9.99999V5.33333C2.83331 5.05999 3.05998 4.83333 3.33331 4.83333C3.60665 4.83333 3.83331 5.05999 3.83331 5.33333V9.99999C3.83331 10.2733 3.60665 10.5 3.33331 10.5Z" fill="currentColor"/>
<path d="M3.49998 15.1667C2.02665 15.1667 0.833313 13.9733 0.833313 12.5C0.833313 11.0267 2.02665 9.83333 3.49998 9.83333C4.97331 9.83333 6.16665 11.0267 6.16665 12.5C6.16665 13.9733 4.97331 15.1667 3.49998 15.1667ZM3.49998 10.8333C2.57998 10.8333 1.83331 11.58 1.83331 12.5C1.83331 13.42 2.57998 14.1667 3.49998 14.1667C4.41998 14.1667 5.16665 13.42 5.16665 12.5C5.16665 11.58 4.41998 10.8333 3.49998 10.8333Z" fill="currentColor"/>
<path d="M3.33331 5.83333C1.95331 5.83333 0.833313 4.71333 0.833313 3.33333C0.833313 1.95333 1.95331 0.833328 3.33331 0.833328C4.71331 0.833328 5.83331 1.95333 5.83331 3.33333C5.83331 4.71333 4.71331 5.83333 3.33331 5.83333ZM3.33331 1.83333C2.50665 1.83333 1.83331 2.50666 1.83331 3.33333C1.83331 4.15999 2.50665 4.83333 3.33331 4.83333C4.15998 4.83333 4.83331 4.15999 4.83331 3.33333C4.83331 2.50666 4.15998 1.83333 3.33331 1.83333Z" fill="currentColor"/>
<path d="M12.6666 5.83333C11.2866 5.83333 10.1666 4.71333 10.1666 3.33333C10.1666 1.95333 11.2866 0.833328 12.6666 0.833328C14.0466 0.833328 15.1666 1.95333 15.1666 3.33333C15.1666 4.71333 14.0466 5.83333 12.6666 5.83333ZM12.6666 1.83333C11.84 1.83333 11.1666 2.50666 11.1666 3.33333C11.1666 4.15999 11.84 4.83333 12.6666 4.83333C13.4933 4.83333 14.1666 4.15999 14.1666 3.33333C14.1666 2.50666 13.4933 1.83333 12.6666 1.83333Z" fill="currentColor"/>
<path d="M3.41973 10.5002C3.37973 10.5002 3.33973 10.4935 3.29306 10.4869C3.02639 10.4202 2.86639 10.1469 2.93306 9.88019C3.29973 8.46686 4.57306 7.48019 6.03306 7.48019C6.03973 7.48019 6.03973 7.48019 6.04639 7.48019L8.33305 7.48686C8.33971 7.48686 8.33971 7.48686 8.34638 7.48686C9.82638 7.48686 11.153 6.54683 11.6397 5.14683C11.733 4.88683 12.013 4.74684 12.273 4.84017C12.533 4.93351 12.673 5.21349 12.5797 5.47349C11.953 7.28013 10.2264 8.46686 8.32638 8.48686L6.03973 8.48019H6.03306C5.02639 8.48019 4.15306 9.16019 3.89973 10.1335C3.84639 10.3535 3.63973 10.5002 3.41973 10.5002Z" fill="currentColor"/>
</g>
<defs>
<clipPath id="clip0_2_4880">
<rect width="16" height="16" fill="currentColor"/>
</clipPath>
</defs>
</svg>
