<svg width="16" height="16" viewBox="0 0 16 16" fill="none" xmlns="http://www.w3.org/2000/svg">
<g clip-path="url(#clip0_2_4882)">
<path d="M3.33331 5.83333C1.95331 5.83333 0.833313 4.71333 0.833313 3.33333C0.833313 1.95333 1.95331 0.833328 3.33331 0.833328C4.71331 0.833328 5.83331 1.95333 5.83331 3.33333C5.83331 4.71333 4.71331 5.83333 3.33331 5.83333ZM3.33331 1.83333C2.50665 1.83333 1.83331 2.50666 1.83331 3.33333C1.83331 4.15999 2.50665 4.83333 3.33331 4.83333C4.15998 4.83333 4.83331 4.15999 4.83331 3.33333C4.83331 2.50666 4.15998 1.83333 3.33331 1.83333Z" fill="currentColor"/>
<path d="M12.6666 10.5C11.2866 10.5 10.1666 9.37999 10.1666 7.99999C10.1666 6.61999 11.2866 5.49999 12.6666 5.49999C14.0466 5.49999 15.1666 6.61999 15.1666 7.99999C15.1666 9.37999 14.0466 10.5 12.6666 10.5ZM12.6666 6.49999C11.84 6.49999 11.1666 7.17333 11.1666 7.99999C11.1666 8.82666 11.84 9.49999 12.6666 9.49999C13.4933 9.49999 14.1666 8.82666 14.1666 7.99999C14.1666 7.17333 13.4933 6.49999 12.6666 6.49999Z" fill="currentColor"/>
<path d="M3.33331 15.1667C1.95331 15.1667 0.833313 14.0467 0.833313 12.6667C0.833313 11.2867 1.95331 10.1667 3.33331 10.1667C4.71331 10.1667 5.83331 11.2867 5.83331 12.6667C5.83331 14.0467 4.71331 15.1667 3.33331 15.1667ZM3.33331 11.1667C2.50665 11.1667 1.83331 11.84 1.83331 12.6667C1.83331 13.4933 2.50665 14.1667 3.33331 14.1667C4.15998 14.1667 4.83331 13.4933 4.83331 12.6667C4.83331 11.84 4.15998 11.1667 3.33331 11.1667Z" fill="currentColor"/>
<path d="M3.33331 11.1667C3.05998 11.1667 2.83331 10.94 2.83331 10.6667V5.33333C2.83331 5.05999 3.05998 4.83333 3.33331 4.83333C3.60665 4.83333 3.83331 5.05999 3.83331 5.33333C3.83331 6.79333 4.53998 7.49999 5.99998 7.49999H10.6666C10.94 7.49999 11.1666 7.72666 11.1666 7.99999C11.1666 8.27333 10.94 8.49999 10.6666 8.49999H5.99998C5.09331 8.49999 4.36665 8.26666 3.83331 7.82666V10.6667C3.83331 10.94 3.60665 11.1667 3.33331 11.1667Z" fill="currentColor"/>
</g>
<defs>
<clipPath id="clip0_2_4882">
<rect width="16" height="16" fill="currentColor"/>
</clipPath>
</defs>
</svg>
