<svg width="16" height="16" viewBox="0 0 16 16" fill="none" xmlns="http://www.w3.org/2000/svg">
<path d="M10.4666 10.6C10.4 10.6 10.2666 10.6 10.2 10.5333L8.13331 9.33332C7.59998 8.99999 7.26664 8.33332 7.26664 7.73332V4.99999C7.26664 4.73332 7.46664 4.46665 7.79998 4.46665C8.13331 4.46665 8.33331 4.66665 8.33331 4.99999V7.73332C8.33331 7.99999 8.53331 8.33332 8.73331 8.46665L10.8 9.66665C11.0666 9.79999 11.1333 10.1333 11 10.3333C10.8 10.5333 10.6666 10.6 10.4666 10.6Z" fill="currentColor"/>
<path d="M6.33331 3.39999C6.13331 3.19999 6.13331 2.86665 6.26664 2.66665L7.59998 0.999987C7.79998 0.799987 8.06664 0.73332 8.33331 0.93332C8.53331 1.06665 8.59998 1.39999 8.39998 1.59999L7.06664 3.26665C6.99998 3.39999 6.79998 3.46665 6.66664 3.46665C6.59998 3.46665 6.46664 3.46665 6.33331 3.39999Z" fill="currentColor"/>
<path d="M1.59998 8.73332C1.59998 7.33332 1.99998 5.99999 2.86664 4.86665C3.06664 4.66665 3.33331 4.59999 3.59998 4.79999C3.86664 4.99999 3.86664 5.26665 3.66664 5.46665C2.93331 6.39999 2.59998 7.53332 2.59998 8.73332C2.59998 11.7333 4.99998 14.1333 7.99998 14.1333C11 14.1333 13.4 11.6667 13.4 8.73332C13.4 5.73332 11 3.33332 7.99998 3.33332C7.59998 3.33332 7.19998 3.39999 6.79998 3.46665C6.53331 3.53332 6.26664 3.33332 6.19998 3.06665C6.13331 2.79999 6.26664 2.53332 6.53331 2.46665C7.06664 2.33332 7.53331 2.26665 7.93331 2.26665C11.4666 2.26665 14.3333 5.13332 14.3333 8.66665C14.3333 12.2 11.4666 15.0667 7.93331 15.0667C4.46664 15.1333 1.59998 12.2667 1.59998 8.73332Z" fill="currentColor"/>
</svg>
