<svg width="16" height="16" viewBox="0 0 16 16" fill="none" xmlns="http://www.w3.org/2000/svg">
<g clip-path="url(#clip0_2_4842)">
<path d="M11.86 15.1667H4.13998C2.31331 15.1667 0.833313 13.68 0.833313 11.8533V6.91333C0.833313 6.00664 1.39331 4.86664 2.11331 4.30664L5.70665 1.50664C6.78665 0.666645 8.51331 0.626645 9.63331 1.41331L13.7533 4.29998C14.5466 4.85331 15.1666 6.03998 15.1666 7.00666V11.86C15.1666 13.68 13.6866 15.1667 11.86 15.1667ZM6.31998 2.29331L2.72665 5.09331C2.25331 5.46664 1.83331 6.31331 1.83331 6.91333V11.8533C1.83331 13.1267 2.86665 14.1667 4.13998 14.1667H11.86C13.1333 14.1667 14.1666 13.1333 14.1666 11.86V7.00666C14.1666 6.36664 13.7066 5.47998 13.18 5.11998L9.05998 2.23331C8.29998 1.69998 7.04665 1.72664 6.31998 2.29331Z" fill="currentColor"/>
<path d="M7.99998 12.5C7.72665 12.5 7.49998 12.2733 7.49998 12V10C7.49998 9.72666 7.72665 9.5 7.99998 9.5C8.27331 9.5 8.49998 9.72666 8.49998 10V12C8.49998 12.2733 8.27331 12.5 7.99998 12.5Z" fill="currentColor"/>
</g>
<defs>
<clipPath id="clip0_2_4842">
<rect width="16" height="16" fill="currentColor"/>
</clipPath>
</defs>
</svg>
