<svg width="16" height="16" viewBox="0 0 16 16" fill="none" xmlns="http://www.w3.org/2000/svg">
<g clip-path="url(#clip0_2_4872)">
<path d="M11.86 15.1601H4.13998C2.31331 15.1601 0.833313 13.6735 0.833313 11.8468V6.9068C0.833313 6.00014 1.39331 4.86014 2.11331 4.30014L5.70665 1.50014C6.78665 0.660136 8.51331 0.620136 9.63331 1.4068L13.7533 4.29347C14.5466 4.8468 15.1666 6.03347 15.1666 7.00013V11.8535C15.1666 13.6735 13.6866 15.1601 11.86 15.1601ZM6.31998 2.2868L2.72665 5.0868C2.25331 5.46014 1.83331 6.3068 1.83331 6.9068V11.8468C1.83331 13.1201 2.86665 14.1601 4.13998 14.1601H11.86C13.1333 14.1601 14.1666 13.1268 14.1666 11.8535V7.00013C14.1666 6.36014 13.7066 5.47347 13.18 5.11347L9.05998 2.2268C8.29998 1.69347 7.04665 1.72014 6.31998 2.2868Z" fill="currentColor"/>
<path d="M11.0001 11.4999C10.8734 11.4999 10.7468 11.4533 10.6468 11.3533L8.28011 8.9866L7.55345 10.0799C7.47345 10.2066 7.33345 10.2866 7.18678 10.2999C7.03345 10.3133 6.88678 10.2599 6.78678 10.1533L4.65345 8.01993C4.46011 7.8266 4.46011 7.5066 4.65345 7.31326C4.84678 7.11993 5.16678 7.11993 5.36011 7.31326L7.06011 9.01326L7.78678 7.91993C7.86678 7.79326 8.00678 7.71326 8.15345 7.69993C8.30678 7.6866 8.45345 7.73993 8.55345 7.8466L11.3534 10.6466C11.5468 10.8399 11.5468 11.1599 11.3534 11.3533C11.2534 11.4533 11.1268 11.4999 11.0001 11.4999Z" fill="currentColor"/>
<path d="M11.0001 11.4999L9.66665 11.5C9.39331 11.5 9.16665 11.2733 9.16665 11C9.16665 10.7267 9.39331 10.5 9.66665 10.5H10.5V9.66666C10.5 9.39333 10.7266 9.16666 11 9.16666C11.2733 9.16666 11.5 9.39333 11.5 9.66666V11C11.5 11.2733 11.2734 11.4999 11.0001 11.4999Z" fill="currentColor"/>
</g>
<defs>
<clipPath id="clip0_2_4872">
<rect width="16" height="16" fill="currentColor"/>
</clipPath>
</defs>
</svg>
