<svg width="16" height="16" viewBox="0 0 16 16" fill="none" xmlns="http://www.w3.org/2000/svg">
<g clip-path="url(#clip0_2_4878)">
<path d="M8.00002 12.5C7.72669 12.5 7.50002 12.2733 7.50002 12V10C7.50002 9.72667 7.72669 9.50001 8.00002 9.50001C8.27335 9.50001 8.50002 9.72667 8.50002 10V12C8.50002 12.2733 8.27335 12.5 8.00002 12.5Z" fill="currentColor"/>
<path d="M11.734 15.0401H4.26731C3.05398 15.0401 1.94731 14.1067 1.74731 12.9134L0.860645 7.60007C0.713978 6.77341 1.12064 5.71339 1.78065 5.18672L6.40065 1.48672C7.29395 0.766721 8.70062 0.773388 9.60062 1.49339L14.2206 5.18672C14.874 5.71339 15.274 6.77341 15.1406 7.60007L14.254 12.9067C14.054 14.0867 12.9206 15.0401 11.734 15.0401ZM7.99395 1.95339C7.64062 1.95339 7.28729 2.06005 7.02729 2.26672L2.40731 5.97339C2.03398 6.27339 1.76731 6.96674 1.84731 7.44007L2.73398 12.7467C2.85398 13.4467 3.55398 14.0401 4.26731 14.0401H11.734C12.4473 14.0401 13.1473 13.4467 13.2673 12.7401L14.154 7.43341C14.2273 6.96674 13.9606 6.26005 13.594 5.96672L8.97395 2.27339C8.70729 2.06005 8.34729 1.95339 7.99395 1.95339Z" fill="currentColor"/>
</g>
<defs>
<clipPath id="clip0_2_4878">
<rect width="16" height="16" fill="currentColor"/>
</clipPath>
</defs>
</svg>
