<svg width="16" height="16" viewBox="0 0 16 16" fill="none" xmlns="http://www.w3.org/2000/svg">
<g clip-path="url(#clip0_2_4876)">
<path d="M11.86 15.1601H4.13998C2.31331 15.1601 0.833313 13.6735 0.833313 11.8468V6.9068C0.833313 6.00014 1.39331 4.86014 2.11331 4.30014L5.70665 1.50014C6.78665 0.660136 8.51331 0.620136 9.63331 1.4068L13.7533 4.29347C14.5466 4.8468 15.1666 6.03347 15.1666 7.00013V11.8535C15.1666 13.6735 13.6866 15.1601 11.86 15.1601ZM6.31998 2.2868L2.72665 5.0868C2.25331 5.46014 1.83331 6.3068 1.83331 6.9068V11.8468C1.83331 13.1201 2.86665 14.1601 4.13998 14.1601H11.86C13.1333 14.1601 14.1666 13.1268 14.1666 11.8535V7.00013C14.1666 6.36014 13.7066 5.47347 13.18 5.11347L9.05998 2.2268C8.29998 1.69347 7.04665 1.72014 6.31998 2.2868Z" fill="currentColor"/>
<path d="M8.99998 12.5H6.99998C5.61998 12.5 4.49998 11.38 4.49998 10V8C4.49998 6.62 5.61998 5.5 6.99998 5.5H8.99998C10.38 5.5 11.5 6.62 11.5 8V10C11.5 11.38 10.38 12.5 8.99998 12.5ZM6.99998 6.5C6.17331 6.5 5.49998 7.17333 5.49998 8V10C5.49998 10.8267 6.17331 11.5 6.99998 11.5H8.99998C9.82665 11.5 10.5 10.8267 10.5 10V8C10.5 7.17333 9.82665 6.5 8.99998 6.5H6.99998Z" fill="currentColor"/>
<path d="M7.99998 12.5C7.72665 12.5 7.49998 12.2733 7.49998 12V6C7.49998 5.72666 7.72665 5.5 7.99998 5.5C8.27331 5.5 8.49998 5.72666 8.49998 6V12C8.49998 12.2733 8.27331 12.5 7.99998 12.5Z" fill="currentColor"/>
<path d="M11 9.5H4.99998C4.72665 9.5 4.49998 9.27333 4.49998 9C4.49998 8.72666 4.72665 8.5 4.99998 8.5H11C11.2733 8.5 11.5 8.72666 11.5 9C11.5 9.27333 11.2733 9.5 11 9.5Z" fill="currentColor"/>
</g>
<defs>
<clipPath id="clip0_2_4876">
<rect width="16" height="16" fill="currentColor"/>
</clipPath>
</defs>
</svg>
