<svg width="16" height="16" viewBox="0 0 16 16" fill="none" xmlns="http://www.w3.org/2000/svg">
<g clip-path="url(#clip0_2_4873)">
<path d="M11.7333 15.0401H4.26657C3.05323 15.0401 1.94657 14.1067 1.74657 12.9067L0.859896 7.60006C0.719896 6.7734 1.1199 5.7134 1.7799 5.18674L6.39991 1.4867C7.29327 0.766702 8.69987 0.773376 9.59987 1.49338L14.2199 5.18674C14.8733 5.7134 15.2733 6.7734 15.1399 7.60006L14.2533 12.9067C14.0533 14.0867 12.9266 15.0401 11.7333 15.0401ZM7.99327 1.96005C7.63994 1.96005 7.28654 2.0667 7.02654 2.27336L2.40657 5.9734C2.02657 6.28006 1.76658 6.96006 1.84658 7.44006L2.73324 12.7467C2.85324 13.4467 3.55323 14.0401 4.26657 14.0401H11.7333C12.4466 14.0401 13.1465 13.4467 13.2665 12.7401L14.1532 7.43339C14.2332 6.95339 13.9666 6.26672 13.5933 5.96672L8.97327 2.27336C8.7066 2.0667 8.35327 1.96005 7.99327 1.96005Z" fill="currentColor"/>
<path d="M8 10.8333C6.80667 10.8333 5.83334 9.85999 5.83334 8.66666C5.83334 7.47333 6.80667 6.5 8 6.5C9.19334 6.5 10.1667 7.47333 10.1667 8.66666C10.1667 9.85999 9.19334 10.8333 8 10.8333ZM8 7.5C7.36 7.5 6.83334 8.02666 6.83334 8.66666C6.83334 9.30666 7.36 9.83333 8 9.83333C8.64 9.83333 9.16667 9.30666 9.16667 8.66666C9.16667 8.02666 8.64 7.5 8 7.5Z" fill="currentColor"/>
</g>
<defs>
<clipPath id="clip0_2_4873">
<rect width="16" height="16" fill="currentColor"/>
</clipPath>
</defs>
</svg>
