<svg width="16" height="16" viewBox="0 0 16 16" fill="none" xmlns="http://www.w3.org/2000/svg">
<g clip-path="url(#clip0_2_4869)">
<path d="M11.7332 15.0399H4.26656C3.05322 15.0399 1.94656 14.1065 1.74656 12.9065L0.859896 7.59994C0.719896 6.77327 1.1199 5.71325 1.7799 5.18658L6.3999 1.48655C7.2932 0.76655 8.69987 0.773223 9.59987 1.49322L14.2199 5.18658C14.8732 5.71325 15.2732 6.77327 15.1399 7.59994L14.2532 12.9065C14.0532 14.0865 12.9265 15.0399 11.7332 15.0399ZM7.9932 1.95986C7.63987 1.95986 7.28654 2.06658 7.02654 2.27325L2.40655 5.9732C2.02655 6.27987 1.76655 6.95994 1.84655 7.43994L2.73323 12.7465C2.85323 13.4465 3.55322 14.0399 4.26656 14.0399H11.7332C12.4465 14.0399 13.1465 13.4465 13.2665 12.7399L14.1532 7.43327C14.2332 6.95327 13.9666 6.26653 13.5933 5.96653L8.9732 2.27325C8.70654 2.06658 8.3532 1.95986 7.9932 1.95986Z" fill="currentColor"/>
<path d="M9.41367 10.0867C9.287 10.0867 9.167 10.04 9.067 9.94667C8.42034 9.32667 7.5804 9.32667 6.92707 9.94667C6.72707 10.14 6.41368 10.1333 6.22035 9.93334C6.02702 9.73334 6.0337 9.41994 6.2337 9.2266C7.267 8.23327 8.71367 8.23327 9.75367 9.2266C9.95367 9.41994 9.96034 9.73334 9.767 9.93334C9.68034 10.0333 9.547 10.0867 9.41367 10.0867Z" fill="currentColor"/>
<path d="M10.8269 8.67334C10.7003 8.67334 10.5736 8.62674 10.4803 8.5334C10.1669 8.22674 9.8136 7.98 9.44027 7.8C8.50694 7.35334 7.48694 7.35334 6.56025 7.8C6.18692 7.98 5.84025 8.22674 5.52025 8.5334C5.32692 8.72674 5.00692 8.72674 4.81358 8.52674C4.62025 8.32674 4.62692 8.01334 4.82026 7.82C5.21359 7.43334 5.65358 7.12667 6.12692 6.9C7.3336 6.32001 8.66694 6.32001 9.86694 6.9C10.3403 7.12667 10.7803 7.43334 11.1736 7.82C11.3736 8.01334 11.3736 8.32674 11.1803 8.52674C11.0869 8.62007 10.9603 8.67334 10.8269 8.67334Z" fill="currentColor"/>
<path d="M8.00034 11.6667C7.827 11.6667 7.66034 11.6 7.527 11.4733C7.267 11.2133 7.267 10.7934 7.527 10.5334C7.787 10.2734 8.21367 10.2734 8.47367 10.5334C8.73367 10.7934 8.73367 11.2133 8.47367 11.4733C8.34034 11.6 8.17367 11.6667 8.00034 11.6667Z" fill="currentColor"/>
</g>
<defs>
<clipPath id="clip0_2_4869">
<rect width="16" height="16" fill="currentColor"/>
</clipPath>
</defs>
</svg>
