<svg width="16" height="16" viewBox="0 0 16 16" fill="none" xmlns="http://www.w3.org/2000/svg">
<g clip-path="url(#clip0_2_4870)">
<path d="M11.86 15.1601H4.13998C2.31331 15.1601 0.833313 13.6735 0.833313 11.8468V6.9068C0.833313 6.00014 1.39331 4.86014 2.11331 4.30014L5.70665 1.50014C6.78665 0.660136 8.51331 0.620136 9.63331 1.4068L13.7533 4.29347C14.5466 4.8468 15.1666 6.03347 15.1666 7.00013V11.8535C15.1666 13.6735 13.6866 15.1601 11.86 15.1601ZM6.31998 2.2868L2.72665 5.0868C2.25331 5.46014 1.83331 6.3068 1.83331 6.9068V11.8468C1.83331 13.1201 2.86665 14.1601 4.13998 14.1601H11.86C13.1333 14.1601 14.1666 13.1268 14.1666 11.8535V7.00013C14.1666 6.36014 13.7066 5.47347 13.18 5.11347L9.05998 2.2268C8.29998 1.69347 7.04665 1.72014 6.31998 2.2868Z" fill="currentColor"/>
<path d="M5.00027 11.4999C4.8736 11.4999 4.74693 11.4533 4.64693 11.3533C4.4536 11.1599 4.4536 10.8399 4.64693 10.6466L6.78025 8.51326C6.88691 8.4066 7.02691 8.35326 7.18025 8.3666C7.32691 8.37993 7.46025 8.45993 7.54691 8.5866L8.27358 9.67993L10.6402 7.31326C10.8336 7.11993 11.1536 7.11993 11.3469 7.31326C11.5402 7.5066 11.5402 7.8266 11.3469 8.01993L8.54691 10.8199C8.44025 10.9266 8.30025 10.9799 8.14691 10.9666C8.00025 10.9533 7.86691 10.8733 7.78025 10.7466L7.05358 9.65326L5.3536 11.3533C5.2536 11.4533 5.12693 11.4999 5.00027 11.4999Z" fill="currentColor"/>
<path d="M11 9.5C10.7266 9.5 10.5 9.27333 10.5 9V8.16666H9.66665C9.39331 8.16666 9.16665 7.94 9.16665 7.66666C9.16665 7.39333 9.39331 7.16666 9.66665 7.16666H11C11.2733 7.16666 11.5 7.39333 11.5 7.66666V9C11.5 9.27333 11.2733 9.5 11 9.5Z" fill="currentColor"/>
</g>
<defs>
<clipPath id="clip0_2_4870">
<rect width="16" height="16" fill="currentColor"/>
</clipPath>
</defs>
</svg>
