<svg width="16" height="16" viewBox="0 0 16 16" fill="none" xmlns="http://www.w3.org/2000/svg">
<g clip-path="url(#clip0_2_4866)">
<path d="M14.6666 15.1667H1.33331C1.05998 15.1667 0.833313 14.94 0.833313 14.6667C0.833313 14.3933 1.05998 14.1667 1.33331 14.1667H14.6666C14.94 14.1667 15.1666 14.3933 15.1666 14.6667C15.1666 14.94 14.94 15.1667 14.6666 15.1667Z" fill="currentColor"/>
<path d="M14 15.1667H1.99998C1.72665 15.1667 1.49998 14.94 1.49998 14.6667V4C1.49998 1.98667 2.65331 0.833336 4.66665 0.833336H11.3333C13.3466 0.833336 14.5 1.98667 14.5 4V14.6667C14.5 14.94 14.2733 15.1667 14 15.1667ZM2.49998 14.1667H13.5V4C13.5 2.52 12.8133 1.83334 11.3333 1.83334H4.66665C3.18665 1.83334 2.49998 2.52 2.49998 4V14.1667Z" fill="currentColor"/>
<path d="M9.99998 15.1667H5.99998C5.72665 15.1667 5.49998 14.94 5.49998 14.6667V10.6267C5.49998 10.0067 6.00665 9.5 6.62665 9.5H9.37998C9.99998 9.5 10.5066 10.0067 10.5066 10.6267V14.6667C10.5 14.94 10.2733 15.1667 9.99998 15.1667ZM9.49998 14.1667V10.6267C9.49998 10.56 9.44665 10.5 9.37331 10.5H6.61997C6.55331 10.5 6.49332 10.5533 6.49332 10.6267V14.1667H9.49998Z" fill="currentColor"/>
<path d="M7.99998 7.83334C7.72665 7.83334 7.49998 7.60667 7.49998 7.33334V4C7.49998 3.72667 7.72665 3.5 7.99998 3.5C8.27331 3.5 8.49998 3.72667 8.49998 4V7.33334C8.49998 7.60667 8.27331 7.83334 7.99998 7.83334Z" fill="currentColor"/>
<path d="M9.66665 6.16667H6.33331C6.05998 6.16667 5.83331 5.94 5.83331 5.66667C5.83331 5.39334 6.05998 5.16667 6.33331 5.16667H9.66665C9.93998 5.16667 10.1666 5.39334 10.1666 5.66667C10.1666 5.94 9.93998 6.16667 9.66665 6.16667Z" fill="currentColor"/>
</g>
<defs>
<clipPath id="clip0_2_4866">
<rect width="16" height="16" fill="currentColor"/>
</clipPath>
</defs>
</svg>
