<svg width="16" height="16" viewBox="0 0 16 16" fill="none" xmlns="http://www.w3.org/2000/svg">
<path d="M14.6666 15.1667H1.33331C1.05998 15.1667 0.833313 14.94 0.833313 14.6667C0.833313 14.3933 1.05998 14.1667 1.33331 14.1667H14.6666C14.94 14.1667 15.1666 14.3933 15.1666 14.6667C15.1666 14.94 14.94 15.1667 14.6666 15.1667Z" fill="currentColor"/>
<path d="M2.46678 14.6665H1.46678L1.50011 6.64648C1.50011 6.07981 1.76011 5.55316 2.20678 5.2065L6.87345 1.57316C7.53345 1.05982 8.46011 1.05982 9.12678 1.57316L13.7934 5.19982C14.2334 5.54649 14.5001 6.08648 14.5001 6.64648V14.6665H13.5001V6.65315C13.5001 6.39982 13.3801 6.15316 13.1801 5.99316L8.51345 2.36649C8.21345 2.13316 7.79345 2.13316 7.48678 2.36649L2.82011 5.99983C2.62011 6.15316 2.50011 6.39982 2.50011 6.65315L2.46678 14.6665Z" fill="currentColor"/>
<path d="M9.66665 15.1667H6.33331C6.05998 15.1667 5.83331 14.94 5.83331 14.6667V12.3333C5.83331 11.5067 6.50665 10.8333 7.33331 10.8333H8.66665C9.49331 10.8333 10.1666 11.5067 10.1666 12.3333V14.6667C10.1666 14.94 9.93998 15.1667 9.66665 15.1667ZM6.83331 14.1667H9.16665V12.3333C9.16665 12.06 8.93998 11.8333 8.66665 11.8333H7.33331C7.05998 11.8333 6.83331 12.06 6.83331 12.3333V14.1667Z" fill="currentColor"/>
<path d="M6.33331 9.66667H4.99998C4.35998 9.66667 3.83331 9.14 3.83331 8.5V7.5C3.83331 6.86 4.35998 6.33334 4.99998 6.33334H6.33331C6.97331 6.33334 7.49998 6.86 7.49998 7.5V8.5C7.49998 9.14 6.97331 9.66667 6.33331 9.66667ZM4.99998 7.33334C4.90665 7.33334 4.83331 7.40667 4.83331 7.5V8.5C4.83331 8.59334 4.90665 8.66667 4.99998 8.66667H6.33331C6.42665 8.66667 6.49998 8.59334 6.49998 8.5V7.5C6.49998 7.40667 6.42665 7.33334 6.33331 7.33334H4.99998Z" fill="currentColor"/>
<path d="M11 9.66667H9.66665C9.02665 9.66667 8.49998 9.14 8.49998 8.5V7.5C8.49998 6.86 9.02665 6.33334 9.66665 6.33334H11C11.64 6.33334 12.1666 6.86 12.1666 7.5V8.5C12.1666 9.14 11.64 9.66667 11 9.66667ZM9.66665 7.33334C9.57331 7.33334 9.49998 7.40667 9.49998 7.5V8.5C9.49998 8.59334 9.57331 8.66667 9.66665 8.66667H11C11.0933 8.66667 11.1666 8.59334 11.1666 8.5V7.5C11.1666 7.40667 11.0933 7.33334 11 7.33334H9.66665Z" fill="currentColor"/>
<path d="M12.6667 5.16667C12.3934 5.16667 12.1667 4.94668 12.1667 4.67334L12.1534 3.16667H9.72005C9.44671 3.16667 9.22005 2.94 9.22005 2.66667C9.22005 2.39334 9.44671 2.16667 9.72005 2.16667H12.6534C12.9267 2.16667 13.1534 2.38666 13.1534 2.66L13.1734 4.66C13.1667 4.94 12.9467 5.16667 12.6667 5.16667Z" fill="currentColor"/>
</svg>
