<svg width="16" height="16" viewBox="0 0 16 16" fill="none" xmlns="http://www.w3.org/2000/svg">
<path d="M14.6667 15.1667H1.33334C1.06001 15.1667 0.833344 14.94 0.833344 14.6667C0.833344 14.3933 1.06001 14.1667 1.33334 14.1667H14.6667C14.94 14.1667 15.1667 14.3933 15.1667 14.6667C15.1667 14.94 14.94 15.1667 14.6667 15.1667Z" fill="currentColor"/>
<path d="M2.46681 14.6665H1.46681L1.50014 6.64648C1.50014 6.07981 1.76014 5.55316 2.20681 5.2065L6.87348 1.57316C7.53348 1.05982 8.46014 1.05982 9.12681 1.57316L13.7935 5.19982C14.2335 5.54649 14.5001 6.08648 14.5001 6.64648V14.6665H13.5001V6.65315C13.5001 6.39982 13.3801 6.15316 13.1801 5.99316L8.51348 2.36649C8.21348 2.13316 7.79348 2.13316 7.48681 2.36649L2.82014 5.99983C2.62014 6.15316 2.50014 6.39982 2.50014 6.65315L2.46681 14.6665Z" fill="currentColor"/>
<path d="M11.3333 15.1667H4.66668C4.39334 15.1667 4.16668 14.94 4.16668 14.6667V8.33334C4.16668 7.50667 4.84001 6.83334 5.66668 6.83334H10.3333C11.16 6.83334 11.8333 7.50667 11.8333 8.33334V14.6667C11.8333 14.94 11.6067 15.1667 11.3333 15.1667ZM5.16668 14.1667H10.8333V8.33334C10.8333 8.06 10.6067 7.83334 10.3333 7.83334H5.66668C5.39334 7.83334 5.16668 8.06 5.16668 8.33334V14.1667Z" fill="currentColor"/>
<path d="M6.66668 12.3333C6.39334 12.3333 6.16668 12.1067 6.16668 11.8333V10.8333C6.16668 10.56 6.39334 10.3333 6.66668 10.3333C6.94001 10.3333 7.16668 10.56 7.16668 10.8333V11.8333C7.16668 12.1067 6.94001 12.3333 6.66668 12.3333Z" fill="currentColor"/>
<path d="M9.00001 5.5H7.00001C6.72668 5.5 6.50001 5.27334 6.50001 5C6.50001 4.72667 6.72668 4.5 7.00001 4.5H9.00001C9.27334 4.5 9.50001 4.72667 9.50001 5C9.50001 5.27334 9.27334 5.5 9.00001 5.5Z" fill="currentColor"/>
</svg>
