<svg width="16" height="16" viewBox="0 0 16 16" fill="none" xmlns="http://www.w3.org/2000/svg">
<path d="M8.00033 15.1667C4.74701 15.1667 2.10033 12.52 2.10033 9.26667C2.08033 5.44667 5.72033 2.26667 7.28699 1.07334C7.70699 0.753336 8.29366 0.753336 8.71366 1.07334C10.2803 2.28667 13.9203 5.50667 13.9003 9.27334C13.9003 12.52 11.2537 15.1667 8.00033 15.1667ZM8.00033 1.83334C7.96699 1.83334 7.92699 1.84667 7.89366 1.87334C6.76699 2.73334 3.08701 5.80667 3.10701 9.26667C3.10701 11.9733 5.30701 14.1667 8.00699 14.1667C10.707 14.1667 12.907 11.9733 12.907 9.27334C12.927 5.86 9.24032 2.74667 8.10699 1.87334C8.06699 1.84667 8.03366 1.83334 8.00033 1.83334Z" fill="currentColor"/>
</svg>
