<svg width="16" height="16" viewBox="0 0 16 16" fill="none" xmlns="http://www.w3.org/2000/svg">
<g clip-path="url(#clip0_2_4864)">
<path d="M12.2405 15.1666H3.72724C2.71391 15.1666 1.78724 14.6533 1.25391 13.7866C0.720572 12.9199 0.673905 11.8666 1.12724 10.9533L2.27391 8.65327C2.64724 7.9066 3.24724 7.43994 3.92057 7.3666C4.5939 7.29327 5.28057 7.6266 5.80057 8.27327L5.94724 8.45994C6.24057 8.81994 6.58057 9.01327 6.91388 8.97994C7.24721 8.95327 7.55388 8.71327 7.78055 8.3066L9.04054 6.03329C9.56054 5.09329 10.2539 4.60662 11.0072 4.63996C11.7539 4.67996 12.3939 5.23996 12.8205 6.22662L14.9072 11.0999C15.2939 11.9999 15.2005 13.0266 14.6605 13.8466C14.1272 14.6799 13.2205 15.1666 12.2405 15.1666ZM4.10724 8.3666C4.08057 8.3666 4.05391 8.3666 4.02724 8.37327C3.69391 8.4066 3.38724 8.67327 3.16724 9.1066L2.02057 11.4066C1.72057 11.9999 1.75391 12.6999 2.10057 13.2666C2.44724 13.8333 3.06057 14.1733 3.72724 14.1733H12.2339C12.8872 14.1733 13.4672 13.8599 13.8272 13.3133C14.1872 12.7666 14.2472 12.1133 13.9872 11.5133L11.9005 6.63996C11.6472 6.03996 11.2939 5.67329 10.9539 5.65996C10.6405 5.63996 10.2339 5.97329 9.91388 6.53996L8.65388 8.81327C8.26721 9.5066 7.66054 9.93994 7.00055 9.99994C6.34057 10.0533 5.66724 9.73327 5.16724 9.1066L5.02057 8.91994C4.74057 8.55327 4.42057 8.3666 4.10724 8.3666Z" fill="currentColor"/>
<path d="M4.64715 5.83334C3.27381 5.83334 2.14715 4.71334 2.14715 3.33334C2.14715 1.95334 3.26715 0.833336 4.64715 0.833336C6.02714 0.833336 7.14715 1.95334 7.14715 3.33334C7.14715 4.71334 6.02714 5.83334 4.64715 5.83334ZM4.64715 1.83334C3.82048 1.83334 3.14715 2.50667 3.14715 3.33334C3.14715 4.16 3.82048 4.83334 4.64715 4.83334C5.47381 4.83334 6.14715 4.16 6.14715 3.33334C6.14715 2.50667 5.47381 1.83334 4.64715 1.83334Z" fill="currentColor"/>
</g>
<defs>
<clipPath id="clip0_2_4864">
<rect width="16" height="16" fill="currentColor"/>
</clipPath>
</defs>
</svg>
