<svg width="16" height="16" viewBox="0 0 16 16" fill="none" xmlns="http://www.w3.org/2000/svg">
<path d="M7.91986 9.9934C7.79319 9.9934 7.66652 9.94673 7.56652 9.84673L5.85984 8.14006C5.6665 7.94673 5.6665 7.62673 5.85984 7.4334C6.05317 7.24006 6.37317 7.24006 6.5665 7.4334L7.91986 8.78673L9.27319 7.4334C9.46652 7.24006 9.78652 7.24006 9.97986 7.4334C10.1732 7.62673 10.1732 7.94673 9.97986 8.14006L8.27319 9.84673C8.17319 9.94673 8.04652 9.9934 7.91986 9.9934Z" fill="currentColor"/>
<path d="M7.92059 9.94666C7.64726 9.94666 7.42059 9.72 7.42059 9.44666V2.66666C7.42059 2.39333 7.64726 2.16666 7.92059 2.16666C8.19392 2.16666 8.42059 2.39333 8.42059 2.66666V9.44666C8.42059 9.72 8.19392 9.94666 7.92059 9.94666Z" fill="currentColor"/>
<path d="M7.99999 13.9533C4.56666 13.9533 2.16666 11.5533 2.16666 8.11993C2.16666 7.8466 2.39332 7.61993 2.66666 7.61993C2.93999 7.61993 3.16666 7.8466 3.16666 8.11993C3.16666 10.9666 5.15332 12.9533 7.99999 12.9533C10.8467 12.9533 12.8333 10.9666 12.8333 8.11993C12.8333 7.8466 13.06 7.61993 13.3333 7.61993C13.6067 7.61993 13.8333 7.8466 13.8333 8.11993C13.8333 11.5533 11.4333 13.9533 7.99999 13.9533Z" fill="currentColor"/>
</svg>
