<svg width="16" height="16" viewBox="0 0 16 16" fill="none" xmlns="http://www.w3.org/2000/svg">
<path d="M10.1737 14.8333H5.82699C2.55366 14.8333 1.15366 13.4333 1.15366 10.16V10.0733C1.15366 7.11334 2.32032 5.68669 4.93366 5.44002C5.20032 5.42002 5.45366 5.62002 5.48032 5.89336C5.50699 6.16669 5.30699 6.41336 5.02699 6.44002C2.93366 6.63336 2.15366 7.62 2.15366 10.08V10.1667C2.15366 12.88 3.11366 13.84 5.82699 13.84H10.1737C12.887 13.84 13.847 12.88 13.847 10.1667V10.08C13.847 7.60667 13.0537 6.62002 10.9203 6.44002C10.647 6.41336 10.4403 6.17336 10.467 5.90002C10.4937 5.62669 10.727 5.42002 11.007 5.44669C13.6603 5.67336 14.847 7.10667 14.847 10.0867V10.1733C14.847 13.4333 13.447 14.8333 10.1737 14.8333Z" fill="currentColor"/>
<path d="M8.00001 10.42C7.72668 10.42 7.50001 10.1933 7.50001 9.92V1.33334C7.50001 1.06 7.72668 0.833336 8.00001 0.833336C8.27334 0.833336 8.50001 1.06 8.50001 1.33334V9.92C8.50001 10.2 8.27334 10.42 8.00001 10.42Z" fill="currentColor"/>
<path d="M7.99988 11.1667C7.87321 11.1667 7.74654 11.1201 7.64654 11.0201L5.41324 8.78674C5.2199 8.5934 5.2199 8.2734 5.41324 8.08007C5.60657 7.88674 5.92657 7.88674 6.1199 8.08007L7.99988 9.96007L9.87988 8.08007C10.0732 7.88674 10.3932 7.88674 10.5865 8.08007C10.7799 8.2734 10.7799 8.5934 10.5865 8.78674L8.35321 11.0201C8.25321 11.1201 8.12654 11.1667 7.99988 11.1667Z" fill="currentColor"/>
</svg>
