<svg width="16" height="16" viewBox="0 0 16 16" fill="none" xmlns="http://www.w3.org/2000/svg">
<g clip-path="url(#clip0_2_5360)">
<path d="M9.20014 7.29994C9.07348 7.29994 8.94681 7.25327 8.84681 7.15327C8.65348 6.95994 8.65348 6.63996 8.84681 6.44663L14.3135 0.979963C14.5068 0.786629 14.8268 0.786629 15.0201 0.979963C15.2135 1.1733 15.2135 1.4933 15.0201 1.68663L9.55348 7.15327C9.46014 7.2466 9.33348 7.29994 9.20014 7.29994Z" fill="currentColor"/>
<path d="M11.8867 7.83327H8.66668C8.39334 7.83327 8.16668 7.6066 8.16668 7.33327V4.11328C8.16668 3.83995 8.39334 3.61328 8.66668 3.61328C8.94001 3.61328 9.16668 3.83995 9.16668 4.11328V6.83327H11.8867C12.16 6.83327 12.3867 7.05994 12.3867 7.33327C12.3867 7.6066 12.16 7.83327 11.8867 7.83327Z" fill="currentColor"/>
<path d="M10 15.1667H6.00001C2.38001 15.1667 0.833344 13.62 0.833344 10V6C0.833344 2.38 2.38001 0.833336 6.00001 0.833336H7.33334C7.60668 0.833336 7.83334 1.06 7.83334 1.33334C7.83334 1.60667 7.60668 1.83334 7.33334 1.83334H6.00001C2.92668 1.83334 1.83334 2.92667 1.83334 6V10C1.83334 13.0733 2.92668 14.1667 6.00001 14.1667H10C13.0733 14.1667 14.1667 13.0733 14.1667 10V8.66667C14.1667 8.39334 14.3933 8.16667 14.6667 8.16667C14.94 8.16667 15.1667 8.39334 15.1667 8.66667V10C15.1667 13.62 13.62 15.1667 10 15.1667Z" fill="currentColor"/>
</g>
<defs>
<clipPath id="clip0_2_5360">
<rect width="16" height="16" fill="currentColor"/>
</clipPath>
</defs>
</svg>
