<svg width="16" height="16" viewBox="0 0 16 16" fill="none" xmlns="http://www.w3.org/2000/svg">
<g clip-path="url(#clip0_2_4860)">
<path d="M8.00608 15.1601C7.58608 15.1601 7.17274 15.0201 6.84608 14.7401L5.79277 13.8401C5.6861 13.7467 5.41944 13.6534 5.27944 13.6534H4.11277C3.1261 13.6534 2.3261 12.8534 2.3261 11.8667V10.7267C2.3261 10.5867 2.23277 10.3201 2.1461 10.2201L1.23944 9.1534C0.692771 8.50673 0.692771 7.4934 1.23944 6.84007L2.1461 5.77338C2.23277 5.67338 2.3261 5.40671 2.3261 5.26671V4.13338C2.3261 3.14671 3.1261 2.34671 4.11277 2.34671H5.2661C5.4061 2.34671 5.6661 2.24671 5.77944 2.15338L6.83274 1.25338C7.48608 0.700046 8.50608 0.700046 9.15941 1.25338L10.2127 2.15338C10.3194 2.24671 10.5927 2.34005 10.7327 2.34005H11.8661C12.8527 2.34005 13.6527 3.14005 13.6527 4.12671V5.26005C13.6527 5.40005 13.7527 5.66005 13.8461 5.77338L14.7461 6.82673C15.3061 7.48673 15.2994 8.50673 14.7461 9.1534L13.8461 10.2067C13.7527 10.3201 13.6594 10.5801 13.6594 10.7201V11.8534C13.6594 12.8401 12.8594 13.6401 11.8727 13.6401H10.7394C10.5994 13.6401 10.3394 13.7401 10.2194 13.8334L9.16608 14.7334C8.83941 15.0201 8.41941 15.1601 8.00608 15.1601ZM4.11277 3.34671C3.67944 3.34671 3.3261 3.70005 3.3261 4.13338V5.26671C3.3261 5.64671 3.15277 6.12671 2.9061 6.42004L1.99944 7.48673C1.77277 7.76006 1.77277 8.24007 1.99944 8.50673L2.89944 9.56673C3.13944 9.84006 3.31944 10.3401 3.31944 10.7201V11.8601C3.31944 12.2934 3.67277 12.6467 4.1061 12.6467H5.2661C5.63944 12.6467 6.13277 12.8267 6.4261 13.0734L7.48608 13.9801C7.75941 14.2134 8.23941 14.2134 8.51274 13.9801L9.56608 13.0801C9.86608 12.8267 10.3527 12.6534 10.7261 12.6534H11.8594C12.2927 12.6534 12.6461 12.3001 12.6461 11.8667V10.7334C12.6461 10.3601 12.8261 9.8734 13.0727 9.5734L13.9794 8.5134C14.2127 8.24006 14.2127 7.76006 13.9794 7.48673L13.0794 6.43338C12.8261 6.13338 12.6527 5.64671 12.6527 5.27338V4.13338C12.6527 3.70005 12.2994 3.34671 11.8661 3.34671H10.7327C10.3527 3.34671 9.85941 3.16671 9.56608 2.92005L8.50608 2.01338C8.23274 1.78005 7.75941 1.78005 7.47941 2.01338L6.43277 2.92005C6.13277 3.16671 5.6461 3.34671 5.2661 3.34671H4.11277Z" fill="currentColor"/>
<path d="M8.00001 11.2467C7.63334 11.2467 7.33334 10.9467 7.33334 10.5801C7.33334 10.2134 7.62668 9.9134 8.00001 9.9134C8.36668 9.9134 8.66668 10.2134 8.66668 10.5801C8.66668 10.9467 8.37334 11.2467 8.00001 11.2467Z" fill="currentColor"/>
<path d="M8.00001 9.1466C7.72668 9.1466 7.50001 8.91993 7.50001 8.6466V5.41992C7.50001 5.14658 7.72668 4.91992 8.00001 4.91992C8.27334 4.91992 8.50001 5.14658 8.50001 5.41992V8.63993C8.50001 8.91993 8.28001 9.1466 8.00001 9.1466Z" fill="currentColor"/>
</g>
<defs>
<clipPath id="clip0_2_4860">
<rect width="16" height="16" fill="currentColor"/>
</clipPath>
</defs>
</svg>
