<svg width="16" height="16" viewBox="0 0 16 16" fill="none" xmlns="http://www.w3.org/2000/svg">
<g clip-path="url(#clip0_2_5281)">
<path d="M9.99999 15.1667H5.99999C2.37999 15.1667 0.833328 13.62 0.833328 10V6C0.833328 2.38 2.37999 0.833336 5.99999 0.833336H9.99999C13.62 0.833336 15.1667 2.38 15.1667 6V10C15.1667 13.62 13.62 15.1667 9.99999 15.1667ZM5.99999 1.83334C2.92666 1.83334 1.83333 2.92667 1.83333 6V10C1.83333 13.0733 2.92666 14.1667 5.99999 14.1667H9.99999C13.0733 14.1667 14.1667 13.0733 14.1667 10V6C14.1667 2.92667 13.0733 1.83334 9.99999 1.83334H5.99999Z" fill="currentColor"/>
<path d="M7.99999 10.8333C6.43999 10.8333 5.16666 9.56 5.16666 8C5.16666 6.44 6.43999 5.16667 7.99999 5.16667C9.55999 5.16667 10.8333 6.44 10.8333 8C10.8333 9.56 9.55999 10.8333 7.99999 10.8333ZM7.99999 6.16667C6.98666 6.16667 6.16666 6.98667 6.16666 8C6.16666 9.01334 6.98666 9.83333 7.99999 9.83333C9.01333 9.83333 9.83333 9.01334 9.83333 8C9.83333 6.98667 9.01333 6.16667 7.99999 6.16667Z" fill="currentColor"/>
<path d="M11.3333 4.99994C11.2467 4.99994 11.16 4.97994 11.08 4.9466C11 4.91327 10.9267 4.8666 10.86 4.8066C10.8 4.73994 10.7467 4.6666 10.7133 4.5866C10.68 4.5066 10.6667 4.41994 10.6667 4.33327C10.6667 4.2466 10.68 4.15994 10.7133 4.07994C10.7533 3.99327 10.8 3.9266 10.86 3.85994C10.8933 3.83327 10.9267 3.79994 10.96 3.77994C11 3.75327 11.04 3.73327 11.08 3.71994C11.12 3.69994 11.16 3.6866 11.2067 3.67994C11.42 3.63327 11.6467 3.7066 11.8067 3.85994C11.8667 3.9266 11.9133 3.99327 11.9467 4.07994C11.98 4.15994 12 4.2466 12 4.33327C12 4.41994 11.98 4.5066 11.9467 4.5866C11.9133 4.6666 11.8667 4.73994 11.8067 4.8066C11.74 4.8666 11.6667 4.91327 11.5867 4.9466C11.5067 4.97994 11.42 4.99994 11.3333 4.99994Z" fill="currentColor"/>
</g>
<defs>
<clipPath id="clip0_2_5281">
<rect width="16" height="16" fill="currentColor"/>
</clipPath>
</defs>
</svg>
