<svg width="16" height="16" viewBox="0 0 16 16" fill="none" xmlns="http://www.w3.org/2000/svg">
<path d="M13.34 12.84C13.2133 12.84 13.0867 12.7933 12.9867 12.6933L9.68666 9.39333C9.49333 9.2 9.49333 8.88 9.68666 8.68667C9.88 8.49333 10.2 8.49333 10.3933 8.68667L13.6933 11.9867C13.8867 12.18 13.8867 12.5 13.6933 12.6933C13.5933 12.7933 13.4667 12.84 13.34 12.84Z" fill="currentColor"/>
<path d="M6.73966 12.2868C6.25297 12.2868 5.7863 12.0935 5.4463 11.7468L2.61963 8.92013C1.90629 8.2068 1.90629 7.04013 2.61963 6.32677L7.333 1.61345C8.04633 0.90012 9.213 0.90012 9.92633 1.61345L12.753 4.44011C13.0997 4.78678 13.293 5.24678 13.293 5.73345C13.293 6.22011 13.0997 6.6868 12.753 7.0268L8.03966 11.7401C7.693 12.1001 7.233 12.2868 6.73966 12.2868ZM8.62633 2.08011C8.413 2.08011 8.19966 2.1601 8.03966 2.32677L3.32631 7.04013C2.99964 7.3668 2.99964 7.8934 3.32631 8.22007L6.15297 11.0468C6.4663 11.3601 7.013 11.3601 7.333 11.0468L12.0463 6.33344C12.2063 6.17344 12.293 5.96677 12.293 5.74677C12.293 5.52677 12.2063 5.31343 12.0463 5.1601L9.21966 2.33344C9.053 2.16011 8.83966 2.08011 8.62633 2.08011Z" fill="currentColor"/>
<path d="M5.33333 14.5H1.33333C1.05999 14.5 0.833328 14.2733 0.833328 14C0.833328 13.7267 1.05999 13.5 1.33333 13.5H5.33333C5.60666 13.5 5.83333 13.7267 5.83333 14C5.83333 14.2733 5.60666 14.5 5.33333 14.5Z" fill="currentColor"/>
<path d="M9.08666 10.4932C8.96 10.4932 8.83333 10.4465 8.73333 10.3465L4.02 5.63324C3.82666 5.43991 3.82666 5.11991 4.02 4.92657C4.21333 4.73324 4.53333 4.73324 4.72666 4.92657L9.43999 9.63987C9.63333 9.8332 9.63333 10.1532 9.43999 10.3465C9.34666 10.4465 9.21333 10.4932 9.08666 10.4932Z" fill="currentColor"/>
</svg>
