<svg width="16" height="16" viewBox="0 0 16 16" fill="none" xmlns="http://www.w3.org/2000/svg">
<g clip-path="url(#clip0_2_4857)">
<path d="M5.51333 15.1667H2.81999C1.47999 15.1667 0.833328 14.5467 0.833328 13.2667V2.73334C0.833328 1.45334 1.48666 0.833336 2.81999 0.833336H5.51333C6.85333 0.833336 7.49999 1.45334 7.49999 2.73334V13.2667C7.49999 14.5467 6.84666 15.1667 5.51333 15.1667ZM2.81999 1.83334C1.97333 1.83334 1.83333 2.06 1.83333 2.73334V13.2667C1.83333 13.94 1.97333 14.1667 2.81999 14.1667H5.51333C6.36 14.1667 6.49999 13.94 6.49999 13.2667V2.73334C6.49999 2.06 6.36 1.83334 5.51333 1.83334H2.81999Z" fill="currentColor"/>
<path d="M13.18 10.5H10.4867C9.14666 10.5 8.49999 9.88 8.49999 8.6V2.73334C8.49999 1.45334 9.15333 0.833336 10.4867 0.833336H13.18C14.52 0.833336 15.1667 1.45334 15.1667 2.73334V8.6C15.1667 9.88 14.5133 10.5 13.18 10.5ZM10.4867 1.83334C9.63999 1.83334 9.49999 2.06 9.49999 2.73334V8.6C9.49999 9.27334 9.63999 9.5 10.4867 9.5H13.18C14.0267 9.5 14.1667 9.27334 14.1667 8.6V2.73334C14.1667 2.06 14.0267 1.83334 13.18 1.83334H10.4867Z" fill="currentColor"/>
</g>
<defs>
<clipPath id="clip0_2_4857">
<rect width="16" height="16" fill="currentColor"/>
</clipPath>
</defs>
</svg>
