<svg width="16" height="16" viewBox="0 0 16 16" fill="none" xmlns="http://www.w3.org/2000/svg">
<g clip-path="url(#clip0_2_4852)">
<path d="M10 15.1667H6C2.38 15.1667 0.833333 13.62 0.833333 10V6C0.833333 2.38 2.38 0.833336 6 0.833336H10C13.62 0.833336 15.1667 2.38 15.1667 6V10C15.1667 13.62 13.62 15.1667 10 15.1667ZM6 1.83334C2.92667 1.83334 1.83333 2.92667 1.83333 6V10C1.83333 13.0733 2.92667 14.1667 6 14.1667H10C13.0733 14.1667 14.1667 13.0733 14.1667 10V6C14.1667 2.92667 13.0733 1.83334 10 1.83334H6Z" fill="currentColor"/>
<path d="M5.87316 12.1667C5.82649 12.1667 5.77316 12.1667 5.72649 12.1534L4.93316 12.0467C4.45316 11.9801 4.03316 11.5667 3.95983 11.0734L3.84649 10.2667C3.79983 9.94674 3.93316 9.54007 4.16649 9.30007L5.68649 7.78007C5.45983 6.70007 5.78649 5.58005 6.57983 4.79338C7.85313 3.52005 9.93313 3.52005 11.2065 4.79338C11.8265 5.41338 12.1665 6.23338 12.1665 7.10674C12.1665 7.98007 11.8265 8.80674 11.2065 9.42007C10.4131 10.2067 9.29313 10.5334 8.2198 10.3067L6.69313 11.8267C6.49983 12.0334 6.17316 12.1667 5.87316 12.1667ZM8.89313 4.83338C8.31313 4.83338 7.72647 5.05338 7.28647 5.50005C6.68647 6.10005 6.47316 6.9734 6.7198 7.78674C6.77313 7.96674 6.72647 8.1534 6.59316 8.28674L4.87316 10.0067C4.85983 10.0267 4.83316 10.1001 4.83316 10.1267L4.94649 10.9267C4.95316 10.9667 5.02649 11.0401 5.06649 11.0467L5.86649 11.1601C5.89983 11.1534 5.96649 11.1401 5.98649 11.1201L7.71313 9.3934C7.84647 9.26007 8.0398 9.22007 8.21313 9.2734C9.0198 9.52674 9.89313 9.3134 10.4931 8.7134C10.9198 8.28674 11.1598 7.7134 11.1598 7.10674C11.1598 6.50005 10.9265 5.92672 10.4931 5.50005C10.0598 5.06005 9.47313 4.83338 8.89313 4.83338Z" fill="currentColor"/>
<path d="M6.9662 11.3534C6.83953 11.3534 6.71287 11.3067 6.61287 11.2067L6.03953 10.6334C5.8462 10.4401 5.8462 10.1201 6.03953 9.92673C6.23287 9.7334 6.55287 9.7334 6.7462 9.92673L7.31953 10.5001C7.51287 10.6934 7.51287 11.0134 7.31953 11.2067C7.2262 11.3067 7.09953 11.3534 6.9662 11.3534Z" fill="currentColor"/>
<path d="M8.9194 7.86674C8.82607 7.86674 8.7394 7.8534 8.6594 7.82007C8.5794 7.78674 8.50607 7.7334 8.44607 7.6734C8.3194 7.54674 8.24607 7.38007 8.24607 7.20007C8.24607 7.02674 8.3194 6.8534 8.44607 6.7334C8.5994 6.57342 8.83273 6.50008 9.04607 6.54675C9.08607 6.56008 9.13273 6.56675 9.17273 6.58675C9.21273 6.60675 9.25273 6.62675 9.28607 6.64675C9.3194 6.6734 9.3594 6.70007 9.38607 6.7334C9.51273 6.8534 9.58607 7.02674 9.58607 7.20007C9.58607 7.2934 9.56607 7.3734 9.53273 7.46007C9.4994 7.54007 9.45273 7.6134 9.38607 7.6734C9.2594 7.80007 9.09273 7.86674 8.9194 7.86674Z" fill="currentColor"/>
</g>
<defs>
<clipPath id="clip0_2_4852">
<rect width="16" height="16" fill="currentColor"/>
</clipPath>
</defs>
</svg>
