<svg width="16" height="16" viewBox="0 0 16 16" fill="none" xmlns="http://www.w3.org/2000/svg">
<g clip-path="url(#clip0_2_5357)">
<path d="M4.11944 15.1666C4.05278 15.1666 3.97944 15.1599 3.91944 15.1533L2.47278 14.9533C1.77944 14.8599 1.15278 14.2399 1.04611 13.5333L0.846109 12.0733C0.779443 11.6066 0.979443 10.9999 1.31278 10.6599L4.23944 7.73326C3.76611 5.83994 4.31278 3.83994 5.70611 2.45994C7.86614 0.306613 11.3795 0.299947 13.5461 2.45994C14.5928 3.50661 15.1661 4.89994 15.1661 6.37994C15.1661 7.85993 14.5928 9.25327 13.5461 10.2999C12.1461 11.6866 10.1528 12.2333 8.2728 11.7533L5.33944 14.6799C5.05944 14.9733 4.55944 15.1666 4.11944 15.1666ZM9.61947 1.83994C8.4528 1.83994 7.2928 2.27994 6.40611 3.16661C5.20611 4.35994 4.77278 6.10661 5.27278 7.73326C5.32611 7.91327 5.27944 8.09993 5.14611 8.23326L2.01278 11.3666C1.89944 11.4799 1.80611 11.7733 1.82611 11.9266L2.02611 13.3866C2.06611 13.6399 2.33944 13.9266 2.59278 13.9599L4.04611 14.1599C4.20611 14.1866 4.49944 14.0933 4.61278 13.9799L7.75947 10.8399C7.8928 10.7066 8.08614 10.6666 8.25947 10.7199C9.86614 11.2266 11.6195 10.7933 12.8195 9.59327C13.6728 8.73993 14.1461 7.59326 14.1461 6.37994C14.1461 5.15994 13.6728 4.01994 12.8195 3.16661C11.9528 2.28661 10.7861 1.83994 9.61947 1.83994Z" fill="currentColor"/>
<path d="M6.12672 13.6933C6.00006 13.6933 5.87339 13.6466 5.77339 13.5466L4.24006 12.0133C4.04672 11.8199 4.04672 11.4999 4.24006 11.3066C4.43339 11.1133 4.75339 11.1133 4.94672 11.3066L6.48006 12.8399C6.6734 13.0333 6.6734 13.3533 6.48006 13.5466C6.38006 13.6466 6.25339 13.6933 6.12672 13.6933Z" fill="currentColor"/>
<path d="M9.66667 7.83333C8.84 7.83333 8.16667 7.16 8.16667 6.33333C8.16667 5.50666 8.84 4.83333 9.66667 4.83333C10.4933 4.83333 11.1667 5.50666 11.1667 6.33333C11.1667 7.16 10.4933 7.83333 9.66667 7.83333ZM9.66667 5.83333C9.39334 5.83333 9.16667 6.06 9.16667 6.33333C9.16667 6.60667 9.39334 6.83333 9.66667 6.83333C9.94 6.83333 10.1667 6.60667 10.1667 6.33333C10.1667 6.06 9.94 5.83333 9.66667 5.83333Z" fill="currentColor"/>
</g>
<defs>
<clipPath id="clip0_2_5357">
<rect width="16" height="16" fill="currentColor"/>
</clipPath>
</defs>
</svg>
