<svg width="16" height="16" viewBox="0 0 16 16" fill="none" xmlns="http://www.w3.org/2000/svg">
<g clip-path="url(#clip0_2_4853)">
<path d="M11.1599 13.06H4.84652C4.31985 13.06 3.93985 13.04 3.61318 12.9933C1.29985 12.74 0.839848 11.3533 0.839848 9.05334V4.84001C0.839848 2.54001 1.29318 1.15332 3.62651 0.899989C3.94651 0.853323 4.32652 0.833336 4.84652 0.833336H11.1599C11.6799 0.833336 12.0599 0.853323 12.3932 0.899989C14.7132 1.15332 15.1665 2.54001 15.1665 4.84001V9.05334C15.1665 11.3533 14.7132 12.74 12.3799 12.9933C12.0665 13.04 11.6865 13.06 11.1599 13.06ZM4.83985 1.83334C4.36651 1.83334 4.02651 1.85336 3.74651 1.89336C2.30651 2.05336 1.83318 2.50002 1.83318 4.84668V9.06C1.83318 11.4 2.30652 11.8533 3.73319 12.0067C4.02652 12.0467 4.36652 12.0667 4.84652 12.0667H11.1599C11.6399 12.0667 11.9732 12.0467 12.2532 12.0067C13.6932 11.8467 14.1665 11.4 14.1665 9.05334V4.84001C14.1665 2.50001 13.6932 2.04669 12.2665 1.89336C11.9665 1.85336 11.6332 1.83334 11.1532 1.83334H4.83985Z" fill="currentColor"/>
<path d="M11.5067 6.04672H9.0534C8.78007 6.04672 8.5534 5.82005 8.5534 5.54672C8.5534 5.27338 8.78007 5.04672 9.0534 5.04672H11.5067C11.7801 5.04672 12.0067 5.27338 12.0067 5.54672C12.0067 5.82005 11.7867 6.04672 11.5067 6.04672Z" fill="currentColor"/>
<path d="M6.66667 6.21338C6.3 6.21338 6 5.91338 6 5.54672C6 5.18005 6.29333 4.88005 6.66667 4.88005C7.03333 4.88005 7.33333 5.18005 7.33333 5.54672C7.33333 5.91338 7.04 6.21338 6.66667 6.21338Z" fill="currentColor"/>
<path d="M4.56641 6.21338C4.19974 6.21338 3.89974 5.91338 3.89974 5.54672C3.89974 5.18005 4.19307 4.88005 4.56641 4.88005H4.57307C4.93973 4.88005 5.23973 5.18005 5.23973 5.54672C5.23973 5.91338 4.93307 6.21338 4.56641 6.21338Z" fill="currentColor"/>
<path d="M11.5068 9.9066H4.50015C4.22682 9.9066 3.99349 9.67994 3.99349 9.4066C3.99349 9.13327 4.21348 8.9066 4.48681 8.9066H11.5068C11.7801 8.9066 12.0068 9.13327 12.0068 9.4066C12.0068 9.67994 11.7868 9.9066 11.5068 9.9066Z" fill="currentColor"/>
<path d="M11.3333 15.1667H4.66667C4.39333 15.1667 4.16667 14.94 4.16667 14.6667C4.16667 14.3933 4.39333 14.1667 4.66667 14.1667H11.3333C11.6067 14.1667 11.8333 14.3933 11.8333 14.6667C11.8333 14.94 11.6067 15.1667 11.3333 15.1667Z" fill="currentColor"/>
</g>
<defs>
<clipPath id="clip0_2_4853">
<rect width="16" height="16" fill="currentColor"/>
</clipPath>
</defs>
</svg>
