<svg width="16" height="16" viewBox="0 0 16 16" fill="none" xmlns="http://www.w3.org/2000/svg">
<path d="M11 13.8333H5C4.5 13.8333 4.13333 13.8133 3.82 13.7667C1.60666 13.5267 1.16666 12.2 1.16666 10V6C1.16666 3.8 1.60666 2.47333 3.84 2.22666C4.13333 2.18666 4.5 2.16666 5 2.16666H11C11.5 2.16666 11.8667 2.18666 12.18 2.23333C14.3933 2.47333 14.8333 3.8 14.8333 6V10C14.8333 12.2 14.3933 13.5267 12.16 13.7733C11.8667 13.8133 11.5 13.8333 11 13.8333ZM5 3.16666C4.54666 3.16666 4.22666 3.18666 3.96666 3.22C2.61333 3.37333 2.16666 3.79333 2.16666 6V10C2.16666 12.2067 2.61333 12.6267 3.94666 12.78C4.22666 12.82 4.54666 12.8333 5 12.8333H11C11.4533 12.8333 11.7733 12.8133 12.0333 12.78C13.3867 12.6333 13.8333 12.2067 13.8333 10V6C13.8333 3.79333 13.3867 3.37333 12.0533 3.22C11.7733 3.18 11.4533 3.16666 11 3.16666H5Z" fill="currentColor"/>
<path d="M11.3333 7.16666H9C8.72666 7.16666 8.5 6.94 8.5 6.66666C8.5 6.39333 8.72666 6.16666 9 6.16666H11.3333C11.6067 6.16666 11.8333 6.39333 11.8333 6.66666C11.8333 6.94 11.6067 7.16666 11.3333 7.16666Z" fill="currentColor"/>
<path d="M6.73306 7.33333C6.3664 7.33333 6.0664 7.03333 6.0664 6.66666C6.0664 6.3 6.35974 6 6.73306 6H6.73973C7.1064 6 7.4064 6.3 7.4064 6.66666C7.4064 7.03333 7.1064 7.33333 6.73306 7.33333Z" fill="currentColor"/>
<path d="M4.73307 7.33333C4.3664 7.33333 4.0664 7.03333 4.0664 6.66666C4.0664 6.3 4.35974 6 4.73307 6C5.09974 6 5.39974 6.3 5.39974 6.66666C5.39974 7.03333 5.1064 7.33333 4.73307 7.33333Z" fill="currentColor"/>
<path d="M11.3332 10.8333H4.67984C4.40651 10.8333 4.17318 10.6067 4.17318 10.3333C4.17318 10.06 4.39318 9.83333 4.66651 9.83333H11.3332C11.6065 9.83333 11.8332 10.06 11.8332 10.3333C11.8332 10.6067 11.6065 10.8333 11.3332 10.8333Z" fill="currentColor"/>
</svg>
