<svg width="16" height="16" viewBox="0 0 16 16" fill="none" xmlns="http://www.w3.org/2000/svg">
<path d="M12.14 10.2933H3.86C3.17334 10.2933 2.56667 10.0133 2.19334 9.52667C1.82 9.04 1.71334 8.38 1.89334 7.72L3.36 2.33334C3.58667 1.49334 4.45334 0.833336 5.32667 0.833336H10.6667C11.54 0.833336 12.4 1.49334 12.6333 2.33334L14.1 7.72C14.28 8.38 14.1733 9.04 13.8 9.52667C13.4267 10.0133 12.8267 10.2933 12.14 10.2933ZM5.32667 1.83334C4.90667 1.83334 4.43334 2.19334 4.32667 2.6L2.86 7.98667C2.76 8.34667 2.80667 8.68 2.99334 8.92667C3.18 9.17334 3.48667 9.3 3.86 9.3H12.14C12.5133 9.3 12.8267 9.16667 13.0067 8.92667C13.1867 8.68667 13.24 8.35334 13.14 7.98667L11.6733 2.6C11.56 2.19334 11.0933 1.83334 10.6733 1.83334H5.32667Z" fill="currentColor"/>
<path d="M8 15.1667C7.72666 15.1667 7.5 14.94 7.5 14.6667V10C7.5 9.72667 7.72666 9.5 8 9.5C8.27333 9.5 8.5 9.72667 8.5 10V14.6667C8.5 14.94 8.27333 15.1667 8 15.1667Z" fill="currentColor"/>
<path d="M10.6667 15.1667H5.33333C5.06 15.1667 4.83333 14.94 4.83333 14.6667C4.83333 14.3933 5.06 14.1667 5.33333 14.1667H10.6667C10.94 14.1667 11.1667 14.3933 11.1667 14.6667C11.1667 14.94 10.94 15.1667 10.6667 15.1667Z" fill="currentColor"/>
</svg>
