<svg width="16" height="16" viewBox="0 0 16 16" fill="none" xmlns="http://www.w3.org/2000/svg">
<path d="M13.8525 12.8933H2.14584C1.8725 12.8933 1.64584 12.6666 1.64584 12.3933V9.09994C1.64584 5.61996 4.47917 2.78662 7.9592 2.78662H8.03914C11.5191 2.78662 14.3525 5.61996 14.3525 9.09994V12.3933C14.3525 12.6666 14.1258 12.8933 13.8525 12.8933ZM2.64584 11.8933H13.3525V9.09994C13.3525 6.16662 10.9658 3.78662 8.03914 3.78662H7.9592C5.02584 3.78662 2.64584 6.17329 2.64584 9.09994V11.8933Z" fill="currentColor"/>
<path d="M8 3.78666C7.72667 3.78666 7.5 3.56 7.5 3.28666V1.33334C7.5 1.06 7.72667 0.833336 8 0.833336C8.27334 0.833336 8.5 1.06 8.5 1.33334V3.28666C8.5 3.56 8.27334 3.78666 8 3.78666Z" fill="currentColor"/>
<path d="M8.00034 15.1665C6.46036 15.1665 5.1737 13.9599 5.06704 12.4265C5.06037 12.2865 5.10702 12.1532 5.20036 12.0532C5.29369 11.9532 5.42704 11.8932 5.56704 11.8932H10.4337C10.5737 11.8932 10.7071 11.9532 10.8004 12.0532C10.8937 12.1532 10.9403 12.2932 10.9337 12.4265C10.827 13.9599 9.54034 15.1665 8.00034 15.1665ZM6.18036 12.8932C6.45369 13.6399 7.17367 14.1665 8.00034 14.1665C8.827 14.1665 9.54707 13.6399 9.8204 12.8932H6.18036Z" fill="currentColor"/>
</svg>
