<svg width="16" height="16" viewBox="0 0 16 16" fill="none" xmlns="http://www.w3.org/2000/svg">
<path d="M8.00027 9.23327C7.9136 9.23327 7.82694 9.21327 7.7536 9.1666C7.5136 9.0266 7.4336 8.71993 7.56694 8.4866L8.1336 7.49993H7.5736C7.24027 7.49993 6.96694 7.35327 6.82027 7.1066C6.6736 6.85327 6.68694 6.5466 6.8536 6.25327L7.56694 5.01327C7.70694 4.77327 8.0136 4.69327 8.24694 4.8266C8.48694 4.9666 8.56694 5.27327 8.4336 5.5066L7.86694 6.49993H8.42694C8.76027 6.49993 9.0336 6.6466 9.18027 6.89327C9.32694 7.1466 9.3136 7.45327 9.14694 7.7466L8.4336 8.9866C8.34027 9.1466 8.1736 9.23327 8.00027 9.23327Z" fill="currentColor"/>
<path d="M9.84674 13.1665H6.17342C5.88008 13.1665 5.50675 13.1332 5.26008 12.8799C5.02008 12.6332 5.02675 12.3265 5.03342 12.1199V11.5265C3.35342 10.4065 2.24675 8.45987 2.24675 6.60653C2.24675 4.8532 3.03342 3.2132 4.40008 2.1132C5.76675 1.0132 7.56007 0.59987 9.3134 0.986535C10.9801 1.3532 12.4201 2.46653 13.1667 3.96653C14.6134 6.87987 13.2201 10.0332 10.9934 11.5332V12.0332C11.0001 12.2265 11.0067 12.5799 10.7334 12.8599C10.5267 13.0599 10.2334 13.1665 9.84674 13.1665ZM6.02675 12.1599C6.06008 12.1599 6.10675 12.1665 6.16675 12.1665H9.84674C9.9134 12.1665 9.96007 12.1599 9.98674 12.1532C9.98674 12.1332 9.98674 12.1065 9.98674 12.0865V11.2465C9.98674 11.0732 10.0801 10.9065 10.2267 10.8199C12.2001 9.62653 13.5067 6.89987 12.2601 4.39987C11.6467 3.16653 10.4601 2.2532 9.08674 1.9532C7.6334 1.6332 6.14675 1.9732 5.01342 2.88653C3.88008 3.79987 3.23342 5.1532 3.23342 6.60653C3.23342 8.45987 4.51342 10.0599 5.78008 10.8265C5.93342 10.9199 6.02008 11.0799 6.02008 11.2532V12.1532C6.02675 12.1532 6.02675 12.1532 6.02675 12.1599Z" fill="currentColor"/>
<path d="M10.3335 15.1666C10.2869 15.1666 10.2402 15.1599 10.1935 15.1466C8.75354 14.7333 7.2402 14.7333 5.80017 15.1466C5.5335 15.2199 5.26017 15.0666 5.18017 14.7999C5.10017 14.5333 5.26017 14.2599 5.52684 14.1799C7.1402 13.7199 8.85354 13.7199 10.4669 14.1799C10.7335 14.2533 10.8869 14.5333 10.8135 14.7999C10.7535 15.0266 10.5535 15.1666 10.3335 15.1666Z" fill="currentColor"/>
</svg>
