<svg width="16" height="16" viewBox="0 0 16 16" fill="none" xmlns="http://www.w3.org/2000/svg">
<path d="M2.78674 12.7199C2.66007 12.7199 2.53341 12.6733 2.43341 12.5733C2.24007 12.3799 2.24007 12.0599 2.43341 11.8666L13.0001 1.29995C13.1934 1.10661 13.5134 1.10661 13.7067 1.29995C13.9001 1.49328 13.9001 1.81328 13.7067 2.00661L3.14007 12.5733C3.04007 12.6733 2.91341 12.7199 2.78674 12.7199Z" fill="currentColor"/>
<path d="M3.5002 9.16667C3.30687 9.16667 3.12687 9.05333 3.0402 8.86667C2.71353 8.12 2.54687 7.36 2.54687 6.60001C2.54687 4.78667 3.33353 3.11334 4.7002 2.00667C5.9802 0.980006 7.56686 0.606671 9.16686 0.960006C10.2202 1.19334 11.1802 1.74667 11.9335 2.56001C12.1202 2.76001 12.1069 3.08001 11.9069 3.26667C11.7069 3.45334 11.3869 3.44001 11.2002 3.24001C10.5802 2.57334 9.80686 2.12001 8.95353 1.93334C7.65353 1.65334 6.36687 1.95334 5.33353 2.78667C4.2002 3.70001 3.55353 5.08667 3.55353 6.60001C3.55353 7.22 3.69353 7.84667 3.9602 8.46667C4.07353 8.72 3.95353 9.01333 3.7002 9.12667C3.63353 9.15333 3.56687 9.16667 3.5002 9.16667Z" fill="currentColor"/>
<path d="M9.73973 13.1668H6.27973C6.01973 13.1668 5.65307 13.1401 5.4064 12.8868C5.1664 12.6401 5.17307 12.3268 5.17973 12.1201V11.5135C4.91307 11.3268 4.65973 11.1135 4.41973 10.8735C4.2264 10.6801 4.2264 10.3601 4.41973 10.1668C4.61307 9.97347 4.93307 9.97347 5.1264 10.1668C5.3864 10.4201 5.65973 10.6468 5.9464 10.8335C6.0864 10.9268 6.17973 11.0868 6.17973 11.2535V12.1468C6.17973 12.1535 6.17973 12.1601 6.17973 12.1668C6.2064 12.1668 6.23973 12.1668 6.2864 12.1668H9.74639C9.79306 12.1668 9.82639 12.1668 9.85306 12.1601C9.85306 12.1335 9.85306 12.1068 9.85306 12.0868V11.2468C9.85306 11.0735 9.93972 10.9201 10.0864 10.8268C11.7331 9.77347 12.9997 7.44013 12.2397 5.02013C12.1597 4.75347 12.3064 4.47347 12.5664 4.39347C12.8264 4.3068 13.1131 4.46013 13.1931 4.72013C14.0664 7.5068 12.7064 10.1935 10.8531 11.5135V12.0268C10.8597 12.2335 10.8664 12.5868 10.5931 12.8668C10.3864 13.0668 10.1064 13.1668 9.73973 13.1668Z" fill="currentColor"/>
<path d="M10.3335 15.1666C10.2869 15.1666 10.2402 15.1599 10.1935 15.1466C8.75353 14.7333 7.24019 14.7333 5.80016 15.1466C5.53349 15.2199 5.26016 15.0666 5.18016 14.7999C5.10016 14.5333 5.26016 14.2599 5.52683 14.1799C7.14019 13.7199 8.85353 13.7199 10.4669 14.1799C10.7335 14.2533 10.8869 14.5333 10.8135 14.7999C10.7535 15.0266 10.5535 15.1666 10.3335 15.1666Z" fill="currentColor"/>
</svg>
