<svg width="16" height="16" viewBox="0 0 16 16" fill="none" xmlns="http://www.w3.org/2000/svg">
<g clip-path="url(#clip0_2_4846)">
<path d="M11.3265 6.47331H4.67317C4.39984 6.47331 4.17317 6.24664 4.17317 5.97331C4.17317 5.69998 4.39984 5.47331 4.67317 5.47331H11.3265C11.5998 5.47331 11.8265 5.69998 11.8265 5.97331C11.8265 6.24664 11.5998 6.47331 11.3265 6.47331Z" fill="currentColor"/>
<path d="M7.99999 6.47352C7.72666 6.47352 7.49999 6.24685 7.49999 5.97352V4.85352C7.49999 4.58018 7.72666 4.35352 7.99999 4.35352C8.27333 4.35352 8.49999 4.58018 8.49999 4.85352V5.97352C8.49999 6.24685 8.27333 6.47352 7.99999 6.47352Z" fill="currentColor"/>
<path d="M4.66666 11.6466C4.39333 11.6466 4.16666 11.4199 4.16666 11.1466C4.16666 10.8733 4.39333 10.6466 4.66666 10.6466C7.14666 10.6466 9.16666 8.5466 9.16666 5.95996C9.16666 5.68663 9.39333 5.45996 9.66666 5.45996C9.93999 5.45996 10.1667 5.68663 10.1667 5.95996C10.1667 9.09994 7.69999 11.6466 4.66666 11.6466Z" fill="currentColor"/>
<path d="M11.3341 11.6467C10.0208 11.6467 8.80079 10.9933 7.90746 9.8C7.74079 9.58 7.78746 9.26667 8.00746 9.1C8.22746 8.93334 8.54079 8.98 8.70746 9.2C9.41413 10.1333 10.3475 10.6467 11.3408 10.6467C11.6141 10.6467 11.8408 10.8733 11.8408 11.1467C11.8408 11.42 11.6075 11.6467 11.3341 11.6467Z" fill="currentColor"/>
<path d="M7.99999 15.1667C4.04666 15.1667 0.833328 11.9533 0.833328 8C0.833328 4.04667 4.04666 0.833336 7.99999 0.833336C11.9533 0.833336 15.1667 4.04667 15.1667 8C15.1667 11.9533 11.9533 15.1667 7.99999 15.1667ZM7.99999 1.83334C4.59999 1.83334 1.83333 4.6 1.83333 8C1.83333 11.4 4.59999 14.1667 7.99999 14.1667C11.4 14.1667 14.1667 11.4 14.1667 8C14.1667 4.6 11.4 1.83334 7.99999 1.83334Z" fill="currentColor"/>
</g>
<defs>
<clipPath id="clip0_2_4846">
<rect width="16" height="16" fill="currentColor"/>
</clipPath>
</defs>
</svg>
