<svg width="16" height="16" viewBox="0 0 16 16" fill="none" xmlns="http://www.w3.org/2000/svg">
<path d="M7.86027 7.92C7.50027 7.92 7.1336 7.85333 6.84693 7.72666L2.91359 5.98C1.91359 5.53333 1.76693 4.93333 1.76693 4.60666C1.76693 4.28 1.91359 3.68 2.91359 3.23333L6.84693 1.48666C7.42693 1.22666 8.30027 1.22666 8.88027 1.48666L12.8203 3.23333C13.8136 3.67333 13.9669 4.28 13.9669 4.60666C13.9669 4.93333 13.8203 5.53333 12.8203 5.98L8.88027 7.72666C8.58693 7.86 8.22693 7.92 7.86027 7.92ZM7.86027 2.29333C7.6336 2.29333 7.4136 2.32666 7.2536 2.4L3.32026 4.14666C2.91359 4.33333 2.76693 4.52 2.76693 4.60666C2.76693 4.69333 2.91359 4.88666 3.31359 5.06666L7.24693 6.81333C7.56693 6.95333 8.14693 6.95333 8.46693 6.81333L12.4069 5.06666C12.8136 4.88666 12.9603 4.69333 12.9603 4.60666C12.9603 4.52 12.8136 4.32666 12.4069 4.14666L8.4736 2.4C8.3136 2.33333 8.08693 2.29333 7.86027 2.29333Z" fill="currentColor"/>
<path d="M8 11.3933C7.74667 11.3933 7.49333 11.34 7.25333 11.2333L2.72667 9.22C2.04 8.92 1.5 8.08666 1.5 7.33333C1.5 7.06 1.72667 6.83333 2 6.83333C2.27333 6.83333 2.5 7.06 2.5 7.33333C2.5 7.7 2.8 8.16 3.13333 8.31333L7.66 10.3267C7.87333 10.42 8.12 10.42 8.34 10.3267L12.8667 8.31333C13.2 8.16666 13.5 7.7 13.5 7.33333C13.5 7.06 13.7267 6.83333 14 6.83333C14.2733 6.83333 14.5 7.06 14.5 7.33333C14.5 8.08666 13.96 8.92 13.2733 9.22666L8.74667 11.24C8.50667 11.34 8.25333 11.3933 8 11.3933Z" fill="currentColor"/>
<path d="M8 14.7268C7.74667 14.7268 7.49333 14.6735 7.25333 14.5668L2.72667 12.5535C1.98 12.2201 1.5 11.4801 1.5 10.6601C1.5 10.3868 1.72667 10.1601 2 10.1601C2.27333 10.1601 2.5 10.3935 2.5 10.6668C2.5 11.0868 2.74667 11.4735 3.13333 11.6468L7.66 13.6601C7.87333 13.7535 8.12 13.7535 8.34 13.6601L12.8667 11.6468C13.2533 11.4735 13.5 11.0935 13.5 10.6668C13.5 10.3935 13.7267 10.1668 14 10.1668C14.2733 10.1668 14.5 10.3935 14.5 10.6668C14.5 11.4868 14.02 12.2268 13.2733 12.5601L8.74667 14.5735C8.50667 14.6735 8.25333 14.7268 8 14.7268Z" fill="currentColor"/>
</svg>
