<svg width="16" height="16" viewBox="0 0 16 16" fill="none" xmlns="http://www.w3.org/2000/svg">
<g clip-path="url(#clip0_2_4867)">
<path d="M7.99967 15.1667C4.61303 15.1667 1.65969 12.7601 0.979695 9.44673C0.926362 9.1734 1.0997 8.9134 1.36636 8.8534C1.6397 8.80007 1.89969 8.9734 1.95969 9.24007C2.54636 12.0934 5.08636 14.1667 7.99967 14.1667C10.9063 14.1667 13.4463 12.1067 14.0397 9.26673C14.093 8.9934 14.3597 8.82007 14.633 8.88007C14.9063 8.9334 15.0797 9.20007 15.0197 9.4734C14.3263 12.7667 11.3797 15.1667 7.99967 15.1667Z" fill="currentColor"/>
<path d="M14.5406 7.20667C14.3073 7.20667 14.1006 7.04 14.0539 6.8C13.4873 3.92001 10.9406 1.82666 8.0006 1.82666C5.08062 1.82666 2.54062 3.9 1.96062 6.75333C1.90729 7.02667 1.64062 7.19333 1.36729 7.14C1.09396 7.08667 0.920622 6.82 0.980622 6.54667C1.66062 3.23334 4.61396 0.82666 8.0006 0.82666C11.4206 0.82666 14.3739 3.26 15.0339 6.60667C15.0873 6.88 14.9073 7.14 14.6406 7.19333C14.6073 7.20667 14.5739 7.20667 14.5406 7.20667Z" fill="currentColor"/>
<path d="M8 9.5C7.17334 9.5 6.5 8.82667 6.5 8C6.5 7.17333 7.17334 6.5 8 6.5C8.82667 6.5 9.5 7.17333 9.5 8C9.5 8.82667 8.82667 9.5 8 9.5ZM8 7.5C7.72667 7.5 7.5 7.72667 7.5 8C7.5 8.27333 7.72667 8.5 8 8.5C8.27334 8.5 8.5 8.27333 8.5 8C8.5 7.72667 8.27334 7.5 8 7.5Z" fill="currentColor"/>
</g>
<defs>
<clipPath id="clip0_2_4867">
<rect width="16" height="16" fill="currentColor"/>
</clipPath>
</defs>
</svg>
