<svg width="16" height="16" viewBox="0 0 16 16" fill="none" xmlns="http://www.w3.org/2000/svg">
<g clip-path="url(#clip0_2_4839)">
<path d="M7.98048 15.1667C4.03381 15.1667 0.813812 11.9533 0.813812 8C0.813812 4.04667 4.03381 0.833336 7.98048 0.833336C11.9271 0.833336 15.1471 4.04667 15.1471 8C15.1471 11.9533 11.9338 15.1667 7.98048 15.1667ZM7.98048 1.83334C4.58048 1.83334 1.81381 4.6 1.81381 8C1.81381 11.4 4.58048 14.1667 7.98048 14.1667C11.3805 14.1667 14.1471 11.4 14.1471 8C14.1471 4.6 11.3805 1.83334 7.98048 1.83334Z" fill="currentColor"/>
<path d="M8.00001 11.5C6.06668 11.5 4.50001 9.92667 4.50001 8C4.50001 6.07334 6.06668 4.5 8.00001 4.5C9.93334 4.5 11.5 6.07334 11.5 8C11.5 9.92667 9.93334 11.5 8.00001 11.5ZM8.00001 5.5C6.62001 5.5 5.50001 6.62 5.50001 8C5.50001 9.38 6.62001 10.5 8.00001 10.5C9.38001 10.5 10.5 9.38 10.5 8C10.5 6.62 9.38001 5.5 8.00001 5.5Z" fill="currentColor"/>
<path d="M5.62657 6.14008C5.49991 6.14008 5.36657 6.09342 5.27324 6.00008L2.91324 3.64008C2.71991 3.44675 2.71991 3.12675 2.91324 2.93342C3.10657 2.74008 3.42657 2.74008 3.61991 2.93342L5.97991 5.29342C6.17324 5.48675 6.17324 5.80008 5.97991 6.00008C5.87991 6.09342 5.75324 6.14008 5.62657 6.14008Z" fill="currentColor"/>
<path d="M3.26657 13.2135C3.13991 13.2135 3.01324 13.1668 2.91324 13.0668C2.71991 12.8735 2.71991 12.5535 2.91324 12.3601L5.27324 10.0001C5.46657 9.8068 5.78657 9.8068 5.97991 10.0001C6.17324 10.1935 6.17324 10.5135 5.97991 10.7068L3.61991 13.0668C3.52657 13.1668 3.39324 13.2135 3.26657 13.2135Z" fill="currentColor"/>
<path d="M12.693 13.2135C12.5663 13.2135 12.4397 13.1668 12.3397 13.0668L9.97968 10.7068C9.78635 10.5135 9.78635 10.1935 9.97968 10.0001C10.173 9.8068 10.493 9.8068 10.6863 10.0001L13.0463 12.3601C13.2397 12.5535 13.2397 12.8735 13.0463 13.0668C12.953 13.1668 12.8263 13.2135 12.693 13.2135Z" fill="currentColor"/>
<path d="M10.3395 6.13991C10.2128 6.13991 10.0861 6.09324 9.98615 5.99324C9.79281 5.79991 9.79281 5.47991 9.98615 5.28658L12.3461 2.92658C12.5395 2.73324 12.8595 2.73324 13.0528 2.92658C13.2461 3.11991 13.2461 3.43991 13.0528 3.63324L10.6928 5.99991C10.5928 6.09324 10.4661 6.13991 10.3395 6.13991Z" fill="currentColor"/>
</g>
<defs>
<clipPath id="clip0_2_4839">
<rect width="16" height="16" fill="currentColor"/>
</clipPath>
</defs>
</svg>
