<svg width="16" height="16" viewBox="0 0 16 16" fill="none" xmlns="http://www.w3.org/2000/svg">
<path d="M10.8529 14.7333H8.31961C7.94628 14.7333 7.13294 14.62 6.69961 14.1867L4.67959 12.6267L5.29292 11.8333L7.35961 13.4333C7.52628 13.5933 7.94628 13.7267 8.31961 13.7267H10.8529C11.4529 13.7267 12.0996 13.2467 12.2329 12.7067L13.8463 7.80666C13.9529 7.51333 13.9329 7.24666 13.7929 7.05333C13.6463 6.84666 13.3796 6.72666 13.0529 6.72666H10.3863C10.0396 6.72666 9.71961 6.57999 9.49961 6.32666C9.27294 6.06666 9.17294 5.71999 9.22628 5.35999L9.55961 3.21999C9.63961 2.84666 9.38628 2.42666 9.02628 2.30666C8.69961 2.18666 8.27961 2.35999 8.13294 2.57332L5.3996 6.63999L4.57293 6.08666L7.30628 2.01999C7.72628 1.39332 8.64628 1.09332 9.36628 1.36666C10.1996 1.63999 10.7329 2.55999 10.5463 3.41332L10.2196 5.51332C10.2129 5.55999 10.2129 5.62666 10.2596 5.67999C10.2929 5.71332 10.3396 5.73332 10.3929 5.73332H13.0596C13.7129 5.73332 14.2796 6.00666 14.6129 6.47999C14.9396 6.94 15.0063 7.54666 14.7929 8.13333L13.1996 12.9867C12.9529 13.9533 11.9263 14.7333 10.8529 14.7333Z" fill="currentColor"/>
<path d="M3.58725 13.9999H2.92058C1.68725 13.9999 1.08725 13.4199 1.08725 12.2333V5.69993C1.08725 4.51326 1.68725 3.93326 2.92058 3.93326H3.58725C4.82058 3.93326 5.42058 4.51326 5.42058 5.69993V12.2333C5.42058 13.4199 4.82058 13.9999 3.58725 13.9999ZM2.92058 4.93326C2.19392 4.93326 2.08725 5.1066 2.08725 5.69993V12.2333C2.08725 12.8266 2.19392 12.9999 2.92058 12.9999H3.58725C4.31392 12.9999 4.42058 12.8266 4.42058 12.2333V5.69993C4.42058 5.1066 4.31392 4.93326 3.58725 4.93326H2.92058Z" fill="currentColor"/>
</svg>
