<svg width="16" height="16" viewBox="0 0 16 16" fill="none" xmlns="http://www.w3.org/2000/svg">
<path d="M8 15.1667C7.53333 15.1667 7.06 14.9867 6.70667 14.6333L5.56667 13.5067C5.28667 13.2267 4.90001 13.0733 4.50667 13.0733H4C2.62 13.0733 1.5 11.96 1.5 10.5933V3.31998C1.5 1.95332 2.62 0.840004 4 0.840004H12C13.38 0.840004 14.5 1.95332 14.5 3.31998V10.5933C14.5 11.96 13.38 13.0733 12 13.0733H11.4933C11.1 13.0733 10.7133 13.2333 10.4333 13.5067L9.29333 14.6333C8.94 14.9867 8.46667 15.1667 8 15.1667ZM4 1.83333C3.17333 1.83333 2.5 2.49998 2.5 3.31331V10.5867C2.5 11.4067 3.17333 12.0667 4 12.0667H4.50667C5.16667 12.0667 5.80667 12.3333 6.27333 12.7933L7.41333 13.92C7.74 14.24 8.26667 14.24 8.59333 13.92L9.73333 12.7933C10.2 12.3333 10.84 12.0667 11.5 12.0667H12C12.8267 12.0667 13.5 11.4 13.5 10.5867V3.31331C13.5 2.49331 12.8267 1.83333 12 1.83333H4Z" fill="currentColor"/>
<path d="M7.99987 10.5C7.87987 10.5 7.75987 10.48 7.6532 10.4467C6.7732 10.1467 4.50651 8.82 4.50651 6.34C4.50651 5.14 5.47985 4.16666 6.6732 4.16666C7.15987 4.16666 7.62653 4.33333 8.00653 4.62666C8.38653 4.33333 8.8532 4.16666 9.33987 4.16666C10.5332 4.16666 11.5065 5.14 11.5065 6.34C11.5065 8.82 9.2332 10.1467 8.35987 10.4467C8.23987 10.48 8.11987 10.5 7.99987 10.5ZM6.66651 5.16666C6.02651 5.16666 5.49984 5.69334 5.49984 6.34C5.49984 8.22666 7.33313 9.28 7.97313 9.5C7.9798 9.5 8.00653 9.5 8.02653 9.5C8.6732 9.27333 10.4931 8.22 10.4931 6.34668C10.4931 5.70001 9.97313 5.17334 9.32647 5.17334C8.9598 5.17334 8.61987 5.34668 8.3932 5.64001C8.20653 5.89334 7.77987 5.89334 7.5932 5.64001C7.37987 5.34001 7.03987 5.16666 6.66651 5.16666Z" fill="currentColor"/>
</svg>
