<svg width="16" height="16" viewBox="0 0 16 16" fill="none" xmlns="http://www.w3.org/2000/svg">
<g clip-path="url(#clip0_2_4834)">
<path d="M8.00593 15.1667C7.58593 15.1667 7.16593 15.0267 6.83926 14.7467L5.78593 13.84C5.67926 13.7467 5.4126 13.6533 5.2726 13.6533H4.11926C3.1326 13.6533 2.3326 12.8533 2.3326 11.8667V10.7267C2.3326 10.5867 2.23927 10.3267 2.14594 10.22L1.24594 9.16C0.699271 8.51333 0.699271 7.49333 1.24594 6.84666L2.14594 5.7867C2.23927 5.68003 2.3326 5.42002 2.3326 5.28002V4.13997C2.3326 3.1533 3.1326 2.35334 4.11926 2.35334H5.2726C5.4126 2.35334 5.67926 2.25333 5.78593 2.16666L6.83926 1.26C7.4926 0.700004 8.5126 0.700004 9.16593 1.26L10.2193 2.16666C10.3259 2.26 10.5926 2.35334 10.7326 2.35334H11.8659C12.8526 2.35334 13.6526 3.1533 13.6526 4.13997V5.27335C13.6526 5.41335 13.7526 5.68003 13.8459 5.7867L14.7459 6.84C15.3059 7.49333 15.3059 8.51333 14.7459 9.16666L13.8459 10.22C13.7526 10.3267 13.6593 10.5933 13.6593 10.7333V11.8667C13.6593 12.8533 12.8593 13.6533 11.8726 13.6533H10.7393C10.5993 13.6533 10.3326 13.7533 10.2259 13.84L9.1726 14.7467C8.83926 15.0267 8.41926 15.1667 8.00593 15.1667ZM4.11926 3.34667C3.68593 3.34667 3.3326 3.69996 3.3326 4.1333V5.27335C3.3326 5.65335 3.1526 6.14 2.9126 6.42667L2.0126 7.48666C1.77926 7.76 1.77926 8.23333 2.0126 8.50666L2.9126 9.56666C3.15927 9.86 3.33928 10.3467 3.33928 10.72V11.86C3.33928 12.2933 3.6926 12.6467 4.12594 12.6467H5.27928C5.66594 12.6467 6.15261 12.8267 6.44594 13.08L7.49926 13.9867C7.7726 14.22 8.2526 14.22 8.52593 13.9867L9.57926 13.08C9.8726 12.8333 10.3593 12.6467 10.7459 12.6467H11.8793C12.3126 12.6467 12.6659 12.2933 12.6659 11.86V10.7267C12.6659 10.34 12.8459 9.85333 13.0993 9.56L13.9993 8.50666C14.2326 8.23333 14.2326 7.75333 13.9993 7.48L13.0993 6.42667C12.8526 6.13334 12.6659 5.64667 12.6659 5.26V4.12662C12.6659 3.69329 12.3126 3.34 11.8793 3.34H10.7459C10.3659 3.34 9.8726 3.15998 9.57926 2.90665L8.52593 2C8.2526 1.76666 7.7726 1.76666 7.49926 2L6.44594 2.90665C6.15261 3.15332 5.66594 3.34 5.27928 3.34H4.11926V3.34667Z" fill="currentColor"/>
<path d="M9.3332 11.3132H8.14653C7.86653 11.3132 7.44646 11.2265 7.1998 10.9799L6.27984 10.2733L6.8932 9.47986L7.85986 10.2265C7.92653 10.2732 8.04653 10.3065 8.14653 10.3065H9.3332C9.4932 10.3065 9.68646 10.1666 9.7198 10.0266L10.4799 7.7132C10.4999 7.6532 10.4998 7.61326 10.4931 7.59993C10.4798 7.57993 10.4331 7.55986 10.3665 7.55986H9.1198C8.8798 7.55986 8.65986 7.45993 8.49986 7.27993C8.34653 7.09993 8.27313 6.85993 8.30646 6.61326L8.46653 5.60659C8.47986 5.55326 8.43986 5.48654 8.39986 5.47321C8.35986 5.46654 8.29986 5.4799 8.27986 5.4999L7.00653 7.3932L6.17318 6.83326L7.45313 4.93325C7.7198 4.53325 8.27986 4.35993 8.7332 4.5266C9.23986 4.69326 9.56646 5.2666 9.45313 5.7866L9.3332 6.54653H10.3665C10.7598 6.54653 11.1065 6.71326 11.3132 7.0066C11.5132 7.29326 11.5598 7.6666 11.4331 8.01993L10.6865 10.2866C10.5465 10.8599 9.9532 11.3132 9.3332 11.3132Z" fill="currentColor"/>
<path d="M5.93349 10.9734H5.62016C4.64016 10.9734 4.49348 10.2867 4.49348 9.88006V6.82673C4.49348 6.42007 4.64016 5.7334 5.62016 5.7334H5.93349C6.91346 5.7334 7.06013 6.42007 7.06013 6.82673V9.88006C7.06013 10.2867 6.91346 10.9734 5.93349 10.9734ZM5.50683 9.96673C5.5335 9.9734 5.5735 9.9734 5.62683 9.9734H5.94016C5.9935 9.9734 6.03349 9.9734 6.06016 9.96673C6.06016 9.94673 6.06683 9.92006 6.06683 9.88006V6.82673C6.06683 6.78673 6.06682 6.76006 6.06016 6.74006C6.03349 6.7334 5.9935 6.7334 5.94016 6.7334H5.62683C5.5735 6.7334 5.5335 6.7334 5.50683 6.74006C5.50683 6.76006 5.50016 6.78673 5.50016 6.82673V9.88006C5.50016 9.92006 5.50016 9.94673 5.50683 9.96673Z" fill="currentColor"/>
</g>
<defs>
<clipPath id="clip0_2_4834">
<rect width="16" height="16" fill="currentColor"/>
</clipPath>
</defs>
</svg>
