<svg width="16" height="16" viewBox="0 0 16 16" fill="none" xmlns="http://www.w3.org/2000/svg">
<path d="M9.4862 10.7401H8.1662C7.85953 10.7401 7.41287 10.6467 7.15287 10.3867L6.1262 9.5934L6.73953 8.80006L7.81287 9.6334C7.89287 9.6934 8.03953 9.7334 8.1662 9.7334H9.4862C9.6862 9.7334 9.9262 9.56006 9.97287 9.38673L10.8129 6.82006C10.8329 6.76673 10.8529 6.6934 10.8195 6.64006C10.7929 6.60006 10.7195 6.5734 10.6329 6.5734H9.2462C8.99953 6.5734 8.7662 6.46678 8.59953 6.28011C8.43953 6.09344 8.3662 5.84008 8.39953 5.58675L8.57287 4.47339C8.59287 4.38672 8.53287 4.28676 8.45953 4.26009C8.39953 4.24009 8.29953 4.27339 8.27287 4.30672L6.85287 6.42008L6.01953 5.8601L7.43953 3.74674C7.71953 3.32674 8.31287 3.1334 8.79287 3.3134C9.33287 3.4934 9.67953 4.0934 9.55953 4.6534L9.41953 5.56673H10.6329C11.0529 5.56673 11.4195 5.74672 11.6395 6.06006C11.8529 6.36672 11.8995 6.76006 11.7662 7.14006L10.9395 9.66006C10.7862 10.2534 10.1462 10.7401 9.4862 10.7401Z" fill="currentColor"/>
<path d="M5.70667 10.36H5.35999C4.31999 10.36 4.16667 9.63333 4.16667 9.2V5.80664C4.16667 5.3733 4.31999 4.64664 5.35999 4.64664H5.70667C6.74667 4.64664 6.9 5.3733 6.9 5.80664V9.2C6.9 9.63333 6.74667 10.36 5.70667 10.36ZM5.18667 9.35333C5.20667 9.35333 5.25999 9.36 5.35999 9.36H5.70667C5.81333 9.36 5.87333 9.34666 5.89333 9.34C5.89333 9.32666 5.90001 9.28666 5.90001 9.2V5.80664C5.90001 5.71997 5.89333 5.67332 5.88667 5.65999C5.87333 5.65999 5.82 5.65332 5.70667 5.65332H5.35999C5.25333 5.65332 5.19333 5.66667 5.17333 5.67334C5.17333 5.68667 5.16667 5.72664 5.16667 5.81331V9.20673C5.16667 9.2934 5.17333 9.34 5.18 9.36C5.18 9.35333 5.18667 9.35333 5.18667 9.35333Z" fill="currentColor"/>
<path d="M8 15.1667C7.53333 15.1667 7.06 14.9867 6.70667 14.6333L5.56667 13.5067C5.28001 13.2267 4.90666 13.0733 4.50666 13.0733H4C2.62 13.0733 1.5 11.96 1.5 10.5933V3.31998C1.5 1.95332 2.62 0.840004 4 0.840004H12C13.38 0.840004 14.5 1.95332 14.5 3.31998V10.5933C14.5 11.96 13.38 13.0733 12 13.0733H11.4933C11.0933 13.0733 10.7133 13.2267 10.4333 13.5067L9.29333 14.6333C8.94 14.9867 8.46667 15.1667 8 15.1667ZM4 1.83333C3.17333 1.83333 2.5 2.49998 2.5 3.31331V10.5867C2.5 11.4067 3.17333 12.0667 4 12.0667H4.50666C5.17333 12.0667 5.8 12.3266 6.27333 12.7933L7.41333 13.92C7.74 14.24 8.26667 14.24 8.59333 13.92L9.73333 12.7933C10.2067 12.3266 10.8333 12.0667 11.5 12.0667H12C12.8267 12.0667 13.5 11.4 13.5 10.5867V3.31331C13.5 2.49331 12.8267 1.83333 12 1.83333H4Z" fill="currentColor"/>
</svg>
