<svg width="16" height="16" viewBox="0 0 16 16" fill="none" xmlns="http://www.w3.org/2000/svg">
<g clip-path="url(#clip0_2_4835)">
<path d="M6.63286 15.1666H5.1862C4.9262 15.1666 4.4062 15.0865 4.1062 14.7932L2.97286 13.9199L3.5862 13.1265L4.7662 14.0399C4.85286 14.1133 5.03286 14.1666 5.1862 14.1666H6.63286C6.87953 14.1666 7.15953 13.9599 7.21286 13.7466L8.13953 10.9266C8.1662 10.8599 8.1862 10.7599 8.13953 10.6866C8.09953 10.6266 8.0062 10.5933 7.89286 10.5933H6.3662C6.1062 10.5933 5.8662 10.4799 5.69286 10.2866C5.51953 10.0866 5.4462 9.8332 5.4862 9.55987L5.67952 8.33327C5.70619 8.21994 5.6262 8.07987 5.51953 8.04654C5.43286 8.0132 5.2862 8.07327 5.25286 8.11994L3.6862 10.4466L2.85286 9.88654L4.41286 7.55987C4.7062 7.11987 5.3462 6.91994 5.83953 7.1066C6.4062 7.29327 6.77953 7.93327 6.6462 8.51994L6.47953 9.5866H7.87286C8.31953 9.5866 8.7062 9.77327 8.93953 10.1066C9.1662 10.4266 9.21286 10.8466 9.0662 11.2466L8.15286 14.0199C8.01953 14.6466 7.33953 15.1666 6.63286 15.1666Z" fill="currentColor"/>
<path d="M2.47984 14.7466H2.09984C1.05984 14.7466 0.839844 14.0799 0.839844 13.5199V9.7866C0.839844 9.2266 1.05984 8.55987 2.09984 8.55987H2.47984C3.51984 8.55987 3.73984 9.2266 3.73984 9.7866V13.5199C3.73984 14.0799 3.51984 14.7466 2.47984 14.7466ZM1.85984 13.7199C1.8665 13.7199 1.93317 13.7466 2.09317 13.7466H2.47317C2.6465 13.7466 2.70651 13.7199 2.71984 13.7132C2.71984 13.7065 2.73984 13.6599 2.73984 13.5199V9.7866C2.73984 9.6466 2.71984 9.59327 2.71317 9.5866C2.71317 9.59994 2.6465 9.55987 2.47984 9.55987H2.09984C1.92651 9.55987 1.8665 9.5866 1.85317 9.59327C1.85317 9.59994 1.83317 9.6466 1.83317 9.7866V13.5199C1.83317 13.6599 1.85317 13.7132 1.85984 13.7199Z" fill="currentColor"/>
<path d="M10.5401 8.95994C10.4068 8.95994 10.2735 8.94 10.1468 8.89334C9.58013 8.70667 9.2068 8.06667 9.34013 7.48L9.5068 6.41334H8.11346C7.6668 6.41334 7.28013 6.22665 7.0468 5.89332C6.82013 5.57332 6.77346 5.15334 6.92013 4.75334L7.83346 1.97998C7.9868 1.35332 8.67346 0.833336 9.37346 0.833336H10.8201C11.0801 0.833336 11.6001 0.913376 11.9001 1.20671L13.0335 2.08L12.4201 2.87338L11.2401 1.95996C11.1535 1.88663 10.9735 1.83334 10.8201 1.83334H9.37346C9.1268 1.83334 8.8468 2.04 8.79346 2.25334L7.8668 5.07333C7.84013 5.14 7.82013 5.23998 7.8668 5.31332C7.9068 5.37332 8.00013 5.40666 8.11346 5.40666H9.64013C9.90013 5.40666 10.1401 5.51997 10.3135 5.7133C10.4868 5.9133 10.5601 6.16669 10.5201 6.44002L10.3268 7.66667C10.3001 7.78 10.3801 7.92007 10.4868 7.9534C10.5801 7.98674 10.7201 7.93327 10.7535 7.87994L12.3201 5.55331L13.1535 6.11336L11.5935 8.44C11.3535 8.76 10.9401 8.95994 10.5401 8.95994Z" fill="currentColor"/>
<path d="M13.9069 7.43994H13.5269C12.4869 7.43994 12.2669 6.7732 12.2669 6.21322V2.4799C12.2669 1.9199 12.4869 1.25326 13.5269 1.25326H13.9069C14.9469 1.25326 15.1669 1.9199 15.1669 2.4799V6.21322C15.1669 6.7732 14.9469 7.43994 13.9069 7.43994ZM13.2869 6.41325C13.2936 6.41325 13.3603 6.43994 13.5203 6.43994H13.9003C14.0736 6.43994 14.1336 6.41324 14.1469 6.40658C14.1469 6.39991 14.1669 6.35322 14.1669 6.21322V2.4799C14.1669 2.3399 14.1469 2.29328 14.1403 2.27995C14.1469 2.30662 14.0736 2.25326 13.9069 2.25326H13.5269C13.3536 2.25326 13.2936 2.27996 13.2803 2.28662C13.2803 2.29329 13.2603 2.3399 13.2603 2.4799V6.21322C13.2603 6.35322 13.2803 6.39992 13.2869 6.41325Z" fill="currentColor"/>
</g>
<defs>
<clipPath id="clip0_2_4835">
<rect width="16" height="16" fill="currentColor"/>
</clipPath>
</defs>
</svg>
