<svg width="16" height="16" viewBox="0 0 16 16" fill="none" xmlns="http://www.w3.org/2000/svg">
<path d="M5.9931 14.3334C4.88644 14.3334 3.7731 13.9134 2.92644 13.0667C1.23977 11.3734 1.23977 8.62673 2.92644 6.94006C3.11977 6.74673 3.43977 6.74673 3.6331 6.94006C3.82644 7.1334 3.82644 7.4534 3.6331 7.64673C2.3331 8.94673 2.3331 11.0601 3.6331 12.3601C4.9331 13.6601 7.04644 13.6601 8.34644 12.3601C8.97311 11.7334 9.31978 10.8934 9.31978 10.0001C9.31978 9.1134 8.97311 8.2734 8.34644 7.64007C8.15311 7.44673 8.15311 7.12673 8.34644 6.9334C8.53978 6.74006 8.85978 6.74006 9.05311 6.9334C9.87311 7.7534 10.3198 8.84007 10.3198 10.0001C10.3198 11.1601 9.86645 12.2467 9.05311 13.0667C8.21311 13.9134 7.10644 14.3334 5.9931 14.3334Z" fill="currentColor"/>
<path d="M12.7134 9.44013C12.5867 9.44013 12.46 9.39346 12.36 9.29346C12.1667 9.10013 12.1667 8.78013 12.36 8.5868C13.7267 7.22013 13.7267 5.00015 12.36 3.64015C10.9934 2.27348 8.77338 2.27348 7.41338 3.64015C6.75338 4.30015 6.3867 5.18015 6.3867 6.11348C6.3867 7.0468 6.75338 7.9268 7.41338 8.5868C7.60671 8.78013 7.60671 9.10013 7.41338 9.29346C7.22004 9.4868 6.90004 9.4868 6.70671 9.29346C5.86003 8.4468 5.3867 7.31346 5.3867 6.11348C5.3867 4.91348 5.85336 3.78015 6.70671 2.93348C8.46004 1.18015 11.3134 1.18015 13.0734 2.93348C14.8267 4.68682 14.8267 7.5468 13.0734 9.30013C12.9734 9.39347 12.84 9.44013 12.7134 9.44013Z" fill="currentColor"/>
</svg>
