<svg width="16" height="16" viewBox="0 0 16 16" fill="none" xmlns="http://www.w3.org/2000/svg">
<g clip-path="url(#clip0_2_4855)">
<path d="M5.45305 11.1799C5.43971 11.1799 5.41972 11.1799 5.40639 11.1799C4.75972 11.1199 4.15305 10.8199 3.69972 10.3399C2.63305 9.21994 2.63305 7.39994 3.69972 6.27991L5.15972 4.74656C5.67972 4.1999 6.37972 3.89323 7.12638 3.89323C7.87305 3.89323 8.57305 4.19323 9.09305 4.74656C10.1597 5.86656 10.1597 7.68654 9.09305 8.80654L8.36638 9.5732C8.17305 9.7732 7.85971 9.77993 7.65971 9.59327C7.45971 9.39994 7.45305 9.08654 7.63971 8.88653L8.36638 8.11987C9.07304 7.37987 9.07304 6.17324 8.36638 5.4399C7.70638 4.74657 6.54639 4.74657 5.87972 5.4399L4.41972 6.9732C3.71305 7.7132 3.71305 8.91994 4.41972 9.65327C4.70639 9.95994 5.09305 10.1465 5.49972 10.1865C5.77305 10.2132 5.97305 10.4599 5.94638 10.7333C5.92638 10.9866 5.70638 11.1799 5.45305 11.1799Z" fill="currentColor"/>
<path d="M8.87345 12.1066C8.12678 12.1066 7.42678 11.8066 6.90678 11.2533C5.84009 10.1333 5.84009 8.31327 6.90678 7.19327L7.63345 6.42661C7.82678 6.22661 8.14011 6.21992 8.34011 6.40659C8.54011 6.59992 8.54671 6.91327 8.36005 7.11327L7.63345 7.87994C6.92678 8.61994 6.92678 9.8266 7.63345 10.5599C8.29345 11.2533 9.45338 11.2599 10.12 10.5599L11.5801 9.0266C12.2868 8.2866 12.2868 7.07994 11.5801 6.3466C11.2934 6.03993 10.9068 5.85327 10.5001 5.81327C10.2268 5.7866 10.0268 5.53993 10.0534 5.2666C10.0801 4.99326 10.32 4.78661 10.6 4.81994C11.2467 4.88661 11.8534 5.17993 12.3068 5.65993C13.3734 6.77994 13.3734 8.59994 12.3068 9.71994L10.8468 11.2533C10.3201 11.8066 9.62011 12.1066 8.87345 12.1066Z" fill="currentColor"/>
<path d="M9.99998 15.1667H5.99998C2.37998 15.1667 0.833313 13.62 0.833313 10V6C0.833313 2.38 2.37998 0.833336 5.99998 0.833336H9.99998C13.62 0.833336 15.1666 2.38 15.1666 6V10C15.1666 13.62 13.62 15.1667 9.99998 15.1667ZM5.99998 1.83334C2.92665 1.83334 1.83331 2.92667 1.83331 6V10C1.83331 13.0733 2.92665 14.1667 5.99998 14.1667H9.99998C13.0733 14.1667 14.1666 13.0733 14.1666 10V6C14.1666 2.92667 13.0733 1.83334 9.99998 1.83334H5.99998Z" fill="currentColor"/>
</g>
<defs>
<clipPath id="clip0_2_4855">
<rect width="16" height="16" fill="currentColor"/>
</clipPath>
</defs>
</svg>
