<svg width="16" height="16" viewBox="0 0 16 16" fill="none" xmlns="http://www.w3.org/2000/svg">
<path d="M5.16665 12.3333C2.77998 12.3333 0.833313 10.3867 0.833313 8C0.833313 5.61333 2.77998 3.66667 5.16665 3.66667C5.43998 3.66667 5.66665 3.89333 5.66665 4.16667C5.66665 4.44 5.43998 4.66667 5.16665 4.66667C3.32665 4.66667 1.83331 6.16 1.83331 8C1.83331 9.84 3.32665 11.3333 5.16665 11.3333C7.00665 11.3333 8.49998 9.84 8.49998 8C8.49998 7.72667 8.72665 7.5 8.99998 7.5C9.27331 7.5 9.49998 7.72667 9.49998 8C9.49998 10.3867 7.55331 12.3333 5.16665 12.3333Z" fill="currentColor"/>
<path d="M10.6666 12.5C10.3933 12.5 10.1666 12.2733 10.1666 12C10.1666 11.7267 10.3933 11.5 10.6666 11.5C12.5933 11.5 14.1666 9.92667 14.1666 8C14.1666 6.07333 12.5933 4.5 10.6666 4.5C8.73998 4.5 7.16665 6.07333 7.16665 8C7.16665 8.27333 6.93998 8.5 6.66665 8.5C6.39331 8.5 6.16665 8.27333 6.16665 8C6.16665 5.52 8.18665 3.5 10.6666 3.5C13.1466 3.5 15.1666 5.52 15.1666 8C15.1666 10.48 13.1466 12.5 10.6666 12.5Z" fill="currentColor"/>
</svg>
