<svg width="16" height="16" viewBox="0 0 16 16" fill="none" xmlns="http://www.w3.org/2000/svg">
<path d="M11.0001 12.1667H9.99345C9.72011 12.1667 9.49345 11.94 9.49345 11.6667C9.49345 11.3933 9.72011 11.1667 9.99345 11.1667H11.0001C12.7468 11.1667 14.1668 9.74667 14.1668 8C14.1668 6.25334 12.7468 4.83334 11.0001 4.83334H10.0001C9.72678 4.83334 9.50011 4.60667 9.50011 4.33334C9.50011 4.06 9.72011 3.83334 10.0001 3.83334H11.0001C13.3001 3.83334 15.1668 5.7 15.1668 8C15.1668 10.3 13.3001 12.1667 11.0001 12.1667Z" fill="currentColor"/>
<path d="M5.99998 12.1667H4.99998C2.69998 12.1667 0.833313 10.3 0.833313 8C0.833313 5.7 2.69998 3.83334 4.99998 3.83334H5.99998C6.27331 3.83334 6.49998 4.06 6.49998 4.33334C6.49998 4.60667 6.27331 4.83334 5.99998 4.83334H4.99998C3.25331 4.83334 1.83331 6.25334 1.83331 8C1.83331 9.74667 3.25331 11.1667 4.99998 11.1667H5.99998C6.27331 11.1667 6.49998 11.3933 6.49998 11.6667C6.49998 11.94 6.27331 12.1667 5.99998 12.1667Z" fill="currentColor"/>
<path d="M10.6666 8.5H5.33331C5.05998 8.5 4.83331 8.27334 4.83331 8C4.83331 7.72667 5.05998 7.5 5.33331 7.5H10.6666C10.94 7.5 11.1666 7.72667 11.1666 8C11.1666 8.27334 10.94 8.5 10.6666 8.5Z" fill="currentColor"/>
</svg>
