<svg width="16" height="16" viewBox="0 0 16 16" fill="none" xmlns="http://www.w3.org/2000/svg">
<path d="M8.33349 9.83333H6.66682C6.39352 9.83333 6.16685 9.60667 6.16685 9.33333C6.16685 9.06 6.39352 8.83333 6.66682 8.83333H8.33349C10.0802 8.83333 11.5002 7.41333 11.5002 5.66667C11.5002 3.92 10.0802 2.5 8.33349 2.5H5.00018C3.25352 2.5 1.83352 3.92 1.83352 5.66667C1.83352 6.4 2.09351 7.11333 2.56018 7.68C2.73351 7.89333 2.70684 8.20667 2.49351 8.38667C2.28018 8.56 1.96685 8.53333 1.78685 8.32C1.16685 7.57333 0.826843 6.63333 0.826843 5.66667C0.826843 3.36667 2.69351 1.5 4.99351 1.5H8.32682C10.6268 1.5 12.4935 3.36667 12.4935 5.66667C12.4935 7.96667 10.6335 9.83333 8.33349 9.83333Z" fill="currentColor"/>
<path d="M11 14.5H7.66669C5.36669 14.5 3.50002 12.6333 3.50002 10.3333C3.50002 8.03333 5.36669 6.16667 7.66669 6.16667H9.33336C9.60669 6.16667 9.83336 6.39333 9.83336 6.66667C9.83336 6.94 9.60669 7.16667 9.33336 7.16667H7.66669C5.92002 7.16667 4.50002 8.58667 4.50002 10.3333C4.50002 12.08 5.92002 13.5 7.66669 13.5H11C12.7467 13.5 14.1667 12.08 14.1667 10.3333C14.1667 9.6 13.9067 8.88667 13.44 8.32C13.2667 8.10667 13.2934 7.79333 13.5067 7.61333C13.72 7.43333 14.0334 7.46667 14.2134 7.68C14.8334 8.42667 15.1734 9.36667 15.1734 10.3333C15.1667 12.6333 13.3 14.5 11 14.5Z" fill="currentColor"/>
</svg>
