<svg width="16" height="16" viewBox="0 0 16 16" fill="none" xmlns="http://www.w3.org/2000/svg">
<g clip-path="url(#clip0_2_5138)">
<path d="M5.29314 10.1735C5.23314 10.1735 5.1798 10.1668 5.1198 10.1401C4.5798 9.94014 4.12647 9.5468 3.8398 9.03347C3.17313 7.83347 3.58647 6.26678 4.75314 5.54012L6.31314 4.57344C6.88645 4.2201 7.55978 4.11346 8.19978 4.28012C8.83978 4.44679 9.37978 4.86678 9.70645 5.45344C10.3731 6.65344 9.95978 8.22014 8.79311 8.9468L8.61978 9.07347C8.39311 9.23347 8.07978 9.18013 7.91978 8.96014C7.75978 8.73347 7.81311 8.42014 8.03311 8.26014L8.23978 8.11347C8.98645 7.6468 9.23978 6.68014 8.83311 5.94012C8.63978 5.59345 8.32645 5.34678 7.95311 5.24678C7.57978 5.14678 7.18645 5.21345 6.84645 5.42012L5.28647 6.38678C4.56647 6.83347 4.31314 7.80014 4.71981 8.5468C4.88647 8.8468 5.15314 9.08014 5.47314 9.20014C5.73314 9.29347 5.86647 9.58014 5.76647 9.84014C5.69313 10.0468 5.49981 10.1735 5.29314 10.1735Z" fill="currentColor"/>
<path d="M8.43998 11.7667C8.23998 11.7667 8.03331 11.7401 7.83331 11.6867C7.19331 11.5201 6.65329 11.1001 6.33329 10.5134C5.66663 9.3134 6.07995 7.74674 7.24665 7.02007L7.41998 6.8934C7.64665 6.7334 7.95998 6.78674 8.11998 7.00674C8.27998 7.2334 8.22665 7.54674 8.00665 7.70674L7.79998 7.8534C7.05331 8.32007 6.79998 9.28674 7.20665 10.0267C7.39998 10.3734 7.71331 10.6201 8.08665 10.7201C8.45998 10.8201 8.85331 10.7534 9.19331 10.5467L10.7533 9.58007C11.4733 9.1334 11.7266 8.16674 11.32 7.42007C11.1533 7.12007 10.8866 6.88674 10.5666 6.76674C10.3066 6.6734 10.1733 6.38674 10.2733 6.12674C10.3666 5.86674 10.6533 5.73341 10.9133 5.83341C11.4533 6.03341 11.9066 6.42675 12.1933 6.94007C12.86 8.14007 12.4466 9.70673 11.28 10.4334L9.71998 11.4001C9.32665 11.6401 8.88665 11.7667 8.43998 11.7667Z" fill="currentColor"/>
<path d="M7.99998 15.1667C4.04665 15.1667 0.833313 11.9533 0.833313 8C0.833313 4.04667 4.04665 0.833336 7.99998 0.833336C11.9533 0.833336 15.1666 4.04667 15.1666 8C15.1666 11.9533 11.9533 15.1667 7.99998 15.1667ZM7.99998 1.83334C4.59998 1.83334 1.83331 4.6 1.83331 8C1.83331 11.4 4.59998 14.1667 7.99998 14.1667C11.4 14.1667 14.1666 11.4 14.1666 8C14.1666 4.6 11.4 1.83334 7.99998 1.83334Z" fill="currentColor"/>
</g>
<defs>
<clipPath id="clip0_2_5138">
<rect width="16" height="16" fill="currentColor"/>
</clipPath>
</defs>
</svg>
