<svg width="16" height="16" viewBox="0 0 16 16" fill="none" xmlns="http://www.w3.org/2000/svg">
<g clip-path="url(#clip0_2_4825)">
<path d="M6.94729 9.1668C6.86062 9.1668 6.77396 9.1468 6.69396 9.10013C5.90726 8.64013 5.4206 7.7868 5.4206 6.88013C5.4206 5.46013 6.57393 4.30013 8.00062 4.30013C8.91395 4.30013 9.76729 4.7868 10.2273 5.58013C10.3673 5.82013 10.2873 6.1268 10.0473 6.2668C9.80729 6.4068 9.50062 6.3268 9.36062 6.0868C9.08062 5.59347 8.56062 5.29347 8.00062 5.29347C7.13396 5.29347 6.4206 6.00013 6.4206 6.87347C6.4206 7.43347 6.72062 7.95347 7.20062 8.23347C7.44062 8.37347 7.52062 8.68013 7.38062 8.92013C7.28729 9.07347 7.12062 9.1668 6.94729 9.1668Z" fill="currentColor"/>
<path d="M3.99384 12.3734C3.8405 12.3734 3.68718 12.3001 3.58718 12.1667C1.98718 9.9734 1.42718 7.74673 1.92718 5.54671C2.44718 3.26005 4.12717 1.56671 6.4205 1.01338C8.82049 0.433381 11.3405 1.21338 12.8272 2.99338C13.0072 3.20671 12.9738 3.52005 12.7672 3.70005C12.5538 3.88005 12.2405 3.84671 12.0605 3.63338C10.8138 2.14005 8.69382 1.49338 6.65383 1.98005C4.70717 2.44671 3.34051 3.82671 2.9005 5.76005C2.46717 7.66673 2.96718 9.62007 4.39384 11.5667C4.55384 11.7867 4.50718 12.1001 4.28717 12.2667C4.2005 12.3401 4.09384 12.3734 3.99384 12.3734Z" fill="currentColor"/>
<path d="M8.00009 15.1732C7.01342 15.1732 6.02006 14.7999 5.24673 14.0599C5.04673 13.8665 5.04006 13.5532 5.2334 13.3532C5.42673 13.1532 5.74006 13.1465 5.94006 13.3399C7.09342 14.4532 8.90009 14.4532 10.0534 13.3399C11.8334 11.6265 13.8068 8.91987 13.1001 5.77985C13.0401 5.51318 13.2068 5.23985 13.4801 5.17985C13.7468 5.11985 14.0201 5.28651 14.0801 5.55985C14.8934 9.1532 12.7201 12.1665 10.7534 14.0599C9.98009 14.7999 8.98676 15.1732 8.00009 15.1732Z" fill="currentColor"/>
<path d="M1.33299 15.1666C1.20632 15.1666 1.07966 15.1199 0.979656 15.0199C0.786322 14.8266 0.786322 14.5066 0.979656 14.3133L14.313 0.97996C14.5064 0.786627 14.8264 0.786627 15.0197 0.97996C15.213 1.17329 15.213 1.49329 15.0197 1.68663L1.68632 15.0199C1.58632 15.1199 1.45966 15.1666 1.33299 15.1666Z" fill="currentColor"/>
</g>
<defs>
<clipPath id="clip0_2_4825">
<rect width="16" height="16" fill="currentColor"/>
</clipPath>
</defs>
</svg>
