<svg width="16" height="16" viewBox="0 0 16 16" fill="none" xmlns="http://www.w3.org/2000/svg">
<path d="M9.83335 7.83334H6.16669C5.89335 7.83334 5.66669 7.60667 5.66669 7.33334C5.66669 7.06 5.89335 6.83334 6.16669 6.83334H9.83335C10.1067 6.83334 10.3334 7.06 10.3334 7.33334C10.3334 7.60667 10.1067 7.83334 9.83335 7.83334Z" fill="currentColor"/>
<path d="M7.99982 15.1733C7.01315 15.1733 6.01981 14.8 5.24648 14.06C3.27981 12.1667 1.10648 9.14667 1.92648 5.55334C2.66648 2.29334 5.51315 0.833336 7.99982 0.833336C7.99982 0.833336 7.99982 0.833336 8.00649 0.833336C10.4932 0.833336 13.3398 2.29334 14.0798 5.56C14.8932 9.15334 12.7198 12.1667 10.7532 14.06C9.97982 14.8 8.98649 15.1733 7.99982 15.1733ZM7.99982 1.83334C6.05981 1.83334 3.56648 2.86667 2.90648 5.77334C2.18648 8.91334 4.15981 11.62 5.94648 13.3333C7.09982 14.4467 8.90649 14.4467 10.0598 13.3333C11.8398 11.62 13.8132 8.91334 13.1065 5.77334C12.4398 2.86667 9.93982 1.83334 7.99982 1.83334Z" fill="currentColor"/>
</svg>
