<svg width="16" height="16" viewBox="0 0 16 16" fill="none" xmlns="http://www.w3.org/2000/svg">
<g clip-path="url(#clip0_2_5213)">
<path d="M12 7.16667C11.7267 7.16667 11.5 6.94 11.5 6.66667V5.33334C11.5 3.23334 10.9067 1.83334 8.00001 1.83334C5.09334 1.83334 4.50001 3.23334 4.50001 5.33334V6.66667C4.50001 6.94 4.27334 7.16667 4.00001 7.16667C3.72668 7.16667 3.50001 6.94 3.50001 6.66667V5.33334C3.50001 3.4 3.96668 0.833336 8.00001 0.833336C12.0333 0.833336 12.5 3.4 12.5 5.33334V6.66667C12.5 6.94 12.2733 7.16667 12 7.16667Z" fill="currentColor"/>
<path d="M11.3333 15.1667H4.66668C1.72668 15.1667 0.833344 14.2733 0.833344 11.3333V10C0.833344 7.06 1.72668 6.16667 4.66668 6.16667H11.3333C14.2733 6.16667 15.1667 7.06 15.1667 10V11.3333C15.1667 14.2733 14.2733 15.1667 11.3333 15.1667ZM4.66668 7.16667C2.28001 7.16667 1.83334 7.62 1.83334 10V11.3333C1.83334 13.7133 2.28001 14.1667 4.66668 14.1667H11.3333C13.72 14.1667 14.1667 13.7133 14.1667 11.3333V10C14.1667 7.62 13.72 7.16667 11.3333 7.16667H4.66668Z" fill="currentColor"/>
<path d="M5.33334 11.3333C5.24668 11.3333 5.16001 11.3133 5.08001 11.2799C4.99334 11.2466 4.92668 11.1999 4.86002 11.1399C4.74002 11.0133 4.66668 10.8466 4.66668 10.6666C4.66668 10.5799 4.68667 10.4933 4.72 10.4133C4.75334 10.3266 4.80002 10.2599 4.86002 10.1933C4.92668 10.1333 4.99334 10.0866 5.08001 10.0533C5.32001 9.9466 5.62 10.0066 5.80667 10.1933C5.86667 10.2599 5.91335 10.3333 5.94668 10.4133C5.98002 10.4933 6.00001 10.5799 6.00001 10.6666C6.00001 10.8399 5.92667 11.0133 5.80667 11.1399C5.68 11.2599 5.50668 11.3333 5.33334 11.3333Z" fill="currentColor"/>
<path d="M8.00001 11.3333C7.82668 11.3333 7.65334 11.2599 7.52668 11.1399C7.40668 11.0133 7.33334 10.8466 7.33334 10.6666C7.33334 10.5799 7.34668 10.4933 7.38668 10.4133C7.42001 10.3333 7.46668 10.2599 7.52668 10.1933C7.68001 10.0399 7.91334 9.9666 8.12668 10.0133C8.17334 10.0199 8.21334 10.0333 8.25334 10.0533C8.29334 10.0666 8.33334 10.0866 8.37334 10.1133C8.40668 10.1333 8.44001 10.1666 8.47334 10.1933C8.53334 10.2599 8.58001 10.3333 8.61334 10.4133C8.64668 10.4933 8.66668 10.5799 8.66668 10.6666C8.66668 10.8466 8.59334 11.0133 8.47334 11.1399C8.44001 11.1666 8.40668 11.1933 8.37334 11.2199C8.33334 11.2466 8.29334 11.2666 8.25334 11.2799C8.21334 11.2999 8.17334 11.3133 8.12668 11.3199C8.08668 11.3266 8.04001 11.3333 8.00001 11.3333Z" fill="currentColor"/>
<path d="M10.6667 11.3333C10.4867 11.3333 10.32 11.2599 10.1933 11.1399C10.1333 11.0733 10.0867 10.9999 10.0533 10.9199C10.02 10.8399 10 10.7533 10 10.6666C10 10.4933 10.0733 10.3199 10.1933 10.1933C10.2267 10.1666 10.26 10.1399 10.2933 10.1133C10.3333 10.0866 10.3733 10.0666 10.4133 10.0533C10.4533 10.0333 10.4933 10.0199 10.5333 10.0133C10.7533 9.9666 10.98 10.0399 11.14 10.1933C11.26 10.3199 11.3333 10.4866 11.3333 10.6666C11.3333 10.7533 11.3133 10.8399 11.28 10.9199C11.2467 11.0066 11.2 11.0733 11.14 11.1399C11.0133 11.2599 10.84 11.3333 10.6667 11.3333Z" fill="currentColor"/>
</g>
<defs>
<clipPath id="clip0_2_5213">
<rect width="16" height="16" fill="currentColor"/>
</clipPath>
</defs>
</svg>
