<svg width="16" height="16" viewBox="0 0 16 16" fill="none" xmlns="http://www.w3.org/2000/svg">
<g clip-path="url(#clip0_2_5204)">
<path d="M7.99974 12.8333C7.31974 12.8333 6.69308 12.5267 6.27972 11.9867C6.11305 11.7667 6.15306 11.4533 6.37306 11.2867C6.59306 11.12 6.90641 11.16 7.07308 11.38C7.29308 11.6733 7.63308 11.8333 7.99974 11.8333C8.63974 11.8333 9.16641 11.3067 9.16641 10.6667C9.16641 10.4067 9.08641 10.16 8.92641 9.96C8.75974 9.74 8.79974 9.42667 9.01974 9.26C9.23974 9.09334 9.55308 9.13334 9.71974 9.35334C10.0131 9.73334 10.1664 10.1867 10.1664 10.6667C10.1664 11.86 9.19308 12.8333 7.99974 12.8333Z" fill="currentColor"/>
<path d="M11.3333 15.1667H4.66668C4.42001 15.1667 4.18668 15.16 3.96668 15.1467C3.69334 15.1333 3.48001 14.8933 3.49334 14.62C3.50668 14.3467 3.74001 14.1467 4.02001 14.1467C4.22001 14.16 4.43334 14.16 4.66001 14.16H11.3267C13.7067 14.16 14.16 13.7067 14.16 11.3267V9.99333C14.16 7.65334 13.6667 7.27334 11.9667 7.17334C11.7667 7.16 11.5533 7.16 11.3267 7.16H4.66668C2.28668 7.16 1.83334 7.61334 1.83334 9.99333V11.3267C1.83334 12.4867 1.96668 13.1733 2.27334 13.5467C2.44668 13.76 2.41334 14.08 2.19334 14.2467C1.98001 14.42 1.66668 14.3867 1.49334 14.1667C1.02668 13.6 0.833344 12.7733 0.833344 11.3333V10C0.833344 7.06 1.72668 6.16667 4.66668 6.16667H11.3333C11.58 6.16667 11.8133 6.17334 12.0267 6.18667C14.6667 6.33334 15.1667 7.64 15.1667 10V11.3333C15.1667 14.2733 14.2733 15.1667 11.3333 15.1667Z" fill="currentColor"/>
<path d="M4.00001 7.16667C3.72668 7.16667 3.50001 6.94 3.50001 6.66667V5.33334C3.50001 3.4 3.96668 0.833336 8.00001 0.833336C10.7133 0.833336 12.12 1.72 12.4267 3.62667C12.4733 3.9 12.2867 4.15334 12.0133 4.2C11.74 4.24667 11.4867 4.06 11.44 3.78667C11.2733 2.77334 10.7467 1.83334 8.00001 1.83334C5.09334 1.83334 4.50001 3.23334 4.50001 5.33334V6.66667C4.50001 6.94 4.27334 7.16667 4.00001 7.16667Z" fill="currentColor"/>
<path d="M1.33298 15.1666C1.20631 15.1666 1.07964 15.1199 0.979644 15.0199C0.78631 14.8266 0.78631 14.5066 0.979644 14.3133L14.313 0.979963C14.5063 0.786629 14.8263 0.786629 15.0197 0.979963C15.213 1.1733 15.213 1.4933 15.0197 1.68663L1.68631 15.0199C1.58631 15.1199 1.45964 15.1666 1.33298 15.1666Z" fill="currentColor"/>
</g>
<defs>
<clipPath id="clip0_2_5204">
<rect width="16" height="16" fill="currentColor"/>
</clipPath>
</defs>
</svg>
