<svg width="16" height="16" viewBox="0 0 16 16" fill="none" xmlns="http://www.w3.org/2000/svg">
<g clip-path="url(#clip0_2_4851)">
<path d="M10 7.83334C9.72668 7.83334 9.50001 7.60667 9.50001 7.33334V6.66667C9.50001 5.69334 9.26001 5.16667 8.00001 5.16667C6.74001 5.16667 6.50001 5.69334 6.50001 6.66667V7.33334C6.50001 7.60667 6.27334 7.83334 6.00001 7.83334C5.72668 7.83334 5.50001 7.60667 5.50001 7.33334V6.66667C5.50001 6.04667 5.50001 4.16667 8.00001 4.16667C10.5 4.16667 10.5 6.04667 10.5 6.66667V7.33334C10.5 7.60667 10.2733 7.83334 10 7.83334Z" fill="currentColor"/>
<path d="M8.00028 10.2333C7.50694 10.2333 7.10028 9.8266 7.10028 9.33327C7.10028 8.83994 7.50694 8.43327 8.00028 8.43327C8.49361 8.43327 8.90021 8.83994 8.90021 9.33327C8.90021 9.8266 8.49361 10.2333 8.00028 10.2333ZM8.00028 9.23327C7.94694 9.23327 7.90021 9.27993 7.90021 9.33327C7.90021 9.4466 8.10028 9.4466 8.10028 9.33327C8.10028 9.27993 8.05361 9.23327 8.00028 9.23327Z" fill="currentColor"/>
<path d="M9.66668 11.8333H6.33334C4.73334 11.8333 4.16668 11.2667 4.16668 9.66667V9C4.16668 7.4 4.73334 6.83334 6.33334 6.83334H9.66668C11.2667 6.83334 11.8333 7.4 11.8333 9V9.66667C11.8333 11.2667 11.2667 11.8333 9.66668 11.8333ZM6.33334 7.83334C5.27334 7.83334 5.16668 7.94 5.16668 9V9.66667C5.16668 10.7267 5.27334 10.8333 6.33334 10.8333H9.66668C10.7267 10.8333 10.8333 10.7267 10.8333 9.66667V9C10.8333 7.94 10.7267 7.83334 9.66668 7.83334H6.33334Z" fill="currentColor"/>
<path d="M8.00001 15.1667C4.04668 15.1667 0.833344 11.9533 0.833344 8C0.833344 4.04667 4.04668 0.833336 8.00001 0.833336C11.9533 0.833336 15.1667 4.04667 15.1667 8C15.1667 11.9533 11.9533 15.1667 8.00001 15.1667ZM8.00001 1.83334C4.60001 1.83334 1.83334 4.6 1.83334 8C1.83334 11.4 4.60001 14.1667 8.00001 14.1667C11.4 14.1667 14.1667 11.4 14.1667 8C14.1667 4.6 11.4 1.83334 8.00001 1.83334Z" fill="currentColor"/>
</g>
<defs>
<clipPath id="clip0_2_4851">
<rect width="16" height="16" fill="currentColor"/>
</clipPath>
</defs>
</svg>
