<svg width="16" height="16" viewBox="0 0 16 16" fill="none" xmlns="http://www.w3.org/2000/svg">
<g clip-path="url(#clip0_2_4824)">
<path d="M12 7.16667C11.7266 7.16667 11.5 6.94 11.5 6.66667V5.33334C11.5 3.23334 10.9066 1.83334 7.99998 1.83334C5.09331 1.83334 4.49998 3.23334 4.49998 5.33334V6.66667C4.49998 6.94 4.27331 7.16667 3.99998 7.16667C3.72665 7.16667 3.49998 6.94 3.49998 6.66667V5.33334C3.49998 3.4 3.96665 0.833336 7.99998 0.833336C12.0333 0.833336 12.5 3.4 12.5 5.33334V6.66667C12.5 6.94 12.2733 7.16667 12 7.16667Z" fill="currentColor"/>
<path d="M7.99998 12.8333C6.80665 12.8333 5.83331 11.86 5.83331 10.6667C5.83331 9.47334 6.80665 8.5 7.99998 8.5C9.19331 8.5 10.1666 9.47334 10.1666 10.6667C10.1666 11.86 9.19331 12.8333 7.99998 12.8333ZM7.99998 9.5C7.35998 9.5 6.83331 10.0267 6.83331 10.6667C6.83331 11.3067 7.35998 11.8333 7.99998 11.8333C8.63998 11.8333 9.16665 11.3067 9.16665 10.6667C9.16665 10.0267 8.63998 9.5 7.99998 9.5Z" fill="currentColor"/>
<path d="M11.3333 15.1667H4.66665C1.72665 15.1667 0.833313 14.2733 0.833313 11.3333V10C0.833313 7.06 1.72665 6.16667 4.66665 6.16667H11.3333C14.2733 6.16667 15.1666 7.06 15.1666 10V11.3333C15.1666 14.2733 14.2733 15.1667 11.3333 15.1667ZM4.66665 7.16667C2.27998 7.16667 1.83331 7.62 1.83331 10V11.3333C1.83331 13.7133 2.27998 14.1667 4.66665 14.1667H11.3333C13.72 14.1667 14.1666 13.7133 14.1666 11.3333V10C14.1666 7.62 13.72 7.16667 11.3333 7.16667H4.66665Z" fill="currentColor"/>
</g>
<defs>
<clipPath id="clip0_2_4824">
<rect width="16" height="16" fill="currentColor"/>
</clipPath>
</defs>
</svg>
