<svg width="16" height="16" viewBox="0 0 16 16" fill="none" xmlns="http://www.w3.org/2000/svg">
<path d="M7.78606 10.2466C7.65939 10.2466 7.53272 10.1999 7.43272 10.0999C7.23939 9.9066 7.23939 9.5866 7.43272 9.39326L8.78606 8.03993L7.43272 6.6866C7.23939 6.49329 7.23939 6.17329 7.43272 5.97996C7.62606 5.78662 7.94606 5.78662 8.13939 5.97996L9.84606 7.6866C10.0394 7.87993 10.0394 8.19993 9.84606 8.39326L8.13939 10.0999C8.04606 10.1999 7.91272 10.2466 7.78606 10.2466Z" fill="currentColor"/>
<path d="M9.44666 8.54006H2.66666C2.39332 8.54006 2.16666 8.3134 2.16666 8.04006C2.16666 7.76673 2.39332 7.54006 2.66666 7.54006H9.44666C9.71999 7.54006 9.94666 7.76673 9.94666 8.04006C9.94666 8.3134 9.71999 8.54006 9.44666 8.54006Z" fill="currentColor"/>
<path d="M7.99999 13.8333C7.72666 13.8333 7.49999 13.6067 7.49999 13.3333C7.49999 13.06 7.72666 12.8333 7.99999 12.8333C10.8467 12.8333 12.8333 10.8467 12.8333 8C12.8333 5.15333 10.8467 3.16666 7.99999 3.16666C7.72666 3.16666 7.49999 2.94 7.49999 2.66666C7.49999 2.39333 7.72666 2.16666 7.99999 2.16666C11.4333 2.16666 13.8333 4.56666 13.8333 8C13.8333 11.4333 11.4333 13.8333 7.99999 13.8333Z" fill="currentColor"/>
</svg>
