<svg width="16" height="16" viewBox="0 0 16 16" fill="none" xmlns="http://www.w3.org/2000/svg">
<path d="M10.1603 14.8467H10.0737C7.11368 14.8467 5.68701 13.68 5.44034 11.0667C5.41368 10.7933 5.61368 10.5467 5.89368 10.52C6.16701 10.4933 6.41368 10.7 6.44034 10.9733C6.63368 13.0667 7.62034 13.8467 10.0803 13.8467H10.167C12.8803 13.8467 13.8403 12.8867 13.8403 10.1733V5.82665C13.8403 3.11332 12.8803 2.15332 10.167 2.15332H10.0803C7.60701 2.15332 6.62034 2.94665 6.44034 5.07999C6.40701 5.35332 6.18034 5.55999 5.89368 5.53332C5.61368 5.51332 5.41368 5.26665 5.43368 4.99332C5.66034 2.33999 7.09368 1.15332 10.0737 1.15332H10.1603C13.4337 1.15332 14.8337 2.55332 14.8337 5.82665V10.1733C14.8337 13.4467 13.4337 14.8467 10.1603 14.8467Z" fill="currentColor"/>
<path d="M9.92001 8.5H1.33334C1.06001 8.5 0.833344 8.27333 0.833344 8C0.833344 7.72667 1.06001 7.5 1.33334 7.5H9.92001C10.1933 7.5 10.42 7.72667 10.42 8C10.42 8.27333 10.2 8.5 9.92001 8.5Z" fill="currentColor"/>
<path d="M8.43321 10.7334C8.30654 10.7334 8.17988 10.6867 8.07988 10.5867C7.88654 10.3934 7.88654 10.0734 8.07988 9.88007L9.95988 8.00007L8.07988 6.12006C7.88654 5.92673 7.88654 5.60673 8.07988 5.41339C8.27321 5.22006 8.59321 5.22006 8.78654 5.41339L11.0199 7.64673C11.2132 7.84007 11.2132 8.16007 11.0199 8.3534L8.78654 10.5867C8.68654 10.6867 8.55988 10.7334 8.43321 10.7334Z" fill="currentColor"/>
</svg>
