<svg width="16" height="16" viewBox="0 0 16 16" fill="none" xmlns="http://www.w3.org/2000/svg">
<path d="M10.1603 14.8467H10.0737C7.11367 14.8467 5.687 13.68 5.44033 11.0667C5.41367 10.7933 5.61367 10.5467 5.89367 10.52C6.16034 10.4933 6.41367 10.7 6.44033 10.9733C6.63367 13.0667 7.62033 13.8467 10.0803 13.8467H10.167C12.8803 13.8467 13.8403 12.8867 13.8403 10.1733V5.82665C13.8403 3.11332 12.8803 2.15332 10.167 2.15332H10.0803C7.607 2.15332 6.62033 2.94665 6.44033 5.07999C6.407 5.35332 6.17367 5.55999 5.89367 5.53332C5.61367 5.51332 5.41367 5.26665 5.43367 4.99332C5.66034 2.33999 7.09367 1.15332 10.0737 1.15332H10.1603C13.4337 1.15332 14.8337 2.55332 14.8337 5.82665V10.1733C14.8337 13.4467 13.4337 14.8467 10.1603 14.8467Z" fill="currentColor"/>
<path d="M9.9994 8.5H2.41276C2.13943 8.5 1.91276 8.27333 1.91276 8C1.91276 7.72667 2.13943 7.5 2.41276 7.5H9.9994C10.2727 7.5 10.4994 7.72667 10.4994 8C10.4994 8.27333 10.2727 8.5 9.9994 8.5Z" fill="currentColor"/>
<path d="M3.89964 10.7334C3.77297 10.7334 3.6463 10.6867 3.5463 10.5867L1.31297 8.3534C1.11964 8.16007 1.11964 7.84007 1.31297 7.64673L3.5463 5.41339C3.73964 5.22006 4.05964 5.22006 4.25297 5.41339C4.4463 5.60673 4.4463 5.92673 4.25297 6.12006L2.37297 8.00007L4.25297 9.88007C4.4463 10.0734 4.4463 10.3934 4.25297 10.5867C4.15964 10.6867 4.0263 10.7334 3.89964 10.7334Z" fill="currentColor"/>
</svg>
