<svg width="16" height="16" viewBox="0 0 16 16" fill="none" xmlns="http://www.w3.org/2000/svg">
<path d="M11.6273 10.2466C11.5006 10.2466 11.3739 10.1999 11.2739 10.0999C11.0806 9.9066 11.0806 9.5866 11.2739 9.39326L12.6273 8.03993L11.2739 6.6866C11.0806 6.49329 11.0806 6.17329 11.2739 5.97996C11.4673 5.78662 11.7873 5.78662 11.9806 5.97996L13.6873 7.6866C13.8806 7.87993 13.8806 8.19993 13.6873 8.39326L11.9806 10.0999C11.8806 10.1999 11.7539 10.2466 11.6273 10.2466Z" fill="currentColor"/>
<path d="M13.2865 8.54006H6.5065C6.23317 8.54006 6.0065 8.3134 6.0065 8.04006C6.0065 7.76673 6.23317 7.54006 6.5065 7.54006H13.2865C13.5599 7.54006 13.7865 7.76673 13.7865 8.04006C13.7865 8.3134 13.5599 8.54006 13.2865 8.54006Z" fill="currentColor"/>
<path d="M7.83985 13.8333C4.4065 13.8333 2.0065 11.4333 2.0065 8C2.0065 4.56666 4.4065 2.16666 7.83985 2.16666C8.11319 2.16666 8.33985 2.39333 8.33985 2.66666C8.33985 2.94 8.11319 3.16666 7.83985 3.16666C4.99317 3.16666 3.0065 5.15333 3.0065 8C3.0065 10.8467 4.99317 12.8333 7.83985 12.8333C8.11319 12.8333 8.33985 13.06 8.33985 13.3333C8.33985 13.6067 8.11319 13.8333 7.83985 13.8333Z" fill="currentColor"/>
</svg>
