<svg width="16" height="16" viewBox="0 0 16 16" fill="none" xmlns="http://www.w3.org/2000/svg">
<path d="M7.28001 13.1667C7.08668 13.1667 6.90001 13.1401 6.74668 13.0801C4.46668 12.3001 0.833344 9.5134 0.833344 5.39339C0.833344 3.28006 2.54 1.56673 4.64 1.56673C5.64667 1.56673 6.58667 1.95339 7.28668 2.64005C7.99334 1.95339 8.92668 1.56673 9.93334 1.56673C12.0333 1.56673 13.74 3.28006 13.74 5.39339C13.74 5.68006 13.72 5.9734 13.68 6.2734C13.66 6.42673 13.5667 6.56673 13.4333 6.64673C13.3 6.72673 13.1333 6.7334 12.9867 6.6734C12.1667 6.32007 11.1467 6.58673 10.6133 7.30007C10.52 7.42673 10.34 7.4934 10.2133 7.50007C10.0533 7.50007 9.90668 7.42673 9.81334 7.30007C9.43334 6.7934 8.85334 6.50673 8.22668 6.50673C7.14001 6.50673 6.25334 7.40007 6.25334 8.50007C6.25334 10.2334 7.24668 11.4667 8.08668 12.2067C8.20668 12.3134 8.26668 12.4667 8.25334 12.6267C8.24001 12.7867 8.15334 12.9267 8.01334 13.0134C7.94001 13.0534 7.88001 13.0801 7.84668 13.0867C7.67334 13.1401 7.48001 13.1667 7.28001 13.1667ZM4.64 2.56673C3.09334 2.56673 1.83334 3.83339 1.83334 5.39339C1.83334 8.88007 4.73335 11.0267 6.40002 11.8534C5.76668 11.0067 5.24668 9.88673 5.24668 8.4934C5.24668 6.84007 6.58 5.50006 8.22001 5.50006C8.96668 5.50006 9.66668 5.77341 10.2067 6.26007C10.88 5.66007 11.84 5.38672 12.7333 5.55339C12.7333 5.50005 12.7333 5.44673 12.7333 5.40007C12.7333 3.84007 11.4733 2.57339 9.92668 2.57339C9.04001 2.57339 8.22001 2.98672 7.68001 3.70005C7.58668 3.82672 7.44001 3.90007 7.28001 3.90007C7.12001 3.90007 6.97334 3.82672 6.88001 3.70005C6.35335 2.98005 5.53334 2.56673 4.64 2.56673Z" fill="currentColor"/>
<path d="M10.2137 14.4333C10.0604 14.4333 9.90041 14.4133 9.77374 14.3667C9.20041 14.1733 8.27374 13.7 7.42708 12.9467C6.44042 12.0733 5.26042 10.5933 5.26042 8.49333C5.26042 6.84 6.59376 5.5 8.23374 5.5C8.98041 5.5 9.68041 5.77334 10.2204 6.26001C11.0604 5.50667 12.3404 5.29333 13.3937 5.75333C14.4737 6.23333 15.1737 7.31333 15.1737 8.5C15.1737 11.66 12.4004 13.78 10.6537 14.3733C10.5204 14.4133 10.3671 14.4333 10.2137 14.4333ZM8.22708 6.5C7.14041 6.5 6.25376 7.39333 6.25376 8.49333C6.25376 10.2267 7.24708 11.46 8.08708 12.2C8.82708 12.8533 9.60708 13.26 10.0937 13.42C10.1471 13.44 10.2737 13.44 10.3204 13.42C11.3204 13.08 14.1671 11.4467 14.1671 8.49333C14.1671 7.7 13.7004 6.98 12.9871 6.66667C12.1804 6.31333 11.1471 6.58 10.6137 7.29333C10.5204 7.42 10.3404 7.48667 10.2137 7.49333C10.0537 7.49333 9.90708 7.42 9.81374 7.29333C9.43374 6.78667 8.85374 6.5 8.22708 6.5Z" fill="currentColor"/>
</svg>
