<svg width="16" height="16" viewBox="0 0 16 16" fill="none" xmlns="http://www.w3.org/2000/svg">
<path d="M3.33391 14.5799C2.84058 14.5799 2.35391 14.3933 1.98058 14.0199C1.62058 13.6599 1.42058 13.1799 1.42058 12.6666C1.42058 12.1533 1.62058 11.6733 1.98058 11.3133L10.6473 2.64659C11.3939 1.89992 12.6073 1.89992 13.3539 2.64659C13.7139 3.00659 13.9139 3.48658 13.9139 3.99992C13.9139 4.51325 13.7139 4.99325 13.3539 5.35325L4.68724 14.0199C4.31391 14.3933 3.82724 14.5799 3.33391 14.5799ZM12.0006 3.08658C11.7673 3.08658 11.5339 3.17325 11.3539 3.35325L2.68724 12.0199C2.51391 12.1933 2.42058 12.4199 2.42058 12.6666C2.42058 12.9133 2.51391 13.1399 2.68724 13.3133C3.04058 13.6666 3.62724 13.6666 3.98058 13.3133L12.6473 4.64658C12.8206 4.47325 12.9139 4.24658 12.9139 3.99992C12.9139 3.75325 12.8206 3.52658 12.6473 3.35325C12.4673 3.17325 12.2339 3.08658 12.0006 3.08658Z" fill="currentColor"/>
<path d="M12.0061 6.49345C11.8795 6.49345 11.7528 6.44678 11.6528 6.34678L9.6528 4.34678C9.45947 4.15345 9.45947 3.83345 9.6528 3.64012C9.84614 3.44678 10.1661 3.44678 10.3595 3.64012L12.3595 5.64012C12.5528 5.83345 12.5528 6.15345 12.3595 6.34678C12.2595 6.44678 12.1328 6.49345 12.0061 6.49345Z" fill="currentColor"/>
<path d="M6.66605 3.6667C6.63272 3.6667 6.60605 3.66003 6.57272 3.65336L5.66605 3.3867L4.75938 3.65336C4.63938 3.6867 4.51272 3.65336 4.43272 3.5667C4.34605 3.48003 4.31272 3.36003 4.34605 3.24003L4.61272 2.33336L4.34605 1.4267C4.31272 1.3067 4.34605 1.18003 4.43272 1.10003C4.51938 1.01337 4.64605 0.980032 4.75938 1.01337L5.66605 1.28003L6.57272 1.01337C6.69274 0.980032 6.81274 1.01337 6.8994 1.10003C6.98607 1.1867 7.0194 1.31336 6.98607 1.4267L6.7194 2.33336L6.98607 3.24003C7.0194 3.36003 6.98607 3.4867 6.8994 3.5667C6.8394 3.63336 6.75274 3.6667 6.66605 3.6667ZM5.66605 2.7067C5.69938 2.7067 5.72606 2.71336 5.75939 2.72003L6.17272 2.84003L6.05272 2.4267C6.03272 2.3667 6.03272 2.30003 6.05272 2.24003L6.17272 1.8267L5.75939 1.9467C5.69939 1.9667 5.63272 1.9667 5.57272 1.9467L5.15938 1.8267L5.27938 2.24003C5.29938 2.30003 5.29938 2.3667 5.27938 2.4267L5.15938 2.84003L5.57272 2.72003C5.60605 2.71336 5.63272 2.7067 5.66605 2.7067Z" fill="currentColor"/>
<path d="M3.99938 7.66673C3.96605 7.66673 3.93939 7.66006 3.90606 7.6534L2.99938 7.38673L2.09272 7.6534C1.97272 7.68673 1.85272 7.6534 1.76605 7.56673C1.67938 7.48006 1.64605 7.3534 1.67938 7.24006L1.94605 6.33336L1.67938 5.4267C1.64605 5.3067 1.67938 5.18003 1.76605 5.10003C1.85272 5.02003 1.97938 4.98003 2.09272 5.01336L2.99938 5.28003L3.90606 5.01336C4.01939 4.98003 4.14605 5.01336 4.23272 5.10003C4.31938 5.1867 4.35272 5.31336 4.31938 5.4267L4.05272 6.33336L4.31938 7.24006C4.35272 7.36006 4.31938 7.48673 4.23272 7.56673C4.17272 7.6334 4.08606 7.66673 3.99938 7.66673ZM2.99938 6.70673C3.03272 6.70673 3.05938 6.7134 3.09272 6.72006L3.50606 6.84006L3.38605 6.4267C3.36605 6.3667 3.36605 6.30003 3.38605 6.24003L3.50606 5.8267L3.09272 5.9467C3.03272 5.9667 2.96605 5.9667 2.90605 5.9467L2.49272 5.8267L2.61272 6.24003C2.63272 6.30003 2.63272 6.3667 2.61272 6.4267L2.49272 6.84006L2.90605 6.72006C2.93938 6.7134 2.96605 6.70673 2.99938 6.70673Z" fill="currentColor"/>
<path d="M13.9994 11.0001C13.9661 11.0001 13.9394 10.9934 13.9061 10.9867L12.9994 10.7201L12.0927 10.9867C11.9727 11.0201 11.8527 10.9867 11.7661 10.9001C11.6794 10.8134 11.6461 10.6867 11.6794 10.5734L11.9461 9.66673L11.6794 8.76006C11.6461 8.64006 11.6794 8.5134 11.7661 8.4334C11.8527 8.3534 11.9794 8.3134 12.0927 8.34673L12.9994 8.6134L13.9061 8.34673C14.0194 8.3134 14.1461 8.34673 14.2327 8.4334C14.3194 8.52006 14.3527 8.64673 14.3194 8.76006L14.0527 9.66673L14.3194 10.5734C14.3527 10.6934 14.3194 10.8201 14.2327 10.9001C14.1727 10.9667 14.0861 11.0001 13.9994 11.0001ZM12.9994 10.0401C13.0327 10.0401 13.0594 10.0467 13.0927 10.0534L13.5061 10.1734L13.3861 9.76006C13.3661 9.70006 13.3661 9.6334 13.3861 9.5734L13.5061 9.16006L13.0927 9.28006C13.0327 9.30007 12.9661 9.30007 12.9061 9.28006L12.4927 9.16006L12.6127 9.5734C12.6327 9.6334 12.6327 9.70006 12.6127 9.76006L12.4927 10.1734L12.9061 10.0534C12.9394 10.0467 12.9661 10.0401 12.9994 10.0401Z" fill="currentColor"/>
</svg>
