<svg width="16" height="16" viewBox="0 0 16 16" fill="none" xmlns="http://www.w3.org/2000/svg">
<g clip-path="url(#clip0_2_4814)">
<path d="M8.67354 15C8.27354 15 7.65354 14.8067 7.06021 13.8333L5.88685 11.9333C5.77352 11.7467 5.42685 11.5667 5.21351 11.58L2.98683 11.6933C1.6535 11.76 1.18686 11.2067 1.02019 10.8733C0.853527 10.54 0.706834 9.82667 1.5735 8.81334L2.89353 7.28C3.02686 7.12 3.10017 6.77334 3.04017 6.57335L2.36683 4.42003C2.02683 3.34003 2.40684 2.76003 2.66017 2.5067C2.9135 2.25336 3.50017 1.88669 4.58017 2.24669L6.54685 2.89336C6.72687 2.95336 7.06021 2.90002 7.21354 2.79336L9.26687 1.31336C10.2069 0.633358 10.8868 0.813357 11.2001 0.980023C11.5135 1.14669 12.0468 1.60004 12.0268 2.76004L11.9801 5.28668C11.9735 5.47335 12.1268 5.78002 12.2735 5.89336L13.9269 7.14667C14.8269 7.83334 14.8602 8.52 14.8002 8.87334C14.7402 9.22667 14.4735 9.86667 13.3935 10.2L11.2401 10.8733C11.0401 10.9333 10.7935 11.1933 10.7401 11.3933L10.2269 13.3533C9.88687 14.64 9.22021 14.9267 8.84687 14.98C8.80021 14.9933 8.74021 15 8.67354 15ZM5.23349 10.58C5.80683 10.58 6.44016 10.9267 6.73347 11.4067L7.90681 13.3067C8.24014 13.8533 8.54014 14.02 8.70014 13.9933C8.85347 13.9733 9.09354 13.72 9.26021 13.1067L9.77347 11.1467C9.91347 10.6133 10.4135 10.0867 10.9401 9.92667L13.0935 9.25334C13.5069 9.12667 13.7735 8.92 13.8135 8.70667C13.8535 8.49334 13.6668 8.21334 13.3201 7.94667L11.6669 6.69334C11.2602 6.3867 10.9669 5.77335 10.9735 5.26668L11.0202 2.74002C11.0269 2.29335 10.9202 1.96003 10.7269 1.86003C10.5335 1.76003 10.2069 1.86002 9.84021 2.12002L7.78681 3.60002C7.38014 3.89335 6.70687 4.00003 6.22019 3.84003L4.25351 3.19336C3.84018 3.06003 3.50686 3.06668 3.35353 3.22002C3.20019 3.37335 3.18683 3.70668 3.31349 4.12002L3.98683 6.27336C4.1535 6.8 4.00683 7.51334 3.64683 7.92667L2.32684 9.46C1.90684 9.94667 1.84017 10.2867 1.91351 10.4267C1.98017 10.5667 2.30019 10.72 2.93353 10.6867L5.16017 10.5733C5.18684 10.58 5.21349 10.58 5.23349 10.58Z" fill="currentColor"/>
<path d="M14.6069 15.1668C14.4802 15.1668 14.3535 15.1201 14.2535 15.0201L12.2335 13.0001C12.0402 12.8068 12.0402 12.4868 12.2335 12.2935C12.4269 12.1001 12.7469 12.1001 12.9402 12.2935L14.9602 14.3135C15.1535 14.5068 15.1535 14.8268 14.9602 15.0201C14.8602 15.1201 14.7335 15.1668 14.6069 15.1668Z" fill="currentColor"/>
</g>
<defs>
<clipPath id="clip0_2_4814">
<rect width="16" height="16" fill="currentColor"/>
</clipPath>
</defs>
</svg>
