<svg width="16" height="16" viewBox="0 0 16 16" fill="none" xmlns="http://www.w3.org/2000/svg">
<g clip-path="url(#clip0_2_4813)">
<path d="M7.99986 15.1667C7.21986 15.1667 6.49318 14.8667 5.94651 14.32L1.6865 10.06C1.13983 9.51333 0.839844 8.78 0.839844 8.00667C0.839844 7.23333 1.13983 6.49999 1.6865 5.95333L5.94651 1.69332C6.49318 1.14665 7.22653 0.84668 7.99986 0.84668C8.7732 0.84668 9.50646 1.14665 10.0531 1.69332L14.3132 5.95333C14.8599 6.49999 15.1598 7.23333 15.1598 8.00667C15.1598 8.78 14.8599 9.51333 14.3132 10.06L10.0531 14.32C9.50646 14.8667 8.77986 15.1667 7.99986 15.1667ZM7.99986 1.83333C7.48653 1.83333 7.00653 2.03335 6.65318 2.38668L2.39316 6.64665C2.03316 7.00667 1.83984 7.48667 1.83984 7.99333C1.83984 8.5 2.03983 8.98667 2.39316 9.34L6.65318 13.6C7.36653 14.3133 8.63313 14.3133 9.34646 13.6L13.6065 9.34C13.9665 8.98 14.1598 8.50667 14.1598 7.99333C14.1598 7.48 13.9599 7 13.6065 6.64665L9.34646 2.38668C8.99313 2.03335 8.5132 1.83333 7.99986 1.83333Z" fill="currentColor"/>
<path d="M11.833 12.3333C11.7063 12.3333 11.5797 12.2867 11.4797 12.1867L3.81296 4.52C3.61963 4.32667 3.61963 4.00663 3.81296 3.81329C4.0063 3.61996 4.3263 3.61996 4.51963 3.81329L12.1863 11.4799C12.3797 11.6733 12.3797 11.9933 12.1863 12.1867C12.0863 12.2867 11.9597 12.3333 11.833 12.3333Z" fill="currentColor"/>
<path d="M4.1663 12.3333C4.03963 12.3333 3.91296 12.2867 3.81296 12.1867C3.61963 11.9933 3.61963 11.6733 3.81296 11.4799L11.4797 3.81329C11.673 3.61996 11.993 3.61996 12.1863 3.81329C12.3797 4.00663 12.3797 4.32667 12.1863 4.52L4.51963 12.1867C4.41963 12.2867 4.29296 12.3333 4.1663 12.3333Z" fill="currentColor"/>
</g>
<defs>
<clipPath id="clip0_2_4813">
<rect width="16" height="16" fill="currentColor"/>
</clipPath>
</defs>
</svg>
