<svg width="16" height="16" viewBox="0 0 16 16" fill="none" xmlns="http://www.w3.org/2000/svg">
<path d="M6.83333 14.8333C3.70666 14.8333 1.16666 12.2933 1.16666 9.16666C1.16666 6.04 3.70666 3.5 6.83333 3.5C9.96 3.5 12.5 6.04 12.5 9.16666C12.5 12.2933 9.96 14.8333 6.83333 14.8333ZM6.83333 4.5C4.26 4.5 2.16666 6.59333 2.16666 9.16666C2.16666 11.74 4.26 13.8333 6.83333 13.8333C9.40666 13.8333 11.5 11.74 11.5 9.16666C11.5 6.59333 9.40666 4.5 6.83333 4.5Z" fill="currentColor"/>
<path d="M10.6669 5.83329C10.5403 5.83329 10.4136 5.78662 10.3136 5.68662C10.1203 5.49329 10.1203 5.17329 10.3136 4.97996L13.9803 1.31329C14.1736 1.11996 14.4936 1.11996 14.6869 1.31329C14.8803 1.50662 14.8803 1.82662 14.6869 2.01996L11.0203 5.68662C10.9203 5.78662 10.7936 5.83329 10.6669 5.83329Z" fill="currentColor"/>
<path d="M14.3333 6.5C14.06 6.5 13.8333 6.27333 13.8333 6V2.16666H10C9.72666 2.16666 9.5 1.94 9.5 1.66666C9.5 1.39333 9.72666 1.16666 10 1.16666H14.3333C14.6067 1.16666 14.8333 1.39333 14.8333 1.66666V6C14.8333 6.27333 14.6067 6.5 14.3333 6.5Z" fill="currentColor"/>
</svg>
