<svg width="16" height="16" viewBox="0 0 16 16" fill="none" xmlns="http://www.w3.org/2000/svg">
<g clip-path="url(#clip0_2_4811)">
<path d="M13.5863 14.0867C13.453 14.0867 13.3263 14.0333 13.233 13.94L8.97967 9.68667C8.78633 9.49334 8.78633 9.17334 8.97967 8.98L14.133 3.82668C14.2597 3.70001 14.453 3.65334 14.6263 3.70001C14.7997 3.75334 14.9329 3.89334 14.9729 4.06668C15.0996 4.63334 15.1663 5.26668 15.1663 6.00001V10C15.1663 11.8467 14.7797 13.0933 13.9397 13.94C13.8463 14.0333 13.7063 14.0533 13.5863 14.0867ZM10.0396 9.33334L13.5463 12.84C13.9663 12.1933 14.1663 11.2733 14.1663 10V6.00001C14.1663 5.72668 14.1596 5.47334 14.1396 5.23334L10.0396 9.33334Z" fill="currentColor"/>
<path d="M4.17999 14.9867C4.13999 14.9867 4.10667 14.98 4.06667 14.9733C1.86001 14.4667 0.833332 12.8867 0.833332 10V6C0.833332 2.38 2.38 0.833336 6 0.833336H10C12.8867 0.833336 14.4663 1.86001 14.9729 4.06668C15.0129 4.23334 14.96 4.41334 14.84 4.53334L4.53333 14.84C4.43999 14.9333 4.31333 14.9867 4.17999 14.9867ZM6 1.83334C2.92667 1.83334 1.83333 2.92667 1.83333 6V10C1.83333 12.3133 2.47334 13.4733 4.02667 13.9333L13.9267 4.03334C13.4733 2.48 12.3067 1.84 9.99333 1.84H6V1.83334Z" fill="currentColor"/>
<path d="M10.0003 15.1666H6.00025C5.26691 15.1666 4.64001 15.1067 4.06667 14.9733C3.88667 14.9333 3.74691 14.7999 3.70024 14.6266C3.64691 14.4533 3.70024 14.2666 3.82691 14.1333L8.97967 8.98C9.173 8.78667 9.4936 8.7866 9.68693 8.97994L13.9403 13.2333C14.0336 13.3266 14.0869 13.4533 14.0869 13.5866C14.0869 13.7199 14.033 13.8467 13.9397 13.94C13.093 14.78 11.8469 15.1666 10.0003 15.1666ZM5.23359 14.1399C5.47359 14.1599 5.72691 14.1666 6.00025 14.1666H10.0003C11.2803 14.1666 12.1936 13.9666 12.8403 13.5466L9.3336 10.0399L5.23359 14.1399Z" fill="currentColor"/>
<path d="M6.07931 8.87334C5.65931 8.87334 5.2393 8.72 4.90597 8.40667C3.84597 7.4 3.41932 6.29337 3.67265 5.21337C3.92599 4.1067 4.89264 3.36003 6.07931 3.36003C7.266 3.36003 8.23267 4.1067 8.486 5.21337C8.73267 6.30004 8.306 7.4 7.246 8.40667C6.91933 8.71334 6.49931 8.87334 6.07931 8.87334ZM4.64598 5.43336C4.43265 6.34003 5.04597 7.1534 5.59931 7.68007C5.87264 7.94 6.29265 7.94 6.55931 7.68007C7.106 7.16007 7.71933 6.3467 7.51267 5.43336C7.33267 4.64003 6.62597 4.35336 6.07931 4.35336C5.53264 4.35336 4.83265 4.64003 4.64598 5.43336Z" fill="currentColor"/>
<path d="M6.10026 6.32682C5.73359 6.32682 5.43359 6.02682 5.43359 5.66016C5.43359 5.29349 5.72693 4.99349 6.10026 4.99349H6.10693C6.4736 4.99349 6.7736 5.29349 6.7736 5.66016C6.7736 6.02682 6.46693 6.32682 6.10026 6.32682Z" fill="currentColor"/>
</g>
<defs>
<clipPath id="clip0_2_4811">
<rect width="16" height="16" fill="currentColor"/>
</clipPath>
</defs>
</svg>
