<svg width="16" height="16" viewBox="0 0 16 16" fill="none" xmlns="http://www.w3.org/2000/svg">
<path d="M10.4327 14.2735C10.1461 14.2735 9.8594 14.2135 9.62607 14.1001L6.12604 12.3468C5.92604 12.2468 5.53271 12.2535 5.33937 12.3668L3.76604 13.2668C3.08604 13.6535 2.38604 13.7068 1.85937 13.3935C1.32604 13.0868 1.02604 12.4601 1.02604 11.6735V5.19344C1.02604 4.58677 1.42604 3.9001 1.95271 3.6001L4.83937 1.94677C5.32604 1.66677 6.06604 1.64677 6.56604 1.9001L10.0661 3.65344C10.2661 3.75344 10.6527 3.7401 10.8527 3.63344L12.4194 2.7401C13.0994 2.35344 13.7994 2.3001 14.3261 2.61344C14.8594 2.9201 15.1594 3.54677 15.1594 4.33344V10.8201C15.1594 11.4268 14.7594 12.1135 14.2327 12.4135L11.3461 14.0668C11.0927 14.2001 10.7594 14.2735 10.4327 14.2735ZM5.75937 11.2801C6.04604 11.2801 6.33271 11.3401 6.56604 11.4535L10.0661 13.2068C10.2661 13.3068 10.6527 13.2935 10.8527 13.1868L13.7394 11.5335C13.9527 11.4135 14.1594 11.0535 14.1594 10.8135V4.32677C14.1594 3.90677 14.0394 3.59344 13.8194 3.47344C13.6061 3.35344 13.2727 3.4001 12.9127 3.60677L11.3461 4.5001C10.8594 4.7801 10.1194 4.8001 9.6194 4.54677L6.11937 2.79344C5.91937 2.69344 5.53271 2.70677 5.33271 2.81344L2.44604 4.46677C2.23271 4.58677 2.02604 4.94677 2.02604 5.19344V11.6801C2.02604 12.1001 2.14604 12.4135 2.35937 12.5335C2.57271 12.6601 2.90604 12.6068 3.27271 12.4001L4.83937 11.5068C5.09937 11.3535 5.43271 11.2801 5.75937 11.2801Z" fill="currentColor"/>
<path d="M5.70703 11.8333C5.4337 11.8333 5.20703 11.6067 5.20703 11.3333V2.66666C5.20703 2.39333 5.4337 2.16666 5.70703 2.16666C5.98037 2.16666 6.20703 2.39333 6.20703 2.66666V11.3333C6.20703 11.6067 5.98037 11.8333 5.70703 11.8333Z" fill="currentColor"/>
<path d="M10.487 13.8334C10.2137 13.8334 9.987 13.6067 9.987 13.3334V4.41341C9.987 4.14008 10.2137 3.91341 10.487 3.91341C10.7603 3.91341 10.987 4.14008 10.987 4.41341V13.3334C10.987 13.6067 10.7603 13.8334 10.487 13.8334Z" fill="currentColor"/>
</svg>
