<svg width="16" height="16" viewBox="0 0 16 16" fill="none" xmlns="http://www.w3.org/2000/svg">
<g clip-path="url(#clip0_2_5401)">
<path d="M7.99953 15.1465C4.05953 15.1465 0.852867 11.9399 0.852867 7.99987C0.852867 4.05986 4.05953 0.853195 7.99953 0.853195C9.7662 0.853195 11.4595 1.50653 12.7662 2.68653C14.2795 4.02653 15.1462 5.96653 15.1462 7.99987C15.1462 10.0332 14.2795 11.9732 12.7595 13.3199C11.4595 14.4999 9.7662 15.1465 7.99953 15.1465ZM7.99953 1.8532C4.6062 1.8532 1.85287 4.61319 1.85287 7.99987C1.85287 11.3865 4.61287 14.1465 7.99953 14.1465C9.51953 14.1465 10.9729 13.5865 12.0995 12.5665C13.4062 11.4065 14.1529 9.74654 14.1529 7.9932C14.1529 6.23986 13.4062 4.57986 12.1062 3.42653C10.9729 2.4132 9.51953 1.8532 7.99953 1.8532Z" fill="currentColor"/>
<path d="M6.95953 12.6066C6.71287 12.6066 6.45287 12.5533 6.19953 12.4533C4.37287 11.7199 3.1862 9.9666 3.1862 7.99993C3.1862 6.03326 4.3662 4.27993 6.19953 3.5466C6.77953 3.31326 7.3662 3.3466 7.8062 3.63993C8.23287 3.92659 8.47287 4.43326 8.4862 5.0666V10.9333C8.47953 11.5666 8.23953 12.0799 7.8062 12.3599C7.55953 12.5266 7.2662 12.6066 6.95953 12.6066ZM6.95953 4.39326C6.83953 4.39326 6.7062 4.41993 6.57287 4.47326C5.11953 5.05326 4.1862 6.43993 4.1862 7.99993C4.1862 9.55993 5.11953 10.9466 6.57287 11.5266C6.83953 11.6333 7.09287 11.6333 7.25287 11.5333C7.43953 11.4066 7.47953 11.1333 7.4862 10.9266V5.07326C7.4862 4.87326 7.43953 4.59326 7.25287 4.4666C7.17287 4.41993 7.07287 4.39326 6.95953 4.39326Z" fill="currentColor"/>
</g>
<defs>
<clipPath id="clip0_2_5401">
<rect width="16" height="16" fill="currentColor"/>
</clipPath>
</defs>
</svg>
