<svg width="16" height="16" viewBox="0 0 16 16" fill="none" xmlns="http://www.w3.org/2000/svg">
<g clip-path="url(#clip0_2_4808)">
<path d="M3.28666 13.2133C3.15333 13.2133 3.02668 13.16 2.93335 13.0667C1.58001 11.7133 0.833334 9.91334 0.833334 8C0.833334 4.04667 4.04667 0.833336 8 0.833336C9.91333 0.833336 11.7133 1.58 13.0667 2.93334C13.16 3.02667 13.2133 3.15334 13.2133 3.28667C13.2133 3.42 13.16 3.54667 13.0667 3.64L3.64001 13.0667C3.54668 13.16 3.41999 13.2133 3.28666 13.2133ZM8 1.83334C4.6 1.83334 1.83333 4.6 1.83333 8C1.83333 9.48 2.35334 10.88 3.30001 11.9933L11.9933 3.3C10.88 2.35334 9.48 1.83334 8 1.83334Z" fill="currentColor"/>
<path d="M7.9998 15.1667C6.08646 15.1667 4.28668 14.42 2.93335 13.0667C2.84001 12.9733 2.78646 12.8467 2.78646 12.7134C2.78646 12.5801 2.83981 12.4534 2.93315 12.3601L12.3598 2.93342C12.5531 2.74008 12.8733 2.74 13.0667 2.93334C14.42 4.28667 15.1665 6.08675 15.1665 8.00007C15.1665 11.9534 11.9531 15.1667 7.9998 15.1667ZM4.00647 12.7001C5.1198 13.6467 6.51979 14.1667 7.9998 14.1667C11.3998 14.1667 14.1665 11.4001 14.1665 8.00007C14.1665 6.52008 13.6465 5.12008 12.6998 4.00675L4.00647 12.7001Z" fill="currentColor"/>
<path d="M8.93967 15.1001C8.813 15.1001 8.68633 15.0535 8.58633 14.9535L4.81297 11.1801C4.61963 10.9868 4.61963 10.6668 4.81297 10.4735C5.0063 10.2801 5.32634 10.2801 5.51967 10.4735L9.293 14.2468C9.48633 14.4401 9.48633 14.7601 9.293 14.9535C9.19967 15.0535 9.073 15.1001 8.93967 15.1001Z" fill="currentColor"/>
<path d="M11.9137 13.3534C11.787 13.3534 11.6603 13.3067 11.5603 13.2067L7.17367 8.82007C6.98033 8.62674 6.98033 8.30674 7.17367 8.1134C7.367 7.92007 7.687 7.92007 7.88033 8.1134L12.267 12.5001C12.4603 12.6934 12.4603 13.0134 12.267 13.2067C12.167 13.3067 12.0403 13.3534 11.9137 13.3534Z" fill="currentColor"/>
<path d="M14.0797 10.8134C13.953 10.8134 13.8264 10.7667 13.7264 10.6667L9.533 6.47341C9.33967 6.28008 9.33967 5.96008 9.533 5.76675C9.72633 5.57342 10.0463 5.57342 10.2397 5.76675L14.4331 9.96007C14.6264 10.1534 14.6264 10.4734 14.4331 10.6667C14.3397 10.7601 14.213 10.8134 14.0797 10.8134Z" fill="currentColor"/>
</g>
<defs>
<clipPath id="clip0_2_4808">
<rect width="16" height="16" fill="currentColor"/>
</clipPath>
</defs>
</svg>
