<svg width="16" height="16" viewBox="0 0 16 16" fill="none" xmlns="http://www.w3.org/2000/svg">
<g clip-path="url(#clip0_2_4806)">
<path d="M8 15.1667C4.04667 15.1667 0.833336 11.9533 0.833336 8C0.833336 4.04667 4.04667 0.833336 8 0.833336C11.9533 0.833336 15.1667 4.04667 15.1667 8C15.1667 11.9533 11.9533 15.1667 8 15.1667ZM8 1.83334C4.6 1.83334 1.83334 4.6 1.83334 8C1.83334 11.4 4.6 14.1667 8 14.1667C11.4 14.1667 14.1667 11.4 14.1667 8C14.1667 4.6 11.4 1.83334 8 1.83334Z" fill="currentColor"/>
<path d="M8 11.8333C7.72667 11.8333 7.5 11.6067 7.5 11.3333V4.66667C7.5 4.39334 7.72667 4.16667 8 4.16667C10.1133 4.16667 11.8333 5.88667 11.8333 8C11.8333 10.1133 10.1133 11.8333 8 11.8333ZM8.5 5.21334V10.7933C9.82667 10.56 10.8333 9.39334 10.8333 8.00667C10.8333 6.62001 9.82667 5.44668 8.5 5.21334Z" fill="currentColor"/>
<path d="M8 11.8333C5.88667 11.8333 4.16667 10.1133 4.16667 8C4.16667 5.88667 5.88667 4.16667 8 4.16667C8.27334 4.16667 8.5 4.39334 8.5 4.66667V11.3333C8.5 11.6067 8.27334 11.8333 8 11.8333ZM7.5 5.21334C6.17334 5.44668 5.16667 6.61334 5.16667 8C5.16667 9.38667 6.17334 10.5533 7.5 10.7867V5.21334Z" fill="currentColor"/>
<path d="M8 15.1667C7.72667 15.1667 7.5 14.94 7.5 14.6667V11.3333C7.5 11.06 7.72667 10.8333 8 10.8333C8.27334 10.8333 8.5 11.06 8.5 11.3333V14.6667C8.5 14.94 8.27334 15.1667 8 15.1667Z" fill="currentColor"/>
<path d="M8 5.16667C7.72667 5.16667 7.5 4.94 7.5 4.66667V1.33334C7.5 1.06 7.72667 0.833336 8 0.833336C8.27334 0.833336 8.5 1.06 8.5 1.33334V4.66667C8.5 4.94 8.27334 5.16667 8 5.16667Z" fill="currentColor"/>
</g>
<defs>
<clipPath id="clip0_2_4806">
<rect width="16" height="16" fill="currentColor"/>
</clipPath>
</defs>
</svg>
