<svg width="16" height="16" viewBox="0 0 16 16" fill="none" xmlns="http://www.w3.org/2000/svg">
<path d="M14.4665 4.2601H9.6198C9.34647 4.2601 9.1198 4.03343 9.1198 3.7601C9.1198 3.48676 9.34647 3.2601 9.6198 3.2601H14.4665C14.7398 3.2601 14.9665 3.48676 14.9665 3.7601C14.9665 4.03343 14.7398 4.2601 14.4665 4.2601Z" fill="currentColor"/>
<path d="M6.38719 4.2601H1.53385C1.26052 4.2601 1.03385 4.03343 1.03385 3.7601C1.03385 3.48676 1.26052 3.2601 1.53385 3.2601H6.38052C6.65385 3.2601 6.88053 3.48676 6.88053 3.7601C6.88053 4.03343 6.66052 4.2601 6.38719 4.2601Z" fill="currentColor"/>
<path d="M14.4665 10.7201H9.6198C9.34647 10.7201 9.1198 10.4934 9.1198 10.2201C9.1198 9.94674 9.34647 9.72007 9.6198 9.72007H14.4665C14.7398 9.72007 14.9665 9.94674 14.9665 10.2201C14.9665 10.4934 14.7398 10.7201 14.4665 10.7201Z" fill="currentColor"/>
<path d="M14.4665 14.7601H9.6198C9.34647 14.7601 9.1198 14.5334 9.1198 14.2601C9.1198 13.9867 9.34647 13.7601 9.6198 13.7601H14.4665C14.7398 13.7601 14.9665 13.9867 14.9665 14.2601C14.9665 14.5334 14.7398 14.7601 14.4665 14.7601Z" fill="currentColor"/>
<path d="M12.0599 6.68C11.7865 6.68 11.5599 6.45334 11.5599 6.18V1.33334C11.5599 1.06 11.7865 0.833336 12.0599 0.833336C12.3332 0.833336 12.5599 1.06 12.5599 1.33334V6.18C12.5599 6.46 12.3399 6.68 12.0599 6.68Z" fill="currentColor"/>
<path d="M1.53348 15.1666C1.40682 15.1666 1.28015 15.1199 1.18015 15.0199C0.986818 14.8266 0.986818 14.5066 1.18015 14.3133L6.02682 9.4666C6.22015 9.27327 6.54016 9.27327 6.73347 9.4666C6.9268 9.65994 6.9268 9.97994 6.73347 10.1733L1.88682 15.0199C1.79348 15.1199 1.66682 15.1666 1.53348 15.1666Z" fill="currentColor"/>
<path d="M6.38666 15.1666C6.26 15.1666 6.13333 15.1199 6.03333 15.0199L1.18666 10.1733C0.993332 9.97994 0.993332 9.65994 1.18666 9.4666C1.38 9.27327 1.7 9.27327 1.89333 9.4666L6.74 14.3133C6.93333 14.5066 6.93333 14.8266 6.74 15.0199C6.64 15.1199 6.51333 15.1666 6.38666 15.1666Z" fill="currentColor"/>
</svg>
