<svg width="16" height="16" viewBox="0 0 16 16" fill="none" xmlns="http://www.w3.org/2000/svg">
<path d="M14 6.5C13.7267 6.5 13.5 6.27333 13.5 6V2.5H10C9.72667 2.5 9.5 2.27333 9.5 2C9.5 1.72667 9.72667 1.5 10 1.5H14C14.2733 1.5 14.5 1.72667 14.5 2V6C14.5 6.27333 14.2733 6.5 14 6.5Z" fill="currentColor"/>
<path d="M6 14.5H2C1.72667 14.5 1.5 14.2733 1.5 14V10C1.5 9.72667 1.72667 9.5 2 9.5C2.27333 9.5 2.5 9.72667 2.5 10V13.5H6C6.27333 13.5 6.5 13.7267 6.5 14C6.5 14.2733 6.27333 14.5 6 14.5Z" fill="currentColor"/>
<path d="M8.99967 7.49993C8.873 7.49993 8.74633 7.45327 8.64633 7.35327C8.453 7.15993 8.453 6.83993 8.64633 6.64663L13.6463 1.64663C13.8397 1.45329 14.1597 1.45329 14.353 1.64663C14.5463 1.83996 14.5463 2.15996 14.353 2.35329L9.353 7.35327C9.253 7.45327 9.12633 7.49993 8.99967 7.49993Z" fill="currentColor"/>
<path d="M2 14.5C1.87333 14.5 1.7463 14.4533 1.6463 14.3533C1.45297 14.1599 1.45297 13.8399 1.6463 13.6466L6.6463 8.6466C6.83967 8.45327 7.15967 8.45327 7.353 8.6466C7.54633 8.83993 7.54633 9.15993 7.353 9.35327L2.35297 14.3533C2.25297 14.4533 2.12667 14.5 2 14.5Z" fill="currentColor"/>
</svg>
