<svg width="16" height="16" viewBox="0 0 16 16" fill="none" xmlns="http://www.w3.org/2000/svg">
<g clip-path="url(#clip0_2_4799)">
<path d="M14 5.16667C13.7267 5.16667 13.5 4.94 13.5 4.66667V2.5H11.3333C11.06 2.5 10.8333 2.27334 10.8333 2C10.8333 1.72667 11.06 1.5 11.3333 1.5H14C14.2733 1.5 14.5 1.72667 14.5 2V4.66667C14.5 4.94 14.2733 5.16667 14 5.16667Z" fill="currentColor"/>
<path d="M9.99968 6.49998C9.87301 6.49998 9.74634 6.45334 9.64634 6.35334C9.45301 6.16 9.45301 5.83996 9.64634 5.64663L13.6463 1.64663C13.8397 1.4533 14.1597 1.4533 14.353 1.64663C14.5463 1.83996 14.5463 2.16 14.353 2.35334L10.353 6.35334C10.253 6.45334 10.1263 6.49998 9.99968 6.49998Z" fill="currentColor"/>
<path d="M4.66668 14.5H2.00001C1.72668 14.5 1.50001 14.2733 1.50001 14V11.3333C1.50001 11.06 1.72668 10.8333 2.00001 10.8333C2.27334 10.8333 2.50001 11.06 2.50001 11.3333V13.5H4.66668C4.94001 13.5 5.16668 13.7267 5.16668 14C5.16668 14.2733 4.94001 14.5 4.66668 14.5Z" fill="currentColor"/>
<path d="M2.00001 14.5C1.87334 14.5 1.74631 14.4533 1.64631 14.3533C1.45298 14.16 1.45298 13.8399 1.64631 13.6466L5.64631 9.6466C5.83964 9.45327 6.15968 9.45327 6.35302 9.6466C6.54635 9.83994 6.54635 10.16 6.35302 10.3533L2.35302 14.3533C2.25302 14.4533 2.12668 14.5 2.00001 14.5Z" fill="currentColor"/>
<path d="M1.46668 9.83334C1.23335 9.83334 1.02666 9.66667 0.97999 9.43334C0.886657 8.96667 0.833344 8.48 0.833344 8C0.833344 4.04667 4.04668 0.833336 8.00001 0.833336C8.48668 0.833336 8.97334 0.879983 9.44668 0.979983C9.72001 1.03332 9.89334 1.29999 9.84001 1.56666C9.78668 1.83999 9.51334 2.00667 9.25334 1.96C8.84668 1.88 8.42668 1.83334 8.00668 1.83334C4.60668 1.83334 1.84002 4.6 1.84002 8C1.84002 8.41334 1.88002 8.83334 1.96668 9.23334C2.02002 9.50667 1.84667 9.76667 1.57334 9.82C1.53334 9.83334 1.50002 9.83334 1.46668 9.83334Z" fill="currentColor"/>
<path d="M8.00068 15.1669C7.51401 15.1669 7.02734 15.1202 6.55403 15.0202C6.2807 14.9669 6.10734 14.7002 6.16068 14.4335C6.21401 14.1602 6.48735 13.9935 6.74734 14.0402C7.15401 14.1202 7.57401 14.1669 7.99401 14.1669C11.394 14.1669 14.1607 11.4002 14.1607 8.0002C14.1607 7.58687 14.1207 7.17354 14.0407 6.76687C13.9873 6.49354 14.1607 6.23354 14.434 6.1802C14.7007 6.12687 14.9673 6.30018 15.0207 6.57352C15.114 7.0402 15.1607 7.5202 15.1607 8.0002C15.1673 11.9535 11.954 15.1669 8.00068 15.1669Z" fill="currentColor"/>
</g>
<defs>
<clipPath id="clip0_2_4799">
<rect width="16" height="16" fill="currentColor"/>
</clipPath>
</defs>
</svg>
