<svg width="16" height="16" viewBox="0 0 16 16" fill="none" xmlns="http://www.w3.org/2000/svg">
<g clip-path="url(#clip0_2_5060)">
<path d="M9.99999 15.1667H9.33333C9.05999 15.1667 8.83333 14.94 8.83333 14.6667C8.83333 14.3933 9.05999 14.1667 9.33333 14.1667H9.99999C13.0733 14.1667 14.1667 13.0733 14.1667 10V6C14.1667 2.92667 13.0733 1.83334 9.99999 1.83334H5.99999C2.92666 1.83334 1.83333 2.92667 1.83333 6V6.65334C1.83333 6.92667 1.60666 7.15334 1.33333 7.15334C1.05999 7.15334 0.833328 6.92667 0.833328 6.65334V6C0.833328 2.38 2.37999 0.833336 5.99999 0.833336H9.99999C13.62 0.833336 15.1667 2.38 15.1667 6V10C15.1667 13.62 13.62 15.1667 9.99999 15.1667Z" fill="currentColor"/>
<path d="M8.66633 7.83347C8.53966 7.83347 8.41299 7.7868 8.31299 7.6868C8.11966 7.49347 8.11966 7.17347 8.31299 6.98014L10.8063 4.48014H9.33299C9.05966 4.48014 8.83299 4.25348 8.83299 3.98014C8.83299 3.70681 9.05299 3.48014 9.33299 3.48014H12.0063C12.2063 3.48014 12.393 3.60014 12.4663 3.78681C12.5463 3.97348 12.4997 4.18682 12.3597 4.33348L9.01966 7.6868C8.91966 7.7868 8.79299 7.83347 8.66633 7.83347Z" fill="currentColor"/>
<path d="M12.0065 7.16014C11.7332 7.16014 11.5065 6.93347 11.5065 6.66014V3.98014C11.5065 3.70681 11.733 3.48014 12.0063 3.48014C12.2797 3.48014 12.5065 3.70681 12.5065 3.98014V6.65348C12.5065 6.93347 12.2799 7.16014 12.0065 7.16014Z" fill="currentColor"/>
<path d="M5.23333 15.1667H3.43333C1.65999 15.1667 0.833328 14.34 0.833328 12.5667V10.7667C0.833328 8.99333 1.65999 8.16667 3.43333 8.16667H5.23333C7.00666 8.16667 7.83333 8.99333 7.83333 10.7667V12.5667C7.83333 14.34 7.00666 15.1667 5.23333 15.1667ZM3.43333 9.16667C2.20666 9.16667 1.83333 9.54 1.83333 10.7667V12.5667C1.83333 13.7933 2.20666 14.1667 3.43333 14.1667H5.23333C6.45999 14.1667 6.83333 13.7933 6.83333 12.5667V10.7667C6.83333 9.54 6.45999 9.16667 5.23333 9.16667H3.43333Z" fill="currentColor"/>
</g>
<defs>
<clipPath id="clip0_2_5060">
<rect width="16" height="16" fill="currentColor"/>
</clipPath>
</defs>
</svg>
