<svg width="16" height="16" viewBox="0 0 16 16" fill="none" xmlns="http://www.w3.org/2000/svg">
<g clip-path="url(#clip0_2_4801)">
<path d="M1.33334 6.5C1.06001 6.5 0.833344 6.27334 0.833344 6V4.33334C0.833344 2.40667 2.40668 0.833336 4.33334 0.833336H6.00001C6.27334 0.833336 6.50001 1.06 6.50001 1.33334C6.50001 1.60667 6.27334 1.83334 6.00001 1.83334H4.33334C2.95334 1.83334 1.83334 2.95334 1.83334 4.33334V6C1.83334 6.27334 1.60668 6.5 1.33334 6.5Z" fill="currentColor"/>
<path d="M14.6667 6.5C14.3933 6.5 14.1667 6.27334 14.1667 6V4.33334C14.1667 2.95334 13.0467 1.83334 11.6667 1.83334H10C9.72668 1.83334 9.50001 1.60667 9.50001 1.33334C9.50001 1.06 9.72668 0.833336 10 0.833336H11.6667C13.5933 0.833336 15.1667 2.40667 15.1667 4.33334V6C15.1667 6.27334 14.94 6.5 14.6667 6.5Z" fill="currentColor"/>
<path d="M11.6667 15.1667H10.6667C10.3933 15.1667 10.1667 14.94 10.1667 14.6667C10.1667 14.3933 10.3933 14.1667 10.6667 14.1667H11.6667C13.0467 14.1667 14.1667 13.0467 14.1667 11.6667V10.6667C14.1667 10.3933 14.3933 10.1667 14.6667 10.1667C14.94 10.1667 15.1667 10.3933 15.1667 10.6667V11.6667C15.1667 13.5933 13.5933 15.1667 11.6667 15.1667Z" fill="currentColor"/>
<path d="M6.00001 15.1667H4.33334C2.40668 15.1667 0.833344 13.5933 0.833344 11.6667V10C0.833344 9.72667 1.06001 9.5 1.33334 9.5C1.60668 9.5 1.83334 9.72667 1.83334 10V11.6667C1.83334 13.0467 2.95334 14.1667 4.33334 14.1667H6.00001C6.27334 14.1667 6.50001 14.3933 6.50001 14.6667C6.50001 14.94 6.27334 15.1667 6.00001 15.1667Z" fill="currentColor"/>
</g>
<defs>
<clipPath id="clip0_2_4801">
<rect width="16" height="16" fill="currentColor"/>
</clipPath>
</defs>
</svg>
