<svg width="16" height="16" viewBox="0 0 16 16" fill="none" xmlns="http://www.w3.org/2000/svg">
<g clip-path="url(#clip0_2_4802)">
<path d="M9.99999 15.1667H5.99999C2.37999 15.1667 0.833328 13.62 0.833328 10V6C0.833328 2.38 2.37999 0.833336 5.99999 0.833336H9.99999C13.62 0.833336 15.1667 2.38 15.1667 6V10C15.1667 13.62 13.62 15.1667 9.99999 15.1667ZM5.99999 1.83334C2.92666 1.83334 1.83333 2.92667 1.83333 6V10C1.83333 13.0733 2.92666 14.1667 5.99999 14.1667H9.99999C13.0733 14.1667 14.1667 13.0733 14.1667 10V6C14.1667 2.92667 13.0733 1.83334 9.99999 1.83334H5.99999Z" fill="currentColor"/>
<path d="M3.99963 12.4999C3.87296 12.4999 3.74629 12.4533 3.64629 12.3533C3.45296 12.1599 3.45296 11.8399 3.64629 11.6466L11.6463 3.64663C11.8397 3.4533 12.1597 3.4533 12.353 3.64663C12.5463 3.83996 12.5463 4.15996 12.353 4.3533L4.35296 12.3533C4.25296 12.4533 4.12629 12.4999 3.99963 12.4999Z" fill="currentColor"/>
<path d="M12 7.16667C11.7267 7.16667 11.5 6.94 11.5 6.66667V4.5H9.33333C9.05999 4.5 8.83333 4.27334 8.83333 4C8.83333 3.72667 9.05999 3.5 9.33333 3.5H12C12.2733 3.5 12.5 3.72667 12.5 4V6.66667C12.5 6.94 12.2733 7.16667 12 7.16667Z" fill="currentColor"/>
<path d="M6.66666 12.5L3.99963 12.4999C3.72629 12.4999 3.49999 12.2733 3.49999 12V9.33333C3.49999 9.06 3.72666 8.83334 3.99999 8.83334C4.27333 8.83334 4.49999 9.06 4.49999 9.33333V11.5H6.66666C6.93999 11.5 7.16666 11.7267 7.16666 12C7.16666 12.2733 6.93999 12.5 6.66666 12.5Z" fill="currentColor"/>
</g>
<defs>
<clipPath id="clip0_2_4802">
<rect width="16" height="16" fill="currentColor"/>
</clipPath>
</defs>
</svg>
