<svg width="16" height="16" viewBox="0 0 16 16" fill="none" xmlns="http://www.w3.org/2000/svg">
<g clip-path="url(#clip0_2_4605)">
<path d="M1.33333 6.5C1.05999 6.5 0.833328 6.27334 0.833328 6V4.33334C0.833328 2.40667 2.40666 0.833336 4.33333 0.833336H5.99999C6.27333 0.833336 6.49999 1.06 6.49999 1.33334C6.49999 1.60667 6.27333 1.83334 5.99999 1.83334H4.33333C2.95333 1.83334 1.83333 2.95334 1.83333 4.33334V6C1.83333 6.27334 1.60666 6.5 1.33333 6.5Z" fill="currentColor"/>
<path d="M14.6667 6.5C14.3933 6.5 14.1667 6.27334 14.1667 6V4.33334C14.1667 2.95334 13.0467 1.83334 11.6667 1.83334H9.99999C9.72666 1.83334 9.49999 1.60667 9.49999 1.33334C9.49999 1.06 9.72666 0.833336 9.99999 0.833336H11.6667C13.5933 0.833336 15.1667 2.40667 15.1667 4.33334V6C15.1667 6.27334 14.94 6.5 14.6667 6.5Z" fill="currentColor"/>
<path d="M11.6667 15.1667H10.6667C10.3933 15.1667 10.1667 14.94 10.1667 14.6667C10.1667 14.3933 10.3933 14.1667 10.6667 14.1667H11.6667C13.0467 14.1667 14.1667 13.0467 14.1667 11.6667V10.6667C14.1667 10.3933 14.3933 10.1667 14.6667 10.1667C14.94 10.1667 15.1667 10.3933 15.1667 10.6667V11.6667C15.1667 13.5933 13.5933 15.1667 11.6667 15.1667Z" fill="currentColor"/>
<path d="M5.99999 15.1667H4.33333C2.40666 15.1667 0.833328 13.5933 0.833328 11.6667V10C0.833328 9.72667 1.05999 9.5 1.33333 9.5C1.60666 9.5 1.83333 9.72667 1.83333 10V11.6667C1.83333 13.0467 2.95333 14.1667 4.33333 14.1667H5.99999C6.27333 14.1667 6.49999 14.3933 6.49999 14.6667C6.49999 14.94 6.27333 15.1667 5.99999 15.1667Z" fill="currentColor"/>
<path d="M12 9.83333C11.7267 9.83333 11.5 9.60667 11.5 9.33333V8.5H4.49999V9.33333C4.49999 9.60667 4.27333 9.83333 3.99999 9.83333C3.72666 9.83333 3.49999 9.60667 3.49999 9.33333V6.66667C3.49999 6.39334 3.72666 6.16667 3.99999 6.16667C4.27333 6.16667 4.49999 6.39334 4.49999 6.66667V7.5H11.5V6.66667C11.5 6.39334 11.7267 6.16667 12 6.16667C12.2733 6.16667 12.5 6.39334 12.5 6.66667V9.33333C12.5 9.60667 12.2733 9.83333 12 9.83333Z" fill="currentColor"/>
<path d="M9.33333 12.5H6.66666C6.39333 12.5 6.16666 12.2733 6.16666 12C6.16666 11.7267 6.39333 11.5 6.66666 11.5H7.49999V4.5H6.66666C6.39333 4.5 6.16666 4.27334 6.16666 4C6.16666 3.72667 6.39333 3.5 6.66666 3.5H9.33333C9.60666 3.5 9.83333 3.72667 9.83333 4C9.83333 4.27334 9.60666 4.5 9.33333 4.5H8.49999V11.5H9.33333C9.60666 11.5 9.83333 11.7267 9.83333 12C9.83333 12.2733 9.60666 12.5 9.33333 12.5Z" fill="currentColor"/>
</g>
<defs>
<clipPath id="clip0_2_4605">
<rect width="16" height="16" fill="currentColor"/>
</clipPath>
</defs>
</svg>
