<svg width="16" height="16" viewBox="0 0 16 16" fill="none" xmlns="http://www.w3.org/2000/svg">
<g clip-path="url(#clip0_2_5044)">
<path d="M8 11.1667C7.73333 11.1667 7.46667 11.1467 7.21333 11.1C5.8 10.8933 4.51333 10.08 3.7 8.87334C3.13333 8.02 2.83333 7.02667 2.83333 6C2.83333 3.15334 5.15333 0.833336 8 0.833336C10.8467 0.833336 13.1667 3.15334 13.1667 6C13.1667 7.02667 12.8667 8.02 12.3 8.87334C11.48 10.0867 10.1933 10.8933 8.76667 11.1067C8.53333 11.1467 8.26667 11.1667 8 11.1667ZM8 1.83334C5.7 1.83334 3.83333 3.7 3.83333 6C3.83333 6.83334 4.07333 7.63334 4.52667 8.31334C5.18667 9.28667 6.22 9.94 7.36667 10.1067C7.79333 10.18 8.21333 10.18 8.60667 10.1067C9.77333 9.94 10.8067 9.28 11.4667 8.30667C11.92 7.62667 12.16 6.82667 12.16 5.99333C12.1667 3.7 10.3 1.83334 8 1.83334Z" fill="currentColor"/>
<path d="M4.31289 15.06C4.21955 15.06 4.13289 15.0467 4.03955 15.0267C3.60622 14.9267 3.27289 14.5933 3.17289 14.16L2.93955 13.18C2.92622 13.12 2.87955 13.0733 2.81289 13.0533L1.71289 12.7933C1.29955 12.6933 0.972886 12.3867 0.859553 11.98C0.74622 11.5733 0.859553 11.1333 1.15955 10.8333L3.75955 8.23334C3.86622 8.12667 4.01289 8.07334 4.15955 8.08667C4.30622 8.1 4.43955 8.18 4.52622 8.30667C5.18622 9.28 6.21955 9.94 7.37287 10.1067C7.79953 10.18 8.21953 10.18 8.61287 10.1067C9.77953 9.94 10.8129 9.28 11.4729 8.30667C11.5529 8.18 11.6929 8.1 11.8395 8.08667C11.9862 8.07334 12.1329 8.12667 12.2395 8.23334L14.8395 10.8333C15.1395 11.1333 15.2529 11.5733 15.1395 11.98C15.0262 12.3867 14.6929 12.7 14.2862 12.7933L13.1862 13.0533C13.1262 13.0667 13.0795 13.1133 13.0595 13.18L12.8262 14.16C12.7262 14.5933 12.3929 14.9267 11.9595 15.0267C11.5262 15.1333 11.0795 14.98 10.7995 14.64L7.99953 11.42L5.19955 14.6467C4.97289 14.9133 4.65289 15.06 4.31289 15.06ZM4.05955 9.35334L1.86622 11.5467C1.80622 11.6067 1.81289 11.6733 1.82622 11.7133C1.83289 11.7467 1.86622 11.8133 1.94622 11.8267L3.04622 12.0867C3.47955 12.1867 3.81289 12.52 3.91289 12.9533L4.14622 13.9333C4.16622 14.02 4.23289 14.0467 4.27289 14.06C4.31289 14.0667 4.37955 14.0733 4.43955 14.0067L6.99287 11.0667C5.85955 10.8467 4.81955 10.24 4.05955 9.35334ZM9.0062 11.06L11.5595 13.9933C11.6195 14.0667 11.6929 14.0667 11.7329 14.0533C11.7729 14.0467 11.8329 14.0133 11.8595 13.9267L12.0929 12.9467C12.1929 12.5133 12.5262 12.18 12.9595 12.08L14.0595 11.82C14.1395 11.8 14.1729 11.74 14.1795 11.7067C14.1929 11.6733 14.1995 11.6 14.1395 11.54L11.9462 9.34667C11.1795 10.2333 10.1462 10.84 9.0062 11.06Z" fill="currentColor"/>
<path d="M9.26073 8.59334C9.0874 8.59334 8.88073 8.54667 8.63407 8.4L8.00073 8.02L7.3674 8.39334C6.7874 8.74 6.40741 8.54 6.26741 8.44C6.12741 8.34 5.82741 8.04 5.98075 7.38L6.14075 6.69334L5.60741 6.2C5.31408 5.90666 5.20741 5.55334 5.30741 5.23334C5.40741 4.91334 5.70075 4.68666 6.11408 4.62L6.8274 4.5L7.1674 3.75334C7.36073 3.37334 7.66073 3.16 8.00073 3.16C8.34073 3.16 8.6474 3.38001 8.83407 3.76001L9.2274 4.54668L9.8874 4.62667C10.2941 4.69334 10.5874 4.92 10.6941 5.24C10.7941 5.56 10.6874 5.91334 10.3941 6.20667L9.84073 6.76L10.0141 7.38C10.1674 8.04 9.8674 8.34 9.7274 8.44C9.65407 8.5 9.49407 8.59334 9.26073 8.59334ZM6.40741 5.59334L6.8674 6.05333C7.08073 6.26666 7.1874 6.62667 7.12073 6.92L6.99407 7.45334L7.5274 7.14C7.81407 6.97334 8.20073 6.97334 8.48073 7.14L9.01407 7.45334L8.89406 6.92C8.8274 6.62001 8.9274 6.26666 9.14073 6.05333L9.60073 5.59334L9.02073 5.49333C8.74073 5.44666 8.46073 5.24001 8.33407 4.98668L8.00073 4.33334L7.6674 5C7.5474 5.24667 7.2674 5.46001 6.9874 5.50668L6.40741 5.59334Z" fill="currentColor"/>
</g>
<defs>
<clipPath id="clip0_2_5044">
<rect width="16" height="16" fill="currentColor"/>
</clipPath>
</defs>
</svg>
