<svg width="16" height="16" viewBox="0 0 16 16" fill="none" xmlns="http://www.w3.org/2000/svg">
<path d="M8 10.5C5.24 10.5 3 8.33334 3 5.66667C3 3 5.24 0.833336 8 0.833336C10.76 0.833336 13 3 13 5.66667C13 8.33334 10.76 10.5 8 10.5ZM8 1.83334C5.79333 1.83334 4 3.55334 4 5.66667C4 7.78 5.79333 9.5 8 9.5C10.2067 9.5 12 7.78 12 5.66667C12 3.55334 10.2067 1.83334 8 1.83334Z" fill="currentColor"/>
<path d="M10.4133 15.1667C10.2267 15.1667 10.04 15.1201 9.84667 15.0334L8.05333 14.1867C8.03333 14.1801 7.96 14.1801 7.93333 14.1867L6.15335 15.0267C5.76001 15.2134 5.34667 15.2067 5.02667 15.0001C4.69334 14.7867 4.50001 14.3934 4.50668 13.9267L4.51333 9.00674C4.51333 8.7334 4.72667 8.4934 5.01333 8.50674C5.28667 8.50674 5.51333 8.7334 5.51333 9.00674L5.50668 13.9267C5.50668 14.0734 5.54667 14.1467 5.56667 14.1534C5.58001 14.1601 5.64001 14.1667 5.73334 14.1201L7.52 13.2734C7.80667 13.1401 8.2 13.1401 8.48667 13.2734L10.28 14.1201C10.3733 14.1667 10.4333 14.1601 10.4467 14.1534C10.4667 14.1401 10.5067 14.0667 10.5067 13.9267V8.88674C10.5067 8.6134 10.7333 8.38674 11.0067 8.38674C11.28 8.38674 11.5067 8.6134 11.5067 8.88674V13.9267C11.5067 14.4001 11.3133 14.7867 10.98 15.0001C10.8067 15.1134 10.6133 15.1667 10.4133 15.1667Z" fill="currentColor"/>
</svg>
