<svg width="16" height="16" viewBox="0 0 16 16" fill="none" xmlns="http://www.w3.org/2000/svg">
<g clip-path="url(#clip0_2_4794)">
<path d="M10.9206 15.1668H2.16058C1.52725 15.1668 0.940586 14.8735 0.560585 14.3602C0.173918 13.8402 0.0605909 13.1868 0.253924 12.5668L3.06059 3.54679C3.31392 2.70679 4.08726 2.13347 4.96726 2.13347H13.1672C13.9739 2.13347 14.7006 2.61352 15.0072 3.36018C15.1739 3.74685 15.2072 4.18686 15.1072 4.6202L12.8606 13.6401C12.6472 14.5401 11.8472 15.1668 10.9206 15.1668ZM4.97391 3.14014C4.54058 3.14014 4.14725 3.42684 4.02059 3.84684L1.21393 12.8669C1.12059 13.1802 1.17392 13.5069 1.37392 13.7735C1.56059 14.0269 1.85392 14.1735 2.16725 14.1735H10.9272C11.3872 14.1735 11.7872 13.8601 11.8939 13.4135L14.1406 4.3868C14.1939 4.1668 14.1806 3.94683 14.0939 3.7535C13.9339 3.3735 13.5806 3.13347 13.1739 3.13347H4.97391V3.14014Z" fill="currentColor"/>
<path d="M13.8533 15.1667H10.6666C10.3933 15.1667 10.1666 14.94 10.1666 14.6667C10.1666 14.3933 10.3933 14.1667 10.6666 14.1667H13.8533C14.1266 14.1667 14.38 14.0533 14.5666 13.8533C14.7533 13.6533 14.8466 13.3867 14.8266 13.1133L14.1666 4.03335C14.1466 3.76001 14.3533 3.51998 14.6266 3.49998C14.9 3.48664 15.14 3.68661 15.16 3.95994L15.82 13.04C15.86 13.5867 15.6666 14.1333 15.2933 14.5333C14.9266 14.94 14.4 15.1667 13.8533 15.1667Z" fill="currentColor"/>
<path d="M6.45316 4.75314C6.41316 4.75314 6.37316 4.74646 6.33316 4.73979C6.06649 4.67313 5.89984 4.40644 5.96651 4.1331L6.65982 1.25314C6.72651 0.986472 6.99318 0.819772 7.26651 0.886438C7.53318 0.953105 7.69985 1.2198 7.63318 1.49313L6.93985 4.37318C6.88651 4.59984 6.67985 4.75314 6.45316 4.75314Z" fill="currentColor"/>
<path d="M10.9196 4.75982C10.8863 4.75982 10.8462 4.75981 10.8129 4.74648C10.5462 4.68648 10.373 4.41981 10.4263 4.15314L11.0529 1.25982C11.1129 0.986492 11.3796 0.819858 11.6462 0.873192C11.9129 0.926525 12.0862 1.19978 12.0329 1.46645L11.4062 4.35984C11.3596 4.59984 11.153 4.75982 10.9196 4.75982Z" fill="currentColor"/>
<path d="M10.4661 8.5H5.13279C4.85946 8.5 4.63279 8.27333 4.63279 8C4.63279 7.72667 4.85946 7.5 5.13279 7.5H10.4661C10.7394 7.5 10.9661 7.72667 10.9661 8C10.9661 8.27333 10.7394 8.5 10.4661 8.5Z" fill="currentColor"/>
<path d="M9.79945 11.1667H4.46613C4.19279 11.1667 3.96613 10.94 3.96613 10.6667C3.96613 10.3933 4.19279 10.1667 4.46613 10.1667H9.79945C10.0728 10.1667 10.2994 10.3933 10.2994 10.6667C10.2994 10.94 10.0728 11.1667 9.79945 11.1667Z" fill="currentColor"/>
</g>
<defs>
<clipPath id="clip0_2_4794">
<rect width="16" height="16" fill="currentColor"/>
</clipPath>
</defs>
</svg>
