<svg width="16" height="16" viewBox="0 0 16 16" fill="none" xmlns="http://www.w3.org/2000/svg">
<path d="M11.6934 6.04009C10.5134 6.04009 9.55339 5.08009 9.55339 3.90009C9.55339 2.72009 10.5134 1.76009 11.6934 1.76009C12.8734 1.76009 13.8334 2.72009 13.8334 3.90009C13.8334 5.08009 12.8734 6.04009 11.6934 6.04009ZM11.6934 2.75343C11.0667 2.75343 10.5534 3.26676 10.5534 3.89343C10.5534 4.52009 11.0667 5.03343 11.6934 5.03343C12.3201 5.03343 12.8334 4.52009 12.8334 3.89343C12.8334 3.26676 12.3201 2.75343 11.6934 2.75343Z" fill="currentColor"/>
<path d="M4.30666 6.04009C3.12666 6.04009 2.16666 5.08009 2.16666 3.90009C2.16666 2.72009 3.12666 1.76009 4.30666 1.76009C5.48666 1.76009 6.44666 2.72009 6.44666 3.90009C6.44666 5.08009 5.48666 6.04009 4.30666 6.04009ZM4.30666 2.75343C3.68 2.75343 3.16666 3.26676 3.16666 3.89343C3.16666 4.52009 3.68 5.03343 4.30666 5.03343C4.93333 5.03343 5.44666 4.52009 5.44666 3.89343C5.44666 3.26676 4.94 2.75343 4.30666 2.75343Z" fill="currentColor"/>
<path d="M11.6934 14.2468C10.5134 14.2468 9.55339 13.2868 9.55339 12.1068C9.55339 10.9268 10.5134 9.9668 11.6934 9.9668C12.8734 9.9668 13.8334 10.9268 13.8334 12.1068C13.8334 13.2868 12.8734 14.2468 11.6934 14.2468ZM11.6934 10.9601C11.0667 10.9601 10.5534 11.4735 10.5534 12.1001C10.5534 12.7268 11.0667 13.2401 11.6934 13.2401C12.3201 13.2401 12.8334 12.7268 12.8334 12.1001C12.8334 11.4735 12.3201 10.9601 11.6934 10.9601Z" fill="currentColor"/>
<path d="M4.30666 14.2468C3.12666 14.2468 2.16666 13.2868 2.16666 12.1068C2.16666 10.9268 3.12666 9.9668 4.30666 9.9668C5.48666 9.9668 6.44666 10.9268 6.44666 12.1068C6.44666 13.2868 5.48666 14.2468 4.30666 14.2468ZM4.30666 10.9601C3.68 10.9601 3.16666 11.4735 3.16666 12.1001C3.16666 12.7268 3.68 13.2401 4.30666 13.2401C4.93333 13.2401 5.44666 12.7268 5.44666 12.1001C5.44666 11.4735 4.94 10.9601 4.30666 10.9601Z" fill="currentColor"/>
</svg>
