<svg width="16" height="16" viewBox="0 0 16 16" fill="none" xmlns="http://www.w3.org/2000/svg">
<g clip-path="url(#clip0_2_4779)">
<path d="M8.00001 15.2067C7.54001 15.2067 7.10668 14.9733 6.80001 14.5667L5.80001 13.2333C5.78001 13.2067 5.70001 13.1733 5.66668 13.1667H5.33334C2.55334 13.1667 0.833344 12.4133 0.833344 8.66667V5.33333C0.833344 2.38667 2.38668 0.833334 5.33334 0.833334H10.6667C13.6133 0.833334 15.1667 2.38667 15.1667 5.33333V8.66667C15.1667 11.6133 13.6133 13.1667 10.6667 13.1667H10.3333C10.28 13.1667 10.2333 13.1933 10.2 13.2333L9.20001 14.5667C8.89334 14.9733 8.46001 15.2067 8.00001 15.2067ZM5.33334 1.83333C2.94668 1.83333 1.83334 2.94667 1.83334 5.33333V8.66667C1.83334 11.68 2.86668 12.1667 5.33334 12.1667H5.66668C6.00668 12.1667 6.39334 12.36 6.60001 12.6333L7.60001 13.9667C7.83334 14.2733 8.16668 14.2733 8.40001 13.9667L9.40001 12.6333C9.62001 12.34 9.96668 12.1667 10.3333 12.1667H10.6667C13.0533 12.1667 14.1667 11.0533 14.1667 8.66667V5.33333C14.1667 2.94667 13.0533 1.83333 10.6667 1.83333H5.33334Z" fill="currentColor"/>
<path d="M11.3333 5.83333H4.66668C4.39334 5.83333 4.16668 5.60667 4.16668 5.33333C4.16668 5.06 4.39334 4.83333 4.66668 4.83333H11.3333C11.6067 4.83333 11.8333 5.06 11.8333 5.33333C11.8333 5.60667 11.6067 5.83333 11.3333 5.83333Z" fill="currentColor"/>
<path d="M8.66668 9.16667H4.66668C4.39334 9.16667 4.16668 8.94 4.16668 8.66667C4.16668 8.39333 4.39334 8.16667 4.66668 8.16667H8.66668C8.94001 8.16667 9.16668 8.39333 9.16668 8.66667C9.16668 8.94 8.94001 9.16667 8.66668 9.16667Z" fill="currentColor"/>
</g>
<defs>
<clipPath id="clip0_2_4779">
<rect width="16" height="16" fill="currentColor"/>
</clipPath>
</defs>
</svg>
