<svg width="16" height="16" viewBox="0 0 16 16" fill="none" xmlns="http://www.w3.org/2000/svg">
<path d="M10.3333 7.5H5.66665C5.39331 7.5 5.16665 7.27333 5.16665 7C5.16665 6.72667 5.39331 6.5 5.66665 6.5H10.3333C10.6066 6.5 10.8333 6.72667 10.8333 7C10.8333 7.27333 10.6066 7.5 10.3333 7.5Z" fill="currentColor"/>
<path d="M10.6666 14.8799C10.44 14.8799 10.2133 14.8133 10.02 14.6867L7.17998 12.7933H4.66665C2.37331 12.7933 0.833313 11.2533 0.833313 8.95993V4.95996C0.833313 2.66663 2.37331 1.12663 4.66665 1.12663H11.3333C13.6266 1.12663 15.1666 2.66663 15.1666 4.95996V8.95993C15.1666 11.0799 13.8466 12.56 11.8333 12.7667V13.7133C11.8333 14.1466 11.6 14.5399 11.22 14.7399C11.0466 14.8333 10.8533 14.8799 10.6666 14.8799ZM4.66665 2.11995C2.94665 2.11995 1.83331 3.23329 1.83331 4.95329V8.95327C1.83331 10.6733 2.94665 11.7866 4.66665 11.7866H7.33331C7.43331 11.7866 7.52665 11.8133 7.61331 11.8733L10.58 13.8467C10.6533 13.8933 10.72 13.8733 10.7533 13.8533C10.7866 13.8333 10.84 13.7933 10.84 13.7066V12.2866C10.84 12.0133 11.0666 11.7866 11.34 11.7866C13.06 11.7866 14.1733 10.6733 14.1733 8.95327V4.95329C14.1733 3.23329 13.06 2.11995 11.34 2.11995H4.66665Z" fill="currentColor"/>
</svg>
