<svg width="16" height="16" viewBox="0 0 16 16" fill="none" xmlns="http://www.w3.org/2000/svg">
<path d="M5.33331 14.8799C5.14665 14.8799 4.9533 14.8333 4.77997 14.7399C4.39997 14.5399 4.16665 14.1399 4.16665 13.7133V12.7667C2.15331 12.56 0.833313 11.0799 0.833313 8.95993V4.95996C0.833313 2.66663 2.37331 1.12663 4.66665 1.12663H11.3333C13.6266 1.12663 15.1666 2.66663 15.1666 4.95996V8.95993C15.1666 11.2533 13.6266 12.7933 11.3333 12.7933H8.81998L5.97996 14.6867C5.78663 14.8133 5.55998 14.8799 5.33331 14.8799ZM4.66665 2.11995C2.94665 2.11995 1.83331 3.23329 1.83331 4.95329V8.95333C1.83331 10.6733 2.94665 11.7867 4.66665 11.7867C4.93998 11.7867 5.16665 12.0133 5.16665 12.2867V13.7067C5.16665 13.7933 5.21998 13.8333 5.25331 13.8533C5.28665 13.8733 5.35332 13.8933 5.42665 13.8467L8.39331 11.8733C8.47331 11.82 8.57331 11.7867 8.67331 11.7867H11.34C13.06 11.7867 14.1733 10.6733 14.1733 8.95333V4.95329C14.1733 3.23329 13.06 2.11995 11.34 2.11995H4.66665Z" fill="currentColor"/>
<path d="M7.99985 8.07327C7.72651 8.07327 7.49985 7.8466 7.49985 7.57327V7.43327C7.49985 6.65993 8.06651 6.27993 8.27985 6.13326C8.52651 5.96659 8.60651 5.85327 8.60651 5.67993C8.60651 5.3466 8.33318 5.07324 7.99985 5.07324C7.66651 5.07324 7.39318 5.3466 7.39318 5.67993C7.39318 5.95327 7.16651 6.17993 6.89318 6.17993C6.61987 6.17993 6.39321 5.95327 6.39321 5.67993C6.39321 4.79327 7.11318 4.07324 7.99985 4.07324C8.88651 4.07324 9.60651 4.79327 9.60651 5.67993C9.60651 6.43993 9.04651 6.81993 8.83985 6.95993C8.57985 7.13327 8.49985 7.2466 8.49985 7.43327V7.57327C8.49985 7.85327 8.27318 8.07327 7.99985 8.07327Z" fill="currentColor"/>
<path d="M7.99998 9.7334C7.71998 9.7334 7.49998 9.50673 7.49998 9.2334C7.49998 8.96007 7.72665 8.7334 7.99998 8.7334C8.27331 8.7334 8.49998 8.96007 8.49998 9.2334C8.49998 9.50673 8.27998 9.7334 7.99998 9.7334Z" fill="currentColor"/>
</svg>
