<svg width="16" height="16" viewBox="0 0 16 16" fill="none" xmlns="http://www.w3.org/2000/svg">
<path d="M10.6665 14.8799C10.4399 14.8799 10.2199 14.8133 10.0265 14.6867L7.18654 12.7933H5.92652C5.77318 12.7933 5.6265 12.72 5.53316 12.6C5.43983 12.4733 5.40652 12.3133 5.44652 12.1666C5.48652 12.0066 5.50652 11.8466 5.50652 11.6733C5.50652 11.1399 5.30652 10.6267 4.94652 10.2267C4.53985 9.76667 3.95985 9.5066 3.33985 9.5066C2.74652 9.5066 2.19984 9.73993 1.78651 10.1599C1.65984 10.2933 1.46651 10.3399 1.29318 10.2933C1.11985 10.2399 0.979845 10.0999 0.939845 9.91993C0.873178 9.6266 0.839852 9.3066 0.839852 8.95993V4.95996C0.839852 2.66663 2.37985 1.12663 4.67319 1.12663H11.3399C13.6332 1.12663 15.1732 2.66663 15.1732 4.95996V8.95993C15.1732 10.0733 14.8065 11.0333 14.1065 11.7333C13.5199 12.3199 12.7399 12.6733 11.8399 12.7667V13.7133C11.8399 14.1466 11.5998 14.5399 11.2198 14.7466C11.0398 14.8333 10.8532 14.8799 10.6665 14.8799ZM6.49985 11.7866H7.33321C7.4332 11.7866 7.52654 11.8133 7.6132 11.8733L10.5799 13.8533C10.6532 13.9 10.7132 13.8799 10.7465 13.8599C10.7799 13.8399 10.8399 13.7999 10.8399 13.7066V12.2866C10.8399 12.0133 11.0665 11.7866 11.3399 11.7866C12.1865 11.7866 12.8999 11.52 13.3999 11.02C13.9065 10.5133 14.1732 9.79993 14.1732 8.95327V4.95329C14.1732 3.23329 13.0599 2.11995 11.3399 2.11995H4.67319C2.95319 2.11995 1.83985 3.23329 1.83985 4.95329V8.87327C2.29318 8.6266 2.80652 8.49993 3.33985 8.49993C4.24652 8.49993 5.10651 8.88667 5.69318 9.55333C6.21318 10.1333 6.50652 10.8799 6.50652 11.6666C6.49985 11.7066 6.49985 11.7466 6.49985 11.7866Z" fill="currentColor"/>
<path d="M3.33334 14.8333C1.58667 14.8333 0.166672 13.4133 0.166672 11.6667C0.166672 10.6933 0.600004 9.79333 1.35334 9.19333C1.91334 8.74667 2.62001 8.5 3.33334 8.5C5.08001 8.5 6.50001 9.92 6.50001 11.6667C6.50001 12.5733 6.10667 13.44 5.42001 14.04C4.84001 14.5533 4.10001 14.8333 3.33334 14.8333ZM3.33334 9.5C2.84001 9.5 2.37334 9.66667 1.98001 9.98C1.46667 10.3867 1.16667 11.0067 1.16667 11.6667C1.16667 12.86 2.14001 13.8333 3.33334 13.8333C3.85334 13.8333 4.36 13.64 4.76667 13.2933C5.23333 12.88 5.50001 12.2933 5.50001 11.6667C5.50001 10.4733 4.52667 9.5 3.33334 9.5Z" fill="currentColor"/>
<path d="M2.6666 12.8333C2.49993 12.8333 2.33326 12.7467 2.23993 12.5933C2.09993 12.3533 2.17327 12.0467 2.41327 11.9067L3.00661 11.5533V10.8333C3.00661 10.56 3.23327 10.3333 3.50661 10.3333C3.77994 10.3333 4.00661 10.56 4.00661 10.8333V11.8333C4.00661 12.0067 3.91327 12.1733 3.7666 12.26L2.93327 12.76C2.83993 12.8133 2.75327 12.8333 2.6666 12.8333Z" fill="currentColor"/>
<path d="M10.3333 7.5H5.66667C5.39334 7.5 5.16667 7.27333 5.16667 7C5.16667 6.72667 5.39334 6.5 5.66667 6.5H10.3333C10.6067 6.5 10.8333 6.72667 10.8333 7C10.8333 7.27333 10.6067 7.5 10.3333 7.5Z" fill="currentColor"/>
</svg>
