<svg width="16" height="16" viewBox="0 0 16 16" fill="none" xmlns="http://www.w3.org/2000/svg">
<g clip-path="url(#clip0_2_4781)">
<path d="M8.00001 15.1865C7.54001 15.1865 7.10668 14.9531 6.80001 14.5465L5.80002 13.2131C5.78002 13.1865 5.7 13.1465 5.66 13.1465H5.33334C2.55334 13.1465 0.833344 12.3931 0.833344 8.64647V5.31315C0.833344 2.36649 2.38668 0.813154 5.33334 0.813154H10.6667C13.6133 0.813154 15.1667 2.36649 15.1667 5.31315V8.64647C15.1667 8.9198 14.94 9.14647 14.6667 9.14647C14.3933 9.14647 14.1667 8.9198 14.1667 8.64647V5.31315C14.1667 2.92649 13.0533 1.81315 10.6667 1.81315H5.33334C2.94668 1.81315 1.83334 2.92649 1.83334 5.31315V8.64647C1.83334 11.6598 2.86668 12.1465 5.33334 12.1465H5.66668C6.00668 12.1465 6.4 12.3398 6.6 12.6131L7.60001 13.9465C7.83334 14.2531 8.16668 14.2531 8.40001 13.9465C8.56668 13.7265 8.88001 13.6798 9.10001 13.8465C9.32001 14.0131 9.36668 14.3265 9.20001 14.5465C8.89334 14.9531 8.46001 15.1865 8.00001 15.1865Z" fill="currentColor"/>
<path d="M8.00001 7.9798C7.62668 7.9798 7.33334 7.6798 7.33334 7.31313C7.33334 6.94647 7.63334 6.64649 8.00001 6.64649C8.36668 6.64649 8.66668 6.94647 8.66668 7.31313C8.66668 7.6798 8.37334 7.9798 8.00001 7.9798Z" fill="currentColor"/>
<path d="M10.6667 7.9798C10.2933 7.9798 10 7.6798 10 7.31313C10 6.94647 10.3 6.64649 10.6667 6.64649C11.0333 6.64649 11.3333 6.94647 11.3333 7.31313C11.3333 7.6798 11.04 7.9798 10.6667 7.9798Z" fill="currentColor"/>
<path d="M5.33334 7.9798C4.96001 7.9798 4.66668 7.6798 4.66668 7.31313C4.66668 6.94647 4.96668 6.64649 5.33334 6.64649C5.70001 6.64649 6.00001 6.94647 6.00001 7.31313C6.00001 7.6798 5.70668 7.9798 5.33334 7.9798Z" fill="currentColor"/>
<path d="M12.1333 14.7667C10.68 14.7667 9.50001 13.5867 9.50001 12.1333C9.50001 10.68 10.68 9.5 12.1333 9.5C13.5867 9.5 14.7667 10.68 14.7667 12.1333C14.7667 13.5867 13.5867 14.7667 12.1333 14.7667ZM12.1333 10.5C11.2333 10.5 10.5 11.2333 10.5 12.1333C10.5 13.0333 11.2333 13.7667 12.1333 13.7667C13.0333 13.7667 13.7667 13.0333 13.7667 12.1333C13.7667 11.2333 13.0333 10.5 12.1333 10.5Z" fill="currentColor"/>
<path d="M14.6663 15.1666C14.5397 15.1666 14.413 15.1199 14.313 15.0199L13.6463 14.3533C13.453 14.1599 13.453 13.8399 13.6463 13.6466C13.8397 13.4533 14.1597 13.4533 14.353 13.6466L15.0197 14.3133C15.213 14.5066 15.213 14.8266 15.0197 15.0199C14.9197 15.1199 14.793 15.1666 14.6663 15.1666Z" fill="currentColor"/>
</g>
<defs>
<clipPath id="clip0_2_4781">
<rect width="16" height="16" fill="currentColor"/>
</clipPath>
</defs>
</svg>
