<svg width="16" height="16" viewBox="0 0 16 16" fill="none" xmlns="http://www.w3.org/2000/svg">
<g clip-path="url(#clip0_2_4792)">
<path d="M10.6666 15.1667H1.99998C1.35998 15.1667 0.833313 14.64 0.833313 14V5.33334C0.833313 2.38667 2.38665 0.833336 5.33331 0.833336H10.6666C13.6133 0.833336 15.1666 2.38667 15.1666 5.33334V10.6667C15.1666 13.6133 13.6133 15.1667 10.6666 15.1667ZM5.33331 1.83334C2.94665 1.83334 1.83331 2.94667 1.83331 5.33334V14C1.83331 14.0933 1.90665 14.1667 1.99998 14.1667H10.6666C13.0533 14.1667 14.1666 13.0533 14.1666 10.6667V5.33334C14.1666 2.94667 13.0533 1.83334 10.6666 1.83334H5.33331Z" fill="currentColor"/>
<path d="M10.3333 8.5H5.66665C5.39331 8.5 5.16665 8.27334 5.16665 8C5.16665 7.72667 5.39331 7.5 5.66665 7.5H10.3333C10.6066 7.5 10.8333 7.72667 10.8333 8C10.8333 8.27334 10.6066 8.5 10.3333 8.5Z" fill="currentColor"/>
<path d="M7.99998 10.8333C7.72665 10.8333 7.49998 10.6067 7.49998 10.3333V5.66667C7.49998 5.39334 7.72665 5.16667 7.99998 5.16667C8.27331 5.16667 8.49998 5.39334 8.49998 5.66667V10.3333C8.49998 10.6067 8.27331 10.8333 7.99998 10.8333Z" fill="currentColor"/>
</g>
<defs>
<clipPath id="clip0_2_4792">
<rect width="16" height="16" fill="currentColor"/>
</clipPath>
</defs>
</svg>
