<svg width="16" height="16" viewBox="0 0 16 16" fill="none" xmlns="http://www.w3.org/2000/svg">
<path d="M10.6666 14.8799C10.4399 14.8799 10.2199 14.8133 10.0266 14.6867L7.18655 12.7933H5.92653C5.7732 12.7933 5.62651 12.72 5.53318 12.6C5.43985 12.4733 5.40653 12.3133 5.44653 12.1666C5.48653 12.0066 5.50653 11.8466 5.50653 11.6733C5.50653 11.1399 5.30653 10.6267 4.94653 10.2267C4.53987 9.76667 3.95987 9.5066 3.33987 9.5066C2.74653 9.5066 2.19319 9.73993 1.78652 10.1599C1.65985 10.2933 1.46653 10.3466 1.29319 10.2933C1.11986 10.2399 0.97986 10.0999 0.93986 9.91993C0.873194 9.6266 0.839867 9.3066 0.839867 8.95993V4.95996C0.839867 2.66663 2.37987 1.12663 4.6732 1.12663H11.3399C13.6332 1.12663 15.1732 2.66663 15.1732 4.95996V8.95993C15.1732 10.0733 14.8066 11.0333 14.1066 11.7333C13.5199 12.3199 12.7399 12.6733 11.8399 12.7667V13.7133C11.8399 14.1466 11.5998 14.5399 11.2198 14.7466C11.0398 14.8333 10.8532 14.8799 10.6666 14.8799ZM6.49986 11.7866H7.33322C7.43322 11.7866 7.52655 11.8133 7.61322 11.8733L10.5799 13.8533C10.6466 13.9 10.7132 13.8799 10.7466 13.8599C10.7799 13.8399 10.8399 13.7999 10.8399 13.7066V12.2866C10.8399 12.0133 11.0666 11.7866 11.3399 11.7866C12.1866 11.7866 12.8999 11.52 13.3999 11.02C13.9066 10.5133 14.1732 9.79993 14.1732 8.95327V4.95329C14.1732 3.23329 13.0599 2.11995 11.3399 2.11995H4.6732C2.9532 2.11995 1.83987 3.23329 1.83987 4.95329V8.87327C2.2932 8.6266 2.80653 8.49993 3.33987 8.49993C4.24653 8.49993 5.10653 8.88667 5.69319 9.55333C6.21319 10.1333 6.50653 10.8866 6.50653 11.6666C6.49987 11.7066 6.49986 11.7466 6.49986 11.7866Z" fill="currentColor"/>
<path d="M3.33335 14.8333C2.54669 14.8333 1.80001 14.54 1.22001 14.0133C0.98668 13.8133 0.780014 13.5667 0.620016 13.2933C0.326682 12.8133 0.166687 12.2467 0.166687 11.6667C0.166687 10.8333 0.486684 10.0533 1.06002 9.46C1.66002 8.84 2.46669 8.5 3.33335 8.5C4.24002 8.5 5.10002 8.88667 5.68669 9.55333C6.20669 10.1333 6.50002 10.8867 6.50002 11.6667C6.50002 11.92 6.46669 12.1733 6.40003 12.4133C6.33336 12.7133 6.20668 13.0267 6.03335 13.3C5.48001 14.2467 4.44002 14.8333 3.33335 14.8333ZM3.33335 9.5C2.74002 9.5 2.18669 9.73333 1.78003 10.1533C1.38669 10.56 1.16669 11.0933 1.16669 11.6667C1.16669 12.06 1.27335 12.4467 1.48002 12.78C1.58669 12.9667 1.72668 13.1333 1.88668 13.2733C2.28668 13.64 2.80002 13.84 3.33335 13.84C4.10002 13.84 4.79335 13.4467 5.18669 12.7933C5.30669 12.6067 5.38668 12.4 5.43335 12.1867C5.48001 12.0133 5.50002 11.8467 5.50002 11.6733C5.50002 11.14 5.30002 10.6267 4.94002 10.2267C4.54002 9.76 3.95335 9.5 3.33335 9.5Z" fill="currentColor"/>
<path d="M4.04696 12.8601C3.92029 12.8601 3.79363 12.8134 3.69363 12.7134L2.28695 11.3067C2.09361 11.1134 2.09361 10.7934 2.28695 10.6001C2.48028 10.4067 2.80028 10.4067 2.99361 10.6001L4.40029 12.0067C4.59362 12.2001 4.59362 12.5201 4.40029 12.7134C4.30029 12.8134 4.17363 12.8601 4.04696 12.8601Z" fill="currentColor"/>
<path d="M2.62075 12.8799C2.49408 12.8799 2.36741 12.8333 2.26741 12.7333C2.07408 12.5399 2.07408 12.2199 2.26741 12.0266L3.67409 10.6199C3.86743 10.4266 4.18743 10.4266 4.38076 10.6199C4.57409 10.8133 4.57409 11.1333 4.38076 11.3266L2.97408 12.7333C2.87408 12.8333 2.74741 12.8799 2.62075 12.8799Z" fill="currentColor"/>
<path d="M10.3334 7.5H5.66669C5.39335 7.5 5.16669 7.27333 5.16669 7C5.16669 6.72667 5.39335 6.5 5.66669 6.5H10.3334C10.6067 6.5 10.8334 6.72667 10.8334 7C10.8334 7.27333 10.6067 7.5 10.3334 7.5Z" fill="currentColor"/>
</svg>
