<svg width="16" height="16" viewBox="0 0 16 16" fill="none" xmlns="http://www.w3.org/2000/svg">
<g clip-path="url(#clip0_2_5028)">
<path d="M6.65997 15.1867C6.25997 15.1867 5.87997 14.9867 5.61997 14.6333L4.81999 13.5667C4.81999 13.5733 4.78665 13.5533 4.77331 13.5533H4.52665C2.24665 13.5533 0.833313 12.9333 0.833313 9.86V7.19333C0.833313 4.38667 2.54665 3.65334 3.98665 3.52667C4.14665 3.50667 4.33332 3.5 4.52665 3.5H8.79331C11.2066 3.5 12.4866 4.78001 12.4866 7.19333V9.86C12.4866 10.0533 12.48 10.24 12.4533 10.42C12.3333 11.84 11.6 13.5533 8.79331 13.5533H8.52665L7.69998 14.6333C7.43998 14.9867 7.05998 15.1867 6.65997 15.1867ZM4.52665 4.5C4.37332 4.5 4.22665 4.50667 4.08665 4.52C2.53998 4.65333 1.83331 5.50001 1.83331 7.19333V9.86C1.83331 12.1467 2.53999 12.5533 4.52665 12.5533H4.79331C5.09331 12.5533 5.43331 12.72 5.61997 12.96L6.41998 14.0333C6.56665 14.2333 6.75331 14.2333 6.89998 14.0333L7.69998 12.9667C7.89331 12.7067 8.19998 12.5533 8.52665 12.5533H8.79331C10.4866 12.5533 11.3333 11.84 11.46 10.32C11.48 10.16 11.4866 10.0133 11.4866 9.86V7.19333C11.4866 5.33334 10.6533 4.5 8.79331 4.5H4.52665Z" fill="currentColor"/>
<path d="M6.66013 9.45993C6.2868 9.45993 5.99347 9.15993 5.99347 8.79327C5.99347 8.4266 6.29347 8.1266 6.66013 8.1266C7.02678 8.1266 7.32678 8.4266 7.32678 8.79327C7.32678 9.15993 7.03345 9.45993 6.66013 9.45993Z" fill="currentColor"/>
<path d="M8.79298 9.45993C8.41965 9.45993 8.12631 9.15993 8.12631 8.79327C8.12631 8.4266 8.42631 8.1266 8.79298 8.1266C9.15965 8.1266 9.45965 8.4266 9.45965 8.79327C9.45965 9.15993 9.15965 9.45993 8.79298 9.45993Z" fill="currentColor"/>
<path d="M4.53383 9.45993C4.1605 9.45993 3.86717 9.15993 3.86717 8.79327C3.86717 8.4266 4.16717 8.1266 4.53383 8.1266C4.9005 8.1266 5.2005 8.4266 5.2005 8.79327C5.2005 9.15993 4.9005 9.45993 4.53383 9.45993Z" fill="currentColor"/>
<path d="M11.9597 10.86C11.8264 10.86 11.693 10.8067 11.5997 10.7067C11.493 10.6 11.4464 10.4467 11.4664 10.3C11.4864 10.16 11.493 10.0133 11.493 9.86V7.19333C11.493 5.33334 10.6598 4.5 8.79978 4.5H4.53307C4.37973 4.5 4.23309 4.50667 4.09309 4.52C3.94642 4.54 3.79307 4.48666 3.68641 4.38666C3.57974 4.27999 3.51973 4.13334 3.53307 3.98667C3.65307 2.54667 4.39307 0.833334 7.19971 0.833334H11.4664C13.8798 0.833334 15.1597 2.11334 15.1597 4.52667V7.19333C15.1597 10 13.4464 10.7333 12.0064 10.86C11.9864 10.86 11.973 10.86 11.9597 10.86ZM4.61309 3.5H8.79331C11.2066 3.5 12.4866 4.78001 12.4866 7.19333L12.4864 9.77333C13.6198 9.49333 14.1531 8.66 14.1531 7.19333V4.52667C14.1531 2.66667 13.3197 1.83333 11.4597 1.83333H7.19311C5.72641 1.83333 4.89975 2.36667 4.61309 3.5Z" fill="currentColor"/>
</g>
<defs>
<clipPath id="clip0_2_5028">
<rect width="16" height="16" fill="currentColor"/>
</clipPath>
</defs>
</svg>
