<svg width="16" height="16" viewBox="0 0 16 16" fill="none" xmlns="http://www.w3.org/2000/svg">
<path d="M10.6665 14.8799C10.4399 14.8799 10.2199 14.8133 10.0265 14.6867L7.18652 12.7933H5.9265C5.77317 12.7933 5.62648 12.72 5.53315 12.6C5.43982 12.4733 5.4065 12.3133 5.4465 12.1666C5.4865 12.0066 5.5065 11.8466 5.5065 11.6733C5.5065 11.1399 5.3065 10.6267 4.9465 10.2267C4.53984 9.76667 3.95984 9.5066 3.33984 9.5066C2.7465 9.5066 2.19982 9.73993 1.78649 10.1599C1.65982 10.2933 1.4665 10.3399 1.29316 10.2933C1.11983 10.2399 0.97983 10.0999 0.93983 9.91993C0.873163 9.6266 0.839837 9.3066 0.839837 8.95993V4.95996C0.839837 2.66663 2.37984 1.12663 4.67317 1.12663H11.3399C13.6332 1.12663 15.1732 2.66663 15.1732 4.95996V8.95993C15.1732 10.0733 14.8065 11.0333 14.1065 11.7333C13.5199 12.3199 12.7399 12.6733 11.8399 12.7667V13.7133C11.8399 14.1466 11.5998 14.5399 11.2198 14.7466C11.0398 14.8333 10.8532 14.8799 10.6665 14.8799ZM6.49983 11.7866H7.33319C7.43319 11.7866 7.52652 11.8133 7.61319 11.8733L10.5799 13.8533C10.6532 13.9 10.7132 13.8799 10.7465 13.8599C10.7799 13.8399 10.8399 13.7999 10.8399 13.7066V12.2866C10.8399 12.0133 11.0665 11.7866 11.3399 11.7866C12.1865 11.7866 12.8999 11.52 13.3999 11.02C13.9065 10.5133 14.1732 9.79993 14.1732 8.95327V4.95329C14.1732 3.23329 13.0599 2.11995 11.3399 2.11995H4.67317C2.95317 2.11995 1.83984 3.23329 1.83984 4.95329V8.87327C2.29317 8.6266 2.8065 8.49993 3.33984 8.49993C4.2465 8.49993 5.1065 8.88667 5.69316 9.55333C6.21316 10.1333 6.5065 10.8799 6.5065 11.6666C6.49984 11.7066 6.49983 11.7466 6.49983 11.7866Z" fill="currentColor"/>
<path d="M3.33332 14.8333C2.22666 14.8333 1.18666 14.2467 0.626658 13.2933C0.326658 12.8133 0.166656 12.2467 0.166656 11.6667C0.166656 10.6933 0.599989 9.79333 1.35332 9.19333C1.91332 8.74667 2.61999 8.5 3.33332 8.5C5.07999 8.5 6.49999 9.92 6.49999 11.6667C6.49999 12.2467 6.33999 12.8133 6.03999 13.3C5.87332 13.58 5.65998 13.8333 5.40665 14.0467C4.85332 14.5533 4.11332 14.8333 3.33332 14.8333ZM3.33332 9.5C2.83999 9.5 2.37332 9.66667 1.97999 9.98C1.46666 10.3867 1.16666 11.0067 1.16666 11.6667C1.16666 12.06 1.27332 12.4467 1.47999 12.78C1.86666 13.4333 2.57999 13.8333 3.33332 13.8333C3.85999 13.8333 4.36666 13.64 4.75332 13.2933C4.92666 13.1467 5.07332 12.9733 5.17998 12.7867C5.39332 12.4467 5.49999 12.06 5.49999 11.6667C5.49999 10.4733 4.52666 9.5 3.33332 9.5Z" fill="currentColor"/>
<path d="M2.95259 12.8267C2.82592 12.8267 2.69926 12.7801 2.59926 12.6801L1.93926 12.0201C1.74593 11.8267 1.74593 11.5067 1.93926 11.3133C2.1326 11.12 2.45259 11.12 2.64592 11.3133L2.96593 11.6334L4.03258 10.6467C4.23258 10.46 4.55258 10.4734 4.73925 10.6734C4.92592 10.8734 4.9126 11.1934 4.7126 11.3801L3.2926 12.6933C3.19259 12.78 3.07259 12.8267 2.95259 12.8267Z" fill="currentColor"/>
<path d="M10.3333 7.5H5.66666C5.39332 7.5 5.16666 7.27333 5.16666 7C5.16666 6.72667 5.39332 6.5 5.66666 6.5H10.3333C10.6067 6.5 10.8333 6.72667 10.8333 7C10.8333 7.27333 10.6067 7.5 10.3333 7.5Z" fill="currentColor"/>
</svg>
