<svg width="16" height="16" viewBox="0 0 16 16" fill="none" xmlns="http://www.w3.org/2000/svg">
<g clip-path="url(#clip0_2_5024)">
<path d="M11.2667 12.6732C11.06 12.6732 10.8533 12.6131 10.6733 12.4931L10.0333 12.0731C9.85334 11.9531 9.76668 11.7265 9.82668 11.5199C9.87334 11.3665 9.89334 11.1865 9.89334 10.9865V8.27313C9.89334 7.18647 9.21334 6.50651 8.12668 6.50651H3.6C3.52 6.50651 3.44668 6.51319 3.37334 6.51986C3.23334 6.52653 3.10002 6.47985 2.99335 6.38651C2.88668 6.29318 2.83334 6.15986 2.83334 6.01986V4.17318C2.83334 2.21318 4.20668 0.839848 6.16668 0.839848H11.8333C13.7933 0.839848 15.1667 2.21318 15.1667 4.17318V7.57313C15.1667 8.5398 14.84 9.39313 14.24 9.9798C13.76 10.4665 13.0933 10.7799 12.3333 10.8732V11.6131C12.3333 12.0131 12.1133 12.3732 11.7667 12.5599C11.6067 12.6332 11.4333 12.6732 11.2667 12.6732ZM10.8667 11.4199L11.3 11.6665C11.34 11.6465 11.34 11.6131 11.34 11.6065V10.3998C11.34 10.1265 11.5667 9.8998 11.84 9.8998C12.54 9.8998 13.1333 9.67987 13.54 9.26653C13.96 8.8532 14.1733 8.26647 14.1733 7.56647V4.16651C14.1733 2.74651 13.26 1.83317 11.84 1.83317H6.17334C4.75334 1.83317 3.84 2.74651 3.84 4.16651V5.49984H8.13334C9.76001 5.49984 10.9 6.63985 10.9 8.26653V10.9798C10.8933 11.1331 10.8867 11.2799 10.8667 11.4199Z" fill="currentColor"/>
<path d="M4.04668 15.1667C3.90002 15.1667 3.74668 15.1333 3.60668 15.06C3.29334 14.8933 3.1 14.5733 3.1 14.2133V13.7067C2.51334 13.6133 1.99334 13.3667 1.60668 12.98C1.10001 12.4733 0.833344 11.78 0.833344 10.98V8.26667C0.833344 6.76 1.82 5.65335 3.28667 5.51335C3.39334 5.50668 3.49334 5.5 3.6 5.5H8.12668C9.75334 5.5 10.8933 6.64001 10.8933 8.26667V10.98C10.8933 11.2733 10.86 11.5467 10.7867 11.7933C10.4867 12.9933 9.46668 13.7467 8.12668 13.7467H6.46668L4.58001 15C4.42001 15.1133 4.23335 15.1667 4.04668 15.1667ZM3.6 6.5C3.52 6.5 3.44668 6.50668 3.37334 6.51335C2.41334 6.60001 1.83334 7.26 1.83334 8.26667V10.98C1.83334 11.5133 2.00001 11.96 2.31334 12.2733C2.62001 12.58 3.06667 12.7467 3.6 12.7467C3.87334 12.7467 4.1 12.9733 4.1 13.2467V14.12L6.03334 12.8333C6.11334 12.78 6.21334 12.7467 6.31334 12.7467H8.12668C9.00668 12.7467 9.62668 12.3067 9.82001 11.5333C9.86668 11.3667 9.89334 11.18 9.89334 10.98V8.26667C9.89334 7.18 9.21334 6.5 8.12668 6.5H3.6Z" fill="currentColor"/>
</g>
<defs>
<clipPath id="clip0_2_5024">
<rect width="16" height="16" fill="currentColor"/>
</clipPath>
</defs>
</svg>
