<svg width="16" height="16" viewBox="0 0 16 16" fill="none" xmlns="http://www.w3.org/2000/svg">
<g clip-path="url(#clip0_2_5076)">
<path d="M7.99914 12.8999C7.65248 12.8999 7.32588 12.7265 7.09254 12.4199L6.48585 11.6132H6.31918C4.51252 11.6132 3.31251 11.0999 3.31251 8.60653V6.51316C3.31251 4.72649 4.22584 3.66651 5.88584 3.52651C6.0125 3.51317 6.16585 3.50651 6.31918 3.50651H9.67254C11.6125 3.50651 12.6791 4.57316 12.6791 6.51316V8.60653C12.6791 8.76653 12.6725 8.9132 12.6525 9.05987C12.5125 10.6999 11.4525 11.6132 9.66581 11.6132H9.49914L8.89248 12.4199C8.67248 12.7265 8.34581 12.8999 7.99914 12.8999ZM6.32584 4.49984C6.2125 4.49984 6.09917 4.5065 5.9925 4.51983C4.82584 4.61983 4.31251 5.23316 4.31251 6.51316V8.60653C4.31251 10.3265 4.81252 10.6132 6.31918 10.6132H6.52585C6.79254 10.6132 7.09254 10.7598 7.25921 10.9731L7.89248 11.8199C7.93248 11.8732 7.97248 11.8999 7.99248 11.8999C8.01248 11.8999 8.05254 11.8732 8.09254 11.8199L8.71914 10.9799C8.89248 10.7465 9.16581 10.6132 9.45248 10.6132H9.65914C10.9391 10.6132 11.5525 10.0998 11.6525 8.95313C11.6659 8.82647 11.6725 8.7198 11.6725 8.5998V6.50651C11.6725 5.11985 11.0525 4.49984 9.66581 4.49984H6.32584Z" fill="currentColor"/>
<path d="M10 15.1667H6.00001C2.38001 15.1667 0.833344 13.62 0.833344 10V6C0.833344 2.38 2.38001 0.833334 6.00001 0.833334H10C13.62 0.833334 15.1667 2.38 15.1667 6V10C15.1667 13.62 13.62 15.1667 10 15.1667ZM6.00001 1.83333C2.92668 1.83333 1.83334 2.92667 1.83334 6V10C1.83334 13.0733 2.92668 14.1667 6.00001 14.1667H10C13.0733 14.1667 14.1667 13.0733 14.1667 10V6C14.1667 2.92667 13.0733 1.83333 10 1.83333H6.00001Z" fill="currentColor"/>
</g>
<defs>
<clipPath id="clip0_2_5076">
<rect width="16" height="16" fill="currentColor"/>
</clipPath>
</defs>
</svg>
