<svg width="16" height="16" viewBox="0 0 16 16" fill="none" xmlns="http://www.w3.org/2000/svg">
<g clip-path="url(#clip0_2_5072)">
<path d="M7.99998 15.2067C7.53998 15.2067 7.10665 14.9733 6.79998 14.5667L5.79998 13.2333C5.77998 13.2067 5.69998 13.1733 5.66665 13.1667H5.33331C2.55331 13.1667 0.833313 12.4133 0.833313 8.66667V5.33334C0.833313 2.38667 2.38665 0.833336 5.33331 0.833336H10.6666C13.6133 0.833336 15.1666 2.38667 15.1666 5.33334V8.66667C15.1666 11.6133 13.6133 13.1667 10.6666 13.1667H10.3333C10.28 13.1667 10.2333 13.1933 10.2 13.2333L9.19998 14.5667C8.89331 14.9733 8.45998 15.2067 7.99998 15.2067ZM5.33331 1.83334C2.94665 1.83334 1.83331 2.94667 1.83331 5.33334V8.66667C1.83331 11.68 2.86665 12.1667 5.33331 12.1667H5.66665C6.00665 12.1667 6.39331 12.36 6.59998 12.6333L7.59998 13.9667C7.83331 14.2733 8.16665 14.2733 8.39998 13.9667L9.39998 12.6333C9.61998 12.34 9.96665 12.1667 10.3333 12.1667H10.6666C13.0533 12.1667 14.1666 11.0533 14.1666 8.66667V5.33334C14.1666 2.94667 13.0533 1.83334 10.6666 1.83334H5.33331Z" fill="currentColor"/>
<path d="M7.99998 8C7.62665 8 7.33331 7.7 7.33331 7.33334C7.33331 6.96667 7.63331 6.66667 7.99998 6.66667C8.36665 6.66667 8.66665 6.96667 8.66665 7.33334C8.66665 7.7 8.37331 8 7.99998 8Z" fill="currentColor"/>
<path d="M10.6666 8C10.2933 8 9.99998 7.7 9.99998 7.33334C9.99998 6.96667 10.3 6.66667 10.6666 6.66667C11.0333 6.66667 11.3333 6.96667 11.3333 7.33334C11.3333 7.7 11.04 8 10.6666 8Z" fill="currentColor"/>
<path d="M5.33331 8C4.95998 8 4.66665 7.7 4.66665 7.33334C4.66665 6.96667 4.96665 6.66667 5.33331 6.66667C5.69998 6.66667 5.99998 6.96667 5.99998 7.33334C5.99998 7.7 5.70665 8 5.33331 8Z" fill="currentColor"/>
</g>
<defs>
<clipPath id="clip0_2_5072">
<rect width="16" height="16" fill="currentColor"/>
</clipPath>
</defs>
</svg>
