<svg width="16" height="16" viewBox="0 0 16 16" fill="none" xmlns="http://www.w3.org/2000/svg">
<g clip-path="url(#clip0_2_4785)">
<path d="M10.6666 15.1667H1.99998C1.35998 15.1667 0.833313 14.64 0.833313 14V5.33333C0.833313 2.38667 2.38665 0.833334 5.33331 0.833334H10.6666C13.6133 0.833334 15.1666 2.38667 15.1666 5.33333V10.6667C15.1666 13.6133 13.6133 15.1667 10.6666 15.1667ZM5.33331 1.83333C2.94665 1.83333 1.83331 2.94667 1.83331 5.33333V14C1.83331 14.0933 1.90665 14.1667 1.99998 14.1667H10.6666C13.0533 14.1667 14.1666 13.0533 14.1666 10.6667V5.33333C14.1666 2.94667 13.0533 1.83333 10.6666 1.83333H5.33331Z" fill="currentColor"/>
<path d="M10.3333 8.5H5.66665C5.39331 8.5 5.16665 8.27333 5.16665 8C5.16665 7.72667 5.39331 7.5 5.66665 7.5H10.3333C10.6066 7.5 10.8333 7.72667 10.8333 8C10.8333 8.27333 10.6066 8.5 10.3333 8.5Z" fill="currentColor"/>
</g>
<defs>
<clipPath id="clip0_2_4785">
<rect width="16" height="16" fill="currentColor"/>
</clipPath>
</defs>
</svg>
