<svg width="16" height="16" viewBox="0 0 16 16" fill="none" xmlns="http://www.w3.org/2000/svg">
<g clip-path="url(#clip0_2_5311)">
<path d="M7.99998 15.1865C7.53998 15.1865 7.10665 14.9532 6.79998 14.5465L5.79999 13.2132C5.77999 13.1865 5.69998 13.1531 5.66665 13.1465H5.33331C2.55331 13.1465 0.833313 12.3931 0.833313 8.64647V5.31315C0.833313 2.36649 2.38665 0.813154 5.33331 0.813154H10.6666C13.6133 0.813154 15.1666 2.36649 15.1666 5.31315V8.64647C15.1666 11.5931 13.6133 13.1465 10.6666 13.1465H10.3333C10.28 13.1465 10.2333 13.1732 10.2 13.2132L9.19998 14.5465C8.89331 14.9532 8.45998 15.1865 7.99998 15.1865ZM5.33331 1.81315C2.94665 1.81315 1.83331 2.92649 1.83331 5.31315V8.64647C1.83331 11.6598 2.86665 12.1465 5.33331 12.1465H5.66665C6.00665 12.1465 6.39331 12.3398 6.59997 12.6131L7.59998 13.9465C7.83331 14.2531 8.16665 14.2531 8.39998 13.9465L9.39998 12.6131C9.61998 12.3198 9.96665 12.1465 10.3333 12.1465H10.6666C13.0533 12.1465 14.1666 11.0331 14.1666 8.64647V5.31315C14.1666 2.92649 13.0533 1.81315 10.6666 1.81315H5.33331Z" fill="currentColor"/>
<path d="M5.33295 8.96647C5.20628 8.96647 5.07961 8.91973 4.97961 8.81973L3.64628 7.4864C3.45295 7.29307 3.45295 6.97307 3.64628 6.77973L4.97961 5.44643C5.17295 5.2531 5.49295 5.2531 5.68628 5.44643C5.87961 5.63977 5.87961 5.95977 5.68628 6.1531L4.70628 7.13313L5.68628 8.11307C5.87961 8.3064 5.87961 8.6264 5.68628 8.81973C5.58628 8.91973 5.45961 8.96647 5.33295 8.96647Z" fill="currentColor"/>
<path d="M10.6663 8.96647C10.5396 8.96647 10.413 8.91973 10.313 8.81973C10.1196 8.6264 10.1196 8.3064 10.313 8.11307L11.293 7.13313L10.313 6.1531C10.1196 5.95977 10.1196 5.63977 10.313 5.44643C10.5063 5.2531 10.8263 5.2531 11.0196 5.44643L12.353 6.77973C12.5463 6.97307 12.5463 7.29307 12.353 7.4864L11.0196 8.81973C10.9196 8.91973 10.793 8.96647 10.6663 8.96647Z" fill="currentColor"/>
<path d="M7.33358 9.18653C7.26691 9.18653 7.20025 9.17313 7.13358 9.14647C6.88025 9.0398 6.76025 8.74647 6.87358 8.48647L8.20691 5.37317C8.31358 5.11983 8.60685 4.99982 8.86685 5.11315C9.12018 5.21982 9.24025 5.51315 9.12691 5.77315L7.79358 8.88653C7.71358 9.0732 7.52691 9.18653 7.33358 9.18653Z" fill="currentColor"/>
</g>
<defs>
<clipPath id="clip0_2_5311">
<rect width="16" height="16" fill="currentColor"/>
</clipPath>
</defs>
</svg>
