<svg width="16" height="16" viewBox="0 0 16 16" fill="none" xmlns="http://www.w3.org/2000/svg">
<g clip-path="url(#clip0_2_4791)">
<path d="M7.99998 12.2067C7.68665 12.2067 7.38665 12.0467 7.17998 11.7733L6.69998 11.1333H6.59997C5.25331 11.1333 3.99998 10.82 3.99998 8.53334V6.78C3.99998 5.24003 4.79331 4.32668 6.22665 4.20002C6.33331 4.18668 6.45997 4.18002 6.59997 4.18002H9.39998C11.0733 4.18002 12 5.10003 12 6.78V8.53334C12 8.66667 11.9933 8.8 11.98 8.92C11.86 10.3333 10.9466 11.1267 9.40665 11.1267H9.30665L8.82665 11.7667C8.61331 12.0533 8.31331 12.2067 7.99998 12.2067ZM6.59997 5.19336C6.50664 5.19336 6.41998 5.19336 6.33331 5.20669C5.39331 5.28669 4.99998 5.76002 4.99998 6.79334V8.54667C4.99998 9.92667 5.37997 10.1467 6.59997 10.1467H6.77331C7.02665 10.1467 7.29998 10.28 7.45331 10.48L7.97998 11.1867L8.54665 10.4867C8.70665 10.2733 8.95998 10.1467 9.22665 10.1467H9.39998C10.4333 10.1467 10.9 9.75333 10.98 8.83334C10.9933 8.72667 10.9933 8.64 10.9933 8.54667V6.79334C10.9933 5.67336 10.5133 5.19336 9.39331 5.19336H6.59997Z" fill="currentColor"/>
<path d="M7.99998 15.1667C4.04665 15.1667 0.833313 11.9533 0.833313 8C0.833313 4.04667 4.04665 0.833336 7.99998 0.833336C11.9533 0.833336 15.1666 4.04667 15.1666 8C15.1666 11.9533 11.9533 15.1667 7.99998 15.1667ZM7.99998 1.83334C4.59998 1.83334 1.83331 4.6 1.83331 8C1.83331 11.4 4.59998 14.1667 7.99998 14.1667C11.4 14.1667 14.1666 11.4 14.1666 8C14.1666 4.6 11.4 1.83334 7.99998 1.83334Z" fill="currentColor"/>
</g>
<defs>
<clipPath id="clip0_2_4791">
<rect width="16" height="16" fill="currentColor"/>
</clipPath>
</defs>
</svg>
