<svg width="16" height="16" viewBox="0 0 16 16" fill="none" xmlns="http://www.w3.org/2000/svg">
<g clip-path="url(#clip0_2_5284)">
<path d="M11.9134 14.5799C11.7067 14.5799 11.5001 14.5265 11.3134 14.4132L8.64006 12.8265C8.36006 12.8198 8.08006 12.7999 7.8134 12.7599C7.6334 12.7332 7.48006 12.6131 7.4134 12.4398C7.34673 12.2665 7.38006 12.0798 7.50006 11.9398C7.94006 11.4265 8.16673 10.8131 8.16673 10.1598C8.16673 8.54647 6.74673 7.23313 5.00005 7.23313C4.34672 7.23313 3.72004 7.4132 3.19338 7.75987C3.04671 7.8532 2.86671 7.86653 2.70671 7.7932C2.55338 7.71987 2.44005 7.57313 2.42005 7.3998C2.40005 7.21313 2.38672 7.02653 2.38672 6.8332C2.38672 3.52651 5.25338 0.839848 8.7734 0.839848C12.2934 0.839848 15.1601 3.52651 15.1601 6.8332C15.1601 8.64653 14.3201 10.3131 12.8401 11.4531L13.0667 13.2665C13.1201 13.7199 12.9201 14.1465 12.5401 14.3932C12.3534 14.5132 12.1334 14.5799 11.9134 14.5799ZM8.76673 11.8198C8.86006 11.8131 8.9534 11.8399 9.0334 11.8932L11.8267 13.5532C11.9001 13.5999 11.9601 13.5799 12.0001 13.5532C12.0334 13.5332 12.0867 13.4799 12.0734 13.3865L11.8134 11.2798C11.7934 11.0931 11.8734 10.9132 12.0201 10.8065C13.3801 9.8532 14.1601 8.3998 14.1601 6.8198C14.1601 4.06649 11.7467 1.8265 8.7734 1.8265C5.91338 1.8265 3.56671 3.90653 3.39338 6.51986C3.89338 6.32653 4.43338 6.21985 4.99338 6.21985C7.2934 6.21985 9.16006 7.9798 9.16006 10.1465C9.16673 10.7331 9.02673 11.2998 8.76673 11.8198Z" fill="currentColor"/>
<path d="M3.05318 15.1665C2.87984 15.1665 2.71318 15.1199 2.55984 15.0199C2.25984 14.8265 2.09985 14.4932 2.13985 14.1399L2.27318 13.1132C1.37318 12.3799 0.839844 11.2932 0.839844 10.1532C0.839844 8.8532 1.51985 7.63987 2.65985 6.9132C3.34652 6.46654 4.15984 6.22656 5.00651 6.22656C7.30653 6.22656 9.1732 7.98653 9.1732 10.1532C9.1732 11.0332 8.8532 11.8999 8.26653 12.5865C7.5132 13.4999 6.38651 14.0332 5.14651 14.0732L3.51984 15.0399C3.37318 15.1265 3.21318 15.1665 3.05318 15.1665ZM4.99984 7.22653C4.34651 7.22653 3.71984 7.40653 3.19317 7.7532C2.33984 8.29987 1.83318 9.1932 1.83318 10.1532C1.83318 11.0799 2.28652 11.9265 3.08652 12.4732C3.23985 12.5799 3.31984 12.7599 3.29984 12.9465L3.15318 14.0865L4.74651 13.1399C4.82651 13.0932 4.91318 13.0665 4.99984 13.0665C5.97984 13.0665 6.90653 12.6465 7.4932 11.9332C7.9332 11.4132 8.16653 10.7999 8.16653 10.1465C8.16653 8.53987 6.74653 7.22653 4.99984 7.22653Z" fill="currentColor"/>
</g>
<defs>
<clipPath id="clip0_2_5284">
<rect width="16" height="16" fill="currentColor"/>
</clipPath>
</defs>
</svg>
