<svg width="16" height="16" viewBox="0 0 16 16" fill="none" xmlns="http://www.w3.org/2000/svg">
<g clip-path="url(#clip0_2_4790)">
<path d="M10.6666 15.1667H1.99998C1.35998 15.1667 0.833313 14.64 0.833313 14V5.33334C0.833313 2.38667 2.38665 0.833336 5.33331 0.833336H10.6666C13.6133 0.833336 15.1666 2.38667 15.1666 5.33334V10.6667C15.1666 13.6133 13.6133 15.1667 10.6666 15.1667ZM5.33331 1.83334C2.94665 1.83334 1.83331 2.94667 1.83331 5.33334V14C1.83331 14.0933 1.90665 14.1667 1.99998 14.1667H10.6666C13.0533 14.1667 14.1666 13.0533 14.1666 10.6667V5.33334C14.1666 2.94667 13.0533 1.83334 10.6666 1.83334H5.33331Z" fill="currentColor"/>
<path d="M5.29981 11.8332C4.98648 11.8332 4.69981 11.7199 4.48648 11.5132C4.23315 11.2599 4.11979 10.8999 4.17979 10.5132L4.36646 9.1932C4.40646 8.90654 4.58647 8.53987 4.79314 8.3332L8.25311 4.87321C9.43978 3.68654 10.4731 4.21988 11.1264 4.87321C11.6398 5.38654 11.8731 5.92654 11.8198 6.46654C11.7798 6.90654 11.5464 7.31987 11.1264 7.74654L7.66645 11.2065C7.45978 11.4132 7.09978 11.5932 6.80645 11.6399L5.48648 11.8265C5.42648 11.8265 5.35981 11.8332 5.29981 11.8332ZM9.68645 5.16654C9.43978 5.16654 9.21978 5.32654 8.96645 5.57321L5.50647 9.0332C5.45314 9.08654 5.37314 9.2532 5.35981 9.32654L5.17314 10.6465C5.16647 10.7132 5.17313 10.7732 5.19979 10.7999C5.22646 10.8265 5.28647 10.8332 5.35313 10.8265L6.67311 10.6399C6.75311 10.6265 6.91311 10.5465 6.96645 10.4932L10.4264 7.0332C10.6798 6.77987 10.8131 6.55988 10.8331 6.35988C10.8531 6.13321 10.7198 5.86654 10.4264 5.57321C10.1331 5.29321 9.89978 5.16654 9.68645 5.16654Z" fill="currentColor"/>
<path d="M10.2795 8.38647C10.2328 8.38647 10.1862 8.3798 10.1462 8.36647C8.93951 8.02647 7.97285 7.06647 7.63285 5.85315C7.55951 5.58648 7.71285 5.31315 7.97951 5.23315C8.24618 5.15982 8.51951 5.31315 8.59285 5.57982C8.83951 6.45315 9.53951 7.15314 10.4128 7.3998C10.6795 7.47314 10.8328 7.75314 10.7595 8.0198C10.6995 8.2398 10.4995 8.38647 10.2795 8.38647Z" fill="currentColor"/>
</g>
<defs>
<clipPath id="clip0_2_4790">
<rect width="16" height="16" fill="currentColor"/>
</clipPath>
</defs>
</svg>
