<svg width="16" height="16" viewBox="0 0 16 16" fill="none" xmlns="http://www.w3.org/2000/svg">
<g clip-path="url(#clip0_2_4782)">
<path d="M4.84 12.5932C4.78667 12.5932 4.73334 12.5865 4.68001 12.5799C4.28001 12.5265 3.94001 12.2732 3.77334 11.9132L2.93334 10.0665C1.6 9.0798 0.833344 7.60653 0.833344 6.00651C0.833344 3.15985 3.30001 0.839848 6.33334 0.839848C8.47334 0.839848 10.4267 2.01317 11.3133 3.83317C11.6533 4.50651 11.8333 5.23985 11.8333 6.00651C11.8333 8.77987 9.49334 11.0532 6.57334 11.1665L5.73335 12.1799C5.50668 12.4399 5.18 12.5932 4.84 12.5932ZM6.33334 1.83317C3.85334 1.83317 1.83334 3.69984 1.83334 5.99984C1.83334 7.3132 2.48667 8.52647 3.62 9.32647C3.69334 9.3798 3.75334 9.44647 3.78667 9.52647L4.68001 11.4931C4.71334 11.5665 4.78001 11.5865 4.81334 11.5865C4.84668 11.5932 4.91334 11.5865 4.96001 11.5331L5.94668 10.3465C6.04001 10.2332 6.18001 10.1665 6.33334 10.1665C8.81334 10.1665 10.8333 8.29987 10.8333 5.99984C10.8333 5.39317 10.6933 4.81315 10.42 4.27315C9.70001 2.78649 8.09334 1.83317 6.33334 1.83317Z" fill="currentColor"/>
<path d="M11.1601 15.1667C10.8134 15.1667 10.4934 15.0134 10.2667 14.7467L9.42674 13.7401C7.81341 13.6734 6.2934 12.9334 5.32006 11.7334C5.16673 11.5467 5.1734 11.2801 5.32674 11.1001L5.94673 10.3534C6.04006 10.2401 6.18006 10.1734 6.3334 10.1734C8.81341 10.1734 10.8334 8.30673 10.8334 6.00675C10.8334 5.40008 10.6934 4.82006 10.4201 4.28006C10.3334 4.10673 10.3534 3.90007 10.4734 3.74673C10.5934 3.5934 10.7934 3.52672 10.9801 3.56672C13.4467 4.13339 15.1667 6.1934 15.1667 8.58007C15.1667 10.1801 14.4001 11.6534 13.0667 12.6401L12.2267 14.4867C12.0534 14.8601 11.7134 15.1134 11.3067 15.1601C11.2601 15.1667 11.2067 15.1667 11.1601 15.1667ZM6.3734 11.4001C7.20674 12.2467 8.40674 12.7401 9.66674 12.7401C9.81341 12.7401 9.95341 12.8067 10.0534 12.9201L11.0401 14.1067C11.0867 14.1667 11.1467 14.1734 11.1867 14.1667C11.2134 14.1667 11.2867 14.1467 11.3267 14.0667L12.2201 12.1001C12.2601 12.0201 12.3134 11.9467 12.3867 11.9001C13.5201 11.1001 14.1734 9.88673 14.1734 8.5734C14.1734 6.9734 13.1934 5.55343 11.7001 4.85343C11.7934 5.22676 11.8401 5.60674 11.8401 6.00007C11.8401 8.7734 9.50008 11.0467 6.58006 11.1601L6.3734 11.4001Z" fill="currentColor"/>
<path d="M8.00001 6.5H4.66668C4.39334 6.5 4.16668 6.27333 4.16668 6C4.16668 5.72667 4.39334 5.5 4.66668 5.5H8.00001C8.27334 5.5 8.50001 5.72667 8.50001 6C8.50001 6.27333 8.27334 6.5 8.00001 6.5Z" fill="currentColor"/>
</g>
<defs>
<clipPath id="clip0_2_4782">
<rect width="16" height="16" fill="currentColor"/>
</clipPath>
</defs>
</svg>
