<svg width="16" height="16" viewBox="0 0 16 16" fill="none" xmlns="http://www.w3.org/2000/svg">
<g clip-path="url(#clip0_2_4778)">
<path d="M10.6667 15.1667H2.00001C1.36001 15.1667 0.833344 14.64 0.833344 14V5.33333C0.833344 2.38667 2.38668 0.833334 5.33334 0.833334H10.6667C13.6133 0.833334 15.1667 2.38667 15.1667 5.33333V10.6667C15.1667 13.6133 13.6133 15.1667 10.6667 15.1667ZM5.33334 1.83333C2.94668 1.83333 1.83334 2.94667 1.83334 5.33333V14C1.83334 14.0933 1.90668 14.1667 2.00001 14.1667H10.6667C13.0533 14.1667 14.1667 13.0533 14.1667 10.6667V5.33333C14.1667 2.94667 13.0533 1.83333 10.6667 1.83333H5.33334Z" fill="currentColor"/>
<path d="M11.3333 6.83333H4.66668C4.39334 6.83333 4.16668 6.60667 4.16668 6.33333C4.16668 6.06 4.39334 5.83333 4.66668 5.83333H11.3333C11.6067 5.83333 11.8333 6.06 11.8333 6.33333C11.8333 6.60667 11.6067 6.83333 11.3333 6.83333Z" fill="currentColor"/>
<path d="M9.33334 10.1667H4.66668C4.39334 10.1667 4.16668 9.94 4.16668 9.66667C4.16668 9.39333 4.39334 9.16667 4.66668 9.16667H9.33334C9.60668 9.16667 9.83334 9.39333 9.83334 9.66667C9.83334 9.94 9.60668 10.1667 9.33334 10.1667Z" fill="currentColor"/>
</g>
<defs>
<clipPath id="clip0_2_4778">
<rect width="16" height="16" fill="currentColor"/>
</clipPath>
</defs>
</svg>
