<svg width="16" height="16" viewBox="0 0 16 16" fill="none" xmlns="http://www.w3.org/2000/svg">
<path d="M7.99999 10.8333C6.25333 10.8333 4.83333 9.41333 4.83333 7.66667V4C4.83333 2.25333 6.25333 0.833334 7.99999 0.833334C9.74666 0.833334 11.1667 2.25333 11.1667 4V7.66667C11.1667 9.41333 9.74666 10.8333 7.99999 10.8333ZM7.99999 1.83333C6.80666 1.83333 5.83333 2.80667 5.83333 4V7.66667C5.83333 8.86 6.80666 9.83333 7.99999 9.83333C9.19333 9.83333 10.1667 8.86 10.1667 7.66667V4C10.1667 2.80667 9.19333 1.83333 7.99999 1.83333Z" fill="currentColor"/>
<path d="M7.99973 13.1666C4.91307 13.1666 2.39973 10.6533 2.39973 7.5666V6.43327C2.39973 6.15993 2.6264 5.93327 2.89973 5.93327C3.17307 5.93327 3.39973 6.15993 3.39973 6.43327V7.5666C3.39973 10.0999 5.4664 12.1666 7.99973 12.1666C10.5331 12.1666 12.5997 10.0999 12.5997 7.5666V6.43327C12.5997 6.15993 12.8264 5.93327 13.0997 5.93327C13.3731 5.93327 13.5997 6.15993 13.5997 6.43327V7.5666C13.5997 10.6533 11.0864 13.1666 7.99973 13.1666Z" fill="currentColor"/>
<path d="M8.92659 4.78655C8.87326 4.78655 8.81326 4.77988 8.75326 4.75988C8.26659 4.57988 7.73326 4.57988 7.24659 4.75988C6.98659 4.85321 6.69993 4.71988 6.60658 4.45988C6.51325 4.19988 6.64658 3.91321 6.90659 3.81988C7.61326 3.56655 8.39326 3.56655 9.09993 3.81988C9.35993 3.91321 9.49326 4.19988 9.39993 4.45988C9.31993 4.65988 9.12659 4.78655 8.92659 4.78655Z" fill="currentColor"/>
<path d="M8.5334 6.19988C8.48673 6.19988 8.44673 6.19321 8.40006 6.17988C8.13339 6.10655 7.86006 6.10655 7.59339 6.17988C7.32673 6.25321 7.05339 6.09321 6.98006 5.82655C6.90673 5.56655 7.06673 5.29321 7.3334 5.21988C7.76673 5.09988 8.23339 5.09988 8.66673 5.21988C8.93339 5.29321 9.09339 5.56655 9.02006 5.83321C8.96006 6.05321 8.7534 6.19988 8.5334 6.19988Z" fill="currentColor"/>
<path d="M7.99999 15.1667C7.72666 15.1667 7.49999 14.94 7.49999 14.6667V12.6667C7.49999 12.3933 7.72639 12.1666 7.99973 12.1666C8.27306 12.1666 8.49999 12.3933 8.49999 12.6667V14.6667C8.49999 14.94 8.27333 15.1667 7.99999 15.1667Z" fill="currentColor"/>
</svg>
