<svg width="16" height="16" viewBox="0 0 16 16" fill="none" xmlns="http://www.w3.org/2000/svg">
<path d="M4.92667 11.7267C4.78667 11.7267 4.64 11.6667 4.54 11.5467C3.86667 10.74 3.5 9.72 3.5 8.66667V5.33333C3.5 2.85333 5.52 0.833334 8 0.833334C10.0667 0.833334 11.86 2.23333 12.3667 4.23333C12.4333 4.5 12.2733 4.77333 12.0067 4.84C11.7467 4.90667 11.4667 4.74667 11.4 4.48C11 2.92 9.60667 1.83333 8 1.83333C6.07334 1.83333 4.5 3.4 4.5 5.33333V8.66667C4.5 9.48667 4.78667 10.28 5.30667 10.9067C5.48667 11.12 5.45334 11.4333 5.24 11.6133C5.15334 11.6867 5.04 11.7267 4.92667 11.7267Z" fill="currentColor"/>
<path d="M7.99987 13.1667C7.45987 13.1667 6.9332 13.0733 6.4399 12.8867C6.17989 12.7933 6.04656 12.5 6.14656 12.2467C6.2399 11.9867 6.53323 11.8533 6.78654 11.9533C7.1732 12.1 7.58654 12.1733 7.99987 12.1733C9.92654 12.1733 11.4999 10.6067 11.4999 8.67333V6.65332C11.4999 6.37999 11.7265 6.15332 11.9999 6.15332C12.2732 6.15332 12.4999 6.37999 12.4999 6.65332V8.66667C12.4999 11.1467 10.4799 13.1667 7.99987 13.1667Z" fill="currentColor"/>
<path d="M7.9996 15.1668C6.34628 15.1668 4.77294 14.5468 3.56628 13.4201C3.36628 13.2335 3.35294 12.9135 3.53961 12.7135C3.72628 12.5135 4.04628 12.5001 4.24628 12.6868C5.26628 13.6401 6.59961 14.1601 7.99294 14.1601C11.0263 14.1601 13.4929 11.6935 13.4929 8.66013V7.3268C13.4929 7.05347 13.7196 6.8268 13.9929 6.8268C14.2663 6.8268 14.4929 7.05347 14.4929 7.3268V8.66013C14.4996 12.2535 11.5863 15.1668 7.9996 15.1668Z" fill="currentColor"/>
<path d="M1.6663 15.1601C1.53964 15.1601 1.41297 15.1135 1.31297 15.0135C1.11964 14.8201 1.11964 14.5001 1.31297 14.3068L13.9797 1.64012C14.173 1.44679 14.493 1.44679 14.6863 1.64012C14.8797 1.83345 14.8797 2.15345 14.6863 2.34679L2.01964 15.0135C1.91964 15.1135 1.79297 15.1601 1.6663 15.1601Z" fill="currentColor"/>
<path d="M7.70054 4.16651C7.4272 4.16651 7.20054 3.93985 7.20054 3.66651V1.50651C7.20054 1.23318 7.4272 1.00651 7.70054 1.00651C7.97387 1.00651 8.20054 1.23318 8.20054 1.50651V3.66651C8.20054 3.94651 7.97387 4.16651 7.70054 4.16651Z" fill="currentColor"/>
<path d="M5.66667 5.5C5.39334 5.5 5.16667 5.27333 5.16667 5V2.33333C5.16667 2.06 5.39334 1.83333 5.66667 1.83333C5.94 1.83333 6.16667 2.06 6.16667 2.33333V5C6.16667 5.27333 5.94 5.5 5.66667 5.5Z" fill="currentColor"/>
</svg>
