<svg width="16" height="16" viewBox="0 0 16 16" fill="none" xmlns="http://www.w3.org/2000/svg">
<path d="M10.0201 7.67993C9.86007 7.67993 9.70007 7.59993 9.60673 7.45993L7.4734 4.27329C7.40007 4.15996 7.3734 4.02663 7.40007 3.89996C7.42673 3.77329 7.50007 3.65329 7.6134 3.57995L11.3867 1.05328C11.6801 0.85328 12.0334 0.78662 12.3801 0.853286C12.7267 0.919953 13.0267 1.11995 13.2267 1.41329L14.4401 3.21995C14.8467 3.82661 14.6867 4.65329 14.0734 5.05995L10.3067 7.5866C10.2134 7.65327 10.1201 7.67993 10.0201 7.67993ZM8.58673 4.1333L10.1601 6.48663L13.5134 4.23995C13.6667 4.13995 13.7067 3.93329 13.6001 3.78662L12.3867 1.97996C12.3401 1.90663 12.2667 1.85996 12.1801 1.83996C12.0934 1.81996 12.0067 1.83995 11.9334 1.88661L8.58673 4.1333Z" fill="currentColor"/>
<path d="M6.62649 9.49333C6.46649 9.49333 6.30649 9.41333 6.21315 9.27333L4.50649 6.72667C4.35315 6.50001 4.41315 6.18667 4.64649 6.03334L7.83313 3.90002C7.94647 3.82669 8.0798 3.80001 8.20647 3.82667C8.3398 3.85334 8.45313 3.92668 8.52647 4.04001L10.2331 6.58669C10.3865 6.81333 10.3265 7.12667 10.0931 7.28L6.90647 9.41333C6.8198 9.46667 6.7198 9.49333 6.62649 9.49333ZM5.61315 6.58669L6.7598 8.3L9.11313 6.72667L7.96647 5.00669L5.61315 6.58669Z" fill="currentColor"/>
<path d="M3.52026 11.2133C3.14693 11.2133 2.77359 11.0333 2.54693 10.6933L1.79359 9.57333C1.62026 9.31333 1.56026 9.00667 1.62026 8.7C1.68026 8.39333 1.85359 8.13333 2.11359 7.96L4.74693 6.20001C4.97359 6.04667 5.28693 6.10669 5.44027 6.34002L6.9336 8.56667C7.08693 8.79333 7.02693 9.10667 6.7936 9.26L4.16026 11.02C3.96693 11.1467 3.74026 11.2133 3.52026 11.2133ZM4.88693 7.3L2.67359 8.78C2.60026 8.83333 2.57359 8.93333 2.62693 9.01333L3.38026 10.1333C3.43359 10.2067 3.53359 10.2333 3.61359 10.18L5.82693 8.7L4.88693 7.3Z" fill="currentColor"/>
<path d="M5.04013 15.1665C4.97346 15.1665 4.90013 15.1532 4.83347 15.1199C4.58013 15.0065 4.47346 14.7066 4.58679 14.4599L7.58013 7.9266C7.69347 7.67327 7.99347 7.56653 8.24013 7.67987C8.49347 7.7932 8.60013 8.09327 8.4868 8.33993L5.49346 14.8732C5.40679 15.0599 5.22679 15.1665 5.04013 15.1665Z" fill="currentColor"/>
<path d="M10.96 15.1667C10.7667 15.1667 10.5867 15.06 10.5067 14.8733L7.54667 8.34C7.43333 8.08667 7.54667 7.79333 7.79333 7.68C8.04 7.56667 8.34 7.68 8.45333 7.92667L11.4133 14.46C11.5267 14.7133 11.4133 15.0067 11.1667 15.12C11.1 15.1533 11.0333 15.1667 10.96 15.1667Z" fill="currentColor"/>
</svg>
