<svg width="16" height="16" viewBox="0 0 16 16" fill="none" xmlns="http://www.w3.org/2000/svg">
<path d="M5.33333 7.83333C5.06 7.83333 4.83333 7.60667 4.83333 7.33333V4C4.83333 2.25333 6.25333 0.833334 8 0.833334C9.74667 0.833334 11.1667 2.25333 11.1667 4V4.2C11.1667 4.47333 10.94 4.7 10.6667 4.7C10.3933 4.7 10.1667 4.47333 10.1667 4.2V4C10.1667 2.80667 9.19333 1.83333 8 1.83333C6.80667 1.83333 5.83333 2.80667 5.83333 4V7.33333C5.83333 7.60667 5.60667 7.83333 5.33333 7.83333Z" fill="currentColor"/>
<path d="M8.0004 10.8333C7.10707 10.8333 6.25376 10.4533 5.65376 9.79333C5.46709 9.58667 5.48709 9.27333 5.68709 9.08667C5.89376 8.9 6.20709 8.92 6.39376 9.12C6.8004 9.57333 7.38707 9.83333 8.0004 9.83333C9.19373 9.83333 10.1671 8.86 10.1671 7.66667V7.33333C10.1671 7.06 10.3937 6.83333 10.6671 6.83333C10.9404 6.83333 11.1671 7.06 11.1671 7.33333V7.66667C11.1671 9.41333 9.74707 10.8333 8.0004 10.8333Z" fill="currentColor"/>
<path d="M7.99953 13.1666C6.57955 13.1666 5.21955 12.6333 4.17955 11.6666C3.97955 11.4799 3.96622 11.1599 4.15289 10.9599C4.34622 10.7533 4.66622 10.7466 4.86622 10.9333C5.71955 11.7266 6.83287 12.1666 7.99953 12.1666C10.5329 12.1666 12.5995 10.0999 12.5995 7.5666V6.43327C12.5995 6.15993 12.8262 5.93327 13.0995 5.93327C13.3729 5.93327 13.5995 6.15993 13.5995 6.43327V7.5666C13.5995 10.6533 11.0862 13.1666 7.99953 13.1666Z" fill="currentColor"/>
<path d="M3.29974 10.0533C3.10641 10.0533 2.91974 9.93993 2.83974 9.7466C2.54641 9.05327 2.39974 8.3266 2.39974 7.5666V6.43327C2.39974 6.15993 2.62641 5.93327 2.89974 5.93327C3.17307 5.93327 3.39974 6.15993 3.39974 6.43327V7.5666C3.39974 8.1866 3.51974 8.7866 3.75974 9.35327C3.86641 9.6066 3.74641 9.89993 3.49307 10.0066C3.43307 10.0399 3.36641 10.0533 3.29974 10.0533Z" fill="currentColor"/>
<path d="M2.61291 13.1599C2.48625 13.1599 2.35959 13.1132 2.25959 13.0132C2.06625 12.8199 2.06625 12.4999 2.25959 12.3065L13.0263 1.53986C13.2196 1.34653 13.5396 1.34653 13.7329 1.53986C13.9263 1.73319 13.9263 2.05319 13.7329 2.24653L2.97291 13.0132C2.87291 13.1132 2.74625 13.1599 2.61291 13.1599Z" fill="currentColor"/>
<path d="M7.33333 4.5C7.06 4.5 6.83333 4.27333 6.83333 4V2C6.83333 1.72667 7.06 1.5 7.33333 1.5C7.60667 1.5 7.83333 1.72667 7.83333 2V4C7.83333 4.27333 7.60667 4.5 7.33333 4.5Z" fill="currentColor"/>
<path d="M8 15.1667C7.72667 15.1667 7.5 14.94 7.5 14.6667V12.6667C7.5 12.3933 7.7262 12.1666 7.99953 12.1666C8.27287 12.1666 8.5 12.3933 8.5 12.6667V14.6667C8.5 14.94 8.27333 15.1667 8 15.1667Z" fill="currentColor"/>
</svg>
