<svg width="16" height="16" viewBox="0 0 16 16" fill="none" xmlns="http://www.w3.org/2000/svg">
<path d="M8 13.1667C5.52 13.1667 3.5 11.1467 3.5 8.66667V5.33333C3.5 2.85333 5.52 0.833334 8 0.833334C10.48 0.833334 12.5 2.85333 12.5 5.33333V8.66667C12.5 11.1467 10.48 13.1667 8 13.1667ZM8 1.83333C6.07333 1.83333 4.5 3.4 4.5 5.33333V8.66667C4.5 10.6 6.07333 12.1667 8 12.1667C9.92667 12.1667 11.5 10.6 11.5 8.66667V5.33333C11.5 3.4 9.92667 1.83333 8 1.83333Z" fill="currentColor"/>
<path d="M8 15.1667C4.41333 15.1667 1.5 12.2533 1.5 8.66667V7.33333C1.5 7.06 1.72667 6.83333 2 6.83333C2.27333 6.83333 2.5 7.06 2.5 7.33333V8.66667C2.5 11.7 4.96667 14.1667 8 14.1667C11.0333 14.1667 13.5 11.7 13.5 8.66667V7.33333C13.5 7.06 13.7267 6.83333 14 6.83333C14.2733 6.83333 14.5 7.06 14.5 7.33333V8.66667C14.5 12.2533 11.5867 15.1667 8 15.1667Z" fill="currentColor"/>
<path d="M9.73993 5.48659C9.6866 5.48659 9.6266 5.47992 9.5666 5.45992C8.49327 5.07325 7.31327 5.07325 6.23992 5.45992C5.98659 5.55325 5.69992 5.41992 5.60659 5.15992C5.51325 4.89992 5.64659 4.61325 5.90659 4.51992C7.19993 4.05325 8.61993 4.05325 9.91327 4.51992C10.1733 4.61325 10.3066 4.89992 10.2133 5.15992C10.1399 5.36659 9.9466 5.48659 9.73993 5.48659Z" fill="currentColor"/>
<path d="M9.13327 7.48667C9.09327 7.48667 9.0466 7.48 8.99993 7.46667C8.2866 7.27333 7.53327 7.27333 6.81993 7.46667C6.54661 7.54 6.27995 7.38 6.20661 7.11333C6.13328 6.84667 6.29328 6.57332 6.55995 6.49999C7.4466 6.25999 8.37993 6.25999 9.2666 6.49999C9.53327 6.57332 9.69327 6.84667 9.61993 7.11333C9.55327 7.34667 9.35327 7.48667 9.13327 7.48667Z" fill="currentColor"/>
</svg>
