<svg width="16" height="16" viewBox="0 0 16 16" fill="none" xmlns="http://www.w3.org/2000/svg">
<path d="M10 15.1667H6C4.62 15.1667 3.5 14.0467 3.5 12.6667V9.32C3.5 9.18667 3.55331 9.06 3.64665 8.96667C3.73998 8.87333 3.86667 8.82 4 8.82L6.59334 8.83333C7.15333 8.83333 7.71333 8.96667 8.22 9.22C8.59333 9.40667 8.99333 9.5 9.41333 9.5H12C12.2733 9.5 12.5 9.72667 12.5 10V12.6667C12.5 14.0467 11.38 15.1667 10 15.1667ZM4.5 9.82V12.6667C4.5 13.4933 5.17333 14.1667 6 14.1667H10C10.8267 14.1667 11.5 13.4933 11.5 12.6667V10.5H9.41333C8.84 10.5 8.28667 10.3733 7.77333 10.1133C7.4 9.92667 7 9.83333 6.59334 9.83333L4.5 9.82Z" fill="currentColor"/>
<path d="M12 10.5H9.41333C8.84 10.5 8.28667 10.3733 7.77333 10.1133C7.4 9.92667 7 9.83333 6.59334 9.83333L4 9.82C3.72667 9.82 3.5 9.59333 3.5 9.32V7.22C3.5 6.78 3.72667 6.23333 4.04 5.92L5.45333 4.50666C5.47999 4.47999 5.5 4.43333 5.5 4.39333V3.33333C5.5 3.06 5.72667 2.83333 6 2.83333H10C10.2733 2.83333 10.5 3.06 10.5 3.33333V4.39333C10.5 4.43333 10.52 4.47999 10.5467 4.50666L11.96 5.92C12.2733 6.23333 12.5 6.78 12.5 7.22V10C12.5 10.2733 12.2733 10.5 12 10.5ZM4.5 8.82L6.59334 8.83333C7.15333 8.83333 7.71333 8.96667 8.22 9.22C8.59333 9.40667 8.99333 9.5 9.41333 9.5H11.5V7.22C11.5 7.04667 11.38 6.75333 11.2533 6.62667L9.84 5.21334C9.62667 5.00001 9.5 4.7 9.5 4.39333V3.83333H6.5V4.39333C6.5 4.7 6.37333 5.00001 6.15999 5.21334L4.74667 6.62667C4.62 6.75333 4.5 7.04667 4.5 7.22V8.82Z" fill="currentColor"/>
<path d="M12 11.1667C11.7267 11.1667 11.5 10.94 11.5 10.6667V10C11.5 9.72667 11.7267 9.5 12 9.5C12.2733 9.5 12.5 9.72667 12.5 10V10.6667C12.5 10.94 12.2733 11.1667 12 11.1667Z" fill="currentColor"/>
<path d="M4 10.4867C3.72667 10.4867 3.5 10.26 3.5 9.98667V9.32C3.5 9.04667 3.72667 8.82 4 8.82C4.27333 8.82 4.5 9.04667 4.5 9.32V9.98667C4.5 10.26 4.27333 10.4867 4 10.4867Z" fill="currentColor"/>
<path d="M9.66667 3.83333H6.33333C5.50667 3.83333 4.83333 3.16 4.83333 2.33333C4.83333 1.50667 5.50667 0.833334 6.33333 0.833334H9.66667C10.4933 0.833334 11.1667 1.50667 11.1667 2.33333C11.1667 3.16 10.4933 3.83333 9.66667 3.83333ZM6.33333 1.83333C6.06 1.83333 5.83333 2.06 5.83333 2.33333C5.83333 2.60667 6.06 2.83333 6.33333 2.83333H9.66667C9.94 2.83333 10.1667 2.60667 10.1667 2.33333C10.1667 2.06 9.94 1.83333 9.66667 1.83333H6.33333Z" fill="currentColor"/>
</svg>
