<svg width="16" height="16" viewBox="0 0 16 16" fill="none" xmlns="http://www.w3.org/2000/svg">
<g clip-path="url(#clip0_2_5339)">
<path d="M7.33333 15.1667H6C2.38 15.1667 0.833334 13.62 0.833334 10V6C0.833334 2.38 2.38 0.833334 6 0.833334H10C13.62 0.833334 15.1667 2.38 15.1667 6V6.66667C15.1667 6.94 14.94 7.16667 14.6667 7.16667C14.3933 7.16667 14.1667 6.94 14.1667 6.66667V6C14.1667 2.92667 13.0733 1.83333 10 1.83333H6C2.92667 1.83333 1.83333 2.92667 1.83333 6V10C1.83333 13.0733 2.92667 14.1667 6 14.1667H7.33333C7.60667 14.1667 7.83333 14.3933 7.83333 14.6667C7.83333 14.94 7.60667 15.1667 7.33333 15.1667Z" fill="currentColor"/>
<path d="M10.1801 15.1667C9.3734 15.1667 8.72007 14.5134 8.72007 13.7067C8.72007 12.9001 9.3734 12.2467 10.1801 12.2467C10.9867 12.2467 11.6401 12.9001 11.6401 13.7067C11.6401 14.5134 10.9867 15.1667 10.1801 15.1667ZM10.1801 13.2401C9.92673 13.2401 9.72007 13.4467 9.72007 13.7001C9.72007 13.9534 9.92673 14.1601 10.1801 14.1601C10.4334 14.1601 10.6401 13.9534 10.6401 13.7001C10.6401 13.4467 10.4334 13.2401 10.1801 13.2401Z" fill="currentColor"/>
<path d="M11.1406 14.2065C10.8673 14.2065 10.6406 13.9799 10.6406 13.7065V9.82653C10.6406 9.21987 11.0139 8.72653 11.6006 8.5732L13.5273 8.04653C14.1273 7.87987 14.5006 8.03987 14.7139 8.19987C14.9206 8.35987 15.1673 8.67987 15.1673 9.29987V13.0599C15.1673 13.3332 14.9406 13.5599 14.6673 13.5599C14.3939 13.5599 14.1673 13.3332 14.1673 13.0599V9.29987C14.1673 9.08653 14.1206 9.00653 14.1006 8.9932C14.0806 8.97987 13.9873 8.9532 13.7806 9.00653L11.8539 9.5332C11.6539 9.58653 11.6339 9.72653 11.6339 9.82653V13.7065C11.6406 13.9799 11.4139 14.2065 11.1406 14.2065Z" fill="currentColor"/>
<path d="M13.7074 14.5268C12.9007 14.5268 12.2474 13.8735 12.2474 13.0668C12.2474 12.2601 12.9007 11.6068 13.7074 11.6068C14.5141 11.6068 15.1674 12.2601 15.1674 13.0668C15.1674 13.8735 14.5141 14.5268 13.7074 14.5268ZM13.7074 12.6001C13.4541 12.6001 13.2474 12.8068 13.2474 13.0601C13.2474 13.3135 13.4541 13.5201 13.7074 13.5201C13.9607 13.5201 14.1673 13.3132 14.1673 13.0599C14.1673 12.8065 13.9607 12.6001 13.7074 12.6001Z" fill="currentColor"/>
<path d="M11.1397 11.4533C10.9197 11.4533 10.7197 11.3066 10.6597 11.0866C10.5864 10.8199 10.7464 10.5466 11.0131 10.4733L14.5397 9.51327C14.8064 9.43993 15.0797 9.59993 15.1531 9.8666C15.2264 10.1333 15.0664 10.4065 14.7997 10.4799L11.2731 11.4399C11.2264 11.4465 11.1797 11.4533 11.1397 11.4533Z" fill="currentColor"/>
</g>
<defs>
<clipPath id="clip0_2_5339">
<rect width="16" height="16" fill="currentColor"/>
</clipPath>
</defs>
</svg>
