<svg width="16" height="16" viewBox="0 0 16 16" fill="none" xmlns="http://www.w3.org/2000/svg">
<g clip-path="url(#clip0_2_4758)">
<path d="M7.9466 15.1667C3.99995 15.1667 0.779945 11.9533 0.779945 8C0.779945 4.04667 3.99995 0.833334 7.9466 0.833334C11.8933 0.833334 15.1133 4.04667 15.1133 8C15.1133 11.9533 11.8999 15.1667 7.9466 15.1667ZM7.9466 1.83333C4.54661 1.83333 1.77995 4.6 1.77995 8C1.77995 11.4 4.54661 14.1667 7.9466 14.1667C11.3466 14.1667 14.1133 11.4 14.1133 8C14.1133 4.6 11.3466 1.83333 7.9466 1.83333Z" fill="currentColor"/>
<path d="M10.6133 8.5H5.27995C5.00661 8.5 4.77995 8.27333 4.77995 8C4.77995 7.72667 5.00661 7.5 5.27995 7.5H10.6133C10.8866 7.5 11.1133 7.72667 11.1133 8C11.1133 8.27333 10.8933 8.5 10.6133 8.5Z" fill="currentColor"/>
</g>
<defs>
<clipPath id="clip0_2_4758">
<rect width="16" height="16" fill="currentColor"/>
</clipPath>
</defs>
</svg>
