<svg width="16" height="16" viewBox="0 0 16 16" fill="none" xmlns="http://www.w3.org/2000/svg">
<g clip-path="url(#clip0_2_4757)">
<path d="M10.6667 8.5H5.33333C5.05999 8.5 4.83333 8.27333 4.83333 8C4.83333 7.72667 5.05999 7.5 5.33333 7.5H10.6667C10.94 7.5 11.1667 7.72667 11.1667 8C11.1667 8.27333 10.94 8.5 10.6667 8.5Z" fill="currentColor"/>
<path d="M9.99999 15.1667H5.99999C2.37999 15.1667 0.833328 13.62 0.833328 10V6C0.833328 2.38 2.37999 0.833334 5.99999 0.833334H9.99999C13.62 0.833334 15.1667 2.38 15.1667 6V10C15.1667 13.62 13.62 15.1667 9.99999 15.1667ZM5.99999 1.83333C2.92666 1.83333 1.83333 2.92667 1.83333 6V10C1.83333 13.0733 2.92666 14.1667 5.99999 14.1667H9.99999C13.0733 14.1667 14.1667 13.0733 14.1667 10V6C14.1667 2.92667 13.0733 1.83333 9.99999 1.83333H5.99999Z" fill="currentColor"/>
</g>
<defs>
<clipPath id="clip0_2_4757">
<rect width="16" height="16" fill="currentColor"/>
</clipPath>
</defs>
</svg>
