<svg width="16" height="16" viewBox="0 0 16 16" fill="none" xmlns="http://www.w3.org/2000/svg">
<path d="M8.00001 12.5C4.78001 12.5 2.16667 9.88 2.16667 6.66667C2.16667 3.45333 4.78001 0.833334 8.00001 0.833334C11.22 0.833334 13.8333 3.45333 13.8333 6.66667C13.8333 9.88 11.22 12.5 8.00001 12.5ZM8.00001 1.83333C5.33334 1.83333 3.16667 4 3.16667 6.66667C3.16667 9.33333 5.33334 11.5 8.00001 11.5C10.6667 11.5 12.8333 9.33333 12.8333 6.66667C12.8333 4 10.6667 1.83333 8.00001 1.83333Z" fill="currentColor"/>
<path d="M12 15.1667H4.00001C3.72667 15.1667 3.50001 14.94 3.50001 14.6667C3.50001 14.3933 3.72667 14.1667 4.00001 14.1667H12C12.2733 14.1667 12.5 14.3933 12.5 14.6667C12.5 14.94 12.2733 15.1667 12 15.1667Z" fill="currentColor"/>
</svg>
