<svg width="16" height="16" viewBox="0 0 16 16" fill="none" xmlns="http://www.w3.org/2000/svg">
<path d="M11.3333 14.5H10.6667C10.3933 14.5 10.1667 14.2733 10.1667 14C10.1667 13.7267 10.3933 13.5 10.6667 13.5H11.3333C13.0533 13.5 14.1667 12.3867 14.1667 10.6667V5.33333C14.1667 3.61333 13.0533 2.5 11.3333 2.5H4.66667C2.94667 2.5 1.83334 3.61333 1.83334 5.33333V6C1.83334 6.27333 1.60667 6.5 1.33334 6.5C1.06 6.5 0.833336 6.27333 0.833336 6V5.33333C0.833336 3.04 2.37334 1.5 4.66667 1.5H11.3333C13.6267 1.5 15.1667 3.04 15.1667 5.33333V10.6667C15.1667 12.96 13.6267 14.5 11.3333 14.5Z" fill="currentColor"/>
<path d="M8.19347 14.04C7.9468 14.04 7.73347 13.8533 7.70014 13.6067C7.33347 10.7533 5.25345 8.66667 2.39345 8.3C2.12012 8.26667 1.92679 8.01327 1.96012 7.73993C1.99346 7.4666 2.24678 7.27333 2.52012 7.30667C5.84012 7.73333 8.2668 10.1533 8.6868 13.4733C8.72014 13.7467 8.5268 13.9999 8.25347 14.0333C8.24014 14.0399 8.21347 14.04 8.19347 14.04Z" fill="currentColor"/>
<path d="M5.95324 14.7534C5.70658 14.7534 5.49325 14.5667 5.45992 14.3201C5.19992 12.2867 3.71325 10.8 1.67992 10.54C1.40658 10.5067 1.21324 10.2534 1.24658 9.98007C1.27991 9.70673 1.53325 9.5134 1.80658 9.54673C4.30658 9.86673 6.12658 11.6934 6.44658 14.1867C6.47992 14.4601 6.28658 14.7133 6.01325 14.7467C5.99325 14.7533 5.97324 14.7534 5.95324 14.7534Z" fill="currentColor"/>
<path d="M3.42015 15.1799C3.17348 15.1799 2.96015 14.9933 2.92682 14.7466C2.81348 13.8466 2.15348 13.1866 1.25348 13.0733C0.98015 13.0399 0.78681 12.7866 0.820143 12.5133C0.853476 12.2399 1.10682 12.0466 1.38016 12.0799C2.72682 12.2533 3.74682 13.2733 3.92015 14.6199C3.95348 14.8933 3.76014 15.1466 3.48681 15.1799C3.46681 15.1799 3.44682 15.1799 3.42015 15.1799Z" fill="currentColor"/>
</svg>
