<svg width="16" height="16" viewBox="0 0 16 16" fill="none" xmlns="http://www.w3.org/2000/svg">
<path d="M8.9996 3.83349H6.98627C6.17296 3.83349 5.49963 3.17348 5.48629 2.36015L5.46629 1.34017C5.45963 1.06683 5.67961 0.833487 5.95295 0.82682C5.95961 0.82682 5.95963 0.82682 5.96629 0.82682C6.23963 0.82682 6.45963 1.04681 6.46629 1.31347L6.48629 2.33349C6.49296 2.60016 6.7196 2.82682 6.98627 2.82682H8.9996C9.2796 2.82682 9.4996 2.60015 9.4996 2.32682V1.33349C9.4996 1.06016 9.72627 0.833494 9.9996 0.833494C10.2729 0.833494 10.4996 1.06016 10.4996 1.33349V2.33349C10.4996 3.16016 9.82627 3.83349 8.9996 3.83349Z" fill="currentColor"/>
<path d="M11.333 14.5C11.2063 14.5 11.0797 14.4533 10.9797 14.3533L9.64633 13.02C9.453 12.8267 9.453 12.5066 9.64633 12.3133L10.9797 10.9799C11.173 10.7866 11.493 10.7866 11.6863 10.9799C11.8797 11.1733 11.8797 11.4933 11.6863 11.6867L10.7063 12.6667L11.6863 13.6466C11.8797 13.8399 11.8797 14.16 11.6863 14.3533C11.5863 14.4533 11.4597 14.5 11.333 14.5Z" fill="currentColor"/>
<path d="M13.333 14.5C13.2063 14.5 13.0797 14.4533 12.9797 14.3533C12.7863 14.16 12.7863 13.8399 12.9797 13.6466L13.9597 12.6667L12.9797 11.6867C12.7863 11.4933 12.7863 11.1733 12.9797 10.9799C13.173 10.7866 13.493 10.7866 13.6863 10.9799L15.0197 12.3133C15.213 12.5066 15.213 12.8267 15.0197 13.02L13.6863 14.3533C13.5863 14.4533 13.4597 14.5 13.333 14.5Z" fill="currentColor"/>
<path d="M8.66667 15.1667H5.33333C2.9 15.1667 1.5 13.7667 1.5 11.3333V4.66667C1.5 2.23333 2.9 0.833334 5.33333 0.833334H10.6667C13.1 0.833334 14.5 2.23333 14.5 4.66667V9.33333C14.5 9.60667 14.2733 9.83333 14 9.83333C13.7267 9.83333 13.5 9.60667 13.5 9.33333V4.66667C13.5 2.76 12.5733 1.83333 10.6667 1.83333H5.33333C3.42667 1.83333 2.5 2.76 2.5 4.66667V11.3333C2.5 13.24 3.42667 14.1667 5.33333 14.1667H8.66667C8.94 14.1667 9.16667 14.3933 9.16667 14.6667C9.16667 14.94 8.94 15.1667 8.66667 15.1667Z" fill="currentColor"/>
</svg>
