<svg width="16" height="16" viewBox="0 0 16 16" fill="none" xmlns="http://www.w3.org/2000/svg">
<path d="M10 15.1667H6.00001C3.06001 15.1667 2.16667 14.2733 2.16667 11.3333V4.66667C2.16667 1.72667 3.06001 0.833334 6.00001 0.833334H10C12.94 0.833334 13.8333 1.72667 13.8333 4.66667V11.3333C13.8333 14.2733 12.94 15.1667 10 15.1667ZM6.00001 1.83333C3.61334 1.83333 3.16667 2.28667 3.16667 4.66667V11.3333C3.16667 13.7133 3.61334 14.1667 6.00001 14.1667H10C12.3867 14.1667 12.8333 13.7133 12.8333 11.3333V4.66667C12.8333 2.28667 12.3867 1.83333 10 1.83333H6.00001Z" fill="currentColor"/>
<path d="M9.33334 4.16667H6.66667C6.39334 4.16667 6.16667 3.94 6.16667 3.66667C6.16667 3.39333 6.39334 3.16667 6.66667 3.16667H9.33334C9.60667 3.16667 9.83334 3.39333 9.83334 3.66667C9.83334 3.94 9.60667 4.16667 9.33334 4.16667Z" fill="currentColor"/>
<path d="M8.00014 13.24C7.15347 13.24 6.46681 12.5533 6.46681 11.7067C6.46681 10.86 7.15347 10.1733 8.00014 10.1733C8.84681 10.1733 9.53347 10.86 9.53347 11.7067C9.53347 12.5533 8.84681 13.24 8.00014 13.24ZM8.00014 11.1667C7.70681 11.1667 7.46681 11.4067 7.46681 11.7C7.46681 11.9933 7.70681 12.2333 8.00014 12.2333C8.29347 12.2333 8.53347 11.9933 8.53347 11.7C8.53347 11.4067 8.29347 11.1667 8.00014 11.1667Z" fill="currentColor"/>
</svg>
