<svg width="16" height="16" viewBox="0 0 16 16" fill="none" xmlns="http://www.w3.org/2000/svg">
<path d="M9.92613 12.1465H4.06614C3.71947 12.1465 3.3928 12.1132 3.09947 12.0465C2.94613 12.0265 2.75947 11.9731 2.56614 11.8998C1.67947 11.5665 0.632812 10.7465 0.632812 8.70653V5.27315C0.632812 3.09315 1.88614 1.83985 4.06614 1.83985H9.92613C11.7661 1.83985 12.9528 2.71983 13.2728 4.31983C13.3328 4.61316 13.3595 4.92649 13.3595 5.27315V8.70653C13.3595 10.8999 12.1128 12.1465 9.92613 12.1465ZM4.07279 2.85319C2.43279 2.85319 1.63947 3.6465 1.63947 5.2865V8.71987C1.63947 9.9132 2.05947 10.6465 2.91947 10.9732C3.05281 11.0199 3.17948 11.0531 3.29948 11.0731C3.55281 11.1265 3.79946 11.1531 4.07279 11.1531H9.9328C11.5728 11.1531 12.3661 10.3599 12.3661 8.71987V5.2865C12.3661 5.0065 12.3461 4.75983 12.2995 4.53316C12.0728 3.39983 11.2995 2.85319 9.9328 2.85319H4.07279Z" fill="currentColor"/>
<path d="M11.9274 14.1465H6.06738C5.50071 14.1465 4.99404 14.0665 4.56071 13.8999C3.58071 13.5332 2.9407 12.7599 2.7207 11.6532C2.68737 11.4865 2.74071 11.3132 2.86071 11.1999C2.98071 11.0799 3.15405 11.0332 3.32071 11.0732C3.54071 11.1199 3.78738 11.1465 4.06738 11.1465H9.9274C11.5674 11.1465 12.3607 10.3533 12.3607 8.71327V5.27989C12.3607 4.99989 12.3407 4.75323 12.2941 4.52656C12.2607 4.35989 12.3141 4.19323 12.4274 4.07323C12.5474 3.95323 12.7141 3.89989 12.8807 3.93989C14.4807 4.26655 15.3607 5.45323 15.3607 7.27987V10.7133C15.3607 12.8999 14.1141 14.1465 11.9274 14.1465ZM3.94738 12.1465C4.16071 12.5332 4.48071 12.8066 4.92071 12.9666C5.24071 13.0866 5.62737 13.1465 6.07403 13.1465H11.9341C13.5741 13.1465 14.3673 12.3533 14.3673 10.7133V7.27987C14.3673 6.22656 14.0407 5.52657 13.3673 5.1599C13.3673 5.1999 13.3673 5.23989 13.3673 5.27989V8.71327C13.3673 10.8933 12.1141 12.1465 9.93407 12.1465H4.07403C4.02737 12.1465 3.98738 12.1465 3.94738 12.1465Z" fill="currentColor"/>
<path d="M6.9996 9.25993C5.75293 9.25993 4.73959 8.2466 4.73959 6.99993C4.73959 5.75325 5.75293 4.73991 6.9996 4.73991C8.24627 4.73991 9.2596 5.75325 9.2596 6.99993C9.2596 8.2466 8.24627 9.25993 6.9996 9.25993ZM6.9996 5.73991C6.30626 5.73991 5.73959 6.30659 5.73959 6.99993C5.73959 7.69327 6.30626 8.25993 6.9996 8.25993C7.69293 8.25993 8.2596 7.69327 8.2596 6.99993C8.2596 6.30659 7.69293 5.73991 6.9996 5.73991Z" fill="currentColor"/>
<path d="M3.1875 8.96653C2.91417 8.96653 2.6875 8.73987 2.6875 8.46653V5.5332C2.6875 5.25987 2.91417 5.0332 3.1875 5.0332C3.46083 5.0332 3.6875 5.25987 3.6875 5.5332V8.46653C3.6875 8.73987 3.4675 8.96653 3.1875 8.96653Z" fill="currentColor"/>
<path d="M10.8073 8.96653C10.5339 8.96653 10.3073 8.73987 10.3073 8.46653V5.5332C10.3073 5.25987 10.5339 5.0332 10.8073 5.0332C11.0806 5.0332 11.3073 5.25987 11.3073 5.5332V8.46653C11.3073 8.73987 11.0873 8.96653 10.8073 8.96653Z" fill="currentColor"/>
</svg>
