<svg width="16" height="16" viewBox="0 0 16 16" fill="none" xmlns="http://www.w3.org/2000/svg">
<path d="M11.3333 14.1667H4.66668C2.23334 14.1667 0.833344 12.7667 0.833344 10.3333V5.66667C0.833344 3.23333 2.23334 1.83333 4.66668 1.83333H11.3333C13.7667 1.83333 15.1667 3.23333 15.1667 5.66667V10.3333C15.1667 12.7667 13.7667 14.1667 11.3333 14.1667ZM4.66668 2.83333C2.76001 2.83333 1.83334 3.76 1.83334 5.66667V10.3333C1.83334 12.24 2.76001 13.1667 4.66668 13.1667H11.3333C13.24 13.1667 14.1667 12.24 14.1667 10.3333V5.66667C14.1667 3.76 13.24 2.83333 11.3333 2.83333H4.66668Z" fill="currentColor"/>
<path d="M8.00001 10.5C6.62001 10.5 5.50001 9.38 5.50001 8C5.50001 6.62 6.62001 5.5 8.00001 5.5C9.38001 5.5 10.5 6.62 10.5 8C10.5 9.38 9.38001 10.5 8.00001 10.5ZM8.00001 6.5C7.17334 6.5 6.50001 7.17333 6.50001 8C6.50001 8.82667 7.17334 9.5 8.00001 9.5C8.82668 9.5 9.50001 8.82667 9.50001 8C9.50001 7.17333 8.82668 6.5 8.00001 6.5Z" fill="currentColor"/>
<path d="M2.00001 6.5H1.33334C1.06001 6.5 0.833344 6.27333 0.833344 6C0.833344 5.72667 1.06001 5.5 1.33334 5.5H2.00001C3.72001 5.5 4.16668 5.05333 4.16668 3.33333V2.66667C4.16668 2.39333 4.39334 2.16667 4.66668 2.16667C4.94001 2.16667 5.16668 2.39333 5.16668 2.66667V3.33333C5.16668 5.61333 4.28001 6.5 2.00001 6.5Z" fill="currentColor"/>
<path d="M14.6667 6.5H14C11.72 6.5 10.8333 5.61333 10.8333 3.33333V2.66667C10.8333 2.39333 11.06 2.16667 11.3333 2.16667C11.6067 2.16667 11.8333 2.39333 11.8333 2.66667V3.33333C11.8333 5.05333 12.28 5.5 14 5.5H14.6667C14.94 5.5 15.1667 5.72667 15.1667 6C15.1667 6.27333 14.94 6.5 14.6667 6.5Z" fill="currentColor"/>
<path d="M4.66668 13.8333C4.39334 13.8333 4.16668 13.6067 4.16668 13.3333V12.6667C4.16668 10.9467 3.72001 10.5 2.00001 10.5H1.33334C1.06001 10.5 0.833344 10.2733 0.833344 10C0.833344 9.72667 1.06001 9.5 1.33334 9.5H2.00001C4.28001 9.5 5.16668 10.3867 5.16668 12.6667V13.3333C5.16668 13.6067 4.94001 13.8333 4.66668 13.8333Z" fill="currentColor"/>
<path d="M11.3333 13.8333C11.06 13.8333 10.8333 13.6067 10.8333 13.3333V12.6667C10.8333 10.3867 11.72 9.5 14 9.5H14.6667C14.94 9.5 15.1667 9.72667 15.1667 10C15.1667 10.2733 14.94 10.5 14.6667 10.5H14C12.28 10.5 11.8333 10.9467 11.8333 12.6667V13.3333C11.8333 13.6067 11.6067 13.8333 11.3333 13.8333Z" fill="currentColor"/>
</svg>
