<svg width="16" height="16" viewBox="0 0 16 16" fill="none" xmlns="http://www.w3.org/2000/svg">
<path d="M11.3333 13.8333H8.00001C7.72668 13.8333 7.50001 13.6067 7.50001 13.3333C7.50001 13.06 7.72668 12.8333 8.00001 12.8333H11.3333C13.24 12.8333 14.1667 11.9067 14.1667 10V6C14.1667 4.09333 13.24 3.16667 11.3333 3.16667H4.66668C2.76001 3.16667 1.83334 4.09333 1.83334 6V7.33333C1.83334 7.60667 1.60668 7.83333 1.33334 7.83333C1.06001 7.83333 0.833344 7.60667 0.833344 7.33333V6C0.833344 3.56667 2.23334 2.16667 4.66668 2.16667H11.3333C13.7667 2.16667 15.1667 3.56667 15.1667 6V10C15.1667 12.4333 13.7667 13.8333 11.3333 13.8333Z" fill="currentColor"/>
<path d="M8.00001 10.1667C6.80668 10.1667 5.83334 9.19333 5.83334 8C5.83334 6.80667 6.80668 5.83333 8.00001 5.83333C9.19334 5.83333 10.1667 6.80667 10.1667 8C10.1667 9.19333 9.19334 10.1667 8.00001 10.1667ZM8.00001 6.83333C7.36001 6.83333 6.83334 7.36 6.83334 8C6.83334 8.64 7.36001 9.16667 8.00001 9.16667C8.64001 9.16667 9.16668 8.64 9.16668 8C9.16668 7.36 8.64001 6.83333 8.00001 6.83333Z" fill="currentColor"/>
<path d="M12.3333 10.1667C12.06 10.1667 11.8333 9.94 11.8333 9.66667V6.33333C11.8333 6.06 12.06 5.83333 12.3333 5.83333C12.6067 5.83333 12.8333 6.06 12.8333 6.33333V9.66667C12.8333 9.94 12.6067 10.1667 12.3333 10.1667Z" fill="currentColor"/>
<path d="M5.66668 12.46C5.39334 12.46 5.16668 12.2333 5.16668 11.96V11.1067C5.16668 10.96 5.0467 10.8333 4.89336 10.8333H1.33334C1.06001 10.8333 0.833344 10.6067 0.833344 10.3333C0.833344 10.06 1.06001 9.83333 1.33334 9.83333H4.89336C5.59336 9.83333 6.16668 10.4067 6.16668 11.1067V11.96C6.16668 12.2333 5.94001 12.46 5.66668 12.46Z" fill="currentColor"/>
<path d="M2.14631 11.6465C2.01964 11.6465 1.893 11.5998 1.793 11.4998L0.979644 10.6865C0.78631 10.4932 0.78631 10.1731 0.979644 9.9798L1.793 9.16647C1.98633 8.97313 2.30633 8.97313 2.49966 9.16647C2.693 9.3598 2.693 9.6798 2.49966 9.87313L2.03966 10.3331L2.49966 10.7931C2.693 10.9865 2.693 11.3065 2.49966 11.4998C2.39966 11.5998 2.27298 11.6465 2.14631 11.6465Z" fill="currentColor"/>
<path d="M5.66668 14.3532H2.10666C1.40666 14.3532 0.833344 13.7799 0.833344 13.0799V12.2265C0.833344 11.9532 1.06001 11.7265 1.33334 11.7265C1.60668 11.7265 1.83334 11.9532 1.83334 12.2265V13.0799C1.83334 13.2265 1.95332 13.3532 2.10666 13.3532H5.66668C5.94001 13.3532 6.16668 13.5799 6.16668 13.8532C6.16668 14.1265 5.94001 14.3532 5.66668 14.3532Z" fill="currentColor"/>
<path d="M4.85253 15.1667C4.72586 15.1667 4.59918 15.12 4.49918 15.02C4.30584 14.8267 4.30584 14.5066 4.49918 14.3133L4.95918 13.8533L4.49918 13.3933C4.30584 13.2 4.30584 12.88 4.49918 12.6867C4.69251 12.4933 5.01251 12.4933 5.20584 12.6867L6.0192 13.5C6.21253 13.6933 6.21253 14.0133 6.0192 14.2067L5.20584 15.02C5.11251 15.12 4.9792 15.1667 4.85253 15.1667Z" fill="currentColor"/>
</svg>
