<svg width="16" height="16" viewBox="0 0 16 16" fill="none" xmlns="http://www.w3.org/2000/svg">
<path d="M11.3334 13.8333H5.66669C5.39335 13.8333 5.16669 13.6067 5.16669 13.3333C5.16669 13.06 5.39335 12.8333 5.66669 12.8333H11.3334C13.24 12.8333 14.1667 11.9067 14.1667 10V6C14.1667 4.09333 13.24 3.16667 11.3334 3.16667H4.66669C2.76002 3.16667 1.83335 4.09333 1.83335 6V10.1333C1.83335 10.4067 1.60669 10.6333 1.33335 10.6333C1.06002 10.6333 0.833354 10.4067 0.833354 10.1333V6C0.833354 3.56667 2.23335 2.16667 4.66669 2.16667H11.3334C13.7667 2.16667 15.1667 3.56667 15.1667 6V10C15.1667 12.4333 13.7667 13.8333 11.3334 13.8333Z" fill="currentColor"/>
<path d="M8.00002 10.1667C6.80669 10.1667 5.83335 9.19333 5.83335 8C5.83335 6.80667 6.80669 5.83333 8.00002 5.83333C9.19335 5.83333 10.1667 6.80667 10.1667 8C10.1667 9.19333 9.19335 10.1667 8.00002 10.1667ZM8.00002 6.83333C7.36002 6.83333 6.83335 7.36 6.83335 8C6.83335 8.64 7.36002 9.16667 8.00002 9.16667C8.64002 9.16667 9.16669 8.64 9.16669 8C9.16669 7.36 8.64002 6.83333 8.00002 6.83333Z" fill="currentColor"/>
<path d="M12.3334 10.1667C12.06 10.1667 11.8334 9.94 11.8334 9.66667V6.33333C11.8334 6.06 12.06 5.83333 12.3334 5.83333C12.6067 5.83333 12.8334 6.06 12.8334 6.33333V9.66667C12.8334 9.94 12.6067 10.1667 12.3334 10.1667Z" fill="currentColor"/>
<path d="M3.33335 15.1667C2.22669 15.1667 1.18669 14.58 0.626688 13.6267C0.326688 13.1467 0.166687 12.58 0.166687 12C0.166687 10.2533 1.58669 8.83333 3.33335 8.83333C5.08002 8.83333 6.50002 10.2533 6.50002 12C6.50002 12.58 6.34002 13.1467 6.04002 13.6333C5.48002 14.58 4.44002 15.1667 3.33335 15.1667ZM3.33335 9.83333C2.14002 9.83333 1.16669 10.8067 1.16669 12C1.16669 12.3933 1.27333 12.78 1.48 13.1133C1.86667 13.7667 2.58002 14.1667 3.33335 14.1667C4.08669 14.1667 4.80004 13.7667 5.18671 13.12C5.39337 12.78 5.50002 12.4 5.50002 12C5.50002 10.8067 4.52669 9.83333 3.33335 9.83333Z" fill="currentColor"/>
<path d="M1.49967 14.3333C1.37301 14.3333 1.24632 14.2867 1.14632 14.1867C0.952987 13.9933 0.952987 13.6733 1.14632 13.4799L4.81299 9.81327C5.00632 9.61993 5.32636 9.61993 5.51969 9.81327C5.71303 10.0066 5.71303 10.3267 5.51969 10.52L1.85303 14.1867C1.75303 14.2867 1.62634 14.3333 1.49967 14.3333Z" fill="currentColor"/>
</svg>
