<svg width="16" height="16" viewBox="0 0 16 16" fill="none" xmlns="http://www.w3.org/2000/svg">
<path d="M11.3333 14.1667H4.66668C2.23334 14.1667 0.833344 12.7667 0.833344 10.3333V5.66667C0.833344 3.23333 2.23334 1.83333 4.66668 1.83333H11.3333C13.7667 1.83333 15.1667 3.23333 15.1667 5.66667V10.3333C15.1667 12.7667 13.7667 14.1667 11.3333 14.1667ZM4.66668 2.83333C2.76001 2.83333 1.83334 3.76 1.83334 5.66667V10.3333C1.83334 12.24 2.76001 13.1667 4.66668 13.1667H11.3333C13.24 13.1667 14.1667 12.24 14.1667 10.3333V5.66667C14.1667 3.76 13.24 2.83333 11.3333 2.83333H4.66668Z" fill="currentColor"/>
<path d="M8.00001 10.5C6.62001 10.5 5.50001 9.38 5.50001 8C5.50001 6.62 6.62001 5.5 8.00001 5.5C9.38001 5.5 10.5 6.62 10.5 8C10.5 9.38 9.38001 10.5 8.00001 10.5ZM8.00001 6.5C7.17334 6.5 6.50001 7.17333 6.50001 8C6.50001 8.82667 7.17334 9.5 8.00001 9.5C8.82668 9.5 9.50001 8.82667 9.50001 8C9.50001 7.17333 8.82668 6.5 8.00001 6.5Z" fill="currentColor"/>
<path d="M12.6667 5.16667H10.6667C10.3933 5.16667 10.1667 4.94 10.1667 4.66667C10.1667 4.39333 10.3933 4.16667 10.6667 4.16667H12.6667C12.94 4.16667 13.1667 4.39333 13.1667 4.66667C13.1667 4.94 12.94 5.16667 12.6667 5.16667Z" fill="currentColor"/>
<path d="M5.33334 11.8333H3.33334C3.06001 11.8333 2.83334 11.6067 2.83334 11.3333C2.83334 11.06 3.06001 10.8333 3.33334 10.8333H5.33334C5.60668 10.8333 5.83334 11.06 5.83334 11.3333C5.83334 11.6067 5.60668 11.8333 5.33334 11.8333Z" fill="currentColor"/>
</svg>
