<svg width="16" height="16" viewBox="0 0 16 16" fill="none" xmlns="http://www.w3.org/2000/svg">
<g clip-path="url(#clip0_2_4739)">
<path d="M8.69998 10.8335H7.44665C6.55999 10.8335 5.83331 10.0868 5.83331 9.1668C5.83331 8.89347 6.05998 8.6668 6.33331 8.6668C6.60665 8.6668 6.83331 8.89347 6.83331 9.1668C6.83331 9.53347 7.10665 9.83347 7.44665 9.83347H8.69998C8.95998 9.83347 9.16665 9.60013 9.16665 9.31347C9.16665 8.95347 9.06665 8.90013 8.83998 8.82013L6.83331 8.12013C6.40665 7.97347 5.83331 7.66013 5.83331 6.68013C5.83331 5.84682 6.49332 5.16015 7.29998 5.16015H8.55331C9.43998 5.16015 10.1666 5.90682 10.1666 6.8268C10.1666 7.10013 9.93998 7.3268 9.66665 7.3268C9.39331 7.3268 9.16665 7.10013 9.16665 6.8268C9.16665 6.46015 8.89331 6.16015 8.55331 6.16015H7.29998C7.03998 6.16015 6.83331 6.39349 6.83331 6.68013C6.83331 7.04013 6.93331 7.09347 7.15998 7.17347L9.16665 7.87347C9.59331 8.02013 10.1666 8.33347 10.1666 9.31347C10.1666 10.1535 9.50665 10.8335 8.69998 10.8335Z" fill="currentColor"/>
<path d="M7.99998 11.5C7.72665 11.5 7.49998 11.2733 7.49998 11V5C7.49998 4.72667 7.72665 4.5 7.99998 4.5C8.27331 4.5 8.49998 4.72667 8.49998 5V11C8.49998 11.2733 8.27331 11.5 7.99998 11.5Z" fill="currentColor"/>
<path d="M7.99998 15.1667C4.04665 15.1667 0.833313 11.9533 0.833313 8C0.833313 4.04667 4.04665 0.833334 7.99998 0.833334C8.27331 0.833334 8.49998 1.06 8.49998 1.33333C8.49998 1.60667 8.27331 1.83333 7.99998 1.83333C4.59998 1.83333 1.83331 4.6 1.83331 8C1.83331 11.4 4.59998 14.1667 7.99998 14.1667C11.4 14.1667 14.1666 11.4 14.1666 8C14.1666 7.72667 14.3933 7.5 14.6666 7.5C14.94 7.5 15.1666 7.72667 15.1666 8C15.1666 11.9533 11.9533 15.1667 7.99998 15.1667Z" fill="currentColor"/>
<path d="M14 5.16667H11.3333C11.06 5.16667 10.8333 4.94 10.8333 4.66667V2C10.8333 1.72667 11.06 1.5 11.3333 1.5C11.6066 1.5 11.8333 1.72667 11.8333 2V4.16667H14C14.2733 4.16667 14.5 4.39333 14.5 4.66667C14.5 4.94 14.2733 5.16667 14 5.16667Z" fill="currentColor"/>
<path d="M11.3333 5.16667C11.2066 5.16667 11.0796 5.11996 10.9796 5.01996C10.7863 4.82663 10.7863 4.50663 10.9796 4.31329L14.313 0.979961C14.5063 0.786627 14.8263 0.786627 15.0196 0.979961C15.213 1.17329 15.213 1.49329 15.0196 1.68663L11.6863 5.01996C11.5863 5.11996 11.46 5.16667 11.3333 5.16667Z" fill="currentColor"/>
</g>
<defs>
<clipPath id="clip0_2_4739">
<rect width="16" height="16" fill="currentColor"/>
</clipPath>
</defs>
</svg>
