<svg width="16" height="16" viewBox="0 0 16 16" fill="none" xmlns="http://www.w3.org/2000/svg">
<path d="M11.3334 13.8333H5.66669C5.39335 13.8333 5.16669 13.6067 5.16669 13.3333C5.16669 13.06 5.39335 12.8333 5.66669 12.8333H11.3334C13.24 12.8333 14.1667 11.9067 14.1667 10V6C14.1667 4.09333 13.24 3.16667 11.3334 3.16667H4.66669C2.76002 3.16667 1.83335 4.09333 1.83335 6V10.2C1.83335 10.4733 1.60669 10.7 1.33335 10.7C1.06002 10.7 0.833354 10.4733 0.833354 10.2V6C0.833354 3.56667 2.23335 2.16667 4.66669 2.16667H11.3334C13.7667 2.16667 15.1667 3.56667 15.1667 6V10C15.1667 12.4333 13.7667 13.8333 11.3334 13.8333Z" fill="currentColor"/>
<path d="M8.00002 10.1667C6.80669 10.1667 5.83335 9.19333 5.83335 8C5.83335 6.80667 6.80669 5.83333 8.00002 5.83333C9.19335 5.83333 10.1667 6.80667 10.1667 8C10.1667 9.19333 9.19335 10.1667 8.00002 10.1667ZM8.00002 6.83333C7.36002 6.83333 6.83335 7.36 6.83335 8C6.83335 8.64 7.36002 9.16667 8.00002 9.16667C8.64002 9.16667 9.16669 8.64 9.16669 8C9.16669 7.36 8.64002 6.83333 8.00002 6.83333Z" fill="currentColor"/>
<path d="M12.3334 10.1667C12.06 10.1667 11.8334 9.94 11.8334 9.66667V6.33333C11.8334 6.06 12.06 5.83333 12.3334 5.83333C12.6067 5.83333 12.8334 6.06 12.8334 6.33333V9.66667C12.8334 9.94 12.6067 10.1667 12.3334 10.1667Z" fill="currentColor"/>
<path d="M3.33335 15.1667C2.22669 15.1667 1.18669 14.58 0.626688 13.6267C0.326688 13.1467 0.166687 12.58 0.166687 12C0.166687 10.2533 1.58669 8.83333 3.33335 8.83333C5.08002 8.83333 6.50002 10.2533 6.50002 12C6.50002 12.58 6.34002 13.1467 6.04002 13.6333C5.48002 14.58 4.44002 15.1667 3.33335 15.1667ZM3.33335 9.83333C2.14002 9.83333 1.16669 10.8067 1.16669 12C1.16669 12.3933 1.27333 12.78 1.48 13.1133C1.86667 13.7667 2.58002 14.1667 3.33335 14.1667C4.08669 14.1667 4.80004 13.7667 5.18671 13.12C5.39337 12.78 5.50002 12.4 5.50002 12C5.50002 10.8067 4.52669 9.83333 3.33335 9.83333Z" fill="currentColor"/>
<path d="M4.04696 13.1934C3.92029 13.1934 3.79361 13.1467 3.69361 13.0467L2.28695 11.6401C2.09361 11.4467 2.09361 11.1267 2.28695 10.9334C2.48028 10.7401 2.80028 10.7401 2.99361 10.9334L4.40027 12.3401C4.5936 12.5334 4.5936 12.8534 4.40027 13.0467C4.30027 13.1467 4.17363 13.1934 4.04696 13.1934Z" fill="currentColor"/>
<path d="M2.62073 13.2133C2.49406 13.2133 2.36741 13.1666 2.26741 13.0666C2.07408 12.8733 2.07408 12.5533 2.26741 12.3599L3.67407 10.9533C3.86741 10.7599 4.18741 10.7599 4.38074 10.9533C4.57407 11.1466 4.57407 11.4666 4.38074 11.6599L2.97408 13.0666C2.87408 13.1666 2.74739 13.2133 2.62073 13.2133Z" fill="currentColor"/>
</svg>
