<svg width="16" height="16" viewBox="0 0 16 16" fill="none" xmlns="http://www.w3.org/2000/svg">
<path d="M8.00002 10.1667C6.80669 10.1667 5.83335 9.19333 5.83335 8C5.83335 6.80667 6.80669 5.83333 8.00002 5.83333C9.19335 5.83333 10.1667 6.80667 10.1667 8C10.1667 9.19333 9.19335 10.1667 8.00002 10.1667ZM8.00002 6.83333C7.36002 6.83333 6.83335 7.36 6.83335 8C6.83335 8.64 7.36002 9.16667 8.00002 9.16667C8.64002 9.16667 9.16669 8.64 9.16669 8C9.16669 7.36 8.64002 6.83333 8.00002 6.83333Z" fill="currentColor"/>
<path d="M12.3334 10.1667C12.06 10.1667 11.8334 9.94 11.8334 9.66667V6.33333C11.8334 6.06 12.06 5.83333 12.3334 5.83333C12.6067 5.83333 12.8334 6.06 12.8334 6.33333V9.66667C12.8334 9.94 12.6067 10.1667 12.3334 10.1667Z" fill="currentColor"/>
<path d="M3.33335 15.1667C1.58669 15.1667 0.166687 13.7467 0.166687 12C0.166687 10.2533 1.58669 8.83333 3.33335 8.83333C5.08002 8.83333 6.50002 10.2533 6.50002 12C6.50002 13.7467 5.08002 15.1667 3.33335 15.1667ZM3.33335 9.83333C2.14002 9.83333 1.16669 10.8067 1.16669 12C1.16669 13.1933 2.14002 14.1667 3.33335 14.1667C4.52669 14.1667 5.50002 13.1933 5.50002 12C5.50002 10.8067 4.52669 9.83333 3.33335 9.83333Z" fill="currentColor"/>
<path d="M2.66661 13.1665C2.49995 13.1665 2.33327 13.0799 2.23994 12.9265C2.09994 12.6932 2.17328 12.3798 2.41328 12.2398L2.91995 11.9332C2.96662 11.9065 2.99995 11.8465 2.99995 11.7932V11.1732C2.99995 10.8999 3.22661 10.6732 3.49995 10.6732C3.77328 10.6732 3.99995 10.8999 3.99995 11.1732V11.7932C3.99995 12.1999 3.77997 12.5865 3.4333 12.7932L2.92663 13.0999C2.84663 13.1465 2.75328 13.1665 2.66661 13.1665Z" fill="currentColor"/>
<path d="M11.3334 13.8333H5.66669C5.39335 13.8333 5.16669 13.6067 5.16669 13.3333C5.16669 13.06 5.39335 12.8333 5.66669 12.8333H11.3334C13.24 12.8333 14.1667 11.9067 14.1667 10V6C14.1667 4.09333 13.24 3.16667 11.3334 3.16667H4.66669C2.76002 3.16667 1.83335 4.09333 1.83335 6V10.1333C1.83335 10.4067 1.60669 10.6333 1.33335 10.6333C1.06002 10.6333 0.833354 10.4067 0.833354 10.1333V6C0.833354 3.56667 2.23335 2.16667 4.66669 2.16667H11.3334C13.7667 2.16667 15.1667 3.56667 15.1667 6V10C15.1667 12.4333 13.7667 13.8333 11.3334 13.8333Z" fill="currentColor"/>
</svg>
