<svg width="16" height="16" viewBox="0 0 16 16" fill="none" xmlns="http://www.w3.org/2000/svg">
<path d="M7.99999 10.1667C6.80666 10.1667 5.83332 9.19333 5.83332 8C5.83332 6.80667 6.80666 5.83333 7.99999 5.83333C9.19332 5.83333 10.1667 6.80667 10.1667 8C10.1667 9.19333 9.19332 10.1667 7.99999 10.1667ZM7.99999 6.83333C7.35999 6.83333 6.83332 7.36 6.83332 8C6.83332 8.64 7.35999 9.16667 7.99999 9.16667C8.63999 9.16667 9.16666 8.64 9.16666 8C9.16666 7.36 8.63999 6.83333 7.99999 6.83333Z" fill="currentColor"/>
<path d="M12.3333 10.1667C12.06 10.1667 11.8333 9.94 11.8333 9.66667V6.33333C11.8333 6.06 12.06 5.83333 12.3333 5.83333C12.6067 5.83333 12.8333 6.06 12.8333 6.33333V9.66667C12.8333 9.94 12.6067 10.1667 12.3333 10.1667Z" fill="currentColor"/>
<path d="M3.33332 15.1667C2.22666 15.1667 1.18666 14.58 0.626658 13.6267C0.326658 13.1467 0.166656 12.58 0.166656 12C0.166656 10.2533 1.58666 8.83333 3.33332 8.83333C5.07999 8.83333 6.49999 10.2533 6.49999 12C6.49999 12.58 6.33999 13.1467 6.03999 13.6333C5.47999 14.58 4.43999 15.1667 3.33332 15.1667ZM3.33332 9.83333C2.13999 9.83333 1.16666 10.8067 1.16666 12C1.16666 12.3933 1.27332 12.78 1.47999 13.1133C1.86666 13.7667 2.57999 14.1667 3.33332 14.1667C4.08666 14.1667 4.79999 13.7667 5.18666 13.12C5.39332 12.78 5.49999 12.4 5.49999 12C5.49999 10.8067 4.52666 9.83333 3.33332 9.83333Z" fill="currentColor"/>
<path d="M4.33316 12.4867H2.33984C2.0665 12.4867 1.83984 12.26 1.83984 11.9867C1.83984 11.7133 2.0665 11.4867 2.33984 11.4867H4.33316C4.6065 11.4867 4.83316 11.7133 4.83316 11.9867C4.83316 12.26 4.6065 12.4867 4.33316 12.4867Z" fill="currentColor"/>
<path d="M3.33332 13.5067C3.05999 13.5067 2.83332 13.28 2.83332 13.0067V11.0133C2.83332 10.74 3.05999 10.5133 3.33332 10.5133C3.60666 10.5133 3.83332 10.74 3.83332 11.0133V13.0067C3.83332 13.2867 3.60666 13.5067 3.33332 13.5067Z" fill="currentColor"/>
<path d="M11.3333 13.8333H5.66666C5.39332 13.8333 5.16666 13.6067 5.16666 13.3333C5.16666 13.06 5.39332 12.8333 5.66666 12.8333H11.3333C13.24 12.8333 14.1667 11.9067 14.1667 10V6C14.1667 4.09333 13.24 3.16667 11.3333 3.16667H4.66666C2.75999 3.16667 1.83332 4.09333 1.83332 6V10.2C1.83332 10.4733 1.60666 10.7 1.33332 10.7C1.05999 10.7 0.833323 10.4733 0.833323 10.2V6C0.833323 3.56667 2.23332 2.16667 4.66666 2.16667H11.3333C13.7667 2.16667 15.1667 3.56667 15.1667 6V10C15.1667 12.4333 13.7667 13.8333 11.3333 13.8333Z" fill="currentColor"/>
</svg>
