<svg width="16" height="16" viewBox="0 0 16 16" fill="none" xmlns="http://www.w3.org/2000/svg">
<path d="M11.3333 14.1667H4.66668C2.23334 14.1667 0.833344 12.7667 0.833344 10.3333V5.66667C0.833344 3.23333 2.23334 1.83333 4.66668 1.83333H11.3333C13.7667 1.83333 15.1667 3.23333 15.1667 5.66667V10.3333C15.1667 12.7667 13.7667 14.1667 11.3333 14.1667ZM4.66668 2.83333C2.76001 2.83333 1.83334 3.76 1.83334 5.66667V10.3333C1.83334 12.24 2.76001 13.1667 4.66668 13.1667H11.3333C13.24 13.1667 14.1667 12.24 14.1667 10.3333V5.66667C14.1667 3.76 13.24 2.83333 11.3333 2.83333H4.66668Z" fill="currentColor"/>
<path d="M8.00001 10.5C6.62001 10.5 5.50001 9.38 5.50001 8C5.50001 6.62 6.62001 5.5 8.00001 5.5C9.38001 5.5 10.5 6.62 10.5 8C10.5 9.38 9.38001 10.5 8.00001 10.5ZM8.00001 6.5C7.17334 6.5 6.50001 7.17333 6.50001 8C6.50001 8.82667 7.17334 9.5 8.00001 9.5C8.82668 9.5 9.50001 8.82667 9.50001 8C9.50001 7.17333 8.82668 6.5 8.00001 6.5Z" fill="currentColor"/>
<path d="M3.66668 10.1667C3.39334 10.1667 3.16668 9.94 3.16668 9.66667V6.33333C3.16668 6.06 3.39334 5.83333 3.66668 5.83333C3.94001 5.83333 4.16668 6.06 4.16668 6.33333V9.66667C4.16668 9.94 3.94001 10.1667 3.66668 10.1667Z" fill="currentColor"/>
<path d="M12.3333 10.1667C12.06 10.1667 11.8333 9.94 11.8333 9.66667V6.33333C11.8333 6.06 12.06 5.83333 12.3333 5.83333C12.6067 5.83333 12.8333 6.06 12.8333 6.33333V9.66667C12.8333 9.94 12.6067 10.1667 12.3333 10.1667Z" fill="currentColor"/>
</svg>
