<svg width="16" height="16" viewBox="0 0 16 16" fill="none" xmlns="http://www.w3.org/2000/svg">
<path d="M6.66665 11.8H4.13998C1.60665 11.8 0.833313 11.0267 0.833313 8.49333V4.49335C0.833313 1.96002 1.60665 1.18669 4.13998 1.18669H11.16C13.6933 1.18669 14.4666 1.96002 14.4666 4.49335C14.4666 4.76669 14.24 4.99335 13.9666 4.99335C13.6933 4.99335 13.4666 4.76669 13.4666 4.49335C13.4666 2.53335 13.12 2.18669 11.16 2.18669H4.13998C2.17998 2.18669 1.83331 2.53335 1.83331 4.49335V8.49333C1.83331 10.4533 2.17998 10.8 4.13998 10.8H6.66665C6.93998 10.8 7.16665 11.0267 7.16665 11.3C7.16665 11.5733 6.93998 11.8 6.66665 11.8Z" fill="currentColor"/>
<path d="M6.66665 14.8133C6.39331 14.8133 6.16665 14.5866 6.16665 14.3133V11.2933C6.16665 11.0199 6.39331 10.7933 6.66665 10.7933C6.93998 10.7933 7.16665 11.0199 7.16665 11.2933V14.3133C7.16665 14.5933 6.93998 14.8133 6.66665 14.8133Z" fill="currentColor"/>
<path d="M6.66665 9.13333H1.33331C1.05998 9.13333 0.833313 8.90667 0.833313 8.63333C0.833313 8.36 1.05998 8.13333 1.33331 8.13333H6.66665C6.93998 8.13333 7.16665 8.36 7.16665 8.63333C7.16665 8.90667 6.93998 9.13333 6.66665 9.13333Z" fill="currentColor"/>
<path d="M6.66665 14.8133L4.49347 14.8133C4.22013 14.8133 3.99347 14.5867 3.99347 14.3133C3.99347 14.04 4.22013 13.8133 4.49347 13.8133H6.66678C6.94011 13.8133 7.16665 14.0399 7.16665 14.3133C7.16665 14.5866 6.93998 14.8133 6.66665 14.8133Z" fill="currentColor"/>
<path d="M12.6935 14.8134H10.3268C8.48018 14.8134 7.85351 14.1867 7.85351 12.3401V8.5334C7.85351 6.68673 8.48018 6.06006 10.3268 6.06006H12.6935C14.5402 6.06006 15.1668 6.68673 15.1668 8.5334V12.3401C15.1668 14.1934 14.5402 14.8134 12.6935 14.8134ZM10.3268 7.06007C9.02018 7.06007 8.85351 7.22673 8.85351 8.5334V12.3401C8.85351 13.6467 9.02018 13.8134 10.3268 13.8134H12.6935C14.0002 13.8134 14.1668 13.6467 14.1668 12.3401V8.5334C14.1668 7.22673 14.0002 7.06007 12.6935 7.06007H10.3268Z" fill="currentColor"/>
<path d="M11.5332 12.6467C11.3598 12.6467 11.1865 12.58 11.0598 12.4533C10.9998 12.3933 10.9532 12.32 10.9198 12.24C10.8865 12.1533 10.8665 12.0667 10.8665 11.98C10.8665 11.8067 10.9398 11.6333 11.0598 11.5133C11.2132 11.36 11.4465 11.2867 11.6665 11.3267C11.7065 11.34 11.7465 11.3533 11.7865 11.3667C11.8265 11.3867 11.8665 11.4067 11.8998 11.4267C11.9398 11.4533 11.9732 11.48 12.0065 11.5133C12.1265 11.6333 12.1998 11.8067 12.1998 11.98C12.1998 12.0667 12.1798 12.1533 12.1465 12.24C12.1132 12.32 12.0665 12.3933 12.0065 12.4533C11.9732 12.4867 11.9398 12.5133 11.8998 12.5333C11.8665 12.56 11.8265 12.58 11.7865 12.6C11.7465 12.6133 11.7065 12.6267 11.6665 12.6333C11.6198 12.6467 11.5798 12.6467 11.5332 12.6467Z" fill="currentColor"/>
</svg>
