<svg width="16" height="16" viewBox="0 0 16 16" fill="none" xmlns="http://www.w3.org/2000/svg">
<g clip-path="url(#clip0_2_4994)">
<path d="M11.7066 11.98H4.29331C1.63998 11.98 0.833313 11.1733 0.833313 8.52V4.29333C0.833313 1.64 1.63998 0.833334 4.29331 0.833334H11.7C14.3533 0.833334 15.16 1.64 15.16 4.29333V8.51333C15.1666 11.1733 14.36 11.98 11.7066 11.98ZM4.29331 1.83333C2.19998 1.83333 1.83331 2.2 1.83331 4.29333V8.51333C1.83331 10.6067 2.19998 10.9733 4.29331 10.9733H11.7C13.7933 10.9733 14.16 10.6067 14.16 8.51333V4.29333C14.16 2.2 13.7933 1.83333 11.7 1.83333H4.29331Z" fill="currentColor"/>
<path d="M7.99998 15.1667C7.72665 15.1667 7.49998 14.94 7.49998 14.6667V11.48C7.49998 11.2067 7.72665 10.98 7.99998 10.98C8.27331 10.98 8.49998 11.2067 8.49998 11.48V14.6667C8.49998 14.94 8.27331 15.1667 7.99998 15.1667Z" fill="currentColor"/>
<path d="M14.6666 9.16667H1.33331C1.05998 9.16667 0.833313 8.94 0.833313 8.66667C0.833313 8.39333 1.05998 8.16667 1.33331 8.16667H14.6666C14.94 8.16667 15.1666 8.39333 15.1666 8.66667C15.1666 8.94 14.94 9.16667 14.6666 9.16667Z" fill="currentColor"/>
<path d="M11 15.1667H4.99998C4.72665 15.1667 4.49998 14.94 4.49998 14.6667C4.49998 14.3933 4.72665 14.1667 4.99998 14.1667H11C11.2733 14.1667 11.5 14.3933 11.5 14.6667C11.5 14.94 11.2733 15.1667 11 15.1667Z" fill="currentColor"/>
</g>
<defs>
<clipPath id="clip0_2_4994">
<rect width="16" height="16" fill="currentColor"/>
</clipPath>
</defs>
</svg>
