<svg width="16" height="16" viewBox="0 0 16 16" fill="none" xmlns="http://www.w3.org/2000/svg">
<g clip-path="url(#clip0_2_4735)">
<path d="M11.7066 11.98H4.29331C1.63998 11.98 0.833313 11.1733 0.833313 8.52V4.29333C0.833313 1.64 1.63998 0.833333 4.29331 0.833333H5.33331C5.60665 0.833333 5.83331 1.06 5.83331 1.33333C5.83331 1.60667 5.60665 1.83333 5.33331 1.83333H4.29331C2.19998 1.83333 1.83331 2.2 1.83331 4.29333V8.51333C1.83331 10.6067 2.19998 10.9733 4.29331 10.9733H11.7C13.7933 10.9733 14.16 10.6067 14.16 8.51333V7.92C14.16 7.64667 14.3866 7.42 14.66 7.42C14.9333 7.42 15.16 7.64667 15.16 7.92V8.51333C15.1666 11.1733 14.36 11.98 11.7066 11.98Z" fill="currentColor"/>
<path d="M7.99998 15.1667C7.72665 15.1667 7.49998 14.94 7.49998 14.6667V11.48C7.49998 11.2067 7.72665 10.98 7.99998 10.98C8.27331 10.98 8.49998 11.2067 8.49998 11.48V14.6667C8.49998 14.94 8.27331 15.1667 7.99998 15.1667Z" fill="currentColor"/>
<path d="M14.6666 9.16667H1.33331C1.05998 9.16667 0.833313 8.94 0.833313 8.66667C0.833313 8.39333 1.05998 8.16667 1.33331 8.16667H14.6666C14.94 8.16667 15.1666 8.39333 15.1666 8.66667C15.1666 8.94 14.94 9.16667 14.6666 9.16667Z" fill="currentColor"/>
<path d="M11 15.1667H4.99998C4.72665 15.1667 4.49998 14.94 4.49998 14.6667C4.49998 14.3933 4.72665 14.1667 4.99998 14.1667H11C11.2733 14.1667 11.5 14.3933 11.5 14.6667C11.5 14.94 11.2733 15.1667 11 15.1667Z" fill="currentColor"/>
<path d="M11.9065 6.74667H8.73318C7.68651 6.74667 7.00651 6.06667 7.00651 5.02001V2.67334C7.00651 1.66001 7.82651 0.840007 8.83985 0.840007H11.9065C12.8598 0.840007 13.6332 1.61334 13.6332 2.56667V5.02001C13.6332 5.97334 12.8598 6.74667 11.9065 6.74667ZM8.83985 1.84001C8.37985 1.84001 8.00651 2.21334 8.00651 2.67334V5.02001C8.00651 5.67334 8.41985 5.74667 8.73318 5.74667H11.9065C12.3065 5.74667 12.6332 5.42001 12.6332 5.02001V2.56667C12.6332 2.16667 12.3065 1.84001 11.9065 1.84001H8.83985Z" fill="currentColor"/>
<path d="M14.3001 5.9133C14.0868 5.9133 13.8668 5.83997 13.6534 5.68663L12.8468 5.11997C12.7134 5.02663 12.6334 4.8733 12.6334 4.7133V2.8733C12.6334 2.7133 12.7134 2.55997 12.8468 2.46663L13.6534 1.89997C14.0001 1.6533 14.3734 1.60663 14.6801 1.76663C14.9868 1.92663 15.1601 2.25997 15.1601 2.68663V4.90663C15.1601 5.3333 14.9868 5.66663 14.6801 5.82663C14.5668 5.88663 14.4401 5.9133 14.3001 5.9133ZM13.6334 4.4533L14.1668 4.82663V2.75997L13.6334 3.1333V4.4533Z" fill="currentColor"/>
</g>
<defs>
<clipPath id="clip0_2_4735">
<rect width="16" height="16" fill="currentColor"/>
</clipPath>
</defs>
</svg>
