<svg width="16" height="16" viewBox="0 0 16 16" fill="none" xmlns="http://www.w3.org/2000/svg">
<path d="M8.30695 15.1667C8.19362 15.1667 8.08029 15.1667 7.96695 15.1601C4.23365 14.9934 1.11364 11.9867 0.853645 8.32007C0.626976 5.17341 2.44698 2.23341 5.38031 1.00007C6.21365 0.653409 6.65365 0.920073 6.84029 1.11341C7.02695 1.30007 7.28695 1.73341 6.94029 2.52674C6.63365 3.23341 6.48031 3.98674 6.48698 4.76007C6.50031 7.7134 8.95362 10.2201 11.947 10.3401C12.3803 10.3601 12.807 10.3267 13.2203 10.2534C14.1003 10.0934 14.467 10.4467 14.607 10.6734C14.747 10.9001 14.907 11.3867 14.3736 12.1067C12.9603 14.0401 10.7136 15.1667 8.30695 15.1667ZM1.84698 8.24673C2.07365 11.4201 4.78031 14.0201 8.00695 14.1601C10.2003 14.2667 12.2803 13.2667 13.5603 11.5201C13.6603 11.3801 13.707 11.2801 13.727 11.2267C13.667 11.2201 13.5603 11.2134 13.3936 11.2467C12.907 11.3334 12.4003 11.3667 11.9003 11.3467C8.38029 11.2067 5.50031 8.2534 5.48031 4.77341C5.48031 3.85341 5.66031 2.96674 6.02698 2.13341C6.09365 1.98674 6.10698 1.88674 6.11365 1.83341C6.05365 1.83341 5.94698 1.84674 5.77365 1.92007C3.23365 2.98674 1.66031 5.53341 1.84698 8.24673Z" fill="currentColor"/>
</svg>
