<svg width="16" height="16" viewBox="0 0 16 16" fill="none" xmlns="http://www.w3.org/2000/svg">
<path d="M3.33333 9.83333C2.32 9.83333 1.5 9.01333 1.5 8C1.5 6.98667 2.32 6.16667 3.33333 6.16667C4.34667 6.16667 5.16667 6.98667 5.16667 8C5.16667 9.01333 4.34667 9.83333 3.33333 9.83333ZM3.33333 7.16667C2.87333 7.16667 2.5 7.54 2.5 8C2.5 8.46 2.87333 8.83333 3.33333 8.83333C3.79333 8.83333 4.16667 8.46 4.16667 8C4.16667 7.54 3.79333 7.16667 3.33333 7.16667Z" fill="currentColor"/>
<path d="M12.6667 9.83333C11.6533 9.83333 10.8333 9.01333 10.8333 8C10.8333 6.98667 11.6533 6.16667 12.6667 6.16667C13.68 6.16667 14.5 6.98667 14.5 8C14.5 9.01333 13.68 9.83333 12.6667 9.83333ZM12.6667 7.16667C12.2067 7.16667 11.8333 7.54 11.8333 8C11.8333 8.46 12.2067 8.83333 12.6667 8.83333C13.1267 8.83333 13.5 8.46 13.5 8C13.5 7.54 13.1267 7.16667 12.6667 7.16667Z" fill="currentColor"/>
<path d="M8 9.83333C6.98667 9.83333 6.16667 9.01333 6.16667 8C6.16667 6.98667 6.98667 6.16667 8 6.16667C9.01333 6.16667 9.83333 6.98667 9.83333 8C9.83333 9.01333 9.01333 9.83333 8 9.83333ZM8 7.16667C7.54 7.16667 7.16667 7.54 7.16667 8C7.16667 8.46 7.54 8.83333 8 8.83333C8.46 8.83333 8.83333 8.46 8.83333 8C8.83333 7.54 8.46 7.16667 8 7.16667Z" fill="currentColor"/>
</svg>
