<svg width="16" height="16" viewBox="0 0 16 16" fill="none" xmlns="http://www.w3.org/2000/svg">
<g clip-path="url(#clip0_2_5283)">
<path d="M10 15.1667H6.00001C2.38001 15.1667 0.833344 13.62 0.833344 10V6C0.833344 2.38 2.38001 0.833333 6.00001 0.833333H10C13.62 0.833333 15.1667 2.38 15.1667 6V10C15.1667 13.62 13.62 15.1667 10 15.1667ZM6.00001 1.83333C2.92668 1.83333 1.83334 2.92667 1.83334 6V10C1.83334 13.0733 2.92668 14.1667 6.00001 14.1667H10C13.0733 14.1667 14.1667 13.0733 14.1667 10V6C14.1667 2.92667 13.0733 1.83333 10 1.83333H6.00001Z" fill="currentColor"/>
<path d="M8.00001 8.66667C7.62668 8.66667 7.33334 8.36667 7.33334 8C7.33334 7.63333 7.63334 7.33333 8.00001 7.33333C8.36668 7.33333 8.66668 7.63333 8.66668 8C8.66668 8.36667 8.37334 8.66667 8.00001 8.66667Z" fill="currentColor"/>
<path d="M10.6667 8.66667C10.2933 8.66667 10 8.36667 10 8C10 7.63333 10.3 7.33333 10.6667 7.33333C11.0333 7.33333 11.3333 7.63333 11.3333 8C11.3333 8.36667 11.04 8.66667 10.6667 8.66667Z" fill="currentColor"/>
<path d="M5.33334 8.66667C4.96001 8.66667 4.66668 8.36667 4.66668 8C4.66668 7.63333 4.96668 7.33333 5.33334 7.33333C5.70001 7.33333 6.00001 7.63333 6.00001 8C6.00001 8.36667 5.70668 8.66667 5.33334 8.66667Z" fill="currentColor"/>
</g>
<defs>
<clipPath id="clip0_2_5283">
<rect width="16" height="16" fill="currentColor"/>
</clipPath>
</defs>
</svg>
