<svg width="16" height="16" viewBox="0 0 16 16" fill="none" xmlns="http://www.w3.org/2000/svg">
<path d="M6.13333 3.33333C6.13333 2.33333 6.93333 1.46667 8 1.46667C9.06666 1.46667 9.86666 2.26667 9.86666 3.33333C9.86666 4.4 9 5.2 8 5.2C7 5.2 6.13333 4.33333 6.13333 3.33333ZM8.8 3.33333C8.8 2.86667 8.4 2.53333 8 2.53333C7.6 2.53333 7.2 2.86667 7.2 3.33333C7.2 3.8 7.6 4.13333 8 4.13333C8.4 4.13333 8.8 3.8 8.8 3.33333Z" fill="currentColor"/>
<path d="M6.13333 12.6667C6.13333 11.6667 6.93333 10.8 8 10.8C9.06666 10.8 9.86666 11.6 9.86666 12.6667C9.86666 13.7333 9.06666 14.5333 8 14.5333C6.93333 14.5333 6.13333 13.6667 6.13333 12.6667ZM8.8 12.6667C8.8 12.2 8.4 11.8667 8 11.8667C7.6 11.8667 7.2 12.2667 7.2 12.6667C7.2 13.0667 7.6 13.4667 8 13.4667C8.4 13.4667 8.8 13.1333 8.8 12.6667Z" fill="currentColor"/>
<path d="M6.13333 8C6.13333 7 6.93333 6.13333 8 6.13333C9.06666 6.13333 9.86666 6.93333 9.86666 8C9.86666 9.06667 9.06666 9.86667 8 9.86667C6.93333 9.86667 6.13333 9 6.13333 8ZM8.8 8C8.8 7.53333 8.4 7.2 8 7.2C7.6 7.2 7.2 7.6 7.2 8C7.2 8.4 7.6 8.8 8 8.8C8.4 8.8 8.8 8.46667 8.8 8Z" fill="currentColor"/>
</svg>
