<svg width="16" height="16" viewBox="0 0 16 16" fill="none" xmlns="http://www.w3.org/2000/svg">
<path d="M7.99989 6.71333C6.93322 6.71333 6.05992 5.84 6.05992 4.77333C6.05992 3.70667 6.93322 2.83333 7.99989 2.83333C9.06656 2.83333 9.93989 3.70667 9.93989 4.77333C9.93989 5.84 9.06656 6.71333 7.99989 6.71333ZM7.99989 3.83333C7.47989 3.83333 7.05989 4.25333 7.05989 4.77333C7.05989 5.29333 7.47989 5.71333 7.99989 5.71333C8.51989 5.71333 8.93989 5.29333 8.93989 4.77333C8.93989 4.25333 8.51989 3.83333 7.99989 3.83333Z" fill="currentColor"/>
<path d="M4.52661 13.1668C3.45994 13.1668 2.58661 12.2935 2.58661 11.2268C2.58661 10.1601 3.45994 9.2868 4.52661 9.2868C5.59328 9.2868 6.46661 10.1601 6.46661 11.2268C6.46661 12.2935 5.59328 13.1668 4.52661 13.1668ZM4.52661 10.2868C4.00661 10.2868 3.58661 10.7068 3.58661 11.2268C3.58661 11.7468 4.00661 12.1668 4.52661 12.1668C5.04661 12.1668 5.46661 11.7468 5.46661 11.2268C5.46661 10.7068 5.03994 10.2868 4.52661 10.2868Z" fill="currentColor"/>
<path d="M11.4732 13.1668C10.4066 13.1668 9.53322 12.2935 9.53322 11.2268C9.53322 10.1601 10.4066 9.2868 11.4732 9.2868C12.5399 9.2868 13.4132 10.1601 13.4132 11.2268C13.4132 12.2935 12.5466 13.1668 11.4732 13.1668ZM11.4732 10.2868C10.9532 10.2868 10.5332 10.7068 10.5332 11.2268C10.5332 11.7468 10.9532 12.1668 11.4732 12.1668C11.9932 12.1668 12.4132 11.7468 12.4132 11.2268C12.4132 10.7068 11.9932 10.2868 11.4732 10.2868Z" fill="currentColor"/>
</svg>
