<svg width="16" height="16" viewBox="0 0 16 16" fill="none" xmlns="http://www.w3.org/2000/svg">
<g clip-path="url(#clip0_2_5026)">
<path d="M7.99998 15.1667C4.04665 15.1667 0.833313 11.9533 0.833313 8C0.833313 4.04667 4.04665 0.833333 7.99998 0.833333C11.9533 0.833333 15.1666 4.04667 15.1666 8C15.1666 11.9533 11.9533 15.1667 7.99998 15.1667ZM7.99998 1.83333C4.59998 1.83333 1.83331 4.6 1.83331 8C1.83331 11.4 4.59998 14.1667 7.99998 14.1667C11.4 14.1667 14.1666 11.4 14.1666 8C14.1666 4.6 11.4 1.83333 7.99998 1.83333Z" fill="currentColor"/>
<path d="M7.99998 8.66667C7.62665 8.66667 7.33331 8.36667 7.33331 8C7.33331 7.63333 7.63331 7.33333 7.99998 7.33333C8.36665 7.33333 8.66665 7.63333 8.66665 8C8.66665 8.36667 8.37331 8.66667 7.99998 8.66667Z" fill="currentColor"/>
<path d="M10.6666 8.66667C10.2933 8.66667 9.99998 8.36667 9.99998 8C9.99998 7.63333 10.3 7.33333 10.6666 7.33333C11.0333 7.33333 11.3333 7.63333 11.3333 8C11.3333 8.36667 11.04 8.66667 10.6666 8.66667Z" fill="currentColor"/>
<path d="M5.33331 8.66667C4.95998 8.66667 4.66665 8.36667 4.66665 8C4.66665 7.63333 4.96665 7.33333 5.33331 7.33333C5.69998 7.33333 5.99998 7.63333 5.99998 8C5.99998 8.36667 5.70665 8.66667 5.33331 8.66667Z" fill="currentColor"/>
</g>
<defs>
<clipPath id="clip0_2_5026">
<rect width="16" height="16" fill="currentColor"/>
</clipPath>
</defs>
</svg>
