<svg width="16" height="16" viewBox="0 0 16 16" fill="none" xmlns="http://www.w3.org/2000/svg">
<g clip-path="url(#clip0_2_5335)">
<path d="M8.00001 15.1667H6.00001C2.38001 15.1667 0.833344 13.62 0.833344 10V6C0.833344 2.38 2.38001 0.833333 6.00001 0.833333H10C13.62 0.833333 15.1667 2.38 15.1667 6V8C15.1667 8.27333 14.94 8.5 14.6667 8.5C14.3933 8.5 14.1667 8.27333 14.1667 8V6C14.1667 2.92667 13.0733 1.83333 10 1.83333H6.00001C2.92668 1.83333 1.83334 2.92667 1.83334 6V10C1.83334 13.0733 2.92668 14.1667 6.00001 14.1667H8.00001C8.27334 14.1667 8.50001 14.3933 8.50001 14.6667C8.50001 14.94 8.27334 15.1667 8.00001 15.1667Z" fill="currentColor"/>
<path d="M10.9128 15.18C10.9061 15.18 10.9061 15.18 10.8995 15.18C10.2261 15.1733 9.66614 14.76 9.46614 14.1133L8.23281 10.1467C8.06614 9.6 8.20614 9.01333 8.61281 8.62C9.01281 8.22667 9.59281 8.08 10.1261 8.24667L14.0995 9.48C14.7395 9.68 15.1595 10.24 15.1661 10.9133C15.1728 11.58 14.7661 12.1467 14.1261 12.36L13.0395 12.7267C12.8861 12.78 12.7661 12.8933 12.7195 13.0467L12.3461 14.14C12.1395 14.7733 11.5795 15.18 10.9128 15.18ZM9.67281 9.18C9.49281 9.18 9.37281 9.28 9.31948 9.32667C9.17948 9.46667 9.13281 9.66 9.19281 9.85333L10.4261 13.82C10.5328 14.16 10.8128 14.1733 10.9195 14.18C11.0128 14.18 11.2995 14.1533 11.4061 13.8267L11.7795 12.7333C11.9261 12.2867 12.2861 11.9333 12.7328 11.78L13.8195 11.4133C14.1528 11.3067 14.1728 11.0133 14.1728 10.9267C14.1728 10.84 14.1461 10.5467 13.8128 10.44L9.83948 9.20667C9.77281 9.18667 9.71948 9.18 9.67281 9.18Z" fill="currentColor"/>
</g>
<defs>
<clipPath id="clip0_2_5335">
<rect width="16" height="16" fill="currentColor"/>
</clipPath>
</defs>
</svg>
