<svg width="16" height="16" viewBox="0 0 16 16" fill="none" xmlns="http://www.w3.org/2000/svg">
<path d="M8 15.1667C4.96667 15.1667 2.5 12.7 2.5 9.66667V6.33333C2.5 3.3 4.96667 0.833333 8 0.833333C11.0333 0.833333 13.5 3.3 13.5 6.33333V9.66667C13.5 12.7 11.0333 15.1667 8 15.1667ZM8 1.83333C5.52 1.83333 3.5 3.85333 3.5 6.33333V9.66667C3.5 12.1467 5.52 14.1667 8 14.1667C10.48 14.1667 12.5 12.1467 12.5 9.66667V6.33333C12.5 3.85333 10.48 1.83333 8 1.83333Z" fill="currentColor"/>
<path d="M8 7.83333C7.17333 7.83333 6.5 7.16 6.5 6.33333V5C6.5 4.17333 7.17333 3.5 8 3.5C8.82667 3.5 9.5 4.17333 9.5 5V6.33333C9.5 7.16 8.82667 7.83333 8 7.83333ZM8 4.5C7.72667 4.5 7.5 4.72667 7.5 5V6.33333C7.5 6.60667 7.72667 6.83333 8 6.83333C8.27333 6.83333 8.5 6.60667 8.5 6.33333V5C8.5 4.72667 8.27333 4.5 8 4.5Z" fill="currentColor"/>
<path d="M8 4.5C7.72667 4.5 7.5 4.27333 7.5 4V1.33333C7.5 1.06 7.72667 0.833333 8 0.833333C8.27333 0.833333 8.5 1.06 8.5 1.33333V4C8.5 4.27333 8.27333 4.5 8 4.5Z" fill="currentColor"/>
</svg>
