<svg width="16" height="16" viewBox="0 0 16 16" fill="none" xmlns="http://www.w3.org/2000/svg">
<g clip-path="url(#clip0_2_4733)">
<path d="M7.54068 12C7.53401 12 7.53401 12 7.52734 12C6.83401 11.9933 6.24732 11.56 6.04065 10.9L4.74066 6.71333C4.56732 6.14665 4.71398 5.53998 5.13398 5.12665C5.54732 4.71331 6.14732 4.56663 6.70734 4.73997L10.9007 6.03998C11.5673 6.24665 12.0007 6.83333 12.0073 7.52667C12.014 8.22 11.594 8.80667 10.934 9.02667L9.78734 9.41333C9.61401 9.47333 9.48734 9.6 9.42734 9.76667L9.03401 10.92C8.81401 11.58 8.22734 12 7.54068 12ZM6.22732 5.66665C6.02732 5.66665 5.89398 5.77331 5.83398 5.83331C5.68065 5.98665 5.62732 6.20664 5.69398 6.41331L6.99401 10.6C7.10734 10.9667 7.43401 11 7.53401 11C7.61401 10.9933 7.95401 10.9733 8.07401 10.6067L8.46734 9.45333C8.62068 8.99333 8.99401 8.62 9.45401 8.46667L10.6007 8.08C10.6007 8.08 10.6007 8.08 10.6073 8.08C10.974 7.96 11.0007 7.63333 11.0007 7.54C11.0007 7.44 10.9673 7.11333 10.6007 7L6.40732 5.69997C6.34066 5.67331 6.28065 5.66665 6.22732 5.66665Z" fill="currentColor"/>
<path d="M8.00001 15.1667C4.04668 15.1667 0.833344 11.9533 0.833344 8C0.833344 4.04667 4.04668 0.833333 8.00001 0.833333C11.9533 0.833333 15.1667 4.04667 15.1667 8C15.1667 11.9533 11.9533 15.1667 8.00001 15.1667ZM8.00001 1.83333C4.60001 1.83333 1.83334 4.6 1.83334 8C1.83334 11.4 4.60001 14.1667 8.00001 14.1667C11.4 14.1667 14.1667 11.4 14.1667 8C14.1667 4.6 11.4 1.83333 8.00001 1.83333Z" fill="currentColor"/>
</g>
<defs>
<clipPath id="clip0_2_4733">
<rect width="16" height="16" fill="currentColor"/>
</clipPath>
</defs>
</svg>
