<svg width="16" height="16" viewBox="0 0 16 16" fill="none" xmlns="http://www.w3.org/2000/svg">
<g clip-path="url(#clip0_2_5343)">
<path d="M11.3333 15.1667H4.66666C2.23333 15.1667 0.833328 13.7667 0.833328 11.3333V8.66667C0.833328 6.26667 2.11335 5.37333 3.18668 5.04C3.62001 4.9 4.11999 4.83333 4.66666 4.83333H11.3333C11.88 4.83333 12.38 4.90667 12.82 5.04667C13.8867 5.37334 15.1667 6.27333 15.1667 8.66667V11.3333C15.1667 13.7667 13.7667 15.1667 11.3333 15.1667ZM4.66666 5.83333C4.22666 5.83333 3.82665 5.88667 3.48665 6C2.37331 6.34 1.83333 7.21333 1.83333 8.66667V11.3333C1.83333 13.24 2.75999 14.1667 4.66666 14.1667H11.3333C13.24 14.1667 14.1667 13.24 14.1667 11.3333V8.66667C14.1667 7.21333 13.6267 6.34 12.52 6C12.1733 5.88667 11.7733 5.83333 11.3333 5.83333H4.66666Z" fill="currentColor"/>
<path d="M12.6667 6.02002C12.6133 6.02002 12.5667 6.01333 12.5133 5.99333C12.1733 5.88666 11.7733 5.82666 11.3333 5.82666H4.66666C4.22666 5.82666 3.82665 5.87999 3.48665 5.99333C3.33331 6.03999 3.16666 6.01333 3.03999 5.92C2.91333 5.82667 2.83333 5.67335 2.83333 5.51335V4.66667C2.83333 3.65333 3.65333 2.83333 4.66666 2.83333H11.3333C12.3467 2.83333 13.1667 3.65333 13.1667 4.66667V5.52002C13.1667 5.68002 13.0933 5.82667 12.96 5.92667C12.8733 5.98667 12.7733 6.02002 12.6667 6.02002ZM4.66666 3.83333C4.20666 3.83333 3.83333 4.20667 3.83333 4.66667V4.89335C4.09333 4.85335 4.37333 4.83333 4.66666 4.83333H11.3333C11.6267 4.83333 11.9067 4.85335 12.1667 4.89335V4.66667C12.1667 4.20667 11.7933 3.83333 11.3333 3.83333H4.66666Z" fill="currentColor"/>
<path d="M10.6667 3.83333H5.33333C5.05999 3.83333 4.83333 3.60667 4.83333 3.33333V2.34001C4.83333 1.50667 5.50667 0.833333 6.34 0.833333H9.65999C10.4933 0.833333 11.1667 1.50667 11.1667 2.34001V3.33333C11.1667 3.60667 10.94 3.83333 10.6667 3.83333ZM5.83333 2.83333H10.1667V2.34001C10.1667 2.06001 9.93999 1.83333 9.65999 1.83333H6.34C6.06 1.83333 5.83333 2.06001 5.83333 2.34001V2.83333Z" fill="currentColor"/>
<path d="M6.04667 13.4735C5.28667 13.4735 4.66666 12.8535 4.66666 12.0935C4.66666 11.3335 5.28667 10.7135 6.04667 10.7135C6.80666 10.7135 7.42666 11.3335 7.42666 12.0935C7.42666 12.8535 6.81333 13.4735 6.04667 13.4735ZM6.04667 11.7069C5.83333 11.7069 5.66666 11.8802 5.66666 12.0869C5.66666 12.2935 5.84 12.4669 6.04667 12.4669C6.25333 12.4669 6.42667 12.2935 6.42667 12.0869C6.42667 11.8802 6.26 11.7069 6.04667 11.7069Z" fill="currentColor"/>
<path d="M6.93359 12.5865C6.66025 12.5865 6.43359 12.3599 6.43359 12.0865V8.5332C6.43359 7.95987 6.79359 7.4932 7.34693 7.33987L9.11353 6.85987C9.68019 6.70653 10.0403 6.8532 10.2403 7.00653C10.4403 7.15987 10.6736 7.45987 10.6736 8.04653V11.4932C10.6736 11.7665 10.4469 11.9932 10.1736 11.9932C9.90026 11.9932 9.67359 11.7665 9.67359 11.4932V8.04653C9.67359 7.87987 9.64026 7.8132 9.62693 7.79987C9.61359 7.7932 9.53359 7.77987 9.37359 7.81987L7.60686 8.29987C7.45353 8.33987 7.43359 8.43987 7.43359 8.52653V12.0799C7.43359 12.3665 7.20693 12.5865 6.93359 12.5865Z" fill="currentColor"/>
<path d="M9.28626 12.8798C8.52626 12.8798 7.90626 12.2598 7.90626 11.4998C7.90626 10.7398 8.52626 10.1198 9.28626 10.1198C10.0463 10.1198 10.6663 10.7398 10.6663 11.4998C10.6663 12.2598 10.0463 12.8798 9.28626 12.8798ZM9.28626 11.1198C9.07293 11.1198 8.90626 11.2931 8.90626 11.4998C8.90626 11.7065 9.07959 11.8798 9.28626 11.8798C9.49293 11.8798 9.66626 11.7065 9.66626 11.4998C9.66626 11.2931 9.49293 11.1198 9.28626 11.1198Z" fill="currentColor"/>
<path d="M6.93273 10.0666C6.71273 10.0666 6.5127 9.91993 6.4527 9.69993C6.37937 9.43327 6.53939 9.15993 6.80606 9.0866L10.0394 8.2066C10.3061 8.13327 10.5793 8.29327 10.6527 8.55993C10.726 8.8266 10.5661 9.09993 10.2994 9.17327L7.06599 10.0533C7.01933 10.0599 6.97273 10.0666 6.93273 10.0666Z" fill="currentColor"/>
</g>
<defs>
<clipPath id="clip0_2_5343">
<rect width="16" height="16" fill="currentColor"/>
</clipPath>
</defs>
</svg>
