<svg width="16" height="16" viewBox="0 0 16 16" fill="none" xmlns="http://www.w3.org/2000/svg">
<g clip-path="url(#clip0_2_5381)">
<path d="M1.71976 6.28015C1.66642 6.28015 1.60642 6.2735 1.55309 6.2535C1.29309 6.16017 1.15976 5.87349 1.24643 5.61349C1.6931 4.36015 2.46644 3.26017 3.49977 2.42684C3.7131 2.25351 4.02642 2.28683 4.19976 2.50017C4.37309 2.7135 4.33977 3.02683 4.12644 3.20683C3.23977 3.92017 2.5731 4.86682 2.1931 5.94682C2.11977 6.15349 1.92642 6.28015 1.71976 6.28015Z" fill="currentColor"/>
<path d="M1.72 10.72C1.51334 10.72 1.32001 10.5933 1.24668 10.3867C0.973344 9.60667 0.833344 8.80667 0.833344 8C0.833344 7.72667 1.06001 7.5 1.33334 7.5C1.60668 7.5 1.83334 7.72667 1.83334 8C1.83334 8.69333 1.95335 9.38667 2.19335 10.0533C2.28668 10.3133 2.14667 10.6 1.88667 10.6933C1.83334 10.7133 1.77334 10.72 1.72 10.72Z" fill="currentColor"/>
<path d="M8.00041 15.1667C7.29374 15.1667 6.59374 15.0601 5.91374 14.8534C5.64707 14.7734 5.5004 14.4934 5.5804 14.2267C5.6604 13.9601 5.94041 13.8134 6.20708 13.8934C6.78708 14.0734 7.39374 14.16 8.00041 14.16C11.4004 14.16 14.1671 11.3933 14.1671 7.99333C14.1671 7.64667 14.1337 7.28667 14.0671 6.90667C14.0204 6.63336 14.2004 6.37336 14.4737 6.32669C14.7471 6.28003 15.0071 6.46002 15.0537 6.73333C15.1337 7.17333 15.1737 7.58673 15.1737 8.00007C15.1671 11.9534 11.9537 15.1667 8.00041 15.1667Z" fill="currentColor"/>
<path d="M3.81349 13.6667C3.70016 13.6667 3.59349 13.6334 3.50016 13.5534C3.12016 13.2467 2.81348 12.9533 2.55348 12.6533C2.37348 12.4467 2.40016 12.1267 2.60682 11.9467C2.81349 11.7667 3.13349 11.7934 3.31349 12.0001C3.53349 12.2534 3.80016 12.5067 4.12682 12.7733C4.34016 12.9467 4.37348 13.2601 4.20015 13.4734C4.10682 13.6001 3.96016 13.6667 3.81349 13.6667Z" fill="currentColor"/>
<path d="M13.4936 4.72669C13.3336 4.72669 13.1803 4.65334 13.0803 4.50667C11.9269 2.82667 10.0269 1.82666 8.00028 1.82666C7.39361 1.82666 6.78694 1.91334 6.20694 2.09334C5.94694 2.17334 5.66694 2.02667 5.58028 1.76001C5.49361 1.49334 5.64694 1.21334 5.91361 1.13334C6.59361 0.926673 7.29361 0.819987 8.00028 0.819987C10.3603 0.819987 12.5669 1.98668 13.9069 3.93335C14.0603 4.16001 14.0069 4.47333 13.7803 4.62667C13.6936 4.7 13.5936 4.72669 13.4936 4.72669Z" fill="currentColor"/>
<path d="M5.72668 11.9065C4.86668 11.9065 4.16668 11.2065 4.16668 10.3465C4.16668 9.48647 4.86668 8.78647 5.72668 8.78647C6.58668 8.78647 7.28668 9.48647 7.28668 10.3465C7.28668 11.2065 6.58668 11.9065 5.72668 11.9065ZM5.72668 9.78647C5.42001 9.78647 5.16668 10.0398 5.16668 10.3465C5.16668 10.6531 5.42001 10.9065 5.72668 10.9065C6.03334 10.9065 6.28667 10.6531 6.28667 10.3465C6.28667 10.0398 6.03334 9.78647 5.72668 9.78647Z" fill="currentColor"/>
<path d="M6.78648 10.8465C6.51314 10.8465 6.28667 10.6198 6.28667 10.3465L6.28647 6.07981C6.28647 5.43981 6.68648 4.91315 7.30648 4.74648L9.42648 4.16648C10.0665 3.99315 10.4665 4.15981 10.6865 4.32647C11.0065 4.57314 11.1665 4.96648 11.1665 5.49981V9.6398C11.1665 9.91313 10.9398 10.1398 10.6665 10.1398C10.3931 10.1398 10.1665 9.91313 10.1665 9.6398V5.49981C10.1665 5.27315 10.1198 5.15315 10.0731 5.12648C10.0265 5.09315 9.88648 5.07982 9.67981 5.13315L7.55981 5.71315C7.37314 5.76649 7.27981 5.88648 7.27981 6.07981V10.3465C7.28648 10.6198 7.05981 10.8465 6.78648 10.8465Z" fill="currentColor"/>
<path d="M9.60688 11.2001C8.74688 11.2001 8.04688 10.5001 8.04688 9.64007C8.04688 8.78007 8.74688 8.08007 9.60688 8.08007C10.4669 8.08007 11.1665 8.7798 11.1665 9.6398C11.1665 10.4998 10.4669 11.2001 9.60688 11.2001ZM9.60688 9.08007C9.30021 9.08007 9.04688 9.3334 9.04688 9.64007C9.04688 9.94673 9.30021 10.2001 9.60688 10.2001C9.91354 10.2001 10.1665 9.94647 10.1665 9.6398C10.1665 9.33313 9.91354 9.08007 9.60688 9.08007Z" fill="currentColor"/>
<path d="M6.78688 7.66653C6.56688 7.66653 6.36688 7.51987 6.30688 7.29987C6.23355 7.0332 6.39355 6.75987 6.66022 6.68653L10.5402 5.62654C10.8069 5.55321 11.0802 5.71318 11.1535 5.97985C11.2269 6.24651 11.0669 6.51988 10.8002 6.59321L6.92021 7.6532C6.87354 7.66653 6.82688 7.66653 6.78688 7.66653Z" fill="currentColor"/>
</g>
<defs>
<clipPath id="clip0_2_5381">
<rect width="16" height="16" fill="currentColor"/>
</clipPath>
</defs>
</svg>
