<svg width="16" height="16" viewBox="0 0 16 16" fill="none" xmlns="http://www.w3.org/2000/svg">
<g clip-path="url(#clip0_2_4759)">
<path d="M10 15.1667H6C2.38 15.1667 0.833333 13.62 0.833333 10V6C0.833333 2.38 2.38 0.833333 6 0.833333H10C13.62 0.833333 15.1667 2.38 15.1667 6V10C15.1667 13.62 13.62 15.1667 10 15.1667ZM6 1.83333C2.92667 1.83333 1.83333 2.92667 1.83333 6V10C1.83333 13.0733 2.92667 14.1667 6 14.1667H10C13.0733 14.1667 14.1667 13.0733 14.1667 10V6C14.1667 2.92667 13.0733 1.83333 10 1.83333H6Z" fill="currentColor"/>
<path d="M5.61308 11.9065C4.75975 11.9065 4.06641 11.2131 4.06641 10.3598C4.06641 9.50647 4.75975 8.81313 5.61308 8.81313C6.46641 8.81313 7.15973 9.50647 7.15973 10.3598C7.15973 11.2131 6.46641 11.9065 5.61308 11.9065ZM5.61308 9.81313C5.31308 9.81313 5.06641 10.0598 5.06641 10.3598C5.06641 10.6598 5.31308 10.9065 5.61308 10.9065C5.91308 10.9065 6.15975 10.6598 6.15975 10.3598C6.15975 10.0598 5.91308 9.81313 5.61308 9.81313Z" fill="currentColor"/>
<path d="M6.66015 10.8601C6.38682 10.8601 6.15975 10.6331 6.15975 10.3598L6.16015 6.14007C6.16015 5.50007 6.56017 4.98004 7.17353 4.81337L9.26687 4.24005C9.9002 4.06671 10.3002 4.23337 10.5202 4.40004C10.8402 4.64671 11.0001 5.03341 11.0001 5.56007V9.6534C11.0001 9.92673 10.7735 10.1534 10.5001 10.1534C10.2268 10.1534 10.0001 9.92673 10.0001 9.6534V5.56007C10.0001 5.34007 9.95347 5.22004 9.91347 5.19337C9.88013 5.16671 9.76013 5.14005 9.5268 5.20005L7.43353 5.77337C7.24687 5.82671 7.16013 5.94007 7.16013 6.1334V10.3534C7.16013 10.6334 6.93347 10.8601 6.66015 10.8601Z" fill="currentColor"/>
<path d="M9.45293 11.2066C8.5996 11.2066 7.90627 10.5133 7.90627 9.65993C7.90627 8.8066 8.5996 8.11327 9.45293 8.11327C10.3063 8.11327 10.9996 8.8066 10.9996 9.65993C10.9996 10.5133 10.3063 11.2066 9.45293 11.2066ZM9.45293 9.11327C9.15293 9.11327 8.90627 9.35993 8.90627 9.65993C8.90627 9.95993 9.15293 10.2066 9.45293 10.2066C9.75293 10.2066 9.9996 9.95993 9.9996 9.65993C9.9996 9.35993 9.75293 9.11327 9.45293 9.11327Z" fill="currentColor"/>
<path d="M6.65925 7.8602C6.43925 7.8602 6.23927 7.71353 6.17927 7.49353C6.10594 7.22687 6.26592 6.9536 6.53259 6.88027L10.3726 5.83357C10.6459 5.76023 10.9126 5.92025 10.9859 6.18692C11.0593 6.45359 10.8993 6.72693 10.6326 6.80027L6.7926 7.84693C6.74593 7.8536 6.69927 7.8602 6.65925 7.8602Z" fill="currentColor"/>
</g>
<defs>
<clipPath id="clip0_2_4759">
<rect width="16" height="16" fill="currentColor"/>
</clipPath>
</defs>
</svg>
