<svg width="16" height="16" viewBox="0 0 16 16" fill="none" xmlns="http://www.w3.org/2000/svg">
<path d="M14.6667 2.5H1.33333C1.05999 2.5 0.833328 2.27333 0.833328 2C0.833328 1.72667 1.05999 1.5 1.33333 1.5H14.6667C14.94 1.5 15.1667 1.72667 15.1667 2C15.1667 2.27333 14.94 2.5 14.6667 2.5Z" fill="currentColor"/>
<path d="M7.33333 6.5H1.33333C1.05999 6.5 0.833328 6.27333 0.833328 6C0.833328 5.72667 1.05999 5.5 1.33333 5.5H7.33333C7.60666 5.5 7.83333 5.72667 7.83333 6C7.83333 6.27333 7.60666 6.5 7.33333 6.5Z" fill="currentColor"/>
<path d="M5.33333 10.5H1.33333C1.05999 10.5 0.833328 10.2733 0.833328 10C0.833328 9.72667 1.05999 9.5 1.33333 9.5H5.33333C5.60666 9.5 5.83333 9.72667 5.83333 10C5.83333 10.2733 5.60666 10.5 5.33333 10.5Z" fill="currentColor"/>
<path d="M3.99999 14.5H1.33333C1.05999 14.5 0.833328 14.2733 0.833328 14C0.833328 13.7267 1.05999 13.5 1.33333 13.5H3.99999C4.27333 13.5 4.49999 13.7267 4.49999 14C4.49999 14.2733 4.27333 14.5 3.99999 14.5Z" fill="currentColor"/>
<path d="M7.89346 15.1667C6.82013 15.1667 5.9401 14.2934 5.9401 13.2134C5.9401 12.1401 6.81346 11.2601 7.89346 11.2601C8.97346 11.2601 9.84679 12.1334 9.84679 13.2134C9.84679 14.2934 8.97346 15.1667 7.89346 15.1667ZM7.89346 12.2667C7.36679 12.2667 6.94013 12.6934 6.94013 13.2201C6.94013 13.7467 7.36679 14.1734 7.89346 14.1734C8.42013 14.1734 8.84679 13.7467 8.84679 13.2201C8.84679 12.6934 8.42013 12.2667 7.89346 12.2667Z" fill="currentColor"/>
<path d="M9.34633 13.7135C9.07299 13.7135 8.84633 13.4869 8.84633 13.2135V7.36687C8.84633 6.56021 9.32633 5.92689 10.1063 5.72023L13.0063 4.92689C13.6397 4.75356 14.1863 4.82021 14.573 5.12021C14.9597 5.42021 15.1597 5.90688 15.1597 6.58021V12.2535C15.1597 12.5269 14.933 12.7535 14.6597 12.7535C14.3863 12.7535 14.1597 12.5269 14.1597 12.2535V6.58021C14.1597 6.24688 14.093 6.01355 13.9663 5.92022C13.8397 5.82022 13.5797 5.81353 13.2663 5.9002L10.3663 6.69353C10.173 6.74687 9.84633 6.90687 9.84633 7.3802V13.2269C9.84633 13.4935 9.61966 13.7135 9.34633 13.7135Z" fill="currentColor"/>
<path d="M13.2137 14.1999C12.1404 14.1999 11.2604 13.3266 11.2604 12.2466C11.2604 11.1733 12.1337 10.2933 13.2137 10.2933C14.2937 10.2933 15.1671 11.1666 15.1671 12.2466C15.1671 13.3266 14.2937 14.1999 13.2137 14.1999ZM13.2137 11.3C12.6871 11.3 12.2604 11.7266 12.2604 12.2533C12.2604 12.7799 12.6871 13.2066 13.2137 13.2066C13.7404 13.2066 14.1671 12.7799 14.1671 12.2533C14.1671 11.7266 13.7404 11.3 13.2137 11.3Z" fill="currentColor"/>
<path d="M9.34679 9.56667C9.12679 9.56667 8.9268 9.42 8.86679 9.2C8.79346 8.93333 8.95346 8.66007 9.22013 8.58673L14.5401 7.1334C14.8068 7.06007 15.0801 7.22 15.1535 7.48667C15.2268 7.75333 15.0668 8.02673 14.8001 8.10007L9.48013 9.5534C9.43346 9.56007 9.38679 9.56667 9.34679 9.56667Z" fill="currentColor"/>
</svg>
