<svg width="16" height="16" viewBox="0 0 16 16" fill="none" xmlns="http://www.w3.org/2000/svg">
<g clip-path="url(#clip0_2_5040)">
<path d="M9.56667 14.5H5.76666C2.30666 14.5 0.833334 13.0267 0.833334 9.56667V5.76668C0.833334 2.30668 2.30666 0.833333 5.76666 0.833333H9.56667C13.0267 0.833333 14.5 2.30668 14.5 5.76668V9.56667C14.5 9.80667 14.4933 10.0333 14.48 10.2533C14.4667 10.4533 14.3333 10.6267 14.14 10.6933C13.9467 10.76 13.74 10.7 13.6 10.5533C13.2 10.1 12.6133 9.83333 11.9933 9.83333C10.8 9.83333 9.82667 10.8067 9.82667 12C9.82667 12.3933 9.93333 12.78 10.14 13.1133C10.2467 13.3 10.3867 13.4667 10.5467 13.6067C10.7 13.74 10.76 13.9533 10.6933 14.14C10.6267 14.3333 10.4533 14.4667 10.2533 14.48C10.04 14.4933 9.81333 14.5 9.56667 14.5ZM5.76666 1.83333C2.85999 1.83333 1.83333 2.86001 1.83333 5.76668V9.56667C1.83333 12.4733 2.85999 13.5 5.76666 13.5H9.21333C8.96667 13.0467 8.83333 12.5333 8.83333 12C8.83333 10.2533 10.2533 8.83333 12 8.83333C12.5333 8.83333 13.0467 8.96667 13.5 9.20667V5.76668C13.5 2.86001 12.4733 1.83333 9.56667 1.83333H5.76666Z" fill="currentColor"/>
<path d="M4.47969 10.1133C3.67302 10.1133 3.01302 9.45333 3.01302 8.64667C3.01302 7.84 3.67302 7.18 4.47969 7.18C5.28635 7.18 5.94635 7.84 5.94635 8.64667C5.94635 9.45333 5.28635 10.1133 4.47969 10.1133ZM4.47969 8.18C4.22635 8.18 4.01302 8.38667 4.01302 8.64667C4.01302 8.9 4.21969 9.11333 4.47969 9.11333C4.73969 9.11333 4.94635 8.90667 4.94635 8.64667C4.94635 8.38667 4.73969 8.18 4.47969 8.18Z" fill="currentColor"/>
<path d="M5.44661 9.1466C5.17328 9.1466 4.94635 8.92 4.94635 8.64667L4.94661 4.75995C4.94661 4.15329 5.32661 3.65995 5.90661 3.49995L7.83993 2.97329C8.43993 2.80663 8.81993 2.96661 9.0266 3.12661C9.23327 3.28661 9.4866 3.60663 9.4866 4.22663V7.99993C9.4866 8.27327 9.25993 8.49993 8.9866 8.49993C8.71327 8.49993 8.4866 8.27327 8.4866 7.99993V4.22663C8.4866 4.01329 8.43993 3.93328 8.41993 3.91995C8.39993 3.90661 8.3066 3.87996 8.09993 3.93329L6.17328 4.45995C5.97328 4.51328 5.94661 4.65328 5.94661 4.75328V8.63993C5.94661 8.91993 5.71995 9.1466 5.44661 9.1466Z" fill="currentColor"/>
<path d="M8.02007 9.46653C7.2134 9.46653 6.55339 8.80653 6.55339 7.99987C6.55339 7.1932 7.2134 6.5332 8.02007 6.5332C8.82673 6.5332 9.4866 7.19327 9.4866 7.99993C9.4866 8.81327 8.82673 9.46653 8.02007 9.46653ZM8.02007 7.53987C7.76673 7.53987 7.5534 7.74653 7.5534 8.00653C7.5534 8.25987 7.76007 8.4732 8.02007 8.4732C8.28007 8.4732 8.48673 8.26653 8.48673 8.00653C8.48673 7.74653 8.2734 7.53987 8.02007 7.53987Z" fill="currentColor"/>
<path d="M5.44703 6.38672C5.22703 6.38672 5.02703 6.24006 4.96703 6.02006C4.8937 5.75339 5.05369 5.48003 5.32036 5.4067L8.86033 4.44002C9.127 4.37335 9.4004 4.52671 9.47373 4.79337C9.54707 5.06004 9.387 5.33337 9.12033 5.4067L5.58036 6.37337C5.53369 6.38004 5.48703 6.38672 5.44703 6.38672Z" fill="currentColor"/>
<path d="M12 15.1667C10.8933 15.1667 9.85333 14.58 9.29333 13.6267C8.99333 13.1467 8.83333 12.58 8.83333 12C8.83333 10.2533 10.2533 8.83333 12 8.83333C13.7467 8.83333 15.1667 10.2533 15.1667 12C15.1667 12.58 15.0067 13.1467 14.7067 13.6333C14.1467 14.58 13.1067 15.1667 12 15.1667ZM12 9.83333C10.8067 9.83333 9.83333 10.8067 9.83333 12C9.83333 12.3933 9.94 12.78 10.1467 13.1133C10.54 13.78 11.2333 14.1667 12 14.1667C12.7667 14.1667 13.46 13.7733 13.8533 13.12C14.06 12.78 14.1667 12.4 14.1667 12C14.1667 10.8067 13.1933 9.83333 12 9.83333Z" fill="currentColor"/>
<path d="M12.9933 12.4867H11C10.7267 12.4867 10.5 12.26 10.5 11.9867C10.5 11.7133 10.7267 11.4867 11 11.4867H12.9933C13.2667 11.4867 13.4933 11.7133 13.4933 11.9867C13.4933 12.26 13.2733 12.4867 12.9933 12.4867Z" fill="currentColor"/>
<path d="M12 13.5067C11.7267 13.5067 11.5 13.28 11.5 13.0067V11.0133C11.5 10.74 11.7267 10.5133 12 10.5133C12.2733 10.5133 12.5 10.74 12.5 11.0133V13.0067C12.5 13.2867 12.2733 13.5067 12 13.5067Z" fill="currentColor"/>
</g>
<defs>
<clipPath id="clip0_2_5040">
<rect width="16" height="16" fill="currentColor"/>
</clipPath>
</defs>
</svg>
