<svg width="16" height="16" viewBox="0 0 16 16" fill="none" xmlns="http://www.w3.org/2000/svg">
<g clip-path="url(#clip0_2_5323)">
<path d="M9.99999 15.1667H5.99999C2.37999 15.1667 0.833328 13.62 0.833328 10V6C0.833328 2.38 2.37999 0.833333 5.99999 0.833333H9.99999C13.62 0.833333 15.1667 2.38 15.1667 6V10C15.1667 13.62 13.62 15.1667 9.99999 15.1667ZM5.99999 1.83333C2.92666 1.83333 1.83333 2.92667 1.83333 6V10C1.83333 13.0733 2.92666 14.1667 5.99999 14.1667H9.99999C13.0733 14.1667 14.1667 13.0733 14.1667 10V6C14.1667 2.92667 13.0733 1.83333 9.99999 1.83333H5.99999Z" fill="currentColor"/>
<path d="M4.66666 14.8333C4.39333 14.8333 4.16666 14.6067 4.16666 14.3333V1.66667C4.16666 1.39333 4.39333 1.16667 4.66666 1.16667C4.93999 1.16667 5.16666 1.39333 5.16666 1.66667V14.3333C5.16666 14.6067 4.93999 14.8333 4.66666 14.8333Z" fill="currentColor"/>
<path d="M7.64699 11.7002C6.82033 11.7002 6.15364 11.0269 6.15364 10.2069C6.15364 9.38687 6.82699 8.71353 7.64699 8.71353C8.46699 8.71353 9.14033 9.38687 9.14033 10.2069C9.14033 11.0269 8.46699 11.7002 7.64699 11.7002ZM7.64699 9.70687C7.37366 9.70687 7.15366 9.92687 7.15366 10.2002C7.15366 10.4735 7.37366 10.6935 7.64699 10.6935C7.92033 10.6935 8.14033 10.4735 8.14033 10.2002C8.14033 9.92687 7.91366 9.70687 7.64699 9.70687Z" fill="currentColor"/>
<path d="M8.64059 10.7067C8.36726 10.7067 8.14059 10.48 8.14059 10.2067V6.2C8.14059 5.58667 8.52726 5.08001 9.12059 4.92001L11.1073 4.38001C11.7206 4.21335 12.1073 4.37334 12.3206 4.54001C12.6273 4.77334 12.7873 5.15334 12.7873 5.66667V9.55333C12.7873 9.82667 12.5606 10.0533 12.2873 10.0533C12.0139 10.0533 11.7873 9.82667 11.7873 9.55333V5.66667C11.7873 5.44667 11.7406 5.35335 11.7139 5.34001C11.6806 5.31335 11.5673 5.30003 11.3739 5.35336L9.38726 5.89336C9.22726 5.94003 9.14726 6.04001 9.14726 6.21335V10.22C9.14059 10.48 8.91393 10.7067 8.64059 10.7067Z" fill="currentColor"/>
<path d="M11.2863 11.0335C10.4597 11.0335 9.79299 10.3602 9.79299 9.5402C9.79299 8.71353 10.4663 8.04687 11.2863 8.04687C12.1063 8.04687 12.7797 8.7202 12.7797 9.5402C12.7863 10.3669 12.113 11.0335 11.2863 11.0335ZM11.2863 9.04687C11.013 9.04687 10.793 9.26687 10.793 9.5402C10.793 9.81353 11.013 10.0335 11.2863 10.0335C11.5597 10.0335 11.7797 9.81353 11.7797 9.5402C11.7797 9.26687 11.5597 9.04687 11.2863 9.04687Z" fill="currentColor"/>
<path d="M8.63973 7.85993C8.41973 7.85993 8.21973 7.71327 8.15973 7.49327C8.08639 7.2266 8.24639 6.95327 8.51306 6.87993L12.1597 5.88663C12.4264 5.81329 12.6997 5.97327 12.7731 6.23994C12.8464 6.50661 12.6864 6.78 12.4197 6.85333L8.77306 7.8466C8.72639 7.85327 8.67973 7.85993 8.63973 7.85993Z" fill="currentColor"/>
</g>
<defs>
<clipPath id="clip0_2_5323">
<rect width="16" height="16" fill="currentColor"/>
</clipPath>
</defs>
</svg>
