<svg width="16" height="16" viewBox="0 0 16 16" fill="none" xmlns="http://www.w3.org/2000/svg">
<g clip-path="url(#clip0_2_4731)">
<path d="M9.56667 14.5H5.76667C2.30667 14.5 0.833336 13.0267 0.833336 9.56667V5.76668C0.833336 2.30668 2.30667 0.833333 5.76667 0.833333H9.56667C13.0267 0.833333 14.5 2.30668 14.5 5.76668V9.56667C14.5 9.80667 14.4933 10.0333 14.48 10.2533C14.4667 10.4533 14.3333 10.6267 14.14 10.6933C13.9467 10.76 13.74 10.7 13.6 10.5533C13.2 10.1 12.6133 9.83333 11.9933 9.83333C10.8 9.83333 9.82667 10.8067 9.82667 12C9.82667 12.3933 9.93334 12.78 10.14 13.1133C10.2467 13.3 10.3867 13.4667 10.5467 13.6067C10.7 13.74 10.76 13.9533 10.6933 14.14C10.6267 14.3333 10.4533 14.4667 10.2533 14.48C10.04 14.4933 9.81334 14.5 9.56667 14.5ZM5.76667 1.83333C2.86 1.83333 1.83334 2.86001 1.83334 5.76668V9.56667C1.83334 12.4733 2.86 13.5 5.76667 13.5H9.21334C8.96667 13.0467 8.83334 12.5333 8.83334 12C8.83334 10.2533 10.2533 8.83333 12 8.83333C12.5333 8.83333 13.0467 8.96667 13.5 9.20667V5.76668C13.5 2.86001 12.4733 1.83333 9.56667 1.83333H5.76667Z" fill="currentColor"/>
<path d="M4.4797 10.1133C3.67303 10.1133 3.01302 9.45333 3.01302 8.64667C3.01302 7.84 3.67303 7.18 4.4797 7.18C5.28636 7.18 5.94636 7.84 5.94636 8.64667C5.94636 9.45333 5.28636 10.1133 4.4797 10.1133ZM4.4797 8.18C4.22636 8.18 4.01302 8.38667 4.01302 8.64667C4.01302 8.9 4.2197 9.11333 4.4797 9.11333C4.7397 9.11333 4.94636 8.90667 4.94636 8.64667C4.94636 8.38667 4.7397 8.18 4.4797 8.18Z" fill="currentColor"/>
<path d="M5.44662 9.1466C5.17328 9.1466 4.94636 8.92 4.94636 8.64667L4.94662 4.75995C4.94662 4.15329 5.32662 3.65995 5.90662 3.49995L7.83994 2.97329C8.43994 2.80663 8.81994 2.96661 9.0266 3.12661C9.23327 3.28661 9.4866 3.60663 9.4866 4.22663V7.99993C9.4866 8.27327 9.25994 8.49993 8.9866 8.49993C8.71327 8.49993 8.4866 8.27327 8.4866 7.99993V4.22663C8.4866 4.01329 8.43994 3.93328 8.41994 3.91995C8.39994 3.90661 8.29994 3.87996 8.09994 3.93329L6.17329 4.45995C5.97329 4.51328 5.94662 4.65328 5.94662 4.75328V8.63993C5.94662 8.91993 5.71995 9.1466 5.44662 9.1466Z" fill="currentColor"/>
<path d="M8.02007 9.46653C7.2134 9.46653 6.55339 8.80653 6.55339 7.99987C6.55339 7.1932 7.2134 6.5332 8.02007 6.5332C8.82674 6.5332 9.4866 7.19327 9.4866 7.99993C9.4866 8.81327 8.82674 9.46653 8.02007 9.46653ZM8.02007 7.53987C7.76674 7.53987 7.5534 7.74653 7.5534 8.00653C7.5534 8.25987 7.76007 8.4732 8.02007 8.4732C8.28007 8.4732 8.48674 8.26653 8.48674 8.00653C8.48674 7.74653 8.2734 7.53987 8.02007 7.53987Z" fill="currentColor"/>
<path d="M5.44704 6.38672C5.22704 6.38672 5.02704 6.24006 4.96704 6.02006C4.8937 5.75339 5.0537 5.48003 5.32037 5.4067L8.86034 4.44002C9.127 4.37335 9.40034 4.52671 9.47367 4.79337C9.547 5.06004 9.387 5.33337 9.12034 5.4067L5.58037 6.37337C5.5337 6.38004 5.48704 6.38672 5.44704 6.38672Z" fill="currentColor"/>
<path d="M12 15.1667C11.2133 15.1667 10.4667 14.8733 9.88667 14.3467C9.65334 14.1467 9.44667 13.9 9.28667 13.6267C8.99334 13.1467 8.83334 12.58 8.83334 12C8.83334 10.2533 10.2533 8.83333 12 8.83333C12.9067 8.83333 13.7667 9.22 14.3533 9.88667C14.8733 10.4667 15.1667 11.2133 15.1667 12C15.1667 12.58 15.0067 13.1467 14.7067 13.6333C14.1467 14.58 13.1067 15.1667 12 15.1667ZM12 9.83333C10.8067 9.83333 9.83333 10.8067 9.83333 12C9.83333 12.3933 9.94 12.78 10.1467 13.1133C10.2533 13.3 10.3933 13.4667 10.5533 13.6067C10.9533 13.9733 11.4667 14.1733 12 14.1733C12.7667 14.1733 13.46 13.78 13.8533 13.1267C14.06 12.7867 14.1667 12.4067 14.1667 12.0067C14.1667 11.4733 13.9667 10.96 13.6067 10.56C13.2067 10.0933 12.62 9.83333 12 9.83333Z" fill="currentColor"/>
<path d="M12.7136 13.1934C12.5869 13.1934 12.4603 13.1467 12.3603 13.0467L10.9536 11.6401C10.7603 11.4467 10.7603 11.1267 10.9536 10.9334C11.1469 10.7401 11.4669 10.7401 11.6603 10.9334L13.0669 12.3401C13.2603 12.5334 13.2603 12.8534 13.0669 13.0467C12.9669 13.1467 12.8403 13.1934 12.7136 13.1934Z" fill="currentColor"/>
<path d="M11.2874 13.2133C11.1607 13.2133 11.0341 13.1666 10.9341 13.0666C10.7407 12.8733 10.7407 12.5533 10.9341 12.3599L12.3407 10.9533C12.5341 10.7599 12.8541 10.7599 13.0474 10.9533C13.2407 11.1466 13.2407 11.4666 13.0474 11.6599L11.6407 13.0666C11.5407 13.1666 11.4141 13.2133 11.2874 13.2133Z" fill="currentColor"/>
</g>
<defs>
<clipPath id="clip0_2_4731">
<rect width="16" height="16" fill="currentColor"/>
</clipPath>
</defs>
</svg>
