<svg width="16" height="16" viewBox="0 0 16 16" fill="none" xmlns="http://www.w3.org/2000/svg">
<g clip-path="url(#clip0_2_4763)">
<path d="M11.3333 15.1667H4.66667C2.23333 15.1667 0.833332 13.7667 0.833332 11.3333V8C0.833332 5.56667 2.23333 4.16667 4.66667 4.16667H11.3333C13.7667 4.16667 15.1667 5.56667 15.1667 8V11.3333C15.1667 13.7667 13.7667 15.1667 11.3333 15.1667ZM4.66667 5.16667C2.76 5.16667 1.83333 6.09333 1.83333 8V11.3333C1.83333 13.24 2.76 14.1667 4.66667 14.1667H11.3333C13.24 14.1667 14.1667 13.24 14.1667 11.3333V8C14.1667 6.09333 13.24 5.16667 11.3333 5.16667H4.66667Z" fill="currentColor"/>
<path d="M12 3.5H4C3.72667 3.5 3.5 3.27333 3.5 3C3.5 2.72667 3.72667 2.5 4 2.5H12C12.2733 2.5 12.5 2.72667 12.5 3C12.5 3.27333 12.2733 3.5 12 3.5Z" fill="currentColor"/>
<path d="M10 1.83333H6C5.72667 1.83333 5.5 1.60667 5.5 1.33333C5.5 1.06 5.72667 0.833333 6 0.833333H10C10.2733 0.833333 10.5 1.06 10.5 1.33333C10.5 1.60667 10.2733 1.83333 10 1.83333Z" fill="currentColor"/>
<path d="M5.92635 13.2401C5.14635 13.2401 4.51302 12.6067 4.51302 11.8267C4.51302 11.0467 5.14635 10.4134 5.92635 10.4134C6.70633 10.4134 7.33966 11.0467 7.33966 11.8267C7.33966 12.6067 6.70633 13.2401 5.92635 13.2401ZM5.92635 11.4134C5.69969 11.4134 5.51302 11.6001 5.51302 11.8267C5.51302 12.0534 5.69969 12.2401 5.92635 12.2401C6.15302 12.2401 6.33968 12.0534 6.33968 11.8267C6.33968 11.6001 6.15302 11.4134 5.92635 11.4134Z" fill="currentColor"/>
<path d="M6.83987 12.3267C6.56651 12.3267 6.33968 12.1001 6.33968 11.8267L6.33985 8.1534C6.33985 7.56673 6.70653 7.0934 7.26653 6.94007L9.0932 6.44007C9.6732 6.28007 10.0398 6.43343 10.2398 6.59343C10.4398 6.74673 10.6799 7.06007 10.6799 7.6534V11.2201C10.6799 11.4934 10.4532 11.7201 10.1799 11.7201C9.90653 11.7201 9.67986 11.4934 9.67986 11.2201V7.6534C9.67986 7.46673 9.63986 7.3934 9.62653 7.38673C9.6132 7.38007 9.5332 7.3534 9.34653 7.40673L7.52646 7.90673C7.3598 7.9534 7.3332 8.06673 7.3332 8.16007V11.8334C7.33986 12.1001 7.1132 12.3267 6.83987 12.3267Z" fill="currentColor"/>
<path d="M9.27273 12.6333C8.49273 12.6333 7.8594 12 7.8594 11.22C7.8594 10.44 8.49273 9.80667 9.27273 9.80667C10.0527 9.80667 10.6861 10.44 10.6861 11.22C10.6861 12 10.0527 12.6333 9.27273 12.6333ZM9.27273 10.8067C9.04606 10.8067 8.8594 10.9933 8.8594 11.22C8.8594 11.4467 9.04606 11.6333 9.27273 11.6333C9.4994 11.6333 9.68606 11.4467 9.68606 11.22C9.68606 10.9933 9.4994 10.8067 9.27273 10.8067Z" fill="currentColor"/>
<path d="M6.84026 9.72007C6.62028 9.72007 6.42026 9.5734 6.36026 9.3534C6.28693 9.08673 6.44695 8.8134 6.7136 8.74007L10.0536 7.82673C10.3269 7.7534 10.5936 7.9134 10.6669 8.18007C10.7403 8.44673 10.5803 8.72007 10.3136 8.7934L6.9736 9.70673C6.92693 9.7134 6.88693 9.72007 6.84026 9.72007Z" fill="currentColor"/>
</g>
<defs>
<clipPath id="clip0_2_4763">
<rect width="16" height="16" fill="currentColor"/>
</clipPath>
</defs>
</svg>
