<svg width="16" height="16" viewBox="0 0 16 16" fill="none" xmlns="http://www.w3.org/2000/svg">
<g clip-path="url(#clip0_2_4732)">
<path d="M3.72663 15.1334C2.16663 15.1334 0.846622 13.8134 0.846622 12.2534V8.14667C0.806622 6.20669 1.5333 4.37337 2.87997 2.99337C4.22664 1.62003 6.03996 0.8667 7.97994 0.8667C11.9533 0.8667 15.1799 4.10003 15.1799 8.07333V12.1801C15.1799 13.7667 13.8867 15.0601 12.3 15.0601C10.7133 15.0601 9.41994 13.7667 9.41994 12.1801V10.3067C9.41994 9.3534 10.1933 8.58007 11.1466 8.58007C12.0999 8.58007 12.8733 9.3534 12.8733 10.3067V12.3267C12.8733 12.6001 12.6466 12.8267 12.3733 12.8267C12.0999 12.8267 11.8733 12.6001 11.8733 12.3267V10.3067C11.8733 9.8534 11.5066 9.58007 11.1466 9.58007C10.6933 9.58007 10.4199 9.94673 10.4199 10.3067V12.1801C10.4199 13.2001 11.28 14.0601 12.3 14.0601C13.32 14.0601 14.1799 13.2001 14.1799 12.1801V8.07333C14.1799 4.65337 11.3999 1.8667 7.97994 1.8667C6.30663 1.8667 4.75331 2.51336 3.59331 3.69336C2.43331 4.87336 1.81329 6.45338 1.84662 8.1334V12.2467C1.84662 13.2667 2.70663 14.1267 3.72663 14.1267C4.74663 14.1267 5.60663 13.2667 5.60663 12.2467V10.3734C5.60663 9.92007 5.23997 9.64667 4.87997 9.64667C4.42664 9.64667 4.1533 10.0134 4.1533 10.3734V12.32C4.1533 12.5933 3.92664 12.82 3.6533 12.82C3.37997 12.82 3.1533 12.5933 3.1533 12.32V10.3734C3.1533 9.40673 3.9133 8.64667 4.87997 8.64667C5.8333 8.64667 6.60663 9.42007 6.60663 10.3734V12.2467C6.60663 13.8401 5.3133 15.1334 3.72663 15.1334Z" fill="currentColor"/>
<path d="M8.78647 7.9066C8.5198 7.9066 8.2798 7.75993 8.16647 7.51993L7.1998 5.59326L6.9198 6.11324C6.76647 6.39991 6.45983 6.57991 6.13316 6.57991H5.64649C5.37316 6.57991 5.14649 6.35325 5.14649 6.07991C5.14649 5.80658 5.37316 5.57991 5.64649 5.57991H6.07314L6.59982 4.60657C6.72647 4.3799 6.9598 4.25991 7.2198 4.23991C7.4798 4.23991 7.71314 4.39325 7.83314 4.61991L8.78647 6.52657L9.01314 6.06657C9.16647 5.7599 9.46647 5.57324 9.81314 5.57324H10.3531C10.6265 5.57324 10.8531 5.79991 10.8531 6.07324C10.8531 6.34657 10.6265 6.57324 10.3531 6.57324H9.8798L9.40647 7.51327C9.28647 7.75993 9.05314 7.9066 8.78647 7.9066Z" fill="currentColor"/>
</g>
<defs>
<clipPath id="clip0_2_4732">
<rect width="16" height="16" fill="currentColor"/>
</clipPath>
</defs>
</svg>
