<svg width="16" height="16" viewBox="0 0 16 16" fill="none" xmlns="http://www.w3.org/2000/svg">
<path d="M4.18678 15.1665C2.76678 15.1665 1.60678 14.0065 1.60678 12.5865C1.60678 11.1665 2.76678 10.0065 4.18678 10.0065C5.60678 10.0065 6.76681 11.1665 6.76681 12.5865C6.76681 14.0065 5.60678 15.1665 4.18678 15.1665ZM4.18678 11.0065C3.31345 11.0065 2.60678 11.7132 2.60678 12.5865C2.60678 13.4599 3.31345 14.1665 4.18678 14.1665C5.06011 14.1665 5.76678 13.4599 5.76678 12.5865C5.76678 11.7132 5.06011 11.0065 4.18678 11.0065Z" fill="currentColor"/>
<path d="M6.26693 13.0867C5.9936 13.0867 5.76678 12.8599 5.76678 12.5865L5.76693 4.20009C5.76693 3.14675 6.40027 2.32009 7.41361 2.04675L11.5736 0.91342C12.4203 0.680087 13.1336 0.766753 13.6336 1.15342C14.1403 1.54009 14.3936 2.18675 14.3936 3.07342V11.2067C14.3936 11.4801 14.1669 11.7067 13.8936 11.7067C13.6203 11.7067 13.3936 11.4801 13.3936 11.2067V3.06675C13.3936 2.68009 13.3269 2.17342 13.0269 1.94675C12.7003 1.69342 12.1403 1.79342 11.8336 1.88009L7.67361 3.01342C7.09361 3.17342 6.76694 3.60675 6.76694 4.20675V12.5934C6.76694 12.8601 6.54027 13.0867 6.26693 13.0867Z" fill="currentColor"/>
<path d="M11.8131 13.7801C10.3931 13.7801 9.23307 12.6201 9.23307 11.2001C9.23307 9.78013 10.3931 8.62013 11.8131 8.62013C13.2331 8.62013 14.3931 9.78013 14.3931 11.2001C14.3931 12.6201 13.2331 13.7801 11.8131 13.7801ZM11.8131 9.62013C10.9397 9.62013 10.2331 10.3268 10.2331 11.2001C10.2331 12.0735 10.9397 12.7801 11.8131 12.7801C12.6864 12.7801 13.3931 12.0735 13.3931 11.2001C13.3931 10.3268 12.6864 9.62013 11.8131 9.62013Z" fill="currentColor"/>
<path d="M6.26654 6.84653C6.04654 6.84653 5.84654 6.69987 5.78654 6.47985C5.71321 6.21319 5.86654 5.93319 6.13321 5.85985L13.7599 3.77985C14.0265 3.70652 14.2999 3.86652 14.3732 4.13319C14.4465 4.39985 14.2865 4.67319 14.0199 4.74652L6.39987 6.82653C6.35321 6.83987 6.30654 6.84653 6.26654 6.84653Z" fill="currentColor"/>
</svg>
