<svg width="16" height="16" viewBox="0 0 16 16" fill="none" xmlns="http://www.w3.org/2000/svg">
<path d="M5.3138 15.1667C3.56713 15.1667 2.14713 13.7467 2.14713 12C2.14713 10.2533 3.56713 8.83333 5.3138 8.83333C7.06047 8.83333 8.48047 10.2533 8.48047 12C8.48047 13.7467 7.06047 15.1667 5.3138 15.1667ZM5.3138 9.83333C4.12047 9.83333 3.14713 10.8067 3.14713 12C3.14713 13.1933 4.12047 14.1667 5.3138 14.1667C6.50713 14.1667 7.48047 13.1933 7.48047 12C7.48047 10.8067 6.5138 9.83333 5.3138 9.83333Z" fill="currentColor"/>
<path d="M7.98047 12.5C7.70713 12.5 7.48047 12.2733 7.48047 12V2.66667C7.48047 2.39333 7.70713 2.16667 7.98047 2.16667C8.2538 2.16667 8.48047 2.39333 8.48047 2.66667V12C8.48047 12.2733 8.26047 12.5 7.98047 12.5Z" fill="currentColor"/>
<path d="M12.7537 6.81993C12.5337 6.81993 12.3003 6.77993 12.0737 6.7066L9.127 5.72663C8.207 5.41996 7.487 4.41996 7.487 3.45329V2.66663C7.487 2.01996 7.75367 1.45996 8.207 1.12663C8.667 0.793293 9.28033 0.726627 9.89367 0.926626L12.8403 1.90663C13.7603 2.21329 14.4803 3.21329 14.4803 4.17996V4.95996C14.4803 5.60663 14.2137 6.16663 13.7603 6.49996C13.4737 6.71993 13.1203 6.81993 12.7537 6.81993ZM9.21367 1.81329C9.05367 1.81329 8.907 1.85329 8.79367 1.93996C8.59367 2.07996 8.487 2.33996 8.487 2.66663V3.44663C8.487 3.97996 8.93367 4.59996 9.44033 4.77329L12.387 5.75329C12.6937 5.85996 12.9803 5.83329 13.1737 5.69329C13.3737 5.55329 13.4803 5.29329 13.4803 4.96663V4.18663C13.4803 3.65329 13.0337 3.03329 12.527 2.85996L9.58033 1.87996C9.45367 1.83329 9.327 1.81329 9.21367 1.81329Z" fill="currentColor"/>
</svg>
