<svg width="16" height="16" viewBox="0 0 16 16" fill="none" xmlns="http://www.w3.org/2000/svg">
<path d="M8.23334 14.5H5.76666C2.30666 14.5 0.833336 13.0267 0.833336 9.56667V5.76668C0.833336 2.30668 2.30666 0.833333 5.76666 0.833333H9.56667C13.0267 0.833333 14.5 2.30668 14.5 5.76668V8.23333C14.5 8.50667 14.2733 8.73333 14 8.73333C13.7267 8.73333 13.5 8.50667 13.5 8.23333V5.76668C13.5 2.86001 12.4733 1.83333 9.56667 1.83333H5.76666C2.86 1.83333 1.83334 2.86001 1.83334 5.76668V9.56667C1.83334 12.4733 2.86 13.5 5.76666 13.5H8.23334C8.50667 13.5 8.73334 13.7267 8.73334 14C8.73334 14.2733 8.50667 14.5 8.23334 14.5Z" fill="currentColor"/>
<path d="M4.47969 10.1133C3.67302 10.1133 3.01302 9.45333 3.01302 8.64667C3.01302 7.84 3.67302 7.18 4.47969 7.18C5.28636 7.18 5.94636 7.84 5.94636 8.64667C5.94636 9.45333 5.28636 10.1133 4.47969 10.1133ZM4.47969 8.18C4.22636 8.18 4.01302 8.38667 4.01302 8.64667C4.01302 8.9 4.21969 9.11333 4.47969 9.11333C4.73969 9.11333 4.94636 8.90667 4.94636 8.64667C4.94636 8.38667 4.73969 8.18 4.47969 8.18Z" fill="currentColor"/>
<path d="M5.44662 9.1466C5.17328 9.1466 4.94636 8.92 4.94636 8.64667L4.94662 4.75995C4.94662 4.15329 5.32662 3.65995 5.90662 3.49995L7.83994 2.97329C8.43994 2.80663 8.81994 2.96661 9.0266 3.12661C9.23327 3.28661 9.4866 3.60663 9.4866 4.22663V7.99993C9.4866 8.27327 9.25994 8.49993 8.9866 8.49993C8.71327 8.49993 8.4866 8.27327 8.4866 7.99993V4.22663C8.4866 4.01329 8.43994 3.93328 8.41994 3.91995C8.39994 3.90661 8.3066 3.87996 8.09994 3.93329L6.17328 4.45995C5.97328 4.51328 5.94662 4.65328 5.94662 4.75328V8.63993C5.94662 8.91993 5.71995 9.1466 5.44662 9.1466Z" fill="currentColor"/>
<path d="M8.02007 9.46653C7.2134 9.46653 6.55339 8.80653 6.55339 7.99987C6.55339 7.1932 7.2134 6.5332 8.02007 6.5332C8.82674 6.5332 9.4866 7.19327 9.4866 7.99993C9.4866 8.81327 8.82674 9.46653 8.02007 9.46653ZM8.02007 7.53987C7.76674 7.53987 7.5534 7.74653 7.5534 8.00653C7.5534 8.25987 7.76007 8.4732 8.02007 8.4732C8.28007 8.4732 8.48674 8.26653 8.48674 8.00653C8.48674 7.74653 8.2734 7.53987 8.02007 7.53987Z" fill="currentColor"/>
<path d="M5.44704 6.38672C5.22704 6.38672 5.02704 6.24006 4.96704 6.02006C4.8937 5.75339 5.0537 5.48003 5.32036 5.4067L8.86034 4.44002C9.127 4.37335 9.4004 4.52671 9.47373 4.79337C9.54707 5.06004 9.387 5.33337 9.12034 5.4067L5.58036 6.37337C5.5337 6.38004 5.48704 6.38672 5.44704 6.38672Z" fill="currentColor"/>
<path d="M11.9601 14.6866C10.5068 14.6866 9.3268 13.5066 9.3268 12.0533C9.3268 10.5999 10.5068 9.41993 11.9601 9.41993C13.4135 9.41993 14.5935 10.5999 14.5935 12.0533C14.5935 13.5066 13.4135 14.6866 11.9601 14.6866ZM11.9601 10.4199C11.0601 10.4199 10.3268 11.1533 10.3268 12.0533C10.3268 12.9533 11.0601 13.6866 11.9601 13.6866C12.8601 13.6866 13.5935 12.9533 13.5935 12.0533C13.5935 11.1533 12.8601 10.4199 11.9601 10.4199Z" fill="currentColor"/>
<path d="M14.4931 15.0866C14.3665 15.0866 14.2398 15.0399 14.1398 14.9399L13.4731 14.2732C13.2798 14.0799 13.2798 13.7599 13.4731 13.5665C13.6665 13.3732 13.9865 13.3732 14.1798 13.5665L14.8465 14.2332C15.0398 14.4265 15.0398 14.7465 14.8465 14.9399C14.7465 15.0332 14.6198 15.0866 14.4931 15.0866Z" fill="currentColor"/>
</svg>
