<svg width="16" height="16" viewBox="0 0 16 16" fill="none" xmlns="http://www.w3.org/2000/svg">
<path d="M4.2065 13.3933C3.8265 13.3933 3.45318 13.2933 3.10651 13.0933C2.41318 12.6933 2.00652 11.9866 2.00652 11.1866V4.80659C2.00652 4.01326 2.41984 3.29993 3.10651 2.89993C3.79984 2.49993 4.61984 2.49993 5.3065 2.89993L10.8332 6.0866C11.5199 6.4866 11.9331 7.19993 11.9331 7.99327C11.9331 8.7866 11.5199 9.49993 10.8332 9.89993L5.3065 13.0866C4.95984 13.2933 4.5865 13.3933 4.2065 13.3933ZM4.2065 3.6066C3.99984 3.6066 3.79318 3.65993 3.60651 3.76659C3.23318 3.98659 3.00652 4.37326 3.00652 4.80659V11.1866C3.00652 11.6199 3.23318 12.0066 3.60651 12.2266C3.97984 12.4399 4.43317 12.4466 4.8065 12.2266L10.3332 9.03993C10.7065 8.81993 10.9331 8.43327 10.9331 7.99993C10.9331 7.5666 10.7065 7.17993 10.3332 6.95993L4.8065 3.77327C4.61984 3.6666 4.41317 3.6066 4.2065 3.6066Z" fill="currentColor"/>
<path d="M13.4935 12.6202C13.2201 12.6202 12.9935 12.3935 12.9935 12.1202V3.88021C12.9935 3.60687 13.2201 3.38021 13.4935 3.38021C13.7668 3.38021 13.9935 3.60687 13.9935 3.88021V12.1202C13.9935 12.3935 13.7735 12.6202 13.4935 12.6202Z" fill="currentColor"/>
</svg>
