<svg width="16" height="16" viewBox="0 0 16 16" fill="none" xmlns="http://www.w3.org/2000/svg">
<path d="M6.3737 12.5C6.10036 12.5 5.8737 12.2733 5.8737 12V8.66667C5.8737 8.39333 6.10036 8.16667 6.3737 8.16667C6.64703 8.16667 6.87366 8.39333 6.87366 8.66667V12C6.87366 12.2733 6.64703 12.5 6.3737 12.5Z" fill="currentColor"/>
<path d="M8 10.8333H4.66666C4.39333 10.8333 4.16666 10.6067 4.16666 10.3333C4.16666 10.06 4.39333 9.83333 4.66666 9.83333H8C8.27333 9.83333 8.5 10.06 8.5 10.3333C8.5 10.6067 8.27333 10.8333 8 10.8333Z" fill="currentColor"/>
<path d="M5.33333 3.83333C5.06 3.83333 4.83333 3.60667 4.83333 3.33333V1.33333C4.83333 1.06 5.06 0.833333 5.33333 0.833333C5.60666 0.833333 5.83333 1.06 5.83333 1.33333V3.33333C5.83333 3.60667 5.60666 3.83333 5.33333 3.83333Z" fill="currentColor"/>
<path d="M10.6667 3.83333C10.3933 3.83333 10.1667 3.60667 10.1667 3.33333V1.33333C10.1667 1.06 10.3933 0.833333 10.6667 0.833333C10.94 0.833333 11.1667 1.06 11.1667 1.33333V3.33333C11.1667 3.60667 10.94 3.83333 10.6667 3.83333Z" fill="currentColor"/>
<path d="M5.90001 15.2068C4.25334 15.2068 3.16668 14.8468 2.48668 14.0735C1.70001 13.1868 1.57334 11.8601 1.54667 10.6801L1.46001 6.56679C1.39334 3.41345 2.44001 2.10012 5.17334 1.89345L10.5333 1.78679C10.5467 1.78679 10.5533 1.78679 10.56 1.78679C13.3 1.88012 14.3933 3.14679 14.46 6.30679L14.54 10.4201C14.5667 11.6001 14.4867 12.9335 13.74 13.8468C13.06 14.6801 11.9133 15.0868 10.1333 15.1268L6.13334 15.2068C6.05334 15.2068 5.97334 15.2068 5.90001 15.2068ZM10.5333 2.78012L5.22 2.88679C3.35334 3.03345 2.40001 3.63345 2.46001 6.54679L2.54667 10.6601C2.57334 12.0735 2.78 12.9001 3.23334 13.4135C3.74 13.9868 4.65334 14.2401 6.12001 14.2068L10.12 14.1268C11.58 14.1001 12.4867 13.8068 12.9733 13.2135C13.4067 12.6868 13.58 11.8535 13.5467 10.4401L13.4667 6.32679C13.4 3.42012 12.4267 2.84679 10.5333 2.78012Z" fill="currentColor"/>
</svg>
