<svg width="16" height="16" viewBox="0 0 16 16" fill="none" xmlns="http://www.w3.org/2000/svg">
<g clip-path="url(#clip0_2_4923)">
<path d="M7.33334 15.1667H6.00001C2.38001 15.1667 0.833344 13.62 0.833344 10V6C0.833344 2.38 2.38001 0.833333 6.00001 0.833333H10C13.62 0.833333 15.1667 2.38 15.1667 6V6.66667C15.1667 6.94 14.94 7.16667 14.6667 7.16667C14.3933 7.16667 14.1667 6.94 14.1667 6.66667V6C14.1667 2.92667 13.0733 1.83333 10 1.83333H6.00001C2.92668 1.83333 1.83334 2.92667 1.83334 6V10C1.83334 13.0733 2.92668 14.1667 6.00001 14.1667H7.33334C7.60668 14.1667 7.83334 14.3933 7.83334 14.6667C7.83334 14.94 7.60668 15.1667 7.33334 15.1667Z" fill="currentColor"/>
<path d="M10.3399 15.1667C9.33321 15.1667 8.50654 14.3467 8.50654 13.3333C8.50654 12.32 9.32654 11.5 10.3399 11.5C11.3532 11.5 12.1732 12.32 12.1732 13.3333C12.1732 14.3467 11.3465 15.1667 10.3399 15.1667ZM10.3399 12.5067C9.87988 12.5067 9.50654 12.88 9.50654 13.34C9.50654 13.8 9.87988 14.1733 10.3399 14.1733C10.7999 14.1733 11.1732 13.8 11.1732 13.34C11.1732 12.88 10.7999 12.5067 10.3399 12.5067Z" fill="currentColor"/>
<path d="M11.6732 13.8332C11.3999 13.8332 11.1732 13.6065 11.1732 13.3332V8.6732C11.1732 8.39987 11.3999 8.1732 11.6732 8.1732C11.9465 8.1732 12.1732 8.39987 12.1732 8.6732V13.3333C12.1732 13.6133 11.9465 13.8332 11.6732 13.8332Z" fill="currentColor"/>
<path d="M14.0532 10.9999C13.9132 10.9999 13.7732 10.9799 13.6332 10.9265L12.1598 10.4398C11.5931 10.2531 11.1732 9.6598 11.1732 9.06647V8.6732C11.1732 8.26653 11.3399 7.9132 11.6399 7.69987C11.9399 7.48653 12.3265 7.4398 12.7065 7.56647L14.1799 8.05987C14.7465 8.24653 15.1665 8.83987 15.1665 9.4332V9.82653C15.1665 10.2332 14.9998 10.5865 14.6998 10.7999C14.5131 10.9332 14.2865 10.9999 14.0532 10.9999ZM12.2865 8.49987C12.2598 8.49987 12.2332 8.50653 12.2199 8.5132C12.1932 8.5332 12.1732 8.57987 12.1732 8.6732V9.06647C12.1732 9.22647 12.3265 9.43987 12.4798 9.4932L13.9531 9.9798C14.0398 10.0065 14.0998 9.9998 14.1198 9.98647C14.1465 9.96647 14.1732 9.91987 14.1732 9.82653V9.4332C14.1732 9.2732 14.0198 9.05987 13.8665 9.00653L12.3932 8.51987C12.3465 8.50653 12.3131 8.49987 12.2865 8.49987Z" fill="currentColor"/>
</g>
<defs>
<clipPath id="clip0_2_4923">
<rect width="16" height="16" fill="currentColor"/>
</clipPath>
</defs>
</svg>
