<svg width="16" height="16" viewBox="0 0 16 16" fill="none" xmlns="http://www.w3.org/2000/svg">
<path d="M5.33333 3.83333C5.06 3.83333 4.83333 3.60667 4.83333 3.33333V1.33333C4.83333 1.06 5.06 0.833333 5.33333 0.833333C5.60667 0.833333 5.83333 1.06 5.83333 1.33333V3.33333C5.83333 3.60667 5.60667 3.83333 5.33333 3.83333Z" fill="currentColor"/>
<path d="M10.6667 3.83333C10.3933 3.83333 10.1667 3.60667 10.1667 3.33333V1.33333C10.1667 1.06 10.3933 0.833333 10.6667 0.833333C10.94 0.833333 11.1667 1.06 11.1667 1.33333V3.33333C11.1667 3.60667 10.94 3.83333 10.6667 3.83333Z" fill="currentColor"/>
<path d="M9.78667 15.1667H5.33333C2.9 15.1667 1.5 13.7667 1.5 11.3333V5.66667C1.5 3.23333 2.9 1.83333 5.33333 1.83333H10.6667C13.1 1.83333 14.5 3.23333 14.5 5.66667V9.08667C14.5 9.28 14.3867 9.45333 14.22 9.54C14.0467 9.62 13.84 9.6 13.6933 9.48C12.64 8.64 11.02 8.64 9.96667 9.5C9.24667 10.0667 8.84 10.9133 8.84 11.84C8.84 12.3867 8.98667 12.92 9.27333 13.38C9.49333 13.74 9.76667 14.04 10.0867 14.2667C10.26 14.3933 10.34 14.62 10.2733 14.8267C10.1933 15.0267 10.0067 15.1667 9.78667 15.1667ZM5.33333 2.83333C3.42667 2.83333 2.5 3.76 2.5 5.66667V11.3333C2.5 13.24 3.42667 14.1667 5.33333 14.1667H8.59333C8.52667 14.08 8.46667 13.9867 8.41333 13.8933C8.03333 13.28 7.83333 12.5667 7.83333 11.8333C7.83333 10.6 8.38 9.46667 9.34 8.71333C10.48 7.78667 12.1667 7.58667 13.5 8.2V5.66667C13.5 3.76 12.5733 2.83333 10.6667 2.83333H5.33333Z" fill="currentColor"/>
<path d="M8.66667 7.83333H4.66667C4.39333 7.83333 4.16667 7.60667 4.16667 7.33333C4.16667 7.06 4.39333 6.83333 4.66667 6.83333H8.66667C8.94 6.83333 9.16667 7.06 9.16667 7.33333C9.16667 7.60667 8.94 7.83333 8.66667 7.83333Z" fill="currentColor"/>
<path d="M6.41333 11.1667H4.66667C4.39333 11.1667 4.16667 10.94 4.16667 10.6667C4.16667 10.3933 4.39333 10.1667 4.66667 10.1667H6.41333C6.68667 10.1667 6.91333 10.3933 6.91333 10.6667C6.91333 10.94 6.69333 11.1667 6.41333 11.1667Z" fill="currentColor"/>
<path d="M11.8333 15.8333C10.98 15.8333 10.1733 15.5667 9.49333 15.0733C9.06667 14.7667 8.7 14.3667 8.41333 13.8933C8.03333 13.28 7.83333 12.5667 7.83333 11.8333C7.83333 10.6 8.38 9.46667 9.34 8.71333C10.7267 7.58667 12.9133 7.58 14.3133 8.69333C15.28 9.45333 15.8333 10.6 15.8333 11.8333C15.8333 12.5667 15.6333 13.28 15.2533 13.8933C15.04 14.26 14.7667 14.58 14.4533 14.84C13.74 15.48 12.8067 15.8333 11.8333 15.8333ZM11.8333 8.83333C11.1533 8.83333 10.4867 9.06667 9.96 9.49333C9.24 10.06 8.83333 10.9067 8.83333 11.8333C8.83333 12.38 8.98 12.9133 9.26667 13.3733C9.48667 13.7333 9.76 14.0333 10.08 14.26C10.5933 14.6333 11.2 14.8333 11.8333 14.8333C12.5733 14.8333 13.2533 14.5733 13.8 14.0867C14.04 13.8867 14.2333 13.6533 14.3933 13.38C14.68 12.9133 14.8333 12.38 14.8333 11.8333C14.8333 10.9067 14.42 10.0533 13.6933 9.48C13.16 9.05333 12.52 8.83333 11.8333 8.83333Z" fill="currentColor"/>
<path d="M11.8333 14C11.56 14 11.3333 13.7733 11.3333 13.5C11.3333 12.86 10.8067 12.3333 10.1667 12.3333C9.89333 12.3333 9.66667 12.1067 9.66667 11.8333C9.66667 11.56 9.89333 11.3333 10.1667 11.3333C10.8067 11.3333 11.3333 10.8067 11.3333 10.1667C11.3333 9.89333 11.56 9.66667 11.8333 9.66667C12.1067 9.66667 12.3333 9.89333 12.3333 10.1667C12.3333 10.8067 12.86 11.3333 13.5 11.3333C13.7733 11.3333 14 11.56 14 11.8333C14 12.1067 13.7733 12.3333 13.5 12.3333C12.86 12.3333 12.3333 12.86 12.3333 13.5C12.3333 13.7733 12.1067 14 11.8333 14ZM11.5467 11.8333C11.6467 11.92 11.7467 12.0133 11.8333 12.12C11.92 12.02 12.0133 11.92 12.12 11.8333C12.02 11.7467 11.92 11.6533 11.8333 11.5467C11.7467 11.6533 11.6533 11.7467 11.5467 11.8333Z" fill="currentColor"/>
</svg>
