<svg width="16" height="16" viewBox="0 0 16 16" fill="none" xmlns="http://www.w3.org/2000/svg">
<path d="M5.33333 3.83333C5.06 3.83333 4.83333 3.60667 4.83333 3.33333V1.33333C4.83333 1.06 5.06 0.833333 5.33333 0.833333C5.60667 0.833333 5.83333 1.06 5.83333 1.33333V3.33333C5.83333 3.60667 5.60667 3.83333 5.33333 3.83333Z" fill="currentColor"/>
<path d="M10.6667 3.83333C10.3933 3.83333 10.1667 3.60667 10.1667 3.33333V1.33333C10.1667 1.06 10.3933 0.833333 10.6667 0.833333C10.94 0.833333 11.1667 1.06 11.1667 1.33333V3.33333C11.1667 3.60667 10.94 3.83333 10.6667 3.83333Z" fill="currentColor"/>
<path d="M10.6667 15.1667H5.33333C2.9 15.1667 1.5 13.7667 1.5 11.3333V5.66667C1.5 3.23333 2.9 1.83333 5.33333 1.83333H10.6667C13.1 1.83333 14.5 3.23333 14.5 5.66667V11.3333C14.5 13.7667 13.1 15.1667 10.6667 15.1667ZM5.33333 2.83333C3.42667 2.83333 2.5 3.76 2.5 5.66667V11.3333C2.5 13.24 3.42667 14.1667 5.33333 14.1667H10.6667C12.5733 14.1667 13.5 13.24 13.5 11.3333V5.66667C13.5 3.76 12.5733 2.83333 10.6667 2.83333H5.33333Z" fill="currentColor"/>
<path d="M10.6667 7.83333H5.33333C5.06 7.83333 4.83333 7.60667 4.83333 7.33333C4.83333 7.06 5.06 6.83333 5.33333 6.83333H10.6667C10.94 6.83333 11.1667 7.06 11.1667 7.33333C11.1667 7.60667 10.94 7.83333 10.6667 7.83333Z" fill="currentColor"/>
<path d="M8 11.1667H5.33333C5.06 11.1667 4.83333 10.94 4.83333 10.6667C4.83333 10.3933 5.06 10.1667 5.33333 10.1667H8C8.27333 10.1667 8.5 10.3933 8.5 10.6667C8.5 10.94 8.27333 11.1667 8 11.1667Z" fill="currentColor"/>
</svg>
