<svg width="16" height="16" viewBox="0 0 16 16" fill="none" xmlns="http://www.w3.org/2000/svg">
<path d="M10.6667 15.1667H5.33332C3.31999 15.1667 2.16666 14.0133 2.16666 12V5.5C2.16666 3.4 3.23332 2.33333 5.33332 2.33333C5.60666 2.33333 5.83332 2.56 5.83332 2.83333C5.83332 3.1 5.93999 3.35333 6.12666 3.54C6.31332 3.72667 6.56666 3.83333 6.83332 3.83333H9.16666C9.71999 3.83333 10.1667 3.38667 10.1667 2.83333C10.1667 2.56 10.3933 2.33333 10.6667 2.33333C12.7667 2.33333 13.8333 3.4 13.8333 5.5V12C13.8333 14.0133 12.68 15.1667 10.6667 15.1667ZM4.89998 3.34667C3.84664 3.43333 3.16666 3.90667 3.16666 5.5V12C3.16666 13.48 3.85332 14.1667 5.33332 14.1667H10.6667C12.1467 14.1667 12.8333 13.48 12.8333 12V5.5C12.8333 3.90667 12.1533 3.44 11.1 3.34667C10.8733 4.2 10.0933 4.83333 9.16666 4.83333H6.83332C6.29999 4.83333 5.8 4.62667 5.41999 4.24667C5.16666 3.99333 4.99331 3.68667 4.89998 3.34667Z" fill="currentColor"/>
<path d="M9.16666 4.83333H6.83332C6.29999 4.83333 5.8 4.62667 5.41999 4.24667C5.03999 3.86666 4.83332 3.36667 4.83332 2.83333C4.83332 1.73333 5.73332 0.833333 6.83332 0.833333H9.16666C9.69999 0.833333 10.2 1.04 10.58 1.42C10.96 1.8 11.1667 2.3 11.1667 2.83333C11.1667 3.93333 10.2667 4.83333 9.16666 4.83333ZM6.83332 1.83333C6.27999 1.83333 5.83332 2.28 5.83332 2.83333C5.83332 3.1 5.93999 3.35333 6.12666 3.54C6.31332 3.72667 6.56666 3.83333 6.83332 3.83333H9.16666C9.71999 3.83333 10.1667 3.38667 10.1667 2.83333C10.1667 2.56667 10.06 2.31333 9.87332 2.12667C9.68666 1.94 9.43332 1.83333 9.16666 1.83333H6.83332Z" fill="currentColor"/>
<path d="M7.99999 9.16667H5.33332C5.05999 9.16667 4.83332 8.94 4.83332 8.66667C4.83332 8.39333 5.05999 8.16667 5.33332 8.16667H7.99999C8.27332 8.16667 8.49999 8.39333 8.49999 8.66667C8.49999 8.94 8.27332 9.16667 7.99999 9.16667Z" fill="currentColor"/>
<path d="M10.6667 11.8333H5.33332C5.05999 11.8333 4.83332 11.6067 4.83332 11.3333C4.83332 11.06 5.05999 10.8333 5.33332 10.8333H10.6667C10.94 10.8333 11.1667 11.06 11.1667 11.3333C11.1667 11.6067 10.94 11.8333 10.6667 11.8333Z" fill="currentColor"/>
</svg>
