<svg width="16" height="16" viewBox="0 0 16 16" fill="none" xmlns="http://www.w3.org/2000/svg">
<path d="M5.33333 3.83333C5.06 3.83333 4.83333 3.60667 4.83333 3.33333V1.33333C4.83333 1.06 5.06 0.833333 5.33333 0.833333C5.60667 0.833333 5.83333 1.06 5.83333 1.33333V3.33333C5.83333 3.60667 5.60667 3.83333 5.33333 3.83333Z" fill="currentColor"/>
<path d="M10.6667 3.83333C10.3933 3.83333 10.1667 3.60667 10.1667 3.33333V1.33333C10.1667 1.06 10.3933 0.833333 10.6667 0.833333C10.94 0.833333 11.1667 1.06 11.1667 1.33333V3.33333C11.1667 3.60667 10.94 3.83333 10.6667 3.83333Z" fill="currentColor"/>
<path d="M10 9.16667H4.66667C4.39333 9.16667 4.16667 8.94 4.16667 8.66667C4.16667 8.39333 4.39333 8.16667 4.66667 8.16667H10C10.2733 8.16667 10.5 8.39333 10.5 8.66667C10.5 8.94 10.2733 9.16667 10 9.16667Z" fill="currentColor"/>
<path d="M8 11.8333H4.66667C4.39333 11.8333 4.16667 11.6067 4.16667 11.3333C4.16667 11.06 4.39333 10.8333 4.66667 10.8333H8C8.27333 10.8333 8.5 11.06 8.5 11.3333C8.5 11.6067 8.27333 11.8333 8 11.8333Z" fill="currentColor"/>
<path d="M10 15.1667H6C2.25333 15.1667 1.5 13.4 1.5 10.5467V6.43333C1.5 3.27333 2.56667 1.98667 5.30667 1.83333H10.6667C10.6733 1.83333 10.6867 1.83333 10.6933 1.83333C13.4333 1.98667 14.5 3.27333 14.5 6.43333V10.5467C14.5 13.4 13.7467 15.1667 10 15.1667ZM5.33333 2.83333C3.46667 2.94 2.5 3.52667 2.5 6.43333V10.5467C2.5 13.1 2.98667 14.1667 6 14.1667H10C13.0133 14.1667 13.5 13.1 13.5 10.5467V6.43333C13.5 3.53333 12.54 2.94 10.6533 2.83333H5.33333Z" fill="currentColor"/>
</svg>
