<svg width="16" height="16" viewBox="0 0 16 16" fill="none" xmlns="http://www.w3.org/2000/svg">
<path d="M8 9.83333H4.66667C4.39333 9.83333 4.16667 9.60667 4.16667 9.33333C4.16667 9.06 4.39333 8.83333 4.66667 8.83333H8C8.27333 8.83333 8.5 9.06 8.5 9.33333C8.5 9.60667 8.27333 9.83333 8 9.83333Z" fill="currentColor"/>
<path d="M4.6663 4.47327C4.53963 4.47327 4.41297 4.4266 4.31297 4.3266L1.81297 1.8266C1.61963 1.63327 1.61963 1.31327 1.81297 1.11993C2.0063 0.9266 2.3263 0.9266 2.51963 1.11993L5.01963 3.61993C5.21297 3.81327 5.21297 4.13327 5.01963 4.3266C4.91963 4.41993 4.79297 4.47327 4.6663 4.47327Z" fill="currentColor"/>
<path d="M2.14026 4.49996C2.01359 4.49996 1.88693 4.45329 1.78693 4.35329C1.59359 4.15996 1.59359 3.83996 1.78693 3.64663L4.28693 1.14663C4.48026 0.953293 4.80026 0.953293 4.99359 1.14663C5.18693 1.33996 5.18693 1.65996 4.99359 1.85329L2.49359 4.35329C2.40026 4.45329 2.26693 4.49996 2.14026 4.49996Z" fill="currentColor"/>
<path d="M10 7.16667H4.66667C4.39333 7.16667 4.16667 6.94 4.16667 6.66667C4.16667 6.39333 4.39333 6.16667 4.66667 6.16667H10C10.2733 6.16667 10.5 6.39333 10.5 6.66667C10.5 6.94 10.2733 7.16667 10 7.16667Z" fill="currentColor"/>
<path d="M14 11.1667C13.7267 11.1667 13.5 10.94 13.5 10.6667V5.32667C13.5 2.50667 12.54 1.93333 10.64 1.83333H6.66667C6.39333 1.83333 6.16667 1.60667 6.16667 1.33333C6.16667 1.06 6.39333 0.833333 6.66667 0.833333H10.6667C13.4 0.98 14.5 2.28 14.5 5.32667V10.6667C14.5 10.94 14.2733 11.1667 14 11.1667Z" fill="currentColor"/>
<path d="M10 15.1665H6C2.25333 15.1665 1.5 13.4399 1.5 10.6532V6.00651C1.5 5.73318 1.72667 5.50651 2 5.50651C2.27333 5.50651 2.5 5.73318 2.5 6.00651V10.6532C2.5 13.1332 2.98667 14.1665 6 14.1665H10C10.2733 14.1665 10.5 14.3932 10.5 14.6665C10.5 14.9399 10.2733 15.1665 10 15.1665Z" fill="currentColor"/>
<path d="M10 15.1665C9.93333 15.1665 9.87333 15.1533 9.80667 15.1267C9.62 15.0467 9.5 14.8667 9.5 14.6667V12.6667C9.5 11.0533 10.3867 10.1667 12 10.1667H14C14.2 10.1667 14.3867 10.2867 14.46 10.4733C14.5333 10.66 14.4933 10.8733 14.3533 11.02L10.3533 15.02C10.26 15.1133 10.1267 15.1665 10 15.1665ZM12 11.1667C10.9467 11.1667 10.5 11.6133 10.5 12.6667V13.46L12.7933 11.1667H12Z" fill="currentColor"/>
</svg>
