<svg width="16" height="16" viewBox="0 0 16 16" fill="none" xmlns="http://www.w3.org/2000/svg">
<path d="M10.5401 13.4533C10.3667 13.4533 10.1867 13.4467 9.99341 13.4267C9.64674 13.4 9.25341 13.3333 8.84674 13.2333L7.72674 12.9667C4.65339 12.24 3.64672 10.6133 4.36672 7.54667L5.02005 4.75334C5.16672 4.12001 5.34005 3.60668 5.55339 3.18001C6.70007 0.813347 8.89341 1.02667 10.4534 1.39334L11.5667 1.65334C13.1267 2.02001 14.1134 2.60001 14.6667 3.48668C15.2134 4.37335 15.3001 5.51334 14.9334 7.07333L14.2801 9.86C13.7067 12.3 12.5134 13.4533 10.5401 13.4533ZM8.74674 2.16667C7.63341 2.16667 6.92674 2.62668 6.45339 3.61335C6.28005 3.97335 6.12672 4.42001 5.99339 4.98001L5.34005 7.77333C4.74672 10.2933 5.43339 11.3933 7.95341 11.9933L9.07341 12.26C9.43341 12.3467 9.77341 12.4 10.0801 12.4267C11.8867 12.6067 12.7934 11.8133 13.3001 9.63333L13.9534 6.84667C14.2534 5.56001 14.2134 4.66001 13.8134 4.01334C13.4134 3.36667 12.6267 2.92668 11.3334 2.62668L10.2201 2.36667C9.66674 2.23334 9.17341 2.16667 8.74674 2.16667Z" fill="currentColor"/>
<path d="M5.55272 14.8333C3.83939 14.8333 2.74605 13.8066 2.04605 11.6399L1.19272 9.0066C0.246057 6.07329 1.09272 4.41995 4.01272 3.47329L5.06605 3.13329C5.41272 3.02662 5.67272 2.95329 5.90605 2.91329C6.09272 2.87329 6.28606 2.94662 6.39939 3.09995C6.51273 3.25329 6.53273 3.45329 6.45273 3.62662C6.27939 3.97995 6.12605 4.42662 5.99939 4.98662L5.34606 7.77993C4.75273 10.2999 5.43939 11.3999 7.95941 11.9999L9.07941 12.2666C9.43941 12.3533 9.77941 12.4066 10.0861 12.4333C10.2994 12.4533 10.4727 12.5999 10.5327 12.8066C10.5861 13.0133 10.5061 13.2266 10.3327 13.3466C9.89274 13.6466 9.33941 13.8999 8.63941 14.1266L7.58607 14.4733C6.81941 14.7133 6.15272 14.8333 5.55272 14.8333ZM5.18606 4.14662L4.32605 4.42662C1.94605 5.19329 1.37939 6.31329 2.14605 8.69993L2.99939 11.3333C3.77272 13.7133 4.89273 14.2866 7.27274 13.5199L8.32607 13.1733C8.36607 13.1599 8.39941 13.1466 8.43941 13.1333L7.73274 12.9666C4.65939 12.2399 3.65272 10.6133 4.37272 7.5466L5.02605 4.75329C5.07273 4.53995 5.12605 4.33329 5.18606 4.14662Z" fill="currentColor"/>
</svg>
