<svg width="16" height="16" viewBox="0 0 16 16" fill="none" xmlns="http://www.w3.org/2000/svg">
<path d="M8.00002 7.01327C7.72669 7.01327 7.50002 6.7866 7.50002 6.51329V4.29329C7.50002 4.01996 7.72669 3.79329 8.00002 3.79329C8.27335 3.79329 8.50002 4.01996 8.50002 4.29329V6.51329C8.50002 6.79327 8.27335 7.01327 8.00002 7.01327Z" fill="currentColor"/>
<path d="M8.01329 13.5668C6.29327 13.5668 4.57993 13.2935 2.9466 12.7468C2.33993 12.5468 1.87993 12.1135 1.67993 11.5668C1.47993 11.0201 1.5466 10.3935 1.87327 9.8468L2.71993 8.43347C2.9066 8.12013 3.07326 7.53347 3.07326 7.1668V5.76682C3.07326 3.04015 5.2866 0.82682 8.01329 0.82682C10.74 0.82682 12.9533 3.04015 12.9533 5.76682V7.1668C12.9533 7.5268 13.12 8.12013 13.3066 8.43347L14.1533 9.8468C14.4666 10.3668 14.52 10.9868 14.3133 11.5535C14.1066 12.1201 13.6533 12.5535 13.08 12.7468C11.4466 13.3001 9.73329 13.5668 8.01329 13.5668ZM8.01329 1.83349C5.83993 1.83349 4.07327 3.60015 4.07327 5.77349V7.17347C4.07327 7.71347 3.85993 8.49347 3.57993 8.95347L2.73327 10.3735C2.55993 10.6601 2.51993 10.9668 2.61993 11.2335C2.71993 11.5001 2.9466 11.7001 3.2666 11.8068C6.33326 12.8268 9.70662 12.8268 12.7733 11.8068C13.06 11.7135 13.28 11.5001 13.38 11.2201C13.4866 10.9401 13.4533 10.6335 13.3 10.3735L12.4533 8.96013C12.1733 8.50013 11.96 7.72013 11.96 7.18013V5.78015C11.9533 3.60015 10.1866 1.83349 8.01329 1.83349Z" fill="currentColor"/>
<path d="M7.99995 15.2665C7.28662 15.2665 6.58663 14.9732 6.07997 14.4665C5.5733 13.9599 5.27997 13.2599 5.27997 12.5465H6.27997C6.27997 12.9999 6.46663 13.4399 6.78662 13.7599C7.10662 14.0799 7.54662 14.2665 7.99995 14.2665C8.94662 14.2665 9.71995 13.4932 9.71995 12.5465H10.72C10.72 14.0465 9.49995 15.2665 7.99995 15.2665Z" fill="currentColor"/>
</svg>
