<svg width="16" height="16" viewBox="0 0 16 16" fill="none" xmlns="http://www.w3.org/2000/svg">
<g clip-path="url(#clip0_2_4725)">
<path d="M12.6666 5.83333C11.2866 5.83333 10.1666 4.71333 10.1666 3.33333C10.1666 1.95333 11.2866 0.833333 12.6666 0.833333C14.0466 0.833333 15.1666 1.95333 15.1666 3.33333C15.1666 4.71333 14.0466 5.83333 12.6666 5.83333ZM12.6666 1.83333C11.84 1.83333 11.1666 2.50667 11.1666 3.33333C11.1666 4.16 11.84 4.83333 12.6666 4.83333C13.4933 4.83333 14.1666 4.16 14.1666 3.33333C14.1666 2.50667 13.4933 1.83333 12.6666 1.83333Z" fill="currentColor"/>
<path d="M9.99998 15.1667H5.99998C2.37998 15.1667 0.833313 13.62 0.833313 10V6C0.833313 2.38 2.37998 0.833333 5.99998 0.833333H9.33331C9.60665 0.833333 9.83331 1.06 9.83331 1.33333C9.83331 1.60667 9.60665 1.83333 9.33331 1.83333H5.99998C2.92665 1.83333 1.83331 2.92667 1.83331 6V10C1.83331 13.0733 2.92665 14.1667 5.99998 14.1667H9.99998C13.0733 14.1667 14.1666 13.0733 14.1666 10V6.66667C14.1666 6.39333 14.3933 6.16667 14.6666 6.16667C14.94 6.16667 15.1666 6.39333 15.1666 6.66667V10C15.1666 13.62 13.62 15.1667 9.99998 15.1667Z" fill="currentColor"/>
</g>
<defs>
<clipPath id="clip0_2_4725">
<rect width="16" height="16" fill="currentColor"/>
</clipPath>
</defs>
</svg>
