<svg width="16" height="16" viewBox="0 0 16 16" fill="none" xmlns="http://www.w3.org/2000/svg">
<g clip-path="url(#clip0_2_4997)">
<path d="M12.6666 5.83333C11.2866 5.83333 10.1666 4.71333 10.1666 3.33333C10.1666 1.95333 11.2866 0.833333 12.6666 0.833333C14.0466 0.833333 15.1666 1.95333 15.1666 3.33333C15.1666 4.71333 14.0466 5.83333 12.6666 5.83333ZM12.6666 1.83333C11.84 1.83333 11.1666 2.50667 11.1666 3.33333C11.1666 4.16 11.84 4.83333 12.6666 4.83333C13.4933 4.83333 14.1666 4.16 14.1666 3.33333C14.1666 2.50667 13.4933 1.83333 12.6666 1.83333Z" fill="currentColor"/>
<path d="M9.99998 15.1667H5.99998C2.37998 15.1667 0.833313 13.62 0.833313 10V6C0.833313 2.38 2.37998 0.833333 5.99998 0.833333H9.33331C9.60665 0.833333 9.83331 1.06 9.83331 1.33333C9.83331 1.60667 9.60665 1.83333 9.33331 1.83333H5.99998C2.92665 1.83333 1.83331 2.92667 1.83331 6V10C1.83331 13.0733 2.92665 14.1667 5.99998 14.1667H9.99998C13.0733 14.1667 14.1666 13.0733 14.1666 10V6.66667C14.1666 6.39333 14.3933 6.16667 14.6666 6.16667C14.94 6.16667 15.1666 6.39333 15.1666 6.66667V10C15.1666 13.62 13.62 15.1667 9.99998 15.1667Z" fill="currentColor"/>
<path d="M6.54025 12.2201C5.92692 12.2201 4.50025 11.4735 4.06025 10.1001C3.76025 9.16013 4.10692 7.9268 5.19359 7.57347C5.66025 7.42013 6.14692 7.49347 6.53359 7.74013C6.91358 7.49347 7.41358 7.42013 7.88025 7.57347C8.96691 7.9268 9.32025 9.16013 9.01358 10.1001C8.58025 11.5001 7.08691 12.2201 6.54025 12.2201ZM5.01359 9.80013C5.32025 10.7668 6.36025 11.2068 6.54692 11.2268C6.76025 11.2068 7.78025 10.7135 8.06025 9.8068C8.21358 9.32013 8.06025 8.69347 7.57358 8.53347C7.36691 8.4668 7.08691 8.5068 6.95358 8.70013C6.86025 8.84013 6.71358 8.92013 6.54692 8.9268C6.38692 8.9268 6.22692 8.85347 6.13359 8.72013C5.97359 8.50013 5.69359 8.4668 5.50025 8.53347C5.02025 8.6868 4.86025 9.31347 5.01359 9.80013Z" fill="currentColor"/>
</g>
<defs>
<clipPath id="clip0_2_4997">
<rect width="16" height="16" fill="currentColor"/>
</clipPath>
</defs>
</svg>
