<svg width="16" height="16" viewBox="0 0 16 16" fill="none" xmlns="http://www.w3.org/2000/svg">
<path d="M8.01326 13.6866C6.4599 13.6866 4.90657 13.4399 3.43324 12.9466C2.87324 12.7533 2.44657 12.3599 2.2599 11.8466C2.06657 11.3333 2.13324 10.7666 2.4399 10.2599L3.20657 8.9866C3.36657 8.71993 3.51324 8.1866 3.51324 7.87327V5.94661C3.51324 3.46661 5.53324 1.44661 8.01326 1.44661C10.4933 1.44661 12.5133 3.46661 12.5133 5.94661V7.87327C12.5133 8.17993 12.6599 8.71993 12.8199 8.99327L13.5799 10.2599C13.8666 10.7399 13.9199 11.3199 13.7266 11.8466C13.5333 12.3733 13.1133 12.7733 12.5866 12.9466C11.1199 13.4399 9.56659 13.6866 8.01326 13.6866ZM8.01326 2.44661C6.08657 2.44661 4.51324 4.01328 4.51324 5.94661V7.87327C4.51324 8.35993 4.31324 9.07993 4.06657 9.49993L3.2999 10.7733C3.15324 11.0199 3.11324 11.2799 3.1999 11.4999C3.2799 11.7266 3.4799 11.8999 3.75324 11.9933C6.5399 12.9266 9.49326 12.9266 12.2799 11.9933C12.5199 11.9133 12.7066 11.7333 12.7933 11.4933C12.8799 11.2533 12.8599 10.9933 12.7266 10.7733L11.9599 9.49993C11.7066 9.0666 11.5133 8.35327 11.5133 7.8666V5.94661C11.5133 4.01328 9.94659 2.44661 8.01326 2.44661Z" fill="currentColor"/>
<path d="M9.25306 2.62679C9.20639 2.62679 9.15972 2.62012 9.11306 2.60679C8.91972 2.55345 8.73306 2.51345 8.55306 2.48679C7.98639 2.41345 7.43972 2.45345 6.92639 2.60679C6.73972 2.66679 6.53974 2.60679 6.41308 2.46679C6.28641 2.32679 6.24641 2.12679 6.31974 1.94679C6.59308 1.24679 7.25972 0.786787 8.01972 0.786787C8.77972 0.786787 9.44639 1.24012 9.71972 1.94679C9.78639 2.12679 9.75306 2.32679 9.62639 2.46679C9.52639 2.57345 9.38639 2.62679 9.25306 2.62679Z" fill="currentColor"/>
<path d="M8.01299 15.2067C7.35299 15.2067 6.71299 14.9401 6.24634 14.4734C5.77968 14.0067 5.51301 13.3667 5.51301 12.7067H6.51301C6.51301 13.1001 6.67299 13.4867 6.95299 13.7667C7.23299 14.0467 7.61966 14.2067 8.01299 14.2067C8.83966 14.2067 9.51299 13.5334 9.51299 12.7067H10.513C10.513 14.0867 9.39299 15.2067 8.01299 15.2067Z" fill="currentColor"/>
</svg>
