<svg width="16" height="16" viewBox="0 0 16 16" fill="none" xmlns="http://www.w3.org/2000/svg">
<g clip-path="url(#clip0_2_4723)">
<path d="M12.6666 5.83333C11.2866 5.83333 10.1666 4.71333 10.1666 3.33333C10.1666 1.95333 11.2866 0.833333 12.6666 0.833333C14.0466 0.833333 15.1666 1.95333 15.1666 3.33333C15.1666 4.71333 14.0466 5.83333 12.6666 5.83333ZM12.6666 1.83333C11.84 1.83333 11.1666 2.50667 11.1666 3.33333C11.1666 4.16 11.84 4.83333 12.6666 4.83333C13.4933 4.83333 14.1666 4.16 14.1666 3.33333C14.1666 2.50667 13.4933 1.83333 12.6666 1.83333Z" fill="currentColor"/>
<path d="M7.99998 15.1667C4.04665 15.1667 0.833313 11.9533 0.833313 8C0.833313 4.04667 4.04665 0.833333 7.99998 0.833333C8.48665 0.833333 8.97331 0.88 9.44665 0.98C9.71998 1.03333 9.89331 1.3 9.83331 1.57333C9.77998 1.84667 9.51331 2.02 9.24665 1.96C8.83998 1.87333 8.41998 1.83333 7.99998 1.83333C4.59998 1.83333 1.83331 4.6 1.83331 8C1.83331 11.4 4.59998 14.1667 7.99998 14.1667C11.4 14.1667 14.1666 11.4 14.1666 8C14.1666 7.58667 14.1266 7.17333 14.0466 6.77333C13.9933 6.5 14.1666 6.24 14.44 6.18667C14.7133 6.12667 14.9733 6.30667 15.0266 6.58C15.12 7.04667 15.1666 7.52667 15.1666 8.00667C15.1666 11.9533 11.9533 15.1667 7.99998 15.1667Z" fill="currentColor"/>
</g>
<defs>
<clipPath id="clip0_2_4723">
<rect width="16" height="16" fill="currentColor"/>
</clipPath>
</defs>
</svg>
