<svg width="16" height="16" viewBox="0 0 16 16" fill="none" xmlns="http://www.w3.org/2000/svg">
<g clip-path="url(#clip0_2_4986)">
<path d="M9.99998 15.1667H5.99998C2.37998 15.1667 0.833313 13.62 0.833313 10V6C0.833313 2.38 2.37998 0.833333 5.99998 0.833333H9.99998C13.62 0.833333 15.1666 2.38 15.1666 6V10C15.1666 13.62 13.62 15.1667 9.99998 15.1667ZM5.99998 1.83333C2.92665 1.83333 1.83331 2.92667 1.83331 6V10C1.83331 13.0733 2.92665 14.1667 5.99998 14.1667H9.99998C13.0733 14.1667 14.1666 13.0733 14.1666 10V6C14.1666 2.92667 13.0733 1.83333 9.99998 1.83333H5.99998Z" fill="currentColor"/>
<path d="M11.3333 11.6667H9.26665C9.06665 11.6667 8.88665 11.5533 8.80665 11.3667C8.72665 11.18 8.75998 10.9733 8.89331 10.8267L9.97331 9.63333C10.42 9.13333 10.6733 8.5 10.6733 7.84667C10.6733 7.18 10.4 6.55333 9.89998 6.08C9.39998 5.60667 8.70665 5.33333 7.99998 5.33333C7.29331 5.33333 6.59999 5.60667 6.09999 6.08C5.59999 6.55333 5.32664 7.18 5.32664 7.84667C5.32664 8.5 5.5733 9.13333 6.02663 9.63333L7.10665 10.8267C7.23998 10.9733 7.27331 11.1867 7.19331 11.3667C7.11331 11.5467 6.93331 11.6667 6.73331 11.6667H4.66665C4.39331 11.6667 4.16665 11.44 4.16665 11.1667C4.16665 10.8933 4.39331 10.6667 4.66665 10.6667H5.60663L5.27997 10.3067C4.66663 9.62667 4.32664 8.75333 4.32664 7.84667C4.32664 6.92 4.71998 6.00669 5.41331 5.35335C6.10665 4.69335 7.02665 4.33333 7.99998 4.33333C8.97331 4.33333 9.89331 4.69335 10.5866 5.35335C11.2733 6.00669 11.6733 6.92 11.6733 7.84667C11.6733 8.74667 11.3333 9.62 10.72 10.3067L10.3933 10.6667H11.3333C11.6066 10.6667 11.8333 10.8933 11.8333 11.1667C11.8333 11.44 11.6066 11.6667 11.3333 11.6667Z" fill="currentColor"/>
</g>
<defs>
<clipPath id="clip0_2_4986">
<rect width="16" height="16" fill="currentColor"/>
</clipPath>
</defs>
</svg>
