<svg width="16" height="16" viewBox="0 0 16 16" fill="none" xmlns="http://www.w3.org/2000/svg">
<g clip-path="url(#clip0_2_4722)">
<path d="M7.99998 15.1667C4.04665 15.1667 0.833313 11.9533 0.833313 8C0.833313 4.04667 4.04665 0.833333 7.99998 0.833333C11.9533 0.833333 15.1666 4.04667 15.1666 8C15.1666 11.9533 11.9533 15.1667 7.99998 15.1667ZM7.99998 1.83333C4.59998 1.83333 1.83331 4.6 1.83331 8C1.83331 11.4 4.59998 14.1667 7.99998 14.1667C11.4 14.1667 14.1666 11.4 14.1666 8C14.1666 4.6 11.4 1.83333 7.99998 1.83333Z" fill="currentColor"/>
<path d="M11.3333 11.5H9.26665C9.06665 11.5 8.88665 11.3867 8.80665 11.2C8.72665 11.0133 8.75998 10.8067 8.89331 10.66L9.97331 9.46667C10.42 8.96667 10.6733 8.33333 10.6733 7.68C10.6733 7.01333 10.4 6.38667 9.89998 5.91333C9.39998 5.44 8.70665 5.16667 7.99998 5.16667C7.29331 5.16667 6.59999 5.44 6.09999 5.91333C5.59999 6.38667 5.32664 7.01333 5.32664 7.68C5.32664 8.33333 5.5733 8.96667 6.02663 9.46667L7.10665 10.66C7.23998 10.8067 7.27331 11.02 7.19331 11.2C7.11331 11.38 6.93331 11.5 6.73331 11.5H4.66665C4.39331 11.5 4.16665 11.2733 4.16665 11C4.16665 10.7267 4.39331 10.5 4.66665 10.5H5.60663L5.27997 10.14C4.66663 9.46 4.32664 8.58667 4.32664 7.68C4.32664 6.75333 4.71998 5.84002 5.41331 5.18669C6.10665 4.52669 7.02665 4.16667 7.99998 4.16667C8.97331 4.16667 9.89331 4.52669 10.5866 5.18669C11.2733 5.84002 11.6733 6.75333 11.6733 7.68C11.6733 8.58 11.3333 9.45333 10.72 10.14L10.3933 10.5H11.3333C11.6066 10.5 11.8333 10.7267 11.8333 11C11.8333 11.2733 11.6066 11.5 11.3333 11.5Z" fill="currentColor"/>
</g>
<defs>
<clipPath id="clip0_2_4722">
<rect width="16" height="16" fill="currentColor"/>
</clipPath>
</defs>
</svg>
