<svg width="16" height="16" viewBox="0 0 16 16" fill="none" xmlns="http://www.w3.org/2000/svg">
<path d="M6.70702 14.3868C6.04035 14.3868 5.36701 13.9335 4.46701 13.0401L2.16035 10.7335C0.200351 8.77347 0.400351 8.02013 2.16035 6.25347L5.87368 2.53347C7.18702 1.22013 8.27369 0.453464 10.3537 2.53347L12.6604 4.84013C14.5337 6.71347 14.0804 7.90013 12.6604 9.32013L8.94702 13.0335C8.04702 13.9335 7.38035 14.3868 6.70702 14.3868ZM2.86701 10.0201L5.17368 12.3268C6.58702 13.7401 6.82035 13.7468 8.24035 12.3268L11.9537 8.61347C13.067 7.50013 13.3537 6.9468 11.9537 5.5468L9.64702 3.24013C8.18702 1.78013 7.74702 2.08013 6.58035 3.24013L2.86701 6.95347C1.45368 8.37347 1.33368 8.4868 2.86701 10.0201Z" fill="currentColor"/>
<path d="M13.4273 14.3066C12.6673 14.3066 12.0673 14.0133 11.774 13.4999C11.4806 12.9866 11.5406 12.3199 11.934 11.6666L12.374 10.9399C12.634 10.5133 13.014 10.2666 13.4273 10.2666C13.8406 10.2666 14.2273 10.5133 14.4806 10.9399L14.9206 11.6666C15.314 12.3199 15.3673 12.9866 15.0806 13.4999C14.794 14.0133 14.1806 14.3066 13.4273 14.3066ZM13.4273 11.2666C13.394 11.2666 13.314 11.3199 13.2273 11.4533L12.7873 12.1799C12.5873 12.5133 12.534 12.8133 12.6406 13.0066C12.7473 13.1999 13.034 13.3066 13.4206 13.3066C13.8073 13.3066 14.094 13.1999 14.2006 13.0066C14.3073 12.8133 14.254 12.5199 14.054 12.1799L13.614 11.4533C13.5406 11.3133 13.4606 11.2666 13.4273 11.2666Z" fill="currentColor"/>
<path d="M1.33377 8.66007C1.11377 8.66007 0.913768 8.5134 0.853768 8.2934C0.780434 8.02673 0.940434 7.7534 1.2071 7.68007C4.9871 6.65341 8.99375 6.62007 12.7938 7.5934L13.1271 7.68007C13.3938 7.74673 13.5538 8.02007 13.4871 8.28673C13.4204 8.5534 13.1471 8.7134 12.8804 8.64673L12.5471 8.56007C8.91375 7.62673 5.0871 7.66007 1.47377 8.64673C1.42043 8.66007 1.37377 8.66007 1.33377 8.66007Z" fill="currentColor"/>
</svg>
