<svg width="16" height="16" viewBox="0 0 16 16" fill="none" xmlns="http://www.w3.org/2000/svg">
<path d="M8.2194 14.2266C7.49273 14.2266 6.76607 13.9533 6.21271 13.3999C5.10604 12.2933 5.10604 10.4999 6.21271 9.39327L7.86607 7.7466C8.0594 7.55327 8.3794 7.55327 8.57273 7.7466C8.76607 7.93993 8.76607 8.25993 8.57273 8.45327L6.9194 10.0999C6.20604 10.8133 6.20604 11.9799 6.9194 12.6933C7.63274 13.4066 8.7994 13.4066 9.51274 12.6933L12.1061 10.0999C12.8927 9.31327 13.3261 8.2666 13.3261 7.15327C13.3261 6.03991 12.8927 4.99324 12.1061 4.20657C10.4794 2.57991 7.8394 2.57991 6.21271 4.20657L3.38604 7.03327C2.72604 7.69327 2.35938 8.57327 2.35938 9.5066C2.35938 10.4399 2.72604 11.3199 3.38604 11.9799C3.57938 12.1733 3.57938 12.4933 3.38604 12.6866C3.19271 12.8799 2.87271 12.8799 2.67938 12.6866C1.83271 11.8333 1.35938 10.7066 1.35938 9.5066C1.35938 8.3066 1.82604 7.17327 2.67938 6.32657L5.50604 3.49991C7.5194 1.48657 10.7994 1.48657 12.8127 3.49991C13.7861 4.47324 14.3261 5.77324 14.3261 7.15327C14.3261 8.53327 13.7861 9.83327 12.8127 10.8066L10.2194 13.3999C9.66607 13.9533 8.94607 14.2266 8.2194 14.2266Z" fill="currentColor"/>
</svg>
