<svg width="16" height="16" viewBox="0 0 16 16" fill="none" xmlns="http://www.w3.org/2000/svg">
<path d="M7.31378 15.1667C4.83378 15.1667 2.81378 13.1467 2.81378 10.6667V6.66667C2.81378 3.82 5.13378 1.5 7.98045 1.5C10.8271 1.5 13.1471 3.82 13.1471 6.66667V10.3333C13.1471 11.8933 11.8738 13.1667 10.3138 13.1667C8.75378 13.1667 7.48045 11.8933 7.48045 10.3333V8C7.48045 7.72667 7.70712 7.5 7.98045 7.5C8.25378 7.5 8.48045 7.72667 8.48045 8V10.3333C8.48045 11.3467 9.30045 12.1667 10.3138 12.1667C11.3271 12.1667 12.1471 11.3467 12.1471 10.3333V6.66667C12.1471 4.36667 10.2804 2.5 7.98045 2.5C5.68045 2.5 3.81378 4.36667 3.81378 6.66667V10.6667C3.81378 12.5933 5.38045 14.1667 7.31378 14.1667C7.58712 14.1667 7.81378 14.3933 7.81378 14.6667C7.81378 14.94 7.59378 15.1667 7.31378 15.1667Z" fill="currentColor"/>
</svg>
