<svg width="16" height="16" viewBox="0 0 16 16" fill="none" xmlns="http://www.w3.org/2000/svg">
<path d="M7.34669 13.5H5.00002C4.50002 13.5 4.13335 13.48 3.82002 13.4333C1.60002 13.1867 1.16669 11.8667 1.16669 9.66667V6.33333C1.16669 4.13333 1.60669 2.80667 3.84002 2.56C4.13335 2.52 4.50002 2.5 5.00002 2.5H7.30669C7.58002 2.5 7.80669 2.72667 7.80669 3C7.80669 3.27333 7.58002 3.5 7.30669 3.5H5.00002C4.54669 3.5 4.22669 3.52 3.96669 3.55333C2.61335 3.7 2.16669 4.12667 2.16669 6.33333V9.66667C2.16669 11.8733 2.61335 12.2933 3.94669 12.4467C4.22669 12.4867 4.54669 12.5 5.00002 12.5H7.34669C7.62002 12.5 7.84669 12.7267 7.84669 13C7.84669 13.2733 7.62002 13.5 7.34669 13.5Z" fill="currentColor"/>
<path d="M10.9997 13.5H10.013C9.73969 13.5 9.51302 13.2733 9.51302 13C9.51302 12.7267 9.73969 12.5 10.013 12.5H10.9997C11.453 12.5 11.773 12.48 12.033 12.4467C13.3864 12.3 13.833 11.8733 13.833 9.66667V6.33333C13.833 4.12667 13.3864 3.70667 12.053 3.55333C11.773 3.51333 11.453 3.5 10.9997 3.5H10.013C9.73969 3.5 9.51302 3.27333 9.51302 3C9.51302 2.72667 9.73969 2.5 10.013 2.5H10.9997C11.4997 2.5 11.8664 2.52 12.1797 2.56667C14.3997 2.81333 14.833 4.13333 14.833 6.33333V9.66667C14.833 11.8667 14.393 13.1933 12.1597 13.44C11.8664 13.48 11.4997 13.5 10.9997 13.5Z" fill="currentColor"/>
<path d="M10 15.1667C9.72669 15.1667 9.50002 14.94 9.50002 14.6667V1.33333C9.50002 1.06 9.72669 0.833332 10 0.833332C10.2734 0.833332 10.5 1.06 10.5 1.33333V14.6667C10.5 14.94 10.2734 15.1667 10 15.1667Z" fill="currentColor"/>
<path d="M4.46617 8.66667C4.3795 8.66667 4.29283 8.64667 4.21283 8.61333C4.13283 8.58 4.0595 8.53333 3.99283 8.47333C3.93283 8.40666 3.8795 8.33333 3.84617 8.25333C3.81283 8.17333 3.7995 8.08667 3.7995 8C3.7995 7.82666 3.87283 7.65333 3.99283 7.52666C4.2395 7.28 4.68617 7.28 4.9395 7.52666C5.0595 7.65333 5.13283 7.82666 5.13283 8C5.13283 8.08667 5.11283 8.17333 5.0795 8.25333C5.04617 8.33333 4.9995 8.40666 4.9395 8.47333C4.87283 8.53333 4.7995 8.58 4.7195 8.61333C4.6395 8.64667 4.55283 8.66667 4.46617 8.66667Z" fill="currentColor"/>
<path d="M7.13282 8.66667C7.04615 8.66667 6.95949 8.64667 6.87949 8.61333C6.79949 8.58 6.72615 8.53333 6.6595 8.47333C6.5995 8.40666 6.55283 8.33333 6.51283 8.25333C6.48617 8.17333 6.46617 8.08667 6.46617 8C6.46617 7.82666 6.5395 7.65333 6.6595 7.52666C6.90615 7.28 7.35949 7.28 7.60615 7.52666C7.72615 7.65333 7.79949 7.82666 7.79949 8C7.79949 8.08667 7.77949 8.17333 7.74615 8.25333C7.71282 8.33333 7.66615 8.40666 7.60615 8.47333C7.53949 8.53333 7.46615 8.58 7.38615 8.61333C7.30615 8.64667 7.21949 8.66667 7.13282 8.66667Z" fill="currentColor"/>
</svg>
