<svg width="16" height="16" viewBox="0 0 16 16" fill="none" xmlns="http://www.w3.org/2000/svg">
<path d="M11.3194 8.80007C11.1928 8.80007 11.0594 8.74674 10.9661 8.6534L7.36611 5.04671C7.19944 4.88004 7.17278 4.62671 7.29944 4.42671L8.42611 2.64671C8.73944 2.15338 9.21278 1.84671 9.76611 1.78671C10.3861 1.72671 11.0261 1.96671 11.5261 2.46671L13.5461 4.48671C14.0261 4.96671 14.2661 5.61338 14.1928 6.25338C14.1328 6.8134 13.8328 7.30007 13.3661 7.5934L11.5861 8.72007C11.5061 8.7734 11.4128 8.80007 11.3194 8.80007ZM8.35278 4.62671L11.3928 7.66674L12.8394 6.7534C13.0461 6.62004 13.1794 6.40671 13.2061 6.14671C13.2461 5.81338 13.1061 5.46004 12.8461 5.20004L10.8261 3.18004C10.5394 2.89338 10.1928 2.74004 9.87944 2.78671C9.62611 2.81338 9.41944 2.95337 9.27278 3.18671L8.35278 4.62671Z" fill="currentColor"/>
<path d="M3.9269 14.2267C3.33356 14.2267 2.80023 14.0133 2.40023 13.62C1.93356 13.1533 1.7269 12.5067 1.81356 11.7867L2.4669 6.23336C2.6669 4.55335 3.4069 3.94002 5.13356 4.04002L7.74691 4.19336C8.02024 4.21336 8.23358 4.44669 8.21358 4.72002C8.19358 4.99336 7.96024 5.20669 7.68691 5.18669L5.07356 5.04002C3.8869 4.96669 3.59356 5.20002 3.46023 6.35336L2.8069 11.9C2.76023 12.3067 2.8669 12.6667 3.1069 12.9067C3.35356 13.1467 3.71356 13.26 4.12023 13.2067L9.66691 12.5533C10.8336 12.4133 11.0936 12.1067 10.9802 10.96L10.8202 8.32667C10.8069 8.05334 11.0136 7.81334 11.2869 7.8C11.5602 7.78 11.8002 7.99334 11.8136 8.26667L11.9669 10.88C12.1269 12.54 11.4736 13.34 9.77358 13.5467L4.2269 14.2C4.13356 14.22 4.0269 14.2267 3.9269 14.2267Z" fill="currentColor"/>
<path d="M3.07383 13.4465C2.94716 13.4465 2.8205 13.3999 2.7205 13.2999C2.52716 13.1065 2.52716 12.7865 2.7205 12.5932L4.74716 10.5665C4.9405 10.3732 5.2605 10.3732 5.45383 10.5665C5.64716 10.7599 5.64716 11.0799 5.45383 11.2732L3.42716 13.2999C3.32716 13.3999 3.2005 13.4465 3.07383 13.4465Z" fill="currentColor"/>
</svg>
