<svg width="16" height="16" viewBox="0 0 16 16" fill="none" xmlns="http://www.w3.org/2000/svg">
<g clip-path="url(#clip0_2_4753)">
<path d="M10.0261 8.67986C9.89945 8.67986 9.76611 8.62653 9.67278 8.5332L7.47945 6.33985C7.31278 6.17318 7.28611 5.91985 7.41278 5.71985L8.09945 4.63319C8.31945 4.27985 8.66611 4.05985 9.05945 4.01985C9.49278 3.97319 9.94611 4.14652 10.2928 4.49319L11.5261 5.72652C11.8594 6.05985 12.0261 6.51319 11.9794 6.95987C11.9328 7.35987 11.7194 7.70653 11.3861 7.91986L10.2994 8.60653C10.2061 8.65986 10.1128 8.67986 10.0261 8.67986ZM8.46611 5.91318L10.0994 7.54653L10.8461 7.0732C10.9394 7.0132 10.9728 6.91987 10.9794 6.84653C10.9928 6.70653 10.9328 6.54652 10.8128 6.42652L9.57945 5.19985C9.44611 5.06652 9.29278 4.99985 9.16611 5.01319C9.07278 5.02652 8.99944 5.07319 8.93944 5.16652L8.46611 5.91318Z" fill="currentColor"/>
<path d="M5.52678 11.9867C5.11345 11.9867 4.72678 11.8333 4.45345 11.56C4.13345 11.24 3.98011 10.7733 4.04011 10.28L4.44011 6.9C4.57345 5.77335 5.12011 5.32002 6.26678 5.39335L7.86011 5.48668C8.13345 5.50668 8.34678 5.74002 8.32678 6.01335C8.30678 6.28668 8.07345 6.50002 7.80011 6.48002L6.20011 6.39335C5.55345 6.35335 5.49345 6.45335 5.42678 7.02L5.02678 10.4C5.00678 10.5867 5.05345 10.7533 5.15345 10.8533C5.26011 10.96 5.42011 11.0067 5.60678 10.98L8.98678 10.58C9.60011 10.5067 9.67345 10.4133 9.62011 9.82666L9.52011 8.21333C9.50678 7.94 9.71345 7.7 9.98678 7.68666C10.2601 7.66666 10.5001 7.88 10.5134 8.15333L10.6068 9.74666C10.7201 10.8667 10.2534 11.44 9.10011 11.5733L5.72011 11.9733C5.66011 11.9867 5.59345 11.9867 5.52678 11.9867Z" fill="currentColor"/>
<path d="M4.99311 11.5133C4.86644 11.5133 4.73977 11.4666 4.63977 11.3666C4.44644 11.1733 4.44644 10.8533 4.63977 10.6599L5.87311 9.4266C6.06644 9.23326 6.38644 9.23326 6.57977 9.4266C6.77311 9.61993 6.77311 9.93993 6.57977 10.1333L5.34644 11.3666C5.25311 11.4666 5.12644 11.5133 4.99311 11.5133Z" fill="currentColor"/>
<path d="M9.99998 15.1667H5.99998C2.37998 15.1667 0.833313 13.62 0.833313 10V6C0.833313 2.38 2.37998 0.833332 5.99998 0.833332H9.99998C13.62 0.833332 15.1666 2.38 15.1666 6V10C15.1666 13.62 13.62 15.1667 9.99998 15.1667ZM5.99998 1.83333C2.92665 1.83333 1.83331 2.92667 1.83331 6V10C1.83331 13.0733 2.92665 14.1667 5.99998 14.1667H9.99998C13.0733 14.1667 14.1666 13.0733 14.1666 10V6C14.1666 2.92667 13.0733 1.83333 9.99998 1.83333H5.99998Z" fill="currentColor"/>
</g>
<defs>
<clipPath id="clip0_2_4753">
<rect width="16" height="16" fill="currentColor"/>
</clipPath>
</defs>
</svg>
