<svg width="16" height="16" viewBox="0 0 16 16" fill="none" xmlns="http://www.w3.org/2000/svg">
<path d="M9.43282 15.1667H6.57952C5.89952 15.1667 5.27285 14.8801 4.87285 14.3734C4.51952 13.9334 4.39285 13.3734 4.51285 12.8401L4.97285 10.7867C5.02618 10.5601 5.22618 10.4001 5.45952 10.4001H10.5528C10.7862 10.4001 10.9862 10.5601 11.0395 10.7867L11.5062 12.8401C11.6328 13.4134 11.5128 13.9667 11.1662 14.4001C10.7795 14.8867 10.1462 15.1667 9.43282 15.1667ZM5.85952 11.4001L5.48618 13.0667C5.43285 13.3067 5.49285 13.5467 5.65285 13.7534C5.85952 14.0134 6.20618 14.1667 6.57952 14.1667H9.43949C9.84616 14.1667 10.1928 14.0267 10.3862 13.7801C10.5462 13.5867 10.5928 13.3334 10.5328 13.0667L10.1595 11.4001H5.85952Z" fill="currentColor"/>
<path d="M5.45974 11.4C5.33974 11.4 5.21974 11.36 5.1264 11.2733L3.1664 9.53333C1.87974 8.47333 1.77307 7.44667 2.83307 6.1L6.29307 1.71333C6.73976 1.14667 7.35309 0.833332 8.00642 0.833332C8.66642 0.833332 9.27309 1.14667 9.71976 1.71333L13.1798 6.1C14.2264 7.42667 14.1331 8.39333 12.8464 9.53333L10.8864 11.2733C10.6798 11.4533 10.3598 11.44 10.1798 11.2333C9.99976 11.0267 10.0131 10.7133 10.2198 10.5267L12.1798 8.78667C13.0598 8.00667 13.0998 7.62 12.3931 6.72L8.93976 2.33333C8.43309 1.68667 7.58642 1.68667 7.07976 2.33333L3.61974 6.72C2.89307 7.64 2.9264 8.04667 3.81307 8.77333L5.7864 10.5267C5.99307 10.7067 6.01307 11.0267 5.8264 11.2333C5.73307 11.34 5.59974 11.4 5.45974 11.4Z" fill="currentColor"/>
<path d="M8.00656 5.14661C7.73322 5.14661 7.50656 4.91995 7.50656 4.64661V1.77995C7.50656 1.50661 7.73322 1.27995 8.00656 1.27995C8.27989 1.27995 8.50656 1.50661 8.50656 1.77995V4.64661C8.50656 4.91995 8.27989 5.14661 8.00656 5.14661Z" fill="currentColor"/>
<path d="M9.43282 15.1667H6.57952C5.89952 15.1667 5.27285 14.8801 4.87285 14.3734C4.51952 13.9334 4.39285 13.3734 4.51285 12.8401L4.97285 10.7867C5.02618 10.5601 5.22618 10.4001 5.45952 10.4001H10.5528C10.7862 10.4001 10.9862 10.5601 11.0395 10.7867L11.5062 12.8401C11.6328 13.4134 11.5128 13.9667 11.1662 14.4001C10.7795 14.8867 10.1462 15.1667 9.43282 15.1667ZM5.85952 11.4001L5.48618 13.0667C5.43285 13.3067 5.49285 13.5467 5.65285 13.7534C5.85952 14.0134 6.20618 14.1667 6.57952 14.1667H9.43949C9.84616 14.1667 10.1928 14.0267 10.3862 13.7801C10.5462 13.5867 10.5928 13.3334 10.5328 13.0667L10.1595 11.4001H5.85952Z" fill="currentColor"/>
<path d="M5.45974 11.4C5.33974 11.4 5.21974 11.36 5.1264 11.2733L3.1664 9.53333C1.87974 8.47333 1.77307 7.44667 2.83307 6.1L6.29307 1.71333C6.73976 1.14667 7.35309 0.833332 8.00642 0.833332C8.66642 0.833332 9.27309 1.14667 9.71976 1.71333L13.1798 6.1C14.2264 7.42667 14.1331 8.39333 12.8464 9.53333L10.8864 11.2733C10.6798 11.4533 10.3598 11.44 10.1798 11.2333C9.99976 11.0267 10.0131 10.7133 10.2198 10.5267L12.1798 8.78667C13.0598 8.00667 13.0998 7.62 12.3931 6.72L8.93976 2.33333C8.43309 1.68667 7.58642 1.68667 7.07976 2.33333L3.61974 6.72C2.89307 7.64 2.9264 8.04667 3.81307 8.77333L5.7864 10.5267C5.99307 10.7067 6.01307 11.0267 5.8264 11.2333C5.73307 11.34 5.59974 11.4 5.45974 11.4Z" fill="currentColor"/>
<path d="M8.00656 5.14661C7.73322 5.14661 7.50656 4.91995 7.50656 4.64661V1.77995C7.50656 1.50661 7.73322 1.27995 8.00656 1.27995C8.27989 1.27995 8.50656 1.50661 8.50656 1.77995V4.64661C8.50656 4.91995 8.27989 5.14661 8.00656 5.14661Z" fill="currentColor"/>
</svg>
