<svg width="16" height="16" viewBox="0 0 16 16" fill="none" xmlns="http://www.w3.org/2000/svg">
<path d="M5.76 14.5H3.34C2.1 14.5 1.5 13.9267 1.5 12.74V3.26C1.5 2.07333 2.1 1.5 3.34 1.5H5.76C7 1.5 7.6 2.07333 7.6 3.26V12.74C7.6 13.9267 7 14.5 5.76 14.5ZM3.34 2.5C2.62 2.5 2.5 2.68 2.5 3.26V12.74C2.5 13.32 2.61333 13.5 3.34 13.5H5.76C6.48 13.5 6.6 13.32 6.6 12.74V3.26C6.6 2.68 6.48667 2.5 5.76 2.5H3.34Z" fill="currentColor"/>
<path d="M12.6597 14.5H10.2397C8.99973 14.5 8.39973 13.9267 8.39973 12.74V3.26C8.39973 2.07333 8.99973 1.5 10.2397 1.5H12.6597C13.8997 1.5 14.4997 2.07333 14.4997 3.26V12.74C14.4997 13.9267 13.8997 14.5 12.6597 14.5ZM10.2397 2.5C9.51973 2.5 9.39973 2.68 9.39973 3.26V12.74C9.39973 13.32 9.51307 13.5 10.2397 13.5H12.6597C13.3797 13.5 13.4997 13.32 13.4997 12.74V3.26C13.4997 2.68 13.3864 2.5 12.6597 2.5H10.2397Z" fill="currentColor"/>
</svg>
