<svg width="16" height="16" viewBox="0 0 16 16" fill="none" xmlns="http://www.w3.org/2000/svg">
<g clip-path="url(#clip0_2_5294)">
<path d="M7.98048 15.1667C4.03381 15.1667 0.813812 11.9533 0.813812 8C0.813812 4.04667 4.03381 0.833332 7.98048 0.833332C11.9271 0.833332 15.1471 4.04667 15.1471 8C15.1471 11.9533 11.9338 15.1667 7.98048 15.1667ZM7.98048 1.83333C4.58048 1.83333 1.81381 4.6 1.81381 8C1.81381 11.4 4.58048 14.1667 7.98048 14.1667C11.3805 14.1667 14.1471 11.4 14.1471 8C14.1471 4.6 11.3805 1.83333 7.98048 1.83333Z" fill="currentColor"/>
<path d="M6.67335 10.6332H5.80668C5.19335 10.6332 4.83334 10.2799 4.83334 9.68653V6.3132C4.83334 5.71987 5.20001 5.36653 5.80668 5.36653H6.66668C7.28001 5.36653 7.64001 5.71987 7.64001 6.3132V9.68653C7.64668 10.2799 7.28001 10.6332 6.67335 10.6332ZM5.83334 9.6332H6.64668V6.36653H5.84001L5.83334 9.6332Z" fill="currentColor"/>
<path d="M10.1927 10.6332H9.33274C8.71941 10.6332 8.35941 10.2799 8.35941 9.68653V6.3132C8.35941 5.71987 8.72608 5.36653 9.33274 5.36653H10.1927C10.8061 5.36653 11.1661 5.71987 11.1661 6.3132V9.68653C11.1661 10.2799 10.7994 10.6332 10.1927 10.6332ZM9.35275 9.6332H10.1661V6.36653H9.35941L9.35275 9.6332Z" fill="currentColor"/>
</g>
<defs>
<clipPath id="clip0_2_5294">
<rect width="16" height="16" fill="currentColor"/>
</clipPath>
</defs>
</svg>
