<svg width="16" height="16" viewBox="0 0 16 16" fill="none" xmlns="http://www.w3.org/2000/svg">
<path d="M8.84654 15.5H7.16654C6.69988 15.5 6.27987 15.2999 5.99987 14.9599C5.7532 14.6533 5.65986 14.26 5.74653 13.8867L6.01987 12.68C6.0732 12.4533 6.2732 12.2933 6.50653 12.2933H9.50654C9.73988 12.2933 9.93988 12.4533 9.99321 12.68L10.2665 13.8867C10.3532 14.2867 10.2732 14.6733 10.0265 14.98C9.75321 15.3067 9.32654 15.5 8.84654 15.5ZM6.90654 13.28L6.71988 14.1C6.69988 14.2 6.73988 14.28 6.77988 14.3267C6.86654 14.4333 7.00654 14.4933 7.16654 14.4933H8.84654C9.01988 14.4933 9.16654 14.44 9.24654 14.34C9.29988 14.2733 9.31321 14.1933 9.29321 14.0933L9.10654 13.2733H6.90654V13.28Z" fill="currentColor"/>
<path d="M9.50634 13.2799C9.36634 13.2799 9.23301 13.2265 9.13301 13.1132C8.95301 12.9065 8.96634 12.5931 9.17301 12.4065L10.3263 11.3798C10.7863 10.9731 10.7663 10.8732 10.4263 10.4465L8.39301 7.86647C8.27968 7.72647 8.14634 7.64647 8.00634 7.64647C7.86634 7.64647 7.73301 7.72647 7.61968 7.86647L5.58637 10.4465C5.22637 10.9065 5.23303 11.0065 5.67303 11.3665L6.83968 12.4065C7.04634 12.5865 7.06634 12.9065 6.87968 13.1132C6.69301 13.3199 6.3797 13.3398 6.17303 13.1531L5.0197 12.1265C4.1797 11.4398 4.10636 10.7065 4.7997 9.82647L6.83301 7.24653C7.13301 6.86653 7.55968 6.64649 8.00634 6.64649C8.45301 6.64649 8.87968 6.86653 9.17968 7.24653L11.213 9.82647C11.8997 10.6931 11.833 11.3865 10.993 12.1265L9.83968 13.1531C9.73968 13.2398 9.61968 13.2799 9.50634 13.2799Z" fill="currentColor"/>
<path d="M8.00654 9.60007C7.73321 9.60007 7.50654 9.3734 7.50654 9.10007V7.4134C7.50654 7.14007 7.73321 6.9134 8.00654 6.9134C8.27988 6.9134 8.50654 7.14007 8.50654 7.4134V9.10007C8.50654 9.38007 8.27988 9.60007 8.00654 9.60007Z" fill="currentColor"/>
<path d="M8.34634 3.83333H7.67968C7.03968 3.83333 6.51303 3.30667 6.51303 2.66667V2C6.51303 1.36 7.03968 0.833332 7.67968 0.833332H8.34634C8.98634 0.833332 9.51301 1.36 9.51301 2V2.66667C9.51301 3.30667 8.99301 3.83333 8.34634 3.83333ZM7.67968 1.83333C7.58634 1.83333 7.51301 1.90667 7.51301 2V2.66667C7.51301 2.76 7.58634 2.83333 7.67968 2.83333H8.34634C8.43968 2.83333 8.51301 2.76 8.51301 2.66667V2C8.51301 1.90667 8.43968 1.83333 8.34634 1.83333H7.67968Z" fill="currentColor"/>
<path d="M2.84636 9.94667H2.1797C1.5397 9.94667 1.01303 9.42 1.01303 8.78V8.11333C1.01303 7.47333 1.5397 6.9466 2.1797 6.9466H2.84636C3.48636 6.9466 4.01303 7.47333 4.01303 8.11333V8.78C4.01303 9.42 3.48636 9.94667 2.84636 9.94667ZM2.1797 7.9466C2.08636 7.9466 2.01303 8.02 2.01303 8.11333V8.78C2.01303 8.87333 2.08636 8.94667 2.1797 8.94667H2.84636C2.9397 8.94667 3.01303 8.87333 3.01303 8.78V8.11333C3.01303 8.02 2.9397 7.9466 2.84636 7.9466H2.1797Z" fill="currentColor"/>
<path d="M13.8203 9.94667H13.1537C12.5137 9.94667 11.987 9.42 11.987 8.78V8.11333C11.987 7.47333 12.5137 6.9466 13.1537 6.9466H13.8203C14.4603 6.9466 14.987 7.47333 14.987 8.11333V8.78C14.987 9.42 14.467 9.94667 13.8203 9.94667ZM13.1537 7.9466C13.0603 7.9466 12.987 8.02 12.987 8.11333V8.78C12.987 8.87333 13.0603 8.94667 13.1537 8.94667H13.8203C13.9137 8.94667 13.987 8.87333 13.987 8.78V8.11333C13.987 8.02 13.9137 7.9466 13.8203 7.9466H13.1537Z" fill="currentColor"/>
<path d="M2.50001 7.94687C2.22668 7.94687 2.00001 7.7202 2.00001 7.44687C2.00001 4.60021 4.13334 2.20689 6.96001 1.87355C7.23334 1.84689 7.48001 2.0402 7.51334 2.31353C7.54668 2.58687 7.34668 2.83355 7.07334 2.86688C4.75334 3.14021 3.00001 5.10687 3.00001 7.44687C3.00001 7.7202 2.77334 7.94687 2.50001 7.94687Z" fill="currentColor"/>
<path d="M13.4993 7.9466C13.226 7.9466 12.9993 7.71993 12.9993 7.4466C12.9993 5.11992 11.2593 3.15327 8.95268 2.87327C8.67934 2.83993 8.48601 2.59325 8.51934 2.31992C8.55268 2.04659 8.79934 1.84661 9.07934 1.88661C11.886 2.22661 14.006 4.61993 14.006 7.45327C13.9993 7.71993 13.7793 7.9466 13.4993 7.9466Z" fill="currentColor"/>
</svg>
