<svg width="16" height="16" viewBox="0 0 16 16" fill="none" xmlns="http://www.w3.org/2000/svg">
<path d="M8.84653 15.5H7.16653C6.69987 15.5 6.27985 15.2999 5.99985 14.9599C5.75319 14.6533 5.65985 14.26 5.74652 13.8867L6.01985 12.68C6.07319 12.4533 6.27319 12.2933 6.50652 12.2933H9.50653C9.73987 12.2933 9.93987 12.4533 9.9932 12.68L10.2665 13.8867C10.3532 14.2867 10.2732 14.6733 10.0265 14.98C9.7532 15.3067 9.32653 15.5 8.84653 15.5ZM6.90653 13.28L6.71987 14.1C6.69987 14.2 6.73987 14.28 6.77987 14.3267C6.86653 14.4333 7.00653 14.4933 7.16653 14.4933H8.84653C9.01987 14.4933 9.16653 14.44 9.24653 14.34C9.29987 14.2733 9.3132 14.1933 9.2932 14.0933L9.10653 13.2733H6.90653V13.28Z" fill="currentColor"/>
<path d="M9.50633 13.2799C9.36633 13.2799 9.233 13.2265 9.133 13.1132C8.953 12.9065 8.96633 12.5931 9.173 12.4065L10.3263 11.3798C10.7863 10.9731 10.7663 10.8732 10.4263 10.4465L8.393 7.86647C8.27967 7.72647 8.14633 7.64647 8.00633 7.64647C7.86633 7.64647 7.733 7.72647 7.61967 7.86647L5.58635 10.4465C5.22635 10.9065 5.23303 11.0065 5.67303 11.3665L6.83967 12.4065C7.04633 12.5865 7.06633 12.9065 6.87967 13.1132C6.693 13.3199 6.37969 13.3398 6.17303 13.1531L5.01969 12.1265C4.17969 11.4398 4.10635 10.7065 4.79969 9.82647L6.833 7.24653C7.133 6.86653 7.55967 6.64649 8.00633 6.64649C8.453 6.64649 8.87967 6.86653 9.17967 7.24653L11.213 9.82647C11.8997 10.6931 11.833 11.3865 10.993 12.1265L9.83967 13.1531C9.73967 13.2398 9.61967 13.2799 9.50633 13.2799Z" fill="currentColor"/>
<path d="M8.00653 9.60007C7.7332 9.60007 7.50653 9.3734 7.50653 9.10007V7.4134C7.50653 7.14007 7.7332 6.9134 8.00653 6.9134C8.27987 6.9134 8.50653 7.14007 8.50653 7.4134V9.10007C8.50653 9.38007 8.27987 9.60007 8.00653 9.60007Z" fill="currentColor"/>
<path d="M7.99967 4.19335C7.66633 4.19335 7.333 4.06668 7.07967 3.81335L6.55969 3.29337C6.05302 2.78671 6.05302 1.96003 6.55969 1.45337L7.07967 0.933388C7.58633 0.42672 8.413 0.42672 8.91967 0.933388L9.43967 1.45337C9.94633 1.96003 9.94633 2.78671 9.43967 3.29337L8.91967 3.81335C8.66633 4.06668 8.333 4.19335 7.99967 4.19335ZM7.99967 1.55338C7.91967 1.55338 7.84633 1.58005 7.78633 1.64005L7.26633 2.16003C7.213 2.21336 7.17967 2.29337 7.17967 2.37337C7.17967 2.45337 7.213 2.52671 7.26633 2.58671L7.78633 3.10669C7.89967 3.22002 8.09967 3.22002 8.213 3.10669L8.733 2.58671C8.78633 2.53337 8.81967 2.45337 8.81967 2.37337C8.81967 2.29337 8.78633 2.22003 8.733 2.16003L8.213 1.64005C8.153 1.58672 8.07967 1.55338 7.99967 1.55338Z" fill="currentColor"/>
<path d="M13.7 9.3734H12.9667C12.2467 9.3734 11.6667 8.78667 11.6667 8.07333V7.34007C11.6667 6.62005 12.2533 6.04004 12.9667 6.04004H13.7C14.42 6.04004 15 6.62671 15 7.34007V8.07333C15 8.79333 14.4133 9.3734 13.7 9.3734ZM12.9667 7.04007C12.8 7.04007 12.6667 7.1734 12.6667 7.34007V8.07333C12.6667 8.24 12.8 8.3734 12.9667 8.3734H13.7C13.8667 8.3734 14 8.24 14 8.07333V7.34007C14 7.1734 13.8667 7.04007 13.7 7.04007H12.9667Z" fill="currentColor"/>
<path d="M3.03333 9.3734H2.3C1.58 9.3734 1 8.78667 1 8.07333V7.34007C1 6.62005 1.58667 6.04004 2.3 6.04004H3.03333C3.75333 6.04004 4.33333 6.62671 4.33333 7.34007V8.07333C4.33333 8.79333 3.74667 9.3734 3.03333 9.3734ZM2.3 7.04007C2.13333 7.04007 2 7.1734 2 7.34007V8.07333C2 8.24 2.13333 8.3734 2.3 8.3734H3.03333C3.2 8.3734 3.33333 8.24 3.33333 8.07333V7.34007C3.33333 7.1734 3.2 7.04007 3.03333 7.04007H2.3Z" fill="currentColor"/>
<path d="M12.3598 7.23347C12.2331 7.23347 12.1065 7.1868 12.0065 7.0868L8.47313 3.55349C8.2798 3.36015 8.2798 3.04015 8.47313 2.84682C8.66647 2.65349 8.98647 2.65349 9.1798 2.84682L12.7131 6.38015C12.9065 6.57348 12.9065 6.89347 12.7131 7.0868C12.6131 7.1868 12.4865 7.23347 12.3598 7.23347Z" fill="currentColor"/>
<path d="M3.64026 7.23347C3.51359 7.23347 3.38693 7.1868 3.28693 7.0868C3.09359 6.89347 3.09359 6.57348 3.28693 6.38015L6.82027 2.84682C7.0136 2.65349 7.3336 2.65349 7.52693 2.84682C7.72027 3.04015 7.72027 3.36015 7.52693 3.55349L3.99359 7.0868C3.89359 7.1868 3.76693 7.23347 3.64026 7.23347Z" fill="currentColor"/>
</svg>
