<svg width="16" height="16" viewBox="0 0 16 16" fill="none" xmlns="http://www.w3.org/2000/svg">
<g clip-path="url(#clip0_2_4716)">
<path d="M12.1675 9.48C12.0408 9.48 11.9075 9.42667 11.8141 9.33333L8.03414 5.55334C7.86748 5.38667 7.84081 5.13334 7.96748 4.93334L9.14748 3.06664C9.46748 2.55331 9.96748 2.24 10.5408 2.17333C11.1741 2.1 11.8475 2.36 12.3675 2.88L14.4875 4.99999C14.9875 5.49999 15.2341 6.16666 15.1608 6.83333C15.0941 7.41333 14.7875 7.91326 14.3075 8.21993L12.4408 9.4C12.3541 9.45333 12.2608 9.48 12.1675 9.48ZM9.02748 5.13333L12.2408 8.34667L13.7675 7.38C13.9941 7.24 14.1341 7.00667 14.1608 6.72667C14.2008 6.37335 14.0541 5.99333 13.7741 5.71333L11.6541 3.59333C11.3475 3.28667 10.9808 3.13333 10.6475 3.17333C10.3808 3.2 10.1541 3.35331 9.99414 3.60664L9.02748 5.13333Z" fill="currentColor"/>
<path d="M4.41941 15.1667C3.79274 15.1667 3.23941 14.9467 2.82608 14.5334C2.34608 14.0534 2.13274 13.38 2.21941 12.6333L2.87274 7.11333C2.90608 6.84 3.14608 6.64669 3.42608 6.67333C3.69941 6.70667 3.89941 6.95333 3.86608 7.22667L3.21275 12.7467C3.15942 13.18 3.27274 13.56 3.53274 13.82C3.79274 14.08 4.1794 14.2 4.6194 14.1467L10.4327 13.46C11.6727 13.3133 11.9461 12.98 11.8261 11.7667L11.6661 9C11.6527 8.72667 11.8594 8.48666 12.1394 8.47333C12.4127 8.46 12.6527 8.66673 12.6661 8.94673L12.8261 11.6934C12.9994 13.4134 12.3194 14.2467 10.5527 14.46L4.73941 15.1467C4.63274 15.16 4.52608 15.1667 4.41941 15.1667Z" fill="currentColor"/>
<path d="M8.38674 5.70678C8.37341 5.70678 8.36674 5.70678 8.35341 5.70678L7.18674 5.63346C6.91341 5.61346 6.70008 5.38013 6.72008 5.10013C6.74008 4.8268 6.97341 4.61346 7.25341 4.63346L8.42008 4.70679C8.69341 4.72679 8.90674 4.9601 8.88674 5.24011C8.86674 5.5001 8.64674 5.70678 8.38674 5.70678Z" fill="currentColor"/>
<path d="M3.52048 14.3534C3.39381 14.3534 3.26714 14.3068 3.16714 14.2068C2.97381 14.0135 2.97381 13.6934 3.16714 13.5001L5.28714 11.38C5.48048 11.1867 5.80048 11.1867 5.99382 11.38C6.18715 11.5733 6.18715 11.8934 5.99382 12.0867L3.87381 14.2068C3.77381 14.3068 3.64714 14.3534 3.52048 14.3534Z" fill="currentColor"/>
<path d="M4.33334 7.83333C3.94001 7.83333 3.56001 7.76666 3.20668 7.64667C2.43334 7.38667 1.76667 6.85333 1.34 6.14001C1.00667 5.59335 0.833344 4.96667 0.833344 4.33333C0.833344 3.25333 1.31334 2.26001 2.15334 1.60001C2.76668 1.10668 3.54001 0.833332 4.33334 0.833332C6.26668 0.833332 7.83334 2.40667 7.83334 4.33333C7.83334 4.64667 7.78668 4.97331 7.70001 5.27331C7.61334 5.57998 7.49334 5.86001 7.32668 6.14001C7.13334 6.46001 6.90001 6.73333 6.62668 6.96666C6.00001 7.52666 5.18668 7.83333 4.33334 7.83333ZM4.33334 1.83333C3.76668 1.83333 3.21334 2.02667 2.77334 2.38001C2.17334 2.85334 1.83334 3.56 1.83334 4.33333C1.83334 4.78 1.96 5.22666 2.19334 5.61999C2.5 6.12666 2.97334 6.51332 3.52667 6.69333C4.33334 6.98 5.30002 6.8 5.97335 6.20667C6.16668 6.04 6.33335 5.83999 6.47335 5.61999C6.59335 5.41999 6.68001 5.22 6.74001 5C6.80001 4.78 6.83334 4.55333 6.83334 4.33333C6.83334 2.95333 5.71334 1.83333 4.33334 1.83333Z" fill="currentColor"/>
<path d="M5.13319 5.62014C5.00652 5.62014 4.87986 5.57349 4.77986 5.47349L3.19319 3.88682C2.99986 3.69349 2.99986 3.37348 3.19319 3.18015C3.38652 2.98682 3.70653 2.98682 3.89986 3.18015L5.48652 4.76683C5.67986 4.96016 5.67986 5.28016 5.48652 5.47349C5.39319 5.56683 5.25986 5.62014 5.13319 5.62014Z" fill="currentColor"/>
<path d="M3.5335 5.6332C3.40683 5.6332 3.28016 5.58651 3.18016 5.48651C2.98683 5.29318 2.98683 4.97318 3.18016 4.77984L4.76682 3.19318C4.96016 2.99985 5.28017 2.99985 5.4735 3.19318C5.66684 3.38651 5.66684 3.70651 5.4735 3.89984L3.88683 5.48651C3.78683 5.58651 3.66016 5.6332 3.5335 5.6332Z" fill="currentColor"/>
</g>
<defs>
<clipPath id="clip0_2_4716">
<rect width="16" height="16" fill="currentColor"/>
</clipPath>
</defs>
</svg>
