<svg width="16" height="16" viewBox="0 0 16 16" fill="none" xmlns="http://www.w3.org/2000/svg">
<g clip-path="url(#clip0_2_4714)">
<path d="M12.1675 9.48C12.0408 9.48 11.9075 9.42667 11.8141 9.33333L8.03414 5.55334C7.86748 5.38667 7.84081 5.13334 7.96748 4.93334L9.14748 3.06664C9.46748 2.55331 9.96748 2.24 10.5408 2.17333C11.1741 2.1 11.8475 2.36 12.3675 2.88L14.4875 4.99999C14.9875 5.49999 15.2341 6.16666 15.1608 6.83333C15.0941 7.41333 14.7875 7.91326 14.3075 8.21993L12.4408 9.4C12.3541 9.45333 12.2608 9.48 12.1675 9.48ZM9.02748 5.13333L12.2408 8.34667L13.7675 7.38C13.9941 7.24 14.1341 7.00667 14.1608 6.72667C14.2008 6.37335 14.0541 5.99333 13.7741 5.71333L11.6541 3.59333C11.3475 3.28667 10.9808 3.13333 10.6475 3.17333C10.3808 3.2 10.1541 3.35331 9.99414 3.60664L9.02748 5.13333Z" fill="currentColor"/>
<path d="M4.41942 15.1667C3.79276 15.1667 3.23941 14.9467 2.82608 14.5334C2.34608 14.0534 2.13274 13.38 2.21941 12.6333L2.87275 7.11333C2.90608 6.84 3.15276 6.64669 3.4261 6.67333C3.69943 6.70667 3.89941 6.95333 3.86608 7.22667L3.21276 12.7467C3.15942 13.18 3.27274 13.56 3.53274 13.82C3.79274 14.08 4.17942 14.2 4.61942 14.1467L10.4327 13.46C11.6727 13.3133 11.9461 12.98 11.8261 11.7667L11.6661 9C11.6527 8.72667 11.8594 8.48666 12.1394 8.47333C12.4127 8.46 12.6527 8.66673 12.6661 8.94673L12.8261 11.6934C12.9994 13.4134 12.3194 14.2467 10.5527 14.46L4.73941 15.1467C4.63274 15.16 4.52609 15.1667 4.41942 15.1667Z" fill="currentColor"/>
<path d="M8.38674 5.70682C8.37341 5.70682 8.36674 5.70682 8.35341 5.70682L7.18674 5.6335C6.91341 5.6135 6.70008 5.38017 6.72008 5.10017C6.74008 4.82017 6.97341 4.6135 7.25341 4.6335L8.42008 4.70682C8.69341 4.72682 8.90674 4.96014 8.88674 5.24015C8.86674 5.50014 8.64674 5.70682 8.38674 5.70682Z" fill="currentColor"/>
<path d="M3.52048 14.3534C3.39381 14.3534 3.26714 14.3068 3.16714 14.2068C2.97381 14.0135 2.97381 13.6934 3.16714 13.5001L5.28714 11.38C5.48048 11.1867 5.80047 11.1867 5.9938 11.38C6.18714 11.5733 6.18714 11.8934 5.9938 12.0867L3.87381 14.2068C3.77381 14.3068 3.64714 14.3534 3.52048 14.3534Z" fill="currentColor"/>
<path d="M4.33334 7.83333C3.94001 7.83333 3.56001 7.76666 3.20668 7.64667C2.43334 7.38667 1.76668 6.85333 1.34002 6.14001C1.00668 5.59335 0.833344 4.96667 0.833344 4.33333C0.833344 3.25333 1.31335 2.26001 2.15335 1.60001C2.76668 1.10668 3.54001 0.833332 4.33334 0.833332C6.26668 0.833332 7.83334 2.40667 7.83334 4.33333C7.83334 4.64667 7.78668 4.97331 7.70001 5.27331C7.61334 5.57998 7.49334 5.86001 7.32668 6.14001C7.13334 6.46001 6.90001 6.73333 6.62668 6.96666C6.00001 7.52666 5.18668 7.83333 4.33334 7.83333ZM4.33334 1.83333C3.76668 1.83333 3.21334 2.02667 2.77334 2.38001C2.17334 2.85334 1.83334 3.56 1.83334 4.33333C1.83334 4.78 1.96002 5.22666 2.19335 5.61999C2.50002 6.12666 2.97335 6.51332 3.52668 6.69333C4.34002 6.98 5.3 6.8 5.97334 6.20667C6.16667 6.04 6.33334 5.83999 6.47334 5.61999C6.59334 5.41999 6.68001 5.22 6.74001 5C6.80001 4.78 6.83334 4.55333 6.83334 4.33333C6.83334 2.95333 5.71334 1.83333 4.33334 1.83333Z" fill="currentColor"/>
<path d="M5.44054 4.83333H3.20053C2.9272 4.83333 2.70053 4.60667 2.70053 4.33333C2.70053 4.06 2.9272 3.83333 3.20053 3.83333H5.44054C5.71388 3.83333 5.94054 4.06 5.94054 4.33333C5.94054 4.60667 5.72054 4.83333 5.44054 4.83333Z" fill="currentColor"/>
</g>
<defs>
<clipPath id="clip0_2_4714">
<rect width="16" height="16" fill="currentColor"/>
</clipPath>
</defs>
</svg>
