<svg width="16" height="16" viewBox="0 0 16 16" fill="none" xmlns="http://www.w3.org/2000/svg">
<g clip-path="url(#clip0_2_4707)">
<path d="M12.0002 5.27335C11.9802 5.27335 11.9669 5.27335 11.9469 5.27335H11.9135C10.6535 5.23335 9.71354 4.26001 9.71354 3.06001C9.71354 1.83334 10.7135 0.840005 11.9335 0.840005C13.1535 0.840005 14.1535 1.84001 14.1535 3.06001C14.1469 4.26667 13.2069 5.24001 12.0069 5.28001C12.0069 5.27334 12.0069 5.27335 12.0002 5.27335ZM11.9335 1.83335C11.2602 1.83335 10.7135 2.38001 10.7135 3.05335C10.7135 3.71335 11.2269 4.24668 11.8869 4.27335C11.8935 4.26668 11.9469 4.26668 12.0069 4.27335C12.6535 4.24001 13.1535 3.70668 13.1602 3.05335C13.1602 2.38001 12.6135 1.83335 11.9335 1.83335Z" fill="currentColor"/>
<path d="M12.007 10.1867C11.747 10.1867 11.487 10.1667 11.227 10.1201C10.9537 10.0734 10.7737 9.8134 10.8203 9.54007C10.867 9.26673 11.127 9.08673 11.4003 9.1334C12.2203 9.2734 13.087 9.12013 13.667 8.73347C13.9803 8.5268 14.147 8.26673 14.147 8.00673C14.147 7.74673 13.9737 7.4934 13.667 7.28673C13.087 6.90007 12.207 6.74673 11.3803 6.8934C11.107 6.94673 10.847 6.76007 10.8003 6.48677C10.7537 6.21343 10.9337 5.95343 11.207 5.90677C12.2937 5.71343 13.4203 5.92009 14.2203 6.45343C14.807 6.84673 15.147 7.40673 15.147 8.00673C15.147 8.60007 14.8137 9.1668 14.2203 9.5668C13.6137 9.9668 12.827 10.1867 12.007 10.1867Z" fill="currentColor"/>
<path d="M3.98032 5.27333C3.97366 5.27333 3.96699 5.27333 3.96699 5.27333C2.76699 5.23333 1.82699 4.26 1.82032 3.06C1.82032 1.83333 2.82032 0.833332 4.04032 0.833332C5.26032 0.833332 6.26032 1.83333 6.26032 3.05333C6.26032 4.26 5.32032 5.23333 4.12032 5.27333L3.98032 4.77333L4.02699 5.27333C4.01366 5.27333 3.99366 5.27333 3.98032 5.27333ZM4.04699 4.27333C4.08699 4.27333 4.12032 4.27333 4.16032 4.28C4.75366 4.25333 5.27366 3.72 5.27366 3.06C5.27366 2.38667 4.72699 1.83999 4.05366 1.83999C3.38032 1.83999 2.83366 2.38667 2.83366 3.06C2.83366 3.71333 3.34032 4.24 3.98699 4.28C3.99366 4.27333 4.02032 4.27333 4.04699 4.27333Z" fill="currentColor"/>
<path d="M3.97334 10.1867C3.15334 10.1867 2.36668 9.9668 1.76001 9.5668C1.17334 9.17347 0.833344 8.60673 0.833344 8.00673C0.833344 7.4134 1.17334 6.84673 1.76001 6.45343C2.56001 5.92009 3.68668 5.71343 4.77334 5.90677C5.04668 5.95343 5.22668 6.21343 5.18001 6.48677C5.13334 6.76007 4.87334 6.94673 4.60001 6.8934C3.77334 6.74673 2.90001 6.90007 2.31334 7.28673C2.00001 7.4934 1.83334 7.74673 1.83334 8.00673C1.83334 8.26673 2.00668 8.5268 2.31334 8.73347C2.89334 9.12013 3.76001 9.2734 4.58001 9.1334C4.85334 9.08673 5.11334 9.2734 5.16001 9.54007C5.20668 9.8134 5.02668 10.0734 4.75334 10.1201C4.49334 10.1667 4.23334 10.1867 3.97334 10.1867Z" fill="currentColor"/>
<path d="M8.00021 10.2533C7.98021 10.2533 7.96688 10.2533 7.94688 10.2533H7.91354C6.65355 10.2133 5.71355 9.24 5.71355 8.04C5.71355 6.81333 6.71354 5.81999 7.93354 5.81999C9.15354 5.81999 10.1535 6.82 10.1535 8.04C10.1469 9.24667 9.20688 10.22 8.00688 10.26C8.00688 10.2533 8.00688 10.2533 8.00021 10.2533ZM7.93354 6.81333C7.26021 6.81333 6.71354 7.36 6.71354 8.03333C6.71354 8.69333 7.22688 9.22667 7.88688 9.25333C7.89354 9.24667 7.94688 9.24667 8.00688 9.25333C8.65354 9.22 9.15354 8.68667 9.16021 8.03333C9.16021 7.36667 8.61354 6.81333 7.93354 6.81333Z" fill="currentColor"/>
<path d="M7.99954 15.1733C7.19954 15.1733 6.39954 14.9667 5.77954 14.5467C5.19288 14.1533 4.85288 13.5933 4.85288 12.9933C4.85288 12.4 5.18621 11.8267 5.77954 11.4333C7.02621 10.6067 8.97954 10.6067 10.2195 11.4333C10.8062 11.8267 11.1462 12.3867 11.1462 12.9867C11.1462 13.58 10.8129 14.1533 10.2195 14.5467C9.59954 14.96 8.79954 15.1733 7.99954 15.1733ZM6.33288 12.2733C6.01954 12.48 5.85288 12.74 5.85288 13C5.85288 13.26 6.02621 13.5133 6.33288 13.72C7.23288 14.3267 8.75954 14.3267 9.65954 13.72C9.97288 13.5133 10.1395 13.2533 10.1395 12.9933C10.1395 12.7333 9.96621 12.48 9.65954 12.2733C8.76621 11.6667 7.23954 11.6733 6.33288 12.2733Z" fill="currentColor"/>
</g>
<defs>
<clipPath id="clip0_2_4707">
<rect width="16" height="16" fill="currentColor"/>
</clipPath>
</defs>
</svg>
