<svg width="16" height="16" viewBox="0 0 16 16" fill="none" xmlns="http://www.w3.org/2000/svg">
<g clip-path="url(#clip0_2_4927)">
<path d="M5.71317 10.6801C5.5865 10.6801 5.45984 10.6334 5.35984 10.5334C5.16651 10.3401 5.16651 10.0201 5.35984 9.82673L9.72653 5.4601C9.91986 5.26677 10.2399 5.26677 10.4332 5.4601C10.6265 5.65344 10.6265 5.97343 10.4332 6.16676L6.0665 10.5334C5.9665 10.6334 5.83983 10.6801 5.71317 10.6801Z" fill="currentColor"/>
<path d="M5.98667 7.4066C5.26 7.4066 4.66666 6.81327 4.66666 6.08661C4.66666 5.35994 5.26 4.7666 5.98667 4.7666C6.71333 4.7666 7.30666 5.35994 7.30666 6.08661C7.30666 6.81327 6.71333 7.4066 5.98667 7.4066ZM5.98667 5.77327C5.81333 5.77327 5.66666 5.91328 5.66666 6.09328C5.66666 6.27328 5.80667 6.41326 5.98667 6.41326C6.16667 6.41326 6.30665 6.27328 6.30665 6.09328C6.30665 5.91328 6.16 5.77327 5.98667 5.77327Z" fill="currentColor"/>
<path d="M10.346 11.2266C9.61933 11.2266 9.02606 10.6333 9.02606 9.9066C9.02606 9.17993 9.61933 8.5866 10.346 8.5866C11.0727 8.5866 11.6661 9.17993 11.6661 9.9066C11.6661 10.6333 11.0727 11.2266 10.346 11.2266ZM10.346 9.59326C10.1727 9.59326 10.0261 9.73326 10.0261 9.91326C10.0261 10.0933 10.166 10.2333 10.346 10.2333C10.526 10.2333 10.6661 10.0933 10.6661 9.91326C10.6661 9.73326 10.526 9.59326 10.346 9.59326Z" fill="currentColor"/>
<path d="M7.99999 15.1667C4.04666 15.1667 0.833328 11.9533 0.833328 8C0.833328 4.04667 4.04666 0.833332 7.99999 0.833332C11.9533 0.833332 15.1667 4.04667 15.1667 8C15.1667 11.9533 11.9533 15.1667 7.99999 15.1667ZM7.99999 1.83333C4.59999 1.83333 1.83333 4.6 1.83333 8C1.83333 11.4 4.59999 14.1667 7.99999 14.1667C11.4 14.1667 14.1667 11.4 14.1667 8C14.1667 4.6 11.4 1.83333 7.99999 1.83333Z" fill="currentColor"/>
</g>
<defs>
<clipPath id="clip0_2_4927">
<rect width="16" height="16" fill="currentColor"/>
</clipPath>
</defs>
</svg>
