<svg width="16" height="16" viewBox="0 0 16 16" fill="none" xmlns="http://www.w3.org/2000/svg">
<g clip-path="url(#clip0_2_4889)">
<path d="M9.99999 15.1667H5.99999C2.37999 15.1667 0.833328 13.62 0.833328 10V6C0.833328 2.38 2.37999 0.833332 5.99999 0.833332H9.99999C13.62 0.833332 15.1667 2.38 15.1667 6V10C15.1667 13.62 13.62 15.1667 9.99999 15.1667ZM5.99999 1.83333C2.92666 1.83333 1.83333 2.92667 1.83333 6V10C1.83333 13.0733 2.92666 14.1667 5.99999 14.1667H9.99999C13.0733 14.1667 14.1667 13.0733 14.1667 10V6C14.1667 2.92667 13.0733 1.83333 9.99999 1.83333H5.99999Z" fill="currentColor"/>
<path d="M5.71317 10.6801C5.5865 10.6801 5.45984 10.6334 5.35984 10.5334C5.16651 10.3401 5.16651 10.0201 5.35984 9.82673L9.72653 5.4601C9.91986 5.26677 10.2399 5.26677 10.4332 5.4601C10.6265 5.65344 10.6265 5.97343 10.4332 6.16676L6.0665 10.5334C5.9665 10.6334 5.83983 10.6801 5.71317 10.6801Z" fill="currentColor"/>
<path d="M5.98667 7.4066C5.26 7.4066 4.66666 6.81327 4.66666 6.08661C4.66666 5.35994 5.26 4.7666 5.98667 4.7666C6.71333 4.7666 7.30666 5.35994 7.30666 6.08661C7.30666 6.81327 6.71333 7.4066 5.98667 7.4066ZM5.98667 5.77327C5.81333 5.77327 5.66666 5.91328 5.66666 6.09328C5.66666 6.27328 5.80667 6.41326 5.98667 6.41326C6.16667 6.41326 6.30665 6.27328 6.30665 6.09328C6.30665 5.91328 6.16 5.77327 5.98667 5.77327Z" fill="currentColor"/>
<path d="M10.346 11.2266C9.61933 11.2266 9.02606 10.6333 9.02606 9.9066C9.02606 9.17993 9.61933 8.5866 10.346 8.5866C11.0727 8.5866 11.6661 9.17993 11.6661 9.9066C11.6661 10.6333 11.0727 11.2266 10.346 11.2266ZM10.346 9.59326C10.1727 9.59326 10.0261 9.73326 10.0261 9.91326C10.0261 10.0933 10.166 10.2333 10.346 10.2333C10.526 10.2333 10.6661 10.0933 10.6661 9.91326C10.6661 9.73326 10.526 9.59326 10.346 9.59326Z" fill="currentColor"/>
</g>
<defs>
<clipPath id="clip0_2_4889">
<rect width="16" height="16" fill="currentColor"/>
</clipPath>
</defs>
</svg>
