<svg width="16" height="16" viewBox="0 0 16 16" fill="none" xmlns="http://www.w3.org/2000/svg">
<path d="M11.3333 14.5H4.66666C1.72666 14.5 0.833328 13.6067 0.833328 10.6667V5.33333C0.833328 2.39333 1.72666 1.5 4.66666 1.5H11.3333C14.2733 1.5 15.1667 2.39333 15.1667 5.33333V10.6667C15.1667 13.6067 14.2733 14.5 11.3333 14.5ZM4.66666 2.5C2.27999 2.5 1.83333 2.95333 1.83333 5.33333V10.6667C1.83333 13.0467 2.27999 13.5 4.66666 13.5H11.3333C13.72 13.5 14.1667 13.0467 14.1667 10.6667V5.33333C14.1667 2.95333 13.72 2.5 11.3333 2.5H4.66666Z" fill="currentColor"/>
<path d="M12.6667 5.83333H9.33333C9.05999 5.83333 8.83333 5.60667 8.83333 5.33333C8.83333 5.06 9.05999 4.83333 9.33333 4.83333H12.6667C12.94 4.83333 13.1667 5.06 13.1667 5.33333C13.1667 5.60667 12.94 5.83333 12.6667 5.83333Z" fill="currentColor"/>
<path d="M12.6667 8.5H9.99999C9.72666 8.5 9.49999 8.27333 9.49999 8C9.49999 7.72667 9.72666 7.5 9.99999 7.5H12.6667C12.94 7.5 13.1667 7.72667 13.1667 8C13.1667 8.27333 12.94 8.5 12.6667 8.5Z" fill="currentColor"/>
<path d="M12.6667 11.1667H11.3333C11.06 11.1667 10.8333 10.94 10.8333 10.6667C10.8333 10.3933 11.06 10.1667 11.3333 10.1667H12.6667C12.94 10.1667 13.1667 10.3933 13.1667 10.6667C13.1667 10.94 12.94 11.1667 12.6667 11.1667Z" fill="currentColor"/>
<path d="M5.66695 8.0266C4.72695 8.0266 3.96028 7.25993 3.96028 6.31995C3.96028 5.37995 4.72695 4.61328 5.66695 4.61328C6.60695 4.61328 7.37359 5.37995 7.37359 6.31995C7.37359 7.25993 6.60695 8.0266 5.66695 8.0266ZM5.66695 5.61328C5.28028 5.61328 4.96028 5.93328 4.96028 6.31995C4.96028 6.7066 5.28028 7.0266 5.66695 7.0266C6.05361 7.0266 6.37361 6.7066 6.37361 6.31995C6.37361 5.93328 6.05361 5.61328 5.66695 5.61328Z" fill="currentColor"/>
<path d="M7.99993 11.3865C7.74659 11.3865 7.52659 11.1932 7.49993 10.9332C7.42659 10.2132 6.84659 9.6332 6.11993 9.56653C5.81327 9.53987 5.5066 9.53987 5.19993 9.56653C4.47327 9.6332 3.89327 10.2065 3.81993 10.9332C3.79327 11.2065 3.5466 11.4132 3.27327 11.3799C2.99993 11.3532 2.79993 11.1065 2.8266 10.8332C2.9466 9.6332 3.89994 8.67987 5.1066 8.5732C5.47327 8.53987 5.8466 8.53987 6.21327 8.5732C7.41326 8.68653 8.37326 9.63987 8.49326 10.8332C8.51993 11.1065 8.31993 11.3532 8.04659 11.3799C8.03326 11.3865 8.01326 11.3865 7.99993 11.3865Z" fill="currentColor"/>
</svg>
