<svg width="16" height="16" viewBox="0 0 16 16" fill="none" xmlns="http://www.w3.org/2000/svg">
<path d="M9.35946 15.1667H6.16615C5.08615 15.1667 4.10615 14.7467 3.39948 13.9733C2.69282 13.2067 2.35282 12.1933 2.44615 11.12C2.67282 8.38667 5.08615 6.16667 7.8328 6.16667C10.3595 6.16667 12.7461 8.19334 13.1661 10.68C13.3661 11.8667 13.0728 12.9867 12.3528 13.84C11.6195 14.6933 10.5595 15.1667 9.35946 15.1667ZM7.82613 7.16667C5.59282 7.16667 3.62615 8.98 3.43948 11.2067C3.37282 12 3.61948 12.74 4.13282 13.3C4.64615 13.86 5.36615 14.1667 6.15948 14.1667H9.3528C10.2528 14.1667 11.0461 13.82 11.5728 13.2C12.0995 12.58 12.3128 11.74 12.1661 10.8467C11.8328 8.82 9.88613 7.16667 7.82613 7.16667Z" fill="currentColor"/>
<path d="M6.98046 5.5C5.78713 5.5 4.8138 4.52667 4.8138 3.33333C4.8138 2.14 5.78713 1.16667 6.98046 1.16667C8.1738 1.16667 9.14713 2.14 9.14713 3.33333C9.14713 4.52667 8.18046 5.5 6.98046 5.5ZM6.98046 2.16667C6.34046 2.16667 5.8138 2.69333 5.8138 3.33333C5.8138 3.97333 6.34046 4.5 6.98046 4.5C7.62046 4.5 8.14713 3.97333 8.14713 3.33333C8.14713 2.69333 7.62713 2.16667 6.98046 2.16667Z" fill="currentColor"/>
<path d="M11.5339 6.29997C10.5205 6.29997 9.70053 5.47997 9.70053 4.46663C9.70053 3.4533 10.5205 2.6333 11.5339 2.6333C12.5472 2.6333 13.3672 3.4533 13.3672 4.46663C13.3672 5.47997 12.5472 6.29997 11.5339 6.29997ZM11.5339 3.6333C11.0739 3.6333 10.7005 4.00663 10.7005 4.46663C10.7005 4.92663 11.0739 5.29997 11.5339 5.29997C11.9939 5.29997 12.3672 4.92663 12.3672 4.46663C12.3672 4.00663 11.9939 3.6333 11.5339 3.6333Z" fill="currentColor"/>
<path d="M14 8.96667C13.1733 8.96667 12.5 8.29333 12.5 7.46667C12.5 6.63997 13.1733 5.96663 14 5.96663C14.8267 5.96663 15.5 6.63997 15.5 7.46667C15.5 8.29333 14.8267 8.96667 14 8.96667ZM14 6.96667C13.7267 6.96667 13.5 7.19333 13.5 7.46667C13.5 7.74 13.7267 7.96667 14 7.96667C14.2733 7.96667 14.5 7.74 14.5 7.46667C14.5 7.19333 14.2733 6.96667 14 6.96667Z" fill="currentColor"/>
<path d="M2.64713 7.63333C1.6338 7.63333 0.813797 6.81333 0.813797 5.79997C0.813797 4.78663 1.6338 3.96663 2.64713 3.96663C3.66046 3.96663 4.48046 4.78663 4.48046 5.79997C4.48046 6.81333 3.66046 7.63333 2.64713 7.63333ZM2.64713 4.96663C2.18713 4.96663 1.8138 5.33997 1.8138 5.79997C1.8138 6.25997 2.18713 6.6333 2.64713 6.6333C3.10713 6.6333 3.48046 6.25997 3.48046 5.79997C3.48046 5.33997 3.10713 4.96663 2.64713 4.96663Z" fill="currentColor"/>
</svg>
