<svg width="16" height="16" viewBox="0 0 16 16" fill="none" xmlns="http://www.w3.org/2000/svg">
<path d="M14 15.1667H2C1.72667 15.1667 1.5 14.94 1.5 14.6667C1.5 14.3933 1.72667 14.1667 2 14.1667H14C14.2733 14.1667 14.5 14.3933 14.5 14.6667C14.5 14.94 14.2733 15.1667 14 15.1667Z" fill="currentColor"/>
<path d="M14 1.83333H2C1.72667 1.83333 1.5 1.60667 1.5 1.33333C1.5 1.06 1.72667 0.833332 2 0.833332H14C14.2733 0.833332 14.5 1.06 14.5 1.33333C14.5 1.60667 14.2733 1.83333 14 1.83333Z" fill="currentColor"/>
<path d="M8 12.5C7.72667 12.5 7.5 12.2733 7.5 12V4C7.5 3.72667 7.72667 3.5 8 3.5C8.27333 3.5 8.5 3.72667 8.5 4V12C8.5 12.2733 8.27333 12.5 8 12.5Z" fill="currentColor"/>
<path d="M9.88627 5.6466C9.7596 5.6466 9.63293 5.59993 9.53293 5.49993L7.9996 3.9666L6.46625 5.49993C6.27291 5.69326 5.95291 5.69326 5.75959 5.49993C5.56625 5.3066 5.56625 4.9866 5.75959 4.79327L7.64627 2.9066C7.83293 2.71993 8.16627 2.71993 8.35293 2.9066L10.2396 4.79327C10.4329 4.9866 10.4329 5.3066 10.2396 5.49993C10.1396 5.59993 10.0129 5.6466 9.88627 5.6466Z" fill="currentColor"/>
<path d="M7.9996 12.9801C7.86627 12.9801 7.7396 12.9267 7.64627 12.8334L5.75959 10.9467C5.56625 10.7534 5.56625 10.4334 5.75959 10.2401C5.95291 10.0467 6.27291 10.0467 6.46625 10.2401L7.9996 11.7734L9.53293 10.2401C9.72627 10.0467 10.0463 10.0467 10.2396 10.2401C10.4329 10.4334 10.4329 10.7534 10.2396 10.9467L8.35293 12.8334C8.2596 12.9267 8.13293 12.9801 7.9996 12.9801Z" fill="currentColor"/>
</svg>
