<svg width="16" height="16" viewBox="0 0 16 16" fill="none" xmlns="http://www.w3.org/2000/svg">
<g clip-path="url(#clip0_2_4704)">
<path d="M10 15.1667H6C2.38 15.1667 0.833334 13.62 0.833334 10V6C0.833334 2.38 2.38 0.833335 6 0.833335H10C13.62 0.833335 15.1667 2.38 15.1667 6V10C15.1667 13.62 13.62 15.1667 10 15.1667ZM6 1.83333C2.92667 1.83333 1.83333 2.92667 1.83333 6V10C1.83333 13.0733 2.92667 14.1667 6 14.1667H10C13.0733 14.1667 14.1667 13.0733 14.1667 10V6C14.1667 2.92667 13.0733 1.83333 10 1.83333H6Z" fill="currentColor"/>
<path d="M9.30007 15.1668C9.0734 15.1668 8.87333 15.0135 8.81333 14.7868L5.5134 1.45345C5.44673 1.18679 5.61339 0.913461 5.88006 0.846795C6.14673 0.780128 6.42004 0.940128 6.48671 1.21346L9.78673 14.5468C9.8534 14.8135 9.68673 15.0868 9.42007 15.1535C9.38007 15.1601 9.34007 15.1668 9.30007 15.1668Z" fill="currentColor"/>
<path d="M1.33323 10.5001C1.11323 10.5001 0.919921 10.3601 0.853254 10.1401C0.773254 9.8734 0.926554 9.60007 1.19322 9.52007L7.5466 7.66673C7.81327 7.58673 8.0866 7.74007 8.1666 8.00673C8.2466 8.2734 8.0932 8.54673 7.82653 8.62673L1.47325 10.4801C1.42658 10.4934 1.3799 10.5001 1.33323 10.5001Z" fill="currentColor"/>
</g>
<defs>
<clipPath id="clip0_2_4704">
<rect width="16" height="16" fill="currentColor"/>
</clipPath>
</defs>
</svg>
