<svg width="16" height="16" viewBox="0 0 16 16" fill="none" xmlns="http://www.w3.org/2000/svg">
<g clip-path="url(#clip0_2_4983)">
<path d="M12.7132 13.2134C12.5865 13.2134 12.4599 13.1667 12.3599 13.0667C12.1665 12.8734 12.1665 12.5534 12.3599 12.3601C14.7665 9.9534 14.7665 6.04007 12.3599 3.64007C12.1665 3.44674 12.1665 3.12675 12.3599 2.93341C12.5532 2.74008 12.8732 2.74008 13.0665 2.93341C15.8599 5.72675 15.8599 10.2734 13.0665 13.0667C12.9665 13.1667 12.8399 13.2134 12.7132 13.2134Z" fill="currentColor"/>
<path d="M3.28687 13.2134C3.1602 13.2134 3.03354 13.1667 2.93354 13.0667C0.140206 10.2734 0.140206 5.72675 2.93354 2.93341C3.12687 2.74008 3.44687 2.74008 3.6402 2.93341C3.83354 3.12675 3.83354 3.44674 3.6402 3.64007C1.23354 6.04674 1.23354 9.96007 3.6402 12.3601C3.83354 12.5534 3.83354 12.8734 3.6402 13.0667C3.5402 13.1667 3.41354 13.2134 3.28687 13.2134Z" fill="currentColor"/>
<path d="M7.9992 15.14C7.16586 15.1333 6.37253 14.9999 5.63253 14.7399C5.37253 14.6466 5.23252 14.36 5.32585 14.1C5.41918 13.84 5.6992 13.7 5.96586 13.7933C6.60586 14.0133 7.28586 14.1333 8.00586 14.1333C8.7192 14.1333 9.40586 14.0133 10.0392 13.7933C10.2992 13.7067 10.5859 13.84 10.6792 14.1C10.7725 14.36 10.6325 14.6466 10.3725 14.7399C9.62586 14.9999 8.83253 15.14 7.9992 15.14Z" fill="currentColor"/>
<path d="M10.2006 2.22673C10.1473 2.22673 10.0873 2.22003 10.0339 2.20003C9.39393 1.98003 8.70733 1.86003 7.994 1.86003C7.2806 1.86003 6.60064 1.98003 5.96064 2.20003C5.70064 2.2867 5.41398 2.15339 5.32064 1.89339C5.22731 1.63339 5.3673 1.34671 5.6273 1.25338C6.3673 0.993381 7.16733 0.860027 7.994 0.860027C8.82066 0.860027 9.62066 0.993381 10.3607 1.25338C10.6207 1.34671 10.7607 1.63339 10.6673 1.89339C10.6007 2.10006 10.4073 2.22673 10.2006 2.22673Z" fill="currentColor"/>
<path d="M7.04013 11.1733C6.7468 11.1733 6.46682 11.1 6.22015 10.96C5.64682 10.6267 5.32682 9.97333 5.32682 9.12V6.88667C5.32682 6.03335 5.64015 5.38001 6.22015 5.04668C6.79346 4.71335 7.5202 4.76667 8.2602 5.19333L10.1935 6.30669C10.9335 6.73333 11.3402 7.33333 11.3402 8C11.3402 8.66667 10.9335 9.26667 10.1935 9.69333L8.2602 10.8067C7.8402 11.0533 7.42013 11.1733 7.04013 11.1733ZM7.04013 5.82667C6.92013 5.82667 6.8068 5.85333 6.72013 5.90667C6.47348 6.05333 6.32682 6.40668 6.32682 6.88V9.11333C6.32682 9.58667 6.46682 9.94667 6.72013 10.0867C6.9668 10.2267 7.34686 10.1733 7.7602 9.94L9.69353 8.82667C10.1069 8.58667 10.3402 8.28667 10.3402 8C10.3402 7.71333 10.1069 7.41333 9.69353 7.17333L7.7602 6.06003C7.49353 5.90669 7.2468 5.82667 7.04013 5.82667Z" fill="currentColor"/>
</g>
<defs>
<clipPath id="clip0_2_4983">
<rect width="16" height="16" fill="currentColor"/>
</clipPath>
</defs>
</svg>
