<svg width="16" height="16" viewBox="0 0 16 16" fill="none" xmlns="http://www.w3.org/2000/svg">
<g clip-path="url(#clip0_2_4915)">
<path d="M7.98046 15.1667C4.0338 15.1667 0.813797 11.9533 0.813797 8C0.813797 4.04667 4.0338 0.833332 7.98046 0.833332C11.9271 0.833332 15.1471 4.04667 15.1471 8C15.1471 11.9533 11.9338 15.1667 7.98046 15.1667ZM7.98046 1.83333C4.58046 1.83333 1.8138 4.6 1.8138 8C1.8138 11.4 4.58046 14.1667 7.98046 14.1667C11.3805 14.1667 14.1471 11.4 14.1471 8C14.1471 4.6 11.3805 1.83333 7.98046 1.83333Z" fill="currentColor"/>
<path d="M7.04013 11.3267C6.7468 11.3267 6.46682 11.2533 6.22015 11.1133C5.64682 10.78 5.32682 10.1267 5.32682 9.27333V7.04C5.32682 6.18666 5.64015 5.53333 6.21348 5.19999C6.7868 4.86666 7.51346 4.91999 8.25346 5.34666L10.1868 6.45999C10.9268 6.88666 11.3335 7.48666 11.3335 8.15333C11.3335 8.81333 10.9268 9.42 10.1868 9.84667L8.25346 10.96C7.84013 11.2067 7.42013 11.3267 7.04013 11.3267ZM7.04013 5.97999C6.92013 5.97999 6.8068 6.00666 6.72013 6.05999C6.46682 6.20666 6.32682 6.55999 6.32682 7.04V9.27333C6.32682 9.74667 6.46682 10.1067 6.72013 10.2467C6.9668 10.3933 7.3468 10.3333 7.76013 10.1L9.69346 8.98666C10.1068 8.74666 10.3401 8.44666 10.3401 8.16C10.3401 7.87333 10.1001 7.57333 9.69346 7.33333L7.76013 6.21999C7.49346 6.05999 7.2468 5.97999 7.04013 5.97999Z" fill="currentColor"/>
</g>
<defs>
<clipPath id="clip0_2_4915">
<rect width="16" height="16" fill="currentColor"/>
</clipPath>
</defs>
</svg>
