<svg width="16" height="16" viewBox="0 0 16 16" fill="none" xmlns="http://www.w3.org/2000/svg">
<g clip-path="url(#clip0_2_4913)">
<path d="M8 15.1667C4.04667 15.1667 0.833334 11.9533 0.833334 8C0.833334 4.04667 4.04667 0.833332 8 0.833332C11.9533 0.833332 15.1667 4.04667 15.1667 8C15.1667 8.93333 14.9933 9.82667 14.6467 10.6667C14.5867 10.8067 14.4733 10.9133 14.3267 10.9533C14.18 11 14.0267 10.9733 13.9 10.8867C13.1133 10.3467 12.0533 10.3867 11.3067 10.9733C10.7933 11.38 10.4933 12 10.4933 12.66C10.4933 13.0533 10.6 13.44 10.8067 13.7733C10.8267 13.8067 10.84 13.8267 10.86 13.8467C10.9667 13.9667 11.0067 14.1333 10.9733 14.2933C10.94 14.4533 10.8267 14.58 10.6733 14.64C9.82667 14.9933 8.92667 15.1667 8 15.1667ZM8 1.83333C4.6 1.83333 1.83333 4.6 1.83333 8C1.83333 11.4 4.6 14.1667 8 14.1667C8.6 14.1667 9.18667 14.08 9.75333 13.9067C9.58667 13.52 9.5 13.1 9.5 12.6667C9.5 11.6933 9.93333 10.7933 10.6867 10.1933C11.5933 9.47333 12.8667 9.30667 13.9067 9.75333C14.0733 9.19333 14.16 8.6 14.16 7.99333C14.1667 4.59999 11.4 1.83333 8 1.83333Z" fill="currentColor"/>
<path d="M7.2526 10.7134C6.9926 10.7134 6.74593 10.6534 6.53259 10.5267C6.03926 10.2401 5.75261 9.66007 5.75261 8.92673V7.0734C5.75261 6.34005 6.03926 5.76007 6.53259 5.47341C7.0326 5.18674 7.67927 5.23341 8.3126 5.60007L9.9126 6.52671C10.5459 6.8934 10.9059 7.4334 10.9059 8.00007C10.9059 8.56673 10.5459 9.1134 9.9126 9.4734L8.3126 10.4001C7.9526 10.6067 7.5926 10.7134 7.2526 10.7134ZM7.25927 6.28672C7.1726 6.28672 7.09927 6.30673 7.0326 6.34007C6.8526 6.44673 6.7526 6.7134 6.7526 7.0734V8.92673C6.7526 9.28673 6.8526 9.56007 7.0326 9.66007C7.2126 9.76007 7.4926 9.72007 7.8126 9.5334L9.4126 8.60673C9.72593 8.42673 9.90593 8.20007 9.90593 7.9934C9.90593 7.78673 9.72593 7.56673 9.4126 7.38007L7.8126 6.45339C7.60593 6.34672 7.41927 6.28672 7.25927 6.28672Z" fill="currentColor"/>
<path d="M12.6667 15.8333C11.56 15.8333 10.52 15.2467 9.96 14.2933C9.66 13.8133 9.5 13.2467 9.5 12.6667C9.5 11.6933 9.93333 10.7933 10.6867 10.1933C11.2467 9.74667 11.9533 9.5 12.6667 9.5C14.4133 9.5 15.8333 10.92 15.8333 12.6667C15.8333 13.2467 15.6733 13.8133 15.3733 14.3C15.2067 14.58 14.9933 14.8333 14.74 15.0467C14.1867 15.5533 13.4467 15.8333 12.6667 15.8333ZM12.6667 10.5C12.1733 10.5 11.7067 10.6667 11.3133 10.98C10.8 11.3867 10.5 12.0067 10.5 12.6667C10.5 13.06 10.6067 13.4467 10.8133 13.78C11.2 14.4333 11.9133 14.8333 12.6667 14.8333C13.1933 14.8333 13.7 14.64 14.0867 14.2933C14.26 14.1467 14.4067 13.9733 14.5133 13.7867C14.7267 13.4467 14.8333 13.06 14.8333 12.6667C14.8333 11.4733 13.86 10.5 12.6667 10.5Z" fill="currentColor"/>
<path d="M13.6665 13.1533H11.6732C11.3999 13.1533 11.1732 12.9267 11.1732 12.6533C11.1732 12.38 11.3999 12.1533 11.6732 12.1533H13.6665C13.9399 12.1533 14.1665 12.38 14.1665 12.6533C14.1665 12.9267 13.9399 13.1533 13.6665 13.1533Z" fill="currentColor"/>
<path d="M12.6667 14.1733C12.3933 14.1733 12.1667 13.9467 12.1667 13.6733V11.68C12.1667 11.4067 12.3933 11.18 12.6667 11.18C12.94 11.18 13.1667 11.4067 13.1667 11.68V13.6733C13.1667 13.9533 12.94 14.1733 12.6667 14.1733Z" fill="currentColor"/>
</g>
<defs>
<clipPath id="clip0_2_4913">
<rect width="16" height="16" fill="currentColor"/>
</clipPath>
</defs>
</svg>
