<svg width="16" height="16" viewBox="0 0 16 16" fill="none" xmlns="http://www.w3.org/2000/svg">
<g clip-path="url(#clip0_2_4701)">
<path d="M7.99999 15.1667C4.04666 15.1667 0.833328 11.9533 0.833328 8C0.833328 4.04667 4.04666 0.833332 7.99999 0.833332C11.9533 0.833332 15.1667 4.04667 15.1667 8C15.1667 8.93333 14.9933 9.82667 14.6467 10.6667C14.5867 10.8067 14.4733 10.9133 14.3267 10.9533C14.18 11 14.0267 10.9733 13.9 10.8867C13.1133 10.3467 12.0467 10.3867 11.3067 10.9733C10.7933 11.38 10.4933 12 10.4933 12.66C10.4933 13.0533 10.6 13.44 10.8067 13.7733C10.8267 13.8067 10.84 13.8267 10.86 13.8467C10.9667 13.9667 11.0067 14.1333 10.9733 14.2933C10.94 14.4533 10.8267 14.58 10.6733 14.64C9.82666 14.9933 8.92666 15.1667 7.99999 15.1667ZM7.99999 1.83333C4.59999 1.83333 1.83333 4.6 1.83333 8C1.83333 11.4 4.59999 14.1667 7.99999 14.1667C8.59999 14.1667 9.18666 14.08 9.75333 13.9067C9.58666 13.52 9.49999 13.1 9.49999 12.6667C9.49999 11.6933 9.93333 10.7933 10.6867 10.1933C11.5867 9.47333 12.8667 9.30667 13.9067 9.75333C14.0733 9.19333 14.16 8.6 14.16 7.99333C14.1667 4.59999 11.4 1.83333 7.99999 1.83333Z" fill="currentColor"/>
<path d="M7.25259 10.7134C6.99259 10.7134 6.74593 10.6534 6.53259 10.5267C6.03925 10.2401 5.7526 9.66007 5.7526 8.92673V7.0734C5.7526 6.34005 6.03925 5.76007 6.53259 5.47341C7.03259 5.18674 7.67926 5.23341 8.31259 5.60007L9.91259 6.52671C10.5459 6.8934 10.9059 7.4334 10.9059 8.00007C10.9059 8.56673 10.5459 9.1134 9.91259 9.4734L8.31259 10.4001C7.95259 10.6067 7.59259 10.7134 7.25259 10.7134ZM7.25926 6.28672C7.17259 6.28672 7.09926 6.30673 7.03259 6.34007C6.85259 6.44673 6.75259 6.7134 6.75259 7.0734V8.92673C6.75259 9.28673 6.85259 9.56007 7.03259 9.66007C7.21259 9.76007 7.49259 9.72007 7.81259 9.5334L9.41259 8.60673C9.72593 8.42673 9.90593 8.20007 9.90593 7.9934C9.90593 7.78673 9.72593 7.56673 9.41259 7.38007L7.81259 6.45339C7.60593 6.34672 7.41926 6.28672 7.25926 6.28672Z" fill="currentColor"/>
<path d="M12.6667 15.8333C11.62 15.8333 10.6533 15.32 10.0733 14.46C10.0467 14.44 9.99333 14.36 9.95333 14.2867C9.65999 13.8133 9.49999 13.2467 9.49999 12.6667C9.49999 11.6933 9.93333 10.7933 10.6867 10.1933C11.76 9.34 13.34 9.28 14.4667 10.0667C15.32 10.66 15.8267 11.6267 15.8267 12.6667C15.8267 13.2467 15.6667 13.8134 15.3667 14.3001C15.2 14.5801 14.9867 14.8333 14.7333 15.0467C14.1867 15.5533 13.4467 15.8333 12.6667 15.8333ZM12.6667 10.5C12.1733 10.5 11.7067 10.6667 11.3133 10.98C10.8 11.3867 10.5 12.0067 10.5 12.6667C10.5 13.06 10.6067 13.4467 10.8133 13.78C10.8333 13.8133 10.8467 13.8334 10.8667 13.8534C11.3 14.4867 11.96 14.8333 12.6733 14.8333C13.2 14.8333 13.7067 14.64 14.0933 14.2933C14.2667 14.1467 14.4133 13.9733 14.52 13.7867C14.7333 13.4467 14.84 13.06 14.84 12.6667C14.84 11.96 14.4933 11.2934 13.9067 10.8934C13.5333 10.6334 13.1067 10.5 12.6667 10.5Z" fill="currentColor"/>
<path d="M13.3803 13.8601C13.2536 13.8601 13.1269 13.8134 13.0269 13.7134L11.6203 12.3067C11.4269 12.1134 11.4269 11.7934 11.6203 11.6001C11.8136 11.4067 12.1336 11.4067 12.3269 11.6001L13.7336 13.0067C13.9269 13.2001 13.9269 13.5201 13.7336 13.7134C13.6336 13.8134 13.5069 13.8601 13.3803 13.8601Z" fill="currentColor"/>
<path d="M11.9541 13.8799C11.8274 13.8799 11.7007 13.8333 11.6007 13.7333C11.4074 13.5399 11.4074 13.2199 11.6007 13.0266L13.0074 11.6199C13.2007 11.4266 13.5207 11.4266 13.7141 11.6199C13.9074 11.8133 13.9074 12.1333 13.7141 12.3266L12.3074 13.7333C12.2074 13.8333 12.0807 13.8799 11.9541 13.8799Z" fill="currentColor"/>
</g>
<defs>
<clipPath id="clip0_2_4701">
<rect width="16" height="16" fill="currentColor"/>
</clipPath>
</defs>
</svg>
