<svg width="16" height="16" viewBox="0 0 16 16" fill="none" xmlns="http://www.w3.org/2000/svg">
<path d="M5.24667 14.1867C4.72 14.1867 4.22 14.06 3.78 13.8067C2.74 13.2067 2.16667 11.9867 2.16667 10.38V5.62666C2.16667 4.01333 2.74 2.79999 3.78 2.19999C4.82 1.59999 6.16 1.71333 7.56 2.51999L11.6733 4.89333C13.0667 5.69999 13.84 6.80667 13.84 8.00667C13.84 9.20667 13.0733 10.3133 11.6733 11.12L7.56 13.4933C6.75333 13.9533 5.96667 14.1867 5.24667 14.1867ZM5.24667 2.81333C4.88667 2.81333 4.56667 2.89333 4.28 3.05999C3.56 3.47333 3.16667 4.38666 3.16667 5.62666V10.3733C3.16667 11.6133 3.56 12.52 4.28 12.94C5 13.36 5.98667 13.24 7.06 12.62L11.1733 10.2467C12.2467 9.62667 12.84 8.83333 12.84 8C12.84 7.16667 12.2467 6.37333 11.1733 5.75333L7.06 3.37999C6.40667 3.00666 5.79333 2.81333 5.24667 2.81333Z" fill="currentColor"/>
</svg>
