<svg width="16" height="16" viewBox="0 0 16 16" fill="none" xmlns="http://www.w3.org/2000/svg">
<g clip-path="url(#clip0_2_4911)">
<path d="M12.0667 11.8333H3.93332C2.38665 11.8333 1.49999 10.9467 1.49999 9.4V1.33333C1.49999 1.06 1.72666 0.833332 1.99999 0.833332H14C14.2733 0.833332 14.5 1.06 14.5 1.33333V9.4C14.5 10.9467 13.6133 11.8333 12.0667 11.8333ZM2.49999 1.83333V9.4C2.49999 10.3933 2.93999 10.8333 3.93332 10.8333H12.06C13.0533 10.8333 13.4933 10.3933 13.4933 9.4V1.83333H2.49999Z" fill="currentColor"/>
<path d="M14.6667 1.83333H1.33333C1.05999 1.83333 0.833328 1.60667 0.833328 1.33333C0.833328 1.06 1.05999 0.833332 1.33333 0.833332H14.6667C14.94 0.833332 15.1667 1.06 15.1667 1.33333C15.1667 1.60667 14.94 1.83333 14.6667 1.83333Z" fill="currentColor"/>
<path d="M5.33351 15.1667C5.14684 15.1667 4.97349 15.0667 4.88683 14.8933C4.76016 14.6467 4.86018 14.3467 5.11351 14.22L7.50019 13.0267V11.3333C7.50019 11.06 7.72686 10.8333 8.00019 10.8333C8.27353 10.8333 8.50019 11.06 8.50019 11.3333V13.3333C8.50019 13.52 8.39353 13.6933 8.22019 13.78L5.55349 15.1133C5.48683 15.1467 5.40684 15.1667 5.33351 15.1667Z" fill="currentColor"/>
<path d="M10.6666 15.1668C10.5933 15.1668 10.5133 15.1468 10.4467 15.1135L7.77999 13.7801C7.53333 13.6535 7.43326 13.3535 7.55326 13.1068C7.67993 12.8601 7.97993 12.7601 8.22659 12.8801L10.8933 14.2135C11.1399 14.3401 11.2399 14.6401 11.1199 14.8868C11.0266 15.0668 10.8466 15.1668 10.6666 15.1668Z" fill="currentColor"/>
<path d="M4.99995 7.83347C4.85995 7.83347 4.71329 7.77346 4.61329 7.65346C4.43329 7.44013 4.46661 7.1268 4.67994 6.9468L6.77993 5.19345C6.97326 5.03345 7.21993 4.96678 7.45326 5.00678C7.69326 5.04679 7.89993 5.19344 8.02659 5.40677L8.72659 6.57344L10.6799 4.94679C10.8933 4.77346 11.2066 4.80011 11.3866 5.01344C11.5666 5.22677 11.5333 5.54011 11.3199 5.72011L9.21993 7.47347C9.02659 7.63347 8.77993 7.70013 8.54659 7.66013C8.30659 7.62013 8.09993 7.47346 7.97326 7.26013L7.27326 6.09346L5.31995 7.72013C5.22662 7.79347 5.11328 7.83347 4.99995 7.83347Z" fill="currentColor"/>
</g>
<defs>
<clipPath id="clip0_2_4911">
<rect width="16" height="16" fill="currentColor"/>
</clipPath>
</defs>
</svg>
