<svg width="16" height="16" viewBox="0 0 16 16" fill="none" xmlns="http://www.w3.org/2000/svg">
<path d="M11.7931 13.3935C11.4131 13.3935 11.0397 13.2935 10.6931 13.0935L5.1664 9.9068C4.47974 9.5068 4.06641 8.79347 4.06641 8.00013C4.06641 7.2068 4.47974 6.49346 5.1664 6.09346L10.6931 2.90677C11.3797 2.50677 12.1997 2.50677 12.8931 2.90677C13.5864 3.30677 13.9931 4.01345 13.9931 4.81345V11.1935C13.9931 11.9868 13.5797 12.7001 12.8931 13.1001C12.5464 13.2935 12.1731 13.3935 11.7931 13.3935ZM11.7931 3.60678C11.5864 3.60678 11.3797 3.66011 11.1931 3.76677L5.6664 6.95347C5.29307 7.17347 5.06641 7.56013 5.06641 7.99347C5.06641 8.4268 5.29307 8.81347 5.6664 9.03347L11.1931 12.2201C11.5664 12.4401 12.0197 12.4401 12.3931 12.2201C12.7664 12.0001 12.9931 11.6135 12.9931 11.1801V4.80012C12.9931 4.36679 12.7664 3.98013 12.3931 3.76013C12.2064 3.66679 11.9997 3.60678 11.7931 3.60678Z" fill="currentColor"/>
<path d="M2.50652 12.6199C2.23318 12.6199 2.00652 12.3932 2.00652 12.1199V3.87988C2.00652 3.60655 2.23318 3.37988 2.50652 3.37988C2.77985 3.37988 3.00652 3.60655 3.00652 3.87988V12.1199C3.00652 12.3932 2.77985 12.6199 2.50652 12.6199Z" fill="currentColor"/>
</svg>
