<svg width="16" height="16" viewBox="0 0 16 16" fill="none" xmlns="http://www.w3.org/2000/svg">
<path d="M11.1667 5.16667H4.83333C4.56 5.16667 4.33333 4.94 4.33333 4.66667V3.33333C4.33333 1.62667 5.12667 0.833332 6.83333 0.833332H9.16667C10.8733 0.833332 11.6667 1.62667 11.6667 3.33333V4.66667C11.6667 4.94 11.44 5.16667 11.1667 5.16667ZM5.33333 4.16667H10.6667V3.33333C10.6667 2.2 10.3 1.83333 9.16667 1.83333H6.83333C5.7 1.83333 5.33333 2.2 5.33333 3.33333V4.16667Z" fill="currentColor"/>
<path d="M8.66667 15.1667H7.33333C5.72 15.1667 4.83333 14.28 4.83333 12.6667V10C4.83333 9.72666 5.06 9.5 5.33333 9.5H10.6667C10.94 9.5 11.1667 9.72666 11.1667 10V12.6667C11.1667 14.28 10.28 15.1667 8.66667 15.1667ZM5.83333 10.5V12.6667C5.83333 13.72 6.28 14.1667 7.33333 14.1667H8.66667C9.72 14.1667 10.1667 13.72 10.1667 12.6667V10.5H5.83333Z" fill="currentColor"/>
<path d="M12 12.5H10.6667C10.3933 12.5 10.1667 12.2733 10.1667 12V10.5H5.83333V12C5.83333 12.2733 5.60667 12.5 5.33333 12.5H4C2.38667 12.5 1.5 11.6133 1.5 10V6.66667C1.5 5.05333 2.38667 4.16667 4 4.16667H12C13.6133 4.16667 14.5 5.05333 14.5 6.66667V10C14.5 11.6133 13.6133 12.5 12 12.5ZM11.1667 11.5H12C13.0533 11.5 13.5 11.0533 13.5 10V6.66667C13.5 5.61333 13.0533 5.16667 12 5.16667H4C2.94667 5.16667 2.5 5.61333 2.5 6.66667V10C2.5 11.0533 2.94667 11.5 4 11.5H4.83333V10C4.83333 9.72666 5.06 9.5 5.33333 9.5H10.6667C10.94 9.5 11.1667 9.72666 11.1667 10V11.5Z" fill="currentColor"/>
<path d="M11.3333 10.5H4.66667C4.39333 10.5 4.16667 10.2733 4.16667 10C4.16667 9.72666 4.39333 9.5 4.66667 9.5H11.3333C11.6067 9.5 11.8333 9.72666 11.8333 10C11.8333 10.2733 11.6067 10.5 11.3333 10.5Z" fill="currentColor"/>
<path d="M6.66667 7.83333H4.66667C4.39333 7.83333 4.16667 7.60667 4.16667 7.33333C4.16667 7.06 4.39333 6.83333 4.66667 6.83333H6.66667C6.94 6.83333 7.16667 7.06 7.16667 7.33333C7.16667 7.60667 6.94 7.83333 6.66667 7.83333Z" fill="currentColor"/>
</svg>
