<svg width="16" height="16" viewBox="0 0 16 16" fill="none" xmlns="http://www.w3.org/2000/svg">
<g clip-path="url(#clip0_2_4977)">
<path d="M11.1667 5.16667H4.83334C4.56001 5.16667 4.33334 4.94 4.33334 4.66667V3.33333C4.33334 1.62667 5.12668 0.833332 6.83334 0.833332H9.16668C10.8733 0.833332 11.6667 1.62667 11.6667 3.33333V4.66667C11.6667 4.94 11.44 5.16667 11.1667 5.16667ZM5.33334 4.16667H10.6667V3.33333C10.6667 2.2 10.3 1.83333 9.16668 1.83333H6.83334C5.70001 1.83333 5.33334 2.2 5.33334 3.33333V4.16667Z" fill="currentColor"/>
<path d="M8.66648 15.1667H7.33314C5.97316 15.1667 5.10649 14.5133 4.88649 13.3267C4.83982 13.0533 5.01316 12.7933 5.28649 12.7467C5.55316 12.6933 5.81982 12.8733 5.86649 13.1467C5.95316 13.62 6.19982 14.1667 7.32648 14.1667H8.65981C9.71314 14.1667 10.1598 13.72 10.1598 12.6667V10.5H8.63981C8.36648 10.5 8.13981 10.2733 8.13981 10C8.13981 9.72666 8.36648 9.5 8.63981 9.5H10.6665C10.9398 9.5 11.1665 9.72666 11.1665 10V12.6667C11.1665 14.28 10.2798 15.1667 8.66648 15.1667Z" fill="currentColor"/>
<path d="M4.00001 12.5C2.38668 12.5 1.50001 11.6133 1.50001 10V6.66667C1.50001 5.05333 2.38668 4.16667 4.00001 4.16667H11.06C11.3333 4.16667 11.56 4.39333 11.56 4.66667C11.56 4.94 11.3333 5.16667 11.06 5.16667H4.00001C2.94668 5.16667 2.50001 5.61333 2.50001 6.66667V10C2.50001 11.0533 2.94668 11.5 4.00001 11.5C4.27334 11.5 4.50001 11.7267 4.50001 12C4.50001 12.2733 4.27334 12.5 4.00001 12.5Z" fill="currentColor"/>
<path d="M12 12.5001H10.6667C10.3933 12.5001 10.1667 12.2734 10.1667 12.0001V10.5001H8.66668C8.39334 10.5001 8.16668 10.2734 8.16668 10.0001C8.16668 9.72673 8.39334 9.50006 8.66668 9.50006L10.6665 9.5C10.9398 9.5 11.1665 9.72666 11.1665 10L11.1667 11.5001H12C13.0533 11.5001 13.5 11.0534 13.5 10.0001V6.66673C13.5 6.05338 13.3467 5.64671 13.0267 5.42004C12.8 5.26005 12.7467 4.94671 12.9067 4.72671C13.0667 4.50005 13.38 4.44671 13.6067 4.60671C14.2 5.02671 14.5 5.72005 14.5 6.66673V10.0001C14.5 11.6134 13.6133 12.5001 12 12.5001Z" fill="currentColor"/>
<path d="M11.3333 10.5H10.5267C10.2533 10.5 10.0267 10.2733 10.0267 10C10.0267 9.72666 10.2533 9.5 10.5267 9.5H11.3333C11.6067 9.5 11.8333 9.72666 11.8333 10C11.8333 10.2733 11.6067 10.5 11.3333 10.5Z" fill="currentColor"/>
<path d="M6.00001 7.83333H4.66668C4.39334 7.83333 4.16668 7.60667 4.16668 7.33333C4.16668 7.06 4.39334 6.83333 4.66668 6.83333H6.00001C6.27334 6.83333 6.50001 7.06 6.50001 7.33333C6.50001 7.60667 6.27334 7.83333 6.00001 7.83333Z" fill="currentColor"/>
<path d="M1.33363 15.1666C1.20696 15.1666 1.0803 15.1199 0.980297 15.0199C0.786963 14.8266 0.786963 14.5066 0.980297 14.3133L14.3136 0.979959C14.5069 0.786625 14.8269 0.786625 15.0203 0.979959C15.2136 1.17329 15.2136 1.49329 15.0203 1.68663L1.68696 15.0199C1.58696 15.1199 1.4603 15.1666 1.33363 15.1666Z" fill="currentColor"/>
</g>
<defs>
<clipPath id="clip0_2_4977">
<rect width="16" height="16" fill="currentColor"/>
</clipPath>
</defs>
</svg>
