<svg width="16" height="16" viewBox="0 0 16 16" fill="none" xmlns="http://www.w3.org/2000/svg">
<path d="M6.10703 7.74667C6.08703 7.74667 6.0737 7.74667 6.0537 7.74667C6.02037 7.74 5.9737 7.74 5.9337 7.74667C4.00037 7.68667 2.54037 6.16667 2.54037 4.29333C2.54037 2.38667 4.0937 0.833332 6.00037 0.833332C7.907 0.833332 9.46033 2.38667 9.46033 4.29333C9.45367 6.16667 7.987 7.68667 6.12703 7.74667C6.12037 7.74667 6.1137 7.74667 6.10703 7.74667ZM6.00037 1.83333C4.64703 1.83333 3.54037 2.94 3.54037 4.29333C3.54037 5.62667 4.58037 6.7 5.90703 6.74667C5.94703 6.74 6.0337 6.74 6.12037 6.74667C7.427 6.68667 8.45367 5.61333 8.46033 4.29333C8.46033 2.94 7.35367 1.83333 6.00037 1.83333Z" fill="currentColor"/>
<path d="M11.0269 7.83333C11.0069 7.83333 10.9869 7.83333 10.9669 7.82667C10.6936 7.85333 10.4136 7.66 10.3869 7.38667C10.3603 7.11333 10.5269 6.86667 10.8003 6.83333C10.8803 6.82667 10.9669 6.82667 11.0403 6.82667C12.0136 6.77333 12.7736 5.97333 12.7736 4.99333C12.7736 3.98 11.9536 3.16 10.9403 3.16C10.6669 3.16667 10.4403 2.94 10.4403 2.66667C10.4403 2.39333 10.6669 2.16667 10.9403 2.16667C12.5003 2.16667 13.7736 3.44 13.7736 5C13.7736 6.53333 12.5736 7.77333 11.0469 7.83333C11.0403 7.83333 11.0336 7.83333 11.0269 7.83333Z" fill="currentColor"/>
<path d="M6.11307 15.0333C4.80641 15.0333 3.49307 14.7 2.49974 14.0333C1.57307 13.42 1.06641 12.58 1.06641 11.6667C1.06641 10.7533 1.57307 9.90667 2.49974 9.28667C4.49974 7.96 7.73973 7.96 9.7264 9.28667C10.6464 9.9 11.1597 10.74 11.1597 11.6533C11.1597 12.5667 10.6531 13.4133 9.7264 14.0333C8.7264 14.7 7.41973 15.0333 6.11307 15.0333ZM3.05307 10.1267C2.41307 10.5533 2.06641 11.1 2.06641 11.6733C2.06641 12.24 2.41974 12.7867 3.05307 13.2067C4.71307 14.32 7.51307 14.32 9.17307 13.2067C9.81307 12.78 10.1597 12.2333 10.1597 11.66C10.1597 11.0933 9.8064 10.5467 9.17307 10.1267C7.51307 9.02 4.71307 9.02 3.05307 10.1267Z" fill="currentColor"/>
<path d="M12.2268 13.8333C11.9935 13.8333 11.7868 13.6733 11.7401 13.4333C11.6868 13.16 11.8601 12.9 12.1268 12.84C12.5468 12.7533 12.9335 12.5867 13.2335 12.3533C13.6135 12.0667 13.8201 11.7067 13.8201 11.3267C13.8201 10.9467 13.6135 10.5867 13.2401 10.3067C12.9468 10.08 12.5801 9.92 12.1468 9.82C11.8801 9.76 11.7068 9.49333 11.7668 9.22C11.8268 8.95333 12.0935 8.78 12.3668 8.84C12.9401 8.96667 13.4401 9.19333 13.8468 9.50667C14.4668 9.97333 14.8201 10.6333 14.8201 11.3267C14.8201 12.02 14.4601 12.68 13.8401 13.1533C13.4268 13.4733 12.9068 13.7067 12.3335 13.82C12.2935 13.8333 12.2601 13.8333 12.2268 13.8333Z" fill="currentColor"/>
</svg>
