<svg width="16" height="16" viewBox="0 0 16 16" fill="none" xmlns="http://www.w3.org/2000/svg">
<g clip-path="url(#clip0_2_4698)">
<path d="M12.6666 11.1667C12.3933 11.1667 12.1666 10.94 12.1666 10.6667V4.33333C12.1666 3.87333 11.7933 3.5 11.3333 3.5H7.66665C7.39331 3.5 7.16665 3.27333 7.16665 3C7.16665 2.72667 7.39331 2.5 7.66665 2.5H11.3333C12.3466 2.5 13.1666 3.32 13.1666 4.33333V10.6667C13.1666 10.94 12.94 11.1667 12.6666 11.1667Z" fill="currentColor"/>
<path d="M9.33331 5.16662C9.21998 5.16662 9.10665 5.12663 9.01331 5.0533L7.01331 3.38663C6.89998 3.2933 6.83331 3.15328 6.83331 2.99995C6.83331 2.84662 6.89998 2.71327 7.01331 2.61327L9.01331 0.946605C9.22665 0.766605 9.53998 0.799965 9.71998 1.0133C9.89998 1.22663 9.86665 1.53997 9.65331 1.71997L8.11331 2.99995L9.65331 4.27994C9.86665 4.45994 9.89331 4.77327 9.71998 4.9866C9.61998 5.1066 9.47331 5.16662 9.33331 5.16662Z" fill="currentColor"/>
<path d="M12.6666 15.1667C11.2866 15.1667 10.1666 14.0467 10.1666 12.6667C10.1666 11.2867 11.2866 10.1667 12.6666 10.1667C14.0466 10.1667 15.1666 11.2867 15.1666 12.6667C15.1666 14.0467 14.0466 15.1667 12.6666 15.1667ZM12.6666 11.1667C11.84 11.1667 11.1666 11.84 11.1666 12.6667C11.1666 13.4933 11.84 14.1667 12.6666 14.1667C13.4933 14.1667 14.1666 13.4933 14.1666 12.6667C14.1666 11.84 13.4933 11.1667 12.6666 11.1667Z" fill="currentColor"/>
<path d="M8.33331 13.5H4.66665C3.65331 13.5 2.83331 12.68 2.83331 11.6667V5.33333C2.83331 5.06 3.05998 4.83333 3.33331 4.83333C3.60665 4.83333 3.83331 5.06 3.83331 5.33333V11.6667C3.83331 12.1267 4.20665 12.5 4.66665 12.5H8.33331C8.60665 12.5 8.83331 12.7267 8.83331 13C8.83331 13.2733 8.60665 13.5 8.33331 13.5Z" fill="currentColor"/>
<path d="M6.66725 15.1665C6.52725 15.1665 6.38059 15.1065 6.28059 14.9865C6.10059 14.7731 6.13391 14.4598 6.34724 14.2798L7.88725 12.9998L6.34724 11.7198C6.13391 11.5398 6.10726 11.2265 6.28059 11.0131C6.46059 10.7998 6.77391 10.7731 6.98725 10.9465L8.98725 12.6131C9.10058 12.7065 9.16725 12.8465 9.16725 12.9998C9.16725 13.1531 9.10058 13.2865 8.98725 13.3865L6.98725 15.0531C6.89391 15.1265 6.78058 15.1665 6.66725 15.1665Z" fill="currentColor"/>
<path d="M3.33331 5.83333C1.95331 5.83333 0.833313 4.71333 0.833313 3.33333C0.833313 1.95333 1.95331 0.833332 3.33331 0.833332C4.71331 0.833332 5.83331 1.95333 5.83331 3.33333C5.83331 4.71333 4.71331 5.83333 3.33331 5.83333ZM3.33331 1.83333C2.50665 1.83333 1.83331 2.50666 1.83331 3.33333C1.83331 4.16 2.50665 4.83333 3.33331 4.83333C4.15998 4.83333 4.83331 4.16 4.83331 3.33333C4.83331 2.50666 4.15998 1.83333 3.33331 1.83333Z" fill="currentColor"/>
</g>
<defs>
<clipPath id="clip0_2_4698">
<rect width="16" height="16" fill="currentColor"/>
</clipPath>
</defs>
</svg>
