<svg width="16" height="16" viewBox="0 0 16 16" fill="none" xmlns="http://www.w3.org/2000/svg">
<g clip-path="url(#clip0_2_5183)">
<path d="M12.6666 11.1667C12.3933 11.1667 12.1666 10.94 12.1666 10.6667V4.33333C12.1666 3.87333 11.7933 3.5 11.3333 3.5H8.33331C8.05998 3.5 7.83331 3.27333 7.83331 3C7.83331 2.72667 8.05998 2.5 8.33331 2.5H11.3333C12.3466 2.5 13.1666 3.32 13.1666 4.33333V10.6667C13.1666 10.94 12.94 11.1667 12.6666 11.1667Z" fill="currentColor"/>
<path d="M9.99998 5.16662C9.88665 5.16662 9.77331 5.12662 9.67998 5.05329L7.67998 3.38662C7.56665 3.29329 7.49998 3.15329 7.49998 2.99995C7.49998 2.84662 7.56665 2.71329 7.67998 2.61329L9.67998 0.94662C9.89331 0.76662 10.2066 0.799953 10.3866 1.01329C10.5666 1.22662 10.5333 1.53995 10.32 1.71995L8.77998 2.99995L10.32 4.27995C10.5333 4.45995 10.56 4.77328 10.3866 4.98661C10.2866 5.10661 10.14 5.16662 9.99998 5.16662Z" fill="currentColor"/>
<path d="M3.33331 11.1667C3.05998 11.1667 2.83331 10.94 2.83331 10.6667V6C2.83331 5.72667 3.05998 5.5 3.33331 5.5C3.60665 5.5 3.83331 5.72667 3.83331 6V10.6667C3.83331 10.94 3.60665 11.1667 3.33331 11.1667Z" fill="currentColor"/>
<path d="M3.49998 6.16667C2.02665 6.16667 0.833313 4.97333 0.833313 3.5C0.833313 2.02667 2.02665 0.833333 3.49998 0.833333C4.97331 0.833333 6.16665 2.02667 6.16665 3.5C6.16665 4.97333 4.97331 6.16667 3.49998 6.16667ZM3.49998 1.83333C2.57998 1.83333 1.83331 2.58 1.83331 3.5C1.83331 4.42 2.57998 5.16667 3.49998 5.16667C4.41998 5.16667 5.16665 4.42 5.16665 3.5C5.16665 2.58 4.41998 1.83333 3.49998 1.83333Z" fill="currentColor"/>
<path d="M3.33331 15.1667C1.95331 15.1667 0.833313 14.0467 0.833313 12.6667C0.833313 11.2867 1.95331 10.1667 3.33331 10.1667C4.71331 10.1667 5.83331 11.2867 5.83331 12.6667C5.83331 14.0467 4.71331 15.1667 3.33331 15.1667ZM3.33331 11.1667C2.50665 11.1667 1.83331 11.84 1.83331 12.6667C1.83331 13.4933 2.50665 14.1667 3.33331 14.1667C4.15998 14.1667 4.83331 13.4933 4.83331 12.6667C4.83331 11.84 4.15998 11.1667 3.33331 11.1667Z" fill="currentColor"/>
<path d="M12.6666 15.1667C11.2866 15.1667 10.1666 14.0467 10.1666 12.6667C10.1666 11.2867 11.2866 10.1667 12.6666 10.1667C14.0466 10.1667 15.1666 11.2867 15.1666 12.6667C15.1666 14.0467 14.0466 15.1667 12.6666 15.1667ZM12.6666 11.1667C11.84 11.1667 11.1666 11.84 11.1666 12.6667C11.1666 13.4933 11.84 14.1667 12.6666 14.1667C13.4933 14.1667 14.1666 13.4933 14.1666 12.6667C14.1666 11.84 13.4933 11.1667 12.6666 11.1667Z" fill="currentColor"/>
</g>
<defs>
<clipPath id="clip0_2_5183">
<rect width="16" height="16" fill="currentColor"/>
</clipPath>
</defs>
</svg>
