<svg width="16" height="16" viewBox="0 0 16 16" fill="none" xmlns="http://www.w3.org/2000/svg">
<g clip-path="url(#clip0_1107_8)">
<path d="M7.94666 15.1667C4 15.1667 0.779999 11.9533 0.779999 8.00001C0.779999 4.04668 4 0.833344 7.94666 0.833344C11.8933 0.833344 15.1133 4.04668 15.1133 8.00001C15.1133 11.9533 11.9 15.1667 7.94666 15.1667ZM7.94666 1.83334C4.54667 1.83334 1.78 4.60001 1.78 8.00001C1.78 11.4 4.54667 14.1667 7.94666 14.1667C11.3467 14.1667 14.1133 11.4 14.1133 8.00001C14.1133 4.60001 11.3467 1.83334 7.94666 1.83334Z" fill="currentColor"/>
<path d="M8 9.16668C7.72667 9.16668 7.5 8.94001 7.5 8.66668V8.52668C7.5 7.75334 8.06667 7.37334 8.28 7.22668C8.52666 7.06001 8.60666 6.94668 8.60666 6.77334C8.60666 6.44001 8.33333 6.16668 8 6.16668C7.66667 6.16668 7.39333 6.44001 7.39333 6.77334C7.39333 7.04668 7.16667 7.27334 6.89333 7.27334C6.62 7.27334 6.39333 7.04668 6.39333 6.77334C6.39333 5.88668 7.11333 5.16668 8 5.16668C8.88666 5.16668 9.60666 5.88668 9.60666 6.77334C9.60666 7.53334 9.04667 7.91334 8.84 8.05334C8.58 8.22668 8.5 8.34001 8.5 8.52668V8.66668C8.5 8.94668 8.27333 9.16668 8 9.16668Z" fill="currentColor"/>
<path d="M8 10.8333C7.72 10.8333 7.5 10.6067 7.5 10.3333C7.5 10.06 7.72667 9.83334 8 9.83334C8.27333 9.83334 8.5 10.06 8.5 10.3333C8.5 10.6067 8.28 10.8333 8 10.8333Z" fill="currentColor"/>
</g>
<defs>
<clipPath id="clip0_1107_8">
<rect width="16" height="16" fill="currentColor"/>
</clipPath>
</defs>
</svg>
