<svg width="16" height="16" viewBox="0 0 16 16" fill="none" xmlns="http://www.w3.org/2000/svg">
<path d="M14.6674 8.26666H10.8008C9.53409 8.26666 8.58076 7.31333 8.58076 6.04667V3.89998C8.58076 2.63332 9.53409 1.68001 10.8008 1.68001H12.9474C14.1674 1.68001 15.1674 2.67332 15.1674 3.89998V7.76666C15.1674 8.04666 14.9408 8.26666 14.6674 8.26666ZM10.8008 2.68668C10.0941 2.68668 9.58076 3.19999 9.58076 3.90666V6.05334C9.58076 6.76 10.0941 7.27333 10.8008 7.27333H14.1674V3.90666C14.1674 3.23333 13.6208 2.68668 12.9474 2.68668H10.8008Z" fill="currentColor"/>
<path d="M11.647 14.3132C11.4737 14.3132 11.307 14.2266 11.2137 14.0666C11.0737 13.8266 11.1537 13.5199 11.387 13.3799C13.5404 12.0999 14.167 11.5666 14.167 7.7666C14.167 7.49327 14.3937 7.2666 14.667 7.2666C14.9404 7.2666 15.1674 7.49333 15.1674 7.76666C15.1674 11.9333 14.3204 12.8066 11.9004 14.2399C11.8204 14.2933 11.7337 14.3132 11.647 14.3132Z" fill="currentColor"/>
<path d="M6.91349 8.26666H3.04684C1.78018 8.26666 0.826843 7.31333 0.826843 6.04667V3.89998C0.826843 2.63332 1.78018 1.68001 3.04684 1.68001H5.20018C6.42018 1.68001 7.42016 2.67332 7.42016 3.89998V7.76666C7.41349 8.04666 7.19349 8.26666 6.91349 8.26666ZM3.05351 2.68668C2.34684 2.68668 1.83351 3.19999 1.83351 3.90666V6.05334C1.83351 6.76 2.34684 7.27333 3.05351 7.27333H6.42018V3.90666C6.42018 3.23333 5.87352 2.68668 5.20018 2.68668H3.05351Z" fill="currentColor"/>
<path d="M3.89312 14.3132C3.71978 14.3132 3.55312 14.2266 3.45978 14.0666C3.31978 13.8266 3.39978 13.5199 3.63312 13.3799C5.78645 12.0999 6.41312 11.5666 6.41312 7.7666C6.41312 7.49327 6.63978 7.2666 6.91309 7.2666C7.18642 7.2666 7.41309 7.49327 7.41309 7.7666C7.41309 11.9333 6.56645 12.8066 4.14645 14.2399C4.06645 14.2933 3.97978 14.3132 3.89312 14.3132Z" fill="currentColor"/>
</svg>
