<svg width="16" height="16" viewBox="0 0 16 16" fill="none" xmlns="http://www.w3.org/2000/svg">
<g clip-path="url(#clip0_2_4694)">
<path d="M9.99998 15.1667H5.99998C2.37998 15.1667 0.833313 13.62 0.833313 10V6C0.833313 2.38 2.37998 0.833332 5.99998 0.833332H9.99998C13.62 0.833332 15.1666 2.38 15.1666 6V10C15.1666 13.62 13.62 15.1667 9.99998 15.1667ZM5.99998 1.83333C2.92665 1.83333 1.83331 2.92667 1.83331 6V10C1.83331 13.0733 2.92665 14.1667 5.99998 14.1667H9.99998C13.0733 14.1667 14.1666 13.0733 14.1666 10V6C14.1666 2.92667 13.0733 1.83333 9.99998 1.83333H5.99998Z" fill="currentColor"/>
<path d="M11.3326 8.3932H9.54591C8.81925 8.3932 8.25258 7.82653 8.25258 7.09987V6.10648C8.25258 5.37982 8.81925 4.81315 9.54591 4.81315H10.5392C11.2526 4.81315 11.8326 5.39315 11.8326 6.10648V7.88653C11.8326 8.16653 11.6059 8.3932 11.3326 8.3932ZM9.54591 5.81315C9.33258 5.81315 9.25258 5.97315 9.25258 6.10648V7.09987C9.25258 7.2332 9.32591 7.3932 9.54591 7.3932H10.8326V6.11316C10.8326 5.95316 10.6992 5.81983 10.5392 5.81983H9.54591V5.81315Z" fill="currentColor"/>
<path d="M9.93998 11.1865C9.76665 11.1865 9.59998 11.0999 9.50665 10.9399C9.36665 10.6999 9.44665 10.3932 9.67998 10.2532C10.5866 9.7132 10.8333 9.5732 10.8333 7.8932C10.8333 7.61986 11.06 7.3932 11.3333 7.3932C11.6066 7.3932 11.8333 7.61986 11.8333 7.8932C11.8333 9.94653 11.3866 10.4065 10.1933 11.1132C10.1133 11.1599 10.0266 11.1865 9.93998 11.1865Z" fill="currentColor"/>
<path d="M7.24011 8.3932H5.45347C4.7268 8.3932 4.16013 7.82653 4.16013 7.09987V6.10648C4.16013 5.37982 4.7268 4.81315 5.45347 4.81315H6.4468C7.16011 4.81315 7.74011 5.39315 7.74011 6.10648V7.88653C7.74011 8.16653 7.52011 8.3932 7.24011 8.3932ZM5.46013 5.81315C5.2468 5.81315 5.1668 5.97315 5.1668 6.10648V7.09987C5.1668 7.2332 5.24013 7.3932 5.46013 7.3932H6.74678V6.11316C6.74678 5.95316 6.61347 5.81983 6.45347 5.81983H5.46013V5.81315Z" fill="currentColor"/>
<path d="M5.8462 11.1865C5.67287 11.1865 5.5062 11.0999 5.41287 10.9399C5.27287 10.6999 5.35287 10.3932 5.5862 10.2532C6.49287 9.7132 6.73951 9.5732 6.73951 7.8932C6.73951 7.61986 6.96618 7.3932 7.23951 7.3932C7.51285 7.3932 7.73951 7.61986 7.73951 7.8932C7.73951 9.94653 7.29285 10.4065 6.09953 11.1132C6.01953 11.1599 5.93287 11.1865 5.8462 11.1865Z" fill="currentColor"/>
</g>
<defs>
<clipPath id="clip0_2_4694">
<rect width="16" height="16" fill="currentColor"/>
</clipPath>
</defs>
</svg>
