<svg width="16" height="16" viewBox="0 0 16 16" fill="none" xmlns="http://www.w3.org/2000/svg">
<g clip-path="url(#clip0_2_4695)">
<path d="M9.99998 15.1667H5.99998C2.37998 15.1667 0.833313 13.62 0.833313 10V6C0.833313 2.38 2.37998 0.833332 5.99998 0.833332H9.99998C13.62 0.833332 15.1666 2.38 15.1666 6V10C15.1666 13.62 13.62 15.1667 9.99998 15.1667ZM5.99998 1.83333C2.92665 1.83333 1.83331 2.92667 1.83331 6V10C1.83331 13.0733 2.92665 14.1667 5.99998 14.1667H9.99998C13.0733 14.1667 14.1666 13.0733 14.1666 10V6C14.1666 2.92667 13.0733 1.83333 9.99998 1.83333H5.99998Z" fill="currentColor"/>
<path d="M6.45331 11.1867H5.45998C4.74665 11.1867 4.16665 10.6067 4.16665 9.89333V8.11327C4.16665 7.83993 4.39331 7.61327 4.66665 7.61327H6.45331C7.17998 7.61327 7.74665 8.17993 7.74665 8.9066V9.89993C7.73998 10.6133 7.17331 11.1867 6.45331 11.1867ZM5.16665 9.88666C5.16665 10.0467 5.29998 10.18 5.45998 10.18H6.45331C6.66665 10.18 6.74665 10.02 6.74665 9.88666V8.89333C6.74665 8.76 6.67331 8.6 6.45331 8.6H5.16665V9.88666Z" fill="currentColor"/>
<path d="M4.66665 8.6068C4.39331 8.6068 4.16665 8.38013 4.16665 8.1068C4.16665 6.05348 4.61331 5.59351 5.80665 4.88685C6.03998 4.74685 6.35331 4.82685 6.49331 5.06018C6.63331 5.29352 6.55331 5.60683 6.31998 5.74683C5.41331 6.28683 5.16665 6.42681 5.16665 8.1068C5.16665 8.3868 4.93998 8.6068 4.66665 8.6068Z" fill="currentColor"/>
<path d="M10.5392 11.1867H9.54591C8.83258 11.1867 8.25258 10.6067 8.25258 9.89333V8.11327C8.25258 7.83993 8.47925 7.61327 8.75258 7.61327H10.5392C11.2659 7.61327 11.8326 8.17993 11.8326 8.9066V9.89993C11.8326 10.6133 11.2659 11.1867 10.5392 11.1867ZM9.25925 9.88666C9.25925 10.0467 9.39258 10.18 9.55258 10.18H10.5459C10.7592 10.18 10.8392 10.02 10.8392 9.88666V8.89333C10.8392 8.76 10.7659 8.6 10.5459 8.6H9.25925V9.88666Z" fill="currentColor"/>
<path d="M8.76038 8.6068C8.48705 8.6068 8.26038 8.38013 8.26038 8.1068C8.26038 6.05348 8.70705 5.59351 9.90038 4.88685C10.1404 4.74685 10.447 4.82685 10.587 5.06018C10.727 5.29352 10.647 5.60683 10.4137 5.74683C9.50705 6.28683 9.26038 6.42681 9.26038 8.1068C9.26038 8.3868 9.03371 8.6068 8.76038 8.6068Z" fill="currentColor"/>
</g>
<defs>
<clipPath id="clip0_2_4695">
<rect width="16" height="16" fill="currentColor"/>
</clipPath>
</defs>
</svg>
