<svg width="16" height="16" viewBox="0 0 16 16" fill="none" xmlns="http://www.w3.org/2000/svg">
<path d="M5.19997 14.3132H3.05333C1.83333 14.3132 0.833313 13.3199 0.833313 12.0932V8.22653C0.833313 7.9532 1.05998 7.72653 1.33331 7.72653H5.19997C6.46664 7.72653 7.41998 8.67987 7.41998 9.94653V12.0932C7.41331 13.3599 6.45997 14.3132 5.19997 14.3132ZM1.83331 8.7332V12.0999C1.83331 12.7732 2.37999 13.3199 3.05333 13.3199H5.19997C5.90664 13.3199 6.41998 12.8065 6.41998 12.0999V9.9532C6.41998 9.24653 5.90664 8.7332 5.19997 8.7332H1.83331Z" fill="currentColor"/>
<path d="M1.33331 8.7332C1.05998 8.7332 0.833313 8.50653 0.833313 8.2332C0.833313 4.06653 1.67999 3.19323 4.09999 1.75989C4.33999 1.61989 4.64664 1.6999 4.78664 1.93323C4.92664 2.17323 4.84663 2.47988 4.6133 2.61988C2.4533 3.89987 1.83331 4.4332 1.83331 8.2332C1.83331 8.50653 1.60665 8.7332 1.33331 8.7332Z" fill="currentColor"/>
<path d="M12.9474 14.3132H10.8007C9.58071 14.3132 8.58071 13.3199 8.58071 12.0932V8.22653C8.58071 7.9532 8.80738 7.72653 9.08071 7.72653H12.9474C14.214 7.72653 15.1674 8.67987 15.1674 9.94653V12.0932C15.1674 13.3599 14.214 14.3132 12.9474 14.3132ZM9.58738 8.7332V12.0999C9.58738 12.7732 10.134 13.3199 10.8074 13.3199H12.954C13.6607 13.3199 14.174 12.8065 14.174 12.0999V9.9532C14.174 9.24653 13.6607 8.7332 12.954 8.7332H9.58738Z" fill="currentColor"/>
<path d="M9.08591 8.7332C8.81258 8.7332 8.58591 8.50653 8.58591 8.2332C8.58591 4.06653 9.43258 3.19323 11.8526 1.75989C12.0926 1.61989 12.3992 1.6999 12.5392 1.93323C12.6792 2.17323 12.5992 2.47988 12.3659 2.61988C10.2059 3.89987 9.58591 4.4332 9.58591 8.2332C9.58591 8.50653 9.35925 8.7332 9.08591 8.7332Z" fill="currentColor"/>
</svg>
