<svg width="16" height="16" viewBox="0 0 16 16" fill="none" xmlns="http://www.w3.org/2000/svg">
<g clip-path="url(#clip0_2_4690)">
<path d="M7.99998 15.1668C4.04665 15.1668 0.833313 11.9535 0.833313 8.00013C0.833313 6.7468 1.15997 5.51351 1.78664 4.42684C1.92664 4.18684 2.22665 4.10682 2.46665 4.24015L8.24665 7.56013C8.48665 7.70013 8.56665 8.00013 8.43331 8.24013C8.29331 8.48013 7.99331 8.5602 7.75331 8.42687L2.41998 5.36682C2.03331 6.18682 1.83331 7.08013 1.83331 7.99347C1.83331 11.3935 4.59998 14.1601 7.99998 14.1601C11.4 14.1601 14.1666 11.3935 14.1666 7.99347C14.1666 4.59349 11.4 1.82682 7.99998 1.82682C6.65331 1.82682 5.37332 2.25349 4.29999 3.06016C4.07999 3.22683 3.76664 3.18017 3.59997 2.96017C3.43331 2.74017 3.47997 2.42684 3.69997 2.26017C4.94664 1.32684 6.43331 0.82682 7.99998 0.82682C11.9533 0.82682 15.1666 4.04015 15.1666 7.99347C15.1666 11.9468 11.9533 15.1668 7.99998 15.1668Z" fill="currentColor"/>
<path d="M7.99998 12.5C5.51998 12.5 3.49998 10.48 3.49998 8C3.49998 7.2 3.71331 6.40666 4.11997 5.71999C4.25997 5.47999 4.56664 5.4 4.80664 5.54C5.04664 5.68 5.12665 5.98667 4.98665 6.22667C4.67332 6.76 4.50665 7.37333 4.50665 8C4.50665 9.93333 6.07999 11.5 8.00665 11.5C9.93331 11.5 11.5066 9.93333 11.5066 8C11.5066 6.06667 9.93331 4.5 8.00665 4.5C7.48665 4.5 6.98665 4.61333 6.51331 4.83333C6.25997 4.94667 5.96664 4.84001 5.84664 4.59334C5.72664 4.34001 5.83331 4.04667 6.08665 3.92667C6.68665 3.64667 7.33331 3.5 7.99998 3.5C10.48 3.5 12.5 5.52 12.5 8C12.5 10.48 10.48 12.5 7.99998 12.5Z" fill="currentColor"/>
</g>
<defs>
<clipPath id="clip0_2_4690">
<rect width="16" height="16" fill="currentColor"/>
</clipPath>
</defs>
</svg>
