<svg width="16" height="16" viewBox="0 0 16 16" fill="none" xmlns="http://www.w3.org/2000/svg">
<path d="M7.99998 9.83333C6.98665 9.83333 6.16665 9.01333 6.16665 8C6.16665 6.98666 6.98665 6.16666 7.99998 6.16666C9.01331 6.16666 9.83331 6.98666 9.83331 8C9.83331 9.01333 9.01331 9.83333 7.99998 9.83333ZM7.99998 7.16666C7.53998 7.16666 7.16665 7.54 7.16665 8C7.16665 8.46 7.53998 8.83333 7.99998 8.83333C8.45998 8.83333 8.83331 8.46 8.83331 8C8.83331 7.54 8.45998 7.16666 7.99998 7.16666Z" fill="currentColor"/>
<path d="M13.3335 12.5C13.2268 12.5 13.1268 12.4667 13.0335 12.4C12.8135 12.2333 12.7668 11.92 12.9335 11.7C13.7402 10.6267 14.1668 9.34666 14.1668 8C14.1668 6.65336 13.7402 5.37336 12.9335 4.30003C12.7668 4.08003 12.8135 3.76668 13.0335 3.60002C13.2535 3.43335 13.5668 3.48001 13.7335 3.70001C14.6735 4.94668 15.1668 6.43336 15.1668 8C15.1668 9.56666 14.6735 11.0533 13.7335 12.3C13.6335 12.4333 13.4868 12.5 13.3335 12.5Z" fill="currentColor"/>
<path d="M2.66665 12.5C2.51331 12.5 2.36664 12.4333 2.26664 12.3C1.32664 11.0533 0.833313 9.56666 0.833313 8C0.833313 6.43336 1.32664 4.94668 2.26664 3.70001C2.43331 3.48001 2.74665 3.43335 2.96665 3.60002C3.18665 3.76668 3.23332 4.08003 3.06665 4.30003C2.25999 5.37336 1.83331 6.65336 1.83331 8C1.83331 9.34666 2.25999 10.6267 3.06665 11.7C3.23332 11.92 3.18665 12.2333 2.96665 12.4C2.87999 12.4667 2.77331 12.5 2.66665 12.5Z" fill="currentColor"/>
<path d="M11.2006 10.8999C11.094 10.8999 10.994 10.8666 10.9007 10.7999C10.6807 10.6333 10.634 10.3199 10.8007 10.0999C11.2607 9.49326 11.5006 8.7666 11.5006 7.99993C11.5006 7.23326 11.2607 6.50662 10.8007 5.89996C10.634 5.67996 10.6807 5.36661 10.9007 5.19994C11.1207 5.03328 11.434 5.07996 11.6006 5.29996C12.1873 6.08663 12.5006 7.01993 12.5006 7.99993C12.5006 8.97993 12.1873 9.91993 11.6006 10.6999C11.5006 10.8333 11.354 10.8999 11.2006 10.8999Z" fill="currentColor"/>
<path d="M4.79999 10.8999C4.64665 10.8999 4.49999 10.8333 4.39999 10.6999C3.81332 9.91326 3.49998 8.97993 3.49998 7.99993C3.49998 7.01993 3.81332 6.07996 4.39999 5.29996C4.56665 5.07996 4.87997 5.03328 5.09997 5.19994C5.31997 5.36661 5.36664 5.67996 5.19997 5.89996C4.73997 6.50662 4.49998 7.23326 4.49998 7.99993C4.49998 8.7666 4.73997 9.49326 5.19997 10.0999C5.36664 10.3199 5.31997 10.6333 5.09997 10.7999C5.01331 10.8666 4.90665 10.8999 4.79999 10.8999Z" fill="currentColor"/>
</svg>
