<svg width="16" height="16" viewBox="0 0 16 16" fill="none" xmlns="http://www.w3.org/2000/svg">
<g clip-path="url(#clip0_2_4689)">
<path d="M11.3333 15.1667H4.66665C2.37331 15.1667 0.833313 13.6267 0.833313 11.3333V6.66667C0.833313 4.37334 2.37331 2.83334 4.66665 2.83334H11.3333C13.6266 2.83334 15.1666 4.37334 15.1666 6.66667V11.3333C15.1666 13.6267 13.6266 15.1667 11.3333 15.1667ZM4.66665 3.83334C2.94665 3.83334 1.83331 4.94667 1.83331 6.66667V11.3333C1.83331 13.0533 2.94665 14.1667 4.66665 14.1667H11.3333C13.0533 14.1667 14.1666 13.0533 14.1666 11.3333V6.66667C14.1666 4.94667 13.0533 3.83334 11.3333 3.83334H4.66665Z" fill="currentColor"/>
<path d="M4.66665 3.83334C4.39331 3.83334 4.16665 3.60667 4.16665 3.33334V1.33334C4.16665 1.06 4.39331 0.833336 4.66665 0.833336C4.93998 0.833336 5.16665 1.06 5.16665 1.33334V3.33334C5.16665 3.60667 4.93998 3.83334 4.66665 3.83334Z" fill="currentColor"/>
<path d="M5.66665 11.1667C4.47331 11.1667 3.49998 10.1933 3.49998 9C3.49998 7.80667 4.47331 6.83334 5.66665 6.83334C6.85998 6.83334 7.83331 7.80667 7.83331 9C7.83331 10.1933 6.85998 11.1667 5.66665 11.1667ZM5.66665 7.83334C5.02665 7.83334 4.49998 8.36 4.49998 9C4.49998 9.64 5.02665 10.1667 5.66665 10.1667C6.30665 10.1667 6.83331 9.64 6.83331 9C6.83331 8.36 6.30665 7.83334 5.66665 7.83334Z" fill="currentColor"/>
<path d="M12.3333 7.83334H9.66665C9.39331 7.83334 9.16665 7.60667 9.16665 7.33334C9.16665 7.06 9.39331 6.83334 9.66665 6.83334H12.3333C12.6066 6.83334 12.8333 7.06 12.8333 7.33334C12.8333 7.60667 12.6066 7.83334 12.3333 7.83334Z" fill="currentColor"/>
<path d="M9.99998 10.5H9.66665C9.39331 10.5 9.16665 10.2733 9.16665 10C9.16665 9.72667 9.39331 9.5 9.66665 9.5H9.99998C10.2733 9.5 10.5 9.72667 10.5 10C10.5 10.2733 10.2733 10.5 9.99998 10.5Z" fill="currentColor"/>
<path d="M12.3333 10.5H12C11.7266 10.5 11.5 10.2733 11.5 10C11.5 9.72667 11.7266 9.5 12 9.5H12.3333C12.6066 9.5 12.8333 9.72667 12.8333 10C12.8333 10.2733 12.6066 10.5 12.3333 10.5Z" fill="currentColor"/>
</g>
<defs>
<clipPath id="clip0_2_4689">
<rect width="16" height="16" fill="currentColor"/>
</clipPath>
</defs>
</svg>
