<svg width="16" height="16" viewBox="0 0 16 16" fill="none" xmlns="http://www.w3.org/2000/svg">
<path d="M10.3333 15.1667H5.66665C3.19331 15.1667 1.83331 13.8067 1.83331 11.3333V4.66667C1.83331 2.19334 3.19331 0.833336 5.66665 0.833336H10.3333C12.7666 0.833336 14.1666 2.23334 14.1666 4.66667V5.33334C14.1666 5.97334 13.64 6.5 13 6.5C12.9066 6.5 12.8333 6.57334 12.8333 6.66667V8.11334C12.8333 8.33334 12.92 8.54667 13.08 8.7L13.6333 9.25333C13.98 9.6 14.1733 10.06 14.1733 10.5467V11.3333C14.1666 13.7667 12.7666 15.1667 10.3333 15.1667ZM5.66665 1.83334C3.75998 1.83334 2.83331 2.76 2.83331 4.66667V11.3333C2.83331 13.24 3.75998 14.1667 5.66665 14.1667H10.3333C12.2133 14.1667 13.1666 13.2133 13.1666 11.3333V10.5533C13.1666 10.3333 13.08 10.12 12.92 9.96667L12.3666 9.41333C12.02 9.06667 11.8266 8.60667 11.8266 8.12V6.66667C11.8266 6.02667 12.3533 5.5 12.9933 5.5C13.0866 5.5 13.16 5.42667 13.16 5.33334V4.66667C13.16 2.78667 12.2066 1.83334 10.3266 1.83334H5.66665Z" fill="currentColor"/>
<path d="M10.6736 15.1467C10.4003 15.1467 10.1736 14.9267 10.1736 14.6533L10.1536 12.66C10.1536 12.2 9.77365 11.8333 9.32031 11.8333H6.65363C6.43363 11.8333 6.22029 11.92 6.06029 12.08C5.90696 12.2333 5.82029 12.4467 5.82029 12.6667L5.82696 14.6467C5.82696 14.92 5.60696 15.1467 5.32696 15.1467C5.05363 15.1467 4.82696 14.9267 4.82696 14.6467L4.82029 12.6667C4.82029 12.1733 5.00696 11.7133 5.35363 11.3667C5.70029 11.02 6.16029 10.8267 6.65363 10.8267H9.32698C10.3336 10.8267 11.1536 11.6467 11.1603 12.6467L11.1803 14.6333C11.1803 14.92 10.9536 15.1467 10.6736 15.1467Z" fill="currentColor"/>
<path d="M9.31311 5.68669H5.31313C5.0398 5.68669 4.81313 5.46002 4.81313 5.18669C4.81313 4.91336 5.0398 4.68669 5.31313 4.68669H9.31311C9.58645 4.68669 9.81311 4.91336 9.81311 5.18669C9.81311 5.46002 9.59311 5.68669 9.31311 5.68669Z" fill="currentColor"/>
</svg>
