<svg width="16" height="16" viewBox="0 0 16 16" fill="none" xmlns="http://www.w3.org/2000/svg">
<path d="M10.8271 15.1133C10.5404 15.1133 10.1804 15.0267 9.73372 14.76L8.24039 13.8733C8.12706 13.8067 7.87372 13.8067 7.76039 13.8733L6.26706 14.76C5.32039 15.32 4.74706 15.0867 4.49373 14.9C4.24039 14.7133 3.84041 14.2333 4.08707 13.1667L4.4404 11.6267C4.46707 11.5067 4.4004 11.28 4.31373 11.1867L3.07373 9.94667C2.40706 9.28 2.46039 8.7 2.55373 8.40667C2.64706 8.11334 2.94039 7.61334 3.86706 7.45334L5.4604 7.18667C5.57373 7.16667 5.75374 7.03334 5.80041 6.93334L6.68039 5.17334C7.11372 4.31334 7.68705 4.18002 7.99372 4.18002C8.30039 4.18002 8.87372 4.30668 9.30705 5.17334L10.1871 6.93334C10.2404 7.03334 10.4204 7.16667 10.5271 7.18667L12.1204 7.45334C13.0471 7.60667 13.3404 8.11334 13.4337 8.40667C13.5271 8.7 13.5804 9.28 12.9137 9.94667L11.6737 11.1867C11.5871 11.2733 11.5204 11.5067 11.5471 11.6267L11.9004 13.16C12.1471 14.2333 11.7537 14.7067 11.4937 14.8933C11.3737 15 11.1471 15.1133 10.8271 15.1133ZM8.00039 12.8267C8.26705 12.8267 8.53372 12.8867 8.74705 13.0133L10.2404 13.9C10.6337 14.1333 10.8671 14.1333 10.9137 14.0933C10.9671 14.0533 11.0337 13.8333 10.9337 13.3933L10.5804 11.86C10.4737 11.4067 10.6471 10.82 10.9737 10.4933L12.2137 9.25333C12.4604 9.00667 12.5137 8.81334 12.4871 8.72667C12.4604 8.64 12.3071 8.51334 11.9604 8.46L10.3671 8.19334C9.94039 8.12 9.48705 7.78667 9.29372 7.4L8.41372 5.64002C8.26039 5.34002 8.09372 5.20002 7.99372 5.20002C7.89372 5.20002 7.72706 5.33335 7.57372 5.64002L6.69372 7.4C6.50041 7.78667 6.04706 8.12 5.62039 8.19334L4.02707 8.46C3.68041 8.52 3.52707 8.64 3.5004 8.72667C3.47373 8.81334 3.52707 9.00667 3.77373 9.25333L5.01373 10.4933C5.34039 10.82 5.51373 11.4133 5.40706 11.86L5.05373 13.4C4.95373 13.8467 5.02039 14.0667 5.07373 14.1C5.12706 14.14 5.3604 14.14 5.74707 13.9067L7.24039 13.02C7.46706 12.8933 7.73372 12.8267 8.00039 12.8267Z" fill="currentColor"/>
<path d="M3.99999 6.5C3.72665 6.5 3.49999 6.27334 3.49999 6V1.33334C3.49999 1.06 3.72665 0.833336 3.99999 0.833336C4.27332 0.833336 4.49999 1.06 4.49999 1.33334V6C4.49999 6.27334 4.27332 6.5 3.99999 6.5Z" fill="currentColor"/>
<path d="M12 6.5C11.7267 6.5 11.5 6.27334 11.5 6V1.33334C11.5 1.06 11.7267 0.833336 12 0.833336C12.2733 0.833336 12.5 1.06 12.5 1.33334V6C12.5 6.27334 12.2733 6.5 12 6.5Z" fill="currentColor"/>
<path d="M7.99999 3.16667C7.72665 3.16667 7.49999 2.94 7.49999 2.66667V1.33334C7.49999 1.06 7.72665 0.833336 7.99999 0.833336C8.27332 0.833336 8.49999 1.06 8.49999 1.33334V2.66667C8.49999 2.94 8.27332 3.16667 7.99999 3.16667Z" fill="currentColor"/>
</svg>
