<svg width="16" height="16" viewBox="0 0 16 16" fill="none" xmlns="http://www.w3.org/2000/svg">
<g clip-path="url(#clip0_2_4685)">
<path d="M5.78001 15.1667H1.33334C1.06001 15.1667 0.833344 14.94 0.833344 14.6667V10.6667C0.833344 9.65333 1.65334 8.83333 2.66668 8.83333H5.78001C6.05334 8.83333 6.28001 9.06 6.28001 9.33333V14.6667C6.28001 14.94 6.05334 15.1667 5.78001 15.1667ZM1.83334 14.1667H5.28001V9.83333H2.66668C2.20668 9.83333 1.83334 10.2067 1.83334 10.6667V14.1667Z" fill="currentColor"/>
<path d="M10.2201 15.1667H5.77345C5.50012 15.1667 5.27345 14.94 5.27345 14.6667V8C5.27345 6.98666 6.09345 6.16666 7.10681 6.16666H8.88681C9.90014 6.16666 10.7201 6.98666 10.7201 8V14.6667C10.7201 14.94 10.5001 15.1667 10.2201 15.1667ZM6.28011 14.1667H9.72681V8C9.72681 7.54 9.35348 7.16666 8.89348 7.16666H7.11348C6.65344 7.16666 6.28011 7.54 6.28011 8V14.1667Z" fill="currentColor"/>
<path d="M14.6667 15.1667H10.2201C9.94681 15.1667 9.72008 14.94 9.72008 14.6667V11.3333C9.72008 11.06 9.94674 10.8333 10.2201 10.8333H13.3334C14.3467 10.8333 15.1667 11.6533 15.1667 12.6667V14.6667C15.1667 14.94 14.9401 15.1667 14.6667 15.1667ZM10.7201 14.1667H14.1667V12.6667C14.1667 12.2067 13.7934 11.8333 13.3334 11.8333H10.7201V14.1667Z" fill="currentColor"/>
<path d="M9.13261 5.56666C8.97261 5.56666 8.77261 5.51998 8.54594 5.38664L7.99928 5.05998L7.45928 5.37999C6.91261 5.70666 6.55262 5.51332 6.41929 5.41998C6.28596 5.32665 5.99928 5.03332 6.13928 4.41998L6.26596 3.86664L5.81262 3.41331C5.53262 3.13331 5.43262 2.79998 5.53262 2.49331C5.63262 2.18664 5.90595 1.9733 6.29262 1.90664L6.87261 1.80664L7.19928 1.15332C7.55928 0.439991 8.43261 0.439991 8.78594 1.15332L9.11261 1.80664L9.69261 1.90664C10.0793 1.9733 10.3593 2.18664 10.4526 2.49331C10.5526 2.79998 10.4459 3.13331 10.1726 3.41331L9.71928 3.86664L9.84594 4.41998C9.98594 5.03998 9.69928 5.32666 9.56594 5.42666C9.50594 5.47999 9.35261 5.56666 9.13261 5.56666ZM7.99928 4.05331C8.15928 4.05331 8.31928 4.09332 8.45261 4.17332L8.82594 4.39332L8.74594 4.03331C8.67928 3.75331 8.77928 3.41332 8.98594 3.20665L9.32594 2.86664L8.90594 2.79332C8.63928 2.74665 8.37928 2.55332 8.25928 2.31332L7.99928 1.81332L7.74594 2.31332C7.62594 2.55332 7.36594 2.74665 7.09928 2.79332L6.67928 2.85999L7.01928 3.19998C7.22594 3.40664 7.31928 3.74666 7.25928 4.02666L7.17928 4.38664L7.55261 4.16665C7.67928 4.08665 7.83928 4.05331 7.99928 4.05331Z" fill="currentColor"/>
</g>
<defs>
<clipPath id="clip0_2_4685">
<rect width="16" height="16" fill="currentColor"/>
</clipPath>
</defs>
</svg>
