<svg width="16" height="16" viewBox="0 0 16 16" fill="none" xmlns="http://www.w3.org/2000/svg">
<path d="M8.00001 15.1667C7.48001 15.1667 6.97334 14.9 6.62668 14.4333L5.95334 13.5333C5.81334 13.3467 5.62668 13.24 5.42668 13.2267C5.22668 13.22 5.02668 13.3067 4.86668 13.4733L4.48668 13.1333L4.85334 13.4733C3.89334 14.5 3.15334 14.42 2.80001 14.28C2.44001 14.14 1.83334 13.68 1.83334 12.2V4.69334C1.83334 1.73334 2.68668 0.833336 5.48001 0.833336H10.52C13.3133 0.833336 14.1667 1.73334 14.1667 4.69334V12.2C14.1667 13.6733 13.56 14.1333 13.2 14.28C12.8467 14.42 12.1133 14.5 11.1467 13.4733C10.9867 13.3 10.7867 13.2067 10.58 13.2267C10.38 13.24 10.1867 13.3467 10.0467 13.5333L9.37334 14.4333C9.02668 14.9 8.52001 15.1667 8.00001 15.1667ZM5.38668 12.22C5.41334 12.22 5.44668 12.22 5.47334 12.22C5.96668 12.2467 6.43334 12.5067 6.74668 12.9267L7.42001 13.8267C7.74668 14.26 8.24668 14.26 8.57334 13.8267L9.24668 12.9267C9.56668 12.5067 10.0267 12.2467 10.5267 12.22C11.02 12.1933 11.5133 12.4 11.8733 12.7867C12.38 13.3267 12.7067 13.3933 12.8267 13.3467C12.9867 13.28 13.16 12.8933 13.16 12.2V4.69334C13.16 2.28667 12.74 1.83334 10.5133 1.83334H5.48001C3.25334 1.83334 2.83334 2.28667 2.83334 4.69334V12.2C2.83334 12.9 3.00668 13.2867 3.16668 13.3467C3.28001 13.3933 3.61334 13.3267 4.12001 12.7867C4.48001 12.42 4.92668 12.22 5.38668 12.22Z" fill="currentColor"/>
<path d="M10.8203 7.83334H7.15368C6.88034 7.83334 6.65366 7.60667 6.65366 7.33334C6.65366 7.06 6.88034 6.83334 7.15368 6.83334H10.8203C11.0937 6.83334 11.3203 7.06 11.3203 7.33334C11.3203 7.60667 11.0937 7.83334 10.8203 7.83334Z" fill="currentColor"/>
<path d="M10.8203 5.16667H7.15368C6.88034 5.16667 6.65366 4.94 6.65366 4.66667C6.65366 4.39334 6.88034 4.16667 7.15368 4.16667H10.8203C11.0937 4.16667 11.3203 4.39334 11.3203 4.66667C11.3203 4.94 11.0937 5.16667 10.8203 5.16667Z" fill="currentColor"/>
<path d="M5.18621 5.33334C4.81954 5.33334 4.51954 5.03334 4.51954 4.66667C4.51954 4.3 4.81954 4 5.18621 4C5.55288 4 5.85288 4.3 5.85288 4.66667C5.85288 5.03334 5.55288 5.33334 5.18621 5.33334Z" fill="currentColor"/>
<path d="M5.18621 8C4.81954 8 4.51954 7.7 4.51954 7.33334C4.51954 6.96667 4.81954 6.66667 5.18621 6.66667C5.55288 6.66667 5.85288 6.96667 5.85288 7.33334C5.85288 7.7 5.55288 8 5.18621 8Z" fill="currentColor"/>
</svg>
