<svg width="16" height="16" viewBox="0 0 16 16" fill="none" xmlns="http://www.w3.org/2000/svg">
<path d="M8 15.1667C7.47333 15.1667 6.97333 14.9 6.62666 14.4267L5.95333 13.5267C5.81333 13.34 5.62666 13.2333 5.42666 13.22C5.22666 13.2067 5.02666 13.3 4.86666 13.4667L4.48666 13.1333L4.85333 13.4733C3.88666 14.5 3.15333 14.42 2.79999 14.28C2.43999 14.14 1.83333 13.68 1.83333 12.2V4.69334C1.83333 1.73334 2.68666 0.833336 5.48 0.833336H10.5133C13.3067 0.833336 14.16 1.73334 14.16 4.69334V12.2C14.16 13.6733 13.5533 14.1333 13.1933 14.28C12.84 14.42 12.1067 14.5 11.14 13.4733C10.98 13.3 10.7733 13.2133 10.5733 13.2267C10.3733 13.24 10.18 13.3467 10.04 13.5333L9.36666 14.4333C9.02666 14.9 8.52666 15.1667 8 15.1667ZM5.38666 12.22C5.41333 12.22 5.44666 12.22 5.47333 12.22C5.96666 12.2467 6.43333 12.5067 6.74666 12.9267L7.42666 13.8267C7.75333 14.26 8.25333 14.26 8.58 13.8267L9.25333 12.9267C9.56666 12.5067 10.0333 12.2467 10.5333 12.22C11.0333 12.1933 11.52 12.4 11.88 12.7867C12.3867 13.3267 12.7133 13.3933 12.8333 13.3467C12.9933 13.28 13.1667 12.8933 13.1667 12.2V4.69334C13.1667 2.28667 12.7467 1.83334 10.52 1.83334H5.48C3.25333 1.83334 2.83333 2.28667 2.83333 4.69334V12.2C2.83333 12.9 3.00666 13.2867 3.16666 13.3467C3.28666 13.3933 3.61333 13.3267 4.11999 12.7867C4.46666 12.42 4.92 12.22 5.38666 12.22Z" fill="currentColor"/>
<path d="M10 9.33333C9.62666 9.33333 9.33333 9.03334 9.33333 8.66667C9.33333 8.3 9.63333 8 10 8C10.3667 8 10.6667 8.3 10.6667 8.66667C10.6667 9.03334 10.3733 9.33333 10 9.33333Z" fill="currentColor"/>
<path d="M6 6C5.62666 6 5.33333 5.7 5.33333 5.33334C5.33333 4.96667 5.63333 4.66667 6 4.66667C6.36666 4.66667 6.66666 4.96667 6.66666 5.33334C6.66666 5.7 6.37333 6 6 6Z" fill="currentColor"/>
<path d="M5.75354 9.69987C5.62687 9.69987 5.5002 9.6532 5.4002 9.5532C5.20687 9.35987 5.20687 9.03987 5.4002 8.84654L9.88686 4.35985C10.0802 4.16652 10.4002 4.16652 10.5935 4.35985C10.7869 4.55318 10.7869 4.87318 10.5935 5.06652L6.10687 9.5532C6.01354 9.6532 5.88687 9.69987 5.75354 9.69987Z" fill="currentColor"/>
</svg>
