<svg width="16" height="16" viewBox="0 0 16 16" fill="none" xmlns="http://www.w3.org/2000/svg">
<g clip-path="url(#clip0_2_4676)">
<path d="M12.9467 7.83334H10.6667C10.3933 7.83334 10.1667 7.60667 10.1667 7.33334V2.67334C10.1667 2.18 10.36 1.72 10.7067 1.37334C11.0533 1.02667 11.5133 0.833336 12.0067 0.833336H12.0133C12.8467 0.840003 13.6333 1.16667 14.2333 1.76C14.8333 2.36667 15.16 3.16667 15.16 4V5.61334C15.1667 6.94 14.2733 7.83334 12.9467 7.83334ZM11.1667 6.83334H12.9467C13.72 6.83334 14.1667 6.38667 14.1667 5.61334V4C14.1667 3.42667 13.94 2.88 13.5333 2.46667C13.1267 2.06667 12.5867 1.84 12.0133 1.83334C12.0133 1.83334 12.0133 1.83334 12.0067 1.83334C11.7867 1.83334 11.5733 1.92 11.4133 2.08C11.2533 2.24 11.1667 2.44667 11.1667 2.67334V6.83334Z" fill="currentColor"/>
<path d="M5.99984 15.5533C5.68651 15.5533 5.39318 15.4333 5.17318 15.2067L4.06649 14.0933C4.00649 14.0333 3.91319 14.0267 3.84652 14.08L2.7065 14.9333C2.35317 15.2 1.88649 15.2467 1.48649 15.0467C1.08649 14.8467 0.839847 14.4467 0.839847 14V4C0.839847 1.98667 1.99318 0.833336 4.00651 0.833336H12.0067C12.28 0.833336 12.5065 1.06 12.5065 1.33334C12.5065 1.60667 12.28 1.83334 12.0067 1.83334C11.5467 1.83334 11.1732 2.20667 11.1732 2.66667V14C11.1732 14.4467 10.9265 14.8467 10.5265 15.0467C10.1331 15.2467 9.65987 15.2 9.30653 14.9333L8.16653 14.08C8.09987 14.0267 8.00647 14.04 7.95313 14.0933L6.8332 15.2133C6.60651 15.4333 6.31317 15.5533 5.99984 15.5533ZM3.93982 13.0467C4.24649 13.0467 4.54649 13.16 4.77315 13.3933L5.87984 14.5067C5.91984 14.5467 5.97317 14.5533 5.99984 14.5533C6.02651 14.5533 6.07983 14.5467 6.11983 14.5067L7.2398 13.3867C7.65313 12.9733 8.30653 12.9333 8.76653 13.2867L9.8998 14.1333C9.97313 14.1867 10.0398 14.1667 10.0731 14.1467C10.1065 14.1267 10.1665 14.0867 10.1665 14V2.66667C10.1665 2.36667 10.2398 2.08 10.3665 1.83334H3.99984C2.51984 1.83334 1.83317 2.52 1.83317 4V14C1.83317 14.0933 1.89318 14.1333 1.92651 14.1533C1.96651 14.1733 2.03319 14.1867 2.09985 14.1333L3.23983 13.28C3.44649 13.1267 3.69315 13.0467 3.93982 13.0467Z" fill="currentColor"/>
<path d="M8 6.5H4C3.72667 6.5 3.5 6.27334 3.5 6C3.5 5.72667 3.72667 5.5 4 5.5H8C8.27333 5.5 8.5 5.72667 8.5 6C8.5 6.27334 8.27333 6.5 8 6.5Z" fill="currentColor"/>
<path d="M7.5 9.16667H4.5C4.22667 9.16667 4 8.94 4 8.66667C4 8.39334 4.22667 8.16667 4.5 8.16667H7.5C7.77333 8.16667 8 8.39334 8 8.66667C8 8.94 7.77333 9.16667 7.5 9.16667Z" fill="currentColor"/>
</g>
<defs>
<clipPath id="clip0_2_4676">
<rect width="16" height="16" fill="currentColor"/>
</clipPath>
</defs>
</svg>
