<svg width="16" height="16" viewBox="0 0 16 16" fill="none" xmlns="http://www.w3.org/2000/svg">
<g clip-path="url(#clip0_2_4678)">
<path d="M12.9467 7.83334H10.6667C10.3933 7.83334 10.1667 7.60667 10.1667 7.33334V2.67334C10.1667 2.18 10.36 1.72 10.7067 1.37334C11.0533 1.02667 11.5133 0.833336 12.0067 0.833336H12.0133C12.8467 0.840003 13.6333 1.16667 14.2333 1.76C14.8333 2.36667 15.16 3.16667 15.16 4V5.61334C15.1667 6.94 14.2733 7.83334 12.9467 7.83334ZM11.1667 6.83334H12.9467C13.72 6.83334 14.1667 6.38667 14.1667 5.61334V4C14.1667 3.42667 13.94 2.88 13.5333 2.46667C13.1267 2.06667 12.58 1.84 12.0133 1.83334C12.0133 1.83334 12.0133 1.83334 12.0067 1.83334C11.7867 1.83334 11.5733 1.92 11.4133 2.08C11.2533 2.24 11.1667 2.44667 11.1667 2.67334V6.83334Z" fill="currentColor"/>
<path d="M5.99999 15.5533C5.68666 15.5533 5.39333 15.4333 5.17333 15.2067L4.06666 14.0933C4.00666 14.0333 3.91333 14.0267 3.84666 14.08L2.69999 14.9333C2.34666 15.2 1.87999 15.2467 1.47999 15.0467C1.07999 14.8467 0.833328 14.4467 0.833328 14V4C0.833328 1.98667 1.98666 0.833336 3.99999 0.833336H12C12.2733 0.833336 12.5 1.06 12.5 1.33334C12.5 1.60667 12.2733 1.83334 12 1.83334C11.54 1.83334 11.1667 2.20667 11.1667 2.66667V14C11.1667 14.4467 10.92 14.8467 10.52 15.0467C10.12 15.2467 9.65333 15.2067 9.29999 14.94L8.15999 14.0867C8.09333 14.0333 7.99999 14.0467 7.94666 14.1L6.82666 15.22C6.60666 15.4333 6.31333 15.5533 5.99999 15.5533ZM3.93999 13.0467C4.24666 13.0467 4.54666 13.16 4.77333 13.3933L5.87999 14.5067C5.91999 14.5467 5.97333 14.5533 5.99999 14.5533C6.02666 14.5533 6.07999 14.5467 6.11999 14.5067L7.23999 13.3867C7.65333 12.9733 8.30666 12.9333 8.76666 13.2867L9.89999 14.1333C9.97333 14.1867 10.04 14.1667 10.0733 14.1467C10.1067 14.1267 10.1667 14.0867 10.1667 14V2.66667C10.1667 2.36667 10.24 2.08 10.3667 1.83334H3.99999C2.51999 1.83334 1.83333 2.52 1.83333 4V14C1.83333 14.0933 1.89333 14.1333 1.92666 14.1533C1.96666 14.1733 2.03333 14.1867 2.09999 14.1333L3.23999 13.28C3.44666 13.1267 3.69333 13.0467 3.93999 13.0467Z" fill="currentColor"/>
<path d="M7.99999 9.1732H5.99999C5.72666 9.1732 5.49999 8.94654 5.49999 8.6732C5.49999 8.39987 5.72666 8.1732 5.99999 8.1732H7.99999C8.27333 8.1732 8.49999 8.39987 8.49999 8.6732C8.49999 8.94654 8.27333 9.1732 7.99999 9.1732Z" fill="currentColor"/>
<path d="M7.99999 6.50652H5.99999C5.72666 6.50652 5.49999 6.27985 5.49999 6.00652C5.49999 5.73318 5.72666 5.50652 5.99999 5.50652H7.99999C8.27333 5.50652 8.49999 5.73318 8.49999 6.00652C8.49999 6.27985 8.27333 6.50652 7.99999 6.50652Z" fill="currentColor"/>
<path d="M3.98046 6.6732C3.61379 6.6732 3.31379 6.37318 3.31379 6.00652C3.31379 5.63985 3.61379 5.33985 3.98046 5.33985C4.34713 5.33985 4.64713 5.63985 4.64713 6.00652C4.64713 6.37318 4.34713 6.6732 3.98046 6.6732Z" fill="currentColor"/>
<path d="M3.98046 9.33987C3.61379 9.33987 3.31379 9.03987 3.31379 8.6732C3.31379 8.30654 3.61379 8.00654 3.98046 8.00654C4.34713 8.00654 4.64713 8.30654 4.64713 8.6732C4.64713 9.03987 4.34713 9.33987 3.98046 9.33987Z" fill="currentColor"/>
</g>
<defs>
<clipPath id="clip0_2_4678">
<rect width="16" height="16" fill="currentColor"/>
</clipPath>
</defs>
</svg>
