<svg width="16" height="16" viewBox="0 0 16 16" fill="none" xmlns="http://www.w3.org/2000/svg">
<path d="M7.02641 14.6267C6.87307 14.6267 6.72634 14.56 6.62637 14.4267L5.95303 13.5267C5.81303 13.34 5.62638 13.2333 5.42638 13.22C5.21971 13.2067 5.02636 13.3 4.86636 13.4667C3.89969 14.5 3.16637 14.4133 2.81303 14.28C2.45303 14.14 1.84636 13.68 1.84636 12.2V4.69334C1.84636 1.73334 2.69969 0.833336 5.49303 0.833336H10.5264C13.3197 0.833336 14.1731 1.73334 14.1731 4.69334V7.53334C14.1731 7.80667 13.9464 8.03334 13.6731 8.03334C13.3997 8.03334 13.1731 7.80667 13.1731 7.53334V4.69334C13.1731 2.28668 12.7531 1.83334 10.5264 1.83334H5.49303C3.26636 1.83334 2.84636 2.28668 2.84636 4.69334V12.2C2.84636 12.9 3.01969 13.2867 3.17969 13.3467C3.29969 13.3933 3.62637 13.3267 4.13304 12.7867C4.49971 12.4 4.9797 12.1933 5.4797 12.22C5.97303 12.2467 6.43971 12.5067 6.75301 12.9267L7.43301 13.8267C7.59967 14.0467 7.55301 14.36 7.33301 14.5267C7.23301 14.6 7.12641 14.6267 7.02641 14.6267Z" fill="currentColor"/>
<path d="M10.6667 5.16667H5.33334C5.06001 5.16667 4.83334 4.94 4.83334 4.66667C4.83334 4.39334 5.06001 4.16667 5.33334 4.16667H10.6667C10.94 4.16667 11.1667 4.39334 11.1667 4.66667C11.1667 4.94 10.94 5.16667 10.6667 5.16667Z" fill="currentColor"/>
<path d="M10 7.83334H6.00001C5.72667 7.83334 5.50001 7.60667 5.50001 7.33334C5.50001 7.06 5.72667 6.83334 6.00001 6.83334H10C10.2733 6.83334 10.5 7.06 10.5 7.33334C10.5 7.60667 10.2733 7.83334 10 7.83334Z" fill="currentColor"/>
<path d="M9.87974 14.5201C9.62641 14.5201 9.38641 14.4267 9.21307 14.2534C9.00641 14.0467 8.91307 13.7467 8.95974 13.4334L9.0864 12.5334C9.11974 12.3001 9.25974 12.0201 9.4264 11.8534L11.7864 9.4934C12.1064 9.1734 12.4197 9.00674 12.7597 8.9734C13.1731 8.9334 13.5864 9.10674 13.9731 9.4934C14.3597 9.88007 14.5331 10.2867 14.4931 10.7067C14.4597 11.0401 14.2864 11.3601 13.9731 11.6801L11.6131 14.0401C11.4464 14.2067 11.1664 14.3467 10.9331 14.3801L10.033 14.5067C9.97967 14.5134 9.93307 14.5201 9.87974 14.5201ZM12.8731 9.96674C12.8664 9.96674 12.8597 9.96674 12.8531 9.96674C12.7597 9.9734 12.6331 10.0601 12.4931 10.2001L10.1331 12.5601C10.1131 12.5801 10.0797 12.6467 10.0797 12.6734L9.95974 13.5067L10.7931 13.3867C10.8197 13.3801 10.8863 13.3467 10.9063 13.3267L13.2664 10.9667C13.4064 10.8201 13.4931 10.7001 13.4997 10.6067C13.5131 10.4734 13.3797 10.3134 13.2664 10.2001C13.1597 10.0934 13.0064 9.96674 12.8731 9.96674Z" fill="currentColor"/>
<path d="M13.2804 12.1666C13.2337 12.1666 13.1871 12.1599 13.1471 12.1466C12.2671 11.8999 11.5671 11.1999 11.3204 10.3199C11.2471 10.0533 11.4004 9.77994 11.6671 9.69994C11.9337 9.6266 12.2071 9.77994 12.2804 10.0466C12.4337 10.5933 12.8671 11.0266 13.4137 11.1799C13.6804 11.2533 13.8337 11.5333 13.7604 11.7999C13.7004 12.0199 13.5004 12.1666 13.2804 12.1666Z" fill="currentColor"/>
</svg>
