<svg width="16" height="16" viewBox="0 0 16 16" fill="none" xmlns="http://www.w3.org/2000/svg">
<path d="M7.66681 15.1665C7.14015 15.1665 6.64018 14.8932 6.29351 14.4265L5.6135 13.5332C5.4735 13.3465 5.28685 13.2399 5.08685 13.2265C4.89351 13.2132 4.68686 13.3065 4.52019 13.4732C3.94686 14.0865 3.38683 14.3799 2.86016 14.3665C2.50016 14.3532 2.18683 14.1932 1.94683 13.8999C1.92017 13.8665 1.89351 13.8199 1.87351 13.7732C1.61351 13.2132 1.4935 12.4532 1.4935 11.3132V4.69984C1.4935 3.55984 1.61351 2.80651 1.87351 2.23984C1.89351 2.19984 1.9135 2.15984 1.94683 2.12651C2.18017 1.82651 2.49353 1.66651 2.85353 1.64651C3.38686 1.62651 3.95352 1.93318 4.51352 2.53318C4.68019 2.71318 4.88017 2.79984 5.08017 2.78651C5.28017 2.77318 5.46683 2.66651 5.60683 2.47984L6.28684 1.57984C6.63351 1.11318 7.13348 0.839844 7.66015 0.839844C8.18681 0.839844 8.68681 1.11318 9.03348 1.57984L9.70681 2.47318C9.84681 2.66651 10.0401 2.77318 10.2468 2.78651C10.4401 2.79984 10.6468 2.70651 10.8135 2.53318C11.3601 1.94651 11.9001 1.64651 12.4201 1.64651C12.7935 1.64651 13.1402 1.81318 13.3802 2.12651C13.4069 2.15984 13.4335 2.19984 13.4535 2.24651C13.7135 2.80651 13.8335 3.56651 13.8335 4.70651V11.3199C13.8335 12.4599 13.7135 13.2132 13.4535 13.7799C13.4268 13.8399 13.3935 13.8932 13.3469 13.9399C13.1402 14.2065 12.8001 14.3732 12.4201 14.3732C11.9001 14.3732 11.3601 14.0732 10.8135 13.4865C10.6535 13.3132 10.4335 13.2199 10.2468 13.2332C10.0401 13.2465 9.85348 13.3532 9.70681 13.5465L9.03348 14.4399C8.69348 14.8932 8.19348 15.1665 7.66681 15.1665ZM5.05352 12.2199C5.08019 12.2199 5.11353 12.2199 5.14019 12.2199C5.63353 12.2465 6.0935 12.5065 6.40683 12.9265L7.08681 13.8265C7.41348 14.2665 7.90681 14.2665 8.23348 13.8332L8.90681 12.9399C9.22681 12.5132 9.69355 12.2599 10.1869 12.2332C10.6802 12.2065 11.1735 12.4132 11.5335 12.7999C12.0268 13.3265 12.3268 13.3665 12.4068 13.3665C12.4601 13.3665 12.5069 13.3532 12.5535 13.3132C12.7402 12.8932 12.8201 12.2599 12.8201 11.3132V4.69984C12.8201 3.76651 12.7335 3.13318 12.5535 2.71318C12.5002 2.65318 12.4468 2.64651 12.4068 2.64651C12.3268 2.64651 12.0268 2.68651 11.5335 3.21318C11.1735 3.59984 10.6802 3.80651 10.1869 3.77984C9.68688 3.75318 9.22015 3.49318 8.90015 3.07318L8.22688 2.17984C7.90021 1.73984 7.40681 1.73984 7.08015 2.17984L6.40016 3.08651C6.08683 3.50651 5.62685 3.75984 5.13352 3.78651C4.64019 3.81318 4.14684 3.60651 3.78684 3.22651C3.38017 2.78651 3.06686 2.63984 2.89353 2.64651C2.85353 2.64651 2.80685 2.65984 2.75351 2.71318C2.57351 3.13318 2.48683 3.76651 2.48683 4.69984V11.3132C2.48683 12.2532 2.57351 12.8865 2.75351 13.3065C2.81351 13.3599 2.85353 13.3665 2.89353 13.3732C3.06019 13.3799 3.3735 13.2332 3.78017 12.7999C4.1335 12.4199 4.59352 12.2199 5.05352 12.2199Z" fill="currentColor"/>
<path d="M10.6667 7.33333H5.33335C5.06001 7.33333 4.83335 7.10666 4.83335 6.83333C4.83335 6.56 5.06001 6.33333 5.33335 6.33333H10.6667C10.94 6.33333 11.1667 6.56 11.1667 6.83333C11.1667 7.10666 10.94 7.33333 10.6667 7.33333Z" fill="currentColor"/>
<path d="M9.33335 9.66666H5.33335C5.06001 9.66666 4.83335 9.44 4.83335 9.16666C4.83335 8.89333 5.06001 8.66666 5.33335 8.66666H9.33335C9.60668 8.66666 9.83335 8.89333 9.83335 9.16666C9.83335 9.44 9.60668 9.66666 9.33335 9.66666Z" fill="currentColor"/>
</svg>
