<svg width="16" height="16" viewBox="0 0 16 16" fill="none" xmlns="http://www.w3.org/2000/svg">
<path d="M3.33297 12.1666C3.2063 12.1666 3.07963 12.1199 2.97963 12.0199C2.7863 11.8266 2.7863 11.5066 2.97963 11.3133L12.313 1.97996C12.5063 1.78663 12.8263 1.78663 13.0197 1.97996C13.213 2.17329 13.213 2.49329 13.0197 2.68663L3.6863 12.0199C3.5863 12.1199 3.45963 12.1666 3.33297 12.1666Z" fill="currentColor"/>
<path d="M10.18 12.1667L3.33297 12.1666C3.05963 12.1666 2.83333 11.94 2.83333 11.6667V4.81999C2.83333 4.54665 3.06 4.31999 3.33333 4.31999C3.60667 4.31999 3.83333 4.54665 3.83333 4.81999V11.1667H10.18C10.4533 11.1667 10.68 11.3933 10.68 11.6667C10.68 11.94 10.4533 12.1667 10.18 12.1667Z" fill="currentColor"/>
<path d="M13.6667 15.1667H2.33333C2.06 15.1667 1.83333 14.94 1.83333 14.6667C1.83333 14.3933 2.06 14.1667 2.33333 14.1667H13.6667C13.94 14.1667 14.1667 14.3933 14.1667 14.6667C14.1667 14.94 13.94 15.1667 13.6667 15.1667Z" fill="currentColor"/>
</svg>
