<svg width="16" height="16" viewBox="0 0 16 16" fill="none" xmlns="http://www.w3.org/2000/svg">
<path d="M7.0264 14.6267C6.87306 14.6267 6.72633 14.56 6.62636 14.4267L5.95302 13.5267C5.81302 13.34 5.62637 13.2333 5.42637 13.22C5.22637 13.2067 5.02635 13.3 4.86635 13.4667C3.89968 14.5 3.16636 14.4133 2.81302 14.28C2.45302 14.14 1.84635 13.68 1.84635 12.2V4.69334C1.84635 1.73334 2.69968 0.833336 5.49302 0.833336H10.5264C13.3197 0.833336 14.1731 1.73334 14.1731 4.69334V7.53334C14.1731 7.80667 13.9464 8.03334 13.6731 8.03334C13.3997 8.03334 13.1731 7.80667 13.1731 7.53334V4.69334C13.1731 2.28668 12.7531 1.83334 10.5264 1.83334H5.49302C3.26635 1.83334 2.84635 2.28668 2.84635 4.69334V12.2C2.84635 12.9 3.01968 13.2867 3.17968 13.3467C3.29968 13.3933 3.62637 13.3267 4.13303 12.7867C4.4997 12.4 4.97969 12.1933 5.47969 12.22C5.97302 12.2467 6.4397 12.5067 6.753 12.9267L7.433 13.8267C7.59966 14.0467 7.553 14.36 7.333 14.5267C7.233 14.6 7.1264 14.6267 7.0264 14.6267Z" fill="currentColor"/>
<path d="M12.1333 14.7667C10.68 14.7667 9.5 13.5867 9.5 12.1333C9.5 10.68 10.68 9.5 12.1333 9.5C13.5867 9.5 14.7667 10.68 14.7667 12.1333C14.7667 13.5867 13.5867 14.7667 12.1333 14.7667ZM12.1333 10.5C11.2333 10.5 10.5 11.2333 10.5 12.1333C10.5 13.0333 11.2333 13.7667 12.1333 13.7667C13.0333 13.7667 13.7667 13.0333 13.7667 12.1333C13.7667 11.2333 13.0333 10.5 12.1333 10.5Z" fill="currentColor"/>
<path d="M14.6663 15.1666C14.5397 15.1666 14.413 15.1199 14.313 15.0199L13.6463 14.3533C13.453 14.1599 13.453 13.8399 13.6463 13.6466C13.8397 13.4533 14.1597 13.4533 14.353 13.6466L15.0197 14.3133C15.213 14.5066 15.213 14.8266 15.0197 15.0199C14.9197 15.1199 14.793 15.1666 14.6663 15.1666Z" fill="currentColor"/>
<path d="M10.6667 5.16667H5.33333C5.06 5.16667 4.83333 4.94 4.83333 4.66667C4.83333 4.39334 5.06 4.16667 5.33333 4.16667H10.6667C10.94 4.16667 11.1667 4.39334 11.1667 4.66667C11.1667 4.94 10.94 5.16667 10.6667 5.16667Z" fill="currentColor"/>
<path d="M10 7.83334H6C5.72666 7.83334 5.5 7.60667 5.5 7.33334C5.5 7.06 5.72666 6.83334 6 6.83334H10C10.2733 6.83334 10.5 7.06 10.5 7.33334C10.5 7.60667 10.2733 7.83334 10 7.83334Z" fill="currentColor"/>
</svg>
