<svg width="16" height="16" viewBox="0 0 16 16" fill="none" xmlns="http://www.w3.org/2000/svg">
<g clip-path="url(#clip0_2_5239)">
<path d="M10 15.1667H6C2.38 15.1667 0.833332 13.62 0.833332 10V6C0.833332 2.38 2.38 0.833336 6 0.833336H10C13.62 0.833336 15.1667 2.38 15.1667 6V10C15.1667 13.62 13.62 15.1667 10 15.1667ZM6 1.83334C2.92667 1.83334 1.83333 2.92667 1.83333 6V10C1.83333 13.0733 2.92667 14.1667 6 14.1667H10C13.0733 14.1667 14.1667 13.0733 14.1667 10V6C14.1667 2.92667 13.0733 1.83334 10 1.83334H6Z" fill="currentColor"/>
<path d="M8 12.4199C7.62667 12.4199 7.27333 12.2333 7.02667 11.9066L6.62666 11.3733C6.58 11.3133 6.52667 11.2799 6.46667 11.2733C6.40667 11.2733 6.35334 11.2999 6.30001 11.3533C5.65334 12.0466 5.12666 11.9799 4.86666 11.8799C4.60666 11.7733 4.16667 11.4533 4.16667 10.4666V6.04658C4.16667 4.19325 4.76 3.57324 6.52 3.57324H9.48666C11.2467 3.57324 11.84 4.19992 11.84 6.04658V10.4666C11.84 11.4533 11.4 11.7799 11.14 11.8799C10.8867 11.9799 10.36 12.0466 9.70667 11.3533C9.65333 11.2999 9.59333 11.2733 9.53333 11.2733C9.47333 11.2733 9.42 11.3133 9.37333 11.3733L8.98 11.8999C8.72667 12.2333 8.37333 12.4199 8 12.4199ZM6.46 10.2733C6.48 10.2733 6.5 10.2733 6.52 10.2733C6.87333 10.2933 7.2 10.4733 7.42 10.7733L7.82 11.3066C7.93333 11.4533 8.06 11.4533 8.16667 11.3066L8.56 10.7799C8.78 10.4799 9.11333 10.2999 9.46666 10.2799C9.81333 10.2533 10.1667 10.4066 10.42 10.6799C10.6067 10.8799 10.7267 10.9333 10.7733 10.9466C10.7667 10.9133 10.8267 10.7799 10.8267 10.4733V6.05324C10.8267 4.68658 10.62 4.57991 9.47333 4.57991H6.50667C5.36 4.57991 5.15334 4.68658 5.15334 6.05324V10.4733C5.15334 10.7799 5.21334 10.9133 5.23334 10.9533C5.25334 10.9266 5.37333 10.8733 5.55333 10.6733C5.55333 10.6666 5.56001 10.6666 5.56667 10.6599C5.81334 10.4199 6.13333 10.2733 6.46 10.2733Z" fill="currentColor"/>
</g>
<defs>
<clipPath id="clip0_2_5239">
<rect width="16" height="16" fill="currentColor"/>
</clipPath>
</defs>
</svg>
