<svg width="16" height="16" viewBox="0 0 16 16" fill="none" xmlns="http://www.w3.org/2000/svg">
<g clip-path="url(#clip0_2_4674)">
<path d="M10 15.1667H6C2.38 15.1667 0.833336 13.62 0.833336 10V6C0.833336 2.38 2.38 0.833336 6 0.833336H10C13.62 0.833336 15.1667 2.38 15.1667 6V10C15.1667 13.62 13.62 15.1667 10 15.1667ZM6 1.83334C2.92667 1.83334 1.83334 2.92667 1.83334 6V10C1.83334 13.0733 2.92667 14.1667 6 14.1667H10C13.0733 14.1667 14.1667 13.0733 14.1667 10V6C14.1667 2.92667 13.0733 1.83334 10 1.83334H6Z" fill="currentColor"/>
<path d="M7.99967 10.1733C7.873 10.1733 7.74634 10.1266 7.64634 10.0266L5.6463 8.0266C5.45297 7.83327 5.45297 7.51334 5.6463 7.32C5.83964 7.12667 6.15964 7.12667 6.35297 7.32L7.99967 8.96667L9.64633 7.32C9.83967 7.12667 10.1597 7.12667 10.353 7.32C10.5463 7.51334 10.5463 7.83327 10.353 8.0266L8.353 10.0266C8.253 10.1266 8.12634 10.1733 7.99967 10.1733Z" fill="currentColor"/>
<path d="M7.99967 10.1733C7.72634 10.1733 7.5 9.94654 7.5 9.6732V4.33985C7.5 4.06652 7.72667 3.83985 8 3.83985C8.27334 3.83985 8.5 4.06652 8.5 4.33985V9.6732C8.5 9.9532 8.273 10.1733 7.99967 10.1733Z" fill="currentColor"/>
<path d="M8.00027 12.1535C6.59362 12.1535 5.18029 11.9268 3.84029 11.4801C3.58029 11.3935 3.44029 11.1068 3.52696 10.8468C3.61362 10.5868 3.89362 10.4401 4.16029 10.5335C6.64029 11.3601 9.36693 11.3601 11.8469 10.5335C12.1069 10.4468 12.3936 10.5868 12.4803 10.8468C12.5669 11.1068 12.4269 11.3935 12.1669 11.4801C10.8203 11.9335 9.40693 12.1535 8.00027 12.1535Z" fill="currentColor"/>
</g>
<defs>
<clipPath id="clip0_2_4674">
<rect width="16" height="16" fill="currentColor"/>
</clipPath>
</defs>
</svg>
