<svg width="16" height="16" viewBox="0 0 16 16" fill="none" xmlns="http://www.w3.org/2000/svg">
<g clip-path="url(#clip0_2_4673)">
<path d="M10 15.1667H6C2.38 15.1667 0.833336 13.62 0.833336 10V6C0.833336 2.38 2.38 0.833336 6 0.833336H10C13.62 0.833336 15.1667 2.38 15.1667 6V10C15.1667 13.62 13.62 15.1667 10 15.1667ZM6 1.83334C2.92667 1.83334 1.83334 2.92667 1.83334 6V10C1.83334 13.0733 2.92667 14.1667 6 14.1667H10C13.0733 14.1667 14.1667 13.0733 14.1667 10V6C14.1667 2.92667 13.0733 1.83334 10 1.83334H6Z" fill="currentColor"/>
<path d="M9.88653 9.3934H7.05987C6.78654 9.3934 6.5599 9.16674 6.5599 8.8934C6.5599 8.62007 6.78654 8.3934 7.05987 8.3934H9.38653V6.06674C9.38653 5.7934 9.6132 5.56674 9.88653 5.56674C10.1599 5.56674 10.3865 5.7934 10.3865 6.06674V8.8934C10.3865 9.1734 10.1599 9.3934 9.88653 9.3934Z" fill="currentColor"/>
<path d="M9.88653 9.3934C9.75987 9.3934 9.63294 9.34674 9.53294 9.24674L5.75959 5.47342C5.56626 5.28009 5.56626 4.96008 5.75959 4.76675C5.95292 4.57342 6.27292 4.57342 6.46625 4.76675L10.2396 8.54007C10.4329 8.7334 10.4329 9.0534 10.2396 9.24674C10.1396 9.34674 10.0132 9.3934 9.88653 9.3934Z" fill="currentColor"/>
<path d="M8.00027 12.1535C6.59363 12.1535 5.18029 11.9268 3.84029 11.4801C3.58029 11.3935 3.44029 11.1068 3.52696 10.8468C3.61362 10.5868 3.9003 10.4401 4.1603 10.5335C6.6403 11.3601 9.36693 11.3601 11.8469 10.5335C12.1069 10.4468 12.3936 10.5868 12.4803 10.8468C12.5669 11.1068 12.4269 11.3935 12.1669 11.4801C10.8203 11.9335 9.40693 12.1535 8.00027 12.1535Z" fill="currentColor"/>
</g>
<defs>
<clipPath id="clip0_2_4673">
<rect width="16" height="16" fill="currentColor"/>
</clipPath>
</defs>
</svg>
