<svg width="16" height="16" viewBox="0 0 16 16" fill="none" xmlns="http://www.w3.org/2000/svg">
<g clip-path="url(#clip0_2_4688)">
<path d="M7.98046 15.1667C4.0338 15.1667 0.813797 11.9533 0.813797 8C0.813797 4.04667 4.0338 0.833336 7.98046 0.833336C11.9271 0.833336 15.1471 4.04667 15.1471 8C15.1471 11.9533 11.9338 15.1667 7.98046 15.1667ZM7.98046 1.83334C4.58046 1.83334 1.8138 4.6 1.8138 8C1.8138 11.4 4.58046 14.1667 7.98046 14.1667C11.3805 14.1667 14.1471 11.4 14.1471 8C14.1471 4.6 11.3805 1.83334 7.98046 1.83334Z" fill="currentColor"/>
<path d="M7.99966 11.32C6.16635 11.32 4.67968 9.83333 4.67968 8C4.67968 6.16668 6.16635 4.68002 7.99966 4.68002C9.833 4.68002 11.3197 6.16668 11.3197 8C11.3197 9.83333 9.833 11.32 7.99966 11.32ZM7.99966 5.68002C6.71966 5.68002 5.67968 6.72 5.67968 8C5.67968 9.28 6.71966 10.32 7.99966 10.32C9.27966 10.32 10.3197 9.28 10.3197 8C10.3197 6.72 9.27966 5.68002 7.99966 5.68002Z" fill="currentColor"/>
</g>
<defs>
<clipPath id="clip0_2_4688">
<rect width="16" height="16" fill="currentColor"/>
</clipPath>
</defs>
</svg>
