<svg width="16" height="16" viewBox="0 0 16 16" fill="none" xmlns="http://www.w3.org/2000/svg">
<g clip-path="url(#clip0_2_4910)">
<path d="M7.61333 12.8333H5.79333C3.99999 12.8333 3.16666 11.9999 3.16666 10.2066V8.3866C3.16666 6.59994 3.99999 5.7666 5.79333 5.7666H7.61333C9.4 5.7666 10.24 6.59994 10.24 8.39327V10.2133C10.2333 11.9999 9.4 12.8333 7.61333 12.8333ZM5.79333 6.7666C4.54666 6.7666 4.16666 7.1466 4.16666 8.39327V10.2133C4.16666 11.4599 4.54666 11.8399 5.79333 11.8399H7.61333C8.85999 11.8399 9.24 11.4599 9.24 10.2133V8.39327C9.24 7.1466 8.85999 6.7666 7.61333 6.7666H5.79333Z" fill="currentColor"/>
<path d="M10.2069 10.2333H9.73359C9.46026 10.2333 9.23359 10.0067 9.23359 9.73334V8.38667C9.23359 7.14 8.8536 6.76 7.60693 6.76H6.26692C5.99359 6.76 5.76692 6.53334 5.76692 6.26V5.79334C5.76692 4.00667 6.60026 3.16667 8.39359 3.16667H10.2136C12.0003 3.16667 12.8403 4 12.8403 5.79334V7.61334C12.8336 9.4 12.0003 10.2333 10.2069 10.2333ZM6.76693 5.76667L7.61333 5.7666C9.4 5.7666 10.24 6.59994 10.24 8.39327L10.2403 9.24C11.4669 9.23333 11.8403 8.85334 11.8403 7.61334V5.79334C11.8403 4.54667 11.4603 4.16667 10.2136 4.16667H8.39359C7.15359 4.16667 6.7736 4.54 6.76693 5.76667Z" fill="currentColor"/>
<path d="M10.0001 15.1668C9.82013 15.1668 9.65346 15.0668 9.5668 14.9135C9.48013 14.7535 9.48013 14.5668 9.57346 14.4068L10.2735 13.2401C10.4135 13.0001 10.7201 12.9268 10.9601 13.0668C11.2001 13.2068 11.2735 13.5135 11.1335 13.7535L10.9535 14.0535C12.7935 13.6201 14.1735 11.9668 14.1735 9.99347C14.1735 9.72014 14.4001 9.49347 14.6735 9.49347C14.9468 9.49347 15.1735 9.72014 15.1735 9.99347C15.1668 12.8468 12.8468 15.1668 10.0001 15.1668Z" fill="currentColor"/>
<path d="M1.33333 6.5C1.05999 6.5 0.833328 6.27334 0.833328 6C0.833328 3.15334 3.15333 0.833336 6 0.833336C6.18 0.833336 6.34666 0.933336 6.43333 1.08667C6.51999 1.24667 6.52 1.43334 6.42666 1.59334L5.72666 2.76C5.58666 2.99334 5.27999 3.07334 5.04 2.92667C4.80666 2.78667 4.72666 2.48 4.87333 2.24L5.05333 1.94C3.20666 2.37334 1.83333 4.02667 1.83333 6C1.83333 6.27334 1.60666 6.5 1.33333 6.5Z" fill="currentColor"/>
</g>
<defs>
<clipPath id="clip0_2_4910">
<rect width="16" height="16" fill="currentColor"/>
</clipPath>
</defs>
</svg>
