<svg width="16" height="16" viewBox="0 0 16 16" fill="none" xmlns="http://www.w3.org/2000/svg">
<path d="M11.2461 12.7067H5.91276C3.79942 12.7067 2.07942 10.9867 2.07942 8.8734C2.07942 6.76007 3.79942 5.04004 5.91276 5.04004H13.2461C13.5194 5.04004 13.7461 5.26671 13.7461 5.54004C13.7461 5.81337 13.5194 6.04004 13.2461 6.04004H5.91276C4.35276 6.04004 3.07942 7.3134 3.07942 8.8734C3.07942 10.4334 4.35276 11.7067 5.91276 11.7067H11.2461C11.5194 11.7067 11.7461 11.9334 11.7461 12.2067C11.7461 12.4801 11.5261 12.7067 11.2461 12.7067Z" fill="currentColor"/>
<path d="M11.7132 7.7066C11.5865 7.7066 11.4599 7.65993 11.3599 7.55994C11.1665 7.3666 11.1665 7.0466 11.3599 6.85327L12.7132 5.49992L11.3599 4.14659C11.1665 3.95326 11.1665 3.63326 11.3599 3.43992C11.5532 3.24659 11.8732 3.24659 12.0665 3.43992L13.7732 5.14659C13.9665 5.33992 13.9665 5.65992 13.7732 5.85325L12.0665 7.55994C11.9665 7.65993 11.8399 7.7066 11.7132 7.7066Z" fill="currentColor"/>
</svg>
