<svg width="16" height="16" viewBox="0 0 16 16" fill="none" xmlns="http://www.w3.org/2000/svg">
<g clip-path="url(#clip0_2_4669)">
<path d="M14.6667 5.04H11.7067H14.6667Z" fill="currentColor"/>
<path fill-rule="evenodd" clip-rule="evenodd" d="M7.99999 1.86667C4.58926 1.86667 1.86665 4.61316 1.86665 8C1.86665 8.29455 1.62787 8.53334 1.33332 8.53334C1.03877 8.53334 0.799988 8.29455 0.799988 8C0.799988 4.02684 3.99738 0.800003 7.99999 0.800003C10.3817 0.800003 12.1651 1.79494 13.3425 2.77713C13.645 3.02947 13.9085 3.28176 14.1333 3.51755V1.70667C14.1333 1.41212 14.3721 1.17334 14.6667 1.17334C14.9612 1.17334 15.2 1.41212 15.2 1.70667V5.04C15.2 5.33455 14.9612 5.57334 14.6667 5.57334H11.7067C11.4121 5.57334 11.1733 5.33455 11.1733 5.04C11.1733 4.74545 11.4121 4.50667 11.7067 4.50667H13.593C13.3514 4.23163 13.04 3.91386 12.6592 3.59621C11.6149 2.72507 10.065 1.86667 7.99999 1.86667ZM14.6667 7.46667C14.9612 7.46667 15.2 7.70545 15.2 8C15.2 11.9746 11.9745 15.2 7.99999 15.2C5.97477 15.2 4.3704 14.1807 3.29834 13.2084C3.03901 12.9732 2.80801 12.7382 2.60665 12.517V14.2933C2.60665 14.5879 2.36787 14.8267 2.07332 14.8267C1.77877 14.8267 1.53999 14.5879 1.53999 14.2933V10.96C1.53999 10.6655 1.77877 10.4267 2.07332 10.4267H5.08665C5.38121 10.4267 5.61999 10.6655 5.61999 10.96C5.61999 11.2546 5.38121 11.4933 5.08665 11.4933H3.12898C3.36229 11.7727 3.65943 12.0958 4.01496 12.4183C4.98624 13.2993 6.3452 14.1333 7.99999 14.1333C11.3854 14.1333 14.1333 11.3855 14.1333 8C14.1333 7.70545 14.3721 7.46667 14.6667 7.46667Z" fill="currentColor"/>
</g>
<defs>
<clipPath id="clip0_2_4669">
<rect width="16" height="16" fill="currentColor"/>
</clipPath>
</defs>
</svg>
