<svg width="16" height="16" viewBox="0 0 16 16" fill="none" xmlns="http://www.w3.org/2000/svg">
<g clip-path="url(#clip0_2_5384)">
<path d="M10 15.1667H6.00001C2.38001 15.1667 0.833344 13.62 0.833344 10V6C0.833344 2.38 2.38001 0.833336 6.00001 0.833336H10C13.62 0.833336 15.1667 2.38 15.1667 6V10C15.1667 13.62 13.62 15.1667 10 15.1667ZM6.00001 1.83334C2.92668 1.83334 1.83334 2.92667 1.83334 6V10C1.83334 13.0733 2.92668 14.1667 6.00001 14.1667H10C13.0733 14.1667 14.1667 13.0733 14.1667 10V6C14.1667 2.92667 13.0733 1.83334 10 1.83334H6.00001Z" fill="currentColor"/>
<path d="M8.00001 12.0065C5.88668 12.0065 4.16668 10.2865 4.16668 8.1732C4.16668 6.05985 5.88668 4.33985 8.00001 4.33985C8.42668 4.33985 8.85334 4.39984 9.26001 4.52651C9.52668 4.60651 9.67334 4.88652 9.59334 5.15318C9.51334 5.41985 9.23334 5.56652 8.96668 5.48652C8.66001 5.39318 8.33334 5.34651 8.00001 5.34651C6.44001 5.34651 5.16668 6.61984 5.16668 8.17987C5.16668 9.73987 6.44001 11.0132 8.00001 11.0132C9.56001 11.0132 10.8333 9.73987 10.8333 8.17987C10.8333 7.6132 10.6667 7.0732 10.36 6.60652C10.2067 6.37985 10.2667 6.06652 10.5 5.91318C10.7267 5.75985 11.04 5.81985 11.1933 6.05318C11.6133 6.68654 11.84 7.41987 11.84 8.17987C11.8333 10.2932 10.1133 12.0065 8.00001 12.0065Z" fill="currentColor"/>
<path d="M9.58741 5.59998C9.44741 5.59998 9.30741 5.53998 9.20741 5.42664L8.09408 4.15331C7.91408 3.94664 7.93414 3.62664 8.14081 3.44664C8.34748 3.26664 8.66741 3.28664 8.84741 3.4933L9.96074 4.76664C10.1407 4.97331 10.1207 5.29331 9.91408 5.47331C9.82074 5.55998 9.70741 5.59998 9.58741 5.59998Z" fill="currentColor"/>
<path d="M8.29328 6.54658C8.13994 6.54658 7.98661 6.47324 7.88661 6.33991C7.72661 6.11991 7.77328 5.80658 7.99328 5.63991L9.28661 4.69324C9.50661 4.53324 9.81994 4.57991 9.98661 4.79991C10.1466 5.01991 10.0999 5.33324 9.87994 5.49991L8.58661 6.44658C8.49994 6.51324 8.39328 6.54658 8.29328 6.54658Z" fill="currentColor"/>
</g>
<defs>
<clipPath id="clip0_2_5384">
<rect width="16" height="16" fill="currentColor"/>
</clipPath>
</defs>
</svg>
