<svg width="16" height="16" viewBox="0 0 16 16" fill="none" xmlns="http://www.w3.org/2000/svg">
<g clip-path="url(#clip0_2_4979)">
<path d="M9.70001 14.9467C9.48001 14.9467 9.27334 14.8 9.21334 14.5733C9.14001 14.3067 9.30001 14.0333 9.57334 13.96C12.28 13.2467 14.1667 10.7933 14.1667 7.99334C14.1667 4.59334 11.4 1.82667 8.00001 1.82667C5.11334 1.82667 3.22001 3.51334 2.33334 4.53334H4.29334C4.56668 4.53334 4.79334 4.76 4.79334 5.03334C4.79334 5.30667 4.57334 5.54 4.29334 5.54H1.34001C1.30668 5.54 1.24668 5.53334 1.20001 5.52C1.14001 5.5 1.08668 5.47334 1.04001 5.44C0.98001 5.4 0.933344 5.34667 0.90001 5.28667C0.866677 5.22667 0.84001 5.15334 0.833344 5.08C0.833344 5.06 0.833344 5.04667 0.833344 5.02667V2C0.833344 1.72667 1.06001 1.5 1.33334 1.5C1.60668 1.5 1.83334 1.72667 1.83334 2V3.59334C2.92001 2.42667 4.96668 0.833336 8.00001 0.833336C11.9533 0.833336 15.1667 4.04667 15.1667 8C15.1667 11.2533 12.9733 14.1067 9.82668 14.9333C9.78668 14.94 9.74001 14.9467 9.70001 14.9467Z" fill="currentColor"/>
<path d="M7.52668 15.1533C7.51334 15.1533 7.50001 15.1467 7.49334 15.1467C6.77334 15.1 6.06668 14.94 5.40001 14.68C5.20668 14.6067 5.07334 14.4133 5.08001 14.2067C5.08001 14.1467 5.09334 14.0867 5.11334 14.0333C5.21334 13.78 5.51334 13.6533 5.76001 13.7467C6.34001 13.9733 6.94668 14.1067 7.56001 14.1533C7.82001 14.1667 8.02668 14.3933 8.02668 14.66L8.02001 14.6867C8.00668 14.9467 7.78668 15.1533 7.52668 15.1533ZM3.85334 13.72C3.74001 13.72 3.63334 13.68 3.54001 13.6133C2.98001 13.16 2.48668 12.6333 2.08668 12.0467C2.02668 11.96 1.99334 11.8667 1.99334 11.7667C1.99334 11.6 2.07334 11.4467 2.21334 11.3533C2.43334 11.2 2.75334 11.26 2.90668 11.4733C2.90668 11.48 2.90668 11.48 2.90668 11.48C2.91334 11.4867 2.92001 11.5 2.92668 11.5067C3.27334 12.0067 3.69334 12.4533 4.16668 12.8267C4.28001 12.92 4.35334 13.06 4.35334 13.2133C4.35334 13.3267 4.32001 13.44 4.24668 13.5333C4.14668 13.6533 4.00668 13.72 3.85334 13.72ZM1.62668 10.4667C1.40668 10.4667 1.21334 10.3267 1.15334 10.12C0.94001 9.43334 0.833344 8.72 0.833344 8V7.99334C0.84001 7.72 1.06001 7.5 1.33334 7.5C1.60668 7.5 1.83334 7.72667 1.83334 8C1.83334 8.62667 1.92668 9.24 2.10668 9.82C2.12001 9.87334 2.12668 9.92 2.12668 9.97334C2.12668 10.1867 1.98668 10.38 1.77334 10.4467C1.72668 10.46 1.68001 10.4667 1.62668 10.4667Z" fill="currentColor"/>
</g>
<defs>
<clipPath id="clip0_2_4979">
<rect width="16" height="16" fill="currentColor"/>
</clipPath>
</defs>
</svg>
