<svg width="16" height="16" viewBox="0 0 16 16" fill="none" xmlns="http://www.w3.org/2000/svg">
<g clip-path="url(#clip0_2_4666)">
<path d="M8.00001 12.0067C5.88668 12.0067 4.16668 10.2867 4.16668 8.17334C4.16668 7.41334 4.38668 6.67334 4.81334 6.04667C4.96668 5.82 5.28 5.75334 5.50667 5.90667C5.73334 6.06 5.80001 6.37334 5.64668 6.6C5.33334 7.06667 5.17334 7.61334 5.17334 8.17334C5.17334 9.73334 6.44667 11.0067 8.00668 11.0067C9.56668 11.0067 10.84 9.73334 10.84 8.17334C10.84 6.61334 9.56668 5.34 8.00668 5.34C7.67334 5.34 7.35334 5.38667 7.04001 5.48C6.78001 5.56 6.50001 5.41334 6.41334 5.14667C6.33334 4.88 6.48001 4.6 6.74668 4.52C7.15334 4.39334 7.57334 4.33334 8.00668 4.33334C10.12 4.33334 11.84 6.05334 11.84 8.16667C11.84 10.28 10.1133 12.0067 8.00001 12.0067Z" fill="currentColor"/>
<path d="M6.41275 5.59992C6.29942 5.59992 6.17942 5.55992 6.08609 5.47992C5.87942 5.29992 5.85942 4.97992 6.03942 4.77325L7.15274 3.49992C7.33274 3.29325 7.65274 3.26658 7.85941 3.45325C8.06608 3.63325 8.08608 3.95324 7.90608 4.15991L6.79274 5.43325C6.68608 5.53992 6.55275 5.59992 6.41275 5.59992Z" fill="currentColor"/>
<path d="M7.70654 6.5467C7.60654 6.5467 7.49988 6.51336 7.41321 6.45336L6.11985 5.5067C5.89985 5.3467 5.84652 5.03336 6.01319 4.8067C6.17319 4.5867 6.48653 4.53337 6.71321 4.70004L8.00654 5.6467C8.22654 5.8067 8.27988 6.12003 8.11321 6.3467C8.01321 6.47336 7.85988 6.5467 7.70654 6.5467Z" fill="currentColor"/>
<path d="M10 15.1667H6.00001C2.38001 15.1667 0.833344 13.62 0.833344 10V6C0.833344 2.38 2.38001 0.833336 6.00001 0.833336H10C13.62 0.833336 15.1667 2.38 15.1667 6V10C15.1667 13.62 13.62 15.1667 10 15.1667ZM6.00001 1.83334C2.92668 1.83334 1.83334 2.92667 1.83334 6V10C1.83334 13.0733 2.92668 14.1667 6.00001 14.1667H10C13.0733 14.1667 14.1667 13.0733 14.1667 10V6C14.1667 2.92667 13.0733 1.83334 10 1.83334H6.00001Z" fill="currentColor"/>
</g>
<defs>
<clipPath id="clip0_2_4666">
<rect width="16" height="16" fill="currentColor"/>
</clipPath>
</defs>
</svg>
