<svg width="16" height="16" viewBox="0 0 16 16" fill="none" xmlns="http://www.w3.org/2000/svg">
<g clip-path="url(#clip0_2_5119)">
<path d="M10 15.1667H6.00001C2.38001 15.1667 0.833344 13.62 0.833344 10V6C0.833344 2.38 2.38001 0.833336 6.00001 0.833336H10C13.62 0.833336 15.1667 2.38 15.1667 6V10C15.1667 13.62 13.62 15.1667 10 15.1667ZM6.00001 1.83334C2.92668 1.83334 1.83334 2.92667 1.83334 6V10C1.83334 13.0733 2.92668 14.1667 6.00001 14.1667H10C13.0733 14.1667 14.1667 13.0733 14.1667 10V6C14.1667 2.92667 13.0733 1.83334 10 1.83334H6.00001Z" fill="currentColor"/>
<path d="M11.6667 6.37334H10.04H11.6667Z" fill="currentColor"/>
<path fill-rule="evenodd" clip-rule="evenodd" d="M8.00001 4.86667C6.25583 4.86667 4.86668 6.26662 4.86668 8C4.86668 8.29455 4.6279 8.53334 4.33334 8.53334C4.03879 8.53334 3.80001 8.29455 3.80001 8C3.80001 5.68005 5.66419 3.8 8.00001 3.8C9.38177 3.8 10.4152 4.37833 11.0927 4.94394C11.1064 4.95538 11.1199 4.96682 11.1333 4.97825V4.54C11.1333 4.24545 11.3721 4.00667 11.6667 4.00667C11.9612 4.00667 12.2 4.24545 12.2 4.54V6.37334C12.2 6.66789 11.9612 6.90667 11.6667 6.90667H10.04C9.74546 6.90667 9.50668 6.66789 9.50668 6.37334C9.50668 6.07878 9.74546 5.84 10.04 5.84H10.499C10.4699 5.8143 10.4399 5.78852 10.409 5.76273C9.8648 5.30834 9.06491 4.86667 8.00001 4.86667ZM11.6667 7.46667C11.9612 7.46667 12.2 7.70545 12.2 8C12.2 10.3212 10.3212 12.2 8.00001 12.2C6.81563 12.2 5.88592 11.6116 5.27334 11.0613V11.46C5.27334 11.7546 5.03455 11.9933 4.74 11.9933C4.44545 11.9933 4.20667 11.7546 4.20667 11.46V9.62667C4.20667 9.33212 4.44545 9.09334 4.74 9.09334H6.39334C6.6879 9.09334 6.92668 9.33212 6.92668 9.62667C6.92668 9.92122 6.6879 10.16 6.39334 10.16H5.87034C5.90206 10.1905 5.9348 10.2212 5.96853 10.2518C6.47965 10.7159 7.1719 11.1333 8.00001 11.1333C9.73212 11.1333 11.1333 9.73212 11.1333 8C11.1333 7.70545 11.3721 7.46667 11.6667 7.46667Z" fill="currentColor"/>
</g>
<defs>
<clipPath id="clip0_2_5119">
<rect width="16" height="16" fill="currentColor"/>
</clipPath>
</defs>
</svg>
