<svg width="16" height="16" viewBox="0 0 16 16" fill="none" xmlns="http://www.w3.org/2000/svg">
<g clip-path="url(#clip0_2_4667)">
<path d="M8.00001 15.1667C4.04668 15.1667 0.833344 11.9533 0.833344 8C0.833344 4.04667 4.04668 0.833336 8.00001 0.833336C11.9533 0.833336 15.1667 4.04667 15.1667 8C15.1667 11.9533 11.9533 15.1667 8.00001 15.1667ZM8.00001 1.83334C4.60001 1.83334 1.83334 4.6 1.83334 8C1.83334 11.4 4.60001 14.1667 8.00001 14.1667C11.4 14.1667 14.1667 11.4 14.1667 8C14.1667 4.6 11.4 1.83334 8.00001 1.83334Z" fill="currentColor"/>
<path d="M7.99968 11.6467C7.06634 11.6467 6.13298 11.2934 5.41965 10.5801C5.23298 10.3934 5.06631 10.1867 4.91298 9.94007C4.76631 9.70674 4.83964 9.40007 5.07297 9.2534C5.3063 9.10674 5.61299 9.18007 5.75966 9.4134C5.87299 9.60007 5.99298 9.74674 6.12631 9.88007C7.15968 10.9134 8.83961 10.9134 9.87294 9.88007C10.2729 9.48007 10.5263 8.96007 10.613 8.38007C10.653 8.10674 10.9063 7.90674 11.1796 7.9534C11.4529 7.9934 11.6397 8.24674 11.6063 8.52007C11.493 9.3134 11.1397 10.0267 10.5863 10.5867C9.86634 11.2934 8.93301 11.6467 7.99968 11.6467Z" fill="currentColor"/>
<path d="M4.89328 8.05334C4.86661 8.05334 4.84662 8.05334 4.81995 8.04667C4.54662 8.00667 4.35328 7.75327 4.39328 7.47994C4.50661 6.6866 4.85994 5.97331 5.41328 5.41331C6.83328 3.99331 9.14661 3.99331 10.5733 5.41331C10.7599 5.59998 10.9266 5.80666 11.0799 6.06C11.2266 6.29333 11.1533 6.59998 10.9199 6.74667C10.6866 6.89334 10.3799 6.82 10.2333 6.58665C10.1199 6.40665 9.99994 6.25331 9.86661 6.11998C8.83328 5.08664 7.15328 5.08664 6.11994 6.11998C5.71994 6.51998 5.46662 7.04 5.37995 7.62C5.35328 7.87334 5.13994 8.05334 4.89328 8.05334Z" fill="currentColor"/>
<path d="M5.21355 11.9533C4.94022 11.9533 4.71355 11.7267 4.71355 11.4533V9.67334C4.71355 9.4 4.94022 9.17334 5.21355 9.17334H6.99354C7.26688 9.17334 7.49354 9.4 7.49354 9.67334C7.49354 9.94667 7.26688 10.1733 6.99354 10.1733H5.71355V11.4533C5.71355 11.7267 5.49355 11.9533 5.21355 11.9533Z" fill="currentColor"/>
<path d="M10.7865 6.82674H9.00654C8.73321 6.82674 8.50654 6.60004 8.50654 6.3267C8.50654 6.05337 8.73321 5.8267 9.00654 5.8267H10.2865V4.54672C10.2865 4.27338 10.5131 4.04672 10.7865 4.04672C11.0598 4.04672 11.2865 4.27338 11.2865 4.54672V6.3267C11.2865 6.6067 11.0598 6.82674 10.7865 6.82674Z" fill="currentColor"/>
</g>
<defs>
<clipPath id="clip0_2_4667">
<rect width="16" height="16" fill="currentColor"/>
</clipPath>
</defs>
</svg>
