<svg width="16" height="16" viewBox="0 0 16 16" fill="none" xmlns="http://www.w3.org/2000/svg">
<path d="M2.60665 11.4533C2.47998 11.4533 2.35331 11.4066 2.25331 11.3066C1.33998 10.3866 0.833313 9.17326 0.833313 7.8866C0.833313 5.21329 2.99998 3.03994 5.66665 3.03994L9.71331 3.05329L8.98665 2.35993C8.78665 2.1666 8.77998 1.85327 8.97331 1.65327C9.16665 1.45327 9.47998 1.44663 9.67998 1.63996L11.3066 3.19994C11.4533 3.33994 11.5 3.55994 11.4266 3.74661C11.3533 3.93328 11.1666 4.05997 10.96 4.05997L5.65999 4.04662C3.54665 4.04662 1.82665 5.7733 1.82665 7.89333C1.82665 8.91333 2.22664 9.87993 2.95331 10.6066C3.14664 10.7999 3.14664 11.1199 2.95331 11.3133C2.85997 11.4066 2.73331 11.4533 2.60665 11.4533Z" fill="currentColor"/>
<path d="M6.66658 14.5C6.53991 14.5 6.41991 14.4533 6.31991 14.3599L4.69325 12.8C4.54658 12.66 4.49991 12.44 4.57325 12.2533C4.64658 12.0667 4.83325 11.9399 5.03991 11.9399L10.3399 11.9533C12.4532 11.9533 14.1732 10.2266 14.1732 8.1066C14.1732 7.0866 13.7732 6.12 13.0466 5.39333C12.8532 5.2 12.8532 4.88 13.0466 4.68667C13.2399 4.49333 13.5599 4.49333 13.7532 4.68667C14.6666 5.60667 15.1732 6.81993 15.1732 8.1066C15.1732 10.7799 13.0066 12.9533 10.3399 12.9533L6.29325 12.9399L7.01991 13.6333C7.21991 13.8267 7.22658 14.14 7.03325 14.34C6.92658 14.4467 6.79991 14.5 6.66658 14.5Z" fill="currentColor"/>
<path d="M9.99998 8.5H5.99998C5.72665 8.5 5.49998 8.27333 5.49998 8C5.49998 7.72667 5.72665 7.5 5.99998 7.5H9.99998C10.2733 7.5 10.5 7.72667 10.5 8C10.5 8.27333 10.2733 8.5 9.99998 8.5Z" fill="currentColor"/>
</svg>
