<svg width="16" height="16" viewBox="0 0 16 16" fill="none" xmlns="http://www.w3.org/2000/svg">
<path d="M13.6134 8.14653C13.3401 8.14653 13.1134 7.91987 13.1134 7.64653V5.43327C13.1134 4.6066 12.4401 3.93327 11.6134 3.93327H2.38672C2.11339 3.93327 1.88672 3.7066 1.88672 3.43327C1.88672 3.15993 2.11339 2.93327 2.38672 2.93327H11.6134C12.9934 2.93327 14.1134 4.05327 14.1134 5.43327V7.64653C14.1134 7.92653 13.8867 8.14653 13.6134 8.14653Z" fill="currentColor"/>
<path d="M4.49339 6.04665C4.36672 6.04665 4.24005 5.99997 4.14005 5.89997L2.03339 3.79331C1.94005 3.69998 1.88672 3.57329 1.88672 3.43996C1.88672 3.30663 1.94005 3.17999 2.03339 3.08665L4.14005 0.979961C4.33339 0.786628 4.65339 0.786628 4.84672 0.979961C5.04005 1.17329 5.04005 1.49333 4.84672 1.68667L3.09341 3.43996L4.84672 5.1933C5.04005 5.38663 5.04005 5.70663 4.84672 5.89997C4.74672 5.9933 4.62005 6.04665 4.49339 6.04665Z" fill="currentColor"/>
<path d="M13.6134 13.06H4.38672C3.00672 13.06 1.88672 11.94 1.88672 10.56V8.34667C1.88672 8.07333 2.11339 7.84667 2.38672 7.84667C2.66005 7.84667 2.88672 8.07333 2.88672 8.34667V10.56C2.88672 11.3867 3.56005 12.06 4.38672 12.06H13.6134C13.8867 12.06 14.1134 12.2867 14.1134 12.56C14.1134 12.8333 13.8867 13.06 13.6134 13.06Z" fill="currentColor"/>
<path d="M11.5061 15.1667C11.3795 15.1667 11.2528 15.1201 11.1528 15.0201C10.9595 14.8267 10.9595 14.5067 11.1528 14.3134L12.9061 12.5601L11.1528 10.8067C10.9595 10.6134 10.9595 10.2934 11.1528 10.1001C11.3461 9.90673 11.6661 9.90673 11.8595 10.1001L13.9661 12.2067C14.0595 12.3001 14.1134 12.4267 14.1134 12.56C14.1134 12.6933 14.0595 12.8201 13.9661 12.9134L11.8595 15.0201C11.7661 15.1201 11.6395 15.1667 11.5061 15.1667Z" fill="currentColor"/>
</svg>
