<svg width="16" height="16" viewBox="0 0 16 16" fill="none" xmlns="http://www.w3.org/2000/svg">
<g clip-path="url(#clip0_2_4665)">
<path d="M11 8.3134C10.7266 8.3134 10.5 8.08674 10.5 7.8134V6.63342C10.5 6.32009 10.2466 6.06674 9.93331 6.06674H4.99998C4.72665 6.06674 4.49998 5.84007 4.49998 5.56674C4.49998 5.2934 4.72665 5.06674 4.99998 5.06674H9.93331C10.8 5.06674 11.5 5.77342 11.5 6.63342V7.8134C11.5 8.08674 11.2733 8.3134 11 8.3134Z" fill="currentColor"/>
<path d="M6.12628 7.1866C5.99961 7.1866 5.87295 7.13987 5.77295 7.03987L4.64628 5.91323C4.45295 5.7199 4.45295 5.3999 4.64628 5.20657L5.77295 4.0799C5.96629 3.88656 6.28628 3.88656 6.47961 4.0799C6.67298 4.27323 6.67298 4.59323 6.47961 4.78656L5.70628 5.55992L6.47961 6.33324C6.67298 6.52657 6.67298 6.84654 6.47961 7.03987C6.37961 7.13987 6.25295 7.1866 6.12628 7.1866Z" fill="currentColor"/>
<path d="M11 10.94H6.06665C5.19999 10.94 4.49998 10.2334 4.49998 9.3734V8.19334C4.49998 7.92 4.72665 7.69334 4.99998 7.69334C5.27331 7.69334 5.49998 7.92 5.49998 8.19334V9.3734C5.49998 9.68674 5.75332 9.94 6.06665 9.94H11C11.2733 9.94 11.5 10.1667 11.5 10.44C11.5 10.7133 11.2733 10.94 11 10.94Z" fill="currentColor"/>
<path d="M9.87331 12.0599C9.74665 12.0599 9.61998 12.0133 9.51998 11.9133C9.32665 11.7199 9.32665 11.3999 9.51998 11.2066L10.2933 10.4333L9.51998 9.65993C9.32665 9.4666 9.32665 9.1466 9.51998 8.95327C9.71331 8.75994 10.0333 8.75994 10.2266 8.95327L11.3533 10.0799C11.5466 10.2733 11.5466 10.5933 11.3533 10.7866L10.2266 11.9133C10.1333 12.0133 9.99998 12.0599 9.87331 12.0599Z" fill="currentColor"/>
<path d="M7.99998 15.1667C4.04665 15.1667 0.833313 11.9533 0.833313 8C0.833313 4.04667 4.04665 0.833336 7.99998 0.833336C11.9533 0.833336 15.1666 4.04667 15.1666 8C15.1666 11.9533 11.9533 15.1667 7.99998 15.1667ZM7.99998 1.83334C4.59998 1.83334 1.83331 4.6 1.83331 8C1.83331 11.4 4.59998 14.1667 7.99998 14.1667C11.4 14.1667 14.1666 11.4 14.1666 8C14.1666 4.6 11.4 1.83334 7.99998 1.83334Z" fill="currentColor"/>
</g>
<defs>
<clipPath id="clip0_2_4665">
<rect width="16" height="16" fill="currentColor"/>
</clipPath>
</defs>
</svg>
