<svg width="16" height="16" viewBox="0 0 16 16" fill="none" xmlns="http://www.w3.org/2000/svg">
<g clip-path="url(#clip0_2_4664)">
<path d="M12.6471 15.1667H3.31378C0.813782 15.1667 0.813782 13.78 0.813782 12.6667V12C0.813782 11.36 1.34045 10.8333 1.98045 10.8333H13.9804C14.6204 10.8333 15.1471 11.36 15.1471 12V12.6667C15.1471 13.78 15.1471 15.1667 12.6471 15.1667ZM1.98045 11.8333C1.88712 11.8333 1.81378 11.9067 1.81378 12V12.6667C1.81378 13.76 1.81378 14.1667 3.31378 14.1667H12.6471C14.1471 14.1667 14.1471 13.76 14.1471 12.6667V12C14.1471 11.9067 14.0738 11.8333 13.9804 11.8333H1.98045Z" fill="currentColor"/>
<path d="M13.813 11.8333H2.17967C1.90633 11.8333 1.67967 11.6067 1.67967 11.3333V8.66667C1.67967 5.93334 3.61967 3.53334 6.28633 2.96667C6.67965 2.88 7.09298 2.83334 7.51298 2.83334H8.47965C8.90631 2.83334 9.31965 2.88 9.71298 2.96667C12.3796 3.54 14.313 5.94 14.313 8.66667V11.3333C14.313 11.6067 14.093 11.8333 13.813 11.8333ZM2.67967 10.8333H13.313V8.66667C13.313 6.40667 11.713 4.42 9.49965 3.94C9.17298 3.86667 8.83298 3.83334 8.47965 3.83334H7.51298C7.16631 3.83334 6.82631 3.86667 6.49967 3.94C4.28633 4.41334 2.67967 6.4 2.67967 8.66667V10.8333Z" fill="currentColor"/>
<path d="M6.39331 3.95334C6.17331 3.95334 5.97331 3.80667 5.91331 3.58667C5.85998 3.39334 5.83331 3.2 5.83331 3C5.83331 1.80667 6.80665 0.833336 7.99998 0.833336C9.19331 0.833336 10.1666 1.80667 10.1666 3C10.1666 3.2 10.14 3.39334 10.0866 3.58667C10.02 3.84 9.76631 4 9.49965 3.94C9.17298 3.86667 8.83298 3.83334 8.47965 3.83334H7.51298C7.16631 3.83334 6.82631 3.86667 6.49967 3.94C6.46633 3.94667 6.43331 3.95334 6.39331 3.95334ZM7.51298 2.83334H8.47965C8.70631 2.83334 8.93998 2.84667 9.15998 2.87334C9.09998 2.28667 8.59998 1.83334 7.99998 1.83334C7.39998 1.83334 6.90665 2.28667 6.83998 2.87334C7.06665 2.84667 7.28631 2.83334 7.51298 2.83334Z" fill="currentColor"/>
<path d="M9.99998 7.83334H5.99998C5.72665 7.83334 5.49998 7.60667 5.49998 7.33334C5.49998 7.06 5.72665 6.83334 5.99998 6.83334H9.99998C10.2733 6.83334 10.5 7.06 10.5 7.33334C10.5 7.60667 10.2733 7.83334 9.99998 7.83334Z" fill="currentColor"/>
</g>
<defs>
<clipPath id="clip0_2_4664">
<rect width="16" height="16" fill="currentColor"/>
</clipPath>
</defs>
</svg>
