<svg width="16" height="16" viewBox="0 0 16 16" fill="none" xmlns="http://www.w3.org/2000/svg">
<g clip-path="url(#clip0_2_5081)">
<path d="M7.83331 15.1667H4.83331C2.06665 15.1667 0.833313 13.9333 0.833313 11.1667V8.16667C0.833313 5.4 2.06665 4.16667 4.83331 4.16667H7.83331C10.6 4.16667 11.8333 5.4 11.8333 8.16667V11.1667C11.8333 13.9333 10.6 15.1667 7.83331 15.1667ZM4.83331 5.16667C2.61998 5.16667 1.83331 5.95334 1.83331 8.16667V11.1667C1.83331 13.38 2.61998 14.1667 4.83331 14.1667H7.83331C10.0466 14.1667 10.8333 13.38 10.8333 11.1667V8.16667C10.8333 5.95334 10.0466 5.16667 7.83331 5.16667H4.83331Z" fill="currentColor"/>
<path d="M14.6669 6.5C14.3936 6.5 14.1669 6.27334 14.1669 6C14.1669 4.02667 12.7936 2.37334 10.9469 1.94L11.1269 2.24C11.2669 2.48 11.1936 2.78667 10.9536 2.92667C10.7136 3.06667 10.4069 2.99334 10.2669 2.75334L9.56691 1.58667C9.47358 1.43334 9.47358 1.24 9.56025 1.08667C9.65358 0.933336 9.82025 0.833336 10.0002 0.833336C12.8469 0.833336 15.1669 3.15334 15.1669 6C15.1669 6.27334 14.9402 6.5 14.6669 6.5Z" fill="currentColor"/>
</g>
<defs>
<clipPath id="clip0_2_5081">
<rect width="16" height="16" fill="currentColor"/>
</clipPath>
</defs>
</svg>
