<svg width="16" height="16" viewBox="0 0 16 16" fill="none" xmlns="http://www.w3.org/2000/svg">
<path d="M8.00005 15.1667C4.53337 15.1667 1.72003 12.3467 1.72003 8.88673C1.72003 7.64006 2.0867 6.43342 2.78003 5.39342C2.93337 5.16676 3.2467 5.10009 3.47337 5.25342C3.70003 5.40676 3.7667 5.72009 3.61337 5.94676C3.03337 6.8134 2.7267 7.8334 2.7267 8.88006C2.7267 11.7934 5.09337 14.1601 8.00671 14.1601C10.92 14.1601 13.2867 11.7934 13.2867 8.88006C13.2867 5.96676 10.9134 3.60009 8.00005 3.60009C7.38671 3.60009 6.78671 3.68676 6.22003 3.86009C5.95337 3.94009 5.67337 3.79342 5.59337 3.52676C5.51337 3.26009 5.66003 2.98009 5.9267 2.90009C6.59337 2.70009 7.28671 2.59342 8.00005 2.59342C11.4667 2.59342 14.28 5.41342 14.28 8.8734C14.28 12.3334 11.4667 15.1667 8.00005 15.1667Z" fill="currentColor"/>
<path d="M5.24689 4.04674C5.13355 4.04674 5.01355 4.00674 4.92022 3.92674C4.70689 3.74008 4.68689 3.42674 4.86689 3.22008L6.79358 1.00674C6.97358 0.800078 7.29358 0.773411 7.50025 0.960078C7.70691 1.14008 7.72691 1.46008 7.54691 1.66674L5.62022 3.87341C5.52022 3.98674 5.38022 4.04674 5.24689 4.04674Z" fill="currentColor"/>
<path d="M7.49305 5.68675C7.39305 5.68675 7.28638 5.65342 7.19971 5.59342L4.94637 3.94675C4.72637 3.78675 4.67971 3.47342 4.83971 3.25342C4.99971 3.02675 5.31304 2.98008 5.53971 3.14008L7.78638 4.78008C8.00638 4.94008 8.05971 5.25342 7.89304 5.48008C7.79971 5.62008 7.64638 5.68675 7.49305 5.68675Z" fill="currentColor"/>
</svg>
