<svg width="16" height="16" viewBox="0 0 16 16" fill="none" xmlns="http://www.w3.org/2000/svg">
<path d="M8.00005 15.1666C4.53337 15.1666 1.72003 12.3466 1.72003 8.8866C1.72003 5.4266 4.53337 2.59993 8.00005 2.59993C8.71338 2.59993 9.40671 2.69993 10.0734 2.9066C10.34 2.9866 10.4867 3.2666 10.4067 3.53326C10.3267 3.79993 10.0467 3.9466 9.78005 3.8666C9.21338 3.69326 8.61338 3.59993 8.00005 3.59993C5.0867 3.59993 2.72003 5.9666 2.72003 8.87993C2.72003 11.7933 5.0867 14.1599 8.00005 14.1599C10.9134 14.1599 13.28 11.7933 13.28 8.87993C13.28 7.8266 12.9734 6.81326 12.3934 5.9466C12.24 5.71993 12.3 5.4066 12.5334 5.25326C12.76 5.09993 13.0734 5.15993 13.2267 5.39326C13.92 6.4266 14.2867 7.63326 14.2867 8.8866C14.28 12.3466 11.4667 15.1666 8.00005 15.1666Z" fill="currentColor"/>
<path d="M10.7536 4.0468C10.6136 4.0468 10.4736 3.9868 10.3736 3.87347L8.44691 1.66014C8.26691 1.45347 8.28691 1.13347 8.49358 0.95347C8.70025 0.77347 9.02025 0.79347 9.20024 1.00014L11.1269 3.21347C11.3069 3.42014 11.2869 3.74014 11.0802 3.92014C10.9936 4.0068 10.8736 4.0468 10.7536 4.0468Z" fill="currentColor"/>
<path d="M8.50678 5.6868C8.35345 5.6868 8.20011 5.61346 8.10011 5.48013C7.94011 5.26013 7.98678 4.9468 8.20678 4.78013L10.4534 3.14013C10.6734 2.97346 10.9868 3.0268 11.1534 3.2468C11.3201 3.4668 11.2668 3.78013 11.0468 3.9468L8.80011 5.59346C8.71345 5.66013 8.61344 5.6868 8.50678 5.6868Z" fill="currentColor"/>
</svg>
