<svg width="16" height="16" viewBox="0 0 16 16" fill="none" xmlns="http://www.w3.org/2000/svg">
<g clip-path="url(#clip0_2_5196)">
<path d="M11.1666 15.1667H8.16665C5.39998 15.1667 4.16665 13.9333 4.16665 11.1667V8.16667C4.16665 5.4 5.39998 4.16667 8.16665 4.16667H11.1666C13.9333 4.16667 15.1666 5.4 15.1666 8.16667V11.1667C15.1666 13.9333 13.9333 15.1667 11.1666 15.1667ZM8.16665 5.16667C5.95331 5.16667 5.16665 5.95334 5.16665 8.16667V11.1667C5.16665 13.38 5.95331 14.1667 8.16665 14.1667H11.1666C13.38 14.1667 14.1666 13.38 14.1666 11.1667V8.16667C14.1666 5.95334 13.38 5.16667 11.1666 5.16667H8.16665Z" fill="currentColor"/>
<path d="M1.33331 6.5C1.05998 6.5 0.833313 6.27334 0.833313 6C0.833313 3.15334 3.15331 0.833336 5.99998 0.833336C6.17998 0.833336 6.34665 0.933336 6.43331 1.08667C6.51998 1.24 6.51998 1.43334 6.42665 1.58667L5.72665 2.76C5.58665 2.99334 5.27998 3.07334 5.03998 2.92667C4.80665 2.78667 4.72665 2.48 4.87331 2.24L5.05331 1.94C3.20665 2.37334 1.83331 4.02667 1.83331 6C1.83331 6.27334 1.60665 6.5 1.33331 6.5Z" fill="currentColor"/>
</g>
<defs>
<clipPath id="clip0_2_5196">
<rect width="16" height="16" fill="currentColor"/>
</clipPath>
</defs>
</svg>
