<svg width="16" height="16" viewBox="0 0 16 16" fill="none" xmlns="http://www.w3.org/2000/svg">
<g clip-path="url(#clip0_2_4662)">
<path d="M8.78711 12.4666C8.00711 12.4666 7.34711 11.9866 7.10045 11.2466L6.63379 9.8666C6.56046 9.6266 6.37379 9.4466 6.14713 9.37327L4.76046 8.9066C4.01379 8.65327 3.53379 7.97994 3.54713 7.19327C3.56046 6.40662 4.05379 5.74663 4.80713 5.5133L9.82711 3.95328C10.4604 3.75995 11.1471 3.92663 11.6138 4.39996C12.0804 4.8733 12.2471 5.55329 12.0538 6.18662L10.4938 11.2133C10.2604 11.9666 9.60045 12.4599 8.80711 12.4733C8.80045 12.4666 8.79378 12.4666 8.78711 12.4666ZM10.3471 4.86662C10.2671 4.86662 10.1938 4.87996 10.1138 4.89996L5.08713 6.46662C4.68046 6.59329 4.53379 6.9266 4.53379 7.2066C4.52713 7.47994 4.66713 7.8266 5.06713 7.95994L6.45379 8.41994C6.98711 8.59327 7.40711 9.01327 7.58045 9.55327L8.04045 10.9266C8.17378 11.3266 8.48711 11.4533 8.79378 11.4666C9.06711 11.4666 9.40711 11.3199 9.53378 10.9133L11.0938 5.88662C11.1804 5.60662 11.1071 5.31329 10.9004 5.10662C10.7471 4.94662 10.5538 4.86662 10.3471 4.86662Z" fill="currentColor"/>
<path d="M9.99998 15.1667H5.99998C2.37998 15.1667 0.833313 13.62 0.833313 10V6C0.833313 2.38 2.37998 0.833336 5.99998 0.833336H9.99998C13.62 0.833336 15.1666 2.38 15.1666 6V10C15.1666 13.62 13.62 15.1667 9.99998 15.1667ZM5.99998 1.83334C2.92665 1.83334 1.83331 2.92667 1.83331 6V10C1.83331 13.0733 2.92665 14.1667 5.99998 14.1667H9.99998C13.0733 14.1667 14.1666 13.0733 14.1666 10V6C14.1666 2.92667 13.0733 1.83334 9.99998 1.83334H5.99998Z" fill="currentColor"/>
</g>
<defs>
<clipPath id="clip0_2_4662">
<rect width="16" height="16" fill="currentColor"/>
</clipPath>
</defs>
</svg>
