<svg width="16" height="16" viewBox="0 0 16 16" fill="none" xmlns="http://www.w3.org/2000/svg">
<g clip-path="url(#clip0_2_4661)">
<path d="M3.64643 7.16667C3.17309 7.16667 2.69309 6.99334 2.32642 6.64C1.09976 5.47334 0.606423 4.2 0.893092 2.95334C1.23309 1.48667 2.51976 0.833336 3.64643 0.833336C4.77309 0.833336 6.06643 1.49334 6.39976 2.95334C6.68645 4.2 6.18643 5.47334 4.96642 6.64C4.59976 6.99334 4.12642 7.16667 3.64643 7.16667ZM1.86642 3.18C1.61309 4.29334 2.35309 5.28 3.01976 5.91334C3.37309 6.25334 3.92643 6.24667 4.27976 5.91334C4.94643 5.28 5.68643 4.29334 5.42643 3.17334C5.19976 2.18667 4.32643 1.83334 3.65309 1.83334C2.97309 1.83334 2.09976 2.18667 1.86642 3.18Z" fill="currentColor"/>
<path d="M3.67316 4.13347C3.30649 4.13347 3.00649 3.83347 3.00649 3.4668C3.00649 3.10014 3.29982 2.80014 3.67316 2.80014H3.67983C4.04649 2.80014 4.34649 3.10014 4.34649 3.4668C4.34649 3.83347 4.04649 4.13347 3.67316 4.13347Z" fill="currentColor"/>
<path d="M12.3262 15.1668C11.8529 15.1668 11.3729 14.9935 10.9996 14.6401C9.76624 13.4735 9.26624 12.2001 9.55958 10.9468C9.89958 9.4868 11.1929 8.8268 12.3262 8.8268C13.4596 8.8268 14.7529 9.4868 15.0929 10.9468C15.3796 12.1935 14.8796 13.4735 13.6462 14.6335C13.2796 14.9935 12.8062 15.1668 12.3262 15.1668ZM12.3262 9.83347C11.6462 9.83347 10.7662 10.1868 10.5329 11.1801C10.2729 12.2935 11.0196 13.2868 11.6862 13.9201C12.0396 14.2601 12.5996 14.2601 12.9596 13.9201C13.6262 13.2868 14.3729 12.3001 14.1129 11.1868C13.8929 10.1868 13.0129 9.83347 12.3262 9.83347Z" fill="currentColor"/>
<path d="M12.3528 12.1335C11.9862 12.1335 11.6862 11.8335 11.6862 11.4668C11.6862 11.1001 11.9795 10.8001 12.3528 10.8001H12.3595C12.7262 10.8001 13.0262 11.1001 13.0262 11.4668C13.0262 11.8335 12.7195 12.1335 12.3528 12.1335Z" fill="currentColor"/>
<path d="M7.99965 13.1667H6.21295C5.43961 13.1667 4.76628 12.7 4.49961 11.98C4.22628 11.26 4.42628 10.4667 5.00628 9.95334L10.333 5.29334C10.653 5.01334 10.6596 4.63334 10.5663 4.37334C10.4663 4.11334 10.213 3.83334 9.78631 3.83334H7.99965C7.72631 3.83334 7.49965 3.60667 7.49965 3.33334C7.49965 3.06 7.72631 2.83334 7.99965 2.83334H9.78631C10.5596 2.83334 11.233 3.3 11.4996 4.02C11.773 4.74 11.573 5.53334 10.993 6.04667L5.66628 10.7067C5.34628 10.9867 5.33961 11.3667 5.43295 11.6267C5.53295 11.8867 5.78628 12.1667 6.21295 12.1667H7.99965C8.27298 12.1667 8.49965 12.3933 8.49965 12.6667C8.49965 12.94 8.27298 13.1667 7.99965 13.1667Z" fill="currentColor"/>
</g>
<defs>
<clipPath id="clip0_2_4661">
<rect width="16" height="16" fill="currentColor"/>
</clipPath>
</defs>
</svg>
