<svg width="16" height="16" viewBox="0 0 16 16" fill="none" xmlns="http://www.w3.org/2000/svg">
<g clip-path="url(#clip0_2_5144)">
<path d="M3.67316 4.33334C3.30649 4.33334 3.00649 4.03334 3.00649 3.66667C3.00649 3.3 3.29983 3 3.67316 3H3.67983C4.0465 3 4.3465 3.3 4.3465 3.66667C4.3465 4.03334 4.04649 4.33334 3.67316 4.33334Z" fill="currentColor"/>
<path d="M12.3398 13C11.9732 13 11.6732 12.7 11.6732 12.3333C11.6732 11.9667 11.9665 11.6667 12.3398 11.6667H12.3465C12.7132 11.6667 13.0132 11.9667 13.0132 12.3333C13.0132 12.7 12.7132 13 12.3398 13Z" fill="currentColor"/>
<path d="M3.64711 6.5C2.08712 6.5 0.813782 5.22667 0.813782 3.66667C0.813782 2.10667 2.08712 0.833336 3.64711 0.833336C5.20711 0.833336 6.48045 2.10667 6.48045 3.66667C6.48045 5.22667 5.21378 6.5 3.64711 6.5ZM3.64711 1.83334C2.63378 1.83334 1.81378 2.65334 1.81378 3.66667C1.81378 4.68 2.63378 5.5 3.64711 5.5C4.66045 5.5 5.48045 4.68 5.48045 3.66667C5.48045 2.65334 4.66045 1.83334 3.64711 1.83334Z" fill="currentColor"/>
<path d="M13.3138 15.1667H11.3138C10.3004 15.1667 9.48045 14.3467 9.48045 13.3333V11.3333C9.48045 10.32 10.3004 9.5 11.3138 9.5H13.3138C14.3271 9.5 15.1471 10.32 15.1471 11.3333V13.3333C15.1471 14.3467 14.3271 15.1667 13.3138 15.1667ZM11.3138 10.5C10.8538 10.5 10.4804 10.8733 10.4804 11.3333V13.3333C10.4804 13.7933 10.8538 14.1667 11.3138 14.1667H13.3138C13.7738 14.1667 14.1471 13.7933 14.1471 13.3333V11.3333C14.1471 10.8733 13.7738 10.5 13.3138 10.5H11.3138Z" fill="currentColor"/>
<path d="M7.99965 13.1667H6.21295C5.43961 13.1667 4.76628 12.7 4.49961 11.98C4.22628 11.26 4.42628 10.4667 5.00628 9.95334L10.333 5.29334C10.653 5.01334 10.6596 4.63334 10.5663 4.37334C10.4663 4.11334 10.213 3.83334 9.78631 3.83334H7.99965C7.72631 3.83334 7.49965 3.60667 7.49965 3.33334C7.49965 3.06 7.72631 2.83334 7.99965 2.83334H9.78631C10.5596 2.83334 11.233 3.3 11.4996 4.02C11.773 4.74 11.573 5.53334 10.993 6.04667L5.66628 10.7067C5.34628 10.9867 5.33961 11.3667 5.43295 11.6267C5.53295 11.8867 5.78628 12.1667 6.21295 12.1667H7.99965C8.27298 12.1667 8.49965 12.3933 8.49965 12.6667C8.49965 12.94 8.27298 13.1667 7.99965 13.1667Z" fill="currentColor"/>
</g>
<defs>
<clipPath id="clip0_2_5144">
<rect width="16" height="16" fill="currentColor"/>
</clipPath>
</defs>
</svg>
