<svg width="16" height="16" viewBox="0 0 16 16" fill="none" xmlns="http://www.w3.org/2000/svg">
<g clip-path="url(#clip0_2_4659)">
<path d="M13.2666 15.1667H2.73331C1.45331 15.1667 0.833313 14.5133 0.833313 13.18V10.4867C0.833313 9.14667 1.45331 8.5 2.73331 8.5H13.2666C14.5466 8.5 15.1666 9.15333 15.1666 10.4867V13.18C15.1666 14.5133 14.5466 15.1667 13.2666 15.1667ZM2.73331 9.5C2.05998 9.5 1.83331 9.64 1.83331 10.4867V13.18C1.83331 14.0267 2.05998 14.1667 2.73331 14.1667H13.2666C13.94 14.1667 14.1666 14.0267 14.1666 13.18V10.4867C14.1666 9.64 13.94 9.5 13.2666 9.5H2.73331Z" fill="currentColor"/>
<path d="M13.2666 7.5H2.73331C1.45331 7.5 0.833313 6.84667 0.833313 5.51334V2.82C0.833313 1.48 1.45331 0.833336 2.73331 0.833336H13.2666C14.5466 0.833336 15.1666 1.48667 15.1666 2.82V5.51334C15.1666 6.84667 14.5466 7.5 13.2666 7.5ZM2.73331 1.83334C2.05998 1.83334 1.83331 1.97334 1.83331 2.82V5.51334C1.83331 6.36 2.05998 6.5 2.73331 6.5H13.2666C13.94 6.5 14.1666 6.36 14.1666 5.51334V2.82C14.1666 1.97334 13.94 1.83334 13.2666 1.83334H2.73331Z" fill="currentColor"/>
</g>
<defs>
<clipPath id="clip0_2_4659">
<rect width="16" height="16" fill="currentColor"/>
</clipPath>
</defs>
</svg>
