<svg width="16" height="16" viewBox="0 0 16 16" fill="none" xmlns="http://www.w3.org/2000/svg">
<g clip-path="url(#clip0_2_4660)">
<path d="M5.51331 15.1667H2.81998C1.47998 15.1667 0.833313 14.5467 0.833313 13.2667V2.73334C0.833313 1.45334 1.48665 0.833336 2.81998 0.833336H5.51331C6.85331 0.833336 7.49998 1.45334 7.49998 2.73334V13.2667C7.49998 14.5467 6.84665 15.1667 5.51331 15.1667ZM2.81998 1.83334C1.97331 1.83334 1.83331 2.06 1.83331 2.73334V13.2667C1.83331 13.94 1.97331 14.1667 2.81998 14.1667H5.51331C6.35998 14.1667 6.49998 13.94 6.49998 13.2667V2.73334C6.49998 2.06 6.35998 1.83334 5.51331 1.83334H2.81998Z" fill="currentColor"/>
<path d="M13.18 15.1667H10.4866C9.14665 15.1667 8.49998 14.5467 8.49998 13.2667V2.73334C8.49998 1.45334 9.15331 0.833336 10.4866 0.833336H13.18C14.52 0.833336 15.1666 1.45334 15.1666 2.73334V13.2667C15.1666 14.5467 14.5133 15.1667 13.18 15.1667ZM10.4866 1.83334C9.63998 1.83334 9.49998 2.06 9.49998 2.73334V13.2667C9.49998 13.94 9.63998 14.1667 10.4866 14.1667H13.18C14.0266 14.1667 14.1666 13.94 14.1666 13.2667V2.73334C14.1666 2.06 14.0266 1.83334 13.18 1.83334H10.4866Z" fill="currentColor"/>
</g>
<defs>
<clipPath id="clip0_2_4660">
<rect width="16" height="16" fill="currentColor"/>
</clipPath>
</defs>
</svg>
