<svg width="16" height="16" viewBox="0 0 16 16" fill="none" xmlns="http://www.w3.org/2000/svg">
<path d="M12.6667 11.8333H3.33334C1.72001 11.8333 0.833344 10.9467 0.833344 9.33333V6.66666C0.833344 5.05333 1.72001 4.16666 3.33334 4.16666H12.6667C14.28 4.16666 15.1667 5.05333 15.1667 6.66666V9.33333C15.1667 10.9467 14.28 11.8333 12.6667 11.8333ZM3.33334 5.16666C2.28001 5.16666 1.83334 5.61333 1.83334 6.66666V9.33333C1.83334 10.3867 2.28001 10.8333 3.33334 10.8333H12.6667C13.72 10.8333 14.1667 10.3867 14.1667 9.33333V6.66666C14.1667 5.61333 13.72 5.16666 12.6667 5.16666H3.33334Z" fill="currentColor"/>
<path d="M12 8.5C11.7267 8.5 11.5 8.27333 11.5 8V4.66666C11.5 4.39333 11.7267 4.16666 12 4.16666C12.2733 4.16666 12.5 4.39333 12.5 4.66666V8C12.5 8.27333 12.2733 8.5 12 8.5Z" fill="currentColor"/>
<path d="M4.00001 7.83333C3.72668 7.83333 3.50001 7.60666 3.50001 7.33333V4.66666C3.50001 4.39333 3.72668 4.16666 4.00001 4.16666C4.27334 4.16666 4.50001 4.39333 4.50001 4.66666V7.33333C4.50001 7.60666 4.27334 7.83333 4.00001 7.83333Z" fill="currentColor"/>
<path d="M6.66668 8.5C6.38668 8.5 6.16668 8.27333 6.16668 7.99333L6.20001 4.66C6.20001 4.38666 6.42668 4.16666 6.70001 4.16666C6.70001 4.16666 6.70001 4.16666 6.70668 4.16666C6.98001 4.16666 7.20668 4.39333 7.20001 4.67333L7.16668 8.00666C7.16668 8.28 6.94001 8.5 6.66668 8.5Z" fill="currentColor"/>
<path d="M9.33334 7.16666C9.06001 7.16666 8.83334 6.94 8.83334 6.66666V4.66666C8.83334 4.39333 9.06001 4.16666 9.33334 4.16666C9.60668 4.16666 9.83334 4.39333 9.83334 4.66666V6.66666C9.83334 6.94 9.60668 7.16666 9.33334 7.16666Z" fill="currentColor"/>
</svg>
