<svg width="16" height="16" viewBox="0 0 16 16" fill="none" xmlns="http://www.w3.org/2000/svg">
<path d="M12.3138 15.1667H9.64715C8.03382 15.1667 7.14715 14.28 7.14715 12.6667V3.33334C7.14715 1.72 8.03382 0.833336 9.64715 0.833336H12.3138C13.9271 0.833336 14.8138 1.72 14.8138 3.33334V12.6667C14.8138 14.28 13.9205 15.1667 12.3138 15.1667ZM9.64715 1.83334C8.59382 1.83334 8.14715 2.28 8.14715 3.33334V12.6667C8.14715 13.72 8.59382 14.1667 9.64715 14.1667H12.3138C13.3672 14.1667 13.8138 13.72 13.8138 12.6667V3.33334C13.8138 2.28 13.3672 1.83334 12.3138 1.83334H9.64715Z" fill="currentColor"/>
<path d="M10.9805 4.5H7.64715C7.37382 4.5 7.14715 4.27334 7.14715 4C7.14715 3.72667 7.37382 3.5 7.64715 3.5H10.9805C11.2538 3.5 11.4805 3.72667 11.4805 4C11.4805 4.27334 11.2538 4.5 10.9805 4.5Z" fill="currentColor"/>
<path d="M10.3138 12.5H7.64715C7.37382 12.5 7.14715 12.2733 7.14715 12C7.14715 11.7267 7.37382 11.5 7.64715 11.5H10.3138C10.5872 11.5 10.8138 11.7267 10.8138 12C10.8138 12.2733 10.5872 12.5 10.3138 12.5Z" fill="currentColor"/>
<path d="M10.9806 9.83347C10.974 9.83347 10.974 9.83347 10.9806 9.83347L7.64062 9.80014C7.36728 9.80014 7.14062 9.57347 7.14728 9.29347C7.14728 9.02013 7.37395 8.80014 7.64728 8.80014C7.64728 8.80014 7.64728 8.80014 7.65395 8.80014L10.9873 8.83347C11.2606 8.83347 11.4873 9.06013 11.4806 9.34013C11.474 9.61347 11.254 9.83347 10.9806 9.83347Z" fill="currentColor"/>
<path d="M9.64715 7.16667H7.64715C7.37382 7.16667 7.14715 6.94 7.14715 6.66667C7.14715 6.39334 7.37382 6.16667 7.64715 6.16667H9.64715C9.92048 6.16667 10.1472 6.39334 10.1472 6.66667C10.1472 6.94 9.92048 7.16667 9.64715 7.16667Z" fill="currentColor"/>
<path d="M3.65955 15.1467C3.05288 15.1467 2.47955 14.7733 2.08622 14.12L1.53955 13.2133C1.33955 12.88 1.18622 12.3333 1.18622 11.9467V3.3C1.18622 1.94 2.29288 0.833336 3.65288 0.833336C5.01288 0.833336 6.11955 1.94 6.11955 3.3V11.94C6.11955 12.3267 5.96622 12.8733 5.76622 13.2067L5.21955 14.1133C4.83955 14.7733 4.26622 15.1467 3.65955 15.1467ZM3.65955 1.83334C2.85288 1.83334 2.19288 2.49334 2.19288 3.3V11.94C2.19288 12.1467 2.29288 12.5133 2.39955 12.6933L2.94622 13.6C3.15288 13.9467 3.41288 14.14 3.65955 14.14C3.90622 14.14 4.16622 13.94 4.37288 13.6L4.91955 12.6933C5.02622 12.5133 5.12622 12.1467 5.12622 11.94V3.3C5.12622 2.49334 4.46622 1.83334 3.65955 1.83334Z" fill="currentColor"/>
<path d="M5.62622 5.16667H1.68622C1.41288 5.16667 1.18622 4.94 1.18622 4.66667C1.18622 4.39334 1.41288 4.16667 1.68622 4.16667H5.62622C5.89955 4.16667 6.12622 4.39334 6.12622 4.66667C6.12622 4.94 5.89955 5.16667 5.62622 5.16667Z" fill="currentColor"/>
</svg>
