<svg width="16" height="16" viewBox="0 0 16 16" fill="none" xmlns="http://www.w3.org/2000/svg">
<path d="M12.3532 15.8333C12.2532 15.8333 12.1599 15.82 12.0732 15.8C11.1932 15.56 10.3999 15.0333 9.8332 14.3133C9.22653 13.56 8.8932 12.64 8.8932 11.7133V10.2533C8.8932 9.77333 9.2132 9.28666 9.65987 9.1L11.5199 8.34C12.0665 8.12666 12.6599 8.12666 13.1999 8.34L15.0666 9.1C15.5133 9.28666 15.8399 9.77333 15.8399 10.2533V11.7133C15.8399 13.5733 14.5066 15.2933 12.6733 15.8C12.5599 15.82 12.4532 15.8333 12.3532 15.8333ZM12.3599 9.16666C12.1999 9.16666 12.0399 9.19333 11.8865 9.26L10.0399 10.02C9.9732 10.0467 9.8932 10.1733 9.8932 10.2533V11.7133C9.8932 12.4133 10.1466 13.1133 10.6133 13.6933C11.0533 14.2533 11.6599 14.66 12.3199 14.84C12.3399 14.8467 12.3799 14.8467 12.4132 14.8333C13.7799 14.4533 14.8265 13.1133 14.8265 11.7133V10.2533C14.8265 10.1733 14.7466 10.0533 14.6733 10.02L12.8199 9.26C12.6733 9.2 12.5199 9.16666 12.3599 9.16666Z" fill="currentColor"/>
<path d="M10.227 14.5H4.1203C2.9603 14.5 1.89363 13.5999 1.7003 12.4599L0.860313 7.42666C0.720313 6.63333 1.11363 5.61334 1.7403 5.10668L6.12697 1.6C6.987 0.90667 8.33367 0.913344 9.19367 1.60668L13.5803 5.10668C14.2137 5.61334 14.6003 6.63333 14.4603 7.42666L14.1737 9.15333C14.147 9.3 14.0537 9.43333 13.9203 9.50666C13.787 9.58 13.627 9.59333 13.487 9.53333L12.8199 9.26C12.5266 9.14 12.1932 9.14 11.8865 9.26L10.0399 10.02C9.9732 10.0467 9.8932 10.1733 9.8932 10.2533V11.7133C9.8932 12.4133 10.1466 13.1133 10.6133 13.6933C10.7333 13.84 10.7603 14.0466 10.6737 14.2199C10.5937 14.3866 10.4203 14.5 10.227 14.5ZM7.65367 2.07998C7.327 2.07998 6.99367 2.18003 6.75367 2.37336L2.36697 5.87995C2.0203 6.15995 1.77363 6.81333 1.84697 7.25333L2.68697 12.2867C2.80031 12.94 3.45363 13.4933 4.1203 13.4933H9.32033C9.04033 12.9267 8.89367 12.3133 8.89367 11.7V10.24C8.89367 9.76 9.21367 9.27333 9.66033 9.08666L11.5203 8.32666C12.067 8.11333 12.6603 8.11333 13.2003 8.32666L13.2937 8.36666L13.4803 7.26C13.5537 6.82 13.307 6.16662 12.9603 5.88662L8.5736 2.38662C8.32027 2.17996 7.987 2.07998 7.65367 2.07998Z" fill="currentColor"/>
</svg>
