<svg width="16" height="16" viewBox="0 0 16 16" fill="none" xmlns="http://www.w3.org/2000/svg">
<path d="M14 8.5C13.7267 8.5 13.5 8.27333 13.5 8V2.5H8.00001C7.72668 2.5 7.50001 2.27333 7.50001 2C7.50001 1.72667 7.72668 1.5 8.00001 1.5H14C14.2733 1.5 14.5 1.72667 14.5 2V8C14.5 8.27333 14.2733 8.5 14 8.5Z" fill="currentColor"/>
<path d="M1.99967 14.5C1.873 14.5 1.74631 14.4533 1.64631 14.3533C1.45298 14.16 1.45298 13.8399 1.64631 13.6466L13.6463 1.64663C13.8397 1.45329 14.1597 1.45329 14.353 1.64663C14.5463 1.83996 14.5463 2.16 14.353 2.35333L2.35302 14.3533C2.25302 14.4533 2.12633 14.5 1.99967 14.5Z" fill="currentColor"/>
<path d="M11.6001 12.1001C11.4734 12.1001 11.3467 12.0533 11.2467 11.9533L4.04671 4.75336C3.85337 4.56003 3.85337 4.24003 4.04671 4.04669C4.24004 3.85336 4.56004 3.85336 4.75337 4.04669L11.9533 11.2467C12.1467 11.44 12.1467 11.76 11.9533 11.9533C11.8533 12.0533 11.7267 12.1001 11.6001 12.1001Z" fill="currentColor"/>
</svg>
