<svg width="16" height="16" viewBox="0 0 16 16" fill="none" xmlns="http://www.w3.org/2000/svg">
<g clip-path="url(#clip0_2_4827)">
<path d="M9.79346 15.1667C9.50013 15.1667 9.19346 15.0801 8.88013 14.9134L6.26015 13.4534C6.13348 13.3867 5.86015 13.3867 5.73348 13.4534L3.11348 14.9134C2.54681 15.2267 1.97348 15.2534 1.52681 14.9934C1.08681 14.7334 0.826813 14.2134 0.826813 13.5734V6.00008C0.826813 4.58008 1.98015 3.42676 3.40015 3.42676H8.58679C10.0068 3.42676 11.1601 4.58008 11.1601 6.00008V13.5734C11.1601 14.2134 10.9068 14.7334 10.4601 14.9934C10.2668 15.1067 10.0401 15.1667 9.79346 15.1667ZM6.00015 12.4001C6.26681 12.4001 6.52681 12.4601 6.74679 12.5801L9.37346 14.0401C9.61346 14.1734 9.83346 14.2067 9.96679 14.1267C10.0935 14.0534 10.1735 13.8401 10.1735 13.5667V5.9934C10.1735 5.12674 9.46679 4.42008 8.60013 4.42008H3.40681C2.54015 4.42008 1.83348 5.12674 1.83348 5.9934V13.5667C1.83348 13.8401 1.91348 14.0534 2.04015 14.1267C2.16681 14.2001 2.39348 14.1667 2.63348 14.0334L5.25348 12.5734C5.46681 12.4601 5.73348 12.4001 6.00015 12.4001Z" fill="currentColor"/>
<path d="M5.05953 9.44C4.93286 9.44 4.80619 9.39333 4.70619 9.29333C4.51286 9.1 4.51286 8.78 4.70619 8.58666L6.59286 6.7C6.78619 6.50668 7.10619 6.50668 7.29953 6.7C7.49286 6.89333 7.49286 7.21333 7.29953 7.40666L5.41286 9.29333C5.31286 9.39333 5.18619 9.44 5.05953 9.44Z" fill="currentColor"/>
<path d="M6.93966 9.44C6.81299 9.44 6.68633 9.39333 6.58635 9.29333L4.69968 7.40666C4.50635 7.21333 4.50635 6.89333 4.69968 6.7C4.89301 6.50668 5.21301 6.50668 5.40635 6.7L7.29299 8.58666C7.48633 8.78 7.48633 9.1 7.29299 9.29333C7.19966 9.39333 7.07299 9.44 6.93966 9.44Z" fill="currentColor"/>
<path d="M13.7933 12.5799C13.5 12.5799 13.1933 12.4931 12.88 12.3265L10.42 10.9531C10.26 10.8665 10.1667 10.6999 10.1667 10.5199V5.99984C10.1667 5.13317 9.45999 4.42651 8.59333 4.42651H5.33333C5.05999 4.42651 4.83333 4.19984 4.83333 3.92651V3.41316C4.83333 1.99316 5.98666 0.839844 7.40666 0.839844H12.5933C14.0133 0.839844 15.1667 1.99316 15.1667 3.41316V10.9865C15.1667 11.6265 14.9133 12.1465 14.4667 12.4065C14.2667 12.5198 14.04 12.5799 13.7933 12.5799ZM11.1667 10.2198L13.3733 11.4531C13.6133 11.5865 13.8333 11.6199 13.9667 11.5399C14.0933 11.4665 14.1733 11.2532 14.1733 10.9799V3.40649C14.1733 2.53982 13.4667 1.83317 12.6 1.83317H7.41333C6.54666 1.83317 5.83999 2.53982 5.83999 3.40649V3.41984H8.59999C10.02 3.41984 11.1733 4.57316 11.1733 5.99316V10.2198H11.1667Z" fill="currentColor"/>
</g>
<defs>
<clipPath id="clip0_2_4827">
<rect width="16" height="16" fill="currentColor"/>
</clipPath>
</defs>
</svg>
