<svg width="16" height="16" viewBox="0 0 16 16" fill="none" xmlns="http://www.w3.org/2000/svg">
<g clip-path="url(#clip0_2_5166)">
<path d="M9.79334 15.1667C9.50001 15.1667 9.19334 15.0801 8.88001 14.9134L6.26002 13.4534C6.13335 13.3867 5.86 13.3867 5.73333 13.4534L3.12 14.9134C2.55334 15.2267 1.97334 15.2534 1.53334 14.9934C1.08667 14.7334 0.833344 14.2134 0.833344 13.5734V6.00008C0.833344 4.58008 1.98667 3.42676 3.40667 3.42676H8.59334C10.0133 3.42676 11.1667 4.58008 11.1667 6.00008V13.5734C11.1667 14.2134 10.9133 14.7334 10.4667 14.9934C10.2667 15.1067 10.04 15.1667 9.79334 15.1667ZM6.00001 12.4001C6.26668 12.4001 6.52668 12.4601 6.74668 12.5801L9.36668 14.0401C9.60668 14.1734 9.82668 14.2067 9.96001 14.1267C10.0867 14.0534 10.1667 13.8401 10.1667 13.5667V5.9934C10.1667 5.12674 9.46001 4.42008 8.59334 4.42008H3.40667C2.54 4.42008 1.83334 5.12674 1.83334 5.9934V13.5667C1.83334 13.8401 1.91334 14.0534 2.04001 14.1267C2.16668 14.2001 2.39335 14.1667 2.63335 14.0334L5.25334 12.5734C5.46668 12.4601 5.73334 12.4001 6.00001 12.4001Z" fill="currentColor"/>
<path d="M13.7933 12.5799C13.5 12.5799 13.1933 12.4931 12.88 12.3265L10.42 10.9531C10.26 10.8665 10.1667 10.6999 10.1667 10.5199V5.99984C10.1667 5.13317 9.46001 4.42651 8.59334 4.42651H5.33334C5.06001 4.42651 4.83334 4.19984 4.83334 3.92651V3.41316C4.83334 1.99316 5.98667 0.839844 7.40668 0.839844H12.5933C14.0133 0.839844 15.1667 1.99316 15.1667 3.41316V10.9865C15.1667 11.6265 14.9133 12.1465 14.4667 12.4065C14.2667 12.5198 14.04 12.5799 13.7933 12.5799ZM11.1667 10.2198L13.3667 11.4531C13.6067 11.5865 13.8267 11.6199 13.96 11.5399C14.0867 11.4665 14.1667 11.2532 14.1667 10.9799V3.40649C14.1667 2.53982 13.46 1.83317 12.5933 1.83317H7.40668C6.54 1.83317 5.83334 2.53982 5.83334 3.40649V3.41984H8.59334C10.0133 3.41984 11.1667 4.57316 11.1667 5.99316V10.2198Z" fill="currentColor"/>
<path d="M7.33334 8.5H4.66668C4.39334 8.5 4.16668 8.27333 4.16668 8C4.16668 7.72666 4.39334 7.5 4.66668 7.5H7.33334C7.60668 7.5 7.83334 7.72666 7.83334 8C7.83334 8.27333 7.60668 8.5 7.33334 8.5Z" fill="currentColor"/>
</g>
<defs>
<clipPath id="clip0_2_5166">
<rect width="16" height="16" fill="currentColor"/>
</clipPath>
</defs>
</svg>
