<svg width="16" height="16" viewBox="0 0 16 16" fill="none" xmlns="http://www.w3.org/2000/svg">
<g clip-path="url(#clip0_2_4655)">
<path d="M2.20015 15.1667C1.96015 15.1667 1.72681 15.1067 1.52681 14.9867C1.08014 14.7267 0.826813 14.2067 0.826813 13.5601V5.98675C0.826813 4.56675 1.98014 3.41341 3.40014 3.41341H8.58679C10.0068 3.41341 11.1601 4.56675 11.1601 5.98675V13.5601C11.1601 14.2067 10.9068 14.7201 10.4601 14.9867C10.0135 15.2467 9.44013 15.2201 8.87346 14.9067L6.25349 13.4467C6.12683 13.3734 5.86014 13.3734 5.73347 13.4467L3.11348 14.9067C2.80681 15.0801 2.49348 15.1667 2.20015 15.1667ZM3.40681 4.42008C2.54015 4.42008 1.83349 5.12674 1.83349 5.9934V13.5667C1.83349 13.8401 1.91349 14.0534 2.04015 14.1267C2.16682 14.2001 2.3935 14.1667 2.6335 14.0334L5.25349 12.5734C5.68016 12.3401 6.32015 12.3401 6.74679 12.5734L9.36679 14.0334C9.60679 14.1667 9.82679 14.2001 9.96013 14.1267C10.0868 14.0534 10.1668 13.8401 10.1668 13.5667V5.9934C10.1668 5.12674 9.46019 4.42008 8.59353 4.42008H3.40681Z" fill="currentColor"/>
<path d="M9.79333 15.1667C9.49999 15.1667 9.19333 15.0801 8.87999 14.9134L6.26 13.4534C6.13333 13.3867 5.85998 13.3867 5.73331 13.4534L3.11999 14.9134C2.55332 15.2267 1.97332 15.2534 1.53332 14.9934C1.08665 14.7334 0.833326 14.2134 0.833326 13.5734V6.00008C0.833326 4.58008 1.98665 3.42676 3.40665 3.42676H8.59333C10.0133 3.42676 11.1667 4.58008 11.1667 6.00008V13.5734C11.1667 14.2134 10.9133 14.7334 10.4667 14.9934C10.2667 15.1067 10.04 15.1667 9.79333 15.1667ZM5.99999 12.4001C6.26666 12.4001 6.52666 12.4601 6.74666 12.5801L9.36666 14.0401C9.60666 14.1734 9.83346 14.2067 9.96013 14.1267C10.0868 14.0534 10.1668 13.8401 10.1668 13.5667V5.9934C10.1668 5.12674 9.46019 4.42008 8.59353 4.42008H3.40681C2.54015 4.42008 1.83349 5.12674 1.83349 5.9934V13.5667C1.83349 13.8401 1.91349 14.0534 2.04015 14.1267C2.16682 14.2001 2.3935 14.1667 2.6335 14.0334L5.25349 12.5734C5.46683 12.4601 5.73333 12.4001 5.99999 12.4001Z" fill="currentColor"/>
<path d="M13.7933 12.5799C13.5 12.5799 13.1933 12.4931 12.88 12.3265L10.42 10.9531C10.26 10.8665 10.1667 10.6999 10.1667 10.5199V5.99984C10.1667 5.13317 9.45999 4.42651 8.59333 4.42651H5.33333C5.05999 4.42651 4.83333 4.19984 4.83333 3.92651V3.41316C4.83333 1.99316 5.98665 0.839844 7.40666 0.839844H12.5933C14.0133 0.839844 15.1667 1.99316 15.1667 3.41316V10.9865C15.1667 11.6265 14.9133 12.1465 14.4667 12.4065C14.2667 12.5198 14.04 12.5799 13.7933 12.5799ZM11.1667 10.2198L13.3667 11.4531C13.6067 11.5865 13.8267 11.6199 13.96 11.5399C14.0933 11.4599 14.1667 11.2532 14.1667 10.9799V3.40649C14.1667 2.53982 13.46 1.83317 12.5933 1.83317H7.40666C6.53999 1.83317 5.83333 2.53982 5.83333 3.40649V3.41984H8.59333C10.0133 3.41984 11.1667 4.57316 11.1667 5.99316V10.2198Z" fill="currentColor"/>
</g>
<defs>
<clipPath id="clip0_2_4655">
<rect width="16" height="16" fill="currentColor"/>
</clipPath>
</defs>
</svg>
