<svg width="16" height="16" viewBox="0 0 16 16" fill="none" xmlns="http://www.w3.org/2000/svg">
<g clip-path="url(#clip0_2_5194)">
<path d="M1.33334 6.5C1.06001 6.5 0.833344 6.27334 0.833344 6V4.33334C0.833344 2.4 2.40668 0.833336 4.33334 0.833336H6.00001C6.27334 0.833336 6.50001 1.06 6.50001 1.33334C6.50001 1.60667 6.27334 1.83334 6.00001 1.83334H4.33334C2.95334 1.83334 1.83334 2.95334 1.83334 4.33334V6C1.83334 6.27334 1.60668 6.5 1.33334 6.5Z" fill="currentColor"/>
<path d="M14.6667 6.5C14.3933 6.5 14.1667 6.27334 14.1667 6V4.33334C14.1667 2.95334 13.0467 1.83334 11.6667 1.83334H10C9.72668 1.83334 9.50001 1.60667 9.50001 1.33334C9.50001 1.06 9.72668 0.833336 10 0.833336H11.6667C13.5933 0.833336 15.1667 2.4 15.1667 4.33334V6C15.1667 6.27334 14.94 6.5 14.6667 6.5Z" fill="currentColor"/>
<path d="M11.6667 15.1667H10.6667C10.3933 15.1667 10.1667 14.94 10.1667 14.6667C10.1667 14.3933 10.3933 14.1667 10.6667 14.1667H11.6667C13.0467 14.1667 14.1667 13.0467 14.1667 11.6667V10.6667C14.1667 10.3933 14.3933 10.1667 14.6667 10.1667C14.94 10.1667 15.1667 10.3933 15.1667 10.6667V11.6667C15.1667 13.6 13.5933 15.1667 11.6667 15.1667Z" fill="currentColor"/>
<path d="M6.00001 15.1667H4.33334C2.40668 15.1667 0.833344 13.6 0.833344 11.6667V10C0.833344 9.72667 1.06001 9.5 1.33334 9.5C1.60668 9.5 1.83334 9.72667 1.83334 10V11.6667C1.83334 13.0467 2.95334 14.1667 4.33334 14.1667H6.00001C6.27334 14.1667 6.50001 14.3933 6.50001 14.6667C6.50001 14.94 6.27334 15.1667 6.00001 15.1667Z" fill="currentColor"/>
<path d="M9.33334 12.1667H6.66668C5.05334 12.1667 4.16668 11.28 4.16668 9.66667V6.33334C4.16668 4.72 5.05334 3.83334 6.66668 3.83334H9.33334C10.9467 3.83334 11.8333 4.72 11.8333 6.33334V9.66667C11.8333 11.28 10.9467 12.1667 9.33334 12.1667ZM6.66668 4.83334C5.61334 4.83334 5.16668 5.28 5.16668 6.33334V9.66667C5.16668 10.72 5.61334 11.1667 6.66668 11.1667H9.33334C10.3867 11.1667 10.8333 10.72 10.8333 9.66667V6.33334C10.8333 5.28 10.3867 4.83334 9.33334 4.83334H6.66668Z" fill="currentColor"/>
<path d="M12.6667 8.5H3.33334C3.06001 8.5 2.83334 8.27334 2.83334 8C2.83334 7.72667 3.06001 7.5 3.33334 7.5H12.6667C12.94 7.5 13.1667 7.72667 13.1667 8C13.1667 8.27334 12.94 8.5 12.6667 8.5Z" fill="currentColor"/>
</g>
<defs>
<clipPath id="clip0_2_5194">
<rect width="16" height="16" fill="currentColor"/>
</clipPath>
</defs>
</svg>
