<svg width="16" height="16" viewBox="0 0 16 16" fill="none" xmlns="http://www.w3.org/2000/svg">
<g clip-path="url(#clip0_2_4652)">
<path d="M14.6667 6.5C14.3933 6.5 14.1667 6.27334 14.1667 6V4.66667C14.1667 2.94667 13.0533 1.83334 11.3333 1.83334H4.66666C2.94666 1.83334 1.83333 2.94667 1.83333 4.66667V6C1.83333 6.27334 1.60666 6.5 1.33333 6.5C1.05999 6.5 0.833328 6.27334 0.833328 6V4.66667C0.833328 2.37334 2.37333 0.833336 4.66666 0.833336H11.3333C13.6267 0.833336 15.1667 2.37334 15.1667 4.66667V6C15.1667 6.27334 14.94 6.5 14.6667 6.5Z" fill="currentColor"/>
<path d="M11.3333 15.1667H4.66666C2.37333 15.1667 0.833328 13.6267 0.833328 11.3333V10C0.833328 9.72667 1.05999 9.5 1.33333 9.5C1.60666 9.5 1.83333 9.72667 1.83333 10V11.3333C1.83333 13.0533 2.94666 14.1667 4.66666 14.1667H11.3333C13.0533 14.1667 14.1667 13.0533 14.1667 11.3333V10C14.1667 9.72667 14.3933 9.5 14.6667 9.5C14.94 9.5 15.1667 9.72667 15.1667 10V11.3333C15.1667 13.6267 13.6267 15.1667 11.3333 15.1667Z" fill="currentColor"/>
<path d="M14.6667 8.5H1.33333C1.05999 8.5 0.833328 8.27334 0.833328 8C0.833328 7.72667 1.05999 7.5 1.33333 7.5H14.6667C14.94 7.5 15.1667 7.72667 15.1667 8C15.1667 8.27334 14.94 8.5 14.6667 8.5Z" fill="currentColor"/>
</g>
<defs>
<clipPath id="clip0_2_4652">
<rect width="16" height="16" fill="currentColor"/>
</clipPath>
</defs>
</svg>
