<svg width="16" height="16" viewBox="0 0 16 16" fill="none" xmlns="http://www.w3.org/2000/svg">
<g clip-path="url(#clip0_2_4682)">
<path d="M1.33333 6.5C1.05999 6.5 0.833328 6.27334 0.833328 6V4.33334C0.833328 2.4 2.40666 0.833336 4.33333 0.833336H5.99999C6.27333 0.833336 6.49999 1.06 6.49999 1.33334C6.49999 1.60667 6.27333 1.83334 5.99999 1.83334H4.33333C2.95333 1.83334 1.83333 2.95334 1.83333 4.33334V6C1.83333 6.27334 1.60666 6.5 1.33333 6.5Z" fill="currentColor"/>
<path d="M14.6667 6.5C14.3933 6.5 14.1667 6.27334 14.1667 6V4.33334C14.1667 2.95334 13.0467 1.83334 11.6667 1.83334H9.99999C9.72666 1.83334 9.49999 1.60667 9.49999 1.33334C9.49999 1.06 9.72666 0.833336 9.99999 0.833336H11.6667C13.5933 0.833336 15.1667 2.4 15.1667 4.33334V6C15.1667 6.27334 14.94 6.5 14.6667 6.5Z" fill="currentColor"/>
<path d="M11.6667 15.1667H10.6667C10.3933 15.1667 10.1667 14.94 10.1667 14.6667C10.1667 14.3933 10.3933 14.1667 10.6667 14.1667H11.6667C13.0467 14.1667 14.1667 13.0467 14.1667 11.6667V10.6667C14.1667 10.3933 14.3933 10.1667 14.6667 10.1667C14.94 10.1667 15.1667 10.3933 15.1667 10.6667V11.6667C15.1667 13.6 13.5933 15.1667 11.6667 15.1667Z" fill="currentColor"/>
<path d="M5.99999 15.1667H4.33333C2.40666 15.1667 0.833328 13.6 0.833328 11.6667V10C0.833328 9.72667 1.05999 9.5 1.33333 9.5C1.60666 9.5 1.83333 9.72667 1.83333 10V11.6667C1.83333 13.0467 2.95333 14.1667 4.33333 14.1667H5.99999C6.27333 14.1667 6.49999 14.3933 6.49999 14.6667C6.49999 14.94 6.27333 15.1667 5.99999 15.1667Z" fill="currentColor"/>
<path d="M5.66666 7.83334C4.47333 7.83334 3.49999 6.86 3.49999 5.66667C3.49999 4.47334 4.47333 3.5 5.66666 3.5C6.85999 3.5 7.83333 4.47334 7.83333 5.66667C7.83333 6.86 6.85999 7.83334 5.66666 7.83334ZM5.66666 4.5C5.02666 4.5 4.49999 5.02667 4.49999 5.66667C4.49999 6.30667 5.02666 6.83334 5.66666 6.83334C6.30666 6.83334 6.83333 6.30667 6.83333 5.66667C6.83333 5.02667 6.30666 4.5 5.66666 4.5Z" fill="currentColor"/>
<path d="M4.99999 12.5C4.17333 12.5 3.49999 11.8267 3.49999 11C3.49999 10.1733 4.17333 9.5 4.99999 9.5C5.82666 9.5 6.49999 10.1733 6.49999 11C6.49999 11.8267 5.82666 12.5 4.99999 12.5ZM4.99999 10.5C4.72666 10.5 4.49999 10.7267 4.49999 11C4.49999 11.2733 4.72666 11.5 4.99999 11.5C5.27333 11.5 5.49999 11.2733 5.49999 11C5.49999 10.7267 5.27333 10.5 4.99999 10.5Z" fill="currentColor"/>
<path d="M11 6.5C10.1733 6.5 9.49999 5.82667 9.49999 5C9.49999 4.17334 10.1733 3.5 11 3.5C11.8267 3.5 12.5 4.17334 12.5 5C12.5 5.82667 11.8267 6.5 11 6.5ZM11 4.5C10.7267 4.5 10.5 4.72667 10.5 5C10.5 5.27334 10.7267 5.5 11 5.5C11.2733 5.5 11.5 5.27334 11.5 5C11.5 4.72667 11.2733 4.5 11 4.5Z" fill="currentColor"/>
<path d="M10.3333 12.5C9.13999 12.5 8.16666 11.5267 8.16666 10.3333C8.16666 9.14 9.13999 8.16667 10.3333 8.16667C11.5267 8.16667 12.5 9.14 12.5 10.3333C12.5 11.5267 11.5267 12.5 10.3333 12.5ZM10.3333 9.16667C9.69333 9.16667 9.16666 9.69334 9.16666 10.3333C9.16666 10.9733 9.69333 11.5 10.3333 11.5C10.9733 11.5 11.5 10.9733 11.5 10.3333C11.5 9.69334 10.9733 9.16667 10.3333 9.16667Z" fill="currentColor"/>
</g>
<defs>
<clipPath id="clip0_2_4682">
<rect width="16" height="16" fill="currentColor"/>
</clipPath>
</defs>
</svg>
