<svg width="16" height="16" viewBox="0 0 16 16" fill="none" xmlns="http://www.w3.org/2000/svg">
<g clip-path="url(#clip0_2_5233)">
<path d="M1.33333 6.5C1.05999 6.5 0.833328 6.27334 0.833328 6V4.33334C0.833328 2.4 2.40666 0.833336 4.33333 0.833336H5.99999C6.27333 0.833336 6.49999 1.06 6.49999 1.33334C6.49999 1.60667 6.27333 1.83334 5.99999 1.83334H4.33333C2.95333 1.83334 1.83333 2.95334 1.83333 4.33334V6C1.83333 6.27334 1.60666 6.5 1.33333 6.5Z" fill="currentColor"/>
<path d="M14.6667 6.5C14.3933 6.5 14.1667 6.27334 14.1667 6V4.33334C14.1667 2.95334 13.0467 1.83334 11.6667 1.83334H9.99999C9.72666 1.83334 9.49999 1.60667 9.49999 1.33334C9.49999 1.06 9.72666 0.833336 9.99999 0.833336H11.6667C13.5933 0.833336 15.1667 2.4 15.1667 4.33334V6C15.1667 6.27334 14.94 6.5 14.6667 6.5Z" fill="currentColor"/>
<path d="M11.6667 15.1667H10.6667C10.3933 15.1667 10.1667 14.94 10.1667 14.6667C10.1667 14.3933 10.3933 14.1667 10.6667 14.1667H11.6667C13.0467 14.1667 14.1667 13.0467 14.1667 11.6667V10.6667C14.1667 10.3933 14.3933 10.1667 14.6667 10.1667C14.94 10.1667 15.1667 10.3933 15.1667 10.6667V11.6667C15.1667 13.6 13.5933 15.1667 11.6667 15.1667Z" fill="currentColor"/>
<path d="M5.99999 15.1667H4.33333C2.40666 15.1667 0.833328 13.6 0.833328 11.6667V10C0.833328 9.72667 1.05999 9.5 1.33333 9.5C1.60666 9.5 1.83333 9.72667 1.83333 10V11.6667C1.83333 13.0467 2.95333 14.1667 4.33333 14.1667H5.99999C6.27333 14.1667 6.49999 14.3933 6.49999 14.6667C6.49999 14.94 6.27333 15.1667 5.99999 15.1667Z" fill="currentColor"/>
<path d="M5.99999 7.5H4.66666C3.72666 7.5 3.16666 6.94 3.16666 6V4.66667C3.16666 3.72667 3.72666 3.16667 4.66666 3.16667H5.99999C6.93999 3.16667 7.49999 3.72667 7.49999 4.66667V6C7.49999 6.94 6.93999 7.5 5.99999 7.5ZM4.66666 4.16667C4.27333 4.16667 4.16666 4.27334 4.16666 4.66667V6C4.16666 6.39334 4.27333 6.5 4.66666 6.5H5.99999C6.39333 6.5 6.49999 6.39334 6.49999 6V4.66667C6.49999 4.27334 6.39333 4.16667 5.99999 4.16667H4.66666Z" fill="currentColor"/>
<path d="M11.3333 7.5H9.99999C9.05999 7.5 8.49999 6.94 8.49999 6V4.66667C8.49999 3.72667 9.05999 3.16667 9.99999 3.16667H11.3333C12.2733 3.16667 12.8333 3.72667 12.8333 4.66667V6C12.8333 6.94 12.2733 7.5 11.3333 7.5ZM9.99999 4.16667C9.60666 4.16667 9.49999 4.27334 9.49999 4.66667V6C9.49999 6.39334 9.60666 6.5 9.99999 6.5H11.3333C11.7267 6.5 11.8333 6.39334 11.8333 6V4.66667C11.8333 4.27334 11.7267 4.16667 11.3333 4.16667H9.99999Z" fill="currentColor"/>
<path d="M5.99999 12.8333H4.66666C3.72666 12.8333 3.16666 12.2733 3.16666 11.3333V10C3.16666 9.06 3.72666 8.5 4.66666 8.5H5.99999C6.93999 8.5 7.49999 9.06 7.49999 10V11.3333C7.49999 12.2733 6.93999 12.8333 5.99999 12.8333ZM4.66666 9.5C4.27333 9.5 4.16666 9.60667 4.16666 10V11.3333C4.16666 11.7267 4.27333 11.8333 4.66666 11.8333H5.99999C6.39333 11.8333 6.49999 11.7267 6.49999 11.3333V10C6.49999 9.60667 6.39333 9.5 5.99999 9.5H4.66666Z" fill="currentColor"/>
<path d="M11.3333 12.8333H9.99999C9.05999 12.8333 8.49999 12.2733 8.49999 11.3333V10C8.49999 9.06 9.05999 8.5 9.99999 8.5H11.3333C12.2733 8.5 12.8333 9.06 12.8333 10V11.3333C12.8333 12.2733 12.2733 12.8333 11.3333 12.8333ZM9.99999 9.5C9.60666 9.5 9.49999 9.60667 9.49999 10V11.3333C9.49999 11.7267 9.60666 11.8333 9.99999 11.8333H11.3333C11.7267 11.8333 11.8333 11.7267 11.8333 11.3333V10C11.8333 9.60667 11.7267 9.5 11.3333 9.5H9.99999Z" fill="currentColor"/>
</g>
<defs>
<clipPath id="clip0_2_5233">
<rect width="16" height="16" fill="currentColor"/>
</clipPath>
</defs>
</svg>
