<svg width="16" height="16" viewBox="0 0 16 16" fill="none" xmlns="http://www.w3.org/2000/svg">
<path d="M3.66667 7.16667C2.10667 7.16667 0.833336 5.89333 0.833336 4.33333C0.833336 2.77333 2.10667 1.5 3.66667 1.5C5.22667 1.5 6.5 2.77333 6.5 4.33333C6.5 5.89333 5.22667 7.16667 3.66667 7.16667ZM3.66667 2.5C2.65334 2.5 1.83334 3.32 1.83334 4.33333C1.83334 5.34667 2.65334 6.16667 3.66667 6.16667C4.68 6.16667 5.5 5.34667 5.5 4.33333C5.5 3.32 4.68 2.5 3.66667 2.5Z" fill="currentColor"/>
<path d="M3.66667 14.5C2.10667 14.5 0.833336 13.2267 0.833336 11.6667C0.833336 10.1067 2.10667 8.83333 3.66667 8.83333C5.22667 8.83333 6.5 10.1067 6.5 11.6667C6.5 13.2267 5.22667 14.5 3.66667 14.5ZM3.66667 9.83333C2.65334 9.83333 1.83334 10.6533 1.83334 11.6667C1.83334 12.68 2.65334 13.5 3.66667 13.5C4.68 13.5 5.5 12.68 5.5 11.6667C5.5 10.6533 4.68 9.83333 3.66667 9.83333Z" fill="currentColor"/>
<path d="M5.76711 11.1535C5.61378 11.1535 5.4671 11.0869 5.3671 10.9535C5.20044 10.7335 5.24712 10.4202 5.46712 10.2535L14.3671 3.60018C14.5871 3.43351 14.9005 3.48018 15.0671 3.70018C15.2338 3.92018 15.1871 4.23351 14.9671 4.40018L6.06712 11.0535C5.98045 11.1202 5.87378 11.1535 5.76711 11.1535Z" fill="currentColor"/>
<path d="M14.6671 12.48C14.5605 12.48 14.4605 12.4467 14.3671 12.38L5.46712 5.72668C5.24712 5.56001 5.20044 5.24668 5.3671 5.02668C5.53377 4.80668 5.84712 4.76001 6.06712 4.92668L14.9671 11.58C15.1871 11.7467 15.2338 12.06 15.0671 12.28C14.9671 12.4067 14.8205 12.48 14.6671 12.48Z" fill="currentColor"/>
</svg>
