<svg width="16" height="16" viewBox="0 0 16 16" fill="none" xmlns="http://www.w3.org/2000/svg">
<g clip-path="url(#clip0_2_4651)">
<path d="M10 15.1667H6C2.38 15.1667 0.833336 13.62 0.833336 10V6C0.833336 2.38 2.38 0.833336 6 0.833336H10C13.62 0.833336 15.1667 2.38 15.1667 6V10C15.1667 13.62 13.62 15.1667 10 15.1667ZM6 1.83334C2.92667 1.83334 1.83334 2.92667 1.83334 6V10C1.83334 13.0733 2.92667 14.1667 6 14.1667H10C13.0733 14.1667 14.1667 13.0733 14.1667 10V6C14.1667 2.92667 13.0733 1.83334 10 1.83334H6Z" fill="currentColor"/>
<path d="M5.61332 7.76654C4.63332 7.76654 3.83334 6.96654 3.83334 5.98654C3.83334 5.00654 4.63332 4.19987 5.61332 4.19987C6.59332 4.19987 7.39334 4.99987 7.39334 5.98654C7.39334 6.9732 6.59999 7.76654 5.61332 7.76654ZM5.61332 5.19987C5.17999 5.19987 4.83334 5.5532 4.83334 5.98654C4.83334 6.41987 5.18666 6.76654 5.61332 6.76654C6.03999 6.76654 6.39336 6.4132 6.39336 5.98654C6.39336 5.55987 6.04666 5.19987 5.61332 5.19987Z" fill="currentColor"/>
<path d="M5.61332 11.8001C4.63332 11.8001 3.83334 11.0001 3.83334 10.0134C3.83334 9.02674 4.63332 8.2334 5.61332 8.2334C6.59332 8.2334 7.39334 9.0334 7.39334 10.0134C7.39334 10.9934 6.59999 11.8001 5.61332 11.8001ZM5.61332 9.2334C5.17999 9.2334 4.83334 9.58673 4.83334 10.0134C4.83334 10.4401 5.18666 10.8001 5.61332 10.8001C6.03999 10.8001 6.39336 10.4467 6.39336 10.0134C6.39336 9.58007 6.04666 9.2334 5.61332 9.2334Z" fill="currentColor"/>
<path d="M6.7736 9.96C6.62027 9.96 6.47362 9.89334 6.37362 9.76C6.20695 9.54 6.25363 9.22667 6.47363 9.06L11.3669 5.39999C11.5869 5.23332 11.9003 5.27999 12.0669 5.49999C12.2336 5.71999 12.1869 6.03332 11.9669 6.19999L7.0736 9.86C6.98027 9.92667 6.88027 9.96 6.7736 9.96Z" fill="currentColor"/>
<path d="M11.6669 10.6865C11.5603 10.6865 11.4603 10.6532 11.3669 10.5865L6.47363 6.92654C6.25363 6.75987 6.20695 6.44655 6.37362 6.22655C6.54028 6.00655 6.8536 5.95989 7.0736 6.12656L11.9669 9.78654C12.1869 9.9532 12.2336 10.2665 12.0669 10.4865C11.9669 10.6199 11.8203 10.6865 11.6669 10.6865Z" fill="currentColor"/>
</g>
<defs>
<clipPath id="clip0_2_4651">
<rect width="16" height="16" fill="currentColor"/>
</clipPath>
</defs>
</svg>
