<svg width="16" height="16" viewBox="0 0 16 16" fill="none" xmlns="http://www.w3.org/2000/svg">
<g clip-path="url(#clip0_2_4648)">
<path d="M10 15.1667H6C2.38 15.1667 0.833332 13.62 0.833332 10V6C0.833332 2.38 2.38 0.833336 6 0.833336H10C13.62 0.833336 15.1667 2.38 15.1667 6V10C15.1667 13.62 13.62 15.1667 10 15.1667ZM6 1.83334C2.92667 1.83334 1.83333 2.92667 1.83333 6V10C1.83333 13.0733 2.92667 14.1667 6 14.1667H10C13.0733 14.1667 14.1667 13.0733 14.1667 10V6C14.1667 2.92667 13.0733 1.83334 10 1.83334H6Z" fill="currentColor"/>
<path d="M10.9333 12.8333H8.4C7.12 12.8333 6.5 12.2133 6.5 10.9333V9.73334C6.5 8.45334 7.12 7.83334 8.4 7.83334H10.9333C12.2133 7.83334 12.8333 8.45334 12.8333 9.73334V10.9333C12.8333 12.2133 12.2133 12.8333 10.9333 12.8333ZM8.4 8.83334C7.68 8.83334 7.5 9.01334 7.5 9.73334V10.9333C7.5 11.6533 7.68 11.8333 8.4 11.8333H10.9333C11.6533 11.8333 11.8333 11.6533 11.8333 10.9333V9.73334C11.8333 9.01334 11.6533 8.83334 10.9333 8.83334H8.4Z" fill="currentColor"/>
</g>
<defs>
<clipPath id="clip0_2_4648">
<rect width="16" height="16" fill="currentColor"/>
</clipPath>
</defs>
</svg>
