<svg width="16" height="16" viewBox="0 0 16 16" fill="none" xmlns="http://www.w3.org/2000/svg">
<g clip-path="url(#clip0_2_4647)">
<path d="M10 15.1667H6C2.38 15.1667 0.833333 13.62 0.833333 10V6C0.833333 2.38 2.38 0.833336 6 0.833336H10C13.62 0.833336 15.1667 2.38 15.1667 6V10C15.1667 13.62 13.62 15.1667 10 15.1667ZM6 1.83334C2.92667 1.83334 1.83333 2.92667 1.83333 6V10C1.83333 13.0733 2.92667 14.1667 6 14.1667H10C13.0733 14.1667 14.1667 13.0733 14.1667 10V6C14.1667 2.92667 13.0733 1.83334 10 1.83334H6Z" fill="currentColor"/>
<path d="M6.39948 10.5199C6.27281 10.5199 6.14615 10.4733 6.04615 10.3733L4.38615 8.71327C3.99281 8.31994 3.99281 7.6866 4.38615 7.29327L6.04615 5.63328C6.23948 5.43995 6.55948 5.43995 6.7528 5.63328C6.94613 5.82662 6.94613 6.14662 6.7528 6.33995L5.09281 7.99994L6.7528 9.6666C6.94613 9.85994 6.94613 10.1799 6.7528 10.3733C6.65281 10.4666 6.52615 10.5199 6.39948 10.5199Z" fill="currentColor"/>
<path d="M9.59987 10.5201C9.4732 10.5201 9.34653 10.4735 9.24653 10.3735C9.0532 10.1801 9.0532 9.86014 9.24653 9.6668L10.9065 8.00014L9.24653 6.33344C9.0532 6.14011 9.0532 5.82011 9.24653 5.62678C9.43987 5.43344 9.75987 5.43344 9.9532 5.62678L11.6132 7.2868C12.0065 7.68014 12.0065 8.31347 11.6132 8.7068L9.9532 10.3668C9.85987 10.4668 9.72653 10.5201 9.59987 10.5201Z" fill="currentColor"/>
</g>
<defs>
<clipPath id="clip0_2_4647">
<rect width="16" height="16" fill="currentColor"/>
</clipPath>
</defs>
</svg>
