<svg width="16" height="16" viewBox="0 0 16 16" fill="none" xmlns="http://www.w3.org/2000/svg">
<g clip-path="url(#clip0_2_4646)">
<path d="M7.66667 14.5C3.9 14.5 0.833336 11.4333 0.833336 7.66667C0.833336 3.9 3.9 0.833336 7.66667 0.833336C7.94 0.833336 8.16667 1.06 8.16667 1.33334C8.16667 1.60667 7.94 1.83334 7.66667 1.83334C4.44667 1.83334 1.83334 4.45334 1.83334 7.66667C1.83334 10.88 4.44667 13.5 7.66667 13.5C10.8867 13.5 13.5 10.88 13.5 7.66667C13.5 7.39334 13.7267 7.16667 14 7.16667C14.2733 7.16667 14.5 7.39334 14.5 7.66667C14.5 11.4333 11.4333 14.5 7.66667 14.5Z" fill="currentColor"/>
<path d="M14.6669 15.1666C14.5403 15.1666 14.4136 15.1199 14.3136 15.0199L12.9803 13.6866C12.7869 13.4933 12.7869 13.1733 12.9803 12.9799C13.1736 12.7866 13.4936 12.7866 13.6869 12.9799L15.0203 14.3133C15.2136 14.5066 15.2136 14.8266 15.0203 15.0199C14.9203 15.1199 14.7936 15.1666 14.6669 15.1666Z" fill="currentColor"/>
<path d="M11.6666 6.35996C11.0533 6.35996 9.6266 5.6133 9.1866 4.23996C8.8866 3.29996 9.23327 2.06663 10.3199 1.7133C10.7866 1.55996 11.2733 1.6333 11.6599 1.87996C12.0399 1.6333 12.5399 1.56663 13.0066 1.7133C14.0933 2.06663 14.4466 3.29996 14.1399 4.23996C13.7066 5.63996 12.2066 6.35996 11.6666 6.35996ZM10.1399 3.93996C10.4466 4.90663 11.4866 5.34663 11.6733 5.36663C11.8866 5.34663 12.9066 4.8533 13.1866 3.94663C13.3399 3.45996 13.1866 2.8333 12.6999 2.6733C12.4933 2.60663 12.2133 2.64663 12.0799 2.83996C11.9866 2.97996 11.8399 3.05996 11.6733 3.06663C11.5266 3.0733 11.3533 2.9933 11.2599 2.85996C11.1066 2.63996 10.8266 2.60663 10.6266 2.66663C10.1466 2.82663 9.9866 3.4533 10.1399 3.93996Z" fill="currentColor"/>
</g>
<defs>
<clipPath id="clip0_2_4646">
<rect width="16" height="16" fill="currentColor"/>
</clipPath>
</defs>
</svg>
