<svg width="16" height="16" viewBox="0 0 16 16" fill="none" xmlns="http://www.w3.org/2000/svg">
<g clip-path="url(#clip0_2_5179)">
<path d="M7.33333 13.8333C3.74667 13.8333 0.833334 10.92 0.833334 7.33334C0.833334 3.74667 3.74667 0.833336 7.33333 0.833336C7.60667 0.833336 7.83333 1.06 7.83333 1.33334C7.83333 1.60667 7.60667 1.83334 7.33333 1.83334C4.3 1.83334 1.83333 4.3 1.83333 7.33334C1.83333 10.3667 4.3 12.8333 7.33333 12.8333C10.3667 12.8333 12.8333 10.3667 12.8333 7.33334C12.8333 7.06 13.06 6.83334 13.3333 6.83334C13.6067 6.83334 13.8333 7.06 13.8333 7.33334C13.8333 10.92 10.92 13.8333 7.33333 13.8333Z" fill="currentColor"/>
<path d="M10.9999 6.35996C10.3866 6.35996 8.95993 5.6133 8.51993 4.23996C8.21993 3.29996 8.5666 2.06663 9.65327 1.7133C10.1199 1.55996 10.6066 1.6333 10.9933 1.87996C11.3733 1.6333 11.8733 1.56663 12.3399 1.7133C13.4266 2.06663 13.7799 3.29996 13.4733 4.23996C13.0399 5.63996 11.5399 6.35996 10.9999 6.35996ZM9.47327 3.93996C9.77993 4.90663 10.8199 5.34663 11.0066 5.36663C11.2199 5.34663 12.2399 4.8533 12.5199 3.94663C12.6733 3.45996 12.5199 2.8333 12.0333 2.6733C11.8266 2.60663 11.5466 2.64663 11.4133 2.83996C11.3199 2.97996 11.1733 3.05996 11.0066 3.06663C10.8533 3.0733 10.6866 2.9933 10.5933 2.85996C10.4399 2.63996 10.1599 2.60663 9.95993 2.66663C9.47993 2.82663 9.31993 3.4533 9.47327 3.93996Z" fill="currentColor"/>
<path d="M13.4401 15.1933C13.3867 15.1933 13.3334 15.1867 13.2867 15.18C12.9734 15.14 12.4067 14.9267 12.0867 13.9733C11.9201 13.4733 11.9801 12.9733 12.2534 12.5933C12.5267 12.2133 12.9867 12 13.5134 12C14.1934 12 14.7267 12.26 14.9667 12.72C15.2067 13.18 15.1401 13.7667 14.7601 14.3333C14.2867 15.0467 13.7734 15.1933 13.4401 15.1933ZM13.0401 13.66C13.1534 14.0067 13.3134 14.18 13.4201 14.1933C13.5267 14.2067 13.7267 14.08 13.9334 13.78C14.1267 13.4933 14.1401 13.2867 14.0934 13.1933C14.0467 13.1 13.8601 13 13.5134 13C13.3067 13 13.1534 13.0667 13.0667 13.18C12.9867 13.2933 12.9734 13.4667 13.0401 13.66Z" fill="currentColor"/>
</g>
<defs>
<clipPath id="clip0_2_5179">
<rect width="16" height="16" fill="currentColor"/>
</clipPath>
</defs>
</svg>
