<svg width="16" height="16" viewBox="0 0 16 16" fill="none" xmlns="http://www.w3.org/2000/svg">
<g clip-path="url(#clip0_2_4641)">
<path d="M7.33334 13.8333C3.74668 13.8333 0.833344 10.92 0.833344 7.33334C0.833344 3.74667 3.74668 0.833336 7.33334 0.833336C10.92 0.833336 13.8333 3.74667 13.8333 7.33334C13.8333 10.92 10.92 13.8333 7.33334 13.8333ZM7.33334 1.83334C4.30001 1.83334 1.83334 4.3 1.83334 7.33334C1.83334 10.3667 4.30001 12.8333 7.33334 12.8333C10.3667 12.8333 12.8333 10.3667 12.8333 7.33334C12.8333 4.3 10.3667 1.83334 7.33334 1.83334Z" fill="currentColor"/>
<path d="M9.00001 7.83334H5.66668C5.39334 7.83334 5.16668 7.60667 5.16668 7.33334C5.16668 7.06 5.39334 6.83334 5.66668 6.83334H9.00001C9.27334 6.83334 9.50001 7.06 9.50001 7.33334C9.50001 7.60667 9.27334 7.83334 9.00001 7.83334Z" fill="currentColor"/>
<path d="M7.33334 9.5C7.06001 9.5 6.83334 9.27334 6.83334 9V5.66667C6.83334 5.39334 7.06001 5.16667 7.33334 5.16667C7.60668 5.16667 7.83334 5.39334 7.83334 5.66667V9C7.83334 9.27334 7.60668 9.5 7.33334 9.5Z" fill="currentColor"/>
<path d="M13.4401 15.1933C13.3867 15.1933 13.3334 15.1867 13.2867 15.18C12.9734 15.14 12.4067 14.9267 12.0867 13.9733C11.9201 13.4733 11.9801 12.9733 12.2534 12.5933C12.5267 12.2133 12.9867 12 13.5134 12C14.1934 12 14.7267 12.26 14.9667 12.72C15.2067 13.18 15.1401 13.7667 14.7601 14.3333C14.2867 15.0467 13.7734 15.1933 13.4401 15.1933ZM13.0401 13.66C13.1534 14.0067 13.3134 14.18 13.4201 14.1933C13.5267 14.2067 13.7267 14.08 13.9334 13.78C14.1267 13.4933 14.1401 13.2867 14.0934 13.1933C14.0467 13.1 13.8601 13 13.5134 13C13.3067 13 13.1534 13.0667 13.0667 13.18C12.9867 13.2933 12.9734 13.4667 13.0401 13.66Z" fill="currentColor"/>
</g>
<defs>
<clipPath id="clip0_2_4641">
<rect width="16" height="16" fill="currentColor"/>
</clipPath>
</defs>
</svg>
