<svg width="16" height="16" viewBox="0 0 16 16" fill="none" xmlns="http://www.w3.org/2000/svg">
<g clip-path="url(#clip0_2_4833)">
<path d="M9.46679 8.3H6.13346C5.86013 8.3 5.63346 8.07334 5.63346 7.8C5.63346 7.52667 5.86013 7.3 6.13346 7.3H9.46679C9.74013 7.3 9.96679 7.52667 9.96679 7.8C9.96679 8.07334 9.74013 8.3 9.46679 8.3Z" fill="currentColor"/>
<path d="M7.80013 9.96667C7.5268 9.96667 7.30013 9.74 7.30013 9.46667V6.1333C7.30013 5.85997 7.5268 5.6333 7.80013 5.6333C8.07346 5.6333 8.30013 5.85997 8.30013 6.1333V9.46667C8.30013 9.74 8.07346 9.96667 7.80013 9.96667Z" fill="currentColor"/>
<path d="M7.66666 14.5C3.89999 14.5 0.833328 11.4333 0.833328 7.66667C0.833328 3.9 3.89999 0.833336 7.66666 0.833336C11.4333 0.833336 14.5 3.9 14.5 7.66667C14.5 11.4333 11.4333 14.5 7.66666 14.5ZM7.66666 1.83334C4.44666 1.83334 1.83333 4.45334 1.83333 7.66667C1.83333 10.88 4.44666 13.5 7.66666 13.5C10.8867 13.5 13.5 10.88 13.5 7.66667C13.5 4.45334 10.8867 1.83334 7.66666 1.83334Z" fill="currentColor"/>
<path d="M14.6669 15.1666C14.5403 15.1666 14.4136 15.1199 14.3136 15.0199L12.9803 13.6866C12.7869 13.4933 12.7869 13.1733 12.9803 12.9799C13.1736 12.7866 13.4936 12.7866 13.6869 12.9799L15.0203 14.3133C15.2136 14.5066 15.2136 14.8266 15.0203 15.0199C14.9203 15.1199 14.7936 15.1666 14.6669 15.1666Z" fill="currentColor"/>
</g>
<defs>
<clipPath id="clip0_2_4833">
<rect width="16" height="16" fill="currentColor"/>
</clipPath>
</defs>
</svg>
