<svg width="16" height="16" viewBox="0 0 16 16" fill="none" xmlns="http://www.w3.org/2000/svg">
<g clip-path="url(#clip0_2_4829)">
<path d="M9.33334 8.3H6.00001C5.72668 8.3 5.50001 8.07334 5.50001 7.8C5.50001 7.52667 5.72668 7.3 6.00001 7.3H9.33334C9.60668 7.3 9.83334 7.52667 9.83334 7.8C9.83334 8.07334 9.60668 8.3 9.33334 8.3Z" fill="currentColor"/>
<path d="M7.66668 14.5C3.90001 14.5 0.833344 11.4333 0.833344 7.66667C0.833344 3.9 3.90001 0.833336 7.66668 0.833336C11.4333 0.833336 14.5 3.9 14.5 7.66667C14.5 11.4333 11.4333 14.5 7.66668 14.5ZM7.66668 1.83334C4.44668 1.83334 1.83334 4.45334 1.83334 7.66667C1.83334 10.88 4.44668 13.5 7.66668 13.5C10.8867 13.5 13.5 10.88 13.5 7.66667C13.5 4.45334 10.8867 1.83334 7.66668 1.83334Z" fill="currentColor"/>
<path d="M14.6669 15.1666C14.5403 15.1666 14.4136 15.1199 14.3136 15.0199L12.9803 13.6866C12.7869 13.4933 12.7869 13.1733 12.9803 12.9799C13.1736 12.7866 13.4936 12.7866 13.6869 12.9799L15.0203 14.3133C15.2136 14.5066 15.2136 14.8266 15.0203 15.0199C14.9203 15.1199 14.7936 15.1666 14.6669 15.1666Z" fill="currentColor"/>
</g>
<defs>
<clipPath id="clip0_2_4829">
<rect width="16" height="16" fill="currentColor"/>
</clipPath>
</defs>
</svg>
