<svg width="16" height="16" viewBox="0 0 16 16" fill="none" xmlns="http://www.w3.org/2000/svg">
<path d="M7.99988 15.1667C7.83988 15.1667 7.67995 15.1467 7.52661 15.1001C4.06659 14.1467 1.55991 10.9133 1.55991 7.40667V4.48002C1.55991 3.73335 2.09991 2.92672 2.79325 2.64005L6.50659 1.12004C7.47328 0.726702 8.53321 0.726702 9.49321 1.12004L13.2065 2.64005C13.8999 2.92672 14.4399 3.73335 14.4399 4.48002V7.40667C14.4399 10.9067 11.9265 14.1401 8.47321 15.1001C8.31988 15.1467 8.15988 15.1667 7.99988 15.1667ZM7.99988 1.83338C7.61988 1.83338 7.24655 1.90672 6.88655 2.05338L3.17325 3.57336C2.85325 3.70669 2.55991 4.14003 2.55991 4.48669V7.4134C2.55991 10.4734 4.75991 13.3001 7.79321 14.1401C7.92655 14.1801 8.07321 14.1801 8.20655 14.1401C11.2399 13.3001 13.4399 10.4734 13.4399 7.4134V4.48669C13.4399 4.14003 13.1465 3.70669 12.8265 3.57336L9.11328 2.05338C8.75328 1.90672 8.37988 1.83338 7.99988 1.83338Z" fill="currentColor"/>
</svg>
