<svg width="16" height="16" viewBox="0 0 16 16" fill="none" xmlns="http://www.w3.org/2000/svg">
<g clip-path="url(#clip0_2_5103)">
<path d="M7.03986 15.1398C6.31984 15.1398 5.59318 14.9331 5.03318 14.5131L2.17985 12.3798C1.42652 11.8198 0.839844 10.6398 0.839844 9.69313V4.75315C0.839844 3.73315 1.58652 2.64648 2.54652 2.28648L5.86651 1.03982C6.52651 0.793154 7.55986 0.793154 8.21986 1.03982L11.5332 2.28648C12.3132 2.57981 12.9732 3.35982 13.1865 4.22649C13.2199 4.37315 13.1865 4.53316 13.0932 4.65316C12.9999 4.77316 12.8532 4.84648 12.6999 4.84648L7.42653 4.85315C6.57984 4.90649 6.37318 5.04649 6.37318 6.27983V9.8998C6.37318 11.1731 6.53984 11.3331 7.8332 11.3331H11.7799C11.9865 11.3331 12.1732 11.4598 12.2465 11.6531C12.3199 11.8465 12.2665 12.0665 12.1132 12.2065C12.0399 12.2665 11.9799 12.3265 11.9065 12.3798L9.0532 14.5198C8.47986 14.9331 7.75986 15.1398 7.03986 15.1398ZM7.03986 1.85983C6.73986 1.85983 6.43318 1.89983 6.21318 1.98649L2.89318 3.23316C2.33318 3.44649 1.83318 4.15981 1.83318 4.76648V9.70647C1.83318 10.3331 2.27318 11.2131 2.77318 11.5865L5.62651 13.7198C6.39318 14.2865 7.67986 14.2865 8.44653 13.7198L10.2932 12.3398H7.82653C5.98652 12.3398 5.36651 11.7265 5.36651 9.90647V6.28648C5.36651 4.86648 5.70651 3.96649 7.3932 3.85983L7.82653 3.85315H11.9265C11.7265 3.56649 11.4599 3.33983 11.1799 3.23316L7.86653 1.98649C7.63986 1.89983 7.33986 1.85983 7.03986 1.85983Z" fill="currentColor"/>
<path d="M14.6672 7.9798H5.86718C5.59385 7.9798 5.36718 7.75313 5.36718 7.4798C5.36718 7.20647 5.59385 6.9798 5.86718 6.9798H14.6672C14.9405 6.9798 15.1672 7.20647 15.1672 7.4798C15.1672 7.75313 14.9405 7.9798 14.6672 7.9798Z" fill="currentColor"/>
<path d="M12.7072 12.3333H7.8272C5.98718 12.3333 5.36718 11.72 5.36718 9.9V6.28003C5.36718 4.86003 5.70718 3.96002 7.39386 3.85335L7.8272 3.84668H12.7072C14.5472 3.84668 15.1672 4.46003 15.1672 6.28003V9.98C15.1539 11.74 14.5339 12.3333 12.7072 12.3333ZM7.8272 4.84668L7.42053 4.85335C6.57385 4.90669 6.36718 5.04669 6.36718 6.28003V9.9C6.36718 11.1733 6.53385 11.3333 7.8272 11.3333H12.7072C13.9805 11.3333 14.1539 11.1667 14.1672 9.98V6.28668C14.1672 5.01335 14.0005 4.85335 12.7072 4.85335H7.8272V4.84668Z" fill="currentColor"/>
<path d="M8.43366 10.6732H7.54033C7.267 10.6732 7.04033 10.4465 7.04033 10.1732C7.04033 9.89987 7.267 9.6732 7.54033 9.6732H8.43366C8.707 9.6732 8.93366 9.89987 8.93366 10.1732C8.93366 10.4465 8.71366 10.6732 8.43366 10.6732Z" fill="currentColor"/>
<path d="M12.0133 10.6732H9.83333C9.56 10.6732 9.33333 10.4465 9.33333 10.1732C9.33333 9.89987 9.56 9.6732 9.83333 9.6732H12.0133C12.2867 9.6732 12.5133 9.89987 12.5133 10.1732C12.5133 10.4465 12.2933 10.6732 12.0133 10.6732Z" fill="currentColor"/>
</g>
<defs>
<clipPath id="clip0_2_5103">
<rect width="16" height="16" fill="currentColor"/>
</clipPath>
</defs>
</svg>
