<svg width="16" height="16" viewBox="0 0 16 16" fill="none" xmlns="http://www.w3.org/2000/svg">
<path d="M8.00025 15.1733C7.27358 15.1733 6.55359 14.9599 5.98692 14.5399L3.12024 12.3999C2.36024 11.8333 1.76691 10.6533 1.76691 9.7066V4.7533C1.76691 3.72664 2.52025 2.6333 3.48692 2.2733L6.81358 1.02664C7.47358 0.77997 8.51358 0.77997 9.17358 1.02664L12.5069 2.2733C13.4736 2.6333 14.2269 3.72664 14.2269 4.7533V9.7066C14.2269 10.6533 13.6336 11.8333 12.8736 12.3999L10.0069 14.5399C9.44691 14.9599 8.72691 15.1733 8.00025 15.1733ZM7.16691 1.95997L3.84025 3.20663C3.26692 3.41996 2.76691 4.13997 2.76691 4.7533V9.7066C2.76691 10.3399 3.21358 11.2266 3.71358 11.5999L6.58024 13.7399C7.34691 14.3133 8.64691 14.3133 9.41358 13.7399L12.2802 11.5999C12.7869 11.2199 13.2269 10.3333 13.2269 9.7066V4.7533C13.2269 4.14664 12.7269 3.42663 12.1536 3.20663L8.82691 1.95997C8.38691 1.7933 7.61358 1.7933 7.16691 1.95997Z" fill="currentColor"/>
<path d="M7.99991 7.78014C7.98658 7.78014 7.97325 7.78014 7.95325 7.78014C6.98658 7.75347 6.27993 7.01347 6.27993 6.11345C6.27993 5.19345 7.03325 4.44011 7.95325 4.44011C8.87325 4.44011 9.62658 5.19345 9.62658 6.11345C9.61991 7.02014 8.91325 7.7534 8.01325 7.78674C8.00658 7.78007 8.00658 7.78014 7.99991 7.78014ZM7.95325 5.44011C7.57991 5.44011 7.27991 5.74012 7.27991 6.11345C7.27991 6.48012 7.56658 6.7734 7.92658 6.78674C7.92658 6.78674 7.95991 6.78674 7.99991 6.78674C8.35325 6.76674 8.62658 6.47345 8.62658 6.11345C8.63325 5.74012 8.32658 5.44011 7.95325 5.44011Z" fill="currentColor"/>
<path d="M8.00051 11.5667C7.42718 11.5667 6.84718 11.4133 6.40051 11.1133C5.95385 10.82 5.7005 10.3867 5.7005 9.92667C5.7005 9.46667 5.95385 9.03334 6.40051 8.73334C7.30051 8.13334 8.70718 8.14 9.60051 8.73334C10.0472 9.02667 10.3005 9.46 10.3005 9.92C10.3005 10.38 10.0472 10.8133 9.60051 11.1133C9.15385 11.4133 8.57385 11.5667 8.00051 11.5667ZM6.95385 9.56C6.78718 9.66667 6.69385 9.8 6.70051 9.92C6.70051 10.04 6.79385 10.1733 6.95385 10.28C7.51385 10.6533 8.48718 10.6533 9.04718 10.28C9.21385 10.1733 9.30718 10.04 9.30718 9.92C9.30718 9.8 9.21385 9.66667 9.05385 9.56C8.49385 9.19334 7.51385 9.19334 6.95385 9.56Z" fill="currentColor"/>
</svg>
