<svg width="16" height="16" viewBox="0 0 16 16" fill="none" xmlns="http://www.w3.org/2000/svg">
<path d="M7.99988 15.1667C7.83988 15.1667 7.67995 15.1467 7.52661 15.1001C4.06659 14.1467 1.55991 10.9133 1.55991 7.40667V4.48002C1.55991 3.73335 2.09991 2.92672 2.79325 2.64005L6.50659 1.12004C7.47328 0.726702 8.53321 0.726702 9.49321 1.12004L13.2065 2.64005C13.8999 2.92672 14.4399 3.73335 14.4399 4.48002V7.40667C14.4399 10.9067 11.9265 14.1401 8.47321 15.1001C8.31988 15.1467 8.15988 15.1667 7.99988 15.1667ZM7.99988 1.83338C7.61988 1.83338 7.24655 1.90672 6.88655 2.05338L3.17325 3.57336C2.85325 3.70669 2.55991 4.14003 2.55991 4.48669V7.4134C2.55991 10.4734 4.75991 13.3001 7.79321 14.1401C7.92655 14.1801 8.07321 14.1801 8.20655 14.1401C11.2399 13.3001 13.4399 10.4734 13.4399 7.4134V4.48669C13.4399 4.14003 13.1465 3.70669 12.8265 3.57336L9.11328 2.05338C8.75328 1.90672 8.37988 1.83338 7.99988 1.83338Z" fill="currentColor"/>
<path d="M8.00001 8.83333C6.98668 8.83333 6.16668 8.01333 6.16668 7C6.16668 5.98667 6.98668 5.16667 8.00001 5.16667C9.01335 5.16667 9.83335 5.98667 9.83335 7C9.83335 8.01333 9.01335 8.83333 8.00001 8.83333ZM8.00001 6.16667C7.54001 6.16667 7.16668 6.54 7.16668 7C7.16668 7.46 7.54001 7.83333 8.00001 7.83333C8.46001 7.83333 8.83335 7.46 8.83335 7C8.83335 6.54 8.46001 6.16667 8.00001 6.16667Z" fill="currentColor"/>
<path d="M8.00001 10.8333C7.72668 10.8333 7.50001 10.6067 7.50001 10.3333V8.33333C7.50001 8.06 7.72668 7.83333 8.00001 7.83333C8.27335 7.83333 8.50001 8.06 8.50001 8.33333V10.3333C8.50001 10.6067 8.27335 10.8333 8.00001 10.8333Z" fill="currentColor"/>
</svg>
