<svg width="16" height="16" viewBox="0 0 16 16" fill="none" xmlns="http://www.w3.org/2000/svg">
<path d="M8.00028 15.1733C7.27361 15.1733 6.55362 14.9599 5.98695 14.5399L3.12027 12.3999C2.36027 11.8333 1.76694 10.6466 1.76694 9.7066V4.74663C1.76694 3.71996 2.52028 2.62663 3.48695 2.26663L6.81361 1.01996C7.47361 0.773294 8.51361 0.773294 9.17361 1.01996L12.5003 2.26663C13.4669 2.62663 14.2203 3.71996 14.2203 4.74663V9.69993C14.2203 10.6466 13.6269 11.8266 12.8669 12.3933L10.0003 14.5333C9.44694 14.9599 8.72694 15.1733 8.00028 15.1733ZM7.16694 1.95996L3.84028 3.20663C3.27362 3.41996 2.77361 4.13996 2.77361 4.75329V9.7066C2.77361 10.3399 3.22026 11.2266 3.72026 11.5999L6.58694 13.7399C7.35361 14.3133 8.64694 14.3133 9.42028 13.7399L12.2869 11.5999C12.7936 11.2199 13.2336 10.3399 13.2336 9.7066V4.74663C13.2336 4.13996 12.7336 3.41996 12.1669 3.19996L8.84028 1.95329C8.38694 1.79329 7.61361 1.79329 7.16694 1.95996Z" fill="currentColor"/>
<path d="M8.00001 10.8333C6.25334 10.8333 4.83334 9.41333 4.83334 7.66667C4.83334 5.92 6.25334 4.5 8.00001 4.5C9.74668 4.5 11.1667 5.92 11.1667 7.66667C11.1667 9.41333 9.74668 10.8333 8.00001 10.8333ZM8.00001 5.5C6.80668 5.5 5.83334 6.47333 5.83334 7.66667C5.83334 8.86 6.80668 9.83333 8.00001 9.83333C9.19334 9.83333 10.1667 8.86 10.1667 7.66667C10.1667 6.47333 9.19334 5.5 8.00001 5.5Z" fill="currentColor"/>
<path d="M7.33328 8.83333C7.16661 8.83333 6.99994 8.74667 6.90661 8.59333C6.76661 8.35333 6.83994 8.04667 7.07994 7.90667L7.58661 7.6C7.63994 7.56667 7.66661 7.51333 7.66661 7.46V6.84C7.66661 6.56667 7.89328 6.34001 8.16661 6.34001C8.43994 6.34001 8.66661 6.56001 8.66661 6.83333V7.45333C8.66661 7.86 8.44661 8.24667 8.09994 8.45333L7.58661 8.76C7.51328 8.81333 7.41994 8.83333 7.33328 8.83333Z" fill="currentColor"/>
</svg>
