<svg width="16" height="16" viewBox="0 0 16 16" fill="none" xmlns="http://www.w3.org/2000/svg">
<g clip-path="url(#clip0_2_5055)">
<path d="M9.99998 15.1667H5.99998C2.37998 15.1667 0.833313 13.62 0.833313 10V6C0.833313 2.38 2.37998 0.833336 5.99998 0.833336H9.99998C13.62 0.833336 15.1666 2.38 15.1666 6V10C15.1666 13.62 13.62 15.1667 9.99998 15.1667ZM5.99998 1.83334C2.92665 1.83334 1.83331 2.92667 1.83331 6V10C1.83331 13.0733 2.92665 14.1667 5.99998 14.1667H9.99998C13.0733 14.1667 14.1666 13.0733 14.1666 10V6C14.1666 2.92667 13.0733 1.83334 9.99998 1.83334H5.99998Z" fill="currentColor"/>
<path d="M9.99965 6.84C9.87298 6.84 9.74631 6.79327 9.64631 6.69327L7.99965 5.04664L6.35295 6.69327C6.15961 6.8866 5.83961 6.8866 5.64628 6.69327C5.45295 6.49997 5.45295 6.17997 5.64628 5.98664L7.64631 3.98664C7.83965 3.7933 8.15965 3.7933 8.35298 3.98664L10.353 5.98664C10.5463 6.17997 10.5463 6.49997 10.353 6.69327C10.253 6.79327 10.1263 6.84 9.99965 6.84Z" fill="currentColor"/>
<path d="M7.99998 10.1733C7.72665 10.1733 7.49998 9.94667 7.49998 9.67334V4.34001C7.49998 4.06668 7.72665 3.84001 7.99998 3.84001C8.27331 3.84001 8.49998 4.06668 8.49998 4.34001V9.67334C8.49998 9.95334 8.27331 10.1733 7.99998 10.1733Z" fill="currentColor"/>
<path d="M8.00025 12.1535C6.59361 12.1535 5.18027 11.9268 3.84027 11.4801C3.58027 11.3935 3.44027 11.1068 3.52693 10.8468C3.6136 10.5868 3.90028 10.4401 4.16028 10.5335C6.64028 11.3601 9.36691 11.3601 11.8469 10.5335C12.1069 10.4468 12.3936 10.5868 12.4802 10.8468C12.5669 11.1068 12.4269 11.3935 12.1669 11.4801C10.8202 11.9335 9.40691 12.1535 8.00025 12.1535Z" fill="currentColor"/>
</g>
<defs>
<clipPath id="clip0_2_5055">
<rect width="16" height="16" fill="currentColor"/>
</clipPath>
</defs>
</svg>
