<svg width="16" height="16" viewBox="0 0 16 16" fill="none" xmlns="http://www.w3.org/2000/svg">
<path d="M3.60661 14.4999C2.85995 14.4999 2.38661 14.2466 2.08661 13.9466C1.49995 13.3599 1.08661 12.1133 2.40661 9.4666L2.98661 8.31326C3.05995 8.15993 3.05995 7.83993 2.98661 7.6866L2.40661 6.53326C1.07995 3.8866 1.49995 2.63326 2.08661 2.05326C2.66661 1.4666 3.91995 1.0466 6.55995 2.37326L12.2666 5.2266C13.6866 5.93326 14.4666 6.91993 14.4666 7.99993C14.4666 9.07993 13.6866 10.0666 12.2732 10.7733L6.56661 13.6266C5.27328 14.2733 4.31328 14.4999 3.60661 14.4999ZM3.60661 2.49993C3.24661 2.49993 2.96661 2.5866 2.79328 2.75993C2.30661 3.23993 2.49995 4.4866 3.29995 6.07993L3.87995 7.23993C4.09328 7.67326 4.09328 8.3266 3.87995 8.75993L3.29995 9.91326C2.49995 11.5133 2.30661 12.7533 2.79328 13.2333C3.27328 13.7199 4.51995 13.5266 6.11995 12.7266L11.8266 9.87326C12.8732 9.35326 13.4666 8.6666 13.4666 7.99326C13.4666 7.31993 12.8666 6.63326 11.8199 6.11326L6.11328 3.2666C5.09995 2.75993 4.22661 2.49993 3.60661 2.49993Z" fill="currentColor"/>
<path d="M7.22631 8.5H3.62628C3.35295 8.5 3.12628 8.27333 3.12628 8C3.12628 7.72666 3.35295 7.5 3.62628 7.5H7.22631C7.49965 7.5 7.72631 7.72666 7.72631 8C7.72631 8.27333 7.49965 8.5 7.22631 8.5Z" fill="currentColor"/>
</svg>
