<svg width="16" height="16" viewBox="0 0 16 16" fill="none" xmlns="http://www.w3.org/2000/svg">
<path d="M9.48058 14.4201C8.69391 14.4201 7.58058 13.8667 6.70058 11.2201L6.22055 9.78007L4.78055 9.30007C2.14055 8.42007 1.58722 7.30673 1.58722 6.52005C1.58722 5.74005 2.14055 4.62005 4.78055 3.73338L10.4406 1.84671C11.8539 1.37338 13.0339 1.51338 13.7606 2.23338C14.4872 2.95338 14.6272 4.14005 14.1539 5.55338L12.2672 11.2134C11.3806 13.8667 10.2672 14.4201 9.48058 14.4201ZM5.09389 4.68671C3.24055 5.30671 2.58055 6.04005 2.58055 6.52005C2.58055 7.00007 3.24055 7.7334 5.09389 8.34673L6.77391 8.90673C6.92058 8.9534 7.04058 9.0734 7.08725 9.22007L7.64725 10.9001C8.26058 12.7534 9.00058 13.4134 9.48058 13.4134C9.96058 13.4134 10.6939 12.7534 11.3139 10.9001L13.2006 5.24005C13.5406 4.21338 13.4806 3.37338 13.0472 2.94005C12.6139 2.50671 11.7739 2.45338 10.7539 2.79338L5.09389 4.68671Z" fill="currentColor"/>
<path d="M6.74051 9.6C6.61383 9.6 6.48717 9.55333 6.38717 9.45333C6.19383 9.26 6.19383 8.94 6.38717 8.74667L8.77385 6.35333C8.96718 6.16 9.28718 6.16 9.48051 6.35333C9.67385 6.54667 9.67385 6.86667 9.48051 7.06L7.09385 9.45333C7.00051 9.55333 6.86718 9.6 6.74051 9.6Z" fill="currentColor"/>
</svg>
