<svg width="16" height="16" viewBox="0 0 16 16" fill="none" xmlns="http://www.w3.org/2000/svg">
<path d="M13.6666 15.1667H2.33331C2.05998 15.1667 1.83331 14.94 1.83331 14.6667C1.83331 14.3933 2.05998 14.1667 2.33331 14.1667H13.6666C13.94 14.1667 14.1666 14.3933 14.1666 14.6667C14.1666 14.94 13.94 15.1667 13.6666 15.1667Z" fill="currentColor"/>
<path d="M12.6663 12.1666C12.5396 12.1666 12.413 12.1199 12.313 12.0199L2.97961 2.68663C2.78628 2.4933 2.78628 2.1733 2.97961 1.97996C3.17295 1.78663 3.49295 1.78663 3.68628 1.97996L13.0196 11.3133C13.213 11.5066 13.213 11.8266 13.0196 12.0199C12.9196 12.1199 12.793 12.1666 12.6663 12.1666Z" fill="currentColor"/>
<path d="M3.33331 9.68C3.05998 9.68 2.83331 9.45334 2.83331 9.18V2.33334C2.83331 2.06 3.05998 1.83334 3.33331 1.83334H10.18C10.4533 1.83334 10.68 2.06 10.68 2.33334C10.68 2.60667 10.4533 2.83334 10.18 2.83334H3.83331V9.18C3.83331 9.45334 3.60665 9.68 3.33331 9.68Z" fill="currentColor"/>
</svg>
