<svg width="16" height="16" viewBox="0 0 16 16" fill="none" xmlns="http://www.w3.org/2000/svg">
<path d="M8.00012 15.0865C7.55345 15.0865 7.10012 14.9865 6.74678 14.7799L3.08014 12.6665C1.5868 11.6599 1.49347 11.5065 1.49347 9.92654V6.0732C1.49347 4.4932 1.58014 4.33987 3.0468 3.34654L6.74012 1.2132C7.44012 0.806536 8.54012 0.806536 9.24012 1.2132L12.9201 3.3332C14.4134 4.33987 14.5068 4.4932 14.5068 6.0732V9.91987C14.5068 11.4999 14.4201 11.6532 12.9534 12.6465L9.26012 14.7799C8.90012 14.9865 8.44678 15.0865 8.00012 15.0865ZM8.00012 1.9132C7.72012 1.9132 7.44678 1.96654 7.25345 2.07987L3.5868 4.19987C2.50014 4.9332 2.50014 4.9332 2.50014 6.0732V9.91987C2.50014 11.0599 2.50014 11.0599 3.61347 11.8132L7.25345 13.9132C7.64678 14.1399 8.36012 14.1399 8.75345 13.9132L12.4201 11.7932C13.5001 11.0599 13.5001 11.0599 13.5001 9.91987V6.0732C13.5001 4.9332 13.5001 4.9332 12.3868 4.17987L8.74678 2.07987C8.55345 1.96654 8.28012 1.9132 8.00012 1.9132Z" fill="currentColor"/>
<path d="M7.99998 10.5C6.61998 10.5 5.49998 9.38 5.49998 8C5.49998 6.62 6.61998 5.5 7.99998 5.5C9.37998 5.5 10.5 6.62 10.5 8C10.5 9.38 9.37998 10.5 7.99998 10.5ZM7.99998 6.5C7.17332 6.5 6.49998 7.17334 6.49998 8C6.49998 8.82667 7.17332 9.5 7.99998 9.5C8.82665 9.5 9.49998 8.82667 9.49998 8C9.49998 7.17334 8.82665 6.5 7.99998 6.5Z" fill="currentColor"/>
</svg>
