<svg width="16" height="16" viewBox="0 0 16 16" fill="none" xmlns="http://www.w3.org/2000/svg">
<path d="M12.6667 15.1667C12.3933 15.1667 12.1667 14.94 12.1667 14.6667V7.33333C12.1667 7.05999 12.3933 6.83333 12.6667 6.83333C12.94 6.83333 13.1667 7.05999 13.1667 7.33333V14.6667C13.1667 14.94 12.94 15.1667 12.6667 15.1667Z" fill="currentColor"/>
<path d="M12.6667 5.16666C12.3933 5.16666 12.1667 4.93999 12.1667 4.66666V1.33333C12.1667 1.05999 12.3933 0.833328 12.6667 0.833328C12.94 0.833328 13.1667 1.05999 13.1667 1.33333V4.66666C13.1667 4.93999 12.94 5.16666 12.6667 5.16666Z" fill="currentColor"/>
<path d="M8 15.1667C7.72667 15.1667 7.5 14.94 7.5 14.6667V11.3333C7.5 11.06 7.72667 10.8333 8 10.8333C8.27333 10.8333 8.5 11.06 8.5 11.3333V14.6667C8.5 14.94 8.27333 15.1667 8 15.1667Z" fill="currentColor"/>
<path d="M8 9.16666C7.72667 9.16666 7.5 8.93999 7.5 8.66666V1.33333C7.5 1.05999 7.72667 0.833328 8 0.833328C8.27333 0.833328 8.5 1.05999 8.5 1.33333V8.66666C8.5 8.93999 8.27333 9.16666 8 9.16666Z" fill="currentColor"/>
<path d="M3.33333 15.1667C3.06 15.1667 2.83333 14.94 2.83333 14.6667V7.33333C2.83333 7.05999 3.06 6.83333 3.33333 6.83333C3.60667 6.83333 3.83333 7.05999 3.83333 7.33333V14.6667C3.83333 14.94 3.60667 15.1667 3.33333 15.1667Z" fill="currentColor"/>
<path d="M3.33333 5.16666C3.06 5.16666 2.83333 4.93999 2.83333 4.66666V1.33333C2.83333 1.05999 3.06 0.833328 3.33333 0.833328C3.60667 0.833328 3.83333 1.05999 3.83333 1.33333V4.66666C3.83333 4.93999 3.60667 5.16666 3.33333 5.16666Z" fill="currentColor"/>
<path d="M4.66667 7.83333H2C1.72667 7.83333 1.5 7.60666 1.5 7.33333C1.5 7.05999 1.72667 6.83333 2 6.83333H4.66667C4.94 6.83333 5.16667 7.05999 5.16667 7.33333C5.16667 7.60666 4.94 7.83333 4.66667 7.83333Z" fill="currentColor"/>
<path d="M14 7.83333H11.3333C11.06 7.83333 10.8333 7.60666 10.8333 7.33333C10.8333 7.05999 11.06 6.83333 11.3333 6.83333H14C14.2733 6.83333 14.5 7.05999 14.5 7.33333C14.5 7.60666 14.2733 7.83333 14 7.83333Z" fill="currentColor"/>
<path d="M9.33333 9.16666H6.66667C6.39333 9.16666 6.16667 8.93999 6.16667 8.66666C6.16667 8.39333 6.39333 8.16666 6.66667 8.16666H9.33333C9.60667 8.16666 9.83333 8.39333 9.83333 8.66666C9.83333 8.93999 9.60667 9.16666 9.33333 9.16666Z" fill="currentColor"/>
</svg>
