<svg width="16" height="16" viewBox="0 0 16 16" fill="none" xmlns="http://www.w3.org/2000/svg">
<path d="M7.99998 11.5C6.07331 11.5 4.49998 9.93333 4.49998 8C4.49998 6.06667 6.07331 4.5 7.99998 4.5C9.92665 4.5 11.5 6.06667 11.5 8C11.5 9.93333 9.92665 11.5 7.99998 11.5ZM7.99998 5.5C6.61998 5.5 5.49998 6.62 5.49998 8C5.49998 9.38 6.61998 10.5 7.99998 10.5C9.37998 10.5 10.5 9.38 10.5 8C10.5 6.62 9.37998 5.5 7.99998 5.5Z" fill="currentColor"/>
<path d="M4.66665 8.5H1.33331C1.05998 8.5 0.833313 8.27333 0.833313 8C0.833313 7.72667 1.05998 7.5 1.33331 7.5H4.66665C4.93998 7.5 5.16665 7.72667 5.16665 8C5.16665 8.27333 4.93998 8.5 4.66665 8.5Z" fill="currentColor"/>
<path d="M14.6666 8.5H11.3333C11.06 8.5 10.8333 8.27333 10.8333 8C10.8333 7.72667 11.06 7.5 11.3333 7.5H14.6666C14.94 7.5 15.1666 7.72667 15.1666 8C15.1666 8.27333 14.94 8.5 14.6666 8.5Z" fill="currentColor"/>
</svg>
