<svg width="16" height="16" viewBox="0 0 16 16" fill="none" xmlns="http://www.w3.org/2000/svg">
<path d="M7.99998 10.5C6.61998 10.5 5.49998 9.38 5.49998 8C5.49998 6.62 6.61998 5.5 7.99998 5.5C9.37998 5.5 10.5 6.62 10.5 8C10.5 9.38 9.37998 10.5 7.99998 10.5ZM7.99998 6.5C7.17331 6.5 6.49998 7.17333 6.49998 8C6.49998 8.82667 7.17331 9.5 7.99998 9.5C8.82665 9.5 9.49998 8.82667 9.49998 8C9.49998 7.17333 8.82665 6.5 7.99998 6.5Z" fill="currentColor"/>
<path d="M10.14 14.7932C9.99998 14.7932 9.85998 14.7732 9.71998 14.7399C9.30665 14.6265 8.95998 14.3665 8.73998 13.9999L8.65998 13.8665C8.26665 13.1865 7.72665 13.1865 7.33331 13.8665L7.25998 13.9932C7.03998 14.3665 6.69331 14.6332 6.27998 14.7399C5.85998 14.8532 5.42665 14.7932 5.05998 14.5732L3.91331 13.9132C3.50665 13.6799 3.21331 13.2999 3.08665 12.8399C2.96665 12.3799 3.02665 11.9065 3.25998 11.4999C3.45331 11.1599 3.50665 10.8532 3.39331 10.6599C3.27998 10.4665 2.99331 10.3532 2.59998 10.3532C1.62665 10.3532 0.833313 9.55987 0.833313 8.58653V7.4132C0.833313 6.43987 1.62665 5.64653 2.59998 5.64653C2.99331 5.64653 3.27998 5.5332 3.39331 5.33987C3.50665 5.14653 3.45998 4.83987 3.25998 4.49987C3.02665 4.0932 2.96665 3.6132 3.08665 3.15987C3.20665 2.69987 3.49998 2.31987 3.91331 2.08653L5.06665 1.42653C5.81998 0.979865 6.81331 1.23987 7.26665 2.00653L7.34665 2.13987C7.73998 2.81987 8.27998 2.81987 8.67331 2.13987L8.74665 2.0132C9.19998 1.23987 10.1933 0.979865 10.9533 1.4332L12.1 2.0932C12.5066 2.32653 12.8 2.70653 12.9266 3.16653C13.0466 3.62653 12.9866 4.09987 12.7533 4.50653C12.56 4.84653 12.5066 5.1532 12.62 5.34653C12.7333 5.53987 13.02 5.6532 13.4133 5.6532C14.3866 5.6532 15.18 6.44653 15.18 7.41987V8.5932C15.18 9.56653 14.3866 10.3599 13.4133 10.3599C13.02 10.3599 12.7333 10.4732 12.62 10.6665C12.5066 10.8599 12.5533 11.1665 12.7533 11.5065C12.9866 11.9132 13.0533 12.3932 12.9266 12.8465C12.8066 13.3065 12.5133 13.6865 12.1 13.9199L10.9466 14.5799C10.6933 14.7199 10.42 14.7932 10.14 14.7932ZM7.99998 12.3265C8.59331 12.3265 9.14665 12.6999 9.52665 13.3599L9.59998 13.4865C9.67998 13.6265 9.81331 13.7265 9.97331 13.7665C10.1333 13.8065 10.2933 13.7865 10.4266 13.7065L11.58 13.0399C11.7533 12.9399 11.8866 12.7732 11.94 12.5732C11.9933 12.3732 11.9666 12.1665 11.8666 11.9932C11.4866 11.3399 11.44 10.6665 11.7333 10.1532C12.0266 9.63987 12.6333 9.34653 13.3933 9.34653C13.82 9.34653 14.16 9.00653 14.16 8.57987V7.40653C14.16 6.98653 13.82 6.63987 13.3933 6.63987C12.6333 6.63987 12.0266 6.34653 11.7333 5.8332C11.44 5.31987 11.4866 4.64653 11.8666 3.9932C11.9666 3.81987 11.9933 3.6132 11.94 3.4132C11.8866 3.2132 11.76 3.0532 11.5866 2.94653L10.4333 2.28653C10.1466 2.1132 9.76665 2.2132 9.59331 2.50653L9.51998 2.6332C9.13998 3.2932 8.58665 3.66653 7.99331 3.66653C7.39998 3.66653 6.84665 3.2932 6.46665 2.6332L6.39331 2.49987C6.22665 2.21987 5.85331 2.11987 5.56665 2.28653L4.41331 2.9532C4.23998 3.0532 4.10665 3.21987 4.05331 3.41987C3.99998 3.61987 4.02665 3.82653 4.12665 3.99987C4.50665 4.6532 4.55331 5.32653 4.25998 5.83987C3.96665 6.3532 3.35998 6.64653 2.59998 6.64653C2.17331 6.64653 1.83331 6.98653 1.83331 7.4132V8.58653C1.83331 9.00653 2.17331 9.3532 2.59998 9.3532C3.35998 9.3532 3.96665 9.64653 4.25998 10.1599C4.55331 10.6732 4.50665 11.3465 4.12665 11.9999C4.02665 12.1732 3.99998 12.3799 4.05331 12.5799C4.10665 12.7799 4.23331 12.9399 4.40665 13.0465L5.55998 13.7065C5.69998 13.7932 5.86665 13.8132 6.01998 13.7732C6.17998 13.7332 6.31331 13.6265 6.39998 13.4865L6.47331 13.3599C6.85331 12.7065 7.40665 12.3265 7.99998 12.3265Z" fill="currentColor"/>
</svg>
