<svg width="16" height="16" viewBox="0 0 16 16" fill="none" xmlns="http://www.w3.org/2000/svg">
<g clip-path="url(#clip0_2_4627)">
<path d="M9.99998 15.1667H5.99998C2.37998 15.1667 0.833313 13.62 0.833313 9.99999V5.99999C0.833313 2.37999 2.37998 0.833328 5.99998 0.833328H9.99998C13.62 0.833328 15.1666 2.37999 15.1666 5.99999V9.99999C15.1666 13.62 13.62 15.1667 9.99998 15.1667ZM5.99998 1.83333C2.92665 1.83333 1.83331 2.92666 1.83331 5.99999V9.99999C1.83331 13.0733 2.92665 14.1667 5.99998 14.1667H9.99998C13.0733 14.1667 14.1666 13.0733 14.1666 9.99999V5.99999C14.1666 2.92666 13.0733 1.83333 9.99998 1.83333H5.99998Z" fill="currentColor"/>
<path d="M10.3867 12.8334C10.1134 12.8334 9.88671 12.6067 9.88671 12.3334V9.73339C9.88671 9.46006 10.1134 9.23339 10.3867 9.23339C10.66 9.23339 10.8867 9.46006 10.8867 9.73339V12.3334C10.8867 12.6067 10.66 12.8334 10.3867 12.8334Z" fill="currentColor"/>
<path d="M10.3867 5.46666C10.1134 5.46666 9.88671 5.23999 9.88671 4.96666V3.66666C9.88671 3.39333 10.1134 3.16666 10.3867 3.16666C10.66 3.16666 10.8867 3.39333 10.8867 3.66666V4.96666C10.8867 5.23999 10.66 5.46666 10.3867 5.46666Z" fill="currentColor"/>
<path d="M10.387 8.93346C9.15365 8.93346 8.15365 7.93346 8.15365 6.70013C8.15365 5.46679 9.15365 4.46679 10.387 4.46679C11.6203 4.46679 12.6203 5.46679 12.6203 6.70013C12.6203 7.93346 11.6136 8.93346 10.387 8.93346ZM10.3867 5.46666C9.70671 5.46666 9.15365 6.02013 9.15365 6.70013C9.15365 7.38013 9.70698 7.93346 10.387 7.93346C11.067 7.93346 11.6203 7.38013 11.6203 6.70013C11.6203 6.02013 11.06 5.46666 10.3867 5.46666Z" fill="currentColor"/>
<path d="M5.61326 12.8332C5.33993 12.8332 5.11326 12.6065 5.11326 12.3332V11.0332C5.11326 10.7599 5.33993 10.5332 5.61326 10.5332C5.88659 10.5332 6.11326 10.7599 6.11326 11.0332V12.3332C6.11326 12.6065 5.89326 12.8332 5.61326 12.8332Z" fill="currentColor"/>
<path d="M5.61326 6.76666C5.33993 6.76666 5.11326 6.53999 5.11326 6.26666V3.66666C5.11326 3.39333 5.33993 3.16666 5.61326 3.16666C5.88659 3.16666 6.11326 3.39333 6.11326 3.66666V6.26666C6.11326 6.53999 5.89326 6.76666 5.61326 6.76666Z" fill="currentColor"/>
<path d="M5.61352 11.5334C4.38019 11.5334 3.38019 10.5334 3.38019 9.30006C3.38019 8.06673 4.38019 7.06673 5.61352 7.06673C6.84685 7.06673 7.84685 8.06673 7.84685 9.30006C7.84685 10.5334 6.84685 11.5334 5.61352 11.5334ZM5.61352 8.06673C4.93352 8.06673 4.38019 8.62006 4.38019 9.30006C4.38019 9.98006 4.93326 10.5332 5.61326 10.5332C6.29326 10.5332 6.84685 9.98006 6.84685 9.30006C6.84685 8.62006 6.30019 8.06673 5.61352 8.06673Z" fill="currentColor"/>
</g>
<defs>
<clipPath id="clip0_2_4627">
<rect width="16" height="16" fill="currentColor"/>
</clipPath>
</defs>
</svg>
