<svg width="16" height="16" viewBox="0 0 16 16" fill="none" xmlns="http://www.w3.org/2000/svg">
<g clip-path="url(#clip0_2_4848)">
<path d="M8.95313 10.5001H2.93314C2.18647 10.5001 1.50647 10.1135 1.12647 9.46686C0.746474 8.82019 0.73314 8.04679 1.09314 7.38679L4.09981 1.91349C4.47314 1.23349 5.15981 0.826813 5.93981 0.826813C6.7198 0.826813 7.40647 1.23349 7.7798 1.91349L10.7931 7.38679C11.1531 8.04013 11.1398 8.82019 10.7598 9.46686C10.3798 10.1135 9.6998 10.5001 8.95313 10.5001ZM5.93981 1.83349C5.53314 1.83349 5.17314 2.04683 4.97981 2.40016L1.97314 7.87346C1.78647 8.22013 1.79314 8.62013 1.98647 8.96013C2.18647 9.30013 2.53981 9.50013 2.93314 9.50013H8.95313C9.34647 9.50013 9.6998 9.30013 9.8998 8.96013C10.0998 8.62013 10.1065 8.22013 9.91313 7.87346L6.8998 2.40016C6.70647 2.04683 6.34647 1.83349 5.93981 1.83349Z" fill="currentColor"/>
<path d="M10.3333 15.1667C7.66667 15.1667 5.5 13 5.5 10.3333C5.5 10.2133 5.50667 10.0933 5.51333 9.97333C5.52667 9.70666 5.74667 9.49999 6.01333 9.49999L8.95313 9.50013C9.34647 9.50013 9.6998 9.30013 9.8998 8.96013C10.0998 8.62013 10.1065 8.22013 9.91313 7.87346L9.06 6.32C8.98 6.18 8.98 6.01332 9.04667 5.86665C9.11333 5.71999 9.24667 5.61999 9.4 5.58666C9.7 5.52666 10.0133 5.49999 10.3333 5.49999C13 5.49999 15.1667 7.66666 15.1667 10.3333C15.1667 13 13 15.1667 10.3333 15.1667ZM6.50667 10.5C6.59333 12.54 8.28 14.1667 10.3333 14.1667C12.4467 14.1667 14.1667 12.4467 14.1667 10.3333C14.1667 8.21999 12.4467 6.49999 10.3333 6.49999C10.32 6.49999 10.3133 6.49999 10.3 6.49999L10.7933 7.39333C11.1533 8.04666 11.14 8.82666 10.76 9.47333C10.38 10.12 9.70667 10.5067 8.95333 10.5067H6.50667V10.5Z" fill="currentColor"/>
</g>
<defs>
<clipPath id="clip0_2_4848">
<rect width="16" height="16" fill="currentColor"/>
</clipPath>
</defs>
</svg>
