<svg width="16" height="16" viewBox="0 0 16 16" fill="none" xmlns="http://www.w3.org/2000/svg">
<g clip-path="url(#clip0_2_5150)">
<path d="M7.81378 15.1667H4.81378C2.04712 15.1667 0.813782 13.9333 0.813782 11.1667V8.16666C0.813782 5.4 2.04712 4.16666 4.81378 4.16666H7.81378C10.5804 4.16666 11.8138 5.4 11.8138 8.16666V11.1667C11.8138 13.9333 10.5804 15.1667 7.81378 15.1667ZM4.81378 5.16666C2.60045 5.16666 1.81378 5.95333 1.81378 8.16666V11.1667C1.81378 13.38 2.60045 14.1667 4.81378 14.1667H7.81378C10.0271 14.1667 10.8138 13.38 10.8138 11.1667V8.16666C10.8138 5.95333 10.0271 5.16666 7.81378 5.16666H4.81378Z" fill="currentColor"/>
<path d="M11.3128 9.14653C11.1861 9.14653 11.0661 9.09986 10.9728 9.0132C10.8661 8.91986 10.8128 8.78653 10.8128 8.64653L10.8138 8.16666C10.8138 5.95333 10.0271 5.16666 7.81378 5.16666L7.33278 5.16651C7.19278 5.16651 7.05945 5.10651 6.96611 5.00651C6.87278 4.89984 6.82612 4.76651 6.83945 4.62651C7.03278 2.46651 8.81278 0.839844 10.9861 0.839844C13.0661 0.839844 14.8394 2.39318 15.1061 4.45318C15.1328 4.61318 15.1528 4.80651 15.1528 5.00651C15.1528 7.17986 13.5261 8.95986 11.3661 9.1532C11.3461 9.14653 11.3328 9.14653 11.3128 9.14653ZM7.92612 4.16651C10.5728 4.19984 11.7794 5.39984 11.8128 8.0532C13.1728 7.6932 14.1461 6.45984 14.1461 4.99984C14.1461 4.85984 14.1328 4.72651 14.1128 4.59984C13.9061 3.01318 12.5594 1.83318 10.9794 1.83318C9.51945 1.83318 8.29278 2.80651 7.92612 4.16651Z" fill="currentColor"/>
</g>
<defs>
<clipPath id="clip0_2_5150">
<rect width="16" height="16" fill="currentColor"/>
</clipPath>
</defs>
</svg>
