<svg width="16" height="16" viewBox="0 0 16 16" fill="none" xmlns="http://www.w3.org/2000/svg">
<path d="M5.6 7.93333C5.6 9.26667 4.53333 10.2667 3.26667 10.2667C2 10.2667 0.933334 9.2 0.933334 7.93333C0.933334 6.66667 2 5.6 3.26667 5.6C4.53333 5.6 5.6 6.66667 5.6 7.93333ZM1.93333 7.93333C1.93333 8.66667 2.53333 9.26667 3.26667 9.26667C4 9.26667 4.6 8.66667 4.6 7.93333C4.6 7.2 4 6.6 3.26667 6.6C2.53333 6.6 1.93333 7.2 1.93333 7.93333Z" fill="currentColor"/>
<path d="M13.8 12.8C13.8 14.1333 12.7333 15.1333 11.4667 15.1333C10.2 15.1333 9.13334 14.0667 9.13334 12.8C9.13334 11.5333 10.2 10.4667 11.4667 10.4667C12.7333 10.4667 13.8 11.5333 13.8 12.8ZM10.0667 12.8C10.0667 13.5333 10.6667 14.1333 11.4 14.1333C12.1333 14.1333 12.7333 13.5333 12.7333 12.8C12.7333 12.0667 12.1333 11.4667 11.4 11.4667C10.6667 11.4667 10.0667 12.0667 10.0667 12.8Z" fill="currentColor"/>
<path d="M13.8 3.2C13.8 4.53334 12.7333 5.53334 11.4667 5.53334C10.2 5.53334 9.13334 4.46667 9.13334 3.2C9.13334 1.93334 10.2 0.866669 11.4667 0.866669C12.7333 0.866669 13.8 1.93334 13.8 3.2ZM10.0667 3.2C10.0667 3.93334 10.6667 4.53334 11.4 4.53334C12.1333 4.53334 12.7333 3.93334 12.7333 3.2C12.7333 2.46667 12.1333 1.86667 11.4 1.86667C10.6667 1.86667 10.0667 2.46667 10.0667 3.2Z" fill="currentColor"/>
<path d="M9.86667 12.2667C9.73334 12.5333 9.4 12.6 9.2 12.4667L4.73333 9.8C4.46667 9.66667 4.4 9.33333 4.53333 9.13333C4.66667 8.93333 5 8.8 5.2 8.93333L9.66667 11.6C9.93334 11.7333 10 12.0667 9.86667 12.2667Z" fill="currentColor"/>
<path d="M9.86667 3.8C10 4.06667 9.86667 4.33333 9.66667 4.46667L5.13333 7C4.86667 7.13333 4.6 7 4.46667 6.8C4.33333 6.6 4.46667 6.26667 4.66667 6.13333L9.2 3.6C9.46667 3.46667 9.73334 3.6 9.86667 3.8Z" fill="currentColor"/>
</svg>
