<svg width="16" height="16" viewBox="0 0 16 16" fill="none" xmlns="http://www.w3.org/2000/svg">
<g clip-path="url(#clip0_2_5153)">
<path d="M13.7464 8.7134C13.4931 8.7134 13.2797 8.52007 13.2464 8.26673C13.0864 6.76007 12.2731 5.3934 11.0197 4.52674C10.7931 4.36673 10.7397 4.06007 10.8931 3.8334C11.0531 3.60674 11.3664 3.5534 11.5864 3.70674C13.0797 4.74007 14.0397 6.36673 14.2331 8.16007C14.2597 8.4334 14.0664 8.68007 13.7864 8.7134C13.7797 8.7134 13.7597 8.7134 13.7464 8.7134Z" fill="currentColor"/>
<path d="M2.32661 8.74667C2.30661 8.74667 2.29327 8.74667 2.27327 8.74667C1.99994 8.71333 1.79994 8.46667 1.82661 8.19333C2.00661 6.40001 2.95994 4.78001 4.43327 3.73334C4.65994 3.57334 4.97327 3.62668 5.13327 3.85334C5.29327 4.08001 5.23994 4.39334 5.01327 4.55334C3.77327 5.42667 2.97327 6.79333 2.81994 8.3C2.79994 8.55333 2.57994 8.74667 2.32661 8.74667Z" fill="currentColor"/>
<path d="M8.04 15.0733C7.05333 15.0733 6.11331 14.8467 5.23331 14.4067C4.98665 14.28 4.88665 13.98 5.01331 13.7333C5.13998 13.4867 5.43998 13.3867 5.68665 13.5133C7.12667 14.24 8.86 14.2533 10.3133 13.5533C10.56 13.4333 10.86 13.54 10.98 13.7867C11.1 14.0333 10.9933 14.3333 10.7467 14.4533C9.89334 14.8667 8.98667 15.0733 8.04 15.0733Z" fill="currentColor"/>
<path d="M8.03953 5.62659C6.73953 5.62659 5.6862 4.57326 5.6862 3.27326C5.6862 1.97326 6.73953 0.919922 8.03953 0.919922C9.33953 0.919922 10.3929 1.97326 10.3929 3.27326C10.3929 4.57326 9.33287 5.62659 8.03953 5.62659ZM8.03953 1.92659C7.29287 1.92659 6.6862 2.53326 6.6862 3.27992C6.6862 4.02659 7.29287 4.63326 8.03953 4.63326C8.7862 4.63326 9.39287 4.02659 9.39287 3.27992C9.39287 2.53326 8.77953 1.92659 8.03953 1.92659Z" fill="currentColor"/>
<path d="M3.22052 13.7801C1.92052 13.7801 0.867188 12.7267 0.867188 11.4267C0.867188 10.1334 1.92052 9.0734 3.22052 9.0734C4.52052 9.0734 5.57385 10.1267 5.57385 11.4267C5.57385 12.7201 4.52052 13.7801 3.22052 13.7801ZM3.22052 10.0734C2.47385 10.0734 1.86719 10.6801 1.86719 11.4267C1.86719 12.1734 2.47385 12.7801 3.22052 12.7801C3.96719 12.7801 4.57385 12.1734 4.57385 11.4267C4.57385 10.6801 3.96719 10.0734 3.22052 10.0734Z" fill="currentColor"/>
<path d="M12.7804 13.7801C11.4804 13.7801 10.4271 12.7267 10.4271 11.4267C10.4271 10.1334 11.4804 9.0734 12.7804 9.0734C14.0804 9.0734 15.1337 10.1267 15.1337 11.4267C15.1271 12.7201 14.0737 13.7801 12.7804 13.7801ZM12.7804 10.0734C12.0337 10.0734 11.4271 10.6801 11.4271 11.4267C11.4271 12.1734 12.0337 12.7801 12.7804 12.7801C13.5271 12.7801 14.1337 12.1734 14.1337 11.4267C14.1271 10.6801 13.5271 10.0734 12.7804 10.0734Z" fill="currentColor"/>
</g>
<defs>
<clipPath id="clip0_2_5153">
<rect width="16" height="16" fill="currentColor"/>
</clipPath>
</defs>
</svg>
