<svg width="16" height="16" viewBox="0 0 16 16" fill="none" xmlns="http://www.w3.org/2000/svg">
<path d="M8.00028 15.1666C7.24694 15.1666 6.52694 14.9466 5.98694 14.5399L3.12027 12.3999C2.36027 11.8333 1.76694 10.6533 1.76694 9.7066V4.74663C1.76694 3.71996 2.52027 2.62663 3.48694 2.26663L6.81361 1.01996C7.47361 0.773294 8.51361 0.773294 9.17361 1.01996L12.5069 2.26663C13.4736 2.62663 14.2269 3.71996 14.2269 4.74663V7.03327C14.2269 7.3066 14.0003 7.53327 13.7269 7.53327C13.4536 7.53327 13.2269 7.3066 13.2269 7.03327V4.74663C13.2269 4.13996 12.7269 3.41996 12.1536 3.19996L8.82694 1.95329C8.38694 1.78663 7.60694 1.78663 7.16694 1.95329L3.84027 3.20663C3.26694 3.41996 2.76694 4.13996 2.76694 4.75329V9.7066C2.76694 10.3399 3.2136 11.2266 3.7136 11.5999L6.58027 13.7399C6.94694 14.0133 7.46028 14.1666 7.99361 14.1666C8.26694 14.1666 8.49361 14.3933 8.49361 14.6666C8.49361 14.9399 8.27361 15.1666 8.00028 15.1666Z" fill="currentColor"/>
<path d="M10.6667 13.8333C8.92001 13.8333 7.50001 12.4133 7.50001 10.6667C7.50001 8.92 8.92001 7.5 10.6667 7.5C12.4133 7.5 13.8333 8.92 13.8333 10.6667C13.8333 12.4133 12.4133 13.8333 10.6667 13.8333ZM10.6667 8.50667C9.47334 8.50667 8.50001 9.48 8.50001 10.6733C8.50001 11.8667 9.47334 12.84 10.6667 12.84C11.86 12.84 12.8333 11.8667 12.8333 10.6733C12.8333 9.48 11.86 8.50667 10.6667 8.50667Z" fill="currentColor"/>
<path d="M14 14.6667C13.9533 14.6667 13.9133 14.6599 13.8667 14.6533C13.8267 14.6466 13.7867 14.6333 13.7467 14.6133C13.7067 14.6 13.6667 14.58 13.6267 14.5533C13.5933 14.5267 13.56 14.4999 13.5267 14.4733C13.4067 14.3466 13.3333 14.1733 13.3333 14C13.3333 13.9133 13.3533 13.8267 13.3867 13.7467C13.42 13.6667 13.4667 13.5933 13.5267 13.5267C13.7733 13.28 14.2267 13.28 14.4733 13.5267C14.5333 13.5933 14.58 13.6667 14.6133 13.7467C14.6467 13.8267 14.6667 13.9133 14.6667 14C14.6667 14.1733 14.5933 14.3466 14.4733 14.4733C14.3467 14.5933 14.1733 14.6667 14 14.6667Z" fill="currentColor"/>
</svg>
