<svg width="16" height="16" viewBox="0 0 16 16" fill="none" xmlns="http://www.w3.org/2000/svg">
<g clip-path="url(#clip0_2_5115)">
<path d="M8.00006 15.1734C7.27339 15.1734 6.5534 14.9601 5.98674 14.5401L4.92674 13.7467C4.70674 13.5801 4.66007 13.2667 4.82674 13.0467C4.9934 12.8267 5.30674 12.7801 5.52674 12.9467L6.58674 13.7401C7.35339 14.3134 8.65339 14.3134 9.42006 13.7401L12.2867 11.6001C12.7934 11.2201 13.2334 10.3334 13.2334 9.70673V4.74675C13.2334 4.47341 13.4601 4.24675 13.7334 4.24675C14.0067 4.24675 14.2334 4.47341 14.2334 4.74675V9.70007C14.2334 10.6467 13.6401 11.8267 12.8801 12.3934L10.0134 14.5334C9.44672 14.9601 8.72672 15.1734 8.00006 15.1734Z" fill="currentColor"/>
<path d="M3.55358 12.5999C3.44692 12.5999 3.34692 12.5666 3.25359 12.4999L3.12025 12.3999C2.36025 11.8333 1.76692 10.6466 1.76692 9.7066V4.74663C1.76692 3.71996 2.52025 2.62663 3.48692 2.26663L6.81359 1.01996C7.47359 0.773294 8.51359 0.773294 9.17359 1.01996L12.5069 2.26663C12.6469 2.31996 12.7803 2.38663 12.9136 2.46663C13.1469 2.61329 13.2203 2.91996 13.0736 3.15329C12.9269 3.38663 12.6203 3.45996 12.3869 3.31329C12.3136 3.26663 12.2403 3.22663 12.1603 3.19996L8.82692 1.95329C8.38692 1.78663 7.60692 1.78663 7.16692 1.95329L3.84025 3.20663C3.26692 3.41996 2.76692 4.13996 2.76692 4.75329V9.7066C2.76692 10.3399 3.21359 11.2266 3.71359 11.5999L3.84692 11.6999C4.06692 11.8666 4.11358 12.1799 3.94692 12.3999C3.86025 12.5266 3.70692 12.5999 3.55358 12.5999Z" fill="currentColor"/>
<path d="M1.33296 15.1666C1.20629 15.1666 1.07963 15.1199 0.979625 15.0199C0.786292 14.8266 0.786292 14.5066 0.979625 14.3133L14.313 0.979961C14.5063 0.786628 14.8263 0.786628 15.0197 0.979961C15.213 1.17329 15.213 1.49329 15.0197 1.68663L1.68629 15.0199C1.58629 15.1199 1.45963 15.1666 1.33296 15.1666Z" fill="currentColor"/>
</g>
<defs>
<clipPath id="clip0_2_5115">
<rect width="16" height="16" fill="currentColor"/>
</clipPath>
</defs>
</svg>
