<svg width="16" height="16" viewBox="0 0 16 16" fill="none" xmlns="http://www.w3.org/2000/svg">
<path d="M8.00028 15.1733C7.27361 15.1733 6.5536 14.9599 5.98694 14.5399L3.12027 12.3999C2.36027 11.8333 1.76694 10.6466 1.76694 9.7066V4.74663C1.76694 3.71996 2.52027 2.62663 3.48694 2.26663L6.81361 1.01996C7.47361 0.773294 8.51361 0.773294 9.17361 1.01996L12.5003 2.26663C13.4669 2.62663 14.2203 3.71996 14.2203 4.74663V9.69993C14.2203 10.6466 13.6269 11.8266 12.8669 12.3933L10.0003 14.5333C9.44694 14.9599 8.72694 15.1733 8.00028 15.1733ZM7.16694 1.95996L3.84027 3.20663C3.2736 3.41996 2.7736 4.13996 2.7736 4.75329V9.7066C2.7736 10.3399 3.22027 11.2266 3.72027 11.5999L6.58694 13.7399C7.35361 14.3133 8.64694 14.3133 9.42028 13.7399L12.2869 11.5999C12.7936 11.2199 13.2336 10.3399 13.2336 9.7066V4.74663C13.2336 4.13996 12.7336 3.41996 12.1669 3.19996L8.84028 1.95329C8.38694 1.79329 7.61361 1.79329 7.16694 1.95996Z" fill="currentColor"/>
<path d="M7.10681 9.48673C6.98014 9.48673 6.85348 9.44007 6.75348 9.34007L5.68016 8.26673C5.48683 8.0734 5.48683 7.7534 5.68016 7.56007C5.8735 7.36673 6.1935 7.36673 6.38683 7.56007L7.10681 8.28007L9.62014 5.76675C9.81348 5.57341 10.1335 5.57341 10.3268 5.76675C10.5201 5.96008 10.5201 6.28008 10.3268 6.47341L7.46014 9.34007C7.36014 9.44007 7.23348 9.48673 7.10681 9.48673Z" fill="currentColor"/>
</svg>
