<svg width="16" height="16" viewBox="0 0 16 16" fill="none" xmlns="http://www.w3.org/2000/svg">
<path d="M9.58652 15.1667H6.41317C3.89317 15.1667 1.91317 13.58 1.3665 11.12L1.09318 9.87999C0.906518 9.02666 1.39317 8.10666 2.19984 7.77999L6.81986 5.92665C7.57986 5.62665 8.41986 5.62665 9.17986 5.92665L13.7999 7.77999C14.6132 8.10666 15.0999 9.02666 14.9065 9.87999L14.6332 11.12C14.0865 13.58 12.1065 15.1667 9.58652 15.1667ZM7.99986 6.69999C7.72652 6.69999 7.45319 6.75333 7.18652 6.85333L2.56651 8.70666C2.21318 8.84666 1.97984 9.29333 2.05984 9.65999L2.33318 10.9C2.77984 12.9133 4.33983 14.16 6.4065 14.16H9.57986C11.6465 14.16 13.2065 12.9133 13.6532 10.9L13.9265 9.65999C14.0065 9.29333 13.7732 8.84666 13.4199 8.70666L8.79986 6.85333C8.54652 6.75333 8.27319 6.69999 7.99986 6.69999Z" fill="currentColor"/>
<path d="M7.99999 15.1667C7.72666 15.1667 7.49999 14.94 7.49999 14.6667V6.66666C7.49999 6.39333 7.72666 6.16666 7.99999 6.16666C8.27332 6.16666 8.49999 6.39333 8.49999 6.66666V14.6667C8.49999 14.94 8.27332 15.1667 7.99999 15.1667Z" fill="currentColor"/>
<path d="M12.6668 8.36666C12.6068 8.36666 12.5401 8.35333 12.4801 8.33333L8.80679 6.85999C8.28679 6.65333 7.71346 6.65333 7.18679 6.85999L3.51348 8.33333C3.36014 8.39333 3.18682 8.37333 3.04682 8.27999C2.90682 8.18666 2.82681 8.03333 2.82681 7.86666V5.33333C2.82681 3.95333 3.94681 2.83333 5.32681 2.83333H10.6601C12.0401 2.83333 13.1601 3.95333 13.1601 5.33333V7.86666C13.1601 8.03333 13.0801 8.18666 12.9401 8.27999C12.8601 8.33999 12.7668 8.36666 12.6668 8.36666ZM8.00012 5.69999C8.40012 5.69999 8.79986 5.77332 9.17986 5.92665L12.1668 7.12666V5.33333C12.1668 4.50666 11.4935 3.83333 10.6668 3.83333H5.33348C4.50682 3.83333 3.83348 4.50666 3.83348 5.33333V7.12666L6.81986 5.92665C7.19986 5.77999 7.60012 5.69999 8.00012 5.69999Z" fill="currentColor"/>
<path d="M9.66666 3.83333H6.33332C6.05999 3.83333 5.83332 3.60666 5.83332 3.33333V1.99999C5.83332 1.35999 6.35999 0.833328 6.99999 0.833328H8.99999C9.63999 0.833328 10.1667 1.35999 10.1667 1.99999V3.33333C10.1667 3.60666 9.93999 3.83333 9.66666 3.83333ZM6.83332 2.83333H9.16666V1.99999C9.16666 1.90666 9.09332 1.83333 8.99999 1.83333H6.99999C6.90666 1.83333 6.83332 1.90666 6.83332 1.99999V2.83333Z" fill="currentColor"/>
</svg>
