<svg width="16" height="16" viewBox="0 0 16 16" fill="none" xmlns="http://www.w3.org/2000/svg">
<path d="M9.81366 15.1667H6.22037C5.7937 15.1667 5.42036 15.14 5.08036 15.0933C4.80702 15.0533 4.61368 14.8 4.65368 14.5267C4.69368 14.2533 4.94037 14.0533 5.22037 14.1C5.5137 14.14 5.84036 14.16 6.2137 14.16H9.80706C12.5337 14.16 13.5003 13.1933 13.5003 10.4667V7.47333C13.5003 7.2 13.727 6.97333 14.0003 6.97333C14.2737 6.97333 14.5003 7.2 14.5003 7.47333V10.4667C14.507 13.76 13.1003 15.1667 9.81366 15.1667Z" fill="currentColor"/>
<path d="M2.02604 10.8467C1.7527 10.8467 1.52604 10.62 1.52604 10.3467V7.48C1.52604 7.20666 1.7527 6.98 2.02604 6.98C2.29937 6.98 2.52604 7.20666 2.52604 7.48V10.3467C2.52604 10.62 2.29937 10.8467 2.02604 10.8467Z" fill="currentColor"/>
<path d="M8.0202 8.5C7.28686 8.5 6.62018 8.21333 6.14684 7.68666C5.67351 7.16 5.45352 6.47332 5.52685 5.73999L5.97354 1.28669C6.00021 1.03336 6.21354 0.833328 6.47354 0.833328H9.58686C9.84686 0.833328 10.0602 1.02669 10.0869 1.28669L10.5335 5.73999C10.6069 6.47332 10.3869 7.16 9.91353 7.68666C9.4202 8.21333 8.75353 8.5 8.0202 8.5ZM6.91353 1.83333L6.51354 5.84C6.46688 6.28667 6.6002 6.70666 6.8802 7.01333C7.44686 7.64 8.5802 7.64 9.14686 7.01333C9.42686 6.7 9.5602 6.28 9.51353 5.84L9.11353 1.83333H6.91353Z" fill="currentColor"/>
<path d="M12.2197 8.5C10.8663 8.5 9.65966 7.40666 9.51966 6.05997L9.053 1.38664C9.03966 1.24664 9.08633 1.10666 9.17966 0.999995C9.273 0.893328 9.40633 0.833328 9.553 0.833328H11.5863C13.5463 0.833328 14.4597 1.65333 14.733 3.66666L14.9197 5.52002C14.9997 6.30668 14.7597 7.0534 14.2463 7.62006C13.733 8.18673 13.013 8.5 12.2197 8.5ZM10.1063 1.83333L10.5197 5.95996C10.6063 6.79326 11.3863 7.5 12.2197 7.5C12.7263 7.5 13.1797 7.30673 13.5063 6.9534C13.8263 6.60003 13.973 6.1267 13.9263 5.62003L13.7397 3.7867C13.533 2.28003 13.0463 1.83333 11.5863 1.83333H10.1063Z" fill="currentColor"/>
<path d="M3.78018 8.5C2.98685 8.5 2.26686 8.18673 1.75353 7.62006C1.2402 7.0534 1.00019 6.30668 1.08019 5.52002L1.26688 3.68668C1.54688 1.65335 2.4602 0.833328 4.4202 0.833328H6.45352C6.59352 0.833328 6.72686 0.893328 6.82686 0.999995C6.9202 1.10666 6.96686 1.24664 6.95353 1.38664L6.48685 6.05997C6.34018 7.40666 5.12685 8.5 3.78018 8.5ZM4.41352 1.83333C2.95352 1.83333 2.46686 2.2733 2.25353 3.79996L2.07352 5.61336C2.02018 6.12002 2.17352 6.59336 2.49352 6.94666C2.81352 7.29999 3.27352 7.49333 3.78018 7.49333C4.62018 7.49333 5.40018 6.78673 5.48018 5.95336L5.89355 1.82665H4.41352V1.83333Z" fill="currentColor"/>
<path d="M3.33333 15.8333C2.4 15.8333 1.52667 15.4266 0.926671 14.7133C0.920004 14.7066 0.893331 14.68 0.873331 14.6467C0.773331 14.5267 0.686657 14.4067 0.619993 14.28C0.326659 13.8067 0.166664 13.2467 0.166664 12.66C0.166664 11.6867 0.600017 10.7867 1.35335 10.1867C1.48668 10.08 1.63333 9.98 1.79333 9.89333C2.25333 9.63333 2.79333 9.48666 3.33333 9.48666C4.10666 9.48666 4.82002 9.75333 5.39335 10.2533C5.46668 10.3067 5.56665 10.4067 5.65332 10.5C6.19332 11.0933 6.49332 11.8533 6.49332 12.6467C6.49332 13.2267 6.33332 13.7933 6.03332 14.28C5.88666 14.5333 5.70667 14.7533 5.50667 14.9267C5.46667 14.9667 5.42667 15.0067 5.38 15.0401C4.85334 15.5534 4.11333 15.8333 3.33333 15.8333ZM1.65332 14.0267C1.67332 14.0467 1.70665 14.0799 1.73332 14.1266C2.09998 14.5599 2.7 14.84 3.33333 14.84C3.86 14.84 4.36666 14.6467 4.75333 14.3C4.77334 14.2733 4.8 14.2467 4.83333 14.2267C4.96666 14.1133 5.08002 13.9666 5.18668 13.7933C5.39335 13.4533 5.50667 13.0733 5.50667 12.6733C5.50667 12.1333 5.3 11.6067 4.92667 11.2C4.88 11.1467 4.83331 11.0933 4.77331 11.0533C4.05331 10.4333 3.06665 10.3401 2.27998 10.7867C2.17332 10.8467 2.07999 10.9067 1.99332 10.98C1.47332 11.3933 1.17334 12.0067 1.17334 12.6733C1.17334 13.0667 1.27998 13.4534 1.48665 13.7867C1.53998 13.8801 1.59332 13.9533 1.65332 14.02C1.64665 14.02 1.65332 14.02 1.65332 14.0267Z" fill="currentColor"/>
<path d="M4.33317 13.1533H2.33984C2.06651 13.1533 1.83984 12.9267 1.83984 12.6533C1.83984 12.38 2.06651 12.1533 2.33984 12.1533H4.33317C4.6065 12.1533 4.83317 12.38 4.83317 12.6533C4.83317 12.9267 4.6065 13.1533 4.33317 13.1533Z" fill="currentColor"/>
</svg>
