<svg width="16" height="16" viewBox="0 0 16 16" fill="none" xmlns="http://www.w3.org/2000/svg">
<path d="M12.1267 11.8333H5.02665C4.36665 11.8333 3.73332 11.5533 3.28665 11.0667C2.83999 10.58 2.61333 9.92666 2.66666 9.26666L3.21999 2.62666C3.23999 2.41999 3.16665 2.22 3.02665 2.06667C2.88665 1.91333 2.69333 1.83333 2.48666 1.83333H1.33333C1.05999 1.83333 0.833328 1.60666 0.833328 1.33333C0.833328 1.05999 1.05999 0.833328 1.33333 0.833328H2.49333C2.98 0.833328 3.43999 1.03999 3.76665 1.39333C3.94665 1.59333 4.07999 1.82666 4.15333 2.08666H12.48C13.1533 2.08666 13.7733 2.35333 14.2267 2.83333C14.6733 3.31999 14.9 3.95333 14.8467 4.62666L14.4867 9.62666C14.4133 10.8467 13.3467 11.8333 12.1267 11.8333ZM4.18666 3.07999L3.66666 9.34666C3.63333 9.73333 3.75999 10.1 4.01999 10.3867C4.27999 10.6733 4.63999 10.8267 5.02665 10.8267H12.1267C12.82 10.8267 13.4467 10.24 13.5 9.54666L13.86 4.54667C13.8867 4.15333 13.76 3.78 13.5 3.50667C13.24 3.22667 12.88 3.07332 12.4867 3.07332H4.18666V3.07999Z" fill="currentColor"/>
<path d="M10.8333 15.1667C10.1 15.1667 9.49999 14.5667 9.49999 13.8333C9.49999 13.1 10.1 12.5 10.8333 12.5C11.5667 12.5 12.1667 13.1 12.1667 13.8333C12.1667 14.5667 11.5667 15.1667 10.8333 15.1667ZM10.8333 13.5C10.6467 13.5 10.5 13.6467 10.5 13.8333C10.5 14.02 10.6467 14.1667 10.8333 14.1667C11.02 14.1667 11.1667 14.02 11.1667 13.8333C11.1667 13.6467 11.02 13.5 10.8333 13.5Z" fill="currentColor"/>
<path d="M5.49999 15.1667C4.76666 15.1667 4.16666 14.5667 4.16666 13.8333C4.16666 13.1 4.76666 12.5 5.49999 12.5C6.23333 12.5 6.83333 13.1 6.83333 13.8333C6.83333 14.5667 6.23333 15.1667 5.49999 15.1667ZM5.49999 13.5C5.31333 13.5 5.16666 13.6467 5.16666 13.8333C5.16666 14.02 5.31333 14.1667 5.49999 14.1667C5.68666 14.1667 5.83333 14.02 5.83333 13.8333C5.83333 13.6467 5.68666 13.5 5.49999 13.5Z" fill="currentColor"/>
<path d="M14 5.83333H5.99999C5.72666 5.83333 5.49999 5.60666 5.49999 5.33333C5.49999 5.05999 5.72666 4.83333 5.99999 4.83333H14C14.2733 4.83333 14.5 5.05999 14.5 5.33333C14.5 5.60666 14.2733 5.83333 14 5.83333Z" fill="currentColor"/>
</svg>
