<svg width="16" height="16" viewBox="0 0 16 16" fill="none" xmlns="http://www.w3.org/2000/svg">
<path d="M9.79986 15.1667H6.19984C2.90651 15.1667 1.50651 13.76 1.50651 10.4733V7.47999C1.50651 7.20666 1.73318 6.97999 2.00651 6.97999C2.27984 6.97999 2.50651 7.20666 2.50651 7.47999V10.4733C2.50651 13.2 3.47318 14.1667 6.19984 14.1667H9.7932C12.5199 14.1667 13.4865 13.2 13.4865 10.4733V7.47999C13.4865 7.20666 13.7132 6.97999 13.9865 6.97999C14.2599 6.97999 14.4865 7.20666 14.4865 7.47999V10.4733C14.4932 13.76 13.0865 15.1667 9.79986 15.1667Z" fill="currentColor"/>
<path d="M7.99933 8.49999C7.266 8.49999 6.59934 8.21333 6.12601 7.68666C5.65268 7.15999 5.43268 6.47333 5.50601 5.73999L5.95268 1.28666C5.97935 1.03333 6.19268 0.833328 6.45268 0.833328H9.566C9.826 0.833328 10.0393 1.02666 10.066 1.28666L10.5127 5.73999C10.586 6.47333 10.366 7.15999 9.89266 7.68666C9.39933 8.21333 8.73266 8.49999 7.99933 8.49999ZM6.89933 1.83333L6.49934 5.83999C6.45268 6.28666 6.58602 6.70666 6.866 7.01333C7.43266 7.63999 8.566 7.63999 9.13266 7.01333C9.41267 6.69999 9.546 6.27999 9.49933 5.83999L9.09933 1.83333H6.89933Z" fill="currentColor"/>
<path d="M12.2067 8.49999C10.8533 8.49999 9.64666 7.40666 9.50666 6.05999L9.04 1.38666C9.02666 1.24666 9.07333 1.10666 9.16666 0.999995C9.26 0.893328 9.39333 0.833328 9.54 0.833328H11.5733C13.5333 0.833328 14.4467 1.65333 14.72 3.66666L14.9067 5.51999C14.9867 6.30666 14.7467 7.05333 14.2333 7.61999C13.72 8.18666 13 8.49999 12.2067 8.49999ZM10.0933 1.83333L10.5067 5.95999C10.5933 6.79333 11.3667 7.49999 12.2067 7.49999C12.7133 7.49999 13.1667 7.30666 13.4933 6.95333C13.8133 6.6 13.96 6.12666 13.9133 5.61999L13.7267 3.78666C13.52 2.27999 13.0333 1.83333 11.5733 1.83333H10.0933Z" fill="currentColor"/>
<path d="M3.75936 8.49999C2.96602 8.49999 2.24602 8.18666 1.73269 7.61999C1.21936 7.05333 0.979358 6.30666 1.05936 5.51999L1.23936 3.68666C1.51936 1.65333 2.43269 0.833328 4.3927 0.833328H6.42602C6.56602 0.833328 6.69933 0.893328 6.79933 0.999995C6.89933 1.10666 6.93933 1.24666 6.926 1.38666L6.45936 6.05999C6.31936 7.40666 5.11269 8.49999 3.75936 8.49999ZM4.3927 1.83333C2.93269 1.83333 2.44602 2.27333 2.23269 3.79999L2.05269 5.61999C1.99936 6.12666 2.15269 6.6 2.47269 6.95333C2.79269 7.30666 3.24602 7.49999 3.75936 7.49999C4.59936 7.49999 5.37936 6.79333 5.45936 5.95999L5.8727 1.83333H4.3927Z" fill="currentColor"/>
<path d="M9.66666 15.1667H6.33333C6.06 15.1667 5.83333 14.94 5.83333 14.6667V13C5.83333 11.6 6.6 10.8333 8 10.8333C9.4 10.8333 10.1667 11.6 10.1667 13V14.6667C10.1667 14.94 9.94 15.1667 9.66666 15.1667ZM6.83333 14.1667H9.16666V13C9.16666 12.16 8.84 11.8333 8 11.8333C7.16 11.8333 6.83333 12.16 6.83333 13V14.1667Z" fill="currentColor"/>
</svg>
