<svg width="16" height="16" viewBox="0 0 16 16" fill="none" xmlns="http://www.w3.org/2000/svg">
<path d="M10.9936 15.1667H5.00027C3.85361 15.1667 2.99361 14.86 2.46028 14.2533C1.92695 13.6467 1.72027 12.7667 1.86027 11.6267L2.46028 6.62666C2.63361 5.15333 3.00695 3.83333 5.60695 3.83333H10.4069C13.0003 3.83333 13.3736 5.15333 13.5536 6.62666L14.1536 11.6267C14.2869 12.7667 14.0869 13.6533 13.5536 14.2533C13.0003 14.86 12.1469 15.1667 10.9936 15.1667ZM5.60027 4.83333C3.68027 4.83333 3.58694 5.59332 3.44694 6.73999L2.84695 11.74C2.74695 12.5867 2.86694 13.2067 3.20694 13.5867C3.54694 13.9667 4.14694 14.16 5.00027 14.16H10.9936C11.8469 14.16 12.4469 13.9667 12.7869 13.5867C13.1269 13.2067 13.2469 12.5867 13.1469 11.74L12.5469 6.73999C12.4069 5.58665 12.3203 4.83333 10.3936 4.83333H5.60027Z" fill="currentColor"/>
<path d="M10.6667 5.83333C10.3933 5.83333 10.1667 5.60666 10.1667 5.33333V2.99999C10.1667 2.27999 9.71999 1.83333 8.99999 1.83333H6.99999C6.27999 1.83333 5.83333 2.27999 5.83333 2.99999V5.33333C5.83333 5.60666 5.60666 5.83333 5.33333 5.83333C5.05999 5.83333 4.83333 5.60666 4.83333 5.33333V2.99999C4.83333 1.72666 5.72666 0.833328 6.99999 0.833328H8.99999C10.2733 0.833328 11.1667 1.72666 11.1667 2.99999V5.33333C11.1667 5.60666 10.94 5.83333 10.6667 5.83333Z" fill="currentColor"/>
<path d="M13.6067 11.8533H5.33333C5.05999 11.8533 4.83333 11.6267 4.83333 11.3533C4.83333 11.08 5.05999 10.8533 5.33333 10.8533H13.6067C13.88 10.8533 14.1067 11.08 14.1067 11.3533C14.1067 11.6267 13.88 11.8533 13.6067 11.8533Z" fill="currentColor"/>
</svg>
