<svg width="16" height="16" viewBox="0 0 16 16" fill="none" xmlns="http://www.w3.org/2000/svg">
<path d="M9.81367 15.1667H6.22038C5.79371 15.1667 5.42037 15.14 5.08037 15.0933C4.80703 15.0533 4.61369 14.8 4.65369 14.5267C4.69369 14.2533 4.94038 14.0533 5.22038 14.1C5.51371 14.14 5.84037 14.16 6.21371 14.16H9.80707C12.5337 14.16 13.5003 13.1933 13.5003 10.4667V7.47333C13.5003 7.2 13.727 6.97333 14.0003 6.97333C14.2737 6.97333 14.5003 7.2 14.5003 7.47333V10.4667C14.507 13.76 13.1003 15.1667 9.81367 15.1667Z" fill="currentColor"/>
<path d="M2.02605 10.8467C1.75271 10.8467 1.52605 10.62 1.52605 10.3467V7.48C1.52605 7.20666 1.75271 6.98 2.02605 6.98C2.29938 6.98 2.52605 7.20666 2.52605 7.48V10.3467C2.52605 10.62 2.29938 10.8467 2.02605 10.8467Z" fill="currentColor"/>
<path d="M8.02021 8.5C7.28687 8.5 6.62019 8.21333 6.14685 7.68666C5.67352 7.16 5.45353 6.47332 5.52686 5.73999L5.97355 1.28669C6.00022 1.03336 6.21355 0.833328 6.47355 0.833328H9.58687C9.84687 0.833328 10.0602 1.02669 10.0869 1.28669L10.5335 5.73999C10.6069 6.47332 10.3869 7.16 9.91354 7.68666C9.42021 8.21333 8.75354 8.5 8.02021 8.5ZM6.91354 1.83333L6.51355 5.84C6.46689 6.28667 6.60021 6.70666 6.88021 7.01333C7.44687 7.64 8.5802 7.64 9.14687 7.01333C9.42687 6.7 9.56021 6.28 9.51354 5.84L9.11354 1.83333H6.91354Z" fill="currentColor"/>
<path d="M12.2197 8.5C10.8663 8.5 9.65967 7.40666 9.51967 6.05997L9.05301 1.38664C9.03967 1.24664 9.08634 1.10666 9.17967 0.999995C9.27301 0.893328 9.40634 0.833328 9.55301 0.833328H11.5863C13.5463 0.833328 14.4597 1.65333 14.733 3.66666L14.9197 5.52002C14.9997 6.30668 14.7597 7.0534 14.2463 7.62006C13.733 8.18673 13.013 8.5 12.2197 8.5ZM10.1063 1.83333L10.5197 5.95996C10.6063 6.79326 11.3863 7.5 12.2197 7.5C12.7263 7.5 13.1797 7.30673 13.5063 6.9534C13.8263 6.60003 13.973 6.1267 13.9263 5.62003L13.7397 3.7867C13.533 2.28003 13.0463 1.83333 11.5863 1.83333H10.1063Z" fill="currentColor"/>
<path d="M3.78019 8.5C2.98686 8.5 2.26687 8.18673 1.75354 7.62006C1.24021 7.0534 1.0002 6.30668 1.0802 5.52002L1.26689 3.68668C1.54689 1.65335 2.46021 0.833328 4.42021 0.833328H6.45353C6.59353 0.833328 6.72687 0.893328 6.82687 0.999995C6.92021 1.10666 6.96687 1.24664 6.95354 1.38664L6.48686 6.05997C6.34019 7.40666 5.12686 8.5 3.78019 8.5ZM4.41353 1.83333C2.95353 1.83333 2.46687 2.2733 2.25354 3.79996L2.07353 5.61336C2.02019 6.12002 2.17353 6.59336 2.49353 6.94666C2.81353 7.29999 3.27353 7.49333 3.78019 7.49333C4.62019 7.49333 5.40019 6.78673 5.48019 5.95336L5.89356 1.82665H4.41353V1.83333Z" fill="currentColor"/>
<path d="M3.33334 15.8333C2.40001 15.8333 1.52668 15.4266 0.926678 14.7133C0.920012 14.7066 0.893338 14.68 0.873338 14.6467C0.773338 14.5267 0.686665 14.4067 0.62 14.28C0.326667 13.8067 0.166672 13.2467 0.166672 12.66C0.166672 11.6867 0.600024 10.7867 1.35336 10.1867C1.48669 10.08 1.63334 9.98 1.79334 9.89333C2.25334 9.63333 2.79334 9.48666 3.33334 9.48666C4.10667 9.48666 4.82002 9.75333 5.39336 10.2533C5.46669 10.3067 5.56666 10.4067 5.65333 10.5C6.19333 11.0933 6.49333 11.8533 6.49333 12.6467C6.49333 13.2267 6.33333 13.7933 6.03333 14.28C5.88666 14.5333 5.70668 14.7533 5.50668 14.9267C5.46668 14.9667 5.42668 15.0067 5.38001 15.0401C4.85335 15.5534 4.11334 15.8333 3.33334 15.8333ZM1.65333 14.0267C1.67333 14.0467 1.70666 14.0799 1.73333 14.1266C2.09999 14.5599 2.70001 14.84 3.33334 14.84C3.86001 14.84 4.36667 14.6467 4.75334 14.3C4.77335 14.2733 4.8 14.2467 4.83334 14.2267C4.96667 14.1133 5.08003 13.9666 5.18669 13.7933C5.39336 13.4533 5.50668 13.0733 5.50668 12.6733C5.50668 12.1333 5.30001 11.6067 4.92668 11.2C4.88001 11.1467 4.83332 11.0933 4.77332 11.0533C4.05332 10.4333 3.06666 10.3401 2.27999 10.7867C2.17333 10.8467 2.08 10.9067 1.99333 10.98C1.47333 11.3933 1.17335 12.0067 1.17335 12.6733C1.17335 13.0667 1.27999 13.4534 1.48666 13.7867C1.53999 13.8801 1.59333 13.9533 1.65333 14.02C1.64666 14.02 1.65333 14.02 1.65333 14.0267Z" fill="currentColor"/>
<path d="M4.33318 13.1533H2.33985C2.06652 13.1533 1.83985 12.9267 1.83985 12.6533C1.83985 12.38 2.06652 12.1533 2.33985 12.1533H4.33318C4.60651 12.1533 4.83318 12.38 4.83318 12.6533C4.83318 12.9267 4.60651 13.1533 4.33318 13.1533Z" fill="currentColor"/>
<path d="M3.33334 14.1733C3.06001 14.1733 2.83334 13.9467 2.83334 13.6733V11.68C2.83334 11.4067 3.06001 11.18 3.33334 11.18C3.60667 11.18 3.83334 11.4067 3.83334 11.68V13.6733C3.83334 13.9533 3.60667 14.1733 3.33334 14.1733Z" fill="currentColor"/>
</svg>
