<svg width="16" height="16" viewBox="0 0 16 16" fill="none" xmlns="http://www.w3.org/2000/svg">
<path d="M3.70682 12.4933C3.70682 12.4933 3.70016 12.4933 3.6935 12.4933L1.99348 12.4867C1.72015 12.4867 1.49348 12.26 1.49348 11.9867C1.49348 11.7133 1.72015 11.4867 1.99348 11.4867L3.6935 11.4933H3.70015C4.13348 11.4933 4.54017 11.28 4.78017 10.9133L9.04013 4.52665C9.4668 3.88665 10.1801 3.5 10.9535 3.5C10.9535 3.5 10.9602 3.5 10.9669 3.5L14.0001 3.51335C14.2735 3.51335 14.5001 3.74001 14.5001 4.01335C14.5001 4.28668 14.2735 4.51335 14.0001 4.51335L10.9669 4.5H10.9601C10.5268 4.5 10.1202 4.71333 9.8802 5.08L5.62016 11.4667C5.19349 12.1133 4.48016 12.4933 3.70682 12.4933Z" fill="currentColor"/>
<path d="M12.6663 13.8199C12.5397 13.8199 12.413 13.7733 12.313 13.6733C12.1197 13.4799 12.1197 13.1599 12.313 12.9666L13.6463 11.6333C13.8397 11.4399 14.1597 11.4399 14.353 11.6333C14.5463 11.8266 14.5463 12.1466 14.353 12.3399L13.0197 13.6733C12.9197 13.7733 12.793 13.8199 12.6663 13.8199Z" fill="currentColor"/>
<path d="M5.92667 6.25317C5.77334 6.25317 5.62 6.17984 5.52 6.04651L4.8 5.04651C4.55334 4.70651 4.14666 4.50651 3.73999 4.50651L2 4.51319C1.69333 4.50652 1.5 4.29319 1.5 4.01319C1.5 3.73985 1.72 3.51319 2 3.51319L3.73999 3.50651C3.74666 3.50651 3.74666 3.50651 3.75333 3.50651C4.49334 3.50651 5.18666 3.86651 5.61999 4.45984L6.34 5.45984C6.5 5.68651 6.45333 5.99317 6.22666 6.15983C6.13333 6.21983 6.03334 6.25317 5.92667 6.25317Z" fill="currentColor"/>
<path d="M10.8797 12.4999C10.173 12.4999 9.493 12.1666 9.05966 11.6066L8.24633 10.56C8.07966 10.34 8.11966 10.0266 8.333 9.85993C8.553 9.69327 8.86633 9.73327 9.033 9.9466L9.84633 10.9933C10.093 11.3133 10.4863 11.4733 10.8797 11.4999L13.993 11.4866C14.2663 11.4866 14.493 11.7066 14.493 11.9866C14.493 12.2599 14.273 12.4866 13.993 12.4866L10.8797 12.4999Z" fill="currentColor"/>
<path d="M14.0001 4.51335C13.8735 4.51335 13.7463 4.46664 13.6463 4.36664L12.313 3.03331C12.1197 2.83997 12.1197 2.51997 12.313 2.32664C12.5063 2.13331 12.8263 2.13331 13.0197 2.32664L14.353 3.65997C14.5463 3.85331 14.5463 4.17331 14.353 4.36664C14.253 4.46664 14.1268 4.51335 14.0001 4.51335Z" fill="currentColor"/>
</svg>
