<svg width="16" height="16" viewBox="0 0 16 16" fill="none" xmlns="http://www.w3.org/2000/svg">
<g clip-path="url(#clip0_2_4777)">
<path d="M9.98046 15.1667H5.98046C2.36046 15.1667 0.813797 13.62 0.813797 9.99999V5.99999C0.813797 2.37999 2.36046 0.833328 5.98046 0.833328H9.98046C13.6005 0.833328 15.1471 2.37999 15.1471 5.99999V9.99999C15.1471 13.62 13.6071 15.1667 9.98046 15.1667ZM5.98046 1.83333C2.90713 1.83333 1.8138 2.92666 1.8138 5.99999V9.99999C1.8138 13.0733 2.90713 14.1667 5.98046 14.1667H9.98046C13.0538 14.1667 14.1471 13.0733 14.1471 9.99999V5.99999C14.1471 2.92666 13.0538 1.83333 9.98046 1.83333H5.98046Z" fill="currentColor"/>
<path d="M14.6667 6.16666H1.33333C1.06 6.16666 0.83333 5.93999 0.83333 5.66666C0.83333 5.39333 1.06 5.16666 1.33333 5.16666H14.6667C14.94 5.16666 15.1667 5.39333 15.1667 5.66666C15.1667 5.93999 14.94 6.16666 14.6667 6.16666Z" fill="currentColor"/>
<path d="M9.70726 10.8333C9.5806 10.8333 9.45393 10.7866 9.35393 10.6866L8.0006 9.33326L6.64724 10.6866C6.4539 10.8799 6.1339 10.8799 5.94057 10.6866C5.74724 10.4933 5.74724 10.1733 5.94057 9.97993L7.64726 8.27326C7.8406 8.07993 8.1606 8.07993 8.35393 8.27326L10.0606 9.97993C10.2539 10.1733 10.2539 10.4933 10.0606 10.6866C9.9606 10.7866 9.83393 10.8333 9.70726 10.8333Z" fill="currentColor"/>
</g>
<defs>
<clipPath id="clip0_2_4777">
<rect width="16" height="16" fill="currentColor"/>
</clipPath>
</defs>
</svg>
