<svg width="16" height="16" viewBox="0 0 16 16" fill="none" xmlns="http://www.w3.org/2000/svg">
<g clip-path="url(#clip0_2_5021)">
<path d="M9.98047 15.1667H5.98047C2.36047 15.1667 0.813801 13.62 0.813801 9.99999V5.99999C0.813801 2.37999 2.36047 0.833328 5.98047 0.833328H9.98047C13.6005 0.833328 15.1471 2.37999 15.1471 5.99999V9.99999C15.1471 13.62 13.6071 15.1667 9.98047 15.1667ZM5.98047 1.83333C2.90713 1.83333 1.8138 2.92666 1.8138 5.99999V9.99999C1.8138 13.0733 2.90713 14.1667 5.98047 14.1667H9.98047C13.0538 14.1667 14.1471 13.0733 14.1471 9.99999V5.99999C14.1471 2.92666 13.0538 1.83333 9.98047 1.83333H5.98047Z" fill="currentColor"/>
<path d="M9.98047 15.1667C9.70713 15.1667 9.48047 14.94 9.48047 14.6667V1.33333C9.48047 1.05999 9.70713 0.833328 9.98047 0.833328C10.2538 0.833328 10.4805 1.05999 10.4805 1.33333V14.6667C10.4805 14.94 10.2605 15.1667 9.98047 15.1667Z" fill="currentColor"/>
<path d="M5.31344 10.2066C5.18677 10.2066 5.06011 10.1599 4.96011 10.0599C4.76677 9.8666 4.76677 9.54659 4.96011 9.35326L6.31344 7.99993L4.96011 6.64658C4.76677 6.45325 4.76677 6.13325 4.96011 5.93991C5.15344 5.74658 5.47344 5.74658 5.66677 5.93991L7.37347 7.64659C7.5668 7.83993 7.5668 8.15993 7.37347 8.35326L5.66677 10.0599C5.57344 10.1599 5.44677 10.2066 5.31344 10.2066Z" fill="currentColor"/>
</g>
<defs>
<clipPath id="clip0_2_5021">
<rect width="16" height="16" fill="currentColor"/>
</clipPath>
</defs>
</svg>
