<svg width="16" height="16" viewBox="0 0 16 16" fill="none" xmlns="http://www.w3.org/2000/svg">
<g clip-path="url(#clip0_2_4774)">
<path d="M9.98047 15.1667H5.98047C2.36047 15.1667 0.813801 13.62 0.813801 9.99999V5.99999C0.813801 2.37999 2.36047 0.833328 5.98047 0.833328H9.98047C13.6005 0.833328 15.1471 2.37999 15.1471 5.99999V9.99999C15.1471 13.62 13.6071 15.1667 9.98047 15.1667ZM5.98047 1.83333C2.90713 1.83333 1.8138 2.92666 1.8138 5.99999V9.99999C1.8138 13.0733 2.90713 14.1667 5.98047 14.1667H9.98047C13.0538 14.1667 14.1471 13.0733 14.1471 9.99999V5.99999C14.1471 2.92666 13.0538 1.83333 9.98047 1.83333H5.98047Z" fill="currentColor"/>
<path d="M14.6667 10.8333H1.33333C1.06 10.8333 0.833334 10.6067 0.833334 10.3333C0.833334 10.06 1.06 9.83333 1.33333 9.83333H14.6667C14.94 9.83333 15.1667 10.06 15.1667 10.3333C15.1667 10.6067 14.94 10.8333 14.6667 10.8333Z" fill="currentColor"/>
<path d="M8.0006 7.87326C7.87393 7.87326 7.74727 7.82659 7.64727 7.72659L5.94057 6.01995C5.74724 5.82662 5.74724 5.50662 5.94057 5.31329C6.13391 5.11995 6.45391 5.11995 6.64724 5.31329L8.0006 6.66662L9.35394 5.31329C9.54727 5.11995 9.86727 5.11995 10.0606 5.31329C10.2539 5.50662 10.2539 5.82662 10.0606 6.01995L8.35393 7.72659C8.25393 7.82659 8.12727 7.87326 8.0006 7.87326Z" fill="currentColor"/>
</g>
<defs>
<clipPath id="clip0_2_4774">
<rect width="16" height="16" fill="currentColor"/>
</clipPath>
</defs>
</svg>
