<svg width="16" height="16" viewBox="0 0 16 16" fill="none" xmlns="http://www.w3.org/2000/svg">
<g clip-path="url(#clip0_2_4615)">
<path d="M9.98047 15.1667H5.98047C2.36047 15.1667 0.8138 13.62 0.8138 9.99999V5.99999C0.8138 2.37999 2.36047 0.833328 5.98047 0.833328H9.98047C13.6005 0.833328 15.1471 2.37999 15.1471 5.99999V9.99999C15.1471 13.62 13.6071 15.1667 9.98047 15.1667ZM5.98047 1.83333C2.90713 1.83333 1.8138 2.92666 1.8138 5.99999V9.99999C1.8138 13.0733 2.90713 14.1667 5.98047 14.1667H9.98047C13.0538 14.1667 14.1471 13.0733 14.1471 9.99999V5.99999C14.1471 2.92666 13.0538 1.83333 9.98047 1.83333H5.98047Z" fill="currentColor"/>
<path d="M5.3138 15.1667C5.04047 15.1667 4.8138 14.94 4.8138 14.6667V1.33333C4.8138 1.05999 5.04047 0.833328 5.3138 0.833328C5.58713 0.833328 5.8138 1.05999 5.8138 1.33333V14.6667C5.8138 14.94 5.5938 15.1667 5.3138 15.1667Z" fill="currentColor"/>
<path d="M9.97973 10.2066C9.85307 10.2066 9.7264 10.1599 9.6264 10.0599L7.91973 8.35326C7.7264 8.15993 7.7264 7.83993 7.91973 7.64659L9.6264 5.93991C9.81973 5.74658 10.1397 5.74658 10.3331 5.93991C10.5264 6.13325 10.5264 6.45325 10.3331 6.64658L8.9864 7.99993L10.3397 9.35326C10.5331 9.54659 10.5331 9.8666 10.3397 10.0599C10.2397 10.1599 10.1131 10.2066 9.97973 10.2066Z" fill="currentColor"/>
</g>
<defs>
<clipPath id="clip0_2_4615">
<rect width="16" height="16" fill="currentColor"/>
</clipPath>
</defs>
</svg>
