<svg width="16" height="16" viewBox="0 0 16 16" fill="none" xmlns="http://www.w3.org/2000/svg">
<path d="M11.4797 6.49999H5.97302C5.59969 6.49999 5.22636 6.37333 4.93303 6.13333L3.47302 4.96667C3.07302 4.64667 2.84635 4.17333 2.84635 3.66666C2.84635 3.15999 3.07302 2.67999 3.47302 2.36665L4.93303 1.19999C5.22636 0.966655 5.59969 0.833328 5.97302 0.833328H11.4797C12.3997 0.833328 13.1463 1.57999 13.1463 2.49999V4.83333C13.1463 5.75333 12.3997 6.49999 11.4797 6.49999ZM5.97302 1.83333C5.81968 1.83333 5.67302 1.88666 5.55969 1.97999L4.09969 3.14666C3.93969 3.27333 3.84635 3.46666 3.84635 3.66666C3.84635 3.86666 3.93969 4.05999 4.09969 4.18666L5.55969 5.35333C5.67969 5.44666 5.82635 5.49999 5.97302 5.49999H11.4797C11.8463 5.49999 12.1463 5.19999 12.1463 4.83333V2.49999C12.1463 2.13333 11.8463 1.83333 11.4797 1.83333H5.97302Z" fill="currentColor"/>
<path d="M10.0405 13.1667H4.53385C3.61385 13.1667 2.86718 12.42 2.86718 11.5V9.16666C2.86718 8.24666 3.61385 7.49999 4.53385 7.49999H10.0405C10.4205 7.49999 10.7872 7.62666 11.0805 7.86666L12.5405 9.03333C12.9405 9.35333 13.1672 9.82666 13.1672 10.3333C13.1672 10.84 12.9405 11.32 12.5405 11.6333L11.0805 12.8C10.7872 13.04 10.4205 13.1667 10.0405 13.1667ZM4.53385 8.49999C4.16719 8.49999 3.86718 8.79999 3.86718 9.16666V11.5C3.86718 11.8667 4.16719 12.1667 4.53385 12.1667H10.0405C10.1939 12.1667 10.3405 12.1133 10.4539 12.02L11.9139 10.8533C12.0739 10.7267 12.1672 10.5333 12.1672 10.3333C12.1672 10.1333 12.0739 9.93999 11.9139 9.81333L10.4539 8.64666C10.3339 8.55333 10.1872 8.49999 10.0405 8.49999H4.53385Z" fill="currentColor"/>
<path d="M8 8.49999C7.72667 8.49999 7.5 8.27333 7.5 7.99999V5.99999C7.5 5.72666 7.72667 5.49999 8 5.49999C8.27333 5.49999 8.5 5.72666 8.5 5.99999V7.99999C8.5 8.27333 8.27333 8.49999 8 8.49999Z" fill="currentColor"/>
<path d="M8 15.1667C7.72667 15.1667 7.5 14.94 7.5 14.6667V12.6667C7.5 12.3933 7.72667 12.1667 8 12.1667C8.27333 12.1667 8.5 12.3933 8.5 12.6667V14.6667C8.5 14.94 8.27333 15.1667 8 15.1667Z" fill="currentColor"/>
<path d="M10 15.1667H6C5.72667 15.1667 5.5 14.94 5.5 14.6667C5.5 14.3933 5.72667 14.1667 6 14.1667H10C10.2733 14.1667 10.5 14.3933 10.5 14.6667C10.5 14.94 10.2733 15.1667 10 15.1667Z" fill="currentColor"/>
</svg>
