<svg width="16" height="16" viewBox="0 0 16 16" fill="none" xmlns="http://www.w3.org/2000/svg">
<path d="M10.6667 15.1667H5.33333C3.04 15.1667 1.5 13.6267 1.5 11.3333V4.66666C1.5 2.37333 3.04 0.833328 5.33333 0.833328H8.62C9.64667 0.833328 10.6067 1.23332 11.3333 1.95332L13.38 3.99999C14.1067 4.71999 14.5 5.68667 14.5 6.71333V11.3333C14.5 13.6267 12.96 15.1667 10.6667 15.1667ZM5.33333 1.83333C3.61333 1.83333 2.5 2.94666 2.5 4.66666V11.3333C2.5 13.0533 3.61333 14.1667 5.33333 14.1667H10.6667C12.3867 14.1667 13.5 13.0533 13.5 11.3333V6.71333C13.5 5.95333 13.2067 5.24667 12.6667 4.71333L10.62 2.66666C10.0867 2.13333 9.37333 1.84 8.61333 1.84H5.33333V1.83333Z" fill="currentColor"/>
<path d="M6.33297 12.5C6.2063 12.5 6.07963 12.4533 5.97963 12.3533L4.6463 11.02C4.45297 10.8267 4.45297 10.5066 4.6463 10.3133L5.97963 8.97993C6.17297 8.78659 6.49297 8.78659 6.68633 8.97993C6.87967 9.17326 6.87967 9.49333 6.68633 9.68666L5.7063 10.6667L6.68633 11.6466C6.87967 11.8399 6.87967 12.16 6.68633 12.3533C6.5863 12.4533 6.45963 12.5 6.33297 12.5Z" fill="currentColor"/>
<path d="M9.66633 12.5C9.53967 12.5 9.413 12.4533 9.313 12.3533C9.11967 12.16 9.11967 11.8399 9.313 11.6466L10.293 10.6667L9.313 9.68666C9.11967 9.49333 9.11967 9.17326 9.313 8.97993C9.50633 8.78659 9.82633 8.78659 10.0197 8.97993L11.353 10.3133C11.5463 10.5066 11.5463 10.8267 11.353 11.02L10.0197 12.3533C9.91967 12.4533 9.793 12.5 9.66633 12.5Z" fill="currentColor"/>
</svg>
