<svg width="16" height="16" viewBox="0 0 16 16" fill="none" xmlns="http://www.w3.org/2000/svg">
<g clip-path="url(#clip0_2_5046)">
<path d="M8.07333 15.1466H3.92666C2.10666 15.1466 0.833328 13.8733 0.833328 12.0533V6.87326C0.833328 5.05328 2.10666 3.77994 3.92666 3.77994H6.47999C7.29333 3.77994 8.09333 4.11328 8.66666 4.68661L10.26 6.27328C10.84 6.85326 11.1667 7.6466 11.1667 8.45993V12.0533C11.1667 13.8733 9.89333 15.1466 8.07333 15.1466ZM3.92666 4.77994C2.65333 4.77994 1.83333 5.59994 1.83333 6.87326V12.0533C1.83333 13.3266 2.65333 14.1466 3.92666 14.1466H8.07333C9.34666 14.1466 10.1667 13.3266 10.1667 12.0533V8.45993C10.1667 7.9066 9.93999 7.37326 9.55333 6.97993L7.95999 5.39328C7.56666 4.99994 7.02666 4.77994 6.47999 4.77994H3.92666Z" fill="currentColor"/>
<path d="M12.0733 12.1867H10.6667C10.3933 12.1867 10.1667 11.96 10.1667 11.6867V8.45993C10.1667 7.9066 9.93999 7.37326 9.55333 6.97993L7.95999 5.39328C7.56666 4.99994 7.02666 4.77994 6.47999 4.77994L5.33333 4.77998C5.05999 4.77998 4.83333 4.55331 4.83333 4.27998V3.90664C4.83333 2.08664 6.10666 0.813309 7.92666 0.813309H10.48C11.2933 0.813309 12.0933 1.14664 12.6667 1.71998L14.26 3.31331C14.8467 3.89998 15.1667 4.67331 15.1667 5.49998V9.09333C15.1667 10.9133 13.8933 12.1867 12.0733 12.1867ZM11.1667 11.1867H12.0733C13.3467 11.1867 14.1667 10.3667 14.1667 9.09333V5.49998C14.1667 4.93998 13.9467 4.41331 13.5533 4.01998L11.96 2.42664C11.5733 2.03998 11.0333 1.81331 10.48 1.81331H7.92666C6.69999 1.81331 5.88666 2.57998 5.83333 3.77998L6.47999 3.77994C7.29333 3.77994 8.09333 4.11328 8.66666 4.68661L10.26 6.27328C10.84 6.85326 11.1667 7.6466 11.1667 8.45993V11.1867Z" fill="currentColor"/>
</g>
<defs>
<clipPath id="clip0_2_5046">
<rect width="16" height="16" fill="currentColor"/>
</clipPath>
</defs>
</svg>
