<svg width="16" height="16" viewBox="0 0 16 16" fill="none" xmlns="http://www.w3.org/2000/svg">
<path d="M10.6667 15.1667H5.33333C3.04 15.1667 1.5 13.6267 1.5 11.3333V4.66666C1.5 2.37333 3.04 0.833328 5.33333 0.833328H8.62C9.64667 0.833328 10.6067 1.23333 11.3333 1.95333L13.38 3.99999C14.1067 4.72666 14.5 5.68666 14.5 6.71333V11.3333C14.5 13.6267 12.96 15.1667 10.6667 15.1667ZM5.33333 1.83333C3.61333 1.83333 2.5 2.94666 2.5 4.66666V11.3333C2.5 13.0533 3.61333 14.1667 5.33333 14.1667H10.6667C12.3867 14.1667 13.5 13.0533 13.5 11.3333V6.71333C13.5 5.95999 13.2067 5.24666 12.6667 4.70666L10.62 2.66666C10.0867 2.13333 9.37333 1.83333 8.61333 1.83333H5.33333Z" fill="currentColor"/>
<path d="M9.33333 12.8333H6.66667C5.28667 12.8333 4.16667 11.7133 4.16667 10.3333V8.33333C4.16667 6.95333 5.28667 5.83333 6.66667 5.83333H9.33333C10.7133 5.83333 11.8333 6.95333 11.8333 8.33333V10.3333C11.8333 11.7133 10.7133 12.8333 9.33333 12.8333ZM6.66667 6.83333C5.84 6.83333 5.16667 7.50666 5.16667 8.33333V10.3333C5.16667 11.16 5.84 11.8333 6.66667 11.8333H9.33333C10.16 11.8333 10.8333 11.16 10.8333 10.3333V8.33333C10.8333 7.50666 10.16 6.83333 9.33333 6.83333H6.66667Z" fill="currentColor"/>
<path d="M8 12.8333C7.72667 12.8333 7.5 12.6067 7.5 12.3333V6.33333C7.5 6.05999 7.72667 5.83333 8 5.83333C8.27333 5.83333 8.5 6.05999 8.5 6.33333V12.3333C8.5 12.6067 8.27333 12.8333 8 12.8333Z" fill="currentColor"/>
<path d="M11 9.83333H5C4.72667 9.83333 4.5 9.60666 4.5 9.33333C4.5 9.05999 4.72667 8.83333 5 8.83333H11C11.2733 8.83333 11.5 9.05999 11.5 9.33333C11.5 9.60666 11.2733 9.83333 11 9.83333Z" fill="currentColor"/>
</svg>
