<svg width="16" height="16" viewBox="0 0 16 16" fill="none" xmlns="http://www.w3.org/2000/svg">
<g clip-path="url(#clip0_2_4613)">
<path d="M7.8138 15.1667H4.8138C2.04713 15.1667 0.813797 13.9333 0.813797 11.1667V8.16666C0.813797 5.39999 2.04713 4.16666 4.8138 4.16666H7.8138C10.5805 4.16666 11.8138 5.39999 11.8138 8.16666V11.1667C11.8138 13.9333 10.5805 15.1667 7.8138 15.1667ZM4.8138 5.16666C2.60046 5.16666 1.8138 5.95333 1.8138 8.16666V11.1667C1.8138 13.38 2.60046 14.1667 4.8138 14.1667H7.8138C10.0271 14.1667 10.8138 13.38 10.8138 11.1667V8.16666C10.8138 5.95333 10.0271 5.16666 7.8138 5.16666H4.8138Z" fill="currentColor"/>
<path d="M12.0805 9.16666H11.3138C11.0405 9.16666 10.8138 8.93999 10.8138 8.66666V8.16666C10.8138 5.95333 10.0271 5.16666 7.8138 5.16666H7.3138C7.04046 5.16666 6.8138 4.93999 6.8138 4.66666V3.89999C6.8138 1.77999 7.76046 0.833328 9.88046 0.833328H12.0805C14.2005 0.833328 15.1471 1.77999 15.1471 3.89999V6.09999C15.1471 8.21999 14.2005 9.16666 12.0805 9.16666ZM11.8138 8.16666H12.0805C13.6471 8.16666 14.1471 7.66666 14.1471 6.09999V3.89999C14.1471 2.33333 13.6471 1.83333 12.0805 1.83333H9.88046C8.3138 1.83333 7.8138 2.33333 7.8138 3.89999V4.16666C10.5805 4.16666 11.8138 5.39999 11.8138 8.16666Z" fill="currentColor"/>
</g>
<defs>
<clipPath id="clip0_2_4613">
<rect width="16" height="16" fill="currentColor"/>
</clipPath>
</defs>
</svg>
