<svg width="16" height="16" viewBox="0 0 16 16" fill="none" xmlns="http://www.w3.org/2000/svg">
<g clip-path="url(#clip0_2_4611)">
<path d="M8.00001 15.1667C4.04668 15.1667 0.833344 11.9533 0.833344 7.99999C0.833344 4.04666 4.04668 0.833328 8.00001 0.833328C11.9533 0.833328 15.1667 4.04666 15.1667 7.99999C15.1667 11.9533 11.9533 15.1667 8.00001 15.1667ZM8.00001 1.83333C4.60001 1.83333 1.83334 4.59999 1.83334 7.99999C1.83334 11.4 4.60001 14.1667 8.00001 14.1667C11.4 14.1667 14.1667 11.4 14.1667 7.99999C14.1667 4.59999 11.4 1.83333 8.00001 1.83333Z" fill="currentColor"/>
<path d="M3.26657 13.1666C3.1399 13.1666 3.01324 13.1199 2.91324 13.0199C2.7199 12.8266 2.7199 12.5066 2.91324 12.3133L12.2465 2.97995C12.4399 2.78662 12.7599 2.78662 12.9532 2.97995C13.1465 3.17329 13.1465 3.49329 12.9532 3.68662L3.6199 13.0199C3.5199 13.1199 3.39324 13.1666 3.26657 13.1666Z" fill="currentColor"/>
</g>
<defs>
<clipPath id="clip0_2_4611">
<rect width="16" height="16" fill="currentColor"/>
</clipPath>
</defs>
</svg>
