<svg width="16" height="16" viewBox="0 0 16 16" fill="none" xmlns="http://www.w3.org/2000/svg">
<g clip-path="url(#clip0_2_4610)">
<path d="M10 15.1667H6.00001C4.16668 15.1667 2.83334 13.8333 2.83334 12V3.99999C2.83334 2.16666 4.16668 0.833328 6.00001 0.833328H10C11.8333 0.833328 13.1667 2.16666 13.1667 3.99999V12C13.1667 13.8333 11.8333 15.1667 10 15.1667ZM6.00001 1.83333C4.50001 1.83333 3.83334 2.91999 3.83334 3.99999V12C3.83334 13.08 4.50001 14.1667 6.00001 14.1667H10C11.5 14.1667 12.1667 13.08 12.1667 12V3.99999C12.1667 2.91999 11.5 1.83333 10 1.83333H6.00001Z" fill="currentColor"/>
<path d="M12.6667 11.1733H3.33334C3.06001 11.1733 2.83334 10.9467 2.83334 10.6733C2.83334 10.4 3.06001 10.1733 3.33334 10.1733H12.6667C12.94 10.1733 13.1667 10.4 13.1667 10.6733C13.1667 10.9467 12.94 11.1733 12.6667 11.1733Z" fill="currentColor"/>
<path d="M1.33334 13.8333C1.06001 13.8333 0.833344 13.6067 0.833344 13.3333V2.66666C0.833344 2.39333 1.06001 2.16666 1.33334 2.16666C1.60668 2.16666 1.83334 2.39333 1.83334 2.66666V13.3333C1.83334 13.6067 1.60668 13.8333 1.33334 13.8333Z" fill="currentColor"/>
<path d="M14.6667 13.8333C14.3933 13.8333 14.1667 13.6067 14.1667 13.3333V2.66666C14.1667 2.39333 14.3933 2.16666 14.6667 2.16666C14.94 2.16666 15.1667 2.39333 15.1667 2.66666V13.3333C15.1667 13.6067 14.94 13.8333 14.6667 13.8333Z" fill="currentColor"/>
</g>
<defs>
<clipPath id="clip0_2_4610">
<rect width="16" height="16" fill="currentColor"/>
</clipPath>
</defs>
</svg>
