<svg width="16" height="16" viewBox="0 0 16 16" fill="none" xmlns="http://www.w3.org/2000/svg">
<path d="M9.33334 14.8333H6.66668C4.46668 14.8333 3.14001 14.3933 2.89334 12.16C2.85334 11.86 2.83334 11.5 2.83334 11V5.00001C2.83334 4.50001 2.85334 4.13334 2.90001 3.82001C3.14001 1.60667 4.46668 1.16667 6.66668 1.16667H9.33334C11.5333 1.16667 12.86 1.60667 13.1067 3.84001C13.1467 4.14001 13.1667 4.50001 13.1667 5.00001V11C13.1667 11.5 13.1467 11.8667 13.1 12.18C12.86 14.3933 11.5333 14.8333 9.33334 14.8333ZM6.66668 2.16667C4.46001 2.16667 4.04001 2.61334 3.88668 3.94667C3.85334 4.22667 3.83334 4.54667 3.83334 5.00001V11C3.83334 11.4533 3.85334 11.7733 3.88668 12.0333C4.03334 13.3867 4.46001 13.8333 6.66668 13.8333H9.33334C11.54 13.8333 11.96 13.3867 12.1133 12.0533C12.1533 11.7733 12.1667 11.4533 12.1667 11V5.00001C12.1667 4.54667 12.1467 4.22667 12.1133 3.96667C11.9667 2.61334 11.54 2.16667 9.33334 2.16667H6.66668Z" fill="currentColor"/>
<path d="M1.33334 13.5C1.06001 13.5 0.833344 13.2733 0.833344 13V3.00001C0.833344 2.72667 1.06001 2.50001 1.33334 2.50001C1.60668 2.50001 1.83334 2.72667 1.83334 3.00001V13C1.83334 13.2733 1.60668 13.5 1.33334 13.5Z" fill="currentColor"/>
<path d="M14.6667 13.1667C14.3933 13.1667 14.1667 12.94 14.1667 12.6667V2.66667C14.1667 2.39334 14.3933 2.16667 14.6667 2.16667C14.94 2.16667 15.1667 2.39334 15.1667 2.66667V12.6667C15.1667 12.94 14.94 13.1667 14.6667 13.1667Z" fill="currentColor"/>
</svg>
