<svg width="16" height="16" viewBox="0 0 16 16" fill="none" xmlns="http://www.w3.org/2000/svg">
<path d="M11 13.1667H4.99999C4.49999 13.1667 4.13332 13.1467 3.81999 13.1C1.60666 12.86 1.16666 11.5333 1.16666 9.33333V6.66666C1.16666 4.46666 1.60666 3.13999 3.83999 2.89333C4.13332 2.85333 4.49999 2.83333 4.99999 2.83333H11C11.5 2.83333 11.8667 2.85333 12.18 2.89999C14.4 3.14666 14.8333 4.46666 14.8333 6.66666V9.33333C14.8333 11.5333 14.3933 12.86 12.16 13.1067C11.8667 13.1467 11.5 13.1667 11 13.1667ZM4.99999 3.83333C4.54666 3.83333 4.22666 3.85333 3.96666 3.88666C2.61332 4.03999 2.16666 4.45999 2.16666 6.66666V9.33333C2.16666 11.54 2.61332 11.96 3.94666 12.1133C4.22666 12.1533 4.54666 12.1667 4.99999 12.1667H11C11.4533 12.1667 11.7733 12.1467 12.0333 12.1133C13.3867 11.9667 13.8333 11.54 13.8333 9.33333V6.66666C13.8333 4.45999 13.3867 4.03999 12.0533 3.88666C11.7733 3.84666 11.4533 3.83333 11 3.83333H4.99999Z" fill="currentColor"/>
<path d="M13 1.83333H2.99999C2.72666 1.83333 2.49999 1.60666 2.49999 1.33333C2.49999 1.05999 2.72666 0.833328 2.99999 0.833328H13C13.2733 0.833328 13.5 1.05999 13.5 1.33333C13.5 1.60666 13.2733 1.83333 13 1.83333Z" fill="currentColor"/>
<path d="M13.3333 15.1667H3.33332C3.05999 15.1667 2.83332 14.94 2.83332 14.6667C2.83332 14.3933 3.05999 14.1667 3.33332 14.1667H13.3333C13.6067 14.1667 13.8333 14.3933 13.8333 14.6667C13.8333 14.94 13.6067 15.1667 13.3333 15.1667Z" fill="currentColor"/>
</svg>
