<svg width="16" height="16" viewBox="0 0 16 16" fill="none" xmlns="http://www.w3.org/2000/svg">
<g clip-path="url(#clip0_2_4818)">
<path d="M8.66668 15.1667H7.33334C5.13334 15.1667 3.80668 14.7267 3.56001 12.4933C3.52001 12.1933 3.50001 11.8333 3.50001 11.3333V4.66666C3.50001 4.16666 3.52001 3.80666 3.56668 3.48666C3.80668 1.27333 5.13334 0.833328 7.33334 0.833328H8.66668C10.8667 0.833328 12.1933 1.27333 12.44 3.50666C12.48 3.80666 12.5 4.16666 12.5 4.66666V11.3333C12.5 11.8333 12.48 12.1933 12.4333 12.5133C12.1933 14.7267 10.8667 15.1667 8.66668 15.1667ZM7.33334 1.83333C5.12668 1.83333 4.70668 2.27999 4.56001 3.61333C4.52001 3.89999 4.50001 4.21333 4.50001 4.66666V11.3333C4.50001 11.7867 4.52001 12.1 4.55334 12.3667C4.70001 13.72 5.12668 14.1667 7.33334 14.1667H8.66668C10.8733 14.1667 11.2933 13.72 11.44 12.3867C11.48 12.1067 11.5 11.7867 11.5 11.3333V4.66666C11.5 4.21999 11.48 3.89999 11.4467 3.63333C11.3 2.27999 10.8733 1.83333 8.66668 1.83333H7.33334Z" fill="currentColor"/>
<path d="M3.78001 12.9467H3.55334C1.49334 12.9467 0.833344 12.2867 0.833344 10.2201V5.78005C0.833344 3.71338 1.49334 3.05338 3.55334 3.05338H3.78001C3.89334 3.05338 3.98668 3.05338 4.09334 3.06005C4.23334 3.06671 4.36001 3.13338 4.44668 3.24671C4.53334 3.36005 4.57334 3.49338 4.55334 3.63338C4.52001 3.90005 4.50001 4.21333 4.50001 4.66666V11.3333C4.50001 11.7867 4.52001 12.1 4.55334 12.3667C4.57334 12.5067 4.53334 12.6467 4.44668 12.7534C4.36001 12.8601 4.23334 12.9267 4.09334 12.9401C3.98668 12.9467 3.89334 12.9467 3.78001 12.9467ZM3.51334 4.05338C2.05334 4.06005 1.83334 4.29338 1.83334 5.78005V10.2201C1.83334 11.7067 2.05334 11.9401 3.51334 11.9467C3.50668 11.7667 3.50001 11.5667 3.50001 11.3333V4.66666C3.50001 4.43333 3.50668 4.23338 3.51334 4.05338Z" fill="currentColor"/>
<path d="M12.4465 12.9467H12.2198C12.1065 12.9467 12.0131 12.9467 11.9065 12.9401C11.7665 12.9334 11.6398 12.8667 11.5531 12.7534C11.4665 12.6467 11.4265 12.5067 11.4465 12.3667C11.4865 12.1001 11.5 11.78 11.5 11.3333V4.66666C11.5 4.21999 11.48 3.89999 11.4467 3.63333C11.4267 3.49333 11.4665 3.35338 11.5531 3.24671C11.6398 3.14005 11.7665 3.07338 11.9065 3.06005C12.0131 3.05338 12.1065 3.05338 12.2198 3.05338H12.4465C14.5065 3.05338 15.1665 3.71338 15.1665 5.78005V10.2201C15.1665 12.2867 14.5065 12.9467 12.4465 12.9467ZM12.4865 4.05338C12.4931 4.23338 12.5 4.43333 12.5 4.66666V11.3333C12.5 11.5667 12.4931 11.7667 12.4865 11.9467C13.9465 11.9401 14.1665 11.7067 14.1665 10.2201V5.78005C14.1665 4.29338 13.9465 4.06005 12.4865 4.05338Z" fill="currentColor"/>
</g>
<defs>
<clipPath id="clip0_2_4818">
<rect width="16" height="16" fill="currentColor"/>
</clipPath>
</defs>
</svg>
