<svg width="16" height="16" viewBox="0 0 16 16" fill="none" xmlns="http://www.w3.org/2000/svg">
<g clip-path="url(#clip0_2_5118)">
<path d="M11.3333 12.5H4.66668C4.16668 12.5 3.80001 12.48 3.48668 12.4333C1.27334 12.1933 0.833344 10.8667 0.833344 8.66666V7.33333C0.833344 5.13333 1.27334 3.80666 3.50668 3.55999C3.80001 3.51999 4.16668 3.49999 4.66668 3.49999H11.3333C11.8333 3.49999 12.2 3.51999 12.5133 3.56666C14.7333 3.81333 15.1667 5.13333 15.1667 7.33333V8.66666C15.1667 10.8667 14.7267 12.1933 12.4933 12.44C12.2 12.48 11.8333 12.5 11.3333 12.5ZM4.66668 4.49999C4.21334 4.49999 3.89334 4.51999 3.63334 4.55333C2.28001 4.70666 1.83334 5.12666 1.83334 7.33333V8.66666C1.83334 10.8733 2.28001 11.2933 3.61334 11.4467C3.89334 11.4867 4.21334 11.5 4.66668 11.5H11.3333C11.7867 11.5 12.1067 11.48 12.3667 11.4467C13.72 11.3 14.1667 10.8733 14.1667 8.66666V7.33333C14.1667 5.12666 13.72 4.70666 12.3867 4.55333C12.1067 4.51333 11.7867 4.49999 11.3333 4.49999H4.66668Z" fill="currentColor"/>
<path d="M10.2201 15.1668H5.78006C3.7134 15.1668 3.0534 14.5068 3.0534 12.4468V12.2201C3.0534 12.1068 3.0534 12.0068 3.06006 11.9068C3.06673 11.7668 3.1334 11.6401 3.24673 11.5535C3.3534 11.4668 3.4934 11.4268 3.6334 11.4468C3.90006 11.4868 4.22001 11.5 4.66668 11.5H11.3333C11.7867 11.5 12.1067 11.48 12.3667 11.4467C12.5067 11.4267 12.6467 11.4668 12.7534 11.5535C12.8601 11.6401 12.9267 11.7668 12.9401 11.9068C12.9467 12.0135 12.9467 12.1068 12.9467 12.2201V12.4468C12.9467 14.5068 12.2867 15.1668 10.2201 15.1668ZM4.0534 12.4868C4.06006 13.9468 4.2934 14.1668 5.78006 14.1668H10.2201C11.7067 14.1668 11.9401 13.9468 11.9467 12.4868C11.7667 12.4935 11.5667 12.5 11.3333 12.5H4.66668C4.43334 12.5 4.2334 12.4935 4.0534 12.4868Z" fill="currentColor"/>
<path d="M12.4401 4.55999C12.4134 4.55999 12.3934 4.55999 12.3667 4.55333C12.1001 4.51333 11.78 4.49999 11.3333 4.49999H4.66668C4.21334 4.49999 3.89334 4.51999 3.63334 4.55333C3.49334 4.57333 3.3534 4.53333 3.24673 4.44666C3.14006 4.35999 3.0734 4.23333 3.06006 4.09333C3.0534 3.98666 3.0534 3.89333 3.0534 3.77999V3.55333C3.0534 1.49333 3.7134 0.833328 5.78006 0.833328H10.2201C12.2867 0.833328 12.9467 1.49333 12.9467 3.55333V3.77999C12.9467 3.89333 12.9467 3.99333 12.9401 4.09333C12.9334 4.23333 12.8667 4.35999 12.7534 4.44666C12.6667 4.51999 12.5534 4.55999 12.4401 4.55999ZM4.66668 3.49999H11.3333C11.5667 3.49999 11.7667 3.50666 11.9467 3.51333C11.9401 2.05333 11.7067 1.83333 10.2201 1.83333H5.78006C4.2934 1.83333 4.06006 2.05333 4.0534 3.51333C4.2334 3.50666 4.43334 3.49999 4.66668 3.49999Z" fill="currentColor"/>
</g>
<defs>
<clipPath id="clip0_2_5118">
<rect width="16" height="16" fill="currentColor"/>
</clipPath>
</defs>
</svg>
