<svg width="16" height="16" viewBox="0 0 16 16" fill="none" xmlns="http://www.w3.org/2000/svg">
<path d="M12.4068 4.45321C12.1335 4.45321 11.9068 4.22654 11.9068 3.95321V2.94654C11.9068 2.54654 11.5801 2.21321 11.1735 2.21321H2.55348C2.15348 2.21321 1.82015 2.53988 1.82015 2.94654V3.95321C1.82015 4.22654 1.59348 4.45321 1.32015 4.45321C1.04681 4.45321 0.826813 4.22654 0.826813 3.95321V2.94654C0.826813 1.99321 1.60681 1.21321 2.56015 1.21321H11.1735C12.1268 1.21321 12.9068 1.98654 12.9068 2.94654V3.95321C12.9068 4.22654 12.6801 4.45321 12.4068 4.45321Z" fill="currentColor"/>
<path d="M6.86719 12.5665C6.59385 12.5665 6.36718 12.3399 6.36718 12.0665V2.21321C6.36718 1.93988 6.59385 1.71321 6.86719 1.71321C7.14053 1.71321 7.36719 1.93988 7.36719 2.21321V12.0665C7.36719 12.3465 7.14053 12.5665 6.86719 12.5665Z" fill="currentColor"/>
<path d="M8.32026 12.5667H4.60025C4.32692 12.5667 4.10025 12.3401 4.10025 12.0667C4.10025 11.7934 4.32692 11.5667 4.60025 11.5667H8.32026C8.59359 11.5667 8.82026 11.7934 8.82026 12.0667C8.82026 12.3401 8.59359 12.5667 8.32026 12.5667Z" fill="currentColor"/>
<path d="M14.6731 8.80006C14.3998 8.80006 14.1731 8.5734 14.1731 8.30006V7.76673C14.1731 7.56006 13.9998 7.38673 13.7931 7.38673H9.11979C8.84646 7.38673 8.61979 7.16006 8.61979 6.88673C8.61979 6.61338 8.84646 6.38672 9.11979 6.38672H13.7931C14.5531 6.38672 15.1731 7.00673 15.1731 7.76673V8.30006C15.1731 8.58006 14.9531 8.80006 14.6731 8.80006Z" fill="currentColor"/>
<path d="M10.7201 14.7867C10.4467 14.7867 10.2201 14.5601 10.2201 14.2867V7.24673C10.2201 6.9734 10.4467 6.74673 10.7201 6.74673C10.9934 6.74673 11.2201 6.9734 11.2201 7.24673V14.2867C11.2201 14.5601 10.9934 14.7867 10.7201 14.7867Z" fill="currentColor"/>
<path d="M12.1463 14.7868H9.29299C9.01966 14.7868 8.79299 14.5601 8.79299 14.2868C8.79299 14.0135 9.01966 13.7868 9.29299 13.7868H12.1463C12.4197 13.7868 12.6463 14.0135 12.6463 14.2868C12.6463 14.5601 12.4197 14.7868 12.1463 14.7868Z" fill="currentColor"/>
</svg>
