<svg width="16" height="16" viewBox="0 0 16 16" fill="none" xmlns="http://www.w3.org/2000/svg">
<g clip-path="url(#clip0_2_4816)">
<path d="M10.3329 9.66673H2.33291C2.17957 9.66673 2.03957 9.60006 1.94624 9.48006C1.85291 9.36673 1.81291 9.20673 1.84625 9.06006L2.41291 6.36006C2.59957 5.48006 2.99957 4.58008 4.57957 4.58008H8.09293C9.67293 4.58008 10.0729 5.48006 10.2596 6.36006L10.8263 9.06006C10.8596 9.20673 10.8196 9.36006 10.7263 9.48006C10.6263 9.60006 10.4863 9.66673 10.3329 9.66673ZM2.94624 8.66673H9.71293L9.27293 6.56673C9.13293 5.8934 8.96627 5.58008 8.08627 5.58008H4.57291C3.69291 5.58008 3.52625 5.8934 3.38625 6.56673L2.94624 8.66673Z" fill="currentColor"/>
<path d="M10.3132 15.1667H9.3732C8.4732 15.1667 8.28653 14.6133 8.1932 14.3133L8.0932 14.0133C7.9732 13.6733 7.9732 13.6733 7.61987 13.6733H5.05989C4.69989 13.6733 4.69323 13.6867 4.58657 14.0133L4.48656 14.3133C4.38656 14.6133 4.19989 15.1733 3.29989 15.1733H2.35989C1.92656 15.1733 1.51989 14.9933 1.22656 14.6733C0.94656 14.3667 0.806567 13.9467 0.846567 13.5333L1.12657 10.4867C1.21323 9.54 1.5199 8.66666 3.14657 8.66666H9.52653C11.1532 8.66666 11.4599 9.54 11.5466 10.4867L11.8266 13.5333C11.8666 13.9467 11.7265 14.36 11.4465 14.6733C11.1532 14.9867 10.7465 15.1667 10.3132 15.1667ZM9.19987 14.1533C9.2132 14.1533 9.26653 14.1667 9.3732 14.1667H10.3132C10.4665 14.1667 10.6065 14.1067 10.7065 13.9933C10.7999 13.8867 10.8465 13.76 10.8332 13.62L10.5532 10.5733C10.4932 9.94666 10.4665 9.66 9.52653 9.66H3.14657C2.20657 9.66 2.17989 9.94666 2.11989 10.5733L1.83989 13.62C1.82656 13.76 1.87323 13.8933 1.96656 13.9933C2.06656 14.1067 2.20656 14.1667 2.35989 14.1667H3.29989C3.44656 14.1667 3.48657 14.1467 3.49323 14.1467C3.49323 14.14 3.51989 14.06 3.53989 14L3.6399 13.7C3.77323 13.2933 3.9799 12.6733 5.06657 12.6733H7.62653C8.69987 12.6733 8.89993 13.26 9.0466 13.6933L9.1532 14C9.15987 14.0533 9.17987 14.1267 9.19987 14.1533Z" fill="currentColor"/>
<path d="M2.33333 8.16666H1.83333C1.56 8.16666 1.33333 7.94 1.33333 7.66666C1.33333 7.39333 1.56 7.16666 1.83333 7.16666H2.33333C2.60667 7.16666 2.83333 7.39333 2.83333 7.66666C2.83333 7.94 2.60667 8.16666 2.33333 8.16666Z" fill="currentColor"/>
<path d="M10.8333 8.16666H10.3333C10.06 8.16666 9.83333 7.94 9.83333 7.66666C9.83333 7.39333 10.06 7.16666 10.3333 7.16666H10.8333C11.1067 7.16666 11.3333 7.39333 11.3333 7.66666C11.3333 7.94 11.1067 8.16666 10.8333 8.16666Z" fill="currentColor"/>
<path d="M4.83333 11.6667H3.33333C3.06 11.6667 2.83333 11.44 2.83333 11.1667C2.83333 10.8933 3.06 10.6667 3.33333 10.6667H4.83333C5.10667 10.6667 5.33333 10.8933 5.33333 11.1667C5.33333 11.44 5.10667 11.6667 4.83333 11.6667Z" fill="currentColor"/>
<path d="M9.33333 11.6667H7.83333C7.56 11.6667 7.33333 11.44 7.33333 11.1667C7.33333 10.8933 7.56 10.6667 7.83333 10.6667H9.33333C9.60667 10.6667 9.83333 10.8933 9.83333 11.1667C9.83333 11.44 9.60667 11.6667 9.33333 11.6667Z" fill="currentColor"/>
<path d="M12.4741 6.32666C12.4074 6.32666 12.3407 6.31333 12.2741 6.28666C12.0207 6.17333 11.9074 5.88 12.0141 5.62667C12.1407 5.34 12.0674 4.91999 11.8341 4.57332C11.6007 4.21999 11.2474 3.98666 10.9207 4H10.9141C10.6407 4 10.4207 3.78 10.4141 3.50667C10.4141 3.22667 10.6341 3.00666 10.9074 3C11.5941 2.98666 12.2407 3.38001 12.6607 4.01334C13.0874 4.65334 13.1874 5.42002 12.9274 6.02002C12.8541 6.21335 12.6674 6.32666 12.4741 6.32666Z" fill="currentColor"/>
<path d="M14.5467 6.98673C14.5001 6.98673 14.4601 6.98006 14.4134 6.96673C14.1467 6.8934 13.9934 6.62007 14.0667 6.3534C14.3201 5.44674 14.1067 4.36672 13.5001 3.46006C12.8934 2.55339 11.9734 1.94672 11.0334 1.83338C10.7601 1.80005 10.5667 1.55338 10.6001 1.28004C10.6334 1.00671 10.8867 0.80673 11.1534 0.84673C12.3734 0.993397 13.5601 1.76672 14.3267 2.91338C15.0934 4.06005 15.3534 5.44673 15.0267 6.6334C14.9667 6.84006 14.7667 6.98673 14.5467 6.98673Z" fill="currentColor"/>
</g>
<defs>
<clipPath id="clip0_2_4816">
<rect width="16" height="16" fill="currentColor"/>
</clipPath>
</defs>
</svg>
