<svg width="16" height="16" viewBox="0 0 16 16" fill="none" xmlns="http://www.w3.org/2000/svg">
<g clip-path="url(#clip0_2_4812)">
<path d="M11.7332 15.0399H7.59989C7.32655 15.0399 7.09989 14.8133 7.09989 14.5399C7.09989 14.2666 7.32655 14.0399 7.59989 14.0399H11.7332C12.4466 14.0399 13.1466 13.4465 13.2666 12.7399L14.1532 7.43327C14.2332 6.95327 13.9666 6.26653 13.5933 5.96653L8.97322 2.27325C8.43989 1.84658 7.55322 1.84658 7.02655 2.26658L2.40657 5.96653C2.02657 6.2732 1.76657 6.95327 1.84657 7.43327L2.03323 8.55987C2.0799 8.8332 1.89324 9.0932 1.61991 9.1332C1.34657 9.18654 1.09325 8.9932 1.04658 8.71987L0.859914 7.59994C0.719914 6.77327 1.11992 5.71325 1.77992 5.18658L6.39991 1.48655C7.29322 0.76655 8.69989 0.773223 9.59989 1.49322L14.2199 5.18658C14.8732 5.71325 15.2732 6.77327 15.1399 7.59994L14.2532 12.9065C14.0532 14.0865 12.9266 15.0399 11.7332 15.0399Z" fill="currentColor"/>
<path d="M3.3335 15.1667C3.06017 15.1667 2.84017 14.9467 2.8335 14.68C2.8135 13.78 2.22017 13.1867 1.32017 13.1667C1.04684 13.16 0.826834 12.9333 0.8335 12.6533C0.840167 12.38 1.06017 12.1667 1.3335 12.1667C1.34017 12.1667 1.34016 12.1667 1.34683 12.1667C2.78016 12.2 3.80683 13.22 3.8335 14.6533C3.84017 14.9267 3.62016 15.16 3.34683 15.1667C3.34016 15.1667 3.34017 15.1667 3.3335 15.1667Z" fill="currentColor"/>
<path d="M5.3335 15.1667C5.06017 15.1667 4.8335 14.9467 4.8335 14.6733C4.82683 14.2333 4.75349 13.8133 4.62016 13.42C4.28016 12.4467 3.55349 11.7266 2.58016 11.3799C2.18683 11.2399 1.76683 11.1667 1.32683 11.1667C1.05349 11.1667 0.826834 10.94 0.8335 10.66C0.8335 10.3867 1.06017 10.1667 1.3335 10.1667H1.34017C1.8935 10.1733 2.42016 10.2667 2.91349 10.44C4.17349 10.8867 5.11349 11.8267 5.56016 13.0867C5.73349 13.58 5.82683 14.1133 5.8335 14.66C5.8335 14.94 5.6135 15.1667 5.3335 15.1667Z" fill="currentColor"/>
<path d="M1.33335 15.3333C0.96002 15.3333 0.666687 15.0333 0.666687 14.6667C0.666687 14.3 0.966687 14 1.33335 14C1.70002 14 2.00002 14.3 2.00002 14.6667C2.00002 15.0333 1.70669 15.3333 1.33335 15.3333Z" fill="currentColor"/>
</g>
<defs>
<clipPath id="clip0_2_4812">
<rect width="16" height="16" fill="currentColor"/>
</clipPath>
</defs>
</svg>
