<svg width="16" height="16" viewBox="0 0 16 16" fill="none" xmlns="http://www.w3.org/2000/svg">
<g clip-path="url(#clip0_2_4608)">
<path d="M6.66665 9.83333H4.13331C1.85331 9.83333 0.833313 8.81333 0.833313 6.53336V4.13329C0.833313 1.85329 1.85331 0.833328 4.13331 0.833328H6.53331C8.81331 0.833328 9.83331 1.85329 9.83331 4.13329V6.66666C9.83331 6.93999 9.61331 7.15999 9.33998 7.16666C7.73998 7.19333 7.19331 7.74666 7.16665 9.33999C7.15998 9.61333 6.93998 9.83333 6.66665 9.83333ZM4.13331 1.83333C2.41331 1.83333 1.83331 2.4133 1.83331 4.13329V6.53336C1.83331 8.25333 2.41331 8.83333 4.13331 8.83333H6.19331C6.35331 7.20666 7.20665 6.36002 8.83331 6.19335V4.13329C8.83331 2.4133 8.25331 1.83333 6.53331 1.83333H4.13331Z" fill="currentColor"/>
<path d="M3.46633 4.42009C3.31299 4.42009 3.15299 4.34679 3.05966 4.20679C2.89966 3.98012 2.95299 3.66676 3.17966 3.50676C3.69966 3.14009 4.39965 3.13341 4.92632 3.49341C5.15299 3.64675 5.21299 3.96011 5.05966 4.18677C4.90633 4.41344 4.59299 4.47341 4.36632 4.32007C4.18632 4.20007 3.94633 4.20008 3.76633 4.32675C3.66633 4.39341 3.56633 4.42009 3.46633 4.42009Z" fill="currentColor"/>
<path d="M6.13299 4.42009C5.97966 4.42009 5.81966 4.34679 5.72633 4.20679C5.56633 3.98012 5.61966 3.66676 5.84633 3.50676C6.36633 3.14009 7.06631 3.13341 7.59298 3.49341C7.81965 3.64675 7.87965 3.96011 7.72631 4.18677C7.57298 4.41344 7.25965 4.47341 7.03298 4.32007C6.85298 4.20007 6.61299 4.20008 6.43299 4.32675C6.33299 4.39341 6.23299 4.42009 6.13299 4.42009Z" fill="currentColor"/>
<path d="M5.4405 8.11346H3.89383C3.4205 8.11346 3.03383 7.72673 3.03383 7.25339C3.03383 5.98675 4.06717 4.95345 5.33383 4.95345C5.85383 4.95345 6.36717 5.13337 6.77385 5.46003C6.98718 5.63337 7.02718 5.94673 6.85385 6.16007C6.68051 6.3734 6.36717 6.40673 6.15383 6.24007C5.9205 6.0534 5.6405 5.95345 5.3405 5.95345C4.67383 5.95345 4.1205 6.46011 4.04717 7.11346H5.44717C5.7205 7.11346 5.94717 7.34013 5.94717 7.61346C5.94717 7.88679 5.71383 8.11346 5.4405 8.11346Z" fill="currentColor"/>
<path d="M11.8666 15.1667H9.46665C7.18665 15.1667 6.16665 14.1467 6.16665 11.8667V9.33333C6.20665 7.20666 7.20665 6.20666 9.32665 6.16666H11.8666C14.1466 6.16666 15.1666 7.18666 15.1666 9.46666V11.8667C15.1666 14.1467 14.1466 15.1667 11.8666 15.1667ZM9.33331 7.16666C7.74665 7.19333 7.19331 7.74666 7.16665 9.33999V11.8667C7.16665 13.5867 7.74665 14.1667 9.46665 14.1667H11.8666C13.5866 14.1667 14.1666 13.5867 14.1666 11.8667V9.46666C14.1666 7.74666 13.5866 7.16666 11.8666 7.16666H9.33331Z" fill="currentColor"/>
<path d="M9.39298 9.75339C9.07965 9.75339 8.77298 9.66006 8.51298 9.47339C8.28631 9.31339 8.23298 9.00013 8.39298 8.77346C8.55298 8.54679 8.86631 8.49339 9.09298 8.65339C9.27298 8.78006 9.51298 8.78006 9.69298 8.66006C9.91965 8.50673 10.233 8.56006 10.3863 8.79339C10.5396 9.02006 10.4863 9.3334 10.253 9.48673C9.99298 9.66673 9.69298 9.75339 9.39298 9.75339Z" fill="currentColor"/>
<path d="M12.0596 9.75339C11.7463 9.75339 11.4396 9.66006 11.1796 9.47339C10.953 9.31339 10.8996 9.00013 11.0596 8.77346C11.2196 8.54679 11.533 8.49339 11.7596 8.65339C11.9396 8.78006 12.1796 8.78006 12.3596 8.66006C12.5863 8.50673 12.8996 8.56006 13.053 8.79339C13.2063 9.02006 13.153 9.3334 12.9196 9.48673C12.6596 9.66673 12.3596 9.75339 12.0596 9.75339Z" fill="currentColor"/>
<path d="M10.6672 13.4468C9.40051 13.4468 8.36718 12.4134 8.36718 11.1467C8.36718 10.6734 8.75385 10.2868 9.22718 10.2868H12.1072C12.5805 10.2868 12.9672 10.6734 12.9672 11.1467C12.9672 12.4134 11.9338 13.4468 10.6672 13.4468ZM9.37385 11.2868C9.44051 11.9401 9.99384 12.4468 10.6672 12.4468C11.3405 12.4468 11.8872 11.9401 11.9605 11.2868H9.37385Z" fill="currentColor"/>
</g>
<defs>
<clipPath id="clip0_2_4608">
<rect width="16" height="16" fill="currentColor"/>
</clipPath>
</defs>
</svg>
