<svg width="16" height="16" viewBox="0 0 16 16" fill="none" xmlns="http://www.w3.org/2000/svg">
<path d="M11.3333 14.1667H4.66665C2.23331 14.1667 0.833313 12.7667 0.833313 10.3333V5.66666C0.833313 3.23333 2.23331 1.83333 4.66665 1.83333H7.99998C8.27331 1.83333 8.49998 2.05999 8.49998 2.33333C8.49998 2.60666 8.27331 2.83333 7.99998 2.83333H4.66665C2.75998 2.83333 1.83331 3.75999 1.83331 5.66666V10.3333C1.83331 12.24 2.75998 13.1667 4.66665 13.1667H11.3333C13.24 13.1667 14.1666 12.24 14.1666 10.3333V7.66666C14.1666 7.39333 14.3933 7.16666 14.6666 7.16666C14.94 7.16666 15.1666 7.39333 15.1666 7.66666V10.3333C15.1666 12.7667 13.7666 14.1667 11.3333 14.1667Z" fill="currentColor"/>
<path d="M7.99918 8.57986C7.43918 8.57986 6.87251 8.40653 6.43918 8.05319L4.35251 6.38651C4.13918 6.21318 4.09919 5.89985 4.27251 5.68651C4.44585 5.47318 4.75917 5.43318 4.97251 5.60651L7.05918 7.27319C7.56585 7.67986 8.42585 7.67986 8.93251 7.27319C9.14585 7.09986 9.45918 7.13319 9.63251 7.35319C9.80585 7.56653 9.77251 7.88653 9.55251 8.05319C9.12585 8.40653 8.55918 8.57986 7.99918 8.57986Z" fill="currentColor"/>
<path d="M11.1604 6.50015C10.8871 6.50015 10.7004 6.40681 10.5804 6.32014C10.3604 6.16014 10.0204 5.76015 10.2204 4.88015L10.2538 4.74015C10.2671 4.68681 10.2271 4.56015 10.1938 4.52015L9.96045 4.28681C9.56711 3.88681 9.41378 3.42015 9.54711 3.00015C9.68045 2.58681 10.0738 2.29348 10.6271 2.20015L10.8804 2.16015C10.9271 2.14681 11.0204 2.08015 11.0471 2.03348L11.2338 1.65347C11.4938 1.12681 11.8938 0.826813 12.3338 0.826813C12.7738 0.826813 13.1738 1.12681 13.4338 1.65347L13.6204 2.03348C13.6404 2.07348 13.7404 2.14681 13.7871 2.16015L14.0404 2.20015C14.5938 2.29348 14.9871 2.58681 15.1204 3.00015C15.2538 3.41348 15.1071 3.88014 14.7071 4.28681L14.4738 4.52015C14.4404 4.56015 14.4004 4.68681 14.4138 4.74015L14.4471 4.88015C14.6471 5.76015 14.3071 6.16014 14.0871 6.32014C13.8671 6.48014 13.3871 6.67346 12.6204 6.21349L12.4538 6.11348C12.4071 6.08681 12.2738 6.08681 12.2271 6.11348L12.0538 6.21349C11.6938 6.42682 11.3938 6.50015 11.1604 6.50015ZM12.3271 1.83348C12.3204 1.84015 12.2271 1.90681 12.1338 2.10014L11.9471 2.48015C11.7871 2.80681 11.4071 3.08681 11.0538 3.14681L10.8004 3.18681C10.5871 3.22015 10.5138 3.29349 10.5071 3.30682C10.5071 3.32015 10.5271 3.42681 10.6804 3.58014L10.9138 3.81348C11.1871 4.09348 11.3271 4.57347 11.2404 4.95347L11.2071 5.09348C11.1538 5.33348 11.1738 5.46014 11.1871 5.50681C11.2004 5.49347 11.3204 5.48015 11.5404 5.34681L11.7138 5.24681C12.0804 5.02681 12.6071 5.02681 12.9738 5.24681L13.1404 5.34681C13.3604 5.48015 13.4738 5.49348 13.5138 5.49348C13.5071 5.47348 13.5338 5.35348 13.4738 5.09348L13.4404 4.95347C13.3538 4.56681 13.4938 4.09348 13.7671 3.81348L14.0004 3.58014C14.1538 3.42681 14.1738 3.32015 14.1738 3.30015C14.1671 3.28681 14.0938 3.22015 13.8804 3.18015L13.6271 3.14015C13.2671 3.08015 12.8938 2.80015 12.7338 2.47349L12.5471 2.10014C12.4404 1.90014 12.3538 1.84015 12.3271 1.83348Z" fill="currentColor"/>
</svg>
