<svg width="16" height="16" viewBox="0 0 16 16" fill="none" xmlns="http://www.w3.org/2000/svg">
<path d="M7.99998 14.1667H4.66665C2.23331 14.1667 0.833313 12.7667 0.833313 10.3333V5.66666C0.833313 3.23333 2.23331 1.83333 4.66665 1.83333H11.3333C13.7666 1.83333 15.1666 3.23333 15.1666 5.66666V7.66666C15.1666 7.93999 14.94 8.16666 14.6666 8.16666C14.3933 8.16666 14.1666 7.93999 14.1666 7.66666V5.66666C14.1666 3.75999 13.24 2.83333 11.3333 2.83333H4.66665C2.75998 2.83333 1.83331 3.75999 1.83331 5.66666V10.3333C1.83331 12.24 2.75998 13.1667 4.66665 13.1667H7.99998C8.27331 13.1667 8.49998 13.3933 8.49998 13.6667C8.49998 13.94 8.27331 14.1667 7.99998 14.1667Z" fill="currentColor"/>
<path d="M7.99918 8.58C7.43918 8.58 6.87251 8.40666 6.43918 8.05333L4.35251 6.38664C4.13918 6.2133 4.09919 5.89998 4.27251 5.68664C4.44585 5.47331 4.75917 5.43998 4.97251 5.60664L7.05918 7.27333C7.56585 7.68 8.42585 7.68 8.93251 7.27333L11.0192 5.60664C11.2325 5.43331 11.5458 5.46664 11.7192 5.68664C11.8925 5.89998 11.8592 6.21997 11.6392 6.38664L9.55251 8.05333C9.12585 8.40666 8.55918 8.58 7.99918 8.58Z" fill="currentColor"/>
<path d="M10.5464 14.5201C10.293 14.5201 10.053 14.4267 9.87971 14.2534C9.67305 14.0467 9.57971 13.7467 9.62638 13.4334L9.75305 12.5334C9.78638 12.3001 9.92638 12.0201 10.093 11.8534L12.453 9.49339C12.773 9.1734 13.0864 9.00673 13.4264 8.9734C13.8397 8.9334 14.253 9.10673 14.6397 9.49339C15.0264 9.88006 15.1997 10.2867 15.1597 10.7067C15.1264 11.0401 14.953 11.3601 14.6397 11.6801L12.2797 14.0401C12.113 14.2067 11.833 14.3467 11.5997 14.3801L10.6996 14.5067C10.6463 14.5134 10.5997 14.5201 10.5464 14.5201ZM13.5397 9.96673C13.533 9.96673 13.5264 9.96673 13.5197 9.96673C13.4264 9.9734 13.2997 10.0601 13.1597 10.2001L10.7997 12.5601C10.7797 12.5801 10.7464 12.6467 10.7464 12.6734L10.6264 13.5067L11.4597 13.3867C11.4864 13.3801 11.553 13.3467 11.573 13.3267L13.933 10.9667C14.073 10.8201 14.1597 10.7001 14.1664 10.6067C14.1797 10.4734 14.0464 10.3134 13.933 10.2001C13.8264 10.0934 13.673 9.96673 13.5397 9.96673Z" fill="currentColor"/>
<path d="M13.947 12.1666C13.9004 12.1666 13.8537 12.1599 13.8137 12.1466C12.9337 11.8999 12.2337 11.1999 11.987 10.3199C11.9137 10.0533 12.067 9.77993 12.3337 9.69993C12.6004 9.6266 12.8737 9.77993 12.947 10.0466C13.1004 10.5933 13.5337 11.0266 14.0804 11.1799C14.347 11.2533 14.5004 11.5333 14.427 11.7999C14.367 12.0199 14.167 12.1666 13.947 12.1666Z" fill="currentColor"/>
</svg>
