<svg width="16" height="16" viewBox="0 0 16 16" fill="none" xmlns="http://www.w3.org/2000/svg">
<path d="M11.3333 14.1667H4.66665C2.23331 14.1667 0.833313 12.7667 0.833313 10.3333V5.66667C0.833313 3.23333 2.23331 1.83333 4.66665 1.83333H9.33331C9.60665 1.83333 9.83331 2.06 9.83331 2.33333C9.83331 2.60667 9.60665 2.83333 9.33331 2.83333H4.66665C2.75998 2.83333 1.83331 3.76 1.83331 5.66667V10.3333C1.83331 12.24 2.75998 13.1667 4.66665 13.1667H11.3333C13.24 13.1667 14.1666 12.24 14.1666 10.3333V7C14.1666 6.72667 14.3933 6.5 14.6666 6.5C14.94 6.5 15.1666 6.72667 15.1666 7V10.3333C15.1666 12.7667 13.7666 14.1667 11.3333 14.1667Z" fill="currentColor"/>
<path d="M7.99918 8.57987C7.43918 8.57987 6.87251 8.40653 6.43918 8.0532L4.35251 6.38652C4.13918 6.21319 4.09919 5.89985 4.27251 5.68652C4.44585 5.47319 4.75917 5.43319 4.97251 5.60652L7.05918 7.2732C7.56585 7.67987 8.42585 7.67987 8.93251 7.2732L9.71918 6.64652C9.93251 6.47319 10.2525 6.50651 10.4192 6.72653C10.5925 6.93987 10.5592 7.25987 10.3392 7.42653L9.55251 8.0532C9.12585 8.40653 8.55918 8.57987 7.99918 8.57987Z" fill="currentColor"/>
<path d="M13 5.83333C11.8066 5.83333 10.8333 4.86 10.8333 3.66667C10.8333 2.47333 11.8066 1.5 13 1.5C14.1933 1.5 15.1666 2.47333 15.1666 3.66667C15.1666 4.86 14.1933 5.83333 13 5.83333ZM13 2.5C12.36 2.5 11.8333 3.02667 11.8333 3.66667C11.8333 4.30667 12.36 4.83333 13 4.83333C13.64 4.83333 14.1666 4.30667 14.1666 3.66667C14.1666 3.02667 13.64 2.5 13 2.5Z" fill="currentColor"/>
</svg>
