<svg width="16" height="16" viewBox="0 0 16 16" fill="none" xmlns="http://www.w3.org/2000/svg">
<path d="M8 14.1333H4.66667C2.2 14.1333 0.800003 12.7333 0.800003 10.2667V5.6C0.800003 3.13334 2.2 1.73334 4.66667 1.73334H11.3333C13.7333 1.73334 15.2 3.13334 15.2 5.6V7.6C15.2 7.86667 15 8.13334 14.6667 8.13334C14.3333 8.13334 14.1333 7.93334 14.1333 7.6V5.6C14.1333 3.66667 13.2 2.8 11.3333 2.8H4.66667C2.73334 2.8 1.86667 3.73334 1.86667 5.6V10.2667C1.86667 12.2 2.8 13.0667 4.66667 13.0667H8C8.26667 13.0667 8.53334 13.2667 8.53334 13.6C8.53334 13.9333 8.26667 14.1333 8 14.1333Z" fill="currentColor"/>
<path d="M8 8.6C7.46667 8.6 6.86667 8.4 6.46667 8.06667L4.33334 6.4C4.13334 6.2 4.06667 5.93334 4.26667 5.73334C4.46667 5.53334 4.73334 5.46667 4.93334 5.66667L7 7.33334C7.53334 7.73334 8.33334 7.73334 8.86667 7.33334L10.9333 5.66667C11.1333 5.46667 11.4667 5.53334 11.6667 5.73334C11.8667 5.93334 11.8 6.26667 11.6 6.4L9.53334 8.06667C9.13334 8.4 8.53334 8.6 8 8.6Z" fill="currentColor"/>
<path d="M11.3333 14.1333C11.2 14.1333 11 14.0667 10.9333 13.9333L9.73334 12.7333C9.46667 12.4667 9.46667 12.1333 9.73334 11.8667C10 11.6 10.3333 11.6 10.6 11.8667L11.3333 12.6667L14.1333 9.86667C14.4 9.6 14.7333 9.6 15 9.86667C15.2667 10.1333 15.2667 10.4667 15 10.7333L11.7333 14C11.6 14.1333 11.4667 14.1333 11.3333 14.1333Z" fill="currentColor"/>
</svg>
