<svg width="16" height="16" viewBox="0 0 16 16" fill="none" xmlns="http://www.w3.org/2000/svg">
<path d="M7.99998 14.1667H4.66665C2.23331 14.1667 0.833313 12.7667 0.833313 10.3333V5.66666C0.833313 3.23333 2.23331 1.83333 4.66665 1.83333H11.3333C13.7666 1.83333 15.1666 3.23333 15.1666 5.66666V7.66666C15.1666 7.93999 14.94 8.16666 14.6666 8.16666C14.3933 8.16666 14.1666 7.93999 14.1666 7.66666V5.66666C14.1666 3.75999 13.24 2.83333 11.3333 2.83333H4.66665C2.75998 2.83333 1.83331 3.75999 1.83331 5.66666V10.3333C1.83331 12.24 2.75998 13.1667 4.66665 13.1667H7.99998C8.27331 13.1667 8.49998 13.3933 8.49998 13.6667C8.49998 13.94 8.27331 14.1667 7.99998 14.1667Z" fill="currentColor"/>
<path d="M7.99918 8.58C7.43918 8.58 6.87251 8.40666 6.43918 8.05333L4.35251 6.38664C4.13918 6.2133 4.09919 5.89998 4.27251 5.68664C4.44585 5.47331 4.75917 5.43998 4.97251 5.60664L7.05918 7.27333C7.56585 7.68 8.42585 7.68 8.93251 7.27333L11.0192 5.60664C11.2325 5.43331 11.5458 5.46664 11.7192 5.68664C11.8925 5.89998 11.8592 6.21997 11.6392 6.38664L9.55251 8.05333C9.12585 8.40666 8.55918 8.58 7.99918 8.58Z" fill="currentColor"/>
<path d="M12.1333 14.7667C10.68 14.7667 9.49998 13.5867 9.49998 12.1333C9.49998 10.68 10.68 9.5 12.1333 9.5C13.5866 9.5 14.7666 10.68 14.7666 12.1333C14.7666 13.5867 13.5866 14.7667 12.1333 14.7667ZM12.1333 10.5C11.2333 10.5 10.5 11.2333 10.5 12.1333C10.5 13.0333 11.2333 13.7667 12.1333 13.7667C13.0333 13.7667 13.7666 13.0333 13.7666 12.1333C13.7666 11.2333 13.0333 10.5 12.1333 10.5Z" fill="currentColor"/>
<path d="M14.6663 15.1666C14.5396 15.1666 14.413 15.1199 14.313 15.0199L13.6463 14.3533C13.453 14.1599 13.453 13.8399 13.6463 13.6466C13.8396 13.4533 14.1596 13.4533 14.353 13.6466L15.0196 14.3133C15.213 14.5066 15.213 14.8266 15.0196 15.0199C14.9196 15.1199 14.793 15.1666 14.6663 15.1666Z" fill="currentColor"/>
</svg>
