<svg width="16" height="16" viewBox="0 0 16 16" fill="none" xmlns="http://www.w3.org/2000/svg">
<path d="M11.3333 14.1667H4.66665C2.23331 14.1667 0.833313 12.7667 0.833313 10.3333V5.66666C0.833313 3.23333 2.23331 1.83333 4.66665 1.83333H11.3333C13.7666 1.83333 15.1666 3.23333 15.1666 5.66666V10.3333C15.1666 12.7667 13.7666 14.1667 11.3333 14.1667ZM4.66665 2.83333C2.75998 2.83333 1.83331 3.75999 1.83331 5.66666V10.3333C1.83331 12.24 2.75998 13.1667 4.66665 13.1667H11.3333C13.24 13.1667 14.1666 12.24 14.1666 10.3333V5.66666C14.1666 3.75999 13.24 2.83333 11.3333 2.83333H4.66665Z" fill="currentColor"/>
<path d="M7.99918 8.58C7.43918 8.58 6.87251 8.40666 6.43918 8.05333L4.35251 6.38664C4.13918 6.21331 4.09919 5.89998 4.27251 5.68664C4.44585 5.47331 4.75919 5.43331 4.97252 5.60664L7.05918 7.27333C7.56585 7.67999 8.42585 7.67999 8.93251 7.27333L11.0192 5.60664C11.2325 5.43331 11.5525 5.46664 11.7192 5.68664C11.8925 5.89998 11.8592 6.21997 11.6392 6.38664L9.55251 8.05333C9.12585 8.40666 8.55918 8.58 7.99918 8.58Z" fill="currentColor"/>
</svg>
