<svg width="16" height="16" viewBox="0 0 16 16" fill="none" xmlns="http://www.w3.org/2000/svg">
<path d="M2 11C1.72667 11 1.5 10.7733 1.5 10.5V5.50001C1.5 5.22667 1.72667 5.00001 2 5.00001C2.27333 5.00001 2.5 5.22667 2.5 5.50001V10.5C2.5 10.7733 2.27333 11 2 11Z" fill="currentColor"/>
<path d="M5 12.6667C4.72667 12.6667 4.5 12.44 4.5 12.1667V3.83334C4.5 3.56001 4.72667 3.33334 5 3.33334C5.27333 3.33334 5.5 3.56001 5.5 3.83334V12.1667C5.5 12.44 5.27333 12.6667 5 12.6667Z" fill="currentColor"/>
<path d="M8 14.3333C7.72667 14.3333 7.5 14.1067 7.5 13.8333V2.16667C7.5 1.89334 7.72667 1.66667 8 1.66667C8.27333 1.66667 8.5 1.89334 8.5 2.16667V13.8333C8.5 14.1067 8.27333 14.3333 8 14.3333Z" fill="currentColor"/>
<path d="M11 12.6667C10.7267 12.6667 10.5 12.44 10.5 12.1667V3.83334C10.5 3.56001 10.7267 3.33334 11 3.33334C11.2733 3.33334 11.5 3.56001 11.5 3.83334V12.1667C11.5 12.44 11.2733 12.6667 11 12.6667Z" fill="currentColor"/>
<path d="M14 11C13.7267 11 13.5 10.7733 13.5 10.5V5.50001C13.5 5.22667 13.7267 5.00001 14 5.00001C14.2733 5.00001 14.5 5.22667 14.5 5.50001V10.5C14.5 10.7733 14.2733 11 14 11Z" fill="currentColor"/>
</svg>
