<svg width="16" height="16" viewBox="0 0 16 16" fill="none" xmlns="http://www.w3.org/2000/svg">
<path d="M9.99998 15.1667H5.99998C3.71998 15.1667 2.83331 14.28 2.83331 12V3.99999C2.83331 1.71999 3.71998 0.833328 5.99998 0.833328H9.99998C12.28 0.833328 13.1666 1.71999 13.1666 3.99999V12C13.1666 14.28 12.28 15.1667 9.99998 15.1667ZM5.99998 1.83333C4.27998 1.83333 3.83331 2.27999 3.83331 3.99999V12C3.83331 13.72 4.27998 14.1667 5.99998 14.1667H9.99998C11.72 14.1667 12.1666 13.72 12.1666 12V3.99999C12.1666 2.27999 11.72 1.83333 9.99998 1.83333H5.99998Z" fill="currentColor"/>
<path d="M7.99998 12.5C6.61998 12.5 5.49998 11.38 5.49998 9.99999C5.49998 8.61999 6.61998 7.49999 7.99998 7.49999C9.37998 7.49999 10.5 8.61999 10.5 9.99999C10.5 11.38 9.37998 12.5 7.99998 12.5ZM7.99998 8.49999C7.17331 8.49999 6.49998 9.17333 6.49998 9.99999C6.49998 10.8267 7.17331 11.5 7.99998 11.5C8.82665 11.5 9.49998 10.8267 9.49998 9.99999C9.49998 9.17333 8.82665 8.49999 7.99998 8.49999Z" fill="currentColor"/>
<path d="M7.99998 6.49999C7.17331 6.49999 6.49998 5.82666 6.49998 4.99999C6.49998 4.17333 7.17331 3.49999 7.99998 3.49999C8.82665 3.49999 9.49998 4.17333 9.49998 4.99999C9.49998 5.82666 8.82665 6.49999 7.99998 6.49999ZM7.99998 4.49999C7.72665 4.49999 7.49998 4.72666 7.49998 4.99999C7.49998 5.27333 7.72665 5.49999 7.99998 5.49999C8.27331 5.49999 8.49998 5.27333 8.49998 4.99999C8.49998 4.72666 8.27331 4.49999 7.99998 4.49999Z" fill="currentColor"/>
</svg>
