<svg width="16" height="16" viewBox="0 0 16 16" fill="none" xmlns="http://www.w3.org/2000/svg">
<path d="M12.76 13.5C12.6333 13.5 12.5066 13.4533 12.4066 13.36C12.2066 13.1667 12.2066 12.8533 12.4 12.6533C13.54 11.4933 14.1666 9.96001 14.1666 8.33334C14.1666 4.93334 11.4 2.16667 7.99998 2.16667C4.59998 2.16667 1.83331 4.93334 1.83331 8.33334C1.83331 9.95334 2.45331 11.48 3.58665 12.64C3.77998 12.84 3.77331 13.1533 3.57998 13.3467C3.37998 13.54 3.06665 13.5333 2.87331 13.34C1.55998 11.9933 0.833313 10.2133 0.833313 8.33334C0.833313 4.38001 4.04665 1.16667 7.99998 1.16667C11.9533 1.16667 15.1666 4.38001 15.1666 8.33334C15.1666 10.22 14.44 12.0067 13.1133 13.3533C13.02 13.4533 12.8866 13.5 12.76 13.5Z" fill="currentColor"/>
<path d="M7.99925 14.8333C6.48591 14.8333 5.25259 13.6 5.25259 12.0867C5.25259 10.5733 6.48591 9.33334 7.99925 9.33334C9.51258 9.33334 10.7459 10.5667 10.7459 12.08C10.7459 13.5933 9.51258 14.8333 7.99925 14.8333ZM7.99925 10.3333C7.03258 10.3333 6.25259 11.12 6.25259 12.08C6.25259 13.04 7.03925 13.8267 7.99925 13.8267C8.95925 13.8267 9.74591 13.04 9.74591 12.08C9.74591 11.12 8.96591 10.3333 7.99925 10.3333Z" fill="currentColor"/>
<path d="M10.6666 8.50001H10.1666C9.61331 8.50001 9.16665 8.05334 9.16665 7.50001V7.00001C9.16665 6.17334 9.83998 5.50001 10.6666 5.50001C11.4933 5.50001 12.1666 6.17334 12.1666 7.00001C12.1666 7.82667 11.4933 8.50001 10.6666 8.50001ZM10.6666 6.50001C10.3933 6.50001 10.1666 6.72667 10.1666 7.00001V7.50001H10.6666C10.94 7.50001 11.1666 7.27334 11.1666 7.00001C11.1666 6.72667 10.94 6.50001 10.6666 6.50001Z" fill="currentColor"/>
</svg>
