<svg width="16" height="16" viewBox="0 0 16 16" fill="none" xmlns="http://www.w3.org/2000/svg">
<path d="M6.32079 13.7934C5.98746 13.7934 5.75413 13.6801 5.61413 13.5734C5.34746 13.3801 4.93412 12.8801 5.19412 11.7601L5.57411 10.1201C5.60744 9.98007 5.53412 9.72674 5.43412 9.62007L4.10746 8.2934C3.40746 7.5934 3.46745 6.98674 3.56078 6.68674C3.65412 6.38671 3.96078 5.86004 4.93412 5.69337L6.63412 5.41338C6.76081 5.39338 6.96748 5.24004 7.02081 5.12671L7.96081 3.24671C8.41414 2.34004 9.01414 2.20671 9.33414 2.20671C9.65414 2.20671 10.2541 2.34004 10.7075 3.24671L11.6475 5.12671C11.7075 5.24004 11.9074 5.39338 12.0341 5.41338L13.7341 5.69337C14.7075 5.85337 15.0141 6.38671 15.1075 6.68674C15.2008 6.98674 15.2608 7.5934 14.5608 8.2934L13.2341 9.62007C13.1341 9.72007 13.0608 9.98007 13.0941 10.1201L13.4741 11.7601C13.7341 12.8867 13.3207 13.3801 13.0541 13.5734C12.7874 13.7667 12.1941 14.0134 11.1941 13.4201L9.60081 12.4734C9.46748 12.3934 9.18741 12.3934 9.05408 12.4734L7.46081 13.4201C7.00081 13.7001 6.61412 13.7934 6.32079 13.7934ZM9.33414 3.20671C9.22748 3.20671 9.03414 3.33337 8.85414 3.69337L7.91414 5.57338C7.71414 5.98004 7.24081 6.32672 6.79414 6.40005L5.09413 6.68007C4.71413 6.74674 4.54079 6.88674 4.50746 6.9934C4.47412 7.10007 4.53411 7.3134 4.80744 7.58674L6.13412 8.9134C6.47412 9.2534 6.65412 9.8734 6.54746 10.3401L6.16745 11.9801C6.05412 12.4534 6.12744 12.7067 6.20078 12.7667C6.27411 12.8201 6.54078 12.8134 6.95414 12.5601L8.55408 11.6134C9.00074 11.3467 9.67414 11.3467 10.1141 11.6134L11.7075 12.5601C12.1275 12.8067 12.3941 12.8201 12.4675 12.7667C12.5408 12.7134 12.6141 12.4601 12.5008 11.9801L12.1208 10.3401C12.0141 9.86674 12.1874 9.2534 12.5341 8.9134L13.8608 7.58674C14.1341 7.3134 14.1941 7.0934 14.1608 6.9934C14.1275 6.8934 13.9541 6.74674 13.5741 6.68007L11.8741 6.40005C11.4275 6.32672 10.9541 5.98004 10.7541 5.57338L9.81414 3.69337C9.63414 3.33337 9.44081 3.20671 9.33414 3.20671Z" fill="currentColor"/>
<path d="M5.33334 3.83334H1.33334C1.06001 3.83334 0.833344 3.60667 0.833344 3.33334C0.833344 3.06 1.06001 2.83334 1.33334 2.83334H5.33334C5.60668 2.83334 5.83334 3.06 5.83334 3.33334C5.83334 3.60667 5.60668 3.83334 5.33334 3.83334Z" fill="currentColor"/>
<path d="M3.33334 13.1667H1.33334C1.06001 13.1667 0.833344 12.94 0.833344 12.6667C0.833344 12.3933 1.06001 12.1667 1.33334 12.1667H3.33334C3.60668 12.1667 3.83334 12.3933 3.83334 12.6667C3.83334 12.94 3.60668 13.1667 3.33334 13.1667Z" fill="currentColor"/>
<path d="M2.00001 8.5H1.33334C1.06001 8.5 0.833344 8.27334 0.833344 8C0.833344 7.72667 1.06001 7.5 1.33334 7.5H2.00001C2.27334 7.5 2.50001 7.72667 2.50001 8C2.50001 8.27334 2.27334 8.5 2.00001 8.5Z" fill="currentColor"/>
</svg>
