<svg width="16" height="16" viewBox="0 0 16 16" fill="none" xmlns="http://www.w3.org/2000/svg">
<g clip-path="url(#clip0_2_4603)">
<path d="M11.7734 15.1134C11.42 15.1134 10.9667 15.0001 10.4 14.6667L8.40671 13.4867C8.20005 13.3667 7.80005 13.3667 7.60005 13.4867L5.60006 14.6667C4.42006 15.3667 3.72673 15.0867 3.41339 14.8601C3.10672 14.6334 2.62672 14.0534 2.94006 12.7201L3.41339 10.6734C3.46673 10.4601 3.36006 10.0934 3.20006 9.9334L1.54672 8.28007C0.720058 7.4534 0.786725 6.74674 0.900058 6.40005C1.01339 6.05338 1.37339 5.44005 2.52006 5.24672L4.64672 4.89338C4.84672 4.86005 5.13339 4.64672 5.22006 4.46672L6.40006 2.11338C6.93338 1.04005 7.63338 0.880051 8.00005 0.880051C8.36671 0.880051 9.06671 1.04005 9.60005 2.11338L10.7734 4.46005C10.8667 4.64005 11.1534 4.85338 11.3534 4.88672L13.48 5.24005C14.6334 5.43338 14.9934 6.04672 15.1 6.39338C15.2067 6.74007 15.2734 7.44674 14.4534 8.2734L12.8 9.9334C12.64 10.0934 12.54 10.4534 12.5867 10.6734L13.06 12.7201C13.3667 14.0534 12.8934 14.6334 12.5867 14.8601C12.42 14.9801 12.1534 15.1134 11.7734 15.1134ZM8.00005 12.3934C8.32671 12.3934 8.65338 12.4734 8.91338 12.6267L10.9067 13.8067C11.4867 14.1534 11.8534 14.1534 11.9934 14.0534C12.1334 13.9534 12.2334 13.6001 12.0867 12.9467L11.6134 10.9001C11.4867 10.3467 11.6934 9.6334 12.0934 9.22674L13.7467 7.5734C14.0734 7.24674 14.22 6.92674 14.1534 6.70674C14.08 6.48672 13.7734 6.30672 13.32 6.23338L11.1934 5.88005C10.68 5.79338 10.12 5.38005 9.88671 4.91338L8.71338 2.56672C8.50005 2.14005 8.23338 1.88672 8.00005 1.88672C7.76671 1.88672 7.50005 2.14005 7.29338 2.56672L6.11339 4.91338C5.88006 5.38005 5.32006 5.79338 4.80673 5.88005L2.68672 6.23338C2.23339 6.30672 1.92672 6.48672 1.85339 6.70674C1.78006 6.92674 1.93339 7.2534 2.26006 7.5734L3.91339 9.22674C4.31339 9.62674 4.52006 10.3467 4.39339 10.9001L3.92006 12.9467C3.76672 13.6067 3.87339 13.9534 4.01339 14.0534C4.15339 14.1534 4.51339 14.1467 5.10006 13.8067L7.09338 12.6267C7.34671 12.4734 7.67338 12.3934 8.00005 12.3934Z" fill="currentColor"/>
</g>
<defs>
<clipPath id="clip0_2_4603">
<rect width="16" height="16" fill="currentColor"/>
</clipPath>
</defs>
</svg>
