<svg width="16" height="16" viewBox="0 0 16 16" fill="none" xmlns="http://www.w3.org/2000/svg">
<g clip-path="url(#clip0_2_5071)">
<path d="M3.52009 12.9334C3.48009 12.9334 3.44676 12.9267 3.40676 12.9201C3.14009 12.8601 2.96676 12.5867 3.03342 12.3201L3.41342 10.6801C3.46676 10.4667 3.36009 10.1001 3.20009 9.94007L1.54676 8.28673C0.720089 7.46007 0.786755 6.7534 0.900089 6.40672C1.01342 6.06005 1.37342 5.44672 2.52009 5.25339L4.64676 4.90005C4.84676 4.86005 5.13342 4.64672 5.22009 4.46672L6.40009 2.11339C6.93341 1.04005 7.63341 0.886721 8.00008 0.886721C8.36674 0.886721 9.06674 1.04672 9.60008 2.11339L10.7734 4.46005C10.8134 4.54005 10.9001 4.63339 11.0001 4.71339C11.2201 4.88005 11.2601 5.20005 11.0867 5.41339C10.9201 5.63339 10.6067 5.67339 10.3867 5.50005C10.2267 5.38005 10.0134 5.17339 9.88008 4.90672L8.70674 2.56005C8.50008 2.14005 8.23341 1.88672 8.00008 1.88672C7.76674 1.88672 7.50008 2.14005 7.29341 2.56672L6.11342 4.91339C5.88009 5.38005 5.32009 5.79339 4.80676 5.88005L2.68676 6.23339C2.23342 6.30672 1.92676 6.48672 1.85342 6.70673C1.78009 6.92673 1.93342 7.2534 2.26009 7.5734L3.91342 9.22673C4.31342 9.62673 4.52009 10.3467 4.39342 10.9001L4.01342 12.5401C3.95342 12.7734 3.75342 12.9334 3.52009 12.9334Z" fill="currentColor"/>
<path d="M11.7729 15.1133C11.4195 15.1133 10.9662 14.9999 10.3995 14.6666L8.40621 13.4866C8.19954 13.3666 7.79954 13.3666 7.59954 13.4866L5.59956 14.6666C5.36623 14.8066 5.0529 14.7266 4.9129 14.4933C4.7729 14.2533 4.8529 13.9466 5.08623 13.8066L7.07954 12.6266C7.59954 12.3199 8.38621 12.3199 8.90621 12.6266L10.8995 13.8066C11.4795 14.1533 11.8462 14.1533 11.9862 14.0533C12.1262 13.9533 12.2262 13.5999 12.0795 12.9466L11.6062 10.8999C11.4795 10.3466 11.6862 9.63327 12.0862 9.2266L13.7395 7.57327C14.0662 7.2466 14.2129 6.9266 14.1462 6.7066C14.0729 6.4866 13.7662 6.3066 13.3129 6.23327C13.0395 6.1866 12.8595 5.93327 12.8995 5.65993C12.9462 5.3866 13.1995 5.2066 13.4729 5.2466C14.6262 5.43993 14.9862 6.05327 15.0929 6.39993C15.1995 6.7466 15.2662 7.45327 14.4462 8.27993L12.7995 9.93327C12.6395 10.0933 12.5395 10.4533 12.5862 10.6733L13.0595 12.7199C13.3662 14.0533 12.8929 14.6333 12.5862 14.8599C12.4195 14.9799 12.1529 15.1133 11.7729 15.1133Z" fill="currentColor"/>
<path d="M1.33298 15.1666C1.20631 15.1666 1.07964 15.1199 0.979642 15.0199C0.786309 14.8266 0.786309 14.5066 0.979642 14.3133L14.313 0.979961C14.5063 0.786628 14.8263 0.786628 15.0197 0.979961C15.213 1.17329 15.213 1.49329 15.0197 1.68663L1.68631 15.0199C1.58631 15.1199 1.45964 15.1666 1.33298 15.1666Z" fill="currentColor"/>
</g>
<defs>
<clipPath id="clip0_2_5071">
<rect width="16" height="16" fill="currentColor"/>
</clipPath>
</defs>
</svg>
