<svg width="16" height="16" viewBox="0 0 16 16" fill="none" xmlns="http://www.w3.org/2000/svg">
<g clip-path="url(#clip0_2_4877)">
<path d="M4.5866 12.6001C4.31326 12.6001 4.0866 12.3734 4.0866 12.1001V10.7201C4.0866 10.4467 4.31326 10.2201 4.5866 10.2201C4.85993 10.2201 5.0866 10.4467 5.0866 10.7201V12.1001C5.0866 12.3801 4.85993 12.6001 4.5866 12.6001Z" fill="currentColor"/>
<path d="M8.00001 12.6C7.72668 12.6 7.50001 12.3733 7.50001 12.1V9.33333C7.50001 9.05999 7.72668 8.83333 8.00001 8.83333C8.27334 8.83333 8.50001 9.05999 8.50001 9.33333V12.1C8.50001 12.38 8.27334 12.6 8.00001 12.6Z" fill="currentColor"/>
<path d="M11.4134 12.6001C11.1401 12.6001 10.9134 12.3735 10.9134 12.1001V7.95346C10.9134 7.68013 11.1401 7.45346 11.4134 7.45346C11.6867 7.45346 11.9134 7.68013 11.9134 7.95346V12.1001C11.9134 12.3801 11.6934 12.6001 11.4134 12.6001Z" fill="currentColor"/>
<path d="M4.5864 8.7866C4.35973 8.7866 4.15973 8.63326 4.09973 8.40659C4.03306 8.13993 4.19306 7.86659 4.4664 7.79993C6.91974 7.18659 9.07974 5.84661 10.7264 3.93327L11.0331 3.57327C11.2131 3.36661 11.5264 3.33994 11.7397 3.51994C11.9464 3.69994 11.9731 4.01327 11.7931 4.22661L11.4864 4.58661C9.70641 6.66661 7.35974 8.11326 4.7064 8.77326C4.6664 8.7866 4.6264 8.7866 4.5864 8.7866Z" fill="currentColor"/>
<path d="M11.4136 6.34673C11.1403 6.34673 10.9136 6.12006 10.9136 5.84673V4.40006H9.46028C9.18694 4.40006 8.96028 4.17339 8.96028 3.90006C8.96028 3.62673 9.18694 3.40006 9.46028 3.40006H11.4136C11.6869 3.40006 11.9136 3.62673 11.9136 3.90006V5.85339C11.9136 6.12673 11.6936 6.34673 11.4136 6.34673Z" fill="currentColor"/>
<path d="M10 15.1667H6.00001C2.38001 15.1667 0.833344 13.62 0.833344 9.99999V5.99999C0.833344 2.37999 2.38001 0.833328 6.00001 0.833328H10C13.62 0.833328 15.1667 2.37999 15.1667 5.99999V9.99999C15.1667 13.62 13.62 15.1667 10 15.1667ZM6.00001 1.83333C2.92668 1.83333 1.83334 2.92666 1.83334 5.99999V9.99999C1.83334 13.0733 2.92668 14.1667 6.00001 14.1667H10C13.0733 14.1667 14.1667 13.0733 14.1667 9.99999V5.99999C14.1667 2.92666 13.0733 1.83333 10 1.83333H6.00001Z" fill="currentColor"/>
</g>
<defs>
<clipPath id="clip0_2_4877">
<rect width="16" height="16" fill="currentColor"/>
</clipPath>
</defs>
</svg>
