<svg width="16" height="16" viewBox="0 0 16 16" fill="none" xmlns="http://www.w3.org/2000/svg">
<g clip-path="url(#clip0_2_4847)">
<path d="M6.65987 15.0334C6.62653 15.0334 6.5932 15.0334 6.55987 15.0201C4.00653 14.5001 1.9332 12.6201 1.15987 10.1267C1.07987 9.86006 1.22653 9.58006 1.48653 9.50006C1.7532 9.42006 2.0332 9.56673 2.1132 9.82673C2.77987 11.9734 4.55987 13.5867 6.75987 14.0334C7.0332 14.0867 7.20653 14.3534 7.14653 14.6267C7.09987 14.8667 6.88653 15.0334 6.65987 15.0334Z" fill="currentColor"/>
<path d="M14.6335 7.81999C14.3801 7.81999 14.1601 7.62666 14.1335 7.37333C13.8135 4.21333 11.1735 1.83333 8.00013 1.83333C4.82015 1.83333 2.18681 4.21333 1.86681 7.36666C1.84015 7.63999 1.60015 7.84666 1.32015 7.81333C1.04681 7.78666 0.846812 7.53999 0.873479 7.26666C1.24681 3.59999 4.31348 0.833328 8.00013 0.833328C11.6935 0.833328 14.7601 3.59999 15.1268 7.26666C15.1535 7.53999 14.9535 7.78666 14.6801 7.81333C14.6668 7.81999 14.6468 7.81999 14.6335 7.81999Z" fill="currentColor"/>
<path d="M9.34007 15.0332C9.10673 15.0332 8.90007 14.8732 8.8534 14.6332C8.80007 14.3599 8.9734 14.0999 9.24007 14.0465C11.4267 13.5999 13.2067 11.9999 13.8801 9.86653C13.9601 9.59986 14.2467 9.45319 14.5067 9.53986C14.7734 9.61986 14.9134 9.90653 14.8334 10.1665C14.0467 12.6465 11.9801 14.5065 9.44007 15.0265C9.40673 15.0265 9.3734 15.0332 9.34007 15.0332Z" fill="currentColor"/>
</g>
<defs>
<clipPath id="clip0_2_4847">
<rect width="16" height="16" fill="currentColor"/>
</clipPath>
</defs>
</svg>
