<svg width="16" height="16" viewBox="0 0 16 16" fill="none" xmlns="http://www.w3.org/2000/svg">
<g clip-path="url(#clip0_2_4600)">
<path d="M7.97952 15.1666C7.57286 15.1666 7.15286 15.1333 6.72619 15.0599C3.79287 14.5599 1.39954 12.1599 0.91287 9.21327C0.526202 6.87327 1.25287 4.58661 2.91287 2.92661C4.57287 1.26661 6.85952 0.546611 9.19286 0.926612C12.1329 1.41328 14.5395 3.79995 15.0395 6.73327C15.1462 7.37994 15.1729 8.01327 15.1195 8.61327V8.61994C15.1062 8.77327 15.0795 8.91994 15.0395 9.06661C14.9929 9.23327 14.8662 9.35994 14.7062 9.41327C14.5462 9.46661 14.3662 9.42661 14.2329 9.31994C13.6062 8.79327 12.8062 8.49994 11.9795 8.49994C10.0462 8.49994 8.47952 10.0733 8.47952 11.9999C8.47952 12.8266 8.77286 13.6266 9.29952 14.2533C9.41286 14.3866 9.44619 14.5599 9.39286 14.7266C9.33952 14.8933 9.21286 15.0133 9.04619 15.0599C8.89952 15.0999 8.75286 15.1266 8.59952 15.1399C8.39952 15.1599 8.19286 15.1666 7.97952 15.1666ZM7.97952 1.83328C6.3462 1.83328 4.79954 2.46661 3.6262 3.63994C2.19954 5.06661 1.57287 7.03994 1.9062 9.05327C2.3262 11.5799 4.37287 13.6466 6.89952 14.0733C7.29952 14.1399 7.67952 14.1799 8.04619 14.1666C7.68619 13.5066 7.49286 12.7599 7.49286 11.9999C7.49286 9.51994 9.51286 7.49994 11.9929 7.49994C12.7529 7.49994 13.4995 7.69327 14.1595 8.05327C14.1662 7.6866 14.1329 7.30661 14.0662 6.90661C13.6395 4.38661 11.5729 2.33328 9.04619 1.91994C8.67952 1.85994 8.32619 1.83328 7.97952 1.83328Z" fill="currentColor"/>
<path d="M8.92046 15.0733C8.77379 15.0733 8.63379 15.0133 8.54046 14.8933C7.86046 14.0867 7.48046 13.06 7.48046 12C7.48046 9.52001 9.50046 7.50001 11.9805 7.50001C13.0405 7.50001 14.0671 7.87334 14.8738 8.56001C15.0271 8.68667 15.0871 8.89334 15.0338 9.08001C14.9138 9.49334 14.7005 9.85334 14.3938 10.16L10.1405 14.4133C9.83379 14.72 9.46712 14.9333 9.06046 15.0533C9.01379 15.0667 8.96712 15.0733 8.92046 15.0733ZM11.9795 8.49994C10.0462 8.49994 8.47952 10.0733 8.47952 11.9999C8.47952 12.7066 8.69379 13.3933 9.08712 13.9667C9.21379 13.9 9.32712 13.8133 9.43379 13.7067L13.6871 9.45334C13.7938 9.34667 13.8805 9.23334 13.9471 9.10667C13.3738 8.71334 12.6862 8.49994 11.9795 8.49994Z" fill="currentColor"/>
</g>
<defs>
<clipPath id="clip0_2_4600">
<rect width="16" height="16" fill="currentColor"/>
</clipPath>
</defs>
</svg>
