<svg width="16" height="16" viewBox="0 0 16 16" fill="none" xmlns="http://www.w3.org/2000/svg">
<path d="M5.33333 3.83333C5.06 3.83333 4.83333 3.60666 4.83333 3.33333V1.33333C4.83333 1.05999 5.06 0.833328 5.33333 0.833328C5.60667 0.833328 5.83333 1.05999 5.83333 1.33333V3.33333C5.83333 3.60666 5.60667 3.83333 5.33333 3.83333Z" fill="currentColor"/>
<path d="M10.6667 3.83333C10.3933 3.83333 10.1667 3.60666 10.1667 3.33333V1.33333C10.1667 1.05999 10.3933 0.833328 10.6667 0.833328C10.94 0.833328 11.1667 1.05999 11.1667 1.33333V3.33333C11.1667 3.60666 10.94 3.83333 10.6667 3.83333Z" fill="currentColor"/>
<path d="M10 7.83333H4.66667C4.39333 7.83333 4.16667 7.60666 4.16667 7.33333C4.16667 7.05999 4.39333 6.83333 4.66667 6.83333H10C10.2733 6.83333 10.5 7.05999 10.5 7.33333C10.5 7.60666 10.2733 7.83333 10 7.83333Z" fill="currentColor"/>
<path d="M8 10.5H4.66667C4.39333 10.5 4.16667 10.2733 4.16667 9.99999C4.16667 9.72666 4.39333 9.49999 4.66667 9.49999H8C8.27333 9.49999 8.5 9.72666 8.5 9.99999C8.5 10.2733 8.27333 10.5 8 10.5Z" fill="currentColor"/>
<path d="M10 15.1667H6C2.25333 15.1667 1.5 13.4 1.5 10.5467V6.43333C1.5 3.27333 2.56667 1.98666 5.30667 1.83333H10.6667C13.4333 1.98666 14.5 3.27333 14.5 6.43333V10.6667C14.5 10.94 14.2733 11.1667 14 11.1667C13.7267 11.1667 13.5 10.94 13.5 10.6667V6.43333C13.5 3.52666 12.5333 2.93999 10.64 2.83333H5.33333C3.46667 2.93999 2.5 3.52666 2.5 6.43333V10.5467C2.5 13.1 2.98667 14.1667 6 14.1667H10C10.2733 14.1667 10.5 14.3933 10.5 14.6667C10.5 14.94 10.2733 15.1667 10 15.1667Z" fill="currentColor"/>
<path d="M10 15.1667C9.93333 15.1667 9.87333 15.1533 9.80667 15.1267C9.62 15.0467 9.5 14.8667 9.5 14.6667V12.6667C9.5 11.0533 10.3867 10.1667 12 10.1667H14C14.2 10.1667 14.3867 10.2867 14.46 10.4733C14.54 10.66 14.4933 10.8733 14.3533 11.02L10.3533 15.02C10.26 15.1133 10.1333 15.1667 10 15.1667ZM12 11.1667C10.9467 11.1667 10.5 11.6133 10.5 12.6667V13.46L12.7933 11.1667H12Z" fill="currentColor"/>
</svg>
