<svg width="16" height="16" viewBox="0 0 16 16" fill="none" xmlns="http://www.w3.org/2000/svg">
<g clip-path="url(#clip0_2_5114)">
<path d="M7.98048 15.1667C4.03381 15.1667 0.813812 11.9533 0.813812 7.99999C0.813812 4.04666 4.03381 0.833328 7.98048 0.833328C11.9271 0.833328 15.1471 4.04666 15.1471 7.99999C15.1471 11.9533 11.9338 15.1667 7.98048 15.1667ZM7.98048 1.83333C4.58048 1.83333 1.81381 4.59999 1.81381 7.99999C1.81381 11.4 4.58048 14.1667 7.98048 14.1667C11.3805 14.1667 14.1471 11.4 14.1471 7.99999C14.1471 4.59999 11.3805 1.83333 7.98048 1.83333Z" fill="currentColor"/>
<path d="M8.84634 11.32H7.15301C5.46636 11.32 4.6797 10.5333 4.6797 8.84666V7.15333C4.6797 5.46667 5.46636 4.68001 7.15301 4.68001H8.84634C10.533 4.68001 11.3197 5.46667 11.3197 7.15333V8.84666C11.3197 10.5333 10.533 11.32 8.84634 11.32ZM7.15301 5.68001C6.02636 5.68001 5.6797 6.02667 5.6797 7.15333V8.84666C5.6797 9.97333 6.02636 10.32 7.15301 10.32H8.84634C9.97301 10.32 10.3197 9.97333 10.3197 8.84666V7.15333C10.3197 6.02667 9.97301 5.68001 8.84634 5.68001H7.15301Z" fill="currentColor"/>
</g>
<defs>
<clipPath id="clip0_2_5114">
<rect width="16" height="16" fill="currentColor"/>
</clipPath>
</defs>
</svg>
