<svg width="16" height="16" viewBox="0 0 16 16" fill="none" xmlns="http://www.w3.org/2000/svg">
<path d="M7.99966 12.9134C6.80633 12.9134 5.61296 12.4601 4.69963 11.5467C2.87963 9.72674 2.87963 6.76674 4.69963 4.94671C6.51963 3.12671 9.47966 3.12671 11.2997 4.94671C13.1197 6.76674 13.1197 9.72674 11.2997 11.5467C10.3863 12.4601 9.19299 12.9134 7.99966 12.9134ZM7.99966 4.58005C7.05966 4.58005 6.11963 4.94004 5.40629 5.65338C3.97963 7.08674 3.97963 9.40673 5.40629 10.8401C6.83966 12.2734 9.16633 12.2667 10.593 10.8401C12.0197 9.40673 12.0197 7.08674 10.593 5.65338C9.87966 4.94004 8.93966 4.58005 7.99966 4.58005Z" fill="currentColor"/>
<path d="M5.49937 14.9266C5.43937 14.9266 5.3727 14.9133 5.3127 14.8933C3.8127 14.2933 2.59936 13.2333 1.78603 11.8333C0.999359 10.4666 0.686026 8.91993 0.892693 7.3466C0.926026 7.07327 1.17936 6.87993 1.45269 6.91327C1.72603 6.9466 1.91935 7.19993 1.88602 7.47327C1.71269 8.81993 1.97937 10.1533 2.65271 11.3266C3.34604 12.5266 4.39269 13.4399 5.67936 13.9533C5.93269 14.0599 6.05937 14.3465 5.95937 14.6065C5.88603 14.8065 5.6927 14.9266 5.49937 14.9266Z" fill="currentColor"/>
<path d="M3.89973 3.48658C3.75307 3.48658 3.6064 3.41992 3.5064 3.29326C3.33307 3.07326 3.37307 2.75993 3.59307 2.59326C4.86641 1.59993 6.3864 1.07324 7.99973 1.07324C9.57306 1.07324 11.0731 1.57992 12.3331 2.53992C12.5531 2.70659 12.5931 3.01991 12.4264 3.23991C12.2597 3.45991 11.9464 3.49992 11.7264 3.33326C10.6464 2.50659 9.35973 2.07324 7.99973 2.07324C6.61307 2.07324 5.29973 2.5266 4.20639 3.37993C4.11306 3.45326 4.0064 3.48658 3.89973 3.48658Z" fill="currentColor"/>
<path d="M10.5005 14.9267C10.3005 14.9267 10.1138 14.8067 10.0338 14.6134C9.93379 14.3601 10.0538 14.0667 10.3138 13.9601C11.6005 13.4401 12.6471 12.5334 13.3405 11.3334C14.0205 10.1601 14.2871 8.82674 14.1071 7.48007C14.0738 7.20674 14.2671 6.9534 14.5405 6.92007C14.8071 6.88673 15.0671 7.08007 15.1005 7.3534C15.3005 8.92007 14.9938 10.4734 14.2071 11.8401C13.4005 13.2401 12.1805 14.2934 10.6805 14.9001C10.6271 14.9134 10.5671 14.9267 10.5005 14.9267Z" fill="currentColor"/>
</svg>
