<svg width="16" height="16" viewBox="0 0 16 16" fill="none" xmlns="http://www.w3.org/2000/svg">
<g clip-path="url(#clip0_2_4598)">
<path d="M9.99999 15.1667H5.99999C2.37999 15.1667 0.833328 13.62 0.833328 9.99999V5.99999C0.833328 2.37999 2.37999 0.833328 5.99999 0.833328H9.99999C13.62 0.833328 15.1667 2.37999 15.1667 5.99999V9.99999C15.1667 13.62 13.62 15.1667 9.99999 15.1667ZM5.99999 1.83333C2.92666 1.83333 1.83333 2.92666 1.83333 5.99999V9.99999C1.83333 13.0733 2.92666 14.1667 5.99999 14.1667H9.99999C13.0733 14.1667 14.1667 13.0733 14.1667 9.99999V5.99999C14.1667 2.92666 13.0733 1.83333 9.99999 1.83333H5.99999Z" fill="currentColor"/>
<path d="M10.6667 13.1667H5.33333C3.71999 13.1667 2.83333 12.28 2.83333 10.6667V5.33333C2.83333 3.71999 3.71999 2.83333 5.33333 2.83333H10.6667C12.28 2.83333 13.1667 3.71999 13.1667 5.33333V10.6667C13.1667 12.28 12.28 13.1667 10.6667 13.1667ZM5.33333 3.83333C4.27999 3.83333 3.83333 4.27999 3.83333 5.33333V10.6667C3.83333 11.72 4.27999 12.1667 5.33333 12.1667H10.6667C11.72 12.1667 12.1667 11.72 12.1667 10.6667V5.33333C12.1667 4.27999 11.72 3.83333 10.6667 3.83333H5.33333Z" fill="currentColor"/>
<path d="M4.98666 10.1667H3.33333C3.05999 10.1667 2.83333 9.93999 2.83333 9.66666C2.83333 9.39333 3.05999 9.16666 3.33333 9.16666H4.98666C5.63333 9.16666 6.15333 8.63999 6.15333 7.99999C6.15333 7.35999 5.62666 6.83333 4.98666 6.83333H3.33333C3.05999 6.83333 2.83333 6.60666 2.83333 6.33333C2.83333 6.05999 3.05999 5.83333 3.33333 5.83333H4.98666C6.17999 5.83333 7.15333 6.80666 7.15333 7.99999C7.15333 9.19333 6.18666 10.1667 4.98666 10.1667Z" fill="currentColor"/>
<path d="M12.6667 7.16013H10.6667C10.3933 7.16013 10.1667 6.93346 10.1667 6.66015C10.1667 6.38681 10.3933 6.16015 10.6667 6.16015H12.6667C12.94 6.16015 13.1667 6.38681 13.1667 6.66015C13.1667 6.93346 12.94 7.16013 12.6667 7.16013Z" fill="currentColor"/>
<path d="M12.6667 9.83333H10.6667C10.3933 9.83333 10.1667 9.60666 10.1667 9.33333C10.1667 9.05999 10.3933 8.83333 10.6667 8.83333H12.6667C12.94 8.83333 13.1667 9.05999 13.1667 9.33333C13.1667 9.60666 12.94 9.83333 12.6667 9.83333Z" fill="currentColor"/>
<path d="M4.83333 8.66673C4.74666 8.66673 4.65999 8.64673 4.57999 8.61339C4.49999 8.58006 4.42665 8.53339 4.35999 8.47339C4.23332 8.34673 4.16666 8.18006 4.16666 8.00006C4.16666 7.82673 4.23999 7.65339 4.35999 7.52673C4.54665 7.34673 4.83999 7.28006 5.08666 7.38673C5.17333 7.42006 5.24667 7.46673 5.30667 7.52673C5.42667 7.65339 5.49999 7.82673 5.49999 8.00006C5.49999 8.18006 5.43333 8.34673 5.30667 8.47339C5.24 8.53339 5.16666 8.58006 5.08666 8.61339C5.00666 8.64673 4.91999 8.66673 4.83333 8.66673Z" fill="currentColor"/>
</g>
<defs>
<clipPath id="clip0_2_4598">
<rect width="16" height="16" fill="currentColor"/>
</clipPath>
</defs>
</svg>
