<svg width="16" height="16" viewBox="0 0 16 16" fill="none" xmlns="http://www.w3.org/2000/svg">
<g clip-path="url(#clip0_2_4599)">
<path d="M9.99999 15.1667H5.99999C2.37999 15.1667 0.833328 13.62 0.833328 9.99999V5.99999C0.833328 2.37999 2.37999 0.833328 5.99999 0.833328H9.99999C13.62 0.833328 15.1667 2.37999 15.1667 5.99999V9.99999C15.1667 13.62 13.62 15.1667 9.99999 15.1667ZM5.99999 1.83333C2.92666 1.83333 1.83333 2.92666 1.83333 5.99999V9.99999C1.83333 13.0733 2.92666 14.1667 5.99999 14.1667H9.99999C13.0733 14.1667 14.1667 13.0733 14.1667 9.99999V5.99999C14.1667 2.92666 13.0733 1.83333 9.99999 1.83333H5.99999Z" fill="currentColor"/>
<path d="M8.00073 11.0401C7.26739 11.0401 6.66739 10.4401 6.66739 9.70673V8.64006C6.27406 8.31339 6.00739 7.85339 5.94073 7.34006C5.92739 7.26006 5.91405 7.14673 5.91405 7.04006C5.91405 6.39339 6.20739 5.79339 6.72739 5.39339C7.24739 4.99339 7.91406 4.86673 8.55406 5.03339C9.25406 5.22006 9.83406 5.7934 10.0141 6.4934C10.0874 6.76673 10.1074 7.05339 10.0607 7.34006C9.98739 7.84673 9.72739 8.30673 9.33406 8.63339V9.70006C9.33406 10.4401 8.73406 11.0401 8.00073 11.0401ZM7.99406 5.96006C7.75406 5.96006 7.52739 6.03339 7.33406 6.18673C7.06739 6.39339 6.91406 6.70673 6.91406 7.04006C6.91406 7.08673 6.91406 7.14006 6.92739 7.18006C6.97406 7.51339 7.15406 7.78673 7.43406 7.96006L7.66739 8.10673V9.70673C7.66739 9.89339 7.81406 10.0401 8.00073 10.0401C8.18739 10.0401 8.33406 9.89339 8.33406 9.70673V8.10673L8.56739 7.96006C8.84073 7.78673 9.02739 7.51339 9.06739 7.20006V7.18673C9.09406 7.04006 9.08739 6.89339 9.04739 6.75339C8.95406 6.38673 8.65406 6.09339 8.29406 6.00006C8.19406 5.97339 8.09406 5.96006 7.99406 5.96006Z" fill="currentColor"/>
<path d="M14.6664 6.77346H9.56639V7.77346H14.6664V6.77346Z" fill="currentColor"/>
<path d="M6.43332 6.77346H1.33333V7.77346H6.43332V6.77346Z" fill="currentColor"/>
</g>
<defs>
<clipPath id="clip0_2_4599">
<rect width="16" height="16" fill="currentColor"/>
</clipPath>
</defs>
</svg>
