<svg width="16" height="16" viewBox="0 0 16 16" fill="none" xmlns="http://www.w3.org/2000/svg">
<g clip-path="url(#clip0_2_4836)">
<path d="M10 15.1667H6C2.38 15.1667 0.833336 13.62 0.833336 9.99999V5.99999C0.833336 2.37999 2.38 0.833328 6 0.833328H10C13.62 0.833328 15.1667 2.37999 15.1667 5.99999V9.99999C15.1667 13.62 13.62 15.1667 10 15.1667ZM6 1.83333C2.92667 1.83333 1.83334 2.92666 1.83334 5.99999V9.99999C1.83334 13.0733 2.92667 14.1667 6 14.1667H10C13.0733 14.1667 14.1667 13.0733 14.1667 9.99999V5.99999C14.1667 2.92666 13.0733 1.83333 10 1.83333H6Z" fill="currentColor"/>
<path d="M11.6669 11.8867H10.4336C10.1603 11.8867 9.9336 11.6601 9.9336 11.3867C9.9336 11.1134 10.1603 10.8867 10.4336 10.8867H11.6669C11.9403 10.8867 12.1669 11.1134 12.1669 11.3867C12.1669 11.6601 11.9403 11.8867 11.6669 11.8867Z" fill="currentColor"/>
<path d="M8.64667 11.8867H4.33334C4.06 11.8867 3.83334 11.6601 3.83334 11.3867C3.83334 11.1134 4.06 10.8867 4.33334 10.8867H8.64667C8.92 10.8867 9.14667 11.1134 9.14667 11.3867C9.14667 11.6601 8.92667 11.8867 8.64667 11.8867Z" fill="currentColor"/>
<path d="M11.6671 9.37986H7.98047C7.70714 9.37986 7.48047 9.15319 7.48047 8.87986C7.48047 8.60653 7.70714 8.37986 7.98047 8.37986H11.6671C11.9405 8.37986 12.1671 8.60653 12.1671 8.87986C12.1671 9.15319 11.9405 9.37986 11.6671 9.37986Z" fill="currentColor"/>
<path d="M6.18 9.37986H4.33334C4.06 9.37986 3.83334 9.15319 3.83334 8.87986C3.83334 8.60653 4.06 8.37986 4.33334 8.37986H6.18C6.45334 8.37986 6.68 8.60653 6.68 8.87986C6.68 9.15319 6.45334 9.37986 6.18 9.37986Z" fill="currentColor"/>
</g>
<defs>
<clipPath id="clip0_2_4836">
<rect width="16" height="16" fill="currentColor"/>
</clipPath>
</defs>
</svg>
