<svg width="16" height="16" viewBox="0 0 16 16" fill="none" xmlns="http://www.w3.org/2000/svg">
<g clip-path="url(#clip0_2_4803)">
<path d="M8 12.8333C5.33333 12.8333 3.16667 10.6667 3.16667 8.00001C3.16667 5.33334 5.33333 3.16667 8 3.16667C10.6667 3.16667 12.8333 5.33334 12.8333 8.00001C12.8333 10.6667 10.6667 12.8333 8 12.8333ZM8 4.16667C5.88667 4.16667 4.16667 5.88667 4.16667 8.00001C4.16667 10.1133 5.88667 11.8333 8 11.8333C10.1133 11.8333 11.8333 10.1133 11.8333 8.00001C11.8333 5.88667 10.1133 4.16667 8 4.16667Z" fill="currentColor"/>
<path d="M8 15.3067C7.63333 15.3067 7.33333 15.0333 7.33333 14.6667V14.6133C7.33333 14.2467 7.63333 13.9467 8 13.9467C8.36667 13.9467 8.66667 14.2467 8.66667 14.6133C8.66667 14.98 8.36667 15.3067 8 15.3067ZM12.76 13.4267C12.5867 13.4267 12.42 13.36 12.2867 13.2333L12.2 13.1467C11.94 12.8867 11.94 12.4667 12.2 12.2067C12.46 11.9467 12.88 11.9467 13.14 12.2067L13.2267 12.2933C13.4867 12.5533 13.4867 12.9733 13.2267 13.2333C13.1 13.36 12.9333 13.4267 12.76 13.4267ZM3.24 13.4267C3.06667 13.4267 2.9 13.36 2.76667 13.2333C2.50667 12.9733 2.50667 12.5533 2.76667 12.2933L2.85333 12.2067C3.11333 11.9467 3.53333 11.9467 3.79333 12.2067C4.05333 12.4667 4.05333 12.8867 3.79333 13.1467L3.70667 13.2333C3.58 13.36 3.40667 13.4267 3.24 13.4267ZM14.6667 8.66667H14.6133C14.2467 8.66667 13.9467 8.36667 13.9467 8.00001C13.9467 7.63334 14.2467 7.33334 14.6133 7.33334C14.98 7.33334 15.3067 7.63334 15.3067 8.00001C15.3067 8.36667 15.0333 8.66667 14.6667 8.66667ZM1.38667 8.66667H1.33333C0.966668 8.66667 0.666668 8.36667 0.666668 8.00001C0.666668 7.63334 0.966668 7.33334 1.33333 7.33334C1.7 7.33334 2.02667 7.63334 2.02667 8.00001C2.02667 8.36667 1.75333 8.66667 1.38667 8.66667ZM12.6733 3.99334C12.5 3.99334 12.3333 3.92667 12.2 3.8C11.94 3.54001 11.94 3.12001 12.2 2.86001L12.2867 2.77334C12.5467 2.51334 12.9667 2.51334 13.2267 2.77334C13.4867 3.03334 13.4867 3.45334 13.2267 3.71334L13.14 3.8C13.0133 3.92667 12.8467 3.99334 12.6733 3.99334ZM3.32667 3.99334C3.15333 3.99334 2.98667 3.92667 2.85333 3.8L2.76667 3.70667C2.50667 3.44667 2.50667 3.02667 2.76667 2.76667C3.02667 2.50667 3.44667 2.50667 3.70667 2.76667L3.79333 2.85334C4.05333 3.11334 4.05333 3.53334 3.79333 3.79334C3.66667 3.92667 3.49333 3.99334 3.32667 3.99334ZM8 2.02667C7.63333 2.02667 7.33333 1.75334 7.33333 1.38667V1.33334C7.33333 0.966672 7.63333 0.666672 8 0.666672C8.36667 0.666672 8.66667 0.966672 8.66667 1.33334C8.66667 1.70001 8.36667 2.02667 8 2.02667Z" fill="currentColor"/>
</g>
<defs>
<clipPath id="clip0_2_4803">
<rect width="16" height="16" fill="currentColor"/>
</clipPath>
</defs>
</svg>
