<svg width="16" height="16" viewBox="0 0 16 16" fill="none" xmlns="http://www.w3.org/2000/svg">
<path d="M12.3333 8.5C12.06 8.5 11.8333 8.27334 11.8333 8C11.8333 5.88667 10.1133 4.16667 8 4.16667C5.88667 4.16667 4.16667 5.88667 4.16667 8C4.16667 8.27334 3.94 8.5 3.66667 8.5C3.39333 8.5 3.16667 8.27334 3.16667 8C3.16667 5.33334 5.33333 3.16667 8 3.16667C10.6667 3.16667 12.8333 5.33334 12.8333 8C12.8333 8.27334 12.6067 8.5 12.3333 8.5Z" fill="currentColor"/>
<path d="M14.6667 8.66667H14.6133C14.2467 8.66667 13.9467 8.36667 13.9467 8C13.9467 7.63334 14.2467 7.33334 14.6133 7.33334C14.98 7.33334 15.3067 7.63334 15.3067 8C15.3067 8.36667 15.0333 8.66667 14.6667 8.66667ZM1.38668 8.66667H1.33333C0.966667 8.66667 0.666667 8.36667 0.666667 8C0.666667 7.63334 0.966667 7.33334 1.33333 7.33334C1.7 7.33334 2.02665 7.63334 2.02665 8C2.02665 8.36667 1.75335 8.66667 1.38668 8.66667ZM12.6733 3.99333C12.5 3.99333 12.3333 3.92668 12.2 3.80001C11.94 3.54001 11.94 3.12001 12.2 2.86001L12.2867 2.77334C12.5467 2.51334 12.9667 2.51334 13.2267 2.77334C13.4867 3.03334 13.4867 3.45335 13.2267 3.71335L13.14 3.80001C13.0133 3.92668 12.8467 3.99333 12.6733 3.99333ZM3.32666 3.99333C3.15333 3.99333 2.98669 3.92668 2.85335 3.80001L2.76668 3.71335C2.50668 3.45335 2.50668 3.03334 2.76668 2.77334C3.02668 2.51334 3.44667 2.51334 3.70667 2.77334L3.79333 2.86001C4.05333 3.12001 4.05333 3.54001 3.79333 3.80001C3.66667 3.92668 3.49333 3.99333 3.32666 3.99333ZM8 2.02668C7.63333 2.02668 7.33333 1.75333 7.33333 1.38666V1.33334C7.33333 0.966672 7.63333 0.666672 8 0.666672C8.36667 0.666672 8.66667 0.966672 8.66667 1.33334C8.66667 1.7 8.36667 2.02668 8 2.02668Z" fill="currentColor"/>
<path d="M13.3333 10.5H2.66667C2.39333 10.5 2.16667 10.2733 2.16667 10C2.16667 9.72667 2.39333 9.5 2.66667 9.5H13.3333C13.6067 9.5 13.8333 9.72667 13.8333 10C13.8333 10.2733 13.6067 10.5 13.3333 10.5Z" fill="currentColor"/>
<path d="M12 12.5H4C3.72667 12.5 3.5 12.2733 3.5 12C3.5 11.7267 3.72667 11.5 4 11.5H12C12.2733 11.5 12.5 11.7267 12.5 12C12.5 12.2733 12.2733 12.5 12 12.5Z" fill="currentColor"/>
<path d="M10 14.5H6C5.72667 14.5 5.5 14.2733 5.5 14C5.5 13.7267 5.72667 13.5 6 13.5H10C10.2733 13.5 10.5 13.7267 10.5 14C10.5 14.2733 10.2733 14.5 10 14.5Z" fill="currentColor"/>
</svg>
