<svg width="16" height="16" viewBox="0 0 16 16" fill="none" xmlns="http://www.w3.org/2000/svg">
<path d="M8 6.16667C7.72667 6.16667 7.5 5.94 7.5 5.66667V2C7.5 1.72667 7.72667 1.5 8 1.5C8.27333 1.5 8.5 1.72667 8.5 2V5.66667C8.5 5.94 8.27333 6.16667 8 6.16667Z" fill="currentColor"/>
<path d="M8 14.5C7.72667 14.5 7.5 14.2733 7.5 14V10.3333C7.5 10.06 7.72667 9.83333 8 9.83333C8.27333 9.83333 8.5 10.06 8.5 10.3333V14C8.5 14.2733 8.27333 14.5 8 14.5Z" fill="currentColor"/>
<path d="M9.33333 2.5H6.66667C6.39333 2.5 6.16667 2.27333 6.16667 2C6.16667 1.72667 6.39333 1.5 6.66667 1.5H9.33333C9.60667 1.5 9.83333 1.72667 9.83333 2C9.83333 2.27333 9.60667 2.5 9.33333 2.5Z" fill="currentColor"/>
<path d="M9.33333 14.5H6.66667C6.39333 14.5 6.16667 14.2733 6.16667 14C6.16667 13.7267 6.39333 13.5 6.66667 13.5H9.33333C9.60667 13.5 9.83333 13.7267 9.83333 14C9.83333 14.2733 9.60667 14.5 9.33333 14.5Z" fill="currentColor"/>
<path d="M5.98009 7.33327C5.89342 7.33327 5.80675 7.31327 5.73342 7.2666L2.56009 5.43328C2.32009 5.29328 2.24009 4.98662 2.38009 4.75329C2.52009 4.51329 2.82675 4.43328 3.06009 4.57328L6.23342 6.40661C6.47342 6.54661 6.55342 6.85327 6.41342 7.0866C6.32009 7.2466 6.15342 7.33327 5.98009 7.33327Z" fill="currentColor"/>
<path d="M13.1936 11.4999C13.1069 11.4999 13.0203 11.4799 12.9469 11.4333L9.7736 9.59993C9.5336 9.45993 9.4536 9.15327 9.5936 8.91993C9.7336 8.67993 10.0403 8.59993 10.2736 8.73993L13.4469 10.5733C13.6869 10.7133 13.7669 11.0199 13.6269 11.2533C13.5336 11.4133 13.3669 11.4999 13.1936 11.4999Z" fill="currentColor"/>
<path d="M2.14009 6.65329C2.05342 6.65329 1.96675 6.6333 1.89342 6.58663C1.65342 6.44663 1.57342 6.13996 1.71342 5.90663L3.04675 3.59996C3.18675 3.35996 3.49342 3.27997 3.72675 3.41997C3.96675 3.55997 4.04675 3.86663 3.90675 4.09996L2.57342 6.40663C2.48009 6.56663 2.30675 6.65329 2.14009 6.65329Z" fill="currentColor"/>
<path d="M12.5268 12.6533C12.4401 12.6533 12.3535 12.6333 12.2801 12.5866C12.0401 12.4466 11.9601 12.1399 12.1001 11.9066L13.4335 9.59993C13.5735 9.35993 13.8801 9.27993 14.1135 9.41993C14.3535 9.55993 14.4335 9.8666 14.2935 10.0999L12.9601 12.4066C12.8735 12.5666 12.7001 12.6533 12.5268 12.6533Z" fill="currentColor"/>
<path d="M8 10.8333C6.99333 10.8333 6.05333 10.2933 5.54667 9.42C5.29333 8.98 5.16667 8.50667 5.16667 8C5.16667 7.49333 5.29333 7.02 5.54667 6.58668C6.05333 5.71335 6.99333 5.17334 8 5.17334C9.00667 5.17334 9.94667 5.71335 10.4533 6.58668C10.7067 7.02667 10.8333 7.5 10.8333 8.00667C10.8333 8.51333 10.7067 8.98667 10.4533 9.42C9.94667 10.2933 9.00667 10.8333 8 10.8333ZM8 6.16667C7.34667 6.16667 6.74009 6.51995 6.41342 7.0866C6.25342 7.3666 6.16667 7.68 6.16667 8C6.16667 8.32 6.24667 8.63333 6.41333 8.92C6.74 9.48667 7.34667 9.84 8 9.84C8.65333 9.84 9.26 9.48667 9.58667 8.92C9.74667 8.64 9.83333 8.32667 9.83333 8.00667C9.83333 7.68667 9.75333 7.37333 9.58667 7.08667C9.26 6.52001 8.65333 6.16667 8 6.16667Z" fill="currentColor"/>
<path d="M10.0203 7.33347C9.84693 7.33347 9.68027 7.2468 9.58693 7.08013C9.44693 6.84013 9.5336 6.53345 9.76693 6.40011L12.9403 4.56678C13.1803 4.42678 13.4869 4.51343 13.6203 4.74677C13.7603 4.98677 13.6736 5.29344 13.4403 5.42677L10.2669 7.26013C10.1936 7.31347 10.1069 7.33347 10.0203 7.33347Z" fill="currentColor"/>
<path d="M2.80675 11.5001C2.63341 11.5001 2.46675 11.4135 2.37341 11.2468C2.23341 11.0068 2.32008 10.7001 2.55341 10.5668L5.72675 8.73347C5.96675 8.59347 6.27341 8.68013 6.40675 8.91347C6.54675 9.15347 6.46008 9.46013 6.22675 9.59347L3.05341 11.4268C2.98008 11.4801 2.89341 11.5001 2.80675 11.5001Z" fill="currentColor"/>
<path d="M13.8601 6.65329C13.6868 6.65329 13.5201 6.56663 13.4268 6.39997L12.0935 4.09329C11.9535 3.85329 12.0401 3.54663 12.2735 3.41329C12.5135 3.27329 12.8201 3.35996 12.9535 3.59329L14.2868 5.89997C14.4268 6.13997 14.3401 6.44663 14.1068 6.57996C14.0335 6.63329 13.9468 6.65329 13.8601 6.65329Z" fill="currentColor"/>
<path d="M3.47341 12.6533C3.30008 12.6533 3.13341 12.5666 3.04008 12.3999L1.70675 10.0933C1.56675 9.85327 1.65341 9.5466 1.88675 9.41327C2.12675 9.27327 2.43341 9.35993 2.56675 9.59327L3.90008 11.8999C4.04008 12.1399 3.95341 12.4466 3.72008 12.5799C3.64008 12.6333 3.55341 12.6533 3.47341 12.6533Z" fill="currentColor"/>
</svg>
