<svg width="16" height="16" viewBox="0 0 16 16" fill="none" xmlns="http://www.w3.org/2000/svg">
<path d="M8 15.1667C7.53333 15.1667 7.06 14.9867 6.70667 14.6333L5.56665 13.5067C5.28665 13.2267 4.90001 13.0733 4.50667 13.0733H4C2.62 13.0733 1.5 11.96 1.5 10.5933V3.31333C1.5 1.94666 2.62 0.833328 4 0.833328H12C13.38 0.833328 14.5 1.94666 14.5 3.31333V10.5867C14.5 11.9533 13.38 13.0667 12 13.0667H11.4933C11.1 13.0667 10.7133 13.2267 10.4333 13.5L9.29333 14.6267C8.94 14.9867 8.46667 15.1667 8 15.1667ZM4 1.83333C3.17333 1.83333 2.5 2.49999 2.5 3.31333V10.5867C2.5 11.4067 3.17333 12.0667 4 12.0667H4.50667C5.16667 12.0667 5.80665 12.3333 6.27331 12.7933L7.41333 13.92C7.74 14.24 8.26667 14.24 8.59333 13.92L9.73333 12.7933C10.2 12.3333 10.84 12.0667 11.5 12.0667H12C12.8267 12.0667 13.5 11.4 13.5 10.5867V3.31333C13.5 2.49333 12.8267 1.83333 12 1.83333H4Z" fill="currentColor"/>
<path d="M8.0472 6.46669C8.03387 6.46669 8.01387 6.46669 8.00053 6.46669C7.98053 6.46669 7.95387 6.46669 7.93387 6.46669C6.96053 6.43336 6.20052 5.64669 6.20052 4.66669C6.20052 3.67336 7.0072 2.86669 8.00053 2.86669C8.99387 2.86669 9.80053 3.67336 9.80053 4.66669C9.79387 5.64669 9.03387 6.43336 8.06053 6.46669C8.06053 6.46669 8.05387 6.46669 8.0472 6.46669ZM8.00053 3.86669C7.56053 3.86669 7.20053 4.22669 7.20053 4.66669C7.20053 5.10003 7.54053 5.45336 7.9672 5.46669C7.9672 5.46003 8.0072 5.46003 8.05387 5.46669C8.47387 5.44003 8.80053 5.09336 8.80053 4.66669C8.80053 4.22669 8.44053 3.86669 8.00053 3.86669Z" fill="currentColor"/>
<path d="M8 11.1334C7.24 11.1334 6.48001 10.9334 5.88668 10.5401C5.32668 10.1667 5 9.62673 5 9.05339C5 8.48006 5.32001 7.93339 5.88668 7.56006C7.07333 6.77339 8.92667 6.77339 10.1067 7.56006C10.6667 7.93339 10.9933 8.48006 10.9933 9.04673C10.9933 9.62006 10.6733 10.1601 10.1067 10.5401C9.52 10.9401 8.76 11.1334 8 11.1334ZM6.43998 8.39339C6.15331 8.58673 6 8.82006 6 9.05339C6 9.28673 6.15998 9.52006 6.43998 9.71339C7.28667 10.2801 8.70667 10.2801 9.55333 9.71339C9.84 9.52006 10 9.28673 9.99333 9.05339C9.99333 8.82006 9.83333 8.58673 9.55333 8.39339C8.71333 7.82673 7.28667 7.82673 6.43998 8.39339Z" fill="currentColor"/>
</svg>
