<svg width="16" height="16" viewBox="0 0 16 16" fill="none" xmlns="http://www.w3.org/2000/svg">
<path d="M11.3335 14H6.85346C5.77348 14 4.74015 13.54 4.02015 12.7467L1.66682 10.16C0.546821 8.93333 0.546821 7.08 1.66682 5.84667L4.02015 3.26C4.74015 2.46 5.77348 2 6.85346 2H11.3335C13.4468 2 15.1668 3.72 15.1668 5.83333V10.1667C15.1668 12.28 13.4468 14 11.3335 14ZM6.85346 3C6.06015 3 5.29349 3.34 4.76015 3.92667L2.40015 6.52C1.63348 7.36667 1.63348 8.64 2.40015 9.48667L4.75348 12.0733C5.28682 12.66 6.05349 13 6.8468 13H11.3335C12.8935 13 14.1668 11.7267 14.1668 10.1667V5.83333C14.1668 4.27333 12.8935 3 11.3335 3H6.85346Z" fill="currentColor"/>
<path d="M10.6667 10.1467C10.54 10.1467 10.4133 10.1 10.3133 10L7.02 6.7C6.82666 6.50664 6.82666 6.18664 7.02 5.99331C7.21333 5.79997 7.53333 5.79997 7.72667 5.99331L11.02 9.29333C11.2133 9.48667 11.2133 9.80667 11.02 10C10.92 10.1 10.7933 10.1467 10.6667 10.1467Z" fill="currentColor"/>
<path d="M7.37333 10.1467C7.24667 10.1467 7.12 10.1 7.02 10C6.82666 9.80667 6.82666 9.48667 7.02 9.29333L10.3133 5.99998C10.5067 5.80665 10.8267 5.80665 11.02 5.99998C11.2133 6.19331 11.2133 6.51331 11.02 6.70667L7.72667 10C7.62667 10.1 7.5 10.1467 7.37333 10.1467Z" fill="currentColor"/>
</svg>
