<svg width="16" height="16" viewBox="0 0 16 16" fill="none" xmlns="http://www.w3.org/2000/svg">
<path d="M9.7796 14.4334H2.81295C2.07962 14.4334 1.43297 14.0534 1.07963 13.4134C0.7263 12.7734 0.746313 12.0201 1.13298 11.4001L2.97962 8.44673C3.12629 8.21339 3.12629 7.78006 2.97962 7.55339L1.13298 4.60006C0.746313 3.98006 0.7263 3.22673 1.07963 2.58673C1.43297 1.94673 2.08629 1.56673 2.81295 1.56673H10.4396C11.0663 1.56673 11.7929 1.96673 12.1196 2.50006L14.9063 6.95339C15.2796 7.55339 15.2463 8.47339 14.8196 9.04006L11.3663 13.6401C11.0263 14.0934 10.3463 14.4334 9.7796 14.4334ZM2.81295 2.56673C2.45295 2.56673 2.1263 2.75339 1.95297 3.07339C1.77963 3.39339 1.78629 3.76673 1.97962 4.07339L3.8263 7.02673C4.17297 7.58673 4.17297 8.42673 3.8263 8.98673L1.97962 11.9401C1.78629 12.2467 1.77963 12.6201 1.95297 12.9401C2.1263 13.2601 2.45295 13.4467 2.81295 13.4467H9.7796C10.0329 13.4467 10.4129 13.2534 10.5663 13.0534L14.0197 8.45339C14.1997 8.21339 14.2197 7.75339 14.0597 7.50006L11.2729 3.04673C11.1263 2.80673 10.7196 2.58673 10.4396 2.58673H2.81295V2.56673Z" fill="currentColor"/>
</svg>
