<svg width="16" height="16" viewBox="0 0 16 16" fill="none" xmlns="http://www.w3.org/2000/svg">
<path d="M8.04606 14.6532C7.10606 14.6532 6.1594 14.2932 5.44607 13.5799L2.42607 10.5599C1.69274 9.82654 1.30607 8.8132 1.35274 7.77987L1.51274 4.43989C1.58607 2.84656 2.84607 1.58656 4.44607 1.50656L7.7794 1.34656C8.8194 1.29989 9.82606 1.68656 10.5594 2.41989L13.5794 5.43989C15.0127 6.8732 15.0127 9.2132 13.5794 10.6465L10.6527 13.5732C9.93273 14.2932 8.99273 14.6532 8.04606 14.6532ZM3.13274 9.84654L6.15274 12.8665C7.1994 13.9132 8.8994 13.9132 9.94606 12.8665L12.8727 9.93987C13.9194 8.8932 13.9194 7.1932 12.8727 6.14656L9.84606 3.13322C9.31273 2.59989 8.58606 2.31989 7.8194 2.35322L4.48607 2.51322C3.40607 2.55989 2.5594 3.40656 2.50607 4.48656L2.34607 7.82654C2.31274 8.5732 2.5994 9.3132 3.13274 9.84654Z" fill="currentColor"/>
<path d="M6.33333 8.5C5.14 8.5 4.16666 7.52667 4.16666 6.33334C4.16666 5.14 5.14 4.16667 6.33333 4.16667C7.52666 4.16667 8.5 5.14 8.5 6.33334C8.5 7.52667 7.52666 8.5 6.33333 8.5ZM6.33333 5.16667C5.69333 5.16667 5.16666 5.69334 5.16666 6.33334C5.16666 6.97334 5.69333 7.5 6.33333 7.5C6.97333 7.5 7.5 6.97334 7.5 6.33334C7.5 5.69334 6.97333 5.16667 6.33333 5.16667Z" fill="currentColor"/>
<path d="M8.66633 11.8333C8.53966 11.8333 8.413 11.7866 8.313 11.6866C8.11966 11.4933 8.11966 11.1733 8.313 10.9799L10.9797 8.31327C11.173 8.11994 11.493 8.11994 11.6863 8.31327C11.8797 8.5066 11.8797 8.8266 11.6863 9.01994L9.01966 11.6866C8.91966 11.7866 8.793 11.8333 8.66633 11.8333Z" fill="currentColor"/>
</svg>
