<svg width="16" height="16" viewBox="0 0 16 16" fill="none" xmlns="http://www.w3.org/2000/svg">
<path d="M8.04607 14.6535C7.10607 14.6535 6.15941 14.2935 5.44607 13.5801L2.42607 10.5601C1.69274 9.8268 1.30607 8.81346 1.35274 7.78013L1.51274 4.44678C1.58607 2.85345 2.84607 1.59345 4.44607 1.51345L7.7794 1.35345C8.81273 1.31345 9.82607 1.69345 10.5594 2.42678L13.5794 5.44678C15.0127 6.88013 15.0127 9.22013 13.5794 10.6535L10.6527 13.5801C9.93273 14.2935 8.99273 14.6535 8.04607 14.6535ZM3.13274 9.8468L6.15274 12.8668C6.65941 13.3735 7.33273 13.6535 8.04607 13.6535C8.7594 13.6535 9.43273 13.3735 9.9394 12.8668L12.8661 9.94013C13.3727 9.43346 13.6527 8.76013 13.6527 8.0468C13.6527 7.33346 13.3727 6.66012 12.8661 6.15345L9.84607 3.13345C9.31273 2.60012 8.57273 2.31345 7.82607 2.35345L4.49274 2.51345C3.40607 2.56012 2.55941 3.40678 2.50607 4.48678L2.34607 7.82013C2.31274 8.57346 2.59941 9.31346 3.13274 9.8468Z" fill="currentColor"/>
<path d="M6.33333 8.5C5.14 8.5 4.16667 7.52666 4.16667 6.33333C4.16667 5.14 5.14 4.16666 6.33333 4.16666C7.52667 4.16666 8.5 5.14 8.5 6.33333C8.5 7.52666 7.52667 8.5 6.33333 8.5ZM6.33333 5.16666C5.69333 5.16666 5.16667 5.69333 5.16667 6.33333C5.16667 6.97333 5.69333 7.5 6.33333 7.5C6.97333 7.5 7.5 6.97333 7.5 6.33333C7.5 5.69333 6.97333 5.16666 6.33333 5.16666Z" fill="currentColor"/>
</svg>
