<svg width="16" height="16" viewBox="0 0 16 16" fill="none" xmlns="http://www.w3.org/2000/svg">
<path d="M14 13.4667H7.33333C7.06666 13.4667 6.8 13.2667 6.8 12.9333C6.8 12.6 7 12.4 7.33333 12.4H14C14.2667 12.4 14.5333 12.6 14.5333 12.9333C14.5333 13.2667 14.2667 13.4667 14 13.4667Z" fill="currentColor"/>
<path d="M14 8.80001H7.33333C7.06666 8.80001 6.8 8.60001 6.8 8.26667C6.8 7.93334 7 7.73334 7.33333 7.73334H14C14.2667 7.73334 14.5333 7.93334 14.5333 8.26667C14.5333 8.60001 14.2667 8.80001 14 8.80001Z" fill="currentColor"/>
<path d="M14 4.13334H7.33333C7.06666 4.13334 6.8 3.93334 6.8 3.60001C6.8 3.26667 7 3.06667 7.33333 3.06667H14C14.2667 3.06667 14.5333 3.26667 14.5333 3.60001C14.5333 3.93334 14.2667 4.13334 14 4.13334Z" fill="currentColor"/>
<path d="M2.66666 4.80001C2.53333 4.80001 2.4 4.80001 2.33333 4.66667L1.66666 4.00001C1.46666 3.80001 1.46666 3.53334 1.66666 3.33334C1.86666 3.13334 2.2 3.13334 2.4 3.33334L2.66666 3.60001L4.33333 2.00001C4.53333 1.80001 4.86666 1.80001 5.06666 2.00001C5.26666 2.20001 5.26666 2.53334 5.06666 2.73334L3.06666 4.73334C2.93333 4.80001 2.8 4.80001 2.66666 4.80001Z" fill="currentColor"/>
</svg>
