<svg width="16" height="16" viewBox="0 0 16 16" fill="none" xmlns="http://www.w3.org/2000/svg">
<path d="M14 13.5H7.33333C7.06 13.5 6.83333 13.2733 6.83333 13C6.83333 12.7267 7.06 12.5 7.33333 12.5H14C14.2733 12.5 14.5 12.7267 14.5 13C14.5 13.2733 14.2733 13.5 14 13.5Z" fill="currentColor"/>
<path d="M14 8.83333H7.33333C7.06 8.83333 6.83333 8.60667 6.83333 8.33333C6.83333 8.06 7.06 7.83333 7.33333 7.83333H14C14.2733 7.83333 14.5 8.06 14.5 8.33333C14.5 8.60667 14.2733 8.83333 14 8.83333Z" fill="currentColor"/>
<path d="M14 4.16667H7.33333C7.06 4.16667 6.83333 3.94 6.83333 3.66667C6.83333 3.39333 7.06 3.16667 7.33333 3.16667H14C14.2733 3.16667 14.5 3.39333 14.5 3.66667C14.5 3.94 14.2733 4.16667 14 4.16667Z" fill="currentColor"/>
<path d="M2.6663 4.83329C2.53963 4.83329 2.41296 4.78663 2.31296 4.68663L1.6463 4.01996C1.45296 3.82663 1.45296 3.50663 1.6463 3.31329C1.83963 3.11996 2.15963 3.11996 2.35296 3.31329L2.6663 3.62663L4.31296 1.97996C4.5063 1.78663 4.8263 1.78663 5.01963 1.97996C5.21296 2.17329 5.21296 2.49329 5.01963 2.68663L3.01963 4.68663C2.91963 4.78663 2.79296 4.83329 2.6663 4.83329Z" fill="currentColor"/>
<path d="M2.6663 9.49993C2.53963 9.49993 2.41296 9.45327 2.31296 9.35327L1.6463 8.6866C1.45296 8.49327 1.45296 8.17327 1.6463 7.97993C1.83963 7.7866 2.15963 7.7866 2.35296 7.97993L2.6663 8.29327L4.31296 6.64663C4.5063 6.45329 4.8263 6.45329 5.01963 6.64663C5.21296 6.83993 5.21296 7.15993 5.01963 7.35327L3.01963 9.35327C2.91963 9.45327 2.79296 9.49993 2.6663 9.49993Z" fill="currentColor"/>
<path d="M2.6663 14.1666C2.53963 14.1666 2.41296 14.1199 2.31296 14.0199L1.6463 13.3533C1.45296 13.1599 1.45296 12.8399 1.6463 12.6466C1.83963 12.4533 2.15963 12.4533 2.35296 12.6466L2.6663 12.9599L4.31296 11.3133C4.5063 11.1199 4.8263 11.1199 5.01963 11.3133C5.21296 11.5066 5.21296 11.8266 5.01963 12.0199L3.01963 14.0199C2.91963 14.1199 2.79296 14.1666 2.6663 14.1666Z" fill="currentColor"/>
</svg>
