<svg width="16" height="16" viewBox="0 0 16 16" fill="none" xmlns="http://www.w3.org/2000/svg">
<g clip-path="url(#clip0_2_4593)">
<path d="M11.7461 6.41341H8.24606C7.97273 6.41341 7.74606 6.18674 7.74606 5.91341C7.74606 5.64007 7.97273 5.41341 8.24606 5.41341H11.7461C12.0194 5.41341 12.2461 5.64007 12.2461 5.91341C12.2461 6.18674 12.0261 6.41341 11.7461 6.41341Z" fill="currentColor"/>
<path d="M4.74703 6.91986C4.62036 6.91986 4.49369 6.87319 4.39369 6.77319L3.89369 6.27321C3.70036 6.07987 3.70036 5.75987 3.89369 5.56654C4.08703 5.37321 4.40703 5.37321 4.60036 5.56654L4.74703 5.71321L5.89369 4.56654C6.08703 4.37321 6.40703 4.37321 6.60036 4.56654C6.79366 4.75987 6.79366 5.07987 6.60036 5.27321L5.10036 6.77319C5.00703 6.86653 4.88036 6.91986 4.74703 6.91986Z" fill="currentColor"/>
<path d="M11.7461 11.0801H8.24606C7.97273 11.0801 7.74606 10.8534 7.74606 10.5801C7.74606 10.3067 7.97273 10.0801 8.24606 10.0801H11.7461C12.0194 10.0801 12.2461 10.3067 12.2461 10.5801C12.2461 10.8534 12.0261 11.0801 11.7461 11.0801Z" fill="currentColor"/>
<path d="M4.74703 11.5865C4.62036 11.5865 4.49369 11.5399 4.39369 11.4399L3.89369 10.9399C3.70036 10.7465 3.70036 10.4265 3.89369 10.2332C4.08703 10.0399 4.40703 10.0399 4.60036 10.2332L4.74703 10.3799L5.89369 9.23319C6.08703 9.03986 6.40703 9.03986 6.60036 9.23319C6.79366 9.42653 6.79366 9.74653 6.60036 9.93986L5.10036 11.4399C5.00703 11.5332 4.88036 11.5865 4.74703 11.5865Z" fill="currentColor"/>
<path d="M9.99999 15.1667H5.99999C2.37999 15.1667 0.833328 13.62 0.833328 9.99999V5.99999C0.833328 2.37999 2.37999 0.833328 5.99999 0.833328H9.99999C13.62 0.833328 15.1667 2.37999 15.1667 5.99999V9.99999C15.1667 13.62 13.62 15.1667 9.99999 15.1667ZM5.99999 1.83333C2.92666 1.83333 1.83333 2.92666 1.83333 5.99999V9.99999C1.83333 13.0733 2.92666 14.1667 5.99999 14.1667H9.99999C13.0733 14.1667 14.1667 13.0733 14.1667 9.99999V5.99999C14.1667 2.92666 13.0733 1.83333 9.99999 1.83333H5.99999Z" fill="currentColor"/>
</g>
<defs>
<clipPath id="clip0_2_4593">
<rect width="16" height="16" fill="currentColor"/>
</clipPath>
</defs>
</svg>
