<svg width="16" height="16" viewBox="0 0 16 16" fill="none" xmlns="http://www.w3.org/2000/svg">
<path d="M8.00686 11.3333C7.44019 11.3333 6.86686 11.1867 6.4202 10.9L2.40686 8.28C1.6602 7.79334 1.21353 6.97334 1.21353 6.08002C1.21353 5.18669 1.6602 4.36669 2.40686 3.88002L6.42686 1.26669C7.32019 0.68669 8.71352 0.68669 9.60019 1.27336L13.5935 3.89336C14.3335 4.38002 14.7802 5.20002 14.7802 6.08669C14.7802 6.97334 14.3335 7.79334 13.5935 8.28L9.60019 10.9C9.15352 11.1933 8.58019 11.3333 8.00686 11.3333ZM8.00686 1.83336C7.62686 1.83336 7.24686 1.92002 6.97353 2.10669L2.9602 4.72002C2.49353 5.02669 2.2202 5.52002 2.2202 6.08002C2.2202 6.64002 2.48686 7.13334 2.9602 7.44L6.97353 10.06C7.52686 10.42 8.50019 10.42 9.05352 10.06L13.0469 7.44C13.5135 7.13334 13.7802 6.64002 13.7802 6.08002C13.7802 5.52002 13.5135 5.02669 13.0469 4.72002L9.05352 2.10002C8.77352 1.92669 8.39352 1.83336 8.00686 1.83336Z" fill="currentColor"/>
<path d="M7.99946 15.1667C7.70612 15.1667 7.40612 15.1267 7.16612 15.0467L5.03946 14.3401C4.03279 14.0067 3.23946 12.9067 3.24612 11.8467L3.25279 8.72007C3.25279 8.44674 3.47946 8.22007 3.75279 8.22007C4.02612 8.22007 4.25279 8.44674 4.25279 8.72007L4.24612 11.8467C4.24612 12.4734 4.76612 13.1934 5.35946 13.3934L7.48612 14.1001C7.75279 14.1867 8.24612 14.1867 8.51279 14.1001L10.6395 13.3934C11.2328 13.1934 11.7528 12.4734 11.7528 11.8534V8.76007C11.7528 8.48674 11.9795 8.26007 12.2528 8.26007C12.5261 8.26007 12.7528 8.48674 12.7528 8.76007V11.8534C12.7528 12.9134 11.9661 14.0067 10.9595 14.3467L8.83279 15.0534C8.59279 15.1267 8.29279 15.1667 7.99946 15.1667Z" fill="currentColor"/>
<path d="M14.2669 10.5C13.9936 10.5 13.7669 10.2733 13.7669 10V6C13.7669 5.72667 13.9936 5.5 14.2669 5.5C14.5403 5.5 14.7669 5.72667 14.7669 6V10C14.7669 10.2733 14.5403 10.5 14.2669 10.5Z" fill="currentColor"/>
</svg>
