<svg width="16" height="16" viewBox="0 0 16 16" fill="none" xmlns="http://www.w3.org/2000/svg">
<path d="M14 3.5H8C7.72667 3.5 7.5 3.27333 7.5 3C7.5 2.72667 7.72667 2.5 8 2.5H14C14.2733 2.5 14.5 2.72667 14.5 3C14.5 3.27333 14.2733 3.5 14 3.5Z" fill="currentColor"/>
<path d="M14 6.83333H8C7.72667 6.83333 7.5 6.60667 7.5 6.33333C7.5 6.06 7.72667 5.83333 8 5.83333H14C14.2733 5.83333 14.5 6.06 14.5 6.33333C14.5 6.60667 14.2733 6.83333 14 6.83333Z" fill="currentColor"/>
<path d="M14 10.1667H2C1.72667 10.1667 1.5 9.94 1.5 9.66667C1.5 9.39333 1.72667 9.16667 2 9.16667H14C14.2733 9.16667 14.5 9.39333 14.5 9.66667C14.5 9.94 14.2733 10.1667 14 10.1667Z" fill="currentColor"/>
<path d="M14 13.5H2C1.72667 13.5 1.5 13.2733 1.5 13C1.5 12.7267 1.72667 12.5 2 12.5H14C14.2733 12.5 14.5 12.7267 14.5 13C14.5 13.2733 14.2733 13.5 14 13.5Z" fill="currentColor"/>
</svg>
