<svg width="16" height="16" viewBox="0 0 16 16" fill="none" xmlns="http://www.w3.org/2000/svg">
<path d="M14 3.5H2C1.72667 3.5 1.5 3.27333 1.5 3C1.5 2.72667 1.72667 2.5 2 2.5H14C14.2733 2.5 14.5 2.72667 14.5 3C14.5 3.27333 14.2733 3.5 14 3.5Z" fill="currentColor"/>
<path d="M8.31333 6.83333H2C1.72667 6.83333 1.5 6.60667 1.5 6.33333C1.5 6.06 1.72667 5.83333 2 5.83333H8.31333C8.58667 5.83333 8.81333 6.06 8.81333 6.33333C8.81333 6.60667 8.59333 6.83333 8.31333 6.83333Z" fill="currentColor"/>
<path d="M14 10.1667H2C1.72667 10.1667 1.5 9.94 1.5 9.66667C1.5 9.39333 1.72667 9.16667 2 9.16667H14C14.2733 9.16667 14.5 9.39333 14.5 9.66667C14.5 9.94 14.2733 10.1667 14 10.1667Z" fill="currentColor"/>
<path d="M8.31333 13.5H2C1.72667 13.5 1.5 13.2733 1.5 13C1.5 12.7267 1.72667 12.5 2 12.5H8.31333C8.58667 12.5 8.81333 12.7267 8.81333 13C8.81333 13.2733 8.59333 13.5 8.31333 13.5Z" fill="currentColor"/>
</svg>
