<svg width="16" height="16" viewBox="0 0 16 16" fill="none" xmlns="http://www.w3.org/2000/svg">
<path d="M14.2199 5.27986C13.9466 5.27986 13.7199 5.05319 13.7199 4.77986V3.56652C13.7199 3.07986 13.3266 2.68652 12.8399 2.68652H3.15994C2.67327 2.68652 2.27994 3.07986 2.27994 3.56652V4.78652C2.27994 5.05985 2.05327 5.28652 1.77994 5.28652C1.5066 5.28652 1.27994 5.05986 1.27994 4.77986V3.56652C1.27994 2.52652 2.1266 1.68652 3.15994 1.68652H12.8399C13.8799 1.68652 14.7199 2.53319 14.7199 3.56652V4.78652C14.7199 5.05985 14.4999 5.27986 14.2199 5.27986Z" fill="currentColor"/>
<path d="M7.99999 14.3133C7.72666 14.3133 7.49999 14.0866 7.49999 13.8133V2.7399C7.49999 2.46657 7.72666 2.2399 7.99999 2.2399C8.27332 2.2399 8.49999 2.46657 8.49999 2.7399V13.8133C8.49999 14.0933 8.27332 14.3133 7.99999 14.3133Z" fill="currentColor"/>
<path d="M10.627 14.3135H5.37369C5.10036 14.3135 4.87369 14.0868 4.87369 13.8135C4.87369 13.5401 5.10036 13.3135 5.37369 13.3135H10.627C10.9003 13.3135 11.127 13.5401 11.127 13.8135C11.127 14.0868 10.9003 14.3135 10.627 14.3135Z" fill="currentColor"/>
</svg>
