<svg width="16" height="16" viewBox="0 0 16 16" fill="none" xmlns="http://www.w3.org/2000/svg">
<path d="M12.6666 14.5H3.33331C3.05998 14.5 2.83331 14.2733 2.83331 14C2.83331 13.7267 3.05998 13.5 3.33331 13.5H12.6666C12.94 13.5 13.1666 13.7267 13.1666 14C13.1666 14.2733 12.94 14.5 12.6666 14.5Z" fill="currentColor"/>
<path d="M7.99998 11.8333C5.15331 11.8333 2.83331 9.51333 2.83331 6.66667V2C2.83331 1.72667 3.05998 1.5 3.33331 1.5C3.60665 1.5 3.83331 1.72667 3.83331 2V6.66667C3.83331 8.96667 5.69998 10.8333 7.99998 10.8333C10.3 10.8333 12.1666 8.96667 12.1666 6.66667V2C12.1666 1.72667 12.3933 1.5 12.6666 1.5C12.94 1.5 13.1666 1.72667 13.1666 2V6.66667C13.1666 9.51333 10.8466 11.8333 7.99998 11.8333Z" fill="currentColor"/>
</svg>
