<svg width="16" height="16" viewBox="0 0 16 16" fill="none" xmlns="http://www.w3.org/2000/svg">
<path d="M14 3.5H2C1.72667 3.5 1.5 3.27333 1.5 3C1.5 2.72667 1.72667 2.5 2 2.5H14C14.2733 2.5 14.5 2.72667 14.5 3C14.5 3.27333 14.2733 3.5 14 3.5Z" fill="currentColor"/>
<path d="M11.1599 6.83333H4.83985C4.56651 6.83333 4.33985 6.60667 4.33985 6.33333C4.33985 6.06 4.56651 5.83333 4.83985 5.83333H11.1532C11.4265 5.83333 11.6532 6.06 11.6532 6.33333C11.6532 6.60667 11.4332 6.83333 11.1599 6.83333Z" fill="currentColor"/>
<path d="M14 10.1667H2C1.72667 10.1667 1.5 9.94 1.5 9.66667C1.5 9.39333 1.72667 9.16667 2 9.16667H14C14.2733 9.16667 14.5 9.39333 14.5 9.66667C14.5 9.94 14.2733 10.1667 14 10.1667Z" fill="currentColor"/>
<path d="M11.1599 13.5H4.83985C4.56651 13.5 4.33985 13.2733 4.33985 13C4.33985 12.7267 4.56651 12.5 4.83985 12.5H11.1532C11.4265 12.5 11.6532 12.7267 11.6532 13C11.6532 13.2733 11.4332 13.5 11.1599 13.5Z" fill="currentColor"/>
</svg>
