<svg width="16" height="16" viewBox="0 0 16 16" fill="none" xmlns="http://www.w3.org/2000/svg">
<path d="M14 3.5H2C1.72667 3.5 1.5 3.27333 1.5 3C1.5 2.72667 1.72667 2.5 2 2.5H14C14.2733 2.5 14.5 2.72667 14.5 3C14.5 3.27333 14.2733 3.5 14 3.5Z" fill="currentColor"/>
<path d="M13.9995 6.83333H7.6862C7.41287 6.83333 7.1862 6.60667 7.1862 6.33333C7.1862 6.06 7.41287 5.83333 7.6862 5.83333H13.9995C14.2729 5.83333 14.4995 6.06 14.4995 6.33333C14.4995 6.60667 14.2729 6.83333 13.9995 6.83333Z" fill="currentColor"/>
<path d="M14 10.1667H2C1.72667 10.1667 1.5 9.94 1.5 9.66667C1.5 9.39333 1.72667 9.16667 2 9.16667H14C14.2733 9.16667 14.5 9.39333 14.5 9.66667C14.5 9.94 14.2733 10.1667 14 10.1667Z" fill="currentColor"/>
<path d="M13.9995 13.5H7.6862C7.41287 13.5 7.1862 13.2733 7.1862 13C7.1862 12.7267 7.41287 12.5 7.6862 12.5H13.9995C14.2729 12.5 14.4995 12.7267 14.4995 13C14.4995 13.2733 14.2729 13.5 13.9995 13.5Z" fill="currentColor"/>
</svg>
