<svg width="16" height="16" viewBox="0 0 16 16" fill="none" xmlns="http://www.w3.org/2000/svg">
<path d="M12.5873 2.5H6.41393C6.14059 2.5 5.92059 2.27334 5.92059 2C5.92059 1.72667 6.14726 1.5 6.42059 1.5H12.5873C12.8606 1.5 13.0873 1.72667 13.0873 2C13.0873 2.27334 12.8606 2.5 12.5873 2.5Z" fill="currentColor"/>
<path d="M9.58609 14.5H3.41278C3.13945 14.5 2.91278 14.2733 2.91278 14C2.91278 13.7267 3.13945 13.5 3.41278 13.5H9.57942C9.85275 13.5 10.0794 13.7267 10.0794 14C10.0794 14.2733 9.85942 14.5 9.58609 14.5Z" fill="currentColor"/>
<path d="M6.50009 14.5001C6.46009 14.5001 6.42009 14.4934 6.38009 14.4867C6.11342 14.4201 5.94675 14.1467 6.01342 13.8801L9.01342 1.88007C9.08009 1.6134 9.34675 1.44674 9.62009 1.5134C9.88675 1.58007 10.0534 1.8534 9.98675 2.12007L6.98675 14.1201C6.92675 14.3467 6.72675 14.5001 6.50009 14.5001Z" fill="currentColor"/>
</svg>
