<svg width="16" height="16" viewBox="0 0 16 16" fill="none" xmlns="http://www.w3.org/2000/svg">
<path d="M8.0006 8.50001H3.25391C2.98057 8.50001 2.75391 8.27334 2.75391 8.00001V3.00001C2.75391 1.98667 3.57391 1.16667 4.58724 1.16667H8.0006C10.0206 1.16667 11.6673 2.81334 11.6673 4.83334C11.6673 6.85334 10.0206 8.50001 8.0006 8.50001ZM3.74724 7.50001H8.0006C9.47393 7.50001 10.6673 6.30667 10.6673 4.83334C10.6673 3.36001 9.47393 2.16667 8.0006 2.16667H4.58724C4.12724 2.16667 3.75391 2.54001 3.75391 3.00001V7.50001H3.74724Z" fill="currentColor"/>
<path d="M9.58727 14.8333H4.58724C3.57391 14.8333 2.75391 14.0133 2.75391 13V8.00001C2.75391 7.72667 2.98057 7.50001 3.25391 7.50001H9.58727C11.6073 7.50001 13.2539 9.14667 13.2539 11.1667C13.2539 13.1867 11.6073 14.8333 9.58727 14.8333ZM3.74724 8.50001V13C3.74724 13.46 4.12057 13.8333 4.58057 13.8333H9.5806C11.0539 13.8333 12.2473 12.64 12.2473 11.1667C12.2473 9.69334 11.0539 8.50001 9.5806 8.50001H3.74724Z" fill="currentColor"/>
</svg>
