<svg width="16" height="16" viewBox="0 0 16 16" fill="none" xmlns="http://www.w3.org/2000/svg">
<g clip-path="url(#clip0_2_4587)">
<path d="M9.99998 15.1667H5.99998C2.37998 15.1667 0.833313 13.62 0.833313 9.99999V5.99999C0.833313 2.37999 2.37998 0.833328 5.99998 0.833328H9.99998C13.62 0.833328 15.1666 2.37999 15.1666 5.99999V9.99999C15.1666 13.62 13.62 15.1667 9.99998 15.1667ZM5.99998 1.83333C2.92665 1.83333 1.83331 2.92666 1.83331 5.99999V9.99999C1.83331 13.0733 2.92665 14.1667 5.99998 14.1667H9.99998C13.0733 14.1667 14.1666 13.0733 14.1666 9.99999V5.99999C14.1666 2.92666 13.0733 1.83333 9.99998 1.83333H5.99998Z" fill="currentColor"/>
<path d="M4.66699 6.42001C4.48699 6.42001 4.30699 6.32001 4.22032 6.14667C4.09365 5.90001 4.19365 5.60001 4.44032 5.47334C6.66698 4.36001 9.32698 4.36001 11.5536 5.47334C11.8003 5.60001 11.9003 5.90001 11.7803 6.14667C11.6536 6.39334 11.3603 6.49334 11.107 6.37334C9.16031 5.40001 6.83365 5.40001 4.88699 6.37334C4.82032 6.40667 4.74032 6.42001 4.66699 6.42001Z" fill="currentColor"/>
<path d="M7.99998 11.3601C7.72665 11.3601 7.49998 11.1335 7.49998 10.8601V5.28678C7.49998 5.01345 7.72665 4.78678 7.99998 4.78678C8.27331 4.78678 8.49998 5.01345 8.49998 5.28678V10.8668C8.49998 11.1401 8.27331 11.3601 7.99998 11.3601Z" fill="currentColor"/>
</g>
<defs>
<clipPath id="clip0_2_4587">
<rect width="16" height="16" fill="currentColor"/>
</clipPath>
</defs>
</svg>
