<svg width="16" height="16" viewBox="0 0 16 16" fill="none" xmlns="http://www.w3.org/2000/svg">
<path d="M11.3333 13.8333H4.66665C1.72665 13.8333 0.833313 12.94 0.833313 10V9.66667C0.833313 9.39334 1.05998 9.16667 1.33331 9.16667C1.97331 9.16667 2.49998 8.64001 2.49998 8.00001C2.49998 7.36001 1.97331 6.83334 1.33331 6.83334C1.05998 6.83334 0.833313 6.60667 0.833313 6.33334V6.00001C0.833313 3.06001 1.72665 2.16667 4.66665 2.16667H11.3333C14.2733 2.16667 15.1666 3.06001 15.1666 6.00001V6.66667C15.1666 6.94001 14.94 7.16667 14.6666 7.16667C14.0266 7.16667 13.5 7.69334 13.5 8.33334C13.5 8.97334 14.0266 9.50001 14.6666 9.50001C14.94 9.50001 15.1666 9.72667 15.1666 10C15.1666 12.94 14.2733 13.8333 11.3333 13.8333ZM1.83331 10.1067C1.84665 12.4 2.31998 12.8333 4.66665 12.8333H11.3333C13.56 12.8333 14.1 12.44 14.16 10.44C13.2066 10.2133 12.5 9.35334 12.5 8.33334C12.5 7.31334 13.2133 6.45334 14.1666 6.22667V6.00001C14.1666 3.62001 13.7133 3.16667 11.3333 3.16667H4.66665C2.31998 3.16667 1.84665 3.60001 1.83331 5.89334C2.78665 6.12001 3.49998 6.98001 3.49998 8.00001C3.49998 9.02001 2.78665 9.88 1.83331 10.1067Z" fill="currentColor"/>
<path d="M10.0001 10.5866C9.62678 10.5866 9.32678 10.2866 9.32678 9.91994C9.32678 9.55327 9.62678 9.25327 9.99345 9.25327C10.3601 9.25327 10.6601 9.55327 10.6601 9.91994C10.6601 10.2866 10.3734 10.5866 10.0001 10.5866Z" fill="currentColor"/>
<path d="M6.00013 7.25327C5.6268 7.25327 5.3268 6.95327 5.3268 6.58659C5.3268 6.21993 5.6268 5.91993 5.99347 5.91993C6.36013 5.91993 6.66013 6.21993 6.66013 6.58659C6.66013 6.95327 6.37347 7.25327 6.00013 7.25327Z" fill="currentColor"/>
<path d="M5.75352 10.9534C5.62685 10.9534 5.50019 10.9067 5.40019 10.8067C5.20685 10.6134 5.20685 10.2934 5.40019 10.1001L9.88685 5.61343C10.0802 5.4201 10.4002 5.4201 10.5935 5.61343C10.7868 5.80677 10.7868 6.12677 10.5935 6.3201L6.10685 10.8067C6.01352 10.9067 5.88019 10.9534 5.75352 10.9534Z" fill="currentColor"/>
</svg>
