<svg width="16" height="16" viewBox="0 0 16 16" fill="none" xmlns="http://www.w3.org/2000/svg">
<path d="M11.3333 13.8333H4.66665C1.72665 13.8333 0.833313 12.94 0.833313 10V9.66667C0.833313 9.39334 1.05998 9.16667 1.33331 9.16667C1.97331 9.16667 2.49998 8.64001 2.49998 8.00001C2.49998 7.36001 1.97331 6.83334 1.33331 6.83334C1.05998 6.83334 0.833313 6.60667 0.833313 6.33334V6.00001C0.833313 3.06001 1.72665 2.16667 4.66665 2.16667H11.3333C14.2733 2.16667 15.1666 3.06001 15.1666 6.00001V6.66667C15.1666 6.94001 14.94 7.16667 14.6666 7.16667C14.0266 7.16667 13.5 7.69334 13.5 8.33334C13.5 8.97334 14.0266 9.50001 14.6666 9.50001C14.94 9.50001 15.1666 9.72667 15.1666 10C15.1666 12.94 14.2733 13.8333 11.3333 13.8333ZM1.83331 10.1067C1.84665 12.4 2.31998 12.8333 4.66665 12.8333H11.3333C13.56 12.8333 14.1 12.44 14.16 10.44C13.2066 10.2133 12.5 9.35334 12.5 8.33334C12.5 7.31334 13.2133 6.45334 14.1666 6.22667V6.00001C14.1666 3.62001 13.72 3.16667 11.3333 3.16667H4.66665C2.31998 3.16667 1.84665 3.60001 1.83331 5.89334C2.78665 6.12001 3.49998 6.98001 3.49998 8.00001C3.49998 9.02001 2.78665 9.88 1.83331 10.1067Z" fill="currentColor"/>
<path d="M6.66665 4.83334C6.39331 4.83334 6.16665 4.60667 6.16665 4.33334V2.66667C6.16665 2.39334 6.39331 2.16667 6.66665 2.16667C6.93998 2.16667 7.16665 2.39334 7.16665 2.66667V4.33334C7.16665 4.60667 6.93998 4.83334 6.66665 4.83334Z" fill="currentColor"/>
<path d="M6.66665 9.72014C6.39331 9.72014 6.16665 9.49347 6.16665 9.22014V6.77347C6.16665 6.50011 6.39331 6.27345 6.66665 6.27345C6.93998 6.27345 7.16665 6.50011 7.16665 6.77347V9.22014C7.16665 9.50014 6.93998 9.72014 6.66665 9.72014Z" fill="currentColor"/>
<path d="M6.66665 13.8333C6.39331 13.8333 6.16665 13.6067 6.16665 13.3333V11.6667C6.16665 11.3933 6.39331 11.1667 6.66665 11.1667C6.93998 11.1667 7.16665 11.3933 7.16665 11.6667V13.3333C7.16665 13.6067 6.93998 13.8333 6.66665 13.8333Z" fill="currentColor"/>
</svg>
