<svg width="16" height="16" viewBox="0 0 16 16" fill="none" xmlns="http://www.w3.org/2000/svg">
<g clip-path="url(#clip0_2_4584)">
<path d="M7.99998 15.1667C4.04665 15.1667 0.833313 11.9533 0.833313 7.99999C0.833313 4.04666 4.04665 0.833328 7.99998 0.833328C11.9533 0.833328 15.1666 4.04666 15.1666 7.99999C15.1666 11.9533 11.9533 15.1667 7.99998 15.1667ZM7.99998 1.83333C4.59998 1.83333 1.83331 4.59999 1.83331 7.99999C1.83331 11.4 4.59998 14.1667 7.99998 14.1667C11.4 14.1667 14.1666 11.4 14.1666 7.99999C14.1666 4.59999 11.4 1.83333 7.99998 1.83333Z" fill="currentColor"/>
<path d="M7.05298 10.3867C6.91965 10.3867 6.79298 10.3334 6.69965 10.2401L4.81295 8.35339C4.61961 8.16006 4.61961 7.84006 4.81295 7.64673C5.00628 7.45339 5.32628 7.45339 5.51961 7.64673L7.05298 9.18006L10.4796 5.7534C10.673 5.56006 10.993 5.56006 11.1863 5.7534C11.3796 5.94673 11.3796 6.26673 11.1863 6.46006L7.40631 10.2401C7.31298 10.3334 7.18631 10.3867 7.05298 10.3867Z" fill="currentColor"/>
</g>
<defs>
<clipPath id="clip0_2_4584">
<rect width="16" height="16" fill="currentColor"/>
</clipPath>
</defs>
</svg>
