<svg width="16" height="16" viewBox="0 0 16 16" fill="none" xmlns="http://www.w3.org/2000/svg">
<path d="M11.5868 13.8333H7.27347C7.00013 13.8333 6.77347 13.6067 6.77347 13.3333C6.77347 13.06 7.00013 12.8333 7.27347 12.8333H11.5868C13.6268 12.8333 14.1068 12.5 14.1601 10.6867C13.2801 10.46 12.6268 9.66 12.6268 8.71333C12.6268 7.76 13.2801 6.95333 14.1668 6.72666V6.5533C14.1668 4.35997 13.7801 3.9733 11.5868 3.9733H7.83347V8C7.83347 8.27333 7.6068 8.5 7.33347 8.5C7.06013 8.5 6.83347 8.27333 6.83347 8V3.4733C6.83347 3.19997 7.06013 2.9733 7.33347 2.9733H11.5868C14.3335 2.9733 15.1668 3.80664 15.1668 6.5533V7.16666C15.1668 7.44 14.9401 7.66666 14.6668 7.66666C14.0935 7.66666 13.6268 8.13333 13.6268 8.71333C13.6268 9.28666 14.0935 9.75333 14.6668 9.75333C14.9401 9.75333 15.1668 9.98 15.1668 10.2533C15.1668 13 14.3335 13.8333 11.5868 13.8333Z" fill="currentColor"/>
<path d="M7.3336 13.8335H5.48696C4.14029 13.8335 3.44696 12.8201 2.81363 11.3001L2.68696 10.9935C2.64029 10.8735 2.64029 10.7335 2.69363 10.6135C2.74696 10.4935 2.84696 10.3935 2.96696 10.3468C3.23363 10.2401 3.44029 10.0335 3.55363 9.77347C3.66696 9.5068 3.66696 9.21346 3.55363 8.9468C3.33363 8.3868 2.70029 8.1268 2.14029 8.3468C2.01363 8.40013 1.88029 8.39346 1.75363 8.34013C1.63363 8.2868 1.53363 8.1868 1.48696 8.0668L1.37363 7.78013C0.306956 5.18681 0.773625 4.07348 3.36696 3.00014L5.12696 2.28014C5.38029 2.17348 5.67362 2.30014 5.78029 2.55348L7.80027 7.4468C7.82693 7.5068 7.84026 7.57347 7.84026 7.64013V9.33347C7.84026 9.6068 7.6136 9.83347 7.34026 9.83347C7.06693 9.83347 6.84026 9.6068 6.84026 9.33347V7.73346L5.04029 3.39348L3.74696 3.92681C1.69363 4.77348 1.44696 5.29348 2.25363 7.29346C3.18029 7.16013 4.11363 7.66013 4.48029 8.56013C4.69363 9.07346 4.69363 9.64013 4.47363 10.1535C4.32696 10.5068 4.08696 10.8068 3.78029 11.0268C4.42029 12.5335 4.88696 12.8335 5.48029 12.8335H6.82693V11.3335C6.82693 11.0601 7.0536 10.8335 7.32693 10.8335C7.60027 10.8335 7.82693 11.0601 7.82693 11.3335V13.3335C7.8336 13.6068 7.60693 13.8335 7.3336 13.8335Z" fill="currentColor"/>
<path d="M5.44667 13.8333H5.33333C5.06 13.8333 4.83333 13.6067 4.83333 13.3333C4.83333 13.06 5.06 12.8333 5.33333 12.8333H5.44667C5.72 12.8333 5.94667 13.06 5.94667 13.3333C5.94667 13.6067 5.72 13.8333 5.44667 13.8333Z" fill="currentColor"/>
</svg>
