<svg width="16" height="16" viewBox="0 0 16 16" fill="none" xmlns="http://www.w3.org/2000/svg">
<path d="M11.1261 15.1667H4.87276C2.09276 15.1667 1.24609 14.32 1.24609 11.54V11.2333C1.24609 10.96 1.47276 10.7333 1.74609 10.7333C2.33276 10.7333 2.81276 10.2533 2.81276 9.66666C2.81276 9.07999 2.33276 8.59999 1.74609 8.59999C1.47276 8.59999 1.24609 8.37333 1.24609 8.09999V7.79333C1.24609 5.01333 2.09276 4.16666 4.87276 4.16666H11.1261C13.9061 4.16666 14.7527 5.01333 14.7527 7.79333V8.41999C14.7527 8.69333 14.5261 8.91999 14.2527 8.91999C13.6661 8.91999 13.1861 9.39999 13.1861 9.98666C13.1861 10.5733 13.6661 11.0467 14.2527 11.0467C14.5261 11.0467 14.7527 11.2733 14.7527 11.5467C14.7461 14.32 13.8994 15.1667 11.1261 15.1667ZM2.25276 11.6733C2.26609 13.7933 2.68609 14.1667 4.87943 14.1667H11.1327C13.2127 14.1667 13.6927 13.8267 13.7527 11.98C12.8594 11.7533 12.1927 10.9467 12.1927 9.97999C12.1927 9.01333 12.8594 8.19999 13.7594 7.97333V7.78666C13.7594 5.55333 13.3661 5.15999 11.1327 5.15999H4.87276C2.68609 5.15999 2.26609 5.53999 2.24609 7.65333C3.14609 7.87999 3.81276 8.69333 3.81276 9.65999C3.81276 10.6267 3.14609 11.4467 2.25276 11.6733Z" fill="currentColor"/>
<path d="M6.66667 6.83333C6.39333 6.83333 6.16667 6.60666 6.16667 6.33333V4.66666C6.16667 4.39333 6.39333 4.16666 6.66667 4.16666C6.94 4.16666 7.16667 4.39333 7.16667 4.66666V6.33333C7.16667 6.60666 6.94 6.83333 6.66667 6.83333Z" fill="currentColor"/>
<path d="M6.66667 11.2799C6.39333 11.2799 6.16667 11.0532 6.16667 10.7799V8.55986C6.16667 8.28653 6.39333 8.05986 6.66667 8.05986C6.94 8.05986 7.16667 8.28653 7.16667 8.55986V10.7799C7.16667 11.0532 6.94 11.2799 6.66667 11.2799Z" fill="currentColor"/>
<path d="M6.66667 15.1667C6.39333 15.1667 6.16667 14.94 6.16667 14.6667V13C6.16667 12.7267 6.39333 12.5 6.66667 12.5C6.94 12.5 7.16667 12.7267 7.16667 13V14.6667C7.16667 14.94 6.94 15.1667 6.66667 15.1667Z" fill="currentColor"/>
<path d="M10.8868 5.16675H4.82678C4.62678 5.16675 4.44011 5.04675 4.36678 4.86009C4.29345 4.67342 4.33345 4.45342 4.47345 4.31342L6.42678 2.36009C8.2268 0.560086 9.3268 0.560086 11.1201 2.36009L11.5201 2.76009C11.6135 2.85342 11.6668 2.98009 11.6668 3.11342C11.6668 3.24675 11.6135 3.37342 11.5201 3.46675C11.2535 3.73342 11.1801 4.12675 11.3335 4.46675C11.4068 4.62009 11.3935 4.80009 11.3001 4.94675C11.2135 5.08009 11.0535 5.16675 10.8868 5.16675ZM6.03345 4.16675H10.2535C10.2401 3.81342 10.3268 3.46009 10.5068 3.15342L10.4201 3.06675C9.0268 1.67342 8.53347 1.67342 7.14013 3.06675L6.03345 4.16675Z" fill="currentColor"/>
</svg>
