<svg width="16" height="16" viewBox="0 0 16 16" fill="none" xmlns="http://www.w3.org/2000/svg">
<path d="M11.3338 13.8333H4.66714C1.8338 13.8333 0.907135 12.9867 0.840469 10.3467C0.840469 10.2133 0.887135 10.08 0.980469 9.98667C1.0738 9.89334 1.20047 9.83334 1.34047 9.83334C2.34714 9.83334 3.16714 9.00667 3.16714 8.00001C3.16714 6.99334 2.34714 6.16667 1.34047 6.16667C1.20714 6.16667 1.08047 6.11334 0.980469 6.01334C0.880469 5.91334 0.833802 5.78667 0.840469 5.65334C0.907135 3.01334 1.8338 2.16667 4.66714 2.16667H11.3338C14.2738 2.16667 15.1671 3.06001 15.1671 6.00001V10C15.1671 12.94 14.2738 13.8333 11.3338 13.8333ZM1.86047 10.7867C1.9738 12.48 2.54714 12.8333 4.66714 12.8333H11.3338C13.7205 12.8333 14.1671 12.38 14.1671 10V6.00001C14.1671 3.62001 13.7205 3.16667 11.3338 3.16667H4.66714C2.54714 3.16667 1.9738 3.52667 1.86047 5.21334C3.1738 5.46667 4.16714 6.62001 4.16714 8.00001C4.16714 9.38 3.1738 10.5333 1.86047 10.7867Z" fill="currentColor"/>
<path d="M6 5.50001C5.72667 5.50001 5.5 5.27334 5.5 5.00001V2.66667C5.5 2.39334 5.72667 2.16667 6 2.16667C6.27334 2.16667 6.5 2.39334 6.5 2.66667V5.00001C6.5 5.27334 6.27334 5.50001 6 5.50001Z" fill="currentColor"/>
<path d="M6 13.8333C5.72667 13.8333 5.5 13.6067 5.5 13.3333V11C5.5 10.7267 5.72667 10.5 6 10.5C6.27334 10.5 6.5 10.7267 6.5 11V13.3333C6.5 13.6067 6.27334 13.8333 6 13.8333Z" fill="currentColor"/>
<path d="M8.6934 10.4334C8.5334 10.4334 8.3734 10.3801 8.24007 10.2867C8.00007 10.1134 7.88007 9.82007 7.9334 9.52674L8.0734 8.73341L7.4934 8.16674C7.28007 7.96007 7.20674 7.65341 7.2934 7.3734C7.38674 7.0934 7.62674 6.88674 7.92007 6.84674L8.72007 6.72674L9.08007 6.00007C9.2134 5.73341 9.48007 5.56674 9.7734 5.56674C10.0734 5.56674 10.3401 5.73341 10.4667 6.00007L10.8267 6.72674L11.6267 6.84674C11.9201 6.88674 12.1601 7.0934 12.2534 7.3734C12.3467 7.65341 12.2667 7.96007 12.0534 8.16674L11.4734 8.73341L11.6134 9.52674C11.6667 9.82007 11.5467 10.1134 11.3067 10.2867C11.0667 10.4601 10.7534 10.4801 10.4934 10.3467L9.78007 9.97341L9.06007 10.3467C8.94674 10.4067 8.82007 10.4334 8.6934 10.4334ZM8.5134 7.76674L8.8534 8.10007C9.04007 8.28007 9.12007 8.53341 9.08007 8.78674L9.00007 9.25341L9.42007 9.03341C9.64674 8.91341 9.9134 8.91341 10.1401 9.03341L10.5601 9.25341L10.4801 8.78674C10.4401 8.52674 10.5201 8.27341 10.7067 8.10007L11.0467 7.76674L10.5801 7.70007C10.3267 7.66007 10.1067 7.50007 9.9934 7.27341L9.78674 6.84674L9.58007 7.27341C9.46674 7.50007 9.24674 7.66007 8.9934 7.70007L8.5134 7.76674Z" fill="currentColor"/>
</svg>
