<svg width="16" height="16" viewBox="0 0 16 16" fill="none" xmlns="http://www.w3.org/2000/svg">
<g clip-path="url(#clip0_2_4579)">
<path d="M9.99998 15.1667H5.99998C2.37998 15.1667 0.833313 13.62 0.833313 9.99999V5.99999C0.833313 2.37999 2.37998 0.833328 5.99998 0.833328H9.99998C13.62 0.833328 15.1666 2.37999 15.1666 5.99999V9.99999C15.1666 13.62 13.62 15.1667 9.99998 15.1667ZM5.99998 1.83333C2.92665 1.83333 1.83331 2.92666 1.83331 5.99999V9.99999C1.83331 13.0733 2.92665 14.1667 5.99998 14.1667H9.99998C13.0733 14.1667 14.1666 13.0733 14.1666 9.99999V5.99999C14.1666 2.92666 13.0733 1.83333 9.99998 1.83333H5.99998Z" fill="currentColor"/>
<path d="M7.05298 10.3867C6.91965 10.3867 6.79298 10.3334 6.69965 10.2401L4.81295 8.35339C4.61961 8.16006 4.61961 7.84006 4.81295 7.64673C5.00628 7.45339 5.32628 7.45339 5.51961 7.64673L7.05298 9.18006L10.4796 5.7534C10.673 5.56006 10.993 5.56006 11.1863 5.7534C11.3796 5.94673 11.3796 6.26673 11.1863 6.46006L7.40631 10.2401C7.31298 10.3334 7.18631 10.3867 7.05298 10.3867Z" fill="currentColor"/>
</g>
<defs>
<clipPath id="clip0_2_4579">
<rect width="16" height="16" fill="currentColor"/>
</clipPath>
</defs>
</svg>
