<svg width="16" height="16" viewBox="0 0 16 16" fill="none" xmlns="http://www.w3.org/2000/svg">
<path d="M8.00002 15.1667C4.50669 15.1667 1.66669 12.3267 1.66669 8.83333C1.66669 5.33999 4.50669 2.49999 8.00002 2.49999C11.4934 2.49999 14.3334 5.33999 14.3334 8.83333C14.3334 12.3267 11.4934 15.1667 8.00002 15.1667ZM8.00002 3.49999C5.06002 3.49999 2.66669 5.89333 2.66669 8.83333C2.66669 11.7733 5.06002 14.1667 8.00002 14.1667C10.94 14.1667 13.3334 11.7733 13.3334 8.83333C13.3334 5.89333 10.94 3.49999 8.00002 3.49999Z" fill="currentColor"/>
<path d="M8.00002 9.16666C7.72669 9.16666 7.50002 8.93999 7.50002 8.66666V5.33333C7.50002 5.05999 7.72669 4.83333 8.00002 4.83333C8.27335 4.83333 8.50002 5.05999 8.50002 5.33333V8.66666C8.50002 8.93999 8.27335 9.16666 8.00002 9.16666Z" fill="currentColor"/>
<path d="M10 1.83333H6.00002C5.72669 1.83333 5.50002 1.60666 5.50002 1.33333C5.50002 1.05999 5.72669 0.833328 6.00002 0.833328H10C10.2734 0.833328 10.5 1.05999 10.5 1.33333C10.5 1.60666 10.2734 1.83333 10 1.83333Z" fill="currentColor"/>
</svg>
