<svg width="16" height="16" viewBox="0 0 16 16" fill="none" xmlns="http://www.w3.org/2000/svg">
<path d="M7.99999 9.16666C7.72666 9.16666 7.49999 8.93999 7.49999 8.66666V5.33333C7.49999 5.05999 7.72666 4.83333 7.99999 4.83333C8.27332 4.83333 8.49999 5.05999 8.49999 5.33333V8.66666C8.49999 8.93999 8.27332 9.16666 7.99999 9.16666Z" fill="currentColor"/>
<path d="M7.99999 15.1667C4.50666 15.1667 1.66666 12.3267 1.66666 8.83333C1.66666 5.33999 4.50666 2.49999 7.99999 2.49999C11.4933 2.49999 14.3333 5.33999 14.3333 8.83333C14.3333 9.10666 14.1067 9.33333 13.8333 9.33333C13.56 9.33333 13.3333 9.10666 13.3333 8.83333C13.3333 5.89333 10.94 3.49999 7.99999 3.49999C5.05999 3.49999 2.66666 5.89333 2.66666 8.83333C2.66666 11.7733 5.05999 14.1667 7.99999 14.1667C8.27332 14.1667 8.49999 14.3933 8.49999 14.6667C8.49999 14.94 8.27332 15.1667 7.99999 15.1667Z" fill="currentColor"/>
<path d="M9.99999 1.83333H5.99999C5.72666 1.83333 5.49999 1.60666 5.49999 1.33333C5.49999 1.05999 5.72666 0.833328 5.99999 0.833328H9.99999C10.2733 0.833328 10.5 1.05999 10.5 1.33333C10.5 1.60666 10.2733 1.83333 9.99999 1.83333Z" fill="currentColor"/>
<path d="M10.7669 14.6801C10.5336 14.6801 10.3203 14.6267 10.1269 14.5134C9.68692 14.2601 9.43359 13.7467 9.43359 13.1067V11.5667C9.43359 10.9267 9.68692 10.4134 10.1269 10.1601C10.5669 9.90673 11.1336 9.94673 11.6869 10.2601L13.0203 11.0334C13.5736 11.3534 13.8936 11.8267 13.8936 12.3334C13.8936 12.8401 13.5736 13.3134 13.0203 13.6334L11.6869 14.4067C11.3803 14.5867 11.0669 14.6801 10.7669 14.6801ZM10.7736 10.9867C10.7203 10.9867 10.6669 11.0001 10.6269 11.0201C10.5069 11.0867 10.4336 11.2934 10.4336 11.5601V13.1001C10.4336 13.3667 10.5069 13.5734 10.6269 13.6401C10.7469 13.7067 10.9603 13.6734 11.1869 13.5401L12.5203 12.7667C12.7536 12.6334 12.8936 12.4667 12.8936 12.3334C12.8936 12.2001 12.7536 12.0334 12.5203 11.9001L11.1869 11.1267C11.0336 11.0334 10.8869 10.9867 10.7736 10.9867Z" fill="currentColor"/>
</svg>
