<svg width="16" height="16" viewBox="0 0 16 16" fill="none" xmlns="http://www.w3.org/2000/svg">
<path d="M7.99999 15.1667C4.50666 15.1667 1.66666 12.3267 1.66666 8.83333C1.66666 5.33999 4.50666 2.49999 7.99999 2.49999C11.4933 2.49999 14.3333 5.33999 14.3333 8.83333C14.3333 9.10666 14.1067 9.33333 13.8333 9.33333C13.56 9.33333 13.3333 9.10666 13.3333 8.83333C13.3333 5.89333 10.94 3.49999 7.99999 3.49999C5.05999 3.49999 2.66666 5.89333 2.66666 8.83333C2.66666 11.7733 5.05999 14.1667 7.99999 14.1667C8.27332 14.1667 8.49999 14.3933 8.49999 14.6667C8.49999 14.94 8.27332 15.1667 7.99999 15.1667Z" fill="currentColor"/>
<path d="M7.99999 9.16666C7.72666 9.16666 7.49999 8.93999 7.49999 8.66666V5.33333C7.49999 5.05999 7.72666 4.83333 7.99999 4.83333C8.27332 4.83333 8.49999 5.05999 8.49999 5.33333V8.66666C8.49999 8.93999 8.27332 9.16666 7.99999 9.16666Z" fill="currentColor"/>
<path d="M9.99999 1.83333H5.99999C5.72666 1.83333 5.49999 1.60666 5.49999 1.33333C5.49999 1.05999 5.72666 0.833328 5.99999 0.833328H9.99999C10.2733 0.833328 10.5 1.05999 10.5 1.33333C10.5 1.60666 10.2733 1.83333 9.99999 1.83333Z" fill="currentColor"/>
<path d="M12.6667 14.5C12.3933 14.5 12.1667 14.2733 12.1667 14V11.3333C12.1667 11.06 12.3933 10.8333 12.6667 10.8333C12.94 10.8333 13.1667 11.06 13.1667 11.3333V14C13.1667 14.2733 12.94 14.5 12.6667 14.5Z" fill="currentColor"/>
<path d="M10.6667 14.5C10.3933 14.5 10.1667 14.2733 10.1667 14V11.3333C10.1667 11.06 10.3933 10.8333 10.6667 10.8333C10.94 10.8333 11.1667 11.06 11.1667 11.3333V14C11.1667 14.2733 10.94 14.5 10.6667 14.5Z" fill="currentColor"/>
</svg>
