<svg width="16" height="16" viewBox="0 0 16 16" fill="none" xmlns="http://www.w3.org/2000/svg">
<path d="M10.1599 15.1667H5.8399C4.5799 15.1667 3.6599 14.64 3.30657 13.7333C2.9399 12.7867 3.2799 11.6133 4.1599 10.82L7.25322 7.99999L4.1599 5.17999C3.2799 4.38666 2.9399 3.21333 3.30657 2.26666C3.6599 1.35333 4.5799 0.833328 5.8399 0.833328H10.1599C11.4199 0.833328 12.3399 1.35999 12.6932 2.26666C13.0599 3.21333 12.7199 4.38666 11.8399 5.17999L8.74656 7.99999L11.8466 10.82C12.7199 11.6133 13.0666 12.7867 12.6999 13.7333C12.3399 14.64 11.4199 15.1667 10.1599 15.1667ZM7.99989 8.67333L4.83324 11.5533C4.27324 12.0667 4.02657 12.8133 4.2399 13.3667C4.4399 13.88 5.00657 14.1667 5.8399 14.1667H10.1599C10.9932 14.1667 11.5599 13.8867 11.7599 13.3667C11.9732 12.8133 11.7332 12.0667 11.1666 11.5533L7.99989 8.67333ZM5.8399 1.83333C5.00657 1.83333 4.4399 2.11333 4.2399 2.63333C4.02657 3.18666 4.26657 3.93333 4.83324 4.44666L7.99989 7.32666L11.1666 4.44666C11.7266 3.93333 11.9732 3.18666 11.7599 2.63333C11.5599 2.11999 10.9932 1.83333 10.1599 1.83333H5.8399Z" fill="currentColor"/>
</svg>
