<svg width="16" height="16" viewBox="0 0 16 16" fill="none" xmlns="http://www.w3.org/2000/svg">
<path d="M7.13334 11.1667H5.53334C3.92001 11.1667 3.16668 10.4133 3.16668 8.8V7.20001C3.16668 5.58667 3.92001 4.83334 5.53334 4.83334H7.13334C8.74668 4.83334 9.50001 5.58667 9.50001 7.20001V8.8C9.50001 10.4133 8.74668 11.1667 7.13334 11.1667ZM5.53334 5.83334C4.47334 5.83334 4.16668 6.14001 4.16668 7.20001V8.8C4.16668 9.86001 4.47334 10.1667 5.53334 10.1667H7.13334C8.19334 10.1667 8.50001 9.86001 8.50001 8.8V7.20001C8.50001 6.14001 8.19334 5.83334 7.13334 5.83334H5.53334Z" fill="currentColor"/>
<path d="M11.3333 13.8333H4.66668C1.72668 13.8333 0.833344 12.94 0.833344 10V6.00001C0.833344 3.06001 1.72668 2.16667 4.66668 2.16667H11.3333C14.2733 2.16667 15.1667 3.06001 15.1667 6.00001V10C15.1667 12.94 14.2733 13.8333 11.3333 13.8333ZM4.66668 3.16667C2.28001 3.16667 1.83334 3.62001 1.83334 6.00001V10C1.83334 12.38 2.28001 12.8333 4.66668 12.8333H11.3333C13.72 12.8333 14.1667 12.38 14.1667 10V6.00001C14.1667 3.62001 13.72 3.16667 11.3333 3.16667H4.66668Z" fill="currentColor"/>
</svg>
