<svg width="16" height="16" viewBox="0 0 16 16" fill="none" xmlns="http://www.w3.org/2000/svg">
<path d="M9.33334 13.8333H6.66668C3.44668 13.8333 0.833344 11.2133 0.833344 8.00001C0.833344 4.78667 3.44668 2.16667 6.66668 2.16667H9.33334C12.5533 2.16667 15.1667 4.78667 15.1667 8.00001C15.1667 11.2133 12.5533 13.8333 9.33334 13.8333ZM6.66668 3.16667C4.00001 3.16667 1.83334 5.33334 1.83334 8.00001C1.83334 10.6667 4.00001 12.8333 6.66668 12.8333H9.33334C12 12.8333 14.1667 10.6667 14.1667 8.00001C14.1667 5.33334 12 3.16667 9.33334 3.16667H6.66668Z" fill="currentColor"/>
<path d="M9.33334 11.1667C7.58668 11.1667 6.16668 9.74667 6.16668 8.00001C6.16668 6.25334 7.58668 4.83334 9.33334 4.83334C11.08 4.83334 12.5 6.25334 12.5 8.00001C12.5 9.74667 11.08 11.1667 9.33334 11.1667ZM9.33334 5.83334C8.14001 5.83334 7.16668 6.80667 7.16668 8.00001C7.16668 9.19334 8.14001 10.1667 9.33334 10.1667C10.5267 10.1667 11.5 9.19334 11.5 8.00001C11.5 6.80667 10.5267 5.83334 9.33334 5.83334Z" fill="currentColor"/>
</svg>
