<svg width="16" height="16" viewBox="0 0 16 16" fill="none" xmlns="http://www.w3.org/2000/svg">
<path d="M10.4667 11.1667H8.86668C7.25334 11.1667 6.50001 10.4133 6.50001 8.8V7.20001C6.50001 5.58667 7.25334 4.83334 8.86668 4.83334H10.4667C12.08 4.83334 12.8333 5.58667 12.8333 7.20001V8.8C12.8333 10.4133 12.08 11.1667 10.4667 11.1667ZM8.86668 5.83334C7.80668 5.83334 7.50001 6.14001 7.50001 7.20001V8.8C7.50001 9.86001 7.80668 10.1667 8.86668 10.1667H10.4667C11.5267 10.1667 11.8333 9.86001 11.8333 8.8V7.20001C11.8333 6.14001 11.5267 5.83334 10.4667 5.83334H8.86668Z" fill="currentColor"/>
<path d="M11.3333 13.8333H4.66668C1.72668 13.8333 0.833344 12.94 0.833344 10V6.00001C0.833344 3.06001 1.72668 2.16667 4.66668 2.16667H11.3333C14.2733 2.16667 15.1667 3.06001 15.1667 6.00001V10C15.1667 12.94 14.2733 13.8333 11.3333 13.8333ZM4.66668 3.16667C2.28001 3.16667 1.83334 3.62001 1.83334 6.00001V10C1.83334 12.38 2.28001 12.8333 4.66668 12.8333H11.3333C13.72 12.8333 14.1667 12.38 14.1667 10V6.00001C14.1667 3.62001 13.72 3.16667 11.3333 3.16667H4.66668Z" fill="currentColor"/>
</svg>
