<svg width="16" height="16" viewBox="0 0 16 16" fill="none" xmlns="http://www.w3.org/2000/svg">
<g clip-path="url(#clip0_2_4571)">
<path d="M10.3333 10.5C10.2133 10.5 10.08 10.4933 9.95334 10.4867C9.70668 10.4733 9.50668 10.2733 9.48668 10.0267C9.34001 8.16666 7.82668 6.65999 5.97334 6.51332C5.72667 6.49332 5.52667 6.29333 5.51334 6.04667C5.50667 5.92 5.50001 5.79333 5.50001 5.66666C5.50001 2.99999 7.66668 0.833328 10.3333 0.833328C13 0.833328 15.1667 2.99999 15.1667 5.66666C15.1667 8.33333 13 10.5 10.3333 10.5ZM6.50001 5.57332C8.48668 5.91999 10.08 7.51333 10.4267 9.5C12.5 9.44666 14.1667 7.75333 14.1667 5.66666C14.1667 3.55333 12.4467 1.83333 10.3333 1.83333C8.25334 1.83333 6.55334 3.49999 6.50001 5.57332Z" fill="currentColor"/>
<path d="M5.66668 15.1667C3.00001 15.1667 0.833344 13 0.833344 10.3333C0.833344 7.66666 3.00001 5.5 5.66668 5.5C5.78668 5.5 5.92002 5.50666 6.04668 5.51332C8.40001 5.69999 10.3067 7.60666 10.4867 9.94666C10.4933 10.08 10.5 10.2067 10.5 10.3333C10.5 13 8.33334 15.1667 5.66668 15.1667ZM5.66668 6.5C3.55334 6.5 1.83334 8.22 1.83334 10.3333C1.83334 12.4467 3.55334 14.1667 5.66668 14.1667C7.78001 14.1667 9.50001 12.4467 9.50001 10.3333C9.50001 10.2267 9.49334 10.12 9.48668 10.02C9.34001 8.17333 7.83334 6.65999 5.97334 6.51332C5.88 6.50666 5.77334 6.5 5.66668 6.5Z" fill="currentColor"/>
<path d="M2.00001 4.89333C1.84668 4.89333 1.7 4.86666 1.55334 4.80665C1.11334 4.62666 0.833344 4.2 0.833344 3.72666V1.99999C0.833344 1.35999 1.36001 0.833328 2.00001 0.833328H3.72668C4.20001 0.833328 4.62 1.11332 4.80667 1.55332C4.98667 1.99332 4.88667 2.49332 4.55334 2.82666L2.82667 4.55332C2.6 4.77332 2.30668 4.89333 2.00001 4.89333ZM2.00001 1.83333C1.90668 1.83333 1.83334 1.90666 1.83334 1.99999V3.72666C1.83334 3.82666 1.9 3.86667 1.93334 3.88C1.97334 3.89334 2.04668 3.91332 2.11335 3.84665L3.84002 2.11999C3.90668 2.05332 3.89334 1.98 3.87334 1.94C3.85334 1.9 3.81334 1.84 3.72 1.84H2.00001V1.83333Z" fill="currentColor"/>
<path d="M13.9992 15.1667H12.2725C11.7992 15.1667 11.3793 14.8867 11.1926 14.4467C11.0126 14.0067 11.1126 13.5067 11.4459 13.1734L13.1726 11.4467C13.5059 11.1134 14.0059 11.0134 14.4459 11.1934C14.8859 11.3734 15.1659 11.8001 15.1659 12.2734V14.0001C15.1659 14.6401 14.6392 15.1667 13.9992 15.1667ZM13.9925 12.1067C13.9592 12.1067 13.9192 12.1201 13.8792 12.1601L12.1526 13.8867C12.0859 13.9533 12.0992 14.0267 12.1192 14.0667C12.1392 14.1067 12.1792 14.1667 12.2725 14.1667H13.9992C14.0925 14.1667 14.1659 14.0934 14.1659 14.0001V12.2734C14.1659 12.1734 14.0992 12.1334 14.0659 12.1201C14.0459 12.1134 14.0192 12.1067 13.9925 12.1067Z" fill="currentColor"/>
</g>
<defs>
<clipPath id="clip0_2_4571">
<rect width="16" height="16" fill="currentColor"/>
</clipPath>
</defs>
</svg>
