<svg width="16" height="16" viewBox="0 0 16 16" fill="none" xmlns="http://www.w3.org/2000/svg">
<g clip-path="url(#clip0_2_4569)">
<path d="M9.85933 12.9466C9.78599 12.9466 9.70599 12.9266 9.63933 12.8933C9.39266 12.7666 9.29266 12.4666 9.41266 12.2199L10.8393 9.37326C10.926 9.20659 11.0993 9.09993 11.286 9.09993C11.4727 9.09993 11.646 9.20659 11.7327 9.37993L13.1593 12.2266C13.286 12.4733 13.186 12.7733 12.9327 12.8999C12.686 13.0266 12.386 12.9266 12.2593 12.6733L11.286 10.7199L10.3127 12.6733C10.2193 12.8466 10.0393 12.9466 9.85933 12.9466Z" fill="currentColor"/>
<path d="M12.4534 12.4401H10.1068C9.83346 12.4401 9.60679 12.2135 9.60679 11.9401C9.60679 11.6668 9.83346 11.4401 10.1068 11.4401H12.4534C12.7267 11.4401 12.9534 11.6668 12.9534 11.9401C12.9534 12.2135 12.7334 12.4401 12.4534 12.4401Z" fill="currentColor"/>
<path d="M11.2799 15.1665C9.13986 15.1665 7.39319 13.4265 7.39319 11.2799C7.39319 9.13319 9.13319 7.39319 11.2799 7.39319C13.4199 7.39319 15.1665 9.13319 15.1665 11.2799C15.1665 13.4265 13.4265 15.1665 11.2799 15.1665ZM11.2799 8.39986C9.68653 8.39986 8.39319 9.69319 8.39319 11.2865C8.39319 12.8799 9.68653 14.1732 11.2799 14.1732C12.8665 14.1732 14.1665 12.8799 14.1665 11.2865C14.1665 9.69319 12.8732 8.39986 11.2799 8.39986Z" fill="currentColor"/>
<path d="M3.23999 8.46686C2.49999 8.46686 1.91333 8.26013 1.49999 7.86013C1.05999 7.43346 0.833328 6.78679 0.833328 5.95349V3.34016C0.833328 1.72016 1.72666 0.826813 3.34666 0.826813H5.95999C6.79333 0.826813 7.43333 1.04681 7.86666 1.49348C8.28666 1.92681 8.49333 2.55351 8.47333 3.35351V5.95349C8.49333 6.76679 8.28666 7.40686 7.85333 7.84019C7.41999 8.27353 6.77999 8.47346 5.95332 8.46013H3.35333C3.30666 8.46679 3.27333 8.46686 3.23999 8.46686ZM3.34666 1.83349C2.27333 1.83349 1.83333 2.2735 1.83333 3.34683V5.96016C1.83333 6.51349 1.95332 6.91346 2.19332 7.14679C2.42665 7.37346 2.8 7.47353 3.32667 7.46686H5.95332C6.51332 7.48019 6.89999 7.36686 7.13333 7.13353C7.36666 6.90019 7.47333 6.50683 7.45999 5.96683V3.34016C7.47333 2.80683 7.36666 2.42681 7.13999 2.19347C6.90666 1.95347 6.50665 1.83349 5.95332 1.83349H3.34666Z" fill="currentColor"/>
<path d="M5.99963 4.39973H3.29296C3.01963 4.39973 2.79296 4.17307 2.79296 3.89973C2.79296 3.6264 3.01963 3.39973 3.29296 3.39973H5.99963C6.27296 3.39973 6.49963 3.6264 6.49963 3.89973C6.49963 4.17307 6.27963 4.39973 5.99963 4.39973Z" fill="currentColor"/>
<path d="M4.65364 4.39993C4.38031 4.39993 4.15364 4.17327 4.15364 3.89993V3.44661C4.15364 3.17327 4.38031 2.94661 4.65364 2.94661C4.92697 2.94661 5.15364 3.17327 5.15364 3.44661V3.89993C5.15364 4.17327 4.92697 4.39993 4.65364 4.39993Z" fill="currentColor"/>
<path d="M3.29296 6.50655C3.01963 6.50655 2.79296 6.27988 2.79296 6.00655C2.79296 5.73321 3.01963 5.50655 3.29296 5.50655C4.13963 5.50655 4.8263 4.78655 4.8263 3.89322C4.8263 3.61989 5.05297 3.39322 5.3263 3.39322C5.59963 3.39322 5.8263 3.61989 5.8263 3.89322C5.8263 5.33322 4.69296 6.50655 3.29296 6.50655Z" fill="currentColor"/>
<path d="M6.00694 6.50671C5.38694 6.50671 4.79361 6.19338 4.37361 5.64005C4.20695 5.42005 4.25361 5.10668 4.47361 4.94001C4.69361 4.77335 5.00694 4.82003 5.17361 5.04003C5.40027 5.34669 5.70027 5.51338 6.00694 5.51338C6.28027 5.51338 6.50694 5.74005 6.50694 6.01338C6.50694 6.28671 6.28027 6.50671 6.00694 6.50671Z" fill="currentColor"/>
<path d="M5.99999 15.1667C3.15333 15.1667 0.833328 12.8467 0.833328 9.99999C0.833328 9.72666 1.05999 9.49999 1.33333 9.49999C1.60666 9.49999 1.83333 9.72666 1.83333 9.99999C1.83333 11.9733 3.20666 13.6267 5.05333 14.06L4.87333 13.76C4.73333 13.52 4.80667 13.2133 5.04667 13.0733C5.28 12.9333 5.59333 13.0067 5.73333 13.2467L6.43332 14.4133C6.52665 14.5667 6.52666 14.76 6.43999 14.9133C6.34666 15.0667 6.18 15.1667 5.99999 15.1667Z" fill="currentColor"/>
<path d="M14.6669 6.49999C14.3936 6.49999 14.1669 6.27333 14.1669 5.99999C14.1669 4.02666 12.7936 2.37331 10.9469 1.93997L11.1269 2.23999C11.2669 2.47999 11.1936 2.78667 10.9536 2.92667C10.7203 3.06667 10.4069 2.99333 10.2669 2.75333L9.56693 1.58666C9.47359 1.43333 9.47359 1.23999 9.56026 1.08666C9.64693 0.926659 9.81359 0.833326 9.99359 0.833326C12.8403 0.833326 15.1603 3.15333 15.1603 5.99999C15.1669 6.27333 14.9403 6.49999 14.6669 6.49999Z" fill="currentColor"/>
</g>
<defs>
<clipPath id="clip0_2_4569">
<rect width="16" height="16" fill="currentColor"/>
</clipPath>
</defs>
</svg>
