<svg width="16" height="16" viewBox="0 0 16 16" fill="none" xmlns="http://www.w3.org/2000/svg">
<path d="M7.99967 15.1667C7.47967 15.1667 6.97301 14.9 6.62636 14.4333L5.95302 13.5333C5.81302 13.3467 5.62636 13.24 5.42636 13.2267C5.22636 13.22 5.02636 13.3067 4.86636 13.4733C3.90636 14.5 3.16636 14.42 2.81303 14.28C2.45303 14.14 1.84636 13.68 1.84636 12.2V4.69333C1.84636 1.73333 2.69969 0.833328 5.49303 0.833328H10.533C13.3263 0.833328 14.1797 1.73333 14.1797 4.69333V12.2C14.1797 13.6733 13.573 14.1333 13.213 14.28C12.8597 14.42 12.1263 14.5 11.1597 13.4733C10.9997 13.3 10.7997 13.2133 10.593 13.2267C10.393 13.24 10.1997 13.3467 10.0597 13.5333L9.38634 14.4333C9.02634 14.9 8.51967 15.1667 7.99967 15.1667ZM5.38636 12.22C5.41303 12.22 5.44636 12.22 5.47303 12.22C5.96636 12.2467 6.43302 12.5067 6.74634 12.9267L7.41967 13.8267C7.74634 14.26 8.24634 14.26 8.57301 13.8267L9.24634 12.9267C9.56634 12.5067 10.0263 12.2467 10.5263 12.22C11.0263 12.1933 11.513 12.4 11.873 12.7867C12.3797 13.3267 12.7063 13.3933 12.8263 13.3467C12.9863 13.28 13.1597 12.8933 13.1597 12.2V4.69333C13.1597 2.28666 12.7397 1.83333 10.513 1.83333H5.47303C3.24636 1.83333 2.82636 2.28666 2.82636 4.69333V12.2C2.82636 12.9 2.99969 13.2867 3.15969 13.3467C3.27303 13.3933 3.60636 13.3267 4.11303 12.7867C4.47969 12.42 4.92636 12.22 5.38636 12.22Z" fill="currentColor"/>
<path d="M9.83334 7.16666H6.16667C5.89334 7.16666 5.66667 6.93999 5.66667 6.66666C5.66667 6.39333 5.89334 6.16666 6.16667 6.16666H9.83334C10.1067 6.16666 10.3333 6.39333 10.3333 6.66666C10.3333 6.93999 10.1067 7.16666 9.83334 7.16666Z" fill="currentColor"/>
</svg>
