<svg width="16" height="16" viewBox="0 0 16 16" fill="none" xmlns="http://www.w3.org/2000/svg">
<path d="M13.9998 4.48665C13.9865 4.48665 13.9665 4.48665 13.9465 4.48665C10.4198 4.13331 6.8998 3.99998 3.41311 4.35332L2.05311 4.48665C1.77311 4.51331 1.52644 4.31332 1.49978 4.03332C1.47311 3.75332 1.67311 3.51331 1.94644 3.48665L3.30644 3.35331C6.85313 2.99331 10.4465 3.13331 14.0465 3.48665C14.3198 3.51331 14.5198 3.75998 14.4931 4.03332C14.4731 4.29332 14.2531 4.48665 13.9998 4.48665Z" fill="currentColor"/>
<path d="M5.66716 3.81333C5.64049 3.81333 5.61382 3.81333 5.58049 3.80666C5.31382 3.75999 5.12716 3.49999 5.17382 3.23333L5.32049 2.35999C5.42716 1.71999 5.57382 0.833328 7.12713 0.833328H8.8738C10.4338 0.833328 10.5805 1.75333 10.6805 2.36666L10.8271 3.23333C10.8738 3.50666 10.6871 3.76666 10.4205 3.80666C10.1471 3.85333 9.88713 3.66666 9.84713 3.39999L9.70046 2.53333C9.60713 1.95333 9.58713 1.83999 8.88046 1.83999H7.1338C6.42716 1.83999 6.41382 1.93333 6.31382 2.52666L6.16049 3.39333C6.12049 3.64 5.90716 3.81333 5.66716 3.81333Z" fill="currentColor"/>
<path d="M10.1403 15.1667H5.86026C3.53359 15.1667 3.44026 13.8801 3.36692 12.8401L2.93359 6.12671C2.91359 5.85337 3.12692 5.61338 3.40026 5.59338C3.68026 5.58005 3.91359 5.78672 3.93359 6.06005L4.36692 12.7734C4.44026 13.7867 4.46692 14.1667 5.86026 14.1667H10.1403C11.5403 14.1667 11.5669 13.7867 11.6336 12.7734L12.0669 6.06005C12.0869 5.78672 12.3269 5.58005 12.6003 5.59338C12.8736 5.61338 13.0869 5.84671 13.0669 6.12671L12.6336 12.8401C12.5603 13.8801 12.4669 15.1667 10.1403 15.1667Z" fill="currentColor"/>
<path d="M9.10673 11.5H6.88673C6.61338 11.5 6.38672 11.2733 6.38672 11C6.38672 10.7267 6.61338 10.5 6.88673 10.5H9.10673C9.38006 10.5 9.60673 10.7267 9.60673 11C9.60673 11.2733 9.38006 11.5 9.10673 11.5Z" fill="currentColor"/>
<path d="M9.66666 8.83333H6.33333C6.06 8.83333 5.83333 8.60666 5.83333 8.33333C5.83333 8.06 6.06 7.83333 6.33333 7.83333H9.66666C9.93999 7.83333 10.1667 8.06 10.1667 8.33333C10.1667 8.60666 9.93999 8.83333 9.66666 8.83333Z" fill="currentColor"/>
</svg>
