<svg width="16" height="16" viewBox="0 0 16 16" fill="none" xmlns="http://www.w3.org/2000/svg">
<path d="M10.7802 7.20654H5.22015C4.64682 7.20654 4.20684 6.97987 4.00684 6.59324C3.80684 6.1999 3.88682 5.71323 4.22015 5.25323L7.00014 1.3599C7.49347 0.653236 8.51347 0.653238 9.01347 1.36657L11.7935 5.25323C12.1268 5.71323 12.2068 6.1999 12.0068 6.59324C11.7935 6.97987 11.3535 7.20654 10.7802 7.20654ZM8.00014 1.7999C7.94014 1.7999 7.87347 1.85324 7.81347 1.93324L5.03349 5.83324C4.90016 6.01324 4.8935 6.1199 4.90016 6.1399C4.90683 6.15324 5.00016 6.20657 5.22682 6.20657H10.7868C11.0068 6.20657 11.1002 6.14656 11.1135 6.13323C11.1135 6.1199 11.1068 6.01324 10.9801 5.83324L8.20014 1.9399C8.1268 1.84657 8.06014 1.7999 8.00014 1.7999Z" fill="currentColor"/>
<path d="M11.7265 12.5001H4.27979C3.32646 12.5001 2.94644 12.0401 2.80644 11.7667C2.66644 11.4934 2.51978 10.9201 3.07978 10.1467L5.73977 6.41338C5.8331 6.28005 5.98645 6.20671 6.14645 6.20671H9.8598C10.0198 6.20671 10.1731 6.28671 10.2665 6.41338L12.9265 10.1534C13.4865 10.9201 13.3331 11.4934 13.1931 11.7667C13.0531 12.0401 12.6798 12.5001 11.7265 12.5001ZM6.39978 7.20674L3.88644 10.7334C3.6731 11.0267 3.65312 11.2267 3.69312 11.3134C3.73978 11.4001 3.91312 11.5001 4.27312 11.5001H11.7198C12.0798 11.5001 12.2598 11.4001 12.2998 11.3134C12.3465 11.2267 12.3198 11.0267 12.1065 10.7334L9.59314 7.20007H6.39978V7.20674Z" fill="currentColor"/>
<path d="M8 15.1667C7.72667 15.1667 7.5 14.94 7.5 14.6667V12C7.5 11.7267 7.72667 11.5 8 11.5C8.27334 11.5 8.5 11.7267 8.5 12V14.6667C8.5 14.94 8.27334 15.1667 8 15.1667Z" fill="currentColor"/>
</svg>
