<svg width="16" height="16" viewBox="0 0 16 16" fill="none" xmlns="http://www.w3.org/2000/svg">
<g clip-path="url(#clip0_2_4987)">
<path d="M11.0001 10.1666C10.8735 10.1666 10.7468 10.1199 10.6468 10.0199L8.28014 7.65326L7.55347 8.74659C7.47347 8.87326 7.33347 8.95326 7.1868 8.96659C7.03347 8.97993 6.8868 8.92659 6.7868 8.81993L4.65347 6.68659C4.46014 6.49329 4.46014 6.17329 4.65347 5.97996C4.8468 5.78662 5.1668 5.78662 5.36014 5.97996L7.06014 7.67993L7.7868 6.58662C7.8668 6.46662 8.00014 6.38662 8.15347 6.36662C8.3068 6.35329 8.45347 6.40662 8.55347 6.51329L11.3535 9.31326C11.5468 9.50659 11.5468 9.82659 11.3535 10.0199C11.2535 10.1199 11.1268 10.1666 11.0001 10.1666Z" fill="currentColor"/>
<path d="M11.0001 10.1666L9.66667 10.1667C9.39334 10.1667 9.16667 9.93999 9.16667 9.66666C9.16667 9.39333 9.39334 9.16666 9.66667 9.16666H10.5V8.33333C10.5 8.05999 10.7267 7.83333 11 7.83333C11.2733 7.83333 11.5 8.05999 11.5 8.33333V9.66666C11.5 9.93999 11.2735 10.1666 11.0001 10.1666Z" fill="currentColor"/>
<path d="M10 15.1667H6C2.38 15.1667 0.833336 13.62 0.833336 9.99999V5.99999C0.833336 2.37999 2.38 0.833328 6 0.833328H10C13.62 0.833328 15.1667 2.37999 15.1667 5.99999V9.99999C15.1667 13.62 13.62 15.1667 10 15.1667ZM6 1.83333C2.92667 1.83333 1.83334 2.92666 1.83334 5.99999V9.99999C1.83334 13.0733 2.92667 14.1667 6 14.1667H10C13.0733 14.1667 14.1667 13.0733 14.1667 9.99999V5.99999C14.1667 2.92666 13.0733 1.83333 10 1.83333H6Z" fill="currentColor"/>
</g>
<defs>
<clipPath id="clip0_2_4987">
<rect width="16" height="16" fill="currentColor"/>
</clipPath>
</defs>
</svg>
