<svg width="16" height="16" viewBox="0 0 16 16" fill="none" xmlns="http://www.w3.org/2000/svg">
<g clip-path="url(#clip0_2_4568)">
<path d="M5.00029 10.1666C4.87362 10.1666 4.74696 10.1199 4.64696 10.0199C4.45362 9.82659 4.45362 9.50659 4.64696 9.31326L6.78027 7.17993C6.88694 7.07326 7.02694 7.01993 7.18027 7.03326C7.32694 7.04659 7.46027 7.12659 7.54694 7.25326L8.2736 8.34659L10.6403 5.97996C10.8336 5.78662 11.1536 5.78662 11.3469 5.97996C11.5403 6.17329 11.5403 6.49329 11.3469 6.68659L8.54694 9.48659C8.44027 9.59326 8.30027 9.64659 8.14694 9.63326C8.00027 9.61993 7.86694 9.53993 7.78027 9.41326L7.0536 8.31993L5.35362 10.0199C5.25362 10.1199 5.12696 10.1666 5.00029 10.1666Z" fill="currentColor"/>
<path d="M11 8.16666C10.7267 8.16666 10.5 7.93999 10.5 7.66666V6.83333H9.66667C9.39334 6.83333 9.16667 6.60666 9.16667 6.33333C9.16667 6.05999 9.39334 5.83333 9.66667 5.83333H11C11.2733 5.83333 11.5 6.05999 11.5 6.33333V7.66666C11.5 7.93999 11.2733 8.16666 11 8.16666Z" fill="currentColor"/>
<path d="M10 15.1667H6C2.38 15.1667 0.833336 13.62 0.833336 9.99999V5.99999C0.833336 2.37999 2.38 0.833328 6 0.833328H10C13.62 0.833328 15.1667 2.37999 15.1667 5.99999V9.99999C15.1667 13.62 13.62 15.1667 10 15.1667ZM6 1.83333C2.92667 1.83333 1.83334 2.92666 1.83334 5.99999V9.99999C1.83334 13.0733 2.92667 14.1667 6 14.1667H10C13.0733 14.1667 14.1667 13.0733 14.1667 9.99999V5.99999C14.1667 2.92666 13.0733 1.83333 10 1.83333H6Z" fill="currentColor"/>
</g>
<defs>
<clipPath id="clip0_2_4568">
<rect width="16" height="16" fill="currentColor"/>
</clipPath>
</defs>
</svg>
