<svg width="16" height="16" viewBox="0 0 16 16" fill="none" xmlns="http://www.w3.org/2000/svg">
<path d="M12.0403 14.7734H3.96031C2.66031 14.7734 1.66697 14.3001 1.16031 13.4467C0.66031 12.5934 0.726974 11.4934 1.36031 10.3601L5.40031 3.08673C6.06697 1.88673 6.987 1.22673 8.00033 1.22673C9.01367 1.22673 9.93367 1.88673 10.6003 3.08673L14.6403 10.3601C15.2737 11.5001 15.347 12.5934 14.8403 13.4467C14.3337 14.3001 13.3403 14.7734 12.0403 14.7734ZM8.00033 2.22673C7.37367 2.22673 6.76033 2.70673 6.27364 3.5734L2.24031 10.8467C1.78697 11.6601 1.71364 12.4067 2.02697 12.9467C2.34031 13.4801 3.03364 13.7801 3.96697 13.7801H12.047C12.9803 13.7801 13.667 13.4867 13.987 12.9467C14.3003 12.4067 14.227 11.6667 13.7737 10.8467L9.727 3.5734C9.24033 2.70673 8.627 2.22673 8.00033 2.22673Z" fill="currentColor"/>
<path d="M14.2939 13.8333C14.1939 13.8333 14.0939 13.8067 14.0072 13.74L8.00053 9.53334L1.99389 13.74C1.76723 13.9 1.45389 13.8467 1.30056 13.62C1.14056 13.3933 1.19389 13.08 1.42056 12.9267L7.71387 8.52C7.8872 8.4 8.11387 8.4 8.2872 8.52L14.5805 12.9267C14.8072 13.0867 14.8605 13.4 14.7005 13.62C14.6072 13.76 14.4539 13.8333 14.2939 13.8333Z" fill="currentColor"/>
<path d="M8 9.42667C7.72667 9.42667 7.5 9.2 7.5 8.92667V2C7.5 1.72667 7.72667 1.5 8 1.5C8.27333 1.5 8.5 1.72667 8.5 2V8.92667C8.5 9.2 8.27333 9.42667 8 9.42667Z" fill="currentColor"/>
</svg>
