<svg width="16" height="16" viewBox="0 0 16 16" fill="none" xmlns="http://www.w3.org/2000/svg">
<g clip-path="url(#clip0_2_5314)">
<path d="M8.66653 9.83333H7.99987C7.72653 9.83333 7.49987 9.60666 7.49987 9.33333C7.49987 9.05999 7.72653 8.83333 7.99987 8.83333H8.66653C9.12653 8.83333 9.49987 8.45999 9.49987 7.99999V1.83333H3.99985C3.21319 1.83333 2.49317 2.25998 2.1065 2.94665C1.97317 3.18665 1.66653 3.27334 1.42653 3.14001C1.18653 3.00667 1.09983 2.69999 1.23317 2.45999C1.79317 1.45999 2.85319 0.833328 3.99985 0.833328H9.99987C10.2732 0.833328 10.4999 1.05999 10.4999 1.33333V7.99999C10.4999 9.01333 9.67987 9.83333 8.66653 9.83333Z" fill="currentColor"/>
<path d="M12.6667 13.8333H12C11.7267 13.8333 11.5 13.6067 11.5 13.3333C11.5 12.8733 11.1267 12.5 10.6667 12.5C10.2067 12.5 9.83333 12.8733 9.83333 13.3333C9.83333 13.6067 9.60667 13.8333 9.33333 13.8333H6.66667C6.39333 13.8333 6.16667 13.6067 6.16667 13.3333C6.16667 12.8733 5.79333 12.5 5.33333 12.5C4.87333 12.5 4.5 12.8733 4.5 13.3333C4.5 13.6067 4.27333 13.8333 4 13.8333H3.33333C1.95333 13.8333 0.833334 12.7133 0.833334 11.3333C0.833334 11.06 1.06 10.8333 1.33333 10.8333C1.60667 10.8333 1.83333 11.06 1.83333 11.3333C1.83333 12.16 2.50667 12.8333 3.33333 12.8333H3.56665C3.78665 12.0667 4.49333 11.5 5.33333 11.5C6.17333 11.5 6.88 12.0667 7.1 12.8333H8.90667C9.12667 12.0667 9.83333 11.5 10.6733 11.5C11.5133 11.5 12.22 12.0667 12.44 12.8333H12.6667C13.4933 12.8333 14.1667 12.16 14.1667 11.3333V9.83333H12.6667C12.0267 9.83333 11.5 9.30666 11.5 8.66666V6.66666C11.5 6.02666 12.02 5.49999 12.6667 5.49999L11.9533 4.25333C11.8067 3.99333 11.5267 3.83333 11.2267 3.83333H10.5L10.4999 7.99999C10.4999 9.01333 9.67987 9.83333 8.66653 9.83333H7.99987C7.72653 9.83333 7.49987 9.60666 7.49987 9.33333C7.49987 9.05999 7.72653 8.83333 7.99987 8.83333H8.66653C9.12653 8.83333 9.49987 8.45999 9.49987 7.99999L9.5 3.33333C9.5 3.05999 9.72667 2.83333 10 2.83333H11.2267C11.8867 2.83333 12.4933 3.18667 12.82 3.76L13.96 5.75333C14.0467 5.90666 14.0467 6.09999 13.96 6.25333C13.8733 6.40666 13.7067 6.49999 13.5267 6.49999H12.6667C12.5733 6.49999 12.5 6.57333 12.5 6.66666V8.66666C12.5 8.75999 12.5733 8.83333 12.6667 8.83333H14.6667C14.94 8.83333 15.1667 9.05999 15.1667 9.33333V11.3333C15.1667 12.7133 14.0467 13.8333 12.6667 13.8333Z" fill="currentColor"/>
<path d="M5.33333 15.1667C4.32 15.1667 3.5 14.3467 3.5 13.3333C3.5 12.32 4.32 11.5 5.33333 11.5C6.34667 11.5 7.16667 12.32 7.16667 13.3333C7.16667 14.3467 6.34667 15.1667 5.33333 15.1667ZM5.33333 12.5C4.87333 12.5 4.5 12.8733 4.5 13.3333C4.5 13.7933 4.87333 14.1667 5.33333 14.1667C5.79333 14.1667 6.16667 13.7933 6.16667 13.3333C6.16667 12.8733 5.79333 12.5 5.33333 12.5Z" fill="currentColor"/>
<path d="M10.6667 15.1667C9.65333 15.1667 8.83333 14.3467 8.83333 13.3333C8.83333 12.32 9.65333 11.5 10.6667 11.5C11.68 11.5 12.5 12.32 12.5 13.3333C12.5 14.3467 11.68 15.1667 10.6667 15.1667ZM10.6667 12.5C10.2067 12.5 9.83333 12.8733 9.83333 13.3333C9.83333 13.7933 10.2067 14.1667 10.6667 14.1667C11.1267 14.1667 11.5 13.7933 11.5 13.3333C11.5 12.8733 11.1267 12.5 10.6667 12.5Z" fill="currentColor"/>
<path d="M14.6667 9.83333H12.6667C12.0267 9.83333 11.5 9.30666 11.5 8.66666V6.66666C11.5 6.02666 12.0267 5.49999 12.6667 5.49999H13.5267C13.7067 5.49999 13.8733 5.59333 13.96 5.75333L15.1 7.75333C15.14 7.82666 15.1667 7.91333 15.1667 7.99999V9.33333C15.1667 9.60666 14.94 9.83333 14.6667 9.83333ZM12.6667 6.49999C12.5733 6.49999 12.5 6.57333 12.5 6.66666V8.66666C12.5 8.75999 12.5733 8.83333 12.6667 8.83333H14.1667V8.13333L13.2333 6.49999H12.6667Z" fill="currentColor"/>
<path d="M5.33333 5.83333H1.33333C1.06 5.83333 0.833334 5.60666 0.833334 5.33333C0.833334 5.05999 1.06 4.83333 1.33333 4.83333H5.33333C5.60667 4.83333 5.83333 5.05999 5.83333 5.33333C5.83333 5.60666 5.60667 5.83333 5.33333 5.83333Z" fill="currentColor"/>
<path d="M4 7.83333H1.33333C1.06 7.83333 0.833334 7.60666 0.833334 7.33333C0.833334 7.05999 1.06 6.83333 1.33333 6.83333H4C4.27333 6.83333 4.5 7.05999 4.5 7.33333C4.5 7.60666 4.27333 7.83333 4 7.83333Z" fill="currentColor"/>
<path d="M2.66667 9.83333H1.33333C1.06 9.83333 0.833334 9.60666 0.833334 9.33333C0.833334 9.05999 1.06 8.83333 1.33333 8.83333H2.66667C2.94 8.83333 3.16667 9.05999 3.16667 9.33333C3.16667 9.60666 2.94 9.83333 2.66667 9.83333Z" fill="currentColor"/>
</g>
<defs>
<clipPath id="clip0_2_5314">
<rect width="16" height="16" fill="currentColor"/>
</clipPath>
</defs>
</svg>
