<svg width="16" height="16" viewBox="0 0 16 16" fill="none" xmlns="http://www.w3.org/2000/svg">
<g clip-path="url(#clip0_2_5035)">
<path d="M8.66667 9.83334H1.33334C1.06001 9.83334 0.833338 9.60667 0.833338 9.33334V5.08001C0.833338 4.86666 0.966665 4.67999 1.16 4.60665C1.36 4.53332 1.58001 4.59335 1.71335 4.75334C2.12001 5.24001 2.75335 5.51333 3.38001 5.49333C3.91335 5.48 4.40666 5.28001 4.77999 4.92668C4.95333 4.78001 5.09333 4.60667 5.2 4.41334C5.40667 4.06 5.50667 3.67333 5.50001 3.27999C5.48667 2.66666 5.22002 2.10667 4.76669 1.7C4.60669 1.56 4.55334 1.33999 4.62667 1.14665C4.70001 0.953318 4.88668 0.819992 5.09335 0.819992H10C10.2733 0.819992 10.5 1.04666 10.5 1.31999V7.98667C10.5 9.01334 9.68001 9.83334 8.66667 9.83334ZM1.83334 8.83334H8.66667C9.12667 8.83334 9.50001 8.46 9.50001 8.00001V1.83334H6.12667C6.36001 2.26667 6.48667 2.75335 6.50001 3.26001C6.51334 3.84001 6.36666 4.41334 6.07333 4.91334C5.91333 5.2 5.69333 5.47334 5.45333 5.67335C4.92 6.18001 4.18667 6.48001 3.40667 6.50001C2.85333 6.52001 2.30668 6.38 1.84001 6.12667V8.83334H1.83334Z" fill="currentColor"/>
<path d="M12.6667 13.8333H12C11.7267 13.8333 11.5 13.6067 11.5 13.3333C11.5 12.8733 11.1267 12.5 10.6667 12.5C10.2067 12.5 9.83334 12.8733 9.83334 13.3333C9.83334 13.6067 9.60667 13.8333 9.33334 13.8333H6.66667C6.39334 13.8333 6.16667 13.6067 6.16667 13.3333C6.16667 12.8733 5.79334 12.5 5.33334 12.5C4.87334 12.5 4.50001 12.8733 4.50001 13.3333C4.50001 13.6067 4.27334 13.8333 4.00001 13.8333H3.33334C1.95334 13.8333 0.833338 12.7133 0.833338 11.3333V9.33334C0.833338 9.06001 1.06001 8.83334 1.33334 8.83334H8.66667C9.12667 8.83334 9.50001 8.46 9.50001 8.00001V3.33334C9.50001 3.06001 9.72667 2.83334 10 2.83334H11.2267C11.8867 2.83334 12.4933 3.18668 12.82 3.76001L13.96 5.75334C14.0467 5.90667 14.0467 6.10001 13.96 6.25334C13.8733 6.40667 13.7067 6.50001 13.5267 6.50001H12.6667C12.5733 6.50001 12.5 6.57334 12.5 6.66667V8.66667C12.5 8.76001 12.5733 8.83334 12.6667 8.83334H14.6667C14.94 8.83334 15.1667 9.06001 15.1667 9.33334V11.3333C15.1667 12.7133 14.0467 13.8333 12.6667 13.8333ZM12.4333 12.8333H12.6667C13.4933 12.8333 14.1667 12.16 14.1667 11.3333V9.83334H12.6667C12.0267 9.83334 11.5 9.30667 11.5 8.66667V6.66667C11.5 6.02667 12.02 5.50001 12.6667 5.50001L11.9533 4.25334C11.8067 3.99334 11.5267 3.83334 11.2267 3.83334H10.5V8.00001C10.5 9.01334 9.68001 9.83334 8.66667 9.83334H1.83334V11.3333C1.83334 12.16 2.50667 12.8333 3.33334 12.8333H3.56666C3.78666 12.0667 4.49334 11.5 5.33334 11.5C6.17334 11.5 6.88 12.0667 7.10001 12.8333H8.90667C9.12667 12.0667 9.83334 11.5 10.6733 11.5C11.5133 11.5 12.2133 12.0667 12.4333 12.8333Z" fill="currentColor"/>
<path d="M5.33334 15.1667C4.32001 15.1667 3.50001 14.3467 3.50001 13.3333C3.50001 12.32 4.32001 11.5 5.33334 11.5C6.34667 11.5 7.16667 12.32 7.16667 13.3333C7.16667 14.3467 6.34667 15.1667 5.33334 15.1667ZM5.33334 12.5C4.87334 12.5 4.50001 12.8733 4.50001 13.3333C4.50001 13.7933 4.87334 14.1667 5.33334 14.1667C5.79334 14.1667 6.16667 13.7933 6.16667 13.3333C6.16667 12.8733 5.79334 12.5 5.33334 12.5Z" fill="currentColor"/>
<path d="M10.6667 15.1667C9.65334 15.1667 8.83334 14.3467 8.83334 13.3333C8.83334 12.32 9.65334 11.5 10.6667 11.5C11.68 11.5 12.5 12.32 12.5 13.3333C12.5 14.3467 11.68 15.1667 10.6667 15.1667ZM10.6667 12.5C10.2067 12.5 9.83334 12.8733 9.83334 13.3333C9.83334 13.7933 10.2067 14.1667 10.6667 14.1667C11.1267 14.1667 11.5 13.7933 11.5 13.3333C11.5 12.8733 11.1267 12.5 10.6667 12.5Z" fill="currentColor"/>
<path d="M14.6667 9.83334H12.6667C12.0267 9.83334 11.5 9.30667 11.5 8.66667V6.66667C11.5 6.02667 12.0267 5.50001 12.6667 5.50001H13.5267C13.7067 5.50001 13.8733 5.59334 13.96 5.75334L15.1 7.75334C15.14 7.82667 15.1667 7.91334 15.1667 8.00001V9.33334C15.1667 9.60667 14.94 9.83334 14.6667 9.83334ZM12.6667 6.50001C12.5733 6.50001 12.5 6.57334 12.5 6.66667V8.66667C12.5 8.76001 12.5733 8.83334 12.6667 8.83334H14.1667V8.13334L13.2333 6.50001H12.6667Z" fill="currentColor"/>
<path d="M3.33334 6.50001C1.58667 6.50001 0.166672 5.08001 0.166672 3.33334C0.166672 2.36001 0.600024 1.45999 1.35336 0.859992C1.91336 0.413324 2.62001 0.166672 3.33334 0.166672C5.08001 0.166672 6.50001 1.58667 6.50001 3.33334C6.50001 4.24001 6.10667 5.10667 5.42001 5.70667C4.84001 6.22001 4.10001 6.50001 3.33334 6.50001ZM3.33334 1.16667C2.84001 1.16667 2.37332 1.33332 1.97999 1.64665C1.46665 2.05332 1.16667 2.67334 1.16667 3.33334C1.16667 4.52667 2.14001 5.50001 3.33334 5.50001C3.85334 5.50001 4.36002 5.30667 4.76669 4.96001C5.23335 4.54667 5.50001 3.96001 5.50001 3.33334C5.50001 2.14001 4.52667 1.16667 3.33334 1.16667Z" fill="currentColor"/>
<path d="M2.6666 4.50001C2.49993 4.50001 2.33326 4.41335 2.23993 4.26001C2.09993 4.02001 2.17327 3.71333 2.41327 3.57333L3.00661 3.22002V2.50001C3.00661 2.22667 3.23327 2.00001 3.50661 2.00001C3.77994 2.00001 4.00661 2.22667 4.00661 2.50001V3.50001C4.00661 3.67334 3.91329 3.84001 3.76662 3.92668L2.93329 4.42668C2.83995 4.48001 2.75327 4.50001 2.6666 4.50001Z" fill="currentColor"/>
</g>
<defs>
<clipPath id="clip0_2_5035">
<rect width="16" height="16" fill="currentColor"/>
</clipPath>
</defs>
</svg>
