<svg width="16" height="16" viewBox="0 0 16 16" fill="none" xmlns="http://www.w3.org/2000/svg">
<g clip-path="url(#clip0_2_4783)">
<path d="M8.66667 9.83334H1.33333C1.06 9.83334 0.833333 9.60667 0.833333 9.33334V5.08001C0.833333 4.86666 0.96666 4.67999 1.15999 4.60665C1.35999 4.53332 1.58001 4.59335 1.71334 4.75334C2.12001 5.24001 2.75334 5.51333 3.38001 5.49333C3.91334 5.48 4.40665 5.28001 4.77999 4.92668C4.95332 4.78001 5.09333 4.60667 5.19999 4.41334C5.40666 4.06 5.50667 3.67333 5.5 3.27999C5.48667 2.66666 5.22001 2.10667 4.76668 1.7C4.60668 1.56 4.55333 1.33999 4.62667 1.14665C4.7 0.953318 4.88667 0.819992 5.09334 0.819992H10C10.2733 0.819992 10.5 1.04666 10.5 1.31999V7.98667C10.5 9.01334 9.68 9.83334 8.66667 9.83334ZM1.83333 8.83334H8.66667C9.12667 8.83334 9.5 8.46 9.5 8.00001V1.83334H6.12667C6.36 2.26667 6.48667 2.75335 6.5 3.26001C6.51333 3.84001 6.36665 4.41334 6.07333 4.91334C5.91333 5.2 5.69333 5.47334 5.45333 5.67335C4.91999 6.18001 4.18666 6.48001 3.40666 6.50001C2.84666 6.52001 2.30667 6.38 1.84001 6.12667V8.83334H1.83333Z" fill="currentColor"/>
<path d="M12.6667 13.8333H12C11.7267 13.8333 11.5 13.6067 11.5 13.3333C11.5 12.8733 11.1267 12.5 10.6667 12.5C10.2067 12.5 9.83333 12.8733 9.83333 13.3333C9.83333 13.6067 9.60667 13.8333 9.33333 13.8333H6.66667C6.39333 13.8333 6.16667 13.6067 6.16667 13.3333C6.16667 12.8733 5.79333 12.5 5.33333 12.5C4.87333 12.5 4.5 12.8733 4.5 13.3333C4.5 13.6067 4.27333 13.8333 4 13.8333H3.33333C1.95333 13.8333 0.833333 12.7133 0.833333 11.3333V9.33334C0.833333 9.06001 1.06 8.83334 1.33333 8.83334H8.66667C9.12667 8.83334 9.5 8.46 9.5 8.00001V3.33334C9.5 3.06001 9.72667 2.83334 10 2.83334H11.2267C11.8867 2.83334 12.4933 3.18668 12.82 3.76001L13.96 5.75334C14.0467 5.90667 14.0467 6.10001 13.96 6.25334C13.8733 6.40667 13.7067 6.50001 13.5267 6.50001H12.6667C12.5733 6.50001 12.5 6.57334 12.5 6.66667V8.66667C12.5 8.76001 12.5733 8.83334 12.6667 8.83334H14.6667C14.94 8.83334 15.1667 9.06001 15.1667 9.33334V11.3333C15.1667 12.7133 14.0467 13.8333 12.6667 13.8333ZM12.4333 12.8333H12.6667C13.4933 12.8333 14.1667 12.16 14.1667 11.3333V9.83334H12.6667C12.0267 9.83334 11.5 9.30667 11.5 8.66667V6.66667C11.5 6.02667 12.02 5.50001 12.6667 5.50001L11.9533 4.25334C11.8067 3.99334 11.5267 3.83334 11.2267 3.83334H10.5V8.00001C10.5 9.01334 9.68 9.83334 8.66667 9.83334H1.83333V11.3333C1.83333 12.16 2.50667 12.8333 3.33333 12.8333H3.56665C3.78665 12.0667 4.49333 11.5 5.33333 11.5C6.17333 11.5 6.88 12.0667 7.1 12.8333H8.90667C9.12667 12.0667 9.83333 11.5 10.6733 11.5C11.5133 11.5 12.2133 12.0667 12.4333 12.8333Z" fill="currentColor"/>
<path d="M5.33333 15.1667C4.32 15.1667 3.5 14.3467 3.5 13.3333C3.5 12.32 4.32 11.5 5.33333 11.5C6.34667 11.5 7.16667 12.32 7.16667 13.3333C7.16667 14.3467 6.34667 15.1667 5.33333 15.1667ZM5.33333 12.5C4.87333 12.5 4.5 12.8733 4.5 13.3333C4.5 13.7933 4.87333 14.1667 5.33333 14.1667C5.79333 14.1667 6.16667 13.7933 6.16667 13.3333C6.16667 12.8733 5.79333 12.5 5.33333 12.5Z" fill="currentColor"/>
<path d="M10.6667 15.1667C9.65333 15.1667 8.83333 14.3467 8.83333 13.3333C8.83333 12.32 9.65333 11.5 10.6667 11.5C11.68 11.5 12.5 12.32 12.5 13.3333C12.5 14.3467 11.68 15.1667 10.6667 15.1667ZM10.6667 12.5C10.2067 12.5 9.83333 12.8733 9.83333 13.3333C9.83333 13.7933 10.2067 14.1667 10.6667 14.1667C11.1267 14.1667 11.5 13.7933 11.5 13.3333C11.5 12.8733 11.1267 12.5 10.6667 12.5Z" fill="currentColor"/>
<path d="M14.6667 9.83334H12.6667C12.0267 9.83334 11.5 9.30667 11.5 8.66667V6.66667C11.5 6.02667 12.0267 5.50001 12.6667 5.50001H13.5267C13.7067 5.50001 13.8733 5.59334 13.96 5.75334L15.1 7.75334C15.14 7.82667 15.1667 7.91334 15.1667 8.00001V9.33334C15.1667 9.60667 14.94 9.83334 14.6667 9.83334ZM12.6667 6.50001C12.5733 6.50001 12.5 6.57334 12.5 6.66667V8.66667C12.5 8.76001 12.5733 8.83334 12.6667 8.83334H14.1667V8.13334L13.2333 6.50001H12.6667Z" fill="currentColor"/>
<path d="M3.32641 6.50001C2.40641 6.50001 1.53975 6.09999 0.95308 5.39999C0.859747 5.29999 0.75976 5.15999 0.673093 5.02666C0.359757 4.55333 0.186423 3.99333 0.17309 3.40667C0.146423 2.43333 0.559765 1.51999 1.30643 0.899992C1.8731 0.433322 2.55307 0.180005 3.27307 0.166672C4.05973 0.173338 4.84643 0.43334 5.4331 0.960005C6.09977 1.54667 6.48643 2.36668 6.50642 3.26001C6.51976 3.84001 6.37308 4.41334 6.07975 4.91334C5.91975 5.2 5.69975 5.47334 5.45975 5.67335C4.92642 6.18001 4.19308 6.48001 3.41308 6.50001C3.37975 6.50001 3.35308 6.50001 3.32641 6.50001ZM3.32641 1.16667C3.31308 1.16667 3.29975 1.16667 3.28641 1.16667C2.79975 1.17334 2.33307 1.35335 1.93973 1.67335C1.43307 2.09335 1.15309 2.72001 1.16642 3.38001C1.17975 3.78001 1.29309 4.16002 1.50643 4.47335C1.56643 4.56669 1.62641 4.65333 1.69974 4.73333C2.12641 5.23999 2.76001 5.50667 3.38001 5.49333C3.91334 5.48 4.40665 5.28001 4.77999 4.92668C4.95332 4.78001 5.09333 4.60667 5.19999 4.41334C5.40666 4.06 5.50667 3.67333 5.5 3.27999C5.48667 2.66666 5.22001 2.10667 4.76668 1.7C4.36668 1.36 3.85975 1.16667 3.32641 1.16667Z" fill="currentColor"/>
<path d="M2.96593 4.49996C2.83927 4.49996 2.71925 4.45327 2.61925 4.35994L1.94591 3.71996C1.74591 3.52663 1.73927 3.21331 1.93261 3.01331C2.12594 2.81331 2.43927 2.80663 2.63927 2.99996L2.96593 3.31327L4.01261 2.29997C4.21261 2.10663 4.52594 2.11327 4.71927 2.31327C4.91261 2.51327 4.90593 2.82665 4.70593 3.01998L3.31257 4.36661C3.21257 4.45328 3.08593 4.49996 2.96593 4.49996Z" fill="currentColor"/>
</g>
<defs>
<clipPath id="clip0_2_4783">
<rect width="16" height="16" fill="currentColor"/>
</clipPath>
</defs>
</svg>
