<svg width="16" height="16" viewBox="0 0 16 16" fill="none" xmlns="http://www.w3.org/2000/svg">
<g clip-path="url(#clip0_2_4565)">
<path d="M9.99999 15.1667H5.99999C2.37999 15.1667 0.833328 13.62 0.833328 9.99999V5.99999C0.833328 2.37999 2.37999 0.833328 5.99999 0.833328H9.99999C13.62 0.833328 15.1667 2.37999 15.1667 5.99999V9.99999C15.1667 13.62 13.62 15.1667 9.99999 15.1667ZM5.99999 1.83333C2.92666 1.83333 1.83333 2.92666 1.83333 5.99999V9.99999C1.83333 13.0733 2.92666 14.1667 5.99999 14.1667H9.99999C13.0733 14.1667 14.1667 13.0733 14.1667 9.99999V5.99999C14.1667 2.92666 13.0733 1.83333 9.99999 1.83333H5.99999Z" fill="currentColor"/>
<path d="M11.9327 6.53333C11.9193 6.53333 11.8993 6.53333 11.886 6.53333C9.57933 6.30666 7.28606 6.21332 5.01269 6.44665L4.11935 6.53333C3.83935 6.55999 3.59936 6.35999 3.57269 6.08666C3.54603 5.81333 3.74602 5.56665 4.01935 5.53999L4.91269 5.45332C7.25266 5.21999 9.61266 5.30665 11.986 5.53999C12.2593 5.56665 12.4593 5.81333 12.4327 6.08666C12.406 6.33999 12.186 6.53333 11.9327 6.53333Z" fill="currentColor"/>
<path d="M9.52633 6.09329C9.28633 6.09329 9.07299 5.91997 9.03299 5.67997L8.93966 5.11329C8.92633 5.01996 8.89966 4.87329 8.87299 4.83996C8.87299 4.83996 8.80633 4.79996 8.56633 4.79996H7.41966C7.17299 4.79996 7.10633 4.83996 7.10633 4.83996C7.09299 4.86663 7.06633 5.0133 7.05299 5.10663L6.95966 5.67997C6.91299 5.9533 6.65299 6.13329 6.38633 6.09329C6.11299 6.04663 5.93299 5.78663 5.97299 5.51996L6.06633 4.94663C6.13966 4.51996 6.25966 3.80663 7.41966 3.80663H8.56633C9.73299 3.80663 9.85299 4.55329 9.91966 4.95329L10.013 5.51996C10.0597 5.79329 9.87299 6.05329 9.60633 6.09329C9.58633 6.09329 9.55299 6.09329 9.52633 6.09329Z" fill="currentColor"/>
<path d="M9.39999 12.2067H6.59333C4.90666 12.2067 4.83332 11.1934 4.78665 10.5201L4.49999 6.11341C4.47999 5.84007 4.69332 5.60007 4.96665 5.58007C5.24665 5.56007 5.47999 5.77342 5.49999 6.04675L5.78665 10.4467C5.83332 11.1001 5.83999 11.2001 6.59333 11.2001H9.39999C10.1533 11.2001 10.16 11.1001 10.2067 10.4467L10.4933 6.04675C10.5133 5.77342 10.74 5.56007 11.0267 5.58007C11.3 5.60007 11.5133 5.83341 11.4933 6.11341L11.2067 10.5134C11.16 11.1934 11.0933 12.2067 9.39999 12.2067Z" fill="currentColor"/>
</g>
<defs>
<clipPath id="clip0_2_4565">
<rect width="16" height="16" fill="currentColor"/>
</clipPath>
</defs>
</svg>
