<svg width="16" height="16" viewBox="0 0 16 16" fill="none" xmlns="http://www.w3.org/2000/svg">
<g clip-path="url(#clip0_1054_11)">
<path d="M11 15.1667H4.99999C2.79999 15.1667 2.49999 13.9667 2.49999 12.6667V6.81334C2.49999 6.53999 2.72666 6.31332 2.99999 6.31332C3.27333 6.31332 3.49999 6.53999 3.49999 6.81334V12.6667C3.49999 13.8267 3.69999 14.1667 4.99999 14.1667H11C12.3 14.1667 12.5 13.8267 12.5 12.6667V6.81334C12.5 6.53999 12.7267 6.31332 13 6.31332C13.2733 6.31332 13.5 6.53999 13.5 6.81334V12.6667C13.5 13.9667 13.2 15.1667 11 15.1667Z" fill="currentColor"/>
<path d="M9.66666 11.1999H6.33333C6.05999 11.1999 5.83333 10.9733 5.83333 10.6999C5.83333 10.4266 6.05999 10.1999 6.33333 10.1999H9.66666C9.93999 10.1999 10.1667 10.4266 10.1667 10.6999C10.1667 10.9733 9.93999 11.1999 9.66666 11.1999Z" fill="currentColor"/>
<path d="M12.6667 7.16668H3.33333C1.71999 7.16668 0.833328 6.28001 0.833328 4.66668V3.33334C0.833328 1.72001 1.71999 0.833344 3.33333 0.833344H12.6667C14.28 0.833344 15.1667 1.72001 15.1667 3.33334V4.66668C15.1667 6.28001 14.28 7.16668 12.6667 7.16668ZM3.33333 1.83334C2.27999 1.83334 1.83333 2.28001 1.83333 3.33334V4.66668C1.83333 5.72001 2.27999 6.16668 3.33333 6.16668H12.6667C13.72 6.16668 14.1667 5.72001 14.1667 4.66668V3.33334C14.1667 2.28001 13.72 1.83334 12.6667 1.83334H3.33333Z" fill="currentColor"/>
</g>
<defs>
<clipPath id="clip0_1054_11">
<rect width="16" height="16" fill="currentColor"/>
</clipPath>
</defs>
</svg>
