<svg width="16" height="16" viewBox="0 0 16 16" fill="none" xmlns="http://www.w3.org/2000/svg">
<path d="M10.0873 12.7067H4.7539C4.48057 12.7067 4.2539 12.4801 4.2539 12.2067C4.2539 11.9334 4.48057 11.7067 4.7539 11.7067H10.0873C11.6473 11.7067 12.9206 10.4334 12.9206 8.8734C12.9206 7.3134 11.6473 6.04004 10.0873 6.04004H2.7539C2.48057 6.04004 2.2539 5.81337 2.2539 5.54004C2.2539 5.26671 2.48057 5.04004 2.7539 5.04004H10.0873C12.2006 5.04004 13.9206 6.76007 13.9206 8.8734C13.9206 10.9867 12.2006 12.7067 10.0873 12.7067Z" fill="currentColor"/>
<path d="M4.28703 7.7066C4.16036 7.7066 4.0337 7.65993 3.9337 7.55994L2.22703 5.85325C2.0337 5.65992 2.0337 5.33992 2.22703 5.14659L3.9337 3.43992C4.12703 3.24659 4.44703 3.24659 4.64036 3.43992C4.8337 3.63326 4.8337 3.95326 4.64036 4.14659L3.28703 5.49992L4.64036 6.85327C4.8337 7.0466 4.8337 7.3666 4.64036 7.55994C4.54703 7.65993 4.4137 7.7066 4.28703 7.7066Z" fill="currentColor"/>
</svg>
