<svg width="16" height="16" viewBox="0 0 16 16" fill="none" xmlns="http://www.w3.org/2000/svg">
<path d="M12.14 11.0867C11.02 11.0867 9.98664 10.56 9.31331 9.63332C9.15331 9.41332 9.19998 9.09999 9.41998 8.93332C9.63998 8.76665 9.95337 8.81999 10.12 9.03999C10.6067 9.69999 11.34 10.08 12.14 10.08C13.5334 10.08 14.6733 8.94665 14.6733 7.54665C14.6733 6.14667 13.54 5.01335 12.14 5.01335C11.1934 5.01335 10.3 5.51999 9.81331 6.32665L8.04664 9.26665C7.37998 10.38 6.16001 11.0667 4.86667 11.0667C2.92001 11.0667 1.33333 9.47999 1.33333 7.53332C1.33333 5.58666 2.92001 4 4.86667 4C5.98667 4 7.02 4.52666 7.69331 5.45333C7.85331 5.67333 7.80664 5.98669 7.58664 6.15336C7.35998 6.31339 7.05334 6.26665 6.88667 6.04667C6.40001 5.38667 5.66668 5.00667 4.86667 5.00667C3.47334 5.00667 2.33333 6.14 2.33333 7.53999C2.33333 8.93999 3.46667 10.0734 4.86667 10.0734C5.81334 10.0734 6.70667 9.56665 7.19331 8.75999L8.95998 5.82003C9.62664 4.70669 10.8467 4.02002 12.14 4.02002C14.0867 4.02002 15.6733 5.60668 15.6733 7.55332C15.6733 9.49999 14.0867 11.0867 12.14 11.0867Z" fill="currentColor"/>
</svg>
