<svg width="16" height="16" viewBox="0 0 16 16" fill="none" xmlns="http://www.w3.org/2000/svg">
<g clip-path="url(#clip0_2_4562)">
<path d="M11.3333 15.1667H4.66668C1.72668 15.1667 0.833344 14.2733 0.833344 11.3333V9.99999C0.833344 7.05999 1.72668 6.16666 4.66668 6.16666H11.3333C14.2733 6.16666 15.1667 7.05999 15.1667 9.99999V11.3333C15.1667 14.2733 14.2733 15.1667 11.3333 15.1667ZM4.66668 7.16666C2.28001 7.16666 1.83334 7.61999 1.83334 9.99999V11.3333C1.83334 13.7133 2.28001 14.1667 4.66668 14.1667H11.3333C13.72 14.1667 14.1667 13.7133 14.1667 11.3333V9.99999C14.1667 7.61999 13.72 7.16666 11.3333 7.16666H4.66668Z" fill="currentColor"/>
<path d="M4.00001 7.16666C3.72668 7.16666 3.50001 6.93999 3.50001 6.66666V5.33333C3.50001 3.39999 3.96668 0.833328 8.00001 0.833328C10.9867 0.833328 12.5 2.11999 12.5 4.66666C12.5 4.93999 12.2733 5.16666 12 5.16666C11.7267 5.16666 11.5 4.93999 11.5 4.66666C11.5 3.34666 11.1 1.83333 8.00001 1.83333C5.09334 1.83333 4.50001 3.23333 4.50001 5.33333V6.66666C4.50001 6.93999 4.27334 7.16666 4.00001 7.16666Z" fill="currentColor"/>
<path d="M8.00001 12.8333C6.80668 12.8333 5.83334 11.86 5.83334 10.6667C5.83334 9.47333 6.80668 8.49999 8.00001 8.49999C9.19334 8.49999 10.1667 9.47333 10.1667 10.6667C10.1667 11.86 9.19334 12.8333 8.00001 12.8333ZM8.00001 9.49999C7.36001 9.49999 6.83334 10.0267 6.83334 10.6667C6.83334 11.3067 7.36001 11.8333 8.00001 11.8333C8.64001 11.8333 9.16668 11.3067 9.16668 10.6667C9.16668 10.0267 8.64001 9.49999 8.00001 9.49999Z" fill="currentColor"/>
</g>
<defs>
<clipPath id="clip0_2_4562">
<rect width="16" height="16" fill="currentColor"/>
</clipPath>
</defs>
</svg>
