<svg width="16" height="16" viewBox="0 0 16 16" fill="none" xmlns="http://www.w3.org/2000/svg">
<path d="M8 8.49999C5.88666 8.49999 4.16666 6.77999 4.16666 4.66666C4.16666 2.55333 5.88666 0.833328 8 0.833328C10.1133 0.833328 11.8333 2.55333 11.8333 4.66666C11.8333 6.77999 10.1133 8.49999 8 8.49999ZM8 1.83333C6.44 1.83333 5.16666 3.10666 5.16666 4.66666C5.16666 6.22666 6.44 7.49999 8 7.49999C9.56 7.49999 10.8333 6.22666 10.8333 4.66666C10.8333 3.10666 9.56 1.83333 8 1.83333Z" fill="currentColor"/>
<path d="M10.5464 15.1666C10.2931 15.1666 10.0531 15.0733 9.87973 14.8999C9.67306 14.6933 9.57973 14.3933 9.6264 14.0799L9.75306 13.1799C9.7864 12.9466 9.9264 12.6733 10.0931 12.4999L12.4531 10.1399C13.3997 9.19326 14.2331 9.73326 14.6397 10.1399C14.9864 10.4866 15.1664 10.8599 15.1664 11.2333C15.1664 11.6133 14.9931 11.9666 14.6397 12.3199L12.2797 14.6799C12.113 14.8466 11.8331 14.9866 11.5997 15.0199L10.6997 15.1465C10.6463 15.1599 10.5997 15.1666 10.5464 15.1666ZM13.5397 10.6133C13.4197 10.6133 13.3131 10.6933 13.1597 10.8466L10.7997 13.2066C10.7797 13.2266 10.7464 13.2933 10.7464 13.3199L10.6264 14.1533L11.4597 14.0333C11.4864 14.0266 11.553 13.9933 11.573 13.9733L13.9331 11.6133C14.0397 11.5066 14.1664 11.3533 14.1664 11.2333C14.1664 11.1333 14.0864 10.9933 13.9331 10.8466C13.7731 10.6866 13.6531 10.6133 13.5397 10.6133Z" fill="currentColor"/>
<path d="M13.9471 12.8132C13.9004 12.8132 13.8537 12.8066 13.8137 12.7933C12.9337 12.5466 12.2337 11.8466 11.9871 10.9666C11.9137 10.6999 12.0671 10.4266 12.3337 10.3533C12.6004 10.2799 12.8737 10.4333 12.9471 10.6999C13.1004 11.2466 13.5337 11.6799 14.0804 11.8333C14.3471 11.9066 14.5004 12.1866 14.4271 12.4466C14.3671 12.6666 14.1671 12.8132 13.9471 12.8132Z" fill="currentColor"/>
<path d="M2.27344 15.1667C2.0001 15.1667 1.77344 14.94 1.77344 14.6667C1.77344 11.82 4.56678 9.49999 8.00013 9.49999C8.7268 9.49999 9.4468 9.60666 10.1201 9.80666C10.3868 9.88666 10.5335 10.1667 10.4535 10.4267C10.3735 10.6933 10.0935 10.84 9.83346 10.76C9.2468 10.5867 8.63346 10.4933 8.00013 10.4933C5.12012 10.4933 2.77344 12.36 2.77344 14.66C2.77344 14.94 2.54677 15.1667 2.27344 15.1667Z" fill="currentColor"/>
</svg>
