<svg width="16" height="16" viewBox="0 0 16 16" fill="none" xmlns="http://www.w3.org/2000/svg">
<path d="M8.00012 15.1667C7.55345 15.1667 7.10012 15.0534 6.70012 14.8201L2.74009 12.5334C1.94009 12.0667 1.44009 11.2067 1.44009 10.2801V5.72007C1.44009 4.7934 1.94009 3.9334 2.74009 3.46674L6.70012 1.18008C7.50012 0.713411 8.49345 0.713411 9.30012 1.18008L13.2601 3.46674C14.0601 3.9334 14.5601 4.7934 14.5601 5.72007V10.2801C14.5601 11.2067 14.0601 12.0667 13.2601 12.5334L9.30012 14.8201C8.90012 15.0534 8.44679 15.1667 8.00012 15.1667ZM8.00012 1.8334C7.72679 1.8334 7.44679 1.90673 7.20012 2.04673L3.24009 4.3334C2.74676 4.62006 2.44009 5.14674 2.44009 5.72007V10.2801C2.44009 10.8467 2.74676 11.3801 3.24009 11.6667L7.20012 13.9534C7.69345 14.2401 8.30679 14.2401 8.80012 13.9534L12.7601 11.6667C13.2535 11.3801 13.5601 10.8534 13.5601 10.2801V5.72007C13.5601 5.1534 13.2535 4.62006 12.7601 4.3334L8.80012 2.04673C8.55345 1.90673 8.27345 1.8334 8.00012 1.8334Z" fill="currentColor"/>
<path d="M7.99992 7.8334C6.86659 7.8334 5.9466 6.91333 5.9466 5.78003C5.9466 4.64669 6.86659 3.72672 7.99992 3.72672C9.13325 3.72672 10.0533 4.64669 10.0533 5.78003C10.0533 6.91333 9.13325 7.8334 7.99992 7.8334ZM7.99992 4.72672C7.41992 4.72672 6.94659 5.20003 6.94659 5.78003C6.94659 6.36002 7.41992 6.8334 7.99992 6.8334C8.57992 6.8334 9.05325 6.36002 9.05325 5.78003C9.05325 5.20003 8.57992 4.72672 7.99992 4.72672Z" fill="currentColor"/>
<path d="M10.6667 11.6067C10.3933 11.6067 10.1667 11.3801 10.1667 11.1067C10.1667 10.1867 9.19332 9.4334 7.99999 9.4334C6.80665 9.4334 5.83332 10.1867 5.83332 11.1067C5.83332 11.3801 5.60665 11.6067 5.33332 11.6067C5.05999 11.6067 4.83332 11.3801 4.83332 11.1067C4.83332 9.6334 6.25332 8.4334 7.99999 8.4334C9.74665 8.4334 11.1667 9.6334 11.1667 11.1067C11.1667 11.3801 10.94 11.6067 10.6667 11.6067Z" fill="currentColor"/>
</svg>
