<svg width="16" height="16" viewBox="0 0 16 16" fill="none" xmlns="http://www.w3.org/2000/svg">
<g clip-path="url(#clip0_2_4559)">
<path d="M7.64028 9.65327C6.3336 9.65327 5.26694 8.58661 5.26694 7.27994C5.26694 5.97325 6.3336 4.90658 7.64028 4.90658C8.94694 4.90658 10.0136 5.97325 10.0136 7.27994C10.0136 8.58661 8.94694 9.65327 7.64028 9.65327ZM7.64028 5.91325C6.88694 5.91325 6.26694 6.52659 6.26694 7.28661C6.26694 8.04661 6.88028 8.65994 7.64028 8.65994C8.40028 8.65994 9.01361 8.04661 9.01361 7.28661C9.01361 6.52659 8.40028 5.91325 7.64028 5.91325Z" fill="currentColor"/>
<path d="M11.0997 13.9667C10.8263 13.9667 10.5997 13.74 10.5997 13.4667C10.5997 12.1867 9.27301 11.1467 7.63968 11.1467C6.00636 11.1467 4.6797 12.1867 4.6797 13.4667C4.6797 13.74 4.45303 13.9667 4.1797 13.9667C3.90636 13.9667 3.6797 13.74 3.6797 13.4667C3.6797 11.64 5.45303 10.1467 7.63968 10.1467C9.82634 10.1467 11.5997 11.6333 11.5997 13.4667C11.5997 13.74 11.373 13.9667 11.0997 13.9667Z" fill="currentColor"/>
<path d="M7.66668 15.1667C3.90001 15.1667 0.833344 12.1 0.833344 8.33334C0.833344 4.56667 3.90001 1.50001 7.66668 1.50001C8.59334 1.50001 9.48668 1.68 10.3267 2.03333C10.5667 2.13333 10.6867 2.39999 10.6067 2.64665C10.5333 2.86665 10.5 3.10001 10.5 3.33334C10.5 3.72667 10.6067 4.11333 10.8133 4.44666C10.92 4.63333 11.06 4.79998 11.22 4.93999C11.8 5.46665 12.66 5.63336 13.3333 5.39336C13.58 5.30002 13.86 5.42668 13.96 5.67335C14.32 6.52001 14.5 7.42001 14.5 8.34001C14.5 12.1 11.4333 15.1667 7.66668 15.1667ZM7.66668 2.50001C4.45334 2.50001 1.83334 5.11334 1.83334 8.33334C1.83334 11.5533 4.45334 14.1667 7.66668 14.1667C10.88 14.1667 13.5 11.5533 13.5 8.33334C13.5 7.69334 13.3933 7.06001 13.1933 6.45333C12.2733 6.61333 11.2667 6.32668 10.56 5.68002C10.3267 5.48002 10.12 5.23334 9.96001 4.96001C9.66668 4.48001 9.50668 3.91334 9.50668 3.33334C9.50668 3.15334 9.52001 2.98002 9.55334 2.80669C8.94668 2.60002 8.31334 2.50001 7.66668 2.50001Z" fill="currentColor"/>
<path d="M12.6667 6.50001C11.88 6.50001 11.1333 6.20669 10.5533 5.68002C10.32 5.48002 10.1133 5.23334 9.95334 4.96001C9.66001 4.48001 9.50001 3.91334 9.50001 3.33334C9.50001 2.99334 9.55334 2.66001 9.66001 2.34001C9.80668 1.88668 10.06 1.46667 10.4 1.12667C11 0.51334 11.8067 0.166672 12.6733 0.166672C13.58 0.166672 14.44 0.55335 15.0267 1.22002C15.5467 1.80002 15.84 2.54667 15.84 3.33334C15.84 3.58667 15.8067 3.84 15.74 4.08001C15.6733 4.38 15.5467 4.69335 15.3733 4.96668C14.9867 5.62001 14.3733 6.10667 13.6533 6.33334C13.3533 6.44667 13.02 6.50001 12.6667 6.50001ZM12.6667 1.16667C12.0733 1.16667 11.52 1.39999 11.1133 1.81999C10.88 2.05999 10.7133 2.33332 10.6133 2.64665C10.54 2.86665 10.5067 3.10001 10.5067 3.33334C10.5067 3.72667 10.6133 4.11333 10.82 4.44666C10.9267 4.63333 11.0667 4.79998 11.2267 4.93999C11.8067 5.46665 12.6667 5.63336 13.34 5.39336C13.8467 5.23336 14.26 4.9 14.5267 4.45333C14.6467 4.26 14.7267 4.05335 14.7733 3.84669C14.82 3.67335 14.84 3.50667 14.84 3.33334C14.84 2.80001 14.64 2.28668 14.28 1.88669C13.8733 1.42669 13.2867 1.16667 12.6667 1.16667Z" fill="currentColor"/>
<path d="M13.66 3.81999H11.6667C11.3933 3.81999 11.1667 3.59333 11.1667 3.31999C11.1667 3.04666 11.3933 2.81999 11.6667 2.81999H13.66C13.9333 2.81999 14.16 3.04666 14.16 3.31999C14.16 3.59333 13.94 3.81999 13.66 3.81999Z" fill="currentColor"/>
<path d="M12.6667 4.84001C12.3933 4.84001 12.1667 4.61335 12.1667 4.34001V2.34669C12.1667 2.07335 12.3933 1.84669 12.6667 1.84669C12.94 1.84669 13.1667 2.07335 13.1667 2.34669V4.34001C13.1667 4.62001 12.94 4.84001 12.6667 4.84001Z" fill="currentColor"/>
</g>
<defs>
<clipPath id="clip0_2_4559">
<rect width="16" height="16" fill="currentColor"/>
</clipPath>
</defs>
</svg>
