<svg width="16" height="16" viewBox="0 0 16 16" fill="none" xmlns="http://www.w3.org/2000/svg">
<path d="M8 8.53332C5.86667 8.53332 4.13334 6.79999 4.13334 4.66665C4.13334 2.53332 5.86667 0.799988 8 0.799988C10.1333 0.799988 11.8667 2.53332 11.8667 4.66665C11.8667 6.79999 10.1333 8.53332 8 8.53332ZM8 1.86665C6.46667 1.86665 5.2 3.13332 5.2 4.66665C5.2 6.19999 6.46667 7.46665 8 7.46665C9.53334 7.46665 10.8 6.19999 10.8 4.66665C10.8 3.13332 9.53334 1.86665 8 1.86665Z" fill="currentColor"/>
<path d="M2.26667 15.2C2 15.2 1.73334 15 1.73334 14.6667C1.73334 11.8 4.53334 9.46665 7.93334 9.46665C8.2 9.46665 8.46667 9.66665 8.46667 9.99999C8.46667 10.3333 8.26667 10.5333 7.93334 10.5333C5.06667 10.5333 2.73334 12.4 2.73334 14.6667C2.8 14.9333 2.53334 15.2 2.26667 15.2Z" fill="currentColor"/>
<path d="M11.1333 10V14.6667C11.1333 14.9333 10.9333 15.2 10.6 15.2C10.2667 15.2 10.0667 15 10.0667 14.6667V10C10.0667 9.73333 10.2667 9.46666 10.6 9.46666C10.9333 9.46666 11.1333 9.73333 11.1333 10Z" fill="currentColor"/>
<path d="M11 9.66666C11.2 9.86666 11.2 10.2 11 10.4L9.53334 11.8667C9.33334 12.0667 9.00001 12.0667 8.80001 11.8667C8.60001 11.6667 8.60001 11.3333 8.80001 11.1333L10.2667 9.66666C10.4667 9.46666 10.8 9.46666 11 9.66666Z" fill="currentColor"/>
<path d="M11.7333 14.6667V9.99999C11.7333 9.73332 11.9333 9.46665 12.2667 9.46665C12.6 9.46665 12.8 9.66665 12.8 9.99999V14.6667C12.8 14.9333 12.6 15.2 12.2667 15.2C11.9333 15.2 11.7333 14.9333 11.7333 14.6667Z" fill="currentColor"/>
<path d="M11.8667 15C11.6667 14.8 11.6667 14.4667 11.8667 14.2667L13.3333 12.8C13.5333 12.6 13.8667 12.6 14.0667 12.8C14.2667 13 14.2667 13.3333 14.0667 13.5333L12.6 15C12.4 15.2 12.0667 15.2 11.8667 15Z" fill="currentColor"/>
</svg>
