<svg width="16" height="16" viewBox="0 0 16 16" fill="none" xmlns="http://www.w3.org/2000/svg">
<path d="M8 8.49999C5.88666 8.49999 4.16666 6.77999 4.16666 4.66666C4.16666 2.55333 5.88666 0.833328 8 0.833328C10.1133 0.833328 11.8333 2.55333 11.8333 4.66666C11.8333 6.77999 10.1133 8.49999 8 8.49999ZM8 1.83333C6.44 1.83333 5.16666 3.10666 5.16666 4.66666C5.16666 6.22666 6.44 7.49999 8 7.49999C9.56 7.49999 10.8333 6.22666 10.8333 4.66666C10.8333 3.10666 9.56 1.83333 8 1.83333Z" fill="currentColor"/>
<path d="M2.27344 15.1667C2.0001 15.1667 1.77344 14.94 1.77344 14.6667C1.77344 11.82 4.56678 9.49999 8.00013 9.49999C8.27346 9.49999 8.50013 9.72666 8.50013 9.99999C8.50013 10.2733 8.27346 10.5 8.00013 10.5C5.12012 10.5 2.77344 12.3667 2.77344 14.6667C2.77344 14.94 2.54677 15.1667 2.27344 15.1667Z" fill="currentColor"/>
<path d="M12.1333 14.7667C10.68 14.7667 9.5 13.5867 9.5 12.1333C9.5 10.68 10.68 9.49999 12.1333 9.49999C13.5867 9.49999 14.7667 10.68 14.7667 12.1333C14.7667 13.5867 13.5867 14.7667 12.1333 14.7667ZM12.1333 10.5C11.2333 10.5 10.5 11.2333 10.5 12.1333C10.5 13.0333 11.2333 13.7667 12.1333 13.7667C13.0333 13.7667 13.7667 13.0333 13.7667 12.1333C13.7667 11.2333 13.0333 10.5 12.1333 10.5Z" fill="currentColor"/>
<path d="M14.6663 15.1667C14.5397 15.1667 14.413 15.12 14.313 15.02L13.6463 14.3533C13.453 14.16 13.453 13.8399 13.6463 13.6466C13.8397 13.4533 14.1597 13.4533 14.353 13.6466L15.0197 14.3133C15.213 14.5066 15.213 14.8267 15.0197 15.02C14.9197 15.12 14.793 15.1667 14.6663 15.1667Z" fill="currentColor"/>
</svg>
