<svg width="16" height="16" viewBox="0 0 16 16" fill="none" xmlns="http://www.w3.org/2000/svg">
<path d="M8 15.1667C7.53333 15.1667 7.06 14.9867 6.70667 14.6333L5.56665 13.5067C5.28665 13.2267 4.90001 13.0733 4.50667 13.0733H4C2.62 13.0733 1.5 11.96 1.5 10.5933V3.31999C1.5 1.95333 2.62 0.840012 4 0.840012H12C13.38 0.840012 14.5 1.95333 14.5 3.31999V10.5933C14.5 11.96 13.38 13.0733 12 13.0733H11.4933C11.1 13.0733 10.7133 13.2333 10.4333 13.5067L9.29333 14.6333C8.94 14.9867 8.46667 15.1667 8 15.1667ZM4 1.83334C3.17333 1.83334 2.5 2.49999 2.5 3.31332V10.5867C2.5 11.4067 3.17333 12.0667 4 12.0667H4.50667C5.16667 12.0667 5.80665 12.3333 6.27331 12.7933L7.41333 13.92C7.74 14.24 8.26667 14.24 8.59333 13.92L9.73333 12.7933C10.2 12.3333 10.84 12.0667 11.5 12.0667H12C12.8267 12.0667 13.5 11.4 13.5 10.5867V3.31332C13.5 2.49332 12.8267 1.83334 12 1.83334H4Z" fill="currentColor"/>
<path d="M7.99993 7.16674C6.8666 7.16674 5.94661 6.2467 5.94661 5.11337C5.94661 3.98003 6.8666 3.06006 7.99993 3.06006C9.13327 3.06006 10.0533 3.98003 10.0533 5.11337C10.0533 6.2467 9.13327 7.16674 7.99993 7.16674ZM7.99993 4.06007C7.41993 4.06007 6.9466 4.53337 6.9466 5.11337C6.9466 5.69337 7.41993 6.16671 7.99993 6.16671C8.57993 6.16671 9.05333 5.69337 9.05333 5.11337C9.05333 4.53337 8.57993 4.06007 7.99993 4.06007Z" fill="currentColor"/>
<path d="M10.6667 10.9401C10.3933 10.9401 10.1667 10.7134 10.1667 10.4401C10.1667 9.52007 9.19333 8.76674 8 8.76674C6.80667 8.76674 5.83333 9.52007 5.83333 10.4401C5.83333 10.7134 5.60667 10.9401 5.33333 10.9401C5.06 10.9401 4.83333 10.7134 4.83333 10.4401C4.83333 8.96674 6.25333 7.76674 8 7.76674C9.74667 7.76674 11.1667 8.96674 11.1667 10.4401C11.1667 10.7134 10.94 10.9401 10.6667 10.9401Z" fill="currentColor"/>
</svg>
