<svg width="16" height="16" viewBox="0 0 16 16" fill="none" xmlns="http://www.w3.org/2000/svg">
<path d="M8 8.49999C5.88666 8.49999 4.16666 6.77999 4.16666 4.66666C4.16666 2.55333 5.88666 0.833328 8 0.833328C10.1133 0.833328 11.8333 2.55333 11.8333 4.66666C11.8333 6.77999 10.1133 8.49999 8 8.49999ZM8 1.83333C6.44 1.83333 5.16666 3.10666 5.16666 4.66666C5.16666 6.22666 6.44 7.49999 8 7.49999C9.56 7.49999 10.8333 6.22666 10.8333 4.66666C10.8333 3.10666 9.56 1.83333 8 1.83333Z" fill="currentColor"/>
<path d="M2.27344 15.1667C2.0001 15.1667 1.77344 14.94 1.77344 14.6667C1.77344 11.82 4.56678 9.49999 8.00013 9.49999C8.67346 9.49999 9.33346 9.58666 9.97346 9.76666C10.2401 9.83999 10.3935 10.1133 10.3201 10.38C10.2468 10.6467 9.97346 10.8 9.7068 10.7267C9.16013 10.5733 8.5868 10.5 8.00013 10.5C5.12012 10.5 2.77344 12.3667 2.77344 14.6667C2.77344 14.94 2.54677 15.1667 2.27344 15.1667Z" fill="currentColor"/>
<path d="M12 15.1667C11.2133 15.1667 10.4667 14.8733 9.88666 14.3467C9.65333 14.1467 9.44666 13.9 9.28666 13.6267C8.99333 13.1467 8.83333 12.58 8.83333 12C8.83333 11.1667 9.15333 10.3867 9.72666 9.79333C10.3267 9.17333 11.1333 8.83333 12 8.83333C12.9067 8.83333 13.7667 9.21999 14.3533 9.88666C14.8733 10.4667 15.1667 11.2133 15.1667 12C15.1667 12.2533 15.1333 12.5067 15.0667 12.7467C15 13.0467 14.8733 13.36 14.7 13.6333C14.1467 14.58 13.1067 15.1667 12 15.1667ZM12 9.83333C11.4067 9.83333 10.86 10.0667 10.4467 10.4867C10.0533 10.8933 9.83333 11.4267 9.83333 12C9.83333 12.3933 9.94 12.78 10.1467 13.1133C10.2533 13.3 10.3933 13.4667 10.5533 13.6067C10.9533 13.9733 11.4667 14.1733 12 14.1733C12.7533 14.1733 13.4667 13.7733 13.8533 13.1267C13.9667 12.94 14.0533 12.7267 14.1 12.52C14.1467 12.3467 14.1667 12.18 14.1667 12.0067C14.1667 11.4733 13.9667 10.96 13.6067 10.56C13.2067 10.0933 12.62 9.83333 12 9.83333Z" fill="currentColor"/>
<path d="M12.9999 12.4867H11.0065C10.7332 12.4867 10.5065 12.26 10.5065 11.9867C10.5065 11.7133 10.7332 11.4867 11.0065 11.4867H12.9999C13.2732 11.4867 13.4999 11.7133 13.4999 11.9867C13.4999 12.26 13.2732 12.4867 12.9999 12.4867Z" fill="currentColor"/>
</svg>
