<svg width="16" height="16" viewBox="0 0 16 16" fill="none" xmlns="http://www.w3.org/2000/svg">
<g clip-path="url(#clip0_2_4554)">
<path d="M10.0004 15.1667H6.0004C5.1204 15.1667 4.38707 15.08 3.76707 14.8933C3.5404 14.8267 3.39373 14.6067 3.40707 14.3733C3.57373 12.38 5.59373 10.8133 8.00038 10.8133C10.407 10.8133 12.4204 12.3733 12.5937 14.3733C12.6137 14.6133 12.467 14.8267 12.2337 14.8933C11.6137 15.08 10.8804 15.1667 10.0004 15.1667ZM4.4804 14.04C4.9204 14.1267 5.4204 14.1667 6.0004 14.1667H10.0004C10.5804 14.1667 11.0804 14.1267 11.5204 14.04C11.167 12.76 9.70705 11.8133 8.00038 11.8133C6.29373 11.8133 4.83373 12.76 4.4804 14.04Z" fill="currentColor"/>
<path fill-rule="evenodd" clip-rule="evenodd" d="M2.06309 2.06311C2.95274 1.17346 4.284 0.833328 5.99998 0.833328H9.99998C11.716 0.833328 13.0472 1.17346 13.9369 2.06311C14.8265 2.95275 15.1666 4.28401 15.1666 5.99999V9.99999C15.1666 11.3004 14.9723 12.3761 14.4934 13.2085C14.0026 14.0615 13.243 14.6075 12.2295 14.8944C12.0859 14.9351 11.9316 14.9094 11.8088 14.8245C11.6861 14.7396 11.6077 14.6042 11.5951 14.4555C11.4771 13.0606 9.99559 11.8133 8.00038 11.8133C6.00517 11.8133 4.5229 13.0606 4.40487 14.4555C4.39228 14.6042 4.31389 14.7396 4.19113 14.8245C4.06837 14.9094 3.91409 14.9351 3.77045 14.8944C2.757 14.6075 1.9974 14.0615 1.5066 13.2085C1.02763 12.3761 0.833313 11.3004 0.833313 9.99999V5.99999C0.833313 4.28401 1.17345 2.95275 2.06309 2.06311ZM2.7702 2.77021C2.15985 3.38057 1.83331 4.38264 1.83331 5.99999V9.99999C1.83331 11.2196 2.01899 12.0939 2.37336 12.7098C2.63546 13.1653 3.00561 13.5069 3.52335 13.7436C4.01964 12.0059 5.90589 10.8133 8.00038 10.8133C10.0949 10.8133 11.9803 12.0059 12.4766 13.7436C12.9943 13.5069 13.3645 13.1653 13.6266 12.7098C13.981 12.0939 14.1666 11.2196 14.1666 9.99999V5.99999C14.1666 4.38264 13.8401 3.38057 13.2298 2.77021C12.6194 2.15986 11.6173 1.83333 9.99998 1.83333H5.99998C4.38263 1.83333 3.38055 2.15986 2.7702 2.77021ZM7.99998 5.16666C6.95612 5.16666 6.11331 6.00948 6.11331 7.05333C6.11331 8.099 6.95794 8.94666 7.99998 8.94666C9.04202 8.94666 9.88665 8.099 9.88665 7.05333C9.88665 6.00948 9.04383 5.16666 7.99998 5.16666ZM5.11331 7.05333C5.11331 5.4572 6.40383 4.16666 7.99998 4.16666C9.59612 4.16666 10.8866 5.4572 10.8866 7.05333C10.8866 8.64765 9.59794 9.94666 7.99998 9.94666C6.40202 9.94666 5.11331 8.64765 5.11331 7.05333Z" fill="currentColor"/>
<path d="M7.99998 9.94666C6.40666 9.94666 5.11331 8.64666 5.11331 7.05333C5.11331 5.46001 6.40666 4.16666 7.99998 4.16666C9.59331 4.16666 10.8866 5.46001 10.8866 7.05333C10.8866 8.64666 9.59331 9.94666 7.99998 9.94666ZM7.99998 5.16666C6.95998 5.16666 6.11331 6.01334 6.11331 7.05333C6.11331 8.09999 6.95998 8.94666 7.99998 8.94666C9.03998 8.94666 9.88665 8.09999 9.88665 7.05333C9.88665 6.01334 9.03998 5.16666 7.99998 5.16666Z" fill="currentColor"/>
</g>
<defs>
<clipPath id="clip0_2_4554">
<rect width="16" height="16" fill="currentColor"/>
</clipPath>
</defs>
</svg>
