<svg width="16" height="16" viewBox="0 0 16 16" fill="none" xmlns="http://www.w3.org/2000/svg">
<path d="M8 8.49999C5.88666 8.49999 4.16666 6.77999 4.16666 4.66666C4.16666 2.55333 5.88666 0.833328 8 0.833328C10.1133 0.833328 11.8333 2.55333 11.8333 4.66666C11.8333 6.77999 10.1133 8.49999 8 8.49999ZM8 1.83333C6.44 1.83333 5.16666 3.10666 5.16666 4.66666C5.16666 6.22666 6.44 7.49999 8 7.49999C9.56 7.49999 10.8333 6.22666 10.8333 4.66666C10.8333 3.10666 9.56 1.83333 8 1.83333Z" fill="currentColor"/>
<path d="M2.27344 15.1667C2.0001 15.1667 1.77344 14.94 1.77344 14.6667C1.77344 11.82 4.56676 9.49999 8.00013 9.49999C8.67346 9.49999 9.3334 9.58666 9.9734 9.76666C10.2401 9.83999 10.3935 10.1133 10.3201 10.38C10.2468 10.6467 9.9734 10.8 9.7068 10.7267C9.16013 10.5733 8.5868 10.5 8.00013 10.5C5.1201 10.5 2.77344 12.3667 2.77344 14.6667C2.77344 14.94 2.54677 15.1667 2.27344 15.1667Z" fill="currentColor"/>
<path d="M12 15.1667C10.8933 15.1667 9.85333 14.58 9.29333 13.6267C8.99333 13.1467 8.83333 12.58 8.83333 12C8.83333 11.0267 9.26666 10.1267 10.02 9.52666C10.58 9.07999 11.2867 8.83333 12 8.83333C13.7467 8.83333 15.1667 10.2533 15.1667 12C15.1667 12.58 15.0067 13.1467 14.7067 13.6333C14.54 13.9133 14.3267 14.1667 14.0733 14.38C13.52 14.8867 12.78 15.1667 12 15.1667ZM12 9.83333C11.5067 9.83333 11.04 9.99999 10.6467 10.3133C10.1333 10.72 9.83333 11.34 9.83333 12C9.83333 12.3933 9.94 12.78 10.1467 13.1133C10.5333 13.7667 11.2467 14.1667 12 14.1667C12.5267 14.1667 13.0333 13.9733 13.42 13.6267C13.5933 13.48 13.74 13.3067 13.8467 13.12C14.06 12.78 14.1667 12.3933 14.1667 12C14.1667 10.8067 13.1933 9.83333 12 9.83333Z" fill="currentColor"/>
<path d="M11.6193 13.1601C11.4926 13.1601 11.3659 13.1134 11.2659 13.0134L10.6059 12.3534C10.4126 12.1601 10.4126 11.84 10.6059 11.6467C10.7993 11.4533 11.1193 11.4533 11.3126 11.6467L11.6326 11.9667L12.6993 10.98C12.8993 10.7933 13.2193 10.8067 13.4059 11.0067C13.5926 11.2067 13.5793 11.5267 13.3793 11.7134L11.9593 13.0267C11.8593 13.1133 11.7393 13.1601 11.6193 13.1601Z" fill="currentColor"/>
</svg>
