<svg width="16" height="16" viewBox="0 0 16 16" fill="none" xmlns="http://www.w3.org/2000/svg">
<path d="M8 8.49999C5.88666 8.49999 4.16666 6.77999 4.16666 4.66666C4.16666 2.55333 5.88666 0.833328 8 0.833328C10.1133 0.833328 11.8333 2.55333 11.8333 4.66666C11.8333 6.77999 10.1133 8.49999 8 8.49999ZM8 1.83333C6.44 1.83333 5.16666 3.10666 5.16666 4.66666C5.16666 6.22666 6.44 7.49999 8 7.49999C9.56 7.49999 10.8333 6.22666 10.8333 4.66666C10.8333 3.10666 9.56 1.83333 8 1.83333Z" fill="currentColor"/>
<path d="M13.7267 15.1667C13.4534 15.1667 13.2267 14.94 13.2267 14.6667C13.2267 12.3667 10.8801 10.5 8.00013 10.5C5.1201 10.5 2.77344 12.3667 2.77344 14.6667C2.77344 14.94 2.54677 15.1667 2.27344 15.1667C2.0001 15.1667 1.77344 14.94 1.77344 14.6667C1.77344 11.82 4.56676 9.49999 8.00013 9.49999C11.4335 9.49999 14.2267 11.82 14.2267 14.6667C14.2267 14.94 14.0001 15.1667 13.7267 15.1667Z" fill="currentColor"/>
</svg>
