<svg width="16" height="16" viewBox="0 0 16 16" fill="none" xmlns="http://www.w3.org/2000/svg">
<path d="M7.26666 7.73332C5.33332 7.73332 3.79999 6.19999 3.79999 4.26665C3.79999 2.33332 5.33332 0.799988 7.26666 0.799988C9.19999 0.799988 10.7333 2.33332 10.7333 4.26665C10.7333 6.19999 9.19999 7.73332 7.26666 7.73332ZM7.26666 1.86665C5.93332 1.86665 4.79999 2.93332 4.79999 4.33332C4.79999 5.73332 5.86666 6.79999 7.26666 6.79999C8.66666 6.79999 9.73332 5.73332 9.73332 4.33332C9.73332 2.93332 8.59999 1.86665 7.26666 1.86665Z" fill="currentColor"/>
<path d="M2.19999 13.5333C1.93332 13.5333 1.66666 13.3333 1.66666 13C1.66666 10.4667 4.13332 8.39999 7.19999 8.39999C7.46666 8.39999 7.73332 8.59999 7.73332 8.93332C7.73332 9.19999 7.53332 9.46665 7.19999 9.46665C4.66666 9.46665 2.66666 11.0667 2.66666 13.0667C2.73332 13.3333 2.46666 13.5333 2.19999 13.5333Z" fill="currentColor"/>
<path d="M9.26666 15.1333C9.06666 15.1333 8.79999 15.0667 8.59999 14.9333C8.26666 14.6667 8.06666 14.2667 8.19999 13.8667L8.39999 12.7333L7.59999 11.9333C7.26666 11.6667 7.19999 11.2 7.33332 10.8C7.46666 10.4 7.79999 10.1333 8.19999 10.0667L9.33332 9.86666L9.86666 8.86666C10.0667 8.46665 10.4 8.26665 10.8667 8.26665C11.2667 8.26665 11.6667 8.53332 11.8667 8.86666L12.4 9.86666L13.5333 10.0667C13.9333 10.1333 14.2667 10.4 14.4 10.8C14.5333 11.2 14.4 11.6 14.1333 11.9333L13.3333 12.7333L13.5333 13.8667C13.6 14.2667 13.4667 14.6667 13.1333 14.9333C12.8 15.2 12.3333 15.2 12 15L11 14.4667L9.99999 15C9.66666 15.1333 9.46666 15.1333 9.26666 15.1333ZM8.19999 11.2L8.93332 11.8667C9.33332 12.2667 9.46666 12.8 9.39999 13.2667L9.19999 14.2667L10.0667 13.8C10.5333 13.5333 11.0667 13.5333 11.6 13.8L12.4667 14.2667L12.2667 13.3333C12.2 12.8 12.3333 12.2667 12.7333 11.9333L13.4667 11.2667L12.4667 11.1333C11.9333 11.0667 11.4667 10.7333 11.2667 10.2667L10.8667 9.39999L10.4667 10.2667C10.2 10.7333 9.79999 11.0667 9.26666 11.1333L8.19999 11.2Z" fill="currentColor"/>
</svg>
