<svg width="16" height="16" viewBox="0 0 16 16" fill="none" xmlns="http://www.w3.org/2000/svg">
<g clip-path="url(#clip0_2_5267)">
<path d="M7.19365 10.1133C7.06031 10.1133 6.93365 10.06 6.84031 9.96666L5.22701 8.35333C5.03368 8.15999 5.03368 7.83999 5.22701 7.64666C5.42035 7.45333 5.74035 7.45333 5.93368 7.64666L7.19365 8.90666L10.0603 6.04001C10.2536 5.84668 10.5736 5.84668 10.767 6.04001C10.9603 6.23335 10.9603 6.55335 10.767 6.74666L7.54698 9.96666C7.45365 10.06 7.32698 10.1133 7.19365 10.1133Z" fill="currentColor"/>
<path d="M8.00058 15.1667C7.58058 15.1667 7.16058 15.0267 6.83391 14.7467L5.78055 13.84C5.67389 13.7467 5.40722 13.6533 5.26722 13.6533H4.12055C3.13389 13.6533 2.33389 12.8533 2.33389 11.8667V10.7267C2.33389 10.5867 2.24055 10.3267 2.14722 10.22L1.24722 9.15999C0.700553 8.51333 0.700553 7.49333 1.24722 6.84666L2.14722 5.78666C2.24055 5.68 2.33389 5.41999 2.33389 5.27999V4.13333C2.33389 3.14666 3.13389 2.34666 4.12055 2.34666H5.27389C5.41389 2.34666 5.68055 2.24666 5.78722 2.15999L6.84058 1.25333C7.49391 0.693328 8.51391 0.693328 9.16725 1.25333L10.2206 2.15999C10.3272 2.25333 10.5939 2.34666 10.7339 2.34666H11.8672C12.8539 2.34666 13.6539 3.14666 13.6539 4.13333V5.26666C13.6539 5.40666 13.7539 5.67333 13.8472 5.77999L14.7539 6.83333C15.3139 7.48666 15.3139 8.50666 14.7539 9.15999L13.8472 10.2133C13.7539 10.32 13.6539 10.5867 13.6539 10.7267V11.86C13.6539 12.8467 12.8539 13.6467 11.8672 13.6467H10.7339C10.5939 13.6467 10.3272 13.7467 10.2206 13.8333L9.16725 14.74C8.84058 15.0267 8.42058 15.1667 8.00058 15.1667ZM4.12055 3.34666C3.68722 3.34666 3.33389 3.69999 3.33389 4.13333V5.27333C3.33389 5.65333 3.15389 6.14 2.90722 6.42666L2.00722 7.48666C1.77389 7.75999 1.77389 8.23333 2.00722 8.50666L2.90722 9.56666C3.15389 9.85999 3.33389 10.34 3.33389 10.72V11.86C3.33389 12.2933 3.68722 12.6467 4.12055 12.6467H5.27389C5.66055 12.6467 6.14722 12.8267 6.44055 13.08L7.49391 13.9867C7.76725 14.22 8.24725 14.22 8.52058 13.9867L9.57391 13.08C9.86725 12.8333 10.3539 12.6467 10.7406 12.6467H11.8739C12.3072 12.6467 12.6606 12.2933 12.6606 11.86V10.7267C12.6606 10.34 12.8406 9.85333 13.0939 9.55999L14.0006 8.50666C14.2339 8.23333 14.2339 7.75333 14.0006 7.47999L13.0939 6.42666C12.8406 6.13333 12.6606 5.64666 12.6606 5.25999V4.13333C12.6606 3.69999 12.3072 3.34666 11.8739 3.34666H10.7406C10.3539 3.34666 9.86725 3.16666 9.57391 2.91333L8.52058 2.00666C8.24725 1.77333 7.76725 1.77333 7.49391 2.00666L6.44055 2.91999C6.14722 3.16666 5.65389 3.34666 5.27389 3.34666H4.12055Z" fill="currentColor"/>
</g>
<defs>
<clipPath id="clip0_2_5267">
<rect width="16" height="16" fill="currentColor"/>
</clipPath>
</defs>
</svg>
