<svg width="16" height="16" viewBox="0 0 16 16" fill="none" xmlns="http://www.w3.org/2000/svg">
<path d="M8.58665 13.9067H4.53998C2.17331 13.9067 1.33331 12.2467 1.33331 10.7001V5.3001C1.33331 2.99343 2.23331 2.09343 4.53998 2.09343H8.58665C10.8933 2.09343 11.7933 2.99343 11.7933 5.3001V10.7001C11.7933 13.0067 10.8933 13.9067 8.58665 13.9067ZM4.53998 3.10676C2.79998 3.10676 2.34665 3.5601 2.34665 5.3001V10.7001C2.34665 11.5201 2.63331 12.8934 4.53998 12.8934H8.58665C10.3266 12.8934 10.78 12.4401 10.78 10.7001V5.3001C10.78 3.5601 10.3266 3.10676 8.58665 3.10676H4.53998Z" fill="currentColor"/>
<path d="M13.8531 12.0733C13.5664 12.0733 13.1998 11.98 12.7798 11.6867L10.9998 10.44C10.8664 10.3467 10.7864 10.1933 10.7864 10.0267V5.97333C10.7864 5.80666 10.8664 5.65334 10.9998 5.56L12.7798 4.31333C13.5731 3.76 14.1531 3.92 14.4264 4.06C14.6998 4.20666 15.1664 4.58666 15.1664 5.55333V10.44C15.1664 11.4067 14.6998 11.7933 14.4264 11.9333C14.2998 12.0067 14.0998 12.0733 13.8531 12.0733ZM11.7931 9.76L13.3598 10.8533C13.6598 11.06 13.8731 11.08 13.9598 11.0333C14.0531 10.9867 14.1531 10.8 14.1531 10.44V5.56C14.1531 5.19333 14.0464 5.01333 13.9598 4.96666C13.8731 4.92 13.6598 4.94 13.3598 5.14666L11.7931 6.24V9.76Z" fill="currentColor"/>
<path d="M7.66665 7.83334C6.83998 7.83334 6.16665 7.16 6.16665 6.33334C6.16665 5.50667 6.83998 4.83334 7.66665 4.83334C8.49331 4.83334 9.16665 5.50667 9.16665 6.33334C9.16665 7.16 8.49331 7.83334 7.66665 7.83334ZM7.66665 5.83334C7.39331 5.83334 7.16665 6.06 7.16665 6.33334C7.16665 6.60667 7.39331 6.83334 7.66665 6.83334C7.93998 6.83334 8.16665 6.60667 8.16665 6.33334C8.16665 6.06 7.93998 5.83334 7.66665 5.83334Z" fill="currentColor"/>
</svg>
