<svg width="16" height="16" viewBox="0 0 16 16" fill="none" xmlns="http://www.w3.org/2000/svg">
<g clip-path="url(#clip0_1075_17)">
<path d="M9.99999 15.2H5.99999C2.39999 15.2 0.799988 13.6667 0.799988 9.99999V5.99999C0.799988 2.39999 2.33332 0.799988 5.99999 0.799988H9.99999C13.6 0.799988 15.2 2.33332 15.2 5.99999V9.99999C15.2 10.1333 15.2 10.3333 15.2 10.4667C15.2 10.6667 15.0667 10.8667 14.8 10.9333C14.5333 11 14.4 10.9333 14.2667 10.7333L14.2 10.6667C13.7333 10.1333 13.0667 9.86666 12.3333 9.86666C11.6667 9.86666 11 10.1333 10.5333 10.6C10.0667 11.0667 9.79999 11.6667 9.79999 12.3333C9.79999 12.8 9.93332 13.2 10.1333 13.6C10.2667 13.8 10.4 14 10.6 14.1333L10.6667 14.2C10.8 14.3333 10.8667 14.5333 10.8 14.7333C10.7333 14.9333 10.6 15.0667 10.4 15.0667C10.3333 15.2 10.1333 15.2 9.99999 15.2ZM5.99999 1.86665C2.93332 1.86665 1.86665 2.93332 1.86665 5.99999V9.99999C1.86665 13.0667 2.93332 14.1333 5.99999 14.1333H9.33332C8.99999 13.6 8.79999 12.9333 8.79999 12.3333C8.79999 11.4 9.13332 10.5333 9.79999 9.86666C10.4667 9.19999 11.4 8.79999 12.3333 8.79999C13 8.79999 13.6 8.99999 14.2 9.33332V5.99999C14.2 2.93332 13.1333 1.86665 10.0667 1.86665H5.99999Z" fill="currentColor"/>
<path d="M12.3333 15.8667C11.5333 15.8667 10.8 15.6 10.2 15.1333C10.2 15.1333 10.1333 15.1333 10.1333 15.0667C10.0667 15 9.99999 15 9.99999 14.9333C9.73332 14.7333 9.53332 14.4667 9.33332 14.1333C8.99999 13.6 8.79999 12.9333 8.79999 12.3333C8.79999 11.4 9.13332 10.5333 9.79999 9.86666C10.4667 9.19999 11.4 8.79999 12.3333 8.79999C13.3333 8.79999 14.2667 9.19999 14.9333 9.99999C15 9.99999 15 10.0667 15.0667 10.1333C15.5333 10.7333 15.8 11.4667 15.8 12.2667C15.8 12.5333 15.8 12.8667 15.7333 13.0667C15.6667 13.4 15.5333 13.7333 15.3333 14.0667C14.6667 15.2 13.5333 15.8667 12.3333 15.8667ZM10.7333 14.2667C11.2 14.6667 11.7333 14.8667 12.3333 14.8667C13.2 14.8667 14 14.4 14.4667 13.6667C14.6 13.4667 14.6667 13.2 14.7333 12.9333C14.8 12.7333 14.8 12.5333 14.8 12.3333C14.8 11.7333 14.6 11.2 14.2 10.7333C14.2 10.7333 14.1333 10.6667 14.1333 10.6C13.6667 10.0667 13 9.79999 12.2667 9.79999C11.6 9.79999 10.9333 10.0667 10.4667 10.5333C9.99999 11 9.73332 11.6 9.73332 12.2667C9.73332 12.7333 9.86666 13.1333 10.0667 13.5333C10.3333 13.8 10.4667 14 10.7333 14.2667Z" fill="currentColor"/>
<path d="M13.1333 13.6C13 13.6 12.8667 13.5333 12.8 13.4667L11.2 11.8667C11 11.6667 11 11.3333 11.2 11.1333C11.4 10.9333 11.7333 10.9333 11.9333 11.1333L13.5333 12.7333C13.7333 12.9333 13.7333 13.2667 13.5333 13.4667C13.4 13.6 13.2667 13.6 13.1333 13.6Z" fill="currentColor"/>
<path d="M11.5333 13.6C11.4 13.6 11.2667 13.5333 11.2 13.4667C11 13.2667 11 12.9333 11.2 12.7333L12.8 11.1333C13 10.9333 13.3333 10.9333 13.5333 11.1333C13.7333 11.3333 13.7333 11.6667 13.5333 11.8667L11.9333 13.4667C11.8 13.6 11.6667 13.6 11.5333 13.6Z" fill="currentColor"/>
<path d="M5.19999 9.59999C4.93332 9.59999 4.66665 9.53332 4.39999 9.39999C3.86665 9.06666 3.53332 8.46665 3.53332 7.66665V5.66665C3.53332 4.86665 3.86665 4.26665 4.39999 3.93332C4.93332 3.59999 5.59999 3.66665 6.33332 4.06665L7.99999 5.06665C8.66665 5.46665 9.06666 6.06665 9.06666 6.66665C9.06666 7.26665 8.66665 7.86665 7.99999 8.26665L6.26665 9.26665C5.93332 9.46665 5.53332 9.59999 5.19999 9.59999ZM5.19999 4.73332C5.06665 4.73332 4.99999 4.73332 4.93332 4.79999C4.66665 4.93332 4.53332 5.26665 4.53332 5.66665V7.66665C4.53332 8.06665 4.66665 8.39999 4.86665 8.53332C5.06665 8.66665 5.39999 8.59999 5.79999 8.39999L7.53332 7.39999C7.93332 7.19999 8.13332 6.93332 8.13332 6.66665C8.13332 6.39999 7.93332 6.13332 7.53332 5.93332L5.79999 4.93332C5.59999 4.79999 5.33332 4.73332 5.19999 4.73332Z" fill="currentColor"/>
</g>
<defs>
<clipPath id="clip0_1075_17">
<rect width="16" height="16" fill="currentColor"/>
</clipPath>
</defs>
</svg>
