<svg width="16" height="16" viewBox="0 0 16 16" fill="none" xmlns="http://www.w3.org/2000/svg">
<g clip-path="url(#clip0_2_4542)">
<path d="M10 15.1667H6.00001C2.38001 15.1667 0.833344 13.62 0.833344 10V6.00001C0.833344 2.38001 2.38001 0.833344 6.00001 0.833344H10C13.62 0.833344 15.1667 2.38001 15.1667 6.00001V10C15.1667 13.62 13.62 15.1667 10 15.1667ZM6.00001 1.83334C2.92668 1.83334 1.83334 2.92668 1.83334 6.00001V10C1.83334 13.0733 2.92668 14.1667 6.00001 14.1667H10C13.0733 14.1667 14.1667 13.0733 14.1667 10V6.00001C14.1667 2.92668 13.0733 1.83334 10 1.83334H6.00001Z" fill="currentColor"/>
<path d="M7.17321 10.9132C6.89321 10.9132 6.63324 10.8465 6.3999 10.7132C5.86657 10.4065 5.5599 9.77988 5.5599 8.98654V7.01321C5.5599 6.22655 5.86657 5.59321 6.3999 5.28654C6.93321 4.97988 7.62654 5.02655 8.31321 5.42655L10.0265 6.41321C10.7065 6.80654 11.0999 7.38654 11.0999 7.99988C11.0999 8.61321 10.7065 9.19321 10.0265 9.58654L8.31321 10.5732C7.92654 10.7999 7.53321 10.9132 7.17321 10.9132ZM7.17988 6.08655C7.07321 6.08655 6.97988 6.10654 6.90654 6.15321C6.69321 6.27988 6.56657 6.59322 6.56657 7.01321V8.98654C6.56657 9.40654 6.68654 9.71988 6.90654 9.84654C7.11988 9.97321 7.45321 9.91988 7.81988 9.70654L9.53321 8.71988C9.89988 8.50654 10.1065 8.24654 10.1065 7.99988C10.1065 7.75321 9.89988 7.48654 9.53321 7.27988L7.81988 6.29321C7.57988 6.15321 7.35988 6.08655 7.17988 6.08655Z" fill="currentColor"/>
</g>
<defs>
<clipPath id="clip0_2_4542">
<rect width="16" height="16" fill="currentColor"/>
</clipPath>
</defs>
</svg>
