<svg width="16" height="16" viewBox="0 0 16 16" fill="none" xmlns="http://www.w3.org/2000/svg">
<g clip-path="url(#clip0_2_4544)">
<path d="M9.99998 15.1667H5.99998C2.37998 15.1667 0.833313 13.62 0.833313 10V6.00001C0.833313 2.38001 2.37998 0.833344 5.99998 0.833344H9.99998C13.62 0.833344 15.1666 2.38001 15.1666 6.00001V10C15.1666 13.62 13.62 15.1667 9.99998 15.1667ZM5.99998 1.83334C2.92665 1.83334 1.83331 2.92668 1.83331 6.00001V10C1.83331 13.0733 2.92665 14.1667 5.99998 14.1667H9.99998C13.0733 14.1667 14.1666 13.0733 14.1666 10V6.00001C14.1666 2.92668 13.0733 1.83334 9.99998 1.83334H5.99998Z" fill="currentColor"/>
<path d="M14.3196 5.23992H1.67967C1.40633 5.23992 1.17967 5.01325 1.17967 4.73992C1.17967 4.46658 1.39967 4.23992 1.67967 4.23992H14.3196C14.593 4.23992 14.8196 4.46658 14.8196 4.73992C14.8196 5.01325 14.5996 5.23992 14.3196 5.23992Z" fill="currentColor"/>
<path d="M5.67967 5.14658C5.40633 5.14658 5.17967 4.91992 5.17967 4.64658V1.40658C5.17967 1.13325 5.40633 0.906583 5.67967 0.906583C5.953 0.906583 6.17967 1.13325 6.17967 1.40658V4.64658C6.17967 4.91992 5.953 5.14658 5.67967 5.14658Z" fill="currentColor"/>
<path d="M10.3203 4.84658C10.047 4.84658 9.82031 4.61992 9.82031 4.34658V1.40658C9.82031 1.13325 10.047 0.906583 10.3203 0.906583C10.5936 0.906583 10.8203 1.13325 10.8203 1.40658V4.34658C10.8203 4.62658 10.6003 4.84658 10.3203 4.84658Z" fill="currentColor"/>
<path d="M7.39331 12.0799C7.15331 12.0799 6.92665 12.0199 6.71998 11.9065C6.26665 11.6399 5.99998 11.1065 5.99998 10.4332V8.83321C5.99998 8.15988 6.26665 7.61988 6.72665 7.35321C7.18665 7.08654 7.78665 7.12654 8.36665 7.46654L9.75331 8.26654C10.3333 8.59988 10.6733 9.09988 10.6733 9.63321C10.6733 10.1665 10.3333 10.6665 9.74665 10.9999L8.35998 11.7999C8.03998 11.9865 7.70665 12.0799 7.39331 12.0799ZM7.39998 8.17988C7.33331 8.17988 7.27331 8.19321 7.22665 8.21988C7.08665 8.29988 6.99998 8.52654 6.99998 8.83321V10.4332C6.99998 10.7332 7.08665 10.9599 7.22665 11.0465C7.36665 11.1265 7.60665 11.0865 7.86665 10.9332L9.25331 10.1332C9.51331 9.97988 9.67331 9.79321 9.67331 9.63321C9.67331 9.47321 9.51998 9.28654 9.25331 9.13321L7.86665 8.33321C7.69331 8.23321 7.52665 8.17988 7.39998 8.17988Z" fill="currentColor"/>
</g>
<defs>
<clipPath id="clip0_2_4544">
<rect width="16" height="16" fill="currentColor"/>
</clipPath>
</defs>
</svg>
