<svg width="16" height="16" viewBox="0 0 16 16" fill="none" xmlns="http://www.w3.org/2000/svg">
<g clip-path="url(#clip0_2_4917)">
<path d="M7.17318 10.9132C6.89318 10.9132 6.63321 10.8465 6.39987 10.7132C5.86654 10.4065 5.55987 9.77988 5.55987 8.98654V7.01321C5.55987 6.22655 5.86654 5.59321 6.39987 5.28654C6.93318 4.97988 7.62651 5.02655 8.31318 5.42655L10.0265 6.41321C10.7065 6.80654 11.0998 7.38654 11.0998 7.99988C11.0998 8.61321 10.7065 9.19321 10.0265 9.58654L8.31318 10.5732C7.92651 10.7999 7.53318 10.9132 7.17318 10.9132ZM7.17985 6.08655C7.07318 6.08655 6.97985 6.10654 6.90651 6.15321C6.69318 6.27988 6.56654 6.59322 6.56654 7.01321V8.98654C6.56654 9.40654 6.68651 9.71988 6.90651 9.84654C7.11985 9.97321 7.45318 9.91988 7.81985 9.70654L9.53318 8.71988C9.89985 8.50654 10.1065 8.24654 10.1065 7.99988C10.1065 7.75321 9.89985 7.48654 9.53318 7.27988L7.81985 6.29321C7.57985 6.15321 7.35985 6.08655 7.17985 6.08655Z" fill="currentColor"/>
<path d="M7.99998 15.1667C4.04665 15.1667 0.833313 11.9533 0.833313 8.00001C0.833313 4.04668 4.04665 0.833344 7.99998 0.833344C11.9533 0.833344 15.1666 4.04668 15.1666 8.00001C15.1666 11.9533 11.9533 15.1667 7.99998 15.1667ZM7.99998 1.83334C4.59998 1.83334 1.83331 4.60001 1.83331 8.00001C1.83331 11.4 4.59998 14.1667 7.99998 14.1667C11.4 14.1667 14.1666 11.4 14.1666 8.00001C14.1666 4.60001 11.4 1.83334 7.99998 1.83334Z" fill="currentColor"/>
</g>
<defs>
<clipPath id="clip0_2_4917">
<rect width="16" height="16" fill="currentColor"/>
</clipPath>
</defs>
</svg>
