<svg width="16" height="16" viewBox="0 0 16 16" fill="none" xmlns="http://www.w3.org/2000/svg">
<g clip-path="url(#clip0_1110_7)">
<path d="M14 11.6667L12.6667 10.3333C12.6667 10.3333 12.6 10.2667 12.5333 10.2667H12.4C12.4 10.2667 12.3333 10.2667 12.2667 10.2667C12.2667 10.2667 12.1333 10.2667 12.1333 10.3333L10.8 11.6667C10.6 11.8667 10.6 12.2 10.8 12.4C11 12.6 11.3333 12.6 11.5333 12.4L12 11.9333V14.7333C12 15 12.2 15.2667 12.5333 15.2667C12.8667 15.2667 13.0667 15.0667 13.0667 14.7333V11.9333L13.5333 12.4C13.6 12.5333 13.7333 12.5333 13.8667 12.5333C14 12.5333 14.1333 12.5333 14.2 12.4C14.4 12.2 14.4 11.8667 14.2 11.6667H14Z" fill="currentColor"/>
<path d="M0.800003 9.99999V5.99999C0.800003 2.39999 2.4 0.799988 6 0.799988H10C13.6 0.799988 15.2 2.33332 15.2 5.99999V9.33332C15.2 9.59999 15 9.86666 14.6667 9.86666C14.3333 9.86666 14.1333 9.66665 14.1333 9.33332V5.99999C14.1333 2.93332 13.0667 1.86665 10 1.86665H6C2.93334 1.86665 1.86667 2.93332 1.86667 5.99999V9.99999C1.86667 13.0667 2.93334 14.1333 6 14.1333H9.33334C9.6 14.1333 9.86667 14.3333 9.86667 14.6667C9.86667 15 9.66667 15.2 9.33334 15.2H6C2.4 15.2 0.800003 13.6667 0.800003 9.99999Z" fill="currentColor"/>
<path d="M6.86667 10.9333C6.6 10.9333 6.33334 10.8667 6.06667 10.7333C5.53334 10.4 5.2 9.79999 5.2 8.99999V6.99999C5.2 6.19999 5.53334 5.59999 6.06667 5.26665C6.6 4.93332 7.26667 4.99999 8 5.39999L9.66667 6.39999C10.3333 6.79999 10.7333 7.39999 10.7333 7.99999C10.7333 8.59999 10.3333 9.19999 9.66667 9.59999L7.93334 10.6C7.6 10.8 7.2 10.9333 6.86667 10.9333ZM6.86667 6.06666C6.73334 6.06666 6.66667 6.06666 6.6 6.06666C6.33334 6.19999 6.2 6.53332 6.2 6.93332V8.93332C6.2 9.33332 6.33334 9.66665 6.53334 9.79999C6.73334 9.93332 7.06667 9.86666 7.46667 9.66665L9.2 8.66665C9.6 8.46665 9.8 8.19999 9.8 7.93332C9.8 7.66665 9.6 7.39999 9.2 7.19999L7.46667 6.19999C7.26667 6.06665 7 5.99999 6.86667 5.99999V6.06666Z" fill="currentColor"/>
</g>
<defs>
<clipPath id="clip0_1110_7">
<rect width="16" height="16" fill="currentColor"/>
</clipPath>
</defs>
</svg>
