<svg width="16" height="16" viewBox="0 0 16 16" fill="none" xmlns="http://www.w3.org/2000/svg">
<g clip-path="url(#clip0_2_4547)">
<path d="M9.99998 15.1667H5.99998C2.37998 15.1667 0.833313 13.62 0.833313 10V6.00001C0.833313 2.38001 2.37998 0.833344 5.99998 0.833344H9.99998C13.62 0.833344 15.1666 2.38001 15.1666 6.00001V10C15.1666 13.62 13.62 15.1667 9.99998 15.1667ZM5.99998 1.83334C2.92665 1.83334 1.83331 2.92668 1.83331 6.00001V10C1.83331 13.0733 2.92665 14.1667 5.99998 14.1667H9.99998C13.0733 14.1667 14.1666 13.0733 14.1666 10V6.00001C14.1666 2.92668 13.0733 1.83334 9.99998 1.83334H5.99998Z" fill="currentColor"/>
<path d="M14.3196 11.9066H1.67967C1.40633 11.9066 1.17967 11.6799 1.17967 11.4066C1.17967 11.1333 1.40633 10.9066 1.67967 10.9066H14.3196C14.593 10.9066 14.8196 11.1333 14.8196 11.4066C14.8196 11.6799 14.5996 11.9066 14.3196 11.9066Z" fill="currentColor"/>
<path d="M14.3196 5.23992H1.67967C1.40633 5.23992 1.17967 5.01325 1.17967 4.73992C1.17967 4.46658 1.39967 4.23992 1.67967 4.23992H14.3196C14.593 4.23992 14.8196 4.46658 14.8196 4.73992C14.8196 5.01325 14.5996 5.23992 14.3196 5.23992Z" fill="currentColor"/>
<path d="M4.64711 14.8066C4.37378 14.8066 4.14711 14.5799 4.14711 14.3066V11.4066C4.14711 11.1333 4.37378 10.9066 4.64711 10.9066C4.92045 10.9066 5.14711 11.1333 5.14711 11.4066V14.3066C5.14711 14.5866 4.92045 14.8066 4.64711 14.8066Z" fill="currentColor"/>
<path d="M7.99998 15.1466C7.72665 15.1466 7.49998 14.9199 7.49998 14.6466V11.4066C7.49998 11.1333 7.72665 10.9066 7.99998 10.9066C8.27331 10.9066 8.49998 11.1333 8.49998 11.4066V14.6466C8.49998 14.9199 8.27331 15.1466 7.99998 15.1466Z" fill="currentColor"/>
<path d="M11.3138 14.8466C11.0404 14.8466 10.8138 14.6199 10.8138 14.3466V11.4066C10.8138 11.1333 11.0404 10.9066 11.3138 10.9066C11.5871 10.9066 11.8138 11.1333 11.8138 11.4066V14.3466C11.8138 14.6266 11.5871 14.8466 11.3138 14.8466Z" fill="currentColor"/>
<path d="M4.64711 4.80658C4.37378 4.80658 4.14711 4.57992 4.14711 4.30658V1.40658C4.14711 1.13325 4.37378 0.906583 4.64711 0.906583C4.92045 0.906583 5.14711 1.13325 5.14711 1.40658V4.30658C5.14711 4.58658 4.92045 4.80658 4.64711 4.80658Z" fill="currentColor"/>
<path d="M7.99998 5.14658C7.72665 5.14658 7.49998 4.91992 7.49998 4.64658V1.40658C7.49998 1.13325 7.72665 0.906583 7.99998 0.906583C8.27331 0.906583 8.49998 1.13325 8.49998 1.40658V4.64658C8.49998 4.91992 8.27331 5.14658 7.99998 5.14658Z" fill="currentColor"/>
<path d="M7.99998 12.5199C7.72665 12.5199 7.49998 12.2932 7.49998 12.0199V4.68654C7.49998 4.4132 7.72665 4.18654 7.99998 4.18654C8.27331 4.18654 8.49998 4.4132 8.49998 4.68654V12.0199C8.49998 12.2932 8.27331 12.5199 7.99998 12.5199Z" fill="currentColor"/>
<path d="M11.3138 4.84658C11.0404 4.84658 10.8138 4.61992 10.8138 4.34658V1.40658C10.8138 1.13325 11.0404 0.906583 11.3138 0.906583C11.5871 0.906583 11.8138 1.13325 11.8138 1.40658V4.34658C11.8138 4.62658 11.5871 4.84658 11.3138 4.84658Z" fill="currentColor"/>
</g>
<defs>
<clipPath id="clip0_2_4547">
<rect width="16" height="16" fill="currentColor"/>
</clipPath>
</defs>
</svg>
