<svg width="16" height="16" viewBox="0 0 16 16" fill="none" xmlns="http://www.w3.org/2000/svg">
<g clip-path="url(#clip0_2_4540)">
<path d="M10 15.1667H6.00001C2.38001 15.1667 0.833344 13.62 0.833344 10V6.00001C0.833344 2.38001 2.38001 0.833344 6.00001 0.833344H10C13.62 0.833344 15.1667 2.38001 15.1667 6.00001V10C15.1667 10.16 15.1667 10.3267 15.1533 10.48C15.1333 10.68 14.9933 10.8533 14.8 10.9133C14.6067 10.9733 14.3933 10.9067 14.2667 10.7467C13.7933 10.1667 13.0933 9.83334 12.3333 9.83334C11.7667 9.83334 11.2133 10.0267 10.7733 10.38C10.1733 10.8533 9.83334 11.56 9.83334 12.3333C9.83334 13.0867 10.1667 13.7933 10.7467 14.2667C10.9067 14.3933 10.9667 14.6067 10.9133 14.8C10.8533 14.9933 10.6867 15.1333 10.48 15.1533C10.3267 15.1667 10.16 15.1667 10 15.1667ZM6.00001 1.83334C2.92668 1.83334 1.83334 2.92668 1.83334 6.00001V10C1.83334 13.0733 2.92668 14.1667 6.00001 14.1667H9.34668C9.01334 13.6267 8.83334 12.9933 8.83334 12.3333C8.83334 11.2533 9.31334 10.26 10.1533 9.60001C11.2733 8.69334 12.9733 8.61334 14.1667 9.34668V6.00001C14.1667 2.92668 13.0733 1.83334 10 1.83334H6.00001Z" fill="currentColor"/>
<path d="M14.3197 5.23992H1.6797C1.40636 5.23992 1.1797 5.01325 1.1797 4.73992C1.1797 4.46658 1.40636 4.23992 1.6797 4.23992H14.3197C14.5931 4.23992 14.8197 4.46658 14.8197 4.73992C14.8197 5.01325 14.5997 5.23992 14.3197 5.23992Z" fill="currentColor"/>
<path d="M5.6797 5.14658C5.40636 5.14658 5.1797 4.91991 5.1797 4.64658V1.40658C5.1797 1.13325 5.40636 0.906583 5.6797 0.906583C5.95303 0.906583 6.1797 1.13325 6.1797 1.40658V4.64658C6.1797 4.91991 5.95303 5.14658 5.6797 5.14658Z" fill="currentColor"/>
<path d="M10.3203 4.84661C10.047 4.84661 9.82034 4.61994 9.82034 4.34661V1.40658C9.82034 1.13325 10.047 0.906583 10.3203 0.906583C10.5937 0.906583 10.8203 1.13325 10.8203 1.40658V4.34661C10.8203 4.62661 10.6003 4.84661 10.3203 4.84661Z" fill="currentColor"/>
<path d="M12.3333 15.8333C11.52 15.8333 10.7333 15.5533 10.1133 15.04C9.30001 14.38 8.83334 13.3933 8.83334 12.3333C8.83334 11.2533 9.31334 10.26 10.1533 9.60001C10.7667 9.10668 11.54 8.83334 12.3333 8.83334C13.3933 8.83334 14.38 9.30001 15.04 10.12C15.5467 10.7333 15.8333 11.52 15.8333 12.3333C15.8333 13.3267 15.4 14.2867 14.6467 14.96C13.9933 15.5267 13.1733 15.8333 12.3333 15.8333ZM12.3333 9.83334C11.7667 9.83334 11.2133 10.0267 10.7733 10.38C10.1733 10.8533 9.83334 11.56 9.83334 12.3333C9.83334 13.0867 10.1667 13.7933 10.7467 14.2667C11.6533 15.02 13.06 15.0133 13.9867 14.2067C14.52 13.7267 14.8333 13.04 14.8333 12.3333C14.8333 11.7533 14.6333 11.1933 14.2667 10.7533C13.7933 10.1667 13.0867 9.83334 12.3333 9.83334Z" fill="currentColor"/>
<path d="M11.5859 13.5866C11.4192 13.5866 11.2525 13.4999 11.1592 13.3466C11.0192 13.1066 11.0925 12.7999 11.3325 12.6599L12.0259 12.2466V11.4066C12.0259 11.1333 12.2525 10.9066 12.5259 10.9066C12.7992 10.9066 13.0259 11.1333 13.0259 11.4066V12.5333C13.0259 12.7066 12.9325 12.8733 12.7859 12.9599L11.8459 13.5199C11.7592 13.5599 11.6725 13.5866 11.5859 13.5866Z" fill="currentColor"/>
</g>
<defs>
<clipPath id="clip0_2_4540">
<rect width="16" height="16" fill="currentColor"/>
</clipPath>
</defs>
</svg>
