<svg width="16" height="16" viewBox="0 0 16 16" fill="none" xmlns="http://www.w3.org/2000/svg">
<g clip-path="url(#clip0_2_4756)">
<path d="M9.99998 15.1667H5.99998C2.37998 15.1667 0.833313 13.62 0.833313 10V6.00001C0.833313 2.38001 2.37998 0.833344 5.99998 0.833344H9.99998C13.62 0.833344 15.1666 2.38001 15.1666 6.00001V10C15.1666 10.1667 15.1666 10.3333 15.1533 10.4933C15.1333 10.7067 14.9866 10.88 14.78 10.9333C14.5733 10.9867 14.36 10.9067 14.24 10.7267C14.2333 10.72 14.1933 10.6733 14.1866 10.66C13.7266 10.1333 13.0533 9.83334 12.34 9.83334C11.66 9.83334 11.02 10.1 10.5466 10.5867C10.0933 11.0533 9.83998 11.6733 9.83998 12.3333C9.83998 12.78 9.96665 13.2267 10.2 13.62C10.3266 13.8333 10.4866 14.02 10.6666 14.18L10.7466 14.2533C10.9 14.38 10.9733 14.6 10.9133 14.7933C10.8533 14.9867 10.6933 15.1333 10.4933 15.1533C10.34 15.1667 10.1666 15.1667 9.99998 15.1667ZM5.99998 1.83334C2.92665 1.83334 1.83331 2.92668 1.83331 6.00001V10C1.83331 13.0733 2.92665 14.1667 5.99998 14.1667H9.35331C9.34665 14.16 9.33998 14.1467 9.33331 14.14C8.99998 13.5867 8.82665 12.9667 8.82665 12.3333C8.82665 11.4133 9.17998 10.5467 9.81331 9.89334C10.4666 9.22001 11.3866 8.83334 12.3266 8.83334C12.9866 8.83334 13.62 9.01334 14.16 9.35334V6.00001C14.16 2.92668 13.0666 1.83334 9.99331 1.83334H5.99998Z" fill="currentColor"/>
<path d="M14.3196 5.23992H1.67967C1.40633 5.23992 1.17967 5.01325 1.17967 4.73992C1.17967 4.46658 1.40633 4.23992 1.67967 4.23992H14.3196C14.593 4.23992 14.8196 4.46658 14.8196 4.73992C14.8196 5.01325 14.5996 5.23992 14.3196 5.23992Z" fill="currentColor"/>
<path d="M5.67967 5.14658C5.40633 5.14658 5.17967 4.91991 5.17967 4.64658V1.40658C5.17967 1.13325 5.40633 0.906583 5.67967 0.906583C5.953 0.906583 6.17967 1.13325 6.17967 1.40658V4.64658C6.17967 4.91991 5.953 5.14658 5.67967 5.14658Z" fill="currentColor"/>
<path d="M10.3203 4.84661C10.047 4.84661 9.82031 4.61994 9.82031 4.34661V1.40658C9.82031 1.13325 10.047 0.906583 10.3203 0.906583C10.5936 0.906583 10.8203 1.13325 10.8203 1.40658V4.34661C10.8203 4.62661 10.6003 4.84661 10.3203 4.84661Z" fill="currentColor"/>
<path d="M12.3332 15.8333C11.5465 15.8333 10.7798 15.5667 10.1798 15.0733C10.1598 15.06 10.1398 15.0467 10.1265 15.0333C10.0665 14.98 10.0265 14.9533 9.99318 14.9133C9.75985 14.7133 9.53318 14.4467 9.34651 14.14C9.01318 13.5867 8.83985 12.9667 8.83985 12.3333C8.83985 11.4133 9.19318 10.5467 9.82651 9.89334C10.4798 9.22001 11.3998 8.83334 12.3398 8.83334C13.3465 8.83334 14.2932 9.26001 14.9465 10.0067C14.9798 10.0333 15.0332 10.1 15.0798 10.1667C15.5598 10.7467 15.8465 11.5267 15.8465 12.3333C15.8465 12.6267 15.8132 12.9 15.7465 13.16C15.6665 13.4933 15.5332 13.82 15.3465 14.1333C14.6998 15.1867 13.5532 15.8333 12.3332 15.8333ZM10.7265 14.2333C10.7398 14.2467 10.7598 14.2533 10.7732 14.2667C11.2132 14.6333 11.7465 14.8267 12.3332 14.8267C13.2065 14.8267 14.0198 14.36 14.4732 13.6133C14.6065 13.3933 14.6998 13.1533 14.7598 12.9067C14.8065 12.72 14.8332 12.5333 14.8332 12.3267C14.8332 11.7533 14.6332 11.2 14.2665 10.76C14.2598 10.7533 14.1865 10.6667 14.1798 10.6533C13.7198 10.1267 13.0465 9.82668 12.3332 9.82668C11.6532 9.82668 11.0132 10.0933 10.5398 10.58C10.0865 11.0467 9.83318 11.6667 9.83318 12.3267C9.83318 12.7733 9.95985 13.22 10.1932 13.6133C10.3198 13.8267 10.4798 14.0133 10.6598 14.1733L10.7265 14.2333Z" fill="currentColor"/>
<path d="M13.1332 13.6201C13.0065 13.6201 12.8798 13.5735 12.7798 13.4735L11.1932 11.8868C10.9998 11.6935 10.9998 11.3735 11.1932 11.1801C11.3865 10.9868 11.7065 10.9868 11.8998 11.1801L13.4865 12.7668C13.6798 12.9601 13.6798 13.2801 13.4865 13.4735C13.3932 13.5668 13.2598 13.6201 13.1332 13.6201Z" fill="currentColor"/>
<path d="M11.5334 13.6332C11.4068 13.6332 11.2801 13.5865 11.1801 13.4865C10.9868 13.2932 10.9868 12.9732 11.1801 12.7799L12.7668 11.1932C12.9601 10.9999 13.2801 10.9999 13.4734 11.1932C13.6668 11.3865 13.6668 11.7065 13.4734 11.8999L11.8868 13.4865C11.7868 13.5865 11.6601 13.6332 11.5334 13.6332Z" fill="currentColor"/>
</g>
<defs>
<clipPath id="clip0_2_4756">
<rect width="16" height="16" fill="currentColor"/>
</clipPath>
</defs>
</svg>
