<svg width="16" height="16" viewBox="0 0 16 16" fill="none" xmlns="http://www.w3.org/2000/svg">
<g clip-path="url(#clip0_2_5249)">
<path d="M10 15.1667H6.00001C2.38001 15.1667 0.833344 13.62 0.833344 10V6.00001C0.833344 2.38001 2.38001 0.833344 6.00001 0.833344H10C13.62 0.833344 15.1667 2.38001 15.1667 6.00001V10C15.1667 13.62 13.62 15.1667 10 15.1667ZM6.00001 1.83334C2.92668 1.83334 1.83334 2.92668 1.83334 6.00001V10C1.83334 13.0733 2.92668 14.1667 6.00001 14.1667H10C13.0733 14.1667 14.1667 13.0733 14.1667 10V6.00001C14.1667 2.92668 13.0733 1.83334 10 1.83334H6.00001Z" fill="currentColor"/>
<path d="M4.59376 14.82C4.32043 14.82 4.09376 14.5933 4.09376 14.32V1.68002C4.09376 1.40669 4.32043 1.18002 4.59376 1.18002C4.86709 1.18002 5.09376 1.40002 5.09376 1.68002V14.32C5.09376 14.6 4.86709 14.82 4.59376 14.82Z" fill="currentColor"/>
<path d="M11.2604 14.82C10.9871 14.82 10.7604 14.5933 10.7604 14.32V1.68002C10.7604 1.40669 10.9871 1.18002 11.2604 1.18002C11.5337 1.18002 11.7604 1.40669 11.7604 1.68002V14.32C11.7604 14.6 11.5337 14.82 11.2604 14.82Z" fill="currentColor"/>
<path d="M4.59272 5.14682H1.69272C1.41938 5.14682 1.19272 4.92015 1.19272 4.64682C1.19272 4.37348 1.41938 4.14682 1.69272 4.14682H4.59272C4.86605 4.14682 5.09272 4.37348 5.09272 4.64682C5.09272 4.92015 4.86605 5.14682 4.59272 5.14682Z" fill="currentColor"/>
<path d="M4.59288 8.50001H1.35288C1.07954 8.50001 0.852877 8.27334 0.852877 8.00001C0.852877 7.72668 1.07954 7.50001 1.35288 7.50001H4.59288C4.86621 7.50001 5.09288 7.72668 5.09288 8.00001C5.09288 8.27334 4.86621 8.50001 4.59288 8.50001Z" fill="currentColor"/>
<path d="M4.59366 11.8135H1.65366C1.38032 11.8135 1.15366 11.5868 1.15366 11.3135C1.15366 11.0401 1.38032 10.8135 1.65366 10.8135H4.59366C4.86699 10.8135 5.09366 11.0401 5.09366 11.3135C5.09366 11.5868 4.86699 11.8135 4.59366 11.8135Z" fill="currentColor"/>
<path d="M14.5927 5.14682H11.6927C11.4194 5.14682 11.1927 4.92015 11.1927 4.64682C11.1927 4.37348 11.4194 4.14682 11.6927 4.14682H14.5927C14.8661 4.14682 15.0927 4.37348 15.0927 4.64682C15.0927 4.92015 14.8661 5.14682 14.5927 5.14682Z" fill="currentColor"/>
<path d="M14.5929 8.50001H11.3529C11.0795 8.50001 10.8529 8.27334 10.8529 8.00001C10.8529 7.72668 11.0795 7.50001 11.3529 7.50001H14.5929C14.8662 7.50001 15.0929 7.72668 15.0929 8.00001C15.0929 8.27334 14.8662 8.50001 14.5929 8.50001Z" fill="currentColor"/>
<path d="M11.3138 8.50001H3.98048C3.70714 8.50001 3.48048 8.27334 3.48048 8.00001C3.48048 7.72668 3.70714 7.50001 3.98048 7.50001H11.3138C11.5871 7.50001 11.8138 7.72668 11.8138 8.00001C11.8138 8.27334 11.5938 8.50001 11.3138 8.50001Z" fill="currentColor"/>
<path d="M14.5937 11.8135H11.6537C11.3803 11.8135 11.1537 11.5868 11.1537 11.3135C11.1537 11.0401 11.3803 10.8135 11.6537 10.8135H14.5937C14.867 10.8135 15.0937 11.0401 15.0937 11.3135C15.0937 11.5868 14.867 11.8135 14.5937 11.8135Z" fill="currentColor"/>
</g>
<defs>
<clipPath id="clip0_2_5249">
<rect width="16" height="16" fill="currentColor"/>
</clipPath>
</defs>
</svg>
