<svg width="16" height="16" viewBox="0 0 16 16" fill="none" xmlns="http://www.w3.org/2000/svg">
<g clip-path="url(#clip0_2_4543)">
<path d="M2.86664 13.28C2.75331 13.28 2.63998 13.24 2.54664 13.1667C1.87331 12.6133 1.49998 11.7267 1.49998 10.6667V5.33333C1.49998 3.05333 2.38664 2.16666 4.66664 2.16666H8.66664C10.0266 2.16666 11.4533 2.41999 11.76 4.31999C11.8066 4.59333 11.62 4.84666 11.3466 4.89333C11.0733 4.93999 10.82 4.75332 10.7733 4.47999C10.6333 3.61333 10.2666 3.16666 8.66664 3.16666H4.66664C2.94664 3.16666 2.49998 3.61333 2.49998 5.33333V10.6667C2.49998 11.1 2.58664 11.9067 3.17998 12.3933C3.39331 12.5667 3.42664 12.8867 3.24664 13.1C3.15331 13.22 3.00664 13.28 2.86664 13.28Z" fill="currentColor"/>
<path d="M8.66664 13.8333H5.33331C5.05998 13.8333 4.83331 13.6067 4.83331 13.3333C4.83331 13.06 5.05998 12.8333 5.33331 12.8333H8.66664C10.3866 12.8333 10.8333 12.3867 10.8333 10.6667V7.33333C10.8333 7.05999 11.06 6.83333 11.3333 6.83333C11.6066 6.83333 11.8333 7.05999 11.8333 7.33333V10.6667C11.8333 12.9467 10.9466 13.8333 8.66664 13.8333Z" fill="currentColor"/>
<path d="M13.8668 12.0267C13.5802 12.0267 13.2268 11.9333 12.8068 11.64L11.0468 10.4067C10.8202 10.2467 10.7668 9.93332 10.9268 9.71333C11.0868 9.48666 11.3935 9.43333 11.6202 9.59333L13.3802 10.8267C13.6735 11.0333 13.8868 11.0533 13.9735 11.0067C14.0602 10.96 14.1668 10.78 14.1668 10.42V4.66666C14.1668 4.39333 14.3935 4.16666 14.6668 4.16666C14.9402 4.16666 15.1668 4.39333 15.1668 4.66666V10.4133C15.1668 11.3667 14.7068 11.7467 14.4335 11.8867C14.3068 11.9533 14.1135 12.0267 13.8668 12.0267Z" fill="currentColor"/>
<path d="M1.34727 15.2933C1.2206 15.2933 1.09394 15.2466 0.993938 15.1466C0.800605 14.9533 0.800605 14.6333 0.993938 14.4399L14.3272 1.10658C14.5206 0.913245 14.8406 0.913245 15.0339 1.10658C15.2272 1.29991 15.2272 1.61991 15.0339 1.81325L1.7006 15.1466C1.60727 15.2466 1.47394 15.2933 1.34727 15.2933Z" fill="currentColor"/>
</g>
<defs>
<clipPath id="clip0_2_4543">
<rect width="16" height="16" fill="currentColor"/>
</clipPath>
</defs>
</svg>
