<svg width="16" height="16" viewBox="0 0 16 16" fill="none" xmlns="http://www.w3.org/2000/svg">
<path d="M8.00015 15.1667C7.55348 15.1667 7.10009 15.0534 6.70008 14.8201L2.74011 12.5334C1.94011 12.0667 1.44012 11.2067 1.44012 10.2801V5.72007C1.44012 4.7934 1.94011 3.9334 2.74011 3.46674L6.70008 1.18008C7.50008 0.713411 8.49348 0.713411 9.30015 1.18008L13.2602 3.46674C14.0602 3.9334 14.5601 4.7934 14.5601 5.72007V10.2801C14.5601 11.2067 14.0602 12.0667 13.2602 12.5334L9.30015 14.8201C8.90015 15.0534 8.44682 15.1667 8.00015 15.1667ZM8.00015 1.8334C7.72682 1.8334 7.44675 1.90673 7.20008 2.04673L3.24011 4.3334C2.74678 4.62006 2.44012 5.14674 2.44012 5.72007V10.2801C2.44012 10.8467 2.74678 11.3801 3.24011 11.6667L7.20008 13.9534C7.69342 14.2401 8.30682 14.2401 8.80015 13.9534L12.7602 11.6667C13.2535 11.3801 13.5601 10.8534 13.5601 10.2801V5.72007C13.5601 5.1534 13.2535 4.62006 12.7602 4.3334L8.80015 2.04673C8.55348 1.90673 8.27348 1.8334 8.00015 1.8334Z" fill="currentColor"/>
<path d="M7.39349 10.4469C7.15348 10.4469 6.92682 10.3869 6.72015 10.2735C6.26017 10.0069 5.9935 9.46687 5.9935 8.79353V7.19353C5.9935 6.52018 6.26017 5.9802 6.72015 5.71353C7.18015 5.44687 7.78022 5.48685 8.36022 5.82685L9.74682 6.62686C10.3268 6.9602 10.6668 7.4602 10.6668 7.99353C10.6668 8.52687 10.3335 9.0202 9.74682 9.3602L8.36022 10.1602C8.04022 10.3535 7.70682 10.4469 7.39349 10.4469ZM7.40022 6.54686C7.33355 6.54686 7.27349 6.5602 7.22682 6.58686C7.08682 6.66686 7.00015 6.89353 7.00015 7.2002V8.8002C7.00015 9.1002 7.08682 9.32687 7.22682 9.41353C7.36682 9.49353 7.60682 9.45353 7.86682 9.3002L9.25348 8.5002C9.51348 8.34687 9.66682 8.1602 9.66682 8.0002C9.66682 7.8402 9.51348 7.65353 9.25348 7.5002L7.86682 6.7002C7.69348 6.60018 7.52688 6.54686 7.40022 6.54686Z" fill="currentColor"/>
</svg>
