<svg width="16" height="16" viewBox="0 0 16 16" fill="none" xmlns="http://www.w3.org/2000/svg">
<g clip-path="url(#clip0_2_4541)">
<path d="M10 15.1667H6.00001C2.38001 15.1667 0.833344 13.62 0.833344 10V6.00001C0.833344 2.38001 2.38001 0.833344 6.00001 0.833344H10C13.62 0.833344 15.1667 2.38001 15.1667 6.00001V10C15.1667 10.16 15.1667 10.3267 15.1533 10.48C15.1333 10.68 14.9933 10.8533 14.8 10.9133C14.6067 10.9733 14.3933 10.9067 14.2667 10.7467C13.7933 10.1667 13.0933 9.83334 12.3333 9.83334C11.7667 9.83334 11.2133 10.0267 10.7733 10.38C10.1733 10.8533 9.83334 11.56 9.83334 12.3333C9.83334 12.78 9.96001 13.2267 10.1933 13.62C10.34 13.8667 10.5333 14.0867 10.7533 14.26C10.9133 14.3867 10.98 14.6 10.92 14.7933C10.86 14.9867 10.6933 15.1267 10.4867 15.1467C10.3333 15.1667 10.1667 15.1667 10 15.1667ZM6.00001 1.83334C2.92668 1.83334 1.83334 2.92668 1.83334 6.00001V10C1.83334 13.0733 2.92668 14.1667 6.00001 14.1667H9.35334C9.34668 14.16 9.34001 14.1467 9.33334 14.14C9.00001 13.5933 8.82668 12.9667 8.82668 12.3333C8.82668 11.2533 9.30668 10.26 10.1467 9.60001C11.2667 8.69334 12.9667 8.61334 14.16 9.34668V6.00001C14.16 2.92668 13.0667 1.83334 9.99334 1.83334H6.00001Z" fill="currentColor"/>
<path d="M14.3197 5.23992H1.6797C1.40636 5.23992 1.1797 5.01325 1.1797 4.73992C1.1797 4.46658 1.40636 4.23992 1.6797 4.23992H14.3197C14.593 4.23992 14.8197 4.46658 14.8197 4.73992C14.8197 5.01325 14.5997 5.23992 14.3197 5.23992Z" fill="currentColor"/>
<path d="M5.6797 5.14658C5.40636 5.14658 5.1797 4.91991 5.1797 4.64658V1.40658C5.1797 1.13325 5.40636 0.906583 5.6797 0.906583C5.95303 0.906583 6.1797 1.13325 6.1797 1.40658V4.64658C6.1797 4.91991 5.95303 5.14658 5.6797 5.14658Z" fill="currentColor"/>
<path d="M10.3203 4.84661C10.047 4.84661 9.82034 4.61994 9.82034 4.34661V1.40658C9.82034 1.13325 10.047 0.906583 10.3203 0.906583C10.5937 0.906583 10.8203 1.13325 10.8203 1.40658V4.34661C10.8203 4.62661 10.6003 4.84661 10.3203 4.84661Z" fill="currentColor"/>
<path d="M12.3333 15.8333C11.5467 15.8333 10.7867 15.5667 10.1733 15.08C10.16 15.0667 10.14 15.06 10.1267 15.0467C9.81334 14.7933 9.54668 14.4933 9.34001 14.14C9.00668 13.5933 8.83334 12.9667 8.83334 12.3333C8.83334 11.2533 9.31334 10.26 10.1533 9.60001C10.7667 9.10668 11.54 8.83334 12.3333 8.83334C13.3933 8.83334 14.38 9.30001 15.04 10.12C15.5467 10.7333 15.8333 11.52 15.8333 12.3333C15.8333 12.9667 15.66 13.5867 15.3267 14.14C15.1333 14.46 14.9 14.7333 14.6333 14.9667C14 15.5267 13.1867 15.8333 12.3333 15.8333ZM10.7133 14.2333C10.7333 14.2467 10.7467 14.26 10.7667 14.2733C11.2067 14.64 11.76 14.84 12.3333 14.84C12.9467 14.84 13.5133 14.6267 13.9733 14.22C14.1667 14.0533 14.3333 13.8533 14.4733 13.6333C14.7067 13.24 14.8333 12.7933 14.8333 12.3467C14.8333 11.7667 14.6333 11.2067 14.2667 10.7667C13.7933 10.18 13.0867 9.84668 12.3333 9.84668C11.7667 9.84668 11.2133 10.04 10.7733 10.3933C10.1733 10.8667 9.83334 11.5733 9.83334 12.3467C9.83334 12.7933 9.96001 13.24 10.1933 13.6333C10.3333 13.8533 10.5067 14.06 10.7133 14.2333Z" fill="currentColor"/>
<path d="M11.8998 13.5731C11.7731 13.5731 11.6465 13.5265 11.5465 13.4265L10.8065 12.6865C10.6131 12.4931 10.6131 12.1731 10.8065 11.9797C10.9998 11.7864 11.3198 11.7864 11.5131 11.9797L11.9131 12.3798L13.1598 11.2265C13.3598 11.0398 13.6798 11.0531 13.8665 11.2531C14.0531 11.4531 14.0398 11.7731 13.8398 11.9598L12.2398 13.4397C12.1465 13.5264 12.0265 13.5731 11.8998 13.5731Z" fill="currentColor"/>
</g>
<defs>
<clipPath id="clip0_2_4541">
<rect width="16" height="16" fill="currentColor"/>
</clipPath>
</defs>
</svg>
