<svg width="16" height="16" viewBox="0 0 16 16" fill="none" xmlns="http://www.w3.org/2000/svg">
<g clip-path="url(#clip0_2_4549)">
<path d="M9.99998 15.1667H5.99998C2.37998 15.1667 0.833313 13.62 0.833313 10V6C0.833313 2.38 2.37998 0.833328 5.99998 0.833328H9.99998C13.62 0.833328 15.1666 2.38 15.1666 6V10C15.1666 10.1667 15.1666 10.3333 15.1533 10.4933C15.1333 10.7067 14.9866 10.88 14.78 10.9333C14.5733 10.9867 14.36 10.9067 14.24 10.7267C14.22 10.7067 14.18 10.66 14.1533 10.6267C13.6733 10.1133 13.02 9.83333 12.3333 9.83333C11.6533 9.83333 11.0133 10.1 10.54 10.5867C10.0866 11.0533 9.83331 11.6733 9.83331 12.3333C9.83331 12.78 9.95998 13.2267 10.1933 13.62C10.3133 13.82 10.46 14.0067 10.6266 14.1533C10.6533 14.1733 10.6733 14.1933 10.6866 14.2067L10.74 14.2533C10.8933 14.38 10.9666 14.6 10.9066 14.7933C10.8466 14.9867 10.6866 15.1333 10.4866 15.1533C10.34 15.1667 10.1666 15.1667 9.99998 15.1667ZM5.99998 1.83333C2.92665 1.83333 1.83331 2.92666 1.83331 6V10C1.83331 13.0733 2.92665 14.1667 5.99998 14.1667H9.35331C9.34665 14.1533 9.33998 14.1467 9.33331 14.1333C9.00665 13.5867 8.82665 12.96 8.82665 12.3333C8.82665 11.4133 9.17998 10.5467 9.81331 9.89333C10.4666 9.22 11.3866 8.83333 12.3266 8.83333C12.98 8.83333 13.62 9.01333 14.16 9.35333V6C14.16 2.92666 13.0666 1.83333 9.99331 1.83333H5.99998Z" fill="currentColor"/>
<path d="M14.3196 5.2399H1.67967C1.40633 5.2399 1.17967 5.01324 1.17967 4.7399C1.17967 4.46657 1.40633 4.2399 1.67967 4.2399H14.3196C14.593 4.2399 14.8196 4.46657 14.8196 4.7399C14.8196 5.01324 14.5996 5.2399 14.3196 5.2399Z" fill="currentColor"/>
<path d="M5.67967 5.14656C5.40633 5.14656 5.17967 4.9199 5.17967 4.64656V1.40657C5.17967 1.13323 5.40633 0.906568 5.67967 0.906568C5.953 0.906568 6.17967 1.13323 6.17967 1.40657V4.64656C6.17967 4.9199 5.953 5.14656 5.67967 5.14656Z" fill="currentColor"/>
<path d="M10.3203 4.84659C10.047 4.84659 9.82031 4.61993 9.82031 4.34659V1.40657C9.82031 1.13323 10.047 0.906568 10.3203 0.906568C10.5936 0.906568 10.8203 1.13323 10.8203 1.40657V4.34659C10.8203 4.6266 10.6003 4.84659 10.3203 4.84659Z" fill="currentColor"/>
<path d="M12.3332 15.8333C11.5465 15.8333 10.7798 15.5667 10.1798 15.0733C10.1598 15.06 10.1398 15.0467 10.1265 15.0333C10.0798 14.9933 10.0465 14.9667 10.0198 14.94C10.0065 14.9333 9.99985 14.9267 9.99318 14.9133C9.74651 14.6933 9.51985 14.4267 9.34651 14.1333C9.01985 13.5867 8.83985 12.96 8.83985 12.3333C8.83985 11.4133 9.19318 10.5467 9.82651 9.89333C10.4798 9.22 11.3998 8.83333 12.3398 8.83333C13.3265 8.83333 14.2665 9.24666 14.9198 9.97333C14.9265 9.97999 14.9398 9.99333 14.9465 10.0067C14.9932 10.0533 15.0398 10.1133 15.0732 10.1667C15.5532 10.7467 15.8398 11.5267 15.8398 12.3333C15.8398 12.6267 15.8065 12.9 15.7398 13.16C15.6598 13.4933 15.5265 13.82 15.3398 14.1333C14.6998 15.1867 13.5532 15.8333 12.3332 15.8333ZM10.7265 14.2333C10.7465 14.2467 10.7598 14.2533 10.7732 14.2667C11.2132 14.6333 11.7465 14.8267 12.3332 14.8267C13.2065 14.8267 14.0198 14.36 14.4732 13.6133C14.6065 13.3933 14.6998 13.1533 14.7598 12.9067C14.8065 12.72 14.8332 12.5333 14.8332 12.3267C14.8332 11.7533 14.6332 11.2 14.2665 10.76L14.2065 10.68C14.1865 10.66 14.1665 10.64 14.1532 10.6133C13.6732 10.1067 13.0198 9.82666 12.3332 9.82666C11.6532 9.82666 11.0132 10.0933 10.5398 10.58C10.0865 11.0467 9.83318 11.6667 9.83318 12.3267C9.83318 12.7733 9.95985 13.22 10.1932 13.6133C10.3132 13.8133 10.4598 14 10.6265 14.1467C10.6532 14.1667 10.6732 14.1867 10.6865 14.2L10.7265 14.2333Z" fill="currentColor"/>
<path d="M13.4535 12.82H11.2135C10.9402 12.82 10.7135 12.5933 10.7135 12.32C10.7135 12.0467 10.9402 11.82 11.2135 11.82H13.4535C13.7268 11.82 13.9535 12.0467 13.9535 12.32C13.9535 12.5933 13.7335 12.82 13.4535 12.82Z" fill="currentColor"/>
<path d="M12.3333 13.9665C12.06 13.9665 11.8333 13.7399 11.8333 13.4665V11.2265C11.8333 10.9532 12.06 10.7265 12.3333 10.7265C12.6066 10.7265 12.8333 10.9532 12.8333 11.2265V13.4665C12.8333 13.7465 12.6066 13.9665 12.3333 13.9665Z" fill="currentColor"/>
</g>
<defs>
<clipPath id="clip0_2_4549">
<rect width="16" height="16" fill="currentColor"/>
</clipPath>
</defs>
</svg>
