<svg width="16" height="16" viewBox="0 0 16 16" fill="none" xmlns="http://www.w3.org/2000/svg">
<g clip-path="url(#clip0_2_4539)">
<path d="M4.00001 9.92674C3.72668 9.92674 3.50001 9.70008 3.50001 9.42674V6.56674C3.50001 6.29341 3.72668 6.06674 4.00001 6.06674C4.27334 6.06674 4.50001 6.29341 4.50001 6.56674V9.42674C4.50001 9.70674 4.27334 9.92674 4.00001 9.92674Z" fill="currentColor"/>
<path d="M6.00001 10.8798C5.72668 10.8798 5.50001 10.6531 5.50001 10.3798V5.6198C5.50001 5.34647 5.72668 5.1198 6.00001 5.1198C6.27334 5.1198 6.50001 5.34647 6.50001 5.6198V10.3798C6.50001 10.6598 6.27334 10.8798 6.00001 10.8798Z" fill="currentColor"/>
<path d="M8.00001 11.8333C7.72668 11.8333 7.50001 11.6067 7.50001 11.3333V4.66668C7.50001 4.39334 7.72668 4.16668 8.00001 4.16668C8.27334 4.16668 8.50001 4.39334 8.50001 4.66668V11.3333C8.50001 11.6067 8.27334 11.8333 8.00001 11.8333Z" fill="currentColor"/>
<path d="M10 10.8798C9.72668 10.8798 9.50001 10.6531 9.50001 10.3798V5.6198C9.50001 5.34647 9.72668 5.1198 10 5.1198C10.2733 5.1198 10.5 5.34647 10.5 5.6198V10.3798C10.5 10.6598 10.2733 10.8798 10 10.8798Z" fill="currentColor"/>
<path d="M12 9.92674C11.7267 9.92674 11.5 9.70008 11.5 9.42674V6.56674C11.5 6.29341 11.7267 6.06674 12 6.06674C12.2733 6.06674 12.5 6.29341 12.5 6.56674V9.42674C12.5 9.70674 12.2733 9.92674 12 9.92674Z" fill="currentColor"/>
<path d="M8.00001 15.1667C4.04668 15.1667 0.833344 11.9533 0.833344 8.00001C0.833344 4.04668 4.04668 0.833344 8.00001 0.833344C11.9533 0.833344 15.1667 4.04668 15.1667 8.00001C15.1667 11.9533 11.9533 15.1667 8.00001 15.1667ZM8.00001 1.83334C4.60001 1.83334 1.83334 4.60001 1.83334 8.00001C1.83334 11.4 4.60001 14.1667 8.00001 14.1667C11.4 14.1667 14.1667 11.4 14.1667 8.00001C14.1667 4.60001 11.4 1.83334 8.00001 1.83334Z" fill="currentColor"/>
</g>
<defs>
<clipPath id="clip0_2_4539">
<rect width="16" height="16" fill="currentColor"/>
</clipPath>
</defs>
</svg>
