<svg width="16" height="16" viewBox="0 0 16 16" fill="none" xmlns="http://www.w3.org/2000/svg">
<path d="M8.36668 13.7267C7.84001 13.7267 7.26001 13.5401 6.68001 13.1734L4.73334 11.9534C4.60001 11.8734 4.44668 11.8267 4.29334 11.8267H3.33334C1.72001 11.8267 0.833344 10.9401 0.833344 9.32672V6.66006C0.833344 5.04673 1.72001 4.16006 3.33334 4.16006H4.28668C4.44001 4.16006 4.59334 4.11339 4.72668 4.03339L6.67334 2.81339C7.64668 2.20673 8.59334 2.09339 9.34001 2.50673C10.0867 2.92006 10.4933 3.78006 10.4933 4.93339V11.0467C10.4933 12.1934 10.08 13.0601 9.34001 13.4734C9.04668 13.6467 8.71334 13.7267 8.36668 13.7267ZM3.33334 5.16673C2.28001 5.16673 1.83334 5.61339 1.83334 6.66672V9.33339C1.83334 10.3867 2.28001 10.8334 3.33334 10.8334H4.28668C4.63334 10.8334 4.96668 10.9267 5.26001 11.1134L7.20668 12.3334C7.84668 12.7334 8.45334 12.8401 8.86001 12.6134C9.26668 12.3867 9.50001 11.8201 9.50001 11.0667V4.94006C9.50001 4.18006 9.26668 3.61339 8.86001 3.39339C8.45334 3.16673 7.84668 3.26673 7.20668 3.67339L5.25334 4.88673C4.96668 5.07339 4.62668 5.16673 4.28668 5.16673H3.33334Z" fill="currentColor"/>
<path d="M12.0002 11.1665C11.8935 11.1665 11.7935 11.1332 11.7002 11.0665C11.4802 10.8999 11.4335 10.5865 11.6002 10.3665C12.6469 8.97319 12.6469 7.02652 11.6002 5.63317C11.4335 5.41317 11.4802 5.09984 11.7002 4.93317C11.9202 4.76651 12.2335 4.81317 12.4002 5.03317C13.7069 6.77985 13.7069 9.21985 12.4002 10.9665C12.3002 11.0999 12.1535 11.1665 12.0002 11.1665Z" fill="currentColor"/>
<path d="M13.2203 12.8332C13.1136 12.8332 13.0136 12.7999 12.9203 12.7332C12.7003 12.5665 12.6536 12.2532 12.8203 12.0332C14.6003 9.65985 14.6003 6.33984 12.8203 3.96651C12.6536 3.74651 12.7003 3.43317 12.9203 3.26651C13.1403 3.09984 13.4536 3.14651 13.6203 3.36651C15.6669 6.09317 15.6669 9.90652 13.6203 12.6332C13.5269 12.7665 13.3736 12.8332 13.2203 12.8332Z" fill="currentColor"/>
</svg>
