<svg width="16" height="16" viewBox="0 0 16 16" fill="none" xmlns="http://www.w3.org/2000/svg">
<path d="M9.25339 13.7267C8.72673 13.7267 8.14673 13.5401 7.56673 13.1734L5.62005 11.9534C5.48671 11.8734 5.33338 11.8267 5.18005 11.8267H4.22005C2.60671 11.8267 1.72005 10.9401 1.72005 9.32672V6.66006C1.72005 5.04673 2.60671 4.16006 4.22005 4.16006H5.17338C5.32671 4.16006 5.48005 4.11339 5.61338 4.03339L7.56006 2.81339C8.53339 2.20673 9.48006 2.09339 10.2267 2.50673C10.9734 2.92006 11.3801 3.78006 11.3801 4.93339V11.0467C11.3801 12.1934 10.9667 13.0601 10.2267 13.4734C9.93339 13.6467 9.60673 13.7267 9.25339 13.7267ZM4.22005 5.16673C3.16671 5.16673 2.72005 5.61339 2.72005 6.66672V9.33339C2.72005 10.3867 3.16671 10.8334 4.22005 10.8334H5.17338C5.52005 10.8334 5.85338 10.9267 6.14671 11.1134L8.09339 12.3334C8.74006 12.7334 9.34006 12.8401 9.74673 12.6134C10.1534 12.3867 10.3867 11.8201 10.3867 11.0667V4.94006C10.3867 4.18006 10.1534 3.61339 9.74673 3.39339C9.34006 3.16673 8.74006 3.26673 8.09339 3.67339L6.14671 4.88673C5.85338 5.07339 5.52005 5.16673 5.17338 5.16673H4.22005Z" fill="currentColor"/>
<path d="M12.8869 11.1665C12.7803 11.1665 12.6803 11.1332 12.5869 11.0665C12.3669 10.8999 12.3203 10.5865 12.4869 10.3665C13.5336 8.97319 13.5336 7.02652 12.4869 5.63317C12.3203 5.41317 12.3669 5.09984 12.5869 4.93317C12.8069 4.76651 13.1203 4.81317 13.2869 5.03317C14.6003 6.77985 14.6003 9.21985 13.2869 10.9665C13.1936 11.0999 13.0403 11.1665 12.8869 11.1665Z" fill="currentColor"/>
</svg>
