<svg width="16" height="16" viewBox="0 0 16 16" fill="none" xmlns="http://www.w3.org/2000/svg">
<path d="M8.50666 13.8333C7.96666 13.8333 7.38666 13.6467 6.78666 13.2733L4.79999 12.0333C4.65999 11.9467 4.50666 11.9 4.34666 11.9H3.37333C1.73333 11.9 0.833328 11 0.833328 9.36V6.63997C0.833328 4.99997 1.73333 4.09997 3.37333 4.09997H4.34666C4.50666 4.09997 4.66666 4.05331 4.79999 3.96664L6.78666 2.72664C7.77999 2.10664 8.73999 1.99331 9.49999 2.41997C10.26 2.83997 10.6733 3.71331 10.6733 4.88664V11.1267C10.6733 12.2933 10.2533 13.1733 9.49999 13.5933C9.19999 13.7533 8.86666 13.8333 8.50666 13.8333ZM3.37333 5.09997C2.29333 5.09997 1.83333 5.55997 1.83333 6.63997V9.36C1.83333 10.44 2.29333 10.9 3.37333 10.9H4.34666C4.69333 10.9 5.03333 11 5.33333 11.18L7.31999 12.42C7.97999 12.8333 8.59999 12.9333 9.01999 12.7067C9.43999 12.4733 9.67999 11.8933 9.67999 11.12V4.87997C9.67999 4.09997 9.43999 3.51997 9.01999 3.29331C8.59999 3.05997 7.97999 3.16664 7.31999 3.57997L5.33333 4.81331C5.03333 4.99997 4.69333 5.09997 4.34666 5.09997H3.37333Z" fill="currentColor"/>
<path d="M14.6667 8.5H12C11.7267 8.5 11.5 8.27333 11.5 8C11.5 7.72667 11.7267 7.5 12 7.5H14.6667C14.94 7.5 15.1667 7.72667 15.1667 8C15.1667 8.27333 14.94 8.5 14.6667 8.5Z" fill="currentColor"/>
</svg>
