<svg width="16" height="16" viewBox="0 0 16 16" fill="none" xmlns="http://www.w3.org/2000/svg">
<path d="M10.7 13.7267C10.1733 13.7267 9.59334 13.5401 9.01334 13.1734L7.06667 11.9534C6.93334 11.8734 6.78 11.8267 6.62667 11.8267H5.66667C4.05334 11.8267 3.16667 10.9401 3.16667 9.32672V6.66006C3.16667 5.04673 4.05334 4.16006 5.66667 4.16006H6.62001C6.77334 4.16006 6.92667 4.11339 7.06001 4.03339L9.00667 2.81339C9.98001 2.20673 10.9267 2.09339 11.6733 2.50673C12.42 2.92006 12.8267 3.78006 12.8267 4.93339V11.0467C12.8267 12.1934 12.4133 13.0601 11.6733 13.4734C11.38 13.6467 11.0467 13.7267 10.7 13.7267ZM5.66667 5.16673C4.61334 5.16673 4.16667 5.61339 4.16667 6.66672V9.33339C4.16667 10.3867 4.61334 10.8334 5.66667 10.8334H6.62001C6.96667 10.8334 7.30001 10.9267 7.59334 11.1134L9.54001 12.3334C10.1867 12.7334 10.7867 12.8401 11.1933 12.6134C11.6 12.3867 11.8333 11.8201 11.8333 11.0667V4.94006C11.8333 4.18006 11.6 3.61339 11.1933 3.39339C10.7867 3.16673 10.1867 3.26673 9.54001 3.67339L7.59334 4.89339C7.30001 5.07339 6.96667 5.17339 6.62001 5.17339H5.66667V5.16673Z" fill="currentColor"/>
</svg>
