<svg width="16" height="16" viewBox="0 0 16 16" fill="none" xmlns="http://www.w3.org/2000/svg">
<g clip-path="url(#clip0_2_4553)">
<path d="M4.66667 11.8333H3.33334C1.72 11.8333 0.833336 10.9466 0.833336 9.33327V6.66658C0.833336 5.05325 1.72 4.16658 3.33334 4.16658H4.28667C4.44 4.16658 4.59334 4.11991 4.72667 4.03991L6.67334 2.81991C7.64667 2.21325 8.59334 2.09991 9.34 2.51325C10.0867 2.92658 10.4933 3.78658 10.4933 4.93991V5.57991C10.4933 5.85325 10.2667 6.07991 9.99334 6.07991C9.72 6.07991 9.49334 5.85325 9.49334 5.57991V4.93991C9.49334 4.17991 9.26 3.61325 8.85334 3.39325C8.44667 3.16658 7.84667 3.26658 7.2 3.67325L5.25334 4.88658C4.96667 5.07325 4.62667 5.16658 4.28667 5.16658H3.33334C2.28 5.16658 1.83334 5.61325 1.83334 6.66658V9.33327C1.83334 10.3866 2.28 10.8333 3.33334 10.8333H4.66667C4.94 10.8333 5.16667 11.0599 5.16667 11.3333C5.16667 11.6066 4.94 11.8333 4.66667 11.8333Z" fill="currentColor"/>
<path d="M8.3664 13.7268C7.83974 13.7268 7.25974 13.5401 6.67974 13.1735C6.4464 13.0268 6.37307 12.7201 6.51974 12.4868C6.6664 12.2535 6.97307 12.1801 7.2064 12.3268C7.85307 12.7268 8.45307 12.8335 8.85974 12.6068C9.2664 12.3801 9.49974 11.8135 9.49974 11.0601V8.63347C9.49974 8.36013 9.7264 8.13347 9.99974 8.13347C10.2731 8.13347 10.4997 8.36013 10.4997 8.63347V11.0601C10.4997 12.2068 10.0864 13.0735 9.3464 13.4868C9.0464 13.6468 8.71307 13.7268 8.3664 13.7268Z" fill="currentColor"/>
<path d="M12.0002 11.1665C11.8935 11.1665 11.7935 11.1332 11.7002 11.0665C11.4802 10.8999 11.4335 10.5865 11.6002 10.3665C12.4402 9.24653 12.6202 7.75987 12.0802 6.47322C11.9735 6.21989 12.0935 5.92655 12.3469 5.81989C12.6002 5.71322 12.8935 5.83322 13.0002 6.08655C13.6802 7.69987 13.4469 9.5732 12.4002 10.9732C12.3002 11.0999 12.1535 11.1665 12.0002 11.1665Z" fill="currentColor"/>
<path d="M13.2203 12.8335C13.1136 12.8335 13.0136 12.8001 12.9203 12.7335C12.7003 12.5668 12.6536 12.2535 12.8203 12.0335C14.2469 10.1335 14.5603 7.5868 13.6403 5.39347C13.5336 5.14013 13.6536 4.8468 13.9069 4.74013C14.1669 4.63347 14.4536 4.75347 14.5603 5.0068C15.6203 7.5268 15.2603 10.4468 13.6203 12.6335C13.5269 12.7668 13.3736 12.8335 13.2203 12.8335Z" fill="currentColor"/>
<path d="M1.33297 15.1666C1.2063 15.1666 1.07964 15.1199 0.979636 15.0199C0.786303 14.8266 0.786303 14.5066 0.979636 14.3133L14.313 0.979961C14.5063 0.786628 14.8263 0.786628 15.0197 0.979961C15.213 1.17329 15.213 1.49329 15.0197 1.68663L1.6863 15.0199C1.5863 15.1199 1.45964 15.1666 1.33297 15.1666Z" fill="currentColor"/>
</g>
<defs>
<clipPath id="clip0_2_4553">
<rect width="16" height="16" fill="currentColor"/>
</clipPath>
</defs>
</svg>
