<svg width="16" height="16" viewBox="0 0 16 16" fill="none" xmlns="http://www.w3.org/2000/svg">
<path d="M8.36668 13.7267C7.84001 13.7267 7.26001 13.5401 6.68001 13.1734L4.73334 11.9534C4.60001 11.8734 4.44668 11.8267 4.29334 11.8267H3.33334C1.72001 11.8267 0.833344 10.9401 0.833344 9.32672V6.66006C0.833344 5.04673 1.72001 4.16006 3.33334 4.16006H4.28668C4.44001 4.16006 4.59334 4.11339 4.72668 4.03339L6.67334 2.81339C7.64668 2.20673 8.59334 2.09339 9.34001 2.50673C10.0867 2.92006 10.4933 3.78006 10.4933 4.93339V11.0467C10.4933 12.1934 10.08 13.0601 9.34001 13.4734C9.04668 13.6467 8.71334 13.7267 8.36668 13.7267ZM3.33334 5.16673C2.28001 5.16673 1.83334 5.61339 1.83334 6.66672V9.33339C1.83334 10.3867 2.28001 10.8334 3.33334 10.8334H4.28668C4.63334 10.8334 4.96668 10.9267 5.26001 11.1134L7.20668 12.3334C7.85334 12.7334 8.45334 12.8401 8.86001 12.6134C9.26668 12.3867 9.50001 11.8201 9.50001 11.0667V4.94006C9.50001 4.18006 9.26668 3.61339 8.86001 3.39339C8.45334 3.16673 7.84668 3.26673 7.20668 3.67339L5.25334 4.88673C4.96668 5.07339 4.62668 5.16673 4.28668 5.16673H3.33334Z" fill="currentColor"/>
<path d="M14.667 9.80659C14.5403 9.80659 14.4137 9.75992 14.3137 9.65992L11.6737 7.01992C11.4803 6.82659 11.4803 6.50661 11.6737 6.31328C11.867 6.11995 12.187 6.11995 12.3803 6.31328L15.0203 8.95325C15.2137 9.14659 15.2137 9.46659 15.0203 9.65992C14.9203 9.75325 14.7937 9.80659 14.667 9.80659Z" fill="currentColor"/>
<path d="M11.9997 9.83332C11.873 9.83332 11.7463 9.78665 11.6463 9.68665C11.453 9.49332 11.453 9.17332 11.6463 8.97999L14.2863 6.33997C14.4797 6.14664 14.7997 6.14664 14.993 6.33997C15.1863 6.53331 15.1863 6.85332 14.993 7.04665L12.353 9.68665C12.253 9.78665 12.1263 9.83332 11.9997 9.83332Z" fill="currentColor"/>
</svg>
