<svg width="16" height="16" viewBox="0 0 16 16" fill="none" xmlns="http://www.w3.org/2000/svg">
<path d="M8.50667 13.8333C7.96667 13.8333 7.38667 13.6467 6.78667 13.2733L4.8 12.0333C4.66 11.9467 4.50667 11.9 4.34667 11.9H3.37334C1.73334 11.9 0.833336 11 0.833336 9.36V6.63997C0.833336 4.99997 1.73334 4.09997 3.37334 4.09997H4.34667C4.50667 4.09997 4.66667 4.05331 4.8 3.96664L6.78667 2.72664C7.78 2.10664 8.74 1.99331 9.5 2.41997C10.26 2.83997 10.6733 3.71331 10.6733 4.88664V11.1267C10.6733 12.2933 10.2533 13.1733 9.5 13.5933C9.2 13.7533 8.86667 13.8333 8.50667 13.8333ZM3.37334 5.09997C2.29334 5.09997 1.83334 5.55997 1.83334 6.63997V9.36C1.83334 10.44 2.29334 10.9 3.37334 10.9H4.34667C4.69334 10.9 5.03334 11 5.33334 11.18L7.32 12.42C7.98 12.8333 8.6 12.9333 9.02 12.7067C9.44 12.4733 9.68 11.8933 9.68 11.12V4.87997C9.68 4.09997 9.44 3.51997 9.02 3.29331C8.6 3.05997 7.98 3.16664 7.32 3.57997L5.33334 4.81331C5.03334 4.99997 4.69334 5.09997 4.34667 5.09997H3.37334Z" fill="currentColor"/>
<path d="M14.6667 8.5H12C11.7267 8.5 11.5 8.27333 11.5 8C11.5 7.72667 11.7267 7.5 12 7.5H14.6667C14.94 7.5 15.1667 7.72667 15.1667 8C15.1667 8.27333 14.94 8.5 14.6667 8.5Z" fill="currentColor"/>
<path d="M13.3333 9.83333C13.06 9.83333 12.8333 9.60667 12.8333 9.33333V6.66667C12.8333 6.39333 13.06 6.16667 13.3333 6.16667C13.6067 6.16667 13.8333 6.39333 13.8333 6.66667V9.33333C13.8333 9.60667 13.6067 9.83333 13.3333 9.83333Z" fill="currentColor"/>
</svg>
