<svg width="16" height="16" viewBox="0 0 16 16" fill="none" xmlns="http://www.w3.org/2000/svg">
<path d="M8.66667 7.93326H4.66667C4.39334 7.93326 4.16667 7.70659 4.16667 7.43326C4.16667 7.15993 4.39334 6.93326 4.66667 6.93326H8.66667C8.94 6.93326 9.16667 7.15993 9.16667 7.43326C9.16667 7.70659 8.94 7.93326 8.66667 7.93326Z" fill="currentColor"/>
<path d="M1.33334 7.93319C1.06 7.93319 0.833336 7.70653 0.833336 7.43319V4.35323C0.833336 2.71989 2.16 1.39322 3.79334 1.39322H7.54C9.25334 1.39322 10.5 2.53322 10.5 4.09989C10.5 4.37322 10.2733 4.59989 10 4.59989C9.72667 4.59989 9.5 4.37322 9.5 4.09989C9.5 2.92655 8.48 2.39322 7.54 2.39322H3.79334C2.71334 2.39322 1.83334 3.27323 1.83334 4.35323V7.43319C1.83334 7.71319 1.60667 7.93319 1.33334 7.93319Z" fill="currentColor"/>
<path d="M10.6667 14.5999H4C2.25334 14.5999 0.833336 13.1799 0.833336 11.4333V6.76659C0.833336 5.01993 2.25334 3.59993 4 3.59993H10.6667C12.4133 3.59993 13.8333 5.01993 13.8333 6.76659V7.73326C13.8333 8.00659 13.6067 8.23326 13.3333 8.23326H12.6133C12.38 8.23326 12.1667 8.31986 12.0133 8.47986L12.0067 8.48659C11.7867 8.70659 11.7 9.01319 11.78 9.31319C11.88 9.68653 12.2733 9.95993 12.7133 9.95993H13.3333C13.6067 9.95993 13.8333 10.1866 13.8333 10.4599V11.4266C13.8333 13.1799 12.4133 14.5999 10.6667 14.5999ZM4 4.59993C2.80667 4.59993 1.83334 5.57326 1.83334 6.76659V11.4333C1.83334 12.6266 2.80667 13.5999 4 13.5999H10.6667C11.86 13.5999 12.8333 12.6266 12.8333 11.4333V10.9666H12.7133C11.8133 10.9666 11.0333 10.3999 10.8133 9.57993C10.64 8.93326 10.8267 8.24659 11.3 7.77993C11.6467 7.42659 12.1133 7.23326 12.6133 7.23326H12.8333V6.76659C12.8333 5.57326 11.86 4.59993 10.6667 4.59993H4Z" fill="currentColor"/>
<path d="M13.9799 10.9667H12.6933C11.6866 10.9667 10.8333 10.2201 10.7533 9.26006C10.6999 8.70673 10.8999 8.16673 11.2999 7.77339C11.6333 7.42673 12.1066 7.23339 12.6066 7.23339H13.9733C14.6266 7.23339 15.1599 7.76006 15.1599 8.41339V9.78673C15.1666 10.4401 14.6333 10.9667 13.9799 10.9667ZM12.6133 8.23326C12.38 8.23326 12.1667 8.31986 12.0133 8.47986C11.82 8.66653 11.7266 8.92006 11.7533 9.17339C11.7866 9.61339 12.2133 9.96673 12.6933 9.96673H13.9799C14.0799 9.96673 14.1666 9.88673 14.1666 9.78673V8.41339C14.1666 8.31339 14.0799 8.23339 13.9799 8.23339L12.6133 8.23326Z" fill="currentColor"/>
</svg>
