<svg width="16" height="16" viewBox="0 0 16 16" fill="none" xmlns="http://www.w3.org/2000/svg">
<g clip-path="url(#clip0_2_4545)">
<path d="M9.66667 11.1667H6.33333C6.06 11.1667 5.83333 10.94 5.83333 10.6667C5.83333 10.3933 6.06 10.1667 6.33333 10.1667H9.66667C9.94 10.1667 10.1667 10.3933 10.1667 10.6667C10.1667 10.94 9.94 11.1667 9.66667 11.1667Z" fill="currentColor"/>
<path d="M3.46646 6.97328C3.3398 6.97328 3.21313 6.91994 3.11313 6.82661C2.97313 6.68661 2.92646 6.4666 3.00646 6.27993L4.24646 3.31993C4.27313 3.25993 4.28646 3.21993 4.30646 3.1866C5.29313 0.913262 6.55313 0.359927 8.7798 1.21326C8.90646 1.25993 9.00646 1.35993 9.0598 1.4866C9.11313 1.61326 9.11313 1.75326 9.0598 1.87993L7.10647 6.41326C7.02647 6.59326 6.84647 6.71328 6.64646 6.71328H4.74646C4.36646 6.71328 4.00646 6.78661 3.6598 6.93328C3.5998 6.95994 3.53313 6.97328 3.46646 6.97328ZM7.07313 1.83326C6.24646 1.83326 5.7398 2.37326 5.21313 3.59993C5.20646 3.61993 5.19313 3.63993 5.18646 3.65993L4.31313 5.73326C4.4598 5.71993 4.5998 5.71326 4.74646 5.71326H6.31313L7.9198 1.97993C7.60646 1.87993 7.32647 1.83326 7.07313 1.83326Z" fill="currentColor"/>
<path d="M12.1935 6.84668C12.1468 6.84668 12.0935 6.84001 12.0468 6.82668C11.8001 6.75334 11.5268 6.71334 11.2468 6.71334L6.64646 6.71328C6.4798 6.71328 6.32015 6.62669 6.22682 6.48669C6.14015 6.34669 6.12015 6.16669 6.18682 6.01336L8.12013 1.52669C8.22013 1.28669 8.5068 1.12669 8.76013 1.20669C8.84013 1.23336 8.91347 1.26669 8.99346 1.30002L10.5668 1.96002C11.4868 2.34002 12.1001 2.74002 12.5001 3.22002C12.5801 3.31336 12.6468 3.41336 12.7068 3.51336C12.7801 3.62669 12.8468 3.76669 12.8935 3.90669C12.9135 3.95336 12.9468 4.04002 12.9668 4.13336C13.1535 4.76002 13.0601 5.54002 12.6601 6.54002C12.5801 6.72668 12.3935 6.84668 12.1935 6.84668ZM7.4068 5.71336H11.2535C11.4668 5.71336 11.6735 5.73336 11.8801 5.76669C12.0668 5.18669 12.1068 4.74002 12.0001 4.38002C11.9868 4.32002 11.9735 4.29336 11.9668 4.26669C11.9268 4.16002 11.9001 4.10002 11.8668 4.04669C11.8201 3.97336 11.7868 3.91336 11.7335 3.85336C11.4468 3.50669 10.9401 3.18669 10.1868 2.88002L8.8668 2.32669L7.4068 5.71336Z" fill="currentColor"/>
<path d="M10.6 15.1665H5.4C5.21333 15.1665 5.04 15.1532 4.86666 15.1332C2.52666 14.9732 1.19333 13.6399 1.03333 11.2732C1.01333 11.1265 0.999998 10.9465 0.999998 10.7665V9.46654C0.999998 7.96654 1.89333 6.61322 3.27333 6.01322C3.74 5.81322 4.24 5.71322 4.75333 5.71322H11.26C11.64 5.71322 12.0067 5.76656 12.3467 5.87322C13.9133 6.34656 15.0133 7.82654 15.0133 9.46654V10.7665C15.0133 10.9132 15.0067 11.0532 15 11.1865C14.8533 13.7932 13.3333 15.1665 10.6 15.1665ZM4.74646 6.71328C4.36646 6.71328 4.00646 6.78661 3.6598 6.93328C2.64646 7.37328 1.99333 8.36654 1.99333 9.46654V10.7665C1.99333 10.9065 2.00666 11.0465 2.02 11.1799C2.14666 13.0799 3.08 14.0132 4.95333 14.1399C5.12 14.1599 5.25333 14.1732 5.39333 14.1732H10.5933C12.7933 14.1732 13.8733 13.2065 13.98 11.1399C13.9867 11.0199 13.9933 10.8999 13.9933 10.7665V9.46654C13.9933 8.25988 13.1867 7.17988 12.04 6.82654C11.7933 6.75321 11.52 6.71321 11.24 6.71321L4.74646 6.71328Z" fill="currentColor"/>
<path d="M1.49348 9.96654C1.22015 9.96654 0.993484 9.73988 0.993484 9.46654V7.51321C0.993484 5.41321 2.48015 3.59988 4.53348 3.19988C4.71348 3.16654 4.90015 3.23321 5.02015 3.37321C5.13348 3.51321 5.16682 3.71321 5.09348 3.87988L3.92682 6.66654C3.87348 6.78654 3.78015 6.87988 3.66682 6.93321C2.65348 7.37321 2.00015 8.36654 2.00015 9.46654C1.99348 9.73988 1.77348 9.96654 1.49348 9.96654ZM3.73348 4.54654C2.88015 5.02654 2.26015 5.86654 2.06682 6.84654C2.36015 6.54654 2.70015 6.29321 3.08682 6.10654L3.73348 4.54654Z" fill="currentColor"/>
<path d="M14.5061 9.96654C14.2328 9.96654 14.0061 9.73988 14.0061 9.46654C14.0061 8.25988 13.1995 7.17988 12.0528 6.82654C11.9195 6.78654 11.8061 6.69321 11.7461 6.56653C11.6861 6.43986 11.6795 6.2932 11.7328 6.16653C12.0461 5.38653 12.1268 4.82002 12.0001 4.38002C11.9868 4.32002 11.9735 4.29336 11.9668 4.26669C11.8801 4.07336 11.9261 3.84653 12.0795 3.69986C12.2328 3.5532 12.4661 3.51986 12.6528 3.61986C14.1061 4.37986 15.0061 5.8732 15.0061 7.51321V9.46654C15.0061 9.73988 14.7795 9.96654 14.5061 9.96654ZM12.8328 6.05986C13.2528 6.2532 13.6261 6.52653 13.9395 6.85321C13.8128 6.19986 13.4995 5.60653 13.0395 5.13986C13.0061 5.41986 12.9395 5.72653 12.8328 6.05986Z" fill="currentColor"/>
</g>
<defs>
<clipPath id="clip0_2_4545">
<rect width="16" height="16" fill="currentColor"/>
</clipPath>
</defs>
</svg>
