<svg width="16" height="16" viewBox="0 0 16 16" fill="none" xmlns="http://www.w3.org/2000/svg">
<g clip-path="url(#clip0_2_4529)">
<path d="M11.3333 15.1667H8.00001C7.72668 15.1667 7.50001 14.94 7.50001 14.6667C7.50001 14.3933 7.72668 14.1667 8.00001 14.1667H11.3333C13.0533 14.1667 14.1667 13.0533 14.1667 11.3333V8.00001C14.1667 6.47334 13.22 5.33334 11.8067 5.16668H4.66668C4.48001 5.16668 4.41334 5.16668 4.29334 5.20668C4.26001 5.22001 4.22668 5.2267 4.19334 5.2267C2.72001 5.40003 1.83334 6.43334 1.83334 8.00001V8.66668C1.83334 8.94001 1.60668 9.16668 1.33334 9.16668C1.06001 9.16668 0.833344 8.94001 0.833344 8.66668V8.00001C0.833344 5.96001 2.08668 4.48667 4.02668 4.24C4.28001 4.16667 4.46668 4.16668 4.66668 4.16668H11.8667C13.8667 4.40001 15.1667 5.94001 15.1667 8.00001V11.3333C15.1667 13.6267 13.6267 15.1667 11.3333 15.1667Z" fill="currentColor"/>
<path d="M4.13323 5.23332C3.9999 5.23332 3.87324 5.18 3.7799 5.08667C3.64657 4.95334 3.5999 4.75332 3.6599 4.57332C3.76657 4.25999 3.9599 4.06668 4.1799 3.84668L6.30657 1.65332C7.40654 0.553323 9.25988 0.553316 10.3532 1.64665L11.5532 2.84668C11.9932 3.28668 12.2732 3.89332 12.3599 4.60665C12.3799 4.74665 12.3332 4.89334 12.2399 5C12.1465 5.10667 12.0065 5.16667 11.8665 5.16667L4.66668 5.16668C4.48001 5.16668 4.41334 5.16668 4.29334 5.20668C4.24001 5.22668 4.18656 5.23332 4.13323 5.23332ZM5.2599 4.16667H11.2332C11.1532 3.95334 11.0265 3.74002 10.8465 3.55335L9.64654 2.35336C8.93321 1.64002 7.73321 1.64002 7.01988 2.35336L5.2599 4.16667Z" fill="currentColor"/>
<path d="M14.6667 11.5H12.6667C11.6533 11.5 10.8333 10.68 10.8333 9.66668C10.8333 8.65334 11.6533 7.83334 12.6667 7.83334H14.6667C14.94 7.83334 15.1667 8.06001 15.1667 8.33334C15.1667 8.60668 14.94 8.83334 14.6667 8.83334H12.6667C12.2067 8.83334 11.8333 9.20668 11.8333 9.66668C11.8333 10.1267 12.2067 10.5 12.6667 10.5H14.6667C14.94 10.5 15.1667 10.7267 15.1667 11C15.1667 11.2733 14.94 11.5 14.6667 11.5Z" fill="currentColor"/>
<path d="M3.86642 14.7667C2.41308 14.7667 1.23308 13.5867 1.23308 12.1333C1.23308 10.68 2.41308 9.50001 3.86642 9.50001C5.31975 9.50001 6.49975 10.68 6.49975 12.1333C6.49975 13.5867 5.31975 14.7667 3.86642 14.7667ZM3.86642 10.5C2.96642 10.5 2.23308 11.2333 2.23308 12.1333C2.23308 13.0333 2.96642 13.7667 3.86642 13.7667C4.76642 13.7667 5.49975 13.0333 5.49975 12.1333C5.49975 11.2333 4.76642 10.5 3.86642 10.5Z" fill="currentColor"/>
<path d="M1.33298 15.1667C1.20631 15.1667 1.07964 15.12 0.979644 15.02C0.78631 14.8267 0.78631 14.5066 0.979644 14.3133L1.64631 13.6466C1.83964 13.4533 2.15964 13.4533 2.35298 13.6466C2.54631 13.8399 2.54631 14.16 2.35298 14.3533L1.68631 15.02C1.58631 15.12 1.45964 15.1667 1.33298 15.1667Z" fill="currentColor"/>
</g>
<defs>
<clipPath id="clip0_2_4529">
<rect width="16" height="16" fill="currentColor"/>
</clipPath>
</defs>
</svg>
