<svg width="16" height="16" viewBox="0 0 16 16" fill="none" xmlns="http://www.w3.org/2000/svg">
<g clip-path="url(#clip0_2_4533)">
<path d="M3.46647 6.97328C3.3398 6.97328 3.20647 6.91994 3.11314 6.82661C2.97314 6.67994 2.92647 6.4666 3.00647 6.27993L4.24647 3.31993C4.27313 3.25993 4.28647 3.21993 4.30647 3.1866C5.29314 0.913262 6.55313 0.359927 8.7798 1.21326C8.90647 1.25993 9.00647 1.35993 9.0598 1.4866C9.11314 1.61326 9.11314 1.75326 9.0598 1.87993L7.10647 6.41326C7.02647 6.59993 6.84647 6.71328 6.64647 6.71328H4.74647C4.36647 6.71328 4.00647 6.78661 3.6598 6.93328C3.5998 6.95994 3.53314 6.97328 3.46647 6.97328ZM7.07314 1.83326C6.24647 1.83326 5.7398 2.37326 5.21313 3.59993C5.20647 3.61993 5.19313 3.63993 5.18647 3.65993L4.31313 5.73326C4.4598 5.71993 4.5998 5.71326 4.74647 5.71326H6.31314L7.9198 1.97993C7.60647 1.87993 7.32647 1.83326 7.07314 1.83326Z" fill="currentColor"/>
<path d="M12.1935 6.84681C12.1468 6.84681 12.0935 6.84014 12.0468 6.82681C11.7935 6.75348 11.5268 6.71348 11.2468 6.71348L6.64647 6.71328C6.4798 6.71328 6.32016 6.62684 6.22682 6.48684C6.14016 6.34684 6.12016 6.16684 6.18682 6.0135L8.12014 1.52684C8.22014 1.28684 8.51347 1.12017 8.76014 1.20684C8.84014 1.2335 8.91347 1.26684 8.99347 1.30017L10.5668 1.96017C11.4868 2.34017 12.1001 2.74017 12.5001 3.22017C12.5801 3.3135 12.6468 3.4135 12.7135 3.52017C12.7868 3.6335 12.8535 3.76684 12.9001 3.90684C12.9201 3.9535 12.9535 4.04017 12.9735 4.1335C13.1601 4.76684 13.0668 5.54017 12.6668 6.54017C12.5801 6.72681 12.3935 6.84681 12.1935 6.84681ZM7.4068 5.7135H11.2535C11.4668 5.7135 11.6735 5.7335 11.8801 5.76684C12.0668 5.18684 12.1068 4.74017 12.0001 4.38017C11.9868 4.32017 11.9735 4.2935 11.9668 4.26684C11.9268 4.16017 11.9001 4.10017 11.8668 4.04684C11.8201 3.9735 11.7868 3.9135 11.7335 3.8535C11.4468 3.50684 10.9401 3.18684 10.1801 2.8735L8.8668 2.32684L7.4068 5.7135Z" fill="currentColor"/>
<path d="M10.6 15.1665H5.4C5.21334 15.1665 5.04 15.1532 4.86667 15.1332C2.52667 14.9799 1.19333 13.6399 1.03333 11.2732C1.01333 11.1265 1 10.9465 1 10.7665V9.46654C1 7.96654 1.89333 6.61322 3.27333 6.01322C3.74667 5.81322 4.24 5.71322 4.75333 5.71322H11.26C11.64 5.71322 12.0067 5.76656 12.3467 5.87322C13.9133 6.34656 15.0133 7.82654 15.0133 9.46654V10.7665C15.0133 10.9132 15.0067 11.0532 15 11.1865C14.8533 13.7932 13.3333 15.1665 10.6 15.1665ZM4.74647 6.71328C4.36647 6.71328 4.00647 6.78661 3.6598 6.93328C2.64647 7.37328 1.99334 8.36654 1.99334 9.46654V10.7665C1.99334 10.9065 2.00667 11.0465 2.02 11.1799C2.14667 13.0799 3.08 14.0132 4.95333 14.1399C5.12 14.1599 5.25333 14.1732 5.39334 14.1732H10.5933C12.7933 14.1732 13.8733 13.2065 13.98 11.1399C13.9867 11.0199 13.9933 10.8999 13.9933 10.7665V9.46654C13.9933 8.25988 13.1867 7.17988 12.04 6.82654C11.7867 6.75321 11.52 6.71321 11.24 6.71321L4.74647 6.71328Z" fill="currentColor"/>
<path d="M1.49349 9.96654C1.22016 9.96654 0.993488 9.73988 0.993488 9.46654V7.51321C0.993488 5.41321 2.48015 3.59988 4.53349 3.19988C4.71349 3.16654 4.90016 3.23321 5.02015 3.37321C5.13349 3.51321 5.16682 3.71321 5.09349 3.87988L3.92682 6.66654C3.87349 6.78654 3.78015 6.87988 3.66682 6.93321C2.65349 7.37321 2.00016 8.36654 2.00016 9.46654C1.99349 9.73988 1.77349 9.96654 1.49349 9.96654ZM3.73349 4.54654C2.88016 5.02654 2.26015 5.86654 2.06682 6.84654C2.36015 6.54654 2.70016 6.29321 3.08682 6.10654L3.73349 4.54654Z" fill="currentColor"/>
<path d="M14.5061 9.96654C14.2328 9.96654 14.0061 9.73988 14.0061 9.46654C14.0061 8.25988 13.1995 7.17988 12.0528 6.82654C11.9195 6.78654 11.8061 6.69321 11.7461 6.56653C11.6861 6.43986 11.6795 6.2932 11.7328 6.16653C12.0461 5.38653 12.1268 4.82017 12.0001 4.38017C11.9868 4.32017 11.9735 4.2935 11.9668 4.26684C11.8801 4.0735 11.9261 3.84653 12.0795 3.69986C12.2328 3.5532 12.4661 3.51986 12.6528 3.61986C14.1061 4.37986 15.0061 5.8732 15.0061 7.51321V9.46654C15.0061 9.73988 14.7795 9.96654 14.5061 9.96654ZM12.8328 6.05986C13.2528 6.2532 13.6261 6.52653 13.9395 6.85321C13.8128 6.19986 13.4995 5.60653 13.0395 5.13986C13.0061 5.41986 12.9395 5.72653 12.8328 6.05986Z" fill="currentColor"/>
</g>
<defs>
<clipPath id="clip0_2_4533">
<rect width="16" height="16" fill="currentColor"/>
</clipPath>
</defs>
</svg>
