<svg width="16" height="16" viewBox="0 0 16 16" fill="none" xmlns="http://www.w3.org/2000/svg">
<g clip-path="url(#clip0_2_4960)">
<path d="M4.1267 5.20663C3.9667 5.20663 3.82003 5.1333 3.72003 4.99997C3.6067 4.84663 3.59336 4.64661 3.68003 4.47995C3.79336 4.25328 3.95336 4.0333 4.16003 3.8333L6.3267 1.65996C7.43333 0.559961 9.23333 0.559961 10.34 1.65996L11.5067 2.84665C12 3.33331 12.3 3.98665 12.3333 4.67998C12.34 4.83331 12.28 4.97997 12.1667 5.07997C12.0533 5.17997 11.9 5.22663 11.7533 5.19996C11.62 5.17996 11.48 5.17331 11.3333 5.17331H4.6667C4.5067 5.17331 4.35336 5.18663 4.20003 5.20663C4.18003 5.20663 4.15336 5.20663 4.1267 5.20663ZM5.24003 4.16663H11.2133C11.1267 3.93997 10.9867 3.73331 10.8 3.54664L9.62667 2.35995C8.91333 1.65329 7.74666 1.65329 7.02666 2.35995L5.24003 4.16663Z" fill="currentColor"/>
<path d="M3.33333 15.8333C2.22666 15.8333 1.18666 15.2467 0.626664 14.2933C0.326664 13.8133 0.166664 13.2467 0.166664 12.6667C0.166664 10.92 1.58666 9.5 3.33333 9.5C5.08 9.5 6.5 10.92 6.5 12.6667C6.5 13.2467 6.34 13.8133 6.04 14.3C5.48 15.2467 4.44 15.8333 3.33333 15.8333ZM3.33333 10.5C2.14 10.5 1.16666 11.4733 1.16666 12.6667C1.16666 13.06 1.27333 13.4467 1.48 13.78C1.87333 14.4467 2.56666 14.8333 3.33333 14.8333C4.1 14.8333 4.79333 14.44 5.18666 13.7867C5.39333 13.4467 5.5 13.0667 5.5 12.6667C5.5 11.4733 4.52666 10.5 3.33333 10.5Z" fill="currentColor"/>
<path d="M4.32651 13.1533H2.33984C2.06651 13.1533 1.83984 12.9267 1.83984 12.6533C1.83984 12.38 2.06651 12.1533 2.33984 12.1533H4.33318C4.60651 12.1533 4.83318 12.38 4.83318 12.6533C4.83318 12.9267 4.60651 13.1533 4.32651 13.1533Z" fill="currentColor"/>
<path d="M3.33333 14.1733C3.06 14.1733 2.83333 13.9467 2.83333 13.6733V11.68C2.83333 11.4067 3.06 11.18 3.33333 11.18C3.60666 11.18 3.83333 11.4067 3.83333 11.68V13.6733C3.83333 13.9533 3.60666 14.1733 3.33333 14.1733Z" fill="currentColor"/>
<path d="M11.3337 15.1667H5.08698C4.87364 15.1667 4.68698 15.0333 4.61364 14.84C4.54031 14.64 4.60031 14.42 4.76031 14.2867C4.92031 14.1533 5.06698 13.98 5.17364 13.7933C5.38698 13.4533 5.49364 13.0667 5.49364 12.6733C5.49364 11.48 4.52031 10.5067 3.32698 10.5067C2.70698 10.5067 2.11364 10.7733 1.70031 11.2467C1.56031 11.4 1.34031 11.46 1.14698 11.3867C0.953644 11.3133 0.820311 11.1267 0.820311 10.92V8C0.820311 5.94667 2.08698 4.46001 4.05364 4.21334C4.23364 4.18667 4.44031 4.16667 4.65364 4.16667H11.3203C11.4803 4.16667 11.687 4.17333 11.9003 4.20667C13.867 4.43333 15.1537 5.92667 15.1537 8V11.3333C15.167 13.6267 13.627 15.1667 11.3337 15.1667ZM6.12031 14.1667H11.3337C13.0537 14.1667 14.167 13.0533 14.167 11.3333V8C14.167 6.44 13.2537 5.36665 11.7737 5.19332C11.6137 5.16665 11.4737 5.16667 11.3337 5.16667H4.66698C4.50698 5.16667 4.35364 5.17999 4.20031 5.19999C2.73364 5.38666 1.83364 6.45333 1.83364 8V9.88C2.28698 9.63333 2.80666 9.5 3.33333 9.5C5.08 9.5 6.5 10.92 6.5 12.6667C6.5 13.1933 6.36698 13.7133 6.12031 14.1667Z" fill="currentColor"/>
<path d="M14.6667 11.5H12.6667C11.6533 11.5 10.8333 10.68 10.8333 9.66667C10.8333 8.65333 11.6533 7.83333 12.6667 7.83333H14.6667C14.94 7.83333 15.1667 8.06 15.1667 8.33333C15.1667 8.60667 14.94 8.83333 14.6667 8.83333H12.6667C12.2067 8.83333 11.8333 9.20667 11.8333 9.66667C11.8333 10.1267 12.2067 10.5 12.6667 10.5H14.6667C14.94 10.5 15.1667 10.7267 15.1667 11C15.1667 11.2733 14.94 11.5 14.6667 11.5Z" fill="currentColor"/>
</g>
<defs>
<clipPath id="clip0_2_4960">
<rect width="16" height="16" fill="currentColor"/>
</clipPath>
</defs>
</svg>
