<svg width="16" height="16" viewBox="0 0 16 16" fill="none" xmlns="http://www.w3.org/2000/svg">
<g clip-path="url(#clip0_2_4749)">
<path d="M11.3337 15.1667H5.087C4.87366 15.1667 4.68699 15.0333 4.61365 14.84C4.54032 14.6467 4.60034 14.42 4.76034 14.2867C4.92034 14.1533 5.06701 13.98 5.17367 13.7933C5.38701 13.4533 5.49366 13.0667 5.49366 12.6733C5.49366 11.48 4.52033 10.5067 3.32699 10.5067C2.70699 10.5067 2.11366 10.7733 1.70033 11.2467C1.56033 11.4 1.34031 11.46 1.14698 11.3867C0.953645 11.3133 0.820318 11.1267 0.820318 10.92V8C0.820318 5.94667 2.08701 4.46001 4.05368 4.21334C4.23368 4.18667 4.44032 4.16667 4.65365 4.16667H11.3203C11.4803 4.16667 11.687 4.17333 11.9003 4.20667C13.867 4.43333 15.1537 5.92667 15.1537 8V11.3333C15.167 13.6267 13.627 15.1667 11.3337 15.1667ZM6.12033 14.1667H11.3337C13.0537 14.1667 14.167 13.0533 14.167 11.3333V8C14.167 6.44 13.2537 5.36665 11.7737 5.19332C11.6137 5.16665 11.4737 5.16667 11.3337 5.16667H4.667C4.507 5.16667 4.35366 5.17999 4.20033 5.19999C2.73366 5.38666 1.83367 6.45333 1.83367 8V9.88C2.287 9.63333 2.807 9.5 3.33367 9.5C5.08033 9.5 6.50033 10.92 6.50033 12.6667C6.50033 13.1933 6.36699 13.7133 6.12033 14.1667Z" fill="currentColor"/>
<path d="M4.12669 5.20663C3.96669 5.20663 3.82004 5.1333 3.72004 4.99997C3.60671 4.84663 3.59337 4.64661 3.68004 4.47995C3.79337 4.25328 3.95335 4.0333 4.16002 3.8333L6.32668 1.65996C7.43334 0.559961 9.23334 0.559961 10.34 1.65996L11.5067 2.84665C12 3.33331 12.3 3.98665 12.3333 4.67998C12.34 4.83331 12.28 4.97997 12.1667 5.07997C12.0533 5.17997 11.9 5.22663 11.7533 5.19996C11.62 5.17996 11.48 5.17331 11.3333 5.17331H4.66669C4.50669 5.17331 4.35335 5.18663 4.20002 5.20663C4.18002 5.20663 4.15336 5.20663 4.12669 5.20663ZM5.24001 4.16663H11.2133C11.1267 3.93997 10.9867 3.73331 10.8 3.54664L9.62667 2.35995C8.91334 1.65329 7.74667 1.65329 7.02667 2.35995L5.24001 4.16663Z" fill="currentColor"/>
<path d="M14.6667 11.5H12.6667C11.6533 11.5 10.8333 10.68 10.8333 9.66667C10.8333 8.65333 11.6533 7.83333 12.6667 7.83333H14.6667C14.94 7.83333 15.1667 8.06 15.1667 8.33333C15.1667 8.60667 14.94 8.83333 14.6667 8.83333H12.6667C12.2067 8.83333 11.8333 9.20667 11.8333 9.66667C11.8333 10.1267 12.2067 10.5 12.6667 10.5H14.6667C14.94 10.5 15.1667 10.7267 15.1667 11C15.1667 11.2733 14.94 11.5 14.6667 11.5Z" fill="currentColor"/>
<path d="M3.33334 15.8333C2.22667 15.8333 1.18667 15.2467 0.626673 14.2933C0.326673 13.8133 0.166672 13.2467 0.166672 12.6667C0.166672 11.9 0.446673 11.16 0.960005 10.58C1.56001 9.89333 2.427 9.5 3.33367 9.5C5.08033 9.5 6.50033 10.92 6.50033 12.6667C6.50033 13.2467 6.34001 13.8133 6.04001 14.3C5.87334 14.58 5.66 14.8333 5.40667 15.0467C4.85333 15.5533 4.11334 15.8333 3.33334 15.8333ZM3.33334 10.5C2.71334 10.5 2.12001 10.7667 1.70667 11.24C1.36001 11.64 1.16667 12.1467 1.16667 12.6667C1.16667 13.06 1.27332 13.4467 1.47999 13.78C1.86665 14.4333 2.58001 14.8333 3.33334 14.8333C3.86001 14.8333 4.36667 14.64 4.75334 14.2933C4.92668 14.1467 5.07335 13.9733 5.18002 13.7867C5.39335 13.4467 5.50001 13.06 5.50001 12.6667C5.50001 11.4733 4.52667 10.5 3.33334 10.5Z" fill="currentColor"/>
<path d="M4.04695 13.8601C3.92028 13.8601 3.79359 13.8134 3.69359 13.7134L2.28693 12.3067C2.0936 12.1134 2.0936 11.7934 2.28693 11.6001C2.48027 11.4067 2.80027 11.4067 2.9936 11.6001L4.40025 13.0067C4.59359 13.2001 4.59359 13.5201 4.40025 13.7134C4.30025 13.8134 4.17361 13.8601 4.04695 13.8601Z" fill="currentColor"/>
<path d="M2.62071 13.8799C2.49405 13.8799 2.3674 13.8333 2.2674 13.7333C2.07407 13.5399 2.07407 13.2199 2.2674 13.0266L3.67406 11.6199C3.86739 11.4266 4.18739 11.4266 4.38073 11.6199C4.57406 11.8133 4.57406 12.1333 4.38073 12.3266L2.97407 13.7333C2.87407 13.8333 2.74738 13.8799 2.62071 13.8799Z" fill="currentColor"/>
</g>
<defs>
<clipPath id="clip0_2_4749">
<rect width="16" height="16" fill="currentColor"/>
</clipPath>
</defs>
</svg>
