<svg width="16" height="16" viewBox="0 0 16 16" fill="none" xmlns="http://www.w3.org/2000/svg">
<g clip-path="url(#clip0_2_4531)">
<path d="M3.33334 15.8333C2.22667 15.8333 1.18667 15.2467 0.626671 14.2933C0.326671 13.8133 0.166672 13.2467 0.166672 12.6667C0.166672 10.92 1.58667 9.5 3.33334 9.5C5.08001 9.5 6.50001 10.92 6.50001 12.6667C6.50001 13.2467 6.34001 13.8133 6.04001 14.3C5.48001 15.2467 4.44001 15.8333 3.33334 15.8333ZM3.33334 10.5C2.14001 10.5 1.16667 11.4733 1.16667 12.6667C1.16667 13.06 1.27334 13.4467 1.48001 13.78C1.87334 14.4467 2.56667 14.8333 3.33334 14.8333C4.10001 14.8333 4.79334 14.44 5.18667 13.7867C5.39334 13.4467 5.50001 13.0667 5.50001 12.6667C5.50001 11.4733 4.52667 10.5 3.33334 10.5Z" fill="currentColor"/>
<path d="M2.95261 13.8267C2.82594 13.8267 2.69928 13.7801 2.59928 13.6801L1.93928 13.0201C1.74595 12.8267 1.74595 12.5067 1.93928 12.3133C2.13261 12.12 2.45261 12.12 2.64595 12.3133L2.96595 12.6334L4.03261 11.6467C4.23261 11.46 4.55261 11.4734 4.73928 11.6734C4.92595 11.8734 4.91261 12.1934 4.71261 12.3801L3.29261 13.6933C3.19261 13.78 3.07261 13.8267 2.95261 13.8267Z" fill="currentColor"/>
<path d="M4.1267 5.20663C3.9667 5.20663 3.82004 5.1333 3.72004 4.99997C3.60671 4.84663 3.59337 4.64661 3.68004 4.47995C3.79337 4.25328 3.95337 4.0333 4.16004 3.8333L6.32671 1.65996C7.43334 0.559961 9.23334 0.559961 10.34 1.65996L11.5067 2.84665C12 3.33331 12.3 3.98665 12.3333 4.67998C12.34 4.83331 12.28 4.97997 12.1667 5.07997C12.0533 5.17997 11.9 5.22663 11.7533 5.19996C11.62 5.17996 11.48 5.17331 11.3333 5.17331H4.66671C4.50671 5.17331 4.35337 5.18663 4.20004 5.20663C4.18004 5.20663 4.15337 5.20663 4.1267 5.20663ZM5.24004 4.16663H11.2133C11.1267 3.93997 10.9867 3.73331 10.8 3.54664L9.62667 2.35995C8.91334 1.65329 7.74667 1.65329 7.02667 2.35995L5.24004 4.16663Z" fill="currentColor"/>
<path d="M11.3337 15.1667H5.08698C4.87365 15.1667 4.68699 15.0333 4.61365 14.84C4.54032 14.64 4.60032 14.42 4.76032 14.2867C4.92032 14.1533 5.06699 13.98 5.17365 13.7933C5.38698 13.4533 5.49365 13.0667 5.49365 12.6733C5.49365 11.48 4.52032 10.5067 3.32699 10.5067C2.70698 10.5067 2.11365 10.7733 1.70032 11.2467C1.56032 11.4 1.34032 11.46 1.14699 11.3867C0.953652 11.3133 0.820318 11.1267 0.820318 10.92V8C0.820318 5.94667 2.08699 4.46001 4.05365 4.21334C4.23365 4.18667 4.44032 4.16667 4.65365 4.16667H11.3203C11.4803 4.16667 11.687 4.17333 11.9003 4.20667C13.867 4.43333 15.1537 5.92667 15.1537 8V11.3333C15.167 13.6267 13.627 15.1667 11.3337 15.1667ZM6.12032 14.1667H11.3337C13.0537 14.1667 14.167 13.0533 14.167 11.3333V8C14.167 6.44 13.2537 5.36665 11.7737 5.19332C11.6137 5.16665 11.4737 5.16667 11.3337 5.16667H4.66699C4.50699 5.16667 4.35365 5.17999 4.20032 5.19999C2.73365 5.38666 1.83365 6.45333 1.83365 8V9.88C2.28699 9.63333 2.80667 9.5 3.33334 9.5C5.08001 9.5 6.50001 10.92 6.50001 12.6667C6.50001 13.1933 6.36699 13.7133 6.12032 14.1667Z" fill="currentColor"/>
<path d="M14.6667 11.5H12.6667C11.6533 11.5 10.8333 10.68 10.8333 9.66667C10.8333 8.65333 11.6533 7.83333 12.6667 7.83333H14.6667C14.94 7.83333 15.1667 8.06 15.1667 8.33333C15.1667 8.60667 14.94 8.83333 14.6667 8.83333H12.6667C12.2067 8.83333 11.8333 9.20667 11.8333 9.66667C11.8333 10.1267 12.2067 10.5 12.6667 10.5H14.6667C14.94 10.5 15.1667 10.7267 15.1667 11C15.1667 11.2733 14.94 11.5 14.6667 11.5Z" fill="currentColor"/>
</g>
<defs>
<clipPath id="clip0_2_4531">
<rect width="16" height="16" fill="currentColor"/>
</clipPath>
</defs>
</svg>
