<svg width="16" height="16" viewBox="0 0 16 16" fill="none" xmlns="http://www.w3.org/2000/svg">
<g clip-path="url(#clip0_2_4550)">
<path d="M11.3333 15.1667H4.66667C2.37333 15.1667 0.833333 13.6267 0.833333 11.3333V8C0.833333 5.94667 2.1 4.46001 4.06667 4.21334C4.25333 4.18667 4.46 4.16667 4.66667 4.16667H11.3333C11.4933 4.16667 11.7 4.17333 11.9133 4.20667C13.88 4.43333 15.1667 5.92667 15.1667 8V11.3333C15.1667 13.6267 13.6267 15.1667 11.3333 15.1667ZM4.66667 5.16667C4.50667 5.16667 4.35333 5.17999 4.2 5.19999C2.73333 5.38666 1.83333 6.45333 1.83333 8V11.3333C1.83333 13.0533 2.94667 14.1667 4.66667 14.1667H11.3333C13.0533 14.1667 14.1667 13.0533 14.1667 11.3333V8C14.1667 6.44 13.2533 5.36667 11.7733 5.19334C11.6133 5.16667 11.4733 5.16667 11.3333 5.16667H4.66667Z" fill="currentColor"/>
<path d="M4.1267 5.20663C3.9667 5.20663 3.82003 5.1333 3.72003 4.99997C3.6067 4.84663 3.59337 4.64663 3.68003 4.47997C3.79337 4.2533 3.95337 4.0333 4.16003 3.8333L6.3267 1.65996C7.43333 0.559961 9.23333 0.559961 10.34 1.65996L11.5067 2.83997C12 3.32664 12.3 3.97997 12.3333 4.67331C12.34 4.82664 12.28 4.97329 12.1667 5.07329C12.0533 5.17329 11.9 5.21997 11.7533 5.19331C11.62 5.17331 11.48 5.16667 11.3333 5.16667H4.66667C4.50667 5.16667 4.35333 5.17999 4.2 5.19999C4.18 5.20666 4.15337 5.20663 4.1267 5.20663ZM5.24003 4.16663H11.2133C11.1267 3.93997 10.9867 3.73331 10.8 3.54664L9.62667 2.35997C8.91333 1.65331 7.74667 1.65331 7.02667 2.35997L5.24003 4.16663Z" fill="currentColor"/>
<path d="M14.6667 11.5H12.6667C11.6533 11.5 10.8333 10.68 10.8333 9.66667C10.8333 8.65333 11.6533 7.83333 12.6667 7.83333H14.6667C14.94 7.83333 15.1667 8.06 15.1667 8.33333C15.1667 8.60667 14.94 8.83333 14.6667 8.83333H12.6667C12.2067 8.83333 11.8333 9.20667 11.8333 9.66667C11.8333 10.1267 12.2067 10.5 12.6667 10.5H14.6667C14.94 10.5 15.1667 10.7267 15.1667 11C15.1667 11.2733 14.94 11.5 14.6667 11.5Z" fill="currentColor"/>
</g>
<defs>
<clipPath id="clip0_2_4550">
<rect width="16" height="16" fill="currentColor"/>
</clipPath>
</defs>
</svg>
