<svg width="16" height="16" viewBox="0 0 16 16" fill="none" xmlns="http://www.w3.org/2000/svg">
<path d="M8.66667 6.50001H4.66667C4.39333 6.50001 4.16667 6.27334 4.16667 6.00001C4.16667 5.72668 4.39333 5.50001 4.66667 5.50001H8.66667C8.94 5.50001 9.16667 5.72668 9.16667 6.00001C9.16667 6.27334 8.94 6.50001 8.66667 6.50001Z" fill="currentColor"/>
<path d="M12.6933 9.86681C11.6866 9.86681 10.8333 9.12014 10.7533 8.16014C10.6999 7.60681 10.8999 7.06681 11.2999 6.67348C11.6333 6.3268 12.1066 6.13348 12.6066 6.13348H13.9999C14.6599 6.15348 15.1666 6.67348 15.1666 7.31348V8.68681C15.1666 9.32681 14.6599 9.84681 14.0199 9.86681H12.6933ZM13.9799 7.13348H12.6133C12.3799 7.13348 12.1666 7.22014 12.0133 7.38014C11.8199 7.56681 11.7266 7.82014 11.7533 8.07348C11.7866 8.51348 12.2133 8.86681 12.6933 8.86681H13.9999C14.0866 8.86681 14.1666 8.78681 14.1666 8.68681V7.31348C14.1666 7.21348 14.0866 7.14014 13.9799 7.13348Z" fill="currentColor"/>
<path d="M10.6667 14.1667H4.66667C2.37333 14.1667 0.833334 12.6267 0.833334 10.3333V5.66668C0.833334 3.61334 2.09999 2.12668 4.06665 1.88002C4.24665 1.85335 4.45333 1.83334 4.66667 1.83334H10.6667C10.8267 1.83334 11.0333 1.84001 11.2467 1.87334C13.2133 2.10001 14.5 3.59334 14.5 5.66668V6.63335C14.5 6.90668 14.2733 7.13334 14 7.13334L12.6133 7.13348C12.3799 7.13348 12.1666 7.22014 12.0133 7.38014L12.0067 7.38668C11.82 7.56668 11.7333 7.81334 11.7533 8.06668C11.7867 8.50668 12.2133 8.86001 12.6933 8.86001H14C14.2733 8.86001 14.5 9.08668 14.5 9.36001V10.3267C14.5 12.6267 12.96 14.1667 10.6667 14.1667ZM4.66667 2.83334C4.50667 2.83334 4.35333 2.84667 4.19999 2.86667C2.73333 3.05334 1.83333 4.12001 1.83333 5.66668V10.3333C1.83333 12.0533 2.94667 13.1667 4.66667 13.1667H10.6667C12.3867 13.1667 13.5 12.0533 13.5 10.3333V9.86668L12.6933 9.86681C11.6866 9.86681 10.8333 9.12014 10.7533 8.16014C10.6999 7.61348 10.9 7.06668 11.3 6.68001C11.6467 6.32669 12.1133 6.13335 12.6133 6.13335H13.5V5.66668C13.5 4.10668 12.5867 3.03333 11.1067 2.86C10.9467 2.83333 10.8067 2.83334 10.6667 2.83334H4.66667Z" fill="currentColor"/>
</svg>
