<svg width="16" height="16" viewBox="0 0 16 16" fill="none" xmlns="http://www.w3.org/2000/svg">
<path d="M4.77986 15.1667C3.19319 15.1667 1.89322 14.0134 1.89322 12.5934V11.2334C1.89322 10.9601 2.11989 10.7334 2.39322 10.7334C2.66655 10.7334 2.89322 10.9601 2.89322 11.2334C2.89322 12.0667 3.69986 12.6934 4.77986 12.6934C5.85986 12.6934 6.66654 12.0667 6.66654 11.2334C6.66654 10.9601 6.89319 10.7334 7.16653 10.7334C7.43986 10.7334 7.66653 10.9601 7.66653 11.2334V12.5934C7.66653 14.0134 6.37319 15.1667 4.77986 15.1667ZM3.06652 13.2467C3.35985 13.7934 4.01986 14.1667 4.77986 14.1667C5.53986 14.1667 6.19987 13.7867 6.4932 13.2467C6.01987 13.5334 5.43319 13.7001 4.77986 13.7001C4.12653 13.7001 3.53985 13.5334 3.06652 13.2467Z" fill="currentColor"/>
<path d="M4.77986 11.8666C3.68653 11.8666 2.70655 11.3666 2.21988 10.5733C2.00655 10.2266 1.89322 9.81994 1.89322 9.40661C1.89322 8.70661 2.19988 8.05328 2.75988 7.56661C3.83988 6.61996 5.69987 6.61999 6.78653 7.56001C7.34653 8.05334 7.65986 8.70661 7.65986 9.40661C7.65986 9.81994 7.54653 10.2266 7.33319 10.5733C6.85319 11.3666 5.87319 11.8666 4.77986 11.8666ZM4.77986 7.83328C4.25986 7.83328 3.77987 8.00661 3.41987 8.31994C3.07987 8.61328 2.89322 8.99994 2.89322 9.40661C2.89322 9.63994 2.95319 9.85334 3.07319 10.0533C3.37986 10.56 4.03319 10.8733 4.77986 10.8733C5.52653 10.8733 6.17985 10.56 6.47985 10.06C6.59985 9.86668 6.65987 9.64661 6.65987 9.41328C6.65987 9.00661 6.47321 8.61994 6.13321 8.31994C5.77988 8.00661 5.29986 7.83328 4.77986 7.83328Z" fill="currentColor"/>
<path d="M4.77986 13.7001C3.13319 13.7001 1.89322 12.64 1.89322 11.24V9.40661C1.89322 7.98661 3.18653 6.83334 4.77986 6.83334C5.53319 6.83334 6.25321 7.09334 6.79319 7.56001C7.35319 8.05334 7.66653 8.70668 7.66653 9.40668V11.24C7.66653 12.64 6.42653 13.7001 4.77986 13.7001ZM4.77986 7.83328C3.73986 7.83328 2.89322 8.53994 2.89322 9.40661V11.24C2.89322 12.0733 3.69986 12.7 4.77986 12.7C5.85986 12.7 6.66654 12.0733 6.66654 11.24V9.40668C6.66654 9.00001 6.47989 8.61334 6.13989 8.31334C5.77989 8.00668 5.29986 7.83328 4.77986 7.83328Z" fill="currentColor"/>
<path d="M12.6933 9.86681C11.6866 9.86681 10.8333 9.12014 10.7533 8.16014C10.6999 7.60681 10.8999 7.06681 11.2999 6.67348C11.6333 6.3268 12.1066 6.13348 12.6066 6.13348H13.9999C14.6599 6.15348 15.1666 6.67348 15.1666 7.31348V8.68681C15.1666 9.32681 14.6599 9.84681 14.0199 9.86681H12.6933ZM13.9799 7.13348H12.6133C12.3799 7.13348 12.1666 7.22014 12.0133 7.38014C11.8199 7.56681 11.7266 7.82014 11.7533 8.07348C11.7866 8.51348 12.2133 8.86681 12.6933 8.86681H13.9999C14.0866 8.86681 14.1666 8.78681 14.1666 8.68681V7.31348C14.1666 7.21348 14.0866 7.14014 13.9799 7.13348Z" fill="currentColor"/>
<path d="M10.6668 14.1667H9.00013C8.72679 14.1667 8.50013 13.94 8.50013 13.6667C8.50013 13.3933 8.72679 13.1667 9.00013 13.1667H10.6668C12.3868 13.1667 13.5001 12.0533 13.5001 10.3333V9.86668L12.6933 9.86681C11.6866 9.86681 10.8333 9.12014 10.7533 8.16014C10.6999 7.60681 10.8999 7.06681 11.2999 6.67348C11.6333 6.3268 12.1066 6.13348 12.6066 6.13348L13.4935 6.13335V5.66668C13.4935 4.10668 12.5802 3.03333 11.1002 2.86C10.9402 2.83333 10.8001 2.83334 10.6601 2.83334H4.66015C4.50015 2.83334 4.34681 2.84667 4.19347 2.86667C2.72681 3.05334 1.82681 4.12001 1.82681 5.66668V7.00001C1.82681 7.27334 1.60015 7.50001 1.32681 7.50001C1.05348 7.50001 0.826813 7.27334 0.826813 7.00001V5.66668C0.826813 3.61334 2.09351 2.12668 4.06017 1.88002C4.24017 1.85335 4.44681 1.83334 4.66015 1.83334H10.6601C10.8201 1.83334 11.0268 1.84001 11.2401 1.87334C13.2068 2.10001 14.4935 3.59334 14.4935 5.66668V6.63335C14.4935 6.90668 14.2668 7.13334 13.9935 7.13334H12.6068C12.3735 7.13334 12.1602 7.22001 12.0069 7.38001C11.8135 7.56668 11.7201 7.82001 11.7468 8.07334C11.7801 8.51334 12.2069 8.86668 12.6869 8.86668L13.9999 8.86681C14.2733 8.86681 14.5001 9.09334 14.5001 9.36668V10.3333C14.5001 12.6267 12.9601 14.1667 10.6668 14.1667Z" fill="currentColor"/>
</svg>
