<svg width="16" height="16" viewBox="0 0 16 16" fill="none" xmlns="http://www.w3.org/2000/svg">
<path d="M7.99999 9.16667C7.72665 9.16667 7.49999 8.94 7.49999 8.66667V5.16667C7.49999 4.89333 7.72665 4.66666 7.99999 4.66666C8.27332 4.66666 8.49999 4.89333 8.49999 5.16667V8.66667C8.49999 8.94 8.27332 9.16667 7.99999 9.16667Z" fill="currentColor"/>
<path d="M7.99999 11.5C7.81999 11.5 7.65332 11.4333 7.52665 11.3067C7.46665 11.24 7.41999 11.1667 7.37999 11.0867C7.34665 11.0067 7.33332 10.92 7.33332 10.8333C7.33332 10.66 7.40665 10.4867 7.52665 10.36C7.77332 10.1133 8.22665 10.1133 8.47332 10.36C8.59332 10.4867 8.66665 10.66 8.66665 10.8333C8.66665 10.92 8.64665 11.0067 8.61332 11.0867C8.57999 11.1667 8.53332 11.24 8.47332 11.3067C8.34665 11.4333 8.17999 11.5 7.99999 11.5Z" fill="currentColor"/>
<path d="M8.00012 15.1667C7.55345 15.1667 7.10012 15.0534 6.70012 14.8201L2.7401 12.5334C1.9401 12.0667 1.44009 11.2067 1.44009 10.2801V5.72007C1.44009 4.7934 1.9401 3.9334 2.7401 3.46674L6.70012 1.18008C7.50012 0.713411 8.49345 0.713411 9.30012 1.18008L13.2601 3.46674C14.0601 3.9334 14.5601 4.7934 14.5601 5.72007V10.2801C14.5601 11.2067 14.0601 12.0667 13.2601 12.5334L9.30012 14.8201C8.90012 15.0534 8.44679 15.1667 8.00012 15.1667ZM8.00012 1.8334C7.72679 1.8334 7.44679 1.90673 7.20012 2.04673L3.2401 4.3334C2.74677 4.62006 2.44009 5.14674 2.44009 5.72007V10.2801C2.44009 10.8467 2.74677 11.3801 3.2401 11.6667L7.20012 13.9534C7.69345 14.2401 8.30679 14.2401 8.79345 13.9534L12.7535 11.6667C13.2468 11.3801 13.5535 10.8534 13.5535 10.2801V5.72007C13.5535 5.1534 13.2468 4.62006 12.7535 4.3334L8.79345 2.04673C8.55345 1.90673 8.27345 1.8334 8.00012 1.8334Z" fill="currentColor"/>
</svg>
