<svg width="16" height="16" viewBox="0 0 16 16" fill="none" xmlns="http://www.w3.org/2000/svg">
<path d="M10.3333 13.1667H5.66668C3.84001 13.1667 2.83334 12.16 2.83334 10.3333V5.66668C2.83334 3.84001 3.84001 2.83334 5.66668 2.83334H10.3333C12.16 2.83334 13.1667 3.84001 13.1667 5.66668V10.3333C13.1667 12.16 12.16 13.1667 10.3333 13.1667ZM5.66668 3.83334C4.38001 3.83334 3.83334 4.38001 3.83334 5.66668V10.3333C3.83334 11.62 4.38001 12.1667 5.66668 12.1667H10.3333C11.62 12.1667 12.1667 11.62 12.1667 10.3333V5.66668C12.1667 4.38001 11.62 3.83334 10.3333 3.83334H5.66668Z" fill="currentColor"/>
<path d="M10.6667 1.83334H5.33334C5.06001 1.83334 4.83334 1.60668 4.83334 1.33334C4.83334 1.06001 5.06001 0.833344 5.33334 0.833344H10.6667C10.94 0.833344 11.1667 1.06001 11.1667 1.33334C11.1667 1.60668 10.94 1.83334 10.6667 1.83334Z" fill="currentColor"/>
<path d="M10.6667 15.1667H5.33334C5.06001 15.1667 4.83334 14.94 4.83334 14.6667C4.83334 14.3933 5.06001 14.1667 5.33334 14.1667H10.6667C10.94 14.1667 11.1667 14.3933 11.1667 14.6667C11.1667 14.94 10.94 15.1667 10.6667 15.1667Z" fill="currentColor"/>
<path d="M9.66668 8.83334H7.66668C7.39334 8.83334 7.16668 8.60668 7.16668 8.33334V6.33334C7.16668 6.06001 7.39334 5.83334 7.66668 5.83334C7.94001 5.83334 8.16668 6.06001 8.16668 6.33334V7.83334H9.66668C9.94001 7.83334 10.1667 8.06001 10.1667 8.33334C10.1667 8.60668 9.94001 8.83334 9.66668 8.83334Z" fill="currentColor"/>
</svg>
