<svg width="16" height="16" viewBox="0 0 16 16" fill="none" xmlns="http://www.w3.org/2000/svg">
<path d="M11.4531 12.5C10.3131 12.5 8.95313 12.0667 8.95313 10V6C8.95313 3.93333 10.3131 3.5 11.4531 3.5C12.5931 3.5 13.9531 3.93333 13.9531 6V10C13.9531 12.0667 12.5931 12.5 11.4531 12.5ZM11.4531 4.5C10.3731 4.5 9.95313 4.92 9.95313 6V10C9.95313 11.08 10.3731 11.5 11.4531 11.5C12.5331 11.5 12.9531 11.08 12.9531 10V6C12.9531 4.92 12.5331 4.5 11.4531 4.5Z" fill="currentColor"/>
<path d="M4.54687 12.5C3.40687 12.5 2.04687 12.0667 2.04687 10V6C2.04687 3.93333 3.40687 3.5 4.54687 3.5C5.68687 3.5 7.04687 3.93333 7.04687 6V10C7.04687 12.0667 5.68687 12.5 4.54687 12.5ZM4.54687 4.5C3.46687 4.5 3.04687 4.92 3.04687 6V10C3.04687 11.08 3.46687 11.5 4.54687 11.5C5.62687 11.5 6.04687 11.08 6.04687 10V6C6.04687 4.92 5.62687 4.5 4.54687 4.5Z" fill="currentColor"/>
<path d="M9.45353 8.5H6.54687C6.27354 8.5 6.04687 8.27333 6.04687 8C6.04687 7.72667 6.27354 7.5 6.54687 7.5H9.45353C9.72687 7.5 9.95353 7.72667 9.95353 8C9.95353 8.27333 9.73353 8.5 9.45353 8.5Z" fill="currentColor"/>
<path d="M15 10.1667C14.7267 10.1667 14.5 9.94 14.5 9.66667V6.33333C14.5 6.06 14.7267 5.83333 15 5.83333C15.2733 5.83333 15.5 6.06 15.5 6.33333V9.66667C15.5 9.94 15.2733 10.1667 15 10.1667Z" fill="currentColor"/>
<path d="M1 10.1667C0.726667 10.1667 0.5 9.94 0.5 9.66667V6.33333C0.5 6.06 0.726667 5.83333 1 5.83333C1.27333 5.83333 1.5 6.06 1.5 6.33333V9.66667C1.5 9.94 1.27333 10.1667 1 10.1667Z" fill="currentColor"/>
</svg>
