<svg width="16" height="16" viewBox="0 0 16 16" fill="none" xmlns="http://www.w3.org/2000/svg">
<path d="M9.33333 15.1667H6.66667C3.04667 15.1667 1.5 13.62 1.5 10V6.00001C1.5 2.38001 3.04667 0.833344 6.66667 0.833344H9.33333C12.9533 0.833344 14.5 2.38001 14.5 6.00001V10C14.5 13.62 12.9533 15.1667 9.33333 15.1667ZM6.66667 1.83334C3.59333 1.83334 2.5 2.92668 2.5 6.00001V10C2.5 13.0733 3.59333 14.1667 6.66667 14.1667H9.33333C12.4067 14.1667 13.5 13.0733 13.5 10V6.00001C13.5 2.92668 12.4067 1.83334 9.33333 1.83334H6.66667Z" fill="currentColor"/>
<path d="M10.0464 8.36008C9.9264 8.36008 9.8064 8.31341 9.71307 8.23341C8.73973 7.36674 7.25973 7.36674 6.28642 8.23341C6.17975 8.33341 6.03308 8.37341 5.87975 8.35341C5.73308 8.33341 5.60641 8.24674 5.52641 8.12008L4.07309 5.78674C3.94642 5.58008 3.98641 5.31341 4.16641 5.14674C6.35308 3.20674 9.6464 3.20674 11.8331 5.14674C12.0131 5.30674 12.0531 5.58008 11.9264 5.78674L10.4731 8.12008C10.3931 8.24674 10.2664 8.32674 10.1197 8.35341C10.0931 8.35341 10.0664 8.36008 10.0464 8.36008ZM7.99973 6.58008C8.6664 6.58008 9.3264 6.76674 9.9064 7.13341L10.8397 5.63341C9.15307 4.38008 6.83973 4.38008 5.15308 5.63341L6.08642 7.13341C6.67307 6.76008 7.33307 6.58008 7.99973 6.58008Z" fill="currentColor"/>
</svg>
