<svg width="16" height="16" viewBox="0 0 16 16" fill="none" xmlns="http://www.w3.org/2000/svg">
<g clip-path="url(#clip0_11_9)">
<path fill-rule="evenodd" clip-rule="evenodd" d="M1.80892 4.32633C3.82511 0.942895 8.28441 -0.210217 11.6729 1.80849C15.0569 3.82448 16.2103 8.28421 14.1915 11.673C12.2137 14.9928 7.95244 16.1625 4.53256 14.3073L1.47985 15.1795C1.29581 15.2321 1.0977 15.182 0.96075 15.0483C0.823796 14.9146 0.768998 14.7177 0.817162 14.5325L1.63251 11.3965C1.11927 10.3674 0.8 9.15939 0.8 8.00001C0.8 6.70475 1.15889 5.41002 1.80892 4.32633ZM11.127 2.72486C8.24913 1.01037 4.44221 1.99029 2.72487 4.87297L2.72401 4.8744C2.17431 5.79057 1.86667 6.89556 1.86667 8.00001C1.86667 9.03597 2.17356 10.1504 2.67058 11.0824C2.73358 11.2005 2.74985 11.338 2.71616 11.4675L2.08441 13.8974L4.4535 13.2205C4.59324 13.1806 4.74322 13.1994 4.86875 13.2727C7.81651 14.9922 11.5586 14.0084 13.2751 11.1271C14.9896 8.24916 14.0097 4.4422 11.127 2.72486Z" fill="currentColor"/>
<path fill-rule="evenodd" clip-rule="evenodd" d="M6.01158 5.47808C6.00659 5.47463 6.00119 5.47084 5.99542 5.4667C5.95058 5.46723 5.9025 5.47559 5.86644 5.48946C5.85136 5.49526 5.843 5.50011 5.83915 5.5027C5.79638 5.5662 5.72935 5.65751 5.68546 5.71731C5.6664 5.74326 5.65171 5.76328 5.64525 5.77251C5.60038 5.8366 5.58272 5.87169 5.57261 5.902C5.5 6.11984 5.46668 6.23547 5.46668 6.33334C5.46668 6.58219 5.51395 6.83642 5.61421 7.09867C5.67931 7.20981 5.74206 7.32737 5.79802 7.43221C5.82575 7.48415 5.8518 7.53297 5.87565 7.57633C5.96079 7.73113 6.04386 7.86777 6.14978 8.00017C6.15941 8.01221 6.16852 8.02467 6.17708 8.0375C6.41087 8.38819 6.64204 8.62111 6.97714 8.95622C7.28665 9.26573 7.59771 9.51515 7.93319 9.78354C8.21126 10.006 8.55941 10.1827 8.86474 10.3048C9.13996 10.4149 9.40625 10.4667 9.66667 10.4667C9.75829 10.4667 9.86547 10.4375 10.0577 10.3741C10.1318 10.3332 10.2307 10.2665 10.3067 10.2016C10.337 10.1496 10.3651 10.1075 10.3867 10.0752L10.3884 10.0725C10.3526 10.029 10.3241 9.98039 10.3037 9.9285L9.35128 9.2301C9.33335 9.21696 9.31627 9.20271 9.30013 9.18744L9.0405 9.4471C9.02727 9.46035 9.00526 9.48239 8.98386 9.50165C8.95942 9.52364 8.90963 9.56648 8.83851 9.60204C8.75827 9.64216 8.68349 9.65724 8.62599 9.66299C8.58652 9.66694 8.54694 9.66675 8.53561 9.66669L8.53333 9.66668H8.40061C8.31781 9.66668 8.23553 9.6474 8.16147 9.61038C8.15775 9.60852 8.15398 9.60663 8.15015 9.60472C8.01649 9.53798 7.81788 9.43879 7.62288 9.24379L7.18936 8.8103C7.05797 8.71504 6.95541 8.60884 6.87856 8.52346C6.83062 8.47018 6.79904 8.43325 6.77372 8.40364C6.74244 8.36705 6.72073 8.34166 6.68953 8.31046C6.64899 8.26993 6.61526 8.22312 6.58962 8.17185C6.58194 8.15648 6.56393 8.1297 6.50664 8.05331C6.50413 8.04996 6.50149 8.04644 6.49872 8.04276C6.45438 7.9838 6.37849 7.88287 6.32298 7.77185C6.28595 7.69779 6.26667 7.61613 6.26667 7.53333V7.40001C6.26667 7.20641 6.35516 7.06413 6.38953 7.01257C6.41249 6.97811 6.43467 6.95045 6.45125 6.93111L6.45443 6.92742L6.63998 6.68001C6.65512 6.65982 6.67168 6.64073 6.68953 6.62288L6.7401 6.57232C6.73411 6.56093 6.72934 6.55133 6.72569 6.54396M6.72569 6.54396C6.7128 6.52867 6.70069 6.5125 6.68958 6.49584L6.02291 5.49584C6.01902 5.48999 6.01524 5.48407 6.01158 5.47808M7.39164 7.45558C7.42292 7.49775 7.46223 7.55268 7.49898 7.61386C7.52506 7.64214 7.54917 7.66963 7.57038 7.69405C7.58183 7.70724 7.59236 7.71944 7.60237 7.73103C7.62665 7.75916 7.64783 7.78369 7.67141 7.80989C7.73542 7.88102 7.78391 7.92608 7.82917 7.95625C7.85839 7.97573 7.88561 7.99805 7.91045 8.02289L8.37712 8.48954C8.39684 8.50926 8.41621 8.52613 8.43722 8.54187L8.68875 8.29033C8.91308 8.066 9.17321 8.06629 9.25812 8.06665C9.26121 8.06666 9.26668 8.06667 9.26668 8.06667C9.26668 8.06667 9.27215 8.06666 9.27524 8.06665C9.3429 8.06637 9.52114 8.06563 9.70423 8.17867C9.78856 8.21157 9.8509 8.25484 9.8867 8.2817C9.93709 8.3195 9.98308 8.3628 10.0146 8.39381L10.9821 9.10325C11.004 9.1193 11.0246 9.13701 11.0438 9.15621C11.0438 9.15621 11.0475 9.1599 11.0496 9.16197C11.07 9.18236 11.1049 9.21712 11.1408 9.25868C11.2131 9.28805 11.2863 9.33204 11.3521 9.39787C11.4564 9.50218 11.5015 9.62126 11.5199 9.71313C11.5343 9.78514 11.5335 9.85226 11.5333 9.86492L11.5333 9.86667C11.5333 9.87041 11.5333 9.87433 11.5333 9.87843C11.5334 9.93569 11.5336 10.026 11.5178 10.121C11.4986 10.236 11.4611 10.3372 11.4104 10.4385C11.3621 10.5351 11.3133 10.6083 11.28 10.6581L11.2771 10.6626C11.2437 10.7126 11.2273 10.738 11.2103 10.7718C11.1847 10.8231 11.151 10.8699 11.1104 10.9105C10.9299 11.091 10.6806 11.256 10.5052 11.3437C10.4826 11.355 10.4593 11.3647 10.4353 11.3726C10.427 11.3754 10.4185 11.3783 10.4097 11.3812C10.2272 11.4423 9.95501 11.5333 9.66667 11.5333C9.26042 11.5333 8.86004 11.4518 8.46859 11.2952C8.10725 11.1507 7.65544 10.9273 7.26685 10.6165L7.25871 10.61C6.92983 10.3469 6.57712 10.0647 6.22289 9.71046L6.21109 9.69866C5.8888 9.37639 5.59404 9.08165 5.30219 8.64804C5.14895 8.45353 5.03618 8.26341 4.94101 8.09035C4.90303 8.0213 4.87025 7.95975 4.83946 7.90194C4.78468 7.79908 4.73621 7.70807 4.67601 7.60774C4.66138 7.58335 4.64872 7.55783 4.63815 7.53142C4.48158 7.13997 4.40002 6.73959 4.40002 6.33334C4.40002 6.04492 4.4911 5.77269 4.55219 5.59011C4.5551 5.58143 4.55793 5.57296 4.56069 5.56469C4.61725 5.395 4.69958 5.26341 4.77139 5.16083C4.81547 5.09785 4.84271 5.06166 4.8666 5.02993C4.89407 4.99344 4.9171 4.96284 4.95622 4.90416C5.23747 4.48229 5.73325 4.4 6 4.4L6.00469 4.4C6.03893 4.39995 6.12646 4.39983 6.22102 4.4156C6.3048 4.42956 6.47877 4.46831 6.62689 4.60654L6.63911 4.61473C6.65015 4.62215 6.66737 4.63385 6.68667 4.64833C6.72821 4.67949 6.77647 4.72115 6.82463 4.77834C6.86354 4.82454 6.8968 4.87424 6.92568 4.92703L7.5559 5.87236C7.6222 5.95094 7.6586 6.02432 7.67433 6.05604M7.67433 6.05604C7.72916 6.12106 7.7675 6.19816 7.78642 6.28036C7.7959 6.29975 7.81001 6.32997 7.82231 6.36277C7.84098 6.41257 7.86667 6.49599 7.86667 6.6C7.86667 6.6 7.86668 6.6055 7.86669 6.6086C7.86705 6.69346 7.86813 6.95281 7.64381 7.17714L7.47056 7.35035L7.39164 7.45558M10.4665 9.85735C10.4665 9.85735 10.4666 9.85885 10.4667 9.86263L10.4665 9.85735Z" fill="currentColor"/>
</g>
<defs>
<clipPath id="clip0_11_9">
<rect width="16" height="16" fill="currentColor"/>
</clipPath>
</defs>
</svg>
