<svg width="16" height="16" viewBox="0 0 16 16" fill="none" xmlns="http://www.w3.org/2000/svg">
<path d="M5.59999 3.46665C6.33637 3.46665 6.93333 2.8697 6.93333 2.13332C6.93333 1.39694 6.33637 0.799988 5.59999 0.799988C4.86361 0.799988 4.26666 1.39694 4.26666 2.13332C4.26666 2.8697 4.86361 3.46665 5.59999 3.46665Z" fill="currentColor"/>
<path d="M5.99999 14.0667C3.99999 14.0667 2.46666 12.5333 2.46666 10.5333C2.46666 9.46665 2.93333 8.59999 3.59999 7.93332C3.46666 7.53332 3.39999 7.13332 3.39999 6.73332C2.19999 7.53332 1.39999 8.93332 1.39999 10.5333C1.39999 13.0667 3.46666 15.1333 5.99999 15.1333C7.53333 15.1333 8.86666 14.4 9.73333 13.2C9.59999 12.9333 9.39999 12.4667 9.19999 12.0667C8.59999 13.2667 7.39999 14.0667 5.99999 14.0667Z" fill="currentColor"/>
<path d="M13.8 12.4667H12.0667C11.9333 12.4667 11.8 12.4 11.7333 12.2667L10.5333 9.46665C10.1333 8.66665 9.26666 8.13332 8.33333 8.13332H7.13333C6.33333 8.13332 5.66666 7.39999 5.79999 6.66665V6.26665H7.79999C8.06666 6.26665 8.33333 6.06665 8.33333 5.73332C8.33333 5.46665 8.13333 5.19999 7.79999 5.19999H5.79999V4.79999C5.79999 4.19999 4.86666 4.13332 4.79999 4.79999V6.53332C4.66666 7.86665 5.79999 9.13332 7.13333 9.06665C7.13333 9.06665 7.59999 9.06665 7.79999 9.06665C8.93333 8.93332 9.66666 9.33332 9.99999 10.4C10.2 11.0667 11.1333 13 11.1333 13C11.2667 13.2667 11.5333 13.4667 11.8 13.4667H13.8667C14.4667 13.4667 14.4667 12.4667 13.8 12.4667Z" fill="currentColor"/>
</svg>
