<svg width="16" height="16" viewBox="0 0 16 16" fill="none" xmlns="http://www.w3.org/2000/svg">
<g clip-path="url(#clip0_2_4525)">
<path d="M12.0003 7.13994C11.8936 7.13994 11.787 7.10661 11.6936 7.03328C9.44698 5.29996 6.54699 5.29996 4.30699 7.03328C4.08699 7.19994 3.77366 7.15994 3.60699 6.94661C3.44033 6.72661 3.48033 6.41328 3.69366 6.24662C6.30699 4.22662 9.68698 4.22662 12.307 6.24662C12.527 6.41328 12.567 6.72661 12.3936 6.94661C12.3003 7.07328 12.147 7.13994 12.0003 7.13994Z" fill="currentColor"/>
<path d="M10.9336 9.20001C10.8269 9.20001 10.7202 9.16668 10.6269 9.09334C9.02691 7.86001 6.96691 7.86001 5.36689 9.09334C5.14689 9.26001 4.83355 9.22001 4.66689 9.00668C4.50022 8.78668 4.54022 8.47334 4.75355 8.30668C6.72025 6.78668 9.26691 6.78668 11.2336 8.30668C11.4536 8.47334 11.4936 8.78668 11.3202 9.00668C11.2336 9.13334 11.0869 9.20001 10.9336 9.20001Z" fill="currentColor"/>
<path d="M9.46638 11.2599C9.35971 11.2599 9.25305 11.2266 9.15971 11.1533C8.45305 10.6066 7.53971 10.6066 6.83305 11.1533C6.61303 11.3199 6.2997 11.2799 6.13303 11.0666C5.96637 10.8466 6.00637 10.5333 6.2197 10.3666C7.27971 9.54661 8.70638 9.54661 9.76638 10.3666C9.98638 10.5333 10.0264 10.8466 9.85305 11.0666C9.76638 11.1933 9.61971 11.2599 9.46638 11.2599Z" fill="currentColor"/>
<path d="M9.99998 15.1667H5.99998C2.37998 15.1667 0.833313 13.62 0.833313 10V6.00001C0.833313 2.38001 2.37998 0.833344 5.99998 0.833344H9.99998C13.62 0.833344 15.1666 2.38001 15.1666 6.00001V10C15.1666 13.62 13.62 15.1667 9.99998 15.1667ZM5.99998 1.83334C2.92665 1.83334 1.83331 2.92668 1.83331 6.00001V10C1.83331 13.0733 2.92665 14.1667 5.99998 14.1667H9.99998C13.0733 14.1667 14.1666 13.0733 14.1666 10V6.00001C14.1666 2.92668 13.0733 1.83334 9.99998 1.83334H5.99998Z" fill="currentColor"/>
</g>
<defs>
<clipPath id="clip0_2_4525">
<rect width="16" height="16" fill="currentColor"/>
</clipPath>
</defs>
</svg>
