<svg width="16" height="16" viewBox="0 0 16 16" fill="none" xmlns="http://www.w3.org/2000/svg">
<path d="M12.7273 8.39328C12.6206 8.39328 12.5139 8.35994 12.4206 8.28661C9.73394 6.21328 6.26062 6.21328 3.57395 8.28661C3.35395 8.45328 3.04062 8.41328 2.87395 8.19994C2.70729 7.97995 2.74728 7.66661 2.96062 7.49994C6.02062 5.13328 9.97394 5.13328 13.0273 7.49994C13.2473 7.66661 13.2873 7.97995 13.1139 8.19994C13.0273 8.32661 12.8806 8.39328 12.7273 8.39328Z" fill="currentColor"/>
<path d="M14.667 6.07328C14.5603 6.07328 14.4537 6.03997 14.3603 5.96663C10.4937 2.97997 5.50036 2.97997 1.64036 5.96663C1.42036 6.1333 1.10702 6.09329 0.940358 5.87996C0.773691 5.65996 0.813685 5.34661 1.02702 5.17994C5.26035 1.90661 10.7337 1.90661 14.9737 5.17994C15.1937 5.34661 15.2337 5.65996 15.0603 5.87996C14.967 6.00662 14.8137 6.07328 14.667 6.07328Z" fill="currentColor"/>
<path d="M11.4731 10.8267C11.3664 10.8267 11.2597 10.7933 11.1664 10.72C9.24641 9.23335 6.75975 9.23335 4.83307 10.72C4.61307 10.8867 4.29973 10.8467 4.13307 10.6333C3.9664 10.4133 4.0064 10.1 4.21973 9.93335C6.51307 8.16001 9.47974 8.16001 11.7731 9.93335C11.9931 10.1 12.0331 10.4133 11.8597 10.6333C11.7664 10.76 11.6197 10.8267 11.4731 10.8267Z" fill="currentColor"/>
<path d="M9.73281 13.2667C9.62615 13.2667 9.51948 13.2333 9.42615 13.16C8.55948 12.4867 7.43281 12.4867 6.56614 13.16C6.34615 13.3267 6.0328 13.2867 5.86614 13.0733C5.69947 12.8533 5.73947 12.54 5.9528 12.3733C7.19281 11.4133 8.79281 11.4133 10.0328 12.3733C10.2528 12.54 10.2928 12.8533 10.1195 13.0733C10.0328 13.1933 9.88615 13.2667 9.73281 13.2667Z" fill="currentColor"/>
</svg>
