<svg width="16" height="16" viewBox="0 0 16 16" fill="none" xmlns="http://www.w3.org/2000/svg">
<path d="M12.3333 15.1667C10.7733 15.1667 9.49998 13.8933 9.49998 12.3333V12C9.49998 11.7267 9.72665 11.5 9.99998 11.5C10.2733 11.5 10.5 11.7267 10.5 12V12.3333C10.5 13.3467 11.32 14.1667 12.3333 14.1667C13.3466 14.1667 14.1666 13.3467 14.1666 12.3333C14.1666 11.32 13.3466 10.5 12.3333 10.5H1.33331C1.05998 10.5 0.833313 10.2733 0.833313 10C0.833313 9.72668 1.05998 9.50001 1.33331 9.50001H12.3333C13.8933 9.50001 15.1666 10.7733 15.1666 12.3333C15.1666 13.8933 13.8933 15.1667 12.3333 15.1667Z" fill="currentColor"/>
<path d="M12.3333 8.50001H1.33331C1.05998 8.50001 0.833313 8.27334 0.833313 8.00001C0.833313 7.72668 1.05998 7.50001 1.33331 7.50001H12.3333C13.3466 7.50001 14.1666 6.68001 14.1666 5.66668C14.1666 4.65334 13.3466 3.83334 12.3333 3.83334C11.32 3.83334 10.5 4.65334 10.5 5.66668V6.00001C10.5 6.27334 10.2733 6.50001 9.99998 6.50001C9.72665 6.50001 9.49998 6.27334 9.49998 6.00001V5.66668C9.49998 4.10668 10.7733 2.83334 12.3333 2.83334C13.8933 2.83334 15.1666 4.10668 15.1666 5.66668C15.1666 7.22668 13.8933 8.50001 12.3333 8.50001Z" fill="currentColor"/>
<path d="M6.20665 6.50009H1.33331C1.05998 6.50009 0.833313 6.27342 0.833313 6.00009C0.833313 5.72676 1.05998 5.50009 1.33331 5.50009H6.20665C6.91998 5.50009 7.49998 4.92009 7.49998 4.20676C7.49998 3.49342 6.91998 2.91342 6.20665 2.91342C5.49331 2.91342 4.91331 3.49342 4.91331 4.20676V4.46009C4.91331 4.73342 4.68664 4.96009 4.41331 4.96009C4.13998 4.96009 3.91331 4.73342 3.91331 4.46009V4.20676C3.91331 2.94009 4.93998 1.91342 6.20665 1.91342C7.47331 1.91342 8.49998 2.94009 8.49998 4.20676C8.49998 5.47342 7.47331 6.50009 6.20665 6.50009Z" fill="currentColor"/>
</svg>
