<svg width="16" height="16" viewBox="0 0 16 16" fill="none" xmlns="http://www.w3.org/2000/svg">
<path d="M14.6666 9.23332C14.5799 9.23332 14.4932 9.21332 14.4132 9.15999L12.7466 8.15999C11.8799 7.63999 10.7999 7.63999 9.92658 8.15999C8.73991 8.87332 7.26658 8.87332 6.07991 8.15999C5.21324 7.63999 4.13325 7.63999 3.25992 8.15999L1.59325 9.15999C1.35325 9.29999 1.04657 9.22666 0.906568 8.98666C0.766568 8.74665 0.839908 8.43999 1.07991 8.29999L2.74657 7.29999C3.93324 6.58663 5.40659 6.58663 6.59325 7.29999C7.45991 7.81999 8.53991 7.81999 9.41325 7.29999C10.5999 6.58663 12.0732 6.58663 13.2599 7.29999L14.9266 8.29999C15.1666 8.43999 15.2399 8.74665 15.0999 8.98666C14.9999 9.14666 14.8332 9.23332 14.6666 9.23332Z" fill="currentColor"/>
<path d="M4.66673 4.56668C4.00006 4.56668 3.33338 4.38668 2.74005 4.03334L1.07338 3.03334C0.833381 2.89334 0.760061 2.58668 0.900061 2.34668C1.04006 2.11334 1.34673 2.03334 1.58673 2.17334L3.25339 3.17334C4.12006 3.69334 5.20005 3.69334 6.07338 3.17334C7.26005 2.46001 8.73338 2.46001 9.92005 3.17334C10.7867 3.69334 11.8667 3.69334 12.74 3.17334L14.4067 2.17334C14.6467 2.03334 14.9534 2.10668 15.0934 2.34668C15.2334 2.58001 15.16 2.89334 14.92 3.03334L13.2534 4.03334C12.0667 4.74668 10.5934 4.74668 9.40671 4.03334C8.54005 3.51334 7.46005 3.51334 6.58673 4.03334C6.00006 4.38668 5.33339 4.56668 4.66673 4.56668Z" fill="currentColor"/>
<path d="M14.6666 13.9C14.5799 13.9 14.4932 13.88 14.4132 13.8267L12.7466 12.8267C11.8799 12.3067 10.7999 12.3067 9.92658 12.8267C8.73991 13.54 7.26658 13.54 6.07991 12.8267C5.21324 12.3067 4.13325 12.3067 3.25992 12.8267L1.59325 13.8267C1.35325 13.9667 1.04657 13.8933 0.906568 13.6533C0.766568 13.4133 0.839908 13.1067 1.07991 12.9667L2.74657 11.9667C3.93324 11.2533 5.40659 11.2533 6.59325 11.9667C7.45991 12.4867 8.53991 12.4867 9.41325 11.9667C10.5999 11.2533 12.0732 11.2533 13.2599 11.9667L14.9266 12.9667C15.1666 13.1067 15.2399 13.4133 15.0999 13.6533C14.9999 13.8133 14.8332 13.9 14.6666 13.9Z" fill="currentColor"/>
</svg>
