<svg width="16" height="16" viewBox="0 0 16 16" fill="none" xmlns="http://www.w3.org/2000/svg">
<path d="M7.99998 11.1667C5.15331 11.1667 2.83331 8.84668 2.83331 6.00001C2.83331 3.15334 5.15331 0.833344 7.99998 0.833344C10.8466 0.833344 13.1666 3.15334 13.1666 6.00001C13.1666 8.84668 10.8466 11.1667 7.99998 11.1667ZM7.99998 1.83334C5.69998 1.83334 3.83331 3.70001 3.83331 6.00001C3.83331 8.30001 5.69998 10.1667 7.99998 10.1667C10.3 10.1667 12.1666 8.30001 12.1666 6.00001C12.1666 3.70001 10.3 1.83334 7.99998 1.83334Z" fill="currentColor"/>
<path d="M7.99998 15.1667C7.72665 15.1667 7.49998 14.94 7.49998 14.6667V10.6667C7.49998 10.3933 7.72665 10.1667 7.99998 10.1667C8.27331 10.1667 8.49998 10.3933 8.49998 10.6667V14.6667C8.49998 14.94 8.27331 15.1667 7.99998 15.1667Z" fill="currentColor"/>
<path d="M9.99998 13.1667H5.99998C5.72665 13.1667 5.49998 12.94 5.49998 12.6667C5.49998 12.3933 5.72665 12.1667 5.99998 12.1667H9.99998C10.2733 12.1667 10.5 12.3933 10.5 12.6667C10.5 12.94 10.2733 13.1667 9.99998 13.1667Z" fill="currentColor"/>
</svg>
