<svg width="16" height="16" viewBox="0 0 16 16" fill="none" xmlns="http://www.w3.org/2000/svg">
<path fill-rule="evenodd" clip-rule="evenodd" d="M14.1333 5.62138C14.0118 4.17327 12.7896 3.08955 11.3742 3.19843C11.3606 3.19948 11.347 3.2 11.3333 3.2H4.28855C2.84044 3.32155 1.75621 4.54371 1.86509 5.9591C1.86613 5.97271 1.86666 5.98635 1.86666 6V10.3781C1.9882 11.8262 3.21036 12.9104 4.62575 12.8016C4.63936 12.8005 4.65301 12.8 4.66666 12.8H11.7114C13.1595 12.6785 14.2438 11.4563 14.1349 10.0409C14.1338 10.0273 14.1333 10.0137 14.1333 10V5.62138ZM11.3136 2.13333C13.3491 1.98849 15.0444 3.55725 15.1984 5.55909C15.1995 5.5727 15.2 5.58635 15.2 5.6V9.98031C15.3448 12.0158 13.776 13.7111 11.7742 13.8651C11.7606 13.8661 11.747 13.8667 11.7333 13.8667H4.68635C2.65086 14.0115 0.95555 12.4428 0.801562 10.4409C0.800515 10.4273 0.799991 10.4137 0.799991 10.4V6.01969C0.655151 3.98419 2.22393 2.28889 4.22577 2.13491C4.23938 2.13386 4.25302 2.13333 4.26667 2.13333H11.3136Z" fill="currentColor"/>
<path fill-rule="evenodd" clip-rule="evenodd" d="M7.01663 6.68799C7.00085 6.70419 6.93331 6.78891 6.93331 7.06667V9.06667C6.93331 9.18712 6.95538 9.265 6.97612 9.30898C6.99574 9.3506 7.01308 9.36106 7.0165 9.36303C7.01944 9.36473 7.03606 9.37432 7.08124 9.37006C7.12985 9.36548 7.21226 9.34402 7.32561 9.27601L8.99228 8.27601C9.02565 8.25599 9.0611 8.23968 9.09802 8.22737C9.12858 8.21719 9.13787 8.20789 9.13949 8.20627C9.14112 8.20464 9.1505 8.19527 9.1607 8.16468C9.19362 8.0659 9.1856 7.99368 9.16827 7.94819C9.15247 7.9067 9.11711 7.85483 9.02816 7.81036C9.01595 7.80426 9.00398 7.79769 8.99228 7.79066L7.32561 6.79066C7.12835 6.67231 7.03684 6.68332 7.01663 6.68799ZM6.48348 5.76303C6.94133 5.4989 7.46326 5.62932 7.87441 5.876L9.52539 6.8666C9.82626 7.02267 10.0501 7.26668 10.1651 7.56848C10.2811 7.87299 10.273 8.20077 10.1726 8.50199C10.0599 8.84014 9.82445 9.08888 9.49752 9.2168L7.87441 10.1907C7.43967 10.4515 6.92443 10.5414 6.48348 10.287C6.0469 10.0351 5.86664 9.55085 5.86664 9.06667V7.06667C5.86664 6.54926 6.02655 6.02664 6.48348 5.76303Z" fill="currentColor"/>
</svg>
