<svg width="12" height="12" viewBox="0 0 12 12" fill="none" xmlns="http://www.w3.org/2000/svg">
<path d="M9.27273 0.545456H2.72728C1.82182 0.545456 1.09091 1.27091 1.09091 2.16546V8.11637C1.09091 9.01091 1.82182 9.73637 2.72728 9.73637H3.14182C3.57818 9.73637 3.99273 9.90546 4.29818 10.2109L5.23091 11.1327C5.65637 11.5527 6.34909 11.5527 6.77455 11.1327L7.70728 10.2109C8.01273 9.90546 8.43273 9.73637 8.86364 9.73637H9.27273C10.1782 9.73637 10.9091 9.01091 10.9091 8.11637V2.16546C10.9091 1.27091 10.1782 0.545456 9.27273 0.545456ZM5.11637 6.55091C5.34 6.55091 5.52546 6.73637 5.52546 6.96C5.52546 7.18364 5.34 7.36909 5.11637 7.36909H3.65455C3.41455 7.36909 3.19091 7.25455 3.04909 7.05818C2.91273 6.87273 2.88 6.64364 2.94546 6.42546C3.13637 5.84182 3.60546 5.52546 4.02 5.24182C4.45637 4.94727 4.70182 4.76182 4.70182 4.44546C4.70182 4.16182 4.47273 3.93273 4.18909 3.93273C3.90546 3.93273 3.68182 4.16727 3.68182 4.45091C3.68182 4.67455 3.49637 4.86 3.27273 4.86C3.04909 4.86 2.86364 4.67455 2.86364 4.45091C2.86364 3.72 3.45818 3.12 4.19455 3.12C4.93091 3.12 5.52546 3.71455 5.52546 4.45091C5.52546 5.22 4.94728 5.61273 4.48364 5.92909C4.19455 6.12546 3.92182 6.31091 3.78546 6.55637H5.11637V6.55091ZM8.72728 6.58909H8.61273V6.96546C8.61273 7.18909 8.42728 7.37455 8.20364 7.37455C7.98 7.37455 7.79455 7.18909 7.79455 6.96546V6.58909H6.72546C6.72546 6.58909 6.72546 6.58909 6.72 6.58909C6.45273 6.58909 6.20728 6.44727 6.07091 6.21818C5.93455 5.98364 5.93455 5.69455 6.07091 5.46546C6.44182 4.82727 6.87273 4.10182 7.26546 3.46909C7.44 3.19091 7.77273 3.06546 8.08364 3.15273C8.39455 3.24546 8.61273 3.52909 8.60728 3.85636V5.77637H8.72728C8.95091 5.77637 9.13637 5.96182 9.13637 6.18546C9.13637 6.40909 8.95091 6.58909 8.72728 6.58909Z" fill="currentColor"/>
<path d="M7.79405 5.77124V4.16762C7.47224 4.69125 7.13951 5.25306 6.83951 5.76579H7.79405V5.77124Z" fill="currentColor"/>
</svg>
