<svg width="12" height="12" viewBox="0 0 12 12" fill="none" xmlns="http://www.w3.org/2000/svg">
<path d="M10.5 4.84616C10.3108 4.84616 10.1538 4.68923 10.1538 4.5V3.57693C10.1538 2.38616 9.38306 1.61539 8.1923 1.61539H3.57691C2.38614 1.61539 1.61537 2.38616 1.61537 3.57693V4.5C1.61537 4.68923 1.45845 4.84616 1.26922 4.84616C1.07999 4.84616 0.923065 4.68923 0.923065 4.5V3.57693C0.923065 1.98923 1.98922 0.92308 3.57691 0.92308H8.1923C9.77999 0.92308 10.8461 1.98923 10.8461 3.57693V4.5C10.8461 4.68923 10.6892 4.84616 10.5 4.84616Z" fill="currentColor"/>
<path d="M8.1923 10.8462H3.57691C1.98922 10.8462 0.923065 9.78 0.923065 8.19231V7.26923C0.923065 7.08 1.07999 6.92308 1.26922 6.92308C1.45845 6.92308 1.61537 7.08 1.61537 7.26923V8.19231C1.61537 9.38308 2.38614 10.1538 3.57691 10.1538H8.1923C9.38306 10.1538 10.1538 9.38308 10.1538 8.19231V7.26923C10.1538 7.08 10.3108 6.92308 10.5 6.92308C10.6892 6.92308 10.8461 7.08 10.8461 7.26923V8.19231C10.8461 9.78 9.77999 10.8462 8.1923 10.8462Z" fill="currentColor"/>
<path d="M7.91546 4.13582L6.18008 3.1989C5.99546 3.10198 5.77854 3.10198 5.59393 3.1989L3.85391 4.13582C3.72929 4.20505 3.65083 4.3389 3.65083 4.48659C3.65083 4.6389 3.72929 4.77274 3.85391 4.84198L5.58931 5.77888C5.68162 5.82965 5.78316 5.85273 5.8847 5.85273C5.98623 5.85273 6.08777 5.82965 6.18008 5.77888L7.91546 4.84198C8.04008 4.77274 8.11854 4.6389 8.11854 4.48659C8.11854 4.3389 8.04008 4.20505 7.91546 4.13582Z" fill="currentColor"/>
<path d="M5.30306 6.10085L3.68768 5.29316C3.56306 5.23316 3.41999 5.23777 3.29999 5.31162C3.1846 5.38546 3.11537 5.51008 3.11537 5.64854V7.17623C3.11537 7.43931 3.26307 7.67931 3.49845 7.7947L5.11383 8.60239C5.16922 8.63008 5.22922 8.64393 5.29383 8.64393C5.36768 8.64393 5.43691 8.62546 5.50153 8.58393C5.62153 8.51008 5.69076 8.38546 5.69076 8.247V6.71931C5.68614 6.45623 5.54306 6.22085 5.30306 6.10085Z" fill="currentColor"/>
<path d="M8.46548 5.31162C8.34548 5.23777 8.2024 5.23316 8.07779 5.29316L6.4624 6.10085C6.22702 6.22085 6.07933 6.45623 6.07933 6.71931V8.247C6.07933 8.38546 6.14856 8.51008 6.26856 8.58393C6.33317 8.62546 6.4024 8.64393 6.47625 8.64393C6.53625 8.64393 6.59625 8.63008 6.65625 8.60239L8.27163 7.7947C8.50702 7.6747 8.65471 7.43931 8.65471 7.17623V5.64854C8.65471 5.51008 8.58548 5.38546 8.46548 5.31162Z" fill="currentColor"/>
</svg>
