<svg width="12" height="12" viewBox="0 0 12 12" fill="none" xmlns="http://www.w3.org/2000/svg">
<path d="M9.99802 2.55341L6.57802 0.709773C6.21802 0.513409 5.78166 0.513409 5.42166 0.709773L2.00165 2.55341C1.75074 2.68977 1.59801 2.95159 1.59801 3.25159C1.59801 3.54614 1.75074 3.81341 2.00165 3.94977L5.42166 5.79344C5.60166 5.89162 5.80347 5.94071 5.99984 5.94071C6.1962 5.94071 6.39802 5.89162 6.57802 5.79344L9.99802 3.94977C10.2489 3.81341 10.4017 3.55159 10.4017 3.25159C10.4017 2.95159 10.2489 2.68977 9.99802 2.55341Z" fill="currentColor"/>
<path d="M4.86 6.43091L1.67455 4.83818C1.42909 4.71818 1.14546 4.72909 0.916365 4.87091C0.68182 5.01818 0.545456 5.26364 0.545456 5.53636V8.54182C0.545456 9.06 0.834547 9.52909 1.29818 9.76364L4.47818 11.3564C4.58727 11.4109 4.70727 11.4382 4.82727 11.4382C4.96909 11.4382 5.11091 11.4 5.23636 11.3236C5.47091 11.1818 5.60727 10.9309 5.60727 10.6582V7.65273C5.61273 7.12909 5.32364 6.66 4.86 6.43091Z" fill="currentColor"/>
<path d="M11.084 4.87099C10.8495 4.72917 10.5658 4.7128 10.3258 4.83826L7.14584 6.43096C6.6822 6.66551 6.39311 7.12914 6.39311 7.65278V10.6582C6.39311 10.931 6.52947 11.1819 6.76402 11.3237C6.88947 11.4001 7.03129 11.4382 7.17311 11.4382C7.29311 11.4382 7.41311 11.411 7.5222 11.3564L10.7022 9.76369C11.1658 9.52915 11.4549 9.06551 11.4549 8.54187V5.53642C11.4549 5.26369 11.3186 5.01824 11.084 4.87099Z" fill="currentColor"/>
</svg>
