<svg width="12" height="12" viewBox="0 0 12 12" fill="none" xmlns="http://www.w3.org/2000/svg">
<path d="M7.5001 11.3742C7.3651 11.3742 7.2401 11.2991 7.1751 11.1841C7.1101 11.0641 7.1101 10.9241 7.1801 10.8041L7.7051 9.92915C7.8101 9.75415 8.0401 9.69415 8.2201 9.79915C8.4001 9.90415 8.4551 10.1341 8.3501 10.3141L8.2151 10.5392C9.5951 10.2142 10.6301 8.97415 10.6301 7.49415C10.6301 7.28915 10.8001 7.11915 11.0051 7.11915C11.2101 7.11915 11.3801 7.28915 11.3801 7.49415C11.3751 9.63415 9.6351 11.3742 7.5001 11.3742Z" fill="currentColor"/>
<path d="M1 4.875C0.795 4.875 0.625 4.705 0.625 4.5C0.625 2.365 2.365 0.625 4.5 0.625C4.635 0.625 4.76 0.7 4.825 0.815C4.89 0.935 4.89 1.075 4.82 1.195L4.295 2.07C4.19 2.245 3.96 2.305 3.78 2.195C3.605 2.09 3.545 1.86 3.655 1.68L3.79 1.455C2.405 1.78 1.375 3.02 1.375 4.5C1.375 4.705 1.205 4.875 1 4.875Z" fill="currentColor"/>
<path d="M8.2001 4.10547L6.3201 3.09047C6.1201 2.98547 5.8851 2.98547 5.6851 3.09047L3.80008 4.10547C3.66508 4.18047 3.58008 4.32547 3.58008 4.48547C3.58008 4.65047 3.66508 4.79547 3.80008 4.87047L5.6801 5.88545C5.7801 5.94045 5.8901 5.96545 6.0001 5.96545C6.1101 5.96545 6.2201 5.94045 6.3201 5.88545L8.2001 4.87047C8.3351 4.79547 8.4201 4.65047 8.4201 4.48547C8.4201 4.32547 8.3351 4.18047 8.2001 4.10547Z" fill="currentColor"/>
<path d="M5.37 6.23425L3.62 5.35925C3.485 5.29425 3.33 5.29925 3.2 5.37925C3.075 5.45925 3 5.59425 3 5.74425V7.39925C3 7.68425 3.16 7.94425 3.415 8.06925L5.165 8.94425C5.225 8.97425 5.29 8.98925 5.36 8.98925C5.44 8.98925 5.515 8.96925 5.585 8.92425C5.715 8.84425 5.79 8.70925 5.79 8.55925V6.90425C5.785 6.61925 5.63 6.36425 5.37 6.23425Z" fill="currentColor"/>
<path d="M8.79595 5.37925C8.66595 5.29925 8.51095 5.29425 8.37595 5.35925L6.62595 6.23425C6.37095 6.36425 6.21095 6.61925 6.21095 6.90425V8.55925C6.21095 8.70925 6.28595 8.84425 6.41595 8.92425C6.48595 8.96925 6.56095 8.98925 6.64095 8.98925C6.70595 8.98925 6.77095 8.97425 6.83595 8.94425L8.58595 8.06925C8.84095 7.93925 9.00095 7.68425 9.00095 7.39925V5.74425C9.00095 5.59425 8.92595 5.45925 8.79595 5.37925Z" fill="currentColor"/>
</svg>
