<svg width="12" height="12" viewBox="0 0 12 12" fill="none" xmlns="http://www.w3.org/2000/svg">
<path d="M8.28544 0.545456H3.71453C1.72908 0.545456 0.545441 1.73455 0.545441 3.72V8.28545C0.545441 10.2709 1.72908 11.4545 3.71453 11.4545H8.27999C10.2654 11.4545 11.4491 10.2709 11.4491 8.28545V3.72C11.4545 1.73455 10.2709 0.545456 8.28544 0.545456ZM5.76544 8.61272C5.76544 8.77635 5.68362 8.92363 5.5418 9.0109C5.46544 9.05999 5.38362 9.08181 5.29635 9.08181C5.22544 9.08181 5.15453 9.06544 5.08362 9.03272L3.17453 8.07817C2.9018 7.93635 2.72726 7.65817 2.72726 7.34726V5.54181C2.72726 5.37817 2.80908 5.2309 2.9509 5.14363C3.09271 5.05635 3.2618 5.0509 3.40908 5.12181L5.31817 6.07635C5.59635 6.21817 5.7709 6.49635 5.7709 6.80726V8.61272H5.76544ZM5.6509 5.69454L3.59999 4.58727C3.45271 4.50546 3.35999 4.34728 3.35999 4.16728C3.35999 3.99273 3.45271 3.82909 3.59999 3.74727L5.6509 2.64001C5.86908 2.52546 6.12544 2.52546 6.34362 2.64001L8.39453 3.74727C8.5418 3.82909 8.63453 3.98728 8.63453 4.16728C8.63453 4.34728 8.5418 4.50546 8.39453 4.58727L6.34362 5.69454C6.23453 5.75454 6.11453 5.78181 5.99453 5.78181C5.87453 5.78181 5.75999 5.75454 5.6509 5.69454ZM9.27271 7.34726C9.27271 7.65817 9.09817 7.94181 8.81999 8.07817L6.9109 9.03272C6.84544 9.06544 6.77453 9.08181 6.69817 9.08181C6.6109 9.08181 6.52908 9.05999 6.45271 9.0109C6.3109 8.92363 6.22908 8.77635 6.22908 8.61272V6.80726C6.22908 6.49635 6.40362 6.21272 6.6818 6.07635L8.5909 5.12181C8.73817 5.0509 8.90726 5.05635 9.04908 5.14363C9.1909 5.2309 9.27271 5.37817 9.27271 5.54181V7.34726Z" fill="currentColor"/>
</svg>
