<svg width="12" height="12" viewBox="0 0 12 12" fill="none" xmlns="http://www.w3.org/2000/svg">
<path d="M6.00002 9.54546V10.0255C6.00002 11.0455 5.59093 11.4545 4.56547 11.4545H1.97456C1.18365 11.4545 0.545471 10.8164 0.545471 10.0255V7.43455C0.545471 6.40909 0.954562 6 1.97456 6H2.45456V7.90909C2.45456 8.81455 3.18547 9.54546 4.09093 9.54546H6.00002Z" fill="currentColor"/>
<path d="M8.72729 6.81818V7.29273C8.72729 8.08364 8.08365 8.72727 7.29274 8.72727H4.70183C3.68183 8.72727 3.27274 8.31818 3.27274 7.29273V4.70182C3.27274 3.91091 3.91093 3.27273 4.70183 3.27273H5.18184V5.18182C5.18184 6.08727 5.91274 6.81818 6.8182 6.81818H8.72729Z" fill="currentColor"/>
<path d="M11.4546 1.97455V4.56546C11.4546 5.59091 11.0455 6 10.02 6H7.42911C6.40911 6 6.00002 5.59091 6.00002 4.56546V1.97455C6.00002 0.954547 6.40911 0.545456 7.42911 0.545456H10.02C11.0455 0.545456 11.4546 0.954547 11.4546 1.97455Z" fill="currentColor"/>
</svg>
