<svg width="12" height="12" viewBox="0 0 12 12" fill="none" xmlns="http://www.w3.org/2000/svg">
<path d="M8.28547 0.545456H3.71456C1.72911 0.545456 0.545471 1.72909 0.545471 3.71455V8.28C0.545471 10.2709 1.72911 11.4545 3.71456 11.4545H8.28002C10.2655 11.4545 11.4491 10.2709 11.4491 8.28546V3.71455C11.4546 1.72909 10.2709 0.545456 8.28547 0.545456ZM8.86911 4.88727L7.60911 6.51273C7.45093 6.71455 7.22729 6.84546 6.97093 6.87273C6.71456 6.90546 6.46365 6.83455 6.26183 6.67636L5.26365 5.89091C5.22547 5.85818 5.18184 5.85818 5.16002 5.86364C5.1382 5.86364 5.10002 5.87455 5.06729 5.91818L3.76911 7.60364C3.68729 7.70727 3.56729 7.76182 3.44729 7.76182C3.36002 7.76182 3.27274 7.73455 3.19638 7.67455C3.01638 7.53818 2.98365 7.28182 3.12002 7.10182L4.4182 5.41637C4.57638 5.21455 4.80002 5.08364 5.05638 5.05091C5.30729 5.01818 5.56365 5.08909 5.76547 5.24727L6.76365 6.03273C6.80183 6.06546 6.84002 6.06546 6.86729 6.06C6.88911 6.06 6.92729 6.04909 6.96002 6.00546L8.22002 4.38C8.35638 4.2 8.6182 4.16727 8.79274 4.30909C8.97274 4.45636 9.00547 4.71273 8.86911 4.88727Z" fill="currentColor"/>
</svg>
