<svg width="12" height="12" viewBox="0 0 12 12" fill="none" xmlns="http://www.w3.org/2000/svg">
<path d="M6.00002 0.545456C2.99456 0.545456 0.545471 2.99455 0.545471 6C0.545471 9.00546 2.99456 11.4545 6.00002 11.4545C9.00547 11.4545 11.4546 9.00546 11.4546 6C11.4546 2.99455 9.00547 0.545456 6.00002 0.545456ZM8.18184 6.40909H6.40911V8.18182C6.40911 8.40546 6.22365 8.59091 6.00002 8.59091C5.77638 8.59091 5.59093 8.40546 5.59093 8.18182V6.40909H3.8182C3.59456 6.40909 3.40911 6.22364 3.40911 6C3.40911 5.77637 3.59456 5.59091 3.8182 5.59091H5.59093V3.81818C5.59093 3.59455 5.77638 3.40909 6.00002 3.40909C6.22365 3.40909 6.40911 3.59455 6.40911 3.81818V5.59091H8.18184C8.40547 5.59091 8.59093 5.77637 8.59093 6C8.59093 6.22364 8.40547 6.40909 8.18184 6.40909Z" fill="currentColor"/>
</svg>
