<svg width="12" height="12" viewBox="0 0 12 12" fill="none" xmlns="http://www.w3.org/2000/svg">
<path d="M8.28547 0.545456H3.71456C1.72911 0.545456 0.545471 1.72909 0.545471 3.71455V8.28C0.545471 10.2709 1.72911 11.4545 3.71456 11.4545H8.28002C10.2655 11.4545 11.4491 10.2709 11.4491 8.28546V3.71455C11.4546 1.72909 10.2709 0.545456 8.28547 0.545456ZM9.27274 6.40909H6.40911V9.27273C6.40911 9.49637 6.22365 9.68182 6.00002 9.68182C5.77638 9.68182 5.59093 9.49637 5.59093 9.27273V6.40909H2.72729C2.50365 6.40909 2.3182 6.22364 2.3182 6C2.3182 5.77637 2.50365 5.59091 2.72729 5.59091H5.59093V2.72727C5.59093 2.50364 5.77638 2.31818 6.00002 2.31818C6.22365 2.31818 6.40911 2.50364 6.40911 2.72727V5.59091H9.27274C9.49638 5.59091 9.68184 5.77637 9.68184 6C9.68184 6.22364 9.49638 6.40909 9.27274 6.40909Z" fill="currentColor"/>
</svg>
