<svg width="12" height="12" viewBox="0 0 12 12" fill="none" xmlns="http://www.w3.org/2000/svg">
<path d="M6.78002 2.41637V3.14727C5.35093 3.26182 4.5382 4.17818 4.5382 5.68909V8.18182H2.41638C1.16729 8.18182 0.545471 7.56 0.545471 6.31091V2.41637C0.545471 1.16727 1.16729 0.545456 2.41638 0.545456H4.90911C6.1582 0.545456 6.78002 1.16727 6.78002 2.41637Z" fill="currentColor"/>
<path d="M9.58382 3.81818H7.09109C5.842 3.81818 5.22018 4.44 5.22018 5.68909V9.58364C5.22018 10.8327 5.842 11.4545 7.09109 11.4545H9.58382C10.8329 11.4545 11.4547 10.8327 11.4547 9.58364V5.68909C11.4547 4.44 10.8329 3.81818 9.58382 3.81818ZM9.34382 8.04546H8.86382V8.52546C8.86382 8.74909 8.67836 8.93455 8.45473 8.93455C8.23109 8.93455 8.04564 8.74909 8.04564 8.52546V8.04546H7.56564C7.342 8.04546 7.15654 7.86 7.15654 7.63637C7.15654 7.41273 7.342 7.22727 7.56564 7.22727H8.04564V6.74727C8.04564 6.52364 8.23109 6.33818 8.45473 6.33818C8.67836 6.33818 8.86382 6.52364 8.86382 6.74727V7.22727H9.34382C9.56745 7.22727 9.75291 7.41273 9.75291 7.63637C9.75291 7.86 9.56745 8.04546 9.34382 8.04546Z" fill="currentColor"/>
</svg>
