<svg width="12" height="12" viewBox="0 0 12 12" fill="none" xmlns="http://www.w3.org/2000/svg">
<path d="M7.0954 5.84943C7.29609 4.9872 6.56024 4.23539 5.71633 4.44043C5.3201 4.54032 4.99591 4.87153 4.89816 5.27637C4.69748 6.13859 5.43331 6.89039 6.27722 6.68536C6.67859 6.58546 7.00278 6.25425 7.0954 5.84943Z" fill="currentColor"/>
<path d="M2.92279 9.33582C2.83016 9.33582 2.73239 9.29902 2.66035 9.23067C1.66207 8.28434 1.09088 6.94896 1.09088 5.56101C1.09088 2.79562 3.29329 0.545456 5.99996 0.545456C8.70666 0.545456 10.9091 2.79562 10.9091 5.56101C10.9091 6.95948 10.3585 8.25279 9.36018 9.2149C9.2058 9.3621 8.9588 9.35685 8.81472 9.19912C8.67064 9.0414 8.67578 8.78905 8.83016 8.64184C9.67407 7.8322 10.1372 6.74392 10.1372 5.56627C10.1372 3.23724 8.27956 1.33932 5.99996 1.33932C3.72039 1.33932 1.86275 3.23724 1.86275 5.56627C1.86275 6.75444 2.33102 7.84798 3.18523 8.65761C3.3396 8.80482 3.34989 9.05718 3.20581 9.2149C3.12862 9.29376 3.02571 9.33582 2.92279 9.33582Z" fill="currentColor"/>
<path d="M8.05757 7.93136C7.96494 7.93136 7.86717 7.89456 7.79513 7.82621C7.64075 7.679 7.63046 7.42665 7.77969 7.26893C8.20679 6.80627 8.4435 6.19642 8.4435 5.56553C8.4435 4.18809 7.34744 3.07352 6.00439 3.07352C4.66135 3.07352 3.56529 4.19335 3.56529 5.56553C3.56529 6.20167 3.802 6.80627 4.2291 7.26893C4.37318 7.42665 4.36804 7.679 4.21366 7.82621C4.05929 7.97867 3.81229 7.96816 3.66821 7.81044C3.10731 7.20058 2.79342 6.40146 2.79342 5.56553C2.79342 3.75698 4.23424 2.28491 6.00439 2.28491C7.77455 2.28491 9.21537 3.75698 9.21537 5.56553C9.21537 6.40146 8.90662 7.20058 8.34058 7.81044C8.2634 7.8893 8.16048 7.93136 8.05757 7.93136Z" fill="currentColor"/>
<path d="M5.12517 8.6471L4.38416 9.58817C3.79754 10.34 4.32241 11.4545 5.25897 11.4545H6.73581C7.6775 11.4545 8.20237 10.34 7.6106 9.59343L6.8696 8.65236C6.42706 8.07404 5.57286 8.07404 5.12517 8.6471Z" fill="currentColor"/>
</svg>
