<svg width="12" height="12" viewBox="0 0 12 12" fill="none" xmlns="http://www.w3.org/2000/svg">
<path d="M7.58813 5.64055H4.40665C4.0761 5.64055 3.75073 5.49875 3.51831 5.24786C3.44601 5.17151 3.38403 5.0897 3.33238 4.99698C3.23942 4.83334 3.07414 4.72972 2.89338 4.72972H1.60736C1.32329 4.72972 1.09088 4.97516 1.09088 5.27513V9.00023C1.09088 10.3583 2.129 11.4545 3.41502 11.4545H8.57976C9.86578 11.4545 10.9039 10.3583 10.9039 9.00023V5.27513C10.9039 4.97516 10.6715 4.72972 10.3874 4.72972H9.09624C8.91031 4.72972 8.74503 4.8388 8.65207 5.00789C8.43515 5.38421 8.03746 5.64055 7.58813 5.64055Z" fill="currentColor"/>
<path d="M8.57976 0.545456H3.41502C2.129 0.545456 1.09088 1.64172 1.09088 2.99977V3.36519C1.09088 3.66516 1.32329 3.91059 1.60736 3.91059H2.89854C3.08447 3.91059 3.24975 3.80151 3.34271 3.63244C3.55963 3.25611 3.95732 2.99977 4.40665 2.99977H7.50033C7.81538 2.99977 8.26988 3.1743 8.4868 3.40882C8.55394 3.47972 8.60559 3.55608 8.65723 3.63789C8.7502 3.80151 8.91547 3.91059 9.1014 3.91059H10.3926C10.6767 3.91059 10.9091 3.66516 10.9091 3.36519V2.99977C10.9039 1.64172 9.86578 0.545456 8.57976 0.545456Z" fill="currentColor"/>
</svg>
