<svg width="12" height="12" viewBox="0 0 12 12" fill="none" xmlns="http://www.w3.org/2000/svg">
<path d="M3.63814 0.545456H2.60723C2.03996 0.545456 1.52723 0.774547 1.15086 1.15091C0.774501 1.52727 0.54541 2.04 0.54541 2.60727C0.54541 3.74182 1.47268 4.66909 2.60723 4.66909H3.11996V8.78727C3.11996 9.18546 3.34905 9.52909 3.68177 9.69818C3.81814 9.77455 3.98177 9.81818 4.15086 9.81818C4.27086 9.81818 4.39086 9.79636 4.49996 9.75273C4.89814 9.61091 5.18177 9.23455 5.18177 8.78727V2.08909C5.18177 1.24364 4.48359 0.545456 3.63814 0.545456ZM2.60723 2.71091C2.83086 2.71091 3.01632 2.89636 3.01632 3.12C3.01632 3.34364 2.83086 3.52909 2.60723 3.52909C2.09996 3.52909 1.68541 3.11455 1.68541 2.60182C1.68541 2.08909 2.09996 1.68 2.60723 1.68C2.83086 1.68 3.01632 1.86546 3.01632 2.08909C3.01632 2.31273 2.83086 2.49818 2.60723 2.49818C2.54723 2.49818 2.50359 2.54727 2.50359 2.60182C2.50359 2.65637 2.54723 2.71091 2.60723 2.71091Z" fill="currentColor"/>
<path d="M10.849 1.15091C10.4727 0.774547 9.95996 0.545456 9.39268 0.545456H8.36177C7.51086 0.545456 6.81814 1.24364 6.81814 2.08909V8.78727C6.81814 9.23455 7.10177 9.61091 7.49996 9.75273C7.60905 9.79636 7.72905 9.81818 7.84905 9.81818C8.01814 9.81818 8.18177 9.77455 8.31814 9.69818C8.65086 9.52909 8.87996 9.18546 8.87996 8.78727V4.66909H9.39268C10.5272 4.66909 11.4545 3.74182 11.4545 2.60727C11.4545 2.04 11.2254 1.52727 10.849 1.15091ZM9.39268 3.52909C9.16905 3.52909 8.98359 3.34364 8.98359 3.12C8.98359 2.89636 9.16905 2.71091 9.39268 2.71091C9.45268 2.71091 9.49632 2.66182 9.49632 2.60182C9.49632 2.54182 9.44723 2.49818 9.39268 2.49818C9.16905 2.49818 8.98359 2.31273 8.98359 2.08909C8.98359 1.86546 9.16905 1.68 9.39268 1.68C9.89996 1.68 10.3145 2.09455 10.3145 2.60182C10.3145 3.10909 9.90541 3.52909 9.39268 3.52909Z" fill="currentColor"/>
<path d="M4.49996 9.75338V11.4552C4.49996 11.6788 4.3145 11.8643 4.09086 11.8643C3.86723 11.8643 3.68177 11.6788 3.68177 11.4552V9.69884C3.81814 9.77526 3.98177 9.81884 4.15086 9.81884C4.27086 9.81884 4.39086 9.79702 4.49996 9.75338Z" fill="currentColor"/>
<path d="M8.31814 9.69884V11.4552C8.31814 11.6788 8.13268 11.8643 7.90905 11.8643C7.68541 11.8643 7.49996 11.6788 7.49996 11.4552V9.75338C7.60905 9.79702 7.72905 9.81884 7.84905 9.81884C8.01814 9.81884 8.18177 9.77526 8.31814 9.69884Z" fill="currentColor"/>
</svg>
