<svg width="12" height="12" viewBox="0 0 12 12" fill="none" xmlns="http://www.w3.org/2000/svg">
<path d="M8.28547 0.545456H3.71456C1.72911 0.545456 0.545471 1.72909 0.545471 3.71455V8.28C0.545471 10.2709 1.72911 11.4545 3.71456 11.4545H8.28002C10.2655 11.4545 11.4491 10.2709 11.4491 8.28546V3.71455C11.4546 1.72909 10.2709 0.545456 8.28547 0.545456ZM9.55093 6.64909C9.55093 6.97637 9.30002 7.14 9.00002 7.00909L7.17274 6.22364C6.96002 6.13636 6.79093 6.24546 6.79093 6.47455V7.48364C6.79093 7.57091 6.84002 7.69636 6.90547 7.76182L7.80002 8.66182C7.89274 8.75455 7.93638 8.94 7.89274 9.06546L7.7182 9.58909C7.64183 9.81818 7.38002 9.92727 7.16729 9.81818L6.25638 9.04364C6.11456 8.92909 5.88547 8.92909 5.74911 9.04364L4.83274 9.81818C4.61456 9.92727 4.3582 9.81818 4.28184 9.58364L4.10729 9.06C4.06365 8.93455 4.10729 8.74909 4.20002 8.65637L5.11093 7.76182C5.17093 7.70182 5.22547 7.57637 5.22547 7.48364V6.47455C5.22547 6.24546 5.05093 6.13091 4.84365 6.22364L3.01638 7.00909C2.71093 7.14 2.46547 6.97637 2.46547 6.64909V6.14182C2.46547 5.88 2.66729 5.57455 2.90729 5.47091L5.05638 4.54364C5.14365 4.50546 5.22002 4.39091 5.22002 4.29273V3.16364C5.22002 2.79273 5.48729 2.35091 5.82002 2.18727C5.94002 2.12727 6.07638 2.12727 6.19638 2.18727C6.52365 2.35637 6.79638 2.79273 6.79638 3.16364V4.29273C6.79638 4.39091 6.86729 4.50546 6.96002 4.54364L9.10911 5.47091C9.35456 5.57455 9.55093 5.88 9.55093 6.14182V6.64909Z" fill="currentColor"/>
</svg>
