<svg width="12" height="12" viewBox="0 0 12 12" fill="none" xmlns="http://www.w3.org/2000/svg">
<path d="M10.4945 5.2541L7.94725 4.15773L7.37998 3.91773C7.29271 3.87409 7.21634 3.75955 7.21634 3.66137V1.99227C7.21634 1.46864 6.82907 0.84682 6.35998 0.60682C6.19634 0.525001 5.99998 0.525001 5.83634 0.60682C5.37271 0.84682 4.98543 1.47409 4.98543 1.99773V3.66682C4.98543 3.765 4.90906 3.87955 4.82179 3.92318L1.7127 5.25955C1.36906 5.40137 1.09088 5.83228 1.09088 6.20319V6.92319C1.09088 7.38683 1.43997 7.61592 1.87088 7.43046L4.60361 6.25228C4.81634 6.15955 4.99088 6.2741 4.99088 6.50864V8.09592C4.99088 8.22137 4.91997 8.40137 4.8327 8.48864L3.56725 9.75955C3.43634 9.89046 3.37634 10.1468 3.43634 10.3323L3.68179 11.0741C3.77997 11.3959 4.14543 11.5486 4.44543 11.3959L5.74361 10.305C5.93998 10.1359 6.2618 10.1359 6.45816 10.305L7.75634 11.3959C8.05634 11.5432 8.4218 11.3959 8.53089 11.0741L8.77634 10.3323C8.83634 10.1523 8.77634 9.89046 8.64543 9.75955L7.37998 8.48864C7.28725 8.40137 7.21634 8.22137 7.21634 8.09592V6.50864C7.21634 6.2741 7.38543 6.16501 7.60361 6.25228L10.3363 7.43046C10.7673 7.61592 11.1163 7.38683 11.1163 6.92319V6.20319C11.1163 5.83228 10.8382 5.40137 10.4945 5.2541Z" fill="currentColor"/>
</svg>
