<svg width="12" height="12" viewBox="0 0 12 12" fill="none" xmlns="http://www.w3.org/2000/svg">
<path d="M11.074 10.6934H10.5666V7.5222C10.5666 5.00042 8.52173 2.9556 5.99996 2.9556C3.47818 2.9556 1.43336 5.00042 1.43336 7.5222V10.6934H0.92596C0.717926 10.6934 0.54541 10.866 0.54541 11.074C0.54541 11.282 0.717926 11.4545 0.92596 11.4545H11.074C11.282 11.4545 11.4545 11.282 11.4545 11.074C11.4545 10.866 11.282 10.6934 11.074 10.6934Z" fill="currentColor"/>
<path d="M5.99996 1.81395C5.79192 1.81395 5.61941 1.64144 5.61941 1.43341V0.926006C5.61941 0.717972 5.79192 0.545456 5.99996 0.545456C6.20799 0.545456 6.38051 0.717972 6.38051 0.926006V1.43341C6.38051 1.64144 6.20799 1.81395 5.99996 1.81395Z" fill="currentColor"/>
<path d="M2.44887 2.82947C2.35247 2.82947 2.25606 2.79395 2.17995 2.71784L1.67255 2.21044C1.52541 2.0633 1.52541 1.81974 1.67255 1.6726C1.8197 1.52545 2.06325 1.52545 2.2104 1.6726L2.7178 2.18C2.86494 2.32714 2.86494 2.5707 2.7178 2.71784C2.64169 2.79395 2.54528 2.82947 2.44887 2.82947Z" fill="currentColor"/>
<path d="M9.55246 2.82947C9.45606 2.82947 9.35965 2.79395 9.28354 2.71784C9.13639 2.5707 9.13639 2.32714 9.28354 2.18L9.79094 1.6726C9.93809 1.52545 10.1816 1.52545 10.3288 1.6726C10.4759 1.81974 10.4759 2.0633 10.3288 2.21044L9.82138 2.71784C9.74527 2.79395 9.64887 2.82947 9.55246 2.82947Z" fill="currentColor"/>
</svg>
