<svg width="12" height="12" viewBox="0 0 12 12" fill="none" xmlns="http://www.w3.org/2000/svg">
<path d="M1.19995 8.17091V8.73818C1.19995 9.60546 1.55995 9.95455 2.47195 9.95455H9.59993V6.95455H2.47195C1.55995 6.95455 1.19995 7.30364 1.19995 8.17091Z" fill="currentColor"/>
<path d="M4.19995 3.53455V4.10182C4.19995 4.96909 4.56593 5.31818 5.47193 5.31818H9.59993V2.31818H5.47193C4.56593 2.31818 4.19995 2.66727 4.19995 3.53455Z" fill="currentColor"/>
<path d="M9.59993 11.4545C9.35393 11.4545 9.14993 11.2691 9.14993 11.0455V0.954547C9.14993 0.73091 9.35393 0.545456 9.59993 0.545456C9.84593 0.545456 10.0499 0.73091 10.0499 0.954547V11.0455C10.0559 11.2691 9.85193 11.4545 9.59993 11.4545Z" fill="currentColor"/>
</svg>
