<svg width="12" height="12" viewBox="0 0 12 12" fill="none" xmlns="http://www.w3.org/2000/svg">
<path d="M10.2283 8.17091V8.73818C10.2283 9.60546 9.90103 9.95455 9.07194 9.95455H2.59192V6.95455H9.07194C9.90103 6.95455 10.2283 7.30364 10.2283 8.17091Z" fill="currentColor"/>
<path d="M7.50103 3.53455V4.10182C7.50103 4.96909 7.16831 5.31818 6.34467 5.31818H2.59192V2.31818H6.34467C7.16831 2.31818 7.50103 2.66727 7.50103 3.53455Z" fill="currentColor"/>
<path d="M2.59097 11.4545C2.36733 11.4545 2.18188 11.2691 2.18188 11.0455V0.954547C2.17643 0.725456 2.36188 0.545456 2.59097 0.545456C2.82006 0.545456 3.00006 0.73091 3.00006 0.954547V11.0455C2.99461 11.2691 2.81461 11.4545 2.59097 11.4545Z" fill="currentColor"/>
</svg>
