<svg width="12" height="12" viewBox="0 0 12 12" fill="none" xmlns="http://www.w3.org/2000/svg">
<path d="M9.14181 9.95455H2.85817C1.98544 9.95455 1.63635 9.60546 1.63635 8.73818V8.17091C1.63635 7.30364 1.98544 6.95455 2.85817 6.95455H9.14181C10.0145 6.95455 10.3636 7.30364 10.3636 8.17091V8.73818C10.3636 9.60546 10.0145 9.95455 9.14181 9.95455Z" fill="currentColor"/>
<path d="M6.43635 9.95455V11.0455C6.43635 11.2691 6.23853 11.4545 5.99999 11.4545C5.76144 11.4545 5.56363 11.2691 5.56363 11.0455V9.95455H6.43635Z" fill="currentColor"/>
<path d="M6.43635 5.31818H5.56363V6.95455H6.43635V5.31818Z" fill="currentColor"/>
<path d="M6.43635 0.954547V2.31818H5.56363V0.954547C5.56363 0.73091 5.76144 0.545456 5.99999 0.545456C6.23853 0.545456 6.43635 0.73091 6.43635 0.954547Z" fill="currentColor"/>
<path d="M7.97817 5.31818H4.02181C3.14908 5.31818 2.79999 4.96909 2.79999 4.10182V3.53455C2.79999 2.66727 3.14908 2.31818 4.02181 2.31818H7.97817C8.8509 2.31818 9.19999 2.66727 9.19999 3.53455V4.10182C9.19999 4.96909 8.8509 5.31818 7.97817 5.31818Z" fill="currentColor"/>
</svg>
