<svg width="12" height="12" viewBox="0 0 12 12" fill="none" xmlns="http://www.w3.org/2000/svg">
<path d="M2.04541 8.67273V2.78182C2.04541 1.96364 2.3945 1.63637 3.26177 1.63637H3.82905C4.69632 1.63637 5.04541 1.96364 5.04541 2.78182V8.67273C5.04541 9.49091 4.69632 9.81819 3.82905 9.81819H3.26177C2.3945 9.81819 2.04541 9.49091 2.04541 8.67273Z" fill="currentColor"/>
<path d="M2.04541 6.13637H0.954501C0.730865 6.13637 0.54541 5.95091 0.54541 5.72728C0.54541 5.50364 0.730865 5.31819 0.954501 5.31819H2.04541V6.13637Z" fill="currentColor"/>
<path d="M6.68177 5.31819H5.04541V6.13637H6.68177V5.31819Z" fill="currentColor"/>
<path d="M11.0454 6.13637H9.68177V5.31819H11.0454C11.269 5.31819 11.4545 5.50364 11.4545 5.72728C11.4545 5.95091 11.269 6.13637 11.0454 6.13637Z" fill="currentColor"/>
<path d="M6.68177 7.58182V3.87273C6.68177 3.05455 7.03086 2.72728 7.89814 2.72728H8.46541C9.33268 2.72728 9.68177 3.05455 9.68177 3.87273V7.58182C9.68177 8.4 9.33268 8.72728 8.46541 8.72728H7.89814C7.03086 8.72728 6.68177 8.4 6.68177 7.58182Z" fill="currentColor"/>
</svg>
