<svg width="12" height="12" viewBox="0 0 12 12" fill="none" xmlns="http://www.w3.org/2000/svg">
<path d="M8.17086 10.2273H8.73814C9.60541 10.2273 9.9545 9.9 9.9545 9.07091V2.59091H6.9545V9.07091C6.95996 9.9 7.30905 10.2273 8.17086 10.2273Z" fill="currentColor"/>
<path d="M3.5345 7.5H4.10177C4.96905 7.5 5.31814 7.16727 5.31814 6.34364V2.59091H2.31814V6.34364C2.32359 7.16727 2.67268 7.5 3.5345 7.5Z" fill="currentColor"/>
<path d="M11.0454 2.99455H0.954501C0.730865 2.99455 0.54541 2.81455 0.54541 2.59091C0.54541 2.36728 0.730865 2.18182 0.954501 2.18182H11.0454C11.269 2.18182 11.4545 2.36728 11.4545 2.59091C11.4545 2.81455 11.269 2.99455 11.0454 2.99455Z" fill="currentColor"/>
</svg>
