<svg width="12" height="12" viewBox="0 0 12 12" fill="none" xmlns="http://www.w3.org/2000/svg">
<path d="M10.0909 4.22727C10.0909 1.89818 8.19272 0 5.86363 0C3.53453 0 1.63635 1.89818 1.63635 4.22727C1.63635 4.45091 1.82181 4.63636 2.04544 4.63636C2.26908 4.63636 2.45453 4.45091 2.45453 4.22727C2.45453 2.34545 3.98181 0.818182 5.86363 0.818182C7.74544 0.818182 9.27272 2.34545 9.27272 4.22727C9.27272 6.10909 7.74544 7.63636 5.86363 7.63636C5.63999 7.63636 5.45453 7.82182 5.45453 8.04545V11.3182C5.45453 11.5418 5.63999 11.7273 5.86363 11.7273C6.08726 11.7273 6.27272 11.5418 6.27272 11.3182V8.43273C8.4109 8.22545 10.0909 6.42 10.0909 4.22727Z" fill="currentColor"/>
<path d="M7.49999 10.0909H4.22726C4.00363 10.0909 3.81817 9.90545 3.81817 9.68182C3.81817 9.45818 4.00363 9.27273 4.22726 9.27273H7.49999C7.72362 9.27273 7.90908 9.45818 7.90908 9.68182C7.90908 9.90545 7.72362 10.0909 7.49999 10.0909Z" fill="currentColor"/>
</svg>
