<svg width="12" height="12" viewBox="0 0 12 12" fill="none" xmlns="http://www.w3.org/2000/svg">
<path d="M8.62099 0.545456H3.77753C2.71237 0.545456 1.83813 1.49424 1.83813 2.65023V10.3332C1.83813 11.3147 2.48627 11.7291 3.28012 11.2547L5.73199 9.77703C5.99326 9.6189 6.4153 9.6189 6.67154 9.77703L9.12342 11.2547C9.91727 11.7346 10.5654 11.3202 10.5654 10.3332V2.65023C10.5604 1.49424 9.69117 0.545456 8.62099 0.545456ZM8.01807 4.42783L6.00833 6.60896C5.93297 6.69075 5.8375 6.72892 5.74204 6.72892C5.64658 6.72892 5.55112 6.69075 5.47575 6.60896L4.72211 5.79105C4.5764 5.63292 4.5764 5.37118 4.72211 5.21305C4.86781 5.05492 5.10898 5.05492 5.25468 5.21305L5.74204 5.74197L7.48549 3.84984C7.63119 3.69171 7.87236 3.69171 8.01807 3.84984C8.16377 4.00797 8.16377 4.2697 8.01807 4.42783Z" fill="currentColor"/>
</svg>
