<svg width="12" height="12" viewBox="0 0 12 12" fill="none" xmlns="http://www.w3.org/2000/svg">
<path d="M8.18177 4.77273H3.81814C3.44177 4.77273 3.13632 5.07818 3.13632 5.45455V6.02727C3.15268 6.02182 3.16359 6.01637 3.17996 6.01091C3.24541 5.97818 3.31632 5.95637 3.38723 5.93455C3.41996 5.92364 3.45268 5.91273 3.49086 5.90182C3.59996 5.88 3.70905 5.86364 3.82359 5.86364H8.18723C8.30177 5.86364 8.41087 5.88 8.51996 5.90182C8.55268 5.90727 8.58541 5.92364 8.62359 5.93455C8.6945 5.95637 8.76541 5.97818 8.83086 6.01091C8.84723 6.01637 8.86359 6.02182 8.8745 6.02727V5.45455C8.86359 5.07818 8.55814 4.77273 8.18177 4.77273Z" fill="currentColor"/>
<path d="M8.18177 6.68182H3.81814C3.44177 6.68182 3.13632 6.98727 3.13632 7.36364V7.63637H4.63632C4.85996 7.63637 5.04541 7.82182 5.04541 8.04546C5.04541 8.56909 5.47632 9 5.99996 9C6.52359 9 6.9545 8.56909 6.9545 8.04546C6.9545 7.82182 7.13996 7.63637 7.36359 7.63637H8.86359V7.36364C8.86359 6.98727 8.55814 6.68182 8.18177 6.68182Z" fill="currentColor"/>
<path d="M8.18177 3H3.81814C3.44177 3 3.13632 3.30546 3.13632 3.68182V4.12364C3.34359 4.02 3.57268 3.95455 3.81814 3.95455H8.18177C8.42723 3.95455 8.65632 4.02 8.86359 4.12364V3.68182C8.86359 3.30546 8.55814 3 8.18177 3Z" fill="currentColor"/>
<path d="M8.28541 0.545456H3.7145C1.72905 0.545456 0.54541 1.72909 0.54541 3.71455V8.28C0.54541 10.2709 1.72905 11.4545 3.7145 11.4545H8.27996C10.2654 11.4545 11.449 10.2709 11.449 8.28546V3.71455C11.4545 1.72909 10.2709 0.545456 8.28541 0.545456ZM9.81814 8.45455H7.72359C7.53814 9.23455 6.8345 9.81818 5.99996 9.81818C5.16541 9.81818 4.46177 9.23455 4.27632 8.45455H2.18177C1.95814 8.45455 1.77268 8.26909 1.77268 8.04546C1.77268 7.82182 1.95814 7.63637 2.18177 7.63637H2.31814V3.68182C2.31814 2.85273 2.98905 2.18182 3.81814 2.18182H8.18177C9.01087 2.18182 9.68177 2.85273 9.68177 3.68182V7.63637H9.81814C10.0418 7.63637 10.2272 7.82182 10.2272 8.04546C10.2272 8.26909 10.0418 8.45455 9.81814 8.45455Z" fill="currentColor"/>
</svg>
