<svg width="12" height="12" viewBox="0 0 12 12" fill="none" xmlns="http://www.w3.org/2000/svg">
<path d="M7.59838 0.818183V4.03636C7.59838 4.27636 7.31474 4.39636 7.1402 4.23818L6.18565 3.36C6.08202 3.26182 5.91838 3.26182 5.81474 3.36L4.8602 4.23273C4.68566 4.39636 4.40202 4.27091 4.40202 4.03636V0.818183C4.40202 0.665456 4.52202 0.545456 4.67475 0.545456H7.32565C7.47838 0.545456 7.59838 0.665456 7.59838 0.818183Z" fill="currentColor"/>
<path d="M8.7164 0.577589C8.55822 0.55577 8.4164 0.692134 8.4164 0.850316V4.13395C8.4164 4.5485 8.17094 4.92486 7.78912 5.09395C7.40731 5.25758 6.96549 5.18667 6.66003 4.90304L6.18549 4.46668C6.08185 4.3685 5.92367 4.3685 5.81458 4.46668L5.34003 4.90304C5.14367 5.08849 4.88731 5.18122 4.63094 5.18122C4.48912 5.18122 4.34731 5.15395 4.21094 5.09395C3.82912 4.92486 3.58367 4.5485 3.58367 4.13395V0.850316C3.58367 0.692134 3.44185 0.55577 3.28367 0.577589C1.7564 0.768498 1.09094 1.79941 1.09094 3.27213V8.72667C1.09094 10.363 1.90912 11.4539 3.81822 11.4539H8.18185C10.0909 11.4539 10.9091 10.363 10.9091 8.72667V3.27213C10.9091 1.79941 10.2437 0.768498 8.7164 0.577589ZM9.00003 9.68122H4.36367C4.14003 9.68122 3.95458 9.49576 3.95458 9.27213C3.95458 9.04849 4.14003 8.86304 4.36367 8.86304H9.00003C9.22367 8.86304 9.40912 9.04849 9.40912 9.27213C9.40912 9.49576 9.22367 9.68122 9.00003 9.68122ZM9.00003 7.4994H6.68185C6.45822 7.4994 6.27276 7.31395 6.27276 7.09031C6.27276 6.86667 6.45822 6.68122 6.68185 6.68122H9.00003C9.22367 6.68122 9.40912 6.86667 9.40912 7.09031C9.40912 7.31395 9.22367 7.4994 9.00003 7.4994Z" fill="currentColor"/>
</svg>
