<svg width="12" height="12" viewBox="0 0 12 12" fill="none" xmlns="http://www.w3.org/2000/svg">
<path d="M11.4545 2.18182V3.27273C11.4545 4.27091 11.0018 4.81091 10.0909 4.89273C10.0036 4.90364 9.91086 4.90909 9.81814 4.90909H2.18177C2.08905 4.90909 1.99632 4.90364 1.90905 4.89273C0.998137 4.81091 0.54541 4.27091 0.54541 3.27273V2.18182C0.54541 1.09091 1.09086 0.545456 2.18177 0.545456H9.81814C10.909 0.545456 11.4545 1.09091 11.4545 2.18182Z" fill="currentColor"/>
<path d="M2.4545 5.59091C2.1545 5.59091 1.90905 5.83637 1.90905 6.13637V9.81818C1.90905 10.9091 2.18177 11.4545 3.54541 11.4545H8.4545C9.81814 11.4545 10.0909 10.9091 10.0909 9.81818V6.13637C10.0909 5.83637 9.84541 5.59091 9.54541 5.59091H2.4545ZM6.99268 8.04546H5.00723C4.78359 8.04546 4.59814 7.86 4.59814 7.63637C4.59814 7.41273 4.78359 7.22727 5.00723 7.22727H6.99268C7.21632 7.22727 7.40177 7.41273 7.40177 7.63637C7.40177 7.86 7.21632 8.04546 6.99268 8.04546Z" fill="currentColor"/>
</svg>
