<svg width="12" height="12" viewBox="0 0 12 12" fill="none" xmlns="http://www.w3.org/2000/svg">
<path d="M8.41921 0.545456H3.57575C2.50556 0.545456 1.63635 1.49424 1.63635 2.65023V10.3332C1.63635 11.3147 2.28449 11.7291 3.07834 11.2547L5.53021 9.77702C5.79148 9.61889 6.21352 9.61889 6.46976 9.77702L8.92164 11.2547C9.71548 11.7346 10.3636 11.3202 10.3636 10.3332V2.65023C10.3586 1.49424 9.48939 0.545456 8.41921 0.545456ZM7.25356 5.67107H6.3743V6.65803C6.3743 6.88159 6.20347 7.06699 5.99747 7.06699C5.79148 7.06699 5.62065 6.88159 5.62065 6.65803V5.67107H4.74139C4.5354 5.67107 4.36457 5.48568 4.36457 5.26212C4.36457 5.03855 4.5354 4.85316 4.74139 4.85316H5.62065V3.93164C5.62065 3.70807 5.79148 3.52268 5.99747 3.52268C6.20347 3.52268 6.3743 3.70807 6.3743 3.93164V4.85316H7.25356C7.45956 4.85316 7.63038 5.03855 7.63038 5.26212C7.63038 5.48568 7.45956 5.67107 7.25356 5.67107Z" fill="currentColor"/>
</svg>
