<svg width="12" height="12" viewBox="0 0 12 12" fill="none" xmlns="http://www.w3.org/2000/svg">
<path d="M10.426 1.57091L1.30056 10.6964C1.27329 10.5873 1.26238 10.4673 1.26238 10.3364V2.65091C1.26238 1.49455 2.20602 0.545456 3.36784 0.545456H8.62601C9.38965 0.545456 10.0606 0.954547 10.426 1.57091Z" fill="currentColor"/>
<path d="M11.3263 0.670316C11.1627 0.50668 10.8954 0.50668 10.7318 0.670316L0.668137 10.7394C0.504501 10.903 0.504501 11.1703 0.668137 11.3339C0.749956 11.4103 0.853592 11.4539 0.962683 11.4539C1.07177 11.4539 1.17541 11.4103 1.25723 11.3285L11.3263 1.25941C11.4954 1.09577 11.4954 0.833952 11.3263 0.670316Z" fill="currentColor"/>
<path d="M9.97323 3.6603L5.94227 7.69118C5.69136 7.94209 5.74045 8.36209 6.04591 8.54209L10.0768 10.9585C10.4423 11.1766 10.9005 10.9148 10.9005 10.4894V4.04211C10.9059 3.55666 10.3168 3.31666 9.97323 3.6603Z" fill="currentColor"/>
</svg>
