<svg width="12" height="12" viewBox="0 0 12 12" fill="none" xmlns="http://www.w3.org/2000/svg">
<path d="M8.41921 0.545456H3.57575C2.50556 0.545456 1.63635 1.49424 1.63635 2.65023V10.3332C1.63635 11.3147 2.28449 11.7291 3.07834 11.2547L5.53021 9.77702C5.79148 9.61889 6.21352 9.61889 6.46976 9.77702L8.92164 11.2547C9.71548 11.7346 10.3636 11.3202 10.3636 10.3332V2.65023C10.3586 1.49424 9.48939 0.545456 8.41921 0.545456ZM7.5098 4.77136C7.02244 4.96221 6.50996 5.06036 5.99747 5.06036C5.48499 5.06036 4.97251 4.96221 4.48515 4.77136C4.2892 4.69503 4.18872 4.46056 4.25906 4.2479C4.33442 4.03524 4.55047 3.92618 4.74642 4.00252C5.55533 4.31878 6.44464 4.31878 7.25356 4.00252C7.44951 3.92618 7.66556 4.03524 7.7359 4.2479C7.80624 4.46056 7.70575 4.69503 7.5098 4.77136Z" fill="currentColor"/>
</svg>
