<svg width="12" height="12" viewBox="0 0 12 12" fill="none" xmlns="http://www.w3.org/2000/svg">
<path d="M5.99996 0.545456C2.98905 0.545456 0.54541 2.98909 0.54541 6C0.54541 9.01091 2.98905 11.4545 5.99996 11.4545C9.01087 11.4545 11.4545 9.01091 11.4545 6C11.4545 2.98909 9.01087 0.545456 5.99996 0.545456ZM5.41632 8.80909C5.41632 8.86364 5.40541 8.91273 5.38359 8.96727C5.33996 9.06546 5.26359 9.14727 5.15996 9.19091C5.11086 9.21273 5.05632 9.22364 5.00177 9.22364C4.94723 9.22364 4.89814 9.21273 4.84359 9.19091C4.7945 9.16909 4.75086 9.14182 4.71268 9.10364L3.0545 7.44546C2.89632 7.28727 2.89632 7.02546 3.0545 6.86727C3.21268 6.70909 3.4745 6.70909 3.63268 6.86727L4.59268 7.82727V3.19091C4.59268 2.96727 4.77814 2.78182 5.00177 2.78182C5.22541 2.78182 5.41086 2.96727 5.41086 3.19091V8.80909H5.41632ZM8.93996 5.13818C8.85814 5.22 8.7545 5.25818 8.65087 5.25818C8.54723 5.25818 8.44359 5.22 8.36177 5.13818L7.40177 4.17818V8.81455C7.40177 9.03818 7.21632 9.22364 6.99268 9.22364C6.76905 9.22364 6.58359 9.03818 6.58359 8.81455V3.19091C6.58359 3.13636 6.5945 3.08727 6.61632 3.03273C6.65996 2.93455 6.73632 2.85273 6.83996 2.80909C6.93814 2.76546 7.05268 2.76546 7.15086 2.80909C7.19996 2.83091 7.24359 2.85818 7.28177 2.89637L8.93996 4.55455C9.09814 4.71818 9.09814 4.97455 8.93996 5.13818Z" fill="currentColor"/>
</svg>
