<svg width="12" height="12" viewBox="0 0 12 12" fill="none" xmlns="http://www.w3.org/2000/svg">
<path d="M5.99996 0.545456C2.98905 0.545456 0.54541 2.98909 0.54541 6C0.54541 9.01091 2.98905 11.4545 5.99996 11.4545C9.01087 11.4545 11.4545 9.01091 11.4545 6C11.4545 2.98909 9.01087 0.545456 5.99996 0.545456ZM9.19087 7.14546C9.16905 7.19455 9.14177 7.23818 9.10359 7.27637L7.44541 8.93455C7.36359 9.01637 7.25996 9.05455 7.15632 9.05455C7.05268 9.05455 6.94905 9.01637 6.86723 8.93455C6.70905 8.77637 6.70905 8.51455 6.86723 8.35637L7.82723 7.39637H3.19086C2.96723 7.39637 2.78177 7.21091 2.78177 6.98727C2.78177 6.76364 2.96723 6.57818 3.19086 6.57818H8.8145C8.86905 6.57818 8.91814 6.58909 8.97268 6.61091C9.07087 6.65455 9.15268 6.73091 9.19632 6.83455C9.22905 6.93273 9.22905 7.04727 9.19087 7.14546ZM8.80905 5.41637H3.19086C3.13632 5.41637 3.08177 5.40546 3.03268 5.38364C2.9345 5.34 2.85268 5.26364 2.80905 5.16C2.76541 5.06182 2.76541 4.94727 2.80905 4.84909C2.83086 4.8 2.85814 4.75636 2.89632 4.71818L4.5545 3.06C4.71268 2.90182 4.9745 2.90182 5.13268 3.06C5.29086 3.21818 5.29086 3.48 5.13268 3.63818L4.17814 4.59818H8.8145C9.03814 4.59818 9.22359 4.78364 9.22359 5.00727C9.22359 5.23091 9.03814 5.41637 8.80905 5.41637Z" fill="currentColor"/>
</svg>
