<svg width="12" height="12" viewBox="0 0 12 12" fill="none" xmlns="http://www.w3.org/2000/svg">
<path d="M8.28541 0.545456H3.7145C1.72905 0.545456 0.54541 1.72909 0.54541 3.71455V8.28C0.54541 10.2709 1.72905 11.4545 3.7145 11.4545H8.27996C10.2654 11.4545 11.449 10.2709 11.449 8.28546V3.71455C11.4545 1.72909 10.2709 0.545456 8.28541 0.545456ZM8.62905 7.22182L6.28905 9.56182C6.21268 9.63818 6.10905 9.68182 5.99996 9.68182C5.89086 9.68182 5.78723 9.63818 5.71087 9.56182L3.37086 7.22182C3.21268 7.06364 3.21268 6.80182 3.37086 6.64364C3.52905 6.48546 3.79086 6.48546 3.94905 6.64364L5.59086 8.28546V2.72727C5.59086 2.50364 5.77632 2.31818 5.99996 2.31818C6.22359 2.31818 6.40905 2.50364 6.40905 2.72727V8.28546L8.05087 6.64364C8.20905 6.48546 8.47086 6.48546 8.62905 6.64364C8.71087 6.72546 8.74905 6.82909 8.74905 6.93273C8.74905 7.03637 8.70541 7.14546 8.62905 7.22182Z" fill="currentColor"/>
</svg>
