<svg width="12" height="12" viewBox="0 0 12 12" fill="none" xmlns="http://www.w3.org/2000/svg">
<path d="M8.28547 0.545456H3.71456C1.72911 0.545456 0.545471 1.72909 0.545471 3.71455V8.28C0.545471 10.2709 1.72911 11.4545 3.71456 11.4545H8.28002C10.2655 11.4545 11.4491 10.2709 11.4491 8.28546V3.71455C11.4546 1.72909 10.2709 0.545456 8.28547 0.545456ZM9.10365 7.11818C9.08184 7.16727 9.05456 7.21091 9.01638 7.24909L7.40729 8.85818C7.32547 8.94 7.22184 8.97818 7.1182 8.97818C7.01456 8.97818 6.91093 8.94 6.82911 8.85818C6.67093 8.7 6.67093 8.43818 6.82911 8.28L7.74002 7.36909H3.27274C3.04911 7.36909 2.86365 7.18364 2.86365 6.96C2.86365 6.73637 3.04911 6.55091 3.27274 6.55091H8.72729C8.78183 6.55091 8.83093 6.56182 8.88547 6.58364C8.98365 6.62727 9.06547 6.70364 9.10911 6.80727C9.14729 6.90546 9.14729 7.01455 9.10365 7.11818ZM8.72729 5.44909H3.27274C3.2182 5.44909 3.16911 5.43818 3.11456 5.41637C3.01638 5.37273 2.93456 5.29637 2.89093 5.19273C2.84729 5.09455 2.84729 4.98 2.89093 4.88182C2.9182 4.83273 2.94547 4.78909 2.98365 4.75091L4.59274 3.14182C4.75093 2.98364 5.01274 2.98364 5.17093 3.14182C5.32911 3.3 5.32911 3.56182 5.17093 3.72L4.26002 4.63091H8.72729C8.95093 4.63091 9.13638 4.81637 9.13638 5.04C9.13638 5.26364 8.95093 5.44909 8.72729 5.44909Z" fill="currentColor"/>
</svg>
