<svg width="12" height="12" viewBox="0 0 12 12" fill="none" xmlns="http://www.w3.org/2000/svg">
<path d="M8.28547 0.545456H3.71456C1.72911 0.545456 0.545471 1.72909 0.545471 3.71455V8.28C0.545471 10.2709 1.72911 11.4545 3.71456 11.4545H8.28002C10.2655 11.4545 11.4491 10.2709 11.4491 8.28546V3.71455C11.4546 1.72909 10.2709 0.545456 8.28547 0.545456ZM10.0091 4.27637C9.98729 4.32546 9.96002 4.36909 9.92183 4.40727L8.94002 5.38909C8.8582 5.47091 8.75456 5.50909 8.65093 5.50909C8.54729 5.50909 8.44365 5.47091 8.36184 5.38909C8.20365 5.23091 8.20365 4.96909 8.36184 4.81091L8.64547 4.52727H8.56365C7.4182 4.52727 6.48002 5.46 6.48002 6.60546V8.85818C6.48002 9.08182 6.29456 9.26727 6.07093 9.26727C5.84729 9.26727 5.66184 9.08182 5.66184 8.85818V6.60546C5.66184 5.46 4.72911 4.52727 3.58365 4.52727H3.35456L3.6382 4.81091C3.79638 4.96909 3.79638 5.23091 3.6382 5.38909C3.55638 5.47091 3.45274 5.50909 3.34911 5.50909C3.24547 5.50909 3.14183 5.47091 3.06002 5.38909L2.0782 4.40727C1.92002 4.24909 1.92002 3.98727 2.0782 3.82909L3.06002 2.84727C3.2182 2.68909 3.48002 2.68909 3.6382 2.84727C3.79638 3.00546 3.79638 3.26727 3.6382 3.42546L3.35456 3.70909H3.58911C4.65274 3.70909 5.57456 4.29273 6.07638 5.14909C6.5782 4.29273 7.50002 3.70909 8.56911 3.70909H8.65093L8.36729 3.42546C8.20911 3.26727 8.20911 3.00546 8.36729 2.84727C8.52547 2.68909 8.78729 2.68909 8.94547 2.84727L9.92729 3.82909C9.96547 3.86727 9.99274 3.91091 10.0146 3.96C10.0527 4.06364 10.0527 4.17818 10.0091 4.27637Z" fill="currentColor"/>
</svg>
