<svg width="12" height="12" viewBox="0 0 12 12" fill="none" xmlns="http://www.w3.org/2000/svg">
<path d="M8.28547 0.545456H3.71456C1.72911 0.545456 0.545471 1.72909 0.545471 3.71455V8.28C0.545471 10.2709 1.72911 11.4545 3.71456 11.4545H8.28002C10.2655 11.4545 11.4491 10.2709 11.4491 8.28546V3.71455C11.4546 1.72909 10.2709 0.545456 8.28547 0.545456ZM5.44911 8.72727C5.44911 8.78182 5.4382 8.83091 5.41638 8.88546C5.37274 8.98364 5.29638 9.06546 5.19274 9.10909C5.14365 9.13091 5.08911 9.14182 5.03456 9.14182C4.98002 9.14182 4.93093 9.13091 4.87638 9.10909C4.82729 9.08727 4.78365 9.06 4.74547 9.02182L3.13638 7.41273C2.9782 7.25455 2.9782 6.99273 3.13638 6.83455C3.29456 6.67636 3.55638 6.67636 3.71456 6.83455L4.62547 7.74546V3.27273C4.62547 3.04909 4.81093 2.86364 5.03456 2.86364C5.2582 2.86364 5.44911 3.04909 5.44911 3.27273V8.72727ZM8.8582 5.17091C8.77638 5.25273 8.67274 5.29091 8.56911 5.29091C8.46547 5.29091 8.36184 5.25273 8.28002 5.17091L7.36911 4.26V8.72727C7.36911 8.95091 7.18365 9.13636 6.96002 9.13636C6.73638 9.13636 6.55093 8.95091 6.55093 8.72727V3.27273C6.55093 3.21818 6.56183 3.16909 6.58365 3.11455C6.62729 3.01637 6.70365 2.93455 6.80729 2.89091C6.90547 2.84727 7.02002 2.84727 7.1182 2.89091C7.16729 2.91273 7.21093 2.94 7.24911 2.97818L8.8582 4.58727C9.01638 4.75091 9.01638 5.01273 8.8582 5.17091Z" fill="currentColor"/>
</svg>
