<svg width="12" height="12" viewBox="0 0 12 12" fill="none" xmlns="http://www.w3.org/2000/svg">
<path d="M8.28547 0.545456H3.71456C1.72911 0.545456 0.545471 1.72909 0.545471 3.71455V8.28C0.545471 10.2709 1.72911 11.4545 3.71456 11.4545H8.28002C10.2655 11.4545 11.4491 10.2709 11.4491 8.28546V3.71455C11.4546 1.72909 10.2709 0.545456 8.28547 0.545456ZM7.52183 6.28909L5.59638 8.21455C5.51456 8.29636 5.41093 8.33455 5.30729 8.33455C5.20365 8.33455 5.10002 8.29636 5.0182 8.21455C4.86002 8.05637 4.86002 7.79455 5.0182 7.63637L6.65456 6L5.0182 4.36364C4.86002 4.20546 4.86002 3.94364 5.0182 3.78546C5.17638 3.62727 5.4382 3.62727 5.59638 3.78546L7.52183 5.71091C7.68547 5.86909 7.68547 6.13091 7.52183 6.28909Z" fill="currentColor"/>
</svg>
