<svg width="12" height="12" viewBox="0 0 12 12" fill="none" xmlns="http://www.w3.org/2000/svg">
<path d="M11.4545 3.04648C11.4545 2.93451 11.4097 2.82815 11.3314 2.74977L9.25031 0.667218C9.08807 0.504869 8.81954 0.504869 8.6573 0.667218C8.49506 0.829568 8.49506 1.09828 8.6573 1.26063L10.0279 2.63221H0.964991C0.73562 2.63221 0.54541 2.82255 0.54541 3.05208C0.54541 3.28161 0.73562 3.46635 0.964991 3.46635H10.0223L8.6573 4.83232C8.49506 4.99466 8.49506 5.26338 8.6573 5.42573C8.74121 5.5097 8.84751 5.54889 8.9538 5.54889C9.0601 5.54889 9.16639 5.5097 9.25031 5.42573L11.3258 3.34878C11.365 3.3096 11.3986 3.25921 11.4209 3.20323C11.4209 3.19763 11.4209 3.19203 11.4265 3.18643C11.4433 3.14165 11.4545 3.09686 11.4545 3.04648Z" fill="currentColor"/>
<path d="M11.0349 8.52666H1.97758L3.34261 7.16068C3.50485 6.99833 3.50485 6.72962 3.34261 6.56727C3.18038 6.40492 2.91184 6.40492 2.74961 6.56727L0.674081 8.64422C0.634921 8.68341 0.601354 8.73379 0.578977 8.78978C0.578977 8.79537 0.578977 8.80097 0.573382 8.80657C0.556599 8.85136 0.54541 8.90174 0.54541 8.95213C0.54541 9.06409 0.590165 9.17046 0.668487 9.24883L2.74961 11.3314C2.83352 11.4154 2.93982 11.4545 3.04611 11.4545C3.1524 11.4545 3.2587 11.4154 3.34261 11.3314C3.50485 11.169 3.50485 10.9003 3.34261 10.738L1.97198 9.3664H11.0349C11.2643 9.3664 11.4545 9.17605 11.4545 8.94653C11.4545 8.717 11.2643 8.52666 11.0349 8.52666Z" fill="currentColor"/>
</svg>
