<svg width="12" height="12" viewBox="0 0 12 12" fill="none" xmlns="http://www.w3.org/2000/svg">
<path d="M8.28544 0.545456H3.71453C1.72908 0.545456 0.545441 1.72909 0.545441 3.71455V8.28C0.545441 10.2709 1.72908 11.4545 3.71453 11.4545H8.27999C10.2654 11.4545 11.4491 10.2709 11.4491 8.28546V3.71455C11.4545 1.72909 10.2709 0.545456 8.28544 0.545456ZM9.27271 6.40909H3.71453L5.35635 8.05091C5.51453 8.20909 5.51453 8.47091 5.35635 8.62909C5.27453 8.71091 5.1709 8.74909 5.06726 8.74909C4.96362 8.74909 4.85999 8.71091 4.77817 8.62909L2.43817 6.28909C2.3618 6.21273 2.31817 6.10909 2.31817 6C2.31817 5.89091 2.3618 5.78727 2.43817 5.71091L4.77817 3.37091C4.93635 3.21273 5.19817 3.21273 5.35635 3.37091C5.51453 3.52909 5.51453 3.79091 5.35635 3.94909L3.71453 5.59091H9.27271C9.49635 5.59091 9.6818 5.77637 9.6818 6C9.6818 6.22364 9.49635 6.40909 9.27271 6.40909Z" fill="currentColor"/>
</svg>
