<svg width="12" height="12" viewBox="0 0 12 12" fill="none" xmlns="http://www.w3.org/2000/svg">
<path d="M8.28541 0.545456H3.7145C1.72905 0.545456 0.54541 1.72909 0.54541 3.71455V8.28C0.54541 10.2709 1.72905 11.4545 3.7145 11.4545H8.27996C10.2654 11.4545 11.449 10.2709 11.449 8.28546V3.71455C11.4545 1.72909 10.2709 0.545456 8.28541 0.545456ZM8.62905 5.35637C8.47086 5.51455 8.20905 5.51455 8.05087 5.35637L6.40905 3.71455V9.27273C6.40905 9.49637 6.22359 9.68182 5.99996 9.68182C5.77632 9.68182 5.59086 9.49637 5.59086 9.27273V3.71455L3.94905 5.35637C3.79086 5.51455 3.52905 5.51455 3.37086 5.35637C3.28905 5.27455 3.25086 5.17091 3.25086 5.06727C3.25086 4.96364 3.2945 4.85455 3.37086 4.77818L5.71087 2.43818C5.78723 2.36182 5.89086 2.31818 5.99996 2.31818C6.10905 2.31818 6.21268 2.36182 6.28905 2.43818L8.62905 4.77818C8.78723 4.93637 8.78723 5.19273 8.62905 5.35637Z" fill="currentColor"/>
</svg>
