<svg width="12" height="12" viewBox="0 0 12 12" fill="none" xmlns="http://www.w3.org/2000/svg">
<path d="M5.99999 0.545456C2.98908 0.545456 0.545441 2.98909 0.545441 6C0.545441 9.01091 2.98908 11.4545 5.99999 11.4545C9.0109 11.4545 11.4545 9.01091 11.4545 6C11.4545 2.98909 9.0109 0.545456 5.99999 0.545456ZM7.90908 6.40909H5.07817L6.01635 7.34727C6.17453 7.50546 6.17453 7.76727 6.01635 7.92546C5.93453 8.00727 5.8309 8.04546 5.72726 8.04546C5.62362 8.04546 5.51999 8.00727 5.43817 7.92546L3.8018 6.28909C3.64362 6.13091 3.64362 5.86909 3.8018 5.71091L5.43817 4.07455C5.59635 3.91637 5.85817 3.91637 6.01635 4.07455C6.17453 4.23273 6.17453 4.49455 6.01635 4.65273L5.07817 5.59091H7.90908C8.13271 5.59091 8.31817 5.77637 8.31817 6C8.31817 6.22364 8.13271 6.40909 7.90908 6.40909Z" fill="currentColor"/>
</svg>
