<svg width="12" height="12" viewBox="0 0 12 12" fill="none" xmlns="http://www.w3.org/2000/svg">
<path d="M5.99996 0.545456C2.98905 0.545456 0.54541 2.98909 0.54541 6C0.54541 9.01091 2.98905 11.4545 5.99996 11.4545C9.01087 11.4545 11.4545 9.01091 11.4545 6C11.4545 2.98909 9.01087 0.545456 5.99996 0.545456ZM7.92541 6.01637C7.84359 6.09818 7.73996 6.13637 7.63632 6.13637C7.53268 6.13637 7.42905 6.09818 7.34723 6.01637L6.40905 5.07818V7.90909C6.40905 8.13273 6.22359 8.31818 5.99996 8.31818C5.77632 8.31818 5.59086 8.13273 5.59086 7.90909V5.07818L4.65268 6.01637C4.4945 6.17455 4.23268 6.17455 4.0745 6.01637C3.91632 5.85818 3.91632 5.59637 4.0745 5.43818L5.71087 3.80182C5.86905 3.64364 6.13086 3.64364 6.28905 3.80182L7.92541 5.43818C8.08359 5.59637 8.08359 5.85818 7.92541 6.01637Z" fill="currentColor"/>
</svg>
