<svg width="12" height="12" viewBox="0 0 12 12" fill="none" xmlns="http://www.w3.org/2000/svg">
<path d="M6 0.545456C2.98909 0.545456 0.545456 2.98909 0.545456 6C0.545456 9.01091 2.98909 11.4545 6 11.4545C9.01091 11.4545 11.4545 9.01091 11.4545 6C11.4545 2.98909 9.01091 0.545456 6 0.545456ZM7.92546 6.56182L6.28909 8.19818C6.20727 8.28 6.10364 8.31818 6 8.31818C5.89637 8.31818 5.79273 8.28 5.71091 8.19818L4.07455 6.56182C3.91637 6.40364 3.91637 6.14182 4.07455 5.98364C4.23273 5.82546 4.49455 5.82546 4.65273 5.98364L5.59091 6.92182V4.09091C5.59091 3.86727 5.77637 3.68182 6 3.68182C6.22364 3.68182 6.40909 3.86727 6.40909 4.09091V6.92182L7.34727 5.98364C7.50546 5.82546 7.76727 5.82546 7.92546 5.98364C8.08364 6.14182 8.08364 6.40364 7.92546 6.56182Z" fill="currentColor"/>
</svg>
