<svg width="12" height="12" viewBox="0 0 12 12" fill="none" xmlns="http://www.w3.org/2000/svg">
<path d="M5.99996 11.4545C5.79192 11.4545 5.61941 11.282 5.61941 11.0739V10.0589C5.61941 9.85087 5.79192 9.67833 5.99996 9.67833C6.20799 9.67833 6.38051 9.85087 6.38051 10.0589V11.0739C6.38051 11.282 6.20799 11.4545 5.99996 11.4545Z" fill="currentColor"/>
<path d="M5.99996 9.42458C5.79192 9.42458 5.61941 9.25203 5.61941 9.04396V8.02898C5.61941 7.82091 5.79192 7.64836 5.99996 7.64836C6.20799 7.64836 6.38051 7.82091 6.38051 8.02898V9.04396C6.38051 9.25203 6.20799 9.42458 5.99996 9.42458Z" fill="currentColor"/>
<path d="M5.99996 7.39461C5.79192 7.39461 5.61941 7.22206 5.61941 7.01399V5.49152C5.61941 3.32453 7.38516 1.55846 9.55175 1.55846H11.074C11.282 1.55846 11.4545 1.731 11.4545 1.93907C11.4545 2.14715 11.282 2.31969 11.074 2.31969H9.55175C7.80122 2.31969 6.38051 3.74067 6.38051 5.49152V7.01399C6.38051 7.22206 6.20799 7.39461 5.99996 7.39461Z" fill="currentColor"/>
<path d="M5.99996 7.39461C5.79192 7.39461 5.61941 7.22206 5.61941 7.01399V5.49152C5.61941 3.74067 4.19869 2.31969 2.44816 2.31969H0.92596C0.717926 2.31969 0.54541 2.14715 0.54541 1.93907C0.54541 1.731 0.717926 1.55846 0.92596 1.55846H2.44816C4.61475 1.55846 6.38051 3.32453 6.38051 5.49152V7.01399C6.38051 7.22206 6.20799 7.39461 5.99996 7.39461Z" fill="currentColor"/>
<path d="M1.94147 3.33539C1.84507 3.33539 1.74866 3.29987 1.67255 3.22374L0.657754 2.20876C0.510608 2.06159 0.510608 1.81799 0.657754 1.67082L1.67255 0.655835C1.8197 0.508663 2.06325 0.508663 2.2104 0.655835C2.35754 0.803008 2.35754 1.0466 2.2104 1.19378L1.46452 1.93979L2.2104 2.6858C2.35754 2.83298 2.35754 3.07657 2.2104 3.22374C2.13429 3.29987 2.03788 3.33539 1.94147 3.33539Z" fill="currentColor"/>
<path d="M10.0599 3.33539C9.96346 3.33539 9.86705 3.29987 9.79094 3.22374C9.64379 3.07657 9.64379 2.83298 9.79094 2.6858L10.5368 1.93979L9.79094 1.19378C9.64379 1.0466 9.64379 0.803008 9.79094 0.655835C9.93809 0.508663 10.1816 0.508663 10.3288 0.655835L11.3436 1.67082C11.4907 1.81799 11.4907 2.06159 11.3436 2.20876L10.3288 3.22374C10.2527 3.29987 10.1563 3.33539 10.0599 3.33539Z" fill="currentColor"/>
</svg>
