<svg width="12" height="12" viewBox="0 0 12 12" fill="none" xmlns="http://www.w3.org/2000/svg">
<path d="M5.42751 2.74965L3.3421 0.674127C3.30275 0.634966 3.25216 0.6014 3.19595 0.579022C3.19033 0.579022 3.18471 0.579022 3.17909 0.573428C3.13412 0.556645 3.08915 0.545456 3.03856 0.545456C2.92614 0.545456 2.81934 0.590211 2.74064 0.668533L0.643987 2.74965C0.480976 2.91189 0.480976 3.18042 0.643987 3.34266C0.806998 3.5049 1.07681 3.5049 1.23982 3.34266L2.61698 1.97203V11.035C2.61698 11.2643 2.8081 11.4545 3.03856 11.4545C3.26903 11.4545 3.46014 11.2643 3.46014 11.035V1.97762L4.83168 3.34266C4.91599 3.42657 5.02279 3.46574 5.12959 3.46574C5.23639 3.46574 5.34319 3.42657 5.42751 3.34266C5.59052 3.18042 5.59052 2.91748 5.42751 2.74965Z" fill="currentColor"/>
<path d="M11.356 8.65734C11.193 8.49511 10.9232 8.49511 10.7602 8.65734L9.383 10.028V0.965036C9.383 0.735666 9.19188 0.545456 8.96142 0.545456C8.73095 0.545456 8.53984 0.735666 8.53984 0.965036V10.0224L7.1683 8.65734C7.00529 8.49511 6.73548 8.49511 6.57246 8.65734C6.40945 8.81958 6.40945 9.08811 6.57246 9.25035L8.65788 11.3259C8.69723 11.365 8.74782 11.3986 8.80403 11.421C8.80965 11.421 8.81527 11.421 8.82089 11.4266C8.86586 11.4434 8.91645 11.4545 8.96704 11.4545C9.07946 11.4545 9.18626 11.4098 9.26496 11.3315L11.356 9.25035C11.519 9.08252 11.519 8.81958 11.356 8.65734Z" fill="currentColor"/>
</svg>
