<svg width="12" height="12" viewBox="0 0 12 12" fill="none" xmlns="http://www.w3.org/2000/svg">
<path d="M5.99996 0.545456C2.9945 0.545456 0.54541 2.99455 0.54541 6C0.54541 9.00546 2.9945 11.4545 5.99996 11.4545C9.00541 11.4545 11.4545 9.00546 11.4545 6C11.4545 2.99455 9.00541 0.545456 5.99996 0.545456ZM8.2145 6.97637C8.13268 7.05818 8.02905 7.09637 7.92541 7.09637C7.82177 7.09637 7.71814 7.05818 7.63632 6.97637L5.99996 5.34L4.36359 6.97637C4.20541 7.13455 3.94359 7.13455 3.78541 6.97637C3.62723 6.81818 3.62723 6.55637 3.78541 6.39818L5.71087 4.47273C5.86905 4.31455 6.13086 4.31455 6.28905 4.47273L8.2145 6.39818C8.37268 6.56182 8.37268 6.81818 8.2145 6.97637Z" fill="currentColor"/>
</svg>
