<svg width="12" height="12" viewBox="0 0 12 12" fill="none" xmlns="http://www.w3.org/2000/svg">
<path opacity="0.93" d="M5.99996 0.545456C2.98905 0.545456 0.54541 2.98909 0.54541 6C0.54541 9.01091 2.98905 11.4545 5.99996 11.4545C9.01087 11.4545 11.4545 9.01091 11.4545 6C11.4545 2.98909 9.01087 0.545456 5.99996 0.545456ZM8.38359 7.28182L7.17268 8.49273C6.87814 8.78727 6.49632 8.92909 6.1145 8.92909C5.73268 8.92909 5.34541 8.78182 5.05632 8.49273C4.77268 8.20909 4.6145 7.83273 4.6145 7.43455C4.6145 7.03637 4.77268 6.65455 5.05632 6.37637L5.82541 5.60727C5.98359 5.44909 6.24541 5.44909 6.40359 5.60727C6.56177 5.76546 6.56177 6.02727 6.40359 6.18546L5.6345 6.95455C5.50359 7.08546 5.43268 7.25455 5.43268 7.43455C5.43268 7.61455 5.50359 7.78909 5.6345 7.91455C5.90177 8.18182 6.33268 8.18182 6.59996 7.91455L7.81086 6.70364C8.50359 6.01091 8.50359 4.88727 7.81086 4.19455C7.11814 3.50182 5.9945 3.50182 5.30177 4.19455L3.98177 5.51455C3.70359 5.79273 3.55086 6.15818 3.55086 6.54546C3.55086 6.93273 3.70359 7.30364 3.98177 7.57637C4.13996 7.73455 4.13996 7.99637 3.98177 8.15455C3.82359 8.31273 3.56177 8.31273 3.40359 8.15455C2.96723 7.73455 2.72723 7.16182 2.72723 6.55091C2.72723 5.94 2.96177 5.36727 3.39268 4.93637L4.71268 3.61637C5.72177 2.60727 7.36905 2.60727 8.37814 3.61637C9.39268 4.62546 9.39268 6.27273 8.38359 7.28182Z" fill="currentColor"/>
</svg>
