<svg width="12" height="12" viewBox="0 0 12 12" fill="none" xmlns="http://www.w3.org/2000/svg">
<path d="M4.72896 7.04831C4.32532 7.04831 4.0035 7.37558 4.0035 7.77922C4.0035 8.18286 4.33078 8.50467 4.72896 8.50467C5.13257 8.50467 5.45985 8.1774 5.45985 7.77922C5.45985 7.37558 5.13257 7.04831 4.72896 7.04831Z" fill="currentColor"/>
<path d="M8.28541 0.545456H3.7145C1.72905 0.545456 0.54541 1.72909 0.54541 3.71455V8.28C0.54541 10.2709 1.72905 11.4545 3.7145 11.4545H8.27996C10.2654 11.4545 11.449 10.2709 11.449 8.28546V3.71455C11.4545 1.72909 10.2709 0.545456 8.28541 0.545456ZM8.79268 4.8C8.79268 5.13273 8.65086 5.42727 8.41086 5.60182C8.25814 5.71091 8.07268 5.77091 7.87632 5.77091C7.76177 5.77091 7.64723 5.74909 7.52723 5.71091L6.27814 5.29637C6.27268 5.29637 6.26177 5.29091 6.25632 5.28546V7.77273C6.25632 8.61273 5.56905 9.3 4.72905 9.3C3.88905 9.3 3.20177 8.61273 3.20177 7.77273C3.20177 6.93273 3.88905 6.24546 4.72905 6.24546C4.99632 6.24546 5.24177 6.32182 5.45996 6.43637V3.82909C5.45996 3.49637 5.60177 3.20182 5.84177 3.02727C6.08723 2.85273 6.40905 2.80909 6.72541 2.91818L7.9745 3.33273C8.44359 3.49091 8.79814 3.98182 8.79814 4.47273V4.8H8.79268Z" fill="currentColor"/>
</svg>
