<svg width="12" height="12" viewBox="0 0 12 12" fill="none" xmlns="http://www.w3.org/2000/svg">
<path d="M11.2118 5.30317L10.4754 4.44136C10.3391 4.27772 10.2245 3.97228 10.2245 3.75409V2.82682C10.2245 2.24863 9.74998 1.77409 9.1718 1.77409H8.24452C8.02634 1.77409 7.71543 1.65955 7.5518 1.52318L6.68998 0.786815C6.31361 0.465003 5.69725 0.465003 5.32089 0.786815L4.44814 1.52318C4.2845 1.65955 3.97905 1.77409 3.76086 1.77409H2.81723C2.23905 1.77409 1.7645 2.24863 1.7645 2.82682V3.75409C1.7645 3.96682 1.65541 4.27227 1.51905 4.43591L0.782683 5.30317C0.466319 5.68499 0.466319 6.2959 0.782683 6.6668L1.51905 7.53408C1.65541 7.69226 1.7645 8.00317 1.7645 8.2159V9.14862C1.7645 9.7268 2.23905 10.2014 2.81723 10.2014H3.76632C3.97905 10.2014 4.28996 10.3159 4.45359 10.4523L5.31543 11.1886C5.6918 11.5104 6.30816 11.5104 6.68452 11.1886L7.54634 10.4523C7.70998 10.3159 8.01543 10.2014 8.23361 10.2014H9.16089C9.73907 10.2014 10.2136 9.7268 10.2136 9.14862V8.22135C10.2136 8.00317 10.3282 7.69771 10.4645 7.53408L11.2009 6.67226C11.5336 6.30135 11.5336 5.68499 11.2118 5.30317ZM7.52998 8.30317L6.99543 7.10317C6.97907 7.10317 6.9627 7.11408 6.94634 7.11408H5.03725C5.02089 7.11408 5.00452 7.10862 4.98816 7.10317L4.45359 8.30317L3.70632 7.97044L5.61543 3.67228H6.3627L8.2718 7.97044L7.52998 8.30317Z" fill="currentColor"/>
<path d="M5.35329 6.29704H6.64056L5.99692 4.85156L5.35329 6.29704Z" fill="currentColor"/>
</svg>
