<svg width="12" height="12" viewBox="0 0 12 12" fill="none" xmlns="http://www.w3.org/2000/svg">
<path d="M9.2721 2.45021V2.85408L7.2789 1.73524C6.52441 1.315 5.47151 1.315 4.72266 1.73524L2.72946 2.85954V2.45021C2.72946 1.22222 3.42201 0.545456 4.68888 0.545456H7.31268C8.57955 0.545456 9.2721 1.22222 9.2721 2.45021Z" fill="currentColor"/>
<path d="M9.2882 3.80279L9.20937 3.76458L8.44363 3.33888L6.85582 2.44927C6.3716 2.17638 5.62838 2.17638 5.14415 2.44927L3.55635 3.33342L2.7906 3.77004L2.68926 3.81916C1.70392 4.46317 1.63635 4.58324 1.63635 5.61477V8.08166C1.63635 9.11318 1.70392 9.23325 2.71178 9.89363L5.14415 11.2526C5.38626 11.3945 5.69031 11.4545 5.99999 11.4545C6.30404 11.4545 6.61371 11.3891 6.85582 11.2526L9.31072 9.87726C10.3017 9.23325 10.3636 9.11863 10.3636 8.08166V5.61477C10.3636 4.58324 10.2961 4.46317 9.2882 3.80279ZM7.5709 6.82093L7.22744 7.23026C7.17113 7.29029 7.13172 7.4049 7.13735 7.48677L7.17113 8.01071C7.19365 8.33272 6.95717 8.49645 6.6475 8.38184L6.14638 8.18536C6.06755 8.15807 5.93805 8.15807 5.85923 8.18536L5.35811 8.37638C5.04843 8.49645 4.81195 8.32726 4.83448 8.00526L4.86826 7.48131C4.87389 7.39945 4.83448 7.28483 4.77817 7.2248L4.42908 6.82093C4.21512 6.57533 4.31084 6.30244 4.63178 6.22058L5.15541 6.08959C5.23987 6.06776 5.33559 5.99135 5.38063 5.92586L5.67342 5.48924C5.8536 5.21635 6.14075 5.21635 6.32656 5.48924L6.61934 5.92586C6.66439 5.99681 6.76574 6.06776 6.84456 6.08959L7.3682 6.22058C7.68914 6.30244 7.78486 6.57533 7.5709 6.82093Z" fill="currentColor"/>
</svg>
