<svg width="12" height="12" viewBox="0 0 12 12" fill="none" xmlns="http://www.w3.org/2000/svg">
<path d="M10.9091 2.36462V3.79755C10.9091 4.77406 10.6119 5.07126 9.63541 5.07126H8.20249C7.22598 5.07126 6.92878 4.77406 6.92878 3.79755V2.36462C6.92878 1.38811 7.22598 1.09091 8.20249 1.09091H9.63541C10.6119 1.09091 10.9091 1.38811 10.9091 2.36462Z" fill="currentColor"/>
<path d="M5.07129 8.20246V9.63538C5.07129 10.6119 4.77409 10.9091 3.79758 10.9091H2.36465C1.38814 10.9091 1.09094 10.6119 1.09094 9.63538V8.20246C1.09094 7.22595 1.38814 6.92875 2.36465 6.92875H3.79758C4.77409 6.92875 5.07129 7.22595 5.07129 8.20246Z" fill="currentColor"/>
<path d="M8.20201 5.86791C8.3427 5.86791 8.45676 5.98196 8.45676 6.12265V6.86034C8.45676 8.07037 8.06933 8.45779 6.85931 8.45779H6.12162C5.98093 8.45779 5.86688 8.34374 5.86688 8.20304C5.86688 6.79135 5.20879 6.13326 3.79712 6.13326C3.65643 6.13326 3.54238 6.01921 3.54238 5.87852V5.14083C3.54238 3.9308 3.9298 3.54338 5.1398 3.54338H5.87749C6.01818 3.54338 6.13223 3.65744 6.13223 3.79812C6.13223 5.20983 6.79032 5.86791 8.20201 5.86791Z" fill="currentColor"/>
</svg>
