<svg width="12" height="12" viewBox="0 0 12 12" fill="none" xmlns="http://www.w3.org/2000/svg">
<path d="M6.19814 8.49567H5.03198C4.8232 8.49567 4.65006 8.32309 4.65006 8.11497C4.65006 7.90686 4.8232 7.73428 5.03198 7.73428H6.19814C6.41711 7.73428 6.59535 7.55662 6.59535 7.33835C6.59535 7.12008 6.41711 6.94243 6.19814 6.94243H5.03198C4.90977 6.94243 4.79264 6.88151 4.72135 6.78507C4.65006 6.68863 4.62969 6.55665 4.67043 6.43991L5.05744 5.27751C5.10836 5.12016 5.25604 5.01864 5.419 5.01864H6.97728C7.18607 5.01864 7.35921 5.19122 7.35921 5.39933C7.35921 5.60745 7.18607 5.78003 6.97728 5.78003H5.69399L5.56159 6.18103H6.19814C6.83978 6.18103 7.35921 6.69878 7.35921 7.33835C7.35921 7.97792 6.83978 8.49567 6.19814 8.49567Z" fill="currentColor"/>
<path d="M6.00514 1.67315C5.9644 1.67315 5.92366 1.67823 5.88292 1.67823L6.3005 1.16048C6.4329 0.998048 6.40744 0.754402 6.23939 0.627503C6.07134 0.500604 5.83709 0.520908 5.70468 0.688414L4.70146 1.9371C4.69637 1.94218 4.69637 1.94725 4.69127 1.9574C4.676 1.97771 4.66581 2.00309 4.65563 2.02339C4.64544 2.04877 4.63526 2.06907 4.63017 2.08938C4.62507 2.11476 4.62507 2.13506 4.62507 2.16044C4.62507 2.18582 4.62507 2.2112 4.62507 2.23658C4.62507 2.24673 4.62507 2.25181 4.62507 2.26196C4.63017 2.27719 4.64035 2.28734 4.64544 2.30257C4.65563 2.32795 4.66581 2.34825 4.676 2.37363C4.69127 2.39394 4.70655 2.41424 4.72692 2.42947C4.73711 2.4447 4.7422 2.45992 4.75748 2.47008C4.76766 2.47515 4.77275 2.48023 4.78294 2.4853C4.79822 2.49546 4.8084 2.50053 4.82368 2.50561C4.84914 2.52084 4.87969 2.53099 4.91025 2.53606C4.92553 2.54622 4.9408 2.54622 4.95608 2.54622C4.97136 2.54622 4.98154 2.55129 4.99684 2.55129C5.01212 2.55129 5.0223 2.54621 5.03249 2.54114C5.04776 2.54114 5.06304 2.54621 5.07832 2.54114C5.40423 2.465 5.70978 2.42947 6.00004 2.42947C8.28653 2.42947 10.1453 4.28219 10.1453 6.56132C10.1453 8.84038 8.28653 10.6932 6.00004 10.6932C3.71353 10.6932 1.8548 8.84038 1.8548 6.56132C1.8548 5.67811 2.14507 4.82532 2.69505 4.09438C2.82236 3.92688 2.78671 3.68831 2.61866 3.56141C2.45062 3.43451 2.21127 3.47004 2.08396 3.63755C1.43213 4.50046 1.09094 5.5106 1.09094 6.56132C1.09094 9.25666 3.29086 11.4545 6.00004 11.4545C8.70921 11.4545 10.9091 9.26173 10.9091 6.56132C10.9091 3.86089 8.70921 1.67315 6.00514 1.67315Z" fill="currentColor"/>
</svg>
