<svg width="12" height="12" viewBox="0 0 12 12" fill="none" xmlns="http://www.w3.org/2000/svg">
<path d="M8.28541 0.545456H3.7145C1.72905 0.545456 0.54541 1.72909 0.54541 3.71455V8.28C0.54541 10.2709 1.72905 11.4545 3.7145 11.4545H8.27996C10.2654 11.4545 11.449 10.2709 11.449 8.28546V3.71455C11.4545 1.72909 10.2709 0.545456 8.28541 0.545456ZM7.04723 8.25273H4.36359C4.13996 8.25273 3.9545 8.06727 3.9545 7.84364C3.9545 7.62 4.13996 7.43455 4.36359 7.43455H7.04723C7.74541 7.43455 8.31814 6.86727 8.31814 6.16364C8.31814 5.46 7.75086 4.89273 7.04723 4.89273H4.28177L4.42359 5.03455C4.58177 5.19818 4.58177 5.45455 4.41814 5.61818C4.33632 5.7 4.23268 5.73818 4.12905 5.73818C4.02541 5.73818 3.92177 5.7 3.83996 5.61818L2.98359 4.75637C2.82541 4.59818 2.82541 4.33636 2.98359 4.17818L3.83996 3.32182C3.99814 3.16364 4.25996 3.16364 4.41814 3.32182C4.57632 3.48 4.57632 3.74182 4.41814 3.9L4.23814 4.08H7.04723C8.19814 4.08 9.13632 5.01818 9.13632 6.16909C9.13632 7.32 8.19814 8.25273 7.04723 8.25273Z" fill="currentColor"/>
</svg>
