<svg width="12" height="12" viewBox="0 0 12 12" fill="none" xmlns="http://www.w3.org/2000/svg">
<path d="M4.89512 8.36951C4.68633 8.36951 4.51319 8.19696 4.51319 7.98889V6.26847L4.41644 6.38012C4.27385 6.53744 4.0345 6.54759 3.87664 6.41057C3.71878 6.26847 3.70859 6.02994 3.84609 5.87262L4.60995 5.02509C4.71689 4.90837 4.88494 4.86777 5.03262 4.9236C5.1803 4.97942 5.27705 5.12152 5.27705 5.27884V7.99396C5.27705 8.20204 5.109 8.36951 4.89512 8.36951Z" fill="currentColor"/>
<path d="M6.14765 1.67506C6.10691 1.67506 6.06617 1.68014 6.02544 1.68014L6.44301 1.16249C6.57542 1.00009 6.54995 0.75649 6.3819 0.629615C6.21895 0.497665 5.9796 0.52304 5.8472 0.690515L4.84399 1.93896C4.8389 1.94404 4.8389 1.94911 4.83381 1.95926C4.81853 1.97956 4.80834 2.00494 4.79816 2.02524C4.78797 2.05061 4.77779 2.07091 4.7727 2.09121C4.7676 2.11659 4.7676 2.13689 4.7676 2.16226C4.7676 2.18764 4.7676 2.21301 4.7676 2.23839C4.7676 2.24854 4.7676 2.25361 4.7676 2.26376C4.7727 2.27899 4.78288 2.28914 4.78797 2.30944C4.79816 2.33481 4.80325 2.35511 4.81853 2.37541C4.83381 2.39571 4.84908 2.41601 4.86945 2.43631C4.87964 2.44646 4.88982 2.46169 4.90001 2.47184C4.9051 2.47691 4.91528 2.47691 4.92038 2.48199C4.93565 2.49214 4.95093 2.50229 4.9713 2.50736C4.99676 2.52259 5.02222 2.53274 5.04769 2.53781C5.06806 2.54796 5.08333 2.54796 5.1037 2.54796C5.11898 2.54796 5.12917 2.55304 5.14445 2.55304C5.15463 2.55304 5.16991 2.54796 5.18009 2.54289C5.19537 2.54289 5.21065 2.54289 5.23102 2.54289C5.55693 2.46676 5.86248 2.43124 6.15275 2.43124C8.43924 2.43124 10.298 4.28361 10.298 6.56226C10.298 8.84093 8.43924 10.6933 6.15275 10.6933C3.86625 10.6933 2.00751 8.84093 2.00751 6.56226C2.00751 5.67921 2.29778 4.82663 2.84776 4.09583C2.97507 3.92836 2.93943 3.68983 2.77138 3.56296C2.60333 3.43608 2.36398 3.47161 2.23667 3.63908C1.58484 4.50183 1.24365 5.51173 1.24365 6.56226C1.24365 9.25708 3.44358 11.4545 6.15275 11.4545C8.86191 11.4545 11.0618 9.26215 11.0618 6.56226C11.0618 3.86238 8.85173 1.67506 6.14765 1.67506Z" fill="currentColor"/>
<path d="M7.16558 8.36926C6.39153 8.36926 5.76516 7.74503 5.76516 6.97364V6.28851C5.76516 5.51711 6.39153 4.89289 7.16558 4.89289C7.93962 4.89289 8.56599 5.51711 8.56599 6.28851V6.97364C8.56599 7.74503 7.93962 8.36926 7.16558 8.36926ZM7.16558 5.65921C6.8142 5.65921 6.52902 5.94341 6.52902 6.29359V6.97871C6.52902 7.32888 6.8142 7.61308 7.16558 7.61308C7.51695 7.61308 7.80213 7.32888 7.80213 6.97871V6.29359C7.80213 5.94341 7.51695 5.65921 7.16558 5.65921Z" fill="currentColor"/>
</svg>
