<svg width="12" height="12" viewBox="0 0 12 12" fill="none" xmlns="http://www.w3.org/2000/svg">
<path d="M7.3952 8.49567H6.22904C6.02025 8.49567 5.84711 8.32309 5.84711 8.11497C5.84711 7.90686 6.02025 7.73428 6.22904 7.73428H7.3952C7.61417 7.73428 7.79241 7.55662 7.79241 7.33835C7.79241 7.12008 7.61417 6.94243 7.3952 6.94243H6.22904C6.10682 6.94243 5.9897 6.88151 5.9184 6.78507C5.84711 6.68863 5.82674 6.55665 5.86748 6.43991L6.2545 5.27751C6.30542 5.12016 6.4531 5.01864 6.61606 5.01864H8.17434C8.38313 5.01864 8.55627 5.19122 8.55627 5.39933C8.55627 5.60745 8.38313 5.78003 8.17434 5.78003H6.89105L6.75865 6.18103H7.3952C8.03684 6.18103 8.55627 6.69878 8.55627 7.33835C8.55627 7.97792 8.03175 8.49567 7.3952 8.49567Z" fill="currentColor"/>
<path d="M4.90451 8.49592C4.69572 8.49592 4.52258 8.32334 4.52258 8.11523V6.39448L4.42582 6.50615C4.28323 6.6635 4.04389 6.67365 3.88603 6.5366C3.73325 6.39448 3.71798 6.15591 3.86056 5.99855L4.62443 5.15087C4.73137 5.03412 4.89942 4.99351 5.0471 5.04935C5.19477 5.10518 5.29153 5.24731 5.29153 5.40466V8.1203C5.28643 8.32842 5.11839 8.49592 4.90451 8.49592Z" fill="currentColor"/>
<path d="M6.15785 1.67315C6.11711 1.67315 6.07637 1.67823 6.03563 1.67823L6.45321 1.16048C6.58561 0.998048 6.56015 0.754402 6.3921 0.627503C6.22405 0.500604 5.9898 0.520908 5.85739 0.688414L4.85417 1.9371C4.84908 1.94218 4.84908 1.94725 4.84398 1.9574C4.82871 1.97771 4.81852 2.00309 4.80834 2.02339C4.79815 2.04877 4.78797 2.06907 4.78288 2.08938C4.77778 2.11476 4.77778 2.13506 4.77778 2.16044C4.77778 2.18582 4.77778 2.2112 4.77778 2.23658C4.77778 2.24673 4.77778 2.25181 4.77778 2.26196C4.78288 2.27719 4.79306 2.28734 4.79815 2.30257C4.80834 2.32795 4.81852 2.34825 4.82871 2.37363C4.84398 2.39394 4.85926 2.41424 4.87963 2.42947C4.88982 2.4447 4.89491 2.45992 4.91019 2.47008C4.92037 2.47515 4.92546 2.48023 4.93565 2.4853C4.94583 2.49546 4.96111 2.50053 4.97639 2.50561C5.00185 2.52084 5.0324 2.53099 5.05787 2.53606C5.07824 2.54622 5.09351 2.54622 5.10879 2.54622C5.12407 2.54622 5.13425 2.55129 5.14955 2.55129C5.16483 2.55129 5.17501 2.54621 5.1852 2.54114C5.20047 2.54114 5.21575 2.54621 5.23103 2.54114C5.55694 2.465 5.86249 2.42947 6.15275 2.42947C8.43924 2.42947 10.298 4.28219 10.298 6.56132C10.298 8.84038 8.43924 10.6932 6.15275 10.6932C3.86624 10.6932 2.00751 8.84038 2.00751 6.56132C2.00751 5.67811 2.29778 4.82532 2.84776 4.09438C2.97507 3.92688 2.93942 3.68831 2.77137 3.56141C2.60333 3.43451 2.36398 3.47004 2.23667 3.63755C1.58484 4.50046 1.24365 5.5106 1.24365 6.56132C1.24365 9.25666 3.44357 11.4545 6.15275 11.4545C8.86192 11.4545 11.0618 9.26173 11.0618 6.56132C11.0618 3.86089 8.86192 1.67315 6.15785 1.67315Z" fill="currentColor"/>
</svg>
