<svg width="12" height="12" viewBox="0 0 12 12" fill="none" xmlns="http://www.w3.org/2000/svg">
<path d="M9.94905 2.49955H9.73087L7.88723 0.65591C7.73996 0.508638 7.49996 0.508638 7.34723 0.65591C7.19996 0.803183 7.19996 1.04318 7.34723 1.19591L8.65087 2.49955H3.34905L4.65268 1.19591C4.79996 1.04864 4.79996 0.808638 4.65268 0.65591C4.50541 0.508638 4.26541 0.508638 4.11268 0.65591L2.2745 2.49955H2.05632C1.56541 2.49955 0.54541 2.49955 0.54541 3.89591C0.54541 4.425 0.654501 4.77409 0.883592 5.00319C1.0145 5.13955 1.17268 5.21046 1.34177 5.24864C1.49996 5.28683 1.66905 5.29228 1.83268 5.29228H10.1672C10.3363 5.29228 10.4945 5.28137 10.6472 5.24864C11.1054 5.13955 11.4545 4.81227 11.4545 3.89591C11.4545 2.49955 10.4345 2.49955 9.94905 2.49955Z" fill="currentColor"/>
<path d="M9.86707 6.00213H2.13252C1.79434 6.00213 1.53798 6.30213 1.59252 6.63486L2.05071 9.4385C2.20343 10.3767 2.61252 11.4567 4.42889 11.4567H7.48888C9.32706 11.4567 9.65434 10.5349 9.8507 9.50395L10.4016 6.65123C10.4671 6.31304 10.2107 6.00213 9.86707 6.00213ZM7.5707 8.21123L5.79797 9.84759C5.72161 9.9185 5.62343 9.95668 5.51979 9.95668C5.41616 9.95668 5.31252 9.9185 5.2307 9.83668L4.41252 9.0185C4.25434 8.86032 4.25434 8.5985 4.41252 8.44032C4.57616 8.28213 4.83253 8.28213 4.99616 8.44032L5.53616 8.98032L7.01979 7.61123C7.18343 7.4585 7.44525 7.46941 7.59797 7.63304C7.7507 7.80213 7.73979 8.0585 7.5707 8.21123Z" fill="currentColor"/>
</svg>
