<svg width="12" height="12" viewBox="0 0 12 12" fill="none" xmlns="http://www.w3.org/2000/svg">
<path d="M10.2565 4.3431C9.891 3.93946 9.34009 3.70492 8.57646 3.6231V3.20855C8.57646 2.46128 8.2601 1.74128 7.70373 1.23946C7.14191 0.726733 6.411 0.486733 5.65282 0.557642C4.34921 0.683097 3.25285 1.9431 3.25285 3.30673V3.6231C2.48921 3.70492 1.9383 3.93946 1.57285 4.3431C1.04376 4.93217 1.06012 5.71762 1.12012 6.26308L1.50194 9.30126C1.61649 10.3649 2.04739 11.4558 4.39285 11.4558H7.43646C9.78191 11.4558 10.2128 10.3649 10.3274 9.30671L10.7092 6.25762C10.7692 5.71762 10.7855 4.93217 10.2565 4.3431ZM5.72919 1.31582C6.27464 1.26673 6.79282 1.43582 7.19646 1.80128C7.59464 2.16128 7.81828 2.67401 7.81828 3.20855V3.59037H4.01103V3.30673C4.01103 2.33582 4.81285 1.4031 5.72919 1.31582ZM5.91464 9.59035C4.77467 9.59035 3.84739 8.66307 3.84739 7.52308C3.84739 6.38307 4.77467 5.4558 5.91464 5.4558C7.05464 5.4558 7.98191 6.38307 7.98191 7.52308C7.98191 8.66307 7.05464 9.59035 5.91464 9.59035Z" fill="currentColor"/>
<path d="M6.78704 7.80769L6.49795 7.5186L6.77068 7.24588C6.92886 7.08769 6.92886 6.82588 6.77068 6.66769C6.6125 6.50951 6.35068 6.50951 6.19249 6.66769L5.91977 6.94042L5.63068 6.65133C5.4725 6.49315 5.21068 6.49315 5.05249 6.65133C4.89431 6.80951 4.89431 7.07133 5.05249 7.22951L5.34159 7.5186L5.04159 7.8186C4.8834 7.97678 4.8834 8.2386 5.04159 8.39678C5.1234 8.4786 5.22704 8.51679 5.33068 8.51679C5.43431 8.51679 5.53795 8.4786 5.61977 8.39678L5.91977 8.09679L6.20886 8.38588C6.29068 8.46769 6.39431 8.50588 6.49795 8.50588C6.60159 8.50588 6.70522 8.46769 6.78704 8.38588C6.94522 8.22769 6.94522 7.97133 6.78704 7.80769Z" fill="currentColor"/>
</svg>
