<svg width="12" height="12" viewBox="0 0 12 12" fill="none" xmlns="http://www.w3.org/2000/svg">
<path d="M10.2563 4.3431C9.89088 3.93946 9.33997 3.70492 8.57634 3.6231V3.20855C8.57634 2.46128 8.25997 1.74128 7.70361 1.23946C7.14179 0.726733 6.41088 0.486733 5.6527 0.557642C4.34909 0.683097 3.25273 1.9431 3.25273 3.30673V3.6231C2.48909 3.70492 1.93818 3.93946 1.57273 4.3431C1.04364 4.93217 1.06 5.71762 1.12 6.26308L1.50182 9.30126C1.61636 10.3649 2.04727 11.4558 4.39273 11.4558H7.43634C9.78179 11.4558 10.2127 10.3649 10.3272 9.30671L10.7091 6.25762C10.7691 5.71762 10.7854 4.93217 10.2563 4.3431ZM5.72906 1.31582C6.27452 1.26673 6.7927 1.43582 7.19634 1.80128C7.59452 2.16128 7.81815 2.67401 7.81815 3.20855V3.59037H4.01091V3.30673C4.01091 2.33582 4.81273 1.4031 5.72906 1.31582ZM5.91452 9.59035C4.77455 9.59035 3.84727 8.66307 3.84727 7.52308C3.84727 6.38307 4.77455 5.4558 5.91452 5.4558C7.05452 5.4558 7.98179 6.38307 7.98179 7.52308C7.98179 8.66307 7.05452 9.59035 5.91452 9.59035Z" fill="currentColor"/>
<path d="M5.36917 8.49928C5.23281 8.49928 5.09645 8.42837 5.02008 8.30291C4.90554 8.112 4.96554 7.85564 5.1619 7.74109L5.64735 7.452V6.86291C5.64735 6.63928 5.83281 6.45382 6.05645 6.45382C6.28008 6.45382 6.46008 6.63382 6.46008 6.86291V7.68109C6.46008 7.82291 6.38372 7.95927 6.26372 8.03018L5.5819 8.43927C5.51645 8.47746 5.44008 8.49928 5.36917 8.49928Z" fill="currentColor"/>
</svg>
