<svg width="12" height="12" viewBox="0 0 12 12" fill="none" xmlns="http://www.w3.org/2000/svg">
<path d="M10.2565 4.3431C9.891 3.93946 9.34009 3.70492 8.57646 3.6231V3.20855C8.57646 2.46128 8.2601 1.74128 7.70373 1.23946C7.14191 0.726733 6.411 0.486733 5.65282 0.557642C4.34921 0.683097 3.25285 1.9431 3.25285 3.30673V3.6231C2.48921 3.70492 1.9383 3.93946 1.57285 4.3431C1.04376 4.93217 1.06012 5.71762 1.12012 6.26308L1.50194 9.30126C1.61649 10.3649 2.04739 11.4558 4.39285 11.4558H7.43646C9.78191 11.4558 10.2128 10.3649 10.3274 9.30671L10.7092 6.25762C10.7692 5.71762 10.7801 4.93217 10.2565 4.3431ZM5.72919 1.31582C6.27464 1.26673 6.79282 1.43582 7.19646 1.80128C7.59464 2.16128 7.81828 2.67401 7.81828 3.20855V3.59037H4.01103V3.30673C4.01103 2.33582 4.81285 1.4031 5.72919 1.31582ZM3.96194 6.62853H3.95649C3.65649 6.62853 3.41103 6.38308 3.41103 6.08308C3.41103 5.78308 3.65649 5.53762 3.95649 5.53762C4.26194 5.53762 4.50739 5.78308 4.50739 6.08308C4.50739 6.38308 4.26194 6.62853 3.96194 6.62853ZM7.7801 6.62853H7.77464C7.47464 6.62853 7.22919 6.38308 7.22919 6.08308C7.22919 5.78308 7.47464 5.53762 7.77464 5.53762C8.0801 5.53762 8.32555 5.78308 8.32555 6.08308C8.32555 6.38308 8.08009 6.62853 7.7801 6.62853Z" fill="currentColor"/>
</svg>
