<svg width="12" height="12" viewBox="0 0 12 12" fill="none" xmlns="http://www.w3.org/2000/svg">
<path d="M9.94905 2.49955H9.73087L7.88723 0.65591C7.73996 0.508638 7.49996 0.508638 7.34723 0.65591C7.19996 0.803183 7.19996 1.04318 7.34723 1.19591L8.65087 2.49955H3.34905L4.65268 1.19591C4.79996 1.04864 4.79996 0.808638 4.65268 0.65591C4.50541 0.508638 4.26541 0.508638 4.11268 0.65591L2.2745 2.49955H2.05632C1.56541 2.49955 0.54541 2.49955 0.54541 3.89591C0.54541 4.425 0.654501 4.77409 0.883592 5.00319C1.0145 5.13955 1.17268 5.21046 1.34177 5.24864C1.49996 5.28683 1.66905 5.29228 1.83268 5.29228H10.1672C10.3363 5.29228 10.4945 5.28137 10.6472 5.24864C11.1054 5.13955 11.4545 4.81227 11.4545 3.89591C11.4545 2.49955 10.4345 2.49955 9.94905 2.49955Z" fill="currentColor"/>
<path d="M9.84574 6.00213H2.11121C1.77303 6.00213 1.51667 6.30213 1.57121 6.63486L2.0294 9.4385C2.18212 10.3767 2.59121 11.4567 4.40758 11.4567H7.46756C9.30574 11.4567 9.63301 10.5349 9.82937 9.50395L10.3803 6.65123C10.4457 6.31304 10.1894 6.00213 9.84574 6.00213ZM6.00028 10.093C4.72394 10.093 3.68212 9.05123 3.68212 7.77486C3.68212 7.55123 3.86758 7.36577 4.09121 7.36577C4.31485 7.36577 4.5003 7.55123 4.5003 7.77486C4.5003 8.60395 5.17119 9.27486 6.00028 9.27486C6.82937 9.27486 7.50028 8.60395 7.50028 7.77486C7.50028 7.55123 7.68574 7.36577 7.90937 7.36577C8.13301 7.36577 8.31847 7.55123 8.31847 7.77486C8.31847 9.05123 7.27665 10.093 6.00028 10.093Z" fill="currentColor"/>
</svg>
