<svg width="12" height="12" viewBox="0 0 12 12" fill="none" xmlns="http://www.w3.org/2000/svg">
<path d="M10.2563 4.3431C9.89088 3.93946 9.33997 3.70492 8.57634 3.6231V3.20855C8.57634 2.46128 8.25997 1.74128 7.70361 1.23946C7.14179 0.726733 6.41088 0.486733 5.6527 0.557642C4.34909 0.683097 3.25273 1.9431 3.25273 3.30673V3.6231C2.48909 3.70492 1.93818 3.93946 1.57273 4.3431C1.04364 4.93217 1.06 5.71762 1.12 6.26308L1.50182 9.30126C1.61636 10.3649 2.04727 11.4558 4.39273 11.4558H7.43634C9.78179 11.4558 10.2127 10.3649 10.3272 9.30671L10.7091 6.25762C10.7691 5.71762 10.7854 4.93217 10.2563 4.3431ZM5.72906 1.31582C6.27452 1.26673 6.7927 1.43582 7.19634 1.80128C7.59452 2.16128 7.81815 2.67401 7.81815 3.20855V3.59037H4.01091V3.30673C4.01091 2.33582 4.81273 1.4031 5.72906 1.31582ZM5.91452 9.59035C4.77455 9.59035 3.84727 8.66307 3.84727 7.52308C3.84727 6.38307 4.77455 5.4558 5.91452 5.4558C7.05452 5.4558 7.98179 6.38307 7.98179 7.52308C7.98179 8.66307 7.05452 9.59035 5.91452 9.59035Z" fill="currentColor"/>
<path d="M5.60426 8.53304C5.50063 8.53304 5.39699 8.49486 5.31517 8.41304L4.77515 7.87304C4.61697 7.71486 4.61697 7.45304 4.77515 7.29486C4.93335 7.13667 5.19517 7.13667 5.35335 7.29486L5.61517 7.55668L6.4879 6.7494C6.65154 6.59667 6.91335 6.60758 7.06608 6.77122C7.21881 6.93486 7.2079 7.19668 7.04426 7.3494L5.88245 8.42395C5.80063 8.49486 5.70245 8.53304 5.60426 8.53304Z" fill="currentColor"/>
</svg>
