<svg width="12" height="12" viewBox="0 0 12 12" fill="none" xmlns="http://www.w3.org/2000/svg">
<path d="M9.94905 2.49955H9.73087L7.88723 0.65591C7.73996 0.508638 7.49996 0.508638 7.34723 0.65591C7.19996 0.803183 7.19996 1.04318 7.34723 1.19591L8.65087 2.49955H3.34905L4.65268 1.19591C4.79996 1.04864 4.79996 0.808638 4.65268 0.65591C4.50541 0.508638 4.26541 0.508638 4.11268 0.65591L2.2745 2.49955H2.05632C1.56541 2.49955 0.54541 2.49955 0.54541 3.89591C0.54541 4.425 0.654501 4.77409 0.883592 5.00319C1.0145 5.13955 1.17268 5.21046 1.34177 5.24864C1.49996 5.28683 1.66905 5.29228 1.83268 5.29228H10.1672C10.3363 5.29228 10.4945 5.28137 10.6472 5.24864C11.1054 5.13955 11.4545 4.81227 11.4545 3.89591C11.4545 2.49955 10.4345 2.49955 9.94905 2.49955Z" fill="currentColor"/>
<path d="M9.86707 6.00213H2.13252C1.79434 6.00213 1.53798 6.30213 1.59252 6.63486L2.05071 9.4385C2.20343 10.3767 2.61252 11.4567 4.42889 11.4567H7.48888C9.32706 11.4567 9.65434 10.5349 9.8507 9.50395L10.4016 6.65123C10.4671 6.31304 10.2107 6.00213 9.86707 6.00213ZM7.04706 9.76032C6.9707 9.84213 6.86706 9.88032 6.75797 9.88032C6.65434 9.88032 6.5507 9.84213 6.46888 9.76032L6.0107 9.29668L5.5307 9.77668C5.44888 9.8585 5.34525 9.89668 5.24161 9.89668C5.13252 9.89668 5.02888 9.8585 4.95252 9.77668C4.78889 9.6185 4.78889 9.36213 4.95252 9.1985L5.43252 8.7185L4.96888 8.26032C4.80525 8.09668 4.80525 7.84032 4.96888 7.68213C5.12707 7.5185 5.38343 7.5185 5.54706 7.68213L6.0107 8.14032L6.45252 7.6985C6.61616 7.53486 6.87252 7.53486 7.0307 7.6985C7.19434 7.85668 7.19434 8.11304 7.0307 8.27668L6.58888 8.7185L7.04706 9.18213C7.2107 9.34577 7.2107 9.60213 7.04706 9.76032Z" fill="currentColor"/>
</svg>
