<svg width="12" height="12" viewBox="0 0 12 12" fill="none" xmlns="http://www.w3.org/2000/svg">
<path d="M9.94905 2.49955H9.73087L7.88723 0.65591C7.73996 0.508638 7.49996 0.508638 7.34723 0.65591C7.19996 0.803183 7.19996 1.04318 7.34723 1.19591L8.65087 2.49955H3.34905L4.65268 1.19591C4.79996 1.04864 4.79996 0.808638 4.65268 0.65591C4.50541 0.508638 4.26541 0.508638 4.11268 0.65591L2.2745 2.49955H2.05632C1.56541 2.49955 0.54541 2.49955 0.54541 3.89591C0.54541 4.425 0.654501 4.77409 0.883592 5.00319C1.0145 5.13955 1.17268 5.21046 1.34177 5.24864C1.49996 5.28683 1.66905 5.29228 1.83268 5.29228H10.1672C10.3363 5.29228 10.4945 5.28137 10.6472 5.24864C11.1054 5.13955 11.4545 4.81227 11.4545 3.89591C11.4545 2.49955 10.4345 2.49955 9.94905 2.49955Z" fill="currentColor"/>
<path d="M9.84574 6.00213H2.11121C1.77303 6.00213 1.51667 6.30213 1.57121 6.63486L2.0294 9.4385C2.18212 10.3767 2.59121 11.4567 4.40758 11.4567H7.46756C9.30574 11.4567 9.63301 10.5349 9.82937 9.50395L10.3803 6.65123C10.4457 6.31304 10.1894 6.00213 9.84574 6.00213ZM5.2421 9.52032C5.2421 9.73304 5.07301 9.90213 4.86576 9.90213C4.65303 9.90213 4.48394 9.73304 4.48394 9.52032V7.72032C4.48394 7.51304 4.65303 7.3385 4.86576 7.3385C5.07301 7.3385 5.2421 7.51304 5.2421 7.72032V9.52032ZM7.57665 9.52032C7.57665 9.73304 7.40756 9.90213 7.19483 9.90213C6.98756 9.90213 6.81301 9.73304 6.81301 9.52032V7.72032C6.81301 7.51304 6.98756 7.3385 7.19483 7.3385C7.40756 7.3385 7.57665 7.51304 7.57665 7.72032V9.52032Z" fill="currentColor"/>
</svg>
