<svg width="12" height="12" viewBox="0 0 12 12" fill="none" xmlns="http://www.w3.org/2000/svg">
<path d="M10.6421 8.68056V10.027H1.35779V8.68056C1.35779 8.43371 1.56669 8.23174 1.82201 8.23174H10.1779C10.4332 8.23174 10.6421 8.43371 10.6421 8.68056Z" fill="currentColor"/>
<path d="M3.67887 5.08998H2.75044V8.23174H3.67887V5.08998Z" fill="currentColor"/>
<path d="M5.53574 5.08998H4.60731V8.23174H5.53574V5.08998Z" fill="currentColor"/>
<path d="M7.39261 5.08998H6.46417V8.23174H7.39261V5.08998Z" fill="currentColor"/>
<path d="M9.24947 5.08998H8.32104V8.23174H9.24947V5.08998Z" fill="currentColor"/>
<path d="M11.1063 10.3636H0.893573C0.703244 10.3636 0.54541 10.211 0.54541 10.027C0.54541 9.84301 0.703244 9.69041 0.893573 9.69041H11.1063C11.2967 9.69041 11.4545 9.84301 11.4545 10.027C11.4545 10.211 11.2967 10.3636 11.1063 10.3636Z" fill="currentColor"/>
<path d="M10.3497 2.7336L6.17172 1.11784C6.07887 1.08194 5.92104 1.08194 5.8282 1.11784L1.65025 2.7336C1.48777 2.79643 1.35779 2.98045 1.35779 3.151V4.64109C1.35779 4.88792 1.56669 5.08989 1.82201 5.08989H10.1779C10.4332 5.08989 10.6421 4.88792 10.6421 4.64109V3.151C10.6421 2.98045 10.5121 2.79643 10.3497 2.7336ZM5.99996 3.96786C5.61466 3.96786 5.30363 3.66715 5.30363 3.29463C5.30363 2.9221 5.61466 2.62139 5.99996 2.62139C6.38526 2.62139 6.69628 2.9221 6.69628 3.29463C6.69628 3.66715 6.38526 3.96786 5.99996 3.96786Z" fill="currentColor"/>
</svg>
