<svg width="12" height="12" viewBox="0 0 12 12" fill="none" xmlns="http://www.w3.org/2000/svg">
<path d="M8.72723 1.09091H3.27268C1.63632 1.09091 0.54541 1.90909 0.54541 3.81818V7.63637C0.54541 9.54546 1.63632 10.3636 3.27268 10.3636H8.72723C10.3636 10.3636 11.4545 9.54546 11.4545 7.63637V3.81818C11.4545 1.90909 10.3636 1.09091 8.72723 1.09091ZM3.13632 7.90909C3.13632 8.13273 2.95086 8.31818 2.72723 8.31818C2.50359 8.31818 2.31814 8.13273 2.31814 7.90909V3.54546C2.31814 3.32182 2.50359 3.13637 2.72723 3.13637C2.95086 3.13637 3.13632 3.32182 3.13632 3.54546V7.90909ZM4.77268 7.90909C4.77268 8.13273 4.58723 8.31818 4.36359 8.31818C4.13996 8.31818 3.9545 8.13273 3.9545 7.90909V7.36364C3.9545 7.14 4.13996 6.95455 4.36359 6.95455C4.58723 6.95455 4.77268 7.14 4.77268 7.36364V7.90909ZM4.77268 5.72727C4.77268 5.95091 4.58723 6.13637 4.36359 6.13637C4.13996 6.13637 3.9545 5.95091 3.9545 5.72727V3.54546C3.9545 3.32182 4.13996 3.13637 4.36359 3.13637C4.58723 3.13637 4.77268 3.32182 4.77268 3.54546V5.72727ZM6.40905 7.90909C6.40905 8.13273 6.22359 8.31818 5.99996 8.31818C5.77632 8.31818 5.59086 8.13273 5.59086 7.90909V3.54546C5.59086 3.32182 5.77632 3.13637 5.99996 3.13637C6.22359 3.13637 6.40905 3.32182 6.40905 3.54546V7.90909ZM8.04541 7.90909C8.04541 8.13273 7.85996 8.31818 7.63632 8.31818C7.41268 8.31818 7.22723 8.13273 7.22723 7.90909V5.72727C7.22723 5.50364 7.41268 5.31818 7.63632 5.31818C7.85996 5.31818 8.04541 5.50364 8.04541 5.72727V7.90909ZM8.04541 4.09091C8.04541 4.31455 7.85996 4.5 7.63632 4.5C7.41268 4.5 7.22723 4.31455 7.22723 4.09091V3.54546C7.22723 3.32182 7.41268 3.13637 7.63632 3.13637C7.85996 3.13637 8.04541 3.32182 8.04541 3.54546V4.09091ZM9.68177 7.90909C9.68177 8.13273 9.49632 8.31818 9.27268 8.31818C9.04905 8.31818 8.86359 8.13273 8.86359 7.90909V3.54546C8.86359 3.32182 9.04905 3.13637 9.27268 3.13637C9.49632 3.13637 9.68177 3.32182 9.68177 3.54546V7.90909Z" fill="currentColor"/>
</svg>
