<svg width="12" height="12" viewBox="0 0 12 12" fill="none" xmlns="http://www.w3.org/2000/svg">
<path d="M10.5922 4.47896C10.5159 4.4735 10.4177 4.46805 10.3086 4.46805C10.0959 4.46805 9.92679 4.63714 9.92679 4.84987V7.38625C9.92679 7.59897 10.0959 7.76806 10.3086 7.76806C10.4177 7.76806 10.5104 7.76261 10.6032 7.75715C11.4541 7.65897 11.4541 7.05897 11.4541 6.62261V5.60806C11.4541 5.1717 11.4541 4.57168 10.5922 4.47896Z" fill="currentColor"/>
<path d="M6.50723 2.18182H3.46359C1.22723 2.18182 0.54541 2.86364 0.54541 5.10003V7.12912C0.54541 9.36548 1.22723 10.0473 3.46359 10.0473H6.50723C8.74359 10.0473 9.42541 9.36548 9.42541 7.12912V5.10003C9.42541 2.86364 8.74359 2.18182 6.50723 2.18182ZM3.32723 7.30366C3.28359 7.48912 3.1145 7.61457 2.92905 7.61457C2.89632 7.61457 2.86359 7.60912 2.83086 7.60366C2.61268 7.54912 2.47632 7.32548 2.53086 7.1073C2.6945 6.45821 2.6945 5.77094 2.53086 5.12185C2.47632 4.90364 2.60723 4.68001 2.83086 4.62546C3.0545 4.57091 3.27268 4.70728 3.32723 4.92546C3.52359 5.70548 3.52359 6.52366 3.32723 7.30366ZM5.23632 7.30366C5.19268 7.48912 5.02359 7.61457 4.83814 7.61457C4.80541 7.61457 4.77268 7.60912 4.73996 7.60366C4.52177 7.54912 4.38541 7.32548 4.43996 7.1073C4.60359 6.45821 4.60359 5.77094 4.43996 5.12185C4.38541 4.90364 4.51632 4.68001 4.73996 4.62546C4.95814 4.57091 5.18177 4.70182 5.23632 4.92546C5.43268 5.70548 5.43268 6.52366 5.23632 7.30366Z" fill="currentColor"/>
</svg>
