<svg width="12" height="12" viewBox="0 0 12 12" fill="none" xmlns="http://www.w3.org/2000/svg">
<path d="M10.5922 4.47896C10.5159 4.4735 10.4177 4.46805 10.3086 4.46805C10.0959 4.46805 9.92679 4.63714 9.92679 4.84987V7.38625C9.92679 7.59897 10.0959 7.76806 10.3086 7.76806C10.4177 7.76806 10.5104 7.76261 10.6032 7.75715C11.4541 7.65897 11.4541 7.05897 11.4541 6.62261V5.60806C11.4541 5.1717 11.4541 4.57168 10.5922 4.47896Z" fill="currentColor"/>
<path d="M6.50723 2.18182H3.46359C1.22723 2.18182 0.54541 2.86364 0.54541 5.10003V7.12912C0.54541 9.36548 1.22723 10.0473 3.46359 10.0473H6.50723C8.74359 10.0473 9.42541 9.36548 9.42541 7.12912V5.10003C9.42541 2.86364 8.74359 2.18182 6.50723 2.18182ZM6.28905 7.03094C6.27814 7.05275 6.26177 7.07457 6.24541 7.09094L5.22541 8.28548C5.14359 8.37821 5.02905 8.4273 4.9145 8.4273C4.82177 8.4273 4.72359 8.39457 4.64723 8.32912C4.47814 8.18185 4.45632 7.92548 4.60359 7.75094L5.58541 6.60003C5.59086 6.58366 5.58541 6.5673 5.5745 6.55094C5.56359 6.52912 5.54177 6.51821 5.5145 6.51821H4.42905C4.10723 6.51821 3.82359 6.35457 3.65996 6.07639C3.50177 5.79821 3.50177 5.47094 3.65996 5.19275L4.59268 3.96001C4.72905 3.78001 4.98541 3.74182 5.16541 3.87819C5.34541 4.01455 5.38359 4.27091 5.24723 4.45091L4.34723 5.64548C4.36359 5.62366 4.36359 5.64548 4.3745 5.67275C4.38541 5.69457 4.40723 5.70548 4.4345 5.70548H5.53087C5.85268 5.70548 6.13632 5.86912 6.29996 6.1473C6.44723 6.42548 6.44723 6.75275 6.28905 7.03094Z" fill="currentColor"/>
</svg>
