<svg width="12" height="12" viewBox="0 0 12 12" fill="none" xmlns="http://www.w3.org/2000/svg">
<path d="M10.5922 4.49813C10.5159 4.49267 10.4177 4.48722 10.3086 4.48722C10.0959 4.48722 9.92679 4.65631 9.92679 4.86904V7.40542C9.92679 7.61814 10.0959 7.78724 10.3086 7.78724C10.4177 7.78724 10.5104 7.78178 10.6032 7.77633C11.4541 7.67814 11.4541 7.07814 11.4541 6.64178V5.62724C11.4541 5.19087 11.4541 4.59086 10.5922 4.49813Z" fill="currentColor"/>
<path d="M9.42508 5.11996V7.14905C9.42508 8.75814 8.11599 10.0672 6.5069 10.0672H4.50509C4.07418 10.0672 3.81237 9.59269 4.04146 9.23269L8.00145 2.97087C8.19781 2.65996 8.63963 2.63269 8.88508 2.91087C9.27781 3.3636 9.42508 4.06723 9.42508 5.11996Z" fill="currentColor"/>
<path d="M8.39996 0.608977C8.20905 0.488977 7.95814 0.543522 7.83814 0.734431L6.90541 2.21261C6.77996 2.20716 6.64905 2.2017 6.50723 2.2017H3.46359C1.22723 2.2017 0.54541 2.88352 0.54541 5.11991V7.149C0.54541 8.81264 0.927228 9.609 2.03996 9.909L1.29268 11.0981C1.17268 11.289 1.22723 11.5399 1.41814 11.6599C1.48359 11.7035 1.55996 11.7254 1.63632 11.7254C1.77268 11.7254 1.90359 11.6599 1.97996 11.5345L8.52541 1.17079C8.65086 0.979886 8.59087 0.728977 8.39996 0.608977Z" fill="currentColor"/>
</svg>
