<svg width="12" height="12" viewBox="0 0 12 12" fill="none" xmlns="http://www.w3.org/2000/svg">
<path d="M10.5923 4.47895C10.5159 4.47349 10.4177 4.46804 10.3087 4.46804C10.0959 4.46804 9.92684 4.63713 9.92684 4.84986V7.38624C9.92684 7.59896 10.0959 7.76806 10.3087 7.76806C10.4177 7.76806 10.5105 7.7626 10.6032 7.75715C11.4541 7.65897 11.4541 7.05897 11.4541 6.6226V5.60806C11.4541 5.17169 11.4541 4.57168 10.5923 4.47895Z" fill="currentColor"/>
<path d="M6.50727 2.18182H3.46364C1.22727 2.18182 0.545456 2.86363 0.545456 5.10002V7.12911C0.545456 9.36547 1.22727 10.0473 3.46364 10.0473H6.50727C8.74364 10.0473 9.42546 9.36547 9.42546 7.12911V5.10002C9.42546 2.86363 8.74364 2.18182 6.50727 2.18182ZM3.32727 7.30366C3.28364 7.48911 3.11455 7.61456 2.92909 7.61456C2.89636 7.61456 2.86364 7.60911 2.83091 7.60366C2.61273 7.54911 2.47636 7.32547 2.53091 7.10729C2.69455 6.4582 2.69455 5.77093 2.53091 5.12184C2.47636 4.90363 2.60727 4.68 2.83091 4.62545C3.05455 4.57091 3.27273 4.70727 3.32727 4.92545C3.52364 5.70547 3.52364 6.52366 3.32727 7.30366ZM5.23637 7.30366C5.19273 7.48911 5.02364 7.61456 4.83818 7.61456C4.80546 7.61456 4.77273 7.60911 4.74 7.60366C4.52182 7.54911 4.38546 7.32547 4.44 7.10729C4.60364 6.4582 4.60364 5.77093 4.44 5.12184C4.38546 4.90363 4.51636 4.68 4.74 4.62545C4.95818 4.57091 5.18182 4.70182 5.23637 4.92545C5.43273 5.70547 5.43273 6.52366 5.23637 7.30366ZM7.14546 7.30366C7.10182 7.48911 6.93273 7.61456 6.74727 7.61456C6.71455 7.61456 6.68182 7.60911 6.64909 7.60366C6.43091 7.54911 6.29455 7.32547 6.34909 7.10729C6.51273 6.4582 6.51273 5.77093 6.34909 5.12184C6.29455 4.90363 6.42546 4.68 6.64909 4.62545C6.86727 4.57091 7.09091 4.70182 7.14546 4.92545C7.34182 5.70547 7.34182 6.52366 7.14546 7.30366Z" fill="currentColor"/>
</svg>
