<svg width="12" height="12" viewBox="0 0 12 12" fill="none" xmlns="http://www.w3.org/2000/svg">
<path d="M9.54048 3.95727C9.68428 4.31523 10.0413 4.56818 10.4628 4.56818C11.0083 4.56818 11.4545 4.13863 11.4545 3.61363C11.4545 3.08863 11.0083 2.65909 10.4628 2.65909C10.0413 2.65909 9.68428 2.91204 9.54048 3.27C9.51569 3.26523 9.49585 3.25568 9.47106 3.25568H7.48759V2.89773C7.48759 2.50636 7.1504 2.18182 6.74379 2.18182H5.25618C4.84957 2.18182 4.51238 2.50636 4.51238 2.89773V3.25568H2.52891C2.50412 3.25568 2.48428 3.26523 2.45949 3.27C2.31569 2.91204 1.95866 2.65909 1.53718 2.65909C0.991722 2.65909 0.545441 3.08863 0.545441 3.61363C0.545441 4.13863 0.991722 4.56818 1.53718 4.56818C1.95866 4.56818 2.31569 4.31523 2.45949 3.95727C2.48428 3.96204 2.50412 3.97159 2.52891 3.97159H3.80329C2.78676 4.69704 2.15701 5.89977 2.15701 7.19318C2.15701 7.27432 2.16197 7.35068 2.17189 7.43182H2.03304C1.62147 7.43182 1.28924 7.75159 1.28924 8.14773V9.10227C1.28924 9.49841 1.62147 9.81818 2.03304 9.81818H3.02478C3.13387 9.81818 3.23304 9.79432 3.32726 9.75136C3.58511 9.64636 3.76858 9.39341 3.76858 9.10227V8.14773C3.76858 7.75159 3.43635 7.43182 3.02478 7.43182H2.91073C2.91073 7.4175 2.91569 7.40318 2.91569 7.38886C2.90577 7.32204 2.90577 7.26 2.90577 7.19318C2.90577 6.01432 3.53552 4.93568 4.5223 4.37727C4.54214 4.74477 4.86445 5.04545 5.25618 5.04545H6.74379C7.13552 5.04545 7.45784 4.74477 7.48263 4.37727C8.46941 4.93568 9.09916 6.01909 9.09916 7.19318C9.09916 7.26 9.0942 7.32204 9.08924 7.38886C9.08924 7.40318 9.0942 7.4175 9.0942 7.43182H8.97519C8.56362 7.43182 8.23139 7.75159 8.23139 8.14773V9.10227C8.23139 9.39341 8.41486 9.64636 8.67271 9.75136C8.76693 9.79432 8.8661 9.81818 8.97519 9.81818H9.96693C10.3785 9.81818 10.7107 9.49841 10.7107 9.10227V8.14773C10.7107 7.75159 10.3785 7.43182 9.96693 7.43182H9.82808C9.838 7.35068 9.84296 7.27432 9.84296 7.19318C9.84296 5.89977 9.21321 4.69704 8.19668 3.97159H9.47106C9.49585 3.97159 9.51569 3.96204 9.54048 3.95727Z" fill="currentColor"/>
</svg>
