<svg width="12" height="12" viewBox="0 0 12 12" fill="none" xmlns="http://www.w3.org/2000/svg">
<path d="M11.074 1.83688H0.92599C0.717957 1.83688 0.545441 1.66779 0.545441 1.4639C0.545441 1.26 0.717957 1.09091 0.92599 1.09091H11.074C11.282 1.09091 11.4545 1.26 11.4545 1.4639C11.4545 1.66779 11.282 1.83688 11.074 1.83688Z" fill="currentColor"/>
<path d="M1.77331 1.4639V7.41672C1.77331 7.90409 2.00671 8.36659 2.40756 8.66L5.0511 10.5995C5.61431 11.0123 6.39063 11.0123 6.95385 10.5995L9.5974 8.66C9.99824 8.36659 10.2316 7.90409 10.2316 7.41672V1.4639H1.77331ZM8.02953 7.05866H3.97035C3.76231 7.05866 3.5898 6.88957 3.5898 6.68567C3.5898 6.48177 3.76231 6.31269 3.97035 6.31269H8.02953C8.23757 6.31269 8.41008 6.48177 8.41008 6.68567C8.41008 6.88957 8.23757 7.05866 8.02953 7.05866ZM8.02953 4.5721H3.97035C3.76231 4.5721 3.5898 4.40301 3.5898 4.19911C3.5898 3.99521 3.76231 3.82613 3.97035 3.82613H8.02953C8.23757 3.82613 8.41008 3.99521 8.41008 4.19911C8.41008 4.40301 8.23757 4.5721 8.02953 4.5721Z" fill="currentColor"/>
</svg>
