<svg width="12" height="12" viewBox="0 0 12 12" fill="none" xmlns="http://www.w3.org/2000/svg">
<path d="M8.93453 5.10085C8.93453 4.98085 8.80362 4.82813 8.6618 4.82813H7.36362V5.37358H8.6618C8.80908 5.37358 8.93453 5.25358 8.93453 5.10085Z" fill="currentColor"/>
<path d="M8.9018 6.19176H7.36362V6.73722H8.9018C9.10362 6.73722 9.27271 6.61176 9.27271 6.46449C9.27271 6.31722 9.10362 6.19176 8.9018 6.19176Z" fill="currentColor"/>
<path d="M9.1909 1.09091H2.80908C1.55999 1.09091 0.545441 2.1 0.545441 3.34909V8.21453C0.545441 9.46362 1.55999 10.4727 2.80908 10.4727H9.1909C10.44 10.4727 11.4545 9.46362 11.4545 8.21453V3.34909C11.4545 2.1 10.44 1.09091 9.1909 1.09091ZM4.49999 6.19089H2.31817C2.09453 6.19089 1.90908 6.00544 1.90908 5.7818C1.90908 5.55816 2.09453 5.37271 2.31817 5.37271H4.49999C4.72362 5.37271 4.90908 5.55816 4.90908 5.7818C4.90908 6.00544 4.72362 6.19089 4.49999 6.19089ZM8.9018 7.55453H8.32362V7.82725C8.32362 8.05089 8.13817 8.23634 7.91453 8.23634C7.6909 8.23634 7.50544 8.05089 7.50544 7.82725V7.55453H6.40908C6.18544 7.55453 5.99999 7.36907 5.99999 7.14544C5.99999 6.9218 6.18544 6.73634 6.40908 6.73634H6.54544V4.82725H6.40908C6.18544 4.82725 5.99999 4.64182 5.99999 4.41818C5.99999 4.19455 6.18544 4.00909 6.40908 4.00909H7.50544V3.73637C7.50544 3.51273 7.6909 3.32728 7.91453 3.32728C8.13817 3.32728 8.32362 3.51273 8.32362 3.73637V4.00909H8.65635C9.23999 4.00909 9.74726 4.51637 9.74726 5.09998C9.74726 5.27998 9.69817 5.44907 9.6218 5.6018C9.90544 5.80362 10.0909 6.11453 10.0909 6.46362C10.0909 7.06362 9.55635 7.55453 8.9018 7.55453Z" fill="currentColor"/>
</svg>
