<svg width="12" height="12" viewBox="0 0 12 12" fill="none" xmlns="http://www.w3.org/2000/svg">
<path d="M11.3535 5.75011C11.2189 5.6158 10.996 5.6158 10.8614 5.75011L10.6478 5.96316V5.72696C10.6478 3.17041 8.56299 1.09091 5.99995 1.09091C4.58377 1.09091 3.26046 1.72541 2.37361 2.82769C2.25289 2.97589 2.2761 3.1982 2.42933 3.31862C2.57791 3.4344 2.79614 3.41124 2.91686 3.26304C3.6737 2.32286 4.79735 1.78562 5.99995 1.78562C8.1776 1.78562 9.9513 3.55482 9.9513 5.72696V5.95853L9.73771 5.74548C9.60306 5.61117 9.38019 5.61117 9.24554 5.74548C9.11088 5.87979 9.11088 6.1021 9.24554 6.23641L10.0535 7.04227C10.086 7.07469 10.1231 7.09785 10.1649 7.11638C10.2067 7.1349 10.2531 7.14417 10.2995 7.14417C10.346 7.14417 10.3878 7.1349 10.4342 7.11638C10.476 7.09785 10.5131 7.07469 10.5456 7.04227L11.3535 6.23641C11.4882 6.10673 11.4882 5.88442 11.3535 5.75011Z" fill="currentColor"/>
<path d="M9.57065 8.13593C9.42207 8.01552 9.1992 8.03867 9.08312 8.19151C8.32628 9.13169 7.20263 9.66893 6.00004 9.66893C3.82237 9.66893 2.04867 7.89973 2.04867 5.7276V5.49603L2.26226 5.70908C2.3319 5.77855 2.42013 5.81097 2.50835 5.81097C2.59657 5.81097 2.68479 5.77392 2.74979 5.70445C2.88444 5.57014 2.88444 5.34783 2.74979 5.21352L1.94652 4.40765C1.91402 4.37986 1.87223 4.35207 1.83044 4.33355C1.74686 4.2965 1.64936 4.2965 1.56578 4.33355C1.52399 4.35207 1.48684 4.37986 1.45434 4.40765L0.64643 5.21352C0.511778 5.34783 0.511778 5.57014 0.64643 5.70445C0.781082 5.83876 1.00395 5.83876 1.13861 5.70445L1.35219 5.4914V5.7276C1.35219 8.28414 3.43698 10.3636 6.00004 10.3636C7.41621 10.3636 8.73952 9.72914 9.62637 8.62686C9.74709 8.47866 9.72388 8.25635 9.57065 8.13593Z" fill="currentColor"/>
<path d="M7.60217 5.56101C7.72754 5.37576 7.79719 5.15808 7.79719 4.91725C7.79719 4.30127 7.25394 3.7594 6.63639 3.7594H6.25565V3.29626C6.25565 3.10637 6.09778 2.9489 5.90741 2.9489C5.71704 2.9489 5.55917 3.10637 5.55917 3.29626V3.7594H4.60732C4.41695 3.7594 4.25908 3.91686 4.25908 4.10675V7.34873C4.25908 7.53862 4.41695 7.69609 4.60732 7.69609H5.55917V8.15923C5.55917 8.34912 5.71704 8.50659 5.90741 8.50659C6.09778 8.50659 6.25565 8.34912 6.25565 8.15923V7.69609H6.92891C7.63468 7.69609 8.20579 7.17737 8.20579 6.53824C8.20579 6.12604 7.96434 5.76479 7.60217 5.56101ZM4.95556 4.45411H6.63639C6.89177 4.45411 7.10071 4.70883 7.10071 4.91725C7.10071 5.17197 6.89177 5.38039 6.63639 5.38039H4.95556V4.45411ZM6.92891 7.00138H4.95556V6.0751H6.92891C7.24929 6.0751 7.50931 6.28351 7.50931 6.53824C7.50931 6.79297 7.24929 7.00138 6.92891 7.00138Z" fill="currentColor"/>
</svg>
