<svg width="12" height="12" viewBox="0 0 12 12" fill="none" xmlns="http://www.w3.org/2000/svg">
<path d="M11.1108 7.50874C10.9204 7.50874 10.7625 7.66658 10.7625 7.85691C10.7625 9.23099 9.8058 10.3822 8.51941 10.6839L8.6448 10.4751C8.74232 10.308 8.69124 10.0944 8.52405 9.9969C8.36151 9.89942 8.14324 9.95048 8.04572 10.1176L7.5581 10.93C7.49308 11.0368 7.49308 11.1714 7.55345 11.2781C7.61383 11.3896 7.72993 11.4545 7.85532 11.4545C9.83831 11.4545 11.4544 9.83907 11.4544 7.85691C11.4591 7.66658 11.3012 7.50874 11.1108 7.50874Z" fill="currentColor"/>
<path d="M4.14456 0.545456C2.16156 0.545456 0.545441 2.16093 0.545441 4.14314C0.545441 4.33347 0.703337 4.49131 0.893742 4.49131C1.08415 4.49131 1.24204 4.33347 1.24204 4.14314C1.24204 2.76906 2.19871 1.6178 3.48511 1.31606L3.35972 1.52496C3.26219 1.69207 3.31328 1.90561 3.48046 2.0031C3.643 2.10058 3.86127 2.04952 3.9588 1.8824L4.44642 1.07002C4.50679 0.963252 4.51143 0.833271 4.44642 0.721859C4.38605 0.615089 4.26995 0.545456 4.14456 0.545456Z" fill="currentColor"/>
<path d="M10.4141 4.46868C10.4141 5.89847 9.37382 7.07758 8.01312 7.29576C8.01312 7.29112 8.01312 7.29112 8.01312 7.28648C7.87844 5.55494 6.47595 4.14372 4.72052 4.00446C4.93879 2.6443 6.11836 1.60445 7.54872 1.60445C9.13233 1.60445 10.4141 2.88569 10.4141 4.46868Z" fill="currentColor"/>
<path d="M7.31642 7.3368C7.20961 5.93022 6.08576 4.80683 4.67862 4.70006C4.60431 4.69542 4.53465 4.69078 4.45571 4.69078C2.8721 4.69078 1.59035 5.972 1.59035 7.55962C1.59035 9.1426 2.8721 10.4238 4.45571 10.4238C6.03932 10.4238 7.32571 9.1426 7.32571 7.55962C7.32571 7.4807 7.32107 7.41107 7.31642 7.3368ZM4.99441 8.95227H4.68791V9.12868C4.68791 9.31901 4.53001 9.47684 4.33961 9.47684C4.1492 9.47684 3.9913 9.31901 3.9913 9.12868V8.95227H3.50368C3.31328 8.95227 3.15538 8.79444 3.15538 8.60411V6.51513C3.15538 6.3248 3.31328 6.16697 3.50368 6.16697H3.9913V5.99057C3.9913 5.80024 4.1492 5.6424 4.33961 5.6424C4.53001 5.6424 4.68791 5.80024 4.68791 5.99057V6.16697H4.80865C5.27305 6.16697 5.68173 6.57548 5.68173 7.0397C5.68173 7.17432 5.64922 7.29966 5.59349 7.41571C5.80712 7.57355 5.94179 7.81494 5.94179 8.08419C5.94179 8.56233 5.51919 8.95227 4.99441 8.95227Z" fill="currentColor"/>
<path d="M4.95703 6.97643C4.95702 6.89855 4.87318 6.77916 4.76963 6.77917L3.75392 6.77931L3.75397 7.16867L4.76969 7.16854C4.87323 7.17371 4.95704 7.08545 4.95703 6.97643Z" fill="currentColor"/>
<path d="M5.06509 7.94791L3.75408 7.94808L3.75413 8.33766L5.07047 8.33749C5.24099 8.33747 5.35822 8.23356 5.35821 8.14006C5.3582 8.04656 5.23561 7.94789 5.06509 7.94791Z" fill="currentColor"/>
</svg>
