<svg width="12" height="12" viewBox="0 0 12 12" fill="none" xmlns="http://www.w3.org/2000/svg">
<path d="M8.14365 3.85636C7.8982 1.98546 6.30002 0.545456 4.36365 0.545456C2.25274 0.545456 0.545471 2.25273 0.545471 4.36364C0.545471 6.3 1.98547 7.89818 3.85638 8.14364C4.02002 8.17091 4.18911 8.18182 4.36365 8.18182C4.42713 8.18182 4.48978 8.18018 4.55194 8.17691C4.67214 8.17053 4.7215 8.02691 4.63638 7.94182C4.4782 7.77818 4.4782 7.52182 4.63638 7.36364C4.79456 7.2 5.05638 7.2 5.21456 7.36364L5.63974 7.78882C5.71616 7.86524 5.83087 7.89017 5.9296 7.8462C6.13824 7.75337 6.33558 7.64198 6.52169 7.51326C6.65489 7.42107 6.66334 7.23169 6.54814 7.1178L6.27274 6.84546C6.11456 6.68727 6.10911 6.43091 6.27274 6.26727C6.43093 6.10909 6.68729 6.10364 6.85093 6.26182L7.12834 6.53613C7.24278 6.64931 7.43069 6.63971 7.52233 6.50738C7.64822 6.32558 7.75774 6.1326 7.84774 5.92855C7.89105 5.83037 7.8658 5.71669 7.78993 5.64082L7.36365 5.21455C7.20547 5.05091 7.20547 4.79455 7.36365 4.63636C7.52183 4.47273 7.78365 4.47273 7.94183 4.63636C8.02693 4.72148 8.17054 4.67213 8.17693 4.55192C8.1802 4.48977 8.18184 4.42711 8.18184 4.36364C8.18184 4.18909 8.17093 4.02 8.14365 3.85636Z" fill="currentColor"/>
<path d="M11.4541 7.63587C11.4541 9.74678 9.7468 11.4541 7.63589 11.4541C6.0376 11.4541 4.66626 10.4722 4.10219 9.07195C4.03389 8.90237 4.18035 8.72678 4.36315 8.72678C4.55406 8.72678 4.73405 8.71587 4.91951 8.6886L5.19498 8.65184C5.2792 8.6406 5.36385 8.66929 5.42391 8.72935L5.71043 9.01587C5.79225 9.09769 5.89589 9.13587 5.99953 9.13587C6.10862 9.13587 6.21225 9.09769 6.28862 9.01587C6.45225 8.85769 6.45225 8.59587 6.28862 8.43769C6.23603 8.38511 6.25256 8.29604 6.31905 8.26287C6.53669 8.15444 6.75967 8.01617 6.9604 7.86704C7.07374 7.78282 7.23285 7.78822 7.33333 7.88744L7.59771 8.1486C7.67953 8.22497 7.78316 8.2686 7.8868 8.2686C7.99044 8.2686 8.09953 8.22497 8.17589 8.14315C8.33407 7.98497 8.33407 7.72315 8.17043 7.56497L7.90965 7.30746C7.80994 7.209 7.80171 7.05142 7.88423 6.93824C8.02791 6.74117 8.16285 6.52675 8.27014 6.3168C8.30244 6.25358 8.38747 6.23837 8.43771 6.2886C8.51953 6.37042 8.62316 6.4086 8.7268 6.4086C8.83589 6.4086 8.93953 6.37042 9.01589 6.2886C9.17953 6.13042 9.17953 5.8686 9.01589 5.71042L8.72936 5.42389C8.66931 5.36384 8.64062 5.27918 8.65185 5.19497L8.68862 4.91951C8.71589 4.73403 8.7268 4.55403 8.7268 4.36312C8.7268 4.18042 8.90238 4.0341 9.0718 4.10256C10.4681 4.66687 11.4541 6.03796 11.4541 7.63587Z" fill="currentColor"/>
</svg>
