<svg width="12" height="12" viewBox="0 0 12 12" fill="none" xmlns="http://www.w3.org/2000/svg">
<path d="M11.4546 6C11.4546 7.80545 9.98729 9.27273 8.18184 9.27273C7.77574 9.27273 7.38509 9.19871 7.02607 9.06224C6.85223 8.99613 6.81984 8.77369 6.94082 8.63247C7.56373 7.90571 7.90911 6.97418 7.90911 6C7.90911 5.02265 7.56067 4.08781 6.94251 3.368C6.82103 3.2266 6.85322 3.00339 7.02749 2.93724C7.38607 2.80111 7.77629 2.72727 8.18184 2.72727C9.98729 2.72727 11.4546 4.19454 11.4546 6Z" fill="currentColor"/>
<path d="M7.09093 6C7.09093 6.96545 6.67093 7.83818 6.00002 8.43273C5.42183 8.95636 4.6582 9.27273 3.8182 9.27273C2.01274 9.27273 0.545471 7.80545 0.545471 6C0.545471 4.19454 2.01274 2.72727 3.8182 2.72727C4.6582 2.72727 5.42183 3.04364 6.00002 3.56727C6.67093 4.16182 7.09093 5.03454 7.09093 6Z" fill="currentColor"/>
</svg>
