<svg width="12" height="12" viewBox="0 0 12 12" fill="none" xmlns="http://www.w3.org/2000/svg">
<path d="M6.49112 8.36192L7.40203 7.60374L6.49112 6.76919V8.36192Z" fill="currentColor"/>
<path d="M6.49112 5.23194L7.40203 4.39739L6.49112 3.63921V5.23194Z" fill="currentColor"/>
<path d="M7.63635 0.545456H4.36363C2.72726 0.545456 1.63635 1.63637 1.63635 3.27273V8.72727C1.63635 10.3636 2.72726 11.4545 4.36363 11.4545H7.63635C9.27272 11.4545 10.3636 10.3636 10.3636 8.72727V3.27273C10.3636 1.63637 9.27272 0.545456 7.63635 0.545456ZM8.02908 7.06364C8.18726 7.21091 8.27453 7.41273 8.26908 7.62C8.26363 7.82727 8.16544 8.02909 8.00181 8.16546L6.87272 9.10909C6.66544 9.28364 6.47453 9.33273 6.32726 9.33273C6.20726 9.33273 6.11453 9.3 6.05999 9.27818C5.93999 9.22364 5.66726 9.04364 5.66726 8.54727V7.09091L4.41272 8.24182C4.24908 8.39455 3.98726 8.38364 3.83453 8.21455C3.68181 8.04546 3.69272 7.78909 3.86181 7.63637L5.6509 6L3.86181 4.35818C3.69817 4.20546 3.68726 3.94909 3.83999 3.78C3.99272 3.61636 4.25453 3.6 4.41817 3.75273L5.67272 4.90909V3.45273C5.67272 2.96182 5.94544 2.78182 6.06544 2.72182C6.17999 2.66727 6.49635 2.56909 6.87817 2.88546L8.00181 3.82364C8.16544 3.96 8.26363 4.16182 8.26908 4.36909C8.27453 4.57637 8.18726 4.78364 8.02908 4.92546L6.86181 6L8.02908 7.06364Z" fill="currentColor"/>
</svg>
