<svg width="12" height="12" viewBox="0 0 12 12" fill="none" xmlns="http://www.w3.org/2000/svg">
<path d="M6.49115 5.23194L7.40206 4.39739L6.49115 3.63921V5.23194Z" fill="currentColor"/>
<path d="M6.49115 8.36192L7.40206 7.60374L6.49115 6.76919V8.36192Z" fill="currentColor"/>
<path d="M6.00002 0.545456C2.98911 0.545456 0.545471 2.98909 0.545471 6C0.545471 9.01091 2.98911 11.4545 6.00002 11.4545C9.01093 11.4545 11.4546 9.01091 11.4546 6C11.4546 2.98909 9.01093 0.545456 6.00002 0.545456ZM8.02911 7.06364C8.18729 7.21091 8.27456 7.41273 8.26911 7.62C8.26365 7.82727 8.16547 8.02909 8.00183 8.16546L6.87274 9.10909C6.66547 9.28364 6.47456 9.33273 6.32729 9.33273C6.20729 9.33273 6.11456 9.3 6.06002 9.27818C5.94002 9.22364 5.66729 9.04364 5.66729 8.54727V7.09091L4.41274 8.24182C4.24911 8.39455 3.98729 8.38364 3.83456 8.21455C3.68183 8.04546 3.69274 7.78909 3.86184 7.63637L5.65093 6L3.86184 4.35818C3.6982 4.20546 3.68729 3.94909 3.84002 3.78C3.99274 3.61636 4.25456 3.6 4.4182 3.75273L5.67274 4.90909V3.45273C5.67274 2.96182 5.94547 2.78182 6.06547 2.72182C6.18002 2.66727 6.49638 2.57455 6.8782 2.88546L8.00183 3.82364C8.16547 3.96 8.26365 4.16182 8.26911 4.36909C8.27456 4.57637 8.18729 4.78364 8.02911 4.92546L6.86184 6L8.02911 7.06364Z" fill="currentColor"/>
</svg>
