<svg width="12" height="12" viewBox="0 0 12 12" fill="none" xmlns="http://www.w3.org/2000/svg">
<path d="M6.50713 5.25851L7.77803 4.09671L6.50713 3.07671V5.25851Z" fill="currentColor"/>
<path d="M8.28547 0.545456H3.71456C1.72911 0.545456 0.545471 1.72909 0.545471 3.71455V8.28C0.545471 10.2709 1.72911 11.4545 3.71456 11.4545H8.28002C10.2655 11.4545 11.4491 10.2709 11.4491 8.28546V3.71455C11.4546 1.72909 10.2709 0.545456 8.28547 0.545456ZM8.32911 7.30364C8.4982 7.46182 8.59638 7.68 8.59093 7.90364C8.58547 8.12727 8.48183 8.34 8.30183 8.49273L6.98183 9.59455C6.75274 9.78546 6.54547 9.84 6.38729 9.84C6.26184 9.84 6.16365 9.80727 6.10911 9.78C5.98365 9.72 5.68911 9.52364 5.68911 8.98909V7.12364L4.09638 8.58546C3.93274 8.73818 3.67093 8.72727 3.5182 8.55818C3.36547 8.38909 3.37638 8.13273 3.54547 7.98L5.68911 6.01637V5.97273L3.54002 4.02546C3.37638 3.87273 3.36547 3.61091 3.5182 3.44727C3.67093 3.28364 3.93274 3.26727 4.09638 3.42L5.68911 4.88182V3.01637C5.68911 2.48182 5.98365 2.28546 6.10911 2.22546C6.23456 2.16546 6.57274 2.06727 6.98183 2.41091L8.30183 3.51273C8.48183 3.66 8.58547 3.87818 8.59093 4.10182C8.59638 4.32546 8.50365 4.54364 8.32911 4.70182L6.91093 6L8.32911 7.30364Z" fill="currentColor"/>
<path d="M8.28547 0.545456H3.71456C1.72911 0.545456 0.545471 1.72909 0.545471 3.71455V8.28C0.545471 10.2709 1.72911 11.4545 3.71456 11.4545H8.28002C10.2655 11.4545 11.4491 10.2709 11.4491 8.28546V3.71455C11.4546 1.72909 10.2709 0.545456 8.28547 0.545456ZM8.32911 7.30364C8.4982 7.46182 8.59638 7.68 8.59093 7.90364C8.58547 8.12727 8.48183 8.34 8.30183 8.49273L6.98183 9.59455C6.75274 9.78546 6.54547 9.84 6.38729 9.84C6.26184 9.84 6.16365 9.80727 6.10911 9.78C5.98365 9.72 5.68911 9.52364 5.68911 8.98909V7.12364L4.09638 8.58546C3.93274 8.73818 3.67093 8.72727 3.5182 8.55818C3.36547 8.38909 3.37638 8.13273 3.54547 7.98L5.68911 6.01637V5.97273L3.54002 4.02546C3.37638 3.87273 3.36547 3.61091 3.5182 3.44727C3.67093 3.28364 3.93274 3.26727 4.09638 3.42L5.68911 4.88182V3.01637C5.68911 2.48182 5.98365 2.28546 6.10911 2.22546C6.23456 2.16546 6.57274 2.06727 6.98183 2.41091L8.30183 3.51273C8.48183 3.66 8.58547 3.87818 8.59093 4.10182C8.59638 4.32546 8.50365 4.54364 8.32911 4.70182L6.91093 6L8.32911 7.30364Z" fill="currentColor"/>
<path d="M6.50713 8.92408L7.77803 7.86044L6.50713 6.70954V8.92408Z" fill="currentColor"/>
</svg>
