<svg width="12" height="12" viewBox="0 0 12 12" fill="none" xmlns="http://www.w3.org/2000/svg">
<path d="M6.16409 8.90226L7.42409 7.84954L6.16409 6.70954V8.90226Z" fill="currentColor"/>
<path d="M6.16409 3.09801V5.25802L7.42409 4.10165L6.16409 3.09801Z" fill="currentColor"/>
<path d="M8.28547 0.545456H3.71456C1.72911 0.545456 0.545471 1.72909 0.545471 3.71455V8.28C0.545471 10.2709 1.72911 11.4545 3.71456 11.4545H8.28002C10.2655 11.4545 11.4491 10.2709 11.4491 8.28546V3.71455C11.4546 1.72909 10.2709 0.545456 8.28547 0.545456ZM2.3182 6C2.3182 5.58546 2.65638 5.24727 3.07093 5.24727C3.48547 5.24727 3.8182 5.58546 3.8182 6C3.8182 6.41455 3.48002 6.75273 3.06547 6.75273C2.65093 6.75273 2.3182 6.41455 2.3182 6ZM7.94729 8.47637L6.63274 9.57273C6.40911 9.76364 6.20184 9.81818 6.04365 9.81818C5.9182 9.81818 5.82002 9.78546 5.76547 9.75818C5.64002 9.69818 5.34547 9.50727 5.34547 8.97273V7.12364L3.76365 8.56909C3.60002 8.72182 3.3382 8.71091 3.18547 8.54182C3.03274 8.37273 3.04365 8.11637 3.21274 7.96364L5.34547 6.01091V5.96727L3.21274 4.03637C3.04365 3.88364 3.03274 3.62727 3.18547 3.45818C3.3382 3.29455 3.60002 3.27818 3.76365 3.43091L5.34547 4.87636V3.03273C5.34547 2.49818 5.64002 2.30182 5.76547 2.24727C5.89093 2.18727 6.22911 2.08909 6.6382 2.43273L7.95274 3.52909C8.13274 3.67636 8.23638 3.88909 8.24184 4.11273C8.24729 4.33637 8.15456 4.55455 7.98547 4.71273L6.56729 6L7.98002 7.29273C8.14911 7.45091 8.24729 7.66909 8.24184 7.89273C8.23093 8.11637 8.12729 8.32909 7.94729 8.47637ZM8.93456 6.75273C8.52002 6.75273 8.18184 6.41455 8.18184 6C8.18184 5.58546 8.52002 5.24727 8.93456 5.24727C9.34911 5.24727 9.68729 5.58546 9.68729 6C9.68729 6.41455 9.34365 6.75273 8.93456 6.75273Z" fill="currentColor"/>
</svg>
