<svg width="12" height="12" viewBox="0 0 12 12" fill="none" xmlns="http://www.w3.org/2000/svg">
<path d="M6.81986 3.3926L8.18741 2.75718C8.35418 2.67841 8.39865 2.4736 8.27079 2.34757C7.77603 1.83293 7.27571 1.40232 6.87545 1.07673C6.692 0.929691 6.41961 1.05047 6.41961 1.27628V3.15629C6.41961 3.35059 6.63641 3.47662 6.81986 3.3926Z" fill="currentColor"/>
<path d="M6.41961 9.86591V10.7324C6.41961 10.8899 6.5697 11.0212 6.73647 10.995C8.25411 10.7586 9.5216 9.79764 10.122 8.50579C10.2276 8.28523 9.97188 8.06468 9.7384 8.1697L6.57526 9.63485C6.48076 9.67686 6.41961 9.76613 6.41961 9.86591Z" fill="currentColor"/>
<path d="M5.58602 1.26578C5.58602 1.03997 5.31362 0.91919 5.13017 1.06098C3.81819 2.10076 1.48892 4.29059 1.50004 6.80077C1.50004 8.91183 3.13442 10.6605 5.26915 10.9966C5.43592 11.0229 5.58602 10.8916 5.58602 10.7341V1.26578Z" fill="currentColor"/>
<path d="M6.8033 6.04971L9.74407 4.8839C9.89417 4.82089 9.96644 4.6581 9.89417 4.52156C9.68848 4.13821 9.44944 3.76536 9.18816 3.41877C9.11033 3.31374 8.9658 3.28223 8.8435 3.33474L6.56981 4.37977C6.47531 4.42178 6.41416 4.51631 6.41416 4.61609V5.80815C6.41972 5.99195 6.61985 6.12323 6.8033 6.04971Z" fill="currentColor"/>
<path d="M10.3555 7.0156C10.4444 6.97359 10.5 6.89482 10.5 6.80555C10.5 6.46946 10.4555 6.13862 10.3777 5.81303C10.3388 5.65549 10.1553 5.57147 9.99968 5.63449L6.58638 7.01035C6.48631 7.05236 6.41961 7.14689 6.41961 7.25192V8.40723C6.41961 8.60153 6.63641 8.72756 6.81986 8.64354L10.0997 7.13639L10.3555 7.0156Z" fill="currentColor"/>
</svg>
