<svg width="12" height="12" viewBox="0 0 12 12" fill="none" xmlns="http://www.w3.org/2000/svg">
<path d="M8.72723 2.16V6.04364C8.72723 7.12909 7.95814 7.54909 7.0145 6.98182L6.2945 6.54546C6.13086 6.44727 5.86905 6.44727 5.70541 6.54546L4.98541 6.98182C4.04177 7.54909 3.27268 7.12909 3.27268 6.04364V2.17636C3.27814 1.09091 3.82359 0.545456 4.90905 0.545456H7.09087C8.17087 0.545456 8.71632 1.08546 8.72723 2.16Z" fill="currentColor"/>
<path d="M11.4545 5.94589V7.59862C11.4545 10.3532 10.3636 11.455 7.63632 11.455H4.36359C1.63632 11.455 0.54541 10.3532 0.54541 7.59862V5.94589C0.54541 4.47864 0.856319 3.48046 1.5545 2.86955C1.90905 2.56955 2.4545 2.83137 2.4545 3.295V6.04408C2.4545 6.8568 2.78723 7.51135 3.36541 7.83862C3.94905 8.17135 4.69087 8.11135 5.41086 7.68044L5.99996 7.32589L6.5945 7.68044C6.99814 7.92589 7.41814 8.05135 7.81086 8.05135C8.10541 8.05135 8.38359 7.98044 8.6345 7.83862C9.21268 7.51135 9.54541 6.8568 9.54541 6.04408V3.28955C9.54541 2.82591 10.0963 2.56409 10.4454 2.86955C11.1436 3.48046 11.4545 4.47864 11.4545 5.94589Z" fill="currentColor"/>
</svg>
