<svg width="12" height="12" viewBox="0 0 12 12" fill="none" xmlns="http://www.w3.org/2000/svg">
<path d="M11.4546 3.71445V8.28535C11.4546 10.0363 10.0364 11.4544 8.28547 11.4544H3.71456C1.96365 11.4544 0.545471 10.0363 0.545471 8.28535V3.71445C0.545471 2.35627 1.10183 1.369 2.08911 0.889C2.44911 0.714455 2.86365 0.987182 2.86365 1.38536V6.22898C2.86365 6.87807 3.11456 7.39626 3.56729 7.65807C4.02547 7.91444 4.60365 7.85989 5.19274 7.50535L5.90183 7.07989C5.94547 7.05807 6.05456 7.05807 6.08729 7.07444L6.80729 7.50535C7.20002 7.73989 7.5382 7.81626 7.81093 7.81626C8.09456 7.81626 8.31274 7.72898 8.44365 7.65262C8.88547 7.39626 9.13638 6.87807 9.13638 6.22898V1.38536C9.13638 0.987182 9.55638 0.714455 9.91093 0.889C10.8982 1.369 11.4546 2.35627 11.4546 3.71445Z" fill="currentColor"/>
<path d="M7.77274 0.545456C8.07274 0.545456 8.3182 0.79091 8.3182 1.09091V6.22909C8.3182 6.57818 8.21456 6.84 8.03456 6.94364C7.84911 7.05273 7.55456 6.99818 7.22729 6.80182L6.50729 6.37091C6.22911 6.20182 5.77093 6.20182 5.49274 6.37091L4.77274 6.80182C4.44547 6.99818 4.15093 7.04727 3.96547 6.94364C3.78547 6.84 3.68183 6.57818 3.68183 6.22909V1.09091C3.68183 0.79091 3.92729 0.545456 4.22729 0.545456H7.77274Z" fill="currentColor"/>
</svg>
