<svg width="12" height="12" viewBox="0 0 12 12" fill="none" xmlns="http://www.w3.org/2000/svg">
<path d="M11.461 2.27455V8.76001C11.461 9.2891 11.03 9.77455 10.501 9.84001L10.3319 9.86183C9.43732 9.98183 8.17732 10.3527 7.16277 10.7782C6.80823 10.9255 6.4155 10.6582 6.4155 10.2709V2.68364C6.4155 2.48182 6.53005 2.29637 6.71005 2.19818C7.70823 1.65818 9.21914 1.17818 10.2446 1.09091H10.2773C10.9319 1.09091 11.461 1.62 11.461 2.27455Z" fill="currentColor"/>
<path d="M5.30185 2.19818C4.30365 1.65818 2.79274 1.17818 1.76729 1.09091H1.72911C1.07456 1.09091 0.545471 1.62 0.545471 2.27455V8.76001C0.545471 9.2891 0.97638 9.77455 1.50547 9.84001L1.67456 9.86183C2.56911 9.98183 3.82911 10.3527 4.84365 10.7782C5.19821 10.9255 5.59094 10.6582 5.59094 10.2709V2.68364C5.59094 2.47637 5.48185 2.29637 5.30185 2.19818ZM2.18729 3.85091H3.41456C3.6382 3.85091 3.82365 4.03637 3.82365 4.26C3.82365 4.48909 3.6382 4.66909 3.41456 4.66909H2.18729C1.96365 4.66909 1.7782 4.48909 1.7782 4.26C1.7782 4.03637 1.96365 3.85091 2.18729 3.85091ZM3.82365 6.30546H2.18729C1.96365 6.30546 1.7782 6.12546 1.7782 5.89637C1.7782 5.67274 1.96365 5.48728 2.18729 5.48728H3.82365C4.04729 5.48728 4.23274 5.67274 4.23274 5.89637C4.23274 6.12546 4.04729 6.30546 3.82365 6.30546Z" fill="currentColor"/>
</svg>
