<svg width="12" height="12" viewBox="0 0 12 12" fill="none" xmlns="http://www.w3.org/2000/svg">
<path d="M8.28541 0.545456H3.7145C1.72905 0.545456 0.54541 1.72909 0.54541 3.71455V8.28C0.54541 10.2709 1.72905 11.4545 3.7145 11.4545H8.27996C10.2654 11.4545 11.449 10.2709 11.449 8.28546V3.71455C11.4545 1.72909 10.2709 0.545456 8.28541 0.545456ZM5.72723 8.86364C5.72723 9.06 5.53087 9.19091 5.35086 9.11455C4.69087 8.83091 3.82905 8.56909 3.22905 8.49273L3.12541 8.48182C2.79268 8.43818 2.51996 8.12727 2.51996 7.78909V3.58909C2.51996 3.16909 2.85814 2.85818 3.27268 2.89091C3.9545 2.94546 4.96359 3.27273 5.59632 3.63273C5.68359 3.68182 5.72723 3.77455 5.72723 3.86727V8.86364ZM9.47996 7.78364C9.47996 8.12182 9.20723 8.43273 8.8745 8.47637L8.75996 8.48727C8.16541 8.56909 7.30905 8.82546 6.64905 9.10364C6.46905 9.18 6.27268 9.04909 6.27268 8.85273V3.86182C6.27268 3.76364 6.32177 3.67091 6.40905 3.62182C7.04177 3.26727 8.02905 2.95091 8.69996 2.89091H8.72177C9.14177 2.89091 9.47996 3.22909 9.47996 3.64909V7.78364Z" fill="currentColor"/>
</svg>
