<svg width="12" height="12" viewBox="0 0 12 12" fill="none" xmlns="http://www.w3.org/2000/svg">
<path d="M10.9091 8.18182V9.54546C10.9091 10.5982 10.0023 11.4545 8.88767 11.4545H3.11227C1.99762 11.4545 1.09088 10.5982 1.09088 9.54546V9.19091C1.09088 8.33455 1.83013 7.63637 2.73687 7.63637H10.3315C10.6492 7.63637 10.9091 7.88182 10.9091 8.18182Z" fill="currentColor"/>
<path d="M8.02136 0.545456H3.97858C1.66842 0.545456 1.09088 1.09091 1.09088 3.27273V7.40727C1.52981 7.04182 2.10735 6.81818 2.73687 6.81818H10.3315C10.6492 6.81818 10.9091 6.57273 10.9091 6.27273V3.27273C10.9091 1.09091 10.3315 0.545456 8.02136 0.545456ZM6.57751 5.31818H3.68981C3.45302 5.31818 3.25666 5.13273 3.25666 4.90909C3.25666 4.68546 3.45302 4.5 3.68981 4.5H6.57751C6.8143 4.5 7.01067 4.68546 7.01067 4.90909C7.01067 5.13273 6.8143 5.31818 6.57751 5.31818ZM8.31013 3.40909H3.68981C3.45302 3.40909 3.25666 3.22364 3.25666 3C3.25666 2.77637 3.45302 2.59091 3.68981 2.59091H8.31013C8.54692 2.59091 8.74329 2.77637 8.74329 3C8.74329 3.22364 8.54692 3.40909 8.31013 3.40909Z" fill="currentColor"/>
</svg>
