<svg width="12" height="12" viewBox="0 0 12 12" fill="none" xmlns="http://www.w3.org/2000/svg">
<path d="M5.59086 2.68364V10.2709C5.59086 10.6582 5.19814 10.9254 4.84359 10.7782C3.82905 10.3527 2.56905 9.98181 1.6745 9.86181L1.50541 9.83999C0.976319 9.77454 0.54541 9.28908 0.54541 8.75999V2.27455C0.54541 1.62001 1.0745 1.09091 1.72905 1.09091H1.76723C2.79268 1.17818 4.30359 1.65819 5.30177 2.19819C5.48177 2.29637 5.59086 2.47637 5.59086 2.68364Z" fill="currentColor"/>
<path d="M10.2709 1.09091H10.2381C10.1072 1.10182 9.96541 1.11819 9.81814 1.14546C9.14723 1.25455 8.35086 1.48364 7.63632 1.76728C7.29814 1.90364 6.98177 2.05092 6.70359 2.19819C6.52359 2.29637 6.40905 2.48183 6.40905 2.68364V10.2709C6.40905 10.6582 6.80177 10.9254 7.15632 10.7782C8.17087 10.3527 9.43087 9.98181 10.3254 9.86181L10.4945 9.83999C11.0236 9.77454 11.4545 9.28908 11.4545 8.75999V2.27455C11.4545 1.62001 10.9254 1.09091 10.2709 1.09091ZM9.96541 6.89999C9.96541 7.11272 9.81268 7.20545 9.62723 7.10181L9.04905 6.77999C8.98905 6.74726 8.89087 6.74726 8.82541 6.77999L8.24723 7.10181C8.06177 7.20545 7.90905 7.11272 7.90905 6.89999V5.22545C7.90905 4.97454 8.11632 4.76728 8.36723 4.76728H9.51268C9.76359 4.76728 9.97087 4.97454 9.97087 5.22545V6.89999H9.96541Z" fill="currentColor"/>
</svg>
