<svg width="12" height="12" viewBox="0 0 12 12" fill="none" xmlns="http://www.w3.org/2000/svg">
<path d="M8.71717 2.25524L5.75762 0.670562C5.44333 0.503754 5.07143 0.503754 4.75714 0.670562L1.80281 2.25524C1.58805 2.37514 1.45185 2.6045 1.45185 2.85471C1.45185 3.11013 1.58281 3.3395 1.80281 3.45418L4.76238 5.03883C4.91952 5.12224 5.09238 5.16399 5.26 5.16399C5.42762 5.16399 5.60572 5.12224 5.75762 5.03883L8.71717 3.45418C8.93194 3.3395 9.06813 3.11013 9.06813 2.85471C9.06813 2.6045 8.93194 2.37514 8.71717 2.25524Z" fill="currentColor"/>
<path d="M4.27497 5.59107L1.52494 4.22532C1.31018 4.11585 1.06922 4.13149 0.864937 4.25138C0.665887 4.37649 0.54541 4.59021 0.54541 4.82479V7.41032C0.54541 7.85862 0.796841 8.26 1.20018 8.4633L3.9502 9.82905C4.04449 9.87596 4.14925 9.90202 4.25401 9.90202C4.37449 9.90202 4.50021 9.86554 4.61021 9.80298C4.80926 9.67788 4.92973 9.46415 4.92973 9.22958V6.64405C4.9245 6.19575 4.67307 5.79437 4.27497 5.59107Z" fill="currentColor"/>
<path d="M9.97439 4.82479V6.10713C9.72296 6.03415 9.45582 6.00288 9.18867 6.00288C8.47628 6.00288 7.77961 6.24788 7.22961 6.68575C6.47531 7.27479 6.04579 8.16617 6.04579 9.13054C6.04579 9.38596 6.07722 9.64139 6.14531 9.88639C6.06674 9.87596 5.98817 9.84468 5.91483 9.79777C5.71578 9.67788 5.59531 9.46415 5.59531 9.22958V6.64405C5.59531 6.19575 5.84674 5.79437 6.24484 5.59107L8.99486 4.22532C9.20962 4.11585 9.45058 4.13149 9.65487 4.25138C9.85392 4.37649 9.97439 4.59021 9.97439 4.82479Z" fill="currentColor"/>
<path d="M11.3255 10.6935L10.8855 10.2556C11.116 9.91157 11.2522 9.49455 11.2522 9.05146C11.2522 7.83689 10.2622 6.85168 9.04168 6.85168C7.82119 6.85168 6.83118 7.83689 6.83118 9.05146C6.83118 10.266 7.82119 11.2512 9.04168 11.2512C9.48692 11.2512 9.90597 11.1157 10.2517 10.8864L10.6917 11.3242C10.7807 11.4128 10.8907 11.4545 11.006 11.4545C11.1212 11.4545 11.2365 11.4128 11.3203 11.3242C11.4984 11.147 11.4984 10.8655 11.3255 10.6935Z" fill="currentColor"/>
</svg>
