<svg width="12" height="12" viewBox="0 0 12 12" fill="none" xmlns="http://www.w3.org/2000/svg">
<path d="M8.64957 2.25189L5.7145 0.670317C5.40281 0.503836 5.03398 0.503836 4.72229 0.670317L1.79241 2.25189C1.57942 2.37155 1.44436 2.60046 1.44436 2.85018C1.44436 3.10511 1.57423 3.33402 1.79241 3.44848L4.72749 5.03003C4.88333 5.11327 5.05476 5.15494 5.22099 5.15494C5.38723 5.15494 5.56385 5.11327 5.7145 5.03003L8.64957 3.44848C8.86255 3.33402 8.99762 3.10511 8.99762 2.85018C8.99762 2.60046 8.86255 2.37155 8.64957 2.25189Z" fill="currentColor"/>
<path d="M4.24411 5.58118L1.51684 4.21811C1.30385 4.10885 1.06489 4.12446 0.862293 4.24412C0.664891 4.36898 0.54541 4.58228 0.54541 4.81641V7.39687C0.54541 7.84429 0.794761 8.24489 1.19476 8.44779L3.92203 9.81085C4.01554 9.85768 4.11944 9.88369 4.22333 9.88369C4.34281 9.88369 4.46749 9.84727 4.57658 9.78484C4.77398 9.65998 4.89346 9.44668 4.89346 9.21256V6.6321C4.88827 6.18468 4.63892 5.78408 4.24411 5.58118Z" fill="currentColor"/>
<path d="M9.89637 4.81641V6.09624C9.64702 6.0234 9.38209 5.99218 9.11715 5.99218C8.41066 5.99218 7.71975 6.2367 7.17429 6.67372C6.42624 7.26161 6.00027 8.15124 6.00027 9.11371C6.00027 9.36864 6.03144 9.62356 6.09897 9.86808C6.02105 9.85768 5.94312 9.82646 5.8704 9.77964C5.67299 9.65998 5.55351 9.44668 5.55351 9.21256V6.6321C5.55351 6.18468 5.80286 5.78408 6.19767 5.58118L8.92494 4.21811C9.13793 4.10885 9.37689 4.12446 9.57949 4.24412C9.77689 4.36898 9.89637 4.58228 9.89637 4.81641Z" fill="currentColor"/>
<path d="M10.9246 7.63067C10.4987 7.10522 9.84931 6.77225 9.11684 6.77225C8.56619 6.77225 8.0571 6.96475 7.6571 7.28731C7.11684 7.71392 6.77918 8.37464 6.77918 9.1134C6.77918 9.84696 7.11164 10.4973 7.63632 10.9239C8.03632 11.2569 8.5558 11.4545 9.11684 11.4545C9.70905 11.4545 10.2441 11.2308 10.6597 10.8719C11.1428 10.4401 11.4545 9.81575 11.4545 9.1134C11.4545 8.55153 11.2571 8.03127 10.9246 7.63067ZM9.6519 9.25907C9.6519 9.39434 9.57918 9.5244 9.46489 9.59204L8.73242 10.029C8.67009 10.0655 8.60255 10.0863 8.52983 10.0863C8.39996 10.0863 8.27009 10.0186 8.19736 9.89899C8.08827 9.71169 8.14541 9.47238 8.33242 9.36312L8.87268 9.04057V8.38504C8.87268 8.17174 9.04931 7.99485 9.26229 7.99485C9.47528 7.99485 9.6519 8.17174 9.6519 8.38504V9.25907Z" fill="currentColor"/>
</svg>
