<svg width="12" height="12" viewBox="0 0 12 12" fill="none" xmlns="http://www.w3.org/2000/svg">
<path d="M10.4343 3.24C10.4343 3.53455 10.2761 3.80182 10.0252 3.93818L9.07613 4.45091L8.26886 4.88182L6.59431 5.78727C6.41431 5.88546 6.21795 5.93455 6.01613 5.93455C5.81431 5.93455 5.61795 5.88546 5.43795 5.78727L2.00706 3.93818C1.75615 3.80182 1.59797 3.53455 1.59797 3.24C1.59797 2.94546 1.75615 2.67818 2.00706 2.54182L3.0816 1.96364L3.93797 1.5L5.43795 0.692729C5.79795 0.496365 6.23431 0.496365 6.59431 0.692729L10.0252 2.54182C10.2761 2.67818 10.4343 2.94546 10.4343 3.24Z" fill="currentColor"/>
<path d="M4.87086 6.43097L1.67996 4.83826C1.4345 4.71281 1.15086 4.72917 0.916319 4.87099C0.681774 5.01278 0.54541 5.26369 0.54541 5.53642V8.55278C0.54541 9.07642 0.834501 9.54551 1.30359 9.78006L4.4945 11.3728C4.60359 11.4273 4.72359 11.4546 4.84359 11.4546C4.98544 11.4546 5.12726 11.4164 5.25271 11.3346C5.48726 11.1928 5.62356 10.9419 5.62356 10.6691V7.65278C5.62902 7.1346 5.33993 6.66551 4.87086 6.43097Z" fill="currentColor"/>
<path d="M11.4884 5.53615V8.55251C11.4884 9.07069 11.1993 9.53978 10.7302 9.77433L7.53931 11.3725C7.43022 11.4271 7.31022 11.4543 7.19022 11.4543C7.0484 11.4543 6.90658 11.4161 6.77567 11.3343C6.54658 11.1925 6.40477 10.9416 6.40477 10.6689V7.65797C6.40477 7.13433 6.69386 6.66524 7.16295 6.43069L8.33567 5.84706L10.3539 4.83799C10.5993 4.71253 10.8829 4.72344 11.1175 4.87071C11.3466 5.01251 11.4884 5.26342 11.4884 5.53615Z" fill="currentColor"/>
<path d="M9.0776 4.45091L8.27033 4.88182L3.08305 1.96364L3.93941 1.5L8.94669 4.32546C9.00124 4.35818 9.04487 4.40182 9.0776 4.45091Z" fill="currentColor"/>
<path d="M9.15337 5.43753V6.67566C9.15337 6.89929 8.96791 7.08475 8.74427 7.08475C8.52064 7.08475 8.33518 6.89929 8.33518 6.67566V5.84662L9.15337 5.43753Z" fill="currentColor"/>
</svg>
