<svg width="12" height="12" viewBox="0 0 12 12" fill="none" xmlns="http://www.w3.org/2000/svg">
<path d="M8.64957 2.25031L5.7145 0.670201C5.40281 0.503874 5.03398 0.503874 4.72229 0.670201L1.79241 2.25031C1.57942 2.36985 1.44436 2.59855 1.44436 2.84804C1.44436 3.10273 1.57423 3.33143 1.79241 3.44578L4.72749 5.02586C4.88333 5.10902 5.05476 5.15066 5.22099 5.15066C5.38723 5.15066 5.56385 5.10902 5.7145 5.02586L8.64957 3.44578C8.86255 3.33143 8.99762 3.10273 8.99762 2.84804C8.99762 2.59855 8.86255 2.36985 8.64957 2.25031Z" fill="currentColor"/>
<path d="M4.24411 5.5765L1.51684 4.21469C1.30385 4.10554 1.06489 4.12113 0.862293 4.24068C0.664891 4.36543 0.54541 4.57853 0.54541 4.81244V7.39051C0.54541 7.83751 0.794761 8.23773 1.19476 8.44044L3.92203 9.80225C4.01554 9.84902 4.11944 9.87501 4.22333 9.87501C4.34281 9.87501 4.46749 9.83863 4.57658 9.77626C4.77398 9.65151 4.89346 9.43841 4.89346 9.20451V6.62644C4.88827 6.17944 4.63892 5.77922 4.24411 5.5765Z" fill="currentColor"/>
<path d="M9.89637 4.81244V6.09108C9.64702 6.01831 9.38209 5.98712 9.11715 5.98712C8.41066 5.98712 7.71975 6.23142 7.17429 6.66802C6.42624 7.25537 6.00027 8.14418 6.00027 9.10575C6.00027 9.36044 6.03144 9.61513 6.09897 9.85942C6.02105 9.84902 5.94312 9.81784 5.8704 9.77106C5.67299 9.65151 5.55351 9.43841 5.55351 9.20451V6.62644C5.55351 6.17944 5.80286 5.77922 6.19767 5.5765L8.92494 4.21469C9.13793 4.10554 9.37689 4.12113 9.57949 4.24068C9.77689 4.36543 9.89637 4.57853 9.89637 4.81244Z" fill="currentColor"/>
<path d="M10.9246 7.63423C10.4987 7.10926 9.84931 6.7766 9.11684 6.7766C8.56619 6.7766 8.0571 6.96892 7.6571 7.29118C7.11684 7.71739 6.77918 8.3775 6.77918 9.11558C6.77918 9.55218 6.90385 9.968 7.11684 10.3214C7.2571 10.5553 7.43372 10.7581 7.64151 10.9244H7.64671C8.04671 11.257 8.561 11.4545 9.11684 11.4545C9.70905 11.4545 10.2441 11.2362 10.6545 10.8724C10.8363 10.7165 10.9922 10.5294 11.1168 10.3214C11.3298 9.968 11.4545 9.55218 11.4545 9.11558C11.4545 8.55422 11.2571 8.03445 10.9246 7.63423ZM10.2909 8.8245L9.04411 9.9784C8.97139 10.046 8.87268 10.0823 8.77918 10.0823C8.68048 10.0823 8.58177 10.046 8.50385 9.968L7.92723 9.39105C7.77658 9.24032 7.77658 8.99083 7.92723 8.8401C8.07788 8.68936 8.32723 8.68936 8.47788 8.8401L8.78957 9.15196L9.76099 8.25276C9.91684 8.10722 10.1662 8.11761 10.3116 8.27355C10.4623 8.43468 10.4519 8.67897 10.2909 8.8245Z" fill="currentColor"/>
</svg>
