<svg width="12" height="12" viewBox="0 0 12 12" fill="none" xmlns="http://www.w3.org/2000/svg">
<path d="M2.60242 9.76638C2.54644 9.76638 2.48536 9.75116 2.43447 9.72579L1.30458 9.1626C1.17735 9.09664 1.09591 8.96474 1.09591 8.82268V7.41229C1.09591 7.20433 1.26896 7.03179 1.47763 7.03179C1.6863 7.03179 1.85935 7.20433 1.85935 7.41229V8.58428L2.77547 9.04596C2.96378 9.13728 3.04013 9.36558 2.94343 9.5533C2.87726 9.6852 2.74493 9.76638 2.60242 9.76638Z" fill="currentColor"/>
<path d="M5.99735 11.4545C5.96681 11.4545 5.93627 11.4495 5.91083 11.4444C5.88029 11.4393 5.84975 11.4241 5.81921 11.4089L4.69441 10.8508C4.50609 10.7544 4.42975 10.5261 4.52136 10.3384C4.61806 10.1506 4.84709 10.0745 5.03542 10.1659L5.61563 10.4551V9.66365C5.61563 9.45564 5.78868 9.28315 5.99735 9.28315C6.20602 9.28315 6.37907 9.45564 6.37907 9.66365V10.4551L6.95928 10.1659C7.14759 10.0745 7.37662 10.1506 7.47332 10.3384C7.57002 10.5261 7.49368 10.7544 7.30028 10.8508L6.17548 11.4089C6.14495 11.4241 6.11441 11.4343 6.08387 11.4444C6.05333 11.4495 6.02789 11.4545 5.99735 11.4545Z" fill="currentColor"/>
<path d="M9.39243 9.76526C9.25502 9.76526 9.1176 9.68916 9.05143 9.55726C8.95473 9.36954 9.03108 9.14124 9.22448 9.04485L10.1457 8.58824V7.4163C10.1457 7.20829 10.3187 7.0358 10.5274 7.0358C10.7361 7.0358 10.9091 7.20829 10.9091 7.4163V8.82669C10.9091 8.96875 10.8277 9.10065 10.7005 9.16661L9.56039 9.72468C9.5044 9.75004 9.44842 9.76526 9.39243 9.76526Z" fill="currentColor"/>
<path d="M5.99735 7.22859C5.78868 7.22859 5.61563 7.05609 5.61563 6.84809V5.67614L4.69441 5.21954C4.50609 5.12315 4.42975 4.89483 4.52136 4.70712C4.61806 4.5194 4.84709 4.4433 5.03542 4.53462L5.99735 5.01153L6.95928 4.53462C7.14759 4.4433 7.37662 4.51433 7.47332 4.70712C7.57002 4.89483 7.49368 5.12315 7.30028 5.21954L6.37907 5.67614V6.84809C6.37907 7.05609 6.20602 7.22859 5.99735 7.22859Z" fill="currentColor"/>
<path d="M1.47266 4.97042C1.26399 4.97042 1.09094 4.79793 1.09094 4.58992V3.1846C1.09094 3.15416 1.09603 3.12372 1.10112 3.09835C1.1113 3.05269 1.12657 3.01718 1.14693 2.98167C1.1622 2.9563 1.18255 2.93601 1.20291 2.91571C1.22327 2.89542 1.24872 2.87513 1.27417 2.85991C1.28435 2.85483 1.29961 2.84469 1.30979 2.83961L2.43459 2.27647C2.6229 2.18515 2.85193 2.26125 2.94354 2.44896C3.04025 2.63668 2.9639 2.86498 2.77559 2.9563L2.32771 3.17953L2.77559 3.40276C2.9639 3.49915 3.04025 3.72745 2.94354 3.91516C2.85193 4.10288 2.6229 4.17898 2.43459 4.08766L1.85438 3.79848V4.58992C1.85438 4.803 1.68642 4.97042 1.47266 4.97042Z" fill="currentColor"/>
<path d="M7.12738 1.87087C7.0714 1.87087 7.01032 1.85565 6.95943 1.83028L5.9975 1.35339L5.03557 1.83028C4.84726 1.92668 4.61823 1.85058 4.52662 1.66286C4.42992 1.47515 4.50626 1.24685 4.69458 1.15045L5.82445 0.587311C5.93134 0.531504 6.05857 0.531504 6.16546 0.587311L7.29534 1.15045C7.48365 1.24685 7.56 1.47515 7.46838 1.66286C7.40222 1.79477 7.26989 1.87087 7.12738 1.87087Z" fill="currentColor"/>
<path d="M10.5224 4.97042C10.3137 4.97042 10.1407 4.79793 10.1407 4.58992V3.79848L9.56049 4.08766C9.37218 4.17898 9.14314 4.10288 9.05153 3.91516C8.95483 3.72745 9.03117 3.49915 9.22458 3.40276L9.67246 3.17953L9.21949 2.9563C9.03117 2.86498 8.95483 2.63668 9.05153 2.44896C9.14823 2.26125 9.37218 2.18515 9.56049 2.27647L10.6853 2.83454C10.6955 2.83961 10.7107 2.84469 10.7209 2.85483C10.7514 2.87005 10.7769 2.89542 10.8023 2.92079C10.8176 2.94108 10.8329 2.96137 10.8481 2.98167C10.8685 3.01718 10.8838 3.05269 10.894 3.09328C10.899 3.12372 10.9041 3.15416 10.9041 3.17953V4.58485C10.9041 4.803 10.7311 4.97042 10.5224 4.97042Z" fill="currentColor"/>
</svg>
