<svg width="12" height="12" viewBox="0 0 12 12" fill="none" xmlns="http://www.w3.org/2000/svg">
<path d="M8.64957 2.23485L5.7145 0.653273C5.40281 0.486791 5.03398 0.486791 4.72229 0.653273L1.79241 2.23485C1.57942 2.35451 1.44435 2.58342 1.44435 2.83314C1.44435 3.08807 1.57423 3.31698 1.79241 3.43143L4.72749 5.01298C4.88333 5.09622 5.05476 5.1379 5.22099 5.1379C5.38723 5.1379 5.56385 5.09622 5.7145 5.01298L8.64957 3.43143C8.86255 3.31698 8.99762 3.08807 8.99762 2.83314C8.99762 2.58342 8.86255 2.35451 8.64957 2.23485Z" fill="currentColor"/>
<path d="M4.24411 5.56414L1.51684 4.20106C1.30385 4.09181 1.06489 4.10742 0.862293 4.22707C0.664891 4.35193 0.54541 4.56524 0.54541 4.79936V7.37983C0.54541 7.82725 0.794761 8.22784 1.19476 8.43074L3.92203 9.79381C4.01554 9.84063 4.11944 9.86664 4.22333 9.86664C4.34281 9.86664 4.46749 9.83023 4.57658 9.7678C4.77398 9.64294 4.89346 9.42963 4.89346 9.19552V6.61505C4.88827 6.16763 4.63892 5.76704 4.24411 5.56414Z" fill="currentColor"/>
<path d="M9.89638 4.79936V6.07919C9.64703 6.00635 9.3821 5.97514 9.11716 5.97514C8.41067 5.97514 7.71976 6.21966 7.17431 6.65667C6.42625 7.24456 6.00028 8.1342 6.00028 9.09667C6.00028 9.35159 6.03145 9.60652 6.09898 9.85104C6.02106 9.84063 5.94314 9.80942 5.87041 9.76259C5.67301 9.64294 5.55353 9.42963 5.55353 9.19552V6.61505C5.55353 6.16763 5.80288 5.76704 6.19768 5.56414L8.92496 4.20106C9.13794 4.09181 9.3769 4.10742 9.5795 4.22707C9.7769 4.35193 9.89638 4.56524 9.89638 4.79936Z" fill="currentColor"/>
<path d="M10.935 7.63964C10.935 7.63444 10.9298 7.62924 10.9246 7.62404C10.9039 7.59282 10.8779 7.56161 10.8519 7.53559C10.8467 7.53039 10.8415 7.51999 10.8363 7.51478C10.4155 7.04655 9.79736 6.75521 9.11684 6.75521C8.46229 6.75521 7.86489 7.02574 7.43892 7.46276C7.02853 7.88416 6.77918 8.46165 6.77918 9.09636C6.77918 9.53337 6.90385 9.94957 7.11684 10.3033C7.23112 10.4958 7.37658 10.6727 7.54281 10.8184C7.5532 10.8236 7.5584 10.8288 7.56359 10.834C7.58957 10.86 7.61554 10.8808 7.64671 10.9068C7.64671 10.9068 7.64671 10.9068 7.6519 10.9068C7.6571 10.912 7.66229 10.9172 7.66749 10.9172C8.0571 11.245 8.561 11.4375 9.11684 11.4375C9.96879 11.4375 10.7116 10.9797 11.1168 10.3033C11.2363 10.1004 11.3298 9.87674 11.387 9.64262C11.4337 9.46574 11.4545 9.28365 11.4545 9.09636C11.4545 8.54489 11.2623 8.03504 10.935 7.63964ZM9.98957 9.47614H9.50645V9.98079C9.50645 10.1941 9.32983 10.371 9.11684 10.371C8.90385 10.371 8.72723 10.1941 8.72723 9.98079V9.47614H8.24411C8.03112 9.47614 7.8545 9.29926 7.8545 9.08595C7.8545 8.87265 8.03112 8.69576 8.24411 8.69576H8.72723V8.23273C8.72723 8.01943 8.90385 7.84254 9.11684 7.84254C9.32983 7.84254 9.50645 8.01943 9.50645 8.23273V8.69576H9.98957C10.2026 8.69576 10.3792 8.87265 10.3792 9.08595C10.3792 9.29926 10.2077 9.47614 9.98957 9.47614Z" fill="currentColor"/>
</svg>
