<svg width="12" height="12" viewBox="0 0 12 12" fill="none" xmlns="http://www.w3.org/2000/svg">
<path d="M8.65079 2.25225L5.71528 0.670343C5.40355 0.503827 5.03466 0.503827 4.72292 0.670343L1.7926 2.25225C1.57958 2.37194 1.44449 2.6009 1.44449 2.85067C1.44449 3.10565 1.57438 3.33461 1.7926 3.44909L4.72812 5.03097C4.88399 5.11423 5.05544 5.15591 5.2217 5.15591C5.38796 5.15591 5.56461 5.11423 5.71528 5.03097L8.65079 3.44909C8.86381 3.33461 8.9989 3.10565 8.9989 2.85067C8.9989 2.6009 8.86381 2.37194 8.65079 2.25225Z" fill="currentColor"/>
<path d="M4.24467 5.58225L1.51699 4.21888C1.30397 4.10961 1.06497 4.12522 0.862341 4.2449C0.664909 4.36979 0.54541 4.58314 0.54541 4.81731V7.39832C0.54541 7.84584 0.794799 8.24652 1.19486 8.44946L3.92254 9.81281C4.01606 9.85965 4.11998 9.88567 4.22389 9.88567C4.34339 9.88567 4.46808 9.84924 4.57719 9.7868C4.77462 9.66191 4.89412 9.44856 4.89412 9.21439V6.63339C4.88892 6.18587 4.63954 5.78519 4.24467 5.58225Z" fill="currentColor"/>
<path d="M9.8978 4.81731V6.09741C9.64841 6.02456 9.38344 5.99334 9.11846 5.99334C8.41186 5.99334 7.72085 6.23791 7.17531 6.67501C6.42714 7.26303 6.00111 8.15285 6.00111 9.11553C6.00111 9.3705 6.03228 9.62548 6.09982 9.87006C6.02189 9.85965 5.94395 9.82842 5.87122 9.78159C5.67378 9.66191 5.55428 9.44856 5.55428 9.21439V6.63339C5.55428 6.18587 5.80367 5.78519 6.19854 5.58225L8.92622 4.21888C9.13924 4.10961 9.37824 4.12522 9.58087 4.2449C9.7783 4.36979 9.8978 4.58314 9.8978 4.81731Z" fill="currentColor"/>
<path d="M10.7711 7.46077C10.3087 6.99765 9.69559 6.76348 9.0877 6.77389C8.5006 6.77909 7.9135 7.01326 7.46668 7.46077C7.15494 7.76779 6.95231 8.15286 6.8536 8.55354C6.79644 8.77209 6.77566 8.99585 6.79125 9.2196V9.24562C6.79125 9.28205 6.79644 9.31327 6.80164 9.3549C6.80164 9.3549 6.80164 9.3549 6.80684 9.3601V9.37571C6.8536 9.88567 7.07181 10.38 7.46668 10.7703C8.06936 11.3739 8.91625 11.5769 9.68 11.3843C9.9086 11.3271 10.132 11.2334 10.3398 11.1085C10.4957 11.0201 10.6412 10.9056 10.7711 10.7703C11.1607 10.38 11.3842 9.88567 11.4309 9.37051C11.4361 9.37051 11.4361 9.3601 11.4361 9.3549C11.4465 9.31847 11.4465 9.27684 11.4465 9.24042C11.4465 9.23521 11.4517 9.22481 11.4517 9.2144C11.4829 8.58476 11.2543 7.93951 10.7711 7.46077ZM10.0177 10.0054C9.86704 10.1563 9.62285 10.1563 9.46698 10.0054L9.12407 9.66191L8.77077 10.0158C8.6149 10.1719 8.37071 10.1719 8.22004 10.0158C8.06417 9.86486 8.06417 9.62029 8.22004 9.46418L8.57334 9.11033L8.23043 8.76689C8.07976 8.61078 8.07976 8.3662 8.23043 8.2153C8.3863 8.05919 8.63049 8.05919 8.78636 8.2153L9.12407 8.55874L9.45139 8.22571C9.60726 8.0748 9.85145 8.0748 10.0073 8.22571C10.158 8.38182 10.158 8.62639 10.0073 8.7825L9.6748 9.11033L10.0177 9.44856C10.1736 9.60467 10.1736 9.84925 10.0177 10.0054Z" fill="currentColor"/>
</svg>
