<svg width="12" height="12" viewBox="0 0 12 12" fill="none" xmlns="http://www.w3.org/2000/svg">
<path d="M10.3515 3.71864L6.1515 6.15136C5.98241 6.24954 5.76968 6.24954 5.59514 6.15136L1.39511 3.71864C1.09511 3.54409 1.01875 3.135 1.24784 2.87864C1.40602 2.69864 1.58602 2.55136 1.77693 2.44773L4.7333 0.811365C5.36604 0.45682 6.3915 0.45682 7.02423 0.811365L9.98059 2.44773C10.1715 2.55136 10.3515 2.70409 10.5097 2.87864C10.7279 3.135 10.6515 3.54409 10.3515 3.71864Z" fill="currentColor"/>
<path d="M5.56361 7.16454V10.8845C5.56361 11.2991 5.14361 11.5718 4.77268 11.3918C3.64905 10.8409 1.75632 9.81 1.75632 9.81C1.09086 9.43363 0.54541 8.48454 0.54541 7.70454V4.89C0.54541 4.45909 0.998137 4.18636 1.36905 4.39909L5.29088 6.67363C5.45452 6.77727 5.56361 6.96272 5.56361 7.16454Z" fill="currentColor"/>
<path d="M6.18532 7.16454V10.8845C6.18532 11.2991 6.60532 11.5718 6.97623 11.3918C8.09986 10.8409 9.99259 9.81 9.99259 9.81C10.658 9.43363 11.2035 8.48454 11.2035 7.70454V4.89C11.2035 4.45909 10.7508 4.18636 10.3799 4.39909L6.45805 6.67363C6.29441 6.77727 6.18532 6.96272 6.18532 7.16454Z" fill="currentColor"/>
</svg>
