<svg width="12" height="12" viewBox="0 0 12 12" fill="none" xmlns="http://www.w3.org/2000/svg">
<path d="M10.9566 3.38727C10.4929 2.87455 9.71837 2.61818 8.59474 2.61818H8.46383V2.59636C8.46383 1.68 8.46383 0.545456 6.41292 0.545456H5.58383C3.53292 0.545456 3.53292 1.68546 3.53292 2.59636V2.62364H3.40201C2.27292 2.62364 1.50383 2.88 1.0402 3.39273C0.500196 3.99273 0.51656 4.8 0.571105 5.35089L0.57656 5.38908L0.618811 5.83269C0.626589 5.9144 0.670591 5.9882 0.739258 6.03315C0.870058 6.11873 1.08898 6.25984 1.2202 6.33271C1.29656 6.3818 1.37838 6.42544 1.4602 6.46908C2.39292 6.9818 3.41838 7.32544 4.4602 7.49453C4.50929 8.00726 4.73292 8.60726 5.92746 8.60726C7.12201 8.60726 7.35655 8.01271 7.39474 7.48362C8.50746 7.30362 9.58201 6.91635 10.5529 6.34908C10.5856 6.33271 10.6075 6.31635 10.6347 6.29998C10.8511 6.17769 11.0756 6.02699 11.2803 5.87938C11.3419 5.83488 11.3814 5.76615 11.3898 5.6906L11.3984 5.61271L11.4256 5.35635C11.4311 5.32362 11.4311 5.29635 11.4366 5.25817C11.4802 4.70727 11.4693 3.95455 10.9566 3.38727ZM6.59292 7.12362C6.59292 7.7018 6.59292 7.78908 5.92201 7.78908C5.2511 7.78908 5.2511 7.68544 5.2511 7.12908V6.4418H6.59292V7.12362ZM4.31292 2.59636C4.31292 1.66909 4.31292 1.32546 5.58383 1.32546H6.41292C7.68383 1.32546 7.68383 1.67455 7.68383 2.59636V2.62364H4.31292V2.59636Z" fill="currentColor"/>
<path d="M10.8378 7.07202C11.0307 6.98022 11.2529 7.13311 11.2335 7.34584L11.0377 9.50246C10.9232 10.5934 10.4759 11.7061 8.07591 11.7061H3.91957C1.51957 11.7061 1.07229 10.5934 0.957749 9.50791L0.771908 7.46366C0.752795 7.25338 0.969864 7.10066 1.16221 7.18771C1.78371 7.46889 2.93088 7.96777 3.63951 8.15338C3.72914 8.17684 3.80162 8.24098 3.84087 8.32493C4.17194 9.03298 4.89 9.40973 5.92682 9.40973C6.95347 9.40973 7.68056 9.01847 8.01275 8.30867C8.05202 8.22467 8.12462 8.16053 8.21429 8.13697C8.96675 7.93897 10.1878 7.38129 10.8378 7.07202Z" fill="currentColor"/>
</svg>
