<svg width="12" height="12" viewBox="0 0 12 12" fill="none" xmlns="http://www.w3.org/2000/svg">
<path d="M5.52262 8.24148C5.38626 8.24148 5.24989 8.17057 5.17353 8.04512C5.05898 7.85421 5.11898 7.59784 5.31535 7.4833L5.8008 7.19421V6.60512C5.8008 6.38148 5.98626 6.19602 6.20989 6.19602C6.43353 6.19602 6.61898 6.38148 6.61898 6.60512V7.4233C6.61898 7.56512 6.54262 7.70148 6.42262 7.77239L5.7408 8.18148C5.66444 8.21966 5.59353 8.24148 5.52262 8.24148Z" fill="currentColor"/>
<path d="M10.9566 3.38727C10.4929 2.87455 9.72383 2.61818 8.59474 2.61818H8.46383V2.59636C8.46383 1.68 8.46383 0.545456 6.41292 0.545456H5.58383C3.53292 0.545456 3.53292 1.68 3.53292 2.59636V2.61818H3.40201C2.27292 2.61818 1.49838 2.87455 1.0402 3.38727C0.500196 3.99273 0.51656 4.79455 0.571105 5.34544L0.57656 5.38362L0.614245 5.82326C0.62144 5.9072 0.667007 5.98318 0.737763 6.029C0.892503 6.12915 1.05714 6.23426 1.21474 6.3218C1.29111 6.37089 1.37292 6.41453 1.45474 6.45817C2.07111 6.79635 2.73111 7.06362 3.40747 7.24908C3.42383 8.6618 4.5802 9.80726 5.99837 9.80726C7.42746 9.80726 8.58928 8.64544 8.58928 7.21635V7.19453C9.27655 6.98726 9.93655 6.69817 10.5529 6.33817C10.5856 6.3218 10.6075 6.30544 10.6347 6.28908C10.8501 6.17202 11.0736 6.0188 11.2774 5.87426C11.3406 5.82942 11.3815 5.7596 11.39 5.68259L11.3984 5.60726L11.4256 5.35089C11.4311 5.31817 11.4311 5.29089 11.4366 5.25271C11.4802 4.70727 11.4693 3.95455 10.9566 3.38727ZM4.31292 2.59636C4.31292 1.66909 4.31292 1.32 5.58383 1.32H6.41292C7.68383 1.32 7.68383 1.66909 7.68383 2.59636V2.61818H4.31292V2.59636ZM5.99837 8.98908C5.09837 8.98908 4.35111 8.31271 4.24201 7.43999C4.23111 7.36908 4.22565 7.29271 4.22565 7.21635C4.22565 6.23998 5.02201 5.44362 5.99837 5.44362C6.97474 5.44362 7.7711 6.23998 7.7711 7.21635C7.7711 7.2818 7.76565 7.3418 7.76019 7.4018V7.40726C7.66201 8.29635 6.90928 8.98908 5.99837 8.98908Z" fill="currentColor"/>
<path d="M10.9296 7.06995C11.0653 6.99457 11.2412 7.10377 11.2271 7.25835L11.0333 9.37723C10.9187 10.4681 10.4714 11.5809 8.07143 11.5809H3.91505C1.51505 11.5809 1.06778 10.4681 0.958684 9.38268L0.770028 7.3627C0.755382 7.20583 0.923115 7.0999 1.06232 7.17359C1.48778 7.40814 1.92959 7.61541 2.38232 7.77905C2.55141 7.83905 2.67141 7.98086 2.7205 8.15541C3.12959 9.57359 4.44959 10.6263 5.99871 10.6263C7.57507 10.6263 8.90598 9.55177 9.29325 8.07905C9.33689 7.9045 9.45689 7.76268 9.62598 7.69723C10.0842 7.51723 10.5205 7.3045 10.9296 7.06995Z" fill="currentColor"/>
</svg>
