<svg width="12" height="12" viewBox="0 0 12 12" fill="none" xmlns="http://www.w3.org/2000/svg">
<path d="M4.40823 2.26632L3.71005 1.10996C3.44823 0.684502 2.93005 0.444502 2.44459 0.58632C1.71368 0.804502 1.43004 1.62814 1.7955 2.23359L2.5155 3.41723C2.59732 3.54268 2.76641 3.58632 2.89186 3.50996L4.3155 2.64268C4.44641 2.56087 4.49005 2.39177 4.40823 2.26632Z" fill="currentColor"/>
<path d="M10.3648 7.34384L8.83205 5.27111C8.29751 4.55114 7.37023 4.21295 6.49751 4.4475C6.49751 4.44204 6.49205 4.44204 6.49205 4.43659L5.5866 2.9475C5.42296 2.69114 5.08478 2.60932 4.8284 2.7675L2.93567 3.91841C2.67385 4.07114 2.59204 4.41477 2.75022 4.67659L3.65022 6.16566C3.65022 6.16566 3.65022 6.17111 3.65567 6.17111C3.05022 6.84202 2.91931 7.81839 3.32294 8.63111L4.45749 10.9438C4.80658 11.6584 5.63023 11.9311 6.32842 11.5711C6.38296 11.5438 6.39933 11.4784 6.3666 11.4238L5.51569 10.0166C5.39569 9.8202 5.45569 9.56929 5.65205 9.44384C5.84842 9.3293 6.09933 9.38929 6.22478 9.5802L7.08114 10.9875C7.11387 11.0366 7.17933 11.0529 7.22842 11.0257L7.75205 10.7093C7.80114 10.6766 7.81751 10.6111 7.79023 10.562L6.93387 9.15475C6.81932 8.95839 6.87932 8.70748 7.07023 8.58202C7.27205 8.46748 7.52296 8.52748 7.64296 8.71839L8.49933 10.1257C8.53205 10.1747 8.59751 10.1911 8.6466 10.1638L9.17023 9.84748C9.21933 9.81475 9.23569 9.7493 9.20842 9.7002L8.35205 8.29293C8.23751 8.09657 8.29751 7.84566 8.48842 7.7202C8.69023 7.60566 8.94114 7.66566 9.06114 7.85657L9.92296 9.25839C9.95569 9.30748 10.0211 9.32384 10.0702 9.29111C10.703 8.83839 10.8448 7.98748 10.3648 7.34384Z" fill="currentColor"/>
</svg>
