<svg width="12" height="12" viewBox="0 0 12 12" fill="none" xmlns="http://www.w3.org/2000/svg">
<path d="M8.61273 2.06727H8.46C8.40545 1.63637 8.24727 1.29273 7.99636 1.03637C7.66909 0.709092 7.19455 0.545456 6.58364 0.545456H3.53999C2.31272 0.545456 1.63635 1.22182 1.63635 2.44909C1.63635 3.06 1.79999 3.53455 2.12726 3.86182C2.45453 4.18909 2.92907 4.35273 3.53999 4.35273H6.58364C7.67455 4.35273 8.32909 3.81273 8.46 2.83091H8.61273C9.75273 2.83091 9.75273 2.98364 9.75273 3.97091V4.98546C9.75273 5.97273 9.75273 6.12546 8.61273 6.12546H6.58364C4.95272 6.12546 4.71817 6.9 4.68544 7.65273C4.19453 7.68546 3.66544 7.91455 3.66544 8.78727V10.3091C3.66544 11.2527 4.28726 11.4491 4.80544 11.4491H5.31273C5.83091 11.4491 6.45273 11.2527 6.45273 10.3091V8.78727C6.45273 7.92546 5.93455 7.68546 5.44364 7.65273C5.47091 7.10182 5.62909 6.88364 6.57818 6.88364H8.60727C10.38 6.88364 10.5109 6.16364 10.5109 4.98V3.97091C10.5164 2.78727 10.3855 2.06727 8.61273 2.06727Z" fill="currentColor"/>
</svg>
