<svg width="12" height="12" viewBox="0 0 12 12" fill="none" xmlns="http://www.w3.org/2000/svg">
<path d="M11.3635 1.60262C10.649 3.38626 9.01809 5.71533 7.46354 7.23714C7.23991 5.82987 6.11627 4.72808 4.69811 4.53171C6.22536 2.97171 8.57082 1.31898 10.3599 0.598985C10.6763 0.478985 10.9926 0.571712 11.189 0.768076C11.3963 0.975349 11.4945 1.28626 11.3635 1.60262Z" fill="currentColor"/>
<path d="M6.98316 7.68595C6.87407 7.77868 6.76498 7.87141 6.65589 7.95868L5.67952 8.73868C5.67952 8.72231 5.67407 8.7005 5.67407 8.67868C5.5977 8.09504 5.32498 7.55504 4.88318 7.11322C4.43591 6.66595 3.87954 6.39322 3.26863 6.31686C3.25227 6.31686 3.23045 6.31141 3.21409 6.31141L4.005 5.31322C4.08136 5.21504 4.16318 5.12231 4.25045 5.02413L4.62136 5.07322C5.79407 5.23686 6.7377 6.15868 6.92316 7.32595L6.98316 7.68595Z" fill="currentColor"/>
<path d="M5.15627 9.06589C5.15627 9.66589 4.92718 10.2386 4.49079 10.6695C4.15807 11.0077 3.7108 11.2368 3.16534 11.3023L1.82898 11.4495C1.09807 11.5313 0.470793 10.9041 0.552611 10.1677L0.699884 8.82589C0.830793 7.63135 1.82898 6.86771 2.88716 6.84589C2.99079 6.84044 3.10534 6.84589 3.21443 6.8568C3.67807 6.9168 4.12534 7.12953 4.5017 7.50044C4.86716 7.86589 5.07445 8.2968 5.13445 8.74953C5.14536 8.85862 5.15627 8.96225 5.15627 9.06589Z" fill="currentColor"/>
</svg>
