<svg width="12" height="12" viewBox="0 0 12 12" fill="none" xmlns="http://www.w3.org/2000/svg">
<path d="M8.28541 0.545456H3.7145C1.72905 0.545456 0.54541 1.72909 0.54541 3.71455V8.28C0.54541 10.2709 1.72905 11.4545 3.7145 11.4545H8.27996C10.2654 11.4545 11.449 10.2709 11.449 8.28546V3.71455C11.4545 1.72909 10.2709 0.545456 8.28541 0.545456ZM5.17632 8.57455C4.99086 8.76 4.74541 8.88546 4.44541 8.92364L3.70905 9.00546C3.30541 9.04909 2.96177 8.70546 3.00541 8.29636L3.08723 7.55455C3.15814 6.89455 3.70905 6.47455 4.29268 6.46364C4.34723 6.45818 4.41268 6.46364 4.47268 6.46909C4.72905 6.50182 4.9745 6.62182 5.18177 6.82364C5.38359 7.02546 5.49814 7.26546 5.53087 7.51091C5.53632 7.57091 5.54177 7.63091 5.54177 7.68546C5.54177 8.02364 5.41632 8.33455 5.17632 8.57455ZM8.96723 3.57273C8.5745 4.55455 7.6745 5.84182 6.81814 6.68182C6.69268 5.90727 6.07632 5.29637 5.29086 5.18727C6.13086 4.32546 7.42905 3.41455 8.41632 3.01637C8.59087 2.95091 8.76541 3 8.8745 3.10909C8.98359 3.22909 9.03814 3.39818 8.96723 3.57273Z" fill="currentColor"/>
</svg>
