<svg width="12" height="12" viewBox="0 0 12 12" fill="none" xmlns="http://www.w3.org/2000/svg">
<path d="M4.70861 10.0909V9.27273H2.12448C1.84022 9.27273 1.58181 9.15273 1.39575 8.95091C1.20452 8.75455 1.09082 8.48182 1.09082 8.18182C1.09082 7.62 1.50428 7.15091 2.02628 7.09637C2.05729 7.09091 2.0883 7.09091 2.12448 7.09091H9.87689C9.91307 7.09091 9.94408 7.09091 9.97509 7.09637C10.2232 7.11818 10.4402 7.23273 10.6056 7.41273C10.8175 7.63091 10.9312 7.94182 10.9054 8.28C10.8589 8.85273 10.3679 9.27273 9.82004 9.27273H7.29275V10.0909C7.29275 10.8436 6.71391 11.4545 6.00068 11.4545C5.28746 11.4545 4.70861 10.8436 4.70861 10.0909Z" fill="currentColor"/>
<path d="M8.68333 0.545456H6.64703C6.50231 0.545456 6.38861 0.665456 6.38861 0.818183V1.63637C6.38861 1.86 6.21289 2.04546 6.00099 2.04546C5.95448 2.04546 5.91313 2.03455 5.87178 2.01818C5.7219 1.96364 5.61337 1.81091 5.61337 1.63637V0.818183C5.61337 0.665456 5.49967 0.545456 5.35496 0.545456H4.57454C4.42983 0.545456 4.31612 0.665456 4.31612 0.818183V3.27273C4.31612 3.49637 4.1404 3.68182 3.9285 3.68182C3.7166 3.68182 3.54088 3.49637 3.54088 3.27273V0.818183C3.54088 0.67091 3.43752 0.556365 3.29797 0.545456H3.28247C2.38319 0.567274 1.68547 1.39091 1.7785 2.34546L1.96973 6.02727C1.98523 6.31637 2.21263 6.54546 2.48655 6.54546H9.51542C9.78934 6.54546 10.0167 6.31637 10.0322 6.02727L10.2235 2.34546C10.3165 1.38 9.59811 0.545456 8.68333 0.545456Z" fill="currentColor"/>
</svg>
