<svg width="12" height="12" viewBox="0 0 12 12" fill="none" xmlns="http://www.w3.org/2000/svg">
<path d="M2.72726 0.545456H9.27272C9.87272 0.545456 10.3636 1.03637 10.3636 1.63637V3.44727C10.3636 3.74727 10.1182 3.99273 9.81817 3.99273H2.18181C1.88181 3.99273 1.63635 3.74727 1.63635 3.44727V1.63637C1.63635 1.03637 2.12726 0.545456 2.72726 0.545456Z" fill="currentColor"/>
<path d="M1.63635 5.0838V5.93471C1.63635 6.5238 1.95272 7.06926 2.4709 7.35835L4.08544 8.26926C4.42908 8.46017 4.64181 8.82562 4.64181 9.21835V10.3638C4.64181 10.9638 5.13272 11.4547 5.73272 11.4547H6.27817C6.87817 11.4547 7.36908 10.9638 7.36908 10.3638V9.21835C7.36908 8.82562 7.58181 8.46017 7.92544 8.26926L9.53999 7.35835C10.0527 7.06926 10.3745 6.5238 10.3745 5.93471V5.0838C10.3745 4.78381 10.1291 4.53835 9.82908 4.53835H2.18181C1.88181 4.53835 1.63635 4.77835 1.63635 5.0838Z" fill="currentColor"/>
</svg>
