<svg width="12" height="12" viewBox="0 0 12 12" fill="none" xmlns="http://www.w3.org/2000/svg">
<path d="M7.39721 0.545456C5.77721 0.545456 4.46267 1.86 4.46267 3.48C4.46267 5.1 5.77721 6.41455 7.39721 6.41455C9.01721 6.41455 10.3318 5.1 10.3318 3.48C10.3318 1.86 9.01721 0.545456 7.39721 0.545456Z" fill="currentColor"/>
<path d="M2.36177 6.69883C1.36359 6.69883 0.54541 7.51161 0.54541 8.51525C0.54541 9.51889 1.35814 10.3316 2.36177 10.3316C3.35996 10.3316 4.17814 9.51889 4.17814 8.51525C4.17814 7.51161 3.35996 6.69883 2.36177 6.69883Z" fill="currentColor"/>
<path d="M7.95882 8.65696C7.11337 8.65696 6.42609 9.34424 6.42609 10.1897C6.42609 11.0351 7.11337 11.7224 7.95882 11.7224C8.80427 11.7224 9.49155 11.0351 9.49155 10.1897C9.49155 9.34424 8.80427 8.65696 7.95882 8.65696Z" fill="currentColor"/>
</svg>
