<svg width="12" height="12" viewBox="0 0 12 12" fill="none" xmlns="http://www.w3.org/2000/svg">
<path d="M8.74949 5.14771L4.26587 0.664092C4.10768 0.50591 3.84587 0.50591 3.68768 0.664092C3.5295 0.822269 3.5295 1.08409 3.68768 1.24227L4.16223 1.71681L1.09132 4.78772C0.742229 5.1368 0.556774 5.49135 0.545865 5.84589C0.534956 6.22226 0.72041 6.59862 1.09132 6.97498L3.27859 9.16226C4.0095 9.88771 4.74041 9.88771 5.46585 9.16226L8.74949 5.87862C8.85858 5.76953 8.90767 5.62226 8.89676 5.48044C8.8913 5.36044 8.83676 5.23498 8.74949 5.14771Z" fill="currentColor"/>
<path d="M8.18177 11.7528H1.09086C0.867228 11.7528 0.681774 11.5674 0.681774 11.3438C0.681774 11.1201 0.867228 10.9347 1.09086 10.9347H8.18177C8.40541 10.9347 8.59087 11.1201 8.59087 11.3438C8.59087 11.5674 8.40541 11.7528 8.18177 11.7528Z" fill="currentColor"/>
<path d="M10.009 7.40574C9.86723 7.25301 9.60541 7.25301 9.46359 7.40574C9.2945 7.59119 8.4545 8.53483 8.4545 9.25483C8.4545 9.96392 9.02723 10.5366 9.73632 10.5366C10.4454 10.5366 11.0181 9.96392 11.0181 9.25483C11.0181 8.54028 10.1781 7.59119 10.009 7.40574Z" fill="currentColor"/>
</svg>
