<svg width="12" height="12" viewBox="0 0 12 12" fill="none" xmlns="http://www.w3.org/2000/svg">
<path d="M5.99996 0.545456C2.98905 0.545456 0.54541 2.98909 0.54541 6C0.54541 9.01091 2.98905 11.4545 5.99996 11.4545C9.01087 11.4545 11.4545 9.01091 11.4545 6C11.4545 2.98909 9.01087 0.545456 5.99996 0.545456ZM5.79814 8.31818C5.3345 8.78182 4.86541 8.78182 4.39632 8.31818L2.99996 6.91637C2.75996 6.67637 2.64541 6.43637 2.65086 6.19091C2.65632 5.96182 2.77632 5.73818 2.99996 5.51455L4.96359 3.55091L4.65814 3.25091C4.5545 3.14727 4.5545 2.98364 4.65814 2.88C4.76177 2.77637 4.92541 2.77637 5.02905 2.88L7.89268 5.74364C7.94723 5.79818 7.98541 5.88 7.98541 5.95637C7.99087 6.04909 7.96359 6.14182 7.89268 6.21273L5.79814 8.31818ZM8.53086 9.19637C8.07814 9.19637 7.71268 8.83091 7.71268 8.37818C7.71268 7.92 8.25268 7.31455 8.36177 7.19455C8.44905 7.09636 8.61814 7.09636 8.71087 7.19455C8.81996 7.30909 9.35996 7.92 9.35996 8.37818C9.34905 8.83091 8.98359 9.19637 8.53086 9.19637Z" fill="currentColor"/>
</svg>
