<svg width="12" height="12" viewBox="0 0 12 12" fill="none" xmlns="http://www.w3.org/2000/svg">
<path d="M5.6841 1.63636H2.79204C1.86825 1.63636 1.40403 2.08242 1.40403 2.97011V10.0275H3.9108V8.37136C3.9108 8.19029 4.06863 8.04013 4.25896 8.04013C4.44929 8.04013 4.60712 8.18587 4.60712 8.37136V10.0275H7.06747V2.97011C7.06747 2.08242 6.60789 1.63636 5.6841 1.63636ZM5.4195 5.94234H3.12163C2.9313 5.94234 2.77347 5.79218 2.77347 5.61111C2.77347 5.43004 2.9313 5.27988 3.12163 5.27988H5.4195C5.60983 5.27988 5.76766 5.43004 5.76766 5.61111C5.76766 5.79218 5.60983 5.94234 5.4195 5.94234ZM5.4195 4.2862H3.12163C2.9313 4.2862 2.77347 4.13604 2.77347 3.95497C2.77347 3.77389 2.9313 3.62374 3.12163 3.62374H5.4195C5.60983 3.62374 5.76766 3.77389 5.76766 3.95497C5.76766 4.13604 5.60983 4.2862 5.4195 4.2862Z" fill="currentColor"/>
<path d="M11.1063 9.69676H10.0526V8.37184C10.4936 8.23493 10.8139 7.84187 10.8139 7.37815V6.49487C10.8139 5.91633 10.3172 5.44377 9.70905 5.44377C9.10092 5.44377 8.60421 5.91633 8.60421 6.49487V7.37815C8.60421 7.83746 8.91988 8.2261 9.3516 8.36742V9.69676H0.893573C0.703244 9.69676 0.54541 9.84692 0.54541 10.028C0.54541 10.2091 0.703244 10.3592 0.893573 10.3592H9.68119C9.69048 10.3592 9.69512 10.3636 9.7044 10.3636C9.71369 10.3636 9.71833 10.3592 9.72762 10.3592H11.1063C11.2967 10.3592 11.4545 10.2091 11.4545 10.028C11.4545 9.84692 11.2967 9.69676 11.1063 9.69676Z" fill="currentColor"/>
</svg>
