<svg width="12" height="12" viewBox="0 0 12 12" fill="none" xmlns="http://www.w3.org/2000/svg">
<path d="M5.3345 1.98565L2.91814 0.791101C1.6145 0.152919 0.54541 0.80201 0.54541 2.2311V10.3256C0.54541 10.9474 1.06359 11.4547 1.69632 11.4547H5.74359C6.04359 11.4547 6.28905 11.2093 6.28905 10.9093V3.49656C6.28905 2.92383 5.85814 2.24201 5.3345 1.98565ZM4.36359 6.95471H2.47086C2.24723 6.95471 2.06177 6.76926 2.06177 6.54562C2.06177 6.32198 2.24723 6.13653 2.47086 6.13653H4.36359C4.58723 6.13653 4.77268 6.32198 4.77268 6.54562C4.77268 6.76926 4.59268 6.95471 4.36359 6.95471ZM4.36359 4.77292H2.47086C2.24723 4.77292 2.06177 4.58746 2.06177 4.36383C2.06177 4.14019 2.24723 3.95474 2.47086 3.95474H4.36359C4.58723 3.95474 4.77268 4.14019 4.77268 4.36383C4.77268 4.58746 4.59268 4.77292 4.36359 4.77292Z" fill="currentColor"/>
<path d="M11.4705 9.29405V10.0904C11.4705 10.8431 10.8596 11.4541 10.1068 11.4541H7.63594C7.34139 11.4541 7.10684 11.2195 7.10684 10.925V9.74678C7.69048 9.81769 8.30684 9.6486 8.74866 9.29405C9.11957 9.59405 9.59412 9.77405 10.1123 9.77405C10.6196 9.77405 11.0941 9.59405 11.4705 9.29405Z" fill="currentColor"/>
<path d="M11.4705 7.66392V7.66937C11.4268 8.38392 10.8432 8.95664 10.1123 8.95664C9.35412 8.95664 8.74866 8.34028 8.74866 7.59301C8.74866 8.42755 7.97957 9.09846 7.10684 8.92937V6.00028C7.10684 5.65119 7.42866 5.38937 7.7723 5.46573L8.74866 5.68392L9.01048 5.74392L10.1232 5.99483C10.3905 6.04937 10.6359 6.1421 10.8487 6.27846C10.8487 6.28392 10.8541 6.28392 10.8541 6.28392C10.9087 6.3221 10.9632 6.36573 11.0123 6.41483C11.2632 6.66573 11.4268 7.03119 11.465 7.56573C11.465 7.59846 11.4705 7.63119 11.4705 7.66392Z" fill="currentColor"/>
</svg>
