<svg width="12" height="12" viewBox="0 0 12 12" fill="none" xmlns="http://www.w3.org/2000/svg">
<path d="M2.60867 3.81818C1.74259 3.81818 1.04346 4.54909 1.04346 5.45455V9.81818C1.04346 10.7236 1.74259 11.4545 2.60867 11.4545H3.39128C3.9652 11.4545 4.43476 10.9636 4.43476 10.3636V4.90909C4.43476 4.30909 3.9652 3.81818 3.39128 3.81818H2.60867ZM3.13041 8.72727C3.13041 8.95091 2.95302 9.13636 2.73911 9.13636C2.5252 9.13636 2.3478 8.95091 2.3478 8.72727V6.54546C2.3478 6.32182 2.5252 6.13637 2.73911 6.13637C2.95302 6.13637 3.13041 6.32182 3.13041 6.54546V8.72727Z" fill="currentColor"/>
<path d="M9.91302 0.545456H6.78259C5.9165 0.545456 5.21737 1.27637 5.21737 2.18182V9.81818C5.21737 10.7236 5.9165 11.4545 6.78259 11.4545H7.04346C7.18954 11.4545 7.30433 11.3345 7.30433 11.1818V9.27273C7.30433 8.97273 7.53911 8.72727 7.82607 8.72727H8.86954C9.1565 8.72727 9.39128 8.97273 9.39128 9.27273V11.1818C9.39128 11.3345 9.50607 11.4545 9.65215 11.4545H9.91302C10.7791 11.4545 11.4782 10.7236 11.4782 9.81818V2.18182C11.4782 1.27637 10.7791 0.545456 9.91302 0.545456ZM7.69563 6.54546C7.69563 6.76909 7.51824 6.95455 7.30433 6.95455C7.09041 6.95455 6.91302 6.76909 6.91302 6.54546V3.81818C6.91302 3.59455 7.09041 3.40909 7.30433 3.40909C7.51824 3.40909 7.69563 3.59455 7.69563 3.81818V6.54546ZM9.78259 6.54546C9.78259 6.76909 9.6052 6.95455 9.39128 6.95455C9.17737 6.95455 8.99998 6.76909 8.99998 6.54546V3.81818C8.99998 3.59455 9.17737 3.40909 9.39128 3.40909C9.6052 3.40909 9.78259 3.59455 9.78259 3.81818V6.54546Z" fill="currentColor"/>
</svg>
