<svg width="12" height="12" viewBox="0 0 12 12" fill="none" xmlns="http://www.w3.org/2000/svg">
<path d="M5.23632 1.71818C5.23632 1.82182 5.14905 1.90909 5.04541 1.90909H4.42905C3.25086 1.90909 2.29086 2.86909 2.29086 4.04727V9.08182C2.29086 9.18546 2.20359 9.27273 2.09996 9.27273H1.71814C1.06905 9.27273 0.54541 8.74909 0.54541 8.1V1.71818C0.54541 1.06909 1.06905 0.545456 1.71814 0.545456H4.06359C4.71268 0.545456 5.23632 1.06909 5.23632 1.71818Z" fill="currentColor"/>
<path d="M11.4547 1.71818V8.1C11.4547 8.74909 10.9311 9.27273 10.282 9.27273H9.93835C9.83471 9.27273 9.74744 9.18546 9.74744 9.08182V4.04727C9.74744 2.86909 8.78744 1.90909 7.60926 1.90909H6.95471C6.85108 1.90909 6.76381 1.82182 6.76381 1.71818C6.76381 1.06909 7.28744 0.545456 7.93653 0.545456H10.282C10.9311 0.545456 11.4547 1.06909 11.4547 1.71818Z" fill="currentColor"/>
<path d="M7.60861 2.72727H4.42862C3.69771 2.72727 3.10862 3.31637 3.10862 4.04727V10.1345C3.10862 10.8655 3.69771 11.4545 4.42862 11.4545H5.3177C5.47043 11.4545 5.59043 11.3345 5.59043 11.1818V9.81818C5.59043 9.59455 5.77588 9.40909 5.99952 9.40909C6.22316 9.40909 6.40861 9.59455 6.40861 9.81818V11.1818C6.40861 11.3345 6.52861 11.4545 6.68134 11.4545H7.61406C8.33952 11.4545 8.92861 10.8655 8.92861 10.14V4.04727C8.92861 3.31637 8.33952 2.72727 7.60861 2.72727ZM7.09043 7.5H4.90862C4.68498 7.5 4.49953 7.31455 4.49953 7.09091C4.49953 6.86727 4.68498 6.68182 4.90862 6.68182H7.09043C7.31406 6.68182 7.49952 6.86727 7.49952 7.09091C7.49952 7.31455 7.31406 7.5 7.09043 7.5ZM7.09043 5.86364H4.90862C4.68498 5.86364 4.49953 5.67818 4.49953 5.45455C4.49953 5.23091 4.68498 5.04546 4.90862 5.04546H7.09043C7.31406 5.04546 7.49952 5.23091 7.49952 5.45455C7.49952 5.67818 7.31406 5.86364 7.09043 5.86364Z" fill="currentColor"/>
</svg>
