<svg width="12" height="12" viewBox="0 0 12 12" fill="none" xmlns="http://www.w3.org/2000/svg">
<path d="M7.36989 3.2168C7.36989 2.91164 7.21919 2.62925 6.96346 2.46073L5.13682 1.24463C4.83086 1.03967 4.429 1.03967 4.12304 1.24463L2.2964 2.46073C2.04524 2.62925 1.88997 2.91164 1.88997 3.2168V5.80383C1.88997 5.93136 1.99044 6.03157 2.1183 6.03157H7.14156C7.26942 6.03157 7.36989 5.93136 7.36989 5.80383V3.2168ZM4.62993 4.8929C4.19154 4.8929 3.83078 4.5331 3.83078 4.09585C3.83078 3.6586 4.19154 3.29879 4.62993 3.29879C5.06833 3.29879 5.42909 3.6586 5.42909 4.09585C5.42909 4.5331 5.06833 4.8929 4.62993 4.8929Z" fill="currentColor"/>
<path d="M10.5665 9.67588H9.98655V8.30948C10.4204 8.16829 10.7355 7.76293 10.7355 7.28469V6.37375C10.7355 5.77709 10.2468 5.28974 9.64862 5.28974C9.0504 5.28974 8.56177 5.77709 8.56177 6.37375V7.28469C8.56177 7.75837 8.8723 8.15918 9.29699 8.30493V9.67588H7.36989V6.94309C7.36989 6.81555 7.26942 6.71535 7.14156 6.71535H2.1183C1.99044 6.71535 1.88997 6.81555 1.88997 6.94309V9.67588H1.43332C1.24608 9.67588 1.09082 9.83074 1.09082 10.0175C1.09082 10.2042 1.24608 10.3591 1.43332 10.3591H9.62122C9.63035 10.3591 9.63492 10.3636 9.64405 10.3636C9.65319 10.3636 9.65775 10.3591 9.66689 10.3591H10.5665C10.7537 10.3591 10.909 10.2042 10.909 10.0175C10.909 9.83074 10.7537 9.67588 10.5665 9.67588ZM4.28744 8.30948C4.28744 8.12274 4.4427 7.96789 4.62993 7.96789C4.81716 7.96789 4.97243 8.12274 4.97243 8.30948V9.67588H4.28744V8.30948Z" fill="currentColor"/>
</svg>
