<svg width="12" height="12" viewBox="0 0 12 12" fill="none" xmlns="http://www.w3.org/2000/svg">
<path d="M10.5666 10.1993H1.43341C1.24618 10.1993 1.09091 10.3602 1.09091 10.5542C1.09091 10.7482 1.24618 10.9091 1.43341 10.9091H10.5666C10.7538 10.9091 10.9091 10.7482 10.9091 10.5542C10.9091 10.3602 10.7538 10.1993 10.5666 10.1993Z" fill="currentColor"/>
<path d="M8.2833 1.09091H3.7167C2.34673 1.09091 1.89007 1.93787 1.89007 2.98357V10.5542H10.1099V2.98357C10.1099 1.93787 9.65328 1.09091 8.2833 1.09091ZM5.08668 8.30668H3.7167C3.52947 8.30668 3.37421 8.1458 3.37421 7.95181C3.37421 7.75781 3.52947 7.59693 3.7167 7.59693H5.08668C5.27391 7.59693 5.42918 7.75781 5.42918 7.95181C5.42918 8.1458 5.27391 8.30668 5.08668 8.30668ZM5.08668 6.17744H3.7167C3.52947 6.17744 3.37421 6.01656 3.37421 5.82256C3.37421 5.62856 3.52947 5.46769 3.7167 5.46769H5.08668C5.27391 5.46769 5.42918 5.62856 5.42918 5.82256C5.42918 6.01656 5.27391 6.17744 5.08668 6.17744ZM5.08668 4.04819H3.7167C3.52947 4.04819 3.37421 3.88732 3.37421 3.69332C3.37421 3.49932 3.52947 3.33844 3.7167 3.33844H5.08668C5.27391 3.33844 5.42918 3.49932 5.42918 3.69332C5.42918 3.88732 5.27391 4.04819 5.08668 4.04819ZM8.2833 8.30668H6.91332C6.72609 8.30668 6.57083 8.1458 6.57083 7.95181C6.57083 7.75781 6.72609 7.59693 6.91332 7.59693H8.2833C8.47053 7.59693 8.6258 7.75781 8.6258 7.95181C8.6258 8.1458 8.47053 8.30668 8.2833 8.30668ZM8.2833 6.17744H6.91332C6.72609 6.17744 6.57083 6.01656 6.57083 5.82256C6.57083 5.62856 6.72609 5.46769 6.91332 5.46769H8.2833C8.47053 5.46769 8.6258 5.62856 8.6258 5.82256C8.6258 6.01656 8.47053 6.17744 8.2833 6.17744ZM8.2833 4.04819H6.91332C6.72609 4.04819 6.57083 3.88732 6.57083 3.69332C6.57083 3.49932 6.72609 3.33844 6.91332 3.33844H8.2833C8.47053 3.33844 8.6258 3.49932 8.6258 3.69332C8.6258 3.88732 8.47053 4.04819 8.2833 4.04819Z" fill="currentColor"/>
</svg>
