<svg width="12" height="12" viewBox="0 0 12 12" fill="none" xmlns="http://www.w3.org/2000/svg">
<path d="M1.63635 6.81818V9.76364C1.63635 10.6909 2.39453 11.4545 3.32726 11.4545H8.67272C9.59999 11.4545 10.3636 10.6964 10.3636 9.76364V6.81818C10.3636 6.66546 10.2436 6.54546 10.0909 6.54546H1.90908C1.75635 6.54546 1.63635 6.66546 1.63635 6.81818ZM4.29817 9.48C4.17272 9.61091 3.99817 9.68182 3.81817 9.68182C3.77453 9.68182 3.7309 9.67636 3.68726 9.67091C3.64363 9.66 3.59999 9.64909 3.55635 9.62727C3.51817 9.61091 3.47453 9.58909 3.44181 9.56728C3.40363 9.54 3.36544 9.51273 3.33817 9.48C3.20726 9.35455 3.13635 9.18 3.13635 9C3.13635 8.82 3.20726 8.64546 3.33817 8.52C3.36544 8.48727 3.40363 8.46 3.44181 8.43273C3.47453 8.41091 3.51817 8.38909 3.55635 8.37273C3.59999 8.35091 3.64363 8.34 3.68726 8.32909C3.90544 8.28546 4.13999 8.36182 4.29817 8.52C4.42908 8.64546 4.49999 8.82 4.49999 9C4.49999 9.18 4.42908 9.35455 4.29817 9.48ZM8.66181 9.48C8.63453 9.51273 8.59635 9.54 8.55817 9.56728C8.52544 9.58909 8.48181 9.61091 8.44363 9.62727C8.39999 9.64909 8.35635 9.66 8.31817 9.67091C8.26908 9.67636 8.22544 9.68182 8.18181 9.68182C8.13817 9.68182 8.09453 9.67636 8.0509 9.67091C8.00726 9.66 7.96363 9.64909 7.91999 9.62727C7.88181 9.61091 7.83817 9.58909 7.80544 9.56728C7.76726 9.54 7.72908 9.51273 7.70181 9.48C7.5709 9.35455 7.49999 9.18 7.49999 9C7.49999 8.82 7.5709 8.64546 7.70181 8.52C7.72908 8.48727 7.76726 8.46 7.80544 8.43273C7.83817 8.41091 7.88181 8.38909 7.91999 8.37273C7.96363 8.35091 8.00726 8.34 8.0509 8.32909C8.13817 8.31273 8.22544 8.31273 8.31817 8.32909C8.35635 8.34 8.39999 8.35091 8.44363 8.37273C8.48181 8.38909 8.52544 8.41091 8.55817 8.43273C8.59635 8.46 8.63453 8.48727 8.66181 8.52C8.79272 8.64546 8.86363 8.82 8.86363 9C8.86363 9.18 8.79272 9.35455 8.66181 9.48Z" fill="currentColor"/>
<path d="M8.67272 0.545456H3.32726C2.39453 0.545456 1.63635 1.30364 1.63635 2.23637V3.54546C1.63635 3.69818 1.75635 3.81818 1.90908 3.81818H10.0909C10.2436 3.81818 10.3636 3.69818 10.3636 3.54546V2.23637C10.3636 1.30364 9.60544 0.545456 8.67272 0.545456ZM7.36363 2.59091H4.63635C4.41272 2.59091 4.22726 2.40546 4.22726 2.18182C4.22726 1.95818 4.41272 1.77273 4.63635 1.77273H7.36363C7.58726 1.77273 7.77272 1.95818 7.77272 2.18182C7.77272 2.40546 7.58726 2.59091 7.36363 2.59091Z" fill="currentColor"/>
<path d="M10.0909 6H1.90908C1.75635 6 1.63635 5.88 1.63635 5.72727V4.63636C1.63635 4.48364 1.75635 4.36364 1.90908 4.36364H10.0909C10.2436 4.36364 10.3636 4.48364 10.3636 4.63636V5.72727C10.3636 5.88 10.2436 6 10.0909 6Z" fill="currentColor"/>
</svg>
