<svg width="12" height="12" viewBox="0 0 12 12" fill="none" xmlns="http://www.w3.org/2000/svg">
<path d="M11.4546 4.09091C11.4546 5.86909 10.1455 7.33637 8.44368 7.59273V7.56C8.27459 5.44364 6.5564 3.72546 4.42367 3.55637H4.4073C4.66367 1.85455 6.13095 0.545456 7.90913 0.545456C9.86731 0.545456 11.4546 2.13273 11.4546 4.09091Z" fill="currentColor"/>
<path d="M7.62544 7.62546C7.48908 5.89636 6.10362 4.51091 4.37453 4.37455C4.2818 4.36909 4.18362 4.36364 4.0909 4.36364C2.13271 4.36364 0.545441 5.95091 0.545441 7.90909C0.545441 9.86727 2.13271 11.4545 4.0909 11.4545C6.04908 11.4545 7.63635 9.86727 7.63635 7.90909C7.63635 7.81637 7.6309 7.71818 7.62544 7.62546ZM4.5709 8.38909L4.0909 9.27273L3.6109 8.38909L2.72726 7.90909L3.6109 7.42909L4.0909 6.54546L4.5709 7.42909L5.45453 7.90909L4.5709 8.38909Z" fill="currentColor"/>
</svg>
