<svg width="12" height="12" viewBox="0 0 12 12" fill="none" xmlns="http://www.w3.org/2000/svg">
<path d="M10.8487 6.54546V7.09091H10.3742C9.97056 7.09091 9.64329 7.41818 9.64329 7.82727V7.99091C9.64329 8.4 9.31602 8.72727 8.90693 8.72727C8.50329 8.72727 8.17602 8.4 8.17602 7.99091V7.82727C8.17602 7.41818 7.84329 7.09091 7.43966 7.09091C7.03602 7.09091 6.70875 7.41818 6.70875 7.82727V7.99091C6.70875 8.4 6.37602 8.72727 5.97238 8.72727C5.56875 8.72727 5.23602 8.4 5.23602 7.99091V7.82727C5.23602 7.41818 4.90874 7.09091 4.5051 7.09091C4.10146 7.09091 3.76874 7.41818 3.76874 7.82727V7.99091C3.76874 8.4 3.44146 8.72727 3.03783 8.72727C2.62874 8.72727 2.30146 8.4 2.30146 7.99091V7.81637C2.30146 7.41273 1.97965 7.08546 1.58146 7.08H1.15055V6.54546C1.15055 5.79273 1.71783 5.15455 2.48692 4.96909C2.63965 4.93091 2.79783 4.90909 2.96692 4.90909H9.03238C9.20148 4.90909 9.35966 4.93091 9.51238 4.96909C10.2815 5.15455 10.8487 5.79273 10.8487 6.54546Z" fill="currentColor"/>
<path d="M9.51298 3.36546V4.13455C9.3548 4.10182 9.19662 4.09091 9.03298 4.09091H2.96756C2.80392 4.09091 2.64574 4.10727 2.48756 4.14V3.36546C2.48756 2.71091 3.07665 2.18182 3.80756 2.18182H8.19298C8.92389 2.18182 9.51298 2.71091 9.51298 3.36546Z" fill="currentColor"/>
<path d="M4.22726 1.39006V2.18642H3.80726C3.66544 2.18642 3.53453 2.20279 3.40908 2.23551V1.39006C3.40908 1.19915 3.59453 1.03551 3.81817 1.03551C4.0418 1.03551 4.22726 1.19915 4.22726 1.39006Z" fill="currentColor"/>
<path d="M8.5909 1.26989V2.23534C8.46544 2.19717 8.33453 2.1808 8.19271 2.1808H7.77271V1.26989C7.77271 1.04626 7.95817 0.860797 8.1818 0.860797C8.40544 0.860797 8.5909 1.04626 8.5909 1.26989Z" fill="currentColor"/>
<path d="M6.40908 0.992729V2.18182H5.5909V0.992729C5.5909 0.747274 5.77635 0.545456 5.99999 0.545456C6.22362 0.545456 6.40908 0.747274 6.40908 0.992729Z" fill="currentColor"/>
<path d="M11.4545 11.0457C11.4545 11.2694 11.2691 11.4548 11.0454 11.4548H0.954532C0.730895 11.4548 0.545441 11.2694 0.545441 11.0457C0.545441 10.8221 0.730895 10.6366 0.954532 10.6366H1.1509V7.89846H1.48362V7.93664C1.48362 8.66755 1.96362 9.34391 2.67817 9.50209C3.23453 9.633 3.76362 9.453 4.12362 9.09846C4.3309 8.89118 4.66908 8.88573 4.87635 9.093C5.15999 9.37118 5.54726 9.54573 5.97271 9.54573C6.39817 9.54573 6.78544 9.37664 7.06908 9.093C7.27635 8.89118 7.60908 8.89118 7.8218 9.09846C8.17635 9.453 8.70544 9.633 9.26726 9.50209C9.9818 9.34391 10.4618 8.66755 10.4618 7.93664V7.90936H10.8491V10.6366H11.0454C11.2691 10.6366 11.4545 10.8221 11.4545 11.0457Z" fill="currentColor"/>
</svg>
