<svg width="12" height="12" viewBox="0 0 12 12" fill="none" xmlns="http://www.w3.org/2000/svg">
<path d="M8.18182 0.545456H3.81818C2.31273 0.545456 1.09091 1.76727 1.09091 3.27273V8.72727C1.09091 10.2327 2.31273 11.4545 3.81818 11.4545H8.18182C9.68728 11.4545 10.9091 10.2327 10.9091 8.72727V3.27273C10.9091 1.76727 9.68728 0.545456 8.18182 0.545456ZM4.28728 9.61636C4.18364 9.72 4.04728 9.77455 3.90546 9.77455C3.75818 9.77455 3.62182 9.72 3.51818 9.61636C3.41455 9.51273 3.35455 9.37637 3.35455 9.22909C3.35455 9.08727 3.41455 8.94546 3.51818 8.84182C3.56728 8.79273 3.62728 8.75455 3.69273 8.72727C3.82909 8.67273 3.97637 8.67273 4.11273 8.72727C4.14546 8.73818 4.17818 8.75455 4.20546 8.77637C4.23818 8.79273 4.26546 8.82 4.28728 8.84182C4.39091 8.94546 4.45091 9.08727 4.45091 9.22909C4.45091 9.37637 4.39091 9.51273 4.28728 9.61636ZM3.35455 7.04727C3.35455 6.97637 3.37091 6.90546 3.39818 6.84C3.42546 6.76909 3.46364 6.71455 3.51818 6.66C3.64364 6.53455 3.83455 6.47455 4.00909 6.51273C4.04182 6.51818 4.08 6.52909 4.11273 6.54546C4.14546 6.55637 4.17818 6.57273 4.20546 6.59455C4.23818 6.61091 4.26546 6.63818 4.28728 6.66C4.33637 6.71455 4.38 6.76909 4.40728 6.84C4.43455 6.90546 4.44546 6.97637 4.44546 7.04727C4.44546 7.19455 4.39091 7.33091 4.28728 7.43455C4.18364 7.53818 4.04728 7.59273 3.90546 7.59273C3.82909 7.59273 3.75818 7.57637 3.69273 7.54909C3.62728 7.52182 3.56728 7.48364 3.51818 7.43455C3.41455 7.33091 3.35455 7.19455 3.35455 7.04727ZM6.46909 9.61636C6.42 9.66546 6.36 9.70364 6.29455 9.73091C6.22909 9.75818 6.15818 9.77455 6.08182 9.77455C5.94 9.77455 5.80364 9.72 5.7 9.61636C5.59637 9.51273 5.53637 9.37637 5.53637 9.22909C5.53637 9.19091 5.54182 9.15818 5.54728 9.12C5.55818 9.08727 5.56909 9.05455 5.58 9.02182C5.59637 8.98909 5.61273 8.95637 5.62909 8.92364C5.65091 8.89637 5.67273 8.86909 5.7 8.84182C5.74909 8.79273 5.80909 8.75455 5.87455 8.72727C6.07637 8.64546 6.31637 8.68909 6.46909 8.84182C6.57273 8.94546 6.62728 9.08727 6.62728 9.22909C6.62728 9.37637 6.57273 9.51273 6.46909 9.61636ZM6.46909 7.43455C6.36546 7.53818 6.22909 7.59273 6.08182 7.59273C5.94 7.59273 5.80364 7.53818 5.7 7.43455C5.59637 7.33091 5.53637 7.19455 5.53637 7.04727C5.53637 6.90546 5.59637 6.76364 5.7 6.66C5.90182 6.45818 6.26728 6.45818 6.46909 6.66C6.51818 6.71455 6.56182 6.76909 6.58909 6.84C6.61637 6.90546 6.62728 6.97637 6.62728 7.04727C6.62728 7.19455 6.57273 7.33091 6.46909 7.43455ZM4.36364 5.16C3.80182 5.16 3.33818 4.70182 3.33818 4.13455V3.58909C3.33818 3.02727 3.79637 2.56364 4.36364 2.56364H7.63637C8.19818 2.56364 8.66182 3.02182 8.66182 3.58909V4.13455C8.66182 4.69636 8.20364 5.16 7.63637 5.16H4.36364ZM8.65091 9.61636C8.54728 9.72 8.41091 9.77455 8.26364 9.77455C8.19273 9.77455 8.12182 9.75818 8.05637 9.73091C7.99091 9.70364 7.93091 9.66546 7.88182 9.61636C7.77818 9.51273 7.72364 9.37637 7.72364 9.22909C7.72364 9.08727 7.77818 8.94546 7.88182 8.84182C8.02909 8.68909 8.27455 8.64546 8.47637 8.72727C8.54182 8.75455 8.60182 8.79273 8.65091 8.84182C8.75455 8.94546 8.80909 9.08727 8.80909 9.22909C8.80909 9.37637 8.75455 9.51273 8.65091 9.61636ZM8.77091 7.25455C8.74364 7.32 8.70546 7.38 8.65091 7.43455C8.54728 7.53818 8.41091 7.59273 8.26364 7.59273C8.12182 7.59273 7.98546 7.53818 7.88182 7.43455C7.77818 7.33091 7.71818 7.19455 7.71818 7.04727C7.71818 6.90546 7.77818 6.76364 7.88182 6.66C8.08364 6.45818 8.44909 6.45818 8.65091 6.66C8.75455 6.76364 8.81455 6.90546 8.81455 7.04727C8.81455 7.11818 8.79818 7.18909 8.77091 7.25455Z" fill="currentColor"/>
</svg>
