<svg width="12" height="12" viewBox="0 0 12 12" fill="none" xmlns="http://www.w3.org/2000/svg">
<path d="M7.84098 1.70408V0.921632C7.84098 0.715989 7.67407 0.545456 7.4728 0.545456C7.27153 0.545456 7.10462 0.715989 7.10462 0.921632V1.67398H3.91372V0.921632C3.91372 0.715989 3.74681 0.545456 3.54554 0.545456C3.34427 0.545456 3.17736 0.715989 3.17736 0.921632V1.70408C1.8519 1.82947 1.20881 2.63699 1.11063 3.83574C1.10081 3.98119 1.21863 4.10157 1.35609 4.10157H9.66225C9.80462 4.10157 9.92243 3.97618 9.90771 3.83574C9.80953 2.63699 9.16643 1.82947 7.84098 1.70408Z" fill="currentColor"/>
<path d="M9.43634 4.85384H1.58179C1.31179 4.85384 1.09088 5.07952 1.09088 5.35539V8.44504C1.09088 9.94974 1.82724 10.9529 3.54543 10.9529H5.96561C6.30434 10.9529 6.53997 10.6168 6.43197 10.2908C6.33379 9.9999 6.25034 9.6789 6.25034 9.44818C6.25034 7.92843 7.46288 6.68956 8.95034 6.68956C9.0927 6.68956 9.23506 6.69959 9.37252 6.72467C9.66706 6.76981 9.93215 6.53407 9.93215 6.23313V5.3604C9.92725 5.07952 9.70634 4.85384 9.43634 4.85384ZM4.13943 8.80116C4.09034 8.8463 4.03634 8.88141 3.97743 8.90648C3.91852 8.93156 3.8547 8.94661 3.79088 8.94661C3.72706 8.94661 3.66324 8.93156 3.60434 8.90648C3.54543 8.88141 3.49143 8.8463 3.44234 8.80116C3.35397 8.70586 3.29997 8.57545 3.29997 8.44504C3.29997 8.41495 3.30488 8.37984 3.30979 8.34974C3.3147 8.31463 3.32452 8.28454 3.33925 8.25445C3.34906 8.22435 3.36379 8.19426 3.38343 8.16417C3.39815 8.13909 3.4227 8.11401 3.44234 8.08893C3.49143 8.04379 3.54543 8.00868 3.60434 7.9836C3.72215 7.93344 3.85961 7.93344 3.97743 7.9836C4.03634 8.00868 4.09034 8.04379 4.13943 8.08893C4.15906 8.11401 4.18361 8.13909 4.19834 8.16417C4.21797 8.19426 4.2327 8.22435 4.24252 8.25445C4.25725 8.28454 4.26706 8.31463 4.27197 8.34974C4.27688 8.37984 4.28179 8.41495 4.28179 8.44504C4.28179 8.57545 4.22779 8.70586 4.13943 8.80116ZM4.13943 7.04567C4.09034 7.09081 4.03634 7.12592 3.97743 7.151C3.91852 7.17608 3.8547 7.19112 3.79088 7.19112C3.72706 7.19112 3.66324 7.17608 3.60434 7.151C3.54052 7.12592 3.49143 7.09081 3.44234 7.04567C3.35397 6.95037 3.29997 6.81996 3.29997 6.68956C3.29997 6.55915 3.35397 6.42874 3.44234 6.33344C3.49143 6.2883 3.54543 6.25319 3.60434 6.22811C3.72215 6.17796 3.85961 6.17796 3.97743 6.22811C4.03634 6.25319 4.09034 6.2883 4.13943 6.33344C4.15906 6.35852 4.18361 6.3836 4.19834 6.40868C4.21797 6.43877 4.2327 6.46887 4.24252 6.49896C4.25725 6.52905 4.26706 6.55915 4.27197 6.58924C4.27688 6.62435 4.28179 6.65946 4.28179 6.68956C4.28179 6.81996 4.22779 6.95037 4.13943 7.04567ZM5.85761 7.04567C5.76434 7.13595 5.64161 7.19112 5.50906 7.19112C5.44524 7.19112 5.38143 7.17608 5.32252 7.151C5.2587 7.12592 5.20961 7.09081 5.16052 7.04567C5.07215 6.95037 5.01815 6.81996 5.01815 6.68956C5.01815 6.65946 5.02306 6.62435 5.02797 6.58924C5.03288 6.55915 5.0427 6.52905 5.05743 6.49896C5.06725 6.46887 5.08197 6.43877 5.10161 6.40868C5.12124 6.3836 5.14088 6.35852 5.16052 6.33344C5.34215 6.14786 5.67106 6.14786 5.85761 6.33344C5.87724 6.35852 5.89688 6.3836 5.91652 6.40868C5.93615 6.43877 5.95088 6.46887 5.9607 6.49896C5.97543 6.52905 5.98524 6.55915 5.99015 6.58924C5.99506 6.62435 5.99997 6.65946 5.99997 6.68956C5.99997 6.81996 5.94597 6.95037 5.85761 7.04567Z" fill="currentColor"/>
<path d="M10.3347 8.02884C9.56888 7.2464 8.32197 7.2464 7.55615 8.02884C6.79034 8.81129 6.79034 10.0853 7.55615 10.8677C8.32197 11.6502 9.56888 11.6502 10.3347 10.8677C11.1005 10.0853 11.1005 8.81129 10.3347 8.02884ZM9.96161 9.72916C9.89779 9.79937 9.80452 9.8395 9.70143 9.8395H9.33815V10.2307C9.33815 10.3361 9.29888 10.4263 9.23015 10.4966C9.16143 10.5668 9.07306 10.6069 8.96997 10.6069C8.7687 10.6069 8.60179 10.4364 8.60179 10.2307V9.8395H8.23361C8.03234 9.8395 7.86543 9.67398 7.86543 9.46333C7.86543 9.25768 8.03234 9.08715 8.23361 9.08715H8.60179V8.73104C8.60179 8.52539 8.76379 8.35486 8.96997 8.35486C9.17124 8.35486 9.33815 8.52539 9.33815 8.73104V9.08715H9.70143C9.90761 9.08715 10.0696 9.25768 10.0696 9.46333C10.0696 9.56865 10.0303 9.66395 9.96161 9.72916Z" fill="currentColor"/>
</svg>
