<svg width="12" height="12" viewBox="0 0 12 12" fill="none" xmlns="http://www.w3.org/2000/svg">
<path d="M8.30312 1.75993V0.939764C8.30312 0.724209 8.13827 0.545456 7.93948 0.545456C7.74069 0.545456 7.57584 0.724209 7.57584 0.939764V1.72838H4.42434V0.939764C4.42434 0.724209 4.25949 0.545456 4.06071 0.545456C3.86192 0.545456 3.69707 0.724209 3.69707 0.939764V1.75993C2.38798 1.89136 1.75283 2.73781 1.65586 3.99434C1.64616 4.1468 1.76252 4.27298 1.89828 4.27298H10.1019C10.2425 4.27298 10.3589 4.14155 10.3443 3.99434C10.2474 2.73781 9.61221 1.89136 8.30312 1.75993Z" fill="currentColor"/>
<path d="M9.87878 5.06152H2.1212C1.85453 5.06152 1.63635 5.29808 1.63635 5.58724V8.82582C1.63635 10.4031 2.36363 11.4545 4.0606 11.4545H7.93938C9.63635 11.4545 10.3636 10.4031 10.3636 8.82582V5.58724C10.3636 5.29808 10.1454 5.06152 9.87878 5.06152ZM7.37696 7.76908L7.13453 8.03721H7.12969L5.66059 9.63021C5.59756 9.69856 5.46666 9.77216 5.37453 9.78268L4.71999 9.88783C4.48241 9.92463 4.31756 9.74062 4.3515 9.48826L4.44363 8.77325C4.45817 8.67336 4.5212 8.53666 4.58423 8.46306L6.05817 6.87006L6.3006 6.60193C6.4606 6.42843 6.63999 6.30225 6.83393 6.30225C6.99878 6.30225 7.17817 6.38637 7.37696 6.60193C7.81332 7.0751 7.67272 7.44837 7.37696 7.76908Z" fill="currentColor"/>
</svg>
