<svg width="12" height="12" viewBox="0 0 12 12" fill="none" xmlns="http://www.w3.org/2000/svg">
<path d="M8.3751 1.78V1C8.3751 0.795 8.2051 0.625 8.0001 0.625C7.7951 0.625 7.6251 0.795 7.6251 1V1.75H4.37511V1C4.37511 0.795 4.20511 0.625 4.00011 0.625C3.79511 0.625 3.62511 0.795 3.62511 1V1.78C2.27511 1.905 1.62012 2.71 1.52012 3.905C1.51012 4.05 1.63012 4.17 1.77012 4.17H10.2301C10.3751 4.17 10.4951 4.045 10.4801 3.905C10.3801 2.71 9.7251 1.905 8.3751 1.78Z" fill="currentColor"/>
<path d="M10 4.91992H2C1.725 4.91992 1.5 5.1449 1.5 5.4199V8.4999C1.5 9.9999 2.25 10.9999 4 10.9999H8C9.75 10.9999 10.5 9.9999 10.5 8.4999V5.4199C10.5 5.1449 10.275 4.91992 10 4.91992ZM7.83 9.7649C7.755 9.8399 7.66 9.8749 7.565 9.8749C7.47 9.8749 7.375 9.8399 7.3 9.7649L6.93 9.3949C6.64 9.5849 6.29 9.6999 5.915 9.6999C4.895 9.6999 4.065 8.8699 4.065 7.8499C4.065 6.8299 4.895 5.9999 5.915 5.9999C6.935 5.9999 7.765 6.8299 7.765 7.8499C7.765 8.2249 7.65 8.5749 7.46 8.8649L7.83 9.2349C7.975 9.3799 7.975 9.6199 7.83 9.7649Z" fill="currentColor"/>
</svg>
