<svg width="12" height="12" viewBox="0 0 12 12" fill="none" xmlns="http://www.w3.org/2000/svg">
<path d="M8.30312 1.6992V0.920049C8.30312 0.715271 8.13827 0.545456 7.93948 0.545456C7.74069 0.545456 7.57584 0.715271 7.57584 0.920049V1.66923H4.42434V0.920049C4.42434 0.715271 4.25949 0.545456 4.06071 0.545456C3.86192 0.545456 3.69707 0.715271 3.69707 0.920049V1.6992C2.38798 1.82407 1.75283 2.62819 1.65586 3.82189C1.64616 3.96674 1.76252 4.08661 1.89828 4.08661H10.1019C10.2425 4.08661 10.3589 3.96174 10.3443 3.82189C10.2474 2.62819 9.61221 1.82407 8.30312 1.6992Z" fill="currentColor"/>
<path d="M9.87878 4.83571H2.1212C1.85453 4.83571 1.63635 5.06045 1.63635 5.33515V8.41181C1.63635 9.91018 2.36363 10.9091 4.0606 10.9091H7.93938C9.63635 10.9091 10.3636 9.91018 10.3636 8.41181V5.33515C10.3636 5.06045 10.1454 4.83571 9.87878 4.83571ZM4.64726 9.01615C4.59878 9.0611 4.54544 9.09606 4.48726 9.12104C4.42908 9.14601 4.36605 9.16099 4.30302 9.16099C4.23999 9.16099 4.17696 9.14601 4.11878 9.12104C4.0606 9.09606 4.00726 9.0611 3.95878 9.01615C3.8715 8.92125 3.81817 8.79139 3.81817 8.66153C3.81817 8.53168 3.8715 8.40182 3.95878 8.30692C4.00726 8.26197 4.0606 8.22701 4.11878 8.20203C4.23514 8.15209 4.3709 8.15209 4.48726 8.20203C4.54544 8.22701 4.59878 8.26197 4.64726 8.30692C4.73453 8.40182 4.78787 8.53168 4.78787 8.66153C4.78787 8.79139 4.73453 8.92125 4.64726 9.01615ZM4.74908 7.10323C4.72484 7.16316 4.6909 7.2181 4.64726 7.26805C4.59878 7.313 4.54544 7.34796 4.48726 7.37294C4.42908 7.39791 4.36605 7.41289 4.30302 7.41289C4.23999 7.41289 4.17696 7.39791 4.11878 7.37294C4.0606 7.34796 4.00726 7.313 3.95878 7.26805C3.91514 7.2181 3.8812 7.16316 3.85696 7.10323C3.83272 7.04329 3.81817 6.97836 3.81817 6.91343C3.81817 6.84851 3.83272 6.78358 3.85696 6.72364C3.8812 6.66371 3.91514 6.60877 3.95878 6.55882C4.00726 6.51387 4.0606 6.47891 4.11878 6.45393C4.23514 6.40399 4.3709 6.40399 4.48726 6.45393C4.54544 6.47891 4.59878 6.51387 4.64726 6.55882C4.6909 6.60877 4.72484 6.66371 4.74908 6.72364C4.77332 6.78358 4.78787 6.84851 4.78787 6.91343C4.78787 6.97836 4.77332 7.04329 4.74908 7.10323ZM6.34423 7.26805C6.29575 7.313 6.24241 7.34796 6.18423 7.37294C6.12605 7.39791 6.06302 7.41289 5.99999 7.41289C5.93696 7.41289 5.87393 7.39791 5.81575 7.37294C5.75756 7.34796 5.70423 7.313 5.65575 7.26805C5.56847 7.17315 5.51514 7.04329 5.51514 6.91343C5.51514 6.78358 5.56847 6.65372 5.65575 6.55882C5.70423 6.51387 5.75756 6.47891 5.81575 6.45393C5.93211 6.39899 6.06787 6.39899 6.18423 6.45393C6.24241 6.47891 6.29575 6.51387 6.34423 6.55882C6.4315 6.65372 6.48484 6.78358 6.48484 6.91343C6.48484 7.04329 6.4315 7.17315 6.34423 7.26805Z" fill="currentColor"/>
</svg>
