<svg width="12" height="12" viewBox="0 0 12 12" fill="none" xmlns="http://www.w3.org/2000/svg">
<path d="M8.3751 1.78V1C8.3751 0.795 8.2051 0.625 8.0001 0.625C7.7951 0.625 7.6251 0.795 7.6251 1V1.75H4.37511V1C4.37511 0.795 4.20511 0.625 4.00011 0.625C3.79511 0.625 3.62511 0.795 3.62511 1V1.78C2.27511 1.905 1.62012 2.71 1.52012 3.905C1.51012 4.05 1.63012 4.17 1.77012 4.17H10.2301C10.3751 4.17 10.4951 4.045 10.4801 3.905C10.3801 2.71 9.7251 1.905 8.3751 1.78Z" fill="currentColor"/>
<path d="M9.5 7.5C8.395 7.5 7.5 8.395 7.5 9.5C7.5 9.875 7.605 10.23 7.79 10.53C8.135 11.11 8.77 11.5 9.5 11.5C10.23 11.5 10.865 11.11 11.21 10.53C11.395 10.23 11.5 9.875 11.5 9.5C11.5 8.395 10.605 7.5 9.5 7.5ZM10.535 9.285L9.47 10.27C9.4 10.335 9.305 10.37 9.215 10.37C9.12 10.37 9.025 10.335 8.95 10.26L8.455 9.765C8.31 9.62 8.31 9.38 8.455 9.235C8.6 9.09 8.84 9.09 8.985 9.235L9.225 9.475L10.025 8.735C10.175 8.595 10.415 8.605 10.555 8.755C10.695 8.905 10.685 9.14 10.535 9.285Z" fill="currentColor"/>
<path d="M10 4.91992H2C1.725 4.91992 1.5 5.1449 1.5 5.4199V8.4999C1.5 9.9999 2.25 10.9999 4 10.9999H6.465C6.81 10.9999 7.05 10.6649 6.94 10.3399C6.84 10.0499 6.755 9.7299 6.755 9.4999C6.755 7.9849 7.99 6.7499 9.505 6.7499C9.65 6.7499 9.795 6.7599 9.935 6.7849C10.235 6.8299 10.505 6.5949 10.505 6.2949V5.4249C10.5 5.1449 10.275 4.91992 10 4.91992ZM4.605 9.1049C4.51 9.1949 4.38 9.2499 4.25 9.2499C4.12 9.2499 3.99 9.1949 3.895 9.1049C3.805 9.0099 3.75 8.8799 3.75 8.7499C3.75 8.6199 3.805 8.4899 3.895 8.3949C3.945 8.3499 3.995 8.3149 4.06 8.2899C4.245 8.2099 4.465 8.2549 4.605 8.3949C4.695 8.4899 4.75 8.6199 4.75 8.7499C4.75 8.8799 4.695 9.0099 4.605 9.1049ZM4.605 7.3549C4.58 7.3749 4.555 7.3949 4.53 7.4149C4.5 7.4349 4.47 7.4499 4.44 7.4599C4.41 7.4749 4.38 7.4849 4.35 7.4899C4.315 7.4949 4.28 7.4999 4.25 7.4999C4.12 7.4999 3.99 7.4449 3.895 7.3549C3.805 7.2599 3.75 7.1299 3.75 6.9999C3.75 6.8699 3.805 6.7399 3.895 6.6449C4.01 6.5299 4.185 6.4749 4.35 6.5099C4.38 6.5149 4.41 6.5249 4.44 6.5399C4.47 6.5499 4.5 6.5649 4.53 6.5849C4.555 6.6049 4.58 6.6249 4.605 6.6449C4.695 6.7399 4.75 6.8699 4.75 6.9999C4.75 7.1299 4.695 7.2599 4.605 7.3549ZM6.355 7.3549C6.26 7.4449 6.13 7.4999 6 7.4999C5.87 7.4999 5.74 7.4449 5.645 7.3549C5.555 7.2599 5.5 7.1299 5.5 6.9999C5.5 6.8699 5.555 6.7399 5.645 6.6449C5.835 6.4599 6.17 6.4599 6.355 6.6449C6.445 6.7399 6.5 6.8699 6.5 6.9999C6.5 7.1299 6.445 7.2599 6.355 7.3549Z" fill="currentColor"/>
</svg>
