<svg width="12" height="12" viewBox="0 0 12 12" fill="none" xmlns="http://www.w3.org/2000/svg">
<path d="M6.00002 0.545456C2.98911 0.545456 0.545471 2.98909 0.545471 6C0.545471 9.01091 2.98911 11.4545 6.00002 11.4545C9.01093 11.4545 11.4546 9.01091 11.4546 6C11.4546 2.98909 9.01093 0.545456 6.00002 0.545456ZM3.19093 4.60364C3.42002 4.07455 3.85093 3.66546 4.44547 3.48V3.04364C4.44547 2.82 4.63093 2.63455 4.85456 2.63455C5.0782 2.63455 5.26365 2.82 5.26365 3.04364V3.36546H6.74183V3.04364C6.74183 2.82 6.92729 2.63455 7.15093 2.63455C7.37456 2.63455 7.56002 2.82 7.56002 3.04364V3.47455C8.15456 3.66 8.58547 4.06909 8.81456 4.59818C8.89093 4.77818 8.76002 4.98546 8.56365 4.98546H3.44183C3.24547 4.98546 3.11456 4.78364 3.19093 4.60364ZM9.00002 7.18364C9.00002 8.38364 8.18184 9.36546 6.8182 9.36546H5.18184C3.8182 9.36546 3.00002 8.38364 3.00002 7.18364V5.80364C3.00002 5.65091 3.12002 5.53091 3.27274 5.53091H8.72729C8.88002 5.53091 9.00002 5.65091 9.00002 5.80364V7.18364Z" fill="currentColor"/>
</svg>
