<svg width="12" height="12" viewBox="0 0 12 12" fill="none" xmlns="http://www.w3.org/2000/svg">
<path d="M4.06217 2.91128C3.85031 2.91128 3.67461 2.73253 3.67461 2.51698V0.93976C3.67461 0.724207 3.85031 0.545456 4.06217 0.545456C4.27404 0.545456 4.44973 0.724207 4.44973 0.93976V2.51698C4.44973 2.73253 4.27404 2.91128 4.06217 2.91128Z" fill="currentColor"/>
<path d="M7.93777 2.91128C7.7259 2.91128 7.55021 2.73253 7.55021 2.51698V0.93976C7.55021 0.724207 7.7259 0.545456 7.93777 0.545456C8.14964 0.545456 8.32533 0.724207 8.32533 0.93976V2.51698C8.32533 2.73253 8.14964 2.91128 7.93777 2.91128Z" fill="currentColor"/>
<path d="M5.99977 7.29595C6.26847 7.29595 6.46484 7.13297 6.46484 6.87536C6.46484 6.61249 6.26847 6.46002 5.99977 6.46002C5.73106 6.46002 5.53469 6.61249 5.53469 6.87536C5.53469 7.13297 5.73106 7.29595 5.99977 7.29595Z" fill="currentColor"/>
<path d="M5.99966 8.82617C6.32501 8.82617 6.58875 8.60725 6.58875 8.33723C6.58875 8.06721 6.32501 7.84829 5.99966 7.84829C5.67432 7.84829 5.41057 8.06721 5.41057 8.33723C5.41057 8.60725 5.67432 8.82617 5.99966 8.82617Z" fill="currentColor"/>
<path d="M9.91174 2.25411C9.57069 1.9965 9.07978 2.24359 9.07978 2.67996V2.73253C9.07978 3.34765 8.64571 3.91545 8.04112 3.97853C7.34351 4.05214 6.75442 3.49485 6.75442 2.80088V2.25411C6.75442 1.96495 6.52189 1.72837 6.23768 1.72837H5.76227C5.47806 1.72837 5.24552 1.96495 5.24552 2.25411V2.80088C5.24552 3.21621 5.03366 3.58423 4.71327 3.78927C4.66677 3.82081 4.61509 3.8471 4.56342 3.87339C4.51691 3.89967 4.46524 3.9207 4.40839 3.93647C4.34638 3.9575 4.27921 3.97328 4.20686 3.97853C4.12418 3.98905 4.0415 3.98905 3.95882 3.97853C3.88648 3.97328 3.8193 3.9575 3.75729 3.93647C3.70562 3.9207 3.65394 3.89967 3.60227 3.87339C3.55059 3.8471 3.49892 3.82081 3.45241 3.78927C3.12686 3.55794 2.92016 3.15838 2.92016 2.73253V2.67996C2.92016 2.27514 2.49643 2.0333 2.16055 2.20679C2.15538 2.21205 2.15021 2.21205 2.14504 2.21731C2.12437 2.22782 2.10887 2.23834 2.0882 2.25411C2.0727 2.26988 2.05203 2.2804 2.03653 2.29617C1.89184 2.41183 1.76265 2.54327 1.65413 2.68521C1.59729 2.7483 1.55079 2.81665 1.50945 2.885C1.50428 2.89025 1.49911 2.89551 1.49394 2.90603C1.44744 2.97437 1.4061 3.05323 1.36992 3.12684C1.35959 3.13735 1.35442 3.14261 1.35442 3.15312C1.32342 3.21621 1.29241 3.2793 1.27174 3.34765C1.25624 3.37393 1.25107 3.39496 1.24074 3.42125C1.20973 3.50011 1.18906 3.57897 1.16839 3.65783C1.14772 3.73144 1.13222 3.8103 1.12189 3.88916C1.11155 3.94699 1.10638 4.00482 1.10122 4.06791C1.09605 4.14151 1.09088 4.21512 1.09088 4.28872V8.8942C1.09088 10.3084 2.21739 11.4545 3.60744 11.4545H8.39251C9.78256 11.4545 10.9091 10.3084 10.9091 8.8942V4.28872C10.9091 3.45279 10.5163 2.72202 9.91174 2.25411ZM5.99997 9.48302C5.19902 9.48302 4.70811 9.07821 4.70811 8.42629C4.70811 8.06879 4.88897 7.7586 5.20418 7.57459C4.97681 7.41161 4.82696 7.16977 4.82696 6.83856C4.82696 6.15509 5.36437 5.80285 5.99997 5.80285C6.63557 5.80285 7.16782 6.15509 7.16782 6.83856C7.16782 7.16977 7.02313 7.41161 6.79059 7.57459C7.11098 7.7586 7.29184 8.06879 7.29184 8.42629C7.29184 9.07821 6.79576 9.48302 5.99997 9.48302Z" fill="currentColor"/>
</svg>
