<svg width="12" height="12" viewBox="0 0 12 12" fill="none" xmlns="http://www.w3.org/2000/svg">
<path d="M7.84098 1.70408V0.921632C7.84098 0.715989 7.67407 0.545456 7.4728 0.545456C7.27153 0.545456 7.10462 0.715989 7.10462 0.921632V1.67398H3.91372V0.921632C3.91372 0.715989 3.74681 0.545456 3.54554 0.545456C3.34427 0.545456 3.17736 0.715989 3.17736 0.921632V1.70408C1.8519 1.82947 1.20881 2.63699 1.11063 3.83574C1.10081 3.98119 1.21863 4.10157 1.35609 4.10157H9.66225C9.80462 4.10157 9.92243 3.97618 9.90771 3.83574C9.80953 2.63699 9.16643 1.82947 7.84098 1.70408Z" fill="currentColor"/>
<path d="M9.43634 4.85384H1.58179C1.31179 4.85384 1.09088 5.07952 1.09088 5.35539V8.44504C1.09088 9.94974 1.82724 10.9529 3.54543 10.9529H5.96561C6.30434 10.9529 6.53997 10.6168 6.43197 10.2908C6.33379 9.9999 6.25034 9.6789 6.25034 9.44818C6.25034 7.92843 7.46288 6.68956 8.95034 6.68956C9.0927 6.68956 9.23506 6.69959 9.37252 6.72467C9.66706 6.76981 9.93215 6.53407 9.93215 6.23313V5.3604C9.92725 5.07952 9.70634 4.85384 9.43634 4.85384ZM4.13943 8.80116C4.04615 8.89144 3.91852 8.94661 3.79088 8.94661C3.72706 8.94661 3.66324 8.93156 3.60434 8.90648C3.54543 8.88141 3.49143 8.8463 3.44234 8.80116C3.35397 8.70586 3.29997 8.58047 3.29997 8.44504C3.29997 8.37984 3.3147 8.31464 3.33925 8.25445C3.36379 8.18924 3.39815 8.13909 3.44234 8.08893C3.49143 8.04379 3.54543 8.00868 3.60434 7.9836C3.78106 7.90335 4.00197 7.94849 4.13943 8.08893C4.18361 8.13909 4.21797 8.18924 4.24252 8.25445C4.26706 8.31464 4.28179 8.37984 4.28179 8.44504C4.28179 8.58047 4.22779 8.70586 4.13943 8.80116ZM4.13943 7.04567C4.04615 7.13595 3.91852 7.19112 3.79088 7.19112C3.72706 7.19112 3.66324 7.18109 3.60434 7.151C3.54543 7.12592 3.49143 7.09081 3.44234 7.04567C3.35397 6.95037 3.29997 6.81996 3.29997 6.68956C3.29997 6.62435 3.3147 6.55915 3.33925 6.49896C3.36379 6.43877 3.39815 6.3836 3.44234 6.33344C3.49143 6.2883 3.54543 6.25319 3.60434 6.22811C3.78106 6.15288 4.00197 6.193 4.13943 6.33344C4.18361 6.3836 4.21797 6.43877 4.24252 6.49896C4.26706 6.55915 4.28179 6.62435 4.28179 6.68956C4.28179 6.81996 4.22779 6.95037 4.13943 7.04567ZM5.9607 6.88015C5.93615 6.94034 5.90179 6.99551 5.85761 7.04567C5.80852 7.09081 5.75452 7.12592 5.69561 7.151C5.6367 7.18109 5.57288 7.19112 5.50906 7.19112C5.38143 7.19112 5.25379 7.13595 5.16052 7.04567C5.11634 6.99551 5.08197 6.94034 5.05743 6.88015C5.03288 6.81996 5.01815 6.75476 5.01815 6.68956C5.01815 6.55915 5.07215 6.42874 5.16052 6.33344C5.29797 6.193 5.51397 6.14786 5.69561 6.22811C5.75452 6.25319 5.80852 6.2883 5.85761 6.33344C5.94597 6.42874 5.99997 6.55915 5.99997 6.68956C5.99997 6.75476 5.99015 6.81996 5.9607 6.88015Z" fill="currentColor"/>
<path d="M8.94543 7.44201C7.86052 7.44201 6.98179 8.33981 6.98179 9.44828C6.98179 10.5567 7.86052 11.4545 8.94543 11.4545C10.0303 11.4545 10.9091 10.5567 10.9091 9.44828C10.9091 8.33981 10.0303 7.44201 8.94543 7.44201ZM9.73088 10.2708C9.65725 10.3461 9.56397 10.3812 9.4707 10.3812C9.37743 10.3812 9.28415 10.3461 9.21052 10.2708L8.95034 10.005L8.68034 10.2809C8.6067 10.3561 8.51343 10.3912 8.42015 10.3912C8.32688 10.3912 8.23361 10.3561 8.15997 10.2809C8.01761 10.1354 8.01761 9.89467 8.15997 9.74922L8.42997 9.47336L8.16979 9.20753C8.02743 9.06207 8.02743 8.82132 8.16979 8.67586C8.31215 8.53041 8.54779 8.53041 8.69015 8.67586L8.95034 8.94671L9.19579 8.69593C9.33815 8.55047 9.57379 8.55047 9.71615 8.69593C9.85852 8.84138 9.85852 9.08213 9.71615 9.22759L9.4707 9.47837L9.73088 9.7442C9.87325 9.88966 9.87325 10.1254 9.73088 10.2708Z" fill="currentColor"/>
</svg>
