<svg width="12" height="12" viewBox="0 0 12 12" fill="none" xmlns="http://www.w3.org/2000/svg">
<path d="M8.30312 1.75993V0.939764C8.30312 0.724209 8.13827 0.545456 7.93948 0.545456C7.74069 0.545456 7.57584 0.724209 7.57584 0.939764V1.72838H4.42434V0.939764C4.42434 0.724209 4.25949 0.545456 4.06071 0.545456C3.86192 0.545456 3.69707 0.724209 3.69707 0.939764V1.75993C2.38798 1.89136 1.75283 2.73781 1.65586 3.99434C1.64616 4.1468 1.76252 4.27298 1.89828 4.27298H10.1019C10.2425 4.27298 10.3589 4.14155 10.3443 3.99434C10.2474 2.73781 9.61221 1.89136 8.30312 1.75993Z" fill="currentColor"/>
<path d="M9.87878 5.06152H2.1212C1.85453 5.06152 1.63635 5.29808 1.63635 5.58724V8.82583C1.63635 10.4031 2.36363 11.4545 4.0606 11.4545H7.93938C9.63635 11.4545 10.3636 10.4031 10.3636 8.82583V5.58724C10.3636 5.29808 10.1454 5.06152 9.87878 5.06152ZM4.64726 9.46198C4.62302 9.48301 4.59878 9.50929 4.57453 9.52507C4.54544 9.54609 4.51635 9.56187 4.48726 9.57238C4.45817 9.58815 4.42908 9.59867 4.39999 9.60393C4.36605 9.60918 4.33696 9.61444 4.30302 9.61444C4.23999 9.61444 4.17696 9.59867 4.11878 9.57238C4.05575 9.5461 4.00726 9.50929 3.95878 9.46198C3.8715 9.36209 3.81817 9.22539 3.81817 9.0887C3.81817 8.952 3.8715 8.81531 3.95878 8.71542C4.00726 8.6681 4.05575 8.6313 4.11878 8.60501C4.20605 8.56295 4.30302 8.55244 4.39999 8.57347C4.42908 8.57873 4.45817 8.58924 4.48726 8.60501C4.51635 8.61553 4.54544 8.6313 4.57453 8.65233C4.59878 8.67336 4.62302 8.69439 4.64726 8.71542C4.73453 8.81531 4.78787 8.952 4.78787 9.0887C4.78787 9.22539 4.73453 9.36209 4.64726 9.46198ZM4.64726 7.62187C4.55514 7.71651 4.42908 7.77434 4.30302 7.77434C4.17696 7.77434 4.0509 7.71651 3.95878 7.62187C3.8715 7.52198 3.81817 7.38529 3.81817 7.24859C3.81817 7.1119 3.8715 6.97521 3.95878 6.87531C4.09453 6.72811 4.30787 6.68079 4.48726 6.76491C4.55029 6.79119 4.60363 6.828 4.64726 6.87531C4.73453 6.97521 4.78787 7.1119 4.78787 7.24859C4.78787 7.38529 4.73453 7.52198 4.64726 7.62187ZM6.34423 9.46198C6.25211 9.55661 6.12605 9.61444 5.99999 9.61444C5.87393 9.61444 5.74787 9.55661 5.65575 9.46198C5.56847 9.36209 5.51514 9.22539 5.51514 9.0887C5.51514 8.952 5.56847 8.81531 5.65575 8.71542C5.83514 8.52089 6.16484 8.52089 6.34423 8.71542C6.4315 8.81531 6.48484 8.952 6.48484 9.0887C6.48484 9.22539 6.4315 9.36209 6.34423 9.46198ZM6.34423 7.62187C6.31999 7.6429 6.29575 7.66393 6.2715 7.68496C6.24241 7.70599 6.21332 7.72176 6.18423 7.73228C6.15514 7.74805 6.12605 7.75856 6.09696 7.76382C6.06302 7.76908 6.03393 7.77434 5.99999 7.77434C5.87393 7.77434 5.74787 7.71651 5.65575 7.62187C5.56847 7.52198 5.51514 7.38529 5.51514 7.24859C5.51514 7.1119 5.56847 6.97521 5.65575 6.87531C5.69938 6.828 5.75272 6.79119 5.81575 6.76491C5.99514 6.68079 6.20847 6.72811 6.34423 6.87531C6.4315 6.97521 6.48484 7.1119 6.48484 7.24859C6.48484 7.38529 6.4315 7.52198 6.34423 7.62187ZM8.0412 9.46198C7.94908 9.55661 7.82302 9.61444 7.69696 9.61444C7.5709 9.61444 7.44484 9.55661 7.35272 9.46198C7.26544 9.36209 7.21211 9.22539 7.21211 9.0887C7.21211 8.952 7.26544 8.81531 7.35272 8.71542C7.53211 8.52089 7.86181 8.52089 8.0412 8.71542C8.12847 8.81531 8.18181 8.952 8.18181 9.0887C8.18181 9.22539 8.12847 9.36209 8.0412 9.46198ZM8.0412 7.62187C8.01696 7.6429 7.99272 7.66393 7.96847 7.68496C7.93938 7.70599 7.91029 7.72176 7.8812 7.73228C7.85211 7.74805 7.82302 7.75856 7.79393 7.76382C7.75999 7.76908 7.72605 7.77434 7.69696 7.77434C7.5709 7.77434 7.44484 7.71651 7.35272 7.62187C7.26544 7.52198 7.21211 7.38529 7.21211 7.24859C7.21211 7.1119 7.26544 6.97521 7.35272 6.87531C7.4012 6.828 7.44969 6.79119 7.51272 6.76491C7.59999 6.72285 7.69696 6.71233 7.79393 6.73336C7.82302 6.73862 7.85211 6.74914 7.8812 6.76491C7.91029 6.77542 7.93938 6.7912 7.96847 6.81222C7.99272 6.83325 8.01696 6.85428 8.0412 6.87531C8.12847 6.97521 8.18181 7.1119 8.18181 7.24859C8.18181 7.38529 8.12847 7.52198 8.0412 7.62187Z" fill="currentColor"/>
</svg>
