<svg width="12" height="12" viewBox="0 0 12 12" fill="none" xmlns="http://www.w3.org/2000/svg">
<path d="M9.52995 3.00094L10.15 2.38094C10.295 2.23594 10.295 1.99593 10.15 1.85094C10.0049 1.70594 9.76495 1.70594 9.61995 1.85094L8.99995 2.47094L8.37995 1.85094C8.23495 1.70594 7.99495 1.70594 7.84995 1.85094C7.70495 1.99593 7.70495 2.23594 7.84995 2.38094L8.46995 3.00094L7.84995 3.62093C7.70495 3.76593 7.70495 4.00594 7.84995 4.15094C7.92495 4.22594 8.01995 4.26094 8.11495 4.26094C8.20995 4.26094 8.30495 4.22594 8.37995 4.15094L8.99995 3.53094L9.61995 4.15094C9.69495 4.22594 9.78995 4.26094 9.88495 4.26094C9.97995 4.26094 10.075 4.22594 10.15 4.15094C10.295 4.00594 10.295 3.76593 10.15 3.62093L9.52995 3.00094Z" fill="currentColor"/>
<path d="M5.525 7.475L4.6 8.4C4.405 8.595 4.095 8.595 3.895 8.405C3.84 8.35 3.785 8.3 3.73 8.245C3.215 7.725 2.75 7.18 2.335 6.61C1.925 6.04 1.595 5.47 1.355 4.905C1.12 4.335 1 3.79 1 3.27C1 2.93 1.06 2.605 1.18 2.305C1.3 2 1.49 1.72 1.755 1.47C2.075 1.155 2.425 1 2.795 1C2.935 1 3.075 1.03 3.2 1.09C3.33 1.15 3.445 1.24 3.535 1.37L4.695 3.005C4.785 3.13 4.85 3.245 4.895 3.355C4.94 3.46 4.965 3.565 4.965 3.66C4.965 3.78 4.93 3.9 4.86 4.015C4.795 4.13 4.7 4.25 4.58 4.37L4.2 4.765C4.145 4.82 4.12 4.885 4.12 4.965C4.12 5.005 4.125 5.04 4.135 5.08C4.15 5.12 4.165 5.15 4.175 5.18C4.265 5.345 4.42 5.56 4.64 5.82C4.865 6.08 5.105 6.345 5.365 6.61C5.415 6.66 5.47 6.71 5.52 6.76C5.72 6.955 5.725 7.275 5.525 7.475Z" fill="currentColor"/>
<path d="M10.9848 9.16455C10.9848 9.30455 10.9598 9.44955 10.9098 9.58955C10.8948 9.62955 10.8798 9.66955 10.8598 9.70955C10.7748 9.88955 10.6648 10.0596 10.5198 10.2196C10.2748 10.4896 10.0048 10.6846 9.6998 10.8096C9.6948 10.8096 9.6898 10.8146 9.6848 10.8146C9.3898 10.9346 9.0698 10.9995 8.7248 10.9995C8.2148 10.9995 7.6698 10.8795 7.0948 10.6346C6.5198 10.3896 5.9448 10.0596 5.3748 9.64455C5.1798 9.49955 4.98481 9.35455 4.79981 9.19955L6.4348 7.56455C6.5748 7.66955 6.6998 7.74955 6.8048 7.80455C6.8298 7.81455 6.8598 7.82955 6.8948 7.84455C6.9348 7.85955 6.9748 7.86455 7.0198 7.86455C7.1048 7.86455 7.1698 7.83455 7.2248 7.77955L7.6048 7.40455C7.7298 7.27955 7.8498 7.18455 7.9648 7.12455C8.0798 7.05455 8.1948 7.01955 8.3198 7.01955C8.4148 7.01955 8.5148 7.03955 8.6248 7.08455C8.7348 7.12955 8.8498 7.19455 8.9748 7.27955L10.6298 8.45455C10.7598 8.54455 10.8498 8.64955 10.9048 8.77455C10.9548 8.89955 10.9848 9.02455 10.9848 9.16455Z" fill="currentColor"/>
</svg>
