<svg width="12" height="12" viewBox="0 0 12 12" fill="none" xmlns="http://www.w3.org/2000/svg">
<path d="M11.0002 9.16455C11.0002 9.34455 10.9602 9.52955 10.8752 9.70955C10.7902 9.88955 10.6803 10.0596 10.5352 10.2196C10.2902 10.4896 10.0203 10.6846 9.71525 10.8096C9.41525 10.9346 9.08525 10.9995 8.73525 10.9995C8.22525 10.9995 7.68025 10.8795 7.10525 10.6346C6.53025 10.3896 5.95025 10.0596 5.38025 9.64455C5.09025 9.42955 4.80527 9.20955 4.53027 8.96955L6.16025 7.33955C6.16525 7.33955 6.16525 7.33955 6.17025 7.34455C6.43025 7.56455 6.64525 7.71455 6.81525 7.80455C6.84025 7.81455 6.87025 7.82955 6.90525 7.84455C6.94525 7.85955 6.98525 7.86455 7.03025 7.86455C7.11525 7.86455 7.18025 7.83455 7.23525 7.77955L7.61525 7.40455C7.74025 7.27955 7.86025 7.18455 7.97525 7.12455C8.09025 7.05455 8.20525 7.01955 8.33025 7.01955C8.42525 7.01955 8.52525 7.03955 8.63525 7.08455C8.74525 7.12955 8.86025 7.19455 8.98525 7.27955L10.6453 8.45455C10.7753 8.54455 10.8652 8.64955 10.9202 8.77455C10.9703 8.89955 11.0002 9.02455 11.0002 9.16455Z" fill="currentColor"/>
<path d="M5.38 6.62L3.75 8.25C3.745 8.25 3.745 8.25 3.74 8.245C3.225 7.725 2.76 7.18 2.34 6.61C1.935 6.05 1.61 5.485 1.37 4.93C1.365 4.92 1.365 4.915 1.36 4.905C1.12 4.335 1 3.79 1 3.27C1 2.93 1.06 2.605 1.18 2.305C1.28 2.05 1.43 1.81 1.635 1.595C1.67 1.555 1.71 1.51 1.755 1.47C1.835 1.39 1.915 1.32 2 1.265C2.005 1.265 2.005 1.265 2.005 1.265C2.255 1.085 2.52 1 2.8 1C2.94 1 3.08 1.03 3.205 1.09C3.325 1.145 3.43 1.225 3.515 1.34C3.525 1.35 3.53 1.36 3.54 1.37L4.7 3.005C4.79 3.13 4.855 3.245 4.9 3.355C4.945 3.46 4.97 3.565 4.97 3.66C4.97 3.78 4.935 3.9 4.865 4.015C4.8 4.13 4.705 4.25 4.585 4.37L4.205 4.765C4.15 4.82 4.125 4.885 4.125 4.965C4.125 5.005 4.13 5.04 4.14 5.08C4.155 5.12 4.17 5.15 4.18 5.18C4.27 5.345 4.425 5.56 4.645 5.82C4.87 6.08 5.11 6.345 5.37 6.61C5.375 6.615 5.375 6.615 5.38 6.62Z" fill="currentColor"/>
<path d="M10.8855 1.11446C10.7355 0.964455 10.4904 0.964455 10.3405 1.11446L1.11543 10.3444C0.96543 10.4944 0.96543 10.7395 1.11543 10.8895C1.19043 10.9594 1.28543 10.9994 1.38543 10.9994C1.48543 10.9994 1.58043 10.9594 1.65543 10.8844L10.8855 1.65446C11.0405 1.50445 11.0405 1.26446 10.8855 1.11446Z" fill="currentColor"/>
</svg>
