<svg width="12" height="12" viewBox="0 0 12 12" fill="none" xmlns="http://www.w3.org/2000/svg">
<path d="M10.8844 1.11446C10.7344 0.964455 10.4894 0.964455 10.3394 1.11446L1.11445 10.3444C0.964453 10.4944 0.964453 10.7395 1.11445 10.8895C1.18945 10.9594 1.28445 10.9994 1.38445 10.9994C1.48445 10.9994 1.57945 10.9594 1.65445 10.8844L10.8844 1.65446C11.0394 1.50445 11.0394 1.26446 10.8844 1.11446Z" fill="currentColor"/>
<path d="M8.2751 2.555L7.9151 1.83C7.6851 1.375 7.0851 1 6.5751 1H5.4301C4.91508 1 4.31508 1.375 4.08508 1.83L3.72508 2.555C3.58508 2.825 3.30508 3 3.00008 3C1.91508 3 1.05508 3.915 1.12508 4.995L1.38508 9.125C1.41008 9.55 1.51508 9.945 1.74008 10.26L9.0001 3C8.6951 3 8.4151 2.825 8.2751 2.555ZM4.75008 5.375H3.25008C3.04508 5.375 2.87508 5.205 2.87508 5C2.87508 4.795 3.04508 4.625 3.25008 4.625H4.75008C4.95508 4.625 5.1251 4.795 5.1251 5C5.1251 5.205 4.95508 5.375 4.75008 5.375Z" fill="currentColor"/>
<path d="M10.8751 4.99417L10.6151 9.12415C10.5501 10.1542 10.0001 10.9992 8.62015 10.9992H3.70513C3.26013 10.9992 3.03513 10.4591 3.35013 10.1441L4.58513 8.90915C4.74013 8.75415 4.98013 8.73415 5.17515 8.84415C5.52015 9.03915 5.93515 9.11415 6.37515 9.01915C7.01015 8.88415 7.52515 8.36415 7.65015 7.72415C7.73515 7.29415 7.66015 6.88915 7.47015 6.55415C7.36015 6.35915 7.37515 6.11415 7.53515 5.95915L9.78515 3.70918C9.99015 3.50418 10.3351 3.52918 10.5101 3.76417C10.7701 4.10417 10.9051 4.53417 10.8751 4.99417Z" fill="currentColor"/>
</svg>
