<svg width="12" height="12" viewBox="0 0 12 12" fill="none" xmlns="http://www.w3.org/2000/svg">
<path d="M9.0001 3C8.6951 3 8.4151 2.825 8.2751 2.555L7.9151 1.83C7.6851 1.375 7.0851 1 6.5751 1H5.4301C4.91508 1 4.31508 1.375 4.08508 1.83L3.72508 2.555C3.58508 2.825 3.30508 3 3.00008 3C1.91508 3 1.05508 3.915 1.12508 4.995L1.38508 9.125C1.44508 10.155 2.00008 11 3.38008 11H8.6201C10.0001 11 10.5501 10.155 10.6151 9.125L10.8751 4.995C10.9451 3.915 10.0851 3 9.0001 3ZM5.2501 3.625H6.7501C6.9551 3.625 7.1251 3.795 7.1251 4C7.1251 4.205 6.9551 4.375 6.7501 4.375H5.2501C5.0451 4.375 4.87508 4.205 4.87508 4C4.87508 3.795 5.0451 3.625 5.2501 3.625ZM6.0001 9.06C5.0701 9.06 4.31008 8.305 4.31008 7.37C4.31008 6.435 5.0651 5.68 6.0001 5.68C6.9351 5.68 7.6901 6.435 7.6901 7.37C7.6901 8.305 6.9301 9.06 6.0001 9.06Z" fill="currentColor"/>
</svg>
