<svg width="12" height="12" viewBox="0 0 12 12" fill="none" xmlns="http://www.w3.org/2000/svg">
<path d="M3.75 2.25H3.625V1C3.625 0.795 3.455 0.625 3.25 0.625C3.045 0.625 2.875 0.795 2.875 1V2.25H2.75C1.955 2.25 1.5 2.705 1.5 3.5V6.5C1.5 7.295 1.955 7.75 2.75 7.75H2.875V11C2.875 11.205 3.045 11.375 3.25 11.375C3.455 11.375 3.625 11.205 3.625 11V7.75H3.75C4.545 7.75 5 7.295 5 6.5V3.5C5 2.705 4.545 2.25 3.75 2.25Z" fill="currentColor"/>
<path d="M9.25 4.25H9.125V1C9.125 0.795 8.955 0.625 8.75 0.625C8.545 0.625 8.375 0.795 8.375 1V4.25H8.25C7.455 4.25 7 4.705 7 5.5V8.5C7 9.295 7.455 9.75 8.25 9.75H8.375V11C8.375 11.205 8.545 11.375 8.75 11.375C8.955 11.375 9.125 11.205 9.125 11V9.75H9.25C10.045 9.75 10.5 9.295 10.5 8.5V5.5C10.5 4.705 10.045 4.25 9.25 4.25Z" fill="currentColor"/>
</svg>
