<svg width="12" height="12" viewBox="0 0 12 12" fill="none" xmlns="http://www.w3.org/2000/svg">
<path d="M11.375 8.75C11.375 8.955 11.205 9.125 11 9.125H7.5V9.25C7.5 10 7.05 10.25 6.5 10.25H3.5C2.95 10.25 2.5 10 2.5 9.25V9.125H1C0.795 9.125 0.625 8.955 0.625 8.75C0.625 8.545 0.795 8.375 1 8.375H2.5V8.25C2.5 7.5 2.95 7.25 3.5 7.25H6.5C7.05 7.25 7.5 7.5 7.5 8.25V8.375H11C11.205 8.375 11.375 8.545 11.375 8.75Z" fill="currentColor"/>
<path d="M11.375 3.25C11.375 3.455 11.205 3.625 11 3.625H9.5V3.75C9.5 4.5 9.05 4.75 8.5 4.75H5.5C4.95 4.75 4.5 4.5 4.5 3.75V3.625H1C0.795 3.625 0.625 3.455 0.625 3.25C0.625 3.045 0.795 2.875 1 2.875H4.5V2.75C4.5 2 4.95 1.75 5.5 1.75H8.5C9.05 1.75 9.5 2 9.5 2.75V2.875H11C11.205 2.875 11.375 3.045 11.375 3.25Z" fill="currentColor"/>
</svg>
