<svg width="12" height="12" viewBox="0 0 12 12" fill="none" xmlns="http://www.w3.org/2000/svg">
<path d="M10.875 3.99907C10.875 4.20406 10.705 4.37407 10.5 4.37407H1.5C1.295 4.37407 1.125 4.20406 1.125 3.99907C1.125 3.79407 1.295 3.62407 1.5 3.62407H2.01L2.2 2.71907C2.38 1.84407 2.755 1.03906 4.245 1.03906H7.755C9.245 1.03906 9.62 1.84407 9.8 2.71907L9.99 3.62407H10.5C10.705 3.62407 10.875 3.79407 10.875 3.99907Z" fill="currentColor"/>
<path d="M11.0908 6.83C11.0158 6.005 10.7957 5.125 9.19075 5.125H2.81078C1.20578 5.125 0.990775 6.005 0.910775 6.83L0.630775 9.875C0.595775 10.255 0.720775 10.635 0.980775 10.92C1.24578 11.21 1.62078 11.375 2.02078 11.375H2.96078C3.77078 11.375 3.92578 10.91 4.02578 10.605L4.12578 10.305C4.24078 9.96 4.27078 9.875 4.72078 9.875H7.2808C7.7308 9.875 7.7458 9.925 7.8758 10.305L7.9758 10.605C8.0758 10.91 8.2308 11.375 9.0408 11.375H9.98075C10.3758 11.375 10.7558 11.21 11.0208 10.92C11.2808 10.635 11.4058 10.255 11.3708 9.875L11.0908 6.83ZM4.50078 7.875H3.00078C2.79578 7.875 2.62578 7.705 2.62578 7.5C2.62578 7.295 2.79578 7.125 3.00078 7.125H4.50078C4.70578 7.125 4.87578 7.295 4.87578 7.5C4.87578 7.705 4.70578 7.875 4.50078 7.875ZM9.0008 7.875H7.5008C7.2958 7.875 7.1258 7.705 7.1258 7.5C7.1258 7.295 7.2958 7.125 7.5008 7.125H9.0008C9.2058 7.125 9.3758 7.295 9.3758 7.5C9.3758 7.705 9.2058 7.875 9.0008 7.875Z" fill="currentColor"/>
</svg>
