<svg width="12" height="12" viewBox="0 0 12 12" fill="none" xmlns="http://www.w3.org/2000/svg">
<path d="M1 5.73V8.23C1 9.375 1.925 10.3 3.07 10.3H8.925C10.07 10.3 11 9.37 11 8.225V5.73C11 5.395 10.73 5.125 10.395 5.125H1.605C1.27 5.125 1 5.395 1 5.73ZM4 8.625H3C2.795 8.625 2.625 8.455 2.625 8.25C2.625 8.045 2.795 7.875 3 7.875H4C4.205 7.875 4.375 8.045 4.375 8.25C4.375 8.455 4.205 8.625 4 8.625ZM7.25 8.625H5.25C5.045 8.625 4.875 8.455 4.875 8.25C4.875 8.045 5.045 7.875 5.25 7.875H7.25C7.455 7.875 7.625 8.045 7.625 8.25C7.625 8.455 7.455 8.625 7.25 8.625Z" fill="currentColor"/>
<path d="M6.75 2.30422V3.76922C6.75 4.10422 6.48 4.37422 6.145 4.37422H1.605C1.265 4.37422 1 4.09422 1 3.75922C1.005 3.19422 1.23 2.67922 1.605 2.30422C1.98 1.92922 2.5 1.69922 3.07 1.69922H6.145C6.48 1.69922 6.75 1.96922 6.75 2.30422Z" fill="currentColor"/>
<path d="M9.985 1H8.515C7.88 1 7.5 1.38 7.5 2.015V3.485C7.5 4.12 7.88 4.5 8.515 4.5H9.985C10.62 4.5 11 4.12 11 3.485V2.015C11 1.38 10.62 1 9.985 1ZM10.17 3.245C10.225 3.31 10.255 3.38 10.255 3.465C10.255 3.535 10.225 3.615 10.17 3.67C10.055 3.785 9.86 3.785 9.745 3.67L9.25 3.175L8.76 3.675C8.645 3.79 8.45 3.79 8.33 3.67C8.215 3.555 8.215 3.36 8.33 3.245L8.83 2.755L8.335 2.26C8.22 2.145 8.215 1.95 8.33 1.83C8.445 1.71 8.64 1.715 8.76 1.835L9.25 2.33L9.75 1.83C9.865 1.715 10.06 1.715 10.175 1.83C10.23 1.895 10.255 1.97 10.26 2.05C10.26 2.12 10.23 2.2 10.18 2.26L9.68 2.76L10.17 3.245Z" fill="currentColor"/>
</svg>
