<svg width="12" height="12" viewBox="0 0 12 12" fill="none" xmlns="http://www.w3.org/2000/svg">
<path d="M1 5.73V8.23C1 9.375 1.925 10.3 3.07 10.3H8.925C10.07 10.3 11 9.37 11 8.225V5.73C11 5.395 10.73 5.125 10.395 5.125H1.605C1.27 5.125 1 5.395 1 5.73ZM4 8.625H3C2.795 8.625 2.625 8.455 2.625 8.25C2.625 8.045 2.795 7.875 3 7.875H4C4.205 7.875 4.375 8.045 4.375 8.25C4.375 8.455 4.205 8.625 4 8.625ZM7.25 8.625H5.25C5.045 8.625 4.875 8.455 4.875 8.25C4.875 8.045 5.045 7.875 5.25 7.875H7.25C7.455 7.875 7.625 8.045 7.625 8.25C7.625 8.455 7.455 8.625 7.25 8.625Z" fill="currentColor"/>
<path d="M6.75 2.30422V3.76922C6.75 4.10422 6.48 4.37422 6.145 4.37422H1.605C1.265 4.37422 1 4.09422 1 3.75922C1.005 3.19422 1.23 2.67922 1.605 2.30422C1.98 1.92922 2.5 1.69922 3.07 1.69922H6.145C6.48 1.69922 6.75 1.96922 6.75 2.30422Z" fill="currentColor"/>
<path d="M9.985 1H8.515C7.88 1 7.5 1.38 7.5 2.015V3.485C7.5 4.12 7.88 4.5 8.515 4.5H9.985C10.62 4.5 11 4.12 11 3.485V2.015C11 1.38 10.62 1 9.985 1ZM10.455 2.965C10.405 3.015 10.33 3.05 10.25 3.055H9.545L9.55 3.75C9.545 3.835 9.515 3.905 9.455 3.965C9.405 4.015 9.33 4.05 9.25 4.05C9.085 4.05 8.95 3.915 8.95 3.75V3.05L8.25 3.055C8.085 3.055 7.95 2.915 7.95 2.75C7.95 2.585 8.085 2.45 8.25 2.45L8.95 2.455V1.755C8.95 1.59 9.085 1.45 9.25 1.45C9.415 1.45 9.55 1.59 9.55 1.755L9.545 2.45H10.25C10.415 2.45 10.55 2.585 10.55 2.75C10.545 2.835 10.51 2.905 10.455 2.965Z" fill="currentColor"/>
</svg>
