<svg width="12" height="12" viewBox="0 0 12 12" fill="none" xmlns="http://www.w3.org/2000/svg">
<path d="M11 10.625C11 10.83 10.83 11 10.625 11H1.375C1.17 11 1 10.83 1 10.625C1 10.42 1.17 10.25 1.375 10.25H10.625C10.83 10.25 11 10.42 11 10.625Z" fill="currentColor"/>
<path d="M7.6957 2.26086L2.32571 7.63085C2.12071 7.83585 1.79071 7.83585 1.59071 7.63085H1.58571C0.890705 6.93085 0.890705 5.80085 1.58571 5.10585L5.1607 1.53086C5.8607 0.830859 6.9907 0.830859 7.6907 1.53086C7.8957 1.72586 7.8957 2.06086 7.6957 2.26086Z" fill="currentColor"/>
<path d="M10.4107 4.24515L8.8857 2.72015C8.6807 2.51515 8.3507 2.51515 8.1507 2.72015L2.7807 8.09015C2.5757 8.29015 2.5757 8.62015 2.7807 8.82515L4.30571 10.3552C5.0057 11.0501 6.1357 11.0501 6.8357 10.3552L10.4057 6.78015C11.1157 6.08015 11.1157 4.94515 10.4107 4.24515ZM6.3807 8.76015L5.7757 9.37015C5.6507 9.49515 5.4457 9.49515 5.3157 9.37015C5.1907 9.24515 5.1907 9.04015 5.3157 8.91015L5.9257 8.30015C6.0457 8.18015 6.2557 8.18015 6.3807 8.30015C6.5057 8.42515 6.5057 8.64015 6.3807 8.76015ZM8.3657 6.77515L7.1457 8.00015C7.0207 8.12015 6.8157 8.12015 6.6857 8.00015C6.5607 7.87515 6.5607 7.67015 6.6857 7.54015L7.9107 6.31515C8.0307 6.19515 8.2407 6.19515 8.3657 6.31515C8.4907 6.44515 8.4907 6.65015 8.3657 6.77515Z" fill="currentColor"/>
</svg>
