<svg width="12" height="12" viewBox="0 0 12 12" fill="none" xmlns="http://www.w3.org/2000/svg">
<path d="M9.635 1.8242L7.085 4.3742H1.6C1.27 4.3742 0.999998 4.1042 0.999998 3.7742V3.7692C0.999998 2.6242 1.925 1.6992 3.07 1.6992H8.925C9.175 1.6992 9.415 1.7442 9.635 1.8242Z" fill="currentColor"/>
<path d="M6.335 5.12498L3.585 7.87498H3C2.795 7.87498 2.625 8.04498 2.625 8.24998C2.625 8.40498 2.725 8.54498 2.865 8.59498L1.69 9.76998C1.265 9.39498 0.999998 8.84498 0.999998 8.22998V5.72498C0.999998 5.39498 1.27 5.12498 1.6 5.12498H6.335Z" fill="currentColor"/>
<path d="M10.9993 5.49998V8.22998C10.9993 9.37498 10.0743 10.3 8.92935 10.3H4.40435C3.95935 10.3 3.73435 9.75998 4.04935 9.44498L4.72435 8.76998C4.81935 8.67498 4.94435 8.62498 5.07935 8.62498H7.24935C7.45435 8.62498 7.62435 8.45498 7.62435 8.24998C7.62435 8.04498 7.45435 7.87498 7.24935 7.87498H6.82935C6.38435 7.87498 6.15935 7.33498 6.47435 7.01998L8.20435 5.28998C8.39435 5.10498 8.64935 4.99998 8.91435 4.99998H10.4993C10.7743 4.99998 10.9993 5.22498 10.9993 5.49998Z" fill="currentColor"/>
<path d="M10.8844 1.11444C10.7344 0.964438 10.4894 0.964438 10.3394 1.11444L1.11445 10.3444C0.964453 10.4944 0.964453 10.7394 1.11445 10.8894C1.18945 10.9594 1.28445 10.9994 1.38445 10.9994C1.48445 10.9994 1.57945 10.9594 1.65445 10.8844L10.8844 1.65444C11.0394 1.50444 11.0394 1.26444 10.8844 1.11444Z" fill="currentColor"/>
<path d="M10.8844 1.65444L1.65445 10.8844C1.57945 10.9594 1.48445 10.9994 1.38445 10.9994C1.28445 10.9994 1.18929 10.9593 1.11429 10.8843C0.959293 10.7343 0.959453 10.4944 1.11445 10.3444L10.3443 1.11428C10.4943 0.959278 10.7344 0.959438 10.8844 1.11444C11.0394 1.26444 11.0394 1.50444 10.8844 1.65444Z" fill="currentColor"/>
<path d="M11.0002 3.70511C11.0002 3.26011 10.4602 3.03511 10.1452 3.35011L10.0002 3.50011L9.85525 3.64511C9.54025 3.96011 9.76025 4.50011 10.2052 4.50011H10.5002C10.7752 4.50011 11.0002 4.27511 11.0002 4.00011V3.70511Z" fill="currentColor"/>
</svg>
