<svg width="12" height="12" viewBox="0 0 12 12" fill="none" xmlns="http://www.w3.org/2000/svg">
<path d="M6.75 2.30422V3.76922C6.75 4.10422 6.48 4.37422 6.145 4.37422H1.605C1.265 4.37422 1 4.09422 1 3.75922C1.005 3.19422 1.23 2.67922 1.605 2.30422C1.98 1.92922 2.5 1.69922 3.07 1.69922H6.145C6.48 1.69922 6.75 1.96922 6.75 2.30422Z" fill="currentColor"/>
<path d="M1 5.73V8.23C1 9.375 1.925 10.3 3.07 10.3H8.925C10.07 10.3 11 9.37 11 8.225V5.73C11 5.395 10.73 5.125 10.395 5.125H1.605C1.27 5.125 1 5.395 1 5.73ZM4 8.625H3C2.795 8.625 2.625 8.455 2.625 8.25C2.625 8.045 2.795 7.875 3 7.875H4C4.205 7.875 4.375 8.045 4.375 8.25C4.375 8.455 4.205 8.625 4 8.625ZM7.25 8.625H5.25C5.045 8.625 4.875 8.455 4.875 8.25C4.875 8.045 5.045 7.875 5.25 7.875H7.25C7.455 7.875 7.625 8.045 7.625 8.25C7.625 8.455 7.455 8.625 7.25 8.625Z" fill="currentColor"/>
<path d="M9.985 0.875H8.515C7.88 0.875 7.5 1.255 7.5 1.89V3.36C7.5 3.995 7.88 4.375 8.515 4.375H9.985C10.62 4.375 11 3.995 11 3.36V1.89C11 1.255 10.62 0.875 9.985 0.875ZM9.005 3.66C8.99 3.675 8.955 3.695 8.93 3.695L8.41 3.77C8.395 3.775 8.375 3.775 8.36 3.775C8.285 3.775 8.22 3.75 8.175 3.7C8.115 3.64 8.09 3.555 8.105 3.465L8.18 2.945C8.185 2.92 8.2 2.885 8.215 2.87L9.065 2.02C9.08 2.055 9.095 2.095 9.11 2.135C9.13 2.175 9.15 2.21 9.17 2.245C9.185 2.275 9.205 2.305 9.225 2.325C9.245 2.355 9.265 2.385 9.28 2.4C9.29 2.415 9.295 2.42 9.3 2.425C9.345 2.48 9.395 2.53 9.44 2.565C9.45 2.575 9.46 2.585 9.465 2.585C9.49 2.605 9.52 2.63 9.54 2.645C9.57 2.665 9.595 2.685 9.625 2.7C9.66 2.72 9.7 2.74 9.74 2.76C9.78 2.78 9.82 2.795 9.855 2.805L9.005 3.66ZM10.2 2.465L10.035 2.63C10.03 2.64 10.015 2.645 10 2.645C9.995 2.645 9.99 2.645 9.985 2.645C9.625 2.54 9.34 2.255 9.235 1.895C9.23 1.875 9.235 1.855 9.25 1.84L9.415 1.675C9.685 1.405 9.94 1.41 10.205 1.675C10.34 1.81 10.405 1.94 10.405 2.07C10.4 2.2 10.335 2.33 10.2 2.465Z" fill="currentColor"/>
</svg>
