<svg width="12" height="12" viewBox="0 0 12 12" fill="none" xmlns="http://www.w3.org/2000/svg">
<path d="M6 7.85V7.905C6 8.045 5.89 8.155 5.75 8.155H1.25C1.11 8.155 1 8.045 1 7.905V7.85C1 6.97 1.22 6.75 2.11 6.75H4.89C5.78 6.75 6 6.97 6 7.85Z" fill="currentColor"/>
<path d="M1.25 8.6543C1.11 8.6543 1 8.7643 1 8.9043V9.8993C1 10.7793 1.22 10.9993 2.11 10.9993H4.89C5.78 10.9993 6 10.7793 6 9.8993V8.9043C6 8.7643 5.89 8.6543 5.75 8.6543H1.25Z" fill="currentColor"/>
<path d="M11 7.5C11 9.435 9.435 11 7.5 11L8.025 10.125" fill="currentColor"/>
<path d="M1 4.5C1 2.565 2.565 1 4.5 1L3.975 1.875" fill="currentColor"/>
<path d="M9.25 5.5C10.4927 5.5 11.5 4.49264 11.5 3.25C11.5 2.00736 10.4927 1 9.25 1C8.00735 1 7 2.00736 7 3.25C7 4.49264 8.00735 5.5 9.25 5.5Z" fill="currentColor"/>
</svg>
