<svg width="12" height="12" viewBox="0 0 12 12" fill="none" xmlns="http://www.w3.org/2000/svg">
<path d="M7.61 3.27539H2.89C2.75 3.27539 2.62 3.28039 2.5 3.28539C1.315 3.35539 1 3.79039 1 5.1404V5.4304C1 5.7054 1.225 5.9304 1.5 5.9304H9C9.275 5.9304 9.5 5.7054 9.5 5.4304V5.1404C9.5 3.65039 9.12 3.27539 7.61 3.27539Z" fill="currentColor"/>
<path d="M1.5 6.6797C1.225 6.6797 1 6.9047 1 7.1797V8.6347C1 10.1247 1.38 10.4997 2.89 10.4997H7.61C9.095 10.4997 9.485 10.1397 9.5 8.7147V7.1797C9.5 6.9047 9.275 6.6797 9 6.6797H1.5ZM3.48 9.2797H2.625C2.42 9.2797 2.25 9.1097 2.25 8.9047C2.25 8.6997 2.42 8.5297 2.625 8.5297H3.485C3.69 8.5297 3.86 8.6997 3.86 8.9047C3.86 9.1097 3.69 9.2797 3.48 9.2797ZM6.275 9.2797H4.555C4.35 9.2797 4.18 9.1097 4.18 8.9047C4.18 8.6997 4.35 8.5297 4.555 8.5297H6.275C6.48 8.5297 6.65 8.6997 6.65 8.9047C6.65 9.1097 6.485 9.2797 6.275 9.2797Z" fill="currentColor"/>
<path d="M11.0008 6.6658V4.04578C11.0008 2.48078 10.1058 1.80078 8.7558 1.80078H4.29078C3.91078 1.80078 3.57079 1.85578 3.27079 1.97078C3.03579 2.05578 2.82579 2.18078 2.65579 2.34578C2.56579 2.43078 2.63578 2.57078 2.76578 2.57078H8.2008C9.3258 2.57078 10.2358 3.48078 10.2358 4.60578V8.1908C10.2358 8.3158 10.3708 8.3858 10.4608 8.2958C10.8058 7.9308 11.0008 7.3958 11.0008 6.6658Z" fill="currentColor"/>
</svg>
