<svg width="12" height="12" viewBox="0 0 12 12" fill="none" xmlns="http://www.w3.org/2000/svg">
<path d="M9.5 7.5C8.395 7.5 7.5 8.395 7.5 9.5C7.5 9.875 7.605 10.23 7.79 10.53C8.135 11.11 8.77 11.5 9.5 11.5C10.23 11.5 10.865 11.11 11.21 10.53C11.395 10.23 11.5 9.875 11.5 9.5C11.5 8.395 10.605 7.5 9.5 7.5ZM10.535 9.285L9.47 10.27C9.4 10.335 9.305 10.37 9.215 10.37C9.12 10.37 9.025 10.335 8.95 10.26L8.455 9.765C8.31 9.62 8.31 9.38 8.455 9.235C8.6 9.09 8.84 9.09 8.985 9.235L9.225 9.475L10.025 8.735C10.175 8.595 10.415 8.605 10.555 8.755C10.695 8.905 10.685 9.14 10.535 9.285Z" fill="currentColor"/>
<path d="M11 3.77422V3.99922C11 4.27422 10.775 4.49922 10.5 4.49922H1.5C1.225 4.49922 1 4.27422 1 3.99922V3.76922C1 2.62422 1.925 1.69922 3.07 1.69922H8.925C10.07 1.69922 11 2.62922 11 3.77422Z" fill="currentColor"/>
<path d="M1 5.74915V8.22915C1 9.37415 1.925 10.2991 3.07 10.2991H6.2C6.49 10.2991 6.74 10.0541 6.715 9.76415C6.645 8.99915 6.89 8.16915 7.57 7.50915C7.85 7.23415 8.195 7.02415 8.57 6.90415C9.195 6.70415 9.8 6.72915 10.335 6.90915C10.66 7.01915 11 6.78415 11 6.43915V5.74415C11 5.46915 10.775 5.24415 10.5 5.24415H1.5C1.225 5.24915 1 5.47415 1 5.74915ZM4 8.62415H3C2.795 8.62415 2.625 8.45415 2.625 8.24915C2.625 8.04415 2.795 7.87415 3 7.87415H4C4.205 7.87415 4.375 8.04415 4.375 8.24915C4.375 8.45415 4.205 8.62415 4 8.62415Z" fill="currentColor"/>
</svg>
