<svg width="12" height="12" viewBox="0 0 12 12" fill="none" xmlns="http://www.w3.org/2000/svg">
<path d="M9.4492 7.5156C8.3442 7.5156 7.4492 8.41065 7.4492 9.51565C7.4492 10.6206 8.3442 11.5156 9.4492 11.5156C10.5542 11.5156 11.4492 10.6206 11.4492 9.51565C11.4492 8.41065 10.5542 7.5156 9.4492 7.5156ZM10.2492 10.3406C10.1742 10.4156 10.0792 10.4506 9.9842 10.4506C9.8892 10.4506 9.7942 10.4156 9.7192 10.3406L9.4542 10.0756L9.1792 10.3506C9.1042 10.4256 9.0092 10.4606 8.9142 10.4606C8.8192 10.4606 8.7242 10.4256 8.6492 10.3506C8.5042 10.2056 8.5042 9.9656 8.6492 9.8206L8.9242 9.54565L8.6592 9.2806C8.5142 9.1356 8.5142 8.89565 8.6592 8.75065C8.8042 8.60565 9.0442 8.60565 9.1892 8.75065L9.4542 9.01565L9.7042 8.76565C9.8492 8.62065 10.0892 8.62065 10.2342 8.76565C10.3792 8.91065 10.3792 9.15065 10.2342 9.29565L9.9842 9.54565L10.2492 9.81065C10.3942 9.95565 10.3942 10.1956 10.2492 10.3406Z" fill="currentColor"/>
<path d="M11 3.77422V3.99922C11 4.27422 10.775 4.49922 10.5 4.49922H1.5C1.225 4.49922 1 4.27422 1 3.99922V3.76922C1 2.62422 1.925 1.69922 3.07 1.69922H8.925C10.07 1.69922 11 2.62922 11 3.77422Z" fill="currentColor"/>
<path d="M1 5.74915V8.22915C1 9.37415 1.925 10.2991 3.07 10.2991H6.2C6.49 10.2991 6.74 10.0541 6.715 9.76415C6.645 8.99915 6.89 8.16915 7.57 7.50915C7.85 7.23415 8.195 7.02415 8.57 6.90415C9.195 6.70415 9.8 6.72915 10.335 6.90915C10.66 7.01915 11 6.78415 11 6.43915V5.74415C11 5.46915 10.775 5.24415 10.5 5.24415H1.5C1.225 5.24915 1 5.47415 1 5.74915ZM4 8.62415H3C2.795 8.62415 2.625 8.45415 2.625 8.24915C2.625 8.04415 2.795 7.87415 3 7.87415H4C4.205 7.87415 4.375 8.04415 4.375 8.24915C4.375 8.45415 4.205 8.62415 4 8.62415Z" fill="currentColor"/>
</svg>
