<svg width="12" height="12" viewBox="0 0 12 12" fill="none" xmlns="http://www.w3.org/2000/svg">
<path d="M3.62 1H2.67C1.575 1 1 1.575 1 2.665V3.615C1 4.705 1.575 5.28 2.665 5.28H3.615C4.705 5.28 5.28 4.705 5.28 3.615V2.665C5.285 1.575 4.71 1 3.62 1Z" fill="currentColor"/>
<path d="M9.33475 1H8.38475C7.29475 1 6.71975 1.575 6.71975 2.665V3.615C6.71975 4.705 7.29475 5.28 8.38475 5.28H9.33475C10.4248 5.28 10.9998 4.705 10.9998 3.615V2.665C10.9998 1.575 10.4248 1 9.33475 1Z" fill="currentColor"/>
<path d="M9.33475 6.71485H8.38475C7.29475 6.71485 6.71975 7.28985 6.71975 8.37985V9.32985C6.71975 10.4199 7.29475 10.9949 8.38475 10.9949H9.33475C10.4248 10.9949 10.9998 10.4199 10.9998 9.32985V8.37985C10.9998 7.28985 10.4248 6.71485 9.33475 6.71485Z" fill="currentColor"/>
<path d="M3.62 6.71485H2.67C1.575 6.71485 1 7.28985 1 8.37985V9.32985C1 10.4249 1.575 10.9999 2.665 10.9999H3.615C4.705 10.9999 5.28 10.4249 5.28 9.33485V8.38485C5.285 7.28985 4.71 6.71485 3.62 6.71485Z" fill="currentColor"/>
</svg>
