<svg width="12" height="12" viewBox="0 0 12 12" fill="none" xmlns="http://www.w3.org/2000/svg">
<path d="M9.33475 1H8.38475C7.29475 1 6.71975 1.575 6.71975 2.665V3.615C6.71975 4.705 7.29475 5.28 8.38475 5.28H9.33475C10.4248 5.28 10.9998 4.705 10.9998 3.615V2.665C10.9998 1.575 10.4248 1 9.33475 1Z" fill="currentColor"/>
<path d="M3.62 6.71485H2.67C1.575 6.71485 1 7.28985 1 8.37985V9.32985C1 10.4249 1.575 10.9999 2.665 10.9999H3.615C4.705 10.9999 5.28 10.4249 5.28 9.33485V8.38485C5.285 7.28985 4.71 6.71485 3.62 6.71485Z" fill="currentColor"/>
<path d="M3.145 5.29C4.32965 5.29 5.29 4.32965 5.29 3.145C5.29 1.96035 4.32965 1 3.145 1C1.96035 1 1 1.96035 1 3.145C1 4.32965 1.96035 5.29 3.145 5.29Z" fill="currentColor"/>
<path d="M8.85495 11.0009C10.0396 11.0009 11 10.0406 11 8.85595C11 7.6713 10.0396 6.71095 8.85495 6.71095C7.6703 6.71095 6.70995 7.6713 6.70995 8.85595C6.70995 10.0406 7.6703 11.0009 8.85495 11.0009Z" fill="currentColor"/>
</svg>
