<svg width="12" height="12" viewBox="0 0 12 12" fill="none" xmlns="http://www.w3.org/2000/svg">
<path d="M11 11H1C0.795 11 0.625 10.83 0.625 10.625C0.625 10.42 0.795 10.25 1 10.25H11C11.205 10.25 11.375 10.42 11.375 10.625C11.375 10.83 11.205 11 11 11Z" fill="currentColor"/>
<path d="M4.875 2V11H7.125V2C7.125 1.45 6.9 1 6.225 1H5.775C5.1 1 4.875 1.45 4.875 2Z" fill="currentColor"/>
<path d="M1.5 5V11H3.5V5C3.5 4.45 3.3 4 2.7 4H2.3C1.7 4 1.5 4.45 1.5 5Z" fill="currentColor"/>
<path d="M8.5 7.5V11H10.5V7.5C10.5 6.95 10.3 6.5 9.7 6.5H9.3C8.7 6.5 8.5 6.95 8.5 7.5Z" fill="currentColor"/>
</svg>
