<svg width="12" height="12" viewBox="0 0 12 12" fill="none" xmlns="http://www.w3.org/2000/svg">
<path d="M8.095 1H3.905C2.085 1 1 2.085 1 3.905V8.09C1 9.915 2.085 11 3.905 11H8.09C9.91 11 10.995 9.915 10.995 8.095V3.905C11 2.085 9.915 1 8.095 1ZM4.955 8.095C4.955 8.415 4.695 8.675 4.37 8.675C4.05 8.675 3.79 8.415 3.79 8.095V6.465C3.79 6.145 4.05 5.885 4.37 5.885C4.695 5.885 4.955 6.145 4.955 6.465V8.095ZM8.21 8.095C8.21 8.415 7.95 8.675 7.63 8.675C7.305 8.675 7.045 8.415 7.045 8.095V3.905C7.045 3.585 7.305 3.325 7.63 3.325C7.95 3.325 8.21 3.585 8.21 3.905V8.095Z" fill="currentColor"/>
</svg>
