<svg width="12" height="12" viewBox="0 0 12 12" fill="none" xmlns="http://www.w3.org/2000/svg">
<path d="M6 1C3.24 1 1 3.24 1 6C1 8.76 3.24 11 6 11C8.76 11 11 8.76 11 6C11 3.24 8.76 1 6 1ZM6 4.375C5.795 4.375 5.625 4.205 5.625 4C5.625 3.795 5.795 3.625 6 3.625C7.31 3.625 8.375 4.69 8.375 6C8.375 7.31 7.31 8.375 6 8.375C5.795 8.375 5.625 8.205 5.625 8C5.625 7.795 5.795 7.625 6 7.625C6.895 7.625 7.625 6.895 7.625 6C7.625 5.105 6.895 4.375 6 4.375ZM6 9.875C3.865 9.875 2.125 8.135 2.125 6C2.125 5.795 2.295 5.625 2.5 5.625C2.705 5.625 2.875 5.795 2.875 6C2.875 7.725 4.275 9.125 6 9.125C7.725 9.125 9.125 7.725 9.125 6C9.125 4.275 7.725 2.875 6 2.875C5.795 2.875 5.625 2.705 5.625 2.5C5.625 2.295 5.795 2.125 6 2.125C8.135 2.125 9.875 3.865 9.875 6C9.875 8.135 8.135 9.875 6 9.875Z" fill="currentColor"/>
</svg>
