<svg width="12" height="12" viewBox="0 0 12 12" fill="none" xmlns="http://www.w3.org/2000/svg">
<path d="M10.5 11.375H1.5C1.295 11.375 1.125 11.205 1.125 11C1.125 10.795 1.295 10.625 1.5 10.625H10.5C10.705 10.625 10.875 10.795 10.875 11C10.875 11.205 10.705 11.375 10.5 11.375Z" fill="currentColor"/>
<path d="M2.8 4.18946H2C1.725 4.18946 1.5 4.41445 1.5 4.68946V8.99945C1.5 9.27445 1.725 9.49945 2 9.49945H2.8C3.075 9.49945 3.3 9.27445 3.3 8.99945V4.68946C3.3 4.40946 3.075 4.18946 2.8 4.18946Z" fill="currentColor"/>
<path d="M6.3996 2.59571H5.5996C5.3246 2.59571 5.0996 2.82071 5.0996 3.09571V9.0007C5.0996 9.2757 5.3246 9.5007 5.5996 9.5007H6.3996C6.6746 9.5007 6.8996 9.2757 6.8996 9.0007V3.09571C6.8996 2.82071 6.6746 2.59571 6.3996 2.59571Z" fill="currentColor"/>
<path d="M10.0002 1H9.2002C8.9252 1 8.7002 1.225 8.7002 1.5V9C8.7002 9.275 8.9252 9.5 9.2002 9.5H10.0002C10.2752 9.5 10.5002 9.275 10.5002 9V1.5C10.5002 1.225 10.2752 1 10.0002 1Z" fill="currentColor"/>
</svg>
