<svg width="12" height="12" viewBox="0 0 12 12" fill="none" xmlns="http://www.w3.org/2000/svg">
<path d="M10.485 8H9.015C8.38 8 8 8.38 8 9.015V10.485C8 11.12 8.38 11.5 9.015 11.5H10.485C11.12 11.5 11.5 11.12 11.5 10.485V9.015C11.5 8.38 11.12 8 10.485 8ZM10.815 9.225L9.63 10.61C9.58 10.665 9.515 10.7 9.44 10.7C9.44 10.7 9.435 10.7 9.43 10.7C9.365 10.7 9.295 10.675 9.25 10.625L8.7 10.085C8.6 9.985 8.6 9.82 8.7 9.715C8.8 9.615 8.965 9.615 9.07 9.715L9.415 10.06L10.42 8.89C10.51 8.78 10.675 8.765 10.785 8.86C10.895 8.955 10.905 9.12 10.815 9.225Z" fill="currentColor"/>
<path d="M10.485 8H9.015C8.38 8 8 8.38 8 9.015V10.485C8 11.12 8.38 11.5 9.015 11.5H10.485C11.12 11.5 11.5 11.12 11.5 10.485V9.015C11.5 8.38 11.12 8 10.485 8ZM10.815 9.225L9.63 10.61C9.58 10.665 9.515 10.7 9.44 10.7C9.44 10.7 9.435 10.7 9.43 10.7C9.365 10.7 9.295 10.675 9.25 10.625L8.7 10.085C8.6 9.985 8.6 9.82 8.7 9.715C8.8 9.615 8.965 9.615 9.07 9.715L9.415 10.06L10.42 8.89C10.51 8.78 10.675 8.765 10.785 8.86C10.895 8.955 10.905 9.12 10.815 9.225Z" fill="currentColor"/>
<path d="M10.985 3.605C10.845 2.24 9.76 1.155 8.395 1.015C8.295 1.005 8.195 1 8.095 1H3.905C3.805 1 3.705 1.005 3.605 1.015C2.24 1.155 1.155 2.24 1.015 3.605C1.005 3.705 1 3.805 1 3.905V8.095C1 8.195 1.005 8.295 1.015 8.395C1.155 9.76 2.24 10.845 3.605 10.985C3.705 10.995 3.805 11 3.905 11H7C7.275 11 7.5 10.775 7.5 10.5V9.015C7.5 8.18 8.18 7.5 9.015 7.5H10.5C10.775 7.5 11 7.275 11 7V3.905C11 3.805 10.995 3.705 10.985 3.605ZM3.875 6.75C3.875 6.955 3.705 7.125 3.5 7.125C3.295 7.125 3.125 6.955 3.125 6.75V5.25C3.125 5.045 3.295 4.875 3.5 4.875C3.705 4.875 3.875 5.045 3.875 5.25V6.75ZM6.375 6.75C6.375 6.955 6.205 7.125 6 7.125C5.795 7.125 5.625 6.955 5.625 6.75V5.25C5.625 5.045 5.795 4.875 6 4.875C6.205 4.875 6.375 5.045 6.375 5.25V6.75Z" fill="currentColor"/>
</svg>
