<svg width="12" height="12" viewBox="0 0 12 12" fill="none" xmlns="http://www.w3.org/2000/svg">
<path d="M8.095 1H3.905C2.085 1 1 2.085 1 3.905V8.09C1 9.915 2.085 11 3.905 11H8.09C9.91 11 10.995 9.915 10.995 8.095V3.905C11 2.085 9.915 1 8.095 1ZM4.555 8.45C4.555 8.59 4.445 8.7 4.305 8.7H2.91C2.77 8.7 2.66 8.59 2.66 8.45V6.14C2.66 5.825 2.915 5.57 3.23 5.57H4.305C4.445 5.57 4.555 5.68 4.555 5.82V8.45ZM6.945 8.45C6.945 8.59 6.835 8.7 6.695 8.7H5.3C5.16 8.7 5.05 8.59 5.05 8.45V3.87C5.05 3.555 5.305 3.3 5.62 3.3H6.38C6.695 3.3 6.95 3.555 6.95 3.87V8.45H6.945ZM9.34 8.45C9.34 8.59 9.23 8.7 9.09 8.7H7.695C7.555 8.7 7.445 8.59 7.445 8.45V6.675C7.445 6.535 7.555 6.425 7.695 6.425H8.77C9.085 6.425 9.34 6.68 9.34 6.995V8.45Z" fill="currentColor"/>
</svg>
