<svg width="12" height="12" viewBox="0 0 12 12" fill="none" xmlns="http://www.w3.org/2000/svg">
<path d="M8.095 1H3.905C2.085 1 1 2.085 1 3.905V8.095C1 9.915 2.085 11 3.905 11H8.095C9.915 11 11 9.915 11 8.095V3.905C11 2.085 9.915 1 8.095 1ZM3.875 6.8C3.875 7.005 3.705 7.175 3.5 7.175C3.295 7.175 3.125 7.005 3.125 6.8V5.2C3.125 4.995 3.295 4.825 3.5 4.825C3.705 4.825 3.875 4.995 3.875 5.2V6.8ZM6.375 7.67C6.375 7.875 6.205 8.045 6 8.045C5.795 8.045 5.625 7.875 5.625 7.67V4.33C5.625 4.125 5.795 3.955 6 3.955C6.205 3.955 6.375 4.125 6.375 4.33V7.67ZM8.875 6.8C8.875 7.005 8.705 7.175 8.5 7.175C8.295 7.175 8.125 7.005 8.125 6.8V5.2C8.125 4.995 8.295 4.825 8.5 4.825C8.705 4.825 8.875 4.995 8.875 5.2V6.8Z" fill="currentColor"/>
</svg>
