<svg width="12" height="12" viewBox="0 0 12 12" fill="none" xmlns="http://www.w3.org/2000/svg">
<path d="M5.90975 3.45C7.33975 3.14 8.78975 3.095 10.2247 3.33C9.33975 1.93 7.77975 1 5.99975 1C4.44476 1 3.05476 1.71 2.13476 2.825C2.35476 3.475 2.63476 4.095 2.96976 4.685C3.15976 5.025 3.64476 5.01 3.83976 4.675C4.26476 3.96 5.02975 3.48 5.90975 3.45Z" fill="currentColor"/>
<path d="M3.86001 7.3607C2.86001 6.2907 2.08001 5.0707 1.54501 3.72071C0.795008 5.2007 0.800008 7.0157 1.71501 8.5407C2.51501 9.8757 3.83501 10.7057 5.265 10.9207C5.71 10.3957 6.1 9.8357 6.435 9.2507C6.63 8.9107 6.365 8.5057 5.975 8.5057C5.14 8.5107 4.33501 8.1007 3.86001 7.3607Z" fill="currentColor"/>
<path d="M4.28515 5.9991C4.28515 6.3041 4.36015 6.5891 4.51515 6.8591C4.82015 7.3841 5.38515 7.7141 5.99515 7.7141C6.60515 7.7141 7.17515 7.3841 7.47515 6.8591C7.63015 6.5891 7.71015 6.3041 7.71015 5.9991C7.71015 5.0541 6.94015 4.28908 5.99515 4.28908C5.05515 4.28408 4.28515 5.0541 4.28515 5.9991Z" fill="currentColor"/>
<path d="M10.6701 4.20965C9.9851 4.06465 9.2901 3.98465 8.6001 3.97465C8.2051 3.96965 7.9801 4.39966 8.1751 4.74466C8.3751 5.09965 8.4901 5.50965 8.4901 5.94465C8.4901 6.36465 8.3801 6.77965 8.1751 7.14965C7.7051 8.58965 7.0051 9.86965 6.0801 10.9997C8.8051 10.9546 11.0001 8.73465 11.0001 5.99965C11.0001 5.36965 10.8851 4.76465 10.6701 4.20965Z" fill="currentColor"/>
</svg>
