<svg width="12" height="12" viewBox="0 0 12 12" fill="none" xmlns="http://www.w3.org/2000/svg">
<path d="M7.1749 1H4.82489C4.30489 1 3.87989 1.42 3.87989 1.94V2.41C3.87989 2.93 4.29989 3.35 4.81989 3.35H7.1749C7.6949 3.35 8.1149 2.93 8.1149 2.41V1.94C8.1199 1.42 7.6949 1 7.1749 1Z" fill="currentColor"/>
<path d="M8.61955 2.40975C8.61955 3.20475 7.96955 3.85474 7.17455 3.85474H4.82453C4.02953 3.85474 3.37953 3.20475 3.37953 2.40975C3.37953 2.12975 3.07953 1.95475 2.82953 2.08475C2.12453 2.45975 1.64453 3.20474 1.64453 4.05974V8.76475C1.64453 9.99475 2.64953 10.9998 3.87953 10.9998H8.11955C9.34955 10.9998 10.3546 9.99475 10.3546 8.76475V4.05974C10.3546 3.20474 9.87455 2.45975 9.16955 2.08475C8.91955 1.95475 8.61955 2.12975 8.61955 2.40975ZM7.76455 8.76475C7.68955 8.83975 7.59455 8.87475 7.49955 8.87475C7.40455 8.87475 7.30955 8.83975 7.23455 8.76475L4.87453 6.40475V6.99975C4.87453 7.20475 4.70453 7.37475 4.49953 7.37475C4.29453 7.37475 4.12453 7.20475 4.12453 6.99975V5.49975C4.12453 5.29475 4.29453 5.12475 4.49953 5.12475H5.99955C6.20455 5.12475 6.37455 5.29475 6.37455 5.49975C6.37455 5.70475 6.20455 5.87475 5.99955 5.87475H5.40455L7.76455 8.23475C7.90955 8.37975 7.90955 8.61975 7.76455 8.76475Z" fill="currentColor"/>
</svg>
