<svg width="12" height="12" viewBox="0 0 12 12" fill="none" xmlns="http://www.w3.org/2000/svg">
<path d="M7.1749 1H4.82489C4.30489 1 3.87989 1.42 3.87989 1.94V2.41C3.87989 2.93 4.29989 3.35 4.81989 3.35H7.1749C7.6949 3.35 8.1149 2.93 8.1149 2.41V1.94C8.1199 1.42 7.6949 1 7.1749 1Z" fill="currentColor"/>
<path d="M8.61955 2.40975C8.61955 3.20475 7.96955 3.85474 7.17455 3.85474H4.82453C4.02953 3.85474 3.37953 3.20475 3.37953 2.40975C3.37953 2.12975 3.07953 1.95475 2.82953 2.08475C2.12453 2.45975 1.64453 3.20474 1.64453 4.05974V8.76475C1.64453 9.99475 2.64953 10.9998 3.87953 10.9998H8.11955C9.34955 10.9998 10.3546 9.99475 10.3546 8.76475V4.05974C10.3546 3.20474 9.87455 2.45975 9.16955 2.08475C8.91955 1.95475 8.61955 2.12975 8.61955 2.40975ZM7.26455 8.34475C7.18955 8.41975 7.09455 8.45475 6.99955 8.45475C6.90455 8.45475 6.80955 8.41975 6.73455 8.34475L6.00955 7.61975L5.26455 8.36475C5.18955 8.43975 5.09455 8.47475 4.99953 8.47475C4.90453 8.47475 4.80953 8.43975 4.73453 8.36475C4.58953 8.21975 4.58953 7.97975 4.73453 7.83475L5.47955 7.08975L4.75453 6.36475C4.60953 6.21975 4.60953 5.97975 4.75453 5.83475C4.89953 5.68975 5.13955 5.68975 5.28455 5.83475L6.00955 6.55975L6.70955 5.85975C6.85455 5.71475 7.09455 5.71475 7.23955 5.85975C7.38455 6.00475 7.38455 6.24475 7.23955 6.38975L6.53955 7.08975L7.26455 7.81475C7.40955 7.95975 7.40955 8.19475 7.26455 8.34475Z" fill="currentColor"/>
</svg>
