<svg width="12" height="12" viewBox="0 0 12 12" fill="none" xmlns="http://www.w3.org/2000/svg">
<path d="M7.1749 1H4.82489C4.30489 1 3.87989 1.42 3.87989 1.94V2.41C3.87989 2.93 4.29989 3.35 4.81989 3.35H7.1749C7.6949 3.35 8.1149 2.93 8.1149 2.41V1.94C8.1199 1.42 7.6949 1 7.1749 1Z" fill="currentColor"/>
<path d="M8.61955 2.40975C8.61955 3.20475 7.96955 3.85474 7.17455 3.85474H4.82453C4.02953 3.85474 3.37953 3.20475 3.37953 2.40975C3.37953 2.12975 3.07953 1.95475 2.82953 2.08475C2.12453 2.45975 1.64453 3.20474 1.64453 4.05974V8.76475C1.64453 9.99475 2.64953 10.9998 3.87953 10.9998H8.11955C9.34955 10.9998 10.3546 9.99475 10.3546 8.76475V4.05974C10.3546 3.20474 9.87455 2.45975 9.16955 2.08475C8.91955 1.95475 8.61955 2.12975 8.61955 2.40975ZM7.66955 6.36475L5.66955 8.36475C5.59455 8.43975 5.49955 8.47475 5.40455 8.47475C5.30955 8.47475 5.21455 8.43975 5.13955 8.36475L4.38953 7.61475C4.24453 7.46975 4.24453 7.22975 4.38953 7.08475C4.53453 6.93975 4.77453 6.93975 4.91953 7.08475L5.40455 7.56975L7.13955 5.83475C7.28455 5.68975 7.52455 5.68975 7.66955 5.83475C7.81455 5.97975 7.81455 6.21975 7.66955 6.36475Z" fill="currentColor"/>
</svg>
