<svg width="12" height="12" viewBox="0 0 12 12" fill="none" xmlns="http://www.w3.org/2000/svg">
<path d="M6.945 1.43909L4.6 1.06909C2.645 0.764094 1.74 1.42409 1.43 3.37909L1.06 5.7241C0.859996 7.0041 1.07 7.8341 1.795 8.3391C2.175 8.6091 2.695 8.7891 3.37 8.8941L5.715 9.2641C7.67 9.5691 8.575 8.9091 8.885 6.9541L9.25 4.60909C9.31 4.22409 9.335 3.87909 9.315 3.57409C9.25 2.32409 8.515 1.68409 6.945 1.43909ZM4.12 4.67409C3.535 4.67409 3.06 4.19909 3.06 3.61909C3.06 3.03409 3.535 2.55909 4.12 2.55909C4.7 2.55909 5.175 3.03409 5.175 3.61909C5.175 4.19909 4.7 4.67409 4.12 4.67409Z" fill="currentColor"/>
<path d="M10.2503 6.7343L9.5003 8.9893C8.8753 10.8693 7.8753 11.3693 5.9953 10.7443L3.74032 9.9943C3.03532 9.7593 2.52532 9.4693 2.19531 9.1043C2.51031 9.2293 2.87532 9.3243 3.29032 9.3893L5.6403 9.7593C5.9603 9.8093 6.2603 9.8343 6.5403 9.8343C8.1903 9.8343 9.0753 8.9443 9.3803 7.0293L9.7453 4.68429C9.7953 4.39429 9.8153 4.13929 9.8153 3.90429C10.5753 4.52929 10.6853 5.4193 10.2503 6.7343Z" fill="currentColor"/>
</svg>
