<svg width="12" height="12" viewBox="0 0 12 12" fill="none" xmlns="http://www.w3.org/2000/svg">
<path d="M7.1749 1H4.82489C4.30489 1 3.87989 1.42 3.87989 1.94V2.41C3.87989 2.93 4.29989 3.35 4.81989 3.35H7.1749C7.6949 3.35 8.1149 2.93 8.1149 2.41V1.94C8.1199 1.42 7.6949 1 7.1749 1Z" fill="currentColor"/>
<path d="M8.61955 2.40975C8.61955 3.20475 7.96955 3.85474 7.17455 3.85474H4.82453C4.02953 3.85474 3.37953 3.20475 3.37953 2.40975C3.37953 2.12975 3.07953 1.95475 2.82953 2.08475C2.12453 2.45975 1.64453 3.20474 1.64453 4.05974V8.76475C1.64453 9.99475 2.64953 10.9998 3.87953 10.9998H8.11955C9.34955 10.9998 10.3546 9.99475 10.3546 8.76475V4.05974C10.3546 3.20474 9.87455 2.45975 9.16955 2.08475C8.91955 1.95475 8.61955 2.12975 8.61955 2.40975ZM7.87455 8.49975C7.87455 8.70475 7.70455 8.87475 7.49955 8.87475H5.99955C5.79455 8.87475 5.62455 8.70475 5.62455 8.49975C5.62455 8.29475 5.79455 8.12475 5.99955 8.12475H6.59455L4.23453 5.76475C4.08953 5.61975 4.08953 5.37975 4.23453 5.23475C4.37953 5.08975 4.61953 5.08975 4.76453 5.23475L7.12455 7.59475V6.99975C7.12455 6.79475 7.29455 6.62475 7.49955 6.62475C7.70455 6.62475 7.87455 6.79475 7.87455 6.99975V8.49975Z" fill="currentColor"/>
</svg>
