<svg width="12" height="12" viewBox="0 0 12 12" fill="none" xmlns="http://www.w3.org/2000/svg">
<path d="M7.3592 9.4986C7.55815 9.42105 7.7879 9.59055 7.74525 9.79975C7.50025 10.7498 6.95025 10.9998 6.27525 10.9998H5.73025C5.05525 10.9998 4.50027 10.7498 4.26027 9.79475C4.21915 9.58525 4.44778 9.4171 4.6466 9.495C5.0739 9.6624 5.53065 9.74975 6.00025 9.74975C6.4721 9.74975 6.9312 9.66545 7.3592 9.4986Z" fill="currentColor"/>
<path d="M7.7454 2.2C7.7896 2.41136 7.5566 2.58345 7.35565 2.50435C6.9368 2.33945 6.47975 2.25 6.0004 2.25C5.5216 2.25 5.06545 2.34056 4.64621 2.50564C4.44727 2.58397 4.21771 2.4145 4.26039 2.205C4.50039 1.25 5.0554 1 5.7304 1H6.2754C6.9504 1 7.5004 1.25 7.7454 2.2Z" fill="currentColor"/>
<path d="M6 2.75C4.205 2.75 2.75 4.205 2.75 6C2.75 7.05 3.245 7.98 4.015 8.575H4.02C4.57 9 5.255 9.25 6 9.25C6.755 9.25 7.445 8.995 7.995 8.565H8C8.76 7.97 9.25 7.04 9.25 6C9.25 4.205 7.795 2.75 6 2.75ZM6.965 7.19C6.89 7.265 6.795 7.3 6.7 7.3C6.605 7.3 6.51 7.265 6.435 7.19L5.735 6.49C5.665 6.42 5.625 6.325 5.625 6.225V4.83C5.625 4.625 5.795 4.455 6 4.455C6.205 4.455 6.375 4.625 6.375 4.83V6.07L6.965 6.66C7.11 6.805 7.11 7.045 6.965 7.19Z" fill="currentColor"/>
</svg>
