<svg width="12" height="12" viewBox="0 0 12 12" fill="none" xmlns="http://www.w3.org/2000/svg">
<path d="M8.095 1H3.905C2.085 1 1 2.085 1 3.905V8.09C1 9.915 2.085 11 3.905 11H8.09C9.91 11 10.995 9.915 10.995 8.095V3.905C11 2.085 9.915 1 8.095 1ZM7.68 7.15C7.825 7.295 7.825 7.535 7.68 7.68C7.605 7.755 7.51 7.79 7.415 7.79C7.32 7.79 7.225 7.755 7.15 7.68L6 6.53L4.85 7.68C4.775 7.755 4.68 7.79 4.585 7.79C4.49 7.79 4.395 7.755 4.32 7.68C4.175 7.535 4.175 7.295 4.32 7.15L5.47 6L4.32 4.85C4.175 4.705 4.175 4.465 4.32 4.32C4.465 4.175 4.705 4.175 4.85 4.32L6 5.47L7.15 4.32C7.295 4.175 7.535 4.175 7.68 4.32C7.825 4.465 7.825 4.705 7.68 4.85L6.53 6L7.68 7.15Z" fill="currentColor"/>
</svg>
