<svg width="12" height="12" viewBox="0 0 12 12" fill="none" xmlns="http://www.w3.org/2000/svg">
<path d="M6.735 7.1953H5.265C4.63 7.1953 4.25 7.5753 4.25 8.2103V9.6803C4.25 10.3153 4.63 10.6953 5.265 10.6953H6.735C7.37 10.6953 7.75 10.3153 7.75 9.6803V8.2103C7.75 7.5753 7.37 7.1953 6.735 7.1953ZM7.205 9.1603C7.155 9.2103 7.08 9.2453 7 9.2503H6.295L6.3 9.9453C6.295 10.0303 6.265 10.1003 6.205 10.1603C6.155 10.2103 6.08 10.2453 6 10.2453C5.835 10.2453 5.7 10.1103 5.7 9.9453V9.2453L5 9.2503C4.835 9.2503 4.7 9.1103 4.7 8.9453C4.7 8.7803 4.835 8.6453 5 8.6453L5.7 8.6503V7.9503C5.7 7.7853 5.835 7.6453 6 7.6453C6.165 7.6453 6.3 7.7853 6.3 7.9503L6.295 8.6453H7C7.165 8.6453 7.3 8.7803 7.3 8.9453C7.295 9.0303 7.26 9.1003 7.205 9.1603Z" fill="currentColor"/>
<path d="M10.085 8.78545C9.82 9.03045 9.515 9.21545 9.185 9.34045C8.855 9.46545 8.5 9.22545 8.5 8.87045V8.21045C8.5 7.23545 7.71 6.44545 6.735 6.44545H5.265C4.29 6.44545 3.5 7.23545 3.5 8.21045V9.00045C3.5 9.27545 3.275 9.50045 3 9.50045H2.775C1.55 9.31545 1 8.32045 1 7.43045C1 6.59045 1.49 5.66045 2.555 5.40045C2.26 4.23546 2.51 3.14046 3.27 2.34546C4.135 1.44046 5.515 1.08046 6.705 1.45046C7.8 1.78546 8.57 2.68546 8.845 3.93546C9.8 4.15046 10.565 4.87046 10.87 5.87045C11.2 6.95545 10.9 8.07045 10.085 8.78545Z" fill="currentColor"/>
</svg>
