<svg width="12" height="12" viewBox="0 0 12 12" fill="none" xmlns="http://www.w3.org/2000/svg">
<path d="M10.87 6.45445C10.74 6.02445 10.525 5.64945 10.24 5.34445C9.875 4.92944 9.39 4.64444 8.845 4.51944C8.57 3.26944 7.8 2.36944 6.705 2.03444C5.515 1.66444 4.135 2.02444 3.27 2.92944C2.51 3.72444 2.26 4.81944 2.555 5.98445C1.555 6.22945 1.06 7.06445 1.005 7.85945C1 7.91445 1 7.96445 1 8.01445C1 8.95445 1.615 10.0095 2.985 10.1095H8.175C8.885 10.1095 9.565 9.84445 10.085 9.36945C10.9 8.65445 11.2 7.53945 10.87 6.45445Z" fill="currentColor"/>
</svg>
