<svg width="12" height="12" viewBox="0 0 12 12" fill="none" xmlns="http://www.w3.org/2000/svg">
<path d="M9.9005 6.00065H2.10051C1.99051 6.00065 1.89051 5.92565 1.85551 5.82065C0.480513 1.27563 7.4205 -0.469375 8.2255 4.41062C9.0555 4.51562 9.7105 4.98562 10.1155 5.61565C10.2205 5.78065 10.0955 6.00065 9.9005 6.00065Z" fill="currentColor"/>
<path d="M10 7.8906H2C1.795 7.8906 1.625 7.7206 1.625 7.5156C1.625 7.31065 1.795 7.1406 2 7.1406H10C10.205 7.1406 10.375 7.31065 10.375 7.5156C10.375 7.7206 10.205 7.8906 10 7.8906Z" fill="currentColor"/>
<path d="M9 9.3906H3C2.795 9.3906 2.625 9.2206 2.625 9.0156C2.625 8.81065 2.795 8.6406 3 8.6406H9C9.205 8.6406 9.375 8.81065 9.375 9.0156C9.375 9.2206 9.205 9.3906 9 9.3906Z" fill="currentColor"/>
<path d="M7.5 10.8906H4.5C4.295 10.8906 4.125 10.7206 4.125 10.5156C4.125 10.3106 4.295 10.1406 4.5 10.1406H7.5C7.705 10.1406 7.875 10.3106 7.875 10.5156C7.875 10.7206 7.705 10.8906 7.5 10.8906Z" fill="currentColor"/>
</svg>
