<svg width="12" height="12" viewBox="0 0 12 12" fill="none" xmlns="http://www.w3.org/2000/svg">
<path d="M6 5.7656C4.62 5.7656 3.5 6.88565 3.5 8.26565C3.5 8.63565 3.58 8.98565 3.73 9.29565C3.77 9.38565 3.815 9.47065 3.865 9.55065C4.295 10.2757 5.09 10.7657 6 10.7657C6.91 10.7657 7.705 10.2757 8.135 9.55065C8.185 9.47065 8.23 9.38565 8.27 9.29565C8.42 8.98565 8.5 8.63565 8.5 8.26565C8.5 6.88565 7.38 5.7656 6 5.7656ZM6.75 9.0706C6.675 9.1456 6.58 9.18065 6.485 9.18065C6.39 9.18065 6.295 9.1456 6.22 9.0706L5.955 8.80565L5.68 9.08065C5.605 9.15565 5.51 9.1906 5.415 9.1906C5.32 9.1906 5.225 9.15565 5.15 9.08065C5.005 8.93565 5.005 8.69565 5.15 8.55065L5.425 8.2756L5.16 8.01065C5.015 7.86565 5.015 7.62565 5.16 7.48065C5.305 7.33565 5.545 7.33565 5.69 7.48065L5.955 7.74565L6.205 7.49565C6.35 7.35065 6.59 7.35065 6.735 7.49565C6.88 7.6406 6.88 7.8806 6.735 8.0256L6.485 8.2756L6.75 8.54065C6.895 8.69065 6.895 8.9256 6.75 9.0706Z" fill="currentColor"/>
<path d="M10.0996 8.64545C9.91965 8.80545 9.72465 8.94045 9.51465 9.05045C9.33465 9.14045 9.15465 8.96545 9.18465 8.76545C9.20465 8.62045 9.21465 8.47045 9.21465 8.31545C9.21465 6.52545 7.75465 5.06545 5.96465 5.06545C4.17467 5.06545 2.71467 6.52545 2.71467 8.31545C2.71467 8.54545 2.73967 8.76545 2.78467 8.98045C2.81967 9.15545 2.68467 9.33045 2.50967 9.28545C0.534669 8.80545 0.524669 5.76545 2.73467 5.60545H2.75967C1.15467 1.14547 7.92465 -0.639529 8.69965 4.05047C10.8646 4.32547 11.7396 7.21045 10.0996 8.64545Z" fill="currentColor"/>
</svg>
