<svg width="12" height="12" viewBox="0 0 12 12" fill="none" xmlns="http://www.w3.org/2000/svg">
<path d="M10.3058 5.41525C9.92085 4.95522 9.42585 4.65523 8.85085 4.52523C8.72085 3.94523 8.49585 3.44523 8.16585 3.03023C8.15585 3.01523 8.14585 3.00023 8.13585 2.99023C7.03585 1.66023 5.23585 1.66523 4.02086 2.35523C2.98086 2.95023 2.09586 4.20522 2.56086 5.9952C1.49586 6.25525 1.00586 7.1852 1.00586 8.0252C1.00586 8.9652 1.62086 10.0202 2.99086 10.1202H8.16085C8.16585 10.1202 8.17585 10.1202 8.18085 10.1202C8.89085 10.1202 9.57085 9.85525 10.0958 9.37525C11.3508 8.2652 11.1858 6.4552 10.3058 5.41525Z" fill="currentColor"/>
<path d="M10.8796 4.37086C10.8796 4.54086 10.8596 4.70586 10.8096 4.86586C10.4446 4.44086 9.9796 4.12586 9.4646 3.93086C9.3046 3.43086 9.0746 2.98586 8.7746 2.59586C8.7596 2.57586 8.7446 2.55586 8.7246 2.53086C8.8196 2.51086 8.9196 2.50586 9.0146 2.50586C10.0446 2.50586 10.8796 3.34086 10.8796 4.37086Z" fill="currentColor"/>
</svg>
