<svg width="12" height="12" viewBox="0 0 12 12" fill="none" xmlns="http://www.w3.org/2000/svg">
<path d="M9.60035 7.39055C9.17035 7.78555 8.60035 8.00555 8.01535 8.00055H3.18535C1.15035 7.85555 1.14535 4.90057 3.18535 4.75557H3.20535C1.81035 0.875568 7.70535 -0.669432 8.38035 3.40057C10.2654 3.64057 11.0304 6.14555 9.60035 7.39055Z" fill="currentColor"/>
<path d="M9.375 10.5C9.375 10.705 9.205 10.875 9 10.875H7C6.975 10.875 6.955 10.875 6.93 10.865C6.785 11.235 6.42 11.5 6 11.5C5.58 11.5 5.215 11.235 5.07 10.865C5.045 10.875 5.025 10.875 5 10.875H3C2.795 10.875 2.625 10.705 2.625 10.5C2.625 10.295 2.795 10.125 3 10.125H5C5.025 10.125 5.045 10.125 5.07 10.135C5.17 9.875 5.375 9.67 5.635 9.57C5.625 9.545 5.625 9.525 5.625 9.5V8H6.375V9.5C6.375 9.525 6.375 9.545 6.365 9.57C6.625 9.67 6.83 9.875 6.93 10.135C6.955 10.125 6.975 10.125 7 10.125H9C9.205 10.125 9.375 10.295 9.375 10.5Z" fill="currentColor"/>
</svg>
