<svg width="12" height="12" viewBox="0 0 12 12" fill="none" xmlns="http://www.w3.org/2000/svg">
<path d="M10.6358 4.38086C10.6358 4.89086 10.4008 5.35085 10.0208 5.65085C9.74585 5.87585 9.39085 6.01085 9.00585 6.01085C8.11085 6.01085 7.38085 5.28085 7.38085 4.38586C7.38085 3.94086 7.56085 3.53586 7.86085 3.24086V3.23586C8.15585 2.94086 8.56085 2.75586 9.00585 2.75586C9.90585 2.75586 10.6358 3.48586 10.6358 4.38086Z" fill="currentColor"/>
<path d="M10.0908 9.36445C9.56585 9.84445 8.89085 10.1095 8.17585 10.1095H2.98586C1.61586 10.0095 1.00586 8.95445 1.00586 8.01445C1.00586 7.17445 1.49086 6.24445 2.55586 5.98445C2.09086 4.19444 2.98086 2.94444 4.02086 2.34944C5.05085 1.76444 6.50085 1.66944 7.59085 2.47444C7.49585 2.54444 7.41085 2.61944 7.32585 2.70444L7.11085 2.92944V2.95944C6.80085 3.36444 6.63085 3.85944 6.63085 4.37944C6.63085 5.68945 7.70085 6.75445 9.01085 6.75445C9.55085 6.75445 10.0758 6.56945 10.4858 6.23445C10.5608 6.17445 10.6358 6.10945 10.7008 6.03945C11.1958 7.07945 11.1258 8.45945 10.0908 9.36445Z" fill="currentColor"/>
</svg>
