<svg width="12" height="12" viewBox="0 0 12 12" fill="none" xmlns="http://www.w3.org/2000/svg">
<path d="M10.085 8.78545C9.82 9.03045 9.515 9.21545 9.185 9.34045C8.855 9.46545 8.5 9.22545 8.5 8.87045V8.21045C8.5 7.23545 7.71 6.44545 6.735 6.44545H5.265C4.29 6.44545 3.5 7.23545 3.5 8.21045V9.00045C3.5 9.27545 3.275 9.50045 3 9.50045H2.775C1.55 9.31545 1 8.32045 1 7.43045C1 6.59045 1.49 5.66045 2.555 5.40045C2.26 4.23546 2.51 3.14046 3.27 2.34546C4.135 1.44046 5.515 1.08046 6.705 1.45046C7.8 1.78546 8.57 2.68546 8.845 3.93546C9.8 4.15046 10.565 4.87046 10.87 5.87045C11.2 6.95545 10.9 8.07045 10.085 8.78545Z" fill="currentColor"/>
<path d="M6.735 7.1953H5.265C4.63 7.1953 4.25 7.5753 4.25 8.2103V9.6803C4.25 10.3153 4.63 10.6953 5.265 10.6953H6.735C7.37 10.6953 7.75 10.3153 7.75 9.6803V8.2103C7.75 7.5753 7.37 7.1953 6.735 7.1953ZM6.985 9.4703C7.11 9.5953 7.11 9.8003 6.985 9.9253C6.92 9.9853 6.84 10.0153 6.755 10.0153C6.675 10.0153 6.595 9.9853 6.53 9.9253L6 9.3953L5.475 9.9253C5.41 9.9853 5.33 10.0153 5.245 10.0153C5.165 10.0153 5.085 9.9853 5.02 9.9253C4.895 9.8003 4.895 9.5953 5.02 9.4703L5.55 8.9403L5.02 8.4153C4.895 8.2903 4.895 8.0853 5.02 7.9603C5.145 7.8353 5.35 7.8353 5.475 7.9603L6 8.4903L6.53 7.9603C6.655 7.8353 6.86 7.8353 6.985 7.9603C7.11 8.0853 7.11 8.2903 6.985 8.4153L6.455 8.9403L6.985 9.4703Z" fill="currentColor"/>
</svg>
