<svg width="12" height="12" viewBox="0 0 12 12" fill="none" xmlns="http://www.w3.org/2000/svg">
<path d="M10.085 8.78545C9.82 9.03045 9.515 9.21545 9.185 9.34045C8.855 9.46545 8.5 9.22545 8.5 8.87045V8.21045C8.5 7.23545 7.71 6.44545 6.735 6.44545H5.265C4.29 6.44545 3.5 7.23545 3.5 8.21045V9.00045C3.5 9.27545 3.275 9.50045 3 9.50045H2.775C1.55 9.31545 1 8.32045 1 7.43045C1 6.59045 1.49 5.66045 2.555 5.40045C2.26 4.23546 2.51 3.14046 3.27 2.34546C4.135 1.44046 5.515 1.08046 6.705 1.45046C7.8 1.78546 8.57 2.68546 8.845 3.93546C9.8 4.15046 10.565 4.87046 10.87 5.87045C11.2 6.95545 10.9 8.07045 10.085 8.78545Z" fill="currentColor"/>
<path d="M6.735 7.1953H5.265C4.63 7.1953 4.25 7.5753 4.25 8.2103V9.6803C4.25 10.3153 4.63 10.6953 5.265 10.6953H6.735C7.37 10.6953 7.75 10.3153 7.75 9.6803V8.2103C7.75 7.5753 7.37 7.1953 6.735 7.1953ZM5.855 9.4203L5.235 10.0353C5.19 10.0803 5.13 10.1053 5.075 10.1053C5.01 10.1053 4.955 10.0803 4.91 10.0353C4.82 9.9453 4.82 9.8003 4.91 9.7103L5.525 9.0903C5.62 9.0003 5.765 9.0003 5.855 9.0903C5.945 9.1803 5.945 9.3303 5.855 9.4203ZM5.855 8.1803L5.235 8.8003C5.19 8.8453 5.13 8.8703 5.075 8.8703C5.01 8.8703 4.955 8.8453 4.91 8.8003C4.82 8.7103 4.82 8.5603 4.91 8.4703L5.525 7.8553C5.62 7.7653 5.765 7.7653 5.855 7.8553C5.945 7.9453 5.945 8.0903 5.855 8.1803ZM7.09 9.4203L6.475 10.0353C6.425 10.0803 6.37 10.1053 6.31 10.1053C6.25 10.1053 6.19 10.0803 6.145 10.0353C6.055 9.9453 6.055 9.8003 6.145 9.7103L6.765 9.0903C6.855 9.0003 7 9.0003 7.09 9.0903C7.18 9.1803 7.18 9.3303 7.09 9.4203ZM7.09 8.1803L6.475 8.8003C6.425 8.8453 6.37 8.8703 6.31 8.8703C6.25 8.8703 6.19 8.8453 6.145 8.8003C6.055 8.7103 6.055 8.5603 6.145 8.4703L6.765 7.8553C6.855 7.7653 7 7.7653 7.09 7.8553C7.18 7.9453 7.18 8.0903 7.09 8.1803Z" fill="currentColor"/>
</svg>
