<svg width="12" height="12" viewBox="0 0 12 12" fill="none" xmlns="http://www.w3.org/2000/svg">
<path d="M6 5.7656C4.62 5.7656 3.5 6.88565 3.5 8.26565C3.5 8.63565 3.58 8.98565 3.73 9.29565C3.77 9.38565 3.815 9.47065 3.865 9.55065C4.295 10.2757 5.09 10.7656 6 10.7656C6.91 10.7656 7.705 10.2757 8.135 9.55065C8.185 9.47065 8.23 9.38565 8.27 9.29565C8.42 8.98565 8.5 8.63565 8.5 8.26565C8.5 6.88565 7.38 5.7656 6 5.7656ZM7.035 8.05065L5.97 9.0356C5.9 9.10065 5.805 9.13565 5.715 9.13565C5.62 9.13565 5.525 9.1006 5.45 9.0256L4.955 8.5306C4.81 8.3856 4.81 8.14565 4.955 8.00065C5.1 7.85565 5.34 7.85565 5.485 8.00065L5.725 8.2406L6.525 7.50065C6.68 7.36065 6.915 7.37065 7.055 7.52065C7.195 7.67065 7.185 7.90565 7.035 8.05065Z" fill="currentColor"/>
<path d="M10.0996 8.53575C9.91965 8.69575 9.72465 8.83075 9.51465 8.94075C9.33465 9.03075 9.15465 8.85575 9.18465 8.65575C9.20465 8.51075 9.21465 8.36075 9.21465 8.20575C9.21465 6.41575 7.75465 4.95575 5.96465 4.95575C4.17467 4.95575 2.71467 6.41575 2.71467 8.20575C2.71467 8.43575 2.73967 8.65575 2.78467 8.87075C2.81967 9.04575 2.68467 9.22075 2.50967 9.17575C0.534669 8.69575 0.524669 5.65575 2.73467 5.50075H2.75967C1.15467 1.03575 7.92465 -0.749254 8.69965 3.94075C10.8646 4.21575 11.7396 7.10075 10.0996 8.53575Z" fill="currentColor"/>
</svg>
