<svg width="12" height="12" viewBox="0 0 12 12" fill="none" xmlns="http://www.w3.org/2000/svg">
<g clip-path="url(#clip0_1652_3572)">
<path d="M4.05465 5.9249C2.64465 6.0249 2.64965 8.0749 4.05465 8.1749H7.38965C7.79465 8.1799 8.18465 8.0249 8.48465 7.7549C9.47465 6.8899 8.94465 5.1549 7.64465 4.98988C7.17965 2.16988 3.10465 3.23988 4.06965 5.9249" fill="currentColor"/>
<path d="M4.5 11.375C2.365 11.375 0.625 9.635 0.625 7.5C0.625 7.295 0.795 7.125 1 7.125C1.205 7.125 1.375 7.295 1.375 7.5C1.375 8.98 2.405 10.22 3.79 10.545L3.655 10.32C3.55 10.14 3.605 9.91 3.785 9.805C3.96 9.7 4.195 9.755 4.3 9.935L4.825 10.81C4.895 10.925 4.895 11.07 4.83 11.185C4.76 11.3 4.635 11.375 4.5 11.375Z" fill="currentColor"/>
<path d="M11.0002 4.875C10.7952 4.875 10.6252 4.705 10.6252 4.5C10.6252 3.02 9.5952 1.78 8.2102 1.455L8.3452 1.68C8.4502 1.86 8.3952 2.09 8.2152 2.195C8.0402 2.3 7.8052 2.245 7.7002 2.065L7.1752 1.19C7.1052 1.075 7.1052 0.93 7.1702 0.815C7.2402 0.7 7.3652 0.625 7.5002 0.625C9.6352 0.625 11.3752 2.365 11.3752 4.5C11.3752 4.705 11.2052 4.875 11.0002 4.875Z" fill="currentColor"/>
</g>
<defs>
<clipPath id="clip0_1652_3572">
<rect width="12" height="12" fill="currentColor"/>
</clipPath>
</defs>
</svg>
