<svg width="12" height="12" viewBox="0 0 12 12" fill="none" xmlns="http://www.w3.org/2000/svg">
<path d="M10.085 8.78545C9.82 9.03045 9.515 9.21545 9.185 9.34045C8.855 9.46545 8.5 9.22545 8.5 8.87045V8.21045C8.5 7.23545 7.71 6.44545 6.735 6.44545H5.265C4.29 6.44545 3.5 7.23545 3.5 8.21045V9.00045C3.5 9.27545 3.275 9.50045 3 9.50045H2.775C1.55 9.31545 1 8.32045 1 7.43045C1 6.59045 1.49 5.66045 2.555 5.40045C2.26 4.23546 2.51 3.14046 3.27 2.34546C4.135 1.44046 5.515 1.08046 6.705 1.45046C7.8 1.78546 8.57 2.68546 8.845 3.93546C9.8 4.15046 10.565 4.87046 10.87 5.87045C11.2 6.95545 10.9 8.07045 10.085 8.78545Z" fill="currentColor"/>
<path d="M6.735 7.1953H5.265C4.63 7.1953 4.25 7.5753 4.25 8.2103V9.6803C4.25 10.3153 4.63 10.6953 5.265 10.6953H6.735C7.37 10.6953 7.75 10.3153 7.75 9.6803V8.2103C7.75 7.5753 7.37 7.1953 6.735 7.1953ZM5.25 8.8153C5.04 8.8153 4.875 8.6453 4.875 8.4403C4.875 8.2353 5.04 8.0653 5.25 8.0653C5.46 8.0653 5.625 8.2353 5.625 8.4403C5.625 8.6453 5.455 8.8153 5.25 8.8153ZM6 9.9403C5.795 9.9403 5.625 9.7703 5.625 9.5653C5.625 9.3603 5.795 9.1903 6 9.1903C6.205 9.1903 6.375 9.3603 6.375 9.5653C6.375 9.7703 6.21 9.9403 6 9.9403ZM6.755 8.8153C6.545 8.8153 6.38 8.6453 6.38 8.4403C6.38 8.2353 6.545 8.0653 6.755 8.0653C6.965 8.0653 7.13 8.2353 7.13 8.4403C7.13 8.6453 6.96 8.8153 6.755 8.8153Z" fill="currentColor"/>
</svg>
