<svg width="12" height="12" viewBox="0 0 12 12" fill="none" xmlns="http://www.w3.org/2000/svg">
<path d="M6 1C3.24 1 1 3.24 1 6C1 8.76 3.24 11 6 11C8.76 11 11 8.76 11 6C11 3.24 8.76 1 6 1ZM4.265 6.735C4.41 6.88 4.41 7.12 4.265 7.265C4.19 7.34 4.095 7.375 4 7.375C3.905 7.375 3.81 7.34 3.735 7.265L2.735 6.265C2.59 6.12 2.59 5.88 2.735 5.735L3.735 4.735C3.88 4.59 4.12 4.59 4.265 4.735C4.41 4.88 4.41 5.12 4.265 5.265L3.53 6L4.265 6.735ZM6.845 4.98L5.845 7.315C5.785 7.455 5.645 7.54 5.5 7.54C5.45 7.54 5.4 7.53 5.355 7.51C5.165 7.43 5.075 7.21 5.16 7.015L6.16 4.68C6.24 4.49 6.46 4.4 6.65 4.485C6.84 4.57 6.925 4.79 6.845 4.98ZM9.265 6.265L8.265 7.265C8.19 7.34 8.095 7.375 8 7.375C7.905 7.375 7.81 7.34 7.735 7.265C7.59 7.12 7.59 6.88 7.735 6.735L8.47 6L7.735 5.265C7.59 5.12 7.59 4.88 7.735 4.735C7.88 4.59 8.12 4.59 8.265 4.735L9.265 5.735C9.41 5.88 9.41 6.12 9.265 6.265Z" fill="currentColor"/>
</svg>
