<svg width="12" height="12" viewBox="0 0 12 12" fill="none" xmlns="http://www.w3.org/2000/svg">
<path d="M8.095 1H3.905C2.085 1 1 2.085 1 3.905V8.09C1 9.915 2.085 11 3.905 11H8.09C9.91 11 10.995 9.915 10.995 8.095V3.905C11 2.085 9.915 1 8.095 1ZM4.97 6.635C4.63 7.145 4.16 7.56 3.61 7.835C3.56 7.86 3.5 7.875 3.445 7.875C3.305 7.875 3.175 7.8 3.11 7.67C3.015 7.485 3.09 7.26 3.28 7.165C3.715 6.95 4.085 6.62 4.35 6.22C4.44 6.085 4.44 5.915 4.35 5.78C4.08 5.38 3.71 5.05 3.28 4.835C3.09 4.745 3.015 4.52 3.11 4.33C3.2 4.145 3.425 4.07 3.61 4.165C4.16 4.44 4.63 4.855 4.97 5.365C5.23 5.75 5.23 6.25 4.97 6.635ZM8.5 7.875H6.5C6.295 7.875 6.125 7.705 6.125 7.5C6.125 7.295 6.295 7.125 6.5 7.125H8.5C8.705 7.125 8.875 7.295 8.875 7.5C8.875 7.705 8.705 7.875 8.5 7.875Z" fill="currentColor"/>
</svg>
