<svg width="12" height="12" viewBox="0 0 12 12" fill="none" xmlns="http://www.w3.org/2000/svg">
<path d="M10.5 5H1.5C1.225 5 1 5.225 1 5.5V8.095C1 8.195 1.005 8.295 1.015 8.395C1.115 9.935 2.065 10.885 3.605 10.985C3.705 10.995 3.805 11 3.905 11H8.095C8.195 11 8.295 10.995 8.395 10.985C9.935 10.885 10.885 9.935 10.985 8.395C10.995 8.295 11 8.195 11 8.095V5.5C11 5.225 10.775 5 10.5 5ZM4 8.075C4.17 8.325 4.4 8.53 4.665 8.665C4.855 8.755 4.93 8.98 4.835 9.17C4.77 9.3 4.635 9.375 4.5 9.375C4.445 9.375 4.385 9.36 4.335 9.335C3.945 9.145 3.615 8.85 3.38 8.495C3.18 8.195 3.18 7.805 3.38 7.505C3.615 7.15 3.945 6.855 4.335 6.665C4.52 6.57 4.745 6.645 4.835 6.83C4.93 7.02 4.855 7.245 4.665 7.335C4.4 7.47 4.17 7.675 4 7.925C3.97 7.97 3.97 8.03 4 8.075ZM8.725 8.495C8.485 8.85 8.155 9.145 7.77 9.335C7.715 9.36 7.66 9.375 7.605 9.375C7.465 9.375 7.335 9.3 7.27 9.17C7.175 8.98 7.25 8.755 7.435 8.665C7.705 8.53 7.935 8.325 8.1 8.075C8.135 8.03 8.135 7.97 8.1 7.925C7.935 7.675 7.705 7.47 7.435 7.335C7.25 7.245 7.175 7.02 7.27 6.83C7.36 6.645 7.585 6.57 7.77 6.665C8.155 6.855 8.485 7.15 8.725 7.505C8.925 7.805 8.925 8.195 8.725 8.495Z" fill="currentColor"/>
<path d="M11 3.905V4C11 4.275 10.775 4.5 10.5 4.5L1.5 4.505C1.225 4.505 1 4.28 1 4.005V3.905C1 3.805 1.005 3.705 1.015 3.605C1.115 2.065 2.065 1.115 3.605 1.015C3.705 1.005 3.805 1 3.905 1H8.095C8.195 1 8.295 1.005 8.395 1.015C9.935 1.115 10.885 2.065 10.985 3.605C10.995 3.705 11 3.805 11 3.905Z" fill="currentColor"/>
</svg>
