<svg width="12" height="12" viewBox="0 0 12 12" fill="none" xmlns="http://www.w3.org/2000/svg">
<path d="M5 2.56055C4.795 2.56055 4.625 2.39055 4.625 2.18555V1.31055C4.625 1.10555 4.795 0.935547 5 0.935547C5.205 0.935547 5.375 1.10555 5.375 1.31055V2.18555C5.375 2.39555 5.205 2.56055 5 2.56055Z" fill="currentColor"/>
<path d="M7 2.56055C6.795 2.56055 6.625 2.39055 6.625 2.18555V1.31055C6.625 1.10555 6.795 0.935547 7 0.935547C7.205 0.935547 7.375 1.10555 7.375 1.31055V2.18555C7.375 2.39555 7.205 2.56055 7 2.56055Z" fill="currentColor"/>
<path d="M3 2.56055C2.795 2.56055 2.625 2.39055 2.625 2.18555V1.31055C2.625 1.10555 2.795 0.935547 3 0.935547C3.205 0.935547 3.375 1.10555 3.375 1.31055V2.18555C3.375 2.39555 3.205 2.56055 3 2.56055Z" fill="currentColor"/>
<path d="M11.125 6.62585C11.125 5.31585 10.11 4.25586 8.83 4.14586C8.46 3.54086 7.8 3.13086 7.04 3.13086H3.355C2.195 3.13086 1.25 4.07586 1.25 5.23585V5.50085H9.145V5.23585C9.145 5.14085 9.13 5.04585 9.115 4.95586C9.84 5.17085 10.375 5.83085 10.375 6.62585C10.375 7.41085 9.855 8.06585 9.145 8.28585V6.00085H1.25V8.89585C1.25 10.0559 2.195 11.0009 3.355 11.0009H7.04C8.14 11.0009 9.035 10.1509 9.125 9.07085C10.265 8.84085 11.125 7.83085 11.125 6.62585Z" fill="currentColor"/>
</svg>
