<svg width="12" height="12" viewBox="0 0 12 12" fill="none" xmlns="http://www.w3.org/2000/svg">
<path d="M6 11.3742C4 11.3742 2.375 9.9392 2.375 8.1742V6.3242C2.375 6.1192 2.545 5.9492 2.75 5.9492C2.955 5.9492 3.125 6.1192 3.125 6.3242C3.125 7.6342 4.36 8.6242 6 8.6242C7.64 8.6242 8.875 7.6342 8.875 6.3242C8.875 6.1192 9.045 5.9492 9.25 5.9492C9.455 5.9492 9.625 6.1192 9.625 6.3242V8.1742C9.625 9.9392 8 11.3742 6 11.3742ZM3.125 8.2292C3.16 9.5542 4.435 10.6242 6 10.6242C7.565 10.6242 8.84 9.5542 8.875 8.2292C8.225 8.9342 7.195 9.3742 6 9.3742C4.805 9.3742 3.78 8.9342 3.125 8.2292Z" fill="currentColor"/>
<path d="M6 6.875C4.62 6.875 3.38 6.255 2.775 5.255C2.515 4.83 2.375 4.335 2.375 3.825C2.375 2.965 2.76 2.155 3.455 1.545C4.135 0.95 5.04 0.625 6 0.625C6.96 0.625 7.86 0.95 8.545 1.54C9.24 2.155 9.625 2.965 9.625 3.825C9.625 4.335 9.485 4.825 9.225 5.255C8.62 6.255 7.38 6.875 6 6.875ZM6 1.375C5.22 1.375 4.49001 1.635 3.945 2.115C3.415 2.575 3.125 3.185 3.125 3.825C3.125 4.2 3.22499 4.55 3.41499 4.865C3.88999 5.645 4.88 6.125 6 6.125C7.12 6.125 8.11 5.64 8.585 4.865C8.78 4.55 8.875 4.2 8.875 3.825C8.875 3.185 8.585 2.575 8.05 2.105C7.505 1.635 6.78 1.375 6 1.375Z" fill="currentColor"/>
<path d="M6 9.375C3.935 9.375 2.375 8.065 2.375 6.325V3.825C2.375 2.06 4 0.625 6 0.625C6.96 0.625 7.86 0.95 8.545 1.54C9.24 2.155 9.625 2.965 9.625 3.825V6.325C9.625 8.065 8.065 9.375 6 9.375ZM6 1.375C4.415 1.375 3.125 2.475 3.125 3.825V6.325C3.125 7.635 4.36 8.625 6 8.625C7.64 8.625 8.875 7.635 8.875 6.325V3.825C8.875 3.185 8.585 2.575 8.05 2.105C7.505 1.635 6.78 1.375 6 1.375Z" fill="currentColor"/>
</svg>
