<svg width="12" height="12" viewBox="0 0 12 12" fill="none" xmlns="http://www.w3.org/2000/svg">
<path d="M8.095 1H3.905C2.085 1 1 2.085 1 3.905V8.09C1 9.915 2.085 11 3.905 11H8.09C9.91 11 10.995 9.915 10.995 8.095V3.905C11 2.085 9.915 1 8.095 1ZM6 3C6.995 3 7.8 3.805 7.8 4.8C7.8 5.035 7.755 5.26 7.675 5.465C7.47 5.985 7.025 6.39 6.475 6.54C6.325 6.58 6.165 6.605 6 6.605C5.835 6.605 5.675 6.585 5.525 6.54C4.975 6.39 4.53 5.99 4.325 5.465C4.245 5.26 4.2 5.035 4.2 4.8C4.2 3.805 5.005 3 6 3ZM4.8 9C3.805 9 3 8.195 3 7.2C3 6.63375 3.2643 6.12815 3.67216 5.79805C3.79052 5.70225 3.95958 5.7626 4.03372 5.8956C4.32611 6.4201 4.82277 6.80975 5.405 6.965C5.595 7.02 5.79 7.045 6 7.045C6.12445 7.045 6.2434 7.0358 6.35905 7.01735C6.4777 6.99845 6.6 7.07485 6.6 7.195C6.6 7.725 6.37 8.205 6 8.535C5.68 8.825 5.26 9 4.8 9ZM7.2 9C7.02575 9 6.855 8.9756 6.6939 8.9288C6.53065 8.8814 6.50075 8.67795 6.60295 8.54215C6.8905 8.1601 7.05 7.6882 7.05 7.2C7.05 7.1 7.04 6.995 7.025 6.9C7.01605 6.8434 7.0449 6.7878 7.09495 6.75985C7.457 6.55775 7.76025 6.2612 7.9621 5.8971C8.03615 5.7636 8.2053 5.7021 8.32435 5.79765C8.7355 6.12775 9 6.6335 9 7.2C9 8.195 8.195 9 7.2 9Z" fill="currentColor"/>
</svg>
