<svg width="12" height="12" viewBox="0 0 12 12" fill="none" xmlns="http://www.w3.org/2000/svg">
<path d="M11.0005 8.25V9.75C11.0005 10.44 10.4404 11 9.75045 11H6.18045C5.73545 11 5.51545 10.465 5.82545 10.15L8.76045 7.15C8.85545 7.055 8.98545 7 9.11545 7H9.75045C10.4404 7 11.0005 7.56 11.0005 8.25Z" fill="currentColor"/>
<path d="M9.1851 5.64475L7.8301 6.99975L6.6001 8.22475C6.2851 8.53975 5.7451 8.31975 5.7451 7.87475C5.7451 6.26975 5.7451 3.62977 5.7451 3.62977C5.7451 3.49477 5.8001 3.36977 5.8901 3.27477L6.3501 2.81476C6.8401 2.32476 7.6301 2.32476 8.1201 2.81476L9.1801 3.87476C9.6751 4.36476 9.6751 5.15475 9.1851 5.64475Z" fill="currentColor"/>
<path d="M3.75 1H2.25C1.5 1 1 1.5 1 2.25V9C1 9.135 1.015 9.27 1.04 9.4C1.055 9.465 1.07 9.53 1.09 9.595C1.115 9.67 1.14 9.745 1.17 9.815C1.175 9.82 1.175 9.825 1.175 9.825C1.18 9.825 1.18 9.825 1.175 9.83C1.245 9.97 1.325 10.105 1.42 10.23C1.475 10.295 1.53 10.355 1.585 10.415C1.64 10.475 1.7 10.525 1.765 10.575L1.77 10.58C1.895 10.675 2.03 10.755 2.17 10.825C2.175 10.82 2.175 10.82 2.175 10.825C2.25 10.86 2.325 10.885 2.405 10.91C2.47 10.93 2.535 10.945 2.6 10.96C2.73 10.985 2.865 11 3 11C3.205 11 3.415 10.97 3.61 10.905C3.665 10.885 3.72 10.865 3.775 10.84C3.95 10.77 4.12 10.67 4.27 10.54C4.315 10.505 4.365 10.46 4.41 10.415L4.43 10.395C4.78 10.035 5 9.54 5 9V2.25C5 1.5 4.5 1 3.75 1ZM3 9.75C2.585 9.75 2.25 9.415 2.25 9C2.25 8.585 2.585 8.25 3 8.25C3.415 8.25 3.75 8.585 3.75 9C3.75 9.415 3.415 9.75 3 9.75Z" fill="currentColor"/>
</svg>
