<svg width="12" height="12" viewBox="0 0 12 12" fill="none" xmlns="http://www.w3.org/2000/svg">
<path d="M7 7.99955C7 8.88455 6.615 9.68455 6 10.2296C5.47 10.7095 4.77 10.9995 4 10.9995C2.345 10.9995 1 9.65455 1 7.99955C1 6.98715 1.50698 6.0902 2.2777 5.5482C2.40179 5.46095 2.56965 5.52065 2.63662 5.65675C3.10858 6.6161 3.9771 7.3345 5.01 7.61455C5.325 7.70455 5.655 7.74955 6 7.74955C6.2436 7.74955 6.47695 7.72645 6.7037 7.6839C6.8479 7.65685 6.9914 7.74925 6.99775 7.8958C6.99925 7.93055 7 7.96525 7 7.99955Z" fill="currentColor"/>
<path d="M9 4C9 4.39 8.925 4.765 8.79 5.105C8.445 5.975 7.705 6.645 6.79 6.895C6.54 6.965 6.275 7 6 7C5.725 7 5.46 6.965 5.21 6.895C4.295 6.645 3.555 5.975 3.21 5.105C3.075 4.765 3 4.39 3 4C3 2.345 4.345 1 6 1C7.655 1 9 2.345 9 4Z" fill="currentColor"/>
<path d="M11 7.99955C11 9.65455 9.655 10.9995 8 10.9995C7.62775 10.9995 7.26965 10.9317 6.94055 10.8066C6.7812 10.746 6.7515 10.5421 6.8624 10.4127C7.4334 9.7464 7.75 8.8925 7.75 7.99955C7.75 7.82955 7.735 7.65955 7.71 7.49955C7.6951 7.4073 7.7422 7.31665 7.8239 7.2714C8.48595 6.9049 9.0266 6.3433 9.3635 5.6572C9.43045 5.5209 9.5984 5.46105 9.7226 5.5484C10.4931 6.09045 11 6.9873 11 7.99955Z" fill="currentColor"/>
</svg>
