<svg width="12" height="12" viewBox="0 0 12 12" fill="none" xmlns="http://www.w3.org/2000/svg">
<path d="M8.095 1H3.905C2.085 1 1 2.085 1 3.905V8.09C1 9.915 2.085 11 3.905 11H8.09C9.91 11 10.995 9.915 10.995 8.095V3.905C11 2.085 9.915 1 8.095 1ZM4.8 8.1C4.8 8.595 4.395 9 3.9 9C3.405 9 3 8.595 3 8.1C3 7.605 3.405 7.2 3.9 7.2H4.3C4.575 7.2 4.8 7.425 4.8 7.7V8.1ZM4.8 4.3C4.8 4.575 4.575 4.8 4.3 4.8H3.9C3.405 4.8 3 4.395 3 3.9C3 3.405 3.405 3 3.9 3C4.395 3 4.8 3.405 4.8 3.9V4.3ZM7.075 6.625C7.075 6.87 6.875 7.075 6.625 7.075H5.37C5.125 7.075 4.92 6.875 4.92 6.625V5.37C4.92 5.125 5.12 4.92 5.37 4.92H6.625C6.87 4.92 7.075 5.12 7.075 5.37V6.625ZM8.1 9C7.605 9 7.2 8.595 7.2 8.1V7.7C7.2 7.425 7.425 7.2 7.7 7.2H8.1C8.595 7.2 9 7.605 9 8.1C9 8.595 8.595 9 8.1 9ZM8.1 4.8H7.7C7.425 4.8 7.2 4.575 7.2 4.3V3.9C7.2 3.405 7.605 3 8.1 3C8.595 3 9 3.405 9 3.9C9 4.395 8.595 4.8 8.1 4.8Z" fill="currentColor"/>
</svg>
