<svg width="12" height="12" viewBox="0 0 12 12" fill="none" xmlns="http://www.w3.org/2000/svg">
<path d="M10.4754 2.06446L2.06543 10.4745C2.54043 10.8195 3.16043 10.9994 3.90543 10.9994H8.09545C9.91545 10.9994 11.0005 9.91445 11.0005 8.09445V3.90445C11.0005 3.15945 10.8204 2.53946 10.4754 2.06446ZM9.25045 8.12445H8.40545V8.99945C8.40545 9.20445 8.23545 9.37445 8.03045 9.37445C7.82545 9.37445 7.65545 9.20445 7.65545 8.99945V8.12445H6.75045C6.54545 8.12445 6.37545 7.95445 6.37545 7.74945C6.37545 7.54445 6.54545 7.37445 6.75045 7.37445H7.65545V6.49945C7.65545 6.29445 7.82545 6.12445 8.03045 6.12445C8.23545 6.12445 8.40545 6.29445 8.40545 6.49945V7.37445H9.25045C9.45545 7.37445 9.62545 7.54445 9.62545 7.74945C9.62545 7.95445 9.45545 8.12445 9.25045 8.12445Z" fill="currentColor"/>
<path d="M8.095 1H3.905C2.085 1 1 2.085 1 3.905V8.095C1 8.84 1.18 9.46 1.525 9.935L9.935 1.525C9.46 1.18 8.84 1 8.095 1ZM5.25 4.125H2.75C2.545 4.125 2.375 3.955 2.375 3.75C2.375 3.545 2.545 3.375 2.75 3.375H5.25C5.455 3.375 5.625 3.545 5.625 3.75C5.625 3.955 5.455 4.125 5.25 4.125Z" fill="currentColor"/>
</svg>
