<svg width="12" height="12" viewBox="0 0 12 12" fill="none" xmlns="http://www.w3.org/2000/svg">
<g clip-path="url(#clip0_1652_3553)">
<path d="M7.5001 11.375C7.3651 11.375 7.2401 11.3 7.1751 11.185C7.1101 11.07 7.1101 10.925 7.1801 10.81L7.7051 9.935C7.8101 9.755 8.0401 9.7 8.2201 9.805C8.4001 9.91 8.4551 10.14 8.3501 10.32L8.2151 10.545C9.5951 10.22 10.6301 8.98 10.6301 7.5C10.6301 7.295 10.8001 7.125 11.0051 7.125C11.2101 7.125 11.3801 7.295 11.3801 7.5C11.3751 9.635 9.6351 11.375 7.5001 11.375Z" fill="currentColor"/>
<path d="M1 4.875C0.795 4.875 0.625 4.705 0.625 4.5C0.625 2.365 2.365 0.625 4.5 0.625C4.635 0.625 4.76 0.7 4.825 0.815C4.89 0.93 4.89 1.075 4.82 1.19L4.295 2.07C4.19 2.245 3.96 2.305 3.78 2.195C3.605 2.09 3.545 1.86 3.655 1.68L3.79 1.455C2.405 1.78 1.375 3.02 1.375 4.5C1.375 4.705 1.205 4.875 1 4.875Z" fill="currentColor"/>
<path d="M5.33545 6.9242L3.76547 6.0792C3.60047 5.9892 3.40047 5.9892 3.23547 6.0792L1.66547 6.9242C1.55047 6.9842 1.48047 7.1092 1.48047 7.2442C1.48047 7.3792 1.55047 7.5042 1.66547 7.5642L3.23547 8.4092C3.32047 8.4542 3.41047 8.4742 3.50047 8.4742C3.59047 8.4742 3.68047 8.4542 3.76547 8.4092L5.33545 7.5642C5.45045 7.5042 5.52045 7.3792 5.52045 7.2442C5.52045 7.1092 5.44545 6.9892 5.33545 6.9242Z" fill="currentColor"/>
<path d="M2.975 8.7053L1.515 7.9753C1.405 7.9203 1.275 7.9253 1.165 7.9903C1.065 8.0553 1 8.1703 1 8.2953V9.6753C1 9.9153 1.13 10.1303 1.345 10.2353L2.805 10.9653C2.855 10.9853 2.91 11.0003 2.965 11.0003C3.03 11.0003 3.095 10.9803 3.155 10.9453C3.26 10.8803 3.325 10.7653 3.325 10.6403V9.2603C3.325 9.0253 3.19 8.8103 2.975 8.7053Z" fill="currentColor"/>
<path d="M5.8308 7.9903C5.7258 7.9253 5.5958 7.9203 5.4808 7.9753L4.02078 8.7053C3.80578 8.8103 3.67578 9.0253 3.67578 9.2653V10.6453C3.67578 10.7703 3.74078 10.8853 3.84578 10.9503C3.90578 10.9803 3.97078 11.0003 4.03578 11.0003C4.09078 11.0003 4.14578 10.9853 4.19578 10.9603L5.6558 10.2303C5.8708 10.1253 6.0008 9.9103 6.0008 9.6703V8.2903C6.0008 8.1703 5.9358 8.0553 5.8308 7.9903Z" fill="currentColor"/>
<path d="M10.3355 1.91446L8.76545 1.06946C8.60045 0.979455 8.40045 0.979455 8.23545 1.06946L6.66545 1.91446C6.55045 1.97445 6.48045 2.09946 6.48045 2.23446C6.48045 2.36946 6.55045 2.49446 6.66545 2.55446L8.23545 3.39946C8.32045 3.44446 8.41045 3.46445 8.50045 3.46445C8.59045 3.46445 8.68045 3.44446 8.76545 3.39946L10.3355 2.55446C10.4504 2.49446 10.5204 2.36946 10.5204 2.23446C10.5204 2.09446 10.4454 1.97445 10.3355 1.91446Z" fill="currentColor"/>
<path d="M7.975 3.68969L6.515 2.95969C6.405 2.90469 6.275 2.90968 6.165 2.97468C6.065 3.03969 6 3.15469 6 3.27969V4.65969C6 4.89968 6.13 5.1147 6.345 5.2197L7.805 5.9497C7.855 5.9747 7.91 5.9897 7.965 5.9897C8.03 5.9897 8.095 5.9697 8.155 5.9347C8.26 5.8697 8.325 5.7547 8.325 5.6297V4.24969C8.325 4.00969 8.19 3.79469 7.975 3.68969Z" fill="currentColor"/>
<path d="M10.8308 2.97468C10.7258 2.90968 10.5958 2.90469 10.4808 2.95969L9.0208 3.68969C8.8058 3.79469 8.6758 4.00969 8.6758 4.24969V5.6297C8.6758 5.7547 8.7408 5.8697 8.8458 5.9347C8.9058 5.9697 8.9708 5.9897 9.0358 5.9897C9.0908 5.9897 9.1458 5.9747 9.1958 5.9497L10.6558 5.2197C10.8708 5.1097 11.0008 4.89469 11.0008 4.65969V3.27969C11.0008 3.15469 10.9358 3.03969 10.8308 2.97468Z" fill="currentColor"/>
</g>
<defs>
<clipPath id="clip0_1652_3553">
<rect width="12" height="12" fill="currentColor"/>
</clipPath>
</defs>
</svg>
