<svg width="12" height="12" viewBox="0 0 12 12" fill="none" xmlns="http://www.w3.org/2000/svg">
<path d="M11 7.5C11 9.435 9.435 11 7.5 11L8.025 10.125" fill="currentColor"/>
<path d="M1 4.5C1 2.565 2.565 1 4.5 1L3.975 1.875" fill="currentColor"/>
<path d="M11 2.1V2.155C11 2.295 10.89 2.405 10.75 2.405H6.25C6.11 2.405 6 2.295 6 2.155V2.1C6 1.22 6.22 1 7.11 1H9.89C10.78 1 11 1.22 11 2.1Z" fill="currentColor"/>
<path d="M6.25 2.90429C6.11 2.90429 6 3.01429 6 3.15429V4.14929C6 5.0293 6.22 5.2493 7.11 5.2493H9.89C10.78 5.2493 11 5.0293 11 4.14929V3.15429C11 3.01429 10.89 2.90429 10.75 2.90429H6.25Z" fill="currentColor"/>
<path d="M6 7.85V7.905C6 8.045 5.89 8.155 5.75 8.155H1.25C1.11 8.155 1 8.045 1 7.905V7.85C1 6.97 1.22 6.75 2.11 6.75H4.89C5.78 6.75 6 6.97 6 7.85Z" fill="currentColor"/>
<path d="M1.25 8.6543C1.11 8.6543 1 8.7643 1 8.9043V9.8993C1 10.7793 1.22 10.9993 2.11 10.9993H4.89C5.78 10.9993 6 10.7793 6 9.8993V8.9043C6 8.7643 5.89 8.6543 5.75 8.6543H1.25Z" fill="currentColor"/>
</svg>
