<svg width="12" height="12" viewBox="0 0 12 12" fill="none" xmlns="http://www.w3.org/2000/svg">
<path d="M6.0156 1.01562C5.04065 1.01562 4.13062 1.29563 3.36562 1.77562L6.79565 5.21065L6.80065 3.84063C6.80065 3.63563 6.97065 3.46563 7.17565 3.46563C7.38565 3.46563 7.55065 3.63563 7.55065 3.84063L7.54565 6.1156C7.54565 6.27065 7.4506 6.40565 7.31065 6.46065C7.2656 6.48065 7.21565 6.4906 7.17065 6.4906C7.07065 6.4906 6.97565 6.45065 6.90565 6.38065L2.81063 2.28063C2.79063 2.26063 2.77562 2.24062 2.76062 2.22062C1.69062 3.14062 1.01562 4.50063 1.01562 6.0156C1.01562 8.77565 3.25563 11.0156 6.0156 11.0156C6.9906 11.0156 7.90065 10.7356 8.66565 10.2556L5.23565 6.82065L5.23065 8.1906C5.23065 8.3956 5.06065 8.5656 4.85563 8.5656C4.64563 8.5656 4.48063 8.3956 4.48063 8.1906L4.48562 5.91565C4.48562 5.7606 4.58062 5.62565 4.72062 5.57065C4.85562 5.51065 5.02065 5.54065 5.12565 5.65065L9.2206 9.7506C9.24065 9.77065 9.2556 9.7906 9.27065 9.81065C10.3406 8.8906 11.0156 7.5306 11.0156 6.0156C11.0156 3.25563 8.77565 1.01562 6.0156 1.01562Z" fill="currentColor"/>
</svg>
