<svg width="12" height="12" viewBox="0 0 12 12" fill="none" xmlns="http://www.w3.org/2000/svg">
<path d="M11 2.575V4.425C11 5.55 10.55 6 9.425 6H8.075C6.95 6 6.5 5.55 6.5 4.425V2.575C6.5 1.45 6.95 1 8.075 1H9.425C10.55 1 11 1.45 11 2.575Z" fill="currentColor"/>
<path d="M5.5 7.575V9.425C5.5 10.55 5.05 11 3.925 11H2.575C1.45 11 1 10.55 1 9.425V7.575C1 6.45 1.45 6 2.575 6H3.925C5.05 6 5.5 6.45 5.5 7.575Z" fill="currentColor"/>
<path d="M7.38975 10.9998C7.25475 10.9998 7.12975 10.9247 7.06475 10.8097C6.99975 10.6897 6.99975 10.5498 7.06975 10.4298L7.55475 9.61975C7.65975 9.43975 7.88975 9.38475 8.06975 9.48975C8.24975 9.59475 8.30475 9.82475 8.19975 10.0048L8.10975 10.1547C9.34475 9.83475 10.2548 8.71475 10.2548 7.38475C10.2548 7.17975 10.4248 7.00975 10.6298 7.00975C10.8348 7.00975 10.9998 7.17975 10.9998 7.38975C10.9998 9.37975 9.37975 10.9998 7.38975 10.9998Z" fill="currentColor"/>
<path d="M1.375 4.985C1.17 4.985 1 4.82 1 4.61C1 2.62 2.62 1 4.61 1C4.75 1 4.87 1.075 4.94 1.19C5.005 1.31 5.005 1.45 4.935 1.57L4.45 2.375C4.34 2.555 4.11 2.615 3.935 2.505C3.755 2.4 3.7 2.17 3.805 1.99L3.895 1.84C2.665 2.16 1.75 3.28 1.75 4.61C1.75 4.82 1.58 4.985 1.375 4.985Z" fill="currentColor"/>
</svg>
