<svg width="12" height="12" viewBox="0 0 12 12" fill="none" xmlns="http://www.w3.org/2000/svg">
<path d="M8 6.45V8.55C8 10.3 7.3 11 5.55 11H3.45C1.7 11 1 10.3 1 8.55V6.45C1 4.7 1.7 4 3.45 4H5.55C7.3 4 8 4.7 8 6.45Z" fill="currentColor"/>
<path d="M8.5499 1H6.4499C4.90834 1 4.18537 1.54704 4.03476 2.8695C4.00325 3.14617 4.23238 3.375 4.51084 3.375H5.5499C7.6499 3.375 8.6249 4.35 8.6249 6.45V7.48905C8.6249 7.7675 8.8537 7.99665 9.1304 7.96515C10.4528 7.8145 10.9999 7.09155 10.9999 5.55V3.45C10.9999 1.7 10.2999 1 8.5499 1Z" fill="currentColor"/>
</svg>
