<svg width="12" height="12" viewBox="0 0 12 12" fill="none" xmlns="http://www.w3.org/2000/svg">
<path d="M8.5499 1H6.4499C4.90834 1 4.18537 1.54704 4.03476 2.8695C4.00325 3.14617 4.23238 3.375 4.51084 3.375H5.5499C7.6499 3.375 8.6249 4.35 8.6249 6.45V7.48905C8.6249 7.7675 8.8537 7.99665 9.1304 7.96515C10.4528 7.8145 10.9999 7.09155 10.9999 5.55V3.45C10.9999 1.7 10.2999 1 8.5499 1Z" fill="currentColor"/>
<path d="M5.55 4H3.45C1.7 4 1 4.7 1 6.45V8.55C1 10.3 1.7 11 3.45 11H5.55C7.3 11 8 10.3 8 8.55V6.45C8 4.7 7.3 4 5.55 4ZM6.145 6.825L4.29 8.68C4.22 8.75 4.13 8.785 4.035 8.785C3.94 8.785 3.85 8.75 3.78 8.68L2.85 7.75C2.71 7.61 2.71 7.385 2.85 7.245C2.99 7.105 3.215 7.105 3.355 7.245L4.03 7.92L5.635 6.315C5.775 6.175 6 6.175 6.14 6.315C6.28 6.455 6.285 6.685 6.145 6.825Z" fill="currentColor"/>
</svg>
