<svg width="12" height="12" viewBox="0 0 12 12" fill="none" xmlns="http://www.w3.org/2000/svg">
<path d="M6 1C3.24 1 1 3.24 1 6C1 8.76 3.24 11 6 11C8.76 11 11 8.76 11 6C11 3.24 8.76 1 6 1ZM6.12 7.625C6.51 7.625 6.895 7.48 7.19 7.22C7.345 7.085 7.585 7.1 7.72 7.255C7.855 7.41 7.84 7.65 7.685 7.785C7.25 8.17 6.695 8.38 6.12 8.38C4.81 8.38 3.745 7.315 3.745 6.005C3.745 4.695 4.81 3.63 6.12 3.63C6.695 3.63 7.255 3.84 7.685 4.225C7.84 4.36 7.855 4.6 7.72 4.755C7.58 4.91 7.345 4.925 7.19 4.79C6.895 4.53 6.515 4.385 6.12 4.385C5.225 4.385 4.495 5.115 4.495 6.01C4.495 6.905 5.225 7.625 6.12 7.625Z" fill="currentColor"/>
</svg>
