<svg width="12" height="12" viewBox="0 0 12 12" fill="none" xmlns="http://www.w3.org/2000/svg">
<g clip-path="url(#clip0_1652_3547)">
<path d="M11 10.6256H10.375V5.5006C10.375 4.29058 9.71 3.62558 8.5 3.62558H6.375V3.01058C6.665 3.08058 6.955 3.12058 7.25 3.12058C7.72 3.12058 8.19 3.03058 8.64 2.85058C8.78 2.79558 8.875 2.65558 8.875 2.50058V1.00058C8.875 0.875583 8.815 0.760583 8.71 0.690583C8.605 0.620583 8.475 0.605583 8.36 0.650583C7.645 0.935583 6.855 0.935583 6.14 0.650583C6.025 0.605583 5.895 0.620583 5.79 0.690583C5.685 0.760583 5.625 0.875583 5.625 1.00058V2.50058V3.62558H3.5C2.29 3.62558 1.625 4.29058 1.625 5.5006V10.6256H1C0.795 10.6256 0.625 10.7956 0.625 11.0006C0.625 11.2056 0.795 11.3756 1 11.3756H2H10H11C11.205 11.3756 11.375 11.2056 11.375 11.0006C11.375 10.7956 11.205 10.6256 11 10.6256ZM3.62 10.6256H2.375V6.3756H3.62V10.6256ZM5.62 10.6256H4.37V6.3756H5.62V10.6256ZM7.62 10.6256H6.37V6.3756H7.62V10.6256ZM9.625 10.6256H8.37V6.3756H9.625V10.6256Z" fill="currentColor"/>
</g>
<defs>
<clipPath id="clip0_1652_3547">
<rect width="12" height="12" fill="currentColor"/>
</clipPath>
</defs>
</svg>
