<svg width="12" height="12" viewBox="0 0 12 12" fill="none" xmlns="http://www.w3.org/2000/svg">
<path d="M2.045 4.04C2.02 4.19 2 4.34 2 4.5C2 4.345 2.02 4.19 2.045 4.04ZM2 7.5C2 7.66 2.02 7.81 2.045 7.96C2.02 7.81 2 7.655 2 7.5ZM4.045 9.955C4.19 9.98 4.345 10 4.5 10C4.345 10 4.195 9.98 4.045 9.955ZM4.045 2.045C4.195 2.02 4.345 2 4.5 2C4.345 2 4.19 2.02 4.045 2.045ZM7.96 2.045C7.81 2.02 7.66 2 7.5 2C7.655 2 7.81 2.02 7.96 2.045ZM9.955 4.04C9.98 4.19 10 4.345 10 4.5C10 4.34 9.98 4.19 9.955 4.04Z" fill="currentColor"/>
<path d="M11 4.15C11 4.36 10.835 4.525 10.625 4.525H10V5.44355C10 5.61035 9.819 5.7142 9.675 5.63C9.46 5.505 9.21 5.465 8.97 5.53C8.81605 5.56695 8.63 5.46745 8.63 5.30915V4.87C8.63 4.045 7.955 3.37 7.13 3.37H4.87C4.045 3.37 3.37 4.045 3.37 4.87V7.13C3.37 7.955 4.045 8.63 4.87 8.63H5.095C5.153 8.63 5.2 8.677 5.2 8.735C5.2 9.21675 5.5491 9.6218 6.00875 9.7149C6.0952 9.7324 6.15365 9.8358 6.125 9.91915C6.1086 9.96685 6.0651 10 6.01465 10H4.53V10.625C4.53 10.83 4.36 11 4.155 11C3.945 11 3.78 10.83 3.78 10.625V9.89C2.98 9.645 2.355 9.02 2.115 8.225H1.375C1.17 8.225 1 8.055 1 7.85C1 7.64 1.17 7.475 1.375 7.475H2V6.375H1.375C1.17 6.375 1 6.205 1 6C1 5.79 1.17 5.625 1.375 5.625H2V4.525H1.375C1.17 4.525 1 4.36 1 4.15C1 3.945 1.17 3.775 1.375 3.775H2.115C2.355 2.98 2.98 2.355 3.78 2.11V1.375C3.78 1.17 3.945 1 4.155 1C4.36 1 4.53 1.17 4.53 1.375V2H5.625V1.375C5.625 1.17 5.795 1 6 1C6.205 1 6.375 1.17 6.375 1.375V2H7.475V1.375C7.475 1.17 7.645 1 7.85 1C8.055 1 8.225 1.17 8.225 1.375V2.115C9.02 2.355 9.645 2.98 9.885 3.775H10.625C10.835 3.775 11 3.945 11 4.15Z" fill="currentColor"/>
<path d="M10.4952 7.76575C10.1552 7.76575 9.9602 7.59575 9.9602 7.34575C9.9602 7.24575 9.9902 7.13075 10.0602 7.01075C10.2002 6.77075 10.1152 6.46075 9.8752 6.32575L9.4202 6.06075C9.2102 5.93575 8.9402 6.01075 8.8152 6.22075L8.7852 6.27075C8.5452 6.68575 8.1552 6.68575 7.9152 6.27075L7.8852 6.22075C7.7652 6.01075 7.4902 5.93575 7.2852 6.06075L6.8252 6.32575C6.6652 6.41575 6.5702 6.58575 6.5702 6.76075C6.5702 6.84575 6.5952 6.93075 6.6402 7.01075C6.7102 7.13075 6.7452 7.24575 6.7452 7.34575C6.7452 7.59575 6.5452 7.76575 6.2052 7.76575C5.9302 7.76575 5.7002 7.99075 5.7002 8.26575V8.73575C5.7002 9.01075 5.9302 9.23575 6.2052 9.23575C6.5452 9.23575 6.7452 9.40575 6.7452 9.65575C6.7452 9.75575 6.7102 9.87075 6.6402 9.99075C6.5002 10.2308 6.5852 10.5407 6.8252 10.6757L7.2852 10.9408C7.4902 11.0658 7.7652 10.9908 7.8852 10.7808L7.9152 10.7308C8.1552 10.3158 8.5452 10.3158 8.7852 10.7308L8.8152 10.7808C8.9402 10.9908 9.2102 11.0658 9.4202 10.9408L9.8752 10.6757C10.0352 10.5857 10.1302 10.4158 10.1302 10.2408C10.1302 10.1558 10.1052 10.0708 10.0602 9.99075C9.9902 9.87075 9.9602 9.75575 9.9602 9.65575C9.9602 9.40575 10.1552 9.23575 10.4952 9.23575C10.7752 9.23575 11.0002 9.01075 11.0002 8.73575V8.26575C11.0002 7.99075 10.7752 7.76575 10.4952 7.76575ZM8.3502 9.36075C7.8752 9.36075 7.4902 8.97575 7.4902 8.50075C7.4902 8.02575 7.8752 7.64075 8.3502 7.64075C8.8252 7.64075 9.2102 8.02575 9.2102 8.50075C9.2102 8.97575 8.8252 9.36075 8.3502 9.36075Z" fill="currentColor"/>
<path d="M8.125 5.01V5.29625C8.125 5.4633 7.90235 5.5692 7.74 5.53C7.49 5.465 7.24 5.5 7.035 5.625L6.58 5.89C6.265 6.065 6.07 6.4 6.07 6.76C6.07 6.7898 6.07125 6.8198 6.07375 6.8498C6.09015 7.0429 5.95515 7.27725 5.77965 7.35955C5.53835 7.4727 5.34895 7.67885 5.25825 7.9312C5.21945 8.03925 5.1248 8.125 5.01 8.125C4.38 8.125 3.875 7.62 3.875 6.99V5.01C3.875 4.38 4.38 3.875 5.01 3.875H6.99C7.62 3.875 8.125 4.38 8.125 5.01Z" fill="currentColor"/>
</svg>
