<svg width="12" height="12" viewBox="0 0 12 12" fill="none" xmlns="http://www.w3.org/2000/svg">
<path d="M6.9901 3.875H5.0051C4.38011 3.875 3.87012 4.38 3.87012 5.01V6.995C3.87012 7.62 4.37511 8.13 5.0051 8.13H6.9901C7.6151 8.13 8.1251 7.625 8.1251 6.995V5.01C8.1251 4.38 7.6201 3.875 6.9901 3.875ZM6.7501 6.49L6.3051 7.265C6.2401 7.38 6.1201 7.44 6.0001 7.44C5.9401 7.44 5.8751 7.425 5.8251 7.395C5.6551 7.3 5.5951 7.085 5.6951 6.915L6.0151 6.36H5.7351C5.5101 6.36 5.3251 6.26 5.2251 6.09C5.1251 5.92 5.1351 5.71 5.2501 5.515L5.6951 4.74C5.7951 4.57 6.0101 4.515 6.1751 4.61C6.3451 4.705 6.4051 4.92 6.3051 5.09L5.9851 5.645H6.2651C6.4901 5.645 6.6751 5.745 6.7751 5.915C6.8751 6.085 6.8651 6.295 6.7501 6.49Z" fill="currentColor"/>
<path d="M10.625 6.375C10.835 6.375 11 6.205 11 6C11 5.79 10.835 5.625 10.625 5.625H10V4.525H10.625C10.835 4.525 11 4.36 11 4.15C11 3.945 10.835 3.775 10.625 3.775H9.885C9.645 2.98 9.02 2.355 8.225 2.115V1.375C8.225 1.17 8.055 1 7.85 1C7.645 1 7.475 1.17 7.475 1.375V2H6.375V1.375C6.375 1.17 6.205 1 6 1C5.795 1 5.625 1.17 5.625 1.375V2H4.53V1.375C4.53 1.17 4.36 1 4.155 1C3.945 1 3.78 1.17 3.78 1.375V2.115C2.98 2.355 2.355 2.98 2.115 3.775H1.375C1.17 3.775 1 3.945 1 4.15C1 4.36 1.17 4.525 1.375 4.525H2V5.625H1.375C1.17 5.625 1 5.79 1 6C1 6.205 1.17 6.375 1.375 6.375H2V7.475H1.375C1.17 7.475 1 7.64 1 7.85C1 8.055 1.17 8.225 1.375 8.225H2.115C2.35 9.02 2.98 9.645 3.78 9.885V10.625C3.78 10.83 3.945 11 4.155 11C4.36 11 4.53 10.83 4.53 10.625V10H5.63V10.625C5.63 10.83 5.795 11 6.005 11C6.21 11 6.38 10.83 6.38 10.625V10H7.475V10.625C7.475 10.83 7.645 11 7.85 11C8.055 11 8.225 10.83 8.225 10.625V9.885C9.02 9.645 9.645 9.02 9.885 8.225H10.625C10.835 8.225 11 8.055 11 7.85C11 7.64 10.835 7.475 10.625 7.475H10V6.375H10.625ZM8.63 7.13C8.63 7.955 7.955 8.63 7.13 8.63H4.87C4.045 8.63 3.37 7.955 3.37 7.13V4.87C3.37 4.045 4.045 3.37 4.87 3.37H7.13C7.955 3.37 8.63 4.045 8.63 4.87V7.13Z" fill="currentColor"/>
</svg>
