<svg width="12" height="12" viewBox="0 0 12 12" fill="none" xmlns="http://www.w3.org/2000/svg">
<path d="M6 1C3.24 1 1 3.24 1 6C1 8.76 3.24 11 6 11C8.76 11 11 8.76 11 6C11 3.24 8.76 1 6 1ZM4.495 7.06C4.75 7.06 5 6.965 5.195 6.795C5.35 6.66 5.59 6.675 5.725 6.83C5.86 6.985 5.845 7.225 5.69 7.36C5.36 7.65 4.935 7.81 4.495 7.81C3.495 7.81 2.685 7 2.685 6C2.685 5 3.495 4.19 4.495 4.19C4.935 4.19 5.355 4.35 5.69 4.64C5.845 4.775 5.86 5.015 5.725 5.17C5.59 5.325 5.35 5.34 5.195 5.205C5 5.035 4.75 4.94 4.495 4.94C3.91 4.94 3.435 5.415 3.435 6C3.435 6.585 3.91 7.06 4.495 7.06ZM7.995 7.06C8.25 7.06 8.5 6.965 8.695 6.795C8.85 6.66 9.09 6.675 9.225 6.83C9.36 6.985 9.345 7.225 9.19 7.36C8.86 7.65 8.435 7.81 7.995 7.81C6.995 7.81 6.185 7 6.185 6C6.185 5 6.995 4.19 7.995 4.19C8.435 4.19 8.855 4.35 9.19 4.64C9.345 4.775 9.36 5.015 9.225 5.17C9.09 5.325 8.85 5.34 8.695 5.205C8.5 5.035 8.255 4.94 7.995 4.94C7.41 4.94 6.935 5.415 6.935 6C6.935 6.585 7.41 7.06 7.995 7.06Z" fill="currentColor"/>
</svg>
