<svg width="12" height="12" viewBox="0 0 12 12" fill="none" xmlns="http://www.w3.org/2000/svg">
<path d="M2.765 1C2.555 1 2.39 1.17 2.39 1.375V2.39H1.375C1.17 2.39 1 2.555 1 2.765C1 2.975 1.17 3.14 1.375 3.14H2.765C2.97 3.14 3.14 2.97 3.14 2.765V1.375C3.14 1.17 2.97 1 2.765 1Z" fill="currentColor"/>
<path d="M10.6253 8.8594H9.23535C9.03035 8.8594 8.86035 9.0294 8.86035 9.2344V10.6244C8.86035 10.8294 9.03035 10.9994 9.23535 10.9994C9.44035 10.9994 9.61035 10.8294 9.61035 10.6244V9.6094H10.6253C10.8303 9.6094 11.0003 9.43935 11.0003 9.2344C11.0003 9.0294 10.8303 8.8594 10.6253 8.8594Z" fill="currentColor"/>
<path d="M8.36005 9.23515C8.36005 8.75515 8.75505 8.36015 9.23505 8.36015H9.58005V5.02515C9.58005 3.58015 8.41005 2.41016 6.96505 2.41016H3.64004V2.75516C3.64004 3.23516 3.24504 3.63016 2.76504 3.63016H2.41504V6.96515C2.41504 8.41015 3.58504 9.58015 5.03005 9.58015H8.36505V9.23515H8.36005Z" fill="currentColor"/>
</svg>
