<svg width="12" height="12" viewBox="0 0 12 12" fill="none" xmlns="http://www.w3.org/2000/svg">
<path d="M8.5 11H3.5C3.295 11 3.125 10.83 3.125 10.625C3.125 10.42 3.295 10.25 3.5 10.25H8.5C8.705 10.25 8.875 10.42 8.875 10.625C8.875 10.83 8.705 11 8.5 11Z" fill="currentColor"/>
<path d="M10.1751 2.75953L8.1751 4.18953C7.9101 4.37953 7.5301 4.26453 7.4151 3.95953L6.4701 1.43953C6.3101 1.00453 5.6951 1.00453 5.5351 1.43953L4.58511 3.95453C4.47011 4.26453 4.09511 4.37953 3.83011 4.18453L1.83011 2.75453C1.43011 2.47453 0.90011 2.86953 1.06511 3.33453L3.14511 9.15955C3.21511 9.35955 3.40511 9.48955 3.61511 9.48955H8.3801C8.5901 9.48955 8.7801 9.35455 8.8501 9.15955L10.9301 3.33453C11.1001 2.86953 10.5701 2.47453 10.1751 2.75953ZM7.2501 7.37455H4.75011C4.54511 7.37455 4.37511 7.20455 4.37511 6.99955C4.37511 6.79455 4.54511 6.62455 4.75011 6.62455H7.2501C7.4551 6.62455 7.6251 6.79455 7.6251 6.99955C7.6251 7.20455 7.4551 7.37455 7.2501 7.37455Z" fill="currentColor"/>
</svg>
