<svg width="12" height="12" viewBox="0 0 12 12" fill="none" xmlns="http://www.w3.org/2000/svg">
<path d="M11.0001 2.85476V7.64475C11.0001 9.02475 9.88015 10.1448 8.50015 10.1448H3.50015C3.27015 10.1448 3.05015 10.1148 2.83516 10.0548C2.52516 9.96975 2.42515 9.57475 2.65515 9.34475L7.97015 4.02976C8.08015 3.91976 8.24515 3.89476 8.40015 3.92476C8.56015 3.95476 8.73515 3.90976 8.86015 3.78976L10.1452 2.49976C10.6152 2.02976 11.0001 2.18476 11.0001 2.85476Z" fill="currentColor"/>
<path d="M7.32 3.67977L2.085 8.91475C1.845 9.15475 1.445 9.09475 1.285 8.79475C1.1 8.45475 1 8.05975 1 7.64475V2.85477C1 2.18477 1.385 2.02977 1.855 2.49977L3.145 3.79477C3.34 3.98477 3.66 3.98477 3.855 3.79477L5.645 1.99977C5.84 1.80477 6.16 1.80477 6.355 1.99977L7.325 2.96977C7.515 3.16477 7.515 3.48477 7.32 3.67977Z" fill="currentColor"/>
</svg>
