<svg width="12" height="12" viewBox="0 0 12 12" fill="none" xmlns="http://www.w3.org/2000/svg">
<path d="M5.625 9.12545H4.5C3.95 9.12545 3.5 9.57545 3.5 10.1255V10.2505H3C2.795 10.2505 2.625 10.4205 2.625 10.6255C2.625 10.8305 2.795 11.0005 3 11.0005H9C9.205 11.0005 9.375 10.8305 9.375 10.6255C9.375 10.4205 9.205 10.2505 9 10.2505H8.5V10.1255C8.5 9.57545 8.05 9.12545 7.5 9.12545H6.375V7.98045C6.25 7.99545 6.125 8.00045 6 8.00045C5.875 8.00045 5.75 7.99545 5.625 7.98045V9.12545Z" fill="currentColor"/>
<path d="M9.23965 5.82C9.56965 5.695 9.85965 5.49 10.0896 5.26C10.5546 4.745 10.8596 4.13 10.8596 3.41C10.8596 2.69 10.2946 2.125 9.57465 2.125H9.29465C8.96965 1.46 8.28965 1 7.49965 1H4.49965C3.70965 1 3.02965 1.46 2.70465 2.125H2.42465C1.70465 2.125 1.13965 2.69 1.13965 3.41C1.13965 4.13 1.44465 4.745 1.90965 5.26C2.13965 5.49 2.42965 5.695 2.75965 5.82C3.27965 7.1 4.52965 8 5.99965 8C7.46965 8 8.71965 7.1 9.23965 5.82ZM7.41965 4.225L7.10965 4.605C7.05965 4.66 7.02465 4.77 7.02965 4.845L7.05965 5.335C7.07965 5.635 6.86465 5.79 6.58465 5.68L6.12965 5.5C6.05965 5.475 5.93965 5.475 5.86965 5.5L5.41465 5.68C5.13465 5.79 4.91965 5.635 4.93965 5.335L4.96965 4.845C4.97465 4.77 4.93965 4.66 4.88965 4.605L4.57965 4.225C4.38465 3.995 4.46965 3.74 4.75965 3.665L5.23465 3.545C5.30965 3.525 5.39965 3.455 5.43965 3.39L5.70465 2.98C5.86965 2.725 6.12965 2.725 6.29465 2.98L6.55965 3.39C6.59965 3.455 6.68965 3.525 6.76465 3.545L7.23965 3.665C7.52965 3.74 7.61465 3.995 7.41965 4.225Z" fill="currentColor"/>
</svg>
