<svg width="12" height="12" viewBox="0 0 12 12" fill="none" xmlns="http://www.w3.org/2000/svg">
<path d="M10.8802 7.96L7.68025 2.2C7.25025 1.425 6.65525 1 6.00025 1C5.34525 1 4.75023 1.425 4.32023 2.2L1.12023 7.96C0.715233 8.695 0.670233 9.4 0.995233 9.955C1.32023 10.51 1.96023 10.815 2.80023 10.815H9.20025C10.0402 10.815 10.6802 10.51 11.0052 9.955C11.3302 9.4 11.2852 8.69 10.8802 7.96ZM5.62525 4.5C5.62525 4.295 5.79525 4.125 6.00025 4.125C6.20525 4.125 6.37525 4.295 6.37525 4.5V7C6.37525 7.205 6.20525 7.375 6.00025 7.375C5.79525 7.375 5.62525 7.205 5.62525 7V4.5ZM6.35525 8.855C6.33025 8.875 6.30525 8.895 6.28025 8.915C6.25025 8.935 6.22025 8.95 6.19025 8.96C6.16025 8.975 6.13025 8.985 6.09525 8.99C6.06525 8.995 6.03025 9 6.00025 9C5.97025 9 5.93525 8.995 5.90025 8.99C5.87025 8.985 5.84025 8.975 5.81025 8.96C5.78025 8.95 5.75025 8.935 5.72025 8.915C5.69525 8.895 5.67025 8.875 5.64525 8.855C5.55525 8.76 5.50025 8.63 5.50025 8.5C5.50025 8.37 5.55525 8.24 5.64525 8.145C5.67025 8.125 5.69525 8.105 5.72025 8.085C5.75025 8.065 5.78025 8.05 5.81025 8.04C5.84025 8.025 5.87025 8.015 5.90025 8.01C5.96525 7.995 6.03525 7.995 6.09525 8.01C6.13025 8.015 6.16025 8.025 6.19025 8.04C6.22025 8.05 6.25025 8.065 6.28025 8.085C6.30525 8.105 6.33025 8.125 6.35525 8.145C6.44525 8.24 6.50025 8.37 6.50025 8.5C6.50025 8.63 6.44525 8.76 6.35525 8.855Z" fill="currentColor"/>
</svg>
