<svg width="12" height="12" viewBox="0 0 12 12" fill="none" xmlns="http://www.w3.org/2000/svg">
<path d="M3.5 4H2C1.45 4 1 3.55 1 3V2C1 1.45 1.45 1 2 1H3.5C4.05 1 4.5 1.45 4.5 2V3C4.5 3.55 4.05 4 3.5 4Z" fill="currentColor"/>
<path d="M10.4 3.5H8.6C8.27 3.5 8 3.23 8 2.9V2.1C8 1.77 8.27 1.5 8.6 1.5H10.4C10.73 1.5 11 1.77 11 2.1V2.9C11 3.23 10.73 3.5 10.4 3.5Z" fill="currentColor"/>
<path d="M10.4 7.25H8.6C8.27 7.25 8 6.98 8 6.65V5.85C8 5.52 8.27 5.25 8.6 5.25H10.4C10.73 5.25 11 5.52 11 5.85V6.65C11 6.98 10.73 7.25 10.4 7.25Z" fill="currentColor"/>
<path d="M8 6.625C8.205 6.625 8.375 6.455 8.375 6.25C8.375 6.045 8.205 5.875 8 5.875H6.625V2.875H8C8.205 2.875 8.375 2.705 8.375 2.5C8.375 2.295 8.205 2.125 8 2.125H4.5C4.295 2.125 4.125 2.295 4.125 2.5C4.125 2.705 4.295 2.875 4.5 2.875H5.875V9C5.875 9.76 6.49 10.375 7.25 10.375H8C8.205 10.375 8.375 10.205 8.375 10C8.375 9.795 8.205 9.625 8 9.625H7.25C6.905 9.625 6.625 9.345 6.625 9V6.625H8Z" fill="currentColor"/>
<path d="M10.4 11H8.6C8.27 11 8 10.73 8 10.4V9.6C8 9.27 8.27 9 8.6 9H10.4C10.73 9 11 9.27 11 9.6V10.4C11 10.73 10.73 11 10.4 11Z" fill="currentColor"/>
</svg>
