<svg width="12" height="12" viewBox="0 0 12 12" fill="none" xmlns="http://www.w3.org/2000/svg">
<g clip-path="url(#clip0_1652_3684)">
<path d="M10 7.125C10.6213 7.125 11.125 6.6213 11.125 6C11.125 5.3787 10.6213 4.875 10 4.875C9.3787 4.875 8.875 5.3787 8.875 6C8.875 6.6213 9.3787 7.125 10 7.125Z" fill="currentColor"/>
<path d="M10 3.125C10.6213 3.125 11.125 2.62132 11.125 2C11.125 1.37868 10.6213 0.875 10 0.875C9.3787 0.875 8.875 1.37868 8.875 2C8.875 2.62132 9.3787 3.125 10 3.125Z" fill="currentColor"/>
<path d="M10 11.125C10.6213 11.125 11.125 10.6213 11.125 10C11.125 9.3787 10.6213 8.875 10 8.875C9.3787 8.875 8.875 9.3787 8.875 10C8.875 10.6213 9.3787 11.125 10 11.125Z" fill="currentColor"/>
<path d="M2 7.125C2.62132 7.125 3.125 6.6213 3.125 6C3.125 5.3787 2.62132 4.875 2 4.875C1.37868 4.875 0.875 5.3787 0.875 6C0.875 6.6213 1.37868 7.125 2 7.125Z" fill="currentColor"/>
<path d="M9.5 6.375C9.705 6.375 9.875 6.205 9.875 6C9.875 5.795 9.705 5.625 9.5 5.625H5.875V3.5C5.875 2.71 6.21 2.375 7 2.375H9.5C9.705 2.375 9.875 2.205 9.875 2C9.875 1.795 9.705 1.625 9.5 1.625H7C5.79 1.625 5.125 2.29 5.125 3.5V5.625H2.5C2.295 5.625 2.125 5.795 2.125 6C2.125 6.205 2.295 6.375 2.5 6.375H5.125V8.5C5.125 9.71 5.79 10.375 7 10.375H9.5C9.705 10.375 9.875 10.205 9.875 10C9.875 9.795 9.705 9.625 9.5 9.625H7C6.21 9.625 5.875 9.29 5.875 8.5V6.375H9.5Z" fill="currentColor"/>
</g>
<defs>
<clipPath id="clip0_1652_3684">
<rect width="12" height="12" fill="currentColor"/>
</clipPath>
</defs>
</svg>
