<svg width="12" height="12" viewBox="0 0 12 12" fill="none" xmlns="http://www.w3.org/2000/svg">
<g clip-path="url(#clip0_1652_3745)">
<path d="M10.5195 6.63945L10.0595 6.18945L6.18455 10.0594L6.64955 10.5244C7.03955 10.9144 7.44455 11.1094 7.84455 11.1094C8.24455 11.1094 8.64955 10.9144 9.03955 10.5244L10.5195 9.04445C11.3145 8.24445 11.3145 7.43945 10.5195 6.63945Z" fill="currentColor"/>
<path d="M5.3449 1.4657C4.55988 0.680703 3.73488 0.680703 2.94988 1.4657L1.46488 2.9457C0.684883 3.7307 0.684883 4.5557 1.46488 5.3407L1.92488 5.8007L5.7999 1.9257L5.3449 1.4657Z" fill="currentColor"/>
<path d="M10.9049 1.96907C10.2499 3.60407 8.7549 5.73905 7.3299 7.13405C7.1249 5.84405 6.0949 4.83407 4.79492 4.65407C6.1949 3.22407 8.3449 1.70907 9.9849 1.04907C10.2749 0.939068 10.5649 1.02407 10.7449 1.20407C10.9349 1.39407 11.0249 1.67907 10.9049 1.96907Z" fill="currentColor"/>
<path d="M6.88955 7.54545C6.78955 7.63045 6.68955 7.71545 6.58955 7.79545L5.69455 8.51045C5.69455 8.49545 5.68955 8.47545 5.68955 8.45545C5.61955 7.92045 5.36955 7.42545 4.96457 7.02045C4.55457 6.61045 4.04457 6.36045 3.48457 6.29045C3.46957 6.29045 3.44957 6.28545 3.43457 6.28545L4.15957 5.37045C4.22957 5.28045 4.30457 5.19545 4.38457 5.10545L4.72457 5.15045C5.79955 5.30045 6.66455 6.14545 6.83455 7.21545L6.88955 7.54545Z" fill="currentColor"/>
<path d="M5.2149 8.8104C5.2149 9.3604 5.0049 9.8854 4.60488 10.2804C4.29988 10.5904 3.88988 10.8004 3.38988 10.8604L2.16488 10.9954C1.49488 11.0704 0.919878 10.4954 0.994878 9.8204L1.12988 8.5904C1.24988 7.4954 2.16488 6.7954 3.13488 6.7754C3.22988 6.7704 3.33488 6.7754 3.43488 6.7854C3.85988 6.8404 4.26988 7.0354 4.61488 7.3754C4.94988 7.7104 5.1399 8.1054 5.1949 8.5204C5.2049 8.6204 5.2149 8.7154 5.2149 8.8104Z" fill="currentColor"/>
</g>
<defs>
<clipPath id="clip0_1652_3745">
<rect width="12" height="12" fill="currentColor"/>
</clipPath>
</defs>
</svg>
