<svg width="12" height="12" viewBox="0 0 12 12" fill="none" xmlns="http://www.w3.org/2000/svg">
<path d="M10 3V3.12H7.435C5.95 3.12 5.26 3.81 5.26 5.295V7.85H4.875V9.625H5.26V10.375H2.475C2.27 10.375 2.1 10.205 2.1 10C2.1 9.795 2.27 9.625 2.475 9.625H4.125V7.85H3C1.435 7.85 1.015 7.465 1 5.95V3C1 1.4 1.4 1 3 1H8C9.6 1 10 1.4 10 3Z" fill="currentColor"/>
<path d="M9.99975 3.89414C9.87475 3.87914 9.72975 3.86914 9.57475 3.86914H7.43475C6.36475 3.86914 6.00975 4.22414 6.00975 5.29415V9.62415C6.01475 9.93415 6.04975 10.1791 6.12475 10.3742C6.29975 10.8292 6.69475 10.9992 7.43475 10.9992H9.57475C10.6448 10.9992 10.9998 10.6441 10.9998 9.57415V5.29415C10.9998 4.37914 10.7397 3.98914 9.99975 3.89414ZM8.50475 5.04415C8.93975 5.04415 9.28975 5.39415 9.28975 5.82915C9.28975 6.26415 8.93975 6.61415 8.50475 6.61415C8.06975 6.61415 7.71975 6.26415 7.71975 5.82915C7.71975 5.39415 8.06975 5.04415 8.50475 5.04415ZM8.50475 9.57415C7.91475 9.57415 7.43475 9.09415 7.43475 8.50415C7.43475 8.25915 7.51975 8.02915 7.65975 7.84915C7.85475 7.59915 8.15975 7.43415 8.50475 7.43415C8.77475 7.43415 9.01975 7.53415 9.20475 7.69415C9.42975 7.89415 9.57475 8.18415 9.57475 8.50415C9.57475 9.09415 9.09475 9.57415 8.50475 9.57415Z" fill="currentColor"/>
<path d="M9.99975 3.89414C9.87475 3.87914 9.72975 3.86914 9.57475 3.86914H7.43475C6.36475 3.86914 6.00975 4.22414 6.00975 5.29415V9.62415C6.01475 9.93415 6.04975 10.1791 6.12475 10.3742C6.29975 10.8292 6.69475 10.9992 7.43475 10.9992H9.57475C10.6448 10.9992 10.9998 10.6441 10.9998 9.57415V5.29415C10.9998 4.37914 10.7397 3.98914 9.99975 3.89414ZM8.50475 5.04415C8.93975 5.04415 9.28975 5.39415 9.28975 5.82915C9.28975 6.26415 8.93975 6.61415 8.50475 6.61415C8.06975 6.61415 7.71975 6.26415 7.71975 5.82915C7.71975 5.39415 8.06975 5.04415 8.50475 5.04415ZM8.50475 9.57415C7.91475 9.57415 7.43475 9.09415 7.43475 8.50415C7.43475 8.25915 7.51975 8.02915 7.65975 7.84915C7.85475 7.59915 8.15975 7.43415 8.50475 7.43415C8.77475 7.43415 9.01975 7.53415 9.20475 7.69415C9.42975 7.89415 9.57475 8.18415 9.57475 8.50415C9.57475 9.09415 9.09475 9.57415 8.50475 9.57415Z" fill="currentColor"/>
</svg>
