<svg width="12" height="12" viewBox="0 0 12 12" fill="none" xmlns="http://www.w3.org/2000/svg">
<path d="M7.8597 4.84477C6.8347 3.81477 5.1647 3.81477 4.13968 4.84477C3.10969 5.87475 3.10969 7.53975 4.13968 8.56475C5.1697 9.59475 6.8347 9.59475 7.8597 8.56475C8.8897 7.53475 8.8897 5.86975 7.8597 4.84477ZM6.2647 6.96975L5.4697 7.76475C5.3947 7.83975 5.2997 7.87475 5.2047 7.87475C5.1097 7.87475 5.0097 7.83975 4.93969 7.76475C4.79469 7.61975 4.79469 7.37975 4.93969 7.22975L5.7347 6.43475C5.8797 6.28975 6.1197 6.28975 6.2697 6.43475C6.4147 6.58475 6.4147 6.82475 6.2647 6.96975Z" fill="currentColor"/>
<path d="M9.79905 2.90438C9.68905 2.79438 9.54905 2.73438 9.39405 2.73438C9.23905 2.73438 9.09905 2.79438 8.98905 2.89938C8.76405 3.12438 8.76405 3.48438 8.98905 3.70938C9.09905 3.81938 9.23905 3.87938 9.39405 3.87938C9.54905 3.87938 9.68905 3.81938 9.79905 3.71438C9.90905 3.60438 9.96905 3.46438 9.96905 3.30938C9.96905 3.15438 9.90905 3.00938 9.79905 2.90438Z" fill="currentColor"/>
<path d="M3.00929 9.6954C2.89929 9.5854 2.75929 9.5254 2.60429 9.5254C2.44929 9.5254 2.30929 9.5854 2.19929 9.6904C2.08929 9.8004 2.02929 9.9404 2.02929 10.0954C2.02929 10.2504 2.08929 10.3904 2.19929 10.5004C2.30929 10.6104 2.45929 10.6654 2.60429 10.6654C2.74929 10.6654 2.89929 10.6104 3.00929 10.4954C3.22929 10.2804 3.22929 9.9154 3.00929 9.6954Z" fill="currentColor"/>
<path d="M11.2053 6.30085C11.1003 6.19085 10.9553 6.13585 10.8003 6.13085C10.6453 6.13085 10.5053 6.19085 10.3953 6.30085C10.1703 6.52585 10.1703 6.88585 10.3953 7.11085C10.5053 7.22085 10.6553 7.27585 10.8003 7.27585C10.9453 7.27585 11.0953 7.22085 11.2053 7.11085C11.4303 6.88585 11.4303 6.52085 11.2053 6.30085Z" fill="currentColor"/>
<path d="M1.6057 6.2997C1.3857 6.0797 1.0207 6.0747 0.795703 6.2997C0.570703 6.5247 0.570703 6.8847 0.795703 7.1097C0.905703 7.2197 1.0557 7.2747 1.2007 7.2747C1.3457 7.2747 1.4957 7.2197 1.6057 7.1097C1.8257 6.8847 1.8257 6.5197 1.6057 6.2997Z" fill="currentColor"/>
<path d="M9.79905 9.69415C9.57405 9.46915 9.21405 9.46915 8.98905 9.69415C8.76405 9.91915 8.76405 10.2792 8.98905 10.5042C9.09905 10.6142 9.24905 10.6692 9.39405 10.6692C9.53905 10.6692 9.68905 10.6142 9.79905 10.5042C9.90905 10.3942 9.96905 10.2492 9.96905 10.0992C9.96905 9.94415 9.90905 9.79915 9.79905 9.69415Z" fill="currentColor"/>
<path d="M3.00929 2.90438C2.89929 2.79438 2.75929 2.73438 2.60429 2.73438C2.44929 2.73438 2.30929 2.79438 2.19929 2.89938C2.08929 3.00938 2.02929 3.14938 2.02929 3.30438C2.02929 3.45938 2.08929 3.60438 2.19929 3.70938C2.30929 3.81938 2.44929 3.87938 2.60429 3.87938C2.75929 3.87938 2.89929 3.81938 3.00929 3.71438C3.22929 3.48938 3.22929 3.12438 3.00929 2.90438Z" fill="currentColor"/>
<path d="M6.4058 1.50078C6.4058 1.49578 6.4058 1.49578 6.4058 1.50078C6.1808 1.27578 5.8208 1.27578 5.5958 1.50078C5.4858 1.61078 5.4258 1.75578 5.4258 1.90578C5.4258 2.06078 5.4858 2.20078 5.5908 2.31078C5.7008 2.42078 5.8408 2.48078 5.9958 2.48078C6.1508 2.48078 6.2908 2.42078 6.4008 2.31078C6.6308 2.08578 6.6308 1.72078 6.4058 1.50078Z" fill="currentColor"/>
</svg>
