<svg width="12" height="12" viewBox="0 0 12 12" fill="none" xmlns="http://www.w3.org/2000/svg">
<path d="M9.375 1H6.125C5.38 1 4.82 1.38 4.6 2C4.535 2.19 4.5 2.4 4.5 2.625V4.575C4.5 5.06 4.66 5.47 4.945 5.755C5.23 6.04 5.64 6.2 6.125 6.2V6.895C6.125 7.15 6.415 7.305 6.63 7.165L8.075 6.2H9.375C9.6 6.2 9.81 6.165 10 6.1C10.62 5.88 11 5.32 11 4.575V2.625C11 1.65 10.35 1 9.375 1ZM6.31 4C6.1 4 5.935 3.83 5.935 3.625C5.935 3.42 6.1 3.25 6.31 3.25C6.52 3.25 6.685 3.42 6.685 3.625C6.685 3.83 6.52 4 6.31 4ZM7.72 4C7.51 4 7.345 3.83 7.345 3.625C7.345 3.42 7.515 3.25 7.72 3.25C7.925 3.25 8.095 3.42 8.095 3.625C8.095 3.83 7.925 4 7.72 4ZM9.125 4C8.915 4 8.75 3.83 8.75 3.625C8.75 3.42 8.92 3.25 9.125 3.25C9.33 3.25 9.5 3.42 9.5 3.625C9.5 3.83 9.33 4 9.125 4Z" fill="currentColor"/>
<path d="M8.4519 6.95C8.35285 6.95 8.25605 6.9794 8.1738 7.0345L7.045 7.79C6.865 7.91 6.655 7.965 6.45 7.965C6.275 7.965 6.1 7.925 5.94 7.835C5.6991 7.70765 5.52215 7.47375 5.43525 7.2115C5.36565 7.00145 5.22685 6.8068 5.02685 6.7122C4.79722 6.60365 4.59021 6.4602 4.415 6.285C3.985 5.855 3.75 5.25 3.75 4.575V2.5C3.75 2.22386 3.52614 2 3.25 2C1.9 2 1 2.675 1 4.25V6.95C1 8.525 1.9 9.2 3.25 9.2H5.125V10.625H3.7C3.495 10.625 3.325 10.795 3.325 11C3.325 11.205 3.495 11.375 3.7 11.375H7.3C7.505 11.375 7.675 11.205 7.675 11C7.675 10.795 7.505 10.625 7.3 10.625H5.875V9.2H7.75C8.9477 9.2 9.7912 8.6687 9.9663 7.449C10.0055 7.17565 9.77615 6.95 9.5 6.95H8.4519Z" fill="currentColor"/>
<path d="M11 2.625V4.575C11 5.32 10.62 5.88 10 6.1C9.81 6.165 9.6 6.2 9.375 6.2H8.075L6.63 7.165C6.415 7.305 6.125 7.15 6.125 6.895V6.2C5.64 6.2 5.23 6.04 4.945 5.755C4.66 5.47 4.5 5.06 4.5 4.575V2.625C4.5 2.4 4.535 2.19 4.6 2C4.82 1.38 5.38 1 6.125 1H9.375C10.35 1 11 1.65 11 2.625Z" fill="currentColor"/>
</svg>
