<svg width="12" height="12" viewBox="0 0 12 12" fill="none" xmlns="http://www.w3.org/2000/svg">
<g clip-path="url(#clip0_1652_246)">
<path d="M11 11.375H2.5C1.465 11.375 0.625 10.535 0.625 9.5V1C0.625 0.795 0.795 0.625 1 0.625C1.205 0.625 1.375 0.795 1.375 1V9.5C1.375 10.12 1.88 10.625 2.5 10.625H11C11.205 10.625 11.375 10.795 11.375 11C11.375 11.205 11.205 11.375 11 11.375Z" fill="currentColor"/>
<path d="M2.49991 8.8749C2.41491 8.8749 2.32491 8.8449 2.25491 8.7849C2.09991 8.6499 2.07991 8.4149 2.21491 8.2549L4.50991 5.5749C4.75991 5.2849 5.1199 5.1099 5.4999 5.0949C5.8799 5.0849 6.2549 5.2249 6.5249 5.4949L6.9999 5.9699C7.1249 6.0949 7.2849 6.1549 7.4649 6.1549C7.6399 6.1499 7.7999 6.0699 7.9149 5.9349L10.2099 3.25491C10.3449 3.09991 10.5799 3.07991 10.7399 3.21491C10.8949 3.34991 10.9149 3.58491 10.7799 3.74491L8.4849 6.4249C8.2349 6.7149 7.8749 6.8899 7.4949 6.9049C7.1099 6.9149 6.7399 6.7749 6.4699 6.5049L5.9999 6.0299C5.8749 5.9049 5.7099 5.8399 5.5349 5.8449C5.3599 5.8499 5.1999 5.9299 5.0849 6.0649L2.78991 8.7449C2.70991 8.8299 2.60491 8.8749 2.49991 8.8749Z" fill="currentColor"/>
</g>
<defs>
<clipPath id="clip0_1652_246">
<rect width="12" height="12" fill="currentColor"/>
</clipPath>
</defs>
</svg>
