<svg width="12" height="12" viewBox="0 0 12 12" fill="none" xmlns="http://www.w3.org/2000/svg">
<path d="M10.65 6.11525H8.91C8.42 6.11525 7.985 6.38525 7.765 6.82525L7.345 7.65525C7.245 7.85525 7.045 7.98025 6.825 7.98025H5.185C5.03 7.98025 4.81 7.94525 4.665 7.65525L4.245 6.83025C4.025 6.39525 3.585 6.12025 3.1 6.12025H1.35C1.155 6.12025 1 6.27525 1 6.47025V8.10025C1 9.91525 2.09 11.0002 3.91 11.0002H8.1C9.815 11.0002 10.87 10.0603 11 8.39025V6.46525C11 6.27525 10.845 6.11525 10.65 6.11525Z" fill="currentColor"/>
<path d="M11 3.905V5.425C10.89 5.385 10.77 5.365 10.65 5.365H8.91C8.135 5.365 7.44 5.795 7.095 6.485L6.72 7.225H5.29L4.915 6.49C4.57 5.795 3.875 5.365 3.1 5.365H1.35C1.23 5.365 1.11 5.385 1 5.425V3.905C1 2.085 2.085 1 3.905 1H8.095C9.915 1 11 2.085 11 3.905Z" fill="currentColor"/>
</svg>
