<svg width="12" height="12" viewBox="0 0 12 12" fill="none" xmlns="http://www.w3.org/2000/svg">
<path d="M9.34485 5.7654C9.05985 5.6904 8.72485 5.6504 8.32485 5.6504C7.76985 5.6504 7.56485 5.7854 7.27985 6.0004C7.26485 6.0104 7.24985 6.0254 7.23485 6.0404L6.75985 6.5454C6.36485 6.9704 5.63985 6.9704 5.23985 6.5454L4.76484 6.0454C4.74984 6.0254 4.73484 6.0104 4.71984 6.0004C4.42984 5.7854 4.22484 5.6504 3.67484 5.6504C3.27484 5.6504 2.93984 5.6854 2.65484 5.7654C1.46484 6.0854 1.46484 7.0304 1.46484 7.8604V8.3254C1.46484 9.5804 1.46484 11.0004 4.13984 11.0004H7.85985C9.63485 11.0004 10.5348 10.1004 10.5348 8.3254V7.8604C10.5348 7.0304 10.5348 6.0854 9.34485 5.7654Z" fill="currentColor"/>
<path d="M7.39455 1H4.60453C2.39453 1 2.39453 2.175 2.39453 3.21V5.06C2.41453 5.05 2.43953 5.045 2.45953 5.04C2.80953 4.945 3.20453 4.9 3.67453 4.9C4.44453 4.9 4.80953 5.125 5.16955 5.4C5.21955 5.435 5.26955 5.48 5.31455 5.53L5.78455 6.025C5.83455 6.08 5.91455 6.11 5.99955 6.11C6.08455 6.11 6.16455 6.08 6.20955 6.03L6.68955 5.525C6.72955 5.485 6.77455 5.44 6.82455 5.405C7.19455 5.125 7.55455 4.9 8.32455 4.9C8.79455 4.9 9.18955 4.945 9.53955 5.04C9.55955 5.045 9.58455 5.05 9.60455 5.06V3.21C9.60455 2.175 9.60455 1 7.39455 1ZM6.77455 4.25H5.22455C5.03455 4.25 4.87453 4.09 4.87453 3.9C4.87453 3.705 5.03455 3.55 5.22455 3.55H6.77455C6.96455 3.55 7.12455 3.705 7.12455 3.9C7.12455 4.09 6.96455 4.25 6.77455 4.25ZM7.16455 2.855H4.83453C4.64453 2.855 4.48953 2.695 4.48953 2.505C4.48953 2.31 4.64453 2.155 4.83453 2.155H7.16455C7.35455 2.155 7.50955 2.31 7.50955 2.505C7.50955 2.695 7.35455 2.855 7.16455 2.855Z" fill="currentColor"/>
</svg>
