<svg width="12" height="12" viewBox="0 0 12 12" fill="none" xmlns="http://www.w3.org/2000/svg">
<path d="M10.6458 8.5109L9.7758 6.7709C9.5358 6.2859 9.5358 5.7209 9.7758 5.2359L10.6458 3.49589C11.3908 2.00089 9.7858 0.430892 8.3108 1.21089L7.5408 1.62089C7.4358 1.67589 7.3508 1.76589 7.3008 1.87589L4.45082 8.1959C4.33582 8.4559 4.44082 8.7609 4.69082 8.8909L8.3108 10.7959C9.7858 11.5759 11.3908 10.0009 10.6458 8.5109Z" fill="currentColor"/>
<path d="M3.84477 7.8002L5.70975 3.66023C5.91975 3.19523 5.41975 2.72523 4.96977 2.96523L2.08477 4.48023C0.859766 5.1252 0.859766 6.8752 2.08477 7.5202L3.10477 8.0552C3.37977 8.2002 3.71477 8.0852 3.84477 7.8002Z" fill="currentColor"/>
</svg>
