<svg width="12" height="12" viewBox="0 0 12 12" fill="none" xmlns="http://www.w3.org/2000/svg">
<path d="M1.35455 8.5096L2.22455 6.7696C2.46455 6.2846 2.46455 5.7196 2.22455 5.2346L1.35455 3.48962C0.609553 1.99962 2.21455 0.424621 3.68955 1.20462L4.45955 1.61462C4.56955 1.66962 4.65455 1.75962 4.69955 1.86962L7.54455 8.1946C7.65955 8.4546 7.55455 8.7596 7.30455 8.8896L3.68455 10.7946C2.21455 11.5746 0.609553 9.9996 1.35455 8.5096Z" fill="currentColor"/>
<path d="M8.15465 7.8002L6.28965 3.66023C6.07965 3.19523 6.57965 2.72523 7.02965 2.96523L9.91465 4.48523C11.1396 5.1302 11.1396 6.8802 9.91465 7.5252L8.89465 8.0602C8.61965 8.2002 8.28465 8.0852 8.15465 7.8002Z" fill="currentColor"/>
</svg>
