<svg width="12" height="12" viewBox="0 0 12 12" fill="none" xmlns="http://www.w3.org/2000/svg">
<path d="M10.65 6.11525H8.91C8.42 6.11525 7.985 6.38525 7.765 6.82525L7.345 7.65525C7.245 7.85525 7.045 7.98025 6.825 7.98025H5.185C5.03 7.98025 4.81 7.94525 4.665 7.65525L4.245 6.83025C4.025 6.39525 3.585 6.12025 3.1 6.12025H1.35C1.155 6.12025 1 6.27525 1 6.47025V8.10025C1 9.91525 2.09 11.0003 3.91 11.0003H8.1C9.815 11.0003 10.87 10.0603 11 8.39025V6.46525C11 6.27525 10.845 6.11525 10.65 6.11525Z" fill="currentColor"/>
<path d="M6.3746 1.90414L6.7346 2.26414C6.8096 2.33914 6.9046 2.37414 6.9996 2.37414C7.0946 2.37414 7.1896 2.33914 7.2646 2.26414C7.4096 2.11914 7.4096 1.87914 7.2646 1.73414L6.2646 0.734141C6.2596 0.729141 6.2546 0.729141 6.2546 0.724141C6.2246 0.694141 6.1846 0.669141 6.1446 0.649141C6.1396 0.649141 6.1396 0.649141 6.1346 0.644141C6.0946 0.629141 6.0546 0.624141 6.0146 0.619141C5.9996 0.619141 5.9896 0.619141 5.9746 0.619141C5.9446 0.619141 5.9146 0.629141 5.8846 0.639141C5.8696 0.644141 5.8596 0.649141 5.8496 0.654141C5.8096 0.674141 5.7696 0.694141 5.7396 0.729141L4.73961 1.72914C4.59461 1.87414 4.59461 2.11414 4.73961 2.25914C4.88461 2.40414 5.1246 2.40414 5.2696 2.25914L5.6296 1.89914V2.49914H6.3796V1.90414H6.3746Z" fill="currentColor"/>
<path d="M11 5.405V5.425C10.89 5.385 10.77 5.365 10.65 5.365H8.91C8.135 5.365 7.44 5.795 7.095 6.485L6.72 7.225H5.29L4.915 6.49C4.57 5.795 3.875 5.365 3.1 5.365H1.35C1.23 5.365 1.11 5.385 1 5.425V5.405C1 3.585 2.085 2.5 3.905 2.5H5.625V4.5C5.625 4.705 5.795 4.875 6 4.875C6.205 4.875 6.375 4.705 6.375 4.5V2.5H8.095C9.915 2.5 11 3.585 11 5.405Z" fill="currentColor"/>
</svg>
