<svg width="12" height="12" viewBox="0 0 12 12" fill="none" xmlns="http://www.w3.org/2000/svg">
<path d="M9.5 4C10.3285 4 11 3.32842 11 2.5C11 1.67158 10.3285 1 9.5 1C8.67155 1 8 1.67158 8 2.5C8 3.32842 8.67155 4 9.5 4Z" fill="currentColor"/>
<path d="M10.17 6.36045H8.515C8.05 6.36045 7.635 6.62045 7.425 7.03045L7.025 7.82045C6.93 8.01045 6.74 8.12545 6.53 8.12545H4.975C4.83 8.12545 4.615 8.09545 4.48 7.81545L4.085 7.03045C3.875 6.61545 3.46 6.35545 2.995 6.35545H1.33C1.15 6.36045 1 6.51045 1 6.69045V8.23545C1 9.97045 2.035 11.0005 3.765 11.0005H7.745C9.375 11.0005 10.38 10.1054 10.5 8.52045V6.69045C10.5 6.51045 10.35 6.36045 10.17 6.36045Z" fill="currentColor"/>
<path d="M10.5 5.2V5.665C10.395 5.63 10.285 5.61 10.17 5.61H8.515C7.765 5.61 7.09 6.025 6.76 6.695L6.41 7.38H5.095L4.755 6.7C4.415 6.025 3.745 5.61 2.995 5.61H1.33C1.215 5.61 1.105 5.63 1 5.665V4.26C1 2.735 2.235 1.5 3.76 1.5H6.8C7.12 1.5 7.35 1.79 7.29 2.1C7.21 2.5 7.245 2.935 7.44 3.395C7.665 3.915 8.085 4.335 8.605 4.56C9.065 4.755 9.5 4.79 9.9 4.71C10.21 4.65 10.5 4.88 10.5 5.2Z" fill="currentColor"/>
</svg>
