<svg width="12" height="12" viewBox="0 0 12 12" fill="none" xmlns="http://www.w3.org/2000/svg">
<path d="M8.5096 1.35912L6.7696 2.22912C6.2846 2.46912 5.7196 2.46912 5.2346 2.22912L3.48962 1.35412C1.99962 0.609123 0.424621 2.21912 1.20462 3.69412L1.61462 4.46412C1.66962 4.56912 1.75962 4.65412 1.86962 4.70412L8.1946 7.5491C8.4546 7.6641 8.7596 7.5591 8.8896 7.3091L10.7946 3.68912C11.5696 2.21912 9.9996 0.609123 8.5096 1.35912Z" fill="currentColor"/>
<path d="M7.8002 8.15465L3.66023 6.28965C3.19523 6.07965 2.72523 6.57965 2.96523 7.02965L4.48523 9.91465C5.1302 11.1396 6.8802 11.1396 7.5252 9.91465L8.0602 8.89465C8.2002 8.61965 8.0802 8.28465 7.8002 8.15465Z" fill="currentColor"/>
</svg>
