<svg width="12" height="12" viewBox="0 0 12 12" fill="none" xmlns="http://www.w3.org/2000/svg">
<path d="M9.34485 5.7654C9.05985 5.6904 8.72485 5.6504 8.32485 5.6504C7.76985 5.6504 7.56485 5.7854 7.27985 6.0004C7.26485 6.0104 7.24985 6.0254 7.23485 6.0404L6.75985 6.5454C6.35985 6.9654 5.63985 6.9704 5.23985 6.5404L4.76484 6.0404C4.74984 6.0254 4.73484 6.0104 4.71984 6.0004C4.43484 5.7854 4.22984 5.6504 3.67484 5.6504C3.27484 5.6504 2.93984 5.6904 2.65484 5.7654C1.46484 6.0854 1.46484 7.0304 1.46484 7.8604V8.3254C1.46484 9.5804 1.46484 11.0004 4.13984 11.0004H7.85985C9.63485 11.0004 10.5348 10.1004 10.5348 8.3254V7.8604C10.5348 7.0304 10.5348 6.0854 9.34485 5.7654ZM7.16485 9.2004H4.83484C4.64484 9.2004 4.48984 9.0454 4.48984 8.8504C4.48984 8.6554 4.64484 8.5004 4.83484 8.5004H7.16485C7.35485 8.5004 7.50985 8.6554 7.50985 8.8504C7.50985 9.0454 7.35485 9.2004 7.16485 9.2004Z" fill="currentColor"/>
<path d="M6.3342 2.15L6.6592 2.475C6.7892 2.605 7.0042 2.605 7.1342 2.475C7.2642 2.345 7.2642 2.13 7.1342 2L6.2342 1.1C6.2042 1.07 6.1642 1.045 6.1242 1.025C6.0842 1.01 6.0442 1 5.9992 1C5.9542 1 5.9142 1.01 5.8692 1.025C5.8292 1.04 5.7992 1.065 5.7692 1.09C5.7642 1.095 5.7642 1.095 5.7592 1.095L4.85922 2C4.72922 2.13 4.72922 2.345 4.85922 2.475C4.98922 2.605 5.2042 2.605 5.3342 2.475L5.6592 2.15V3H6.3342V2.15Z" fill="currentColor"/>
<path d="M9.60455 5.06C9.58455 5.05 9.55955 5.045 9.53955 5.04H9.53455C9.17955 4.945 8.78455 4.9 8.32455 4.9C7.55455 4.9 7.18955 5.125 6.85955 5.375C6.78955 5.425 6.73955 5.475 6.68955 5.525L6.21455 6.03C6.16455 6.08 6.08455 6.11 5.99955 6.11C5.96955 6.11 5.85955 6.105 5.78455 6.025L5.29455 5.51C5.24455 5.455 5.18455 5.41 5.16955 5.4C4.80953 5.125 4.44453 4.9 3.67453 4.9C3.21453 4.9 2.81953 4.945 2.45953 5.04C2.43953 5.045 2.41453 5.05 2.39453 5.06C2.39953 4.065 2.49953 3 4.60453 3H5.66455V4.54C5.66455 4.725 5.81455 4.875 5.99955 4.875C6.18455 4.875 6.33455 4.725 6.33455 4.54L6.3342 3H7.39455C9.49955 3 9.59955 4.065 9.60455 5.06Z" fill="currentColor"/>
</svg>
