<svg width="12" height="12" viewBox="0 0 12 12" fill="none" xmlns="http://www.w3.org/2000/svg">
<path d="M9.34485 5.7654C9.05985 5.6904 8.72485 5.6504 8.32485 5.6504C7.76985 5.6504 7.56485 5.7854 7.27985 6.0004C7.26485 6.0104 7.24985 6.0254 7.23485 6.0404L6.75985 6.5454C6.35985 6.9654 5.63985 6.9704 5.23985 6.5404L4.76484 6.0404C4.74984 6.0254 4.73484 6.0104 4.71984 6.0004C4.43484 5.7854 4.22984 5.6504 3.67484 5.6504C3.27484 5.6504 2.93984 5.6904 2.65484 5.7654C1.46484 6.0854 1.46484 7.0304 1.46484 7.8604V8.3254C1.46484 9.5804 1.46484 11.0004 4.13984 11.0004H7.85985C9.63485 11.0004 10.5348 10.1004 10.5348 8.3254V7.8604C10.5348 7.0304 10.5348 6.0854 9.34485 5.7654ZM7.16485 9.2004H4.83484C4.64484 9.2004 4.48984 9.0454 4.48984 8.8504C4.48984 8.6554 4.64484 8.5004 4.83484 8.5004H7.16485C7.35485 8.5004 7.50985 8.6554 7.50985 8.8504C7.50985 9.0454 7.35485 9.2004 7.16485 9.2004Z" fill="currentColor"/>
<path d="M9.60455 3.21V5.06C9.58455 5.05 9.55955 5.045 9.53955 5.04C9.18955 4.945 8.79455 4.9 8.32455 4.9C7.55455 4.9 7.19455 5.125 6.82455 5.405C6.77455 5.44 6.72955 5.485 6.68955 5.525L6.20955 6.03C6.16455 6.08 6.08455 6.11 5.99955 6.11C5.91455 6.11 5.83455 6.08 5.78455 6.025L5.31455 5.53C5.26955 5.48 5.21955 5.435 5.16955 5.4C4.80953 5.125 4.44453 4.9 3.67453 4.9C3.20453 4.9 2.80953 4.945 2.45953 5.04C2.43953 5.045 2.41453 5.05 2.39453 5.06V3.21C2.39453 2.175 2.39453 1 4.60453 1H7.39455C9.60455 1 9.60455 2.175 9.60455 3.21Z" fill="currentColor"/>
</svg>
