<svg width="12" height="12" viewBox="0 0 12 12" fill="none" xmlns="http://www.w3.org/2000/svg">
<path d="M8.5096 10.6458L6.7696 9.7758C6.2846 9.5358 5.7196 9.5358 5.2346 9.7758L3.49459 10.6458C1.99959 11.3908 0.42459 9.7858 1.20459 8.3108L1.61459 7.5408C1.66959 7.4358 1.75959 7.3508 1.86959 7.3008L8.1896 4.45082C8.4496 4.33582 8.7546 4.44082 8.8846 4.69082L10.7896 8.3108C11.5696 9.7858 9.9996 11.3908 8.5096 10.6458Z" fill="currentColor"/>
<path d="M7.8002 3.84477L3.66022 5.70975C3.19523 5.91975 2.72522 5.41975 2.96522 4.96977L4.48523 2.08477C5.1302 0.859766 6.8802 0.859766 7.5252 2.08477L8.0602 3.10477C8.2002 3.37977 8.0802 3.71977 7.8002 3.84477Z" fill="currentColor"/>
</svg>
