<svg width="12" height="12" viewBox="0 0 12 12" fill="none" xmlns="http://www.w3.org/2000/svg">
<path d="M10.65 6.11525H8.91C8.42 6.11525 7.985 6.38525 7.765 6.82525L7.345 7.65525C7.245 7.85525 7.045 7.98025 6.825 7.98025H5.185C5.03 7.98025 4.81 7.94525 4.665 7.65525L4.245 6.83025C4.025 6.39525 3.585 6.12025 3.1 6.12025H1.35C1.155 6.12025 1 6.27525 1 6.47025V8.10025C1 9.91525 2.09 11.0002 3.91 11.0002H8.1C9.815 11.0002 10.87 10.0603 11 8.39025V6.46525C11 6.27525 10.845 6.11525 10.65 6.11525Z" fill="currentColor"/>
<path d="M8.095 1H3.905C2.085 1 1 2.085 1 3.905V5.425C1.11 5.385 1.23 5.365 1.35 5.365H3.1C3.875 5.365 4.57 5.795 4.915 6.49L5.29 7.225H6.72L7.095 6.485C7.44 5.795 8.135 5.365 8.91 5.365H10.65C10.77 5.365 10.89 5.385 11 5.425V3.905C11 2.085 9.915 1 8.095 1ZM5.225 2.705H6.775C6.965 2.705 7.125 2.86 7.125 3.05C7.125 3.245 6.965 3.4 6.775 3.4H5.225C5.035 3.4 4.875 3.245 4.875 3.05C4.875 2.86 5.035 2.705 5.225 2.705ZM7.165 4.795H4.835C4.645 4.795 4.49 4.64 4.49 4.45C4.49 4.255 4.645 4.1 4.835 4.1H7.165C7.355 4.1 7.51 4.255 7.51 4.45C7.51 4.64 7.355 4.795 7.165 4.795Z" fill="currentColor"/>
</svg>
