<svg width="12" height="12" viewBox="0 0 12 12" fill="none" xmlns="http://www.w3.org/2000/svg">
<path d="M10.4904 1.51042C10.0554 1.07542 9.4404 0.905422 8.8454 1.05542L3.94542 2.28042C3.12042 2.48542 2.48542 3.12542 2.28042 3.94542L1.05542 8.8504C0.905418 9.4454 1.07542 10.0604 1.51042 10.4954C1.84042 10.8204 2.27542 11.0004 2.72542 11.0004C2.86542 11.0004 3.01042 10.9854 3.15042 10.9454L8.0554 9.7204C8.8754 9.5154 9.5154 8.8804 9.7204 8.0554L10.9454 3.15042C11.0954 2.55542 10.9254 1.94042 10.4904 1.51042ZM6.0004 7.9404C4.93042 7.9404 4.06042 7.0704 4.06042 6.0004C4.06042 4.93042 4.93042 4.06042 6.0004 4.06042C7.0704 4.06042 7.9404 4.93042 7.9404 6.0004C7.9404 7.0704 7.0704 7.9404 6.0004 7.9404Z" fill="currentColor"/>
</svg>
