<svg width="12" height="12" viewBox="0 0 12 12" fill="none" xmlns="http://www.w3.org/2000/svg">
<path d="M7.8045 2.74977V7.82975C7.8045 8.02975 7.7445 8.22475 7.6345 8.38975L6.2695 10.4198C6.0545 10.7448 5.5195 10.9748 5.0645 10.8048C4.57452 10.6398 4.24952 10.0898 4.35452 9.59975L4.61452 7.96475C4.63452 7.81475 4.59452 7.67975 4.50952 7.57475C4.42452 7.47975 4.29952 7.41975 4.16452 7.41975H2.10952C1.71452 7.41975 1.37452 7.25975 1.17452 6.97975C0.98452 6.70975 0.94952 6.35975 1.07452 6.00475L2.30452 2.25977C2.45952 1.63977 3.13452 1.13477 3.80452 1.13477H5.7545C6.0895 1.13477 6.5595 1.24977 6.7745 1.46477L7.4145 1.95977C7.6595 2.14977 7.8045 2.43977 7.8045 2.74977Z" fill="currentColor"/>
<path d="M9.3947 8.8042H9.9097C10.6847 8.8042 10.9997 8.5042 10.9997 7.7642V2.73922C10.9997 1.99922 10.6847 1.69922 9.9097 1.69922H9.3947C8.6197 1.69922 8.3047 1.99922 8.3047 2.73922V7.7692C8.3047 8.5042 8.6197 8.8042 9.3947 8.8042Z" fill="currentColor"/>
</svg>
