<svg width="12" height="12" viewBox="0 0 12 12" fill="none" xmlns="http://www.w3.org/2000/svg">
<rect width="12" height="12" fill="currentColor"/>
<path d="M8.095 1H3.905C2.085 1 1 2.085 1 3.905V8.09C1 9.915 2.085 11 3.905 11H8.09C9.91 11 10.995 9.915 10.995 8.095V3.905C11 2.085 9.915 1 8.095 1ZM7.875 7.875H4.125C3.92 7.875 3.75 7.705 3.75 7.5C3.75 7.295 3.92 7.125 4.125 7.125H7.875C8.08 7.125 8.25 7.295 8.25 7.5C8.25 7.705 8.08 7.875 7.875 7.875ZM7.875 4.875H4.125C3.92 4.875 3.75 4.705 3.75 4.5C3.75 4.295 3.92 4.125 4.125 4.125H7.875C8.08 4.125 8.25 4.295 8.25 4.5C8.25 4.705 8.08 4.875 7.875 4.875Z" fill="currentColor"/>
</svg>
