<svg width="12" height="12" viewBox="0 0 12 12" fill="none" xmlns="http://www.w3.org/2000/svg">
<path d="M10.3546 4.05974V8.76475C10.3546 9.99475 9.34955 10.9998 8.11955 10.9998H3.87953C2.64953 10.9998 1.64453 9.99475 1.64453 8.76475V4.05974C1.64453 3.20474 2.12453 2.45975 2.82953 2.08475C3.07453 1.95475 3.37953 2.12975 3.37953 2.40975C3.37953 3.20475 4.02953 3.85474 4.82453 3.85474H7.17455C7.96955 3.85474 8.61955 3.20475 8.61955 2.40975C8.61955 2.12975 8.91955 1.95475 9.16955 2.08475C9.87455 2.45975 10.3546 3.20474 10.3546 4.05974Z" fill="currentColor"/>
<path d="M7.1749 1H4.82489C4.30489 1 3.87989 1.42 3.87989 1.94V2.41C3.87989 2.93 4.29989 3.35 4.81989 3.35H7.1749C7.6949 3.35 8.1149 2.93 8.1149 2.41V1.94C8.1199 1.42 7.6949 1 7.1749 1Z" fill="currentColor"/>
</svg>
