<svg width="12" height="12" viewBox="0 0 12 12" fill="none" xmlns="http://www.w3.org/2000/svg">
<path d="M8 1H4C2.25 1 1.5 2 1.5 3.5V8.5C1.5 10 2.25 11 4 11H8C9.75 11 10.5 10 10.5 8.5V3.5C10.5 2 9.75 1 8 1ZM5.265 8.235C5.41 8.38 5.41 8.62 5.265 8.765C5.19 8.84 5.095 8.875 5 8.875C4.905 8.875 4.81 8.84 4.735 8.765L3.735 7.765C3.59 7.62 3.59 7.38 3.735 7.235L4.735 6.235C4.88 6.09 5.12 6.09 5.265 6.235C5.41 6.38 5.41 6.62 5.265 6.765L4.53 7.5L5.265 8.235ZM8.265 7.765L7.265 8.765C7.19 8.84 7.095 8.875 7 8.875C6.905 8.875 6.81 8.84 6.735 8.765C6.59 8.62 6.59 8.38 6.735 8.235L7.47 7.5L6.735 6.765C6.59 6.62 6.59 6.38 6.735 6.235C6.88 6.09 7.12 6.09 7.265 6.235L8.265 7.235C8.41 7.38 8.41 7.62 8.265 7.765ZM9.25 4.625H8.25C7.49 4.625 6.875 4.01 6.875 3.25V2.25C6.875 2.045 7.045 1.875 7.25 1.875C7.455 1.875 7.625 2.045 7.625 2.25V3.25C7.625 3.595 7.905 3.875 8.25 3.875H9.25C9.455 3.875 9.625 4.045 9.625 4.25C9.625 4.455 9.455 4.625 9.25 4.625Z" fill="currentColor"/>
</svg>
