<svg width="12" height="12" viewBox="0 0 12 12" fill="none" xmlns="http://www.w3.org/2000/svg">
<path d="M7.75 6.575H6.665C5.775 6.575 5.05 5.855 5.05 4.96V3.875C5.05 3.67 4.885 3.5 4.675 3.5H3.09C1.935 3.5 1 4.25 1 5.59V8.91C1 10.25 1.935 11 3.09 11H6.035C7.19 11 8.125 10.25 8.125 8.91V6.95C8.125 6.74 7.955 6.575 7.75 6.575Z" fill="currentColor"/>
<path d="M8.9099 1H5.9649C4.83489 1 3.91988 1.72 3.87988 3.005C3.90988 3.005 3.93489 3 3.96488 3H6.9099C8.0649 3 8.9999 3.75 8.9999 5.09V8.415C8.9999 8.445 8.9949 8.47 8.9949 8.495C10.1099 8.46 10.9999 7.72 10.9999 6.415V3.09C10.9999 1.75 10.0649 1 8.9099 1Z" fill="currentColor"/>
<path d="M5.9903 3.57585C5.8353 3.42085 5.5703 3.52585 5.5703 3.74085V5.05085C5.5703 5.60085 6.0353 6.05085 6.6053 6.05085C6.9603 6.05585 7.4553 6.05585 7.8803 6.05585C8.0953 6.05585 8.2053 5.80585 8.0553 5.65585C7.5103 5.11085 6.5403 4.13585 5.9903 3.57585Z" fill="currentColor"/>
</svg>
