<svg width="12" height="12" viewBox="0 0 12 12" fill="none" xmlns="http://www.w3.org/2000/svg">
<path d="M10.25 5.095H8.805C7.62 5.095 6.655 4.13 6.655 2.945V1.5C6.655 1.225 6.43 1 6.155 1H4.035C2.495 1 1.25 2 1.25 3.785V8.215C1.25 10 2.495 11 4.035 11H7.965C9.505 11 10.75 10 10.75 8.215V5.595C10.75 5.32 10.525 5.095 10.25 5.095ZM6.2 7.79L5.27 8.72C5.155 8.835 4.995 8.9 4.825 8.9C4.655 8.9 4.5 8.835 4.38 8.72L3.45 7.79C3.245 7.585 3.21 7.24 3.375 7L3.8 6.36C3.905 6.195 4.125 6.08 4.32 6.08H5.325C5.52 6.08 5.735 6.195 5.845 6.36L6.275 7C6.43 7.24 6.4 7.585 6.2 7.79Z" fill="currentColor"/>
<path d="M8.71485 4.40524C9.18985 4.41024 9.84985 4.41024 10.4149 4.41024C10.6999 4.41024 10.8498 4.07524 10.6498 3.87524C9.92985 3.15024 8.63985 1.84524 7.89985 1.10524C7.69485 0.90024 7.33985 1.04024 7.33985 1.32524V3.07024C7.33985 3.80024 7.95985 4.40524 8.71485 4.40524Z" fill="currentColor"/>
</svg>
