<svg width="12" height="12" viewBox="0 0 12 12" fill="none" xmlns="http://www.w3.org/2000/svg">
<path d="M10.25 5.095H8.805C7.62 5.095 6.655 4.13 6.655 2.945V1.5C6.655 1.225 6.43 1 6.155 1H4.035C2.495 1 1.25 2 1.25 3.785V8.215C1.25 10 2.495 11 4.035 11H7.965C9.505 11 10.75 10 10.75 8.215V5.595C10.75 5.32 10.525 5.095 10.25 5.095ZM5.765 6.765C5.69 6.84 5.595 6.875 5.5 6.875C5.405 6.875 5.31 6.84 5.235 6.765L4.875 6.405V8.5C4.875 8.705 4.705 8.875 4.5 8.875C4.295 8.875 4.125 8.705 4.125 8.5V6.405L3.765 6.765C3.62 6.91 3.38 6.91 3.235 6.765C3.09 6.62 3.09 6.38 3.235 6.235L4.235 5.235C4.27 5.205 4.305 5.18 4.345 5.16C4.355 5.155 4.37 5.15 4.38 5.145C4.41 5.135 4.44 5.13 4.475 5.125C4.49 5.125 4.5 5.125 4.515 5.125C4.555 5.125 4.595 5.135 4.635 5.15C4.64 5.15 4.64 5.15 4.645 5.15C4.685 5.165 4.725 5.195 4.755 5.225C4.76 5.23 4.765 5.23 4.765 5.235L5.765 6.235C5.91 6.38 5.91 6.62 5.765 6.765Z" fill="currentColor"/>
<path d="M8.71485 4.40524C9.18985 4.41024 9.84985 4.41024 10.4149 4.41024C10.6999 4.41024 10.8498 4.07524 10.6498 3.87524C9.92985 3.15024 8.63985 1.84524 7.89985 1.10524C7.69485 0.90024 7.33985 1.04024 7.33985 1.32524V3.07024C7.33985 3.80024 7.95985 4.40524 8.71485 4.40524Z" fill="currentColor"/>
</svg>
