<svg width="12" height="12" viewBox="0 0 12 12" fill="none" xmlns="http://www.w3.org/2000/svg">
<path d="M8 1H4C2.25 1 1.5 2 1.5 3.5V5.735C1.5 5.91 1.67 6.03 1.83 5.97C2.38 5.755 3.005 5.685 3.65 5.815C4.95 6.075 5.985 7.145 6.2 8.45C6.33 9.245 6.17 10 5.805 10.625C5.705 10.79 5.825 11 6.02 11H8C9.75 11 10.5 10 10.5 8.5V3.5C10.5 2 9.75 1 8 1ZM9.25 4.625H8.25C7.49 4.625 6.875 4.01 6.875 3.25V2.25C6.875 2.045 7.045 1.875 7.25 1.875C7.455 1.875 7.625 2.045 7.625 2.25V3.25C7.625 3.595 7.905 3.875 8.25 3.875H9.25C9.455 3.875 9.625 4.045 9.625 4.25C9.625 4.455 9.455 4.625 9.25 4.625Z" fill="currentColor"/>
<path d="M3 6.5C1.62 6.5 0.5 7.62 0.5 9C0.5 10.38 1.62 11.5 3 11.5C4.38 11.5 5.5 10.38 5.5 9C5.5 7.62 4.38 6.5 3 6.5ZM2.58 9.635C2.705 9.76 2.705 9.965 2.58 10.095C2.515 10.16 2.435 10.19 2.35 10.19C2.265 10.19 2.185 10.16 2.12 10.095L1.255 9.23C1.13 9.105 1.13 8.9 1.255 8.77L2.12 7.905C2.245 7.78 2.45 7.78 2.58 7.905C2.705 8.03 2.705 8.235 2.58 8.365L1.945 9L2.58 9.635ZM4.74 9.23L3.875 10.095C3.81 10.16 3.73 10.19 3.645 10.19C3.56 10.19 3.48 10.16 3.415 10.095C3.29 9.97 3.29 9.765 3.415 9.635L4.055 9L3.42 8.365C3.295 8.24 3.295 8.035 3.42 7.905C3.545 7.78 3.75 7.78 3.88 7.905L4.745 8.77C4.865 8.9 4.865 9.1 4.74 9.23Z" fill="currentColor"/>
</svg>
