<svg width="12" height="12" viewBox="0 0 12 12" fill="none" xmlns="http://www.w3.org/2000/svg">
<path d="M7.89985 1.10524C7.69485 0.90024 7.33985 1.04024 7.33985 1.32524V3.07024C7.33985 3.80024 7.95985 4.40524 8.71485 4.40524C9.18985 4.41024 9.84985 4.41024 10.4149 4.41024C10.6999 4.41024 10.8498 4.07524 10.6498 3.87524C9.92985 3.15024 8.63985 1.84524 7.89985 1.10524Z" fill="currentColor"/>
<path d="M7.38025 9.6309C6.20525 9.7159 6.20525 11.4159 7.38025 11.5009H10.1602C10.4952 11.5009 10.8252 11.3759 11.0702 11.1509C11.8952 10.4309 11.4552 8.9909 10.3702 8.8559C9.98025 6.5109 6.59025 7.4009 7.39025 9.6359" fill="currentColor"/>
<path d="M10.75 5.595V7.22C10.75 7.37 10.53 7.44 10.42 7.335C10.18 7.1 9.885 6.92 9.545 6.815C8.705 6.555 7.73 6.81 7.125 7.45C6.72 7.87 6.515 8.405 6.52 8.985C6.52 9.08 6.475 9.165 6.4 9.22C6 9.525 5.75 10.005 5.75 10.56C5.75 10.6 5.75 10.64 5.755 10.68C5.765 10.84 5.65 10.995 5.485 10.995H4.035C2.495 10.995 1.25 9.995 1.25 8.21V3.785C1.25 2 2.495 1 4.035 1H6.155C6.43 1 6.655 1.225 6.655 1.5V2.945C6.655 4.135 7.615 5.095 8.805 5.095H10.25C10.525 5.095 10.75 5.32 10.75 5.595Z" fill="currentColor"/>
</svg>
