<svg width="12" height="12" viewBox="0 0 12 12" fill="none" xmlns="http://www.w3.org/2000/svg">
<path d="M7.89985 1.10524C7.69485 0.90024 7.33985 1.04024 7.33985 1.32524V3.07024C7.33985 3.80024 7.95985 4.40524 8.71485 4.40524C9.18985 4.41024 9.84985 4.41024 10.4149 4.41024C10.6999 4.41024 10.8498 4.07524 10.6498 3.87524C9.92985 3.15024 8.63985 1.84524 7.89985 1.10524Z" fill="currentColor"/>
<path d="M10.25 5.095H8.805C7.62 5.095 6.655 4.13 6.655 2.945V1.5C6.655 1.225 6.43 1 6.155 1H4.035C2.495 1 1.25 2 1.25 3.785V8.215C1.25 10 2.495 11 4.035 11H7.965C9.505 11 10.75 10 10.75 8.215V5.595C10.75 5.32 10.525 5.095 10.25 5.095ZM6.5 7.875H4.405L4.765 8.235C4.91 8.38 4.91 8.62 4.765 8.765C4.69 8.84 4.595 8.875 4.5 8.875C4.405 8.875 4.31 8.84 4.235 8.765L3.235 7.765C3.2 7.73 3.18 7.695 3.16 7.655C3.155 7.645 3.15 7.63 3.145 7.62C3.135 7.59 3.13 7.56 3.125 7.53C3.125 7.515 3.125 7.505 3.125 7.49C3.125 7.45 3.135 7.41 3.15 7.37C3.15 7.365 3.15 7.365 3.155 7.36C3.17 7.32 3.2 7.28 3.23 7.25C3.235 7.245 3.235 7.24 3.24 7.24L4.24 6.24C4.385 6.095 4.625 6.095 4.77 6.24C4.915 6.385 4.915 6.625 4.77 6.77L4.41 7.13H6.5C6.705 7.13 6.875 7.3 6.875 7.505C6.875 7.71 6.705 7.875 6.5 7.875Z" fill="currentColor"/>
</svg>
