<svg width="12" height="12" viewBox="0 0 12 12" fill="none" xmlns="http://www.w3.org/2000/svg">
<path d="M7.89985 1.10524C7.69485 0.90024 7.33985 1.04024 7.33985 1.32524V3.07024C7.33985 3.80024 7.95985 4.40524 8.71485 4.40524C9.18985 4.41024 9.84985 4.41024 10.4149 4.41024C10.6999 4.41024 10.8498 4.07524 10.6498 3.87524C9.92985 3.15024 8.63985 1.84524 7.89985 1.10524Z" fill="currentColor"/>
<path d="M10.25 5.095H8.805C7.62 5.095 6.655 4.13 6.655 2.945V1.5C6.655 1.225 6.43 1 6.155 1H4.035C2.495 1 1.25 2 1.25 3.785V8.215C1.25 10 2.495 11 4.035 11H7.965C9.505 11 10.75 10 10.75 8.215V5.595C10.75 5.32 10.525 5.095 10.25 5.095ZM5.75 8.875H3.75C3.545 8.875 3.375 8.705 3.375 8.5C3.375 8.295 3.545 8.125 3.75 8.125H5.75C5.955 8.125 6.125 8.295 6.125 8.5C6.125 8.705 5.955 8.875 5.75 8.875ZM6.75 6.875H3.75C3.545 6.875 3.375 6.705 3.375 6.5C3.375 6.295 3.545 6.125 3.75 6.125H6.75C6.955 6.125 7.125 6.295 7.125 6.5C7.125 6.705 6.955 6.875 6.75 6.875Z" fill="currentColor"/>
</svg>
