<svg width="12" height="12" viewBox="0 0 12 12" fill="none" xmlns="http://www.w3.org/2000/svg">
<path d="M8 1H4C2.25 1 1.5 2 1.5 3.5V8.5C1.5 10 2.25 11 4 11H8C9.75 11 10.5 10 10.5 8.5V3.5C10.5 2 9.75 1 8 1ZM6.535 7.745C6.28 8.56 5.385 8.985 5.135 8.985C4.89 8.98 4.005 8.565 3.74 7.745C3.575 7.23 3.77 6.595 4.305 6.42C4.59 6.33 4.94 6.405 5.135 6.68C5.32 6.395 5.685 6.33 5.965 6.42C6.505 6.595 6.695 7.23 6.535 7.745ZM9.25 4.625H8.25C7.49 4.625 6.875 4.01 6.875 3.25V2.25C6.875 2.045 7.045 1.875 7.25 1.875C7.455 1.875 7.625 2.045 7.625 2.25V3.25C7.625 3.595 7.905 3.875 8.25 3.875H9.25C9.455 3.875 9.625 4.045 9.625 4.25C9.625 4.455 9.455 4.625 9.25 4.625Z" fill="currentColor"/>
</svg>
