<svg width="12" height="12" viewBox="0 0 12 12" fill="none" xmlns="http://www.w3.org/2000/svg">
<path d="M1.615 0.5H5.68C6.02 0.5 6.295 0.78 6.295 1.125V1.81C6.295 2.06 6.14 2.37 5.985 2.525L4.665 3.715C4.48 3.87 4.36 4.18 4.36 4.43V5.77C4.36 5.955 4.235 6.205 4.085 6.3L3.65 6.585C3.25 6.835 2.695 6.555 2.695 6.055V4.4C2.695 4.18 2.57 3.9 2.45 3.745L1.28 2.495C1.125 2.34 1 2.06 1 1.875V1.155C1 0.78 1.275 0.5 1.615 0.5Z" fill="currentColor"/>
<path d="M8.5 1H7.3C7.16 1 7.05 1.11 7.05 1.25C7.05 1.49 7.05 1.81 7.05 1.81C7.05 2.305 6.785 2.79 6.525 3.055L5.165 4.27C5.15 4.305 5.125 4.355 5.11 4.395V5.77C5.11 6.225 4.84 6.72 4.47 6.945L4.06 7.21C3.83 7.355 3.575 7.425 3.32 7.425C3.09 7.425 2.86 7.365 2.65 7.25C2.39127 7.1067 2.19591 6.8905 2.07655 6.6368C2.01557 6.50715 2 6.36225 2 6.219V5.105C2 5.04 1.975 4.975 1.925 4.93L1.425 4.43C1.27 4.27 1 4.38 1 4.605V8.5C1 9.88 2.12 11 3.5 11H8.5C9.88 11 11 9.88 11 8.5V3.5C11 2.12 9.88 1 8.5 1ZM9 8.875H5.5C5.295 8.875 5.125 8.705 5.125 8.5C5.125 8.295 5.295 8.125 5.5 8.125H9C9.205 8.125 9.375 8.295 9.375 8.5C9.375 8.705 9.205 8.875 9 8.875ZM9 6.875H6.5C6.295 6.875 6.125 6.705 6.125 6.5C6.125 6.295 6.295 6.125 6.5 6.125H9C9.205 6.125 9.375 6.295 9.375 6.5C9.375 6.705 9.205 6.875 9 6.875Z" fill="currentColor"/>
</svg>
