<svg width="12" height="12" viewBox="0 0 12 12" fill="none" xmlns="http://www.w3.org/2000/svg">
<path d="M10.25 5.095H8.805C7.62 5.095 6.655 4.13 6.655 2.945V1.5C6.655 1.225 6.43 1 6.155 1H4.035C2.495 1 1.25 2 1.25 3.785V8.215C1.25 10 2.495 11 4.035 11H7.965C9.505 11 10.75 10 10.75 8.215V5.595C10.75 5.32 10.525 5.095 10.25 5.095ZM6.875 7.47C6.875 7.495 6.875 7.525 6.875 7.55C6.865 7.62 6.835 7.685 6.785 7.745C6.78 7.75 6.77 7.76 6.765 7.765L5.765 8.765C5.69 8.84 5.595 8.875 5.5 8.875C5.405 8.875 5.31 8.84 5.235 8.765C5.09 8.62 5.09 8.38 5.235 8.235L5.595 7.875H3.5C3.295 7.875 3.125 7.705 3.125 7.5C3.125 7.295 3.295 7.125 3.5 7.125H5.595L5.235 6.765C5.16 6.69 5.125 6.595 5.125 6.5C5.125 6.405 5.16 6.31 5.235 6.235C5.38 6.09 5.62 6.09 5.765 6.235L6.765 7.235C6.83 7.305 6.865 7.385 6.875 7.47Z" fill="currentColor"/>
<path d="M8.71485 4.40524C9.18985 4.41024 9.84985 4.41024 10.4149 4.41024C10.6999 4.41024 10.8498 4.07524 10.6498 3.87524C9.92985 3.15024 8.63985 1.84524 7.89985 1.10524C7.69485 0.90024 7.33985 1.04024 7.33985 1.32524V3.07024C7.33985 3.80024 7.95985 4.40524 8.71485 4.40524Z" fill="currentColor"/>
</svg>
