<svg width="12" height="12" viewBox="0 0 12 12" fill="none" xmlns="http://www.w3.org/2000/svg">
<path d="M6.375 7.96015H6.7C7.025 7.96015 7.295 7.67015 7.295 7.32015C7.295 6.88515 7.14 6.80015 6.885 6.71015L6.38 6.53515V7.96015H6.375Z" fill="currentColor"/>
<path d="M5.98505 0.949225C3.22503 0.959225 0.990033 3.20422 1.00003 5.96425C1.01003 8.72425 3.25503 10.9593 6.01505 10.9492C8.77505 10.9392 11.01 8.69425 11 5.93425C10.99 3.17422 8.74505 0.944225 5.98505 0.949225ZM7.13005 5.99925C7.52005 6.13425 8.04505 6.42425 8.04505 7.31925C8.04505 8.08925 7.44005 8.70925 6.70005 8.70925H6.37505V8.99925C6.37505 9.20425 6.20505 9.37425 6.00005 9.37425C5.79505 9.37425 5.62505 9.20425 5.62505 8.99925V8.70925H5.44505C4.62503 8.70925 3.96003 8.01925 3.96003 7.16925C3.96003 6.96425 4.13003 6.79425 4.33503 6.79425C4.54003 6.79425 4.71003 6.96425 4.71003 7.16925C4.71003 7.60425 5.04005 7.95925 5.44505 7.95925H5.62505V6.26925L4.87003 5.99925C4.48003 5.86425 3.95503 5.57425 3.95503 4.67922C3.95503 3.90922 4.56003 3.28923 5.30005 3.28923H5.62505V2.99922C5.62505 2.79422 5.79505 2.62422 6.00005 2.62422C6.20505 2.62422 6.37505 2.79422 6.37505 2.99922V3.28923H6.55505C7.37505 3.28923 8.04005 3.97922 8.04005 4.82923C8.04005 5.03425 7.87005 5.20425 7.66505 5.20425C7.46005 5.20425 7.29005 5.03425 7.29005 4.82923C7.29005 4.39423 6.96005 4.03923 6.55505 4.03923H6.37505V5.72925L7.13005 5.99925Z" fill="currentColor"/>
<path d="M4.71094 4.68406C4.71094 5.11905 4.86593 5.20405 5.12095 5.29405L5.62595 5.46905V4.03906H5.30095C4.97594 4.03906 4.71094 4.32906 4.71094 4.68406Z" fill="currentColor"/>
</svg>
