<svg width="12" height="12" viewBox="0 0 12 12" fill="none" xmlns="http://www.w3.org/2000/svg">
<path d="M8.095 1H3.905C2.3 1 1 2.3 1 3.905V5.125C1 5.4 1.225 5.625 1.5 5.625H10.5C10.775 5.625 11 5.4 11 5.125V3.905C11 2.3 9.7 1 8.095 1ZM3.375 4.125C3.375 4.33 3.205 4.5 3 4.5C2.795 4.5 2.625 4.33 2.625 4.125V3.125C2.625 2.92 2.795 2.75 3 2.75C3.205 2.75 3.375 2.92 3.375 3.125V4.125ZM5.375 4.125C5.375 4.33 5.205 4.5 5 4.5C4.795 4.5 4.625 4.33 4.625 4.125V3.125C4.625 2.92 4.795 2.75 5 2.75C5.205 2.75 5.375 2.92 5.375 3.125V4.125ZM9 4H7C6.795 4 6.625 3.83 6.625 3.625C6.625 3.42 6.795 3.25 7 3.25H9C9.205 3.25 9.375 3.42 9.375 3.625C9.375 3.83 9.205 4 9 4Z" fill="currentColor"/>
<path d="M1 8.095C1 9.7 2.3 11 3.905 11H8.09C9.7 11 11 9.7 11 8.095V6.875C11 6.6 10.775 6.375 10.5 6.375H1.5C1.225 6.375 1 6.6 1 6.875V8.095ZM7 8.125H9C9.205 8.125 9.375 8.295 9.375 8.5C9.375 8.705 9.205 8.875 9 8.875H7C6.795 8.875 6.625 8.705 6.625 8.5C6.625 8.295 6.795 8.125 7 8.125ZM4.625 8C4.625 7.795 4.795 7.625 5 7.625C5.205 7.625 5.375 7.795 5.375 8V9C5.375 9.205 5.205 9.375 5 9.375C4.795 9.375 4.625 9.205 4.625 9V8ZM2.625 8C2.625 7.795 2.795 7.625 3 7.625C3.205 7.625 3.375 7.795 3.375 8V9C3.375 9.205 3.205 9.375 3 9.375C2.795 9.375 2.625 9.205 2.625 9V8Z" fill="currentColor"/>
</svg>
