<svg width="12" height="12" viewBox="0 0 12 12" fill="none" xmlns="http://www.w3.org/2000/svg">
<path d="M9.66 1H2.34C1.605 1 1 1.605 1 2.34V3.655C1 4.395 1.605 5 2.34 5H9.655C10.395 5 11 4.395 11 3.66V2.34C11 1.605 10.395 1 9.66 1ZM3.375 3.5C3.375 3.705 3.205 3.875 3 3.875C2.795 3.875 2.625 3.705 2.625 3.5V2.5C2.625 2.295 2.795 2.125 3 2.125C3.205 2.125 3.375 2.295 3.375 2.5V3.5ZM5.375 3.5C5.375 3.705 5.205 3.875 5 3.875C4.795 3.875 4.625 3.705 4.625 3.5V2.5C4.625 2.295 4.795 2.125 5 2.125C5.205 2.125 5.375 2.295 5.375 2.5V3.5ZM9 3.375H7C6.795 3.375 6.625 3.205 6.625 3C6.625 2.795 6.795 2.625 7 2.625H9C9.205 2.625 9.375 2.795 9.375 3C9.375 3.205 9.205 3.375 9 3.375Z" fill="currentColor"/>
<path d="M9.66 7H2.34C1.605 7 1 7.605 1 8.34V9.655C1 10.395 1.605 11 2.34 11H9.655C10.395 11 10.995 10.395 10.995 9.66V8.345C11 7.605 10.395 7 9.66 7ZM3.375 9.5C3.375 9.705 3.205 9.875 3 9.875C2.795 9.875 2.625 9.705 2.625 9.5V8.5C2.625 8.295 2.795 8.125 3 8.125C3.205 8.125 3.375 8.295 3.375 8.5V9.5ZM5.375 9.5C5.375 9.705 5.205 9.875 5 9.875C4.795 9.875 4.625 9.705 4.625 9.5V8.5C4.625 8.295 4.795 8.125 5 8.125C5.205 8.125 5.375 8.295 5.375 8.5V9.5ZM9 9.375H7C6.795 9.375 6.625 9.205 6.625 9C6.625 8.795 6.795 8.625 7 8.625H9C9.205 8.625 9.375 8.795 9.375 9C9.375 9.205 9.205 9.375 9 9.375Z" fill="currentColor"/>
</svg>
