<svg width="12" height="12" viewBox="0 0 12 12" fill="none" xmlns="http://www.w3.org/2000/svg">
<g clip-path="url(#clip0_1652_1079)">
<path d="M6 9.375C5.795 9.375 5.625 9.205 5.625 9V8.5C5.625 8.295 5.795 8.125 6 8.125C6.205 8.125 6.375 8.295 6.375 8.5V9C6.375 9.205 6.205 9.375 6 9.375Z" fill="currentColor"/>
<path d="M6 11.375C5.795 11.375 5.625 11.205 5.625 11V10.5C5.625 10.295 5.795 10.125 6 10.125C6.205 10.125 6.375 10.295 6.375 10.5V11C6.375 11.205 6.205 11.375 6 11.375Z" fill="currentColor"/>
<path d="M0.999072 11.3741C0.969072 11.3741 0.939072 11.3691 0.909072 11.364C0.709072 11.314 0.584072 11.109 0.634072 10.909L1.13407 8.90905C1.18407 8.70905 1.38407 8.58405 1.58907 8.63405C1.78907 8.68405 1.91407 8.88905 1.86407 9.08905L1.36407 11.0891C1.31907 11.2591 1.16907 11.3741 0.999072 11.3741Z" fill="currentColor"/>
<path d="M10.8763 11.2513C10.7063 11.2513 10.5563 11.1363 10.5113 10.9663L10.0113 8.9663C9.9613 8.7663 10.0813 8.5613 10.2863 8.5113C10.4863 8.4613 10.6913 8.5813 10.7413 8.7863L11.2413 10.7863C11.2913 10.9863 11.1713 11.1913 10.9663 11.2413C10.9363 11.2463 10.9063 11.2513 10.8763 11.2513Z" fill="currentColor"/>
<path d="M9.56915 2.65C9.56915 2.8 9.44415 2.92 9.29915 2.92H2.76414C2.61414 2.92 2.49414 2.795 2.49414 2.65C2.49414 2.5 2.61914 2.38 2.76414 2.38H3.13414L3.27414 1.725C3.40414 1.085 3.67414 0.5 4.75414 0.5H7.29915C8.37915 0.5 8.65415 1.085 8.78415 1.72L8.92415 2.375H9.29415C9.44415 2.375 9.56915 2.5 9.56915 2.65Z" fill="currentColor"/>
<path d="M9.7241 4.69984C9.6691 4.09984 9.5091 3.46484 8.3441 3.46484H3.7141C2.5491 3.46484 2.3941 4.10484 2.3341 4.69984L2.1291 6.90985C2.1041 7.18485 2.1941 7.45985 2.3841 7.66985C2.5791 7.87985 2.8491 7.99985 3.1391 7.99985H3.8191C4.4091 7.99985 4.5191 7.66485 4.5941 7.43985L4.6691 7.21985C4.7541 6.96985 4.7741 6.90985 5.0991 6.90985H6.9591C7.2841 6.90985 7.2941 6.94485 7.3891 7.21985L7.4641 7.43985C7.5341 7.66485 7.6491 7.99985 8.2341 7.99985H8.9141C9.1991 7.99985 9.4741 7.87985 9.6691 7.66985C9.8591 7.46485 9.9491 7.18485 9.9241 6.90985L9.7241 4.69984ZM4.9391 5.45985H3.8541C3.7041 5.45985 3.5841 5.33485 3.5841 5.18985C3.5841 5.04485 3.7091 4.91985 3.8541 4.91985H4.9441C5.0941 4.91985 5.2141 5.04485 5.2141 5.18985C5.2141 5.33485 5.0891 5.45985 4.9391 5.45985ZM8.2041 5.45985H7.1141C6.9641 5.45985 6.8441 5.33485 6.8441 5.18985C6.8441 5.04485 6.9691 4.91985 7.1141 4.91985H8.2041C8.3541 4.91985 8.4741 5.04485 8.4741 5.18985C8.4741 5.33485 8.3541 5.45985 8.2041 5.45985Z" fill="currentColor"/>
</g>
<defs>
<clipPath id="clip0_1652_1079">
<rect width="12" height="12" fill="currentColor"/>
</clipPath>
</defs>
</svg>
