<svg width="12" height="12" viewBox="0 0 12 12" fill="none" xmlns="http://www.w3.org/2000/svg">
<path d="M4.965 6.375H1.5C1.225 6.375 1 6.6 1 6.875V8.095C1 9.7 2.3 11 3.905 11H4.755C5.14 11 5.375 10.59 5.19 10.25C4.795 9.515 4.64 8.63 4.835 7.7C4.905 7.36 5.025 7.04 5.185 6.74C5.27 6.575 5.155 6.375 4.965 6.375ZM3.375 9C3.375 9.205 3.205 9.375 3 9.375C2.795 9.375 2.625 9.205 2.625 9V8C2.625 7.795 2.795 7.625 3 7.625C3.205 7.625 3.375 7.795 3.375 8V9Z" fill="currentColor"/>
<path d="M8.095 1H3.905C2.3 1 1 2.3 1 3.905V5.125C1 5.4 1.225 5.625 1.5 5.625H5.92C6.03 5.625 6.135 5.585 6.225 5.515C6.655 5.185 7.16 4.945 7.7 4.835C8.63 4.64 9.515 4.795 10.25 5.19C10.59 5.37 11 5.14 11 4.755V3.905C11 2.3 9.7 1 8.095 1ZM3.375 4.125C3.375 4.33 3.205 4.5 3 4.5C2.795 4.5 2.625 4.33 2.625 4.125V3.125C2.625 2.92 2.795 2.75 3 2.75C3.205 2.75 3.375 2.92 3.375 3.125V4.125ZM5.375 4.125C5.375 4.33 5.205 4.5 5 4.5C4.795 4.5 4.625 4.33 4.625 4.125V3.125C4.625 2.92 4.795 2.75 5 2.75C5.205 2.75 5.375 2.92 5.375 3.125V4.125ZM9 4H7C6.795 4 6.625 3.83 6.625 3.625C6.625 3.42 6.795 3.25 7 3.25H9C9.205 3.25 9.375 3.42 9.375 3.625C9.375 3.83 9.205 4 9 4Z" fill="currentColor"/>
<path d="M8.5 5.5C6.845 5.5 5.5 6.845 5.5 8.5C5.5 10.155 6.845 11.5 8.5 11.5C10.155 11.5 11.5 10.155 11.5 8.5C11.5 6.845 10.155 5.5 8.5 5.5ZM9.965 9.1C9.885 9.295 9.77 9.47 9.62 9.62C9.32 9.92 8.925 10.085 8.5 10.085C8.16 10.085 7.84 9.975 7.57 9.775V9.845C7.57 10 7.445 10.13 7.285 10.13C7.125 10.125 7 10 7 9.84V9.12C7 8.965 7.125 8.835 7.285 8.835H8.005C8.16 8.835 8.29 8.96 8.29 9.12C8.29 9.265 8.185 9.375 8.045 9.395C8.425 9.58 8.91 9.52 9.215 9.215C9.31 9.12 9.385 9.005 9.435 8.88C9.495 8.735 9.66 8.665 9.805 8.725C9.955 8.785 10.025 8.955 9.965 9.1ZM10 7.88C10 8.035 9.875 8.165 9.715 8.165H8.995C8.84 8.165 8.71 8.04 8.71 7.88C8.71 7.735 8.815 7.625 8.955 7.605C8.575 7.42 8.09 7.48 7.78 7.785C7.695 7.87 7.63 7.965 7.58 8.07C7.53 8.175 7.43 8.235 7.325 8.235C7.285 8.235 7.245 8.225 7.205 8.21C7.065 8.145 7 7.975 7.07 7.83C7.15 7.665 7.255 7.515 7.38 7.385C7.68 7.085 8.075 6.92 8.5 6.92C8.84 6.92 9.16 7.03 9.43 7.23V7.165C9.43 7.01 9.555 6.88 9.715 6.88C9.875 6.88 10 7 10 7.16V7.88Z" fill="currentColor"/>
</svg>
