<svg width="12" height="12" viewBox="0 0 12 12" fill="none" xmlns="http://www.w3.org/2000/svg">
<path d="M8.29425 3.705L3.15425 8.845C2.91425 9.085 2.50425 9.03 2.35925 8.725C2.09925 8.19 1.94925 7.585 1.94925 6.95C1.93925 4.19 4.73925 1.83 5.68925 1.105C5.87425 0.965 6.12425 0.965 6.30425 1.105C6.73925 1.435 7.55425 2.12 8.31925 3.02C8.48925 3.22 8.47925 3.52 8.29425 3.705Z" fill="currentColor"/>
<path d="M10.05 6.95515C10.05 9.18515 8.235 11.0001 6 11.0001C5.105 11.0001 4.26998 10.7101 3.59498 10.2101C3.34998 10.0301 3.32998 9.67015 3.54498 9.45515L8.58 4.42013C8.815 4.18513 9.21 4.23513 9.37 4.52513C9.78 5.28015 10.055 6.10015 10.05 6.95515Z" fill="currentColor"/>
</svg>
