<svg width="12" height="12" viewBox="0 0 12 12" fill="none" xmlns="http://www.w3.org/2000/svg">
<path d="M10.5 11H1.5C1.295 11 1.125 10.83 1.125 10.625C1.125 10.42 1.295 10.25 1.5 10.25H10.5C10.705 10.25 10.875 10.42 10.875 10.625C10.875 10.83 10.705 11 10.5 11Z" fill="currentColor"/>
<path d="M9.5103 1.74081C8.5403 0.77081 7.5903 0.74581 6.5953 1.74081L5.9903 2.34581C5.9403 2.39581 5.9203 2.47581 5.9403 2.54581C6.3203 3.87081 7.3803 4.93081 8.7053 5.3108C8.7253 5.3158 8.7453 5.3208 8.7653 5.3208C8.8203 5.3208 8.8703 5.3008 8.9103 5.2608L9.5103 4.65581C10.0053 4.16581 10.2453 3.69081 10.2453 3.21081C10.2503 2.71581 10.0103 2.23581 9.5103 1.74081Z" fill="currentColor"/>
<path d="M7.80515 5.7654C7.66015 5.6954 7.52015 5.6254 7.38515 5.5454C7.27515 5.4804 7.17015 5.4104 7.06515 5.3354C6.98015 5.2804 6.88015 5.2004 6.78515 5.1204C6.77515 5.1154 6.74015 5.0854 6.70015 5.0454C6.53515 4.90539 6.35015 4.72539 6.18515 4.52539C6.17015 4.51539 6.14515 4.48039 6.11015 4.43539C6.06015 4.37539 5.97515 4.27539 5.90015 4.16039C5.84015 4.08539 5.77015 3.97539 5.70515 3.86539C5.62515 3.73039 5.55515 3.59539 5.48515 3.45539C5.47455 3.4327 5.4643 3.41011 5.4544 3.38766C5.3806 3.221 5.16325 3.17228 5.0344 3.30116L2.17016 6.1654C2.10516 6.2304 2.04516 6.3554 2.03016 6.4404L1.76016 8.3554C1.71016 8.6954 1.80516 9.0154 2.01516 9.2304C2.19516 9.4054 2.44516 9.5004 2.71516 9.5004C2.77516 9.5004 2.83516 9.4954 2.89516 9.4854L4.81516 9.2154C4.90516 9.2004 5.03015 9.1404 5.09015 9.0754L7.9508 6.21475C8.0806 6.08495 8.03165 5.86225 7.86285 5.7902C7.84385 5.7821 7.8246 5.7738 7.80515 5.7654Z" fill="currentColor"/>
</svg>
