<svg width="12" height="12" viewBox="0 0 12 12" fill="none" xmlns="http://www.w3.org/2000/svg">
<path d="M7.795 2.5H7.625V1C7.625 0.795 7.455 0.625 7.25 0.625C7.045 0.625 6.875 0.795 6.875 1V2.5H5.125V1C5.125 0.795 4.955 0.625 4.75 0.625C4.545 0.625 4.375 0.795 4.375 1V2.5H4.205C3.68 2.5 3.25 2.93 3.25 3.455V6C3.25 7.1 4 8 5.25 8H5.625V11C5.625 11.205 5.795 11.375 6 11.375C6.205 11.375 6.375 11.205 6.375 11V8H6.75C8 8 8.75 7.1 8.75 6V3.455C8.75 2.93 8.32 2.5 7.795 2.5Z" fill="currentColor"/>
</svg>
