<svg width="12" height="12" viewBox="0 0 12 12" fill="none" xmlns="http://www.w3.org/2000/svg">
<path d="M5.5 9.95V2.05C5.5 1.3 5.18 1 4.385 1H2.365C1.57 1 1.25 1.3 1.25 2.05V9.95C1.25 10.7 1.57 11 2.365 11H4.385C5.18 11 5.5 10.7 5.5 9.95Z" fill="currentColor"/>
<path d="M10.75 5.45V2.05C10.75 1.3 10.43 1 9.635 1H7.615C6.82 1 6.5 1.3 6.5 2.05V5.45C6.5 6.2 6.82 6.5 7.615 6.5H9.635C10.43 6.5 10.75 6.2 10.75 5.45Z" fill="currentColor"/>
<path d="M10.75 9.95V8.55C10.75 7.8 10.43 7.5 9.635 7.5H7.615C6.82 7.5 6.5 7.8 6.5 8.55V9.95C6.5 10.7 6.82 11 7.615 11H9.635C10.43 11 10.75 10.7 10.75 9.95Z" fill="currentColor"/>
</svg>
