<svg width="12" height="12" viewBox="0 0 12 12" fill="none" xmlns="http://www.w3.org/2000/svg">
<path d="M10.25 8.375H9.125V7.25C9.125 7.045 8.955 6.875 8.75 6.875C8.545 6.875 8.375 7.045 8.375 7.25V8.375H7.25C7.045 8.375 6.875 8.545 6.875 8.75C6.875 8.955 7.045 9.125 7.25 9.125H8.375V10.25C8.375 10.455 8.545 10.625 8.75 10.625C8.955 10.625 9.125 10.455 9.125 10.25V9.125H10.25C10.455 9.125 10.625 8.955 10.625 8.75C10.625 8.545 10.455 8.375 10.25 8.375Z" fill="currentColor"/>
<path d="M11 4.26V1.99C11 1.285 10.68 1 9.885 1H7.865C7.07 1 6.75 1.285 6.75 1.99V4.255C6.75 4.965 7.07 5.245 7.865 5.245H9.885C10.68 5.25 11 4.965 11 4.26Z" fill="currentColor"/>
<path d="M5.25 4.26V1.99C5.25 1.285 4.93 1 4.135 1H2.115C1.32 1 1 1.285 1 1.99V4.255C1 4.965 1.32 5.245 2.115 5.245H4.135C4.93 5.25 5.25 4.965 5.25 4.26Z" fill="currentColor"/>
<path d="M5.25 9.885V7.865C5.25 7.07 4.93 6.75 4.135 6.75H2.115C1.32 6.75 1 7.07 1 7.865V9.885C1 10.68 1.32 11 2.115 11H4.135C4.93 11 5.25 10.68 5.25 9.885Z" fill="currentColor"/>
</svg>
