<svg width="12" height="12" viewBox="0 0 12 12" fill="none" xmlns="http://www.w3.org/2000/svg">
<path d="M8.095 1H3.905C2.085 1 1 2.085 1 3.905V8.09C1 9.915 2.085 11 3.905 11H8.09C9.91 11 10.995 9.915 10.995 8.095V3.905C11 2.085 9.915 1 8.095 1ZM4.25 3.19C4.765 3.19 5.19 3.61 5.19 4.13C5.19 4.65 4.77 5.07 4.25 5.07C3.73 5.07 3.31 4.64 3.31 4.125C3.31 3.61 3.735 3.19 4.25 3.19ZM6 9.54C4.655 9.54 3.56 8.445 3.56 7.1C3.56 6.75 3.845 6.46 4.195 6.46H7.795C8.145 6.46 8.43 6.745 8.43 7.1C8.44 8.445 7.345 9.54 6 9.54ZM7.75 5.06C7.235 5.06 6.81 4.64 6.81 4.12C6.81 3.6 7.23 3.18 7.75 3.18C8.27 3.18 8.69 3.6 8.69 4.12C8.69 4.64 8.265 5.06 7.75 5.06Z" fill="currentColor"/>
</svg>
