<svg width="12" height="12" viewBox="0 0 12 12" fill="none" xmlns="http://www.w3.org/2000/svg">
<path d="M8.095 1H3.905C2.085 1 1 2.085 1 3.905V8.09C1 9.915 2.085 11 3.905 11H8.09C9.91 11 10.995 9.915 10.995 8.095V3.905C11 2.085 9.915 1 8.095 1ZM3.235 4.64C3.09 4.495 3.09 4.255 3.235 4.11C3.88 3.465 4.935 3.465 5.585 4.11C5.73 4.255 5.73 4.495 5.585 4.64C5.51 4.715 5.415 4.75 5.32 4.75C5.225 4.75 5.13 4.715 5.055 4.64C4.7 4.285 4.12 4.285 3.765 4.64C3.62 4.79 3.38 4.79 3.235 4.64ZM7.8 9.04H4.2C3.85 9.04 3.565 8.755 3.565 8.4C3.565 7.055 4.66 5.96 6.005 5.96C7.35 5.96 8.445 7.055 8.445 8.4C8.44 8.75 8.15 9.04 7.8 9.04ZM8.765 4.64C8.62 4.785 8.38 4.785 8.235 4.64C7.88 4.285 7.3 4.285 6.945 4.64C6.87 4.715 6.775 4.75 6.68 4.75C6.585 4.75 6.49 4.715 6.415 4.64C6.27 4.495 6.27 4.255 6.415 4.11C7.06 3.465 8.115 3.465 8.765 4.11C8.91 4.26 8.91 4.495 8.765 4.64Z" fill="currentColor"/>
</svg>
