<svg width="12" height="12" viewBox="0 0 12 12" fill="none" xmlns="http://www.w3.org/2000/svg">
<path d="M7.425 1.97539V3.87539H6.675V1.97539C6.675 1.84039 6.555 1.77539 6.475 1.77539C6.45 1.77539 6.425 1.78039 6.4 1.79039L2.435 3.28539C2.17 3.38539 2 3.63539 2 3.92039V4.25539C1.545 4.59539 1.25 5.1404 1.25 5.7554V3.92039C1.25 3.32539 1.615 2.79539 2.17 2.58539L6.14 1.08539C6.25 1.04539 6.365 1.02539 6.475 1.02539C6.975 1.02539 7.425 1.43039 7.425 1.97539Z" fill="currentColor"/>
<path d="M10.7503 7.25V7.75C10.7503 7.885 10.6454 7.995 10.5054 8H9.77535C9.51035 8 9.27035 7.805 9.25035 7.545C9.23535 7.39 9.29535 7.245 9.39535 7.145C9.48535 7.05 9.61035 7 9.74535 7H10.5003C10.6453 7.005 10.7503 7.115 10.7503 7.25Z" fill="currentColor"/>
<path d="M2.5 7.5C2.03 7.5 1.595 7.665 1.25 7.94C0.79 8.305 0.5 8.87 0.5 9.5C0.5 9.875 0.605 10.23 0.79 10.53C1.135 11.11 1.77 11.5 2.5 11.5C3.005 11.5 3.465 11.315 3.815 11C3.97 10.87 4.105 10.71 4.21 10.53C4.395 10.23 4.5 9.875 4.5 9.5C4.5 8.395 3.605 7.5 2.5 7.5ZM1.71 9.23C1.565 9.085 1.565 8.845 1.71 8.7C1.86 8.555 2.095 8.555 2.245 8.7L2.505 8.965L2.755 8.71C2.905 8.565 3.14 8.565 3.29 8.71C3.435 8.86 3.435 9.095 3.29 9.245L3.035 9.495L3.3 9.755C3.445 9.905 3.445 10.14 3.3 10.29C3.225 10.36 3.13 10.395 3.035 10.395C2.94 10.395 2.845 10.36 2.77 10.29L2.505 10.025L2.23 10.3C2.155 10.375 2.06 10.41 1.965 10.41C1.87 10.41 1.775 10.375 1.7 10.3C1.555 10.155 1.555 9.915 1.7 9.77L1.975 9.495L1.71 9.23Z" fill="currentColor"/>
<path d="M9.74 6.475H10.25C10.525 6.475 10.75 6.25 10.75 5.975V5.755C10.75 4.72 9.905 3.875 8.87 3.875H3.13C2.705 3.875 2.315 4.01539 2 4.25539C1.545 4.59539 1.25 5.1404 1.25 5.7554V6.645C1.25 6.835 1.45 6.955 1.63 6.895C1.91 6.8 2.205 6.75 2.5 6.75C4.015 6.75 5.25 7.985 5.25 9.5C5.25 9.86 5.155 10.255 5.005 10.605C4.925 10.785 5.05 11 5.245 11H8.87C9.905 11 10.75 10.155 10.75 9.12V9.025C10.75 8.75 10.525 8.525 10.25 8.525H9.815C9.335 8.525 8.875 8.23 8.75 7.765C8.65 7.385 8.77 7.015 9.02 6.775C9.205 6.585 9.46 6.475 9.74 6.475ZM7 6.375H4.5C4.295 6.375 4.125 6.205 4.125 6C4.125 5.795 4.295 5.625 4.5 5.625H7C7.205 5.625 7.375 5.795 7.375 6C7.375 6.205 7.205 6.375 7 6.375Z" fill="currentColor"/>
</svg>
