<svg width="12" height="12" viewBox="0 0 12 12" fill="none" xmlns="http://www.w3.org/2000/svg">
<path d="M2.5 7.5C1.99 7.5 1.52 7.695 1.165 8.015C1.085 8.085 1.01 8.16 0.945 8.245C0.665 8.59 0.5 9.025 0.5 9.5C0.5 10.605 1.4 11.5 2.5 11.5C2.98 11.5 3.415 11.33 3.76 11.055C4.04 10.82 4.26 10.515 4.38 10.165C4.46 9.96 4.5 9.735 4.5 9.5C4.5 8.4 3.605 7.5 2.5 7.5ZM3.7 9.115C3.7 9.255 3.59 9.36 3.455 9.36C3.32 9.36 3.21 9.255 3.21 9.115V9.065C3.21 9.01 3.17 8.965 3.115 8.965H2.115C2.165 9.06 2.155 9.175 2.075 9.255C2.03 9.3 1.97 9.325 1.9 9.325C1.84 9.325 1.775 9.3 1.73 9.255L1.37 8.895C1.35 8.875 1.33 8.845 1.315 8.815C1.295 8.755 1.295 8.69 1.315 8.63C1.33 8.605 1.345 8.57 1.37 8.55L1.73 8.195C1.825 8.095 1.98 8.095 2.07 8.195C2.15 8.27 2.16 8.39 2.11 8.48H3.115C3.435 8.48 3.695 8.74 3.695 9.065V9.115H3.7ZM3.1 10.88C3.035 10.88 2.97 10.86 2.925 10.81C2.845 10.735 2.835 10.615 2.885 10.525H1.88C1.56 10.525 1.3 10.265 1.3 9.94V9.89C1.3 9.75 1.41 9.645 1.545 9.645C1.68 9.645 1.79 9.75 1.79 9.89V9.94C1.79 9.995 1.83 10.04 1.885 10.04H2.89C2.84 9.945 2.85 9.83 2.93 9.75C3.025 9.655 3.18 9.655 3.27 9.75L3.63 10.11C3.65 10.13 3.67 10.16 3.685 10.19C3.705 10.25 3.705 10.315 3.685 10.375C3.67 10.4 3.65 10.43 3.63 10.45L3.27 10.805C3.225 10.855 3.16 10.88 3.1 10.88Z" fill="currentColor"/>
<path d="M7.425 1.97539V3.87539H6.675V1.97539C6.675 1.84039 6.555 1.77539 6.475 1.77539C6.45 1.77539 6.425 1.78039 6.4 1.79039L2.435 3.28539C2.17 3.38539 2 3.63539 2 3.92039V4.25539C1.545 4.59539 1.25 5.1404 1.25 5.7554V3.92039C1.25 3.32539 1.615 2.79539 2.17 2.58539L6.14 1.08539C6.25 1.04539 6.365 1.02539 6.475 1.02539C6.975 1.02539 7.425 1.43039 7.425 1.97539Z" fill="currentColor"/>
<path d="M10.7503 7.25V7.75C10.7503 7.885 10.6454 7.995 10.5054 8H9.77535C9.51035 8 9.27035 7.805 9.25035 7.545C9.23535 7.39 9.29535 7.245 9.39535 7.145C9.48535 7.05 9.61035 7 9.74535 7H10.5003C10.6453 7.005 10.7503 7.115 10.7503 7.25Z" fill="currentColor"/>
<path d="M9.74 6.475H10.25C10.525 6.475 10.75 6.25 10.75 5.975V5.755C10.75 4.72 9.905 3.875 8.87 3.875H3.13C2.705 3.875 2.315 4.01539 2 4.25539C1.545 4.59539 1.25 5.1404 1.25 5.7554V6.645C1.25 6.835 1.45 6.955 1.63 6.895C1.91 6.8 2.205 6.75 2.5 6.75C4.015 6.75 5.25 7.985 5.25 9.5C5.25 9.86 5.155 10.255 5.005 10.605C4.925 10.785 5.05 11 5.245 11H8.87C9.905 11 10.75 10.155 10.75 9.12V9.025C10.75 8.75 10.525 8.525 10.25 8.525H9.815C9.335 8.525 8.875 8.23 8.75 7.765C8.65 7.385 8.77 7.015 9.02 6.775C9.205 6.585 9.46 6.475 9.74 6.475ZM7 6.375H4.5C4.295 6.375 4.125 6.205 4.125 6C4.125 5.795 4.295 5.625 4.5 5.625H7C7.205 5.625 7.375 5.795 7.375 6C7.375 6.205 7.205 6.375 7 6.375Z" fill="currentColor"/>
</svg>
