<svg width="12" height="12" viewBox="0 0 12 12" fill="none" xmlns="http://www.w3.org/2000/svg">
<path d="M7.425 1.97539V3.87539H6.675V1.97539C6.675 1.84039 6.555 1.77539 6.475 1.77539C6.45 1.77539 6.425 1.78039 6.4 1.79039L2.435 3.28539C2.17 3.38539 2 3.63539 2 3.92039V4.25539C1.545 4.59539 1.25 5.1404 1.25 5.7554V3.92039C1.25 3.32539 1.615 2.79539 2.17 2.58539L6.14 1.08539C6.25 1.04539 6.365 1.02539 6.475 1.02539C6.975 1.02539 7.425 1.43039 7.425 1.97539Z" fill="currentColor"/>
<path d="M10.7503 7.25V7.75C10.7503 7.885 10.6454 7.995 10.5054 8H9.77535C9.51035 8 9.27035 7.805 9.25035 7.545C9.23535 7.39 9.29535 7.245 9.39535 7.145C9.48535 7.05 9.61035 7 9.74535 7H10.5003C10.6453 7.005 10.7503 7.115 10.7503 7.25Z" fill="currentColor"/>
<path d="M9.74 6.475H10.25C10.525 6.475 10.75 6.25 10.75 5.975V5.755C10.75 4.72 9.905 3.875 8.87 3.875H3.13C2.705 3.875 2.315 4.01539 2 4.25539C1.545 4.59539 1.25 5.1404 1.25 5.7554V9.12C1.25 10.155 2.095 11 3.13 11H8.87C9.905 11 10.75 10.155 10.75 9.12V9.025C10.75 8.75 10.525 8.525 10.25 8.525H9.815C9.335 8.525 8.875 8.23 8.75 7.765C8.645 7.385 8.77 7.02 9.02 6.775C9.205 6.585 9.46 6.475 9.74 6.475ZM7 6.375H3.5C3.295 6.375 3.125 6.205 3.125 6C3.125 5.795 3.295 5.625 3.5 5.625H7C7.205 5.625 7.375 5.795 7.375 6C7.375 6.205 7.205 6.375 7 6.375Z" fill="currentColor"/>
</svg>
