<svg width="12" height="12" viewBox="0 0 12 12" fill="none" xmlns="http://www.w3.org/2000/svg">
<path d="M3.96414 10.6227C4.27469 10.2992 4.45309 9.8862 4.49934 9.45945C4.56211 8.89165 4.38041 8.30315 3.96414 7.86955C3.71637 7.61145 3.41243 7.4394 3.09197 7.36025C2.48078 7.1985 1.80353 7.3671 1.32119 7.86955C0.987513 8.21715 0.805809 8.66105 0.782683 9.11875C0.766166 9.3149 0.782683 9.51795 0.832243 9.7141C0.908227 10.0479 1.07341 10.3645 1.32119 10.6227C2.0513 11.3832 3.23402 11.3832 3.96414 10.6227ZM3.34305 8.8882C3.53466 8.8882 3.69324 9.0534 3.69324 9.253C3.68994 9.456 3.53466 9.61775 3.33974 9.6212L2.99286 9.61775L2.99616 9.96535C2.99286 10.1684 2.83758 10.3301 2.64266 10.3336C2.44775 10.3301 2.29248 10.1684 2.28917 9.96535L2.29247 9.61775L1.94558 9.6212C1.75067 9.61775 1.59539 9.456 1.59209 9.253C1.59539 9.1532 1.63504 9.0637 1.69781 8.9983C1.76058 8.93295 1.84647 8.89165 1.94228 8.8882H2.29247V8.50965C2.29247 8.4064 2.33212 8.31695 2.39489 8.25155C2.45766 8.18615 2.54355 8.14485 2.64266 8.14485C2.83428 8.14485 2.99286 8.31005 2.99286 8.50965V8.8882H3.34305Z" fill="currentColor"/>
<path d="M7.24569 1.92274V3.77213H6.54489V1.92274C6.54489 1.79133 6.43276 1.72806 6.35798 1.72806C6.33465 1.72806 6.31128 1.73294 6.2879 1.74266L2.58291 3.19784C2.33529 3.29518 2.17644 3.53851 2.17644 3.81592V4.142C1.75127 4.47295 1.47562 5.0034 1.47562 5.60205V3.81592C1.47562 3.23677 1.81668 2.72089 2.33529 2.51649L6.04497 1.05645C6.14774 1.01751 6.25521 0.998045 6.35798 0.998045C6.82521 0.998045 7.24569 1.39226 7.24569 1.92274Z" fill="currentColor"/>
<path d="M10.3532 7.0578V7.54445C10.3532 7.6759 10.2551 7.78295 10.1242 7.7878H9.44208C9.19444 7.7878 8.97019 7.598 8.95152 7.34495C8.9375 7.19405 8.99356 7.05295 9.08702 6.9556C9.17112 6.8631 9.2879 6.81445 9.41404 6.81445H10.1195C10.2551 6.8193 10.3532 6.9264 10.3532 7.0578Z" fill="currentColor"/>
<path d="M9.40891 6.3022H9.88545C10.1424 6.3022 10.3527 6.0832 10.3527 5.81555V5.6014C10.3527 4.59398 9.56308 3.77149 8.59593 3.77149H3.23234C2.83521 3.77149 2.47079 3.90775 2.17644 4.14136C1.75127 4.4723 1.47562 5.0028 1.47562 5.6014V6.4677C1.47562 6.65265 1.6625 6.76945 1.8307 6.71105C2.09234 6.61855 2.368 6.5699 2.64365 6.5699C4.05931 6.5699 5.21332 7.772 5.21332 9.24665C5.21332 9.59705 5.12457 9.9815 4.98441 10.3222C4.90963 10.4974 5.02646 10.7067 5.20867 10.7067H8.59593C9.56308 10.7067 10.3527 9.8842 10.3527 8.87675V8.7843C10.3527 8.5166 10.1424 8.2976 9.88545 8.2976H9.47899C9.03048 8.2976 8.60064 8.01045 8.4838 7.55785C8.39035 7.188 8.50252 6.82785 8.73609 6.59425C8.90899 6.4093 9.14726 6.3022 9.40891 6.3022ZM6.84859 6.2049H4.5125C4.32095 6.2049 4.16209 6.0394 4.16209 5.83985C4.16209 5.64035 4.32095 5.47485 4.5125 5.47485H6.84859C7.04011 5.47485 7.19899 5.64035 7.19899 5.83985C7.19899 6.0394 7.04011 6.2049 6.84859 6.2049Z" fill="currentColor"/>
</svg>
