<svg width="12" height="12" viewBox="0 0 12 12" fill="none" xmlns="http://www.w3.org/2000/svg">
<path d="M8.095 1H3.905C2.085 1 1 2.085 1 3.905V8.09C1 9.915 2.085 11 3.905 11H8.09C9.91 11 10.995 9.915 10.995 8.095V3.905C11 2.085 9.915 1 8.095 1ZM6.26 7.875L5.63 8.505C5.31 8.83 4.785 8.83 4.46 8.505L3.495 7.54C3.17 7.215 3.175 6.695 3.495 6.37L4.13 5.74C4.23 5.645 4.385 5.645 4.485 5.74L6.265 7.52C6.36 7.62 6.36 7.78 6.26 7.875ZM8.505 5.63L6.965 7.17C6.865 7.27 6.71 7.27 6.61 7.17L4.83 5.39C4.73 5.29 4.73 5.135 4.83 5.035L6.37 3.495C6.69 3.17 7.215 3.17 7.54 3.495L8.505 4.46C8.83 4.785 8.83 5.31 8.505 5.63Z" fill="currentColor"/>
</svg>
