<svg width="12" height="12" viewBox="0 0 12 12" fill="none" xmlns="http://www.w3.org/2000/svg">
<path d="M10.5151 11H6.9951C6.7851 11 6.6201 10.83 6.6201 10.625C6.6201 10.42 6.7901 10.25 6.9951 10.25H10.5151C10.7251 10.25 10.8901 10.42 10.8901 10.625C10.8901 10.83 10.7251 11 10.5151 11Z" fill="currentColor"/>
<path d="M6.82 8.3447C7.015 8.5397 7.015 8.8547 6.82 9.0547L5.33 10.5447C4.775 11.0997 3.885 11.1297 3.295 10.6347C3.26 10.6047 3.23 10.5747 3.2 10.5447L1.44 8.7847C1.405 8.7497 1.375 8.7147 1.345 8.6797C0.855 8.0897 0.89 7.2097 1.44 6.6597L2.93 5.1697C3.125 4.97469 3.44 4.97469 3.635 5.1697L6.82 8.3447Z" fill="currentColor"/>
<path d="M10.5597 5.3207L8.0597 7.8207C7.8647 8.0157 7.5497 8.0157 7.3547 7.8207L4.16968 4.64571C3.97469 4.45071 3.97469 4.1357 4.16968 3.9357L6.6697 1.4407C7.2547 0.855705 8.2147 0.855705 8.7997 1.4407L10.5597 3.1957C11.1447 3.7807 11.1447 4.73571 10.5597 5.3207Z" fill="currentColor"/>
</svg>
