<svg width="12" height="12" viewBox="0 0 12 12" fill="none" xmlns="http://www.w3.org/2000/svg">
<path d="M10.57 4.94922H6.375V7.6892C6.375 7.8942 6.205 8.0642 6 8.0642C5.795 8.0642 5.625 7.8942 5.625 7.6892V4.94922H1.43C1.19 4.94922 1 5.1392 1 5.3792C1 8.3242 3.055 10.3792 6 10.3792C8.945 10.3792 11 8.3242 11 5.3792C11 5.1392 10.81 4.94922 10.57 4.94922Z" fill="currentColor"/>
<path d="M6.3742 2.89984L7.1542 3.67985C7.2992 3.82485 7.5392 3.82485 7.6842 3.67985C7.8292 3.53485 7.8292 3.29484 7.6842 3.14984L6.2592 1.72985C6.1142 1.58485 5.8742 1.58485 5.7292 1.72985L4.30922 3.15484C4.23922 3.22985 4.19922 3.32485 4.19922 3.41985C4.19922 3.51485 4.23422 3.60985 4.30922 3.68485C4.45422 3.82985 4.69422 3.82985 4.83922 3.68485L5.6192 2.90484V4.94984H6.3692V2.89984H6.3742Z" fill="currentColor"/>
</svg>
