<svg width="12" height="12" viewBox="0 0 12 12" fill="none" xmlns="http://www.w3.org/2000/svg">
<path d="M8.4 4.5H6.375V7.625C6.375 7.83 6.205 8 6 8C5.795 8 5.625 7.83 5.625 7.625V4.5H3.6C2 4.5 1 5.5 1 7.1V8.395C1 10 2 11 3.6 11H8.395C9.995 11 10.995 10 10.995 8.4V7.1C11 5.5 10 4.5 8.4 4.5Z" fill="currentColor"/>
<path d="M6.3749 2.2807L7.4099 3.31571C7.4849 3.39071 7.5799 3.4257 7.6749 3.4257C7.7699 3.4257 7.8649 3.39071 7.9399 3.31571C8.0849 3.17071 8.0849 2.93071 7.9399 2.78571L6.2649 1.11071C6.1199 0.965705 5.8799 0.965705 5.7349 1.11071L4.05992 2.78571C3.91492 2.93071 3.91492 3.17071 4.05992 3.31571C4.20492 3.46071 4.44492 3.46071 4.58992 3.31571L5.6249 2.2807V4.5007H6.3749V2.2807Z" fill="currentColor"/>
</svg>
