<svg width="12" height="12" viewBox="0 0 12 12" fill="none" xmlns="http://www.w3.org/2000/svg">
<path d="M6 1C3.24 1 1 3.24 1 6C1 8.76 3.24 11 6 11C8.76 11 11 8.76 11 6C11 3.24 8.76 1 6 1ZM8.625 6.165C8.625 6.37 8.455 6.54 8.25 6.54C8.045 6.54 7.875 6.37 7.875 6.165V4.655L4.015 8.515C3.94 8.59 3.845 8.625 3.75 8.625C3.655 8.625 3.56 8.59 3.485 8.515C3.34 8.37 3.34 8.13 3.485 7.985L7.345 4.125H5.835C5.63 4.125 5.46 3.955 5.46 3.75C5.46 3.545 5.63 3.375 5.835 3.375H8.25C8.455 3.375 8.625 3.545 8.625 3.75V6.165Z" fill="currentColor"/>
</svg>
