<svg width="12" height="12" viewBox="0 0 12 12" fill="none" xmlns="http://www.w3.org/2000/svg">
<path d="M8.5 1H4C2.895 1 2 1.895 2 3V6.625C2 6.9 2.225 7.125 2.5 7.125H10C10.275 7.125 10.5 6.9 10.5 6.625V3C10.5 1.895 9.605 1 8.5 1ZM4 6.375H3.5C3.295 6.375 3.125 6.205 3.125 6C3.125 5.795 3.295 5.625 3.5 5.625H4C4.205 5.625 4.375 5.795 4.375 6C4.375 6.205 4.205 6.375 4 6.375ZM4 5.125H3.5C3.295 5.125 3.125 4.955 3.125 4.75C3.125 4.545 3.295 4.375 3.5 4.375H4C4.205 4.375 4.375 4.545 4.375 4.75C4.375 4.955 4.205 5.125 4 5.125ZM4 3.875H3.5C3.295 3.875 3.125 3.705 3.125 3.5C3.125 3.295 3.295 3.125 3.5 3.125H4C4.205 3.125 4.375 3.295 4.375 3.5C4.375 3.705 4.205 3.875 4 3.875Z" fill="currentColor"/>
<path d="M2 8.375V9C2 10.105 2.895 11 4 11H8.5C9.605 11 10.5 10.105 10.5 9V8.375C10.5 8.1 10.275 7.875 10 7.875H2.5C2.225 7.875 2 8.1 2 8.375ZM8.855 9.73C8.76 9.82 8.63 9.875 8.5 9.875C8.37 9.875 8.24 9.82 8.145 9.73C8.055 9.635 8 9.505 8 9.375C8 9.245 8.055 9.115 8.145 9.02C8.33 8.835 8.665 8.835 8.855 9.02C8.945 9.115 9 9.245 9 9.375C9 9.505 8.945 9.635 8.855 9.73Z" fill="currentColor"/>
</svg>
