<svg width="12" height="12" viewBox="0 0 12 12" fill="none" xmlns="http://www.w3.org/2000/svg">
<path d="M10.6357 4.58917C10.4907 4.35917 10.3357 4.14417 10.1757 3.94417C9.9907 3.70917 9.6407 3.68917 9.4307 3.89917L7.9307 5.39915C8.0407 5.72915 8.0607 6.10915 7.9607 6.50415C7.7857 7.20915 7.2157 7.77915 6.5107 7.95415C6.1157 8.05415 5.7357 8.03415 5.4057 7.92415C5.4057 7.92415 4.6907 8.63915 4.1757 9.15415C3.9257 9.40415 4.0057 9.84415 4.3407 9.97415C4.87571 10.1791 5.4307 10.2842 6.0007 10.2842C6.8907 10.2842 7.7557 10.0242 8.5457 9.53915C9.3507 9.03915 10.0757 8.30415 10.6607 7.36915C11.1357 6.61415 11.1107 5.34415 10.6357 4.58917Z" fill="currentColor"/>
<path d="M7.0103 4.99031L4.99031 7.0103C4.73531 6.7503 4.57031 6.3903 4.57031 6.0003C4.57031 5.2153 5.2103 4.57031 6.0003 4.57031C6.3903 4.57031 6.7503 4.73531 7.0103 4.99031Z" fill="currentColor"/>
<path d="M9.125 2.87485L7.43 4.56985C7.065 4.19985 6.56 3.97985 6 3.97985C4.88 3.97985 3.98 4.88484 3.98 5.99985C3.98 6.55985 4.205 7.06485 4.57 7.42985L2.88 9.12485H2.875C2.32 8.67485 1.81 8.09985 1.375 7.41985C0.875 6.63485 0.875 5.35985 1.375 4.57484C1.955 3.66484 2.665 2.94985 3.455 2.45985C4.245 1.97985 5.11 1.71484 6 1.71484C7.115 1.71484 8.195 2.12485 9.125 2.87485Z" fill="currentColor"/>
<path d="M7.42905 5.99905C7.42905 6.78405 6.78905 7.42905 5.99905 7.42905C5.96905 7.42905 5.94405 7.42905 5.91405 7.41905L7.41905 5.91405C7.42905 5.94405 7.42905 5.96905 7.42905 5.99905Z" fill="currentColor"/>
<path d="M10.8844 1.11446C10.7345 0.964455 10.4894 0.964455 10.3394 1.11446L1.11446 10.3444C0.964455 10.4944 0.964455 10.7395 1.11446 10.8895C1.18946 10.9594 1.28446 10.9994 1.38446 10.9994C1.48446 10.9994 1.57946 10.9594 1.65446 10.8844L10.8844 1.65446C11.0394 1.50445 11.0394 1.26446 10.8844 1.11446Z" fill="currentColor"/>
</svg>
