<svg width="12" height="12" viewBox="0 0 12 12" fill="none" xmlns="http://www.w3.org/2000/svg">
<path d="M10.625 4.57484C9.47 2.75984 7.78 1.71484 6 1.71484C5.11 1.71484 4.245 1.97485 3.455 2.45985C2.665 2.94985 1.955 3.66484 1.375 4.57484C0.875 5.35985 0.875 6.63485 1.375 7.41985C2.53 9.23985 4.22 10.2799 6 10.2799C6.89 10.2799 7.755 10.0199 8.545 9.53485C9.335 9.04485 10.045 8.32985 10.625 7.41985C11.125 6.63985 11.125 5.35985 10.625 4.57484ZM6 8.01985C4.88 8.01985 3.98 7.11485 3.98 5.99985C3.98 4.88484 4.88 3.97985 6 3.97985C7.12 3.97985 8.02 4.88484 8.02 5.99985C8.02 7.11485 7.12 8.01985 6 8.01985Z" fill="currentColor"/>
<path d="M5.9992 4.57031C5.2142 4.57031 4.57422 5.2103 4.57422 6.0003C4.57422 6.7853 5.2142 7.4253 5.9992 7.4253C6.7842 7.4253 7.4292 6.7853 7.4292 6.0003C7.4292 5.2153 6.7842 4.57031 5.9992 4.57031Z" fill="currentColor"/>
</svg>
