<svg width="12" height="12" viewBox="0 0 12 12" fill="none" xmlns="http://www.w3.org/2000/svg">
<path d="M9.55995 7.4707L9.71995 7.7957C9.79995 7.9557 10.0049 8.1057 10.1749 8.1357L10.3899 8.1707C11.0449 8.2807 11.195 8.7607 10.7299 9.2307L10.53 9.4307C10.3949 9.5657 10.325 9.8257 10.365 10.0157L10.3899 10.1357C10.57 10.9257 10.15 11.2307 9.46495 10.8157L9.31995 10.7257C9.14495 10.6207 8.85495 10.6207 8.67995 10.7257L8.53495 10.8157C7.84495 11.2307 7.42995 10.9257 7.60995 10.1357L7.63495 10.0157C7.67495 9.8307 7.60495 9.5657 7.46995 9.4307L7.26995 9.2307C6.80495 8.7557 6.95495 8.2807 7.60995 8.1707L7.82495 8.1357C7.99995 8.1057 8.19995 7.9557 8.27995 7.7957L8.43995 7.4707C8.74995 6.8457 9.24995 6.8457 9.55995 7.4707Z" fill="currentColor"/>
<path d="M8.095 1H3.905C2.085 1 1 2.085 1 3.905V8.095C1 9.915 2.085 11 3.905 11H6.545C6.72 11 6.845 10.82 6.825 10.645C6.805 10.455 6.815 10.23 6.875 9.97C6.885 9.935 6.875 9.895 6.845 9.865L6.735 9.755C6.31 9.325 6.155 8.805 6.305 8.33C6.46 7.86 6.89 7.53 7.485 7.43L7.635 7.405L7.77 7.135C8.045 6.575 8.495 6.25 9 6.25C9.505 6.25 9.955 6.575 10.23 7.135L10.305 7.29C10.34 7.365 10.41 7.415 10.49 7.43C10.535 7.44 10.58 7.45 10.625 7.46C10.8 7.505 11 7.365 11 7.18V3.905C11 2.085 9.915 1 8.095 1ZM8.13 4.48L6.975 5.97C6.83 6.155 6.625 6.275 6.39 6.3C6.16 6.33 5.925 6.265 5.745 6.12L4.83 5.41C4.795 5.38 4.755 5.38 4.735 5.385C4.715 5.385 4.68 5.395 4.65 5.435L3.46 6.98C3.385 7.075 3.275 7.125 3.16 7.125C3.08 7.125 3 7.1 2.93 7.045C2.765 6.92 2.735 6.685 2.86 6.52L4.05 4.975C4.195 4.79 4.4 4.67 4.635 4.64C4.87 4.61 5.1 4.675 5.285 4.82L6.2 5.54C6.235 5.57 6.27 5.565 6.295 5.565C6.315 5.565 6.35 5.555 6.38 5.515L7.535 4.025C7.66 3.86 7.895 3.83 8.06 3.96C8.23 4.085 8.255 4.32 8.13 4.48Z" fill="currentColor"/>
</svg>
