<svg width="12" height="12" viewBox="0 0 12 12" fill="none" xmlns="http://www.w3.org/2000/svg">
<path d="M10.3005 2.05078V3.15078C10.3005 3.55078 10.0505 4.05078 9.80045 4.30078L7.65045 6.2008C7.35045 6.4508 7.15045 6.9508 7.15045 7.3508V9.5008C7.15045 9.8008 6.95045 10.2008 6.70045 10.3508L6.00045 10.8008C5.35045 11.2008 4.45043 10.7508 4.45043 9.9508V7.3008C4.45043 6.9508 4.25043 6.5008 4.05043 6.2508L3.81543 6.0058C3.66043 5.8408 3.63043 5.5908 3.75543 5.3958L6.31545 1.28578C6.40545 1.14078 6.56545 1.05078 6.74045 1.05078H9.30045C9.85045 1.05078 10.3005 1.50078 10.3005 2.05078Z" fill="currentColor"/>
<path d="M5.1752 1.81578L3.4002 4.66078C3.2302 4.93578 2.8402 4.97578 2.6152 4.74078L2.1502 4.25078C1.9002 4.00078 1.7002 3.55078 1.7002 3.25078V2.10078C1.7002 1.50078 2.1502 1.05078 2.7002 1.05078H4.7502C5.1402 1.05078 5.3802 1.48078 5.1752 1.81578Z" fill="currentColor"/>
</svg>
