<svg width="12" height="12" viewBox="0 0 12 12" fill="none" xmlns="http://www.w3.org/2000/svg">
<path d="M8.96045 3.185C8.79545 3.145 8.62045 3.125 8.44045 3.125C7.13045 3.125 6.06545 4.19 6.06545 5.5C6.06545 5.945 6.19045 6.365 6.41045 6.725C6.59545 7.035 6.85045 7.3 7.16045 7.49C7.53045 7.735 7.97045 7.875 8.44045 7.875C9.31045 7.875 10.0655 7.41 10.4755 6.725C10.6954 6.365 10.8155 5.945 10.8155 5.5C10.8155 4.37 10.0255 3.42 8.96045 3.185ZM9.41545 5.285L8.20045 6.5C8.15545 6.545 8.06045 6.59 7.99545 6.6L7.53045 6.665C7.36045 6.69 7.24545 6.57 7.27045 6.405L7.33545 5.94C7.34545 5.875 7.39045 5.785 7.43545 5.735L8.65045 4.52C8.86045 4.31 9.10545 4.21 9.41045 4.52C9.71545 4.83 9.62545 5.075 9.41545 5.285Z" fill="currentColor"/>
<path d="M10.29 2.01V2.49C10.29 2.695 10.055 2.82 9.86995 2.725C9.63995 2.605 9.39495 2.515 9.13495 2.455C8.91495 2.4 8.67995 2.375 8.43995 2.375C6.71495 2.375 5.31495 3.775 5.31495 5.5C5.31495 6.07 5.46995 6.63 5.76495 7.11C6.01495 7.53 6.36495 7.88 6.74495 8.115C6.82995 8.17 6.91995 8.22 7.00495 8.27C7.08995 8.315 7.14995 8.405 7.14995 8.5V9.535C7.14995 9.84 6.94995 10.245 6.69995 10.395L5.99995 10.85C5.34995 11.255 4.45496 10.8 4.45496 9.99V7.315C4.45496 6.96 4.25496 6.505 4.05496 6.255L2.15996 4.235C1.90996 3.98 1.70996 3.525 1.70996 3.225V2.06C1.70996 1.455 2.15996 1 2.70496 1H9.29495C9.83995 1 10.29 1.455 10.29 2.01Z" fill="currentColor"/>
</svg>
