<svg width="12" height="12" viewBox="0 0 12 12" fill="none" xmlns="http://www.w3.org/2000/svg">
<path d="M8.44045 5C7.13045 5 6.06545 6.065 6.06545 7.375C6.06545 7.82 6.19045 8.24 6.41045 8.6C6.82045 9.29 7.57545 9.75 8.44045 9.75C9.30545 9.75 10.0605 9.285 10.4705 8.6C10.6905 8.245 10.8155 7.82 10.8155 7.375C10.8155 6.065 9.75545 5 8.44045 5ZM9.34045 8.26C9.26545 8.335 9.17045 8.37 9.07545 8.37C8.98045 8.37 8.88545 8.335 8.81045 8.26L8.45045 7.9L8.07545 8.275C8.00045 8.35 7.90545 8.385 7.81045 8.385C7.71545 8.385 7.62045 8.35 7.54545 8.275C7.40045 8.13 7.40045 7.89 7.54545 7.745L7.92045 7.37L7.56045 7.005C7.41545 6.86 7.41545 6.62 7.56045 6.475C7.70545 6.33 7.94545 6.33 8.09045 6.475L8.45045 6.835L8.80045 6.485C8.94545 6.34 9.18545 6.34 9.33045 6.485C9.47545 6.63 9.47545 6.87 9.33045 7.015L8.98045 7.365L9.34045 7.73C9.49045 7.875 9.49045 8.115 9.34045 8.26Z" fill="currentColor"/>
<path d="M10.29 2.01V3.12C10.29 3.525 10.04 4.03 9.78995 4.285L9.69995 4.365C9.62995 4.43 9.52495 4.445 9.43495 4.415C9.33495 4.38 9.23495 4.355 9.13495 4.33C8.91495 4.275 8.67995 4.25 8.43995 4.25C6.71495 4.25 5.31495 5.65 5.31495 7.375C5.31495 7.945 5.46995 8.505 5.76495 8.985C6.01495 9.405 6.36495 9.755 6.74495 9.99C6.85995 10.065 6.90495 10.225 6.80495 10.315C6.76995 10.345 6.73495 10.37 6.69995 10.395L5.99995 10.85C5.34995 11.255 4.45496 10.8 4.45496 9.99V7.315C4.45496 6.96 4.25496 6.505 4.05496 6.255L2.15996 4.235C1.90996 3.98 1.70996 3.525 1.70996 3.225V2.06C1.70996 1.455 2.15996 1 2.70496 1H9.29495C9.83995 1 10.29 1.455 10.29 2.01Z" fill="currentColor"/>
</svg>
