<svg width="12" height="12" viewBox="0 0 12 12" fill="none" xmlns="http://www.w3.org/2000/svg">
<path d="M8.44045 5C7.13045 5 6.06545 6.065 6.06545 7.375C6.06545 7.82 6.19045 8.24 6.41045 8.6C6.82045 9.29 7.57545 9.75 8.44045 9.75C9.30545 9.75 10.0605 9.285 10.4705 8.6C10.6905 8.245 10.8155 7.82 10.8155 7.375C10.8155 6.065 9.75545 5 8.44045 5ZM9.33045 7.74H8.81545V8.275C8.81545 8.48 8.64545 8.65 8.44045 8.65C8.23545 8.65 8.06545 8.48 8.06545 8.275V7.74H7.55545C7.35045 7.74 7.18045 7.57 7.18045 7.365C7.18045 7.16 7.35045 6.99 7.55545 6.99H8.06545V6.5C8.06545 6.295 8.23545 6.125 8.44045 6.125C8.64545 6.125 8.81545 6.295 8.81545 6.5V6.99H9.33045C9.53545 6.99 9.70545 7.16 9.70545 7.365C9.70545 7.57 9.53545 7.74 9.33045 7.74Z" fill="currentColor"/>
<path d="M10.29 2.01V3.12C10.29 3.525 10.04 4.03 9.78995 4.285L9.69995 4.365C9.62995 4.43 9.52495 4.445 9.43495 4.415C9.33495 4.38 9.23495 4.355 9.13495 4.33C8.91495 4.275 8.67995 4.25 8.43995 4.25C6.71495 4.25 5.31495 5.65 5.31495 7.375C5.31495 7.945 5.46995 8.505 5.76495 8.985C6.01495 9.405 6.36495 9.755 6.74495 9.99C6.85995 10.065 6.90495 10.225 6.80495 10.315C6.76995 10.345 6.73495 10.37 6.69995 10.395L5.99995 10.85C5.34995 11.255 4.45496 10.8 4.45496 9.99V7.315C4.45496 6.96 4.25496 6.505 4.05496 6.255L2.15996 4.235C1.90996 3.98 1.70996 3.525 1.70996 3.225V2.06C1.70996 1.455 2.15996 1 2.70496 1H9.29495C9.83995 1 10.29 1.455 10.29 2.01Z" fill="currentColor"/>
</svg>
