<svg width="12" height="12" viewBox="0 0 12 12" fill="none" xmlns="http://www.w3.org/2000/svg">
<path d="M8.96045 5.06C8.79545 5.02 8.62045 5 8.44045 5C7.13045 5 6.06545 6.065 6.06545 7.375C6.06545 7.82 6.19045 8.24 6.41045 8.6C6.59545 8.91 6.85045 9.175 7.16045 9.365C7.53045 9.61 7.97045 9.75 8.44045 9.75C9.31045 9.75 10.0655 9.285 10.4755 8.6C10.6954 8.24 10.8155 7.82 10.8155 7.375C10.8155 6.245 10.0255 5.295 8.96045 5.06ZM9.62545 7.065L8.35545 8.235C8.28545 8.3 8.19045 8.335 8.10045 8.335C8.00545 8.335 7.91045 8.3 7.83545 8.225L7.25045 7.64C7.10545 7.495 7.10545 7.255 7.25045 7.11C7.39545 6.965 7.63545 6.965 7.78045 7.11L8.11045 7.44L9.11545 6.515C9.27045 6.375 9.50545 6.385 9.64545 6.535C9.78545 6.69 9.77545 6.925 9.62545 7.065Z" fill="currentColor"/>
<path d="M10.29 2.01V3.12C10.29 3.525 10.04 4.03 9.78995 4.285L9.69995 4.365C9.62995 4.43 9.52495 4.445 9.43495 4.415C9.33495 4.38 9.23495 4.355 9.13495 4.33C8.91495 4.275 8.67995 4.25 8.43995 4.25C6.71495 4.25 5.31495 5.65 5.31495 7.375C5.31495 7.945 5.46995 8.505 5.76495 8.985C6.01495 9.405 6.36495 9.755 6.74495 9.99C6.85995 10.065 6.90495 10.225 6.80495 10.315C6.76995 10.345 6.73495 10.37 6.69995 10.395L5.99995 10.85C5.34995 11.255 4.45496 10.8 4.45496 9.99V7.315C4.45496 6.96 4.25496 6.505 4.05496 6.255L2.15996 4.235C1.90996 3.98 1.70996 3.525 1.70996 3.225V2.06C1.70996 1.455 2.15996 1 2.70496 1H9.29495C9.83995 1 10.29 1.455 10.29 2.01Z" fill="currentColor"/>
</svg>
