<svg width="12" height="12" viewBox="0 0 12 12" fill="none" xmlns="http://www.w3.org/2000/svg">
<path d="M10.3603 9.12L9.8903 8.65C10.1353 8.28 10.2803 7.835 10.2803 7.355C10.2803 6.055 9.2253 5 7.9253 5C6.6253 5 5.5703 6.055 5.5703 7.355C5.5703 8.655 6.6253 9.71 7.9253 9.71C8.4053 9.71 8.8453 9.565 9.2203 9.32L9.6903 9.79C9.7853 9.885 9.9053 9.93 10.0303 9.93C10.1553 9.93 10.2753 9.885 10.3703 9.79C10.5453 9.61 10.5453 9.31 10.3603 9.12Z" fill="currentColor"/>
<path d="M9.78995 2.01V3.12C9.78995 3.525 9.53995 4.03 9.28995 4.285L9.19995 4.365C9.12995 4.43 9.02495 4.445 8.93495 4.415C8.83495 4.38 8.73495 4.355 8.63495 4.33C8.41495 4.275 8.17995 4.25 7.93995 4.25C6.21495 4.25 4.81496 5.65 4.81496 7.375C4.81496 7.945 4.96996 8.505 5.26495 8.985C5.51495 9.405 5.86495 9.755 6.24495 9.99C6.35995 10.065 6.40495 10.225 6.30495 10.315C6.26995 10.345 6.23495 10.37 6.19995 10.395L5.49995 10.85C4.84996 11.255 3.95496 10.8 3.95496 9.99V7.315C3.95496 6.96 3.75496 6.505 3.55496 6.255L1.65996 4.235C1.40996 3.98 1.20996 3.525 1.20996 3.225V2.06C1.20996 1.455 1.65996 1 2.20496 1H8.79495C9.33995 1 9.78995 1.455 9.78995 2.01Z" fill="currentColor"/>
</svg>
