<svg width="12" height="12" viewBox="0 0 12 12" fill="none" xmlns="http://www.w3.org/2000/svg">
<path d="M10.475 2.065C10.33 1.855 10.145 1.67 9.935 1.525C9.46 1.18 8.84 1 8.095 1H3.905C3.805 1 3.705 1.005 3.61 1.015C1.97 1.12 1 2.185 1 3.905V8.095C1 8.84 1.18 9.46 1.525 9.935C1.67 10.145 1.855 10.33 2.065 10.475C2.475 10.775 2.995 10.95 3.61 10.99C3.705 10.995 3.805 11 3.905 11H8.095C9.915 11 11 9.915 11 8.095V3.905C11 3.16 10.82 2.54 10.475 2.065ZM4.23 5.34L3.985 5.085C3.855 4.955 3.75 4.72 3.75 4.56V3.96C3.75 3.645 3.985 3.41 4.275 3.41H5.345C5.55 3.41 5.675 3.635 5.565 3.81L4.64 5.3C4.55 5.445 4.345 5.465 4.23 5.34ZM8.25 4.51C8.25 4.72 8.12 4.98 7.99 5.11L6.865 6.105C6.71 6.235 6.605 6.495 6.605 6.705V7.83C6.605 7.985 6.5 8.195 6.37 8.275L6 8.51C5.66 8.72 5.19 8.485 5.19 8.065V6.68C5.19 6.495 5.085 6.26 4.98 6.13L4.86 6C4.78 5.915 4.765 5.785 4.825 5.68L6.165 3.53C6.215 3.455 6.295 3.405 6.385 3.405H7.725C8.015 3.405 8.25 3.64 8.25 3.93V4.51Z" fill="currentColor"/>
</svg>
