<svg width="12" height="12" viewBox="0 0 12 12" fill="none" xmlns="http://www.w3.org/2000/svg">
<g clip-path="url(#clip0_1652_1037)">
<path d="M11 4.875C10.795 4.875 10.625 4.705 10.625 4.5V3.5C10.625 2.21 9.79 1.375 8.5 1.375H7.5C7.295 1.375 7.125 1.205 7.125 1C7.125 0.795 7.295 0.625 7.5 0.625H8.5C10.22 0.625 11.375 1.78 11.375 3.5V4.5C11.375 4.705 11.205 4.875 11 4.875Z" fill="currentColor"/>
<path d="M1 4.875C0.795 4.875 0.625 4.705 0.625 4.5V3.5C0.625 1.78 1.78 0.625 3.5 0.625H4.5C4.705 0.625 4.875 0.795 4.875 1C4.875 1.205 4.705 1.375 4.5 1.375H3.5C2.21 1.375 1.375 2.21 1.375 3.5V4.5C1.375 4.705 1.205 4.875 1 4.875Z" fill="currentColor"/>
<path d="M8.5 11.375H7.5C7.295 11.375 7.125 11.205 7.125 11C7.125 10.795 7.295 10.625 7.5 10.625H8.5C9.79 10.625 10.625 9.79 10.625 8.5V7.5C10.625 7.295 10.795 7.125 11 7.125C11.205 7.125 11.375 7.295 11.375 7.5V8.5C11.375 10.22 10.22 11.375 8.5 11.375Z" fill="currentColor"/>
<path d="M4.5 11.375H3.5C1.78 11.375 0.625 10.22 0.625 8.5V7.5C0.625 7.295 0.795 7.125 1 7.125C1.205 7.125 1.375 7.295 1.375 7.5V8.5C1.375 9.79 2.21 10.625 3.5 10.625H4.5C4.705 10.625 4.875 10.795 4.875 11C4.875 11.205 4.705 11.375 4.5 11.375Z" fill="currentColor"/>
<path d="M6.0008 4.93554C5.7558 4.93554 5.5508 5.13555 5.5508 5.38555V6.62055C5.5508 6.87055 5.7508 7.07055 6.0008 7.07055C6.2508 7.07055 6.4508 6.87055 6.4508 6.62055V5.38555C6.4508 5.13555 6.2458 4.93554 6.0008 4.93554Z" fill="currentColor"/>
<path d="M7.76585 3.69985C7.59585 3.52984 7.40085 3.38484 7.19085 3.26484C7.12085 3.22984 7.04585 3.19485 6.97085 3.15985C6.89585 3.12985 6.82085 3.09984 6.74085 3.07984C6.66085 3.05484 6.58085 3.03484 6.50085 3.01484C6.49585 3.01484 6.48585 3.01485 6.48085 3.00985C6.32585 2.97985 6.16585 2.96484 6.00585 2.96484H5.99585C5.83585 2.96484 5.68085 2.97985 5.52585 3.00985C5.50585 3.01485 5.48585 3.01484 5.47085 3.02484C5.40085 3.03984 5.33085 3.05484 5.26085 3.07984C5.17585 3.09984 5.09085 3.13485 5.00585 3.16985C4.94086 3.19985 4.87586 3.23484 4.81586 3.26484C4.74086 3.30484 4.67586 3.34984 4.60586 3.39485C4.47586 3.48485 4.35086 3.58485 4.23586 3.69985C4.18086 3.75485 4.12586 3.81485 4.07586 3.87485C4.02586 3.93985 3.97586 3.99985 3.93086 4.06985C3.88586 4.13485 3.84586 4.20484 3.80586 4.27485C3.61586 4.62985 3.50586 5.03485 3.50586 5.46485V6.53485C3.50586 7.39985 3.94586 8.15985 4.60586 8.60485C4.66586 8.64985 4.73086 8.68485 4.79586 8.72485L5.07085 8.85485C5.21085 8.90985 5.35585 8.95485 5.50085 8.98485C5.66085 9.01485 5.82585 9.03485 5.99585 9.03485C6.00085 9.03485 6.00085 9.03485 6.00585 9.03485C6.17585 9.03485 6.34085 9.01485 6.50085 8.98485C6.65085 8.95485 6.79585 8.90985 6.93585 8.85485C7.03085 8.81485 7.12085 8.76985 7.20585 8.72485C7.97585 8.29985 8.49585 7.47485 8.49585 6.53485V5.46485C8.49585 4.77485 8.21585 4.14985 7.76585 3.69985ZM7.20085 6.61985C7.20085 7.27985 6.66085 7.81985 6.00085 7.81985C5.34085 7.81985 4.80086 7.27985 4.80086 6.61985V5.38485C4.80086 4.72484 5.34085 4.18484 6.00085 4.18484C6.66085 4.18484 7.20085 4.72484 7.20085 5.38485V6.61985Z" fill="currentColor"/>
</g>
<defs>
<clipPath id="clip0_1652_1037">
<rect width="12" height="12" fill="currentColor"/>
</clipPath>
</defs>
</svg>
