<svg width="12" height="12" viewBox="0 0 12 12" fill="none" xmlns="http://www.w3.org/2000/svg">
<path d="M6 3.97461C5.105 3.97461 4.375 4.70461 4.375 5.5996V6.3996C4.375 7.2946 5.105 8.0246 6 8.0246C6.895 8.0246 7.625 7.2946 7.625 6.3996V5.5996C7.625 4.70461 6.895 3.97461 6 3.97461ZM6.45 6.6196C6.45 6.8696 6.25 7.0696 6 7.0696C5.75 7.0696 5.55 6.8696 5.55 6.6196V5.3846C5.55 5.1396 5.75 4.93461 6 4.93461C6.25 4.93461 6.45 5.1346 6.45 5.3846V6.6196Z" fill="currentColor"/>
<path d="M6 1C3.24 1 1 3.24 1 6C1 8.76 3.24 11 6 11C8.76 11 11 8.76 11 6C11 3.24 8.76 1 6 1ZM8.375 6.4C8.375 7.71 7.31 8.775 6 8.775C4.69 8.775 3.625 7.71 3.625 6.4V5.6C3.625 4.29 4.69 3.225 6 3.225C7.31 3.225 8.375 4.29 8.375 5.6V6.4Z" fill="currentColor"/>
</svg>
