<svg width="12" height="12" viewBox="0 0 12 12" fill="none" xmlns="http://www.w3.org/2000/svg">
<path d="M10.5 2.625H7C6.795 2.625 6.625 2.455 6.625 2.25C6.625 2.045 6.795 1.875 7 1.875H10.5C10.705 1.875 10.875 2.045 10.875 2.25C10.875 2.455 10.705 2.625 10.5 2.625Z" fill="currentColor"/>
<path d="M10.5 5.125H7C6.795 5.125 6.625 4.955 6.625 4.75C6.625 4.545 6.795 4.375 7 4.375H10.5C10.705 4.375 10.875 4.545 10.875 4.75C10.875 4.955 10.705 5.125 10.5 5.125Z" fill="currentColor"/>
<path d="M10.5 7.625H1.5C1.295 7.625 1.125 7.455 1.125 7.25C1.125 7.045 1.295 6.875 1.5 6.875H10.5C10.705 6.875 10.875 7.045 10.875 7.25C10.875 7.455 10.705 7.625 10.5 7.625Z" fill="currentColor"/>
<path d="M10.5 10.125H1.5C1.295 10.125 1.125 9.955 1.125 9.75C1.125 9.545 1.295 9.375 1.5 9.375H10.5C10.705 9.375 10.875 9.545 10.875 9.75C10.875 9.955 10.705 10.125 10.5 10.125Z" fill="currentColor"/>
<path d="M3.96 1.75H2.54C1.84 1.75 1.5 2.09 1.5 2.79V4.215C1.5 4.915 1.84 5.255 2.54 5.255H3.965C4.665 5.255 5.005 4.915 5.005 4.215V2.79C5 2.09 4.66 1.75 3.96 1.75Z" fill="currentColor"/>
</svg>
