<svg width="12" height="12" viewBox="0 0 12 12" fill="none" xmlns="http://www.w3.org/2000/svg">
<path d="M10.8855 1.11445C10.7355 0.964453 10.4904 0.964453 10.3405 1.11445L1.11543 10.3444C0.96543 10.4944 0.96543 10.7394 1.11543 10.8894C1.19043 10.9594 1.28543 10.9994 1.38543 10.9994C1.48543 10.9994 1.58043 10.9594 1.65543 10.8844L10.8855 1.65445C11.0405 1.50445 11.0405 1.26445 10.8855 1.11445Z" fill="currentColor"/>
<path d="M7.41025 1.76043V4.59043L4.59025 7.41045V6.64045H3.04525C2.34525 6.64045 2.15025 6.21045 2.61525 5.68545L6.40025 1.38043C6.95525 0.750433 7.41025 0.920433 7.41025 1.76043Z" fill="currentColor"/>
<path d="M9.38485 6.31435L5.59985 10.6193C5.04485 11.2493 4.58984 11.0793 4.58984 10.2393V8.90935L8.13985 5.3594H8.95485C9.65485 5.3594 9.84985 5.78935 9.38485 6.31435Z" fill="currentColor"/>
</svg>
