<svg width="12" height="12" viewBox="0 0 12 12" fill="none" xmlns="http://www.w3.org/2000/svg">
<path d="M4.65997 6.6407H6.20495V10.2407C6.20495 10.7707 6.86495 11.0207 7.21495 10.6207L11 6.3207C11.33 5.9457 11.0649 5.3607 10.5649 5.3607H9.01995V1.76071C9.01995 1.23071 8.35995 0.980713 8.00995 1.38071L4.22497 5.6807C3.89997 6.0557 4.16497 6.6407 4.65997 6.6407Z" fill="currentColor"/>
<path d="M4.25 2.375H0.75C0.545 2.375 0.375 2.205 0.375 2C0.375 1.795 0.545 1.625 0.75 1.625H4.25C4.455 1.625 4.625 1.795 4.625 2C4.625 2.205 4.455 2.375 4.25 2.375Z" fill="currentColor"/>
<path d="M3.75 10.375H0.75C0.545 10.375 0.375 10.205 0.375 10C0.375 9.795 0.545 9.625 0.75 9.625H3.75C3.955 9.625 4.125 9.795 4.125 10C4.125 10.205 3.955 10.375 3.75 10.375Z" fill="currentColor"/>
<path d="M2.25 6.375H0.75C0.545 6.375 0.375 6.205 0.375 6C0.375 5.795 0.545 5.625 0.75 5.625H2.25C2.455 5.625 2.625 5.795 2.625 6C2.625 6.205 2.455 6.375 2.25 6.375Z" fill="currentColor"/>
</svg>
