<svg width="12" height="12" viewBox="0 0 12 12" fill="none" xmlns="http://www.w3.org/2000/svg">
<path d="M5.98535 1C3.22535 1 0.985352 3.24 0.985352 6C0.985352 8.76 3.22535 11 5.98535 11C8.74535 11 10.9854 8.76 10.9854 6C10.9854 3.24 8.75035 1 5.98535 1ZM7.86035 6.175L6.00035 8.29L5.78035 8.54C5.47535 8.885 5.22535 8.795 5.22535 8.33V6.35H4.37535C3.99035 6.35 3.88535 6.115 4.14035 5.825L6.00035 3.71L6.22035 3.46C6.52535 3.115 6.77535 3.205 6.77535 3.67V5.65H7.62535C8.01035 5.65 8.11535 5.885 7.86035 6.175Z" fill="currentColor"/>
</svg>
