<svg width="12" height="12" viewBox="0 0 12 12" fill="none" xmlns="http://www.w3.org/2000/svg">
<path d="M10.5084 3.99587C10.7074 4.27916 10.4703 4.625 10.1241 4.625H1.5C1.22386 4.625 1 4.40114 1 4.125V3.21C1 1.99 1.99 1 3.21 1H4.37C5.185 1 5.44 1.265 5.765 1.7L6.465 2.63C6.62 2.835 6.64 2.86 6.93 2.86H8.325C9.2273 2.86 10.0258 3.30854 10.5084 3.99587Z" fill="currentColor"/>
<path d="M10.9917 5.8733C10.9908 5.59785 10.7671 5.375 10.4917 5.375L1.49999 5.37515C1.22385 5.37515 1 5.59905 1 5.87515V8.3252C1 9.8002 2.2 11.0002 3.675 11.0002H8.325C9.8 11.0002 11 9.8002 11 8.3252L10.9917 5.8733ZM7.25 8.3752H6.405V9.2502C6.405 9.4552 6.235 9.6252 6.03 9.6252C5.82 9.6252 5.655 9.4552 5.655 9.2502V8.3752H4.75C4.545 8.3752 4.375 8.2052 4.375 8.0002C4.375 7.7952 4.545 7.6252 4.75 7.6252H5.655V6.7502C5.655 6.5452 5.82 6.3752 6.03 6.3752C6.235 6.3752 6.405 6.5452 6.405 6.7502V7.6252H7.25C7.455 7.6252 7.625 7.7952 7.625 8.0002C7.625 8.2052 7.455 8.3752 7.25 8.3752Z" fill="currentColor"/>
</svg>
