<svg width="12" height="12" viewBox="0 0 12 12" fill="none" xmlns="http://www.w3.org/2000/svg">
<path d="M10.5084 3.99587C10.7074 4.27916 10.4703 4.625 10.1241 4.625H1.5C1.22386 4.625 1 4.40114 1 4.125V3.21C1 1.99 1.99 1 3.21 1H4.37C5.185 1 5.44 1.265 5.765 1.7L6.465 2.63C6.62 2.835 6.64 2.86 6.93 2.86H8.325C9.2273 2.86 10.0258 3.30854 10.5084 3.99587Z" fill="currentColor"/>
<path d="M10.9917 5.8733C10.9908 5.59785 10.7671 5.375 10.4916 5.375L1.49998 5.37535C1.22384 5.37535 1 5.5992 1 5.87535V8.32535C1 9.80035 2.2 11.0003 3.675 11.0003H8.325C9.8 11.0003 11 9.80035 11 8.32535L10.9917 5.8733ZM7.215 8.37535H4.715C4.505 8.37535 4.34 8.21035 4.34 8.00035C4.34 7.79535 4.505 7.62535 4.715 7.62535H7.215C7.42 7.62535 7.59 7.79535 7.59 8.00035C7.59 8.21035 7.42 8.37535 7.215 8.37535Z" fill="currentColor"/>
</svg>
