<svg width="12" height="12" viewBox="0 0 12 12" fill="none" xmlns="http://www.w3.org/2000/svg">
<path d="M7.7893 9.8493C6.7343 9.9243 6.7343 11.4543 7.7893 11.5293H10.2943C10.5993 11.5293 10.8893 11.4193 11.1143 11.2143C11.8543 10.5693 11.4593 9.2693 10.4843 9.1493C10.1343 7.0393 7.0793 7.8393 7.8043 9.8493" fill="currentColor"/>
<path d="M7.7893 9.8493C6.7343 9.9243 6.7343 11.4543 7.7893 11.5293H10.2943C10.5993 11.5293 10.8893 11.4193 11.1143 11.2143C11.8543 10.5693 11.4593 9.2693 10.4843 9.1493C10.1343 7.0393 7.0793 7.8393 7.8043 9.8493" fill="currentColor"/>
<path d="M11 5.535V7.67C11 7.83 10.745 7.9 10.635 7.785C10.4 7.54 10.105 7.355 9.765 7.25C8.98 7.005 8.075 7.245 7.505 7.835C7.145 8.22 6.95 8.7 6.94 9.22C6.94 9.31 6.895 9.39 6.825 9.445C6.465 9.73 6.245 10.175 6.245 10.685V10.69C6.245 10.85 6.13 10.995 5.97 10.995H3.67C2.2 11 1 9.8 1 8.325V3.21C1 1.99 1.99 1 3.21 1H4.37C5.185 1 5.44 1.265 5.765 1.7L6.465 2.63C6.62 2.835 6.64 2.86 6.93 2.86H8.325C9.515 2.86 10.525 3.64 10.87 4.72C10.945 4.945 10.985 5.175 10.995 5.42C11 5.455 11 5.5 11 5.535Z" fill="currentColor"/>
</svg>
