<svg width="12" height="12" viewBox="0 0 12 12" fill="none" xmlns="http://www.w3.org/2000/svg">
<path d="M10.5291 5.9108L10.4491 5.8008C10.3091 5.6308 10.1441 5.4958 9.9541 5.3958C9.6991 5.2508 9.4091 5.1758 9.1091 5.1758H2.88412C2.58412 5.1758 2.29912 5.2508 2.03912 5.3958C1.84412 5.5008 1.66912 5.6458 1.52412 5.8258C1.23912 6.1908 1.10412 6.6408 1.14912 7.0908L1.33412 9.4258C1.39912 10.1308 1.48412 11.0008 3.06912 11.0008H8.9291C10.5141 11.0008 10.5941 10.1308 10.6641 9.4208L10.8491 7.0958C10.8941 6.6758 10.7841 6.2558 10.5291 5.9108ZM7.1941 8.6708H4.79912C4.60412 8.6708 4.44912 8.5108 4.44912 8.3208C4.44912 8.1308 4.60412 7.9708 4.79912 7.9708H7.1941C7.3891 7.9708 7.5441 8.1308 7.5441 8.3208C7.5441 8.5158 7.3891 8.6708 7.1941 8.6708Z" fill="currentColor"/>
<path d="M10.28 4.29821C10.2988 4.48964 10.0912 4.6178 9.90875 4.55674C9.65635 4.47224 9.3907 4.43 9.11445 4.43H2.88446C2.60603 4.43 2.33191 4.47506 2.07613 4.56097C1.89593 4.62149 1.68946 4.49753 1.68946 4.30745V3.33C1.68946 1.545 2.23446 1 4.01946 1H4.60946C5.32445 1 5.54945 1.23 5.83945 1.605L6.43945 2.405C6.56445 2.575 6.56945 2.585 6.78945 2.585H7.97945C9.5423 2.585 10.153 3.00362 10.28 4.29821Z" fill="currentColor"/>
</svg>
