<svg width="12" height="12" viewBox="0 0 12 12" fill="none" xmlns="http://www.w3.org/2000/svg">
<path d="M10.5084 3.99587C10.7074 4.27916 10.4703 4.625 10.1241 4.625H1.5C1.22386 4.625 1 4.40114 1 4.125V3.21C1 1.99 1.99 1 3.21 1H4.37C5.185 1 5.44 1.265 5.765 1.7L6.465 2.63C6.62 2.835 6.64 2.86 6.93 2.86H8.325C9.2273 2.86 10.0258 3.30854 10.5084 3.99587Z" fill="currentColor"/>
<path d="M10.4917 5.375C10.7671 5.375 10.9908 5.59785 10.9917 5.8733L11 8.32515C11 9.80015 9.8 11.0001 8.325 11.0001H3.675C2.2 11.0001 1 9.80015 1 8.32515V5.87515C1 5.599 1.22385 5.37515 1.49999 5.37515L10.4917 5.375Z" fill="currentColor"/>
</svg>
