<svg width="12" height="12" viewBox="0 0 12 12" fill="none" xmlns="http://www.w3.org/2000/svg">
<path d="M9.71725 2.01724C9.7834 2.1212 9.67005 2.2423 9.5499 2.215C9.3149 2.145 9.0549 2.11 8.7899 2.11H7.1398C7.06115 2.11 6.98715 2.07302 6.9399 2.01019L6.3649 1.245C6.2945 1.14522 6.36105 1 6.4832 1H7.8599C8.6404 1 9.32795 1.40537 9.71725 2.01724Z" fill="currentColor"/>
<path d="M10.07 3.27C9.855 3.115 9.61 3 9.345 2.935C9.165 2.885 8.98 2.86 8.79 2.86H6.93C6.64 2.86 6.62 2.835 6.465 2.63L5.765 1.7C5.44 1.265 5.185 1 4.37 1H3.21C1.99 1 1 1.99 1 3.21V8.79C1 10.01 1.99 11 3.21 11H8.79C10.01 11 11 10.01 11 8.79V5.07C11 4.325 10.635 3.67 10.07 3.27ZM7.195 8.17H4.8C4.605 8.17 4.455 8.015 4.455 7.82C4.455 7.63 4.605 7.47 4.8 7.47H7.195C7.39 7.47 7.545 7.63 7.545 7.82C7.545 8.015 7.39 8.17 7.195 8.17Z" fill="currentColor"/>
</svg>
