<svg width="12" height="12" viewBox="0 0 12 12" fill="none" xmlns="http://www.w3.org/2000/svg">
<path d="M10.5084 3.99587C10.7074 4.27916 10.4703 4.625 10.1241 4.625H1.5C1.22386 4.625 1 4.40114 1 4.125V3.21C1 1.99 1.99 1 3.21 1H4.37C5.185 1 5.44 1.265 5.765 1.7L6.465 2.63C6.62 2.835 6.64 2.86 6.93 2.86H8.325C9.2273 2.86 10.0258 3.30854 10.5084 3.99587Z" fill="currentColor"/>
<path d="M10.9917 5.8733C10.9908 5.59785 10.7671 5.375 10.4917 5.375L1.49999 5.37515C1.22385 5.37515 1 5.599 1 5.87515V8.32515C1 9.80015 2.2 11.0001 3.675 11.0001H8.325C9.8 11.0001 11 9.80015 11 8.32515L10.9917 5.8733ZM7.17 9.14015C7.095 9.21015 7 9.25015 6.905 9.25015C6.81 9.25015 6.71 9.21015 6.64 9.14015L6.02 8.52015L5.38 9.16015C5.31 9.23015 5.21 9.27015 5.115 9.27015C5.02 9.27015 4.925 9.23015 4.85 9.16015C4.705 9.01515 4.705 8.77515 4.85 8.63015L5.49 7.99015L4.87 7.37015C4.725 7.22515 4.725 6.98515 4.87 6.84015C5.02 6.69515 5.255 6.69515 5.4 6.84015L6.02 7.46015L6.62 6.86015C6.765 6.71515 7 6.71515 7.15 6.86015C7.295 7.01015 7.295 7.24515 7.15 7.39015L6.55 7.99015L7.17 8.61015C7.315 8.75515 7.315 8.99515 7.17 9.14015Z" fill="currentColor"/>
</svg>
