<svg width="12" height="12" viewBox="0 0 12 12" fill="none" xmlns="http://www.w3.org/2000/svg">
<path d="M10.5084 3.99587C10.7074 4.27916 10.4703 4.625 10.1241 4.625H1.5C1.22386 4.625 1 4.40114 1 4.125V3.21C1 1.99 1.99 1 3.21 1H4.37C5.185 1 5.44 1.265 5.765 1.7L6.465 2.63C6.62 2.835 6.64 2.86 6.93 2.86H8.325C9.2273 2.86 10.0258 3.30854 10.5084 3.99587Z" fill="currentColor"/>
<path d="M10.9917 5.8733C10.9908 5.59785 10.7671 5.375 10.4917 5.375H1.5C1.22386 5.375 1 5.59885 1 5.875V8.325C1 9.8 2.2 11 3.675 11H8.325C9.8 11 11 9.8 11 8.325L10.9917 5.8733ZM7.27 8.485L6.195 9.425C6.14 9.475 6.07 9.5 6 9.5C5.93 9.5 5.86 9.475 5.805 9.425L4.73 8.485C4.39 8.185 4.345 7.675 4.63 7.32C4.915 6.96 5.43 6.895 5.8 7.17L6 7.32L6.2 7.17C6.57 6.895 7.085 6.96 7.37 7.32C7.655 7.675 7.61 8.185 7.27 8.485Z" fill="currentColor"/>
</svg>
