<svg width="12" height="12" viewBox="0 0 12 12" fill="none" xmlns="http://www.w3.org/2000/svg">
<path d="M10.56 3.49L8.51 1.44C8.27 1.2 7.79 1 7.45 1H4.55C4.21 1 3.73 1.2 3.49 1.44L1.44 3.49C1.2 3.73 1 4.21 1 4.55V7.45C1 7.79 1.2 8.27 1.44 8.51L3.49 10.56C3.73 10.8 4.21 11 4.55 11H7.45C7.79 11 8.27 10.8 8.51 10.56L10.56 8.51C10.8 8.27 11 7.79 11 7.45V4.55C11 4.21 10.8 3.73 10.56 3.49ZM8.015 7.485C8.16 7.63 8.16 7.87 8.015 8.015C7.94 8.09 7.845 8.125 7.75 8.125C7.655 8.125 7.56 8.09 7.485 8.015L6 6.53L4.515 8.015C4.44 8.09 4.345 8.125 4.25 8.125C4.155 8.125 4.06 8.09 3.985 8.015C3.84 7.87 3.84 7.63 3.985 7.485L5.47 6L3.985 4.515C3.84 4.37 3.84 4.13 3.985 3.985C4.13 3.84 4.37 3.84 4.515 3.985L6 5.47L7.485 3.985C7.63 3.84 7.87 3.84 8.015 3.985C8.16 4.13 8.16 4.37 8.015 4.515L6.53 6L8.015 7.485Z" fill="currentColor"/>
</svg>
