<svg width="12" height="12" viewBox="0 0 12 12" fill="none" xmlns="http://www.w3.org/2000/svg">
<path d="M8.51 1.44C8.27 1.2 7.79 1 7.45 1H4.55C4.21 1 3.73 1.2 3.49 1.44L1.44 3.49C1.2 3.73 1 4.21 1 4.55V7.45C1 7.79 1.2 8.27 1.44 8.51L2.205 9.275L9.275 2.205L8.51 1.44Z" fill="currentColor"/>
<path d="M10.5604 3.48938L9.80535 2.73438L2.73535 9.8044L3.49035 10.5594C3.73035 10.7994 4.21035 10.9994 4.55035 10.9994H7.45035C7.79035 10.9994 8.27035 10.7994 8.51035 10.5594L10.5604 8.5094C10.8004 8.2694 11.0003 7.7894 11.0003 7.4494V4.54938C11.0003 4.20937 10.8004 3.72938 10.5604 3.48938Z" fill="currentColor"/>
<path d="M1.24547 10.2354C1.10047 10.3804 1.10047 10.6204 1.24547 10.7654C1.32047 10.8404 1.41547 10.8754 1.51047 10.8754C1.60547 10.8754 1.70047 10.8404 1.77547 10.7654L2.73547 9.8054L2.20547 9.2754L1.24547 10.2354Z" fill="currentColor"/>
<path d="M10.7654 1.77547C10.9104 1.63047 10.9104 1.39047 10.7654 1.24547C10.6204 1.10047 10.3804 1.10047 10.2354 1.24547L9.2754 2.20547L9.8054 2.73547L10.7654 1.77547Z" fill="currentColor"/>
</svg>
