<svg width="12" height="12" viewBox="0 0 12 12" fill="none" xmlns="http://www.w3.org/2000/svg">
<g clip-path="url(#clip0_1652_1424)">
<path d="M10.375 8.25V3.75C10.97 3.5 11.375 2.915 11.375 2.25C11.375 1.355 10.645 0.625 9.75 0.625C9.09 0.625 8.5 1.03 8.25 1.625H3.75C3.5 1.03 2.915 0.625 2.25 0.625C1.355 0.625 0.625 1.355 0.625 2.25C0.625 2.91 1.03 3.5 1.625 3.75V8.25C1.03 8.5 0.625 9.085 0.625 9.75C0.625 10.645 1.355 11.375 2.25 11.375C2.91 11.375 3.5 10.97 3.75 10.375H8.25C8.5 10.97 9.085 11.375 9.75 11.375C10.645 11.375 11.375 10.645 11.375 9.75C11.375 9.09 10.97 8.5 10.375 8.25ZM9.58 8.135C9.525 8.14 9.475 8.15 9.42 8.16C9.285 8.185 9.155 8.23 9.03 8.295C9 8.31 8.97 8.325 8.94 8.345C8.69 8.485 8.485 8.69 8.345 8.94C8.325 8.97 8.31 9 8.295 9.03C8.23 9.155 8.185 9.285 8.16 9.42C8.15 9.475 8.14 9.525 8.135 9.58C8.13 9.595 8.13 9.61 8.13 9.625H3.87C3.86 9.5 3.835 9.38 3.8 9.265C3.79 9.225 3.775 9.18 3.755 9.14C3.74 9.105 3.725 9.07 3.705 9.03C3.69 9 3.675 8.97 3.655 8.94C3.515 8.69 3.31 8.485 3.06 8.345C3.03 8.325 3 8.31 2.97 8.295C2.93 8.275 2.895 8.26 2.86 8.245C2.82 8.225 2.775 8.21 2.735 8.2C2.62 8.165 2.5 8.14 2.375 8.13V3.87C2.505 3.86 2.625 3.835 2.745 3.795C2.79 3.785 2.84 3.765 2.885 3.745C2.91 3.735 2.94 3.72 2.97 3.705C3 3.69 3.03 3.675 3.06 3.655C3.31 3.515 3.515 3.31 3.655 3.06C3.675 3.03 3.69 3 3.705 2.97C3.72 2.94 3.735 2.91 3.745 2.885C3.765 2.84 3.785 2.79 3.795 2.745C3.835 2.625 3.86 2.505 3.87 2.375H8.13C8.14 2.51 8.165 2.635 8.21 2.76C8.22 2.8 8.235 2.845 8.255 2.885C8.265 2.915 8.28 2.94 8.295 2.97C8.31 3 8.325 3.03 8.345 3.06C8.485 3.31 8.69 3.515 8.94 3.655C8.97 3.675 9 3.69 9.03 3.705C9.06 3.72 9.085 3.735 9.115 3.745C9.155 3.765 9.2 3.78 9.24 3.79C9.365 3.835 9.49 3.86 9.625 3.87V8.13C9.61 8.13 9.595 8.13 9.58 8.135Z" fill="currentColor"/>
</g>
<defs>
<clipPath id="clip0_1652_1424">
<rect width="12" height="12" fill="currentColor"/>
</clipPath>
</defs>
</svg>
