<svg width="12" height="12" viewBox="0 0 12 12" fill="none" xmlns="http://www.w3.org/2000/svg">
<path d="M10.55 3.935C10.84 3.615 11 3.2 11 2.765C11 1.79 10.21 1 9.235 1C8.8 1 8.39 1.16 8.07 1.45C7.425 1.15 6.73 1 6 1C5.285 1 4.575 1.155 3.935 1.45C3.615 1.16 3.2 1 2.765 1C1.79 1 1 1.79 1 2.765C1 3.2 1.16 3.615 1.45 3.935C1.155 4.575 1 5.285 1 6C1 6.73 1.15 7.425 1.45 8.07C1.16 8.39 1 8.8 1 9.235C1 10.21 1.79 11 2.765 11C3.2 11 3.615 10.84 3.935 10.55C4.575 10.845 5.285 11 6 11C6.73 11 7.425 10.85 8.07 10.55C8.39 10.84 8.8 11 9.235 11C10.21 11 11 10.21 11 9.235C11 8.8 10.84 8.39 10.55 8.07C10.85 7.425 11 6.73 11 6C11 5.285 10.845 4.575 10.55 3.935ZM9.84 7.585C9.785 7.565 9.73 7.545 9.675 7.53C9.59 7.51 9.5 7.495 9.415 7.485C9.355 7.48 9.295 7.475 9.235 7.475C8.265 7.475 7.475 8.265 7.475 9.235C7.475 9.295 7.48 9.355 7.485 9.415C7.495 9.5 7.51 9.59 7.53 9.675C7.545 9.73 7.565 9.785 7.585 9.84C7.585 9.855 7.59 9.87 7.6 9.885C7.605 9.9 7.61 9.915 7.615 9.93C6.61 10.35 5.41 10.355 4.385 9.93C4.39 9.915 4.395 9.9 4.4 9.885C4.41 9.87 4.415 9.855 4.415 9.84C4.435 9.785 4.455 9.73 4.47 9.675C4.49 9.59 4.505 9.5 4.515 9.415C4.52 9.355 4.525 9.295 4.525 9.235C4.525 8.265 3.735 7.475 2.765 7.475C2.705 7.475 2.645 7.48 2.585 7.485C2.5 7.495 2.41 7.51 2.325 7.53C2.27 7.545 2.215 7.565 2.16 7.585C2.145 7.585 2.13 7.59 2.115 7.6C2.1 7.605 2.085 7.61 2.07 7.615C1.855 7.11 1.75 6.565 1.75 6C1.75 5.445 1.86 4.89 2.07 4.385C2.075 4.385 2.085 4.39 2.09 4.39C2.03 4.365 1.965 4.335 1.91 4.305C1.83 4.26 1.75 4.21 1.675 4.15C1.825 4.265 1.985 4.355 2.16 4.415C2.22 4.44 2.285 4.46 2.345 4.475C2.385 4.485 2.42 4.49 2.455 4.495C2.5 4.505 2.54 4.51 2.585 4.515C2.645 4.52 2.705 4.525 2.765 4.525C3.735 4.525 4.525 3.735 4.525 2.765C4.525 2.705 4.52 2.645 4.515 2.585C4.51 2.54 4.505 2.5 4.495 2.455C4.49 2.42 4.485 2.385 4.475 2.345C4.46 2.285 4.44 2.22 4.415 2.16C4.355 1.985 4.265 1.825 4.15 1.675C4.21 1.75 4.26 1.83 4.305 1.91C4.335 1.965 4.365 2.03 4.39 2.09C4.39 2.085 4.385 2.075 4.385 2.07C5.405 1.645 6.61 1.65 7.615 2.07C7.61 2.085 7.605 2.1 7.6 2.115C7.59 2.13 7.585 2.145 7.585 2.16C7.565 2.215 7.545 2.27 7.53 2.325C7.51 2.41 7.495 2.5 7.485 2.585C7.48 2.645 7.475 2.705 7.475 2.765C7.475 3.735 8.265 4.525 9.235 4.525C9.295 4.525 9.355 4.52 9.415 4.515C9.5 4.505 9.59 4.49 9.675 4.47C9.73 4.455 9.785 4.435 9.84 4.415C9.855 4.415 9.87 4.41 9.885 4.4C9.9 4.395 9.915 4.39 9.93 4.385C10.14 4.89 10.25 5.445 10.25 6C10.25 6.565 10.145 7.11 9.93 7.615C9.915 7.61 9.9 7.605 9.885 7.6C9.87 7.59 9.855 7.585 9.84 7.585Z" fill="currentColor"/>
</svg>
