<svg width="12" height="12" viewBox="0 0 12 12" fill="none" xmlns="http://www.w3.org/2000/svg">
<path d="M10.6252 2.885V4.5C10.6252 5.5573 10.2714 5.9495 9.3156 6.0034C9.17775 6.01115 9.06525 5.89805 9.06525 5.76V5.19C9.06525 3.63 8.37025 2.935 6.81025 2.935H6.24025C6.10215 2.935 5.98905 2.82247 5.99685 2.68462C6.0507 1.72886 6.44295 1.375 7.50025 1.375H9.11525C10.2603 1.375 10.6252 1.74 10.6252 2.885Z" fill="currentColor"/>
<path d="M8.31455 5.19055V6.81055C8.31455 7.95055 7.94955 8.31555 6.80955 8.31555H5.18955C4.04957 8.31555 3.68457 7.95055 3.68457 6.81055V5.19055C3.68457 4.05054 4.04957 3.68554 5.18955 3.68554H6.80955C7.94955 3.68554 8.31455 4.05054 8.31455 5.19055Z" fill="currentColor"/>
<path d="M5.76 9.06525C5.89805 9.06525 6.01115 9.17775 6.0034 9.3156C5.9495 10.2714 5.5573 10.6252 4.5 10.6252H2.885C1.74 10.6252 1.375 10.2603 1.375 9.11525V7.50025C1.375 6.44295 1.72886 6.0507 2.68462 5.99685C2.82247 5.98905 2.935 6.10215 2.935 6.24025V6.81025C2.935 8.37025 3.63 9.06525 5.19 9.06525H5.76Z" fill="currentColor"/>
</svg>
