<svg width="12" height="12" viewBox="0 0 12 12" fill="none" xmlns="http://www.w3.org/2000/svg">
<path d="M7.2157 8.46015H6.0707C5.8657 8.46015 5.6957 8.29015 5.6957 8.08515C5.6957 7.88015 5.8657 7.71015 6.0707 7.71015H7.2157C7.4307 7.71015 7.6057 7.53515 7.6057 7.32015C7.6057 7.10515 7.4307 6.93015 7.2157 6.93015H6.0707C5.9507 6.93015 5.8357 6.87015 5.7657 6.77515C5.6957 6.68015 5.6757 6.55015 5.7157 6.43515L6.0957 5.29015C6.1457 5.13515 6.2907 5.03515 6.4507 5.03515H7.9807C8.1857 5.03515 8.3557 5.20515 8.3557 5.41015C8.3557 5.61515 8.1857 5.78515 7.9807 5.78515H6.7207L6.5907 6.18015H7.2157C7.8457 6.18015 8.3557 6.69015 8.3557 7.32015C8.3557 7.95015 7.8407 8.46015 7.2157 8.46015Z" fill="currentColor"/>
<path d="M4.77021 8.4604C4.56521 8.4604 4.39521 8.2904 4.39521 8.0854V6.3904L4.30021 6.5004C4.16021 6.6554 3.92521 6.6654 3.77021 6.5304C3.62021 6.3904 3.60521 6.1554 3.74521 6.0004L4.49521 5.1654C4.60021 5.0504 4.76521 5.0104 4.91021 5.0654C5.0552 5.1204 5.1502 5.2604 5.1502 5.4154V8.0904C5.1452 8.2954 4.98021 8.4604 4.77021 8.4604Z" fill="currentColor"/>
<path d="M9.8458 3.6744C9.7208 3.5094 9.4858 3.4744 9.3208 3.5994C9.1558 3.7244 9.1208 3.9594 9.2458 4.1244C9.7858 4.8444 10.0708 5.6844 10.0708 6.5544C10.0708 8.7994 8.2458 10.6244 6.0008 10.6244C3.75578 10.6244 1.93078 8.7994 1.93078 6.5544C1.93078 4.3094 3.75578 2.4894 6.0008 2.4894C6.2908 2.4894 6.5858 2.5244 6.9058 2.5994C6.9208 2.6044 6.9358 2.5994 6.9508 2.5994C6.9658 2.5994 6.9758 2.6094 6.9858 2.6094C7.0008 2.6094 7.0108 2.6044 7.0258 2.6044C7.0408 2.6044 7.0558 2.5994 7.0758 2.5944C7.1058 2.5894 7.1308 2.5744 7.1558 2.5644C7.1708 2.5544 7.1858 2.5494 7.2008 2.5394C7.2058 2.5344 7.2158 2.5344 7.2208 2.5294C7.2358 2.5194 7.2408 2.5044 7.2508 2.4944C7.2708 2.4744 7.2858 2.4594 7.3008 2.4344C7.3158 2.4144 7.3208 2.3894 7.3308 2.3644C7.3358 2.3494 7.3458 2.3344 7.3508 2.3194C7.3508 2.3094 7.3508 2.3044 7.3508 2.2944C7.3558 2.2694 7.3558 2.2444 7.3508 2.2194C7.3508 2.1944 7.3508 2.1744 7.3458 2.1494C7.3408 2.1294 7.3308 2.1094 7.3208 2.0844C7.3108 2.0594 7.3008 2.0344 7.2858 2.0144C7.2858 2.0094 7.2858 2.0044 7.2808 1.9994L6.2908 0.764402C6.1608 0.604402 5.9258 0.574402 5.7658 0.704402C5.6058 0.834402 5.5808 1.0694 5.7058 1.2294L6.1158 1.7394C6.0758 1.7394 6.0358 1.7344 5.9958 1.7344C3.34078 1.7344 1.17578 3.8944 1.17578 6.5544C1.17578 9.2144 3.33578 11.3744 5.9958 11.3744C8.6558 11.3744 10.8158 9.2144 10.8158 6.5544C10.8208 5.5194 10.4808 4.5244 9.8458 3.6744Z" fill="currentColor"/>
</svg>
