<svg width="12" height="12" viewBox="0 0 12 12" fill="none" xmlns="http://www.w3.org/2000/svg">
<path d="M8.095 1H3.905C2.085 1 1 2.085 1 3.905V8.09C1 9.915 2.085 11 3.905 11H8.09C9.91 11 10.995 9.915 10.995 8.095V3.905C11 2.085 9.915 1 8.095 1ZM8.765 4.86L7.98 5.645C7.905 5.72 7.81 5.755 7.715 5.755C7.62 5.755 7.525 5.72 7.45 5.645C7.305 5.5 7.305 5.26 7.45 5.115L7.58 4.985H5.04C4.4 4.985 3.875 5.505 3.875 6.15C3.875 6.795 4.395 7.315 5.04 7.315H7.5C7.705 7.315 7.875 7.485 7.875 7.69C7.875 7.895 7.705 8.065 7.5 8.065H5.04C3.985 8.065 3.125 7.205 3.125 6.15C3.125 5.095 3.985 4.235 5.04 4.235H7.615L7.45 4.075C7.305 3.93 7.305 3.69 7.45 3.545C7.595 3.4 7.835 3.4 7.98 3.545L8.765 4.33C8.91 4.48 8.91 4.715 8.765 4.86Z" fill="currentColor"/>
</svg>
