<svg width="12" height="12" viewBox="0 0 12 12" fill="none" xmlns="http://www.w3.org/2000/svg">
<path d="M9.73955 3.54526C9.60955 3.38526 9.37455 3.36026 9.21455 3.49026C9.05455 3.62026 9.02955 3.85526 9.15955 4.01526C9.72455 4.71526 10.0395 5.54525 10.0695 6.41525C10.1495 8.65525 8.38955 10.5453 6.14455 10.6203C3.89953 10.7003 2.01453 8.94025 1.93453 6.70025C1.85453 4.46026 3.61453 2.57026 5.85955 2.49526C6.14455 2.48526 6.44455 2.51026 6.76955 2.57526C6.78955 2.58026 6.80955 2.57526 6.82955 2.57526C6.87955 2.60026 6.93955 2.61526 6.99455 2.61526C7.07955 2.61526 7.15955 2.59026 7.22955 2.53026C7.38955 2.40026 7.41455 2.16526 7.28955 2.00526L6.29955 0.770261C6.16955 0.610261 5.93455 0.580261 5.77455 0.710261C5.61455 0.840261 5.58955 1.07526 5.71455 1.23526L6.12955 1.75026C6.03455 1.74526 5.93455 1.74026 5.83955 1.74526C3.18453 1.83526 1.09953 4.07526 1.19453 6.73025C1.28953 9.38525 3.52453 11.4703 6.17955 11.3753C8.83455 11.2803 10.9195 9.04525 10.8245 6.39025C10.7795 5.35525 10.4095 4.37026 9.73955 3.54526Z" fill="currentColor"/>
<path d="M6.1903 8.46015H5.0453C4.84031 8.46015 4.67031 8.29015 4.67031 8.08515C4.67031 7.88015 4.84031 7.71015 5.0453 7.71015H6.1903C6.4053 7.71015 6.5803 7.53515 6.5803 7.32015C6.5803 7.10515 6.4053 6.93015 6.1903 6.93015H5.0453C4.92531 6.93015 4.81031 6.87015 4.74031 6.77515C4.67031 6.68015 4.65031 6.55015 4.69031 6.43515L5.0703 5.29015C5.1203 5.13515 5.2653 5.03515 5.4253 5.03515H6.9553C7.1603 5.03515 7.3303 5.20515 7.3303 5.41015C7.3303 5.61515 7.1603 5.78515 6.9553 5.78515H5.6953L5.5653 6.18015H6.1903C6.8203 6.18015 7.3303 6.69015 7.3303 7.32015C7.3303 7.95015 6.8203 8.46015 6.1903 8.46015Z" fill="currentColor"/>
</svg>
