<svg width="12" height="12" viewBox="0 0 12 12" fill="none" xmlns="http://www.w3.org/2000/svg">
<path d="M9.8458 3.67425C9.7208 3.50925 9.4858 3.47425 9.3208 3.59925C9.1558 3.72425 9.1208 3.95925 9.2458 4.12425C9.7858 4.84425 10.0708 5.68425 10.0708 6.55425C10.0708 8.79925 8.2458 10.6243 6.0008 10.6243C3.75578 10.6243 1.93078 8.79925 1.93078 6.55425C1.93078 4.30925 3.75578 2.48925 6.0008 2.48925C6.2908 2.48925 6.5858 2.52425 6.9058 2.59925C6.9208 2.60425 6.9358 2.59925 6.9558 2.59925C6.9658 2.59925 6.9808 2.60925 6.9908 2.60925C7.0058 2.60925 7.0158 2.60425 7.0308 2.60425C7.0508 2.60425 7.0658 2.59925 7.0808 2.59425C7.1058 2.58925 7.1308 2.57925 7.1558 2.56425C7.1708 2.55425 7.1908 2.54925 7.2058 2.53925C7.2108 2.53425 7.2208 2.53425 7.2258 2.52925C7.2408 2.51925 7.2458 2.50425 7.2558 2.49425C7.2758 2.47425 7.2908 2.45925 7.3058 2.43425C7.3208 2.41425 7.3258 2.38925 7.3358 2.36925C7.3408 2.35425 7.3508 2.33925 7.3558 2.32425C7.3558 2.31425 7.3558 2.30925 7.3558 2.29925C7.3608 2.27425 7.3608 2.24925 7.3558 2.22425C7.3558 2.19925 7.3558 2.17925 7.3508 2.15425C7.3458 2.13425 7.3358 2.11425 7.3258 2.08925C7.3158 2.06425 7.3058 2.03925 7.2908 2.01925C7.2858 2.00925 7.2858 2.00425 7.2808 1.99925L6.2908 0.764245C6.1608 0.604245 5.9258 0.579245 5.7658 0.704245C5.6058 0.834245 5.5808 1.06925 5.7058 1.22925L6.1158 1.73925C6.0758 1.73925 6.0358 1.73425 5.9958 1.73425C3.34078 1.73425 1.17578 3.89425 1.17578 6.55425C1.17578 9.21425 3.33578 11.3743 5.9958 11.3743C8.6558 11.3743 10.8158 9.21425 10.8158 6.55425C10.8208 5.51925 10.4808 4.52425 9.8458 3.67425Z" fill="currentColor"/>
<path d="M4.77075 8.3354C4.56575 8.3354 4.39575 8.1654 4.39575 7.9604V6.2654L4.30075 6.3754C4.16075 6.5304 3.92575 6.5404 3.77075 6.4054C3.61575 6.2654 3.60575 6.0304 3.74075 5.8754L4.49075 5.0404C4.59575 4.92541 4.76075 4.88541 4.90575 4.94041C5.05075 4.99541 5.14575 5.1354 5.14575 5.2904V7.9654C5.14575 8.1704 4.98075 8.3354 4.77075 8.3354Z" fill="currentColor"/>
<path d="M7 8.33515C6.24 8.33515 5.625 7.72015 5.625 6.96015V6.28515C5.625 5.52515 6.24 4.91016 7 4.91016C7.76 4.91016 8.375 5.52515 8.375 6.28515V6.96015C8.375 7.72015 7.76 8.33515 7 8.33515ZM7 5.66515C6.655 5.66515 6.375 5.94515 6.375 6.29015V6.96515C6.375 7.31015 6.655 7.59015 7 7.59015C7.345 7.59015 7.625 7.31015 7.625 6.96515V6.29015C7.625 5.94515 7.345 5.66515 7 5.66515Z" fill="currentColor"/>
</svg>
