<svg width="12" height="12" viewBox="0 0 12 12" fill="none" xmlns="http://www.w3.org/2000/svg">
<path d="M4.01 2.31055H3.49C2.695 2.31055 2.375 2.61055 2.375 3.37055V9.31055H5.125V3.37055C5.12 2.61055 4.8 2.31055 4.01 2.31055Z" fill="currentColor"/>
<path d="M8.26 4.81055H7.74C6.945 4.81055 6.625 5.11555 6.625 5.87055V9.31055H9.375V5.87055C9.375 5.11555 9.05 4.81055 8.26 4.81055Z" fill="currentColor"/>
<path d="M1.375 8.93945H10.625C10.83 8.93945 11 9.10945 11 9.31445C11 9.51945 10.83 9.68945 10.625 9.68945H1.375C1.17 9.68945 1 9.51945 1 9.30945C1 9.09945 1.17 8.93945 1.375 8.93945Z" fill="currentColor"/>
</svg>
