<svg width="12" height="12" viewBox="0 0 12 12" fill="none" xmlns="http://www.w3.org/2000/svg">
<path d="M5.5 9.95V2.05C5.5 1.3 5.18 1 4.385 1H2.365C1.57 1 1.25 1.3 1.25 2.05V9.95C1.25 10.7 1.57 11 2.365 11H4.385C5.18 11 5.5 10.7 5.5 9.95Z" fill="currentColor"/>
<path d="M10.75 9.82V7.68C10.75 7.03 10.25 6.5 9.635 6.5H7.615C7 6.5 6.5 7.03 6.5 7.68V9.82C6.5 10.47 7 11 7.615 11H9.635C10.25 11 10.75 10.47 10.75 9.82Z" fill="currentColor"/>
<path d="M10.75 4.32V2.18C10.75 1.53 10.25 1 9.635 1H7.615C7 1 6.5 1.53 6.5 2.18V4.32C6.5 4.97 7 5.5 7.615 5.5H9.635C10.25 5.5 10.75 4.97 10.75 4.32Z" fill="currentColor"/>
</svg>
