<svg width="12" height="12" viewBox="0 0 12 12" fill="none" xmlns="http://www.w3.org/2000/svg">
<path d="M10.2049 3.4807V4.3957C10.2049 4.7157 10.0549 5.0157 9.7949 5.2007L4.29492 9.2307C3.93992 9.4907 3.45492 9.4907 3.10492 9.2257L2.38492 8.6857C2.05992 8.4407 1.79492 7.9107 1.79492 7.5057V3.4807C1.79492 2.9207 2.22492 2.3007 2.74992 2.1057L5.4849 1.0807C5.7699 0.975703 6.2299 0.975703 6.5149 1.0807L9.2499 2.1057C9.7749 2.3007 10.2049 2.9207 10.2049 3.4807Z" fill="currentColor"/>
<path d="M9.4108 6.1707C9.7408 5.9307 10.2058 6.1657 10.2058 6.5757V7.5157C10.2058 7.9207 9.9408 8.4457 9.6158 8.6907L6.8808 10.7357C6.6408 10.9107 6.3208 11.0007 6.0008 11.0007C5.6808 11.0007 5.3608 10.9107 5.1208 10.7307L4.70579 10.4207C4.43579 10.2207 4.43579 9.8157 4.71079 9.6157L9.4108 6.1707Z" fill="currentColor"/>
</svg>
