<svg width="12" height="12" viewBox="0 0 12 12" fill="none" xmlns="http://www.w3.org/2000/svg">
<path d="M9.5 4C10.3285 4 11 3.32842 11 2.5C11 1.67157 10.3285 1 9.5 1C8.67155 1 8 1.67157 8 2.5C8 3.32842 8.67155 4 9.5 4Z" fill="currentColor"/>
<path d="M8.8946 4.66963C8.1396 4.46963 7.5296 3.85963 7.3296 3.10463C7.1996 2.62463 7.2296 2.16463 7.3746 1.75463C7.4746 1.47463 7.3046 1.16463 7.0146 1.10463C6.2796 0.949635 5.4846 0.954635 4.65462 1.17963C2.76462 1.70963 1.31962 3.34463 1.04962 5.28965C0.589617 8.59965 3.39462 11.4046 6.7046 10.9496C8.6546 10.6796 10.2846 9.23465 10.8096 7.33965C11.0396 6.51465 11.0446 5.71965 10.8896 4.97963C10.8296 4.68963 10.5196 4.52463 10.2396 4.61963C9.8346 4.76463 9.3746 4.79463 8.8946 4.66963Z" fill="currentColor"/>
</svg>
