<svg width="12" height="12" viewBox="0 0 12 12" fill="none" xmlns="http://www.w3.org/2000/svg">
<path d="M10.485 4H9.015C8.38 4 8 3.62 8 2.985V1.515C8 0.88 8.38 0.5 9.015 0.5H10.485C11.12 0.5 11.5 0.88 11.5 1.515V2.985C11.5 3.62 11.12 4 10.485 4ZM10.595 2.345C10.535 2.285 10.455 2.255 10.375 2.255C10.295 2.255 10.215 2.285 10.155 2.345L10.065 2.435V1.315C10.065 1.14 9.925 1 9.75 1C9.575 1 9.435 1.14 9.435 1.315V2.435L9.345 2.345C9.225 2.225 9.025 2.225 8.905 2.345C8.785 2.465 8.785 2.665 8.905 2.785L9.53 3.41C9.555 3.435 9.59 3.455 9.625 3.47C9.635 3.475 9.645 3.475 9.655 3.48C9.68 3.49 9.705 3.495 9.735 3.495C9.745 3.495 9.755 3.495 9.765 3.495C9.8 3.495 9.83 3.49 9.865 3.475C9.87 3.475 9.87 3.475 9.875 3.475C9.91 3.46 9.94 3.44 9.965 3.415C9.97 3.41 9.97 3.41 9.975 3.41L10.6 2.785C10.72 2.665 10.72 2.465 10.595 2.345Z" fill="currentColor"/>
<path d="M4.50055 5.19055C5.15775 5.19055 5.69055 4.65776 5.69055 4.00055C5.69055 3.34333 5.15775 2.81054 4.50055 2.81054C3.84333 2.81054 3.31054 3.34333 3.31054 4.00055C3.31054 4.65776 3.84333 5.19055 4.50055 5.19055Z" fill="currentColor"/>
<path d="M10.485 4H10.25V6.305L10.185 6.25C9.795 5.915 9.165 5.915 8.775 6.25L6.695 8.035C6.305 8.37 5.675 8.37 5.285 8.035L5.115 7.895C4.76 7.585 4.195 7.555 3.795 7.825L1.925 9.08C1.815 8.8 1.75 8.475 1.75 8.095V3.905C1.75 2.495 2.495 1.75 3.905 1.75H8V1.515C8 1.315 8.035 1.145 8.115 1H3.905C2.085 1 1 2.085 1 3.905V8.095C1 8.64 1.095 9.115 1.28 9.515C1.71 10.465 2.63 11 3.905 11H8.095C9.915 11 11 9.915 11 8.095V3.885C10.855 3.965 10.685 4 10.485 4Z" fill="currentColor"/>
</svg>
