<svg width="12" height="12" viewBox="0 0 12 12" fill="none" xmlns="http://www.w3.org/2000/svg">
<path d="M10.8844 1.11446C10.7345 0.964455 10.4894 0.964455 10.3394 1.11446L1.11446 10.3444C0.964455 10.4944 0.964455 10.7395 1.11446 10.8895C1.18946 10.9594 1.28446 10.9994 1.38446 10.9994C1.48446 10.9994 1.57946 10.9594 1.65446 10.8844L10.8844 1.65446C11.0394 1.50445 11.0394 1.26446 10.8844 1.11446Z" fill="currentColor"/>
<path d="M4.50055 5.19055C5.15775 5.19055 5.69055 4.65776 5.69055 4.00055C5.69055 3.34333 5.15775 2.81054 4.50055 2.81054C3.84333 2.81054 3.31054 3.34333 3.31054 4.00055C3.31054 4.65776 3.84333 5.19055 4.50055 5.19055Z" fill="currentColor"/>
<path d="M10.8042 2.69531L10.1942 3.30532C10.2342 3.49031 10.2492 3.69031 10.2492 3.90531V6.3053L10.1842 6.2503C9.7942 5.9153 9.1642 5.9153 8.7742 6.2503L6.6942 8.0353C6.3392 8.3403 5.7792 8.3703 5.3892 8.1103L2.69922 10.8003C2.71922 10.8103 2.73922 10.8153 2.75922 10.8203C2.89422 10.8653 3.02922 10.9003 3.17422 10.9303C3.22422 10.9403 3.27422 10.9503 3.32922 10.9553C3.51422 10.9803 3.70422 11.0003 3.90422 11.0003H8.0942C9.9142 11.0003 10.9992 9.9153 10.9992 8.0953V3.90531C10.9992 3.45531 10.9342 3.05031 10.8042 2.69531Z" fill="currentColor"/>
<path d="M10.8053 2.69531L10.1953 3.30532C10.2353 3.49031 10.2503 3.69031 10.2503 3.90531V6.3053L10.1853 6.2503C9.7953 5.9153 9.1653 5.9153 8.7753 6.2503L6.6953 8.0353C6.3403 8.3403 5.7803 8.3703 5.3903 8.1103L2.69531 10.8053C3.05031 10.9353 3.45531 11.0003 3.90531 11.0003H8.0953C9.9153 11.0003 11.0003 9.9153 11.0003 8.0953V3.90531C11.0003 3.45531 10.9353 3.05031 10.8053 2.69531Z" fill="currentColor"/>
<path d="M10.23 1.77L9.7 2.3C9.34 1.935 8.8 1.75 8.095 1.75H3.905C2.495 1.75 1.75 2.495 1.75 3.905V8.095C1.75 8.475 1.815 8.8 1.925 9.08L3.795 7.825C3.965 7.71 4.16 7.65 4.355 7.645L1.77 10.23C1.57 10.03 1.405 9.79 1.28 9.515C1.095 9.115 1 8.64 1 8.095V3.905C1 2.085 2.085 1 3.905 1H8.095C9.005 1 9.73 1.27 10.23 1.77Z" fill="currentColor"/>
</svg>
