<svg width="12" height="12" viewBox="0 0 12 12" fill="none" xmlns="http://www.w3.org/2000/svg">
<path d="M10.485 0.5H9.015C8.38 0.5 8 0.88 8 1.515V2.985C8 3.62 8.38 4 9.015 4H10.485C11.12 4 11.5 3.62 11.5 2.985V1.515C11.5 0.88 11.12 0.5 10.485 0.5ZM10.595 2.155C10.535 2.215 10.455 2.245 10.375 2.245C10.295 2.245 10.215 2.215 10.155 2.155L10.065 2.065V3.185C10.065 3.36 9.925 3.5 9.75 3.5C9.575 3.5 9.435 3.36 9.435 3.185V2.065L9.345 2.155C9.225 2.275 9.025 2.275 8.905 2.155C8.785 2.035 8.785 1.835 8.905 1.715L9.53 1.09C9.555 1.065 9.59 1.045 9.625 1.03C9.635 1.025 9.645 1.025 9.655 1.02C9.68 1.01 9.705 1.005 9.735 1.005C9.745 1.005 9.755 1.005 9.765 1.005C9.8 1.005 9.83 1.01 9.865 1.025C9.87 1.025 9.87 1.025 9.875 1.025C9.91 1.04 9.94 1.06 9.965 1.085C9.97 1.09 9.97 1.09 9.975 1.09L10.6 1.715C10.72 1.835 10.72 2.035 10.595 2.155Z" fill="currentColor"/>
<path d="M4.50055 5.19055C5.15775 5.19055 5.69055 4.65776 5.69055 4.00055C5.69055 3.34333 5.15775 2.81054 4.50055 2.81054C3.84333 2.81054 3.31054 3.34333 3.31054 4.00055C3.31054 4.65776 3.84333 5.19055 4.50055 5.19055Z" fill="currentColor"/>
<path d="M10.485 4H10.25V6.305L10.185 6.25C9.795 5.915 9.165 5.915 8.775 6.25L6.695 8.035C6.305 8.37 5.675 8.37 5.285 8.035L5.115 7.895C4.76 7.585 4.195 7.555 3.795 7.825L1.925 9.08C1.815 8.8 1.75 8.475 1.75 8.095V3.905C1.75 2.495 2.495 1.75 3.905 1.75H8V1.515C8 1.315 8.035 1.145 8.115 1H3.905C2.085 1 1 2.085 1 3.905V8.095C1 8.64 1.095 9.115 1.28 9.515C1.71 10.465 2.63 11 3.905 11H8.095C9.915 11 11 9.915 11 8.095V3.885C10.855 3.965 10.685 4 10.485 4Z" fill="currentColor"/>
</svg>
