<svg width="12" height="12" viewBox="0 0 12 12" fill="none" xmlns="http://www.w3.org/2000/svg">
<path d="M10.485 0.5H9.015C8.38 0.5 8 0.88 8 1.515V2.985C8 3.62 8.38 4 9.015 4H10.485C11.12 4 11.5 3.62 11.5 2.985V1.515C11.5 0.88 11.12 0.5 10.485 0.5ZM9.505 3.285C9.49 3.3 9.455 3.32 9.43 3.32L8.91 3.395C8.895 3.4 8.875 3.4 8.86 3.4C8.785 3.4 8.72 3.375 8.675 3.325C8.615 3.265 8.59 3.18 8.605 3.09L8.68 2.57C8.685 2.545 8.7 2.51 8.715 2.495L9.565 1.645C9.58 1.68 9.595 1.72 9.61 1.76C9.63 1.8 9.65 1.835 9.67 1.87C9.685 1.9 9.705 1.93 9.725 1.95C9.745 1.98 9.765 2.01 9.78 2.025C9.79 2.04 9.795 2.045 9.8 2.05C9.845 2.105 9.895 2.155 9.94 2.19C9.95 2.2 9.96 2.21 9.965 2.21C9.99 2.23 10.02 2.255 10.04 2.27C10.07 2.29 10.095 2.31 10.125 2.325C10.16 2.345 10.2 2.365 10.24 2.385C10.28 2.405 10.32 2.42 10.355 2.43L9.505 3.285ZM10.7 2.09L10.54 2.25C10.53 2.265 10.515 2.27 10.5 2.27C10.495 2.27 10.49 2.27 10.485 2.27C10.125 2.165 9.84 1.88 9.735 1.52C9.73 1.5 9.735 1.48 9.75 1.465L9.915 1.3C10.185 1.03 10.44 1.035 10.705 1.3C10.84 1.435 10.905 1.565 10.905 1.695C10.9 1.825 10.835 1.955 10.7 2.09Z" fill="currentColor"/>
<path d="M4.50055 5.19055C5.15775 5.19055 5.69055 4.65776 5.69055 4.00055C5.69055 3.34333 5.15775 2.81054 4.50055 2.81054C3.84333 2.81054 3.31054 3.34333 3.31054 4.00055C3.31054 4.65776 3.84333 5.19055 4.50055 5.19055Z" fill="currentColor"/>
<path d="M10.485 4H10.25V6.305L10.185 6.25C9.795 5.915 9.165 5.915 8.775 6.25L6.695 8.035C6.305 8.37 5.675 8.37 5.285 8.035L5.115 7.895C4.76 7.585 4.195 7.555 3.795 7.825L1.925 9.08C1.815 8.8 1.75 8.475 1.75 8.095V3.905C1.75 2.495 2.495 1.75 3.905 1.75H8V1.515C8 1.315 8.035 1.145 8.115 1H3.905C2.085 1 1 2.085 1 3.905V8.095C1 8.64 1.095 9.115 1.28 9.515C1.71 10.465 2.63 11 3.905 11H8.095C9.915 11 11 9.915 11 8.095V3.885C10.855 3.965 10.685 4 10.485 4Z" fill="currentColor"/>
</svg>
