<svg width="12" height="12" viewBox="0 0 12 12" fill="none" xmlns="http://www.w3.org/2000/svg">
<path d="M10.485 0.5H9.015C8.38 0.5 8 0.88 8 1.515V2.985C8 3.62 8.38 4 9.015 4H10.485C11.12 4 11.5 3.62 11.5 2.985V1.515C11.5 0.88 11.12 0.5 10.485 0.5ZM10.815 1.725L9.63 3.11C9.585 3.165 9.515 3.2 9.445 3.2C9.44 3.2 9.44 3.2 9.435 3.2C9.365 3.2 9.3 3.175 9.25 3.125L8.7 2.585C8.6 2.485 8.6 2.32 8.7 2.22C8.8 2.12 8.965 2.115 9.065 2.22L9.415 2.565L10.415 1.395C10.51 1.285 10.67 1.275 10.78 1.365C10.895 1.455 10.905 1.62 10.815 1.725Z" fill="currentColor"/>
<path d="M4.50055 5.19055C5.15775 5.19055 5.69055 4.65776 5.69055 4.00055C5.69055 3.34333 5.15775 2.81054 4.50055 2.81054C3.84333 2.81054 3.31054 3.34333 3.31054 4.00055C3.31054 4.65776 3.84333 5.19055 4.50055 5.19055Z" fill="currentColor"/>
<path d="M10.485 4H10.25V6.305L10.185 6.25C9.795 5.915 9.165 5.915 8.775 6.25L6.695 8.035C6.305 8.37 5.675 8.37 5.285 8.035L5.115 7.895C4.76 7.585 4.195 7.555 3.795 7.825L1.925 9.08C1.815 8.8 1.75 8.475 1.75 8.095V3.905C1.75 2.495 2.495 1.75 3.905 1.75H8V1.515C8 1.315 8.035 1.145 8.115 1H3.905C2.085 1 1 2.085 1 3.905V8.095C1 8.64 1.095 9.115 1.28 9.515C1.71 10.465 2.63 11 3.905 11H8.095C9.915 11 11 9.915 11 8.095V3.885C10.855 3.965 10.685 4 10.485 4Z" fill="currentColor"/>
</svg>
