<svg width="12" height="12" viewBox="0 0 12 12" fill="none" xmlns="http://www.w3.org/2000/svg">
<path d="M4.50055 5.19055C5.15775 5.19055 5.69055 4.65776 5.69055 4.00055C5.69055 3.34333 5.15775 2.81054 4.50055 2.81054C3.84333 2.81054 3.31054 3.34333 3.31054 4.00055C3.31054 4.65776 3.84333 5.19055 4.50055 5.19055Z" fill="currentColor"/>
<path d="M10.485 4H10.25V6.305L10.185 6.25C9.795 5.915 9.165 5.915 8.775 6.25L6.695 8.035C6.305 8.37 5.675 8.37 5.285 8.035L5.115 7.895C4.76 7.585 4.195 7.555 3.795 7.825L1.925 9.08C1.815 8.8 1.75 8.475 1.75 8.095V3.905C1.75 2.495 2.495 1.75 3.905 1.75H8V1.515C8 1.315 8.035 1.145 8.115 1H3.905C2.085 1 1 2.085 1 3.905V8.095C1 8.64 1.095 9.115 1.28 9.515C1.71 10.465 2.63 11 3.905 11H8.095C9.915 11 11 9.915 11 8.095V3.885C10.855 3.965 10.685 4 10.485 4Z" fill="currentColor"/>
<path d="M10.485 0.5H9.015C8.58 0.5 8.26 0.68 8.115 1C8.035 1.145 8 1.315 8 1.515V1.75V2.985C8 3.62 8.38 4 9.015 4H10.25H10.485C10.685 4 10.855 3.965 11 3.885C11.32 3.74 11.5 3.42 11.5 2.985V1.515C11.5 0.88 11.12 0.5 10.485 0.5ZM10.15 3.105C9.99 3.2 9.835 3.25 9.75 3.25C9.525 3.25 8.885 2.94 8.695 2.34C8.665 2.25 8.65 2.15 8.65 2.055C8.65 1.97 8.66 1.885 8.685 1.805C8.75 1.57 8.905 1.365 9.165 1.28C9.265 1.25 9.37 1.24 9.465 1.26C9.565 1.275 9.66 1.315 9.745 1.38C9.905 1.255 10.125 1.215 10.335 1.28C10.79 1.43 10.935 1.945 10.805 2.34C10.785 2.4 10.76 2.46 10.73 2.515C10.595 2.785 10.365 2.985 10.15 3.105Z" fill="currentColor"/>
</svg>
