<svg width="12" height="12" viewBox="0 0 12 12" fill="none" xmlns="http://www.w3.org/2000/svg">
<path d="M10.485 0.5H9.015C8.58 0.5 8.26 0.68 8.115 1C8.035 1.145 8 1.315 8 1.515V2.985C8 3.62 8.38 4 9.015 4H10.485C10.685 4 10.855 3.965 11 3.885C11.32 3.74 11.5 3.42 11.5 2.985V1.515C11.5 0.88 11.12 0.5 10.485 0.5ZM10.955 2.465C10.905 2.515 10.83 2.55 10.75 2.555H10.045V2.81L10.05 3.25C10.045 3.335 10.015 3.405 9.955 3.465C9.905 3.515 9.83 3.55 9.75 3.55C9.585 3.55 9.45 3.415 9.45 3.25V2.55L8.75 2.555C8.585 2.555 8.45 2.415 8.45 2.25C8.45 2.085 8.585 1.95 8.75 1.95L9.19 1.955H9.45V1.255C9.45 1.09 9.585 0.95 9.75 0.95C9.915 0.95 10.05 1.09 10.05 1.255L10.045 1.61V1.95H10.75C10.915 1.95 11.05 2.085 11.05 2.25C11.045 2.335 11.01 2.405 10.955 2.465Z" fill="currentColor"/>
<path d="M4.50055 5.19055C5.15775 5.19055 5.69055 4.65776 5.69055 4.00055C5.69055 3.34333 5.15775 2.81054 4.50055 2.81054C3.84333 2.81054 3.31054 3.34333 3.31054 4.00055C3.31054 4.65776 3.84333 5.19055 4.50055 5.19055Z" fill="currentColor"/>
<path d="M10.485 4H10.25V6.305L10.185 6.25C9.795 5.915 9.165 5.915 8.775 6.25L6.695 8.035C6.305 8.37 5.675 8.37 5.285 8.035L5.115 7.895C4.76 7.585 4.195 7.555 3.795 7.825L1.925 9.08C1.815 8.8 1.75 8.475 1.75 8.095V3.905C1.75 2.495 2.495 1.75 3.905 1.75H8V1.515C8 1.315 8.035 1.145 8.115 1H3.905C2.085 1 1 2.085 1 3.905V8.095C1 8.64 1.095 9.115 1.28 9.515C1.71 10.465 2.63 11 3.905 11H8.095C9.915 11 11 9.915 11 8.095V3.885C10.855 3.965 10.685 4 10.485 4Z" fill="currentColor"/>
</svg>
