<svg width="12" height="12" viewBox="0 0 12 12" fill="none" xmlns="http://www.w3.org/2000/svg">
<path d="M10.485 0.5H9.015C8.38 0.5 8 0.88 8 1.515V2.985C8 3.62 8.38 4 9.015 4H10.485C11.12 4 11.5 3.62 11.5 2.985V1.515C11.5 0.88 11.12 0.5 10.485 0.5ZM10.735 2.78C10.86 2.905 10.86 3.11 10.735 3.235C10.67 3.295 10.59 3.325 10.505 3.325C10.425 3.325 10.345 3.295 10.28 3.235L9.75 2.705L9.225 3.235C9.16 3.295 9.08 3.325 8.995 3.325C8.915 3.325 8.835 3.295 8.77 3.235C8.645 3.11 8.645 2.905 8.77 2.78L9.3 2.25L8.77 1.725C8.645 1.6 8.645 1.395 8.77 1.27C8.895 1.145 9.1 1.145 9.225 1.27L9.75 1.8L10.28 1.27C10.405 1.145 10.61 1.145 10.735 1.27C10.86 1.395 10.86 1.6 10.735 1.725L10.205 2.25L10.735 2.78Z" fill="currentColor"/>
<path d="M4.50055 5.19055C5.15775 5.19055 5.69055 4.65776 5.69055 4.00055C5.69055 3.34333 5.15775 2.81054 4.50055 2.81054C3.84333 2.81054 3.31054 3.34333 3.31054 4.00055C3.31054 4.65776 3.84333 5.19055 4.50055 5.19055Z" fill="currentColor"/>
<path d="M10.485 4H10.25V6.305L10.185 6.25C9.795 5.915 9.165 5.915 8.775 6.25L6.695 8.035C6.305 8.37 5.675 8.37 5.285 8.035L5.115 7.895C4.76 7.585 4.195 7.555 3.795 7.825L1.925 9.08C1.815 8.8 1.75 8.475 1.75 8.095V3.905C1.75 2.495 2.495 1.75 3.905 1.75H8V1.515C8 1.315 8.035 1.145 8.115 1H3.905C2.085 1 1 2.085 1 3.905V8.095C1 8.64 1.095 9.115 1.28 9.515C1.71 10.465 2.63 11 3.905 11H8.095C9.915 11 11 9.915 11 8.095V3.885C10.855 3.965 10.685 4 10.485 4Z" fill="currentColor"/>
</svg>
