<svg width="12" height="12" viewBox="0 0 12 12" fill="none" xmlns="http://www.w3.org/2000/svg">
<path d="M8.325 2.85938H3.675C2.2 2.85938 1 4.05937 1 5.53435V8.3244C1 9.7994 2.2 10.9994 3.675 10.9994H8.325C9.8 10.9994 11 9.7994 11 8.3244V5.53435C11 4.05937 9.8 2.85938 8.325 2.85938ZM7.25 6.0094C7.25 5.7344 7.475 5.5094 7.75 5.5094C8.025 5.5094 8.25 5.7344 8.25 6.0094C8.25 6.2844 8.025 6.51435 7.75 6.51435C7.475 6.51435 7.25 6.2944 7.25 6.0194V6.0094ZM5.065 8.0344C4.99 8.1094 4.895 8.1444 4.8 8.1444C4.705 8.1444 4.61 8.1094 4.535 8.0344L4.02 7.51935L3.525 8.0144C3.45 8.0894 3.355 8.1244 3.26 8.1244C3.165 8.1244 3.07 8.0894 2.995 8.0144C2.85 7.8694 2.85 7.62935 2.995 7.4844L3.49 6.9894L3.01 6.5094C2.865 6.3644 2.865 6.1244 3.01 5.9794C3.155 5.8344 3.395 5.8344 3.54 5.9794L4.02 6.4594L4.515 5.9644C4.66 5.8194 4.9 5.8194 5.045 5.9644C5.19 6.1094 5.19 6.3494 5.045 6.49435L4.55 6.9894L5.065 7.5044C5.21 7.6494 5.21 7.8894 5.065 8.0344ZM6.77 7.4994C6.495 7.4994 6.265 7.2744 6.265 6.9994C6.265 6.7244 6.485 6.4994 6.76 6.4994H6.77C7.045 6.4994 7.27 6.7244 7.27 6.9994C7.27 7.2744 7.05 7.4994 6.77 7.4994ZM7.75 8.4844C7.475 8.4844 7.25 8.2644 7.25 7.9894V7.97935C7.25 7.70435 7.475 7.47935 7.75 7.47935C8.025 7.47935 8.25 7.70435 8.25 7.97935C8.25 8.25435 8.03 8.4844 7.75 8.4844ZM8.74 7.4994C8.465 7.4994 8.235 7.2744 8.235 6.9994C8.235 6.7244 8.455 6.4994 8.73 6.4994H8.74C9.015 6.4994 9.24 6.7244 9.24 6.9994C9.24 7.2744 9.02 7.4994 8.74 7.4994Z" fill="currentColor"/>
<path d="M6.8197 1.355L6.8147 1.825C6.8097 2.265 6.4447 2.63 5.9997 2.63C5.9247 2.63 5.8797 2.68 5.8797 2.745C5.8797 2.81 5.9297 2.86 5.9947 2.86H5.1897C5.1847 2.825 5.1797 2.785 5.1797 2.745C5.1797 2.295 5.5447 1.93 5.9897 1.93C6.0647 1.93 6.1147 1.88 6.1147 1.815L6.1197 1.345C6.1247 1.155 6.2797 1 6.4697 1H6.4747C6.6697 1 6.8197 1.16 6.8197 1.355Z" fill="currentColor"/>
</svg>
