<svg width="12" height="12" viewBox="0 0 12 12" fill="none" xmlns="http://www.w3.org/2000/svg">
<path d="M8.5 1H3.5C2.4 1 1.5 1.9 1.5 3V9C1.5 10.1 2.4 11 3.5 11H8.5C9.6 11 10.5 10.1 10.5 9V3C10.5 1.9 9.6 1 8.5 1ZM5.43 9.07C5.355 9.145 5.26 9.18 5.165 9.18C5.07 9.18 4.975 9.145 4.9 9.07L4.575 8.745L4.265 9.055C4.19 9.13 4.095 9.165 4 9.165C3.905 9.165 3.81 9.13 3.735 9.055C3.59 8.91 3.59 8.67 3.735 8.525L4.045 8.215L3.75 7.92C3.605 7.775 3.605 7.535 3.75 7.39C3.895 7.245 4.135 7.245 4.28 7.39L4.575 7.685L4.885 7.375C5.03 7.23 5.27 7.23 5.415 7.375C5.56 7.52 5.56 7.76 5.415 7.905L5.105 8.215L5.43 8.54C5.575 8.685 5.575 8.925 5.43 9.07ZM7.245 9.245C6.97 9.245 6.745 9.025 6.745 8.75V8.74C6.745 8.465 6.97 8.24 7.245 8.24C7.52 8.24 7.745 8.465 7.745 8.74C7.745 9.015 7.52 9.245 7.245 9.245ZM8.255 8.165C7.98 8.165 7.75 7.94 7.75 7.665C7.75 7.39 7.97 7.165 8.245 7.165H8.255C8.53 7.165 8.755 7.39 8.755 7.665C8.755 7.94 8.53 8.165 8.255 8.165ZM9 4.625C9 5.105 8.605 5.5 8.125 5.5H3.875C3.395 5.5 3 5.105 3 4.625V3.375C3 2.895 3.395 2.5 3.875 2.5H8.125C8.605 2.5 9 2.895 9 3.375V4.625Z" fill="currentColor"/>
</svg>
