<svg width="12" height="12" viewBox="0 0 12 12" fill="none" xmlns="http://www.w3.org/2000/svg">
<path d="M11.17 4.665L10.17 4.165C9.985 4.075 9.755 4.145 9.665 4.33C9.57 4.52 9.645 4.745 9.83 4.835L10.625 5.23V7.625L8.75 7.63V2.5C8.75 1.5 8.08 1 7.25 1H3.25C2.42 1 1.75 1.5 1.75 2.5V10.625H1C0.795 10.625 0.625 10.795 0.625 11C0.625 11.205 0.795 11.375 1 11.375H9.5C9.705 11.375 9.875 11.205 9.875 11C9.875 10.795 9.705 10.625 9.5 10.625H8.75V8.38L11 8.375C11.21 8.375 11.375 8.205 11.375 8V5C11.375 4.86 11.295 4.73 11.17 4.665ZM3 3.445C3 2.75 3.425 2.5 3.945 2.5H6.56C7.075 2.5 7.5 2.75 7.5 3.445V4.06C7.5 4.75 7.075 5 6.555 5H3.945C3.425 5 3 4.75 3 4.055V3.445ZM3.25 6.125H4.75C4.955 6.125 5.125 6.295 5.125 6.5C5.125 6.705 4.955 6.875 4.75 6.875H3.25C3.045 6.875 2.875 6.705 2.875 6.5C2.875 6.295 3.045 6.125 3.25 6.125Z" fill="currentColor"/>
</svg>
