<svg width="12" height="12" viewBox="0 0 12 12" fill="none" xmlns="http://www.w3.org/2000/svg">
<path d="M6 1C3.25 1 1 3.29 1 6.09V10.035C1 10.665 1.375 10.835 1.835 10.415L2.335 9.96C2.52 9.79 2.82 9.79 3.005 9.96L4.005 10.875C4.19 11.045 4.49 11.045 4.675 10.875L5.675 9.96C5.86 9.79 6.16 9.79 6.345 9.96L7.345 10.875C7.53 11.045 7.83 11.045 8.015 10.875L9.015 9.96C9.2 9.79 9.5 9.79 9.685 9.96L10.185 10.415C10.645 10.835 11.02 10.665 11.02 10.035V6.09C11 3.29 8.75 1 6 1ZM6 3.31C6.655 3.31 7.19 3.845 7.19 4.5C7.19 5.155 6.655 5.69 6 5.69C5.345 5.69 4.81 5.155 4.81 4.5C4.81 3.845 5.345 3.31 6 3.31ZM8.225 7.3C7.57 7.79 6.785 8.035 6 8.035C5.215 8.035 4.43 7.79 3.775 7.3C3.61 7.175 3.575 6.94 3.7 6.775C3.825 6.61 4.06 6.575 4.225 6.7C5.27 7.485 6.73 7.485 7.775 6.7C7.94 6.575 8.175 6.61 8.3 6.775C8.425 6.94 8.39 7.175 8.225 7.3Z" fill="currentColor"/>
</svg>
