<svg width="12" height="12" viewBox="0 0 12 12" fill="none" xmlns="http://www.w3.org/2000/svg">
<path d="M10 6V9C10 10.105 9.105 11 8 11H4C2.895 11 2 10.105 2 9V6C2 5.725 2.225 5.5 2.5 5.5H3.485C3.76 5.5 3.985 5.725 3.985 6V7.57C3.985 7.94 4.19 8.28 4.515 8.455C4.66 8.535 4.82 8.575 4.985 8.575C5.175 8.575 5.365 8.52 5.53 8.41L6.005 8.1L6.445 8.395C6.75 8.6 7.14 8.625 7.465 8.45C7.795 8.275 8 7.94 8 7.565V6C8 5.725 8.225 5.5 8.5 5.5H9.5C9.775 5.5 10 5.725 10 6Z" fill="currentColor"/>
<path d="M10.75 3.5V4C10.75 4.55 10.485 5 9.75 5H2.25C1.485 5 1.25 4.55 1.25 4V3.5C1.25 2.95 1.485 2.5 2.25 2.5H9.75C10.485 2.5 10.75 2.95 10.75 3.5Z" fill="currentColor"/>
<path d="M5.8194 2.5007H3.05941C2.88941 2.3157 2.8944 2.0307 3.0744 1.8507L3.7844 1.1407C3.9694 0.955703 4.27441 0.955703 4.4594 1.1407L5.8194 2.5007Z" fill="currentColor"/>
<path d="M8.9358 2.5007H6.1758L7.5358 1.1407C7.7208 0.955703 8.0258 0.955703 8.2108 1.1407L8.9208 1.8507C9.1008 2.0307 9.1058 2.3157 8.9358 2.5007Z" fill="currentColor"/>
<path d="M6.9857 5.5C7.2607 5.5 7.4857 5.725 7.4857 6V7.565C7.4857 7.965 7.0407 8.205 6.7107 7.98L6.2607 7.68C6.0957 7.57 5.8807 7.57 5.7107 7.68L5.2407 7.99C4.9107 8.21 4.47071 7.97 4.47071 7.575V6C4.47071 5.725 4.6957 5.5 4.97071 5.5H6.9857Z" fill="currentColor"/>
</svg>
