<svg width="12" height="12" viewBox="0 0 12 12" fill="none" xmlns="http://www.w3.org/2000/svg">
<path d="M7.9203 10.9992H4.08029C1.98529 10.9992 1.57029 9.73415 2.25029 8.19415L2.97029 6.55915C2.97029 6.55915 4.50029 6.49915 6.0003 6.99915C7.5003 7.49915 8.9153 6.55415 8.9153 6.55415L9.0103 6.49415L9.7553 8.19915C10.4253 9.73915 9.9853 10.9992 7.9203 10.9992Z" fill="currentColor"/>
<path d="M7.72015 3.37H7.64015L8.70515 5.8L8.50015 5.93C8.49015 5.935 7.36015 6.66 6.23515 6.29C5.06015 5.895 3.88015 5.825 3.30015 5.815L4.37015 3.37H4.22015C3.89515 3.37 3.59515 3.24 3.38015 3.025C3.16515 2.81 3.03515 2.51 3.03515 2.185C3.03515 1.535 3.56515 1 4.22015 1H7.77515C8.10515 1 8.40015 1.135 8.61515 1.35C8.89515 1.63 9.04015 2.04 8.93015 2.475C8.80015 3.015 8.28015 3.37 7.72015 3.37Z" fill="currentColor"/>
</svg>
