<svg width="12" height="12" viewBox="0 0 12 12" fill="none" xmlns="http://www.w3.org/2000/svg">
<path d="M8.8549 1H8.3799C8.1849 1 8.0249 1.16 8.0249 1.355C8.0249 1.555 8.1849 1.715 8.3799 1.715H8.8549C9.7099 1.715 10.4049 2.41 10.4049 3.26V6.2C10.2249 6.105 10.0249 6.055 9.8099 6.055H7.9049C7.1849 6.055 6.5949 6.64 6.5949 7.365V8.145H5.4049V7.365C5.4049 6.64 4.81488 6.055 4.09488 6.055H2.18988C1.97488 6.055 1.77488 6.105 1.59488 6.2V3.26C1.59488 2.41 2.28988 1.715 3.14488 1.715H3.61988C3.81488 1.715 3.97488 1.555 3.97488 1.355C3.97488 1.16 3.81488 1 3.61988 1H3.14488C1.89488 1 0.879883 2.015 0.879883 3.26V7.365V9.69C0.879883 10.415 1.46988 11 2.18988 11H4.09488C4.81488 11 5.4049 10.415 5.4049 9.69V8.855H6.5949V9.69C6.5949 10.415 7.1849 11 7.9049 11H9.8099C10.5299 11 11.1199 10.415 11.1199 9.69V7.365V3.26C11.1199 2.015 10.1049 1 8.8549 1Z" fill="currentColor"/>
</svg>
