<svg width="12" height="12" viewBox="0 0 12 12" fill="none" xmlns="http://www.w3.org/2000/svg">
<path d="M10.895 10.38L10.535 10.02C10.72 9.74 10.83 9.4 10.83 9.04C10.83 8.05 10.03 7.25 9.04 7.25C8.05 7.25 7.25 8.05 7.25 9.04C7.25 10.03 8.05 10.83 9.04 10.83C9.405 10.83 9.74 10.72 10.02 10.535L10.38 10.895C10.45 10.965 10.545 11 10.635 11C10.73 11 10.82 10.965 10.89 10.895C11.035 10.75 11.035 10.52 10.895 10.38Z" fill="currentColor"/>
<path d="M1.01586 7.31445C1.01586 7.32945 1.00586 7.34945 1.00586 7.36445C1.46586 8.28445 2.21586 9.03945 3.13586 9.49445C3.15086 9.49445 3.17086 9.48445 3.18586 9.48445C3.01586 8.90445 2.88586 8.30945 2.79086 7.71445C2.19086 7.61445 1.59586 7.48445 1.01586 7.31445Z" fill="currentColor"/>
<path d="M9.53405 3.2157C9.06405 2.2307 8.26905 1.4357 7.28905 0.970705C7.46905 1.56571 7.61905 2.17571 7.71905 2.78571C8.32905 2.8857 8.93905 3.0307 9.53405 3.2157Z" fill="currentColor"/>
<path d="M0.964845 3.21477C1.56485 3.03477 2.17485 2.88477 2.78485 2.78477C2.88485 2.18976 3.00985 1.59977 3.17985 1.01977C3.16484 1.01977 3.14485 1.00977 3.12984 1.00977C2.18984 1.47477 1.42484 2.25977 0.964845 3.21477Z" fill="currentColor"/>
<path d="M6.90985 2.68C6.78985 2.03 6.63985 1.38 6.42485 0.75C6.41485 0.715 6.41485 0.685 6.40985 0.645C6.03985 0.555 5.64985 0.5 5.24985 0.5C4.84484 0.5 4.45985 0.555 4.08485 0.65C4.07984 0.685 4.08484 0.715 4.07484 0.755C3.86484 1.385 3.70984 2.03 3.58984 2.68C4.69485 2.56 5.80485 2.56 6.90985 2.68Z" fill="currentColor"/>
<path d="M2.68 3.58984C2.025 3.70984 1.385 3.86484 0.75 4.07484C0.715 4.08484 0.685 4.08485 0.65 4.08985C0.555 4.45985 0.5 4.84984 0.5 5.24985C0.5 5.65485 0.555 6.03985 0.65 6.41485C0.685 6.41985 0.715 6.41485 0.755 6.42485C1.385 6.63485 2.03 6.78985 2.685 6.90985C2.56 5.80485 2.56 4.69485 2.68 3.58984Z" fill="currentColor"/>
<path d="M9.84945 4.08985C9.81445 4.08985 9.78445 4.08484 9.74445 4.07484C9.11445 3.86484 8.46445 3.70984 7.81445 3.58984C7.93945 4.69485 7.93945 5.80485 7.81445 6.90485C8.46445 6.78485 9.11445 6.63485 9.74445 6.41985C9.77945 6.40985 9.80945 6.41485 9.84945 6.40985C9.93945 6.03485 9.99945 5.64985 9.99945 5.24485C9.99945 4.84984 9.94445 4.46485 9.84945 4.08985Z" fill="currentColor"/>
<path d="M3.58984 7.81945C3.70984 8.47445 3.85984 9.11945 4.07484 9.74945C4.08484 9.78445 4.07984 9.81445 4.08485 9.85445C4.45985 9.94445 4.84484 9.99945 5.24985 9.99945C5.64985 9.99945 6.03985 9.94445 6.40985 9.84945C6.41485 9.81445 6.41485 9.78445 6.42485 9.74445C6.63485 9.11445 6.78985 8.46945 6.90985 7.81445C6.35985 7.87445 5.80485 7.91945 5.24985 7.91945C4.69484 7.91945 4.13984 7.87945 3.58984 7.81945Z" fill="currentColor"/>
<path d="M3.47578 3.47578C3.32578 4.65578 3.32578 5.8458 3.47578 7.0308C4.65578 7.1808 5.8458 7.1808 7.0308 7.0308C7.1808 5.8508 7.1808 4.66078 7.0308 3.47578C5.8458 3.32578 4.65578 3.32578 3.47578 3.47578Z" fill="currentColor"/>
</svg>
