<svg width="12" height="12" viewBox="0 0 12 12" fill="none" xmlns="http://www.w3.org/2000/svg">
<path d="M9.3652 7.33555L7.2902 9.41055C7.2102 9.49055 7.1352 9.64555 7.1152 9.75555L7.0002 10.5506C6.9602 10.8356 7.1602 11.0406 7.4452 10.9956L8.2402 10.8806C8.3502 10.8656 8.5052 10.7856 8.5852 10.7056L10.6602 8.63055C11.0152 8.27555 11.1852 7.85555 10.6602 7.33055C10.1402 6.81055 9.7252 6.97555 9.3652 7.33555Z" fill="currentColor"/>
<path d="M9.0703 7.63085C9.2453 8.26085 9.7403 8.75085 10.3703 8.93085L9.0703 7.63085Z" fill="currentColor"/>
<path d="M1.01488 7.31445C1.01488 7.32945 1.00488 7.34945 1.00488 7.36445C1.46488 8.28445 2.21488 9.03945 3.13489 9.49445C3.14989 9.49445 3.16988 9.48445 3.18489 9.48445C3.01488 8.90445 2.88489 8.30945 2.78989 7.71445C2.18989 7.61445 1.59488 7.48445 1.01488 7.31445Z" fill="currentColor"/>
<path d="M9.53505 3.2157C9.06505 2.2307 8.27005 1.4357 7.29005 0.970705C7.47005 1.56571 7.62005 2.17571 7.72005 2.78571C8.33005 2.8857 8.94005 3.0307 9.53505 3.2157Z" fill="currentColor"/>
<path d="M0.964845 3.21477C1.56485 3.03477 2.17485 2.88477 2.78485 2.78477C2.88485 2.18976 3.00985 1.59977 3.17985 1.01977C3.16484 1.01977 3.14485 1.00977 3.12984 1.00977C2.18984 1.47477 1.42484 2.25977 0.964845 3.21477Z" fill="currentColor"/>
<path d="M6.90985 2.68C6.78985 2.03 6.63985 1.38 6.42485 0.75C6.41485 0.715 6.41485 0.685 6.40985 0.645C6.03985 0.555 5.64985 0.5 5.24985 0.5C4.84484 0.5 4.45985 0.555 4.08485 0.65C4.07984 0.685 4.08484 0.715 4.07484 0.755C3.86484 1.385 3.70984 2.03 3.58984 2.68C4.69485 2.56 5.80485 2.56 6.90985 2.68Z" fill="currentColor"/>
<path d="M2.68 3.58984C2.025 3.70984 1.385 3.86484 0.75 4.07484C0.715 4.08484 0.685 4.08485 0.65 4.08985C0.555 4.45985 0.5 4.84984 0.5 5.24985C0.5 5.65485 0.555 6.03985 0.65 6.41485C0.685 6.41985 0.715 6.41485 0.755 6.42485C1.385 6.63485 2.03 6.78985 2.685 6.90985C2.56 5.80485 2.56 4.69485 2.68 3.58984Z" fill="currentColor"/>
<path d="M9.85045 4.08985C9.81545 4.08985 9.78545 4.08484 9.74545 4.07484C9.11545 3.86484 8.46545 3.70984 7.81545 3.58984C7.94045 4.69485 7.94045 5.80485 7.81545 6.90485C8.46545 6.78485 9.11545 6.63485 9.74545 6.41985C9.78045 6.40985 9.81045 6.41485 9.85045 6.40985C9.94045 6.03485 10.0005 5.64985 10.0005 5.24485C10.0005 4.84984 9.94545 4.46485 9.85045 4.08985Z" fill="currentColor"/>
<path d="M3.58984 7.81945C3.70984 8.47445 3.85984 9.11945 4.07484 9.74945C4.08484 9.78445 4.07984 9.81445 4.08485 9.85445C4.45985 9.94445 4.84484 9.99945 5.24985 9.99945C5.64985 9.99945 6.03985 9.94445 6.40985 9.84945C6.41485 9.81445 6.41485 9.78445 6.42485 9.74445C6.63485 9.11445 6.78985 8.46945 6.90985 7.81445C6.35985 7.87445 5.80485 7.91945 5.24985 7.91945C4.69484 7.91945 4.13984 7.87945 3.58984 7.81945Z" fill="currentColor"/>
<path d="M3.47481 3.47578C3.32481 4.65578 3.32481 5.8458 3.47481 7.0308C4.65481 7.1808 5.8448 7.1808 7.0298 7.0308C7.1798 5.8508 7.1798 4.66078 7.0298 3.47578C5.8448 3.32578 4.65481 3.32578 3.47481 3.47578Z" fill="currentColor"/>
</svg>
