<svg width="12" height="12" viewBox="0 0 12 12" fill="none" xmlns="http://www.w3.org/2000/svg">
<path d="M3.8243 10.4549C3.80929 10.4549 3.7893 10.4649 3.7743 10.4649C2.8043 9.9849 2.01429 9.1899 1.52929 8.2199C1.52929 8.2049 1.53929 8.1849 1.53929 8.1699C2.14929 8.3499 2.77929 8.4849 3.40429 8.5899C3.5143 9.2199 3.64429 9.8449 3.8243 10.4549Z" fill="currentColor"/>
<path d="M10.4696 8.2249C9.97455 9.2199 9.14955 10.0249 8.14455 10.5099C8.33455 9.8749 8.49455 9.2349 8.59955 8.5899C9.22955 8.4849 9.84955 8.3499 10.4595 8.1699C10.4545 8.1899 10.4696 8.2099 10.4696 8.2249Z" fill="currentColor"/>
<path d="M10.5096 3.85524C9.87955 3.66524 9.24455 3.51023 8.59955 3.40023C8.49455 2.75523 8.33955 2.11523 8.14455 1.49023C9.17955 1.98523 10.0146 2.82024 10.5096 3.85524Z" fill="currentColor"/>
<path d="M3.82523 1.54429C3.64523 2.15429 3.51523 2.77429 3.41023 3.40429C2.76523 3.50429 2.12523 3.66429 1.49023 3.8543C1.97523 2.8493 2.78023 2.02429 3.77523 1.52929C3.79023 1.52929 3.81023 1.54429 3.82523 1.54429Z" fill="currentColor"/>
<path d="M7.74585 3.295C6.58585 3.165 5.41585 3.165 4.25586 3.295C4.38086 2.61 4.54086 1.925 4.76586 1.265C4.77586 1.225 4.77086 1.195 4.77586 1.155C5.17085 1.06 5.57585 1 6.00085 1C6.42085 1 6.83085 1.06 7.22085 1.155C7.22585 1.195 7.22585 1.225 7.23585 1.265C7.46085 1.93 7.62085 2.61 7.74585 3.295Z" fill="currentColor"/>
<path d="M3.295 7.74585C2.605 7.62085 1.925 7.46085 1.265 7.23585C1.225 7.22585 1.195 7.23085 1.155 7.22585C1.06 6.83085 1 6.42585 1 6.00085C1 5.58085 1.06 5.17085 1.155 4.78086C1.195 4.77586 1.225 4.77586 1.265 4.76586C1.93 4.54586 2.605 4.38086 3.295 4.25586C3.17 5.41585 3.17 6.58585 3.295 7.74585Z" fill="currentColor"/>
<path d="M11.0001 6.00085C11.0001 6.42585 10.9401 6.83085 10.8451 7.22585C10.8051 7.23085 10.7751 7.22585 10.7351 7.23585C10.0701 7.45585 9.3901 7.62085 8.7051 7.74585C8.8351 6.58585 8.8351 5.41585 8.7051 4.25586C9.3901 4.38086 10.0751 4.54086 10.7351 4.76586C10.7751 4.77586 10.8051 4.78086 10.8451 4.78086C10.9401 5.17585 11.0001 5.58085 11.0001 6.00085Z" fill="currentColor"/>
<path d="M7.74585 8.7051C7.62085 9.3951 7.46085 10.0751 7.23585 10.7351C7.22585 10.7751 7.22585 10.8051 7.22085 10.8451C6.83085 10.9401 6.42085 11.0001 6.00085 11.0001C5.57585 11.0001 5.17085 10.9401 4.77586 10.8451C4.77086 10.8051 4.77586 10.7751 4.76586 10.7351C4.54586 10.0701 4.38086 9.3951 4.25586 8.7051C4.83586 8.7701 5.41585 8.8151 6.00085 8.8151C6.58585 8.8151 7.17085 8.7701 7.74585 8.7051Z" fill="currentColor"/>
<path d="M7.88165 7.88165C6.6311 8.03945 5.3689 8.03945 4.11833 7.88165C3.96055 6.6311 3.96055 5.3689 4.11833 4.11833C5.3689 3.96055 6.6311 3.96055 7.88165 4.11833C8.03945 5.3689 8.03945 6.6311 7.88165 7.88165Z" fill="currentColor"/>
</svg>
