<svg width="12" height="12" viewBox="0 0 12 12" fill="none" xmlns="http://www.w3.org/2000/svg">
<g clip-path="url(#clip0_1652_1369)">
<path d="M11.3755 5.99935C11.3755 6.20435 11.2055 6.37435 11.0005 6.37435H9.98045C9.80545 8.27935 8.28045 9.80435 6.37545 9.97935V10.9993C6.37545 11.2043 6.20545 11.3743 6.00045 11.3743C5.79545 11.3743 5.62545 11.2043 5.62545 10.9993V9.97935C5.32045 9.95435 5.02045 9.88935 4.73546 9.79435C4.38046 9.67435 4.27046 9.22435 4.53546 8.95935L5.94045 7.55435C5.96045 7.55935 5.97545 7.55935 5.99545 7.55935C6.86045 7.55935 7.55545 6.86435 7.55545 5.99935C7.55545 5.97935 7.55545 5.96435 7.55045 5.94435L8.95545 4.53936C9.22045 4.27436 9.67045 4.38437 9.79045 4.73937C9.88545 5.02435 9.95045 5.31935 9.97545 5.62935H11.0005C11.2055 5.62435 11.3755 5.79435 11.3755 5.99935Z" fill="currentColor"/>
<path d="M10.885 1.115C10.735 0.965 10.49 0.965 10.34 1.115L8.535 2.92C7.935 2.425 7.185 2.1 6.37 2.025V1C6.37 0.795 6.2 0.625 5.995 0.625C5.79 0.625 5.62 0.795 5.62 1V2.02C3.715 2.2 2.19 3.72 2.015 5.625H1C0.795 5.625 0.625 5.795 0.625 6C0.625 6.205 0.795 6.375 1 6.375H2.02C2.095 7.19 2.42 7.94 2.915 8.54L1.11 10.345C0.96 10.495 0.96 10.74 1.11 10.89C1.19 10.96 1.285 11 1.385 11C1.485 11 1.58 10.96 1.655 10.885L10.885 1.655C11.04 1.505 11.04 1.265 10.885 1.115ZM4.44 6C4.44 5.14 5.14 4.44 6 4.44C6.29 4.44 6.56 4.525 6.79 4.665L4.665 6.79C4.525 6.56 4.44 6.29 4.44 6Z" fill="currentColor"/>
</g>
<defs>
<clipPath id="clip0_1652_1369">
<rect width="12" height="12" fill="currentColor"/>
</clipPath>
</defs>
</svg>
