<svg width="12" height="12" viewBox="0 0 12 12" fill="none" xmlns="http://www.w3.org/2000/svg">
<g clip-path="url(#clip0_1652_1249)">
<path d="M11 5.625H9.98C9.8 3.72 8.28 2.195 6.375 2.02V1C6.375 0.795 6.205 0.625 6 0.625C5.795 0.625 5.625 0.795 5.625 1V2.02C3.72 2.2 2.195 3.72 2.02 5.625H1C0.795 5.625 0.625 5.795 0.625 6C0.625 6.205 0.795 6.375 1 6.375H2.02C2.2 8.28 3.72 9.805 5.625 9.98V11C5.625 11.205 5.795 11.375 6 11.375C6.205 11.375 6.375 11.205 6.375 11V9.98C8.28 9.8 9.805 8.28 9.98 6.375H11C11.205 6.375 11.375 6.205 11.375 6C11.375 5.795 11.205 5.625 11 5.625ZM6 7.56C5.14 7.56 4.44 6.86 4.44 6C4.44 5.14 5.14 4.44 6 4.44C6.86 4.44 7.56 5.14 7.56 6C7.56 6.86 6.86 7.56 6 7.56Z" fill="currentColor"/>
</g>
<defs>
<clipPath id="clip0_1652_1249">
<rect width="12" height="12" fill="currentColor"/>
</clipPath>
</defs>
</svg>
