<svg width="12" height="12" viewBox="0 0 12 12" fill="none" xmlns="http://www.w3.org/2000/svg">
<path d="M9.55525 2.47992C7.60025 0.524922 4.42523 0.524922 2.47023 2.47992C0.480228 4.46992 0.515226 7.7149 2.57023 9.6649C4.47023 11.4599 7.55025 11.4599 9.45025 9.6649C11.5103 7.7149 11.5453 4.46992 9.55525 2.47992ZM8.19025 8.3249C7.59025 8.8949 6.80025 9.1799 6.01025 9.1799C5.22025 9.1799 4.43023 8.8949 3.83023 8.3249C3.68023 8.1799 3.67523 7.9449 3.81523 7.7949C3.96023 7.6449 4.19523 7.6399 4.34523 7.7799C5.26025 8.6449 6.75525 8.6499 7.67525 7.7799C7.82525 7.6399 8.06525 7.6449 8.20525 7.7949C8.35025 7.9449 8.34025 8.1799 8.19025 8.3249Z" fill="currentColor"/>
</svg>
