<svg width="12" height="12" viewBox="0 0 12 12" fill="none" xmlns="http://www.w3.org/2000/svg">
<path d="M10.8351 3.47471C10.5151 2.38971 9.6101 1.48471 8.5251 1.16471C7.7001 0.924708 7.1301 0.944708 6.7351 1.23971C6.2601 1.59471 6.2051 2.23471 6.2051 2.68971V3.93471C6.2051 5.1647 6.7651 5.7897 7.8651 5.7897H9.3001C9.7501 5.7897 10.3951 5.7347 10.7501 5.2597C11.0551 4.86971 11.0801 4.29971 10.8351 3.47471Z" fill="currentColor"/>
<path d="M9.4547 6.68055C9.3247 6.53055 9.1347 6.44555 8.9397 6.44555H7.1497C6.2697 6.44555 5.5547 5.73055 5.5547 4.85056V3.06056C5.5547 2.86556 5.4697 2.67556 5.3197 2.54556C5.1747 2.41556 4.97471 2.35556 4.78471 2.38056C3.60971 2.53056 2.52971 3.17556 1.82471 4.14556C1.11471 5.12055 0.854705 6.31055 1.07971 7.50055C1.40471 9.22055 2.7797 10.5955 4.5047 10.9205C4.77971 10.9755 5.0547 11.0005 5.3297 11.0005C6.2347 11.0005 7.1097 10.7205 7.8547 10.1755C8.8247 9.47055 9.4697 8.39055 9.6197 7.21555C9.6447 7.02055 9.5847 6.82555 9.4547 6.68055Z" fill="currentColor"/>
</svg>
