<svg width="12" height="12" viewBox="0 0 12 12" fill="none" xmlns="http://www.w3.org/2000/svg">
<path d="M10.6652 7.335C10.1402 6.81 9.7252 6.98 9.3652 7.335L7.2902 9.41C7.2102 9.49 7.1352 9.645 7.1152 9.755L7.0002 10.55C6.9602 10.835 7.1602 11.04 7.4452 10.995L8.2402 10.88C8.3502 10.865 8.5052 10.785 8.5852 10.705L10.6602 8.63C11.0252 8.275 11.1902 7.86 10.6652 7.335Z" fill="currentColor"/>
<path d="M3.37341 1.03274C3.64834 0.997125 3.875 1.22556 3.875 1.50278V3.4C3.875 3.67615 3.65114 3.9 3.375 3.9H1.5C1.22386 3.9 0.9959 3.67514 1.02933 3.40102C1.19316 2.05774 2.03594 1.20602 3.37341 1.03274Z" fill="currentColor"/>
<path d="M10.465 3.9H8.625C8.34885 3.9 8.125 3.67614 8.125 3.4V1.50312C8.125 1.22576 8.35205 0.997295 8.6271 1.03316C9.9439 1.20489 10.7823 2.03405 10.965 3.34C11.005 3.635 10.765 3.9 10.465 3.9Z" fill="currentColor"/>
<path d="M3.375 8.1504C3.65114 8.1504 3.875 8.37425 3.875 8.6504V10.4604C3.875 10.7604 3.61 11.0004 3.31 10.9604C2.02544 10.7692 1.21504 9.9459 1.03686 8.65545C0.99876 8.37945 1.22775 8.1504 1.50637 8.1504H3.375Z" fill="currentColor"/>
<path d="M3.875 5.1504C3.875 4.87425 3.65114 4.65039 3.375 4.65039H1.5C1.22386 4.65039 1 4.87425 1 5.1504V6.9004C1 7.17655 1.22386 7.4004 1.5 7.4004H3.375C3.65114 7.4004 3.875 7.17655 3.875 6.9004V5.1504Z" fill="currentColor"/>
<path d="M7.375 5.1504C7.375 4.87425 7.15115 4.65039 6.875 4.65039H5.125C4.84886 4.65039 4.625 4.87425 4.625 5.1504V6.9004C4.625 7.17655 4.84886 7.4004 5.125 7.4004H6.875C7.15 7.4004 7.375 7.1754 7.375 6.9004V5.1504Z" fill="currentColor"/>
<path d="M7.375 1.5C7.375 1.22385 7.15115 1 6.875 1H5.125C4.84886 1 4.625 1.22386 4.625 1.5V3.4C4.625 3.67615 4.84886 3.9 5.125 3.9H6.875C7.15115 3.9 7.375 3.67614 7.375 3.4V1.5Z" fill="currentColor"/>
</svg>
