<svg width="12" height="12" viewBox="0 0 12 12" fill="none" xmlns="http://www.w3.org/2000/svg">
<path d="M5.98535 1C3.22535 1 0.985352 3.24 0.985352 6C0.985352 8.76 3.22535 11 5.98535 11C8.74535 11 10.9854 8.76 10.9854 6C10.9854 3.24 8.75035 1 5.98535 1ZM8.70035 8.215C8.08535 9.1 7.07535 9.625 6.00035 9.625C4.92535 9.625 3.91535 9.1 3.30035 8.215C3.18035 8.045 3.22535 7.81 3.39535 7.695C3.56535 7.575 3.80035 7.62 3.91535 7.79C4.39035 8.47 5.17035 8.88 6.00035 8.88C6.83035 8.88 7.61035 8.475 8.08535 7.79C8.20535 7.62 8.43535 7.58 8.60535 7.695C8.78035 7.81 8.82035 8.045 8.70035 8.215Z" fill="currentColor"/>
</svg>
