<svg width="12" height="12" viewBox="0 0 12 12" fill="none" xmlns="http://www.w3.org/2000/svg">
<path d="M5.20995 6.70905H6.62995L6.78995 5.28905H5.36995L5.20995 6.70905Z" fill="currentColor"/>
<path d="M8.095 1H3.905C2.085 1 1 2.085 1 3.905V8.09C1 9.915 2.085 11 3.905 11H8.09C9.91 11 10.995 9.915 10.995 8.095V3.905C11 2.085 9.915 1 8.095 1ZM9.41 5.29H7.525L7.365 6.715H9.05C9.25 6.715 9.415 6.88 9.415 7.08C9.415 7.28 9.25 7.445 9.05 7.445H7.285L7.08 9.275C7.06 9.46 6.9 9.6 6.715 9.6C6.7 9.6 6.69 9.6 6.675 9.6C6.475 9.58 6.33 9.395 6.35 9.195L6.545 7.445H5.125L4.92 9.275C4.9 9.46 4.74 9.6 4.555 9.6C4.54 9.6 4.53 9.6 4.515 9.6C4.315 9.58 4.17 9.395 4.19 9.195L4.385 7.445H2.59C2.39 7.445 2.225 7.28 2.225 7.08C2.225 6.88 2.39 6.715 2.59 6.715H4.475L4.635 5.29H2.95C2.75 5.29 2.585 5.125 2.585 4.925C2.585 4.725 2.75 4.56 2.95 4.56H4.715L4.92 2.73C4.94 2.53 5.125 2.385 5.325 2.405C5.525 2.425 5.67 2.61 5.65 2.81L5.455 4.56H6.875L7.08 2.73C7.105 2.53 7.285 2.385 7.485 2.405C7.685 2.425 7.83 2.61 7.81 2.81L7.615 4.56H9.42C9.62 4.56 9.785 4.725 9.785 4.925C9.785 5.125 9.61 5.29 9.41 5.29Z" fill="currentColor"/>
</svg>
