<svg width="12" height="12" viewBox="0 0 12 12" fill="none" xmlns="http://www.w3.org/2000/svg">
<path d="M5.04005 5.91595H5.86505L5.96005 5.08595H5.13505L5.04005 5.91595Z" fill="currentColor"/>
<path d="M10.985 3.605C10.885 2.065 9.935 1.115 8.395 1.015C8.295 1.005 8.195 1 8.095 1H3.905C3.805 1 3.705 1.005 3.605 1.015C2.065 1.115 1.115 2.065 1.015 3.605C1.005 3.705 1 3.805 1 3.905V8.095C1 8.195 1.005 8.295 1.015 8.395C1.115 9.935 2.065 10.885 3.605 10.985C3.705 10.995 3.805 11 3.905 11H6.75C7.025 11 7.25 10.775 7.25 10.5V9.015C7.25 8.04 8.04 7.25 9.015 7.25H10.5C10.775 7.25 11 7.025 11 6.75V3.905C11 3.805 10.995 3.705 10.985 3.605ZM8 5.085H6.715L6.62 5.915H7.735C7.945 5.915 8.11 6.085 8.11 6.29C8.11 6.495 7.945 6.665 7.735 6.665H6.54L6.4 7.91C6.38 8.1 6.215 8.245 6.025 8.245C6.015 8.245 6 8.245 5.985 8.24C5.78 8.22 5.63 8.035 5.655 7.825L5.785 6.665H4.96L4.82 7.91C4.8 8.1 4.635 8.245 4.45 8.245C4.435 8.245 4.42 8.245 4.405 8.24C4.2 8.22 4.05 8.035 4.075 7.825L4.205 6.665H3C2.795 6.665 2.625 6.495 2.625 6.29C2.625 6.085 2.795 5.915 3 5.915H4.285L4.38 5.085H3.265C3.055 5.085 2.89 4.915 2.89 4.71C2.89 4.505 3.055 4.335 3.265 4.335H4.46L4.6 3.09C4.625 2.885 4.81 2.735 5.015 2.76C5.22 2.78 5.37 2.965 5.345 3.175L5.215 4.335H6.04L6.18 3.09C6.205 2.885 6.39 2.735 6.595 2.76C6.8 2.78 6.95 2.965 6.925 3.175L6.795 4.335H8C8.205 4.335 8.375 4.505 8.375 4.71C8.375 4.915 8.205 5.085 8 5.085Z" fill="currentColor"/>
<path d="M10.485 11.5H9.015C8.38 11.5 8 11.12 8 10.485V9.015C8 8.38 8.38 8 9.015 8H10.485C11.12 8 11.5 8.38 11.5 9.015V10.485C11.5 11.12 11.12 11.5 10.485 11.5ZM10.595 9.845C10.535 9.785 10.455 9.755 10.375 9.755C10.295 9.755 10.215 9.785 10.155 9.845L10.065 9.935V8.815C10.065 8.64 9.925 8.5 9.75 8.5C9.575 8.5 9.435 8.64 9.435 8.815V9.935L9.345 9.845C9.225 9.725 9.025 9.725 8.905 9.845C8.785 9.965 8.785 10.165 8.905 10.285L9.53 10.91C9.555 10.935 9.59 10.955 9.625 10.97C9.635 10.975 9.645 10.975 9.655 10.98C9.68 10.99 9.705 10.995 9.735 10.995C9.745 10.995 9.755 10.995 9.765 10.995C9.8 10.995 9.83 10.99 9.865 10.975C9.87 10.975 9.87 10.975 9.875 10.975C9.91 10.96 9.94 10.94 9.965 10.915C9.97 10.91 9.97 10.91 9.975 10.91L10.6 10.285C10.72 10.165 10.72 9.965 10.595 9.845Z" fill="currentColor"/>
</svg>
