<svg width="12" height="12" viewBox="0 0 12 12" fill="none" xmlns="http://www.w3.org/2000/svg">
<path d="M4.02539 5.0704V5.6504H5.6554V4.02539H5.0754C4.49539 4.02539 4.02539 4.49539 4.02539 5.0704Z" fill="currentColor"/>
<path d="M4.02539 6.9296C4.02539 7.5046 4.49539 7.9746 5.0704 7.9746H5.6504V6.3496H4.02539V6.9296Z" fill="currentColor"/>
<path d="M6.3496 7.9746H6.9296C7.5046 7.9746 7.9746 7.5046 7.9746 6.9296V6.3496H6.3496V7.9746Z" fill="currentColor"/>
<path d="M8.095 1H3.905C2.085 1 1 2.085 1 3.905V8.09C1 9.915 2.085 11 3.905 11H8.09C9.91 11 10.995 9.915 10.995 8.095V3.905C11 2.085 9.915 1 8.095 1ZM8.675 6.93C8.675 7.89 7.89 8.675 6.93 8.675H5.07C4.11 8.675 3.325 7.895 3.325 6.93V5.07C3.325 4.11 4.11 3.325 5.07 3.325H6.93C7.89 3.325 8.675 4.105 8.675 5.07V6.93Z" fill="currentColor"/>
<path d="M6.9296 4.02539H6.3496V5.6554H7.9796V5.0754C7.9746 4.49539 7.5046 4.02539 6.9296 4.02539Z" fill="currentColor"/>
</svg>
