<svg width="12" height="12" viewBox="0 0 12 12" fill="none" xmlns="http://www.w3.org/2000/svg">
<path d="M4.25 6.375C4.045 6.375 3.875 6.205 3.875 6V3C3.875 2.795 4.045 2.625 4.25 2.625C4.455 2.625 4.625 2.795 4.625 3V6C4.625 6.205 4.455 6.375 4.25 6.375Z" fill="currentColor"/>
<path d="M4.25 11.375C4.045 11.375 3.875 11.205 3.875 11V9C3.875 8.795 4.045 8.625 4.25 8.625C4.455 8.625 4.625 8.795 4.625 9V11C4.625 11.205 4.455 11.375 4.25 11.375Z" fill="currentColor"/>
<path d="M7.75 11.375C7.545 11.375 7.375 11.205 7.375 11V3C7.375 2.795 7.545 2.625 7.75 2.625C7.955 2.625 8.125 2.795 8.125 3V11C8.125 11.205 7.955 11.375 7.75 11.375Z" fill="currentColor"/>
<path d="M5.0504 2.65C5.0504 2.895 4.95039 3.12 4.78539 3.285C4.62039 3.45 4.39539 3.55 4.15039 3.55H3.02539C3.16539 3.365 3.25039 3.125 3.25039 2.875V2.425C3.25039 2.175 3.16539 1.935 3.02539 1.75H4.15039C4.64539 1.75 5.0504 2.155 5.0504 2.65Z" fill="currentColor"/>
<path d="M3.25 2.42417V2.87417C3.25 3.12417 3.165 3.36417 3.025 3.54917C2.645 4.05417 1.865 4.22417 1.14 3.57917C1.06 3.50917 1 3.35917 1 3.25417V2.08417C1 1.98417 1.05 1.84917 1.115 1.77917C1.745 1.11917 2.505 1.21417 2.92 1.62917C2.955 1.66417 2.995 1.70417 3.025 1.74917C3.165 1.93417 3.25 2.17417 3.25 2.42417Z" fill="currentColor"/>
<path d="M6.9502 2.65C6.9502 2.895 7.0502 3.12 7.2152 3.285C7.3802 3.45 7.6052 3.55 7.8502 3.55H8.9752C8.8352 3.365 8.7502 3.125 8.7502 2.875V2.425C8.7502 2.175 8.8352 1.935 8.9752 1.75H7.8502C7.3552 1.75 6.9502 2.155 6.9502 2.65Z" fill="currentColor"/>
<path d="M8.75 2.42417V2.87417C8.75 3.12417 8.835 3.36417 8.975 3.54917C9.355 4.05417 10.135 4.22417 10.86 3.57917C10.94 3.50917 11 3.35917 11 3.25417V2.08417C11 1.98917 10.95 1.84917 10.885 1.77917C10.255 1.11917 9.495 1.21417 9.08 1.62917C9.045 1.66417 9.01 1.70417 8.975 1.74917C8.835 1.93417 8.75 2.17417 8.75 2.42417Z" fill="currentColor"/>
<path d="M5 6.75V8.75C5 9.165 4.665 9.5 4.25 9.5C3.835 9.5 3.5 9.165 3.5 8.75V6.75C3.5 6.335 3.835 6 4.25 6C4.665 6 5 6.335 5 6.75Z" fill="currentColor"/>
</svg>
