<svg width="12" height="12" viewBox="0 0 12 12" fill="none" xmlns="http://www.w3.org/2000/svg">
<path d="M1.37491 9.3254C1.16991 9.3254 0.999909 9.1554 0.999909 8.9504V6.1004C0.974909 4.74539 1.47991 3.46539 2.41991 2.50539C3.35991 1.55039 4.61991 1.02539 5.9749 1.02539C8.7449 1.02539 10.9999 3.28039 10.9999 6.0504V8.9004C10.9999 9.1054 10.8299 9.2754 10.6249 9.2754C10.4199 9.2754 10.2499 9.1054 10.2499 8.9004V6.0504C10.2499 3.69539 8.3349 1.77539 5.9749 1.77539C4.81991 1.77539 3.74991 2.22039 2.95491 3.03039C2.15491 3.84539 1.72991 4.93039 1.74991 6.0904V8.9454C1.74991 9.1554 1.58491 9.3254 1.37491 9.3254Z" fill="currentColor"/>
<path d="M2.97 6.2246H2.905C1.855 6.2246 0.999999 7.0796 0.999999 8.1296V9.0696C0.999999 10.1196 1.855 10.9746 2.905 10.9746H2.97C4.02 10.9746 4.875 10.1196 4.875 9.0696V8.1296C4.875 7.0796 4.02 6.2246 2.97 6.2246Z" fill="currentColor"/>
<path d="M9.095 6.2246H9.03C7.98 6.2246 7.125 7.0796 7.125 8.1296V9.0696C7.125 10.1196 7.98 10.9746 9.03 10.9746H9.095C10.145 10.9746 11 10.1196 11 9.0696V8.1296C11 7.0796 10.145 6.2246 9.095 6.2246Z" fill="currentColor"/>
</svg>
