<svg width="12" height="12" viewBox="0 0 12 12" fill="none" xmlns="http://www.w3.org/2000/svg">
<path d="M11 3.905V6.25H8.96C8.9 6.245 8.77 6.17 8.74 6.115L8.22 5.13C8.015 4.74 7.66 4.52 7.28 4.54C6.9 4.56 6.575 4.815 6.41 5.23L5.72 6.96L5.62 6.7C5.375 6.065 4.675 5.585 3.985 5.585L1 5.6V3.905C1 2.085 2.085 1 3.905 1H8.095C9.915 1 11 2.085 11 3.905Z" fill="currentColor"/>
<path d="M11 8.09435V6.99935H8.96C8.625 6.99935 8.23 6.75935 8.075 6.46435L7.555 5.47935C7.415 5.21435 7.215 5.22935 7.105 5.50435L5.955 8.40935C5.83 8.73435 5.62 8.73435 5.49 8.40935L4.92 6.96935C4.785 6.61935 4.365 6.33435 3.99 6.33435L1 6.34935V8.09435C1 9.88435 2.05 10.9643 3.815 10.9944C3.87 10.9994 3.93 10.9993 3.985 10.9993H7.985C8.06 10.9993 8.135 10.9994 8.205 10.9944C9.96 10.9544 11 9.87935 11 8.09435Z" fill="currentColor"/>
<path d="M1 6.34935L1.00035 8.0046C0.990352 7.8446 0.985352 7.6746 0.985352 7.4996V6.3496L1 6.34935Z" fill="currentColor"/>
</svg>
