<svg width="12" height="12" viewBox="0 0 12 12" fill="none" xmlns="http://www.w3.org/2000/svg">
<path d="M10.3402 6.9542V6.9492C9.9002 6.4842 9.2852 6.1992 8.6002 6.1992C7.2752 6.1992 6.2002 7.2742 6.2002 8.5992C6.2002 9.2142 6.4352 9.7742 6.8152 10.1992C7.2552 10.6892 7.8902 10.9992 8.6002 10.9992C9.9252 10.9992 11.0002 9.9242 11.0002 8.5992C11.0002 7.9642 10.7502 7.3842 10.3402 6.9542ZM9.4952 9.0042H8.9752V9.5492C8.9752 9.7542 8.8052 9.9242 8.6002 9.9242C8.3952 9.9242 8.2252 9.7542 8.2252 9.5492V9.0042H7.7052C7.4952 9.0042 7.3302 8.8392 7.3302 8.6292C7.3302 8.4242 7.4902 8.2592 7.7002 8.2542H8.2252V7.7542C8.2252 7.7442 8.2252 7.7342 8.2302 7.7242C8.2402 7.5342 8.4052 7.3792 8.6002 7.3792C8.8002 7.3792 8.9652 7.5392 8.9752 7.7392V8.2542H9.4952C9.7052 8.2542 9.8702 8.4242 9.8702 8.6292C9.8702 8.8392 9.7052 9.0042 9.4952 9.0042Z" fill="currentColor"/>
<path d="M11 4.36531C11 4.96031 10.905 5.5103 10.74 6.0203C10.71 6.1253 10.585 6.1553 10.495 6.0903C9.95 5.6853 9.285 5.4703 8.6 5.4703C6.865 5.4703 5.45 6.8853 5.45 8.6203C5.45 9.1603 5.59 9.6903 5.855 10.1603C5.935 10.3003 5.84 10.4803 5.69 10.4253C4.485 10.0153 2.05 8.5203 1.26 6.0203C1.095 5.5103 1 4.96031 1 4.36531C1 2.82031 2.245 1.57031 3.78 1.57031C4.685 1.57031 5.495 2.01031 6 2.68531C6.505 2.01031 7.315 1.57031 8.22 1.57031C9.755 1.57031 11 2.82031 11 4.36531Z" fill="currentColor"/>
</svg>
