<svg width="12" height="12" viewBox="0 0 12 12" fill="none" xmlns="http://www.w3.org/2000/svg">
<path d="M8.22 1.55078C7.315 1.55078 6.505 1.99078 6 2.66578C5.495 1.99078 4.685 1.55078 3.78 1.55078C2.245 1.55078 1 2.80078 1 4.34578C1 4.94078 1.095 5.4908 1.26 6.0008C2.05 8.5008 4.485 9.9958 5.69 10.4058C5.86 10.4658 6.14 10.4658 6.31 10.4058C7.515 9.9958 9.95 8.5008 10.74 6.0008C10.905 5.4908 11 4.94078 11 4.34578C11 2.80078 9.755 1.55078 8.22 1.55078ZM7.42 5.6908L5.65 7.4608C5.58 7.5308 5.45 7.5958 5.355 7.6108L4.68 7.7008C4.435 7.7358 4.265 7.5658 4.3 7.3208L4.395 6.6458C4.41 6.5508 4.475 6.4158 4.545 6.3508L6.315 4.58078C6.62 4.27578 6.975 4.13078 7.425 4.58078C7.87 5.0308 7.725 5.3858 7.42 5.6908Z" fill="currentColor"/>
</svg>
