<svg width="12" height="12" viewBox="0 0 12 12" fill="none" xmlns="http://www.w3.org/2000/svg">
<path d="M8.6002 6.1992C7.2752 6.1992 6.2002 7.2742 6.2002 8.5992C6.2002 9.0492 6.3252 9.4742 6.5502 9.8342C6.9652 10.5292 7.7252 10.9992 8.6002 10.9992C9.4752 10.9992 10.2402 10.5292 10.6502 9.8342C10.8702 9.4742 11.0002 9.0492 11.0002 8.5992C11.0002 7.2742 9.9252 6.1992 8.6002 6.1992ZM9.7902 8.2842L8.5102 9.4642C8.4402 9.5292 8.3452 9.5642 8.2552 9.5642C8.1602 9.5642 8.0652 9.5292 7.9902 9.4542L7.4002 8.8642C7.2552 8.7192 7.2552 8.4792 7.4002 8.3342C7.5452 8.1892 7.7852 8.1892 7.9302 8.3342L8.2652 8.6692L9.2802 7.7292C9.4302 7.5892 9.6702 7.5992 9.8102 7.7492C9.9502 7.9042 9.9402 8.1442 9.7902 8.2842Z" fill="currentColor"/>
<path d="M11 4.36531C11 4.96031 10.905 5.5103 10.74 6.0203C10.71 6.1253 10.585 6.1553 10.495 6.0903C9.95 5.6853 9.285 5.4703 8.6 5.4703C6.865 5.4703 5.45 6.8853 5.45 8.6203C5.45 9.1603 5.59 9.6903 5.855 10.1603C5.935 10.3003 5.84 10.4803 5.69 10.4253C4.485 10.0153 2.05 8.5203 1.26 6.0203C1.095 5.5103 1 4.96031 1 4.36531C1 2.82031 2.245 1.57031 3.78 1.57031C4.685 1.57031 5.495 2.01031 6 2.68531C6.505 2.01031 7.315 1.57031 8.22 1.57031C9.755 1.57031 11 2.82031 11 4.36531Z" fill="currentColor"/>
</svg>
