<svg width="12" height="12" viewBox="0 0 12 12" fill="none" xmlns="http://www.w3.org/2000/svg">
<g clip-path="url(#clip0_1652_1332)">
<path d="M11.0005 4.34553C11.0005 4.94053 10.9055 5.49055 10.7405 6.00055C9.95045 8.50055 7.51545 9.99555 6.31045 10.4055C6.14045 10.4655 5.86045 10.4655 5.69045 10.4055C5.37045 10.2955 4.96543 10.1105 4.53043 9.85055C4.25043 9.68555 4.20543 9.29555 4.43543 9.06555L10.0755 3.42553C10.3455 3.15553 10.8205 3.27053 10.9155 3.64053C10.9705 3.86553 11.0005 4.10053 11.0005 4.34553Z" fill="currentColor"/>
<path d="M11.2648 0.735703C11.1198 0.590703 10.8798 0.590703 10.7348 0.735703L9.56475 1.9057C9.16975 1.6807 8.70975 1.5507 8.21975 1.5507C7.31475 1.5507 6.50475 1.9907 5.99975 2.6657C5.49475 1.9907 4.68473 1.5507 3.77973 1.5507C2.24473 1.5507 0.999727 2.8007 0.999727 4.3457C0.999727 4.9407 1.09473 5.4907 1.25973 6.0007C1.58473 7.0357 2.19473 7.9007 2.88473 8.5857L0.734727 10.7357C0.589727 10.8807 0.589727 11.1207 0.734727 11.2657C0.809727 11.3407 0.904727 11.3757 0.999727 11.3757C1.09473 11.3757 1.18973 11.3407 1.26473 11.2657L11.2648 1.2657C11.4098 1.1207 11.4098 0.880703 11.2648 0.735703Z" fill="currentColor"/>
</g>
<defs>
<clipPath id="clip0_1652_1332">
<rect width="12" height="12" fill="currentColor"/>
</clipPath>
</defs>
</svg>
