<svg width="12" height="12" viewBox="0 0 12 12" fill="none" xmlns="http://www.w3.org/2000/svg">
<path d="M10.87 10.2541L10.44 9.82415C10.665 9.48415 10.795 9.07915 10.795 8.64415C10.795 7.45915 9.835 6.49415 8.645 6.49415C7.455 6.49415 6.5 7.45915 6.5 8.64915C6.5 9.83915 7.46 10.7991 8.65 10.7991C9.085 10.7991 9.49 10.6691 9.83 10.4441L10.26 10.8741C10.345 10.9591 10.455 11.0041 10.57 11.0041C10.685 11.0041 10.795 10.9591 10.88 10.8741C11.045 10.6991 11.045 10.4241 10.87 10.2541Z" fill="currentColor"/>
<path d="M11 4.36531C11 4.96031 10.905 5.5103 10.74 6.0203C10.71 6.1253 10.585 6.1553 10.495 6.0903C9.95 5.6853 9.285 5.4703 8.6 5.4703C6.865 5.4703 5.45 6.8853 5.45 8.6203C5.45 9.1603 5.59 9.6903 5.855 10.1603C5.935 10.3003 5.84 10.4803 5.69 10.4253C4.485 10.0153 2.05 8.5203 1.26 6.0203C1.095 5.5103 1 4.96031 1 4.36531C1 2.82031 2.245 1.57031 3.78 1.57031C4.685 1.57031 5.495 2.01031 6 2.68531C6.505 2.01031 7.315 1.57031 8.22 1.57031C9.755 1.57031 11 2.82031 11 4.36531Z" fill="currentColor"/>
</svg>
