<svg width="12" height="12" viewBox="0 0 12 12" fill="none" xmlns="http://www.w3.org/2000/svg">
<path d="M10.3452 6.9592C10.3402 6.9592 10.3402 6.9542 10.3402 6.9542V6.9492C9.9002 6.4892 9.2852 6.1992 8.6002 6.1992C7.2752 6.1992 6.2002 7.2742 6.2002 8.5992C6.2002 9.2142 6.4352 9.7742 6.8152 10.1992C7.2552 10.6892 7.8902 10.9992 8.6002 10.9992C9.9252 10.9992 11.0002 9.9242 11.0002 8.5992C11.0002 7.9642 10.7502 7.3892 10.3452 6.9592ZM9.5052 9.5342C9.4352 9.6042 9.3352 9.6442 9.2402 9.6442C9.1452 9.6442 9.0502 9.6042 8.9752 9.5342L8.6052 9.1642L8.2252 9.5492C8.1502 9.6192 8.0552 9.6592 7.9602 9.6592C7.9102 9.6592 7.8652 9.6492 7.8202 9.6292C7.7752 9.6142 7.7302 9.5842 7.6952 9.5492C7.5452 9.3992 7.5452 9.1642 7.6952 9.0192L8.0752 8.6342L7.7102 8.2642C7.5602 8.1192 7.5602 7.8792 7.7102 7.7342C7.8552 7.5892 8.0902 7.5892 8.2402 7.7342L8.6052 8.1042L8.9602 7.7492C9.1102 7.6042 9.3452 7.6042 9.4902 7.7492C9.5752 7.8342 9.6102 7.9442 9.5952 8.0542C9.5902 8.1392 9.5552 8.2192 9.4902 8.2792L9.1352 8.6342L9.5052 9.0042C9.6552 9.1492 9.6552 9.3842 9.5052 9.5342Z" fill="currentColor"/>
<path d="M11 4.36531C11 4.96031 10.905 5.5103 10.74 6.0203C10.71 6.1253 10.585 6.1553 10.495 6.0903C9.95 5.6853 9.285 5.4703 8.6 5.4703C6.865 5.4703 5.45 6.8853 5.45 8.6203C5.45 9.1603 5.59 9.6903 5.855 10.1603C5.935 10.3003 5.84 10.4803 5.69 10.4253C4.485 10.0153 2.05 8.5203 1.26 6.0203C1.095 5.5103 1 4.96031 1 4.36531C1 2.82031 2.245 1.57031 3.78 1.57031C4.685 1.57031 5.495 2.01031 6 2.68531C6.505 2.01031 7.315 1.57031 8.22 1.57031C9.755 1.57031 11 2.82031 11 4.36531Z" fill="currentColor"/>
</svg>
