<svg width="12" height="12" viewBox="0 0 12 12" fill="none" xmlns="http://www.w3.org/2000/svg">
<path d="M8.095 1H3.905C2.085 1 1 2.085 1 3.905V8.09C1 9.915 2.085 11 3.905 11H8.09C9.91 11 10.995 9.915 10.995 8.095V3.905C11 2.085 9.915 1 8.095 1ZM4.925 8.225C4.925 8.79 4.465 9.25 3.9 9.25C3.335 9.25 2.875 8.79 2.875 8.225C2.875 7.79 3.145 7.425 3.525 7.275V5.13C3.105 4.975 2.8 4.575 2.8 4.1C2.8 3.495 3.295 3 3.9 3C4.505 3 5 3.495 5 4.1C5 4.575 4.695 4.975 4.275 5.13V7.275C4.655 7.425 4.925 7.795 4.925 8.225ZM8.375 9.25C7.81 9.25 7.35 8.79 7.35 8.225C7.35 7.79 7.62 7.425 8 7.275V4.375C8 4.305 7.945 4.25 7.875 4.25H7.31L7.415 4.335C7.575 4.47 7.595 4.705 7.465 4.865C7.39 4.955 7.28 5 7.175 5C7.09 5 7.005 4.97 6.935 4.915L6.035 4.165C5.95 4.09 5.9 3.985 5.9 3.875C5.9 3.765 5.95 3.66 6.035 3.585L6.935 2.835C7.095 2.705 7.33 2.725 7.465 2.885C7.6 3.045 7.575 3.28 7.415 3.415L7.31 3.5H7.875C8.355 3.5 8.75 3.895 8.75 4.375V7.275C9.13 7.425 9.4 7.795 9.4 8.225C9.4 8.79 8.94 9.25 8.375 9.25Z" fill="currentColor"/>
</svg>
