<svg width="12" height="12" viewBox="0 0 12 12" fill="none" xmlns="http://www.w3.org/2000/svg">
<path d="M8.095 1H3.905C2.085 1 1 2.085 1 3.905V8.09C1 9.915 2.085 11 3.905 11H8.09C9.91 11 10.995 9.915 10.995 8.095V3.905C11 2.085 9.915 1 8.095 1ZM8.1 9.125C7.535 9.125 7.075 8.665 7.075 8.1C7.075 7.77 7.235 7.48 7.48 7.29C7.27 6.74 6.745 6.36 6.155 6.38L5.125 6.385H5.12C4.815 6.385 4.525 6.295 4.28 6.14V7.15C4.66 7.3 4.93 7.67 4.93 8.1C4.93 8.665 4.47 9.125 3.905 9.125C3.34 9.125 2.88 8.665 2.88 8.1C2.88 7.665 3.15 7.3 3.53 7.15V4.975C3.15 4.8 2.88 4.42 2.88 3.975C2.88 3.37 3.375 2.875 3.98 2.875C4.585 2.875 5.08 3.37 5.08 3.975C5.08 4.465 4.755 4.875 4.31 5.02C4.41 5.385 4.74 5.64 5.12 5.64C5.12 5.64 5.12 5.64 5.125 5.64L6.155 5.635C6.16 5.635 6.16 5.635 6.165 5.635C7.085 5.635 7.91 6.22 8.21 7.09C8.725 7.145 9.13 7.575 9.13 8.105C9.125 8.665 8.665 9.125 8.1 9.125Z" fill="currentColor"/>
</svg>
