<svg width="12" height="12" viewBox="0 0 12 12" fill="none" xmlns="http://www.w3.org/2000/svg">
<path d="M2.625 4.25C3.52246 4.25 4.25 3.52246 4.25 2.625C4.25 1.72754 3.52246 1 2.625 1C1.72754 1 1 1.72754 1 2.625C1 3.52246 1.72754 4.25 2.625 4.25Z" fill="currentColor"/>
<path d="M2.5 11C3.32842 11 4 10.3285 4 9.5C4 8.67155 3.32842 8 2.5 8C1.67158 8 1 8.67155 1 9.5C1 10.3285 1.67158 11 2.5 11Z" fill="currentColor"/>
<path d="M9.5 11C10.3285 11 11 10.3285 11 9.5C11 8.67155 10.3285 8 9.5 8C8.67155 8 8 8.67155 8 9.5C8 10.3285 8.67155 11 9.5 11Z" fill="currentColor"/>
<path d="M9.585 7.99C9.1 6.6 7.79 5.665 6.315 5.665C6.31 5.665 6.305 5.665 6.3 5.665L4.535 5.67C3.775 5.68 3.095 5.165 2.89 4.425V3.505C2.89 3.295 2.72 3.125 2.505 3.125C2.29 3.125 2.125 3.295 2.125 3.505V9.115C2.125 9.325 2.295 9.495 2.505 9.495C2.715 9.495 2.89 9.325 2.89 9.115V5.805C3.33 6.195 3.905 6.435 4.53 6.435C4.535 6.435 4.535 6.435 4.54 6.435L6.305 6.43C6.31 6.43 6.31 6.43 6.315 6.43C7.46 6.43 8.485 7.155 8.86 8.24C8.92 8.4 9.065 8.5 9.225 8.5C9.265 8.5 9.31 8.495 9.35 8.48C9.55 8.41 9.655 8.19 9.585 7.99Z" fill="currentColor"/>
</svg>
