<svg width="12" height="12" viewBox="0 0 12 12" fill="none" xmlns="http://www.w3.org/2000/svg">
<path d="M8.095 1H3.905C2.085 1 1 2.085 1 3.905V8.09C1 9.915 2.085 11 3.905 11H8.09C9.91 11 10.995 9.915 10.995 8.095V3.905C11 2.085 9.915 1 8.095 1ZM8.205 4.915C7.9 5.785 7.08 6.37 6.16 6.37C6.155 6.37 6.155 6.37 6.15 6.37L5.12 6.365C5.12 6.365 5.12 6.365 5.115 6.365C4.735 6.365 4.405 6.62 4.305 6.985C4.75 7.125 5.075 7.54 5.075 8.03C5.075 8.635 4.58 9.13 3.975 9.13C3.37 9.13 2.875 8.635 2.875 8.03C2.875 7.585 3.145 7.2 3.525 7.03V4.85C3.145 4.7 2.875 4.33 2.875 3.9C2.875 3.335 3.335 2.875 3.9 2.875C4.465 2.875 4.925 3.335 4.925 3.9C4.925 4.335 4.655 4.7 4.275 4.85V5.86C4.52 5.705 4.81 5.615 5.115 5.615H5.12L6.15 5.62C6.74 5.64 7.265 5.26 7.475 4.71C7.23 4.52 7.07 4.23 7.07 3.9C7.07 3.335 7.53 2.875 8.095 2.875C8.66 2.875 9.12 3.335 9.12 3.9C9.125 4.43 8.72 4.86 8.205 4.915Z" fill="currentColor"/>
</svg>
