<svg width="12" height="12" viewBox="0 0 12 12" fill="none" xmlns="http://www.w3.org/2000/svg">
<path d="M2.5 4C3.32842 4 4 3.32842 4 2.5C4 1.67158 3.32842 1 2.5 1C1.67158 1 1 1.67158 1 2.5C1 3.32842 1.67158 4 2.5 4Z" fill="currentColor"/>
<path d="M9.5 7.5C10.3285 7.5 11 6.82845 11 6C11 5.17155 10.3285 4.5 9.5 4.5C8.67155 4.5 8 5.17155 8 6C8 6.82845 8.67155 7.5 9.5 7.5Z" fill="currentColor"/>
<path d="M2.5 11C3.32842 11 4 10.3285 4 9.5C4 8.67155 3.32842 8 2.5 8C1.67158 8 1 8.67155 1 9.5C1 10.3285 1.67158 11 2.5 11Z" fill="currentColor"/>
<path d="M2.5 8.375C2.295 8.375 2.125 8.205 2.125 8V4C2.125 3.795 2.295 3.625 2.5 3.625C2.705 3.625 2.875 3.795 2.875 4C2.875 5.095 3.405 5.625 4.5 5.625H8C8.205 5.625 8.375 5.795 8.375 6C8.375 6.205 8.205 6.375 8 6.375H4.5C3.82 6.375 3.275 6.2 2.875 5.87V8C2.875 8.205 2.705 8.375 2.5 8.375Z" fill="currentColor"/>
</svg>
