<svg width="12" height="12" viewBox="0 0 12 12" fill="none" xmlns="http://www.w3.org/2000/svg">
<path d="M9.375 11C10.2724 11 11 10.2724 11 9.375C11 8.47755 10.2724 7.75 9.375 7.75C8.47755 7.75 7.75 8.47755 7.75 9.375C7.75 10.2724 8.47755 11 9.375 11Z" fill="currentColor"/>
<path d="M9.5 4C10.3285 4 11 3.32842 11 2.5C11 1.67158 10.3285 1 9.5 1C8.67155 1 8 1.67158 8 2.5C8 3.32842 8.67155 4 9.5 4Z" fill="currentColor"/>
<path d="M2.5 4C3.32842 4 4 3.32842 4 2.5C4 1.67158 3.32842 1 2.5 1C1.67158 1 1 1.67158 1 2.5C1 3.32842 1.67158 4 2.5 4Z" fill="currentColor"/>
<path d="M2.41524 4.01C2.90024 5.4 4.21024 6.335 5.68525 6.335C5.69025 6.335 5.69525 6.335 5.70025 6.335L7.46525 6.33C8.22525 6.32 8.90525 6.835 9.11025 7.575V8.5C9.11025 8.71 9.28025 8.88 9.49525 8.88C9.70525 8.88 9.87525 8.71 9.87525 8.5V2.88C9.87525 2.67 9.70525 2.5 9.49525 2.5C9.28525 2.5 9.11025 2.67 9.11025 2.88V6.19C8.67025 5.8 8.09525 5.56 7.47025 5.56C7.46525 5.56 7.46525 5.56 7.46025 5.56L5.69525 5.565C5.69025 5.565 5.69025 5.565 5.68525 5.565C4.54024 5.565 3.51524 4.84 3.14024 3.755C3.08025 3.6 2.93525 3.5 2.77524 3.5C2.73524 3.5 2.69024 3.51 2.65024 3.52C2.45024 3.59 2.34524 3.81 2.41524 4.01Z" fill="currentColor"/>
</svg>
