<svg width="12" height="12" viewBox="0 0 12 12" fill="none" xmlns="http://www.w3.org/2000/svg">
<path d="M10.0201 3.41082L7.1401 1.39582C6.3551 0.845823 5.1501 0.875823 4.39512 1.46082L1.89012 3.41582C1.39012 3.80582 0.995117 4.60582 0.995117 5.2358V8.6858C0.995117 9.9608 2.03012 11.0008 3.30512 11.0008H8.6951C9.9701 11.0008 11.0051 9.9658 11.0051 8.6908V5.3008C11.0051 4.62582 10.5701 3.79582 10.0201 3.41082ZM8.4401 6.7008C8.4401 6.8958 8.2851 7.0508 8.0901 7.0508C7.8951 7.0508 7.7401 6.8958 7.7401 6.7008V6.6108L6.3801 7.9708C6.3051 8.0458 6.2051 8.0808 6.1001 8.0708C6.0001 8.0608 5.9051 8.0008 5.8501 7.9158L5.3401 7.1558L4.15012 8.3458C4.08012 8.4158 3.99512 8.4458 3.90512 8.4458C3.81512 8.4458 3.72512 8.4108 3.66012 8.3458C3.52512 8.2108 3.52512 7.9908 3.66012 7.8508L5.1501 6.3608C5.2251 6.2858 5.3251 6.2508 5.4301 6.2608C5.5351 6.2708 5.6301 6.3258 5.6851 6.4158L6.1951 7.1758L7.2501 6.1208H7.1601C6.9651 6.1208 6.8101 5.9658 6.8101 5.7708C6.8101 5.5758 6.9651 5.4208 7.1601 5.4208H8.0901C8.1351 5.4208 8.1801 5.4308 8.2251 5.4458C8.3101 5.4808 8.3801 5.5508 8.4151 5.6358C8.4351 5.6808 8.4401 5.7258 8.4401 5.7708V6.7008Z" fill="currentColor"/>
</svg>
