<svg width="12" height="12" viewBox="0 0 12 12" fill="none" xmlns="http://www.w3.org/2000/svg">
<path d="M10.4296 4.18492L6.96465 1.41492C6.42965 0.984925 5.56465 0.984925 5.03465 1.40992L1.56964 4.18492C1.17964 4.49492 0.929644 5.1499 1.01464 5.6399L1.67964 9.6199C1.79964 10.3299 2.47964 10.9049 3.19964 10.9049H8.79965C9.51465 10.9049 10.1996 10.3249 10.3196 9.6199L10.9846 5.6399C11.0646 5.1499 10.8146 4.49492 10.4296 4.18492ZM5.99965 7.7499C5.30965 7.7499 4.74964 7.1899 4.74964 6.4999C4.74964 5.8099 5.30965 5.2499 5.99965 5.2499C6.68965 5.2499 7.24965 5.8099 7.24965 6.4999C7.24965 7.1899 6.68965 7.7499 5.99965 7.7499Z" fill="currentColor"/>
</svg>
