<svg width="12" height="12" viewBox="0 0 12 12" fill="none" xmlns="http://www.w3.org/2000/svg">
<path d="M10.4296 4.18492L6.96465 1.41492C6.42965 0.984925 5.56465 0.984925 5.03465 1.40992L1.56964 4.18492C1.17964 4.49492 0.929644 5.1499 1.01464 5.6399L1.67964 9.6199C1.79964 10.3299 2.47964 10.9049 3.19964 10.9049H8.79965C9.51465 10.9049 10.1996 10.3249 10.3196 9.6199L10.9846 5.6399C11.0646 5.1499 10.8146 4.49492 10.4296 4.18492ZM6.35465 8.59995C6.25465 8.6999 6.12965 8.7499 5.99965 8.7499C5.86965 8.7499 5.74465 8.6999 5.64465 8.6049C5.44965 8.4099 5.44965 8.0949 5.64465 7.8999C5.83965 7.7049 6.15965 7.7049 6.35465 7.8999C6.54965 8.0899 6.54965 8.4049 6.35465 8.59995ZM7.32965 7.4499C7.25465 7.5249 7.15965 7.5649 7.05965 7.5649C6.96465 7.5649 6.87465 7.5299 6.79965 7.4599C6.31465 6.9949 5.68465 6.9949 5.19465 7.4599C5.04465 7.6049 4.80964 7.5999 4.66464 7.4499C4.51964 7.2999 4.52464 7.0649 4.67464 6.9199C5.44965 6.1749 6.53465 6.1749 7.31465 6.9199C7.46965 7.0599 7.47465 7.2999 7.32965 7.4499ZM8.38965 6.3899C8.31465 6.4649 8.21965 6.5049 8.11965 6.5049C8.02465 6.5049 7.92965 6.4699 7.85965 6.3999C7.62465 6.1699 7.35965 5.9849 7.07965 5.8499C6.37965 5.5149 5.61465 5.5149 4.91964 5.8499C4.63964 5.9849 4.37964 6.1699 4.13964 6.3999C3.99464 6.5449 3.75464 6.5449 3.60964 6.3949C3.46464 6.2449 3.46964 6.0099 3.61464 5.8649C3.90964 5.5749 4.23964 5.3449 4.59464 5.1749C5.49965 4.73992 6.49965 4.73992 7.39965 5.1749C7.75465 5.3449 8.08465 5.5749 8.37965 5.8649C8.52965 6.0049 8.53465 6.2449 8.38965 6.3899Z" fill="currentColor"/>
</svg>
