<svg width="12" height="12" viewBox="0 0 12 12" fill="none" xmlns="http://www.w3.org/2000/svg">
<path d="M10.415 4.00501L7.14 1.38501C6.5 0.875009 5.5 0.870009 4.86498 1.38001L1.58998 4.00501C1.11998 4.38001 0.834981 5.13 0.934981 5.72L1.56498 9.49C1.70998 10.335 2.49498 11 3.34998 11H8.65C9.495 11 10.295 10.32 10.44 9.485L11.07 5.715C11.16 5.13 10.875 4.38001 10.415 4.00501ZM6.375 9C6.375 9.205 6.205 9.375 6 9.375C5.795 9.375 5.625 9.205 5.625 9V7.5C5.625 7.295 5.795 7.125 6 7.125C6.205 7.125 6.375 7.295 6.375 7.5V9Z" fill="currentColor"/>
</svg>
