<svg width="12" height="12" viewBox="0 0 12 12" fill="none" xmlns="http://www.w3.org/2000/svg">
<path d="M10.0201 3.41082L7.1401 1.39582C6.3551 0.845823 5.1501 0.875823 4.39512 1.46082L1.89012 3.41582C1.39012 3.80582 0.995117 4.60582 0.995117 5.2358V8.6858C0.995117 9.9608 2.03012 11.0008 3.30512 11.0008H8.6951C9.9701 11.0008 11.0051 9.9658 11.0051 8.6908V5.3008C11.0051 4.62582 10.5701 3.79582 10.0201 3.41082ZM8.4401 8.0958C8.4401 8.1408 8.4301 8.1858 8.4151 8.2308C8.3801 8.3158 8.3101 8.3858 8.2251 8.4208C8.1801 8.4408 8.1351 8.4458 8.0901 8.4458H7.1601C6.9651 8.4458 6.8101 8.2908 6.8101 8.0958C6.8101 7.9008 6.9651 7.7458 7.1601 7.7458H7.2501L6.1951 6.6908L5.6851 7.4508C5.6251 7.5358 5.5351 7.5958 5.4301 7.6058C5.3201 7.6158 5.2251 7.5808 5.1501 7.5058L3.66012 6.0158C3.52512 5.8808 3.52512 5.6608 3.66012 5.5208C3.79512 5.3808 4.01512 5.3858 4.15512 5.5208L5.3451 6.7108L5.8551 5.9508C5.9151 5.8658 6.0051 5.8058 6.1101 5.7958C6.2201 5.7858 6.3151 5.8208 6.3901 5.8958L7.7501 7.2558V7.1658C7.7501 6.9708 7.9051 6.8158 8.1001 6.8158C8.2951 6.8158 8.4501 6.9708 8.4501 7.1658V8.0958H8.4401Z" fill="currentColor"/>
</svg>
