<svg width="12" height="12" viewBox="0 0 12 12" fill="none" xmlns="http://www.w3.org/2000/svg">
<path d="M10.0201 3.41082L7.1401 1.39582C6.3551 0.845823 5.1501 0.875823 4.39512 1.46082L1.89012 3.41582C1.39012 3.80582 0.995117 4.60582 0.995117 5.2358V8.6858C0.995117 9.9608 2.03012 11.0008 3.30512 11.0008H8.6951C9.9701 11.0008 11.0051 9.9658 11.0051 8.6908V5.3008C11.0051 4.62582 10.5701 3.79582 10.0201 3.41082ZM6.3751 9.0008C6.3751 9.2058 6.2051 9.3758 6.0001 9.3758C5.7951 9.3758 5.6251 9.2058 5.6251 9.0008V7.5008C5.6251 7.2958 5.7951 7.1258 6.0001 7.1258C6.2051 7.1258 6.3751 7.2958 6.3751 7.5008V9.0008Z" fill="currentColor"/>
</svg>
