<svg width="12" height="12" viewBox="0 0 12 12" fill="none" xmlns="http://www.w3.org/2000/svg">
<path d="M6.3496 8.4399H6.6996C7.2746 8.4399 7.7446 7.9699 7.7446 7.3949V7.0449H6.3496V8.4399Z" fill="currentColor"/>
<path d="M4.25489 7.3949C4.25489 7.9699 4.72488 8.4399 5.2999 8.4399H5.6499V7.0449H4.25489V7.3949Z" fill="currentColor"/>
<path d="M4.25489 6.0001V6.3501H5.6499V4.95508H5.2999C4.72488 4.95508 4.25489 5.4251 4.25489 6.0001Z" fill="currentColor"/>
<path d="M10.015 3.41082L7.14 1.39582C6.355 0.845823 5.155 0.875823 4.4 1.46082L1.895 3.41582C1.39 3.80582 1 4.60582 1 5.2358V8.6858C1 9.9608 2.035 11.0008 3.305 11.0008H8.69C9.96 11.0008 10.995 9.9658 10.995 8.6908V5.3008C11 4.62582 10.565 3.79582 10.015 3.41082ZM8.44 7.3958C8.44 8.3558 7.655 9.1408 6.695 9.1408H5.3C4.34 9.1408 3.555 8.3608 3.555 7.3958V6.0008C3.555 5.0408 4.34 4.25582 5.3 4.25582H6.695C7.655 4.25582 8.44 5.0358 8.44 6.0008V7.3958Z" fill="currentColor"/>
<path d="M6.6996 4.95508H6.3496V6.3501H7.7446V6.0001C7.7446 5.4251 7.2746 4.95508 6.6996 4.95508Z" fill="currentColor"/>
</svg>
