<svg width="12" height="12" viewBox="0 0 12 12" fill="none" xmlns="http://www.w3.org/2000/svg">
<path d="M11 10.625H1C0.795 10.625 0.625 10.795 0.625 11C0.625 11.205 0.795 11.375 1 11.375H11C11.205 11.375 11.375 11.205 11.375 11C11.375 10.795 11.205 10.625 11 10.625Z" fill="currentColor"/>
<path d="M8.5 1H3.5C2 1 1.5 1.895 1.5 3V11H4.5V7.97C4.5 7.71 4.71 7.5 4.97 7.5H7.035C7.29 7.5 7.505 7.71 7.505 7.97V11H10.505V3C10.5 1.895 10 1 8.5 1ZM7.25 4.625H6.375V5.5C6.375 5.705 6.205 5.875 6 5.875C5.795 5.875 5.625 5.705 5.625 5.5V4.625H4.75C4.545 4.625 4.375 4.455 4.375 4.25C4.375 4.045 4.545 3.875 4.75 3.875H5.625V3C5.625 2.795 5.795 2.625 6 2.625C6.205 2.625 6.375 2.795 6.375 3V3.875H7.25C7.455 3.875 7.625 4.045 7.625 4.25C7.625 4.455 7.455 4.625 7.25 4.625Z" fill="currentColor"/>
</svg>
