<svg width="12" height="12" viewBox="0 0 12 12" fill="none" xmlns="http://www.w3.org/2000/svg">
<path d="M5 7.75C4.795 7.75 4.625 7.92 4.625 8.125V8.875C4.625 9.08 4.795 9.25 5 9.25C5.205 9.25 5.375 9.08 5.375 8.875V8.125C5.375 7.92 5.205 7.75 5 7.75Z" fill="currentColor"/>
<path d="M11 10.6244H10.5V4.98938C10.5 4.67938 10.36 4.38938 10.115 4.19938L6.615 1.47938C6.255 1.19438 5.745 1.19438 5.385 1.47938L1.885 4.19938C1.64 4.38938 1.5 4.67937 1.5 4.98438L1.475 10.6244H1C0.795 10.6244 0.625 10.7894 0.625 10.9994C0.625 11.2044 0.795 11.3744 1 11.3744H11C11.205 11.3744 11.375 11.2044 11.375 10.9994C11.375 10.7894 11.205 10.6244 11 10.6244ZM5.25 3.37438H6.75C6.955 3.37438 7.125 3.54438 7.125 3.74938C7.125 3.95438 6.955 4.12437 6.75 4.12437H5.25C5.045 4.12437 4.875 3.95438 4.875 3.74938C4.875 3.54438 5.045 3.37438 5.25 3.37438ZM8.5 10.6244H3.5V6.24935C3.5 5.83435 3.835 5.49935 4.25 5.49935H7.75C8.165 5.49935 8.5 5.83435 8.5 6.24935V10.6244Z" fill="currentColor"/>
</svg>
