<svg width="12" height="12" viewBox="0 0 12 12" fill="none" xmlns="http://www.w3.org/2000/svg">
<g clip-path="url(#clip0_1652_1313)">
<path d="M11.0094 8.41015L9.44435 4.75014C9.15935 4.08014 8.73435 3.70014 8.24935 3.67514C7.76935 3.65014 7.30435 3.98514 6.94935 4.62514L5.99935 6.33015C5.79935 6.69015 5.51435 6.90515 5.20435 6.93015C4.88934 6.96015 4.57434 6.79515 4.31934 6.47015L4.20934 6.33015C3.85434 5.88515 3.41434 5.67015 2.96434 5.71515C2.51434 5.76015 2.12934 6.07015 1.87434 6.57515L1.00934 8.30015C0.699336 8.92515 0.729336 9.65015 1.09434 10.2402C1.45934 10.8302 2.09434 11.1852 2.78934 11.1852H9.16935C9.83935 11.1852 10.4644 10.8502 10.8344 10.2902C11.2144 9.73015 11.2744 9.02515 11.0094 8.41015Z" fill="currentColor"/>
<path d="M3.48492 4.19055C4.41829 4.19055 5.1749 3.43391 5.1749 2.50055C5.1749 1.56719 4.41829 0.810547 3.48492 0.810547C2.55156 0.810547 1.79492 1.56719 1.79492 2.50055C1.79492 3.43391 2.55156 4.19055 3.48492 4.19055Z" fill="currentColor"/>
</g>
<defs>
<clipPath id="clip0_1652_1313">
<rect width="12" height="12" fill="currentColor"/>
</clipPath>
</defs>
</svg>
