<svg width="12" height="12" viewBox="0 0 12 12" fill="none" xmlns="http://www.w3.org/2000/svg">
<path d="M10.57 4.94922H6.34V6.7842L7.125 5.9992C7.27 5.8542 7.51 5.8542 7.655 5.9992C7.8 6.1442 7.8 6.3842 7.655 6.5292L6.23 7.9492C6.085 8.0942 5.845 8.0942 5.7 7.9492L4.275 6.5292C4.2 6.4542 4.165 6.3592 4.165 6.2642C4.165 6.1692 4.205 6.0742 4.28 5.9992C4.425 5.8542 4.665 5.8542 4.81 5.9992L5.59 6.7792V4.94922H1.43C1.19 4.94922 1 5.1392 1 5.3792C1 8.3242 3.055 10.3792 6 10.3792C8.945 10.3792 11 8.3242 11 5.3792C11 5.1392 10.81 4.94922 10.57 4.94922Z" fill="currentColor"/>
<path d="M6.33985 1.99414C6.33985 1.78914 6.16985 1.61914 5.96485 1.61914C5.75985 1.61914 5.58985 1.78914 5.58985 1.99414V4.94414H6.33985V1.99414Z" fill="currentColor"/>
</svg>
