<svg width="12" height="12" viewBox="0 0 12 12" fill="none" xmlns="http://www.w3.org/2000/svg">
<path d="M8.4 4.5H6.375V6.72L7.41 5.685C7.485 5.61 7.58 5.575 7.675 5.575C7.77 5.575 7.865 5.61 7.94 5.685C8.085 5.83 8.085 6.07 7.94 6.215L6.265 7.89C6.12 8.035 5.88 8.035 5.735 7.89L4.06 6.215C3.915 6.07 3.915 5.83 4.06 5.685C4.205 5.54 4.445 5.54 4.59 5.685L5.625 6.72V4.5H3.6C2 4.5 1 5.5 1 7.1V8.395C1 10 2 11 3.6 11H8.395C9.995 11 10.995 10 10.995 8.4V7.1C11 5.5 10 4.5 8.4 4.5Z" fill="currentColor"/>
<path d="M6.375 1.375C6.375 1.17 6.205 1 6 1C5.795 1 5.625 1.17 5.625 1.375V4.5H6.375V1.375Z" fill="currentColor"/>
</svg>
