<svg width="12" height="12" viewBox="0 0 12 12" fill="none" xmlns="http://www.w3.org/2000/svg">
<path d="M6 1C3.24 1 1 3.24 1 6C1 8.76 3.24 11 6 11C8.76 11 11 8.76 11 6C11 3.24 8.76 1 6 1ZM8.765 3.765L4.905 7.625H6.415C6.62 7.625 6.79 7.795 6.79 8C6.79 8.205 6.62 8.375 6.415 8.375H4C3.795 8.375 3.625 8.205 3.625 8V5.585C3.625 5.38 3.795 5.21 4 5.21C4.205 5.21 4.375 5.38 4.375 5.585V7.095L8.235 3.235C8.31 3.16 8.405 3.125 8.5 3.125C8.595 3.125 8.69 3.16 8.765 3.235C8.91 3.38 8.91 3.62 8.765 3.765Z" fill="currentColor"/>
</svg>
