<svg width="12" height="12" viewBox="0 0 12 12" fill="none" xmlns="http://www.w3.org/2000/svg">
<path d="M10.7804 5.36905L10.1054 4.57906C9.98045 4.42906 9.87545 4.14906 9.87545 3.94906V3.09906C9.87545 2.56906 9.44045 2.13406 8.91045 2.13406H8.06045C7.86045 2.13406 7.57545 2.02906 7.42545 1.90406L6.63545 1.22906C6.29045 0.934064 5.72545 0.934064 5.38045 1.22906L4.58043 1.90406C4.43043 2.02906 4.15043 2.13406 3.95043 2.13406H3.08543C2.55543 2.13406 2.12043 2.56906 2.12043 3.09906V3.94906C2.12043 4.14406 2.02043 4.42406 1.89543 4.57406L1.22043 5.36905C0.93043 5.71905 0.93043 6.27905 1.22043 6.61905L1.89543 7.41405C2.02043 7.55905 2.12043 7.84405 2.12043 8.03905V8.89405C2.12043 9.42405 2.55543 9.85905 3.08543 9.85905H3.95543C4.15043 9.85905 4.43543 9.96405 4.58543 10.089L5.37545 10.764C5.72045 11.059 6.28545 11.059 6.63045 10.764L7.42045 10.089C7.57045 9.96405 7.85045 9.85905 8.05045 9.85905H8.90045C9.43045 9.85905 9.86545 9.42405 9.86545 8.89405V8.04405C9.86545 7.84405 9.97045 7.56405 10.0955 7.41405L10.7704 6.62405C11.0754 6.28405 11.0754 5.71905 10.7804 5.36905ZM5.62545 4.06406C5.62545 3.85906 5.79545 3.68906 6.00045 3.68906C6.20545 3.68906 6.37545 3.85906 6.37545 4.06406V6.47905C6.37545 6.68405 6.20545 6.85405 6.00045 6.85405C5.79545 6.85405 5.62545 6.68405 5.62545 6.47905V4.06406ZM6.00045 8.43405C5.72545 8.43405 5.50045 8.20905 5.50045 7.93405C5.50045 7.65905 5.72045 7.43405 6.00045 7.43405C6.27545 7.43405 6.50045 7.65905 6.50045 7.93405C6.50045 8.20905 6.28045 8.43405 6.00045 8.43405Z" fill="currentColor"/>
</svg>
