<svg width="12" height="12" viewBox="0 0 12 12" fill="none" xmlns="http://www.w3.org/2000/svg">
<path d="M8.095 1H3.905C2.085 1 1 2.085 1 3.905V8.09C1 9.915 2.085 11 3.905 11H8.09C9.91 11 10.995 9.915 10.995 8.095V3.905C11 2.085 9.915 1 8.095 1ZM6 7.94C4.93 7.94 4.06 7.07 4.06 6C4.06 4.93 4.93 4.06 6 4.06C7.07 4.06 7.94 4.93 7.94 6C7.94 7.07 7.07 7.94 6 7.94ZM8.96 3.44C8.935 3.5 8.9 3.555 8.855 3.605C8.805 3.65 8.75 3.685 8.69 3.71C8.63 3.735 8.565 3.75 8.5 3.75C8.365 3.75 8.24 3.7 8.145 3.605C8.1 3.555 8.065 3.5 8.04 3.44C8.015 3.38 8 3.315 8 3.25C8 3.185 8.015 3.12 8.04 3.06C8.065 2.995 8.1 2.945 8.145 2.895C8.26 2.78 8.435 2.725 8.595 2.76C8.63 2.765 8.66 2.775 8.69 2.79C8.72 2.8 8.75 2.815 8.78 2.835C8.805 2.85 8.83 2.875 8.855 2.895C8.9 2.945 8.935 2.995 8.96 3.06C8.985 3.12 9 3.185 9 3.25C9 3.315 8.985 3.38 8.96 3.44Z" fill="currentColor"/>
</svg>
