<svg width="12" height="12" viewBox="0 0 12 12" fill="none" xmlns="http://www.w3.org/2000/svg">
<path d="M10.2697 9.52065C10.1947 9.59565 10.0997 9.63065 10.0047 9.63065C9.90965 9.63065 9.81465 9.59565 9.73965 9.52065L7.26465 7.04565L7.79465 6.5156L10.2697 8.9906C10.4146 9.1356 10.4146 9.37565 10.2697 9.52065Z" fill="currentColor"/>
<path d="M3.23468 4.63907L6.1347 7.53905C6.3297 7.73405 6.3297 8.04905 6.1347 8.24405L5.6847 8.69905C5.2797 9.09905 4.63969 9.09905 4.23969 8.69905L2.06969 6.52905C1.67469 6.13405 1.67469 5.48905 2.06969 5.08905L2.52469 4.63407C2.71969 4.44407 3.03968 4.44407 3.23468 4.63907Z" fill="currentColor"/>
<path d="M9.2949 5.09485L7.3899 6.99485C7.1899 7.19485 6.8699 7.19485 6.6699 6.99485L3.77989 4.10484C3.57989 3.90484 3.57989 3.58484 3.77989 3.38484L5.6849 1.47984C6.0799 1.08484 6.7249 1.08484 7.1249 1.47984L9.2949 3.64984C9.6899 4.04984 9.6899 4.68984 9.2949 5.09485Z" fill="currentColor"/>
<path d="M4 10.875H1C0.795 10.875 0.625 10.705 0.625 10.5C0.625 10.295 0.795 10.125 1 10.125H4C4.205 10.125 4.375 10.295 4.375 10.5C4.375 10.705 4.205 10.875 4 10.875Z" fill="currentColor"/>
</svg>
