<svg width="12" height="12" viewBox="0 0 12 12" fill="none" xmlns="http://www.w3.org/2000/svg">
<path d="M6.625 6C6.9702 6 7.25 5.7202 7.25 5.375C7.25 5.0298 6.9702 4.75 6.625 4.75C6.2798 4.75 6 5.0298 6 5.375C6 5.7202 6.2798 6 6.625 6Z" fill="currentColor"/>
<path d="M8.095 1H3.905C2.085 1 1 2.085 1 3.905V8.09C1 9.915 2.085 11 3.905 11H8.09C9.91 11 10.995 9.915 10.995 8.095V3.905C11 2.085 9.915 1 8.095 1ZM7.945 6.735C7.43 7.245 6.695 7.405 6.045 7.2L5.515 7.725C5.47 7.77 5.39 7.77 5.34 7.725L4.855 7.24C4.785 7.17 4.665 7.17 4.59 7.24C4.515 7.31 4.52 7.43 4.59 7.505L5.075 7.99C5.125 8.04 5.125 8.12 5.075 8.165L4.87 8.37C4.785 8.46 4.62 8.515 4.5 8.5L3.955 8.425C3.775 8.4 3.61 8.23 3.58 8.05L3.505 7.505C3.485 7.385 3.545 7.22 3.625 7.135L4.8 5.96C4.6 5.31 4.755 4.575 5.27 4.06C6.005 3.325 7.205 3.325 7.945 4.06C8.685 4.795 8.685 5.995 7.945 6.735Z" fill="currentColor"/>
</svg>
