<svg width="12" height="12" viewBox="0 0 12 12" fill="none" xmlns="http://www.w3.org/2000/svg">
<path d="M9.89435 2.11016C8.41435 0.635156 6.01435 0.635156 4.54434 2.11016C3.50934 3.13516 3.19934 4.61016 3.59934 5.91015L1.24934 8.26015C1.08434 8.43015 0.969341 8.76515 1.00434 9.00515L1.15434 10.0952C1.20934 10.4552 1.54434 10.7952 1.90434 10.8452L2.99434 10.9952C3.23434 11.0302 3.56934 10.9202 3.73934 10.7452L4.14934 10.3352C4.24934 10.2402 4.24934 10.0802 4.14934 9.98015L3.17934 9.01015C3.03434 8.86515 3.03434 8.62515 3.17934 8.48015C3.32434 8.33515 3.56434 8.33515 3.70934 8.48015L4.68434 9.45515C4.77934 9.55015 4.93934 9.55015 5.03435 9.45515L6.09435 8.40015C7.38935 8.80515 8.86435 8.49015 9.89435 7.46515C11.3694 5.99015 11.3694 3.58516 9.89435 2.11016ZM7.24935 6.00015C6.55935 6.00015 5.99935 5.44015 5.99935 4.75016C5.99935 4.06016 6.55935 3.50016 7.24935 3.50016C7.93935 3.50016 8.49935 4.06016 8.49935 4.75016C8.49935 5.44015 7.93935 6.00015 7.24935 6.00015Z" fill="currentColor"/>
</svg>
