<svg width="12" height="12" viewBox="0 0 12 12" fill="none" xmlns="http://www.w3.org/2000/svg">
<path d="M9.135 1.675C8.9 1.64 8.63 1.625 8.25 1.625H3.75C3.375 1.625 3.1 1.64 2.88 1.67C1.205 1.855 0.875 2.85 0.875 4.5V7.5C0.875 9.15 1.205 10.145 2.865 10.325C3.1 10.36 3.37 10.375 3.75 10.375H8.25C8.625 10.375 8.9 10.36 9.12 10.33C10.795 10.145 11.125 9.155 11.125 7.5V4.5C11.125 2.85 10.795 1.855 9.135 1.675ZM5.045 4.5C5.325 4.5 5.55 4.725 5.55 5C5.55 5.275 5.325 5.5 5.05 5.5C4.775 5.5 4.55 5.275 4.55 5C4.55 4.725 4.77 4.5 5.045 4.5ZM3.545 4.5C3.83 4.5 4.05 4.725 4.05 5C4.05 5.275 3.825 5.5 3.55 5.5C3.275 5.5 3.05 5.275 3.05 5C3.05 4.725 3.27 4.5 3.545 4.5ZM8.5 8.125H3.51C3.305 8.125 3.13 7.955 3.13 7.75C3.13 7.545 3.295 7.375 3.5 7.375H8.5C8.705 7.375 8.875 7.545 8.875 7.75C8.875 7.955 8.705 8.125 8.5 8.125ZM8.5 5.375H6.75C6.545 5.375 6.375 5.205 6.375 5C6.375 4.795 6.545 4.625 6.75 4.625H8.5C8.705 4.625 8.875 4.795 8.875 5C8.875 5.205 8.705 5.375 8.5 5.375Z" fill="currentColor"/>
</svg>
