<svg width="12" height="12" viewBox="0 0 12 12" fill="none" xmlns="http://www.w3.org/2000/svg">
<path d="M8.5 11.375H3.5C3.295 11.375 3.125 11.205 3.125 11C3.125 10.795 3.295 10.625 3.5 10.625H8.5C8.705 10.625 8.875 10.795 8.875 11C8.875 11.205 8.705 11.375 8.5 11.375Z" fill="currentColor"/>
<path d="M9 1H3C1.895 1 1 1.895 1 3V7.5C1 8.605 1.895 9.5 3 9.5H9C10.105 9.5 11 8.605 11 7.5V3C11 1.895 10.105 1 9 1ZM4.995 3.66C5.275 3.66 5.5 3.885 5.5 4.16C5.5 4.435 5.275 4.66 5 4.66C4.725 4.66 4.5 4.435 4.5 4.16C4.5 3.885 4.72 3.66 4.995 3.66ZM3.42 3.66C3.7 3.66 3.925 3.885 3.925 4.16C3.925 4.435 3.7 4.66 3.425 4.66C3.15 4.66 2.925 4.435 2.925 4.16C2.925 3.885 3.14 3.66 3.42 3.66ZM8.63 7.43H3.38C3.17 7.43 3 7.26 3 7.055C3 6.85 3.165 6.68 3.37 6.68H8.635C8.84 6.68 9.01 6.85 9.01 7.055C9.01 7.26 8.84 7.43 8.63 7.43ZM8.63 4.535H6.79C6.585 4.535 6.415 4.365 6.415 4.16C6.415 3.955 6.585 3.785 6.79 3.785H8.63C8.835 3.785 9.005 3.955 9.005 4.16C9.005 4.365 8.84 4.535 8.63 4.535Z" fill="currentColor"/>
</svg>
