<svg width="12" height="12" viewBox="0 0 12 12" fill="none" xmlns="http://www.w3.org/2000/svg">
<path d="M6.25035 2.74062C6.29035 2.74062 6.33035 2.74063 6.37535 2.74563V1.26562C6.37535 1.06063 6.20535 0.890625 6.00035 0.890625C5.79535 0.890625 5.62535 1.06063 5.62535 1.26562V2.74563C5.66535 2.74063 5.70535 2.74062 5.75035 2.74062C3.44535 2.85562 1.61035 4.75563 1.61035 7.09065V8.06065C1.61035 8.61065 2.06035 9.06065 2.61035 9.06065H9.39035C9.94035 9.06065 10.3904 8.61065 10.3904 8.06065V7.09065C10.3904 4.75563 8.55535 2.85562 6.25035 2.74062Z" fill="currentColor"/>
<path d="M7.3646 9.5547C7.5296 9.5547 7.6496 9.7097 7.6096 9.8697C7.4196 10.5847 6.7696 11.1097 5.9996 11.1097C5.2296 11.1097 4.57958 10.5847 4.38958 9.8697C4.34958 9.7097 4.46958 9.5547 4.63458 9.5547H7.3646Z" fill="currentColor"/>
</svg>
