<svg width="12" height="12" viewBox="0 0 12 12" fill="none" xmlns="http://www.w3.org/2000/svg">
<path d="M7.6296 10.9992C7.5996 10.9992 7.5646 10.9942 7.5346 10.9842C6.5296 10.6992 5.4746 10.6992 4.46959 10.9842C4.28459 11.0342 4.08959 10.9292 4.03959 10.7442C3.98459 10.5592 4.09459 10.3642 4.27959 10.3142C5.4096 9.9942 6.5996 9.9942 7.7296 10.3142C7.9146 10.3692 8.0246 10.5592 7.9696 10.7442C7.9196 10.8992 7.7796 10.9992 7.6296 10.9992Z" fill="currentColor"/>
<path d="M9.60535 3.18074C9.08535 2.13074 8.08035 1.35574 6.91535 1.10074C5.69535 0.830738 4.44535 1.12074 3.49035 1.89074C2.53035 2.65574 1.98535 3.80074 1.98535 5.02575C1.98535 6.32075 2.76035 7.67575 3.93035 8.46075V8.87575C3.92535 9.01575 3.92035 9.23075 4.09035 9.40575C4.26535 9.58575 4.52535 9.60575 4.73035 9.60575H7.29535C7.56535 9.60575 7.77035 9.53075 7.91035 9.39075C8.10035 9.19575 8.09535 8.94575 8.09035 8.81075V8.46075C9.64035 7.41575 10.6154 5.21075 9.60535 3.18074ZM6.86035 5.81075L6.32535 6.74075C6.25535 6.86075 6.13035 6.93075 6.00035 6.93075C5.93535 6.93075 5.87035 6.91575 5.81535 6.88075C5.63535 6.77575 5.57535 6.54575 5.67535 6.37075L6.10035 5.63075H5.68035C5.43035 5.63075 5.22535 5.52075 5.11535 5.33575C5.00535 5.14575 5.01535 4.91574 5.14035 4.69574L5.67535 3.76574C5.78035 3.58574 6.01035 3.52574 6.18535 3.62574C6.36535 3.73074 6.42535 3.96074 6.32535 4.13574L5.90035 4.87574H6.32035C6.57035 4.87574 6.77535 4.98574 6.88535 5.17075C6.99535 5.36075 6.98535 5.59575 6.86035 5.81075Z" fill="currentColor"/>
</svg>
