<svg width="12" height="12" viewBox="0 0 12 12" fill="none" xmlns="http://www.w3.org/2000/svg">
<path d="M7.85035 2.17454L3.20035 6.82455C2.96535 7.05955 2.55535 7.00955 2.40535 6.70955C2.13535 6.17455 1.98535 5.58955 1.98535 5.02455C1.98535 3.79954 2.53035 2.65454 3.48535 1.88454C4.44035 1.11454 5.69035 0.829542 6.91535 1.09954C7.18535 1.15954 7.45035 1.24454 7.70035 1.35954C8.02035 1.50454 8.10035 1.92454 7.85035 2.17454Z" fill="currentColor"/>
<path d="M7.7247 10.3142C6.5947 9.9942 5.4047 9.9942 4.27471 10.3142C4.08971 10.3692 3.97971 10.5592 4.03471 10.7442C4.08971 10.9292 4.27971 11.0342 4.46471 10.9842C5.4697 10.6992 6.5247 10.6992 7.5297 10.9842C7.5597 10.9942 7.5947 10.9992 7.6247 10.9992C7.7747 10.9992 7.9147 10.8992 7.9597 10.7442C8.0147 10.5592 7.9097 10.3692 7.7247 10.3142Z" fill="currentColor"/>
<path d="M10.2795 0.975938C10.1345 0.830938 9.89455 0.830938 9.74955 0.975938L1.82457 8.90095C1.67957 9.04595 1.67957 9.28595 1.82457 9.43095C1.89957 9.50595 1.99457 9.54095 2.08957 9.54095C2.18457 9.54095 2.27957 9.50595 2.35457 9.43095L3.58457 8.20095C3.69457 8.29095 3.80957 8.38095 3.92957 8.46095V8.87595C3.92457 9.01595 3.91957 9.23095 4.08457 9.40595C4.25957 9.58095 4.51957 9.60595 4.72457 9.60595H7.28955C7.55955 9.60595 7.76455 9.53095 7.90455 9.39095C8.09955 9.19095 8.08955 8.94095 8.08455 8.81095V8.46095C9.63955 7.41595 10.6146 5.21095 9.60455 3.18094C9.49455 2.96594 9.35955 2.76093 9.20955 2.57093L10.2746 1.50593C10.4246 1.36093 10.4246 1.12093 10.2795 0.975938Z" fill="currentColor"/>
</svg>
