<svg width="12" height="12" viewBox="0 0 12 12" fill="none" xmlns="http://www.w3.org/2000/svg">
<path d="M10.2153 5.89L9.1153 1.85C8.9903 1.385 8.4853 1 8.0053 1H3.9953C3.5153 1 3.0103 1.385 2.8853 1.85L1.7853 5.89C1.5653 6.69 2.0653 7.345 2.8953 7.345H5.6253V10.25H4.0003C3.7953 10.25 3.6253 10.42 3.6253 10.625C3.6253 10.83 3.7953 11 4.0003 11H8.0003C8.2053 11 8.3753 10.83 8.3753 10.625C8.3753 10.42 8.2053 10.25 8.0003 10.25H6.3753V7.345H9.1053C9.9353 7.345 10.4353 6.69 10.2153 5.89Z" fill="currentColor"/>
</svg>
