<svg width="12" height="12" viewBox="0 0 12 12" fill="none" xmlns="http://www.w3.org/2000/svg">
<path d="M6 1C3.24 1 1 3.24 1 6C1 8.76 3.24 11 6 11C8.76 11 11 8.76 11 6C11 3.24 8.76 1 6 1ZM8.5 8.735C7.645 8.735 6.845 8.365 6.205 7.68C5.48 8.335 4.535 8.735 3.5 8.735C3.295 8.735 3.125 8.565 3.125 8.36C3.125 8.155 3.295 7.985 3.5 7.985C5.235 7.985 6.67 6.61 6.855 4.85H6H3.505C3.3 4.85 3.13 4.68 3.13 4.475C3.13 4.27 3.3 4.105 3.505 4.105H5.625V3.64C5.625 3.435 5.795 3.265 6 3.265C6.205 3.265 6.375 3.435 6.375 3.64V4.105H7.22C7.23 4.105 7.24 4.1 7.25 4.1C7.26 4.1 7.27 4.105 7.28 4.105H8.495C8.7 4.105 8.87 4.275 8.87 4.48C8.87 4.685 8.7 4.855 8.495 4.855H7.605C7.53 5.71 7.21 6.495 6.72 7.135C7.22 7.69 7.845 7.99 8.5 7.99C8.705 7.99 8.875 8.16 8.875 8.365C8.875 8.57 8.705 8.735 8.5 8.735Z" fill="currentColor"/>
</svg>
