<svg width="12" height="12" viewBox="0 0 12 12" fill="none" xmlns="http://www.w3.org/2000/svg">
<path d="M9.68485 2.44555L6.75485 1.14055C6.32485 0.950547 5.67485 0.950547 5.24485 1.14055L2.31485 2.44555C1.57485 2.77555 1.46485 3.22555 1.46485 3.46555C1.46485 3.70555 1.57485 4.15555 2.31485 4.48555L5.24485 5.79055C5.45985 5.88555 5.72985 5.93555 5.99985 5.93555C6.26985 5.93555 6.53985 5.88555 6.75485 5.79055L9.68485 4.48555C10.4249 4.15555 10.5349 3.70555 10.5349 3.46555C10.5349 3.22555 10.4299 2.77555 9.68485 2.44555Z" fill="currentColor"/>
<path d="M6.00015 8.52C5.81015 8.52 5.62015 8.48 5.44515 8.405L2.07516 6.905C1.56016 6.675 1.16016 6.06 1.16016 5.495C1.16016 5.29 1.32516 5.125 1.53016 5.125C1.73516 5.125 1.90016 5.29 1.90016 5.495C1.90016 5.765 2.12516 6.115 2.37516 6.225L5.74515 7.725C5.90515 7.795 6.09015 7.795 6.25015 7.725L9.62015 6.225C9.87015 6.115 10.0952 5.77 10.0952 5.495C10.0952 5.29 10.2602 5.125 10.4652 5.125C10.6702 5.125 10.8352 5.29 10.8352 5.495C10.8352 6.055 10.4352 6.675 9.92015 6.905L6.55015 8.405C6.38015 8.48 6.19015 8.52 6.00015 8.52Z" fill="currentColor"/>
<path d="M6.00015 11.0005C5.81015 11.0005 5.62015 10.9605 5.44515 10.8855L2.07516 9.38545C1.52016 9.14045 1.16016 8.58545 1.16016 7.97545C1.16016 7.77045 1.32516 7.60545 1.53016 7.60545C1.73516 7.60545 1.90016 7.77045 1.90016 7.97545C1.90016 8.29045 2.08516 8.57545 2.37516 8.70545L5.74515 10.2055C5.90515 10.2755 6.09015 10.2755 6.25015 10.2055L9.62015 8.70545C9.90515 8.58045 10.0952 8.29045 10.0952 7.97545C10.0952 7.77045 10.2602 7.60545 10.4652 7.60545C10.6702 7.60545 10.8352 7.77045 10.8352 7.97545C10.8352 8.58545 10.4752 9.13545 9.92015 9.38545L6.55015 10.8855C6.38015 10.9605 6.19015 11.0005 6.00015 11.0005Z" fill="currentColor"/>
</svg>
