<svg width="12" height="12" viewBox="0 0 12 12" fill="none" xmlns="http://www.w3.org/2000/svg">
<path d="M6 1C3.24 1 1 3.24 1 6C1 8.76 3.24 11 6 11C8.76 11 11 8.76 11 6C11 3.24 8.76 1 6 1ZM3.5 6.375H2.5C2.295 6.375 2.125 6.205 2.125 6C2.125 5.795 2.295 5.625 2.5 5.625H3.5C3.705 5.625 3.875 5.795 3.875 6C3.875 6.205 3.705 6.375 3.5 6.375ZM6 7.125C5.38 7.125 4.875 6.62 4.875 6C4.875 5.38 5.38 4.875 6 4.875C6.62 4.875 7.125 5.38 7.125 6C7.125 6.62 6.62 7.125 6 7.125ZM9.5 6.375H8.5C8.295 6.375 8.125 6.205 8.125 6C8.125 5.795 8.295 5.625 8.5 5.625H9.5C9.705 5.625 9.875 5.795 9.875 6C9.875 6.205 9.705 6.375 9.5 6.375Z" fill="currentColor"/>
</svg>
