<svg width="12" height="12" viewBox="0 0 12 12" fill="none" xmlns="http://www.w3.org/2000/svg">
<path d="M3.75035 6.00025C3.75035 5.6687 3.82431 5.3538 3.95574 5.06885C4.0575 4.84821 4.03998 4.57986 3.86818 4.40806L2.57965 3.11953C2.37462 2.9145 2.03656 2.92527 1.87107 3.16336C1.31084 3.96933 0.985352 4.94722 0.985352 6.00025C0.985352 7.0524 1.31034 8.0296 1.86674 8.83525C2.03174 9.07415 2.37032 9.0857 2.57589 8.88065L3.86742 7.5924C4.03961 7.42065 4.05732 7.152 3.95551 6.93115C3.82422 6.6463 3.75035 6.3316 3.75035 6.00025Z" fill="currentColor"/>
<path d="M6.00045 3.75C6.33205 3.75 6.6469 3.82396 6.93185 3.95539C7.1525 4.05714 7.42085 4.03963 7.59265 3.86783L8.86725 2.59321C9.0719 2.38858 9.06165 2.05128 8.8243 1.8857C8.02125 1.32548 7.0427 1 5.98545 1C4.93337 1 3.95983 1.32493 3.15536 1.88124C2.91655 2.04639 2.90499 2.38496 3.11004 2.59053L4.39057 3.87434C4.56353 4.04773 4.83451 4.06437 5.0563 3.96053C5.3432 3.8262 5.6623 3.75 6.00045 3.75Z" fill="currentColor"/>
<path d="M9.94525 2.95218C9.8564 2.83737 9.6877 2.8314 9.58495 2.93392L7.97555 4.53919C7.88885 4.62566 7.8789 4.76152 7.94085 4.86714C8.13605 5.19985 8.2502 5.58525 8.2502 5.99915C8.2502 6.41315 8.13595 6.7986 7.9407 7.1314C7.8788 7.2369 7.88865 7.3726 7.97515 7.4591L9.58495 9.06885C9.68765 9.1716 9.85655 9.16575 9.9454 9.0508C10.5981 8.20665 10.9852 7.14755 10.9852 5.99915C10.9852 4.85062 10.598 3.79572 9.94525 2.95218Z" fill="currentColor"/>
<path d="M5.9996 8.2492C5.5856 8.2492 5.20015 8.135 4.86737 7.9397C4.76186 7.8778 4.62617 7.88765 4.53967 7.97415L2.91488 9.59895C2.81214 9.7017 2.81801 9.87055 2.93296 9.95945C3.77712 10.6121 4.8362 10.9992 5.9846 10.9992C7.1382 10.9992 8.19805 10.6117 9.0385 9.9546C9.1525 9.86545 9.1578 9.69745 9.0555 9.5951L7.4432 7.9828C7.3573 7.8969 7.22275 7.88655 7.11755 7.94725C6.786 8.1385 6.4053 8.2492 5.9996 8.2492Z" fill="currentColor"/>
</svg>
