<svg width="12" height="12" viewBox="0 0 12 12" fill="none" xmlns="http://www.w3.org/2000/svg">
<path d="M9 1H3C2.17 1 1.5 1.665 1.5 2.485V7.94C1.5 8.76 2.17 9.425 3 9.425H3.38C3.78 9.425 4.16 9.58 4.44 9.86L5.295 10.705C5.685 11.09 6.32 11.09 6.71 10.705L7.565 9.86C7.845 9.58 8.23 9.425 8.625 9.425H9C9.83 9.425 10.5 8.76 10.5 7.94V2.485C10.5 1.665 9.83 1 9 1ZM8.34 5.25L7.755 7.03C7.68 7.325 7.365 7.565 7.045 7.565H6.12C5.96 7.565 5.735 7.51 5.635 7.41L4.9 6.835C4.885 7.155 4.74 7.29 4.385 7.29H4.145C3.775 7.29 3.625 7.145 3.625 6.795V4.41C3.625 4.06 3.775 3.915 4.145 3.915H4.39C4.76 3.915 4.91 4.06 4.91 4.41V4.59L5.88 3.15C5.98 2.995 6.235 2.885 6.45 2.97C6.685 3.05 6.835 3.31 6.785 3.54L6.665 4.32C6.65 4.385 6.665 4.455 6.71 4.5C6.75 4.545 6.81 4.575 6.875 4.575H7.85C8.04 4.575 8.2 4.65 8.295 4.785C8.385 4.915 8.4 5.08 8.34 5.25Z" fill="currentColor"/>
</svg>
