<svg width="12" height="12" viewBox="0 0 12 12" fill="none" xmlns="http://www.w3.org/2000/svg">
<path d="M9 1H3C2.17 1 1.5 1.665 1.5 2.485V7.94C1.5 8.76 2.17 9.425 3 9.425H3.38C3.78 9.425 4.16 9.58 4.44 9.86L5.295 10.705C5.685 11.09 6.32 11.09 6.71 10.705L7.565 9.86C7.845 9.58 8.23 9.425 8.625 9.425H9C9.83 9.425 10.5 8.76 10.5 7.94V2.485C10.5 1.665 9.83 1 9 1ZM6.14 7.48C6.065 7.505 5.94 7.505 5.86 7.48C5.21 7.255 3.75 6.33 3.75 4.755C3.755 4.06 4.31 3.5 5 3.5C5.41 3.5 5.77 3.695 6 4C6.23 3.695 6.59 3.5 7 3.5C7.69 3.5 8.25 4.06 8.25 4.755C8.245 6.33 6.79 7.255 6.14 7.48Z" fill="currentColor"/>
</svg>
