<svg width="12" height="12" viewBox="0 0 12 12" fill="none" xmlns="http://www.w3.org/2000/svg">
<path d="M10.7804 5.3693L10.1004 4.5793C9.97045 4.4293 9.86545 4.1493 9.86545 3.9493V3.0993C9.86545 2.5693 9.43045 2.1343 8.90045 2.1343H8.05045C7.85545 2.1343 7.57045 2.0293 7.42045 1.8993L6.63045 1.2193C6.28545 0.924297 5.72045 0.924297 5.37045 1.2193L4.58543 1.9043C4.43543 2.0293 4.15043 2.1343 3.95543 2.1343H3.09043C2.56043 2.1343 2.12543 2.5693 2.12543 3.0993V3.9543C2.12543 4.1493 2.02043 4.4293 1.89543 4.5793L1.22043 5.3743C0.93043 5.7193 0.93043 6.2793 1.22043 6.6243L1.89543 7.4193C2.02043 7.5693 2.12543 7.8493 2.12543 8.0443V8.8993C2.12543 9.4293 2.56043 9.8643 3.09043 9.8643H3.95543C4.15043 9.8643 4.43543 9.9693 4.58543 10.0993L5.37545 10.7793C5.72045 11.0743 6.28545 11.0743 6.63545 10.7793L7.42545 10.0993C7.57545 9.9693 7.85545 9.8643 8.05545 9.8643H8.90545C9.43545 9.8643 9.87045 9.4293 9.87045 8.8993V8.0493C9.87045 7.8543 9.97545 7.5693 10.1054 7.4193L10.7854 6.6293C11.0754 6.2843 11.0754 5.7143 10.7804 5.3693ZM8.34045 5.9993L7.75545 7.7793C7.68045 8.0743 7.36545 8.3143 7.04545 8.3143H6.12045C5.96045 8.3143 5.73545 8.2593 5.63545 8.1593L4.90043 7.5843C4.88543 7.9043 4.74043 8.0393 4.38543 8.0393H4.14543C3.77543 8.0393 3.62543 7.8943 3.62543 7.5443V5.1543C3.62543 4.8043 3.77543 4.6593 4.14543 4.6593H4.39043C4.76043 4.6593 4.91043 4.8043 4.91043 5.1543V5.3343L5.88045 3.8943C5.98045 3.7393 6.23545 3.6293 6.45045 3.7143C6.68545 3.7943 6.83545 4.0543 6.78545 4.2843L6.66545 5.0643C6.65545 5.1343 6.67045 5.1993 6.71545 5.2493C6.75545 5.2943 6.81545 5.3243 6.88045 5.3243H7.85545C8.04545 5.3243 8.20545 5.3993 8.30045 5.5343C8.38545 5.6643 8.40045 5.8293 8.34045 5.9993Z" fill="currentColor"/>
</svg>
