<svg width="12" height="12" viewBox="0 0 12 12" fill="none" xmlns="http://www.w3.org/2000/svg">
<path d="M6.575 7.68545C6.465 7.52545 6.27 7.43545 6.045 7.43545H4.88C4.805 7.43545 4.73 7.40545 4.685 7.34545C4.635 7.28545 4.615 7.21045 4.625 7.12545L4.77 6.19545C4.83 5.92045 4.645 5.60545 4.37 5.51045C4.11 5.41545 3.81 5.54545 3.685 5.73045L2.53 7.45045V7.23545C2.53 6.81545 2.35 6.64545 1.91 6.64545H1.62C1.18 6.65045 1 6.82045 1 7.24045V10.0954C1 10.5154 1.18 10.6854 1.62 10.6854H1.91C2.33 10.6854 2.505 10.5204 2.52 10.1404L3.395 10.8154C3.52 10.9354 3.785 11.0004 3.975 11.0004H5.08C5.46 11.0004 5.84 10.7154 5.93 10.3654L6.63 8.24045C6.705 8.03545 6.685 7.84045 6.575 7.68545Z" fill="currentColor"/>
<path d="M10.5554 1.30523H10.2654C9.8454 1.30523 9.6704 1.47023 9.6504 1.85023L8.7754 1.17523C8.6554 1.05523 8.3854 0.990234 8.1954 0.990234H7.0904C6.7104 0.990234 6.3304 1.27523 6.2404 1.62523L5.5404 3.75023C5.4654 3.95523 5.4904 4.15023 5.5954 4.30523C5.7054 4.46523 5.9004 4.55523 6.1254 4.55523H7.2904C7.3654 4.55523 7.4404 4.58523 7.4854 4.64523C7.5354 4.70523 7.5554 4.78023 7.5454 4.86523L7.4004 5.79525C7.3404 6.07025 7.5254 6.38525 7.8004 6.48025C8.0604 6.57525 8.3604 6.44525 8.4854 6.26025L9.6404 4.54023V4.75523C9.6404 5.17525 9.8204 5.34525 10.2604 5.34525H10.5504C10.9904 5.34525 11.1704 5.17525 11.1704 4.75523V1.89023C11.1754 1.47523 10.9954 1.30523 10.5554 1.30523Z" fill="currentColor"/>
</svg>
