<svg width="12" height="12" viewBox="0 0 12 12" fill="none" xmlns="http://www.w3.org/2000/svg">
<path d="M4.19531 9.24535V4.16535C4.19531 3.96535 4.25531 3.77035 4.36531 3.60535L5.7303 1.57535C5.9453 1.25035 6.4803 1.02035 6.9353 1.19035C7.4253 1.35535 7.7503 1.90535 7.6453 2.39535L7.3853 4.03035C7.3653 4.18035 7.4053 4.31535 7.4903 4.42035C7.5753 4.51535 7.7003 4.57535 7.8353 4.57535H9.8903C10.2853 4.57535 10.6253 4.73535 10.8253 5.01535C11.0153 5.28535 11.0503 5.63535 10.9253 5.99035L9.6953 9.73535C9.5403 10.3553 8.8653 10.8603 8.1953 10.8603H6.2453C5.9103 10.8603 5.4403 10.7453 5.2253 10.5303L4.58531 10.0353C4.34031 9.85035 4.19531 9.55535 4.19531 9.24535Z" fill="currentColor"/>
<path d="M2.605 3.18945H2.09C1.315 3.18945 1 3.48945 1 4.22945V9.25945C1 9.99945 1.315 10.2994 2.09 10.2994H2.605C3.38 10.2994 3.695 9.99945 3.695 9.25945V4.22945C3.695 3.48945 3.38 3.18945 2.605 3.18945Z" fill="currentColor"/>
</svg>
