<svg width="12" height="12" viewBox="0 0 12 12" fill="none" xmlns="http://www.w3.org/2000/svg">
<path d="M9.5356 7.1208C9.3906 7.2658 9.1606 7.2658 9.02065 7.1208C8.87565 6.9758 8.87565 6.7458 9.02065 6.6058C10.0207 5.6058 10.0207 3.98078 9.02065 2.98578C8.02065 1.99078 6.3956 1.98578 5.4006 2.98578C4.40563 3.98578 4.40063 5.6108 5.4006 6.6058C5.5456 6.7508 5.5456 6.9808 5.4006 7.1208C5.2556 7.2658 5.0256 7.2658 4.88563 7.1208C3.60063 5.8358 3.60063 3.74578 4.88563 2.46578C6.1706 1.18578 8.2606 1.18078 9.5406 2.46578C10.8206 3.75078 10.8206 5.8358 9.5356 7.1208Z" fill="currentColor"/>
<path d="M2.46438 4.88024C2.60938 4.73524 2.83938 4.73524 2.97938 4.88024C3.12438 5.02525 3.12438 5.25525 2.97938 5.39525C1.97938 6.39525 1.97938 8.02025 2.97938 9.01525C3.97938 10.0103 5.6044 10.0153 6.5994 9.01525C7.5944 8.01525 7.5994 6.39025 6.5994 5.39525C6.4544 5.25025 6.4544 5.02025 6.5994 4.88024C6.7444 4.73524 6.9744 4.73524 7.1144 4.88024C8.3994 6.16525 8.3994 8.25525 7.1144 9.53525C5.8294 10.8153 3.73938 10.8203 2.45938 9.53525C1.17938 8.25025 1.17938 6.16525 2.46438 4.88024Z" fill="currentColor"/>
</svg>
