<svg width="12" height="12" viewBox="0 0 12 12" fill="none" xmlns="http://www.w3.org/2000/svg">
<path d="M8.095 1H3.905C2.085 1 1 2.085 1 3.905V8.09C1 9.915 2.085 11 3.905 11H8.09C9.91 11 10.995 9.915 10.995 8.095V3.905C11 2.085 9.915 1 8.095 1ZM4.09 8.385C4.08 8.385 4.065 8.385 4.055 8.385C3.57 8.34 3.115 8.115 2.775 7.755C1.975 6.915 1.975 5.55 2.775 4.71L3.87 3.56C4.26 3.15 4.785 2.92 5.345 2.92C5.905 2.92 6.43 3.145 6.82 3.56C7.62 4.4 7.62 5.765 6.82 6.605L6.275 7.18C6.13 7.33 5.895 7.335 5.745 7.195C5.595 7.05 5.59 6.815 5.73 6.665L6.275 6.09C6.805 5.535 6.805 4.63 6.275 4.08C5.78 3.56 4.91 3.56 4.41 4.08L3.315 5.23C2.785 5.785 2.785 6.69 3.315 7.24C3.53 7.47 3.82 7.61 4.125 7.64C4.33 7.66 4.48 7.845 4.46 8.05C4.445 8.24 4.28 8.385 4.09 8.385ZM9.225 7.295L8.13 8.445C7.74 8.855 7.215 9.085 6.655 9.085C6.095 9.085 5.57 8.86 5.18 8.445C4.38 7.605 4.38 6.24 5.18 5.4L5.725 4.825C5.87 4.675 6.105 4.67 6.255 4.81C6.405 4.955 6.41 5.19 6.27 5.34L5.725 5.915C5.195 6.47 5.195 7.375 5.725 7.925C6.22 8.445 7.09 8.45 7.59 7.925L8.685 6.775C9.215 6.22 9.215 5.315 8.685 4.765C8.47 4.535 8.18 4.395 7.875 4.365C7.67 4.345 7.52 4.16 7.54 3.955C7.56 3.75 7.74 3.595 7.95 3.62C8.435 3.67 8.89 3.89 9.23 4.25C10.025 5.085 10.025 6.455 9.225 7.295Z" fill="currentColor"/>
</svg>
