<svg width="12" height="12" viewBox="0 0 12 12" fill="none" xmlns="http://www.w3.org/2000/svg">
<path d="M3.62495 6C3.62495 5.795 3.79495 5.625 3.99995 5.625H5.49995V3.75C5.49995 3.475 5.27495 3.25 4.99995 3.25H3.88495C2.30995 3.25 0.939946 4.54 0.999946 6.11C1.02995 6.825 1.32995 7.47 1.80495 7.945C2.30495 8.44 2.98995 8.75 3.74995 8.75H4.99995C5.27495 8.75 5.49995 8.525 5.49995 8.25V6.375H3.99995C3.79495 6.375 3.62495 6.205 3.62495 6Z" fill="currentColor"/>
<path d="M10.195 4.055C9.695 3.56 9.01 3.25 8.25 3.25H7C6.725 3.25 6.5 3.475 6.5 3.75V5.625H8C8.205 5.625 8.375 5.795 8.375 6C8.375 6.205 8.205 6.375 8 6.375H6.5V8.25C6.5 8.525 6.725 8.75 7 8.75H8.115C9.69 8.75 11.06 7.46 10.995 5.89C10.97 5.175 10.665 4.53 10.195 4.055Z" fill="currentColor"/>
<path d="M6.5 5.625H5.49995V6.375H6.5V5.625Z" fill="currentColor"/>
</svg>
