<svg width="12" height="12" viewBox="0 0 12 12" fill="none" xmlns="http://www.w3.org/2000/svg">
<path d="M7.70405 9.29595C7.50405 9.29595 7.33905 9.13095 7.33905 8.93095C7.33905 8.73095 7.50405 8.56595 7.70405 8.56595C9.11405 8.56595 10.264 7.41595 10.264 6.00595C10.264 4.59594 9.11405 3.44593 7.70405 3.44593C6.29405 3.44593 5.14405 4.59594 5.14405 6.00595C5.14405 6.20595 4.97907 6.37095 4.77907 6.37095C4.57907 6.37095 4.41406 6.20595 4.41406 6.00595C4.41406 4.19094 5.88905 2.71094 7.70905 2.71094C9.52905 2.71094 10.9991 4.18593 10.9991 6.00095C10.9991 7.81595 9.52405 9.29595 7.70405 9.29595Z" fill="currentColor"/>
<path d="M4.295 2.70508C4.495 2.70508 4.66 2.87008 4.66 3.07008C4.66 3.27008 4.495 3.43508 4.295 3.43508C2.885 3.43508 1.735 4.58508 1.735 5.9951C1.735 7.4051 2.885 8.5551 4.295 8.5551C5.705 8.5551 6.855 7.4051 6.855 5.9951C6.855 5.7951 7.02 5.6301 7.22 5.6301C7.42 5.6301 7.585 5.7951 7.585 5.9951C7.585 7.8101 6.11 9.2901 4.29 9.2901C2.47 9.2901 1 7.8151 1 6.0001C1 4.18508 2.475 2.70508 4.295 2.70508Z" fill="currentColor"/>
</svg>
