<svg width="12" height="12" viewBox="0 0 12 12" fill="none" xmlns="http://www.w3.org/2000/svg">
<path d="M10.3106 4.225C9.78555 1.915 7.77055 0.875 6.00055 0.875C6.00055 0.875 6.00055 0.875 5.99555 0.875C4.23054 0.875 2.21054 1.91 1.68554 4.22C1.10054 6.8 2.68054 8.985 4.11054 10.36C4.64054 10.87 5.32055 11.125 6.00055 11.125C6.68055 11.125 7.36055 10.87 7.88555 10.36C9.31555 8.985 10.8956 6.805 10.3106 4.225ZM6.00055 6.73C5.13055 6.73 4.42554 6.025 4.42554 5.155C4.42554 4.285 5.13055 3.58 6.00055 3.58C6.87055 3.58 7.57555 4.285 7.57555 5.155C7.57555 6.025 6.87055 6.73 6.00055 6.73Z" fill="currentColor"/>
</svg>
