<svg width="12" height="12" viewBox="0 0 12 12" fill="none" xmlns="http://www.w3.org/2000/svg">
<path d="M7.8903 10.4904C7.3603 11.0005 6.6803 11.2555 6.0003 11.2555C5.3203 11.2555 4.64031 10.9955 4.11031 10.4854C3.93031 10.3154 3.75031 10.1255 3.57031 9.93045L10.0203 3.48047C10.1453 3.75047 10.2403 4.03547 10.3103 4.35047C10.8953 6.93045 9.3153 9.11045 7.8903 10.4904Z" fill="currentColor"/>
<path d="M10.8844 1.11446C10.7344 0.964455 10.4894 0.964455 10.3394 1.11446L1.11445 10.3444C0.964453 10.4944 0.964453 10.7395 1.11445 10.8895C1.18945 10.9594 1.28445 10.9994 1.38445 10.9994C1.48445 10.9994 1.57945 10.9594 1.65445 10.8844L10.8844 1.65446C11.0394 1.50445 11.0394 1.26446 10.8844 1.11446Z" fill="currentColor"/>
<path d="M4.42432 5.155C4.42432 4.285 5.1293 3.58 5.9993 3.58C6.6543 3.58 7.2143 3.98 7.4543 4.55L9.4443 2.56C8.5593 1.49 7.21935 1 5.9993 1C5.1143 1 4.16932 1.26 3.37932 1.805C2.58932 2.355 1.94932 3.19 1.68932 4.345C1.26932 6.18 1.94932 7.82 2.89432 9.105L5.3943 6.605C4.82432 6.37 4.42432 5.805 4.42432 5.155Z" fill="currentColor"/>
</svg>
