<svg width="12" height="12" viewBox="0 0 12 12" fill="none" xmlns="http://www.w3.org/2000/svg">
<path d="M10.3094 4.35C9.7894 2.035 7.7694 1 5.9994 1C5.9994 1 5.9994 1 5.9944 1C4.22939 1 2.21439 2.035 1.68939 4.345C1.09939 6.925 2.67939 9.11 4.10939 10.49C4.63939 11 5.3194 11.255 5.9994 11.255C6.6794 11.255 7.3594 11 7.8844 10.49C9.3144 9.11 10.8944 6.93 10.3094 4.35ZM7.3744 5.875H4.62439C4.41939 5.875 4.24939 5.705 4.24939 5.5C4.24939 5.295 4.41939 5.125 4.62439 5.125H7.3744C7.5794 5.125 7.7494 5.295 7.7494 5.5C7.7494 5.705 7.5794 5.875 7.3744 5.875Z" fill="currentColor"/>
</svg>
