<svg width="12" height="12" viewBox="0 0 12 12" fill="none" xmlns="http://www.w3.org/2000/svg">
<path d="M10.3094 4.35C9.7894 2.035 7.7694 1 5.9994 1C5.9994 1 5.9994 1 5.9944 1C4.22939 1 2.21439 2.035 1.68939 4.345C1.09939 6.925 2.67939 9.11 4.10939 10.49C4.63939 11 5.3194 11.255 5.9994 11.255C6.6794 11.255 7.3594 11 7.8844 10.49C9.3144 9.11 10.8944 6.93 10.3094 4.35ZM7.2644 6.745C7.1894 6.82 7.0944 6.855 6.9994 6.855C6.9044 6.855 6.8094 6.82 6.7344 6.745L6.0094 6.02L5.2644 6.765C5.1894 6.84 5.0944 6.875 4.99939 6.875C4.90439 6.875 4.80939 6.84 4.73439 6.765C4.58939 6.62 4.58939 6.38 4.73439 6.235L5.4794 5.49L4.75439 4.765C4.60939 4.62 4.60939 4.38 4.75439 4.235C4.89939 4.09 5.1394 4.09 5.2844 4.235L6.0094 4.96L6.7094 4.26C6.8544 4.115 7.0944 4.115 7.2394 4.26C7.3844 4.405 7.3844 4.645 7.2394 4.79L6.5394 5.49L7.2644 6.215C7.4094 6.36 7.4094 6.595 7.2644 6.745Z" fill="currentColor"/>
</svg>
