<svg width="12" height="12" viewBox="0 0 12 12" fill="none" xmlns="http://www.w3.org/2000/svg">
<path d="M6.8154 7.85975C6.8154 8.30975 6.4504 8.67475 6.0004 8.67475C5.6804 8.67475 5.4054 8.48975 5.2754 8.22475L6.3654 7.13475C6.6304 7.26475 6.8154 7.53975 6.8154 7.85975Z" fill="currentColor"/>
<path d="M10.8856 1.115C10.7356 0.965 10.4906 0.965 10.3406 1.115L8.93555 2.52C8.55055 1.51 7.56555 1 6.00055 1C3.18555 1 2.86055 2.79 2.86055 4.14V4.765C2.86555 4.765 2.87055 4.765 2.87555 4.765C1.46055 4.935 1.00055 5.64 1.00055 7.395V8.325C1.00055 9.125 1.09555 9.705 1.33555 10.12L1.11055 10.345C0.960547 10.495 0.960547 10.74 1.11055 10.89C1.19055 10.96 1.28555 11 1.38555 11C1.48555 11 1.58055 10.96 1.65555 10.885L10.8856 1.655C11.0406 1.505 11.0406 1.265 10.8856 1.115ZM3.67555 4.72C3.63555 4.72 3.60055 4.72 3.56055 4.72V4.14C3.56055 2.675 3.97555 1.7 6.00055 1.7C7.70055 1.7 8.23555 2.35 8.38555 3.075L6.74055 4.72H3.67555Z" fill="currentColor"/>
<path d="M11.0003 7.3945V8.3245C11.0003 10.3745 10.3753 10.9995 8.32525 10.9995H3.70527C3.26027 10.9995 3.04027 10.4595 3.35527 10.1445L4.76527 8.7345C4.80027 8.7845 4.84027 8.8295 4.88027 8.8745C5.23025 9.2545 5.75025 9.4545 6.32525 9.3345C6.37025 9.3245 6.41525 9.3145 6.46025 9.2945C6.50525 9.2845 6.54525 9.2695 6.58525 9.2495C6.68525 9.2145 6.78025 9.1595 6.87025 9.0945C6.90525 9.0745 6.93525 9.0495 6.96025 9.0245C7.03525 8.9645 7.10525 8.8945 7.16525 8.8195C7.19025 8.7945 7.21525 8.7645 7.23525 8.7295C7.30025 8.6395 7.35525 8.5445 7.39025 8.4445C7.41025 8.4045 7.42525 8.3645 7.43525 8.3195C7.45525 8.2745 7.46525 8.2295 7.47525 8.1845C7.59525 7.6095 7.39525 7.0895 7.01525 6.7395C6.97525 6.6995 6.92525 6.6595 6.87525 6.6245L8.43525 5.0645C8.46025 5.0395 8.48025 5.0195 8.50525 4.9995C8.70525 4.8345 8.96025 4.7545 9.21525 4.7745C9.26025 4.7795 9.31025 4.7845 9.35525 4.7945C9.44025 4.8095 9.52525 4.8295 9.60525 4.8495C9.68525 4.8695 9.76025 4.8945 9.83525 4.9195C9.98025 4.9745 10.1053 5.0395 10.2203 5.1145C10.3353 5.1895 10.4303 5.2795 10.5203 5.3845C10.5653 5.4395 10.6103 5.4995 10.6453 5.5645C10.6803 5.6195 10.7103 5.6795 10.7403 5.7445C10.7703 5.8095 10.7953 5.8795 10.8203 5.9495C10.8503 6.0345 10.8753 6.1295 10.8953 6.2295C10.9153 6.2995 10.9253 6.3745 10.9403 6.4545C10.9503 6.5295 10.9603 6.6095 10.9703 6.6945C10.9903 6.9045 11.0003 7.1395 11.0003 7.3945Z" fill="currentColor"/>
</svg>
