<svg width="12" height="12" viewBox="0 0 12 12" fill="none" xmlns="http://www.w3.org/2000/svg">
<path d="M6 3.875C5.055 3.875 4.875 4.27 4.875 5V5.31H7.125V5C7.125 4.27 6.945 3.875 6 3.875Z" fill="currentColor"/>
<path d="M5.9992 7.5492C6.303 7.5492 6.5492 7.303 6.5492 6.9992C6.5492 6.69545 6.303 6.4492 5.9992 6.4492C5.69545 6.4492 5.4492 6.69545 5.4492 6.9992C5.4492 7.303 5.69545 7.5492 5.9992 7.5492Z" fill="currentColor"/>
<path d="M6 1C3.24 1 1 3.24 1 6C1 8.76 3.24 11 6 11C8.76 11 11 8.76 11 6C11 3.24 8.76 1 6 1ZM8.69 7.25C8.69 8.35 8.35 8.69 7.25 8.69H4.75C3.65 8.69 3.31 8.35 3.31 7.25V6.75C3.31 5.895 3.515 5.5 4.125 5.365V5C4.125 4.535 4.125 3.125 6 3.125C7.875 3.125 7.875 4.535 7.875 5V5.365C8.485 5.5 8.69 5.895 8.69 6.75V7.25Z" fill="currentColor"/>
</svg>
