<svg width="12" height="12" viewBox="0 0 12 12" fill="none" xmlns="http://www.w3.org/2000/svg">
<path d="M8.4 1H7.1C5.5 1 4.5 2 4.5 3.6V5.625H6.72L5.685 4.59C5.61 4.515 5.575 4.42 5.575 4.325C5.575 4.23 5.61 4.135 5.685 4.06C5.83 3.915 6.07 3.915 6.215 4.06L7.89 5.735C8.035 5.88 8.035 6.12 7.89 6.265L6.215 7.94C6.07 8.085 5.83 8.085 5.685 7.94C5.54 7.795 5.54 7.555 5.685 7.41L6.72 6.375H4.5V8.4C4.5 10 5.5 11 7.1 11H8.395C9.995 11 10.995 10 10.995 8.4V3.6C11 2 10 1 8.4 1Z" fill="currentColor"/>
<path d="M1.375 5.625C1.17 5.625 1 5.795 1 6C1 6.205 1.17 6.375 1.375 6.375H4.5V5.625H1.375Z" fill="currentColor"/>
</svg>
