<svg width="12" height="12" viewBox="0 0 12 12" fill="none" xmlns="http://www.w3.org/2000/svg">
<path d="M5.3792 1C5.1392 1 4.94922 1.19 4.94922 1.43V5.66H6.7842L5.9992 4.875C5.8542 4.73 5.8542 4.49 5.9992 4.345C6.1442 4.2 6.3842 4.2 6.5292 4.345L7.9492 5.77C8.0942 5.915 8.0942 6.155 7.9492 6.3L6.5292 7.725C6.4542 7.8 6.3592 7.835 6.2642 7.835C6.1692 7.835 6.0742 7.8 5.9992 7.725C5.8542 7.58 5.8542 7.34 5.9992 7.195L6.7792 6.415H4.94922V10.58C4.94922 10.815 5.1392 11.01 5.3792 11.01C8.3242 11.01 10.3792 8.955 10.3792 6.01C10.3792 3.065 8.3192 1 5.3792 1Z" fill="currentColor"/>
<path d="M1.99414 5.66015C1.78914 5.66015 1.61914 5.83015 1.61914 6.03515C1.61914 6.24015 1.78914 6.41015 1.99414 6.41015H4.94414V5.66015H1.99414Z" fill="currentColor"/>
</svg>
