<svg width="12" height="12" viewBox="0 0 12 12" fill="none" xmlns="http://www.w3.org/2000/svg">
<path d="M3.93914 6.035C3.93914 5.83 4.10914 5.66 4.31414 5.66H7.05415V1.43C7.04915 1.19 6.85915 1 6.61915 1C3.67414 1 1.61914 3.055 1.61914 6C1.61914 8.945 3.67414 11 6.61915 11C6.85415 11 7.04915 10.81 7.04915 10.57V6.405H4.31414C4.10414 6.41 3.93914 6.24 3.93914 6.035Z" fill="currentColor"/>
<path d="M10.2708 5.7701L8.8508 4.34508C8.7058 4.20008 8.4658 4.20008 8.3208 4.34508C8.1758 4.49008 8.1758 4.73008 8.3208 4.87508L9.1008 5.6551H7.0508V6.4051H9.0958L8.3158 7.1851C8.1708 7.3301 8.1708 7.5701 8.3158 7.7151C8.3908 7.7901 8.4858 7.8251 8.5808 7.8251C8.6758 7.8251 8.7708 7.7901 8.8458 7.7151L10.2658 6.2901C10.4158 6.1501 10.4158 5.9151 10.2708 5.7701Z" fill="currentColor"/>
</svg>
