<svg width="12" height="12" viewBox="0 0 12 12" fill="none" xmlns="http://www.w3.org/2000/svg">
<path d="M8.4 1H7.1C5.5 1 4.5 2 4.5 3.6V5.625H7.625C7.83 5.625 8 5.795 8 6C8 6.205 7.83 6.375 7.625 6.375H4.5V8.4C4.5 10 5.5 11 7.1 11H8.395C9.995 11 10.995 10 10.995 8.4V3.6C11 2 10 1 8.4 1Z" fill="currentColor"/>
<path d="M2.2807 5.6249L3.3157 4.58992C3.3907 4.51492 3.4257 4.41992 3.4257 4.32492C3.4257 4.22992 3.3907 4.12992 3.3157 4.05992C3.1707 3.91492 2.9307 3.91492 2.7857 4.05992L1.1107 5.7349C0.965703 5.8799 0.965703 6.1199 1.1107 6.2649L2.7857 7.9399C2.9307 8.0849 3.1707 8.0849 3.3157 7.9399C3.4607 7.7949 3.4607 7.5549 3.3157 7.4099L2.2807 6.3749H4.5007V5.6249H2.2807Z" fill="currentColor"/>
</svg>
