<svg width="12" height="12" viewBox="0 0 12 12" fill="none" xmlns="http://www.w3.org/2000/svg">
<path d="M9.4004 4.95508C8.8354 4.95508 8.3304 5.2301 8.0154 5.6501C7.7004 5.2301 7.1954 4.95508 6.6304 4.95508C5.6754 4.95508 4.90039 5.7351 4.90039 6.6951C4.90039 7.0651 4.96039 7.4101 5.0604 7.7251C5.5504 9.2801 7.0704 10.2151 7.8204 10.4701C7.9254 10.5051 8.1004 10.5051 8.2054 10.4701C8.9554 10.2151 10.4754 9.2851 10.9654 7.7251C11.0704 7.4051 11.1254 7.0651 11.1254 6.6951C11.1304 5.7351 10.3554 4.95508 9.4004 4.95508Z" fill="currentColor"/>
<path d="M10.375 4.17078C10.375 4.28578 10.26 4.36078 10.15 4.33078C9.475 4.15578 8.735 4.30078 8.175 4.70078C8.065 4.78078 7.915 4.78078 7.81 4.70078C7.415 4.41078 6.935 4.25078 6.43 4.25078C5.14 4.25078 4.09 5.3058 4.09 6.6058C4.09 8.0158 4.765 9.0708 5.445 9.7758C5.48 9.8108 5.45 9.8708 5.405 9.8508C4.04 9.3858 1 7.4558 1 4.17078C1 2.72078 2.165 1.55078 3.605 1.55078C4.46 1.55078 5.215 1.96078 5.69 2.59578C6.17 1.96078 6.925 1.55078 7.775 1.55078C9.21 1.55078 10.375 2.72078 10.375 4.17078Z" fill="currentColor"/>
</svg>
