<svg width="12" height="12" viewBox="0 0 12 12" fill="none" xmlns="http://www.w3.org/2000/svg">
<path d="M9.7499 3.74945L9.0049 4.49445L7.5049 2.99445L8.2499 2.24945C8.4599 2.03945 8.7299 1.93945 8.9999 1.93945C9.2699 1.93945 9.5399 2.03945 9.7499 2.24945C10.1649 2.66445 10.1649 3.33445 9.7499 3.74945Z" fill="currentColor"/>
<path d="M8.65475 4.84961L3.24972 10.2496C2.83472 10.6646 2.16472 10.6646 1.74972 10.2496C1.33472 9.8346 1.33472 9.1646 1.74972 8.7496L7.15475 3.34961L8.65475 4.84961Z" fill="currentColor"/>
<path d="M4.97525 1.75025L5.18025 1.05525C5.20025 0.990253 5.18025 0.920253 5.13525 0.870253C5.09025 0.820253 5.01025 0.800253 4.94525 0.820253L4.25025 1.02525L3.55525 0.820253C3.49025 0.800253 3.42025 0.820253 3.37025 0.865253C3.32025 0.915253 3.30525 0.985253 3.32525 1.05025L3.52525 1.75025L3.32025 2.44525C3.30025 2.51025 3.32025 2.58025 3.36525 2.63025C3.41525 2.68025 3.48525 2.69525 3.55025 2.67525L4.25025 2.47525L4.94525 2.68025C4.96525 2.68525 4.98025 2.69025 5.00025 2.69025C5.05025 2.69025 5.09525 2.67025 5.13525 2.63525C5.18525 2.58525 5.20025 2.51525 5.18025 2.45025L4.97525 1.75025Z" fill="currentColor"/>
<path d="M2.97525 4.75025L3.18025 4.05525C3.20025 3.99025 3.18025 3.92025 3.13525 3.87025C3.08525 3.82025 3.01525 3.80525 2.95025 3.82525L2.25025 4.02525L1.55525 3.82025C1.49025 3.80025 1.42025 3.82025 1.37025 3.86525C1.32025 3.91525 1.30525 3.98525 1.32525 4.05025L1.52525 4.75025L1.32025 5.44525C1.30025 5.51025 1.32025 5.58025 1.36525 5.63025C1.41525 5.68025 1.48525 5.69525 1.55025 5.67525L2.24525 5.47025L2.94025 5.67525C2.95525 5.68025 2.97525 5.68025 2.99525 5.68025C3.04525 5.68025 3.09025 5.66025 3.13025 5.62525C3.18025 5.57525 3.19525 5.50525 3.17525 5.44025L2.97525 4.75025Z" fill="currentColor"/>
<path d="M10.4748 7.25L10.6798 6.555C10.6998 6.49 10.6798 6.42 10.6348 6.37C10.5848 6.32 10.5148 6.305 10.4498 6.325L9.75485 6.53L9.05985 6.325C8.99485 6.305 8.92485 6.325 8.87485 6.37C8.82485 6.42 8.80985 6.49 8.82985 6.555L9.03485 7.25L8.82985 7.945C8.80985 8.01 8.82985 8.08 8.87485 8.13C8.92485 8.18 8.99485 8.195 9.05985 8.175L9.75485 7.97L10.4498 8.175C10.4648 8.18 10.4848 8.18 10.5048 8.18C10.5548 8.18 10.5998 8.16 10.6398 8.125C10.6898 8.075 10.7048 8.005 10.6848 7.94L10.4748 7.25Z" fill="currentColor"/>
</svg>
