<svg width="12" height="12" viewBox="0 0 12 12" fill="none" xmlns="http://www.w3.org/2000/svg">
<path d="M8.64515 2.07002L8.61015 3.96502C8.60515 4.22502 8.77015 4.57002 8.98015 4.72502L10.2201 5.665C11.0152 6.265 10.8851 7 9.93515 7.3L8.32015 7.805C8.05015 7.89 7.76515 8.185 7.69515 8.46L7.31015 9.93C7.00515 11.09 6.24515 11.205 5.61515 10.185L4.73514 8.76C4.57514 8.5 4.19514 8.305 3.89514 8.32L2.22514 8.405C1.03014 8.465 0.690135 7.775 1.47014 6.865L2.46014 5.715C2.64514 5.5 2.73014 5.1 2.64514 4.83002L2.13514 3.21002C1.84014 2.26002 2.37014 1.73502 3.31514 2.04502L4.79014 2.53002C5.04015 2.61002 5.41515 2.55502 5.62515 2.40002L7.16515 1.29002C8.00015 0.695022 8.66515 1.04502 8.64515 2.07002Z" fill="currentColor"/>
<path d="M10.7201 10.2351L9.20515 8.7201C9.06015 8.5751 8.82015 8.5751 8.67515 8.7201C8.53015 8.8651 8.53015 9.1051 8.67515 9.2501L10.1902 10.7651C10.2652 10.8401 10.3601 10.8751 10.4551 10.8751C10.5501 10.8751 10.6452 10.8401 10.7201 10.7651C10.8652 10.6201 10.8652 10.3801 10.7201 10.2351Z" fill="currentColor"/>
</svg>
