<svg width="12" height="12" viewBox="0 0 12 12" fill="none" xmlns="http://www.w3.org/2000/svg">
<path d="M8.2549 2.505L7.2749 1.525C6.5749 0.825 5.4249 0.825 4.72488 1.525L3.74488 2.505C3.54989 2.7 3.54989 3.02 3.74488 3.215L5.6499 5.12C5.8449 5.315 6.1599 5.315 6.3549 5.12L8.2599 3.215C8.4499 3.02 8.4499 2.7 8.2549 2.505Z" fill="currentColor"/>
<path d="M2.505 3.74586L1.525 4.72586C0.825 5.42585 0.825 6.57585 1.525 7.27585L2.505 8.25585C2.7 8.45085 3.015 8.45085 3.21 8.25585L5.115 6.35085C5.31 6.15585 5.31 5.84085 5.115 5.64585L3.215 3.74586C3.02 3.55086 2.7 3.55086 2.505 3.74586Z" fill="currentColor"/>
<path d="M10.4746 4.72586L9.49455 3.74586C9.29955 3.55086 8.98455 3.55086 8.78955 3.74586L6.88455 5.65085C6.68955 5.84585 6.68955 6.16085 6.88455 6.35585L8.78955 8.26085C8.98455 8.45585 9.29955 8.45585 9.49455 8.26085L10.4746 7.28085C11.1746 6.57585 11.1746 5.42585 10.4746 4.72586Z" fill="currentColor"/>
<path d="M3.74453 9.49455L4.72453 10.4746C5.42455 11.1746 6.57455 11.1746 7.27455 10.4746L8.25455 9.49455C8.44955 9.29955 8.44955 8.98455 8.25455 8.78955L6.34955 6.88455C6.15455 6.68955 5.83955 6.68955 5.64455 6.88455L3.73954 8.78955C3.54954 8.97955 3.54954 9.29955 3.74453 9.49455Z" fill="currentColor"/>
</svg>
