<svg width="12" height="12" viewBox="0 0 12 12" fill="none" xmlns="http://www.w3.org/2000/svg">
<path d="M11.095 1.105C11.06 1.015 10.985 0.94 10.895 0.905C10.845 0.885 10.8 0.875 10.75 0.875H7.5C7.295 0.875 7.125 1.045 7.125 1.25C7.125 1.455 7.295 1.625 7.5 1.625H9.845L7.59 3.885H7.585C6.915 3.33 6.06 3 5.125 3C2.985 3 1.25 4.735 1.25 6.875C1.25 9.015 2.985 10.75 5.125 10.75C7.265 10.75 9 9.015 9 6.875C9 5.94 8.67 5.085 8.115 4.415L10.375 2.155V4.5C10.375 4.705 10.545 4.875 10.75 4.875C10.955 4.875 11.125 4.705 11.125 4.5V1.25C11.125 1.2 11.115 1.155 11.095 1.105Z" fill="currentColor"/>
</svg>
