<svg width="12" height="12" viewBox="0 0 12 12" fill="none" xmlns="http://www.w3.org/2000/svg">
<path d="M3.81453 1.78485C3.90423 1.73592 3.99953 1.81119 3.99953 1.91335V8.69125C3.99953 8.8029 3.92333 8.8973 3.82463 8.9494C3.82125 8.9512 3.81788 8.953 3.81453 8.95485L2.63953 9.62485C1.81953 10.0949 1.14453 9.70485 1.14453 8.75485V3.88985C1.14453 3.57485 1.36953 3.18485 1.64953 3.02485L3.81453 1.78485Z" fill="currentColor"/>
<path d="M7.36095 3.05145C7.4461 3.09363 7.5 3.18045 7.5 3.27548V9.85205C7.5 10.0363 7.3075 10.1573 7.1415 10.0773L5.0165 9.0535C4.92999 9.0118 4.875 8.92425 4.875 8.82825V2.2231C4.875 2.03767 5.0698 1.91678 5.23595 1.99907L7.36095 3.05145Z" fill="currentColor"/>
<path d="M11 3.24503V8.11005C11 8.42505 10.775 8.81505 10.495 8.97505L8.7493 9.9755C8.58265 10.0711 8.375 9.9507 8.375 9.7586V3.16519C8.375 3.07544 8.4231 2.99257 8.50105 2.94808L9.505 2.37503C10.325 1.90503 11 2.29503 11 3.24503Z" fill="currentColor"/>
</svg>
