<svg width="12" height="12" viewBox="0 0 12 12" fill="none" xmlns="http://www.w3.org/2000/svg">
<path d="M4.57422 3.74414C4.29422 3.74414 4.07422 3.96914 4.07422 4.24414C4.07422 4.51914 4.29922 4.74414 4.57422 4.74414C4.84922 4.74414 5.0742 4.51914 5.0742 4.24414C5.0742 3.96914 4.84922 3.74414 4.57422 3.74414Z" fill="currentColor"/>
<path d="M10.73 2.52C10.31 1.545 9.385 1 8.095 1H3.905C2.3 1 1 2.3 1 3.905V8.095C1 9.385 1.545 10.31 2.52 10.73C2.615 10.77 2.725 10.745 2.795 10.675L10.675 2.795C10.75 2.72 10.775 2.61 10.73 2.52ZM5.265 6.12C5.07 6.31 4.815 6.4 4.56 6.4C4.305 6.4 4.05 6.305 3.855 6.12C3.345 5.64 2.785 4.875 3 3.965C3.19 3.14 3.92 2.77 4.56 2.77C5.2 2.77 5.93 3.14 6.12 3.97C6.33 4.875 5.77 5.64 5.265 6.12Z" fill="currentColor"/>
<path d="M9.73445 10.2647C9.84445 10.3747 9.82945 10.5548 9.69445 10.6298C9.25445 10.8748 8.71945 10.9998 8.09445 10.9998H3.90446C3.75946 10.9998 3.69946 10.8298 3.79946 10.7297L6.81945 7.70975C6.91945 7.60975 7.07445 7.60975 7.17445 7.70975L9.73445 10.2647Z" fill="currentColor"/>
<path d="M11.0008 3.90446V8.09445C11.0008 8.71945 10.8758 9.25945 10.6308 9.69445C10.5559 9.82945 10.3758 9.83945 10.2659 9.73445L7.70585 7.17445C7.60585 7.07445 7.60585 6.91945 7.70585 6.81945L10.7259 3.79946C10.8309 3.69946 11.0008 3.75946 11.0008 3.90446Z" fill="currentColor"/>
</svg>
