<svg width="12" height="12" viewBox="0 0 12 12" fill="none" xmlns="http://www.w3.org/2000/svg">
<path d="M9.32465 2.29562C8.44465 1.49562 7.27965 1.01562 5.99965 1.01562C3.24965 1.01562 1.01465 3.25062 1.01465 6.00065C1.01465 8.75065 3.24965 10.9856 5.99965 10.9856C7.27965 10.9856 8.44465 10.5056 9.32465 9.7056C10.3446 8.8006 10.9846 7.4706 10.9846 6.00065C10.9846 4.53062 10.3446 3.20062 9.32465 2.29562ZM5.98465 8.1956C5.97465 9.02065 5.35965 9.2206 4.78465 8.9906C3.59965 8.5156 2.76465 7.35565 2.76465 6.00065C2.76465 4.64562 3.59965 3.48563 4.78465 3.00563C5.35965 2.77562 5.97465 2.98063 5.98465 3.80063V8.1956Z" fill="currentColor"/>
</svg>
