<svg width="12" height="12" viewBox="0 0 12 12" fill="none" xmlns="http://www.w3.org/2000/svg">
<path d="M8.1201 4.75987L10.4751 7.11485C10.6151 7.25485 10.8601 7.17985 10.9001 6.98485C10.9651 6.66485 11.0001 6.33485 11.0001 5.99985C11.0001 4.85487 10.6101 3.79987 9.9651 2.95987C9.8751 2.83987 9.6951 2.83487 9.5901 2.93987L8.1201 4.40987C8.0251 4.50487 8.0251 4.66487 8.1201 4.75987Z" fill="currentColor"/>
<path d="M7.24025 5.29L6.35525 6.175C6.25525 6.275 6.25525 6.43 6.35525 6.53L9.26525 9.44C9.36525 9.54 9.52525 9.54 9.62025 9.44C9.93025 9.115 10.1952 8.75 10.4102 8.355C10.4602 8.26 10.4402 8.135 10.3652 8.06L7.59525 5.29C7.49525 5.195 7.33525 5.195 7.24025 5.29Z" fill="currentColor"/>
<path d="M5.46965 7.06015L4.58965 7.94015C4.48965 8.04015 4.48965 8.19515 4.58965 8.29515L7.04965 10.7601C7.11465 10.8251 7.20965 10.8501 7.29465 10.8251C7.75965 10.7001 8.19965 10.5101 8.59965 10.2601C8.73465 10.1751 8.75465 9.98515 8.63965 9.87015L5.82465 7.05515C5.72465 6.96515 5.56465 6.96515 5.46965 7.06015Z" fill="currentColor"/>
<path d="M9.03985 2.03483C8.04985 1.26983 6.76485 0.869834 5.38485 1.03483C3.12983 1.30483 1.30483 3.13483 1.03483 5.38485C0.869834 6.76485 1.26983 8.04485 2.03483 9.03985C2.12483 9.15985 2.30483 9.16485 2.40983 9.05985L9.05985 2.40983C9.16485 2.30483 9.15985 2.12483 9.03985 2.03483Z" fill="currentColor"/>
<path d="M3.69987 8.83475L2.93987 9.59475C2.83487 9.69975 2.83987 9.87975 2.95987 9.96975C3.71487 10.5548 4.63987 10.9248 5.65485 10.9948C5.86985 11.0098 5.97485 10.7547 5.81985 10.5997L4.05487 8.83475C3.95987 8.73475 3.79987 8.73475 3.69987 8.83475Z" fill="currentColor"/>
</svg>
