<svg width="12" height="12" viewBox="0 0 12 12" fill="none" xmlns="http://www.w3.org/2000/svg">
<path d="M8.095 1H3.905C2.085 1 1 2.085 1 3.905V8.09C1 9.915 2.085 11 3.905 11H8.09C9.91 11 10.995 9.915 10.995 8.095V3.905C11 2.085 9.915 1 8.095 1ZM5.515 8.83C5.66 8.975 5.66 9.215 5.515 9.36C5.44 9.435 5.345 9.47 5.25 9.47C5.155 9.47 5.06 9.435 4.985 9.36L4.125 8.5L3.265 9.36C3.19 9.43 3.095 9.47 3 9.47C2.905 9.47 2.81 9.435 2.735 9.36C2.59 9.215 2.59 8.975 2.735 8.83L3.595 7.97L2.735 7.11C2.59 6.965 2.59 6.725 2.735 6.58C2.88 6.435 3.12 6.435 3.265 6.58L4.125 7.44L4.985 6.58C5.13 6.435 5.37 6.435 5.515 6.58C5.66 6.725 5.66 6.965 5.515 7.11L4.655 7.97L5.515 8.83ZM5.25 4.405H3C2.795 4.405 2.625 4.235 2.625 4.03C2.625 3.825 2.795 3.655 3 3.655H5.25C5.455 3.655 5.625 3.825 5.625 4.03C5.625 4.235 5.455 4.405 5.25 4.405ZM9 9.28H6.75C6.545 9.28 6.375 9.11 6.375 8.905C6.375 8.7 6.545 8.53 6.75 8.53H9C9.205 8.53 9.375 8.7 9.375 8.905C9.375 9.11 9.205 9.28 9 9.28ZM9 7.405H6.75C6.545 7.405 6.375 7.235 6.375 7.03C6.375 6.825 6.545 6.655 6.75 6.655H9C9.205 6.655 9.375 6.825 9.375 7.03C9.375 7.235 9.205 7.405 9 7.405ZM9 4.405H8.26V5.155C8.26 5.36 8.09 5.53 7.885 5.53C7.68 5.53 7.51 5.36 7.51 5.155V4.405H6.75C6.545 4.405 6.375 4.235 6.375 4.03C6.375 3.825 6.545 3.655 6.75 3.655H7.51V2.905C7.51 2.7 7.68 2.53 7.885 2.53C8.09 2.53 8.26 2.7 8.26 2.905V3.655H9C9.205 3.655 9.375 3.825 9.375 4.03C9.375 4.235 9.205 4.405 9 4.405Z" fill="currentColor"/>
</svg>
