<svg width="12" height="12" viewBox="0 0 12 12" fill="none" xmlns="http://www.w3.org/2000/svg">
<path d="M8.095 1H3.905C2.085 1 1 2.085 1 3.905V8.09C1 9.915 2.085 11 3.905 11H8.09C9.91 11 10.995 9.915 10.995 8.095V3.905C11 2.085 9.915 1 8.095 1ZM9.375 7C9.375 7.205 9.205 7.375 9 7.375C8.795 7.375 8.625 7.205 8.625 7V6.375H6.375V8.625H7C7.205 8.625 7.375 8.795 7.375 9C7.375 9.205 7.205 9.375 7 9.375H5C4.795 9.375 4.625 9.205 4.625 9C4.625 8.795 4.795 8.625 5 8.625H5.625V6.375H3.375V7C3.375 7.205 3.205 7.375 3 7.375C2.795 7.375 2.625 7.205 2.625 7V5C2.625 4.795 2.795 4.625 3 4.625C3.205 4.625 3.375 4.795 3.375 5V5.625H5.625V3.375H5C4.795 3.375 4.625 3.205 4.625 3C4.625 2.795 4.795 2.625 5 2.625H7C7.205 2.625 7.375 2.795 7.375 3C7.375 3.205 7.205 3.375 7 3.375H6.375V5.625H8.625V5C8.625 4.795 8.795 4.625 9 4.625C9.205 4.625 9.375 4.795 9.375 5V7Z" fill="currentColor"/>
</svg>
