<svg width="12" height="12" viewBox="0 0 12 12" fill="none" xmlns="http://www.w3.org/2000/svg">
<g clip-path="url(#clip0_1652_1297)">
<path d="M10.8457 1.355C10.8057 1.265 10.7357 1.19 10.6407 1.15C10.5957 1.135 10.5507 1.125 10.5007 1.125H8.5007C8.2957 1.125 8.1257 1.295 8.1257 1.5C8.1257 1.705 8.2957 1.875 8.5007 1.875H9.5957L7.2357 4.235C7.0907 4.38 7.0907 4.62 7.2357 4.765C7.3107 4.84 7.4057 4.875 7.5007 4.875C7.5957 4.875 7.6907 4.84 7.7657 4.765L10.1257 2.405V3.5C10.1257 3.705 10.2957 3.875 10.5007 3.875C10.7057 3.875 10.8757 3.705 10.8757 3.5V1.5C10.8757 1.45 10.8657 1.405 10.8457 1.355Z" fill="currentColor"/>
<path d="M4.235 7.2357L1.875 9.5957V8.5007C1.875 8.2957 1.705 8.1257 1.5 8.1257C1.295 8.1257 1.125 8.2957 1.125 8.5007V10.5007C1.125 10.5507 1.135 10.5957 1.155 10.6457C1.195 10.7357 1.265 10.8107 1.36 10.8507C1.4 10.8657 1.45 10.8757 1.5 10.8757H3.5C3.705 10.8757 3.875 10.7057 3.875 10.5007C3.875 10.2957 3.705 10.1257 3.5 10.1257H2.405L4.765 7.7657C4.91 7.6207 4.91 7.3807 4.765 7.2357C4.62 7.0907 4.38 7.0907 4.235 7.2357Z" fill="currentColor"/>
<path d="M1.1 7.375C0.925 7.375 0.77 7.25 0.735 7.075C0.665 6.725 0.625 6.36 0.625 6C0.625 3.035 3.035 0.625 6 0.625C6.365 0.625 6.73 0.66 7.085 0.735C7.29 0.775 7.42 0.975 7.38 1.175C7.34 1.38 7.135 1.505 6.94 1.47C6.625 1.405 6.315 1.375 6 1.375C3.45 1.375 1.375 3.45 1.375 6C1.375 6.31 1.405 6.625 1.47 6.925C1.51 7.13 1.38 7.325 1.175 7.365C1.15 7.375 1.125 7.375 1.1 7.375Z" fill="currentColor"/>
<path d="M6.0005 11.3742C5.6355 11.3742 5.2705 11.3391 4.9155 11.2641C4.71051 11.2241 4.5805 11.0241 4.6205 10.8242C4.6605 10.6192 4.86551 10.4942 5.0605 10.5292C5.3655 10.5891 5.6805 10.6242 5.9955 10.6242C8.5455 10.6242 10.6205 8.54915 10.6205 5.99915C10.6205 5.68915 10.5905 5.37915 10.5305 5.07415C10.4905 4.86917 10.6205 4.67417 10.8255 4.63417C11.0305 4.59417 11.2255 4.72417 11.2655 4.92917C11.3355 5.27915 11.3705 5.63915 11.3705 5.99915C11.3755 8.96415 8.9655 11.3742 6.0005 11.3742Z" fill="currentColor"/>
</g>
<defs>
<clipPath id="clip0_1652_1297">
<rect width="12" height="12" fill="currentColor"/>
</clipPath>
</defs>
</svg>
