<svg width="12" height="12" viewBox="0 0 12 12" fill="none" xmlns="http://www.w3.org/2000/svg">
<path d="M8.095 1H3.905C2.085 1 1 2.085 1 3.905V8.09C1 9.915 2.085 11 3.905 11H8.09C9.91 11 10.995 9.915 10.995 8.095V3.905C11 2.085 9.915 1 8.095 1ZM9.375 5C9.375 5.205 9.205 5.375 9 5.375C8.795 5.375 8.625 5.205 8.625 5V3.905L3.905 8.625H5C5.205 8.625 5.375 8.795 5.375 9C5.375 9.205 5.205 9.375 5 9.375H3C2.95 9.375 2.9 9.365 2.855 9.345C2.765 9.305 2.69 9.235 2.65 9.14C2.635 9.095 2.625 9.05 2.625 9V7C2.625 6.795 2.795 6.625 3 6.625C3.205 6.625 3.375 6.795 3.375 7V8.095L8.095 3.375H7C6.795 3.375 6.625 3.205 6.625 3C6.625 2.795 6.795 2.625 7 2.625H9C9.05 2.625 9.095 2.635 9.145 2.655C9.235 2.695 9.31 2.765 9.35 2.86C9.365 2.905 9.375 2.95 9.375 3V5Z" fill="currentColor"/>
</svg>
