<svg width="12" height="12" viewBox="0 0 12 12" fill="none" xmlns="http://www.w3.org/2000/svg">
<path d="M5.5 8.075V9.425C5.5 10.55 5.05 11 3.925 11H2.575C1.45 11 1 10.55 1 9.425V8.075C1 6.95 1.45 6.5 2.575 6.5H3.925C5.05 6.5 5.5 6.95 5.5 8.075Z" fill="currentColor"/>
<path d="M8.24 1H4.26C2.735 1 1.5 2.235 1.5 3.76V5.25C1.5 5.525 1.725 5.75 2 5.75H4.25C5.355 5.75 6.25 6.645 6.25 7.75V10C6.25 10.275 6.475 10.5 6.75 10.5H8.24C9.965 10.5 11 9.47 11 7.74V3.76C11 2.235 9.765 1 8.24 1ZM9.38 4.995C9.38 5.2 9.21 5.37 9.005 5.37C8.8 5.37 8.63 5.2 8.63 4.995V3.895L6.765 5.765C6.69 5.84 6.595 5.875 6.5 5.875C6.405 5.875 6.31 5.84 6.235 5.765C6.09 5.62 6.09 5.38 6.235 5.235L8.1 3.36H7C6.79 3.36 6.625 3.195 6.625 2.985C6.625 2.78 6.79 2.61 7 2.61H9.005C9.05 2.61 9.095 2.625 9.135 2.64C9.15 2.645 9.16 2.65 9.17 2.655C9.2 2.67 9.225 2.685 9.25 2.71C9.26 2.715 9.27 2.725 9.28 2.735C9.305 2.765 9.325 2.795 9.345 2.83C9.345 2.835 9.35 2.84 9.35 2.845C9.37 2.885 9.375 2.93 9.375 2.975C9.38 2.98 9.38 2.98 9.38 2.985V4.995Z" fill="currentColor"/>
</svg>
