<svg width="12" height="12" viewBox="0 0 12 12" fill="none" xmlns="http://www.w3.org/2000/svg">
<path d="M8.095 1H3.905C2.085 1 1 2.085 1 3.905V8.09C1 9.915 2.085 11 3.905 11H8.09C9.91 11 10.995 9.915 10.995 8.095V3.905C11 2.085 9.915 1 8.095 1ZM5.11 10.5H3.955C2.6 10.5 1.5 9.4 1.5 8.045V6.89C1.5 6.685 1.67 6.515 1.875 6.515C2.08 6.515 2.25 6.685 2.25 6.89V8.045C2.25 8.985 3.015 9.75 3.955 9.75H5.11C5.315 9.75 5.485 9.92 5.485 10.125C5.485 10.33 5.32 10.5 5.11 10.5ZM5.11 2.25H3.955C3.015 2.25 2.25 3.015 2.25 3.955V5.11C2.25 5.315 2.08 5.485 1.875 5.485C1.67 5.485 1.5 5.32 1.5 5.11V3.955C1.5 2.6 2.6 1.5 3.955 1.5H5.11C5.315 1.5 5.485 1.67 5.485 1.875C5.485 2.08 5.32 2.25 5.11 2.25ZM10.5 8.045C10.5 9.4 9.4 10.5 8.045 10.5H7.35C7.145 10.5 6.975 10.33 6.975 10.125C6.975 9.92 7.145 9.75 7.35 9.75H8.045C8.985 9.75 9.75 8.985 9.75 8.045V7.35C9.75 7.145 9.92 6.975 10.125 6.975C10.33 6.975 10.5 7.145 10.5 7.35V8.045ZM10.5 5.11C10.5 5.315 10.33 5.485 10.125 5.485C9.92 5.485 9.75 5.315 9.75 5.11V3.955C9.75 3.015 8.985 2.25 8.045 2.25H6.89C6.685 2.25 6.515 2.08 6.515 1.875C6.515 1.67 6.68 1.5 6.89 1.5H8.045C9.4 1.5 10.5 2.6 10.5 3.955V5.11Z" fill="currentColor"/>
</svg>
