<svg width="12" height="12" viewBox="0 0 12 12" fill="none" xmlns="http://www.w3.org/2000/svg">
<path d="M10.475 2.065C10.33 1.855 10.145 1.67 9.935 1.525C9.46 1.18 8.84 1 8.095 1H3.905C3.805 1 3.705 1.005 3.61 1.015C1.97 1.12 1 2.185 1 3.905V8.095C1 8.84 1.18 9.46 1.525 9.935C1.67 10.145 1.855 10.33 2.065 10.475C2.475 10.775 2.995 10.95 3.61 10.99C3.705 10.995 3.805 11 3.905 11H8.095C9.915 11 11 9.915 11 8.095V3.905C11 3.16 10.82 2.54 10.475 2.065ZM9.375 5C9.375 5.205 9.205 5.375 9 5.375C8.795 5.375 8.625 5.205 8.625 5V3.905L6.53 6L8.625 8.095V7C8.625 6.795 8.795 6.625 9 6.625C9.205 6.625 9.375 6.795 9.375 7V9C9.375 9.05 9.365 9.095 9.345 9.145C9.305 9.235 9.235 9.31 9.14 9.35C9.095 9.37 9.045 9.38 8.995 9.38H6.995C6.79 9.38 6.62 9.21 6.62 9.005C6.62 8.8 6.79 8.63 6.995 8.63H8.09L6 6.53L3.905 8.625H5C5.205 8.625 5.375 8.795 5.375 9C5.375 9.205 5.205 9.375 5 9.375H3C2.95 9.375 2.9 9.365 2.855 9.345C2.765 9.305 2.69 9.235 2.65 9.14C2.635 9.095 2.625 9.05 2.625 9V7C2.625 6.795 2.795 6.625 3 6.625C3.205 6.625 3.375 6.795 3.375 7V8.095L5.47 6L3.375 3.905V5C3.375 5.205 3.205 5.375 3 5.375C2.795 5.375 2.625 5.205 2.625 5V3C2.625 2.95 2.635 2.905 2.655 2.855C2.695 2.765 2.765 2.69 2.86 2.65C2.905 2.635 2.95 2.625 3 2.625H5C5.205 2.625 5.375 2.795 5.375 3C5.375 3.205 5.205 3.375 5 3.375H3.905L6 5.47L8.095 3.375H7C6.795 3.375 6.625 3.205 6.625 3C6.625 2.795 6.795 2.625 7 2.625H9C9.05 2.625 9.095 2.635 9.145 2.655C9.235 2.695 9.31 2.765 9.35 2.86C9.365 2.905 9.375 2.95 9.375 3V5Z" fill="currentColor"/>
</svg>
