<svg width="12" height="12" viewBox="0 0 12 12" fill="none" xmlns="http://www.w3.org/2000/svg">
<path d="M10.6251 9.23505L9.8001 9.43005C9.6151 9.47505 9.4701 9.61505 9.4301 9.80005L9.2551 10.5351C9.1601 10.9351 8.6501 11.0601 8.3851 10.7451L6.8901 9.02505C6.7701 8.88505 6.8351 8.66505 7.0151 8.62005C7.9001 8.40505 8.6951 7.91005 9.2801 7.20505C9.3751 7.09005 9.5451 7.07505 9.6501 7.18005L10.7601 8.29005C11.1401 8.67005 11.0051 9.14505 10.6251 9.23505Z" fill="currentColor"/>
<path d="M1.34959 9.23505L2.17459 9.43005C2.35959 9.47505 2.50459 9.61505 2.54459 9.80005L2.71959 10.5351C2.81459 10.9351 3.32459 11.0601 3.58959 10.7451L5.0846 9.02505C5.2046 8.88505 5.1396 8.66505 4.95959 8.62005C4.07459 8.40505 3.27959 7.91005 2.69459 7.20505C2.59959 7.09005 2.42959 7.07505 2.32459 7.18005L1.21459 8.29005C0.834593 8.67005 0.969593 9.14505 1.34959 9.23505Z" fill="currentColor"/>
<path d="M6 1C4.065 1 2.5 2.565 2.5 4.5C2.5 5.225 2.715 5.89 3.085 6.445C3.625 7.245 4.48 7.81 5.475 7.955C5.645 7.985 5.82 8 6 8C6.18 8 6.355 7.985 6.525 7.955C7.52 7.81 8.375 7.245 8.915 6.445C9.285 5.89 9.5 5.225 9.5 4.5C9.5 2.565 7.935 1 6 1ZM7.53 4.39L7.115 4.805C7.045 4.875 7.005 5.01 7.03 5.11L7.15 5.625C7.245 6.03 7.03 6.19 6.67 5.975L6.17 5.68C6.08 5.625 5.93 5.625 5.84 5.68L5.34 5.975C4.98 6.185 4.765 6.03 4.86 5.625L4.98 5.11C5 5.015 4.965 4.875 4.895 4.805L4.47 4.39C4.225 4.145 4.305 3.9 4.645 3.845L5.18 3.755C5.27 3.74 5.375 3.66 5.415 3.58L5.71 2.99C5.87 2.67 6.13 2.67 6.29 2.99L6.585 3.58C6.625 3.66 6.73 3.74 6.825 3.755L7.36 3.845C7.695 3.9 7.775 4.145 7.53 4.39Z" fill="currentColor"/>
</svg>
