<svg width="12" height="12" viewBox="0 0 12 12" fill="none" xmlns="http://www.w3.org/2000/svg">
<path d="M6 7.5C7.86395 7.5 9.375 6.04495 9.375 4.25C9.375 2.45508 7.86395 1 6 1C4.13604 1 2.625 2.45508 2.625 4.25C2.625 6.04495 4.13604 7.5 6 7.5Z" fill="currentColor"/>
<path d="M7.895 7.80455C8.06 7.71955 8.25 7.84455 8.25 8.02955V10.4545C8.25 10.9045 7.935 11.1245 7.545 10.9396L6.205 10.3046C6.09 10.2545 5.91 10.2545 5.795 10.3046L4.455 10.9396C4.065 11.1196 3.75 10.8995 3.75 10.4495L3.76 8.02955C3.76 7.84455 3.955 7.72455 4.115 7.80455C4.68 8.08955 5.32 8.24955 6 8.24955C6.68 8.24955 7.325 8.08955 7.895 7.80455Z" fill="currentColor"/>
</svg>
