<svg width="12" height="12" viewBox="0 0 12 12" fill="none" xmlns="http://www.w3.org/2000/svg">
<path d="M10.4505 4.925L10.7455 9.87C10.7555 10.005 10.6905 10.095 10.6555 10.135C10.6155 10.18 10.5305 10.25 10.3905 10.25H9.02545L10.1055 4.925H10.4505ZM11.0005 3L10.9955 3.01C11.0055 3.13 10.9955 3.255 10.9655 3.38L7.28045 10.145C7.16045 10.65 6.71045 11 6.19045 11H10.3905C11.0355 11 11.5455 10.455 11.4955 9.81L11.0005 3Z" fill="currentColor"/>
<path d="M5.7251 1.12068C5.7751 0.920679 5.6501 0.715679 5.4501 0.665679C5.2501 0.620679 5.0451 0.740679 4.99512 0.940679L4.74512 1.97568H5.5151L5.7251 1.12068Z" fill="currentColor"/>
<path d="M9.02545 1.10429C9.07045 0.899294 8.94045 0.704294 8.73545 0.659294C8.53545 0.614294 8.33545 0.744294 8.29045 0.949294L8.06545 1.98429H8.83545L9.02545 1.10429Z" fill="currentColor"/>
<path d="M10.9099 2.6657C10.7449 2.2657 10.3549 1.9807 9.8749 1.9807H8.8349L8.5549 3.2757C8.5149 3.4507 8.3599 3.5707 8.1899 3.5707C8.1649 3.5707 8.1349 3.5707 8.1099 3.5607C7.9099 3.5157 7.7799 3.3157 7.8199 3.1157L8.0649 1.9757L5.5151 1.97568L5.1999 3.2757C5.1599 3.4457 5.0049 3.5607 4.83488 3.5607C4.80488 3.5607 4.77488 3.5557 4.74488 3.5507C4.54488 3.5007 4.41988 3.3007 4.46988 3.0957L4.73988 1.9707H3.72488C3.23488 1.9707 2.79988 2.2907 2.65488 2.7607L0.549877 9.5357C0.329879 10.2607 0.864877 11.0007 1.61988 11.0007H8.1899C8.7099 11.0007 9.1599 10.6507 9.2799 10.1457L10.9649 3.3807C10.9949 3.2557 11.0049 3.1307 10.9949 3.0107C10.9849 2.8907 10.9599 2.7707 10.9099 2.6657ZM7.3499 8.3757H3.34988C3.14488 8.3757 2.97488 8.2057 2.97488 8.0007C2.97488 7.7957 3.14488 7.6257 3.34988 7.6257H7.3499C7.5549 7.6257 7.7249 7.7957 7.7249 8.0007C7.7249 8.2057 7.5549 8.3757 7.3499 8.3757ZM7.8499 6.3757H3.84988C3.64488 6.3757 3.47488 6.2057 3.47488 6.0007C3.47488 5.7957 3.64488 5.6257 3.84988 5.6257H7.8499C8.0549 5.6257 8.2249 5.7957 8.2249 6.0007C8.2249 6.2057 8.0549 6.3757 7.8499 6.3757Z" fill="currentColor"/>
</svg>
