<svg width="12" height="12" viewBox="0 0 12 12" fill="none" xmlns="http://www.w3.org/2000/svg">
<path d="M8.77005 4.40532C9.5874 4.40532 10.25 3.7427 10.25 2.92531C10.25 2.10793 9.5874 1.44531 8.77005 1.44531C7.95265 1.44531 7.29005 2.10793 7.29005 2.92531C7.29005 3.7427 7.95265 4.40532 8.77005 4.40532Z" fill="currentColor"/>
<path d="M3.23 4.40532C4.04738 4.40532 4.71 3.7427 4.71 2.92531C4.71 2.10793 4.04738 1.44531 3.23 1.44531C2.41262 1.44531 1.75 2.10793 1.75 2.92531C1.75 3.7427 2.41262 4.40532 3.23 4.40532Z" fill="currentColor"/>
<path d="M8.77005 10.5557C9.5874 10.5557 10.25 9.8931 10.25 9.0757C10.25 8.2583 9.5874 7.5957 8.77005 7.5957C7.95265 7.5957 7.29005 8.2583 7.29005 9.0757C7.29005 9.8931 7.95265 10.5557 8.77005 10.5557Z" fill="currentColor"/>
<path d="M3.23 10.5557C4.04738 10.5557 4.71 9.8931 4.71 9.0757C4.71 8.2583 4.04738 7.5957 3.23 7.5957C2.41262 7.5957 1.75 8.2583 1.75 9.0757C1.75 9.8931 2.41262 10.5557 3.23 10.5557Z" fill="currentColor"/>
</svg>
