<svg width="12" height="12" viewBox="0 0 12 12" fill="none" xmlns="http://www.w3.org/2000/svg">
<path d="M8.095 1H3.905C2.085 1 1 2.085 1 3.905V8.09C1 9.915 2.085 11 3.905 11H8.09C9.91 11 10.995 9.915 10.995 8.095V3.905C11 2.085 9.915 1 8.095 1ZM8.5 8.625H3.5C3.295 8.625 3.125 8.455 3.125 8.25C3.125 8.045 3.295 7.875 3.5 7.875H8.5C8.705 7.875 8.875 8.045 8.875 8.25C8.875 8.455 8.705 8.625 8.5 8.625ZM8.5 6.375H3.5C3.295 6.375 3.125 6.205 3.125 6C3.125 5.795 3.295 5.625 3.5 5.625H8.5C8.705 5.625 8.875 5.795 8.875 6C8.875 6.205 8.705 6.375 8.5 6.375ZM8.5 4.125H3.5C3.295 4.125 3.125 3.955 3.125 3.75C3.125 3.545 3.295 3.375 3.5 3.375H8.5C8.705 3.375 8.875 3.545 8.875 3.75C8.875 3.955 8.705 4.125 8.5 4.125Z" fill="currentColor"/>
</svg>
