<svg width="12" height="12" viewBox="0 0 12 12" fill="none" xmlns="http://www.w3.org/2000/svg">
<path d="M8 1H4C2 1 1 2 1 4V10.5C1 10.775 1.225 11 1.5 11H8C10 11 11 10 11 8V4C11 2 10 1 8 1ZM5.555 8.33C5.43 8.455 5.2 8.57 5.03 8.595L3.99 8.74C3.95 8.745 3.91 8.75 3.875 8.75C3.7 8.75 3.54 8.69 3.425 8.575C3.285 8.435 3.225 8.23 3.26 8.01L3.405 6.97C3.43 6.8 3.545 6.565 3.67 6.445L5.555 4.56C5.585 4.65 5.625 4.74 5.67 4.84C5.715 4.93 5.76 5.02 5.81 5.105C5.85 5.175 5.895 5.245 5.935 5.295C5.985 5.37 6.035 5.435 6.07 5.47C6.09 5.5 6.11 5.52 6.115 5.53C6.225 5.655 6.34 5.775 6.45 5.865C6.48 5.895 6.5 5.91 6.505 5.915C6.57 5.965 6.63 6.02 6.69 6.055C6.755 6.105 6.825 6.15 6.895 6.19C6.98 6.24 7.07 6.29 7.165 6.335C7.26 6.38 7.35 6.415 7.44 6.445L5.555 8.33ZM8.275 5.615L7.885 6.005C7.86 6.03 7.825 6.045 7.79 6.045C7.78 6.045 7.76 6.045 7.75 6.04C6.89 5.795 6.205 5.11 5.96 4.25C5.945 4.205 5.96 4.155 5.995 4.12L6.39 3.725C7.035 3.08 7.645 3.095 8.275 3.725C8.595 4.045 8.755 4.355 8.75 4.675C8.75 4.99 8.595 5.295 8.275 5.615Z" fill="currentColor"/>
</svg>
