<svg width="12" height="12" viewBox="0 0 12 12" fill="none" xmlns="http://www.w3.org/2000/svg">
<path d="M8.5 1H3.5C2.12 1 1 2.115 1 3.49V6.48V6.98C1 8.355 2.12 9.47 3.5 9.47H4.25C4.385 9.47 4.565 9.56 4.65 9.67L5.4 10.665C5.73 11.105 6.27 11.105 6.6 10.665L7.35 9.67C7.445 9.545 7.595 9.47 7.75 9.47H8.5C9.88 9.47 11 8.355 11 6.98V3.49C11 2.115 9.88 1 8.5 1ZM7.83 7.265C7.755 7.34 7.66 7.375 7.565 7.375C7.47 7.375 7.375 7.34 7.3 7.265L6.93 6.895C6.64 7.085 6.29 7.2 5.915 7.2C4.895 7.2 4.065 6.37 4.065 5.35C4.065 4.33 4.89 3.5 5.915 3.5C6.94 3.5 7.765 4.33 7.765 5.35C7.765 5.725 7.65 6.075 7.46 6.365L7.83 6.735C7.975 6.88 7.975 7.12 7.83 7.265Z" fill="currentColor"/>
</svg>
