<svg width="12" height="12" viewBox="0 0 12 12" fill="none" xmlns="http://www.w3.org/2000/svg">
<path d="M8 0.984375H4C2 0.984375 1 1.98438 1 3.98438V6.4844C1 8.9844 2 9.4844 4 9.4844H4.25C4.39 9.4844 4.57 9.5744 4.65 9.6844L5.4 10.6844C5.73 11.1244 6.27 11.1244 6.6 10.6844L7.35 9.6844C7.445 9.5594 7.595 9.4844 7.75 9.4844H8C10 9.4844 11 8.4844 11 6.4844V3.98438C11 1.98438 10 0.984375 8 0.984375ZM4.265 6.08435C4.41 6.22935 4.41 6.46935 4.265 6.61435C4.19 6.68935 4.095 6.72435 4 6.72435C3.905 6.72435 3.81 6.68935 3.735 6.61435L2.735 5.61435C2.59 5.46935 2.59 5.22935 2.735 5.08435L3.735 4.08437C3.88 3.93937 4.12 3.93937 4.265 4.08437C4.41 4.22937 4.41 4.46938 4.265 4.61438L3.53 5.34935L4.265 6.08435ZM6.845 4.32937L5.845 6.66435C5.785 6.80435 5.645 6.88935 5.5 6.88935C5.45 6.88935 5.4 6.87935 5.35 6.8594C5.16 6.7794 5.07 6.55935 5.155 6.36435L6.155 4.02938C6.235 3.83938 6.455 3.74937 6.65 3.83437C6.84 3.91937 6.925 4.13937 6.845 4.32937ZM9.265 5.61435L8.265 6.61435C8.19 6.68935 8.095 6.72435 8 6.72435C7.905 6.72435 7.81 6.68935 7.735 6.61435C7.59 6.46935 7.59 6.22935 7.735 6.08435L8.47 5.34935L7.735 4.61438C7.59 4.46938 7.59 4.22937 7.735 4.08437C7.88 3.93937 8.12 3.93937 8.265 4.08437L9.265 5.08435C9.41 5.22935 9.41 5.46935 9.265 5.61435Z" fill="currentColor"/>
</svg>
