<svg width="12" height="12" viewBox="0 0 12 12" fill="none" xmlns="http://www.w3.org/2000/svg">
<path d="M6.595 3H3.395C3.265 3 3.14 3.005 3.02 3.02C1.675 3.135 1 3.93 1 5.395V7.395C1 9.395 1.8 9.79 3.395 9.79H3.595C3.705 9.79 3.85 9.865 3.915 9.95L4.515 10.75C4.78 11.105 5.21 11.105 5.475 10.75L6.075 9.95C6.15 9.85 6.27 9.79 6.395 9.79H6.595C8.06 9.79 8.855 9.12 8.97 7.77C8.985 7.65 8.99 7.525 8.99 7.395V5.395C8.99 3.8 8.19 3 6.595 3ZM3.25 7C2.97 7 2.75 6.775 2.75 6.5C2.75 6.225 2.975 6 3.25 6C3.525 6 3.75 6.225 3.75 6.5C3.75 6.775 3.525 7 3.25 7ZM4.995 7C4.715 7 4.495 6.775 4.495 6.5C4.495 6.225 4.72 6 4.995 6C5.27 6 5.495 6.225 5.495 6.5C5.495 6.775 5.275 7 4.995 7ZM6.745 7C6.465 7 6.245 6.775 6.245 6.5C6.245 6.225 6.47 6 6.745 6C7.02 6 7.245 6.225 7.245 6.5C7.245 6.775 7.02 7 6.745 7Z" fill="currentColor"/>
<path d="M10.9901 3.395V5.395C10.9901 6.395 10.6801 7.075 10.0601 7.45C9.9101 7.54 9.7351 7.42 9.7351 7.245L9.7401 5.395C9.7401 3.395 8.5951 2.25 6.5951 2.25L3.55012 2.255C3.37512 2.255 3.25513 2.08 3.34512 1.93C3.72012 1.31 4.40013 1 5.3951 1H8.5951C10.1901 1 10.9901 1.8 10.9901 3.395Z" fill="currentColor"/>
</svg>
