<svg width="12" height="12" viewBox="0 0 12 12" fill="none" xmlns="http://www.w3.org/2000/svg">
<path d="M3.985 7.415C3.625 7.005 3.09 6.75 2.5 6.75C1.395 6.75 0.5 7.645 0.5 8.75C0.5 9.125 0.605 9.48 0.79 9.78C0.89 9.95 1.02 10.105 1.17 10.235C1.52 10.555 1.985 10.75 2.5 10.75C3.23 10.75 3.865 10.36 4.21 9.78C4.395 9.48 4.5 9.125 4.5 8.75C4.5 8.24 4.305 7.77 3.985 7.415ZM3.3 9.54C3.225 9.615 3.13 9.65 3.035 9.65C2.94 9.65 2.845 9.615 2.77 9.54L2.505 9.275L2.23 9.55C2.155 9.625 2.06 9.66 1.965 9.66C1.87 9.66 1.775 9.625 1.7 9.55C1.555 9.405 1.555 9.165 1.7 9.02L1.975 8.745L1.71 8.48C1.565 8.335 1.565 8.095 1.71 7.95C1.855 7.805 2.095 7.805 2.24 7.95L2.505 8.215L2.755 7.965C2.9 7.82 3.14 7.82 3.285 7.965C3.43 8.11 3.43 8.35 3.285 8.495L3.035 8.745L3.3 9.01C3.445 9.155 3.445 9.39 3.3 9.54Z" fill="currentColor"/>
<path d="M8.625 1.21484H3.875C2.45 1.21484 1.5 2.16484 1.5 3.58984V5.81985C1.5 5.99485 1.68 6.11985 1.85 6.07485C2.06 6.02485 2.275 5.99985 2.5 5.99985C3.93 5.99985 5.11 7.15985 5.24 8.56485C5.25 8.70485 5.365 8.81485 5.5 8.81485H5.775L7.89 10.2248C8.2 10.4348 8.625 10.2048 8.625 9.82485V8.81485C9.335 8.81485 9.93 8.57485 10.345 8.16485C10.76 7.74485 11 7.14985 11 6.43985V3.58984C11 2.16484 10.05 1.21484 8.625 1.21484ZM7.915 5.40485H4.585C4.39 5.40485 4.23 5.24485 4.23 5.04985C4.23 4.84984 4.39 4.68984 4.585 4.68984H7.915C8.11 4.68984 8.27 4.84984 8.27 5.04985C8.27 5.24485 8.11 5.40485 7.915 5.40485Z" fill="currentColor"/>
</svg>
