<svg width="12" height="12" viewBox="0 0 12 12" fill="none" xmlns="http://www.w3.org/2000/svg">
<path d="M2.5 6.75C2.03 6.75 1.595 6.915 1.25 7.19C0.79 7.555 0.5 8.12 0.5 8.75C0.5 9.855 1.395 10.75 2.5 10.75C3.005 10.75 3.465 10.56 3.82 10.25C4.235 9.885 4.5 9.35 4.5 8.75C4.5 7.645 3.605 6.75 2.5 6.75ZM3 8.875C3 9.005 2.93 9.13 2.82 9.195L2.195 9.57C2.135 9.61 2.065 9.625 2 9.625C1.875 9.625 1.75 9.56 1.68 9.445C1.575 9.265 1.63 9.035 1.81 8.93L2.255 8.665V8.125C2.255 7.92 2.425 7.75 2.63 7.75C2.835 7.75 3 7.92 3 8.125V8.875Z" fill="currentColor"/>
<path d="M8.625 1.21484H3.875C2.45 1.21484 1.5 2.16484 1.5 3.58984V5.81985C1.5 5.99485 1.68 6.11985 1.85 6.07485C2.06 6.02485 2.275 5.99985 2.5 5.99985C3.93 5.99985 5.11 7.15985 5.24 8.56485C5.25 8.70485 5.365 8.81485 5.5 8.81485H5.775L7.89 10.2248C8.2 10.4348 8.625 10.2048 8.625 9.82485V8.81485C9.335 8.81485 9.93 8.57485 10.345 8.16485C10.76 7.74485 11 7.14985 11 6.43985V3.58984C11 2.16484 10.05 1.21484 8.625 1.21484ZM7.915 5.40485H4.585C4.39 5.40485 4.23 5.24485 4.23 5.04985C4.23 4.84984 4.39 4.68984 4.585 4.68984H7.915C8.11 4.68984 8.27 4.84984 8.27 5.04985C8.27 5.24485 8.11 5.40485 7.915 5.40485Z" fill="currentColor"/>
</svg>
