<svg width="12" height="12" viewBox="0 0 12 12" fill="none" xmlns="http://www.w3.org/2000/svg">
<path d="M9.2352 8.415L9.4302 9.995C9.4802 10.41 9.0352 10.7 8.6802 10.485L6.9502 9.455C6.8302 9.385 6.8002 9.235 6.8652 9.115C7.1152 8.655 7.2502 8.135 7.2502 7.615C7.2502 5.785 5.6802 4.295 3.75019 4.295C3.35519 4.295 2.97019 4.355 2.61019 4.475C2.42519 4.535 2.24519 4.365 2.29019 4.175C2.74519 2.355 4.49519 1 6.5852 1C9.0252 1 11.0002 2.845 11.0002 5.12C11.0002 6.47 10.3052 7.665 9.2352 8.415Z" fill="currentColor"/>
<path d="M6.5 7.6149C6.5 8.2099 6.28 8.7599 5.91 9.1949C5.415 9.7949 4.63 10.1799 3.75 10.1799L2.445 10.9549C2.225 11.0899 1.945 10.9049 1.975 10.6499L2.1 9.6649C1.43 9.1999 1 8.4549 1 7.6149C1 6.7349 1.47 5.9599 2.19 5.4999C2.635 5.2099 3.17 5.0449 3.75 5.0449C5.27 5.0449 6.5 6.1949 6.5 7.6149Z" fill="currentColor"/>
</svg>
