<svg width="12" height="12" viewBox="0 0 12 12" fill="none" xmlns="http://www.w3.org/2000/svg">
<path d="M6 1C3.24 1 1 3.24 1 6C1 8.76 3.24 11 6 11C8.76 11 11 8.76 11 6C11 3.24 8.76 1 6 1ZM8.625 6.405C8.625 6.49 8.62 6.57 8.61 6.65C8.535 7.535 8.01 7.975 7.05 7.975H6.92C6.84 7.975 6.76 8.015 6.71 8.08L6.315 8.605C6.14 8.84 5.86 8.84 5.685 8.605L5.29 8.08C5.245 8.025 5.15 7.975 5.08 7.975H4.95C3.905 7.975 3.375 7.715 3.375 6.4V5.085C3.375 4.125 3.82 3.6 4.7 3.525C4.78 3.52 4.865 3.52 4.95 3.52H7.05C8.095 3.52 8.625 4.045 8.625 5.095V6.405Z" fill="currentColor"/>
</svg>
