<svg width="12" height="12" viewBox="0 0 12 12" fill="none" xmlns="http://www.w3.org/2000/svg">
<path d="M10.485 0.5H9.015C8.38 0.5 8 0.88 8 1.515V2.985C8 3.62 8.38 4 9.015 4H10.485C11.12 4 11.5 3.62 11.5 2.985V1.515C11.5 0.88 11.12 0.5 10.485 0.5ZM10.805 2.34C10.62 2.93 9.975 3.25 9.75 3.25C9.525 3.25 8.885 2.94 8.695 2.34C8.665 2.25 8.65 2.15 8.65 2.055C8.65 1.73 8.815 1.395 9.16 1.285C9.365 1.22 9.585 1.255 9.74 1.385C9.9 1.26 10.12 1.22 10.33 1.285C10.79 1.43 10.935 1.945 10.805 2.34Z" fill="currentColor"/>
<path d="M9.015 4.75C8.04 4.75 7.25 3.96 7.25 2.985V1.5C7.25 1.225 7.025 1 6.75 1H3.5C2.12 1 1 2.115 1 3.49V6.975C1 8.355 2.12 9.475 3.5 9.475H4.25C4.39 9.475 4.57 9.565 4.65 9.675L5.4 10.67C5.73 11.11 6.27 11.11 6.6 10.67L7.35 9.675C7.445 9.55 7.595 9.475 7.75 9.475H8.505C9.885 9.475 11 8.36 11 6.98V5.25C11 4.975 10.775 4.75 10.5 4.75H9.015ZM4 6C3.72 6 3.5 5.775 3.5 5.5C3.5 5.225 3.72 5 4 5C4.275 5 4.5 5.225 4.5 5.5C4.5 5.775 4.28 6 4 6ZM6 6C5.72 6 5.5 5.775 5.5 5.5C5.5 5.225 5.72 5 6 5C6.275 5 6.5 5.225 6.5 5.5C6.5 5.775 6.28 6 6 6Z" fill="currentColor"/>
</svg>
