<svg width="12" height="12" viewBox="0 0 12 12" fill="none" xmlns="http://www.w3.org/2000/svg">
<path d="M8 1H4C2 1 1 2 1 4V10.5C1 10.775 1.225 11 1.5 11H8C10 11 11 10 11 8V4C11 2 10 1 8 1ZM7 7.625H3.5C3.295 7.625 3.125 7.455 3.125 7.25C3.125 7.045 3.295 6.875 3.5 6.875H7C7.205 6.875 7.375 7.045 7.375 7.25C7.375 7.455 7.205 7.625 7 7.625ZM8.5 5.125H3.5C3.295 5.125 3.125 4.955 3.125 4.75C3.125 4.545 3.295 4.375 3.5 4.375H8.5C8.705 4.375 8.875 4.545 8.875 4.75C8.875 4.955 8.705 5.125 8.5 5.125Z" fill="currentColor"/>
</svg>
