<svg width="12" height="12" viewBox="0 0 12 12" fill="none" xmlns="http://www.w3.org/2000/svg">
<path d="M2.5 6.75C1.395 6.75 0.5 7.645 0.5 8.75C0.5 9.125 0.605 9.48 0.79 9.78C1.135 10.36 1.77 10.75 2.5 10.75C3.23 10.75 3.865 10.36 4.21 9.78C4.395 9.48 4.5 9.125 4.5 8.75C4.5 7.645 3.605 6.75 2.5 6.75ZM3.485 8.585L2.42 9.57C2.35 9.635 2.255 9.67 2.165 9.67C2.07 9.67 1.975 9.635 1.9 9.56L1.405 9.065C1.26 8.92 1.26 8.68 1.405 8.535C1.55 8.39 1.79 8.39 1.935 8.535L2.175 8.775L2.975 8.035C3.125 7.895 3.365 7.905 3.505 8.055C3.645 8.205 3.635 8.445 3.485 8.585Z" fill="currentColor"/>
<path d="M8.625 1.21484H3.875C2.45 1.21484 1.5 2.16484 1.5 3.58984V5.81985C1.5 5.99485 1.68 6.11985 1.85 6.07485C2.06 6.02485 2.275 5.99985 2.5 5.99985C3.93 5.99985 5.11 7.15985 5.24 8.56485C5.25 8.70485 5.365 8.81485 5.5 8.81485H5.775L7.89 10.2248C8.2 10.4348 8.625 10.2048 8.625 9.82485V8.81485C9.335 8.81485 9.93 8.57485 10.345 8.16485C10.76 7.74485 11 7.14985 11 6.43985V3.58984C11 2.16484 10.05 1.21484 8.625 1.21484ZM7.915 5.40485H4.585C4.39 5.40485 4.23 5.24485 4.23 5.04985C4.23 4.84984 4.39 4.68984 4.585 4.68984H7.915C8.11 4.68984 8.27 4.84984 8.27 5.04985C8.27 5.24485 8.11 5.40485 7.915 5.40485Z" fill="currentColor"/>
</svg>
