<svg width="12" height="12" viewBox="0 0 12 12" fill="none" xmlns="http://www.w3.org/2000/svg">
<path d="M8.5 1.21484H3.5C2 1.21484 1 2.21484 1 3.71484V6.71485C1 8.21485 2 9.21485 3.5 9.21485V10.2798C3.5 10.6798 3.945 10.9198 4.275 10.6948L6.5 9.21485H8.5C10 9.21485 11 8.21485 11 6.71485V3.71484C11 2.21484 10 1.21484 8.5 1.21484ZM6 7.29985C5.79 7.29985 5.625 7.12985 5.625 6.92485C5.625 6.71985 5.79 6.54985 6 6.54985C6.21 6.54985 6.375 6.71985 6.375 6.92485C6.375 7.12985 6.21 7.29985 6 7.29985ZM6.63 5.22485C6.435 5.35485 6.375 5.43985 6.375 5.57985V5.68485C6.375 5.88985 6.205 6.05985 6 6.05985C5.795 6.05985 5.625 5.88985 5.625 5.68485V5.57985C5.625 4.99984 6.05 4.71484 6.21 4.60484C6.395 4.47984 6.455 4.39484 6.455 4.26484C6.455 4.01484 6.25 3.80984 6 3.80984C5.75 3.80984 5.545 4.01484 5.545 4.26484C5.545 4.46984 5.375 4.63984 5.17 4.63984C4.965 4.63984 4.795 4.46984 4.795 4.26484C4.795 3.59984 5.335 3.05984 6 3.05984C6.665 3.05984 7.205 3.59984 7.205 4.26484C7.205 4.83484 6.785 5.11985 6.63 5.22485Z" fill="currentColor"/>
</svg>
