<svg width="12" height="12" viewBox="0 0 12 12" fill="none" xmlns="http://www.w3.org/2000/svg">
<path d="M8.5 1.21484H3.5C2 1.21484 1 2.21484 1 3.71484V6.71485C1 8.21485 2 9.21485 3.5 9.21485H5.5L7.725 10.6948C8.055 10.9148 8.5 10.6798 8.5 10.2798V9.21485C10 9.21485 11 8.21485 11 6.71485V3.71484C11 2.21484 10 1.21484 8.5 1.21484ZM7.75 5.62485H4.25C4.045 5.62485 3.875 5.45485 3.875 5.24985C3.875 5.04485 4.045 4.87484 4.25 4.87484H7.75C7.955 4.87484 8.125 5.04485 8.125 5.24985C8.125 5.45485 7.955 5.62485 7.75 5.62485Z" fill="currentColor"/>
</svg>
