<svg width="12" height="12" viewBox="0 0 12 12" fill="none" xmlns="http://www.w3.org/2000/svg">
<path d="M10 3.375C10.7594 3.375 11.375 2.75939 11.375 2C11.375 1.24061 10.7594 0.625 10 0.625C9.2406 0.625 8.625 1.24061 8.625 2C8.625 2.75939 9.2406 3.375 10 3.375Z" fill="currentColor"/>
<path d="M9.52 4.075C8.735 3.905 8.095 3.265 7.925 2.48C7.86 2.175 7.855 1.88 7.91 1.6C7.975 1.29 7.745 1 7.425 1H3.5C2.12 1 1 2.12 1 3.5V6.975C1 8.355 2.12 9.475 3.5 9.475H4.25C4.39 9.475 4.57 9.565 4.65 9.675L5.4 10.67C5.73 11.11 6.27 11.11 6.6 10.67L7.35 9.675C7.445 9.55 7.59 9.475 7.75 9.475H8.505C9.885 9.475 11 8.36 11 6.98V4.575C11 4.26 10.71 4.03 10.4 4.09C10.12 4.14 9.825 4.14 9.52 4.075ZM4 6C3.72 6 3.5 5.775 3.5 5.5C3.5 5.225 3.72 5 4 5C4.275 5 4.5 5.225 4.5 5.5C4.5 5.775 4.28 6 4 6ZM6 6C5.72 6 5.5 5.775 5.5 5.5C5.5 5.225 5.72 5 6 5C6.275 5 6.5 5.225 6.5 5.5C6.5 5.775 6.28 6 6 6ZM8 6C7.72 6 7.5 5.775 7.5 5.5C7.5 5.225 7.72 5 8 5C8.275 5 8.5 5.225 8.5 5.5C8.5 5.775 8.28 6 8 6Z" fill="currentColor"/>
</svg>
