<svg width="12" height="12" viewBox="0 0 12 12" fill="none" xmlns="http://www.w3.org/2000/svg">
<path d="M8.095 1H3.905C2.085 1 1 2.085 1 3.905V8.09C1 9.915 2.085 11 3.905 11H8.09C9.91 11 10.995 9.915 10.995 8.095V3.905C11 2.085 9.915 1 8.095 1ZM9.14 6.455C9.14 6.555 9.135 6.655 9.125 6.75C9.035 7.81 8.41 8.34 7.26 8.34H7.1C7 8.34 6.905 8.385 6.85 8.465L6.38 9.095C6.17 9.375 5.835 9.375 5.625 9.095L5.155 8.465C5.105 8.4 4.99 8.34 4.905 8.34H4.745C3.49 8.34 2.865 8.03 2.865 6.46V4.88C2.865 3.73 3.395 3.105 4.455 3.015C4.54 3.005 4.64 3 4.745 3H7.26C8.515 3 9.14 3.63 9.14 4.88V6.455Z" fill="currentColor"/>
</svg>
