<svg width="12" height="12" viewBox="0 0 12 12" fill="none" xmlns="http://www.w3.org/2000/svg">
<path d="M2.605 6.75585C2.06 6.72085 1.5 6.92085 1.085 7.33585C0.305 8.11585 0.305 9.38085 1.085 10.1658C1.35 10.4308 1.675 10.6058 2.02 10.6908C2.21 10.7408 2.41 10.7558 2.61 10.7458C3.085 10.7258 3.55 10.5358 3.915 10.1708C4.43 9.65585 4.605 8.93085 4.44 8.27585C4.36 7.93085 4.18 7.60585 3.915 7.34085C3.555 6.97585 3.085 6.78085 2.605 6.75585ZM3.62 8.74085C3.62 8.84585 3.58 8.93585 3.51 9.00585C3.44 9.07585 3.35 9.11585 3.245 9.11585H2.875V9.50585C2.875 9.61085 2.835 9.70085 2.765 9.77085C2.695 9.84085 2.605 9.88085 2.5 9.88085C2.295 9.88085 2.125 9.71085 2.125 9.50585V9.11585H1.75C1.545 9.11585 1.375 8.94585 1.375 8.74085C1.375 8.53585 1.545 8.36585 1.75 8.36585H2.125V8.01085C2.125 7.80585 2.295 7.63585 2.5 7.63585C2.705 7.63585 2.875 7.80585 2.875 8.01085V8.36585H3.245C3.455 8.36585 3.62 8.53585 3.62 8.74085Z" fill="currentColor"/>
<path d="M8.625 1.21484H3.875C2.45 1.21484 1.5 2.16484 1.5 3.58984V5.81985C1.5 5.99485 1.68 6.11985 1.85 6.07485C2.06 6.02485 2.275 5.99985 2.5 5.99985C3.93 5.99985 5.11 7.15985 5.24 8.56485C5.25 8.70485 5.365 8.81485 5.5 8.81485H5.775L7.89 10.2248C8.2 10.4348 8.625 10.2048 8.625 9.82485V8.81485C9.335 8.81485 9.93 8.57485 10.345 8.16485C10.76 7.74485 11 7.14985 11 6.43985V3.58984C11 2.16484 10.05 1.21484 8.625 1.21484ZM7.915 5.40485H4.585C4.39 5.40485 4.23 5.24485 4.23 5.04985C4.23 4.84984 4.39 4.68984 4.585 4.68984H7.915C8.11 4.68984 8.27 4.84984 8.27 5.04985C8.27 5.24485 8.11 5.40485 7.915 5.40485Z" fill="currentColor"/>
</svg>
