<svg width="12" height="12" viewBox="0 0 12 12" fill="none" xmlns="http://www.w3.org/2000/svg">
<path d="M10.9994 6.42975C10.9994 7.57475 10.4094 8.58975 9.49945 9.22975L8.82945 10.7048C8.67445 11.0398 8.22445 11.1047 7.98945 10.8197L7.24945 9.92975C6.31945 9.92975 5.46445 9.61475 4.81446 9.08975L5.11445 8.73475C7.42445 8.55975 9.24945 6.72975 9.24945 4.49976C9.24945 4.11976 9.19445 3.74476 9.09445 3.38476C10.2295 3.98477 10.9994 5.12475 10.9994 6.42975Z" fill="currentColor"/>
<path d="M8.15 3.035C7.565 1.835 6.26 1 4.75 1C2.68 1 1 2.565 1 4.5C1 5.645 1.59 6.66 2.5 7.3L3.17 8.775C3.325 9.11 3.775 9.17 4.01 8.89L4.285 8.56L4.75 8C6.82 8 8.5 6.435 8.5 4.5C8.5 3.975 8.375 3.48 8.15 3.035ZM6 4.875H3.5C3.295 4.875 3.125 4.705 3.125 4.5C3.125 4.295 3.295 4.125 3.5 4.125H6C6.205 4.125 6.375 4.295 6.375 4.5C6.375 4.705 6.205 4.875 6 4.875Z" fill="currentColor"/>
</svg>
