<svg width="12" height="12" viewBox="0 0 12 12" fill="none" xmlns="http://www.w3.org/2000/svg">
<path d="M8.5 1H3.5C2.12 1 1 2.115 1 3.49V6.48V6.98C1 8.355 2.12 9.47 3.5 9.47H4.25C4.385 9.47 4.565 9.56 4.65 9.67L5.4 10.665C5.73 11.105 6.27 11.105 6.6 10.665L7.35 9.67C7.445 9.545 7.595 9.47 7.75 9.47H8.5C9.88 9.47 11 8.355 11 6.98V3.49C11 2.115 9.88 1 8.5 1ZM6.5 6.875H3.5C3.295 6.875 3.125 6.705 3.125 6.5C3.125 6.295 3.295 6.125 3.5 6.125H6.5C6.705 6.125 6.875 6.295 6.875 6.5C6.875 6.705 6.705 6.875 6.5 6.875ZM8.5 4.375H3.5C3.295 4.375 3.125 4.205 3.125 4C3.125 3.795 3.295 3.625 3.5 3.625H8.5C8.705 3.625 8.875 3.795 8.875 4C8.875 4.205 8.705 4.375 8.5 4.375Z" fill="currentColor"/>
</svg>
