<svg width="12" height="12" viewBox="0 0 12 12" fill="none" xmlns="http://www.w3.org/2000/svg">
<path d="M8.20905 3.2108V3.7908L4.56907 7.4308C4.08907 6.9958 3.78906 6.3558 3.78906 5.6708V3.2108C3.78906 2.1808 4.48907 1.3258 5.43905 1.0808C5.53405 1.0558 5.62405 1.1358 5.62405 1.2308V2.0008C5.62405 2.2058 5.79405 2.3758 5.99905 2.3758C6.20405 2.3758 6.37405 2.2058 6.37405 2.0008V1.2308C6.37405 1.1358 6.46405 1.0558 6.55905 1.0808C7.50905 1.3258 8.20905 2.1808 8.20905 3.2108Z" fill="currentColor"/>
<path d="M9.90585 4.90554V5.70055C9.90585 7.73555 8.34085 9.41055 6.35085 9.58555V10.6505C6.35085 10.8455 6.19585 11.0005 6.00085 11.0005C5.80585 11.0005 5.65085 10.8455 5.65085 10.6505V9.58555C5.10585 9.53555 4.59086 9.37555 4.13086 9.12055L4.64586 8.60555C5.05585 8.79555 5.51585 8.90555 6.00085 8.90555C7.77085 8.90555 9.21085 7.46555 9.21085 5.70055V4.90554C9.21085 4.71554 9.36585 4.56054 9.56085 4.56054C9.75085 4.56054 9.90585 4.71554 9.90585 4.90554Z" fill="currentColor"/>
<path d="M8.20915 5.03905V5.76405C8.20915 7.05405 7.09915 8.08905 5.77915 7.96405C5.63915 7.94905 5.49915 7.92405 5.36915 7.87905L8.20915 5.03905Z" fill="currentColor"/>
<path d="M10.8856 1.11445C10.7356 0.964453 10.4906 0.964453 10.3406 1.11445L3.61555 7.83945C3.10055 7.27445 2.79055 6.52445 2.79055 5.69945V4.90445C2.79055 4.71445 2.63555 4.55945 2.44055 4.55945C2.25055 4.55945 2.09555 4.71445 2.09555 4.90445V5.69945C2.09555 6.71445 2.48555 7.63945 3.12055 8.33445L1.11055 10.3444C0.960547 10.4944 0.960547 10.7394 1.11055 10.8894C1.19055 10.9594 1.28555 10.9994 1.38555 10.9994C1.48555 10.9994 1.58055 10.9594 1.65555 10.8844L10.8856 1.65445C11.0406 1.50445 11.0406 1.26445 10.8856 1.11445Z" fill="currentColor"/>
</svg>
