<svg width="12" height="12" viewBox="0 0 12 12" fill="none" xmlns="http://www.w3.org/2000/svg">
<path d="M7.4203 5.4493L10.2503 3.55431C10.5353 3.36431 10.6103 2.97431 10.4203 2.69431L9.5103 1.33931C9.3203 1.05431 8.9303 0.97931 8.6503 1.16931L5.8203 3.06431L7.4203 5.4493Z" fill="currentColor"/>
<path d="M7.25985 5.2108L6.37985 5.8008L5.04485 6.6958L4.86985 6.8108L4.78985 6.6908L3.66985 5.0208L3.58985 4.90078L5.97985 3.30078L7.25985 5.2108Z" fill="currentColor"/>
<path d="M2.81956 8.00955L4.79456 6.68955L3.67456 5.01955L1.69956 6.33955C1.46956 6.49455 1.40956 6.80455 1.56456 7.03455L2.12956 7.87455C2.27956 8.10455 2.58956 8.16455 2.81956 8.00955Z" fill="currentColor"/>
<path d="M8.2797 10.9058C8.2297 10.9258 8.1747 10.9408 8.1247 10.9408C7.9797 10.9408 7.8447 10.8558 7.7797 10.7158L5.9147 6.5958L4.02471 10.7208C3.95971 10.8558 3.82471 10.9408 3.67971 10.9408C3.62971 10.9408 3.57471 10.9258 3.52471 10.9058C3.33971 10.8158 3.25471 10.5958 3.33971 10.4058L5.04485 6.6958L6.37985 5.8008L8.4647 10.4108C8.5497 10.5958 8.4647 10.8208 8.2797 10.9058Z" fill="currentColor"/>
</svg>
