<svg width="12" height="12" viewBox="0 0 12 12" fill="none" xmlns="http://www.w3.org/2000/svg">
<path d="M8.80945 2.86L3.50445 8.165C3.13945 7.67 2.93945 7.065 2.93945 6.41V4.055C2.93945 3.135 3.34945 2.31 3.99945 1.75V3.82C3.99945 4.015 4.15945 4.175 4.34945 4.175C4.54445 4.175 4.70445 4.015 4.70445 3.82V1.285C4.93445 1.17 5.17945 1.09 5.43445 1.045V2.875C5.43445 3.075 5.59445 3.23 5.78945 3.23C5.98445 3.23 6.14445 3.075 6.14445 2.875V1C7.33945 1.055 8.36945 1.805 8.80945 2.86Z" fill="currentColor"/>
<path d="M9.0601 4.43946V6.40945C9.0601 8.09445 7.6851 9.46945 6.0001 9.46945C5.9101 9.46945 5.8201 9.46445 5.7301 9.45445C5.6901 9.45445 5.6501 9.44945 5.6151 9.44445C5.5501 9.43445 5.4851 9.42445 5.4251 9.41445C5.4001 9.41445 5.3801 9.40445 5.3501 9.39945C5.2801 9.38445 5.2101 9.36445 5.1451 9.34445C5.0351 9.31445 4.93008 9.27445 4.83008 9.23445C4.76508 9.20945 4.70508 9.18445 4.64508 9.14945C4.63008 9.14445 4.62008 9.13445 4.60508 9.12945C4.55508 9.10445 4.50508 9.07945 4.45508 9.04445L9.0601 4.43946Z" fill="currentColor"/>
<path d="M10.8748 5.5V6.5C10.8748 9.19 8.68985 11.375 5.99985 11.375C4.93984 11.375 3.92484 11.035 3.08984 10.41L3.62984 9.87C4.31984 10.36 5.13985 10.625 5.99985 10.625C8.27485 10.625 10.1248 8.775 10.1248 6.5V5.5C10.1248 5.295 10.2948 5.125 10.4998 5.125C10.7048 5.125 10.8748 5.295 10.8748 5.5Z" fill="currentColor"/>
<path d="M10.8844 1.11446C10.7344 0.964455 10.4894 0.964455 10.3394 1.11446L1.11445 10.3444C0.964453 10.4944 0.964453 10.7395 1.11445 10.8895C1.18945 10.9594 1.28445 10.9994 1.38445 10.9994C1.48445 10.9994 1.57945 10.9594 1.65445 10.8844L10.8844 1.65446C11.0394 1.50445 11.0394 1.26446 10.8844 1.11446Z" fill="currentColor"/>
</svg>
