<svg width="12" height="12" viewBox="0 0 12 12" fill="none" xmlns="http://www.w3.org/2000/svg">
<path d="M6.0008 10.9646C3.48078 10.9646 1.42578 8.9146 1.42578 6.3896V5.4496C1.42578 5.2546 1.58578 5.0996 1.77578 5.0996C1.96578 5.0996 2.12578 5.2596 2.12578 5.4496V6.3896C2.12578 8.5246 3.86078 10.2596 5.9958 10.2596C8.1308 10.2596 9.8658 8.5246 9.8658 6.3896V5.4496C9.8658 5.2546 10.0258 5.0996 10.2158 5.0996C10.4058 5.0996 10.5658 5.2596 10.5658 5.4496V6.3896C10.5758 8.9146 8.5208 10.9646 6.0008 10.9646Z" fill="currentColor"/>
<path d="M5.9992 1C4.31922 1 2.94922 2.37 2.94922 4.05V6.395C2.94922 8.075 4.31922 9.445 5.9992 9.445C7.6792 9.445 9.0492 8.075 9.0492 6.395V4.05C9.0492 2.37 7.6792 1 5.9992 1ZM7.0892 5.295C7.0542 5.43 6.9292 5.52 6.7942 5.52C6.7692 5.52 6.7392 5.515 6.7142 5.51C6.2042 5.37 5.6642 5.37 5.1542 5.51C4.98922 5.555 4.82422 5.46 4.77922 5.295C4.73422 5.135 4.82922 4.965 4.99422 4.92C5.6092 4.75 6.2592 4.75 6.8742 4.92C7.0392 4.965 7.1342 5.13 7.0892 5.295ZM7.5142 3.91C7.4692 4.035 7.3542 4.11 7.2292 4.11C7.1942 4.11 7.1592 4.105 7.1242 4.09C6.3592 3.81 5.5192 3.81 4.75422 4.09C4.59422 4.15 4.41922 4.07 4.35922 3.91C4.30422 3.755 4.38422 3.58 4.54422 3.52C5.4442 3.195 6.4342 3.195 7.3292 3.52C7.4892 3.58 7.5692 3.755 7.5142 3.91Z" fill="currentColor"/>
</svg>
