<svg width="12" height="12" viewBox="0 0 12 12" fill="none" xmlns="http://www.w3.org/2000/svg">
<path d="M9.55985 4.55969C9.36485 4.55969 9.20985 4.71469 9.20985 4.90969V5.6997C9.20985 7.4697 7.76985 8.9097 5.99985 8.9097C4.22984 8.9097 2.78984 7.4697 2.78984 5.6997V4.90469C2.78984 4.70969 2.63484 4.55469 2.43984 4.55469C2.24484 4.55469 2.08984 4.70969 2.08984 4.90469V5.6947C2.08984 7.7297 3.65484 9.4047 5.64985 9.5847V10.6497C5.64985 10.8447 5.80485 10.9997 5.99985 10.9997C6.19485 10.9997 6.34985 10.8447 6.34985 10.6497V9.5847C8.33985 9.4097 9.90985 7.7297 9.90985 5.6947V4.90469C9.90485 4.71469 9.74985 4.55969 9.55985 4.55969Z" fill="currentColor"/>
<path d="M5.99905 1C4.77906 1 3.78906 1.99 3.78906 3.21V5.77C3.78906 6.99 4.77906 7.98 5.99905 7.98C7.21905 7.98 8.20905 6.99 8.20905 5.77V3.21C8.20905 1.99 7.21905 1 5.99905 1ZM6.65405 4.475C6.61905 4.605 6.50405 4.69 6.37405 4.69C6.34905 4.69 6.32405 4.685 6.29905 4.68C6.10405 4.625 5.89905 4.625 5.70405 4.68C5.54405 4.725 5.38905 4.63 5.34905 4.475C5.30405 4.32 5.39905 4.16 5.55405 4.12C5.84905 4.04 6.15905 4.04 6.45405 4.12C6.60405 4.16 6.69405 4.32 6.65405 4.475ZM6.91905 3.505C6.87405 3.625 6.76405 3.695 6.64405 3.695C6.60905 3.695 6.57905 3.69 6.54405 3.68C6.19405 3.55 5.80405 3.55 5.45405 3.68C5.30405 3.735 5.13405 3.655 5.07905 3.505C5.02405 3.355 5.10405 3.185 5.25405 3.135C5.73405 2.96 6.26405 2.96 6.74405 3.135C6.89405 3.19 6.97405 3.355 6.91905 3.505Z" fill="currentColor"/>
</svg>
