<svg width="12" height="12" viewBox="0 0 12 12" fill="none" xmlns="http://www.w3.org/2000/svg">
<path d="M9 7.99915V9.49915C9 10.3242 8.325 10.9992 7.5 10.9992H4.5C3.675 10.9992 3 10.3242 3 9.49915V7.49415C3 7.21915 3.225 6.99415 3.505 6.99415L4.945 6.99915C5.29 6.99915 5.63 7.07415 5.945 7.22415C6.29 7.38415 6.655 7.49915 7.04 7.49915H8.5C8.775 7.49915 9 7.72415 9 7.99915Z" fill="currentColor"/>
<path d="M8.705 4.705L7.645 3.645C7.55 3.55 7.5 3.425 7.5 3.295V2.455C7.79 2.355 8 2.075 8 1.75C8 1.335 7.665 1 7.25 1H4.75C4.335 1 4 1.335 4 1.75C4 2.075 4.21 2.355 4.5 2.455V3.295C4.5 3.425 4.45 3.55 4.355 3.645L3.295 4.705C3.135 4.865 3 5.19 3 5.415V5.74C3 6.015 3.22 6.24 3.495 6.24L4.95 6.25C5.44 6.25 5.935 6.37 6.375 6.6C6.585 6.71 6.825 6.75 7.06 6.75H8.5C8.775 6.75 9 6.525 9 6.25V5.415C9 5.19 8.865 4.865 8.705 4.705Z" fill="currentColor"/>
</svg>
