<svg width="12" height="12" viewBox="0 0 12 12" fill="none" xmlns="http://www.w3.org/2000/svg">
<path d="M10.3559 8.75975C10.1708 9.36975 9.80585 9.83975 9.28585 10.1298C9.26585 10.0498 9.25585 9.96475 9.25585 9.87975C9.25585 9.26975 9.75085 8.76975 10.3559 8.75975Z" fill="currentColor"/>
<path d="M10.5 3.76V4.74198C10.5 5.00325 10.293 5.2147 10.04 5.28L8.565 5.69C7.785 5.89 7.265 6.565 7.265 7.37V8.14245C7.265 8.37975 7.09365 8.5778 6.8806 8.6822C6.37285 8.93095 5.9849 9.4357 5.8385 10.0054C5.76975 10.2728 5.55115 10.5 5.275 10.5H3.76C2.035 10.5 1 9.47 1 7.74V3.76C1 2.03 2.035 1 3.76 1H7.74C9.465 1 10.5 2.03 10.5 3.76Z" fill="currentColor"/>
<path d="M11.1545 6.1255C11.0245 6.0305 10.8146 5.9305 10.4995 5.9605C10.4195 5.9655 10.3345 5.9805 10.2395 6.0055L8.74955 6.4155C8.30455 6.5305 8.01455 6.9055 8.01455 7.3705V9.3255C7.89955 9.2855 7.77455 9.2605 7.64455 9.2605C7.02455 9.2605 6.51955 9.7605 6.51955 10.3805C6.51955 10.4205 6.51955 10.4605 6.52455 10.5005C6.58455 11.0605 7.06455 11.5005 7.64455 11.5005C8.25455 11.5005 8.74955 11.0055 8.75955 10.4005C8.75955 10.3905 8.76455 10.3855 8.76455 10.3805V8.5355L10.4895 8.0605L10.7495 7.9905V8.8305C10.6346 8.7905 10.5096 8.7605 10.3745 8.7605H10.3546C9.74955 8.7705 9.25455 9.2705 9.25455 9.8805C9.25455 9.9655 9.26455 10.0505 9.28455 10.1305C9.39955 10.6305 9.84455 11.0055 10.3745 11.0055C10.9895 11.0055 11.4845 10.5105 11.4945 9.9005C11.4945 9.8955 11.4995 9.8905 11.4995 9.8805V6.9655C11.4995 6.5855 11.3846 6.3055 11.1545 6.1255ZM7.64455 10.7505C7.47955 10.7505 7.33955 10.6455 7.29455 10.5005C7.27455 10.4655 7.26955 10.4205 7.26955 10.3805C7.26955 10.1755 7.43955 10.0105 7.64455 10.0105C7.84455 10.0105 8.01455 10.1755 8.01455 10.3805C8.01455 10.4205 8.00955 10.4555 7.99455 10.4905C7.94955 10.6405 7.80955 10.7505 7.64455 10.7505ZM10.3745 10.2555C10.1746 10.2555 10.0045 10.0855 10.0045 9.8805C10.0045 9.6805 10.1746 9.5105 10.3745 9.5105C10.5795 9.5105 10.7495 9.6805 10.7495 9.8805C10.7495 10.0855 10.5795 10.2555 10.3745 10.2555Z" fill="currentColor"/>
</svg>
