<svg width="12" height="12" viewBox="0 0 12 12" fill="none" xmlns="http://www.w3.org/2000/svg">
<path d="M8.5 1.5H3.5C2.12 1.5 1 2.62 1 4V4.5V8C1 9.38 2.12 10.5 3.5 10.5H8H8.5C9.88 10.5 11 9.38 11 8V4C11 2.62 9.88 1.5 8.5 1.5ZM5.245 8.405C5.23 8.405 5.215 8.41 5.195 8.41C5.01 8.41 4.85 8.27 4.825 8.085C4.76 7.575 4.39 7.205 3.88 7.14C3.675 7.115 3.53 6.925 3.555 6.72C3.58 6.515 3.77 6.37 3.975 6.395C4.82 6.505 5.46 7.145 5.57 7.99C5.595 8.19 5.45 8.38 5.245 8.405ZM6.77 8.15C6.755 8.15 6.74 8.155 6.72 8.155C6.535 8.155 6.375 8.015 6.35 7.83C6.195 6.64 5.33 5.77 4.135 5.615C3.93 5.59 3.785 5.4 3.81 5.195C3.835 4.99 4.025 4.845 4.23 4.87C5.77 5.07 6.895 6.19 7.095 7.735C7.12 7.935 6.975 8.12 6.77 8.15ZM8.12 7.715C8.105 7.715 8.09 7.72 8.07 7.72C7.885 7.72 7.725 7.58 7.7 7.395C7.485 5.705 6.255 4.475 4.565 4.26C4.36 4.235 4.215 4.045 4.24 3.84C4.265 3.635 4.455 3.49 4.66 3.515C6.695 3.775 8.18 5.26 8.445 7.3C8.47 7.505 8.325 7.69 8.12 7.715Z" fill="currentColor"/>
</svg>
