<svg width="12" height="12" viewBox="0 0 12 12" fill="none" xmlns="http://www.w3.org/2000/svg">
<path d="M8.12 1H3.88C2.5 1 2 1.5 2 2.905V9.095C2 10.5 2.5 11 3.88 11H8.115C9.5 11 10 10.5 10 9.095V2.905C10 1.5 9.5 1 8.12 1ZM6 9.65C5.52 9.65 5.125 9.255 5.125 8.775C5.125 8.295 5.52 7.9 6 7.9C6.48 7.9 6.875 8.295 6.875 8.775C6.875 9.255 6.48 9.65 6 9.65ZM7 3.125H5C4.795 3.125 4.625 2.955 4.625 2.75C4.625 2.545 4.795 2.375 5 2.375H7C7.205 2.375 7.375 2.545 7.375 2.75C7.375 2.955 7.205 3.125 7 3.125Z" fill="currentColor"/>
</svg>
