<svg width="12" height="12" viewBox="0 0 12 12" fill="none" xmlns="http://www.w3.org/2000/svg">
<path d="M9 6.5C7.62 6.5 6.5 7.62 6.5 9C6.5 10.38 7.62 11.5 9 11.5C10.38 11.5 11.5 10.38 11.5 9C11.5 7.62 10.38 6.5 9 6.5ZM8.58 9.635C8.705 9.76 8.705 9.965 8.58 10.095C8.515 10.16 8.435 10.19 8.35 10.19C8.265 10.19 8.185 10.16 8.12 10.095L7.255 9.23C7.13 9.105 7.13 8.9 7.255 8.77L8.12 7.905C8.245 7.78 8.45 7.78 8.58 7.905C8.705 8.03 8.705 8.235 8.58 8.365L7.945 9L8.58 9.635ZM10.74 9.23L9.875 10.095C9.81 10.16 9.73 10.19 9.645 10.19C9.56 10.19 9.48 10.16 9.415 10.095C9.29 9.97 9.29 9.765 9.415 9.635L10.055 9L9.42 8.365C9.295 8.24 9.295 8.035 9.42 7.905C9.545 7.78 9.75 7.78 9.88 7.905L10.745 8.77C10.865 8.9 10.865 9.1 10.74 9.23Z" fill="currentColor"/>
<path d="M10.5 3.50039V5.7354C10.5 5.9104 10.33 6.0304 10.17 5.9704C9.615 5.7554 8.995 5.6854 8.345 5.8154C7.045 6.0754 6.01 7.1404 5.795 8.4504C5.665 9.2504 5.825 10.0054 6.19 10.6204C6.29 10.7904 6.17 11.0004 5.975 11.0004H4C2.25 11.0004 1.5 10.0004 1.5 8.5004V3.50039C1.5 2.17039 2.09 1.23539 3.445 1.04039C3.59 1.02039 3.72 1.13539 3.725 1.28539L3.74 1.79039C3.755 2.59039 4.43 3.25039 5.24 3.25039H6.75C7.575 3.25039 8.25 2.57539 8.25 1.75039V1.28539C8.25 1.13539 8.38 1.01539 8.525 1.03539C9.9 1.22039 10.5 2.16039 10.5 3.50039Z" fill="currentColor"/>
<path d="M7.4998 1.5V1.75C7.4998 2.16 7.1598 2.5 6.7498 2.5H5.2348C4.82981 2.5 4.49482 2.175 4.48482 1.77L4.47982 1.515C4.46982 1.23 4.69481 1 4.97982 1H6.9998C7.2748 1 7.4998 1.225 7.4998 1.5Z" fill="currentColor"/>
</svg>
