<svg width="12" height="12" viewBox="0 0 12 12" fill="none" xmlns="http://www.w3.org/2000/svg">
<path d="M8.5 2H3.5C2 2 1 2.75 1 4.5V6.28C1 6.465 1.19 6.58 1.355 6.505C1.845 6.28 2.41 6.195 3.005 6.3C4.32 6.535 5.285 7.755 5.25 9.09C5.245 9.3 5.215 9.505 5.16 9.705C5.12 9.86 5.245 10.005 5.405 10.005H8.5C10 10.005 11 9.255 11 7.505V4.5C11 2.75 10 2 8.5 2ZM6 7.25C5.31 7.25 4.75 6.69 4.75 6C4.75 5.31 5.31 4.75 6 4.75C6.69 4.75 7.25 5.31 7.25 6C7.25 6.69 6.69 7.25 6 7.25ZM9.625 7C9.625 7.205 9.455 7.375 9.25 7.375C9.045 7.375 8.875 7.205 8.875 7V5C8.875 4.795 9.045 4.625 9.25 4.625C9.455 4.625 9.625 4.795 9.625 5V7Z" fill="currentColor"/>
<path d="M2.5 7C1.395 7 0.5 7.895 0.5 9C0.5 9.375 0.605 9.73 0.79 10.03C1.135 10.61 1.77 11 2.5 11C3.23 11 3.865 10.61 4.21 10.03C4.395 9.73 4.5 9.375 4.5 9C4.5 7.895 3.605 7 2.5 7ZM3.245 9.365H2.875V9.755C2.875 9.96 2.705 10.13 2.5 10.13C2.295 10.13 2.125 9.96 2.125 9.755V9.365H1.755C1.55 9.365 1.38 9.195 1.38 8.99C1.38 8.785 1.55 8.615 1.755 8.615H2.125V8.26C2.125 8.055 2.295 7.885 2.5 7.885C2.705 7.885 2.875 8.055 2.875 8.26V8.615H3.245C3.45 8.615 3.62 8.785 3.62 8.99C3.62 9.195 3.455 9.365 3.245 9.365Z" fill="currentColor"/>
</svg>
