<svg width="12" height="12" viewBox="0 0 12 12" fill="none" xmlns="http://www.w3.org/2000/svg">
<path d="M8.5 1.75H3.5C2 1.75 1 2.5 1 4.25V7.75C1 9.5 2 10.25 3.5 10.25H8.5C10 10.25 11 9.5 11 7.75V4.25C11 2.5 10 1.75 8.5 1.75ZM1.875 4.25C1.875 3.355 2.605 2.625 3.5 2.625H4.25C4.455 2.625 4.625 2.795 4.625 3C4.625 3.205 4.455 3.375 4.25 3.375H3.5C3.02 3.375 2.625 3.77 2.625 4.25V5C2.625 5.205 2.455 5.375 2.25 5.375C2.045 5.375 1.875 5.205 1.875 5V4.25ZM4.25 9.375H3.5C2.605 9.375 1.875 8.645 1.875 7.75V7C1.875 6.795 2.045 6.625 2.25 6.625C2.455 6.625 2.625 6.795 2.625 7V7.75C2.625 8.23 3.02 8.625 3.5 8.625H4.25C4.455 8.625 4.625 8.795 4.625 9C4.625 9.205 4.455 9.375 4.25 9.375ZM6 7.5C5.17 7.5 4.5 6.83 4.5 6C4.5 5.17 5.17 4.5 6 4.5C6.83 4.5 7.5 5.17 7.5 6C7.5 6.83 6.83 7.5 6 7.5ZM10.125 7.75C10.125 8.645 9.395 9.375 8.5 9.375H7.75C7.545 9.375 7.375 9.205 7.375 9C7.375 8.795 7.545 8.625 7.75 8.625H8.5C8.98 8.625 9.375 8.23 9.375 7.75V7C9.375 6.795 9.545 6.625 9.75 6.625C9.955 6.625 10.125 6.795 10.125 7V7.75ZM10.125 5C10.125 5.205 9.955 5.375 9.75 5.375C9.545 5.375 9.375 5.205 9.375 5V4.25C9.375 3.77 8.98 3.375 8.5 3.375H7.75C7.545 3.375 7.375 3.205 7.375 3C7.375 2.795 7.545 2.625 7.75 2.625H8.5C9.395 2.625 10.125 3.355 10.125 4.25V5Z" fill="currentColor"/>
</svg>
