<svg width="12" height="12" viewBox="0 0 12 12" fill="none" xmlns="http://www.w3.org/2000/svg">
<path d="M8.5 2H3.5C2 2 1 2.75 1 4.5V6.28C1 6.465 1.19 6.58 1.355 6.505C1.845 6.28 2.41 6.195 3.005 6.3C4.32 6.535 5.285 7.755 5.25 9.09C5.245 9.3 5.215 9.505 5.16 9.705C5.12 9.86 5.245 10.005 5.405 10.005H8.5C10 10.005 11 9.255 11 7.505V4.5C11 2.75 10 2 8.5 2ZM6 7.25C5.31 7.25 4.75 6.69 4.75 6C4.75 5.31 5.31 4.75 6 4.75C6.69 4.75 7.25 5.31 7.25 6C7.25 6.69 6.69 7.25 6 7.25ZM9.625 7C9.625 7.205 9.455 7.375 9.25 7.375C9.045 7.375 8.875 7.205 8.875 7V5C8.875 4.795 9.045 4.625 9.25 4.625C9.455 4.625 9.625 4.795 9.625 5V7Z" fill="currentColor"/>
<path d="M2.5 7C1.9 7 1.365 7.265 1 7.68C0.69 8.035 0.5 8.495 0.5 9C0.5 9.375 0.605 9.73 0.79 10.03C1.135 10.61 1.77 11 2.5 11C3.005 11 3.465 10.815 3.815 10.5C3.97 10.37 4.105 10.21 4.21 10.03C4.395 9.73 4.5 9.375 4.5 9C4.5 7.895 3.605 7 2.5 7ZM3.3 9.79C3.225 9.865 3.13 9.9 3.035 9.9C2.94 9.9 2.845 9.865 2.77 9.79L2.505 9.525L2.23 9.8C2.155 9.875 2.06 9.91 1.965 9.91C1.87 9.91 1.775 9.875 1.7 9.8C1.555 9.655 1.555 9.415 1.7 9.27L1.975 8.995L1.71 8.73C1.565 8.585 1.565 8.345 1.71 8.2C1.855 8.055 2.095 8.055 2.24 8.2L2.505 8.465L2.755 8.215C2.9 8.07 3.14 8.07 3.285 8.215C3.43 8.36 3.43 8.6 3.285 8.745L3.035 8.995L3.3 9.26C3.445 9.405 3.445 9.64 3.3 9.79Z" fill="currentColor"/>
</svg>
