<svg width="12" height="12" viewBox="0 0 12 12" fill="none" xmlns="http://www.w3.org/2000/svg">
<path d="M6 7.5C6.82845 7.5 7.5 6.82845 7.5 6C7.5 5.17155 6.82845 4.5 6 4.5C5.17155 4.5 4.5 5.17155 4.5 6C4.5 6.82845 5.17155 7.5 6 7.5Z" fill="currentColor"/>
<path d="M8.5 1.75H3.5C2 1.75 1 2.5 1 4.25V7.75C1 9.5 2 10.25 3.5 10.25H8.5C10 10.25 11 9.5 11 7.75V4.25C11 2.5 10 1.75 8.5 1.75ZM3.5 9.5C3.5 8.09 3.045 7.57 1.75 7.51V4.49C3.045 4.43 3.5 3.91 3.5 2.5H8.5C8.5 3.91 8.955 4.43 10.25 4.49V7.51C8.955 7.57 8.5 8.09 8.5 9.5H3.5Z" fill="currentColor"/>
</svg>
