<svg width="12" height="12" viewBox="0 0 12 12" fill="none" xmlns="http://www.w3.org/2000/svg">
<path d="M9.58545 3.31977C9.37045 2.23477 8.56545 1.75977 7.44545 1.75977H3.05547C1.73547 1.75977 0.855469 2.41977 0.855469 3.95977V6.53475C0.855469 7.64475 1.31047 8.29475 2.06047 8.57475C2.17047 8.61475 2.29047 8.64975 2.41547 8.66975C2.61547 8.71475 2.83047 8.73475 3.05547 8.73475H7.45045C8.77045 8.73475 9.65045 8.07475 9.65045 6.53475V3.95977C9.65045 3.72477 9.63045 3.51477 9.58545 3.31977ZM2.76547 5.99975C2.76547 6.20475 2.59547 6.37475 2.39047 6.37475C2.18547 6.37475 2.01547 6.20475 2.01547 5.99975V4.49977C2.01547 4.29477 2.18547 4.12477 2.39047 4.12477C2.59547 4.12477 2.76547 4.29477 2.76547 4.49977V5.99975ZM5.25045 6.56975C4.52047 6.56975 3.93047 5.97975 3.93047 5.24975C3.93047 4.51977 4.52047 3.92977 5.25045 3.92977C5.98045 3.92977 6.57045 4.51977 6.57045 5.24975C6.57045 5.97975 5.98045 6.56975 5.25045 6.56975ZM8.48045 5.99975C8.48045 6.20475 8.31045 6.37475 8.10545 6.37475C7.90045 6.37475 7.73045 6.20475 7.73045 5.99975V4.49977C7.73045 4.29477 7.90045 4.12477 8.10545 4.12477C8.31045 4.12477 8.48045 4.29477 8.48045 4.49977V5.99975Z" fill="currentColor"/>
<path d="M11.1508 5.45915V8.03415C11.1508 9.57415 10.2708 10.2392 8.94585 10.2392H4.55586C4.18086 10.2392 3.84586 10.1842 3.55586 10.0742C3.32086 9.98915 3.11586 9.86415 2.95086 9.70415C2.86086 9.61915 2.93086 9.48415 3.05586 9.48415H7.44585C9.29585 9.48415 10.3958 8.38415 10.3958 6.53915V3.95916C10.3958 3.83916 10.5308 3.76416 10.6158 3.85416C10.9558 4.21416 11.1508 4.73916 11.1508 5.45915Z" fill="currentColor"/>
</svg>
