<svg width="12" height="12" viewBox="0 0 12 12" fill="none" xmlns="http://www.w3.org/2000/svg">
<path d="M2.5 7C1.395 7 0.5 7.895 0.5 9C0.5 10.105 1.395 11 2.5 11C3.605 11 4.5 10.105 4.5 9C4.5 7.895 3.605 7 2.5 7ZM3 8.84C3 9.145 2.835 9.435 2.575 9.59L2.195 9.82C2.135 9.86 2.065 9.875 2 9.875C1.875 9.875 1.75 9.81 1.68 9.695C1.575 9.52 1.63 9.285 1.81 9.18L2.19 8.95C2.225 8.93 2.25 8.885 2.25 8.845V8.38C2.25 8.17 2.42 8 2.625 8C2.83 8 3 8.17 3 8.375V8.84Z" fill="currentColor"/>
<path d="M8.5 2H3.5C2 2 1 2.75 1 4.5V6.28C1 6.465 1.19 6.58 1.355 6.505C1.845 6.28 2.41 6.195 3.005 6.3C4.32 6.535 5.285 7.755 5.25 9.09C5.245 9.3 5.215 9.505 5.16 9.705C5.12 9.86 5.245 10.005 5.405 10.005H8.5C10 10.005 11 9.255 11 7.505V4.5C11 2.75 10 2 8.5 2ZM6 7.25C5.31 7.25 4.75 6.69 4.75 6C4.75 5.31 5.31 4.75 6 4.75C6.69 4.75 7.25 5.31 7.25 6C7.25 6.69 6.69 7.25 6 7.25ZM9.625 7C9.625 7.205 9.455 7.375 9.25 7.375C9.045 7.375 8.875 7.205 8.875 7V5C8.875 4.795 9.045 4.625 9.25 4.625C9.455 4.625 9.625 4.795 9.625 5V7Z" fill="currentColor"/>
</svg>
