<svg width="12" height="12" viewBox="0 0 12 12" fill="none" xmlns="http://www.w3.org/2000/svg">
<path d="M5.125 5.015C5.125 5.285 5.2 5.325 5.37 5.385L5.625 5.475V4.625H5.475C5.285 4.625 5.125 4.8 5.125 5.015Z" fill="currentColor"/>
<path d="M6.375 7.3754H6.525C6.72 7.3754 6.875 7.2004 6.875 6.9854C6.875 6.7154 6.8 6.6754 6.63 6.6154L6.375 6.5254V7.3754Z" fill="currentColor"/>
<path d="M9.79 2.74L8.765 3.765C8.69 3.84 8.595 3.875 8.5 3.875C8.405 3.875 8.31 3.84 8.235 3.765C8.09 3.62 8.09 3.38 8.235 3.235L9.26 2.21C8.38 1.46 7.245 1 6 1C3.24 1 1 3.24 1 6C1 8.76 3.24 11 6 11C8.76 11 11 8.76 11 6C11 4.755 10.54 3.62 9.79 2.74ZM6.875 5.91C7.195 6.025 7.625 6.255 7.625 6.99C7.625 7.615 7.13 8.13 6.525 8.13H6.375V8.255C6.375 8.46 6.205 8.63 6 8.63C5.795 8.63 5.625 8.46 5.625 8.255V8.13H5.585C4.92 8.13 4.375 7.57 4.375 6.88C4.375 6.67 4.545 6.5 4.75 6.5C4.955 6.5 5.125 6.67 5.125 6.875C5.125 7.15 5.33 7.375 5.585 7.375H5.625V6.265L5.125 6.09C4.805 5.975 4.375 5.745 4.375 5.01C4.375 4.385 4.87 3.87 5.475 3.87H5.625V3.75C5.625 3.545 5.795 3.375 6 3.375C6.205 3.375 6.375 3.545 6.375 3.75V3.875H6.415C7.08 3.875 7.625 4.435 7.625 5.125C7.625 5.33 7.455 5.5 7.25 5.5C7.045 5.5 6.875 5.33 6.875 5.125C6.875 4.85 6.67 4.625 6.415 4.625H6.375V5.735L6.875 5.91Z" fill="currentColor"/>
<path d="M11.345 0.855C11.305 0.765 11.235 0.69 11.14 0.65C11.095 0.635 11.05 0.625 11 0.625H9C8.795 0.625 8.625 0.795 8.625 1C8.625 1.205 8.795 1.375 9 1.375H10.095L9.26 2.21C9.45 2.375 9.625 2.55 9.79 2.74L10.625 1.905V3C10.625 3.205 10.795 3.375 11 3.375C11.205 3.375 11.375 3.205 11.375 3V1C11.375 0.95 11.365 0.905 11.345 0.855Z" fill="currentColor"/>
</svg>
