<svg width="12" height="12" viewBox="0 0 12 12" fill="none" xmlns="http://www.w3.org/2000/svg">
<path d="M8.5 1.75H3.5C2 1.75 1 2.5 1 4.25V7.75C1 9.5 2 10.25 3.5 10.25H8.5C10 10.25 11 9.5 11 7.75V4.25C11 2.5 10 1.75 8.5 1.75ZM4 8.875H2.5C2.295 8.875 2.125 8.705 2.125 8.5C2.125 8.295 2.295 8.125 2.5 8.125H4C4.205 8.125 4.375 8.295 4.375 8.5C4.375 8.705 4.205 8.875 4 8.875ZM6 7.5C5.17 7.5 4.5 6.83 4.5 6C4.5 5.17 5.17 4.5 6 4.5C6.83 4.5 7.5 5.17 7.5 6C7.5 6.83 6.83 7.5 6 7.5ZM9.5 3.875H8C7.795 3.875 7.625 3.705 7.625 3.5C7.625 3.295 7.795 3.125 8 3.125H9.5C9.705 3.125 9.875 3.295 9.875 3.5C9.875 3.705 9.705 3.875 9.5 3.875Z" fill="currentColor"/>
</svg>
