<svg width="12" height="12" viewBox="0 0 12 12" fill="none" xmlns="http://www.w3.org/2000/svg">
<path d="M0.85 10.12C0.855 10.115 0.855 10.11 0.855 10.11L3.605 7.36C3.61 7.355 3.615 7.355 3.62 7.35C3.305 7.13 2.92 7 2.5 7C1.395 7 0.5 7.895 0.5 9C0.5 9.375 0.605 9.73 0.79 10.03C0.81 10.06 0.83 10.09 0.85 10.12Z" fill="currentColor"/>
<path d="M4.15 7.875C4.145 7.88 4.145 7.885 4.14 7.89L1.39 10.64C1.385 10.645 1.38 10.645 1.375 10.65C1.695 10.87 2.08 11 2.5 11C3.23 11 3.865 10.61 4.21 10.03C4.395 9.73 4.5 9.375 4.5 9C4.5 8.58 4.37 8.195 4.15 7.875Z" fill="currentColor"/>
<path d="M8.5 2H3.5C2 2 1 2.75 1 4.5V6.28C1 6.465 1.19 6.58 1.355 6.505C1.845 6.28 2.41 6.195 3.005 6.3C4.32 6.535 5.285 7.755 5.25 9.09C5.245 9.3 5.215 9.505 5.16 9.705C5.12 9.86 5.245 10.005 5.405 10.005H8.5C10 10.005 11 9.255 11 7.505V4.5C11 2.75 10 2 8.5 2ZM6 7.25C5.31 7.25 4.75 6.69 4.75 6C4.75 5.31 5.31 4.75 6 4.75C6.69 4.75 7.25 5.31 7.25 6C7.25 6.69 6.69 7.25 6 7.25ZM9.625 7C9.625 7.205 9.455 7.375 9.25 7.375C9.045 7.375 8.875 7.205 8.875 7V5C8.875 4.795 9.045 4.625 9.25 4.625C9.455 4.625 9.625 4.795 9.625 5V7Z" fill="currentColor"/>
</svg>
