<svg width="12" height="12" viewBox="0 0 12 12" fill="none" xmlns="http://www.w3.org/2000/svg">
<path d="M8.5 2H3.5C2 2 1 2.75 1 4.5V6.28C1 6.465 1.19 6.58 1.355 6.505C1.845 6.28 2.41 6.195 3.005 6.3C4.32 6.535 5.285 7.755 5.25 9.09C5.245 9.3 5.215 9.505 5.16 9.705C5.12 9.86 5.245 10.005 5.405 10.005H8.5C10 10.005 11 9.255 11 7.505V4.5C11 2.75 10 2 8.5 2ZM6 7.25C5.31 7.25 4.75 6.69 4.75 6C4.75 5.31 5.31 4.75 6 4.75C6.69 4.75 7.25 5.31 7.25 6C7.25 6.69 6.69 7.25 6 7.25ZM9.625 7C9.625 7.205 9.455 7.375 9.25 7.375C9.045 7.375 8.875 7.205 8.875 7V5C8.875 4.795 9.045 4.625 9.25 4.625C9.455 4.625 9.625 4.795 9.625 5V7Z" fill="currentColor"/>
<path d="M2.5 7C1.875 7 1.31 7.295 0.945 7.745C0.665 8.09 0.5 8.525 0.5 9C0.5 10.105 1.4 11 2.5 11C3.37 11 4.115 10.445 4.385 9.665C4.46 9.46 4.5 9.235 4.5 9C4.5 7.9 3.605 7 2.5 7ZM3.68 9.87C3.67 9.9 3.65 9.93 3.63 9.95L3.27 10.305C3.225 10.355 3.165 10.375 3.1 10.375C3.035 10.375 2.97 10.355 2.925 10.305C2.845 10.23 2.835 10.11 2.885 10.02H1.88C1.56 10.02 1.3 9.76 1.3 9.435V9.385C1.3 9.245 1.41 9.14 1.545 9.14C1.68 9.14 1.79 9.245 1.79 9.385V9.435C1.79 9.49 1.83 9.535 1.885 9.535H2.89C2.84 9.44 2.85 9.325 2.93 9.245C3.025 9.15 3.18 9.15 3.27 9.245L3.63 9.605C3.65 9.625 3.67 9.655 3.685 9.685C3.705 9.74 3.705 9.81 3.68 9.87ZM3.7 8.615C3.7 8.755 3.59 8.86 3.455 8.86C3.32 8.86 3.21 8.755 3.21 8.615V8.565C3.21 8.51 3.17 8.465 3.115 8.465H2.115C2.165 8.56 2.155 8.675 2.075 8.755C2.03 8.8 1.97 8.825 1.9 8.825C1.84 8.825 1.775 8.8 1.73 8.755L1.37 8.395C1.35 8.375 1.33 8.345 1.315 8.315C1.295 8.255 1.295 8.19 1.315 8.13C1.33 8.105 1.345 8.07 1.37 8.05L1.73 7.695C1.825 7.595 1.98 7.595 2.07 7.695C2.15 7.77 2.16 7.89 2.11 7.98H3.115C3.435 7.98 3.695 8.24 3.695 8.565V8.615H3.7Z" fill="currentColor"/>
</svg>
