<svg width="12" height="12" viewBox="0 0 12 12" fill="none" xmlns="http://www.w3.org/2000/svg">
<path d="M8.5 1.75H3.5C2 1.75 1 2.5 1 4.25V7.75C1 9.5 2 10.25 3.5 10.25H8.5C10 10.25 11 9.5 11 7.75V4.25C11 2.5 10 1.75 8.5 1.75ZM3.125 7.25C3.125 7.455 2.955 7.625 2.75 7.625C2.545 7.625 2.375 7.455 2.375 7.25V4.75C2.375 4.545 2.545 4.375 2.75 4.375C2.955 4.375 3.125 4.545 3.125 4.75V7.25ZM6 7.5C5.17 7.5 4.5 6.83 4.5 6C4.5 5.17 5.17 4.5 6 4.5C6.83 4.5 7.5 5.17 7.5 6C7.5 6.83 6.83 7.5 6 7.5ZM9.625 7.25C9.625 7.455 9.455 7.625 9.25 7.625C9.045 7.625 8.875 7.455 8.875 7.25V4.75C8.875 4.545 9.045 4.375 9.25 4.375C9.455 4.375 9.625 4.545 9.625 4.75V7.25Z" fill="currentColor"/>
</svg>
