<svg width="12" height="12" viewBox="0 0 12 12" fill="none" xmlns="http://www.w3.org/2000/svg">
<path d="M9.4043 3.12523H10.0843C9.9893 2.99023 9.8893 2.86523 9.7843 2.74023L9.4043 3.12523Z" fill="currentColor"/>
<path d="M9.26 2.21015C9.135 2.10515 9.01 2.00515 8.875 1.91015V2.59015L9.26 2.21015Z" fill="currentColor"/>
<path d="M9.78975 2.7407L11.2647 1.2657C11.4097 1.1207 11.4097 0.880703 11.2647 0.735703C11.1197 0.590703 10.8798 0.590703 10.7347 0.735703L9.25975 2.2107C9.44975 2.3757 9.62475 2.5557 9.78975 2.7407Z" fill="currentColor"/>
<path d="M8.87585 1.5C8.87585 1.295 8.70585 1.125 8.50085 1.125C8.30085 1.125 8.14085 1.285 8.13085 1.48C8.39085 1.605 8.64085 1.745 8.87585 1.91V1.5Z" fill="currentColor"/>
<path d="M10.8759 3.5C10.8759 3.295 10.7059 3.125 10.5009 3.125H10.0859C10.2509 3.36 10.396 3.61 10.516 3.87C10.716 3.86 10.8759 3.7 10.8759 3.5Z" fill="currentColor"/>
<path d="M6.375 7.3754H6.525C6.72 7.3754 6.875 7.2004 6.875 6.9854C6.875 6.7154 6.8 6.6754 6.63 6.6154L6.375 6.5254V7.3754Z" fill="currentColor"/>
<path d="M10.52 3.87C10.515 3.87 10.51 3.875 10.5 3.875H8.5C8.45 3.875 8.405 3.865 8.355 3.845C8.265 3.805 8.19 3.735 8.15 3.64C8.135 3.595 8.125 3.55 8.125 3.5V1.5C8.125 1.495 8.13 1.49 8.13 1.48C7.48 1.175 6.76 0.999998 6 0.999998C3.24 0.999998 1 3.24 1 6C1 8.76 3.24 11 6 11C8.76 11 11 8.76 11 6C11 5.24 10.825 4.52 10.52 3.87ZM6.875 5.91C7.195 6.02 7.625 6.255 7.625 6.99C7.625 7.615 7.13 8.13 6.525 8.13H6.375V8.255C6.375 8.46 6.205 8.63 6 8.63C5.795 8.63 5.625 8.46 5.625 8.255V8.13H5.585C4.92 8.13 4.375 7.57 4.375 6.88C4.375 6.67 4.545 6.5 4.75 6.5C4.955 6.5 5.125 6.67 5.125 6.875C5.125 7.15 5.33 7.375 5.585 7.375H5.625V6.265L5.125 6.09C4.805 5.98 4.375 5.745 4.375 5.01C4.375 4.385 4.87 3.87 5.475 3.87H5.625V3.75C5.625 3.545 5.795 3.375 6 3.375C6.205 3.375 6.375 3.545 6.375 3.75V3.875H6.415C7.08 3.875 7.625 4.435 7.625 5.125C7.625 5.33 7.455 5.5 7.25 5.5C7.045 5.5 6.875 5.33 6.875 5.125C6.875 4.85 6.67 4.625 6.415 4.625H6.375V5.735L6.875 5.91Z" fill="currentColor"/>
<path d="M5.125 5.015C5.125 5.285 5.2 5.325 5.37 5.385L5.625 5.475V4.625H5.475C5.285 4.625 5.125 4.8 5.125 5.015Z" fill="currentColor"/>
</svg>
