<svg width="12" height="12" viewBox="0 0 12 12" fill="none" xmlns="http://www.w3.org/2000/svg">
<path d="M8.78 1H3.205C1.99 1 1 1.99 1 3.205V6.455V6.555C1 7.775 1.99 8.76 3.205 8.76H5.125C5.4 8.76 5.625 8.985 5.625 9.26V9.745C5.625 10.02 5.4 10.245 5.125 10.245H3.915C3.71 10.245 3.54 10.415 3.54 10.62C3.54 10.825 3.705 11 3.915 11H8.09C8.295 11 8.465 10.83 8.465 10.625C8.465 10.42 8.295 10.25 8.09 10.25H6.88C6.605 10.25 6.38 10.025 6.38 9.75V9.265C6.38 8.99 6.605 8.765 6.88 8.765H8.785C10.005 8.765 10.99 7.775 10.99 6.56V6.46V3.21C10.985 1.99 9.995 1 8.78 1Z" fill="currentColor"/>
</svg>
