<svg width="12" height="12" viewBox="0 0 12 12" fill="none" xmlns="http://www.w3.org/2000/svg">
<path d="M10.485 5.185V6.78C10.485 7.94 9.545 8.88 8.385 8.88H6.605C6.33 8.88 6.105 9.1 6.105 9.38V9.79C6.105 10.065 6.33 10.29 6.605 10.29H7.735C7.93 10.29 8.09 10.445 8.09 10.645C8.09 10.84 7.93 11 7.735 11H3.765C3.57 11 3.41 10.84 3.41 10.645C3.41 10.445 3.57 10.29 3.765 10.29H4.895C5.17 10.29 5.395 10.065 5.395 9.79V9.38C5.395 9.1 5.17 8.88 4.895 8.88H3.095C1.94 8.88 1 7.94 1 6.78V3.595C1 2.44 1.94 1.5 3.095 1.5H5.25C5.525 1.5 5.75 1.725 5.75 2V3.075C5.75 4.04 6.395 4.685 7.355 4.685H9.985C10.26 4.685 10.485 4.91 10.485 5.185Z" fill="currentColor"/>
<path d="M10.995 1.17981L10.43 1.57481V1.36481C10.43 0.88981 10.045 0.50981 9.575 0.50981H7.435C6.92 0.50481 6.5 0.92481 6.5 1.43981V3.07981C6.5 3.50981 6.715 3.93481 7.355 3.93481H9.57C10.045 3.93481 10.425 3.54981 10.425 3.07981V2.86481L10.99 3.25981C11.275 3.45481 11.5 3.33481 11.5 2.99481V1.44481C11.5 1.10481 11.275 0.98981 10.995 1.17981Z" fill="currentColor"/>
</svg>
