<svg width="12" height="12" viewBox="0 0 12 12" fill="none" xmlns="http://www.w3.org/2000/svg">
<path d="M10.495 4.855C10.325 4.785 10.1 4.75 9.82 4.75H7.18C6.31 4.75 6 5.06 6 5.94V9.81C6 10.1 6.035 10.325 6.11 10.5C6.265 10.86 6.595 11 7.18 11H9.82C10.69 11 11 10.685 11 9.81V5.94C11 5.345 10.86 5.01 10.495 4.855ZM9 9.875H8C7.99 9.875 7.975 9.875 7.965 9.87C7.89 9.865 7.825 9.84 7.77 9.79C7.68 9.725 7.625 9.62 7.625 9.5C7.625 9.295 7.795 9.125 8 9.125H9C9.205 9.125 9.375 9.295 9.375 9.5C9.375 9.705 9.205 9.875 9 9.875Z" fill="currentColor"/>
<path d="M10.4949 3.095V3.5C10.4949 3.775 10.2699 4 9.9949 4H7.1799C5.8999 4 5.2499 4.655 5.2499 5.94V10.5C5.2499 10.775 5.0249 11 4.74988 11H3.77488C3.57488 11 3.41488 10.84 3.41488 10.645C3.41488 10.445 3.57488 10.29 3.77488 10.29H4.74988V8.375H2.99988C1.88988 8.32 1.00488 7.405 1.00488 6.28V3.095C1.00488 1.94 1.94488 1 3.10488 1H8.3999C9.5549 1 10.4949 1.94 10.4949 3.095Z" fill="currentColor"/>
</svg>
