<svg width="12" height="12" viewBox="0 0 12 12" fill="none" xmlns="http://www.w3.org/2000/svg">
<path d="M10.7644 7.9647C10.6844 7.8297 10.4594 7.6197 9.89935 7.7197C9.58935 7.7747 9.27435 7.7997 8.95935 7.7847C7.79435 7.7347 6.73935 7.1997 6.00435 6.3747C5.35435 5.6497 4.95437 4.70469 4.94937 3.68469C4.94937 3.11469 5.05935 2.56469 5.28435 2.04469C5.50435 1.53969 5.34935 1.27469 5.23935 1.16469C5.12435 1.04969 4.85437 0.889692 4.32437 1.10969C2.27937 1.96969 1.01437 4.01969 1.16437 6.2147C1.31437 8.2797 2.76437 10.0447 4.68437 10.7097C5.14435 10.8697 5.62935 10.9647 6.12935 10.9847C6.20935 10.9897 6.28935 10.9947 6.36935 10.9947C8.04435 10.9947 9.61435 10.2047 10.6044 8.8597C10.9394 8.3947 10.8494 8.0997 10.7644 7.9647Z" fill="currentColor"/>
</svg>
