<svg width="12" height="12" viewBox="0 0 12 12" fill="none" xmlns="http://www.w3.org/2000/svg">
<path d="M6 1C3.245 1 1 3.245 1 6C1 8.755 3.245 11 6 11C8.755 11 11 8.755 11 6C11 3.245 8.755 1 6 1ZM4 6.5C3.72 6.5 3.5 6.275 3.5 6C3.5 5.725 3.725 5.5 4 5.5C4.275 5.5 4.5 5.725 4.5 6C4.5 6.275 4.28 6.5 4 6.5ZM6 6.5C5.72 6.5 5.5 6.275 5.5 6C5.5 5.725 5.725 5.5 6 5.5C6.275 5.5 6.5 5.725 6.5 6C6.5 6.275 6.28 6.5 6 6.5ZM8 6.5C7.72 6.5 7.5 6.275 7.5 6C7.5 5.725 7.725 5.5 8 5.5C8.275 5.5 8.5 5.725 8.5 6C8.5 6.275 8.28 6.5 8 6.5Z" fill="currentColor"/>
</svg>
