<svg width="12" height="12" viewBox="0 0 12 12" fill="none" xmlns="http://www.w3.org/2000/svg">
<path d="M8.095 1H3.905C2.085 1 1 2.085 1 3.905V8.09C1 9.915 2.085 11 3.905 11H8.09C9.91 11 10.995 9.915 10.995 8.095V3.905C11 2.085 9.915 1 8.095 1ZM3.5 6.655C3.14 6.655 2.845 6.36 2.845 6C2.845 5.64 3.14 5.345 3.5 5.345C3.86 5.345 4.155 5.64 4.155 6C4.155 6.36 3.86 6.655 3.5 6.655ZM6 6.655C5.64 6.655 5.345 6.36 5.345 6C5.345 5.64 5.64 5.345 6 5.345C6.36 5.345 6.655 5.64 6.655 6C6.655 6.36 6.36 6.655 6 6.655ZM8.5 6.655C8.14 6.655 7.845 6.36 7.845 6C7.845 5.64 8.14 5.345 8.5 5.345C8.86 5.345 9.155 5.64 9.155 6C9.155 6.36 8.86 6.655 8.5 6.655Z" fill="currentColor"/>
</svg>
