<svg width="12" height="12" viewBox="0 0 12 12" fill="none" xmlns="http://www.w3.org/2000/svg">
<path opacity="0.97" d="M8.095 1H3.905C2.085 1 1 2.085 1 3.905V8.09C1 9.915 2.085 11 3.905 11H8.09C9.91 11 10.995 9.915 10.995 8.095V3.905C11 2.085 9.915 1 8.095 1ZM4.155 8.155C3.795 8.155 3.5 7.86 3.5 7.5C3.5 7.14 3.795 6.845 4.155 6.845C4.515 6.845 4.81 7.14 4.81 7.5C4.81 7.86 4.515 8.155 4.155 8.155ZM6 5.155C5.64 5.155 5.345 4.86 5.345 4.5C5.345 4.14 5.64 3.845 6 3.845C6.36 3.845 6.655 4.14 6.655 4.5C6.655 4.86 6.36 5.155 6 5.155ZM7.845 8.155C7.485 8.155 7.19 7.86 7.19 7.5C7.19 7.14 7.485 6.845 7.845 6.845C8.205 6.845 8.5 7.14 8.5 7.5C8.5 7.86 8.205 8.155 7.845 8.155Z" fill="currentColor"/>
</svg>
