<svg width="12" height="12" viewBox="0 0 12 12" fill="none" xmlns="http://www.w3.org/2000/svg">
<path d="M10.5 3.76V6.7C10.5 6.87 10.335 6.99 10.175 6.94L8.21 6.33C7.67 6.165 7.09 6.305 6.695 6.7C6.295 7.1 6.15 7.685 6.32 8.225L6.925 10.175C6.975 10.335 6.855 10.5 6.685 10.5H3.76C2.035 10.5 1 9.47 1 7.74V3.76C1 2.03 2.035 1 3.76 1H7.74C9.465 1 10.5 2.03 10.5 3.76Z" fill="currentColor"/>
<path d="M10.9798 9.41925L10.1649 9.69425C9.93985 9.76925 9.75985 9.94425 9.68485 10.1742L9.40985 10.9893C9.17485 11.6943 8.18485 11.6792 7.96485 10.9742L7.03985 7.99925C6.85985 7.40925 7.40485 6.85925 7.98985 7.04425L10.9698 7.96925C11.6698 8.18925 11.6798 9.18425 10.9798 9.41925Z" fill="currentColor"/>
</svg>
