<svg width="12" height="12" viewBox="0 0 12 12" fill="none" xmlns="http://www.w3.org/2000/svg">
<path d="M6.6489 1.05733C6.5032 1.03169 6.375 1.14796 6.375 1.29592V2.7263C6.375 2.82548 6.43545 2.91281 6.51795 2.96791C6.76955 3.136 6.935 3.42298 6.935 3.74952V4.74952C6.935 5.26454 6.515 5.68954 6 5.68954C5.48 5.68954 5.06 5.26454 5.06 4.74952V3.74952C5.06 3.42288 5.22915 3.13583 5.48195 2.96776C5.56455 2.91285 5.625 2.82548 5.625 2.7263V1.29624C5.625 1.14816 5.49675 1.03184 5.35095 1.05756C4.57621 1.19416 3.88289 1.56663 3.35 2.09952C2.67 2.77952 2.25 3.71952 2.25 4.74952V7.24954C2.25 9.31454 3.935 10.9995 6 10.9995C8.065 10.9995 9.75 9.31454 9.75 7.24954V4.74952C9.75 2.90428 8.4065 1.36663 6.6489 1.05733Z" fill="currentColor"/>
</svg>
