<svg width="12" height="12" viewBox="0 0 12 12" fill="none" xmlns="http://www.w3.org/2000/svg">
<path d="M10.4798 8.91925L9.66485 9.19425C9.43985 9.26925 9.25985 9.44425 9.18485 9.67425L8.90985 10.4892C8.67485 11.1942 7.68485 11.1792 7.46485 10.4742L6.53985 7.49925C6.35985 6.90925 6.90485 6.35925 7.48985 6.54425L10.4698 7.46925C11.1698 7.68925 11.1798 8.68425 10.4798 8.91925Z" fill="currentColor"/>
<path d="M10.4997 5.7497C10.4997 5.9647 10.4847 6.1797 10.4597 6.3897C10.4397 6.5397 10.2847 6.6297 10.1397 6.5847L7.7147 5.8297C7.1747 5.6647 6.5997 5.8047 6.1997 6.1997C5.7997 6.5997 5.6547 7.1847 5.8247 7.7247L6.5747 10.1397C6.6197 10.2847 6.5247 10.4397 6.3747 10.4597C6.1647 10.4847 5.9597 10.4997 5.7497 10.4997C3.07971 10.4997 0.929709 8.3047 0.999709 5.6147C1.06971 3.13471 3.13471 1.06971 5.6147 0.999709C8.3047 0.929709 10.4997 3.07971 10.4997 5.7497Z" fill="currentColor"/>
</svg>
