<svg width="12" height="12" viewBox="0 0 12 12" fill="none" xmlns="http://www.w3.org/2000/svg">
<g clip-path="url(#clip0_1652_2928)">
<path d="M1.29079 4.70964C1.25079 4.70964 1.20579 4.70464 1.16579 4.68964C0.97079 4.61964 0.87079 4.40464 0.93579 4.20964C1.27079 3.26964 1.85079 2.44464 2.62579 1.81964C2.78579 1.68964 3.02079 1.71464 3.15079 1.87464C3.28079 2.03464 3.25579 2.26964 3.09579 2.40464C2.43579 2.93964 1.93079 3.64964 1.64579 4.45964C1.59079 4.61464 1.44579 4.70964 1.29079 4.70964Z" fill="currentColor"/>
<path d="M1.29 8.04C1.135 8.04 0.99 7.945 0.935 7.79C0.73 7.21 0.625 6.605 0.625 6C0.625 5.795 0.795 5.625 1 5.625C1.205 5.625 1.375 5.795 1.375 6C1.375 6.52 1.465 7.04 1.645 7.54C1.715 7.735 1.61 7.95 1.415 8.02C1.375 8.035 1.33 8.04 1.29 8.04Z" fill="currentColor"/>
<path d="M5.9993 11.3757C5.4693 11.3757 4.94432 11.2957 4.43432 11.1407C4.23432 11.0807 4.12432 10.8707 4.18432 10.6707C4.24432 10.4707 4.45432 10.3607 4.65432 10.4207C5.0893 10.5557 5.5443 10.6208 5.9993 10.6208C8.5493 10.6208 10.6243 8.54575 10.6243 5.99575C10.6243 5.73575 10.5993 5.46575 10.5493 5.18075C10.5143 4.97575 10.6493 4.78076 10.8543 4.74576C11.0543 4.71076 11.2543 4.84575 11.2893 5.05075C11.3493 5.38075 11.3793 5.69075 11.3793 6.00075C11.3743 8.96575 8.9643 11.3757 5.9993 11.3757Z" fill="currentColor"/>
<path d="M2.85913 10.2491C2.77413 10.2491 2.69413 10.2241 2.62413 10.1641C2.33913 9.93405 2.10913 9.71405 1.91413 9.48905C1.77913 9.33405 1.79913 9.09405 1.95413 8.95905C2.11413 8.82405 2.34913 8.84405 2.48413 8.99905C2.64913 9.18905 2.84913 9.37905 3.09413 9.57905C3.25413 9.70905 3.27913 9.94405 3.14913 10.104C3.07913 10.199 2.96913 10.2491 2.85913 10.2491Z" fill="currentColor"/>
<path d="M10.1192 3.545C9.9992 3.545 9.8842 3.49 9.8092 3.38C8.9492 2.125 7.5192 1.375 5.9992 1.375C5.5442 1.375 5.0892 1.44 4.65422 1.575C4.45922 1.635 4.24923 1.525 4.18423 1.325C4.11923 1.125 4.23423 0.915 4.43423 0.855C4.94423 0.705 5.4692 0.625 5.9992 0.625C7.7692 0.625 9.4242 1.5 10.4292 2.96C10.5442 3.13 10.5042 3.365 10.3342 3.48C10.2692 3.525 10.1942 3.545 10.1192 3.545Z" fill="currentColor"/>
<path d="M8.015 3.24925C7.85 3.12425 7.55 2.99926 7.07 3.12926L5.475 3.55925C5.015 3.68925 4.715 4.07926 4.715 4.55926V6.66925C4.585 6.61925 4.445 6.58925 4.295 6.58925C3.65 6.58925 3.125 7.11425 3.125 7.75925C3.125 8.40425 3.65 8.92925 4.295 8.92925C4.935 8.92925 5.45 8.41425 5.46 7.77925C5.46 7.77425 5.465 7.76925 5.465 7.75925V5.66425L7.625 5.07425V6.13925C7.495 6.08925 7.355 6.05925 7.205 6.05925C6.56 6.05925 6.035 6.58425 6.035 7.22925C6.035 7.87425 6.56 8.39925 7.205 8.39925C7.85 8.39925 8.375 7.87425 8.375 7.22925V4.12426C8.375 3.72426 8.255 3.42926 8.015 3.24925ZM4.295 8.17925C4.065 8.17925 3.875 7.98925 3.875 7.75925C3.875 7.52925 4.065 7.33925 4.295 7.33925C4.525 7.33925 4.715 7.52925 4.715 7.75925C4.715 7.98925 4.525 8.17925 4.295 8.17925ZM7.205 7.64925C6.975 7.64925 6.785 7.45925 6.785 7.22925C6.785 6.99925 6.975 6.80925 7.205 6.80925C7.435 6.80925 7.625 6.99925 7.625 7.22925C7.625 7.45925 7.435 7.64925 7.205 7.64925Z" fill="currentColor"/>
</g>
<defs>
<clipPath id="clip0_1652_2928">
<rect width="12" height="12" fill="currentColor"/>
</clipPath>
</defs>
</svg>
