<svg width="12" height="12" viewBox="0 0 12 12" fill="none" xmlns="http://www.w3.org/2000/svg">
<path d="M9 2.625H3C2.795 2.625 2.625 2.455 2.625 2.25C2.625 2.045 2.795 1.875 3 1.875H9C9.205 1.875 9.375 2.045 9.375 2.25C9.375 2.455 9.205 2.625 9 2.625Z" fill="currentColor"/>
<path d="M7.5 1.375H4.5C4.295 1.375 4.125 1.205 4.125 1C4.125 0.795 4.295 0.625 4.5 0.625H7.5C7.705 0.625 7.875 0.795 7.875 1C7.875 1.205 7.705 1.375 7.5 1.375Z" fill="currentColor"/>
<path d="M6.95455 8.10545C6.78455 8.10545 6.64455 8.24545 6.64455 8.41545C6.64455 8.58545 6.78455 8.72545 6.95455 8.72545C7.12455 8.72545 7.26455 8.58545 7.26455 8.41545C7.26455 8.24545 7.12455 8.10545 6.95455 8.10545Z" fill="currentColor"/>
<path d="M4.75477 8.86945C4.75477 8.69945 4.61477 8.56445 4.44477 8.56445C4.27477 8.56445 4.13477 8.70445 4.13477 8.87445C4.13477 9.04445 4.27477 9.18445 4.44477 9.18445C4.61477 9.17945 4.75477 9.03945 4.75477 8.86945Z" fill="currentColor"/>
<path d="M9 3.5H3C1.9 3.5 1 4.4 1 5.5V9C1 10.1 1.9 11 3 11H9C10.1 11 11 10.1 11 9V5.5C11 4.4 10.1 3.5 9 3.5ZM8.015 8.415C8.015 8.425 8.01 8.43 8.01 8.44C7.995 9.01 7.53 9.475 6.955 9.475C6.37 9.475 5.895 9 5.895 8.415C5.895 7.83 6.37 7.355 6.955 7.355C7.065 7.355 7.165 7.375 7.265 7.405V6.72L5.505 7.2V8.87C5.505 9.455 5.03 9.93 4.445 9.93C3.86 9.93 3.385 9.455 3.385 8.87C3.385 8.285 3.86 7.81 4.445 7.81C4.555 7.81 4.655 7.83 4.755 7.86V6.11C4.755 5.665 5.03 5.305 5.455 5.195L6.82 4.82C7.26 4.705 7.53 4.82 7.685 4.94C7.835 5.055 8.015 5.29 8.015 5.735V8.415Z" fill="currentColor"/>
</svg>
