<svg width="12" height="12" viewBox="0 0 12 12" fill="none" xmlns="http://www.w3.org/2000/svg">
<path d="M7.2703 6.83595C7.0903 6.83595 6.9453 6.98095 6.9453 7.16095C6.9453 7.34095 7.0903 7.48595 7.2703 7.48595C7.4503 7.48595 7.5953 7.34095 7.5953 7.16095C7.5903 6.98095 7.4453 6.83595 7.2703 6.83595Z" fill="currentColor"/>
<path d="M4.53008 7.3301C4.35008 7.3301 4.20508 7.4751 4.20508 7.6551C4.20508 7.8351 4.35008 7.9801 4.53008 7.9801C4.71008 7.9801 4.85508 7.8351 4.85508 7.6551C4.85508 7.4751 4.71008 7.3301 4.53008 7.3301Z" fill="currentColor"/>
<path d="M8.095 1H3.905C2.085 1 1 2.085 1 3.905V8.09C1 9.915 2.085 11 3.905 11H8.09C9.91 11 10.995 9.915 10.995 8.095V3.905C11 2.085 9.915 1 8.095 1ZM8.44 7.155C8.44 7.8 7.915 8.325 7.27 8.325C6.625 8.325 6.1 7.8 6.1 7.155C6.1 6.51 6.625 5.985 7.27 5.985C7.385 5.985 7.49 6.005 7.595 6.035V5.325L5.705 5.84V7.65C5.705 7.655 5.7 7.66 5.7 7.665C5.695 8.305 5.17 8.82 4.53 8.82C3.885 8.82 3.36 8.295 3.36 7.65C3.36 7.005 3.885 6.48 4.53 6.48C4.645 6.48 4.75 6.5 4.855 6.53V4.645C4.855 4.16 5.155 3.765 5.625 3.64L7.12 3.23C7.6 3.1 7.9 3.225 8.07 3.355C8.235 3.485 8.44 3.74 8.44 4.24V7.155Z" fill="currentColor"/>
</svg>
