<svg width="12" height="12" viewBox="0 0 12 12" fill="none" xmlns="http://www.w3.org/2000/svg">
<path d="M8.5 2.375H8V1.63C8 1.215 7.66 0.875 7.245 0.875H4.755C4.34 0.875 4 1.215 4 1.63V2.375H3.5C2.95 2.375 2.5 2.825 2.5 3.375V3.44C2.66 3.395 2.825 3.375 3 3.375H9C9.175 3.375 9.34 3.395 9.5 3.44V3.375C9.5 2.825 9.05 2.375 8.5 2.375Z" fill="currentColor"/>
<path d="M6.9647 8.46485C6.8047 8.46485 6.6797 8.59485 6.6797 8.74985C6.6797 8.90485 6.8097 9.03485 6.9647 9.03485C7.1197 9.03485 7.2497 8.90485 7.2497 8.74985C7.2497 8.59485 7.1197 8.46485 6.9647 8.46485Z" fill="currentColor"/>
<path d="M4.535 8.9043C4.375 8.9043 4.25 9.0343 4.25 9.1893C4.25 9.3443 4.38 9.4743 4.535 9.4743C4.69 9.4743 4.82 9.3443 4.82 9.1893C4.82 9.0343 4.695 8.9043 4.535 8.9043Z" fill="currentColor"/>
<path d="M9.5 4.19C9.34 4.145 9.175 4.125 9 4.125H3C2.825 4.125 2.66 4.145 2.5 4.19C1.64 4.415 1 5.2 1 6.125V9.125C1 10.225 1.9 11.125 3 11.125H9C10.1 11.125 11 10.225 11 9.125V6.125C11 5.2 10.36 4.415 9.5 4.19ZM8 8.75C8 9.32 7.535 9.785 6.965 9.785C6.395 9.785 5.93 9.32 5.93 8.75C5.93 8.18 6.395 7.715 6.965 7.715C7.065 7.715 7.16 7.735 7.25 7.76V7.13L5.575 7.585V9.19C5.575 9.195 5.575 9.2 5.57 9.205C5.565 9.77 5.1 10.23 4.535 10.23C3.965 10.23 3.5 9.765 3.5 9.19C3.5 8.615 3.965 8.155 4.535 8.155C4.635 8.155 4.73 8.175 4.825 8.2V6.525C4.825 6.095 5.095 5.745 5.505 5.635L6.83 5.27C7.255 5.155 7.525 5.265 7.675 5.38C7.825 5.495 8 5.72 8 6.165V8.75Z" fill="currentColor"/>
</svg>
