<svg width="12" height="12" viewBox="0 0 12 12" fill="none" xmlns="http://www.w3.org/2000/svg">
<path d="M9.605 7.50585C9.06 7.47085 8.5 7.67085 8.085 8.08585C7.305 8.86585 7.305 10.1308 8.085 10.9158C8.35 11.1809 8.675 11.3559 9.02 11.4409C9.21 11.4909 9.41 11.5058 9.61 11.4958C10.085 11.4758 10.55 11.2858 10.915 10.9208C11.43 10.4058 11.605 9.68085 11.44 9.02585C11.36 8.68085 11.18 8.35585 10.915 8.09085C10.555 7.72585 10.085 7.53085 9.605 7.50585ZM10.62 9.49085C10.62 9.59585 10.58 9.68585 10.51 9.75585C10.44 9.82585 10.35 9.86585 10.245 9.86585H9.875V10.2558C9.875 10.3608 9.835 10.4509 9.765 10.5209C9.695 10.5908 9.605 10.6308 9.5 10.6308C9.295 10.6308 9.125 10.4608 9.125 10.2558V9.86585H8.75C8.545 9.86585 8.375 9.69585 8.375 9.49085C8.375 9.28585 8.545 9.11585 8.75 9.11585H9.125V8.76085C9.125 8.55585 9.295 8.38585 9.5 8.38585C9.705 8.38585 9.875 8.55585 9.875 8.76085V9.11585H10.245C10.455 9.11585 10.62 9.28585 10.62 9.49085Z" fill="currentColor"/>
<path d="M6.11415 6.03515C5.90915 6.03515 5.74415 6.20015 5.74415 6.40515C5.74415 6.61015 5.90915 6.77515 6.11415 6.77515C6.31915 6.77515 6.48415 6.61015 6.48415 6.40515C6.48415 6.20015 6.31915 6.03515 6.11415 6.03515Z" fill="currentColor"/>
<path d="M3.37977 6.5293C3.17477 6.5293 3.00976 6.6943 3.00976 6.8993C3.00976 7.1043 3.17477 7.2693 3.37977 7.2693C3.58476 7.2693 3.74976 7.1043 3.74976 6.8993C3.74976 6.6943 3.58476 6.5293 3.37977 6.5293Z" fill="currentColor"/>
<path d="M8.095 1H3.905C3.765 1 3.63 1.005 3.5 1.025C1.925 1.17 1 2.225 1 3.905V8.095C1 9.775 1.925 10.83 3.5 10.975C3.63 10.995 3.765 11 3.905 11H6.75C6.945 11 7.07 10.78 6.995 10.6C6.85 10.255 6.75 9.855 6.75 9.5C6.75 7.985 7.985 6.75 9.5 6.75C9.88 6.75 10.25 6.825 10.59 6.975C10.775 7.055 11 6.93 11 6.73V3.905C11 2.085 9.915 1 8.095 1ZM7.24 4.025V6.405C7.24 6.41 7.235 6.415 7.235 6.425C7.225 7.035 6.73 7.53 6.115 7.53C5.495 7.53 4.995 7.025 4.995 6.41C4.995 5.79 5.5 5.29 6.115 5.29C6.245 5.29 6.37 5.315 6.49 5.36V4.515L4.505 5.055V6.905C4.505 6.91 4.5 6.915 4.5 6.92C4.49 7.53 3.995 8.02 3.38 8.02C2.76 8.02 2.26 7.515 2.26 6.9C2.26 6.285 2.765 5.78 3.38 5.78C3.51 5.78 3.635 5.805 3.75 5.85V3.895C3.75 3.43 4.04 3.055 4.485 2.935L5.975 2.525C6.44 2.4 6.725 2.525 6.885 2.645C7.115 2.82 7.23 3.105 7.23 3.485V4.025H7.24Z" fill="currentColor"/>
</svg>
