<svg width="12" height="12" viewBox="0 0 12 12" fill="none" xmlns="http://www.w3.org/2000/svg">
<path d="M11 1.875H1C0.795 1.875 0.625 1.705 0.625 1.5C0.625 1.295 0.795 1.125 1 1.125H11C11.205 1.125 11.375 1.295 11.375 1.5C11.375 1.705 11.205 1.875 11 1.875Z" fill="currentColor"/>
<path d="M5.5 4.875H1C0.795 4.875 0.625 4.705 0.625 4.5C0.625 4.295 0.795 4.125 1 4.125H5.5C5.705 4.125 5.875 4.295 5.875 4.5C5.875 4.705 5.705 4.875 5.5 4.875Z" fill="currentColor"/>
<path d="M4 7.875H1C0.795 7.875 0.625 7.705 0.625 7.5C0.625 7.295 0.795 7.125 1 7.125H4C4.205 7.125 4.375 7.295 4.375 7.5C4.375 7.705 4.205 7.875 4 7.875Z" fill="currentColor"/>
<path d="M3 10.875H1C0.795 10.875 0.625 10.705 0.625 10.5C0.625 10.295 0.795 10.125 1 10.125H3C3.205 10.125 3.375 10.295 3.375 10.5C3.375 10.705 3.205 10.875 3 10.875Z" fill="currentColor"/>
<path d="M10.9301 3.83912C10.6351 3.61413 10.2301 3.56913 9.7551 3.69913L7.5801 4.28912C6.9951 4.44913 6.6351 4.92413 6.6351 5.52415V8.63915C6.4251 8.51915 6.1801 8.44415 5.9201 8.44415C5.1151 8.44415 4.45508 9.09915 4.45508 9.90915C4.45508 10.7142 5.1101 11.3742 5.9201 11.3742C6.7301 11.3742 7.3851 10.7192 7.3851 9.90915V7.08415L10.6251 6.19915V7.91415C10.4151 7.79415 10.1701 7.71915 9.9101 7.71915C9.1051 7.71915 8.4451 8.37415 8.4451 9.18415C8.4451 9.98915 9.1001 10.6491 9.9101 10.6491C10.7201 10.6491 11.3751 9.99415 11.3751 9.18415V4.93412C11.3751 4.42912 11.2251 4.05912 10.9301 3.83912ZM5.9201 10.6242C5.5251 10.6242 5.2051 10.3042 5.2051 9.90915C5.2051 9.51415 5.5251 9.19415 5.9201 9.19415C6.3151 9.19415 6.6351 9.51415 6.6351 9.90915C6.6351 10.3042 6.3151 10.6242 5.9201 10.6242ZM9.9101 9.89915C9.5151 9.89915 9.1951 9.57915 9.1951 9.18415C9.1951 8.78915 9.5151 8.46915 9.9101 8.46915C10.3051 8.46915 10.6251 8.78915 10.6251 9.18415C10.6251 9.57915 10.3051 9.89915 9.9101 9.89915Z" fill="currentColor"/>
</svg>
