<svg width="12" height="12" viewBox="0 0 12 12" fill="none" xmlns="http://www.w3.org/2000/svg">
<path d="M10.8594 3.13939V3.7244C10.8594 4.2144 10.6644 4.6344 10.3194 4.8794C10.1044 5.0394 9.83935 5.1144 9.56435 5.1144C9.39435 5.1144 9.2244 5.0894 9.0494 5.0294L6.3594 4.1344V8.9994C6.3594 10.3094 5.29435 11.3744 3.98438 11.3744C2.67438 11.3744 1.60938 10.3094 1.60938 8.9994C1.60938 7.6894 2.67438 6.6244 3.98438 6.6244C4.61438 6.6244 5.1844 6.8744 5.6094 7.2744V1.99939C5.6094 1.51439 5.8094 1.09439 6.1544 0.844395C6.49935 0.599395 6.95935 0.544395 7.41935 0.694395L9.6294 1.43439C10.3094 1.65939 10.8594 2.4244 10.8594 3.13939Z" fill="currentColor"/>
</svg>
