<svg width="12" height="12" viewBox="0 0 12 12" fill="none" xmlns="http://www.w3.org/2000/svg">
<path d="M10.4447 2.5893V8.2393C10.4447 9.2293 9.6397 10.0343 8.6497 10.0343C7.6647 10.0343 6.8547 9.2293 6.8547 8.2393C6.8547 7.2543 7.6647 6.4493 8.6497 6.4493C9.0697 6.4493 9.4447 6.5943 9.7497 6.8343V3.8593L5.1447 5.1693V9.2043C5.1447 10.1943 4.33468 10.9993 3.34968 10.9993C2.35968 10.9993 1.55469 10.1943 1.55469 9.2043C1.55469 8.2193 2.35968 7.4143 3.34968 7.4143C3.76469 7.4143 4.13969 7.5593 4.44469 7.7943V3.3743C4.44469 2.6393 4.88969 2.0693 5.5947 1.8793L8.4847 1.0893C9.0697 0.929302 9.5647 0.984302 9.9147 1.2543C10.2697 1.5193 10.4447 1.9693 10.4447 2.5893Z" fill="currentColor"/>
</svg>
