<svg width="12" height="12" viewBox="0 0 12 12" fill="none" xmlns="http://www.w3.org/2000/svg">
<path d="M3.5 1.62589V10.3759C3.5 10.6959 3.195 10.9509 2.885 10.8659C1.685 10.5259 1 9.5459 1 8.0959V3.90589C1 2.45589 1.685 1.47589 2.885 1.13589C3.195 1.05089 3.5 1.30089 3.5 1.62589Z" fill="currentColor"/>
<path d="M6.23455 7.18555C6.04455 7.18555 5.89455 7.34055 5.89455 7.52555C5.89455 7.71055 6.04955 7.86555 6.23455 7.86555C6.42455 7.86555 6.57955 7.71055 6.57955 7.52555C6.57955 7.34055 6.42455 7.18555 6.23455 7.18555Z" fill="currentColor"/>
<path d="M8.75905 6.7246C8.56905 6.7246 8.41405 6.8796 8.41405 7.0696C8.41405 7.2596 8.56905 7.4096 8.75905 7.4096C8.94905 7.4096 9.10405 7.2546 9.10405 7.0696C9.10405 6.8846 8.94905 6.7246 8.75905 6.7246Z" fill="currentColor"/>
<path d="M8.095 1H4.75C4.475 1 4.25 1.225 4.25 1.5V10.5C4.25 10.775 4.475 11 4.75 11H8.095C9.7 11 11 9.7 11 8.095V3.905C11 2.3 9.7 1 8.095 1ZM9.8 4.87V7.07C9.8 7.075 9.795 7.08 9.795 7.085C9.785 7.65 9.325 8.105 8.76 8.105C8.19 8.105 7.725 7.64 7.725 7.07C7.725 6.5 8.19 6.035 8.76 6.035C8.88 6.035 8.995 6.06 9.105 6.1V5.325L7.27 5.825V7.535C7.27 7.54 7.265 7.545 7.265 7.55C7.255 8.115 6.795 8.57 6.23 8.57C5.66 8.57 5.195 8.105 5.195 7.535C5.195 6.965 5.66 6.5 6.23 6.5C6.35 6.5 6.465 6.525 6.575 6.565V4.75C6.575 4.32 6.84 3.97 7.255 3.865L8.63 3.485C9.06 3.37 9.325 3.485 9.475 3.6C9.69 3.765 9.795 4.025 9.795 4.375V4.87H9.8Z" fill="currentColor"/>
</svg>
