<svg width="12" height="12" viewBox="0 0 12 12" fill="none" xmlns="http://www.w3.org/2000/svg">
<path d="M10.985 8.165C10.625 7.755 10.09 7.5 9.5 7.5C8.395 7.5 7.5 8.395 7.5 9.5C7.5 9.875 7.605 10.23 7.79 10.53C7.89 10.7 8.02 10.855 8.17 10.985C8.52 11.305 8.985 11.5 9.5 11.5C10.23 11.5 10.865 11.11 11.21 10.53C11.395 10.23 11.5 9.875 11.5 9.5C11.5 8.99 11.305 8.52 10.985 8.165ZM10.3 10.29C10.225 10.365 10.13 10.4 10.035 10.4C9.94 10.4 9.845 10.365 9.77 10.29L9.505 10.025L9.23 10.3C9.155 10.375 9.06 10.41 8.965 10.41C8.87 10.41 8.775 10.375 8.7 10.3C8.555 10.155 8.555 9.915 8.7 9.77L8.975 9.495L8.71 9.23C8.565 9.085 8.565 8.845 8.71 8.7C8.855 8.555 9.095 8.555 9.24 8.7L9.505 8.965L9.755 8.715C9.9 8.57 10.14 8.57 10.285 8.715C10.43 8.86 10.43 9.1 10.285 9.245L10.035 9.495L10.3 9.76C10.445 9.905 10.445 10.14 10.3 10.29Z" fill="currentColor"/>
<path d="M6.11415 6.03515C5.90915 6.03515 5.74415 6.20015 5.74415 6.40515C5.74415 6.61015 5.90915 6.77515 6.11415 6.77515C6.31915 6.77515 6.48415 6.61015 6.48415 6.40515C6.48415 6.20015 6.31915 6.03515 6.11415 6.03515Z" fill="currentColor"/>
<path d="M3.37977 6.5293C3.17477 6.5293 3.00976 6.6943 3.00976 6.8993C3.00976 7.1043 3.17477 7.2693 3.37977 7.2693C3.58476 7.2693 3.74976 7.1043 3.74976 6.8993C3.74976 6.6943 3.58476 6.5293 3.37977 6.5293Z" fill="currentColor"/>
<path d="M8.095 1H3.905C3.765 1 3.63 1.005 3.5 1.025C1.925 1.17 1 2.225 1 3.905V8.095C1 9.775 1.925 10.83 3.5 10.975C3.63 10.995 3.765 11 3.905 11H6.75C6.945 11 7.07 10.78 6.995 10.6C6.85 10.255 6.75 9.855 6.75 9.5C6.75 7.985 7.985 6.75 9.5 6.75C9.88 6.75 10.25 6.825 10.59 6.975C10.775 7.055 11 6.93 11 6.73V3.905C11 2.085 9.915 1 8.095 1ZM7.24 4.025V6.405C7.24 6.41 7.235 6.415 7.235 6.425C7.225 7.035 6.73 7.53 6.115 7.53C5.495 7.53 4.995 7.025 4.995 6.41C4.995 5.79 5.5 5.29 6.115 5.29C6.245 5.29 6.37 5.315 6.49 5.36V4.515L4.505 5.055V6.905C4.505 6.91 4.5 6.915 4.5 6.92C4.49 7.53 3.995 8.02 3.38 8.02C2.76 8.02 2.26 7.515 2.26 6.9C2.26 6.285 2.765 5.78 3.38 5.78C3.51 5.78 3.635 5.805 3.75 5.85V3.895C3.75 3.43 4.04 3.055 4.485 2.935L5.975 2.525C6.44 2.4 6.725 2.525 6.885 2.645C7.115 2.82 7.23 3.105 7.23 3.485V4.025H7.24Z" fill="currentColor"/>
</svg>
