<svg width="12" height="12" viewBox="0 0 12 12" fill="none" xmlns="http://www.w3.org/2000/svg">
<path d="M4.375 1.75V1C4.375 0.795 4.205 0.625 4 0.625C3.795 0.625 3.625 0.795 3.625 1V1.78C3.75 1.765 3.865 1.75 4 1.75H4.375Z" fill="currentColor"/>
<path d="M8.375 1.78V1C8.375 0.795 8.205 0.625 8 0.625C7.795 0.625 7.625 0.795 7.625 1V1.75H8C8.135 1.75 8.25 1.765 8.375 1.78Z" fill="currentColor"/>
<path d="M8.375 1.78V2.5C8.375 2.705 8.205 2.875 8 2.875C7.795 2.875 7.625 2.705 7.625 2.5V1.75H4.375V2.5C4.375 2.705 4.205 2.875 4 2.875C3.795 2.875 3.625 2.705 3.625 2.5V1.78C2.15 1.915 1.5 2.865 1.5 4.25V8.5C1.5 10 2.25 11 4 11H8C9.75 11 10.5 10 10.5 8.5V4.25C10.5 2.865 9.85 1.915 8.375 1.78ZM6 8.375H4C3.795 8.375 3.625 8.205 3.625 8C3.625 7.795 3.795 7.625 4 7.625H6C6.205 7.625 6.375 7.795 6.375 8C6.375 8.205 6.205 8.375 6 8.375ZM8 5.875H4C3.795 5.875 3.625 5.705 3.625 5.5C3.625 5.295 3.795 5.125 4 5.125H8C8.205 5.125 8.375 5.295 8.375 5.5C8.375 5.705 8.205 5.875 8 5.875Z" fill="currentColor"/>
</svg>
