<svg width="12" height="12" viewBox="0 0 12 12" fill="none" xmlns="http://www.w3.org/2000/svg">
<path d="M3.875 1.75V1C3.875 0.795 3.705 0.625 3.5 0.625C3.295 0.625 3.125 0.795 3.125 1V1.78C3.25 1.765 3.365 1.75 3.5 1.75H3.875Z" fill="currentColor"/>
<path d="M7.875 1.78V1C7.875 0.795 7.705 0.625 7.5 0.625C7.295 0.625 7.125 0.795 7.125 1V1.75H7.5C7.635 1.75 7.75 1.765 7.875 1.78Z" fill="currentColor"/>
<path d="M10.645 7.485C10.26 7.18 9.775 7 9.25 7C8.725 7 8.23 7.185 7.845 7.495C7.325 7.905 7 8.545 7 9.25C7 9.67 7.12 10.075 7.325 10.405C7.485 10.665 7.69 10.895 7.935 11.07C8.305 11.34 8.755 11.5 9.25 11.5C9.82 11.5 10.335 11.29 10.73 10.94C10.905 10.795 11.055 10.615 11.175 10.41C11.38 10.075 11.5 9.67 11.5 9.25C11.5 8.535 11.165 7.895 10.645 7.485ZM9.25 10.32C9.25 9.73 8.77 9.25 8.18 9.25C8.77 9.25 9.25 8.77 9.25 8.18C9.25 8.77 9.73 9.25 10.32 9.25C9.73 9.25 9.25 9.73 9.25 10.32Z" fill="currentColor"/>
<path d="M7.875 1.78V2.5C7.875 2.705 7.705 2.875 7.5 2.875C7.295 2.875 7.125 2.705 7.125 2.5V1.75H3.875V2.5C3.875 2.705 3.705 2.875 3.5 2.875C3.295 2.875 3.125 2.705 3.125 2.5V1.78C1.65 1.915 1 2.865 1 4.25V8.5C1 10 1.75 11 3.5 11H5.565C5.945 11 6.2 10.575 6.105 10.205C6.035 9.935 6 9.655 6 9.375C6 8.335 6.465 7.375 7.27 6.74C7.855 6.265 8.605 6 9.375 6H9.395C9.71 6 10 5.77 10 5.455V4.25C10 2.865 9.35 1.915 7.875 1.78ZM4.5 8.375H3.5C3.295 8.375 3.125 8.205 3.125 8C3.125 7.795 3.295 7.625 3.5 7.625H4.5C4.705 7.625 4.875 7.795 4.875 8C4.875 8.205 4.705 8.375 4.5 8.375ZM6 5.875H3.5C3.295 5.875 3.125 5.705 3.125 5.5C3.125 5.295 3.295 5.125 3.5 5.125H6C6.205 5.125 6.375 5.295 6.375 5.5C6.375 5.705 6.205 5.875 6 5.875Z" fill="currentColor"/>
</svg>
