<svg width="12" height="12" viewBox="0 0 12 12" fill="none" xmlns="http://www.w3.org/2000/svg">
<path d="M10.8095 6.0495L10.4994 5.9445L9.66445 5.6695C9.37445 5.5745 9.07945 5.6095 8.85445 5.7695C8.63445 5.9345 8.50445 6.1995 8.50445 6.5095V8.9045C8.30445 8.7945 8.07945 8.7245 7.83445 8.7245C7.06445 8.7245 6.43945 9.3545 6.43945 10.1245C6.43945 10.2545 6.45945 10.3795 6.48945 10.4995C6.65445 11.0945 7.19445 11.5245 7.83445 11.5245C8.59945 11.5245 9.21945 10.9145 9.23445 10.1545V7.8495C9.24445 7.8495 9.24945 7.8545 9.25945 7.8595L10.3995 8.2395C10.4195 8.2445 10.4444 8.2545 10.4644 8.2545C10.5545 8.2795 10.6344 8.2895 10.7194 8.2895C10.8995 8.2895 11.0694 8.2395 11.2094 8.1345C11.4345 7.9745 11.5595 7.7095 11.5595 7.3995V7.0995C11.5595 6.6445 11.2395 6.1945 10.8095 6.0495ZM7.83445 10.7945C7.60445 10.7945 7.40445 10.6795 7.28445 10.4995C7.20945 10.3945 7.16945 10.2645 7.16945 10.1245C7.16945 9.7595 7.46945 9.4595 7.83445 9.4595C8.20445 9.4595 8.50445 9.7595 8.50445 10.1245C8.50445 10.2395 8.47445 10.3445 8.42445 10.4345C8.31445 10.6495 8.08945 10.7945 7.83445 10.7945Z" fill="currentColor"/>
<path d="M11.5595 7.0995V7.3995C11.5595 7.7095 11.4345 7.9745 11.2094 8.1345C11.0694 8.2395 10.8995 8.2895 10.7194 8.2895C10.6344 8.2895 10.5545 8.2795 10.4644 8.2545C10.4444 8.2545 10.4195 8.2445 10.3995 8.2395L9.25945 7.8595C9.24945 7.8545 9.24445 7.8495 9.23445 7.8495V10.1545C9.21945 10.9145 8.59945 11.5245 7.83445 11.5245C7.19445 11.5245 6.65445 11.0945 6.48945 10.4995C6.45945 10.3795 6.43945 10.2545 6.43945 10.1245C6.43945 9.3545 7.06445 8.7245 7.83445 8.7245C8.07945 8.7245 8.30445 8.7945 8.50445 8.9045V6.5095C8.50445 6.1995 8.63445 5.9345 8.85445 5.7695C9.07945 5.6095 9.37445 5.5745 9.66445 5.6695L10.4994 5.9445L10.8095 6.0495C11.2395 6.1945 11.5595 6.6445 11.5595 7.0995Z" fill="currentColor"/>
<path d="M10.5 3.76V4.81C10.5 4.98 10.335 5.1 10.17 5.045L9.9 4.955C9.375 4.79 8.84 4.86 8.405 5.17C7.99 5.48 7.755 5.97 7.755 6.51V7.735C7.755 7.87 7.65 7.98 7.515 8C6.485 8.155 5.69 9.05 5.69 10.125C5.69 10.15 5.69 10.175 5.69 10.2C5.695 10.355 5.58 10.5 5.42 10.5H3.76C2.035 10.5 1 9.47 1 7.74V3.76C1 2.03 2.035 1 3.76 1H7.74C9.465 1 10.5 2.03 10.5 3.76Z" fill="currentColor"/>
</svg>
