<svg width="12" height="12" viewBox="0 0 12 12" fill="none" xmlns="http://www.w3.org/2000/svg">
<path d="M8 2.125C8 2.745 7.495 3.25 6.875 3.25H5.125C4.815 3.25 4.535 3.125 4.33 2.92C4.125 2.715 4 2.435 4 2.125C4 1.505 4.505 1 5.125 1H6.875C7.185 1 7.465 1.125 7.67 1.33C7.875 1.535 8 1.815 8 2.125Z" fill="currentColor"/>
<path d="M9.415 2.51437C9.3 2.41937 9.17 2.34437 9.03 2.28937C8.885 2.23437 8.74 2.34937 8.71 2.49937C8.54 3.35437 7.785 3.99937 6.875 3.99937H5.125C4.625 3.99937 4.155 3.80437 3.8 3.44937C3.54 3.18937 3.36 2.85937 3.29 2.50437C3.26 2.35437 3.11 2.23437 2.965 2.29437C2.385 2.52937 2 3.05937 2 4.12437V8.99935C2 10.4993 2.895 10.9993 4 10.9993H8C9.105 10.9993 10 10.4993 10 8.99935V4.12437C10 3.30937 9.775 2.80937 9.415 2.51437ZM4 6.12435H6C6.205 6.12435 6.375 6.29435 6.375 6.49935C6.375 6.70435 6.205 6.87435 6 6.87435H4C3.795 6.87435 3.625 6.70435 3.625 6.49935C3.625 6.29435 3.795 6.12435 4 6.12435ZM8 8.87435H4C3.795 8.87435 3.625 8.70435 3.625 8.49935C3.625 8.29435 3.795 8.12435 4 8.12435H8C8.205 8.12435 8.375 8.29435 8.375 8.49935C8.375 8.70435 8.205 8.87435 8 8.87435Z" fill="currentColor"/>
</svg>
