<svg width="12" height="12" viewBox="0 0 12 12" fill="none" xmlns="http://www.w3.org/2000/svg">
<path d="M6.33805 9.97945C6.4754 10.0114 6.488 10.1914 6.3542 10.236L5.5642 10.496C3.57919 11.136 2.53419 10.601 1.88919 8.61595L1.24919 6.64095C0.609194 4.65594 1.13919 3.60594 3.12419 2.96594L3.38619 2.87917C3.58762 2.81247 3.78365 3.0145 3.72646 3.21883C3.69811 3.32012 3.67083 3.42582 3.64419 3.53594L3.15419 5.63095C2.60419 7.98595 3.40919 9.28595 5.7642 9.84595L6.33805 9.97945Z" fill="currentColor"/>
<path d="M8.5851 1.60427L7.7501 1.40927C6.0801 1.01427 5.0851 1.33927 4.50009 2.54927C4.35009 2.85427 4.23009 3.22427 4.13009 3.64927L3.64009 5.74425C3.15009 7.83425 3.79509 8.86425 5.8801 9.35925L6.7201 9.55925C7.0101 9.62925 7.2801 9.67425 7.5301 9.69425C9.0901 9.84425 9.9201 9.11425 10.3401 7.30925L10.8301 5.21925C11.3201 3.12927 10.6801 2.09427 8.5851 1.60427ZM7.6451 6.66425C7.6001 6.83425 7.4501 6.94425 7.2801 6.94425C7.2501 6.94425 7.2201 6.93925 7.1851 6.93425L5.7301 6.56425C5.5301 6.51425 5.4101 6.30925 5.4601 6.10925C5.5101 5.90925 5.7151 5.78925 5.9151 5.83925L7.3701 6.20925C7.5751 6.25925 7.6951 6.46425 7.6451 6.66425ZM9.1101 4.97427C9.0651 5.14425 8.9151 5.25425 8.7451 5.25425C8.7151 5.25425 8.6851 5.24925 8.6501 5.24425L6.2251 4.62927C6.0251 4.57927 5.9051 4.37427 5.9551 4.17427C6.0051 3.97427 6.2101 3.85427 6.4101 3.90427L8.8351 4.51927C9.0401 4.56427 9.1601 4.76927 9.1101 4.97427Z" fill="currentColor"/>
</svg>
