<svg width="12" height="12" viewBox="0 0 12 12" fill="none" xmlns="http://www.w3.org/2000/svg">
<path d="M6.77515 10.081C6.64515 10.136 6.50515 10.186 6.35515 10.236L5.56515 10.496C3.58017 11.136 2.53517 10.601 1.89017 8.61595L1.25017 6.64095C0.610171 4.65594 1.14017 3.60594 3.12517 2.96594L3.89517 2.71094C3.80017 2.95094 3.72017 3.22594 3.64517 3.53594L3.15517 5.63095C2.60517 7.98595 3.41017 9.28595 5.76515 9.84595L6.60515 10.046C6.66015 10.061 6.72015 10.071 6.77515 10.081Z" fill="currentColor"/>
<path d="M8.5851 1.60427L7.7501 1.40927C6.0801 1.01427 5.0851 1.33927 4.50009 2.54927C4.35009 2.85427 4.23009 3.22427 4.13009 3.64927L3.64009 5.74425C3.15009 7.83425 3.79509 8.86425 5.8801 9.35925L6.7201 9.55925C7.0101 9.62925 7.2801 9.67425 7.5301 9.69425C9.0901 9.84425 9.9201 9.11425 10.3401 7.30925L10.8301 5.21925C11.3201 3.12927 10.6801 2.09427 8.5851 1.60427Z" fill="currentColor"/>
</svg>
