<svg width="12" height="12" viewBox="0 0 12 12" fill="none" xmlns="http://www.w3.org/2000/svg">
<path d="M4.14453 3.145C3.93453 3.145 3.76953 2.975 3.76953 2.77V1.375C3.76953 1.17 3.93453 1 4.14453 1C4.35453 1 4.51953 1.17 4.51953 1.375V2.765C4.51953 2.975 4.35453 3.145 4.14453 3.145Z" fill="currentColor"/>
<path d="M7.85545 3.145C7.64545 3.145 7.48045 2.975 7.48045 2.77V1.375C7.48045 1.165 7.65045 1 7.85545 1C8.06545 1 8.23045 1.17 8.23045 1.375V2.765C8.23045 2.975 8.06545 3.145 7.85545 3.145Z" fill="currentColor"/>
<path d="M9.785 2.25C9.455 2.005 8.98 2.24 8.98 2.655V2.705C8.98 3.29 8.56 3.83 7.975 3.89C7.3 3.96 6.73 3.43 6.73 2.77V2.25C6.73 1.975 6.505 1.75 6.23 1.75H5.77C5.495 1.75 5.27 1.975 5.27 2.25V2.77C5.27 3.165 5.065 3.515 4.755 3.71C4.71 3.74 4.66 3.765 4.61 3.79C4.565 3.815 4.515 3.835 4.46 3.85C4.4 3.87 4.335 3.885 4.265 3.89C4.185 3.9 4.105 3.9 4.025 3.89C3.955 3.885 3.89 3.87 3.83 3.85C3.78 3.835 3.73 3.815 3.68 3.79C3.63 3.765 3.58 3.74 3.535 3.71C3.22 3.49 3.02 3.11 3.02 2.705V2.655C3.02 2.27 2.61 2.04 2.285 2.205C2.28 2.21 2.275 2.21 2.27 2.215C2.25 2.225 2.235 2.235 2.215 2.25C2.2 2.265 2.18 2.275 2.165 2.29C2.025 2.4 1.9 2.525 1.795 2.66C1.74 2.72 1.695 2.785 1.655 2.85C1.65 2.855 1.645 2.86 1.64 2.87C1.595 2.935 1.555 3.01 1.52 3.08C1.51 3.09 1.505 3.095 1.505 3.105C1.475 3.165 1.445 3.225 1.425 3.29C1.41 3.315 1.405 3.335 1.395 3.36C1.365 3.435 1.345 3.51 1.325 3.585C1.305 3.655 1.29 3.73 1.28 3.805C1.27 3.86 1.265 3.915 1.26 3.975C1.255 4.045 1.25 4.115 1.25 4.185V8.565C1.25 9.91 2.34 11 3.685 11H8.315C9.66 11 10.75 9.91 10.75 8.565V4.185C10.75 3.39 10.37 2.695 9.785 2.25ZM6 8.125H5.155V9C5.155 9.205 4.985 9.375 4.78 9.375C4.57 9.375 4.405 9.205 4.405 9V8.125H3.5C3.295 8.125 3.125 7.955 3.125 7.75C3.125 7.545 3.295 7.375 3.5 7.375H4.405V6.5C4.405 6.295 4.57 6.125 4.78 6.125C4.985 6.125 5.155 6.295 5.155 6.5V7.375H6C6.205 7.375 6.375 7.545 6.375 7.75C6.375 7.955 6.205 8.125 6 8.125Z" fill="currentColor"/>
</svg>
