<svg width="12" height="12" viewBox="0 0 12 12" fill="none" xmlns="http://www.w3.org/2000/svg">
<path d="M2.985 0.5H1.515C0.88 0.5 0.5 0.88 0.5 1.515V2.985C0.5 3.62 0.88 4 1.515 4H2.985C3.62 4 4 3.62 4 2.985V1.515C4 0.88 3.62 0.5 2.985 0.5ZM3.235 2.78C3.36 2.905 3.36 3.11 3.235 3.235C3.17 3.295 3.085 3.325 3.005 3.325C2.925 3.325 2.845 3.295 2.78 3.235L2.245 2.705L1.725 3.235C1.66 3.295 1.58 3.325 1.49 3.325C1.41 3.325 1.33 3.295 1.265 3.235C1.14 3.11 1.14 2.905 1.265 2.78L1.8 2.25L1.27 1.725C1.145 1.6 1.145 1.395 1.27 1.27C1.395 1.145 1.6 1.145 1.725 1.27L2.245 1.8L2.775 1.27C2.9 1.145 3.105 1.145 3.23 1.27C3.355 1.395 3.355 1.6 3.23 1.725L2.705 2.25L3.235 2.78Z" fill="currentColor"/>
<path d="M10.7498 7.90985C10.7498 7.98485 10.7247 8.05985 10.6597 8.12485C9.93475 8.85485 8.64475 10.1549 7.90475 10.8998C7.83975 10.9698 7.75475 10.9999 7.66975 10.9999C7.50475 10.9999 7.34475 10.8698 7.34475 10.6798V8.92985C7.34475 8.19985 7.96475 7.59485 8.72475 7.59485C9.19975 7.58985 9.85975 7.58985 10.4248 7.58985C10.6198 7.58985 10.7498 7.74485 10.7498 7.90985Z" fill="currentColor"/>
<path d="M10.7498 7.90985C10.7498 7.98485 10.7247 8.05985 10.6597 8.12485C9.93475 8.85485 8.64475 10.1549 7.90475 10.8998C7.83975 10.9698 7.75475 10.9999 7.66975 10.9999C7.50475 10.9999 7.34475 10.8698 7.34475 10.6798V8.92985C7.34475 8.19985 7.96475 7.59485 8.72475 7.59485C9.19975 7.58985 9.85975 7.58985 10.4248 7.58985C10.6198 7.58985 10.7498 7.74485 10.7498 7.90985Z" fill="currentColor"/>
<path d="M8.315 1H5.25C4.975 1 4.75 1.225 4.75 1.5V3.25C4.75 4.08 4.08 4.75 3.25 4.75H1.75C1.475 4.75 1.25 4.975 1.25 5.25V8.565C1.25 9.91 2.34 11 3.685 11H6.095C6.37 11 6.595 10.775 6.595 10.5V8.93C6.595 7.78 7.55 6.845 8.725 6.845C8.99 6.84 9.635 6.84 10.25 6.84C10.525 6.84 10.75 6.62 10.75 6.34V3.435C10.75 2.09 9.66 1 8.315 1ZM4.36 8.505H3.04C2.835 8.505 2.665 8.335 2.665 8.13C2.665 7.92 2.835 7.75 3.04 7.75H4.36C4.575 7.75 4.735 7.92 4.735 8.13C4.735 8.335 4.575 8.505 4.36 8.505ZM5.755 6.65H3.04C2.835 6.65 2.665 6.48 2.665 6.275C2.665 6.065 2.835 5.895 3.04 5.895H5.755C5.96 5.895 6.135 6.065 6.135 6.275C6.135 6.48 5.96 6.65 5.755 6.65Z" fill="currentColor"/>
</svg>
