<svg width="12" height="12" viewBox="0 0 12 12" fill="none" xmlns="http://www.w3.org/2000/svg">
<path d="M10.0946 7.0304L9.5296 6.0904C9.4046 5.8854 9.2946 5.4904 9.2946 5.2504V4.31539C9.2946 2.50039 7.8196 1.02539 6.0096 1.02539C4.19461 1.03039 2.71961 2.50039 2.71961 4.31539V5.2454C2.71961 5.4854 2.60961 5.8804 2.48961 6.0854L1.92461 7.0254C1.70961 7.3904 1.65961 7.8054 1.79461 8.1654C1.92961 8.5304 2.23461 8.8204 2.63461 8.9504C3.17461 9.1304 3.71961 9.2604 4.27461 9.3554C4.32961 9.3654 4.38461 9.3704 4.43961 9.3804C4.50961 9.3904 4.58461 9.4004 4.65961 9.4104C4.78961 9.4304 4.91961 9.4454 5.0546 9.4554C5.3696 9.4854 5.6896 9.5004 6.0096 9.5004C6.3246 9.5004 6.6396 9.4854 6.9496 9.4554C7.0646 9.4454 7.1796 9.4354 7.2896 9.4204C7.3796 9.4104 7.4696 9.4004 7.5596 9.3854C7.6146 9.3804 7.6696 9.3704 7.7246 9.3604C8.2846 9.2704 8.8396 9.1304 9.3796 8.9504C9.7646 8.8204 10.0596 8.5304 10.1996 8.1604C10.3396 7.7854 10.2996 7.3754 10.0946 7.0304ZM6.3746 5.0004C6.3746 5.2104 6.2046 5.3804 5.9946 5.3804C5.7846 5.3804 5.6146 5.2104 5.6146 5.0004V3.45039C5.6146 3.24039 5.7846 3.07039 5.9946 3.07039C6.2046 3.07039 6.3746 3.24039 6.3746 3.45039V5.0004Z" fill="currentColor"/>
<path d="M7.41485 10.005C7.20485 10.585 6.64985 11 5.99985 11C5.60485 11 5.21485 10.84 4.93984 10.555C4.77984 10.405 4.65984 10.205 4.58984 10C4.65484 10.01 4.71984 10.015 4.78984 10.025C4.90484 10.04 5.02485 10.055 5.14485 10.065C5.42985 10.09 5.71985 10.105 6.00985 10.105C6.29485 10.105 6.57985 10.09 6.85985 10.065C6.96485 10.055 7.06985 10.05 7.16985 10.035C7.24985 10.025 7.32985 10.015 7.41485 10.005Z" fill="currentColor"/>
</svg>
