<svg width="12" height="12" viewBox="0 0 12 12" fill="none" xmlns="http://www.w3.org/2000/svg">
<path d="M9.5 4C10.3285 4 11 3.32842 11 2.5C11 1.67158 10.3285 1 9.5 1C8.67155 1 8 1.67158 8 2.5C8 3.32842 8.67155 4 9.5 4Z" fill="currentColor"/>
<path d="M9.9 4.71C9.885 4.715 9.87 4.715 9.855 4.72C9.815 4.725 9.78 4.73 9.735 4.735C9.66 4.745 9.58 4.75 9.5 4.75C9.285 4.75 9.08 4.72 8.885 4.66C8.8 4.64 8.72 4.615 8.645 4.58C8.57 4.55 8.49 4.51 8.42 4.47C8.045 4.265 7.735 3.955 7.53 3.58C7.49 3.51 7.45 3.43 7.42 3.355C7.385 3.28 7.36 3.2 7.34 3.115C7.28 2.92 7.25 2.715 7.25 2.5C7.25 2.42 7.255 2.34 7.265 2.265C7.27 2.22 7.275 2.185 7.28 2.145C7.285 2.13 7.285 2.115 7.29 2.1C7.35 1.79 7.12 1.5 6.8 1.5H3.76C3.69 1.5 3.62 1.505 3.555 1.51C3.495 1.515 3.44 1.52 3.38 1.53C3.32 1.535 3.26 1.545 3.205 1.555C2 1.73 1.23 2.495 1.055 3.705C1.045 3.76 1.035 3.82 1.03 3.88C1.02 3.94 1.015 3.995 1.01 4.055C1.005 4.12 1 4.19 1 4.26V8.24C1 8.31 1.005 8.38 1.01 8.445C1.015 8.505 1.02 8.56 1.03 8.62C1.035 8.68 1.045 8.74 1.055 8.795C1.23 10.005 2 10.77 3.205 10.945C3.26 10.955 3.32 10.965 3.38 10.97C3.44 10.98 3.495 10.985 3.555 10.99C3.62 10.995 3.69 11 3.76 11H7.74C7.81 11 7.88 10.995 7.945 10.99C8.005 10.985 8.06 10.98 8.12 10.97C8.18 10.965 8.24 10.955 8.295 10.945C9.5 10.77 10.27 10.005 10.445 8.795C10.455 8.74 10.465 8.68 10.47 8.62C10.48 8.56 10.485 8.505 10.49 8.445C10.495 8.38 10.5 8.31 10.5 8.24V5.2C10.5 4.88 10.21 4.65 9.9 4.71ZM6.14 7.625C5.875 8.46 4.965 8.91 4.65 8.91C4.33 8.91 3.435 8.47 3.165 7.625H3.16C2.985 7.07 3.185 6.345 3.82 6.14C4.11 6.045 4.42 6.1 4.645 6.275C4.87 6.1 5.185 6.045 5.48 6.14C6.115 6.345 6.315 7.07 6.14 7.625Z" fill="currentColor"/>
</svg>
