<svg width="12" height="12" viewBox="0 0 12 12" fill="none" xmlns="http://www.w3.org/2000/svg">
<path d="M9.66995 7.245L9.16995 6.415C9.06495 6.23 8.96995 5.88 8.96995 5.675V4.41C8.96995 3.235 8.27995 2.22 7.28495 1.745C7.02495 1.285 6.54495 1 5.99495 1C5.44995 1 4.95997 1.295 4.69997 1.76C3.72497 2.245 3.04997 3.25 3.04997 4.41V5.675C3.04997 5.88 2.95497 6.23 2.84997 6.41L2.34497 7.245C2.14497 7.58 2.09997 7.95 2.22497 8.29C2.34497 8.625 2.62997 8.885 2.99997 9.01C3.96997 9.34 4.98997 9.5 6.00995 9.5C7.02995 9.5 8.04995 9.34 9.01995 9.015C9.36995 8.9 9.63995 8.635 9.76995 8.29C9.89995 7.945 9.86495 7.565 9.66995 7.245Z" fill="currentColor"/>
<path d="M7.41485 10.005C7.20485 10.585 6.64985 11 5.99985 11C5.60485 11 5.21485 10.84 4.93985 10.555C4.77985 10.405 4.65985 10.205 4.58985 10C4.65485 10.01 4.71985 10.015 4.78985 10.025C4.90485 10.04 5.02485 10.055 5.14485 10.065C5.42985 10.09 5.71985 10.105 6.00985 10.105C6.29485 10.105 6.57985 10.09 6.85985 10.065C6.96485 10.055 7.06985 10.05 7.16985 10.035C7.24985 10.025 7.32985 10.015 7.41485 10.005Z" fill="currentColor"/>
</svg>
