<svg width="12" height="12" viewBox="0 0 12 12" fill="none" xmlns="http://www.w3.org/2000/svg">
<path d="M9.5 4C10.3285 4 11 3.32842 11 2.5C11 1.67158 10.3285 1 9.5 1C8.67155 1 8 1.67158 8 2.5C8 3.32842 8.67155 4 9.5 4Z" fill="currentColor"/>
<path d="M10.5 5.2V8.24C10.5 8.31 10.495 8.38 10.49 8.445C10.485 8.505 10.48 8.56 10.47 8.62C10.465 8.68 10.455 8.74 10.445 8.795C10.27 10.005 9.5 10.77 8.295 10.945C8.24 10.955 8.18 10.965 8.12 10.97C8.06 10.98 8.005 10.985 7.945 10.99C7.88 10.995 7.81 11 7.74 11H3.76C3.69 11 3.62 10.995 3.555 10.99C3.495 10.985 3.44 10.98 3.38 10.97C3.32 10.965 3.26 10.955 3.205 10.945C2 10.77 1.23 10.005 1.055 8.795C1.045 8.74 1.035 8.68 1.03 8.62C1.02 8.56 1.015 8.505 1.01 8.445C1.005 8.38 1 8.31 1 8.24V4.26C1 4.19 1.005 4.12 1.01 4.055C1.015 3.995 1.02 3.94 1.03 3.88C1.035 3.82 1.045 3.76 1.055 3.705C1.23 2.495 2 1.73 3.205 1.555C3.26 1.545 3.32 1.535 3.38 1.53C3.44 1.52 3.495 1.515 3.555 1.51C3.62 1.505 3.69 1.5 3.76 1.5H6.8C7.12 1.5 7.35 1.79 7.29 2.1C7.29 2.11 7.285 2.12 7.285 2.13C7.275 2.18 7.27 2.23 7.26 2.285C7.24 2.495 7.25 2.72 7.295 2.95C7.31 3.01 7.32 3.06 7.34 3.115C7.38 3.28 7.445 3.435 7.53 3.58C7.56 3.64 7.6 3.7 7.635 3.755C7.8 3.995 8.005 4.2 8.245 4.365C8.3 4.4 8.36 4.44 8.42 4.47C8.565 4.555 8.72 4.62 8.885 4.66C8.94 4.68 8.99 4.69 9.05 4.705C9.28 4.75 9.505 4.76 9.715 4.74C9.77 4.73 9.82 4.725 9.87 4.715C9.88 4.715 9.89 4.71 9.9 4.71C10.21 4.65 10.5 4.88 10.5 5.2Z" fill="currentColor"/>
</svg>
