<svg width="12" height="12" viewBox="0 0 12 12" fill="none" xmlns="http://www.w3.org/2000/svg">
<path d="M8.095 1H3.905C2.085 1 1 2.085 1 3.905V8.09C1 9.915 2.085 11 3.905 11H8.09C9.91 11 10.995 9.915 10.995 8.095V3.905C11 2.085 9.915 1 8.095 1ZM8.5 8.75H6.95C6.8 8.75 6.665 8.665 6.605 8.525C6.545 8.385 6.57 8.23 6.67 8.12L7.48 7.225C7.815 6.85 8.005 6.375 8.005 5.885C8.005 5.385 7.8 4.915 7.425 4.56C7.05 4.205 6.53 4 6 4C5.47 4 4.95 4.205 4.575 4.56C4.2 4.915 3.995 5.385 3.995 5.885C3.995 6.375 4.18 6.85 4.52 7.225L5.33 8.12C5.43 8.23 5.455 8.39 5.395 8.525C5.335 8.66 5.2 8.75 5.05 8.75H3.5C3.295 8.75 3.125 8.58 3.125 8.375C3.125 8.17 3.295 8 3.5 8H4.205L3.96 7.73C3.5 7.22 3.245 6.565 3.245 5.885C3.245 5.19 3.54 4.505 4.06 4.015C4.58 3.52 5.265 3.25 6 3.25C6.735 3.25 7.42 3.52 7.94 4.015C8.455 4.505 8.755 5.19 8.755 5.885C8.755 6.56 8.5 7.215 8.04 7.73L7.795 8H8.5C8.705 8 8.875 8.17 8.875 8.375C8.875 8.58 8.705 8.75 8.5 8.75Z" fill="currentColor"/>
</svg>
