<svg width="12" height="12" viewBox="0 0 12 12" fill="none" xmlns="http://www.w3.org/2000/svg">
<path d="M6 1C3.24 1 1 3.24 1 6C1 8.76 3.24 11 6 11C8.76 11 11 8.76 11 6C11 3.24 8.76 1 6 1ZM8.5 8.625H6.95C6.8 8.625 6.665 8.54 6.605 8.4C6.545 8.26 6.57 8.105 6.67 7.995L7.48 7.1C7.815 6.725 8.005 6.25 8.005 5.76C8.005 5.26 7.8 4.79 7.425 4.435C7.05 4.08 6.53 3.875 6 3.875C5.47 3.875 4.95 4.08 4.575 4.435C4.2 4.79 3.995 5.26 3.995 5.76C3.995 6.25 4.18 6.725 4.52 7.1L5.325 8C5.425 8.11 5.45 8.27 5.39 8.405C5.33 8.54 5.195 8.63 5.045 8.63H3.5C3.295 8.63 3.125 8.46 3.125 8.255C3.125 8.05 3.295 7.875 3.5 7.875H4.205L3.96 7.605C3.5 7.095 3.245 6.44 3.245 5.76C3.245 5.065 3.54 4.38 4.06 3.89C4.58 3.395 5.265 3.125 6 3.125C6.735 3.125 7.42 3.395 7.94 3.89C8.455 4.38 8.755 5.065 8.755 5.76C8.755 6.435 8.5 7.09 8.04 7.605L7.795 7.875H8.5C8.705 7.875 8.875 8.045 8.875 8.25C8.875 8.455 8.705 8.625 8.5 8.625Z" fill="currentColor"/>
</svg>
