<svg width="12" height="12" viewBox="0 0 12 12" fill="none" xmlns="http://www.w3.org/2000/svg">
<path d="M9.555 3.73573L7.795 1.97573C6.215 0.400726 5.385 0.980725 4.38502 1.97573L1.55502 4.80573C0.980024 5.38075 0.665024 5.75075 0.550024 6.16075C0.550024 6.16575 0.545024 6.16575 0.545024 6.16575C0.545024 6.17075 0.545024 6.17075 0.545024 6.17075C0.545024 6.17575 0.545024 6.17575 0.545024 6.17575V6.19075C0.340023 6.92075 0.880024 7.54075 1.55502 8.21575L3.32002 9.97075C3.95002 10.6058 4.46002 11.0007 5.025 11.0007C5.59 11.0007 6.075 10.6207 6.725 9.97075L9.555 7.14575C9.8 6.89575 9.98 6.69075 10.12 6.49575C10.12 6.49075 10.12 6.49075 10.12 6.49075C10.12 6.49075 10.12 6.49075 10.125 6.49075C10.765 5.59575 10.595 4.77073 9.555 3.73573ZM9.04 5.68575H9.035C8.885 5.65075 8.73 5.62075 8.575 5.59075C8.565 5.59075 8.555 5.58575 8.54 5.58575C8.19 5.52075 7.835 5.46575 7.475 5.42075H7.455C7.095 5.37575 6.73 5.34075 6.365 5.32075H6.325C6.005 5.30075 5.68 5.29075 5.36 5.29075C4.97002 5.29075 4.58002 5.31075 4.19502 5.33575C4.13002 5.34075 4.07002 5.34575 4.01002 5.35075C3.72002 5.37075 3.43002 5.40075 3.14502 5.43575C3.06502 5.44575 2.99002 5.45575 2.91502 5.46575C2.62502 5.51075 2.34002 5.55575 2.05502 5.61075C1.99002 5.62575 1.93002 5.63575 1.86502 5.64575C1.84002 5.65075 1.81002 5.65575 1.78502 5.66075C1.87502 5.56075 1.98002 5.45575 2.09502 5.34075L4.92002 2.51573C5.83 1.61573 6.14 1.40073 7.26 2.51573L9.015 4.27573C9.285 4.54073 9.465 4.76573 9.575 4.96073C9.575 4.96073 9.575 4.96573 9.58 4.96573C9.79 5.33075 9.45 5.76575 9.04 5.68575Z" fill="currentColor"/>
<path d="M10.4749 8.435C10.2849 8.2 10.1199 8 9.74995 8C9.37995 8 9.21495 8.2 9.02995 8.435C8.62995 8.93 8.44995 9.47 8.51495 9.99C8.58995 10.585 9.09995 11 9.74995 11C10.3999 11 10.9099 10.585 10.9849 9.985C11.0499 9.465 10.8749 8.93 10.4749 8.435Z" fill="currentColor"/>
</svg>
