<svg width="12" height="12" viewBox="0 0 12 12" fill="none" xmlns="http://www.w3.org/2000/svg">
<path d="M8.095 1H3.905C2.085 1 1 2.085 1 3.905V8.09C1 9.915 2.085 11 3.905 11H8.09C9.91 11 10.995 9.915 10.995 8.095V3.905C11 2.085 9.915 1 8.095 1ZM8.375 6.855C8.375 7.615 7.76 8.23 7 8.23C6.24 8.23 5.625 7.615 5.625 6.855V5.855C5.625 5.65 5.795 5.48 6 5.48C6.205 5.48 6.375 5.65 6.375 5.855V6.855C6.375 7.2 6.655 7.48 7 7.48C7.345 7.48 7.625 7.2 7.625 6.855V5.285C7.625 4.39 6.895 3.66 6 3.66C5.105 3.66 4.375 4.39 4.375 5.285V7C4.375 7.74 4.975 8.34 5.715 8.34C5.92 8.34 6.09 8.51 6.09 8.715C6.09 8.92 5.92 9.09 5.715 9.09C4.565 9.09 3.625 8.15 3.625 7V5.285C3.625 3.975 4.69 2.91 6 2.91C7.31 2.91 8.375 3.975 8.375 5.285V6.855Z" fill="currentColor"/>
</svg>
