<svg width="12" height="12" viewBox="0 0 12 12" fill="none" xmlns="http://www.w3.org/2000/svg">
<path d="M8.095 1H3.905C2.085 1 1 2.085 1 3.905V8.09C1 9.915 2.085 11 3.905 11H8.09C9.91 11 10.995 9.915 10.995 8.095V3.905C11 2.085 9.915 1 8.095 1ZM8.185 7.315L7.075 8.425C6.805 8.695 6.455 8.825 6.105 8.825C5.755 8.825 5.4 8.69 5.135 8.425C4.6 7.89 4.6 7.015 5.135 6.48L5.84 5.775C5.985 5.63 6.225 5.63 6.37 5.775C6.515 5.92 6.515 6.16 6.37 6.305L5.665 7.01C5.42 7.255 5.42 7.65 5.665 7.895C5.91 8.14 6.305 8.14 6.55 7.895L7.66 6.785C7.965 6.48 8.135 6.07 8.135 5.635C8.135 5.2 7.965 4.795 7.66 4.485C7.045 3.87 5.975 3.87 5.36 4.485L4.145 5.7C3.625 6.22 3.625 7.07 4.145 7.595C4.29 7.74 4.29 7.98 4.145 8.125C4 8.27 3.76 8.27 3.615 8.125C2.8 7.31 2.8 5.985 3.615 5.17L4.825 3.96C5.275 3.51 5.87 3.265 6.505 3.265C7.14 3.265 7.735 3.51 8.185 3.96C8.635 4.41 8.88 5.005 8.88 5.64C8.88 6.275 8.635 6.87 8.185 7.315Z" fill="currentColor"/>
</svg>
