<svg width="12" height="12" viewBox="0 0 12 12" fill="none" xmlns="http://www.w3.org/2000/svg">
<path d="M9 2H7.875V1.375C7.875 1.17 7.705 1 7.5 1C7.295 1 7.125 1.17 7.125 1.375V10.625C7.125 10.83 7.295 11 7.5 11C7.705 11 7.875 10.83 7.875 10.625V10H9C10.105 10 11 9.105 11 8V4C11 2.895 10.105 2 9 2Z" fill="currentColor"/>
<path d="M3.25 2C2.145 2 1.25 2.895 1.25 4V8C1.25 9.105 2.145 10 3.25 10H5.75C6.025 10 6.25 9.775 6.25 9.5V2.5C6.25 2.225 6.025 2 5.75 2H3.25ZM3.335 6.19C3.31 6.25 3.275 6.305 3.23 6.355C3.18 6.4 3.125 6.435 3.065 6.46C3.005 6.485 2.94 6.5 2.875 6.5C2.81 6.5 2.745 6.485 2.685 6.46C2.625 6.435 2.57 6.4 2.52 6.355C2.475 6.305 2.44 6.25 2.41 6.19C2.385 6.13 2.375 6.065 2.375 6C2.375 5.87 2.43 5.74 2.52 5.645C2.545 5.625 2.57 5.605 2.595 5.585C2.625 5.565 2.655 5.55 2.685 5.54C2.715 5.525 2.745 5.515 2.775 5.51C2.945 5.475 3.115 5.53 3.23 5.645C3.32 5.74 3.375 5.87 3.375 6C3.375 6.065 3.36 6.13 3.335 6.19ZM5.085 6.19C5.06 6.25 5.025 6.305 4.98 6.355C4.93 6.4 4.875 6.435 4.815 6.46C4.755 6.485 4.69 6.5 4.625 6.5C4.56 6.5 4.495 6.485 4.435 6.46C4.375 6.435 4.32 6.4 4.27 6.355C4.175 6.26 4.125 6.135 4.125 6C4.125 5.935 4.14 5.87 4.165 5.81C4.19 5.745 4.225 5.695 4.27 5.645C4.455 5.46 4.79 5.46 4.98 5.645C5.07 5.74 5.125 5.87 5.125 6C5.125 6.065 5.11 6.13 5.085 6.19Z" fill="currentColor"/>
</svg>
