<svg width="12" height="12" viewBox="0 0 12 12" fill="none" xmlns="http://www.w3.org/2000/svg">
<path d="M8.095 1H3.905C2.085 1 1 2.085 1 3.905V8.09C1 9.915 2.085 11 3.905 11H8.09C9.91 11 10.995 9.915 10.995 8.095V3.905C11 2.085 9.915 1 8.095 1ZM8.33 5.625L7.52 6.135L7.59 7.335C7.655 8.005 7.425 8.235 6.79 8.31L4.255 8.61C4.11588 8.62895 4.06866 8.47135 4.16794 8.37205L4.94 7.6C5.085 7.455 5.085 7.215 4.94 7.07C4.79 6.925 4.555 6.925 4.405 7.07L3.63739 7.8415C3.53849 7.9409 3.38106 7.89395 3.4 7.755L3.695 5.22C3.775 4.585 4.005 4.38 4.675 4.42L5.87 4.49L6.385 3.675C6.62 3.305 7.1 3.285 7.45 3.635L8.375 4.56C8.705 4.885 8.685 5.4 8.33 5.625Z" fill="currentColor"/>
</svg>
