<svg width="12" height="12" viewBox="0 0 12 12" fill="none" xmlns="http://www.w3.org/2000/svg">
<path d="M10.0099 5.3502L8.94995 6.0202C8.74995 6.1452 8.49495 6.1152 8.32995 5.9502L6.06495 3.6852C5.89995 3.52021 5.86995 3.26521 5.99495 3.06521L6.66495 2.00521C7.07495 1.36021 7.89495 1.33021 8.49995 1.93021L10.0899 3.52021C10.6499 4.08521 10.6149 4.96521 10.0099 5.3502Z" fill="currentColor"/>
<path d="M7.3553 9.9749L2.99532 10.4849C2.95648 10.4901 2.91814 10.4937 2.88034 10.4959C2.53778 10.5161 2.45284 10.1124 2.69549 9.8697L3.99032 8.5749C4.15032 8.4199 4.15032 8.1749 3.99032 8.0199C3.84032 7.8649 3.59532 7.8649 3.43532 8.0199L2.14049 9.3147C1.89784 9.55735 1.49778 9.47205 1.51598 9.1294C1.51789 9.0934 1.52099 9.0569 1.52532 9.0199L2.04032 4.65988C2.17032 3.56988 2.57032 3.20988 3.72032 3.27988L4.47032 3.32488C4.71532 3.33988 4.94532 3.44488 5.1203 3.61988L8.3953 6.8949C8.5703 7.0699 8.6753 7.2999 8.6853 7.5449L8.7303 8.2949C8.8453 9.4499 8.4503 9.8499 7.3553 9.9749Z" fill="currentColor"/>
</svg>
