<svg width="12" height="12" viewBox="0 0 12 12" fill="none" xmlns="http://www.w3.org/2000/svg">
<path d="M7.07525 11.0001H4.91524C4.14524 11.0001 3.57524 10.3751 3.72524 9.71014L3.98524 8.55014C4.03524 8.32014 4.24024 8.16014 4.47524 8.16014H7.52025C7.75525 8.16014 7.95525 8.32014 8.01025 8.55014L8.27025 9.70514C8.43025 10.4201 7.89525 11.0001 7.07525 11.0001Z" fill="currentColor"/>
<path d="M9.4099 6.84499L8.8749 7.31499C8.6899 7.47499 8.4549 7.56499 8.2149 7.56499H3.79492C3.54992 7.56499 3.30992 7.47499 3.12992 7.30999L2.60492 6.83999C1.74492 6.13499 1.73992 5.59499 2.39992 4.76499L5.0149 1.45999C5.0332 1.43546 5.05195 1.41186 5.07115 1.38917C5.2916 1.12866 5.6349 1.35242 5.6349 1.6937V3.42999C5.6299 3.64499 5.7999 3.81499 6.0099 3.80999C6.2199 3.81499 6.3849 3.64499 6.3899 3.42999V1.6937C6.3899 1.35242 6.7281 1.13379 6.9544 1.38923C6.97315 1.41037 6.99165 1.43229 7.0099 1.45499L9.6149 4.76499C10.2649 5.59499 10.2399 6.10999 9.4099 6.84499Z" fill="currentColor"/>
</svg>
