<svg width="12" height="12" viewBox="0 0 12 12" fill="none" xmlns="http://www.w3.org/2000/svg">
<path d="M5.325 9.555V2.445C5.325 1.77 5.04 1.5 4.32 1.5H2.505C1.785 1.5 1.5 1.77 1.5 2.445V9.555C1.5 10.23 1.785 10.5 2.505 10.5H4.32C5.04 10.5 5.325 10.23 5.325 9.555Z" fill="currentColor"/>
<path d="M10.5008 9.555V2.445C10.5008 1.77 10.2158 1.5 9.4958 1.5H7.6808C6.9658 1.5 6.6758 1.77 6.6758 2.445V9.555C6.6758 10.23 6.9608 10.5 7.6808 10.5H9.4958C10.2158 10.5 10.5008 10.23 10.5008 9.555Z" fill="currentColor"/>
</svg>
