<svg width="12" height="12" viewBox="0 0 12 12" fill="none" xmlns="http://www.w3.org/2000/svg">
<path d="M10.2746 4.71953H9.72455C9.64955 4.71953 9.57455 4.73453 9.50455 4.75453L7.00955 2.25953C7.24955 1.94953 7.22955 1.50453 6.94455 1.22453L6.55455 0.834531C6.25955 0.539531 5.73955 0.539531 5.43955 0.834531L5.04955 1.22453C4.76957 1.50453 4.74957 1.94953 4.98957 2.25953L2.49457 4.75453C2.42457 4.73453 2.34957 4.71953 2.27457 4.71953H1.72457C1.28957 4.71953 0.93457 5.07455 0.93457 5.50955V6.05955C0.93457 6.49455 1.28957 6.84955 1.72457 6.84955H2.27457C2.70957 6.84955 3.06457 6.49455 3.06457 6.05955V5.50955C3.06457 5.43455 3.04957 5.35955 3.02957 5.28955L5.52455 2.79453C5.65955 2.89953 5.82955 2.95453 5.99955 2.95453C6.16955 2.95453 6.33955 2.89453 6.47955 2.78953L8.97455 5.28455C8.95455 5.35455 8.93955 5.42955 8.93955 5.50455V6.05455C8.93955 6.48955 9.29455 6.84455 9.72955 6.84455H10.2795C10.7146 6.84455 11.0695 6.48955 11.0695 6.05455V5.50455C11.0595 5.06955 10.7096 4.71953 10.2746 4.71953Z" fill="currentColor"/>
<path d="M7.87455 8.2746L7.05455 8.9996H4.92454L4.10454 8.2746C3.62954 7.8846 3.62954 7.5846 3.98954 7.1246L5.43455 5.2946C5.53455 5.1696 5.64955 5.0846 5.77955 5.0396C5.91455 4.99461 6.05955 4.99461 6.19955 5.0396C6.32455 5.0846 6.43955 5.1696 6.54455 5.2946L7.98955 7.1246C8.34955 7.5796 8.33455 7.8646 7.87455 8.2746Z" fill="currentColor"/>
<path d="M6.64545 10.9999H5.35045C4.89043 10.9999 4.54544 10.6249 4.63544 10.2249L4.79044 9.5299C4.82044 9.3899 4.94544 9.2949 5.08545 9.2949H6.91045C7.05045 9.2949 7.17045 9.3899 7.20545 9.5299L7.36045 10.2249C7.46045 10.6499 7.13545 10.9999 6.64545 10.9999Z" fill="currentColor"/>
</svg>
