<svg width="12" height="12" viewBox="0 0 12 12" fill="none" xmlns="http://www.w3.org/2000/svg">
<path d="M3.25 1C2.72 1 2.23 1.185 1.845 1.495C1.325 1.905 1 2.54 1 3.25C1 3.67 1.12 4.07 1.325 4.41C1.595 4.86 2.02 5.21 2.53 5.38C2.755 5.46 2.995 5.5 3.25 5.5C3.82 5.5 4.335 5.29 4.73 4.94C4.905 4.79 5.055 4.61 5.175 4.41C5.28 4.235 5.36 4.05 5.415 3.85C5.47 3.66 5.5 3.455 5.5 3.25C5.5 2.005 4.495 1 3.25 1ZM4.08 3.625H3.635V4.09C3.635 4.295 3.465 4.465 3.26 4.465C3.055 4.465 2.885 4.3 2.885 4.09V3.625H2.4C2.195 3.625 2.025 3.455 2.025 3.25C2.025 3.045 2.195 2.875 2.4 2.875H2.885V2.41C2.885 2.205 3.055 2.035 3.26 2.035C3.465 2.035 3.635 2.2 3.635 2.41V2.875H4.08C4.285 2.875 4.455 3.045 4.455 3.25C4.455 3.455 4.29 3.625 4.08 3.625Z" fill="currentColor"/>
<path d="M8.00015 10.6451L3.32017 11.1951C2.99517 11.2351 2.70517 11.1851 2.46017 11.0651C2.20017 10.9351 1.99517 10.7351 1.86517 10.4701C1.74517 10.2251 1.70017 9.9401 1.73517 9.6201L2.16017 6.0451C2.20017 6.0601 2.24017 6.0751 2.28017 6.0851C2.58517 6.1951 2.91017 6.2501 3.25017 6.2501C3.98017 6.2501 4.68517 5.9851 5.22015 5.5101C5.45015 5.3101 5.65515 5.0701 5.82015 4.79508C5.96015 4.56008 6.06515 4.31008 6.13515 4.06508C6.17015 3.93508 6.20015 3.79508 6.22015 3.65508C6.22515 3.63008 6.22515 3.60508 6.22515 3.58008L6.31015 3.58508L9.35015 6.6301L9.48015 8.8401C9.60515 10.0801 9.17515 10.5101 8.00015 10.6451Z" fill="currentColor"/>
<path d="M11.0003 5.14095L9.9653 5.79595C9.7703 5.91595 9.5203 5.89095 9.3603 5.72595L7.1453 3.51093C6.9853 3.35093 6.9553 3.10093 7.0753 2.90593L7.7303 1.87093C8.1303 1.24093 8.9303 1.21093 9.5253 1.79593L11.0803 3.35093C11.6253 3.90593 11.5903 4.76593 11.0003 5.14095Z" fill="currentColor"/>
</svg>
