<svg width="12" height="12" viewBox="0 0 12 12" fill="none" xmlns="http://www.w3.org/2000/svg">
<path d="M10.4898 5.35C10.3798 3.4 8.93475 1.775 7.00475 1.445C6.97475 1.06 6.65475 0.75 6.25975 0.75H5.75975C5.36475 0.75 5.04975 1.055 5.01475 1.44C3.07477 1.76 1.61977 3.39 1.50977 5.35C1.15477 5.41 0.884766 5.715 0.884766 6.085V6.585C0.884766 7 1.21977 7.335 1.63477 7.335H2.13477C2.54977 7.335 2.88477 7 2.88477 6.585V6.085C2.88477 5.715 2.61477 5.41 2.25977 5.35C2.36477 3.79 3.50977 2.495 5.03975 2.195C5.12475 2.515 5.41475 2.75 5.75975 2.75H6.25975C6.60475 2.75 6.88975 2.515 6.97975 2.2C8.49975 2.505 9.63475 3.8 9.73975 5.35C9.38475 5.41 9.11475 5.715 9.11475 6.085V6.585C9.11475 7 9.44975 7.335 9.86475 7.335H10.3648C10.7798 7.335 11.1148 7 11.1148 6.585V6.085C11.1148 5.715 10.8448 5.405 10.4898 5.35Z" fill="currentColor"/>
<path d="M7.88515 8.2746L7.06515 8.9996H4.94016L4.12016 8.2746C3.64516 7.8846 3.64516 7.5846 4.00516 7.1246L5.45015 5.2946C5.55015 5.1696 5.66515 5.0846 5.79515 5.0396C5.93015 4.99461 6.07515 4.99461 6.21515 5.0396C6.34015 5.0846 6.45515 5.1696 6.56015 5.2946L8.00015 7.1196C8.36515 7.5796 8.34515 7.8646 7.88515 8.2746Z" fill="currentColor"/>
<path d="M6.6601 10.9999H5.3651C4.90509 10.9999 4.56009 10.6249 4.65009 10.2249L4.80509 9.5299C4.83509 9.3899 4.96009 9.2949 5.1001 9.2949H6.9251C7.0651 9.2949 7.1851 9.3899 7.2201 9.5299L7.3751 10.2249C7.4701 10.6499 7.1501 10.9999 6.6601 10.9999Z" fill="currentColor"/>
</svg>
