<svg width="12" height="12" viewBox="0 0 12 12" fill="none" xmlns="http://www.w3.org/2000/svg">
<path d="M8.00015 10.6451L3.32017 11.1951C2.99517 11.2351 2.70517 11.1851 2.46017 11.0651C2.20017 10.9351 1.99517 10.7351 1.86517 10.4701C1.74517 10.2251 1.70017 9.9401 1.73517 9.6201L2.16017 6.0451C2.20017 6.0601 2.24017 6.0751 2.28017 6.0851C2.58517 6.1951 2.91017 6.2501 3.25017 6.2501C3.98017 6.2501 4.68517 5.9851 5.22015 5.5101C5.45015 5.3101 5.65515 5.0701 5.82015 4.79508C5.96015 4.56008 6.06515 4.31008 6.13515 4.06508C6.17015 3.93508 6.20015 3.79508 6.22015 3.65508C6.22515 3.63008 6.22515 3.60508 6.22515 3.58008L6.31015 3.58508L9.35015 6.6301L9.48015 8.8401C9.60515 10.0801 9.17515 10.5101 8.00015 10.6451Z" fill="currentColor"/>
<path d="M3.25 1C2.72 1 2.23 1.185 1.845 1.495C1.325 1.905 1 2.54 1 3.25C1 3.67 1.12 4.07 1.325 4.41C1.545 4.775 1.865 5.075 2.255 5.265C2.34 5.31 2.435 5.35 2.53 5.38C2.755 5.46 2.995 5.5 3.25 5.5C3.82 5.5 4.335 5.29 4.73 4.94C4.905 4.79 5.055 4.61 5.175 4.41C5.28 4.235 5.36 4.05 5.415 3.85C5.445 3.75 5.465 3.645 5.48 3.535C5.495 3.44 5.5 3.345 5.5 3.25C5.5 2.005 4.495 1 3.25 1ZM4.115 4.105C4.045 4.175 3.945 4.215 3.85 4.215C3.755 4.215 3.66 4.175 3.585 4.105L3.255 3.775L2.915 4.115C2.84 4.19 2.745 4.225 2.65 4.225C2.555 4.225 2.455 4.19 2.385 4.115C2.24 3.97 2.24 3.73 2.385 3.585L2.73 3.24L2.395 2.915C2.25 2.77 2.25 2.53 2.395 2.385C2.54 2.24 2.78 2.24 2.925 2.385L3.255 2.715L3.57 2.4C3.715 2.255 3.955 2.255 4.1 2.4C4.245 2.545 4.245 2.785 4.1 2.93L3.785 3.245L4.115 3.575C4.265 3.72 4.265 3.955 4.115 4.105Z" fill="currentColor"/>
<path d="M11.0003 5.14095L9.9653 5.79595C9.7703 5.91595 9.5203 5.89095 9.3603 5.72595L7.1453 3.51093C6.9853 3.35093 6.9553 3.10093 7.0753 2.90593L7.7303 1.87093C8.1303 1.24093 8.9303 1.21093 9.5253 1.79593L11.0803 3.35093C11.6253 3.90593 11.5903 4.76593 11.0003 5.14095Z" fill="currentColor"/>
</svg>
