<svg width="12" height="12" viewBox="0 0 12 12" fill="none" xmlns="http://www.w3.org/2000/svg">
<path d="M8.76455 3.885C8.72955 3.88 8.69455 3.88 8.65955 3.885C7.88455 3.86 7.26955 3.225 7.26955 2.445C7.26955 1.65 7.91455 1 8.71455 1C9.50955 1 10.1596 1.645 10.1596 2.445C10.1546 3.225 9.53955 3.86 8.76455 3.885Z" fill="currentColor"/>
<path d="M10.3958 7.3502C9.8358 7.7252 9.0508 7.8652 8.3258 7.7702C8.5158 7.3602 8.6158 6.9052 8.6208 6.4252C8.6208 5.9252 8.5108 5.4502 8.3008 5.0352C9.0408 4.9352 9.8258 5.0752 10.3908 5.4502C11.1808 5.9702 11.1808 6.8252 10.3958 7.3502Z" fill="currentColor"/>
<path d="M3.22008 3.885C3.25508 3.88 3.29008 3.88 3.32508 3.885C4.10008 3.86 4.71508 3.225 4.71508 2.445C4.71508 1.645 4.07008 1 3.27008 1C2.47508 1 1.83008 1.645 1.83008 2.445C1.83008 3.225 2.44508 3.86 3.22008 3.885Z" fill="currentColor"/>
<path d="M3.27555 6.4253C3.27555 6.9103 3.38055 7.3703 3.57055 7.7853C2.86555 7.8603 2.13055 7.7103 1.59055 7.3553C0.800547 6.8303 0.800547 5.9753 1.59055 5.4503C2.12555 5.0903 2.88055 4.9453 3.59055 5.0253C3.38555 5.4453 3.27555 5.9203 3.27555 6.4253Z" fill="currentColor"/>
<path d="M6.0604 7.935C6.0204 7.93 5.9754 7.93 5.9304 7.935C5.0104 7.905 4.27539 7.15 4.27539 6.22C4.28039 5.27 5.0454 4.5 6.0004 4.5C6.9504 4.5 7.7204 5.27 7.7204 6.22C7.7154 7.15 6.9854 7.905 6.0604 7.935Z" fill="currentColor"/>
<path d="M4.43539 8.9703C3.68039 9.4753 3.68039 10.3053 4.43539 10.8053C5.2954 11.3803 6.7054 11.3803 7.5654 10.8053C8.3204 10.3003 8.3204 9.4703 7.5654 8.9703C6.7104 8.3953 5.3004 8.3953 4.43539 8.9703Z" fill="currentColor"/>
</svg>
