<svg width="12" height="12" viewBox="0 0 12 12" fill="none" xmlns="http://www.w3.org/2000/svg">
<path d="M8.095 1H3.905C2.085 1 1 2.085 1 3.905V8.09C1 9.915 2.085 11 3.905 11H8.09C9.91 11 10.995 9.915 10.995 8.095V3.905C11 2.085 9.915 1 8.095 1ZM3.875 4.57C3.875 4.165 4.205 3.83 4.615 3.83C5.02 3.83 5.355 4.16 5.355 4.57C5.355 4.975 5.025 5.31 4.615 5.31C4.205 5.305 3.875 4.975 3.875 4.57ZM4.41 8.01C4.315 8.01 4.22 7.975 4.145 7.9C4 7.755 4 7.52 4.145 7.37L7.42 4.095C7.565 3.95 7.805 3.95 7.95 4.095C8.095 4.24 8.095 4.48 7.95 4.625L4.675 7.9C4.6 7.975 4.505 8.01 4.41 8.01ZM7.885 8.17C7.48 8.17 7.145 7.84 7.145 7.43C7.145 7.025 7.475 6.69 7.885 6.69C8.29 6.69 8.625 7.02 8.625 7.43C8.625 7.84 8.295 8.17 7.885 8.17Z" fill="currentColor"/>
</svg>
