<svg width="12" height="12" viewBox="0 0 12 12" fill="none" xmlns="http://www.w3.org/2000/svg">
<path d="M6 1C3.24 1 1 3.24 1 6C1 8.76 3.24 11 6 11C8.76 11 11 8.76 11 6C11 3.24 8.76 1 6 1ZM4.365 3.83C4.77 3.83 5.105 4.16 5.105 4.57C5.105 4.975 4.775 5.31 4.365 5.31C3.96 5.31 3.625 4.98 3.625 4.57C3.625 4.16 3.955 3.83 4.365 3.83ZM4.425 7.9C4.35 7.975 4.255 8.01 4.16 8.01C4.065 8.01 3.97 7.975 3.895 7.9C3.75 7.755 3.75 7.515 3.895 7.37L7.17 4.095C7.315 3.95 7.555 3.95 7.7 4.095C7.845 4.24 7.845 4.48 7.7 4.625L4.425 7.9ZM7.635 8.17C7.23 8.17 6.895 7.84 6.895 7.43C6.895 7.025 7.225 6.69 7.635 6.69C8.04 6.69 8.375 7.02 8.375 7.43C8.375 7.84 8.045 8.17 7.635 8.17Z" fill="currentColor"/>
</svg>
