<svg width="12" height="12" viewBox="0 0 12 12" fill="none" xmlns="http://www.w3.org/2000/svg">
<path d="M9 1.5H3C1.895 1.5 1 2.39 1 3.485V8.515C1 9.61 1.895 10.5 3 10.5H9C10.105 10.5 11 9.61 11 8.515V3.485C11 2.39 10.105 1.5 9 1.5ZM4.25 3.585C4.885 3.585 5.405 4.105 5.405 4.74C5.405 5.375 4.885 5.895 4.25 5.895C3.615 5.895 3.095 5.375 3.095 4.74C3.095 4.105 3.615 3.585 4.25 3.585ZM6.185 8.33C6.14 8.38 6.07 8.41 6 8.41H2.5C2.43 8.41 2.36 8.38 2.315 8.33C2.27 8.28 2.245 8.21 2.25 8.14C2.335 7.3 3.005 6.635 3.845 6.555C4.11 6.53 4.385 6.53 4.65 6.555C5.49 6.635 6.165 7.3 6.245 8.14C6.255 8.21 6.23 8.28 6.185 8.33ZM9.5 8.375H8.5C8.295 8.375 8.125 8.205 8.125 8C8.125 7.795 8.295 7.625 8.5 7.625H9.5C9.705 7.625 9.875 7.795 9.875 8C9.875 8.205 9.705 8.375 9.5 8.375ZM9.5 6.375H7.5C7.295 6.375 7.125 6.205 7.125 6C7.125 5.795 7.295 5.625 7.5 5.625H9.5C9.705 5.625 9.875 5.795 9.875 6C9.875 6.205 9.705 6.375 9.5 6.375ZM9.5 4.375H7C6.795 4.375 6.625 4.205 6.625 4C6.625 3.795 6.795 3.625 7 3.625H9.5C9.705 3.625 9.875 3.795 9.875 4C9.875 4.205 9.705 4.375 9.5 4.375Z" fill="currentColor"/>
</svg>
