<svg width="12" height="12" viewBox="0 0 12 12" fill="none" xmlns="http://www.w3.org/2000/svg">
<path d="M9.54015 7.86015C9.24515 6.09515 7.55015 4.66015 5.76015 4.66015C3.81514 4.66015 2.10514 6.23515 1.94014 8.17515C1.87514 8.92515 2.11514 9.63515 2.61014 10.1701C3.10014 10.7051 3.79014 11.0001 4.54014 11.0001H6.88015C7.72515 11.0001 8.46515 10.6701 8.97015 10.0751C9.47515 9.48015 9.67515 8.69015 9.54015 7.86015Z" fill="currentColor"/>
<path d="M5.1398 3.93C5.9489 3.93 6.6048 3.2741 6.6048 2.465C6.6048 1.6559 5.9489 1 5.1398 1C4.33071 1 3.6748 1.6559 3.6748 2.465C3.6748 3.2741 4.33071 3.93 5.1398 3.93Z" fill="currentColor"/>
<path d="M8.47 4.51422C9.1438 4.51422 9.69 3.968 9.69 3.29422C9.69 2.62043 9.1438 2.07422 8.47 2.07422C7.7962 2.07422 7.25 2.62043 7.25 3.29422C7.25 3.968 7.7962 4.51422 8.47 4.51422Z" fill="currentColor"/>
<path d="M10.2748 6.46565C10.8133 6.46565 11.2498 6.0291 11.2498 5.4906C11.2498 4.95215 10.8133 4.51562 10.2748 4.51562C9.73635 4.51562 9.2998 4.95215 9.2998 5.4906C9.2998 6.0291 9.73635 6.46565 10.2748 6.46565Z" fill="currentColor"/>
<path d="M1.97 5.4908C2.64378 5.4908 3.19 4.94457 3.19 4.27078C3.19 3.597 2.64378 3.05078 1.97 3.05078C1.29622 3.05078 0.75 3.597 0.75 4.27078C0.75 4.94457 1.29622 5.4908 1.97 5.4908Z" fill="currentColor"/>
</svg>
