<svg width="12" height="12" viewBox="0 0 12 12" fill="none" xmlns="http://www.w3.org/2000/svg">
<path d="M5.255 5.61L4.155 1.195C4.13 1.08 4.025 1 3.905 1C2.3 1 1 2.3 1 3.905V6.755C1 6.925 1.165 7.05 1.33 7L5.08 5.915C5.21 5.88 5.29 5.745 5.255 5.61Z" fill="currentColor"/>
<path d="M5.56 6.83945C5.525 6.69945 5.38 6.61445 5.24 6.65445L1.185 7.83445C1.075 7.86945 1 7.96945 1 8.08445V8.09445C1 9.69945 2.3 10.9994 3.905 10.9994H6.265C6.43 10.9994 6.555 10.8444 6.515 10.6795L5.56 6.83945Z" fill="currentColor"/>
<path d="M8.0954 1H5.2204C5.0554 1 4.93041 1.155 4.97041 1.32L7.3404 10.805C7.3704 10.92 7.4704 11 7.5904 11H8.0904C9.7004 11 11.0004 9.7 11.0004 8.095V3.905C11.0004 2.3 9.7004 1 8.0954 1Z" fill="currentColor"/>
</svg>
