<svg width="12" height="12" viewBox="0 0 12 12" fill="none" xmlns="http://www.w3.org/2000/svg">
<path d="M10.64 7.86C10.315 7.635 9.92 7.5 9.5 7.5C9.03 7.5 8.595 7.665 8.25 7.94C7.79 8.305 7.5 8.87 7.5 9.5C7.5 9.875 7.605 10.23 7.79 10.53C7.81 10.565 7.835 10.6 7.865 10.635C8.215 11.155 8.815 11.5 9.5 11.5C10.005 11.5 10.465 11.315 10.815 11C10.97 10.87 11.105 10.71 11.21 10.53C11.395 10.23 11.5 9.875 11.5 9.5C11.5 8.82 11.16 8.22 10.64 7.86ZM10.3 10.29C10.225 10.365 10.13 10.4 10.035 10.4C9.94 10.4 9.845 10.365 9.77 10.29L9.505 10.025L9.23 10.3C9.155 10.375 9.06 10.41 8.965 10.41C8.87 10.41 8.775 10.375 8.7 10.3C8.555 10.155 8.555 9.915 8.7 9.77L8.975 9.495L8.71 9.23C8.565 9.085 8.565 8.845 8.71 8.7C8.855 8.555 9.095 8.555 9.24 8.7L9.505 8.965L9.755 8.715C9.9 8.57 10.14 8.57 10.285 8.715C10.43 8.86 10.43 9.1 10.285 9.245L10.035 9.495L10.3 9.76C10.445 9.905 10.445 10.14 10.3 10.29Z" fill="currentColor"/>
<path d="M10.9253 5.1253C10.5353 2.90032 8.62035 1.17532 6.36535 1.01532C3.31535 0.795324 0.795348 3.32032 1.01535 6.3653C1.17535 8.6203 2.90035 10.5303 5.12535 10.9203C5.70035 11.0203 6.26035 11.0203 6.79535 10.9303C6.95035 10.9053 7.04035 10.7353 6.98035 10.5953C6.83035 10.2553 6.75035 9.8803 6.75035 9.4953C6.75035 8.6503 7.12535 7.8703 7.78535 7.3503C8.27035 6.9603 8.88035 6.7453 9.50035 6.7453C9.89035 6.7453 10.2603 6.8253 10.5953 6.9753C10.7403 7.0403 10.9053 6.9453 10.9353 6.7903C11.0253 6.2603 11.0253 5.7003 10.9253 5.1253ZM7.25035 6.7853L6.05035 7.4753C5.30535 7.9053 4.69535 7.5553 4.69535 6.6903V5.3053C4.69535 4.44532 5.30535 4.09032 6.05035 4.52032L7.25035 5.2103C7.99535 5.6503 7.99535 6.3503 7.25035 6.7853Z" fill="currentColor"/>
</svg>
