<svg width="12" height="12" viewBox="0 0 12 12" fill="none" xmlns="http://www.w3.org/2000/svg">
<g clip-path="url(#clip0_1652_2869)">
<path d="M9.53585 9.91055C9.44085 9.91055 9.34585 9.87555 9.27085 9.80055C9.12585 9.65555 9.12585 9.41555 9.27085 9.27055C11.0759 7.46555 11.0759 4.53055 9.27085 2.73055C9.12585 2.58555 9.12585 2.34555 9.27085 2.20055C9.41585 2.05555 9.65585 2.05555 9.80085 2.20055C11.8959 4.29555 11.8959 7.70555 9.80085 9.80055C9.72585 9.87555 9.63085 9.91055 9.53585 9.91055Z" fill="currentColor"/>
<path d="M2.46516 9.91055C2.37016 9.91055 2.27516 9.87555 2.20016 9.80055C0.105156 7.70555 0.105156 4.29555 2.20016 2.20055C2.34516 2.05555 2.58516 2.05555 2.73016 2.20055C2.87516 2.34555 2.87516 2.58555 2.73016 2.73055C0.925156 4.53555 0.925156 7.47055 2.73016 9.27055C2.87516 9.41555 2.87516 9.65555 2.73016 9.80055C2.65516 9.87555 2.56016 9.91055 2.46516 9.91055Z" fill="currentColor"/>
<path d="M5.9994 11.356C5.3744 11.351 4.77939 11.251 4.22439 11.056C4.02939 10.986 3.92439 10.771 3.99439 10.576C4.06439 10.381 4.27439 10.276 4.47439 10.346C4.95439 10.511 5.4644 10.601 6.0044 10.601C6.5394 10.601 7.0544 10.511 7.5294 10.346C7.7244 10.281 7.9394 10.381 8.0094 10.576C8.0794 10.771 7.9744 10.986 7.7794 11.056C7.2194 11.251 6.6244 11.356 5.9994 11.356Z" fill="currentColor"/>
<path d="M7.6494 1.66953C7.6094 1.66953 7.5644 1.66453 7.5244 1.64953C7.0494 1.47953 6.5344 1.39453 5.9994 1.39453C5.4644 1.39453 4.95439 1.48453 4.47439 1.64953C4.27439 1.71453 4.06439 1.61453 3.99439 1.41953C3.92439 1.22453 4.02939 1.00953 4.22439 0.939531C4.78439 0.744531 5.3794 0.644531 5.9994 0.644531C6.6194 0.644531 7.2194 0.744531 7.7744 0.939531C7.9694 1.00953 8.0744 1.22453 8.0044 1.41953C7.9494 1.57453 7.8044 1.66953 7.6494 1.66953Z" fill="currentColor"/>
<path d="M4.36914 5.16505C4.36914 4.12507 5.10415 3.70007 6.00415 4.22007L7.45415 5.06005C8.35415 5.58005 8.35415 6.43005 7.45415 6.95005L6.00415 7.79005C5.10415 8.31005 4.36914 7.88505 4.36914 6.84505V5.16505Z" fill="currentColor"/>
</g>
<defs>
<clipPath id="clip0_1652_2869">
<rect width="12" height="12" fill="currentColor"/>
</clipPath>
</defs>
</svg>
