<svg width="12" height="12" viewBox="0 0 12 12" fill="none" xmlns="http://www.w3.org/2000/svg">
<path d="M5.9844 1C3.22437 1 0.984375 3.24 0.984375 6C0.984375 8.76 3.22437 11 5.9844 11C8.7444 11 10.9844 8.76 10.9844 6C10.9844 3.24 8.7494 1 5.9844 1ZM7.4844 7.115L6.03435 7.95C5.85435 8.055 5.6544 8.105 5.45935 8.105C5.2594 8.105 5.06435 8.055 4.88438 7.95C4.52437 7.74 4.30937 7.37 4.30937 6.95V5.275C4.30937 4.86 4.52437 4.485 4.88438 4.275C5.2444 4.065 5.67435 4.065 6.03935 4.275L7.48935 5.11C7.84935 5.32 8.06435 5.69 8.06435 6.11C8.06435 6.53 7.84935 6.905 7.4844 7.115Z" fill="currentColor"/>
</svg>
