<svg width="12" height="12" viewBox="0 0 12 12" fill="none" xmlns="http://www.w3.org/2000/svg">
<g clip-path="url(#clip0_1652_2867)">
<path d="M11 1.375H1C0.795 1.375 0.625 1.205 0.625 1C0.625 0.795 0.795 0.625 1 0.625H11C11.205 0.625 11.375 0.795 11.375 1C11.375 1.205 11.205 1.375 11 1.375Z" fill="currentColor"/>
<path d="M8.33515 11.17C8.27015 11.3 8.13515 11.375 8.00015 11.375C7.94515 11.375 7.88515 11.36 7.83515 11.335L6.00015 10.42L4.16513 11.335C4.11513 11.36 4.05513 11.375 4.00013 11.375C3.86513 11.375 3.73013 11.3 3.66513 11.17C3.57013 10.98 3.64513 10.755 3.83513 10.665L5.62515 9.77V8.5H6.37515V9.77L8.16515 10.665C8.35515 10.755 8.43015 10.98 8.33515 11.17Z" fill="currentColor"/>
<path d="M1.5 1V7.05C1.5 8 2 8.5 2.95 8.5H9.05C10 8.5 10.5 8 10.5 7.05V1H1.5ZM8.49 4.29L6.915 5.605C6.77 5.725 6.585 5.775 6.41 5.745C6.23 5.715 6.075 5.605 5.98 5.445L5.455 4.57L3.99 5.79C3.92 5.85 3.835 5.875 3.75 5.875C3.645 5.875 3.535 5.83 3.46 5.74C3.325 5.58 3.35 5.345 3.51 5.21L5.085 3.895C5.23 3.775 5.415 3.725 5.59 3.755C5.77 3.785 5.925 3.895 6.02 4.055L6.545 4.93L8.01 3.71C8.17 3.575 8.405 3.6 8.54 3.76C8.67 3.92 8.65 4.155 8.49 4.29Z" fill="currentColor"/>
</g>
<defs>
<clipPath id="clip0_1652_2867">
<rect width="12" height="12" fill="currentColor"/>
</clipPath>
</defs>
</svg>
