<svg width="12" height="12" viewBox="0 0 12 12" fill="none" xmlns="http://www.w3.org/2000/svg">
<g clip-path="url(#clip0_1652_2863)">
<path d="M3 3.5C2 3.5 1.5 4 1.5 5V7.5C1.5 8.5 2 9 3 9L4 8V7.5H4.5L8.5 3.5H3ZM3.5 5.875C3.295 5.875 3.125 5.705 3.125 5.5C3.125 5.295 3.295 5.125 3.5 5.125H4.5C4.705 5.125 4.875 5.295 4.875 5.5C4.875 5.705 4.705 5.875 4.5 5.875H3.5Z" fill="currentColor"/>
<path d="M4.5 7.5L4 8V7.5H4.5Z" fill="currentColor"/>
<path d="M8.5 2.5V3.5H3.5V2.5C3.5 1.67 4.17 0.999998 5 0.999998H7C7.83 0.999998 8.5 1.67 8.5 2.5Z" fill="currentColor"/>
<path d="M11.2648 0.735703C11.1198 0.590703 10.8798 0.590703 10.7348 0.735703L0.734727 10.7357C0.589727 10.8807 0.589727 11.1207 0.734727 11.2657C0.809727 11.3407 0.904727 11.3757 0.999727 11.3757C1.09473 11.3757 1.18973 11.3407 1.26473 11.2657L11.2648 1.2657C11.4098 1.1207 11.4098 0.880703 11.2648 0.735703Z" fill="currentColor"/>
<path d="M8.50005 7.125H6.4786C6.4123 7.125 6.3487 7.15135 6.30185 7.1982L4.40006 9.1C4.08006 9.42 4.01506 10 4.27506 10.37C4.54506 10.75 4.99506 11 5.50005 11H6.50005C7.33005 11 8.00005 10.33 8.00005 9.5V7.875H8.50005C8.70505 7.875 8.87505 7.705 8.87505 7.5C8.87505 7.295 8.70505 7.125 8.50005 7.125Z" fill="currentColor"/>
<path d="M9.51 3.98957L7.73 5.76955C7.415 6.08455 7.64 6.62455 8.085 6.62455H8.455C8.89 6.62455 9.295 6.91955 9.365 7.34955C9.4406 7.80725 9.1565 8.2191 8.7467 8.3393C8.6142 8.3782 8.5 8.4865 8.5 8.62455V8.74955C8.5 8.88765 8.61195 8.99955 8.75 8.99955H9C9.83 8.99955 10.5 8.32955 10.5 7.49955V4.99957C10.5 4.60457 10.42 4.28457 10.265 4.04457C10.095 3.78957 9.725 3.77457 9.51 3.98957Z" fill="currentColor"/>
</g>
<defs>
<clipPath id="clip0_1652_2863">
<rect width="12" height="12" fill="currentColor"/>
</clipPath>
</defs>
</svg>
