<svg width="12" height="12" viewBox="0 0 12 12" fill="none" xmlns="http://www.w3.org/2000/svg">
<path d="M3.5 2.5C3.5 1.67 4.17 1 5 1H7C7.83 1 8.5 1.67 8.5 2.5C8.5 2.775 8.275 3 8 3H4C3.725 3 3.5 2.775 3.5 2.5Z" fill="currentColor"/>
<path d="M8.875 7.5C8.875 7.705 8.705 7.875 8.5 7.875H8V9.5C8 10.33 7.33 11 6.5 11H5.5C4.67 11 4 10.33 4 9.5V7.875H3.5C3.295 7.875 3.125 7.705 3.125 7.5C3.125 7.295 3.295 7.125 3.5 7.125H8.5C8.705 7.125 8.875 7.295 8.875 7.5Z" fill="currentColor"/>
<path d="M9 3.5H3C2 3.5 1.5 4 1.5 5V7.5C1.5 8.5 2 9 3 9H3.1875C3.36009 9 3.5 8.8601 3.5 8.6875C3.5 8.5149 3.35566 8.3802 3.19421 8.3192C2.8631 8.1941 2.625 7.87265 2.625 7.5C2.625 7.02 3.02 6.625 3.5 6.625H8.5C8.98 6.625 9.375 7.02 9.375 7.5C9.375 7.87265 9.1369 8.1941 8.8058 8.3192C8.64435 8.3802 8.5 8.5149 8.5 8.6875C8.5 8.8601 8.6399 9 8.8125 9H9C10 9 10.5 8.5 10.5 7.5V5C10.5 4 10 3.5 9 3.5ZM5 5.875H3.5C3.295 5.875 3.125 5.705 3.125 5.5C3.125 5.295 3.295 5.125 3.5 5.125H5C5.205 5.125 5.375 5.295 5.375 5.5C5.375 5.705 5.205 5.875 5 5.875Z" fill="currentColor"/>
</svg>
