<svg width="12" height="12" viewBox="0 0 12 12" fill="none" xmlns="http://www.w3.org/2000/svg">
<g clip-path="url(#clip0_1652_3691)">
<path d="M6 0.625C3.035 0.625 0.625 3.035 0.625 6C0.625 7.56 1.3 8.965 2.365 9.945C2.4 9.975 2.43 10.005 2.465 10.035C2.665 10.21 2.875 10.37 3.095 10.51C3.13 10.535 3.165 10.555 3.205 10.575C3.595 10.815 4.02 11.01 4.47 11.14C4.48 11.145 4.485 11.145 4.495 11.145C4.65 11.19 4.805 11.23 4.965 11.26C5.02 11.27 5.07 11.275 5.125 11.285C5.41 11.33 5.7 11.365 6 11.365C6.18 11.365 6.355 11.355 6.525 11.34C6.59 11.335 6.655 11.32 6.72 11.315C6.825 11.3 6.935 11.285 7.04 11.265C7.115 11.25 7.185 11.23 7.26 11.215C7.355 11.195 7.445 11.17 7.54 11.145C7.785 11.075 8.015 10.98 8.245 10.875C8.325 10.84 8.405 10.8 8.48 10.76C8.555 10.72 8.625 10.68 8.7 10.64C8.775 10.595 8.845 10.555 8.92 10.51C9.005 10.455 9.09 10.395 9.175 10.335C9.225 10.295 9.28 10.26 9.33 10.22C9.4 10.165 9.47 10.11 9.535 10.05C9.565 10.025 9.595 9.995 9.625 9.97C10.705 8.985 11.385 7.575 11.385 6.005C11.375 3.035 8.965 0.625 6 0.625ZM6.005 2.74C7.115 2.74 8.02 3.645 8.02 4.755C8.015 5.85 7.16 6.73 6.075 6.765C6.065 6.765 6.065 6.765 6.06 6.765C6.05 6.765 6.035 6.765 6.025 6.765C6.01 6.765 5.99 6.765 5.975 6.765C4.84 6.73 3.99 5.845 3.99 4.755C3.99 3.645 4.895 2.74 6.005 2.74ZM6 10.625C4.585 10.625 3.315 9.985 2.47 8.98C2.65 8.645 2.93 8.34 3.305 8.09C4.795 7.1 7.21 7.1 8.695 8.09C9.07 8.345 9.35 8.645 9.53 8.98C8.685 9.985 7.415 10.625 6 10.625Z" fill="currentColor"/>
<path d="M2.685 10.225C2.61 10.165 2.535 10.105 2.465 10.04C2.54 10.105 2.61 10.165 2.685 10.225Z" fill="currentColor"/>
<path d="M3.99 10.98C3.91 10.95 3.83 10.91 3.755 10.875C3.83 10.915 3.91 10.95 3.99 10.98Z" fill="currentColor"/>
<path d="M4.965 11.275C4.885 11.26 4.81 11.24 4.735 11.22C4.81 11.235 4.885 11.26 4.965 11.275Z" fill="currentColor"/>
<path d="M8.695 10.645C8.625 10.685 8.55 10.73 8.475 10.765C8.55 10.73 8.62 10.685 8.695 10.645Z" fill="currentColor"/>
<path d="M9.525 10.05C9.46 10.11 9.39 10.165 9.32 10.22C9.39 10.165 9.46 10.105 9.525 10.05Z" fill="currentColor"/>
<path d="M5.475 11.35C5.41 11.345 5.345 11.33 5.28 11.325C5.345 11.33 5.41 11.34 5.475 11.35Z" fill="currentColor"/>
<path d="M6.71 11.325C6.65 11.335 6.59 11.345 6.525 11.35C6.59 11.34 6.65 11.33 6.71 11.325Z" fill="currentColor"/>
<path d="M4.47 11.15C4.39 11.125 4.31 11.1 4.23 11.07C4.31 11.095 4.39 11.125 4.47 11.15Z" fill="currentColor"/>
<path d="M7.255 11.22C7.18 11.24 7.11 11.255 7.035 11.27C7.11 11.26 7.185 11.24 7.255 11.22Z" fill="currentColor"/>
<path d="M7.76 11.075C7.685 11.1 7.61 11.13 7.535 11.15C7.61 11.125 7.685 11.1 7.76 11.075Z" fill="currentColor"/>
<path d="M3.095 10.515C3.015 10.465 2.94 10.41 2.865 10.36C2.94 10.415 3.02 10.465 3.095 10.515Z" fill="currentColor"/>
</g>
<defs>
<clipPath id="clip0_1652_3691">
<rect width="12" height="12" fill="currentColor"/>
</clipPath>
</defs>
</svg>
