<svg width="12" height="12" viewBox="0 0 12 12" fill="none" xmlns="http://www.w3.org/2000/svg">
<path d="M4.5 1C3.19 1 2.125 2.065 2.125 3.375C2.125 4.66 3.13 5.7 4.44 5.745C4.48 5.74 4.52 5.74 4.55 5.745C4.56 5.745 4.565 5.745 4.575 5.745C4.58 5.745 4.58 5.745 4.585 5.745C5.865 5.7 6.87 4.66 6.875 3.375C6.875 2.065 5.81 1 4.5 1Z" fill="currentColor"/>
<path d="M7.04045 7.07445C5.64545 6.14445 3.37047 6.14445 1.96547 7.07445C1.33047 7.49945 0.980469 8.07445 0.980469 8.68945C0.980469 9.30445 1.33047 9.87445 1.96047 10.2944C2.66047 10.7645 3.58047 10.9994 4.50047 10.9994C5.42045 10.9994 6.34045 10.7645 7.04045 10.2944C7.67045 9.86945 8.02045 9.29945 8.02045 8.67945C8.01545 8.06445 7.67045 7.49445 7.04045 7.07445Z" fill="currentColor"/>
<path d="M9.9947 3.66908C10.0747 4.63908 9.3847 5.48905 8.4297 5.60405C8.4247 5.60405 8.4247 5.60405 8.4197 5.60405H8.4047C8.3747 5.60405 8.3447 5.60405 8.3197 5.61405C7.8347 5.63905 7.3897 5.48405 7.0547 5.19905C7.5697 4.73907 7.8647 4.04907 7.8047 3.29907C7.7697 2.89407 7.6297 2.52408 7.4197 2.20907C7.6097 2.11407 7.8297 2.05408 8.0547 2.03408C9.0347 1.94908 9.9097 2.67908 9.9947 3.66908Z" fill="currentColor"/>
<path d="M10.9941 8.2952C10.9541 8.7802 10.6441 9.2002 10.1241 9.4852C9.62415 9.7602 8.99415 9.8902 8.36915 9.8752C8.72915 9.5502 8.93915 9.1452 8.97915 8.7152C9.02915 8.0952 8.73415 7.5002 8.14415 7.0252C7.80915 6.7602 7.41915 6.5502 6.99415 6.3952C8.09915 6.0752 9.48915 6.2902 10.3441 6.9802C10.8041 7.3502 11.0391 7.8152 10.9941 8.2952Z" fill="currentColor"/>
</svg>
