<svg width="12" height="12" viewBox="0 0 12 12" fill="none" xmlns="http://www.w3.org/2000/svg">
<path d="M2.875 8.055V3.945C3.52 3.78 4 3.2 4 2.5C4 1.67 3.33 1 2.5 1C1.67 1 1 1.67 1 2.5C1 3.2 1.48 3.78 2.125 3.945V8.05C1.48 8.22 1 8.8 1 9.5C1 10.33 1.67 11 2.5 11C3.33 11 4 10.33 4 9.5C4 8.8 3.52 8.22 2.875 8.055Z" fill="currentColor"/>
<path d="M9.875 8.05535V3.25033C9.875 2.49033 9.26 1.87533 8.5 1.87533H7.035L7.74 1.29033C7.9 1.15533 7.92 0.920332 7.79 0.760332C7.655 0.600332 7.42 0.580332 7.26 0.710332L5.76 1.96033C5.675 2.03033 5.625 2.13533 5.625 2.25033C5.625 2.36533 5.675 2.46533 5.76 2.54033L7.26 3.79033C7.33 3.85033 7.415 3.87533 7.5 3.87533C7.605 3.87533 7.715 3.83033 7.79 3.74033C7.925 3.58033 7.9 3.34533 7.74 3.21033L7.035 2.62533H8.5C8.845 2.62533 9.125 2.90533 9.125 3.25033V8.05535C8.48 8.22035 8 8.80035 8 9.50035C8 10.3304 8.67 11.0004 9.5 11.0004C10.33 11.0004 11 10.3304 11 9.50035C11 8.80035 10.52 8.22035 9.875 8.05535Z" fill="currentColor"/>
</svg>
