<svg width="12" height="12" viewBox="0 0 12 12" fill="none" xmlns="http://www.w3.org/2000/svg">
<path d="M9.865 8.05035C9.865 8.03535 9.875 8.02035 9.875 8.00035V3.25033C9.875 2.49033 9.26 1.87533 8.5 1.87533H6.535L7.24 1.29033C7.4 1.15533 7.42 0.920332 7.29 0.760332C7.155 0.600332 6.92 0.580332 6.76 0.710332L5.26 1.96033C5.175 2.03033 5.125 2.13533 5.125 2.25033C5.125 2.36533 5.175 2.46533 5.26 2.54033L6.76 3.79033C6.83 3.85033 6.915 3.87533 7 3.87533C7.105 3.87533 7.215 3.83033 7.29 3.74033C7.425 3.58033 7.4 3.34533 7.24 3.21033L6.535 2.62533H8.5C8.845 2.62533 9.125 2.90533 9.125 3.25033V8.00035C9.125 8.02035 9.135 8.03535 9.135 8.05035C8.485 8.21535 8 8.80035 8 9.50035C8 10.3304 8.67 11.0004 9.5 11.0004C10.33 11.0004 11 10.3304 11 9.50035C11 8.80035 10.515 8.21535 9.865 8.05035Z" fill="currentColor"/>
<path d="M6.74 9.46L5.24 8.21C5.08 8.075 4.845 8.1 4.71 8.26C4.575 8.42 4.6 8.655 4.76 8.79L5.465 9.375H3.5C3.155 9.375 2.875 9.095 2.875 8.75V4C2.875 3.98 2.865 3.965 2.865 3.95C3.515 3.785 4 3.2 4 2.5C4 1.67 3.33 1 2.5 1C1.67 1 1 1.67 1 2.5C1 3.2 1.485 3.785 2.135 3.95C2.135 3.965 2.125 3.98 2.125 4V8.75C2.125 9.51 2.74 10.125 3.5 10.125H5.465L4.76 10.71C4.6 10.845 4.58 11.08 4.71 11.24C4.785 11.33 4.89 11.375 5 11.375C5.085 11.375 5.17 11.345 5.24 11.29L6.74 10.04C6.825 9.97 6.875 9.865 6.875 9.75C6.875 9.635 6.825 9.535 6.74 9.46Z" fill="currentColor"/>
</svg>
