<svg width="12" height="12" viewBox="0 0 12 12" fill="none" xmlns="http://www.w3.org/2000/svg">
<path d="M4.045 5.8157H1.7C1.74 3.48072 2.2 3.09572 3.635 2.24572C3.8 2.14572 3.855 1.93572 3.755 1.76572C3.66 1.60072 3.445 1.54572 3.28 1.64572C1.59 2.64572 1 3.25572 1 6.1607V8.8557C1 9.7107 1.695 10.4007 2.545 10.4007H4.045C4.925 10.4007 5.59 9.7357 5.59 8.8557V7.3557C5.59 6.4807 4.925 5.8157 4.045 5.8157Z" fill="currentColor"/>
<path d="M9.4543 5.8157H7.1093C7.1493 3.48072 7.6093 3.09572 9.0443 2.24572C9.2093 2.14572 9.2643 1.93572 9.1643 1.76572C9.0643 1.60072 8.8543 1.54572 8.6843 1.64572C6.9943 2.64572 6.4043 3.25572 6.4043 6.1657V8.8607C6.4043 9.7157 7.0993 10.4057 7.9493 10.4057H9.4493C10.3293 10.4057 10.9943 9.7407 10.9943 8.8607V7.3607C10.9993 6.4807 10.3343 5.8157 9.4543 5.8157Z" fill="currentColor"/>
</svg>
