<svg width="12" height="12" viewBox="0 0 12 12" fill="none" xmlns="http://www.w3.org/2000/svg">
<path d="M8.095 1H3.905C2.085 1 1 2.085 1 3.905V8.09C1 9.915 2.085 11 3.905 11H8.09C9.91 11 10.995 9.915 10.995 8.095V3.905C11 2.085 9.915 1 8.095 1ZM5.805 5.92C5.805 7.46 5.47 7.805 4.575 8.335C4.515 8.37 4.45 8.385 4.385 8.385C4.255 8.385 4.13 8.32 4.06 8.2C3.955 8.02 4.015 7.79 4.19 7.685C4.795 7.325 5.005 7.195 5.045 6.29H4.095C3.55 6.29 3.125 5.865 3.125 5.32V4.58C3.125 4.035 3.55 3.61 4.095 3.61H4.84C5.375 3.61 5.81 4.045 5.81 4.58V5.92H5.805ZM8.875 5.92C8.875 7.46 8.54 7.805 7.645 8.335C7.585 8.37 7.52 8.385 7.455 8.385C7.325 8.385 7.2 8.32 7.13 8.2C7.025 8.02 7.085 7.79 7.26 7.685C7.865 7.325 8.075 7.195 8.115 6.29H7.16C6.615 6.29 6.19 5.865 6.19 5.32V4.58C6.19 4.035 6.615 3.61 7.16 3.61H7.905C8.44 3.61 8.875 4.045 8.875 4.58V5.92Z" fill="currentColor"/>
</svg>
