<svg width="12" height="12" viewBox="0 0 12 12" fill="none" xmlns="http://www.w3.org/2000/svg">
<path d="M7.9541 6.1857H10.2991C10.2591 8.5207 9.7991 8.9057 8.3641 9.7557C8.1991 9.8557 8.1441 10.0657 8.2441 10.2357C8.3441 10.4007 8.5541 10.4557 8.7241 10.3557C10.4141 9.3557 11.0041 8.7457 11.0041 5.8357V3.1407C11.0041 2.2857 10.3091 1.5957 9.4591 1.5957H7.9591C7.0791 1.5957 6.4141 2.2607 6.4141 3.1407V4.6407C6.4091 5.5207 7.0741 6.1857 7.9541 6.1857Z" fill="currentColor"/>
<path d="M2.545 6.1857H4.89C4.85 8.5207 4.39 8.9057 2.955 9.7557C2.79 9.8557 2.735 10.0657 2.835 10.2357C2.935 10.4007 3.145 10.4557 3.315 10.3557C5.005 9.3557 5.595 8.7457 5.595 5.8357V3.1407C5.595 2.2857 4.9 1.5957 4.05 1.5957H2.55C1.665 1.5957 1 2.2607 1 3.1407V4.6407C1 5.5207 1.665 6.1857 2.545 6.1857Z" fill="currentColor"/>
</svg>
