<svg width="12" height="12" viewBox="0 0 12 12" fill="none" xmlns="http://www.w3.org/2000/svg">
<path d="M6 1C3.24 1 1 3.24 1 6C1 8.76 3.24 11 6 11C8.76 11 11 8.76 11 6C11 3.24 8.76 1 6 1ZM5.805 7.42C5.805 7.965 5.38 8.39 4.835 8.39H4.095C3.56 8.39 3.125 7.955 3.125 7.42V6.085C3.125 4.545 3.46 4.2 4.355 3.67C4.415 3.635 4.48 3.62 4.545 3.62C4.675 3.62 4.8 3.685 4.87 3.805C4.975 3.985 4.915 4.215 4.74 4.32C4.135 4.67 3.925 4.8 3.885 5.705H4.84C5.385 5.705 5.81 6.13 5.81 6.675V7.42H5.805ZM8.875 7.42C8.875 7.965 8.45 8.39 7.905 8.39H7.16C6.625 8.39 6.19 7.955 6.19 7.42V6.085C6.19 4.545 6.525 4.2 7.42 3.67C7.48 3.635 7.545 3.62 7.61 3.62C7.74 3.62 7.865 3.685 7.935 3.805C8.04 3.985 7.98 4.215 7.805 4.32C7.2 4.68 6.99 4.81 6.95 5.715H7.905C8.45 5.715 8.875 6.14 8.875 6.685V7.42Z" fill="currentColor"/>
</svg>
