<svg width="12" height="12" viewBox="0 0 12 12" fill="none" xmlns="http://www.w3.org/2000/svg">
<path d="M6.00055 7.19055C6.65775 7.19055 7.19055 6.65775 7.19055 6.00055C7.19055 5.34335 6.65775 4.81055 6.00055 4.81055C5.34335 4.81055 4.81054 5.34335 4.81054 6.00055C4.81054 6.65775 5.34335 7.19055 6.00055 7.19055Z" fill="currentColor"/>
<path d="M10.0001 9.37515C9.92015 9.37515 9.84515 9.35015 9.77515 9.30015C9.61015 9.17515 9.57515 8.94015 9.70015 8.77515C10.3051 7.97015 10.6251 7.01015 10.6251 6.00015C10.6251 4.99014 10.3051 4.03014 9.70015 3.22514C9.57515 3.06014 9.61015 2.82514 9.77515 2.70014C9.94015 2.57514 10.1751 2.61014 10.3001 2.77514C11.0051 3.71014 11.3751 4.82514 11.3751 6.00015C11.3751 7.17515 11.0051 8.29015 10.3001 9.22515C10.2252 9.32515 10.1151 9.37515 10.0001 9.37515Z" fill="currentColor"/>
<path d="M2 9.37515C1.885 9.37515 1.775 9.32515 1.7 9.22515C0.995 8.29015 0.625 7.17515 0.625 6.00015C0.625 4.82514 0.995 3.71014 1.7 2.77514C1.825 2.61014 2.06 2.57514 2.225 2.70014C2.39 2.82514 2.425 3.06014 2.3 3.22514C1.695 4.03014 1.375 4.99014 1.375 6.00015C1.375 7.01015 1.695 7.97015 2.3 8.77515C2.425 8.94015 2.39 9.17515 2.225 9.30015C2.16 9.35015 2.08 9.37515 2 9.37515Z" fill="currentColor"/>
<path d="M8.40055 8.17435C8.32055 8.17435 8.24555 8.14935 8.17555 8.09935C8.01055 7.97435 7.97555 7.73935 8.10055 7.57435C8.44555 7.11935 8.62555 6.57435 8.62555 5.99935C8.62555 5.42435 8.44555 4.87936 8.10055 4.42436C7.97555 4.25936 8.01055 4.02436 8.17555 3.89936C8.34055 3.77436 8.57555 3.80936 8.70055 3.97436C9.14055 4.56436 9.37555 5.26435 9.37555 5.99935C9.37555 6.73435 9.14055 7.43935 8.70055 8.02435C8.62555 8.12435 8.51555 8.17435 8.40055 8.17435Z" fill="currentColor"/>
<path d="M3.6 8.17435C3.485 8.17435 3.375 8.12435 3.3 8.02435C2.86 7.43935 2.625 6.73435 2.625 5.99935C2.625 5.26435 2.86 4.55936 3.3 3.97436C3.425 3.80936 3.66 3.77436 3.825 3.89936C3.99 4.02436 4.025 4.25936 3.9 4.42436C3.555 4.87936 3.375 5.42435 3.375 5.99935C3.375 6.57435 3.555 7.11935 3.9 7.57435C4.025 7.73935 3.99 7.97435 3.825 8.09935C3.76 8.14935 3.68 8.17435 3.6 8.17435Z" fill="currentColor"/>
</svg>
