<svg width="12" height="12" viewBox="0 0 12 12" fill="none" xmlns="http://www.w3.org/2000/svg">
<path d="M6 1C3.24 1 1 3.24 1 6C1 8.76 3.24 11 6 11C8.76 11 11 8.76 11 6C11 3.24 8.76 1 6 1ZM6 9.875C3.865 9.875 2.125 8.135 2.125 6C2.125 5.32 2.305 4.655 2.64 4.07C2.74 3.89 2.97 3.83 3.15 3.93L6.185 5.675C6.365 5.78 6.425 6.005 6.325 6.185C6.22 6.365 5.995 6.425 5.815 6.325L3.12 4.78C2.96 5.165 2.875 5.58 2.875 6C2.875 7.725 4.275 9.125 6 9.125C7.725 9.125 9.125 7.725 9.125 6C9.125 4.275 7.725 2.875 6 2.875C5.32 2.875 4.67 3.09 4.125 3.5C3.96 3.625 3.725 3.59 3.6 3.425C3.475 3.26 3.51 3.025 3.675 2.9C4.35 2.395 5.155 2.125 6 2.125C8.135 2.125 9.875 3.865 9.875 6C9.875 8.135 8.135 9.875 6 9.875Z" fill="currentColor"/>
</svg>
