<svg width="12" height="12" viewBox="0 0 12 12" fill="none" xmlns="http://www.w3.org/2000/svg">
<path d="M3.875 1V2.5H3.5C3.37 2.5 3.245 2.505 3.125 2.525V1C3.125 0.795 3.295 0.625 3.5 0.625C3.705 0.625 3.875 0.795 3.875 1Z" fill="currentColor"/>
<path d="M8.5 2.5H3.5C3.37 2.5 3.245 2.505 3.125 2.525C1.835 2.675 1 3.63 1 5V8.5C1 10 2 11 3.5 11H8.5C10 11 11 10 11 8.5V5C11 3.5 10 2.5 8.5 2.5ZM3.94 8C3.25 8 2.69 7.44 2.69 6.75C2.69 6.06 3.25 5.5 3.94 5.5C4.63 5.5 5.19 6.06 5.19 6.75C5.19 7.44 4.63 8 3.94 8ZM7.19 8.125H6.94C6.735 8.125 6.565 7.955 6.565 7.75C6.565 7.545 6.735 7.375 6.94 7.375H7.19C7.395 7.375 7.565 7.545 7.565 7.75C7.565 7.955 7.395 8.125 7.19 8.125ZM8.94 8.125H8.69C8.485 8.125 8.315 7.955 8.315 7.75C8.315 7.545 8.485 7.375 8.69 7.375H8.94C9.145 7.375 9.315 7.545 9.315 7.75C9.315 7.955 9.145 8.125 8.94 8.125ZM8.94 6.125H6.94C6.735 6.125 6.565 5.955 6.565 5.75C6.565 5.545 6.735 5.375 6.94 5.375H8.94C9.145 5.375 9.315 5.545 9.315 5.75C9.315 5.955 9.145 6.125 8.94 6.125Z" fill="currentColor"/>
</svg>
