<svg width="12" height="12" viewBox="0 0 12 12" fill="none" xmlns="http://www.w3.org/2000/svg">
<path d="M8.00515 10.485C8.00795 10.7631 7.7833 10.99 7.5052 10.99H4.49687C4.22203 10.99 3.99872 10.7682 3.99688 10.4934L3.99024 9.5C3.99024 8.95 4.43523 8.5 4.99023 8.5H6.99525C7.54525 8.5 7.99025 8.945 7.99525 9.495L8.00515 10.485Z" fill="currentColor"/>
<path d="M9.25 4.99969V6.0847C9.25 6.3497 9.355 6.6047 9.545 6.7947L9.955 7.2047C10.145 7.3947 10.25 7.6497 10.25 7.9147V8.4997C10.25 9.65025 9.79555 10.4965 8.80285 10.8328C8.65225 10.8838 8.50445 10.7649 8.5039 10.6059L8.5 9.4897C8.49 8.6697 7.815 7.9997 7 7.9997H4.995C4.165 7.9997 3.495 8.6747 3.495 9.4997V10.6117C3.495 10.7705 3.34814 10.8899 3.19745 10.84C2.193 10.5076 1.75 9.6562 1.75 8.4997V3.49969C1.75 2.29667 2.22589 1.41658 3.32261 1.11794C3.47289 1.07702 3.61295 1.1978 3.61071 1.35353L3.595 2.44969C3.59 2.68469 3.675 2.90969 3.835 3.07969C4 3.24969 4.215 3.34469 4.47 3.34969C4.72708 3.34969 4.95601 3.24331 5.11225 3.07016C5.16835 3.00797 5.2758 3.00547 5.335 3.06469C5.495 3.23469 5.715 3.33468 5.97 3.33968C6.22715 3.33968 6.46175 3.22666 6.6218 3.04472C6.6744 2.98494 6.7821 2.98017 6.835 3.03969C6.995 3.20969 7.215 3.30969 7.47 3.31469C7.95 3.31469 8.335 2.93968 8.345 2.45468L8.36485 1.34301C8.36755 1.19086 8.5053 1.07538 8.65235 1.11447C9.75435 1.40735 10.25 2.29328 10.25 3.49969V3.99969C10.25 4.27469 10.025 4.49969 9.75 4.49969C9.475 4.49969 9.25 4.72469 9.25 4.99969Z" fill="currentColor"/>
<path d="M4.61394 1.00165C4.75429 1.00074 4.86789 1.11553 4.86552 1.25587L4.84483 2.48C4.83983 2.685 4.67483 2.85 4.46983 2.85H4.46484C4.25484 2.845 4.08983 2.675 4.09483 2.465V1.25339C4.09483 1.11595 4.20579 1.00428 4.34323 1.00339L4.61394 1.00165Z" fill="currentColor"/>
<path d="M6.11555 1C6.2553 1 6.3679 1.11453 6.36555 1.25424L6.34485 2.475C6.33985 2.675 6.17485 2.84 5.96985 2.84H5.96485C5.75485 2.835 5.58985 2.665 5.59485 2.46V1.25C5.59485 1.11193 5.70675 1 5.84485 1H6.11555Z" fill="currentColor"/>
<path d="M7.61705 1.00329C7.7562 1.00417 7.86785 1.11849 7.86545 1.25762L7.84485 2.44489C7.83985 2.64989 7.67485 2.81488 7.46985 2.81488H7.46485C7.25485 2.80988 7.08985 2.63989 7.09485 2.43489V1.25158C7.09485 1.11289 7.20775 1.00071 7.3464 1.00158L7.61705 1.00329Z" fill="currentColor"/>
</svg>
