<svg width="12" height="12" viewBox="0 0 12 12" fill="none" xmlns="http://www.w3.org/2000/svg">
<path d="M9.75 4.5C10.025 4.5 10.25 4.275 10.25 4V3.5C10.25 2 9.485 1 7.75 1H4.25C2.485 1 1.75 2 1.75 3.5V8.5C1.75 9.65695 2.18913 10.5127 3.19746 10.8418C3.34824 10.891 3.49448 10.7711 3.49392 10.6124L3.49 9.5C3.49 8.67 4.165 8 4.99 8H6.995C7.815 8 8.49 8.67 8.495 9.49L8.50285 10.6135C8.50395 10.7717 8.65085 10.89 8.8009 10.8397C9.79495 10.5063 10.25 9.65135 10.25 8.5V7.915C10.25 7.65 10.145 7.395 9.955 7.205L9.545 6.795C9.355 6.605 9.25 6.35 9.25 6.085V5C9.25 4.725 9.475 4.5 9.75 4.5ZM6.985 4.265H3.985C3.78 4.265 3.61 4.095 3.61 3.89C3.61 3.685 3.78 3.515 3.985 3.515H6.985C7.19 3.515 7.36 3.685 7.36 3.89C7.36 4.095 7.195 4.265 6.985 4.265Z" fill="currentColor"/>
<path d="M8.00515 10.485C8.00795 10.7631 7.7833 10.99 7.5052 10.99H4.49687C4.22203 10.99 3.99872 10.7682 3.99688 10.4934L3.99024 9.5C3.99024 8.95 4.43523 8.5 4.99023 8.5H6.99525C7.54525 8.5 7.99025 8.945 7.99525 9.495L8.00515 10.485Z" fill="currentColor"/>
</svg>
