<svg width="12" height="12" viewBox="0 0 12 12" fill="none" xmlns="http://www.w3.org/2000/svg">
<path d="M6.65 4.05516L7.31 5.37515C7.4 5.55515 7.64 5.73515 7.84 5.76515L9.035 5.96515C9.8 6.09515 9.98 6.64515 9.43 7.19515L8.5 8.13015C8.345 8.28515 8.255 8.59015 8.305 8.81015L8.57 9.96515C8.78 10.8751 8.295 11.2302 7.49 10.7551L6.37 10.0901C6.165 9.97015 5.835 9.97015 5.63 10.0901L4.50499 10.7501C3.69999 11.2252 3.21499 10.8701 3.42499 9.96015L3.68999 8.80515C3.73999 8.59015 3.64999 8.28515 3.49499 8.12515L2.56999 7.20015C2.01999 6.65015 2.19999 6.09515 2.96499 5.97015L4.15999 5.77015C4.35999 5.73515 4.59999 5.56015 4.68999 5.38015L5.35 4.06016C5.705 3.34016 6.295 3.34016 6.65 4.05516Z" fill="currentColor"/>
<path d="M3 4.875C2.795 4.875 2.625 4.705 2.625 4.5V1C2.625 0.795 2.795 0.625 3 0.625C3.205 0.625 3.375 0.795 3.375 1V4.5C3.375 4.705 3.205 4.875 3 4.875Z" fill="currentColor"/>
<path d="M9 4.875C8.795 4.875 8.625 4.705 8.625 4.5V1C8.625 0.795 8.795 0.625 9 0.625C9.205 0.625 9.375 0.795 9.375 1V4.5C9.375 4.705 9.205 4.875 9 4.875Z" fill="currentColor"/>
<path d="M6 2.375C5.795 2.375 5.625 2.205 5.625 2V1C5.625 0.795 5.795 0.625 6 0.625C6.205 0.625 6.375 0.795 6.375 1V2C6.375 2.205 6.205 2.375 6 2.375Z" fill="currentColor"/>
</svg>
