<svg width="12" height="12" viewBox="0 0 12 12" fill="none" xmlns="http://www.w3.org/2000/svg">
<path d="M3.335 7H2C1.45 7 1 7.45 1 8V10.5C1 10.775 1.225 11 1.5 11H3.335C3.61 11 3.835 10.775 3.835 10.5V7.5C3.835 7.225 3.61 7 3.335 7Z" fill="currentColor"/>
<path d="M6.6651 5H5.3301C4.78008 5 4.33008 5.45 4.33008 6V10.5C4.33008 10.775 4.55508 11 4.83008 11H7.1651C7.4401 11 7.6651 10.775 7.6651 10.5V6C7.6651 5.45 7.2201 5 6.6651 5Z" fill="currentColor"/>
<path d="M10 8.5H8.66505C8.39005 8.5 8.16505 8.725 8.16505 9V10.5C8.16505 10.775 8.39005 11 8.66505 11H10.5C10.775 11 11 10.775 11 10.5V9.5C11 8.95 10.55 8.5 10 8.5Z" fill="currentColor"/>
<path d="M7.50475 2.42523C7.65975 2.27023 7.71975 2.08523 7.66975 1.92523C7.61975 1.76523 7.46475 1.65023 7.24475 1.61523L6.76475 1.53523C6.74475 1.53523 6.69975 1.50023 6.68975 1.48023L6.42475 0.950234C6.22475 0.545234 5.76975 0.545234 5.56975 0.950234L5.30475 1.48023C5.29975 1.50023 5.25475 1.53523 5.23475 1.53523L4.75472 1.61523C4.53472 1.65023 4.38472 1.76523 4.32972 1.92523C4.27972 2.08523 4.33973 2.27023 4.49473 2.42523L4.86473 2.80023C4.88473 2.81523 4.89972 2.87523 4.89472 2.89523L4.78972 3.35523C4.70972 3.70023 4.83973 3.85523 4.92473 3.91523C5.00975 3.97523 5.19475 4.05523 5.49975 3.87523L5.94975 3.61023C5.96975 3.59523 6.03475 3.59523 6.05475 3.61023L6.49975 3.87523C6.63975 3.96023 6.75475 3.98523 6.84475 3.98523C6.94975 3.98523 7.02475 3.94523 7.06975 3.91523C7.15475 3.85523 7.28475 3.70023 7.20475 3.35523L7.09975 2.89523C7.09475 2.87023 7.10975 2.81523 7.12975 2.80023L7.50475 2.42523Z" fill="currentColor"/>
</svg>
