<svg width="12" height="12" viewBox="0 0 12 12" fill="none" xmlns="http://www.w3.org/2000/svg">
<path d="M9.75 1.835C9.75 1.83 9.75 1.825 9.74 1.82C9.63 1.68 9.485 1.605 9.315 1.605C9.05 1.605 8.73 1.78 8.385 2.15C7.975 2.59 7.345 2.555 6.985 2.075L6.48 1.405C6.28 1.135 6.015 1 5.75 1C5.485 1 5.22 1.135 5.02 1.405L4.51 2.08C4.155 2.555 3.53 2.59 3.12 2.155L3.115 2.15C2.55 1.545 2.045 1.455 1.76 1.82C1.75 1.825 1.75 1.83 1.75 1.835C1.57 2.22 1.5 2.76 1.5 3.52V8.48C1.5 9.24 1.57 9.78 1.75 10.165C1.75 10.17 1.755 10.18 1.76 10.185C2.05 10.545 2.55 10.455 3.115 9.85L3.12 9.845C3.53 9.41 4.155 9.445 4.51 9.92L5.02 10.595C5.22 10.865 5.485 11 5.75 11C6.015 11 6.28 10.865 6.48 10.595L6.985 9.925C7.345 9.445 7.975 9.41 8.385 9.85C8.73 10.22 9.05 10.395 9.315 10.395C9.485 10.395 9.63 10.325 9.74 10.185C9.745 10.18 9.75 10.17 9.75 10.165C9.93 9.78 10 9.24 10 8.48V3.52C10 2.76 9.93 2.22 9.75 1.835ZM7 7.25H4C3.795 7.25 3.625 7.08 3.625 6.875C3.625 6.67 3.795 6.5 4 6.5H7C7.205 6.5 7.375 6.67 7.375 6.875C7.375 7.08 7.205 7.25 7 7.25ZM8 5.5H4C3.795 5.5 3.625 5.33 3.625 5.125C3.625 4.92 3.795 4.75 4 4.75H8C8.205 4.75 8.375 4.92 8.375 5.125C8.375 5.33 8.205 5.5 8 5.5Z" fill="currentColor"/>
</svg>
