<svg width="12" height="12" viewBox="0 0 12 12" fill="none" xmlns="http://www.w3.org/2000/svg">
<path d="M3 1C1.5 1 1 1.895 1 3V10.5C1 10.915 1.47 11.15 1.8 10.9L2.655 10.26C2.855 10.11 3.135 10.13 3.315 10.31L4.145 11.145C4.34 11.34 4.66 11.34 4.855 11.145L5.695 10.305C5.87 10.13 6.15 10.11 6.345 10.26L7.2 10.9C7.53 11.145 8 10.91 8 10.5V2C8 1.45 8.45 1 9 1H3ZM2.985 7.005C2.71 7.005 2.485 6.78 2.485 6.505C2.485 6.23 2.71 6.005 2.985 6.005C3.26 6.005 3.485 6.23 3.485 6.505C3.485 6.78 3.26 7.005 2.985 7.005ZM2.985 5.005C2.71 5.005 2.485 4.78 2.485 4.505C2.485 4.23 2.71 4.005 2.985 4.005C3.26 4.005 3.485 4.23 3.485 4.505C3.485 4.78 3.26 5.005 2.985 5.005ZM6 6.88H4.5C4.295 6.88 4.125 6.71 4.125 6.505C4.125 6.3 4.295 6.13 4.5 6.13H6C6.205 6.13 6.375 6.3 6.375 6.505C6.375 6.71 6.205 6.88 6 6.88ZM6 4.88H4.5C4.295 4.88 4.125 4.71 4.125 4.505C4.125 4.3 4.295 4.13 4.5 4.13H6C6.205 4.13 6.375 4.3 6.375 4.505C6.375 4.71 6.205 4.88 6 4.88Z" fill="currentColor"/>
<path d="M9.005 1.75C9.335 1.75 9.65 1.885 9.88 2.11C10.12 2.355 10.25 2.67 10.25 3V4.21C10.25 4.58 10.085 4.75 9.71 4.75H8.75V2.005C8.75 1.865 8.865 1.75 9.005 1.75ZM9.005 1C8.45 1 8 1.45 8 2.005V5.5H9.71C10.5 5.5 11 5 11 4.21V3C11 2.45 10.775 1.95 10.415 1.585C10.05 1.225 9.555 1.005 9.005 1Z" fill="currentColor"/>
</svg>
