<svg width="12" height="12" viewBox="0 0 12 12" fill="none" xmlns="http://www.w3.org/2000/svg">
<path d="M3 1C1.5 1 1 1.895 1 3V10.5C1 10.915 1.47 11.15 1.8 10.9L2.655 10.26C2.855 10.11 3.135 10.13 3.315 10.31L4.145 11.145C4.34 11.34 4.66 11.34 4.855 11.145L5.695 10.305C5.87 10.13 6.15 10.11 6.345 10.26L7.2 10.9C7.53 11.145 8 10.91 8 10.5V2C8 1.45 8.45 1 9 1H3ZM5.875 5.375H3.125C2.92 5.375 2.75 5.205 2.75 5C2.75 4.795 2.92 4.625 3.125 4.625H5.875C6.08 4.625 6.25 4.795 6.25 5C6.25 5.205 6.08 5.375 5.875 5.375Z" fill="currentColor"/>
<path d="M9.005 1.75C9.335 1.75 9.65 1.885 9.88 2.11C10.12 2.355 10.25 2.67 10.25 3V4.21C10.25 4.58 10.085 4.75 9.71 4.75H8.75V2.005C8.75 1.865 8.865 1.75 9.005 1.75ZM9.005 1C8.45 1 8 1.45 8 2.005V5.5H9.71C10.5 5.5 11 5 11 4.21V3C11 2.45 10.775 1.95 10.415 1.585C10.05 1.225 9.555 1.005 9.005 1Z" fill="currentColor"/>
</svg>
