<svg width="12" height="12" viewBox="0 0 12 12" fill="none" xmlns="http://www.w3.org/2000/svg">
<path d="M3 1C1.5 1 1 1.895 1 3V10.5C1 10.915 1.47 11.15 1.8 10.9L2.655 10.26C2.855 10.11 3.135 10.13 3.315 10.31L4.145 11.145C4.34 11.34 4.66 11.34 4.855 11.145L5.695 10.305C5.87 10.13 6.15 10.11 6.345 10.26L7.2 10.9C7.53 11.145 8 10.91 8 10.5V2C8 1.45 8.45 1 9 1H3ZM3.285 4.015C3.56 4.015 3.785 4.24 3.785 4.515C3.785 4.79 3.56 5.015 3.285 5.015C3.01 5.015 2.785 4.79 2.785 4.515C2.785 4.24 3.01 4.015 3.285 4.015ZM5.715 7.04C5.435 7.04 5.215 6.815 5.215 6.54C5.215 6.265 5.44 6.04 5.715 6.04C5.99 6.04 6.215 6.265 6.215 6.54C6.215 6.815 5.99 7.04 5.715 7.04ZM6.13 4.4L3.4 7.13C3.325 7.205 3.23 7.24 3.135 7.24C3.04 7.24 2.945 7.205 2.87 7.13C2.725 6.985 2.725 6.745 2.87 6.6L5.6 3.87C5.745 3.725 5.985 3.725 6.13 3.87C6.275 4.015 6.275 4.255 6.13 4.4Z" fill="currentColor"/>
<path d="M9.005 1.75C9.335 1.75 9.65 1.885 9.88 2.11C10.12 2.355 10.25 2.67 10.25 3V4.21C10.25 4.58 10.085 4.75 9.71 4.75H8.75V2.005C8.75 1.865 8.865 1.75 9.005 1.75ZM9.005 1C8.45 1 8 1.45 8 2.005V5.5H9.71C10.5 5.5 11 5 11 4.21V3C11 2.45 10.775 1.95 10.415 1.585C10.05 1.225 9.555 1.005 9.005 1Z" fill="currentColor"/>
</svg>
