<svg width="12" height="12" viewBox="0 0 12 12" fill="none" xmlns="http://www.w3.org/2000/svg">
<path d="M7.89 1H4.11C2.22 1 1.75 1.505 1.75 3.52V9.15C1.75 10.48 2.48 10.795 3.365 9.845L3.37 9.84C3.78 9.405 4.405 9.44 4.76 9.915L5.265 10.59C5.67 11.125 6.325 11.125 6.73 10.59L7.235 9.915C7.595 9.435 8.22 9.4 8.63 9.84C9.52 10.79 10.245 10.475 10.245 9.145V3.52C10.25 1.505 9.78 1 7.89 1ZM7.83 7.265C7.755 7.34 7.66 7.375 7.565 7.375C7.47 7.375 7.375 7.34 7.3 7.265L6.93 6.895C6.64 7.085 6.29 7.2 5.915 7.2C4.895 7.2 4.065 6.37 4.065 5.35C4.065 4.33 4.89 3.5 5.915 3.5C6.94 3.5 7.765 4.33 7.765 5.35C7.765 5.725 7.65 6.075 7.46 6.365L7.83 6.735C7.975 6.88 7.975 7.12 7.83 7.265Z" fill="currentColor"/>
</svg>
