<svg width="12" height="12" viewBox="0 0 12 12" fill="none" xmlns="http://www.w3.org/2000/svg">
<path d="M8.095 1H3.905C2.085 1 1 2.085 1 3.905V8.09C1 9.915 2.085 11 3.905 11H8.09C9.91 11 10.995 9.915 10.995 8.095V3.905C11 2.085 9.915 1 8.095 1ZM8.5 7.855C8.5 8.64 8.07 8.825 7.55 8.265C7.31 8.01 6.94 8.03 6.73 8.31L6.435 8.705C6.2 9.02 5.81 9.02 5.575 8.705L5.275 8.305C5.065 8.025 4.695 8.005 4.455 8.26C3.93 8.82 3.5 8.635 3.5 7.855V4.54C3.5 3.355 3.78 3.06 4.89 3.06H7.11C8.22 3.06 8.5 3.355 8.5 4.54V7.855Z" fill="currentColor"/>
</svg>
