<svg width="12" height="12" viewBox="0 0 12 12" fill="none" xmlns="http://www.w3.org/2000/svg">
<path d="M7.89 1H4.11C2.22 1 1.75 1.505 1.75 3.52V9.15C1.75 10.48 2.48 10.795 3.365 9.845L3.37 9.84C3.78 9.405 4.405 9.44 4.76 9.915L5.265 10.59C5.67 11.125 6.325 11.125 6.73 10.59L7.235 9.915C7.595 9.435 8.22 9.4 8.63 9.84C9.52 10.79 10.245 10.475 10.245 9.145V3.52C10.25 1.505 9.78 1 7.89 1ZM7.5 5.875H4.5C4.295 5.875 4.125 5.705 4.125 5.5C4.125 5.295 4.295 5.125 4.5 5.125H7.5C7.705 5.125 7.875 5.295 7.875 5.5C7.875 5.705 7.705 5.875 7.5 5.875ZM8 3.875H4C3.795 3.875 3.625 3.705 3.625 3.5C3.625 3.295 3.795 3.125 4 3.125H8C8.205 3.125 8.375 3.295 8.375 3.5C8.375 3.705 8.205 3.875 8 3.875Z" fill="currentColor"/>
</svg>
