<svg width="12" height="12" viewBox="0 0 12 12" fill="none" xmlns="http://www.w3.org/2000/svg">
<path d="M8.095 1H3.905C2.085 1 1 2.085 1 3.905V8.09C1 9.915 2.085 11 3.905 11H8.09C9.91 11 10.995 9.915 10.995 8.095V3.905C11 2.085 9.915 1 8.095 1ZM4.235 5.49C4.38 5.345 4.62 5.345 4.765 5.49L5.625 6.35V3.255C5.625 3.05 5.795 2.88 6 2.88C6.205 2.88 6.375 3.05 6.375 3.255V6.35L7.235 5.49C7.38 5.345 7.62 5.345 7.765 5.49C7.91 5.635 7.91 5.875 7.765 6.02L6.265 7.52C6.23 7.555 6.19 7.58 6.145 7.6C6.1 7.62 6.05 7.63 6 7.63C5.95 7.63 5.905 7.62 5.855 7.6C5.81 7.58 5.77 7.555 5.735 7.52L4.235 6.02C4.09 5.875 4.09 5.64 4.235 5.49ZM9.12 8.61C8.115 8.945 7.06 9.115 6 9.115C4.94 9.115 3.885 8.945 2.88 8.61C2.685 8.545 2.58 8.33 2.645 8.135C2.71 7.94 2.92 7.83 3.12 7.9C4.98 8.52 7.025 8.52 8.885 7.9C9.08 7.835 9.295 7.94 9.36 8.135C9.42 8.335 9.315 8.545 9.12 8.61Z" fill="currentColor"/>
</svg>
