<svg width="12" height="12" viewBox="0 0 12 12" fill="none" xmlns="http://www.w3.org/2000/svg">
<path d="M8.095 1H3.905C2.085 1 1 2.085 1 3.905V8.09C1 9.915 2.085 11 3.905 11H8.09C9.91 11 10.995 9.915 10.995 8.095V3.905C11 2.085 9.915 1 8.095 1ZM4.32 3.575C4.465 3.43 4.705 3.43 4.85 3.575L7.04 5.765V4.55C7.04 4.345 7.21 4.175 7.415 4.175C7.62 4.175 7.79 4.345 7.79 4.55V6.67C7.79 6.72 7.78 6.765 7.76 6.815C7.72 6.905 7.65 6.98 7.555 7.02C7.51 7.04 7.46 7.05 7.41 7.05H5.29C5.085 7.05 4.915 6.88 4.915 6.675C4.915 6.47 5.085 6.3 5.29 6.3H6.505L4.32 4.105C4.175 3.96 4.175 3.725 4.32 3.575ZM9.12 8.61C8.115 8.945 7.06 9.115 6 9.115C4.94 9.115 3.885 8.945 2.88 8.61C2.685 8.545 2.58 8.33 2.645 8.135C2.71 7.94 2.92 7.83 3.12 7.9C4.98 8.52 7.025 8.52 8.885 7.9C9.08 7.835 9.295 7.94 9.36 8.135C9.42 8.335 9.315 8.545 9.12 8.61Z" fill="currentColor"/>
</svg>
