<svg width="12" height="12" viewBox="0 0 12 12" fill="none" xmlns="http://www.w3.org/2000/svg">
<path d="M7.89 1H4.11C2.22 1 1.75 1.505 1.75 3.52V9.15C1.75 10.48 2.48 10.795 3.365 9.845L3.37 9.84C3.78 9.405 4.405 9.44 4.76 9.915L5.265 10.59C5.67 11.125 6.325 11.125 6.73 10.59L7.235 9.915C7.595 9.435 8.22 9.4 8.63 9.84C9.52 10.79 10.245 10.475 10.245 9.145V3.52C10.25 1.505 9.78 1 7.89 1ZM4.5 3.5C4.775 3.5 5 3.725 5 4C5 4.275 4.78 4.5 4.5 4.5C4.22 4.5 4 4.275 4 4C4 3.725 4.22 3.5 4.5 3.5ZM7.5 7C7.22 7 7 6.775 7 6.5C7 6.225 7.225 6 7.5 6C7.775 6 8 6.225 8 6.5C8 6.775 7.78 7 7.5 7ZM7.95 3.795L4.585 7.16C4.51 7.235 4.415 7.27 4.32 7.27C4.225 7.27 4.13 7.235 4.055 7.16C3.91 7.015 3.91 6.775 4.055 6.63L7.42 3.265C7.565 3.12 7.805 3.12 7.95 3.265C8.095 3.41 8.095 3.65 7.95 3.795Z" fill="currentColor"/>
</svg>
