<svg width="12" height="12" viewBox="0 0 12 12" fill="none" xmlns="http://www.w3.org/2000/svg">
<path d="M7.89 1H4.11C2.22 1 1.75 1.505 1.75 3.52V9.15C1.75 10.48 2.48 10.795 3.365 9.845L3.37 9.84C3.78 9.405 4.405 9.44 4.76 9.915L5.265 10.59C5.67 11.125 6.325 11.125 6.73 10.59L7.235 9.915C7.595 9.435 8.22 9.4 8.63 9.84C9.52 10.79 10.245 10.475 10.245 9.145V3.52C10.25 1.505 9.78 1 7.89 1ZM3.89 6C3.615 6 3.39 5.775 3.39 5.5C3.39 5.225 3.615 5 3.89 5C4.165 5 4.39 5.225 4.39 5.5C4.39 5.775 4.165 6 3.89 6ZM3.89 4C3.615 4 3.39 3.775 3.39 3.5C3.39 3.225 3.615 3 3.89 3C4.165 3 4.39 3.225 4.39 3.5C4.39 3.775 4.165 4 3.89 4ZM8.115 5.875H5.365C5.16 5.875 4.99 5.705 4.99 5.5C4.99 5.295 5.16 5.125 5.365 5.125H8.115C8.32 5.125 8.49 5.295 8.49 5.5C8.49 5.705 8.32 5.875 8.115 5.875ZM8.115 3.875H5.365C5.16 3.875 4.99 3.705 4.99 3.5C4.99 3.295 5.16 3.125 5.365 3.125H8.115C8.32 3.125 8.49 3.295 8.49 3.5C8.49 3.705 8.32 3.875 8.115 3.875Z" fill="currentColor"/>
</svg>
