<svg width="12" height="12" viewBox="0 0 12 12" fill="none" xmlns="http://www.w3.org/2000/svg">
<path d="M7.89 1H4.11C2.22 1 1.75 1.505 1.75 3.52V9.15C1.75 10.48 2.48 10.795 3.365 9.845L3.37 9.84C3.78 9.405 4.405 9.44 4.76 9.915L5.265 10.59C5.67 11.125 6.325 11.125 6.73 10.59L7.235 9.915C7.595 9.435 8.22 9.4 8.63 9.84C9.52 10.79 10.245 10.475 10.245 9.145V3.52C10.25 1.505 9.78 1 7.89 1ZM7.42 4.995L7.17 5.25H7.165L5.65 6.765C5.585 6.83 5.45 6.9 5.355 6.91L4.68 7.01C4.435 7.045 4.265 6.87 4.3 6.63L4.395 5.95C4.41 5.855 4.475 5.725 4.54 5.655L6.06 4.14L6.31 3.885C6.475 3.72 6.66 3.6 6.86 3.6C7.03 3.6 7.215 3.68 7.42 3.885C7.87 4.335 7.725 4.69 7.42 4.995Z" fill="currentColor"/>
</svg>
