<svg width="12" height="12" viewBox="0 0 12 12" fill="none" xmlns="http://www.w3.org/2000/svg">
<path d="M9.81485 3.61922C9.96485 3.85422 9.88485 4.16922 9.64485 4.31422L9.34985 4.48922L2.79483 8.4192C2.55483 8.5642 2.23983 8.4842 2.09983 8.2392C1.59983 7.3692 1.37483 6.3092 1.56983 5.1992C1.89983 3.31422 3.44983 1.81422 5.34485 1.54422C7.21985 1.27922 8.91485 2.17922 9.81485 3.61922Z" fill="currentColor"/>
<path d="M10.4446 6.7154C10.1046 8.8404 8.2246 10.4654 6.0696 10.5004C5.1196 10.5154 4.23958 10.2404 3.50958 9.7454C3.19958 9.5404 3.20958 9.0804 3.52958 8.8904L9.7346 5.2454C10.0596 5.0554 10.4596 5.2754 10.4896 5.6504C10.5146 6.0004 10.4996 6.3554 10.4446 6.7154Z" fill="currentColor"/>
</svg>
