<svg width="12" height="12" viewBox="0 0 12 12" fill="none" xmlns="http://www.w3.org/2000/svg">
<g clip-path="url(#clip0_1652_3090)">
<path d="M7.5001 11.3742C7.3651 11.3742 7.2401 11.2991 7.1751 11.1841C7.1101 11.0641 7.1101 10.9241 7.1801 10.8041L7.7051 9.92915C7.8101 9.74915 8.0451 9.69415 8.2201 9.79915C8.4001 9.90415 8.4551 10.1341 8.3501 10.3141L8.2151 10.5392C9.5951 10.2142 10.6301 8.97415 10.6301 7.49415C10.6301 7.28915 10.8001 7.11915 11.0051 7.11915C11.2101 7.11915 11.3801 7.28915 11.3801 7.49415C11.3751 9.63415 9.6351 11.3742 7.5001 11.3742Z" fill="currentColor"/>
<path d="M1 4.875C0.795 4.875 0.625 4.705 0.625 4.5C0.625 2.365 2.365 0.625 4.5 0.625C4.635 0.625 4.76 0.7 4.825 0.815C4.89 0.935 4.89 1.075 4.82 1.195L4.295 2.07C4.19 2.245 3.96 2.305 3.78 2.195C3.605 2.09 3.545 1.86 3.655 1.68L3.79 1.455C2.405 1.78 1.375 3.02 1.375 4.5C1.375 4.705 1.205 4.875 1 4.875Z" fill="currentColor"/>
<path d="M7.4 6.3146V7.7846C7.4 9.0096 6.91 9.4996 5.685 9.4996H4.215C2.99 9.4996 2.5 9.0096 2.5 7.7846V6.3146C2.5 5.0896 2.99 4.59961 4.215 4.59961H5.685C6.91 4.59961 7.4 5.0896 7.4 6.3146Z" fill="currentColor"/>
<path d="M7.78545 2.5H6.31545C5.11045 2.5 4.62047 2.98 4.60547 4.16H5.68545C7.15545 4.16 7.83545 4.845 7.83545 6.31V7.39C9.02045 7.375 9.49545 6.885 9.49545 5.68V4.215C9.50045 2.99 9.01045 2.5 7.78545 2.5Z" fill="currentColor"/>
</g>
<defs>
<clipPath id="clip0_1652_3090">
<rect width="12" height="12" fill="currentColor"/>
</clipPath>
</defs>
</svg>
