<svg width="12" height="12" viewBox="0 0 12 12" fill="none" xmlns="http://www.w3.org/2000/svg">
<path d="M8.095 1H3.905C2.085 1 1 2.085 1 3.905V8.09C1 9.915 2.085 11 3.905 11H8.09C9.91 11 10.995 9.915 10.995 8.095V3.905C11 2.085 9.915 1 8.095 1ZM8.765 5.11L7.98 5.895C7.905 5.97 7.81 6.005 7.715 6.005C7.62 6.005 7.525 5.97 7.45 5.895C7.305 5.75 7.305 5.51 7.45 5.365L7.58 5.235H5.04C4.4 5.235 3.875 5.755 3.875 6.4C3.875 7.045 4.395 7.565 5.04 7.565H7.5C7.705 7.565 7.875 7.735 7.875 7.94C7.875 8.145 7.705 8.315 7.5 8.315H5.04C3.985 8.315 3.125 7.455 3.125 6.4C3.125 5.345 3.985 4.485 5.04 4.485H7.615L7.45 4.325C7.305 4.18 7.305 3.94 7.45 3.795C7.595 3.65 7.835 3.65 7.98 3.795L8.765 4.58C8.91 4.73 8.91 4.965 8.765 5.11Z" fill="currentColor"/>
</svg>
