<svg width="12" height="12" viewBox="0 0 12 12" fill="none" xmlns="http://www.w3.org/2000/svg">
<path d="M6 1C3.24 1 1 3.24 1 6C1 8.76 3.24 11 6 11C8.76 11 11 8.76 11 6C11 3.24 8.76 1 6 1ZM3.3 5.615C3.385 5.02 3.65 4.485 4.065 4.065C5.065 3.07 6.64 3.015 7.71 3.885V3.41C7.71 3.205 7.88 3.035 8.085 3.035C8.29 3.035 8.46 3.205 8.46 3.41V4.745C8.46 4.95 8.29 5.12 8.085 5.12H6.75C6.545 5.12 6.375 4.95 6.375 4.745C6.375 4.54 6.545 4.37 6.75 4.37H7.125C6.35 3.83 5.28 3.905 4.59 4.595C4.29 4.895 4.1 5.285 4.035 5.72C4.01 5.905 3.85 6.04 3.665 6.04C3.645 6.04 3.63 6.04 3.61 6.035C3.415 6.01 3.27 5.82 3.3 5.615ZM7.935 7.935C7.4 8.47 6.7 8.735 6 8.735C5.39 8.735 4.785 8.52 4.285 8.115V8.585C4.285 8.79 4.115 8.96 3.91 8.96C3.705 8.96 3.535 8.79 3.535 8.585V7.25C3.535 7.045 3.705 6.875 3.91 6.875H5.245C5.45 6.875 5.62 7.045 5.62 7.25C5.62 7.455 5.45 7.625 5.245 7.625H4.87C5.645 8.165 6.715 8.09 7.405 7.4C7.705 7.1 7.895 6.71 7.96 6.275C7.99 6.07 8.175 5.925 8.385 5.955C8.59 5.985 8.73 6.175 8.705 6.38C8.615 6.985 8.35 7.52 7.935 7.935Z" fill="currentColor"/>
</svg>
