<svg width="12" height="12" viewBox="0 0 12 12" fill="none" xmlns="http://www.w3.org/2000/svg">
<path d="M8.095 1H3.905C2.085 1 1 2.085 1 3.905V8.09C1 9.915 2.085 11 3.905 11H8.09C9.91 11 10.995 9.915 10.995 8.095V3.905C11 2.085 9.915 1 8.095 1ZM6 9.125C5.105 9.125 4.405 8.68 3.93 8.24V8.595C3.93 8.8 3.76 8.97 3.555 8.97C3.35 8.97 3.18 8.8 3.18 8.595V7.22C3.18 7.015 3.35 6.845 3.555 6.845H4.795C5 6.845 5.17 7.015 5.17 7.22C5.17 7.425 5 7.595 4.795 7.595H4.345C4.715 7.965 5.29 8.375 6 8.375C7.31 8.375 8.375 7.31 8.375 6C8.375 5.795 8.545 5.625 8.75 5.625C8.955 5.625 9.125 5.795 9.125 6C9.125 7.725 7.725 9.125 6 9.125ZM9.125 4.77C9.125 4.785 9.125 4.8 9.125 4.81C9.12 4.865 9.105 4.915 9.08 4.96C9.055 5.005 9.02 5.045 8.975 5.08C8.94 5.105 8.9 5.125 8.855 5.14C8.82 5.15 8.785 5.155 8.75 5.155H7.535C7.33 5.155 7.16 4.985 7.16 4.78C7.16 4.575 7.33 4.405 7.535 4.405H7.95C7.55 4.035 6.905 3.625 6.01 3.625C4.7 3.625 3.635 4.69 3.635 6C3.635 6.205 3.465 6.375 3.26 6.375C3.055 6.375 2.875 6.205 2.875 6C2.875 4.275 4.275 2.875 6 2.875C7.075 2.875 7.865 3.34 8.375 3.785V3.405C8.375 3.2 8.545 3.03 8.75 3.03C8.955 3.03 9.125 3.2 9.125 3.405V4.77Z" fill="currentColor"/>
</svg>
