<svg width="12" height="12" viewBox="0 0 12 12" fill="none" xmlns="http://www.w3.org/2000/svg">
<path d="M8.095 1H3.905C2.085 1 1 2.085 1 3.905V8.09C1 9.915 2.085 11 3.905 11H8.09C9.91 11 10.995 9.915 10.995 8.095V3.905C11 2.085 9.915 1 8.095 1ZM2.625 5.945C2.64 5.065 2.99 4.235 3.61 3.615C4.25 2.975 5.1 2.625 6 2.625C6.9 2.625 7.75 2.975 8.385 3.615C8.4 3.63 8.415 3.65 8.43 3.67V3.24C8.43 3.035 8.6 2.865 8.805 2.865C9.01 2.865 9.18 3.035 9.18 3.24V4.565C9.18 4.77 9.01 4.94 8.805 4.94H7.48C7.275 4.94 7.105 4.77 7.105 4.565C7.105 4.36 7.275 4.19 7.48 4.19H7.895C7.88 4.175 7.87 4.16 7.855 4.145C7.36 3.65 6.7 3.375 6 3.375C5.3 3.375 4.64 3.65 4.145 4.145C3.66 4.63 3.39 5.275 3.38 5.96C3.375 6.16 3.205 6.325 3 6.325H2.995C2.79 6.325 2.625 6.15 2.625 5.945ZM8.385 8.385C7.75 9.02 6.9 9.375 6 9.375C5.1 9.375 4.25 9.025 3.615 8.385C3.6 8.37 3.585 8.35 3.57 8.33V8.755C3.57 8.96 3.4 9.13 3.195 9.13C2.99 9.13 2.82 8.96 2.82 8.755V7.43C2.82 7.225 2.99 7.055 3.195 7.055H4.52C4.725 7.055 4.895 7.225 4.895 7.43C4.895 7.635 4.725 7.805 4.52 7.805H4.105C4.12 7.82 4.13 7.835 4.145 7.85C4.64 8.345 5.3 8.62 6 8.62C6.7 8.62 7.36 8.345 7.855 7.85C8.345 7.36 8.62 6.705 8.62 6.005C8.62 5.8 8.79 5.63 8.995 5.63C9.2 5.63 9.37 5.8 9.37 6.005C9.37 6.91 9.02 7.755 8.385 8.385Z" fill="currentColor"/>
</svg>
