<svg width="12" height="12" viewBox="0 0 12 12" fill="none" xmlns="http://www.w3.org/2000/svg">
<path d="M8.095 1H3.905C2.085 1 1 2.085 1 3.905V8.09C1 9.915 2.085 11 3.905 11H8.09C9.91 11 10.995 9.915 10.995 8.095V3.905C11 2.085 9.915 1 8.095 1ZM6 9.005C4.415 9.005 3.125 7.715 3.125 6.13C3.125 4.545 4.415 3.255 6 3.255C6.07 3.255 6.145 3.265 6.215 3.27L6.075 3.11C5.94 2.955 5.955 2.715 6.11 2.58C6.265 2.445 6.505 2.46 6.64 2.615L7.475 3.57C7.48 3.575 7.48 3.58 7.485 3.585C7.49 3.59 7.495 3.59 7.495 3.595C7.505 3.61 7.51 3.63 7.52 3.65C7.53 3.675 7.545 3.695 7.55 3.72C7.555 3.745 7.555 3.765 7.56 3.79C7.56 3.815 7.565 3.835 7.565 3.86C7.565 3.885 7.555 3.905 7.545 3.93C7.535 3.955 7.53 3.98 7.52 4C7.51 4.02 7.49 4.04 7.475 4.06C7.46 4.075 7.455 4.095 7.44 4.105C7.435 4.11 7.43 4.11 7.425 4.115C7.42 4.12 7.42 4.125 7.415 4.125L6.445 4.835C6.38 4.885 6.3 4.905 6.225 4.905C6.11 4.905 5.995 4.85 5.92 4.75C5.8 4.585 5.835 4.35 6 4.225L6.28 4.02C6.185 4.015 6.095 4.005 6 4.005C4.83 4.005 3.875 4.96 3.875 6.13C3.875 7.3 4.83 8.255 6 8.255C7.17 8.255 8.125 7.3 8.125 6.13C8.125 5.705 8 5.3 7.77 4.95C7.655 4.78 7.7 4.545 7.875 4.43C8.045 4.315 8.28 4.36 8.395 4.535C8.71 5.01 8.88 5.56 8.88 6.13C8.875 7.72 7.585 9.005 6 9.005Z" fill="currentColor"/>
</svg>
