<svg width="12" height="12" viewBox="0 0 12 12" fill="none" xmlns="http://www.w3.org/2000/svg">
<g clip-path="url(#clip0_1652_3069)">
<path d="M7.275 11.21C7.11 11.21 6.955 11.1 6.91 10.93C6.86 10.73 6.975 10.525 7.175 10.47C9.205 9.935 10.62 8.095 10.62 5.995C10.62 3.445 8.545 1.37 5.995 1.37C3.83 1.37 2.41 2.635 1.745 3.4H3.215C3.42 3.4 3.59 3.57 3.59 3.775C3.59 3.98 3.43 4.155 3.22 4.155H1.005C0.97 4.155 0.935 4.15 0.9 4.14C0.855 4.125 0.815 4.105 0.78 4.08C0.735 4.05 0.7 4.01 0.675 3.965C0.65 3.915 0.63 3.865 0.625 3.81C0.625 3.795 0.625 3.785 0.625 3.77V1.5C0.625 1.295 0.795 1.125 1 1.125C1.205 1.125 1.375 1.295 1.375 1.5V2.695C2.19 1.82 3.725 0.625 6 0.625C8.965 0.625 11.375 3.035 11.375 6C11.375 8.44 9.73 10.58 7.37 11.2C7.34 11.205 7.305 11.21 7.275 11.21Z" fill="currentColor"/>
<path d="M5.645 11.365C5.635 11.365 5.62 11.365 5.61 11.36C5.075 11.325 4.55 11.205 4.05 11.01C3.905 10.955 3.81 10.81 3.81 10.655C3.81 10.61 3.82 10.565 3.835 10.525C3.91 10.335 4.13 10.235 4.32 10.31C4.75 10.48 5.205 10.58 5.665 10.615H5.67C5.87 10.625 6.02 10.795 6.02 10.995C6.02 11 6.02 11.01 6.02 11.015C6.005 11.21 5.84 11.365 5.645 11.365ZM2.89 10.29C2.805 10.29 2.725 10.265 2.655 10.21C2.235 9.875 1.87 9.48 1.565 9.035C1.52 8.97 1.495 8.9 1.495 8.825C1.495 8.7 1.555 8.585 1.66 8.515C1.825 8.4 2.07 8.445 2.18 8.61C2.445 8.995 2.76 9.335 3.125 9.62C3.21 9.69 3.265 9.795 3.265 9.91C3.265 9.995 3.24 10.08 3.185 10.15C3.115 10.24 3.005 10.29 2.89 10.29ZM1.22 7.85C1.055 7.85 0.91 7.745 0.865 7.59C0.705 7.075 0.625 6.54 0.625 6C0.625 5.795 0.795 5.625 1 5.625C1.205 5.625 1.375 5.795 1.375 6C1.375 6.465 1.445 6.925 1.58 7.365C1.59 7.4 1.595 7.44 1.595 7.48C1.595 7.645 1.49 7.785 1.335 7.835C1.295 7.845 1.26 7.85 1.22 7.85Z" fill="currentColor"/>
<path d="M6 8C7.10455 8 8 7.10455 8 6C8 4.89543 7.10455 4 6 4C4.89543 4 4 4.89543 4 6C4 7.10455 4.89543 8 6 8Z" fill="currentColor"/>
</g>
<defs>
<clipPath id="clip0_1652_3069">
<rect width="12" height="12" fill="currentColor"/>
</clipPath>
</defs>
</svg>
