<svg width="12" height="12" viewBox="0 0 12 12" fill="none" xmlns="http://www.w3.org/2000/svg">
<path d="M8.095 1H3.905C2.085 1 1 2.085 1 3.905V8.09C1 9.915 2.085 11 3.905 11H8.09C9.91 11 10.995 9.915 10.995 8.095V3.905C11 2.085 9.915 1 8.095 1ZM6 9.005C4.415 9.005 3.125 7.715 3.125 6.13C3.125 5.56 3.29 5.005 3.61 4.535C3.725 4.36 3.96 4.315 4.13 4.43C4.3 4.545 4.35 4.78 4.23 4.95C4 5.3 3.875 5.71 3.875 6.13C3.875 7.3 4.83 8.255 6 8.255C7.17 8.255 8.125 7.3 8.125 6.13C8.125 4.96 7.17 4.005 6 4.005C5.905 4.005 5.815 4.015 5.72 4.025L6 4.23C6.165 4.35 6.205 4.585 6.08 4.755C6.005 4.855 5.89 4.91 5.775 4.91C5.7 4.91 5.62 4.885 5.555 4.84L4.585 4.125C4.585 4.125 4.58 4.12 4.575 4.115C4.57 4.11 4.565 4.11 4.56 4.105C4.545 4.095 4.54 4.075 4.525 4.06C4.51 4.04 4.495 4.025 4.48 4C4.47 3.98 4.465 3.955 4.455 3.935C4.45 3.91 4.44 3.89 4.44 3.865C4.44 3.84 4.44 3.82 4.445 3.795C4.445 3.77 4.445 3.75 4.455 3.725C4.455 3.7 4.47 3.68 4.48 3.655C4.49 3.64 4.49 3.62 4.505 3.6C4.51 3.6 4.515 3.595 4.52 3.59C4.525 3.585 4.525 3.58 4.53 3.575L5.365 2.62C5.5 2.465 5.74 2.445 5.895 2.585C6.05 2.72 6.065 2.96 5.93 3.115L5.79 3.275C5.86 3.27 5.93 3.26 6.005 3.26C7.59 3.26 8.88 4.55 8.88 6.135C8.88 7.72 7.585 9.005 6 9.005Z" fill="currentColor"/>
</svg>
