<svg width="12" height="12" viewBox="0 0 12 12" fill="none" xmlns="http://www.w3.org/2000/svg">
<path d="M8.70905 2.2057H2.69406L3.63407 1.2657C3.77907 1.1207 3.77907 0.880703 3.63407 0.735703C3.48907 0.590703 3.24907 0.590703 3.10407 0.735703L1.52407 2.3157C1.48907 2.3507 1.46407 2.3907 1.44407 2.4357C1.42407 2.4807 1.41406 2.5307 1.41406 2.5807C1.41406 2.6307 1.42407 2.6807 1.44407 2.7257C1.46407 2.7707 1.48907 2.8107 1.52407 2.8457L3.10407 4.4257C3.17907 4.5007 3.27406 4.5357 3.36906 4.5357C3.46406 4.5357 3.55906 4.5007 3.63407 4.4257C3.77907 4.2807 3.77907 4.0407 3.63407 3.8957L2.69406 2.9557H8.70905C9.32905 2.9557 9.83405 3.4607 9.83405 4.0807V5.7407C9.83405 5.9457 10.0041 6.1157 10.2091 6.1157C10.4141 6.1157 10.5841 5.9457 10.5841 5.7407V4.0807C10.5841 3.0457 9.74405 2.2057 8.70905 2.2057Z" fill="currentColor"/>
<path d="M10.5841 9.41975C10.5841 9.36975 10.5741 9.31975 10.5541 9.27475C10.5341 9.22975 10.5091 9.18975 10.4741 9.15475L8.89405 7.57475C8.74905 7.42975 8.50905 7.42975 8.36405 7.57475C8.21905 7.71975 8.21905 7.95975 8.36405 8.10475L9.30405 9.04475H3.28906C2.66906 9.04475 2.16406 8.53975 2.16406 7.91975V6.25975C2.16406 6.05475 1.99406 5.88475 1.78906 5.88475C1.58407 5.88475 1.41406 6.05475 1.41406 6.25975V7.91975C1.41406 8.95475 2.25407 9.79475 3.28906 9.79475H9.30405L8.36405 10.7347C8.21905 10.8797 8.21905 11.1197 8.36405 11.2647C8.43905 11.3397 8.53405 11.3747 8.62905 11.3747C8.72405 11.3747 8.81905 11.3397 8.89405 11.2647L10.4741 9.68475C10.5091 9.64975 10.5341 9.60975 10.5541 9.56475C10.5741 9.51975 10.5841 9.46975 10.5841 9.41975Z" fill="currentColor"/>
</svg>
