<svg width="12" height="12" viewBox="0 0 12 12" fill="none" xmlns="http://www.w3.org/2000/svg">
<path d="M6 1C3.24 1 1 3.24 1 6C1 8.76 3.24 11 6 11C8.76 11 11 8.76 11 6C11 3.24 8.76 1 6 1ZM8.595 7.97C8.575 8.015 8.55 8.055 8.515 8.09L7.67 8.935C7.595 9.01 7.5 9.045 7.405 9.045C7.31 9.045 7.215 9.01 7.14 8.935C6.995 8.79 6.995 8.55 7.14 8.405L7.345 8.2H4.55C3.9 8.2 3.375 7.67 3.375 7.025V6.14C3.375 5.935 3.545 5.765 3.75 5.765C3.955 5.765 4.125 5.935 4.125 6.14V7.025C4.125 7.26 4.315 7.45 4.55 7.45H7.345L7.14 7.245C6.995 7.1 6.995 6.86 7.14 6.715C7.285 6.57 7.525 6.57 7.67 6.715L8.515 7.56C8.55 7.595 8.575 7.635 8.595 7.68C8.635 7.775 8.635 7.88 8.595 7.97ZM8.625 5.86C8.625 6.065 8.455 6.235 8.25 6.235C8.045 6.235 7.875 6.065 7.875 5.86V4.975C7.875 4.74 7.685 4.55 7.45 4.55H4.655L4.86 4.75C5.005 4.895 5.005 5.135 4.86 5.28C4.785 5.355 4.69 5.39 4.595 5.39C4.5 5.39 4.405 5.355 4.33 5.28L3.485 4.435C3.45 4.4 3.425 4.36 3.405 4.315C3.365 4.225 3.365 4.12 3.405 4.03C3.425 3.985 3.45 3.94 3.485 3.905L4.33 3.06C4.475 2.915 4.715 2.915 4.86 3.06C5.005 3.205 5.005 3.445 4.86 3.59L4.655 3.795H7.45C8.1 3.795 8.625 4.325 8.625 4.97V5.86Z" fill="currentColor"/>
</svg>
