<svg width="12" height="12" viewBox="0 0 12 12" fill="none" xmlns="http://www.w3.org/2000/svg">
<path d="M1.955 8.5907C1.86 8.5907 1.765 8.5557 1.69 8.4807C1.005 7.7907 0.625 6.8807 0.625 5.9157C0.625 3.9107 2.25 2.2807 4.25 2.2807L7.285 2.2907L6.74 1.7707C6.59 1.6257 6.585 1.3907 6.73 1.2407C6.875 1.0907 7.11 1.0857 7.26 1.2307L8.48 2.4007C8.59 2.5057 8.625 2.6707 8.57 2.8107C8.515 2.9507 8.375 3.0457 8.22 3.0457L4.25 3.0357C2.665 3.0357 1.375 4.3307 1.375 5.9207C1.375 6.6857 1.675 7.4107 2.22 7.9557C2.365 8.1007 2.365 8.3407 2.22 8.4857C2.145 8.5557 2.05 8.5907 1.955 8.5907Z" fill="currentColor"/>
<path d="M4.99995 10.875C4.90495 10.875 4.81495 10.84 4.73995 10.77L3.51995 9.6C3.40995 9.495 3.37495 9.33 3.42995 9.19C3.48995 9.05 3.62995 8.975 3.77995 8.955L7.75495 8.965C9.33995 8.965 10.6299 7.67 10.6299 6.08C10.6299 5.315 10.33 4.59 9.78495 4.045C9.63995 3.9 9.63995 3.66 9.78495 3.515C9.92995 3.37 10.1699 3.37 10.3149 3.515C11 4.205 11.3799 5.115 11.3799 6.08C11.3799 8.085 9.75495 9.715 7.75495 9.715L4.71995 9.705L5.26495 10.225C5.41495 10.37 5.41995 10.605 5.27495 10.755C5.19495 10.835 5.09995 10.875 4.99995 10.875Z" fill="currentColor"/>
<path d="M6.12425 7.70955C5.91925 7.70955 5.74925 7.53955 5.74925 7.33455V5.63955L5.65425 5.74455C5.51425 5.89955 5.27925 5.90955 5.12425 5.77455C4.96926 5.63955 4.95926 5.39955 5.09425 5.24455L5.84425 4.40955C5.94925 4.29455 6.11425 4.25455 6.25925 4.30955C6.40425 4.36955 6.49925 4.50455 6.49925 4.66455V7.33955C6.49925 7.54455 6.32925 7.70955 6.12425 7.70955Z" fill="currentColor"/>
</svg>
