<svg width="12" height="12" viewBox="0 0 12 12" fill="none" xmlns="http://www.w3.org/2000/svg">
<path d="M1.955 8.5907C1.86 8.5907 1.765 8.5557 1.69 8.4807C1.005 7.7907 0.625 6.8807 0.625 5.9157C0.625 3.9107 2.25 2.2807 4.25 2.2807L7.285 2.2907L6.74 1.7707C6.59 1.6257 6.585 1.3907 6.73 1.2407C6.875 1.0907 7.11 1.0857 7.26 1.2307L8.48 2.4007C8.59 2.5057 8.625 2.6707 8.57 2.8107C8.515 2.9507 8.375 3.0457 8.22 3.0457L4.25 3.0357C2.665 3.0357 1.375 4.3307 1.375 5.9207C1.375 6.6857 1.675 7.4107 2.22 7.9557C2.365 8.1007 2.365 8.3407 2.22 8.4857C2.145 8.5557 2.05 8.5907 1.955 8.5907Z" fill="currentColor"/>
<path d="M4.99995 10.875C4.90495 10.875 4.81495 10.84 4.73995 10.77L3.51995 9.6C3.40995 9.495 3.37495 9.33 3.42995 9.19C3.48495 9.05 3.62495 8.955 3.77995 8.955L7.75495 8.965C9.33995 8.965 10.6299 7.67 10.6299 6.08C10.6299 5.315 10.33 4.59 9.78495 4.045C9.63995 3.9 9.63995 3.66 9.78495 3.515C9.92995 3.37 10.1699 3.37 10.3149 3.515C11 4.205 11.3799 5.115 11.3799 6.08C11.3799 8.085 9.75495 9.715 7.75495 9.715L4.71995 9.705L5.26495 10.225C5.41495 10.37 5.41995 10.605 5.27495 10.755C5.19495 10.835 5.09995 10.875 4.99995 10.875Z" fill="currentColor"/>
<path d="M4.5 7.75H7.5C8.46 7.75 9.25 6.965 9.25 6C9.25 5.04 8.465 4.25 7.5 4.25H4.5C3.54 4.25 2.75 5.035 2.75 6C2.75 6.965 3.535 7.75 4.5 7.75Z" fill="currentColor"/>
</svg>
