<svg width="12" height="12" viewBox="0 0 12 12" fill="none" xmlns="http://www.w3.org/2000/svg">
<path d="M10.9854 9V9.5C10.9854 10.325 10.9854 11 9.48535 11H2.48535C0.985351 11 0.985352 10.325 0.985352 9.5V9C0.985352 8.725 1.21035 8.5 1.48535 8.5H10.4854C10.7604 8.5 10.9854 8.725 10.9854 9Z" fill="currentColor"/>
<path d="M7.20475 2.58989C7.22975 2.48989 7.24475 2.39489 7.24975 2.28989C7.26475 1.70989 6.90975 1.19989 6.34975 1.04989C5.50975 0.819886 4.74977 1.44989 4.74977 2.24989C4.74977 2.36989 4.76477 2.47989 4.79477 2.58989C2.98977 2.97489 1.63477 4.57989 1.63477 6.4999V7.2499C1.63477 7.5249 1.85977 7.7499 2.13477 7.7499H9.85975C10.1348 7.7499 10.3598 7.5249 10.3598 7.2499V6.4999C10.3598 4.57989 9.00975 2.97989 7.20475 2.58989ZM7.49975 5.8749H4.49977C4.29477 5.8749 4.12477 5.7049 4.12477 5.4999C4.12477 5.2949 4.29477 5.1249 4.49977 5.1249H7.49975C7.70475 5.1249 7.87475 5.2949 7.87475 5.4999C7.87475 5.7049 7.70475 5.8749 7.49975 5.8749Z" fill="currentColor"/>
</svg>
