<svg width="12" height="12" viewBox="0 0 12 12" fill="none" xmlns="http://www.w3.org/2000/svg">
<path d="M8.095 1H3.905C2.085 1 1 2.085 1 3.905V8.09C1 9.915 2.085 11 3.905 11H8.09C9.91 11 10.995 9.915 10.995 8.095V3.905C11 2.085 9.915 1 8.095 1ZM6 9.29C4.415 9.29 3.125 8 3.125 6.415C3.125 5.845 3.29 5.29 3.61 4.82C3.725 4.65 3.96 4.6 4.13 4.715C4.3 4.83 4.35 5.065 4.235 5.235C4 5.585 3.88 5.995 3.88 6.415C3.88 7.585 4.835 8.54 6.005 8.54C7.175 8.54 8.13 7.585 8.13 6.415C8.13 5.295 7.26 4.375 6.16 4.295L6.365 4.445C6.53 4.565 6.57 4.8 6.445 4.97C6.325 5.135 6.09 5.175 5.92 5.05L4.95 4.345C4.915 4.32 4.885 4.29 4.86 4.255C4.855 4.25 4.85 4.245 4.845 4.235C4.825 4.2 4.81 4.16 4.8 4.12C4.79 4.07 4.79 4.025 4.795 3.975C4.8 3.955 4.805 3.935 4.81 3.915C4.82 3.88 4.84 3.85 4.86 3.815C4.87 3.81 4.88 3.8 4.89 3.79L5.72 2.84C5.855 2.685 6.095 2.67 6.25 2.805C6.405 2.94 6.42 3.18 6.285 3.335L6.1 3.55C7.64 3.6 8.88 4.87 8.88 6.425C8.875 8 7.585 9.29 6 9.29Z" fill="currentColor"/>
</svg>
