<svg width="12" height="12" viewBox="0 0 12 12" fill="none" xmlns="http://www.w3.org/2000/svg">
<path d="M8.375 11H6.125C4.25 11 3.5 10.25 3.5 8.375V6.125C3.5 4.25 4.25 3.5 6.125 3.5H8.375C10.25 3.5 11 4.25 11 6.125V8.375C11 10.25 10.25 11 8.375 11Z" fill="currentColor"/>
<path d="M1.375 5.25C1.58 5.25 1.75 5.08 1.75 4.875C1.75 3.395 2.78 2.155 4.165 1.83L4.03 2.055C3.925 2.235 3.98 2.465 4.16 2.57C4.34 2.675 4.57 2.62 4.675 2.44L5.2 1.565C5.27 1.45 5.27 1.305 5.205 1.19C5.135 1.075 5.01 1 4.875 1C2.74 1 1 2.74 1 4.875C1 5.08 1.17 5.25 1.375 5.25Z" fill="currentColor"/>
</svg>
