<svg width="12" height="12" viewBox="0 0 12 12" fill="none" xmlns="http://www.w3.org/2000/svg">
<path d="M8.095 1H3.905C2.085 1 1 2.085 1 3.905V8.09C1 9.915 2.085 11 3.905 11H8.09C9.91 11 10.995 9.915 10.995 8.095V3.905C11 2.085 9.915 1 8.095 1ZM6 9.29C4.415 9.29 3.125 8 3.125 6.415C3.125 4.86 4.365 3.595 5.905 3.54L5.72 3.325C5.585 3.17 5.6 2.93 5.755 2.795C5.91 2.66 6.15 2.675 6.285 2.83L7.115 3.78C7.125 3.79 7.13 3.8 7.14 3.81C7.16 3.84 7.18 3.875 7.19 3.91C7.195 3.93 7.2 3.95 7.205 3.97C7.215 4.015 7.21 4.065 7.2 4.11C7.19 4.15 7.175 4.19 7.155 4.23C7.15 4.24 7.14 4.25 7.135 4.26C7.115 4.29 7.085 4.315 7.055 4.335C7.055 4.335 7.05 4.335 7.05 4.34L6.08 5.05C5.91 5.17 5.68 5.135 5.555 4.97C5.435 4.805 5.47 4.57 5.635 4.445L5.84 4.295C4.74 4.375 3.87 5.295 3.87 6.415C3.87 7.585 4.825 8.54 5.995 8.54C7.165 8.54 8.12 7.585 8.12 6.415C8.12 5.995 7.995 5.585 7.765 5.235C7.65 5.065 7.695 4.83 7.87 4.715C8.045 4.6 8.275 4.645 8.39 4.82C8.705 5.295 8.875 5.845 8.875 6.415C8.875 8 7.585 9.29 6 9.29Z" fill="currentColor"/>
</svg>
