<svg width="12" height="12" viewBox="0 0 12 12" fill="none" xmlns="http://www.w3.org/2000/svg">
<path d="M3.625 11H5.875C7.75 11 8.5 10.25 8.5 8.375V6.125C8.5 4.25 7.75 3.5 5.875 3.5H3.625C1.75 3.5 1 4.25 1 6.125V8.375C1 10.25 1.75 11 3.625 11Z" fill="currentColor"/>
<path d="M10.6252 5.25C10.4202 5.25 10.2502 5.08 10.2502 4.875C10.2502 3.395 9.2202 2.155 7.8352 1.83L7.9702 2.055C8.0752 2.235 8.0202 2.465 7.8402 2.57C7.6602 2.675 7.4302 2.62 7.3252 2.44L6.8002 1.565C6.7302 1.45 6.7302 1.305 6.7952 1.19C6.8652 1.075 6.9902 1 7.1252 1C9.2602 1 11.0002 2.74 11.0002 4.875C11.0002 5.08 10.8302 5.25 10.6252 5.25Z" fill="currentColor"/>
</svg>
