<svg width="12" height="12" viewBox="0 0 12 12" fill="none" xmlns="http://www.w3.org/2000/svg">
<path d="M5.99875 9.875H4.65875C4.07875 9.875 3.57375 9.525 3.37375 8.985C3.16875 8.445 3.31875 7.85 3.75375 7.465L7.74875 3.97C7.98875 3.76 7.99375 3.475 7.92375 3.28C7.84875 3.085 7.65875 2.875 7.33875 2.875H5.99875C5.79375 2.875 5.62375 2.705 5.62375 2.5C5.62375 2.295 5.79375 2.125 5.99875 2.125H7.33875C7.91875 2.125 8.42375 2.475 8.62375 3.015C8.82875 3.555 8.67875 4.15 8.24375 4.535L4.24875 8.03C4.00875 8.24 4.00375 8.525 4.07375 8.72C4.14875 8.915 4.33875 9.125 4.65875 9.125H5.99875C6.20375 9.125 6.37375 9.295 6.37375 9.5C6.37375 9.705 6.20375 9.875 5.99875 9.875Z" fill="currentColor"/>
<path d="M10 7.5H8.5C7.95 7.5 7.5 7.95 7.5 8.5V10C7.5 10.55 7.95 11 8.5 11H10C10.55 11 11 10.55 11 10V8.5C11 7.95 10.55 7.5 10 7.5ZM9.255 9.75C8.98 9.75 8.755 9.525 8.755 9.25C8.755 8.975 8.975 8.75 9.255 8.75H9.26C9.535 8.75 9.76 8.975 9.76 9.25C9.76 9.525 9.535 9.75 9.255 9.75Z" fill="currentColor"/>
<path d="M2.73438 1C1.76938 1 0.984375 1.785 0.984375 2.75C0.984375 3.715 1.76938 4.5 2.73438 4.5C3.69937 4.5 4.48438 3.715 4.48438 2.75C4.48438 1.785 3.70438 1 2.73438 1ZM2.75437 3.25C2.47938 3.25 2.25437 3.025 2.25437 2.75C2.25437 2.475 2.47438 2.25 2.75437 2.25H2.75938C3.03438 2.25 3.25938 2.475 3.25938 2.75C3.25938 3.025 3.03437 3.25 2.75437 3.25Z" fill="currentColor"/>
</svg>
