<svg width="12" height="12" viewBox="0 0 12 12" fill="none" xmlns="http://www.w3.org/2000/svg">
<path d="M4.44002 2.29938C4.04002 0.569376 1.43501 0.564376 1.03501 2.29938C0.800012 3.31438 1.44502 4.17438 2.00502 4.70938C2.41502 5.0944 3.06002 5.0944 3.47002 4.70938C4.03002 4.17438 4.67002 3.31438 4.44002 2.29938ZM2.75502 3.09938C2.48002 3.09938 2.25502 2.87438 2.25502 2.59938C2.25502 2.32438 2.47502 2.09938 2.75002 2.09938H2.75502C3.03502 2.09938 3.25502 2.32438 3.25502 2.59938C3.25502 2.87438 3.03502 3.09938 2.75502 3.09938Z" fill="currentColor"/>
<path d="M10.955 8.2994C10.555 6.5694 7.94 6.5644 7.535 8.2994C7.3 9.3144 7.945 10.1744 8.51 10.7094C8.92 11.0944 9.57 11.0944 9.98 10.7094C10.545 10.1744 11.19 9.3144 10.955 8.2994ZM9.265 9.0994C8.99 9.0994 8.765 8.8744 8.765 8.5994C8.765 8.3244 8.985 8.0994 9.26 8.0994H9.265C9.54 8.0994 9.765 8.3244 9.765 8.5994C9.765 8.8744 9.54 9.0994 9.265 9.0994Z" fill="currentColor"/>
<path d="M5.99975 9.875H4.65973C4.07973 9.875 3.57473 9.525 3.37473 8.985C3.16973 8.445 3.31973 7.85 3.75473 7.465L7.74975 3.97C7.98975 3.76 7.99475 3.475 7.92475 3.28C7.84975 3.085 7.65975 2.875 7.33975 2.875H5.99975C5.79475 2.875 5.62475 2.705 5.62475 2.5C5.62475 2.295 5.79475 2.125 5.99975 2.125H7.33975C7.91975 2.125 8.42475 2.475 8.62475 3.015C8.82975 3.555 8.67975 4.15 8.24475 4.535L4.24973 8.03C4.00973 8.24 4.00473 8.525 4.07473 8.72C4.14973 8.915 4.33973 9.125 4.65973 9.125H5.99975C6.20475 9.125 6.37475 9.295 6.37475 9.5C6.37475 9.705 6.20475 9.875 5.99975 9.875Z" fill="currentColor"/>
</svg>
