<svg width="12" height="12" viewBox="0 0 12 12" fill="none" xmlns="http://www.w3.org/2000/svg">
<path d="M9.23535 1H7.23535C6.48895 1 5.87195 1.6429 5.75525 2.37602C5.7335 2.51237 5.8473 2.625 5.98535 2.625H8.23535C8.44035 2.625 8.61035 2.795 8.61035 3C8.61035 3.205 8.44035 3.375 8.23535 3.375H5.98535C5.8473 3.375 5.73535 3.48693 5.73535 3.625V4.375C5.73535 4.51307 5.8473 4.625 5.98535 4.625H7.14035C7.34535 4.625 7.51535 4.795 7.51535 5C7.51535 5.205 7.34535 5.375 7.14035 5.375H5.98535C5.8473 5.375 5.73535 5.48695 5.73535 5.625V6.3525C5.73535 6.4896 5.84575 6.6011 5.98285 6.60245L8.23535 6.625C8.44535 6.625 8.61035 6.795 8.61035 7.005C8.60535 7.21 8.44035 7.375 8.23535 7.375C8.23035 7.375 8.23035 7.375 8.23035 7.375L5.98785 7.35255C5.8488 7.35115 5.73535 7.46345 5.73535 7.6025V8.375C5.73535 8.51305 5.8473 8.625 5.98535 8.625H7.68535C7.89535 8.625 8.06035 8.795 8.06035 9C8.06035 9.205 7.89535 9.375 7.68535 9.375H5.98535C5.8473 9.375 5.7335 9.48765 5.75525 9.624C5.87195 10.3571 6.48895 11 7.23535 11H9.23535C10.0603 11 10.7353 10.33 10.7353 9.5V2.5C10.7353 1.67 10.0603 1 9.23535 1Z" fill="currentColor"/>
<path d="M4.21965 2.475V2.875C4.21965 3.01307 4.10772 3.125 3.96965 3.125H1.51465C1.37657 3.125 1.26465 3.01307 1.26465 2.875V2.475C1.26465 1.665 1.92965 1 2.74465 1C3.55465 1 4.21965 1.665 4.21965 2.475Z" fill="currentColor"/>
<path d="M1.26465 8.955C1.26465 9.18 1.35965 9.525 1.47965 9.715L1.88465 10.395C2.35965 11.185 3.12965 11.185 3.59965 10.395L4.00965 9.715C4.12465 9.525 4.21965 9.18 4.21965 8.955V4.125C4.21965 3.98693 4.10772 3.875 3.96965 3.875H1.51465C1.37657 3.875 1.26465 3.98693 1.26465 4.125V8.955Z" fill="currentColor"/>
</svg>
