<svg width="12" height="12" viewBox="0 0 12 12" fill="none" xmlns="http://www.w3.org/2000/svg">
<path d="M9.5 3.5C9.43 3.5 9.375 3.555 9.375 3.625V6C9.375 6.205 9.205 6.375 9 6.375C8.795 6.375 8.625 6.205 8.625 6V3.625C8.625 3.555 8.57 3.5 8.5 3.5H7.5C7.43 3.5 7.375 3.555 7.375 3.625V4.8C7.375 5.005 7.205 5.175 7 5.175C6.795 5.175 6.625 5.005 6.625 4.8V3.625C6.625 3.555 6.57 3.5 6.5 3.5H5.52C5.45 3.5 5.395 3.555 5.395 3.625L5.375 6.005C5.375 6.21 5.205 6.375 5 6.375C5 6.375 5 6.375 4.995 6.375C4.79 6.375 4.625 6.205 4.625 5.995L4.645 3.625C4.645 3.555 4.59 3.5 4.52 3.5H3.5C3.43 3.5 3.375 3.555 3.375 3.625V5.4C3.375 5.605 3.205 5.775 3 5.775C2.795 5.775 2.625 5.605 2.625 5.4V3.625C2.625 3.555 2.57 3.5 2.5 3.5C1.67 3.5 1 4.17 1 5V7C1 7.83 1.67 8.5 2.5 8.5H9.5C10.33 8.5 11 7.83 11 7V5C11 4.17 10.33 3.5 9.5 3.5Z" fill="currentColor"/>
</svg>
