<svg width="12" height="12" viewBox="0 0 12 12" fill="none" xmlns="http://www.w3.org/2000/svg">
<path d="M11.4999 7.6857V8.7807C11.4999 10.0007 10.6099 11.1507 9.3999 11.4857C9.3149 11.5057 9.2249 11.5057 9.1449 11.4857C8.5549 11.3257 8.0349 10.9657 7.6699 10.5007C7.2749 10.0107 7.0449 9.4057 7.0449 8.7807V7.6857C7.0449 7.4757 7.1999 7.2457 7.3899 7.1657L8.7799 6.5957C9.0949 6.4707 9.4449 6.4707 9.7599 6.5957L10.2599 6.8007L11.1549 7.1657C11.3449 7.2457 11.4999 7.4757 11.4999 7.6857Z" fill="currentColor"/>
<path d="M10.4747 5.50565L10.3847 6.04065L10.0347 5.90065C9.53965 5.70065 8.99965 5.70065 8.49465 5.90065L7.09965 6.47565C6.62465 6.67565 6.29465 7.17065 6.29465 7.68565V8.78065C6.29465 9.37565 6.45965 9.97065 6.76465 10.5006H3.08965C2.40465 10.5006 1.75965 9.95565 1.64465 9.28065L1.01465 5.50565C0.934652 5.04065 1.16965 4.41563 1.53965 4.12063L4.82965 1.49063C5.33465 1.08563 6.15465 1.08563 6.65965 1.49563L9.94965 4.12063C10.3147 4.41563 10.5547 5.04065 10.4747 5.50565Z" fill="currentColor"/>
</svg>
