<svg width="12" height="12" viewBox="0 0 12 12" fill="none" xmlns="http://www.w3.org/2000/svg">
<path d="M10.8448 1.355C10.8048 1.265 10.7348 1.19 10.6398 1.15C10.5948 1.135 10.5498 1.125 10.4998 1.125H5.99975C5.79475 1.125 5.62475 1.295 5.62475 1.5C5.62475 1.705 5.79475 1.875 5.99975 1.875H9.59475L1.23473 10.235C1.08973 10.38 1.08973 10.62 1.23473 10.765C1.30973 10.84 1.40473 10.875 1.49973 10.875C1.59473 10.875 1.68973 10.84 1.76473 10.765L10.1248 2.405V6C10.1248 6.205 10.2948 6.375 10.4998 6.375C10.7048 6.375 10.8748 6.205 10.8748 6V1.5C10.8748 1.45 10.8648 1.405 10.8448 1.355Z" fill="currentColor"/>
<path d="M8.69955 9.07455C8.60455 9.07455 8.50955 9.03955 8.43455 8.96455L3.03453 3.56453C2.88953 3.41953 2.88953 3.17953 3.03453 3.03453C3.17953 2.88953 3.41953 2.88953 3.56453 3.03453L8.96455 8.43455C9.10955 8.57955 9.10955 8.81955 8.96455 8.96455C8.88955 9.03955 8.79455 9.07455 8.69955 9.07455Z" fill="currentColor"/>
</svg>
