<svg width="12" height="12" viewBox="0 0 12 12" fill="none" xmlns="http://www.w3.org/2000/svg">
<path d="M10.9999 2.555V8.235C10.9999 8.96 10.4799 9.265 9.8449 8.915L8.8799 8.375C8.7999 8.33 8.7499 8.245 8.7499 8.155V4.495C8.7499 3.225 7.7149 2.19 6.4449 2.19H4.40992C4.22492 2.19 4.09492 1.995 4.17992 1.835C4.43992 1.34 4.95992 1 5.5549 1H9.4449C10.2999 1 10.9999 1.7 10.9999 2.555Z" fill="currentColor"/>
<path d="M6.445 2.93946H2.555C1.7 2.93946 1 3.63945 1 4.49445V10.1744C1 10.8995 1.52 11.2045 2.155 10.8545L4.12 9.75945C4.33 9.64445 4.67 9.64445 4.88 9.75945L6.845 10.8545C7.48 11.2045 8 10.8995 8 10.1744V4.49445C8 3.63945 7.3 2.93946 6.445 2.93946ZM5.47 6.43945C5.615 6.58445 5.615 6.82445 5.47 6.96945C5.395 7.04445 5.3 7.07945 5.205 7.07945C5.11 7.07945 5.015 7.04445 4.94 6.96945L4.5 6.52945L4.06 6.96945C3.985 7.04445 3.89 7.07945 3.795 7.07945C3.7 7.07945 3.605 7.04445 3.53 6.96945C3.385 6.82445 3.385 6.58445 3.53 6.43945L3.97 5.99945L3.53 5.55945C3.385 5.41445 3.385 5.17445 3.53 5.02945C3.675 4.88445 3.915 4.88445 4.06 5.02945L4.5 5.46945L4.94 5.02945C5.085 4.88445 5.325 4.88445 5.47 5.02945C5.615 5.17445 5.615 5.41445 5.47 5.55945L5.03 5.99945L5.47 6.43945Z" fill="currentColor"/>
</svg>
