<svg width="12" height="12" viewBox="0 0 12 12" fill="none" xmlns="http://www.w3.org/2000/svg">
<path d="M10.9999 2.555V8.235C10.9999 8.96 10.4799 9.265 9.8449 8.915L8.8799 8.375C8.7999 8.33 8.7499 8.245 8.7499 8.155V4.495C8.7499 3.225 7.7149 2.19 6.4449 2.19H4.40992C4.22492 2.19 4.09492 1.995 4.17992 1.835C4.43992 1.34 4.95992 1 5.5549 1H9.4449C10.2999 1 10.9999 1.7 10.9999 2.555Z" fill="currentColor"/>
<path d="M6.445 2.93946H2.555C1.7 2.93946 1 3.63945 1 4.49445V10.1744C1 10.8995 1.52 11.2045 2.155 10.8545L4.12 9.75945C4.33 9.64445 4.67 9.64445 4.88 9.75945L6.845 10.8545C7.48 11.2045 8 10.8995 8 10.1744V4.49445C8 3.63945 7.3 2.93946 6.445 2.93946ZM5.5 6.37445H3.5C3.295 6.37445 3.125 6.20445 3.125 5.99945C3.125 5.79445 3.295 5.62445 3.5 5.62445H5.5C5.705 5.62445 5.875 5.79445 5.875 5.99945C5.875 6.20445 5.705 6.37445 5.5 6.37445Z" fill="currentColor"/>
</svg>
