<svg width="12" height="12" viewBox="0 0 12 12" fill="none" xmlns="http://www.w3.org/2000/svg">
<g clip-path="url(#clip0_1652_3045)">
<path d="M1 4.875C0.795 4.875 0.625 4.705 0.625 4.5V3.25C0.625 1.8 1.805 0.625 3.25 0.625H4.5C4.705 0.625 4.875 0.795 4.875 1C4.875 1.205 4.705 1.375 4.5 1.375H3.25C2.215 1.375 1.375 2.215 1.375 3.25V4.5C1.375 4.705 1.205 4.875 1 4.875Z" fill="currentColor"/>
<path d="M11 4.875C10.795 4.875 10.625 4.705 10.625 4.5V3.25C10.625 2.215 9.785 1.375 8.75 1.375H7.5C7.295 1.375 7.125 1.205 7.125 1C7.125 0.795 7.295 0.625 7.5 0.625H8.75C10.195 0.625 11.375 1.8 11.375 3.25V4.5C11.375 4.705 11.205 4.875 11 4.875Z" fill="currentColor"/>
<path d="M8.75 11.375H8C7.795 11.375 7.625 11.205 7.625 11C7.625 10.795 7.795 10.625 8 10.625H8.75C9.785 10.625 10.625 9.785 10.625 8.75V8C10.625 7.795 10.795 7.625 11 7.625C11.205 7.625 11.375 7.795 11.375 8V8.75C11.375 10.2 10.195 11.375 8.75 11.375Z" fill="currentColor"/>
<path d="M4.5 11.375H3.25C1.805 11.375 0.625 10.2 0.625 8.75V7.5C0.625 7.295 0.795 7.125 1 7.125C1.205 7.125 1.375 7.295 1.375 7.5V8.75C1.375 9.785 2.215 10.625 3.25 10.625H4.5C4.705 10.625 4.875 10.795 4.875 11C4.875 11.205 4.705 11.375 4.5 11.375Z" fill="currentColor"/>
<path d="M4.5 2.625H3.5C2.93 2.625 2.625 2.925 2.625 3.5V4.5C2.625 5.075 2.93 5.375 3.5 5.375H4.5C5.07 5.375 5.375 5.075 5.375 4.5V3.5C5.375 2.925 5.07 2.625 4.5 2.625Z" fill="currentColor"/>
<path d="M8.5 2.625H7.5C6.93 2.625 6.625 2.925 6.625 3.5V4.5C6.625 5.075 6.93 5.375 7.5 5.375H8.5C9.07 5.375 9.375 5.075 9.375 4.5V3.5C9.375 2.925 9.07 2.625 8.5 2.625Z" fill="currentColor"/>
<path d="M4.5 6.625H3.5C2.93 6.625 2.625 6.925 2.625 7.5V8.5C2.625 9.075 2.93 9.375 3.5 9.375H4.5C5.07 9.375 5.375 9.075 5.375 8.5V7.5C5.375 6.925 5.07 6.625 4.5 6.625Z" fill="currentColor"/>
<path d="M8.5 6.625H7.5C6.93 6.625 6.625 6.925 6.625 7.5V8.5C6.625 9.075 6.93 9.375 7.5 9.375H8.5C9.07 9.375 9.375 9.075 9.375 8.5V7.5C9.375 6.925 9.07 6.625 8.5 6.625Z" fill="currentColor"/>
</g>
<defs>
<clipPath id="clip0_1652_3045">
<rect width="12" height="12" fill="currentColor"/>
</clipPath>
</defs>
</svg>
