<svg width="12" height="12" viewBox="0 0 12 12" fill="none" xmlns="http://www.w3.org/2000/svg">
<path d="M1.385 5C1.17 5 1 4.83 1 4.615V3.46C1 2.105 2.105 1 3.46 1H4.615C4.83 1 5 1.17 5 1.385C5 1.6 4.83 1.77 4.615 1.77H3.46C2.525 1.77 1.77 2.53 1.77 3.46V4.615C1.77 4.83 1.595 5 1.385 5Z" fill="currentColor"/>
<path d="M10.615 5C10.405 5 10.23 4.83 10.23 4.615V3.46C10.23 2.525 9.47 1.77 8.54 1.77H7.385C7.17 1.77 7 1.595 7 1.385C7 1.175 7.17 1 7.385 1H8.54C9.895 1 11 2.105 11 3.46V4.615C11 4.83 10.83 5 10.615 5Z" fill="currentColor"/>
<path d="M8.54095 10.9999H7.84595C7.63595 10.9999 7.46095 10.8299 7.46095 10.6149C7.46095 10.4049 7.63095 10.2298 7.84595 10.2298H8.54095C9.47595 10.2298 10.231 9.46985 10.231 8.53985V7.84985C10.231 7.63985 10.4009 7.46485 10.6159 7.46485C10.8259 7.46485 11.0009 7.63485 11.0009 7.84985V8.53985C11.0009 9.89485 9.89595 10.9999 8.54095 10.9999Z" fill="currentColor"/>
<path d="M4.615 11H3.46C2.105 11 1 9.895 1 8.54V7.385C1 7.17 1.17 7 1.385 7C1.6 7 1.77 7.17 1.77 7.385V8.54C1.77 9.475 2.53 10.23 3.46 10.23H4.615C4.825 10.23 5 10.4 5 10.615C5 10.83 4.83 11 4.615 11Z" fill="currentColor"/>
<path d="M9.22975 5.61525H2.76976C2.55476 5.61525 2.38476 5.79025 2.38476 6.00025C2.38476 6.21025 2.55476 6.38525 2.76976 6.38525H9.22975C9.44475 6.38525 9.61475 6.21025 9.61475 6.00025C9.61475 5.79025 9.44475 5.61525 9.22975 5.61525Z" fill="currentColor"/>
<path d="M3.44922 6.97025V7.13525C3.44922 7.96525 4.11922 8.63525 4.94922 8.63525H7.0492C7.8792 8.63525 8.5492 7.96525 8.5492 7.13525V6.97025C8.5492 6.91025 8.5042 6.86525 8.4442 6.86525H3.55422C3.49422 6.86525 3.44922 6.91025 3.44922 6.97025Z" fill="currentColor"/>
<path d="M3.44922 5.03025V4.86523C3.44922 4.03523 4.11922 3.36524 4.94922 3.36524H7.0492C7.8792 3.36524 8.5492 4.03523 8.5492 4.86523V5.03025C8.5492 5.09025 8.5042 5.13525 8.4442 5.13525H3.55422C3.49422 5.13525 3.44922 5.09025 3.44922 5.03025Z" fill="currentColor"/>
</svg>
