<svg width="12" height="12" viewBox="0 0 12 12" fill="none" xmlns="http://www.w3.org/2000/svg">
<g clip-path="url(#clip0_1652_3054)">
<path d="M11 4.875C10.795 4.875 10.625 4.705 10.625 4.5V3.5C10.625 2.21 9.79 1.375 8.5 1.375H3.5C2.21 1.375 1.375 2.21 1.375 3.5V4.5C1.375 4.705 1.205 4.875 1 4.875C0.795 4.875 0.625 4.705 0.625 4.5V3.5C0.625 1.78 1.78 0.625 3.5 0.625H8.5C10.22 0.625 11.375 1.78 11.375 3.5V4.5C11.375 4.705 11.205 4.875 11 4.875Z" fill="currentColor"/>
<path d="M8.5 11.375H3.5C1.78 11.375 0.625 10.22 0.625 8.5V7.5C0.625 7.295 0.795 7.125 1 7.125C1.205 7.125 1.375 7.295 1.375 7.5V8.5C1.375 9.79 2.21 10.625 3.5 10.625H8.5C9.79 10.625 10.625 9.79 10.625 8.5V7.5C10.625 7.295 10.795 7.125 11 7.125C11.205 7.125 11.375 7.295 11.375 7.5V8.5C11.375 10.22 10.22 11.375 8.5 11.375Z" fill="currentColor"/>
<path d="M11 6.375H1C0.795 6.375 0.625 6.205 0.625 6C0.625 5.795 0.795 5.625 1 5.625H11C11.205 5.625 11.375 5.795 11.375 6C11.375 6.205 11.205 6.375 11 6.375Z" fill="currentColor"/>
<path d="M8.25 4.5H3.75C3.61 4.5 3.5 4.39 3.5 4.25V3.25C3.5 2.835 3.835 2.5 4.25 2.5H7.75C8.165 2.5 8.5 2.835 8.5 3.25V4.25C8.5 4.39 8.39 4.5 8.25 4.5Z" fill="currentColor"/>
<path d="M8.25 7.5H3.75C3.61 7.5 3.5 7.61 3.5 7.75V8.75C3.5 9.165 3.835 9.5 4.25 9.5H7.75C8.16 9.5 8.5 9.165 8.5 8.75V7.75C8.5 7.61 8.39 7.5 8.25 7.5Z" fill="currentColor"/>
</g>
<defs>
<clipPath id="clip0_1652_3054">
<rect width="12" height="12" fill="currentColor"/>
</clipPath>
</defs>
</svg>
