<svg width="12" height="12" viewBox="0 0 12 12" fill="none" xmlns="http://www.w3.org/2000/svg">
<path d="M8.095 1H3.905C2.085 1 1 2.085 1 3.905V8.09C1 9.915 2.085 11 3.905 11H8.09C9.91 11 10.995 9.915 10.995 8.095V3.905C11 2.085 9.915 1 8.095 1ZM8.88 7.34C9.045 7.465 9.08 7.7 8.955 7.865C8.88 7.965 8.77 8.015 8.655 8.015C8.575 8.015 8.5 7.99 8.43 7.94L6.455 6.465L5.25 7.365C5.255 7.415 5.265 7.465 5.265 7.515C5.265 8.15 4.75 8.665 4.115 8.665C3.48 8.665 2.965 8.15 2.965 7.515C2.965 6.88 3.48 6.365 4.115 6.365C4.425 6.365 4.7 6.49 4.905 6.685L5.825 5.995L4.91 5.31C4.705 5.51 4.42 5.635 4.11 5.635C3.475 5.635 2.96 5.12 2.96 4.485C2.96 3.85 3.475 3.335 4.11 3.335C4.745 3.335 5.26 3.85 5.26 4.485C5.26 4.535 5.25 4.58 5.245 4.625L6.445 5.525L8.42 4.05C8.585 3.925 8.82 3.96 8.945 4.125C9.07 4.29 9.035 4.525 8.87 4.65L7.07 5.995L8.88 7.34Z" fill="currentColor"/>
</svg>
