<svg width="12" height="12" viewBox="0 0 12 12" fill="none" xmlns="http://www.w3.org/2000/svg">
<path d="M2.75 5C3.7165 5 4.5 4.2165 4.5 3.25C4.5 2.2835 3.7165 1.5 2.75 1.5C1.7835 1.5 1 2.2835 1 3.25C1 4.2165 1.7835 5 2.75 5Z" fill="currentColor"/>
<path d="M2.75 10.5C3.7165 10.5 4.5 9.7165 4.5 8.75C4.5 7.7835 3.7165 7 2.75 7C1.7835 7 1 7.7835 1 8.75C1 9.7165 1.7835 10.5 2.75 10.5Z" fill="currentColor"/>
<path d="M7.62455 5.99015L11.2246 3.30013C11.3896 3.17513 11.4245 2.94014 11.2995 2.77514C11.1745 2.61014 10.9396 2.57513 10.7746 2.70013L6.99955 5.52515L4.22455 3.44514C4.05955 3.32514 3.82455 3.35513 3.69955 3.52013C3.57455 3.68513 3.60955 3.92014 3.77455 4.04514L6.37455 5.99015L3.42455 8.20015C3.25955 8.32515 3.22455 8.56015 3.34955 8.72515C3.42455 8.82515 3.53455 8.87515 3.64955 8.87515C3.72955 8.87515 3.80455 8.85015 3.87455 8.80015L6.99955 6.46015L10.7746 9.28515C10.8396 9.33515 10.9195 9.36015 10.9995 9.36015C11.1145 9.36015 11.2245 9.31015 11.2995 9.21015C11.4245 9.04515 11.3896 8.81015 11.2246 8.68515L7.62455 5.99015Z" fill="currentColor"/>
</svg>
