<svg width="12" height="12" viewBox="0 0 12 12" fill="none" xmlns="http://www.w3.org/2000/svg">
<path d="M8.095 1H3.905C2.085 1 1 2.085 1 3.905V8.09C1 9.915 2.085 11 3.905 11H8.09C9.91 11 10.995 9.915 10.995 8.095V3.905C11 2.085 9.915 1 8.095 1ZM5.065 7.25C5.21 7.395 5.21 7.635 5.065 7.78C4.99 7.855 4.895 7.89 4.8 7.89C4.705 7.89 4.61 7.855 4.535 7.78L3.29 6.535C2.995 6.24 2.995 5.765 3.29 5.47L4.535 4.225C4.68 4.08 4.92 4.08 5.065 4.225C5.21 4.37 5.21 4.61 5.065 4.755L3.82 6L5.065 7.25ZM8.71 6.53L7.465 7.775C7.39 7.85 7.295 7.885 7.2 7.885C7.105 7.885 7.01 7.85 6.935 7.775C6.79 7.63 6.79 7.39 6.935 7.245L8.18 6L6.935 4.75C6.79 4.605 6.79 4.365 6.935 4.22C7.08 4.075 7.32 4.075 7.465 4.22L8.71 5.465C9.005 5.76 9.005 6.24 8.71 6.53Z" fill="currentColor"/>
</svg>
