<svg width="12" height="12" viewBox="0 0 12 12" fill="none" xmlns="http://www.w3.org/2000/svg">
<path d="M10.6503 10.9993C10.5603 10.9993 10.4702 10.9643 10.4052 10.8993L9.47525 9.9693C9.34025 9.8343 9.34025 9.6143 9.47525 9.4743C9.61025 9.3393 9.83025 9.3393 9.97025 9.4743L10.9003 10.4043C11.0353 10.5393 11.0353 10.7593 10.9003 10.8993C10.8303 10.9643 10.7403 10.9993 10.6503 10.9993Z" fill="currentColor"/>
<path d="M5.75 1C3.13 1 1 3.13 1 5.75C1 8.37 3.13 10.5 5.75 10.5C8.37 10.5 10.5 8.37 10.5 5.75C10.5 3.13 8.37 1 5.75 1ZM7.34 6.03C7.06 6.92 6.085 7.405 5.75 7.405C5.405 7.405 4.45 6.94 4.16 6.03C3.97 5.435 4.185 4.66 4.865 4.445C5.175 4.345 5.505 4.405 5.75 4.59C5.99 4.405 6.325 4.345 6.64 4.445C7.315 4.665 7.53 5.44 7.34 6.03Z" fill="currentColor"/>
</svg>
