<svg width="12" height="12" viewBox="0 0 12 12" fill="none" xmlns="http://www.w3.org/2000/svg">
<path d="M10.6503 10.9993C10.5603 10.9993 10.4702 10.9643 10.4052 10.8993L9.47525 9.9693C9.34025 9.8343 9.34025 9.6143 9.47525 9.4743C9.61025 9.3393 9.83025 9.3393 9.97025 9.4743L10.9003 10.4043C11.0353 10.5393 11.0353 10.7593 10.9003 10.8993C10.8303 10.9643 10.7403 10.9993 10.6503 10.9993Z" fill="currentColor"/>
<path d="M5.75 1C3.13 1 1 3.13 1 5.75C1 8.37 3.13 10.5 5.75 10.5C8.37 10.5 10.5 8.37 10.5 5.75C10.5 3.13 8.37 1 5.75 1ZM7.1 6.225H6.225V7.1C6.225 7.305 6.055 7.475 5.85 7.475C5.645 7.475 5.475 7.305 5.475 7.1V6.225H4.6C4.395 6.225 4.225 6.055 4.225 5.85C4.225 5.645 4.395 5.475 4.6 5.475H5.475V4.6C5.475 4.395 5.645 4.225 5.85 4.225C6.055 4.225 6.225 4.395 6.225 4.6V5.475H7.1C7.305 5.475 7.475 5.645 7.475 5.85C7.475 6.055 7.305 6.225 7.1 6.225Z" fill="currentColor"/>
</svg>
