<svg width="12" height="12" viewBox="0 0 12 12" fill="none" xmlns="http://www.w3.org/2000/svg">
<path d="M5.505 10.01C7.99305 10.01 10.01 7.99305 10.01 5.505C10.01 3.01696 7.99305 1 5.505 1C3.01696 1 1 3.01696 1 5.505C1 7.99305 3.01696 10.01 5.505 10.01Z" fill="currentColor"/>
<path d="M10.9951 9.475C10.8301 9.17 10.4801 9 10.01 9C9.65505 9 9.35005 9.145 9.17005 9.395C8.99005 9.645 8.95005 9.98 9.06005 10.315C9.27505 10.965 9.65005 11.11 9.85505 11.135C9.88505 11.14 9.91505 11.14 9.95005 11.14C10.1701 11.14 10.51 11.045 10.84 10.55C11.1051 10.165 11.1551 9.78 10.9951 9.475Z" fill="currentColor"/>
</svg>
