<svg width="12" height="12" viewBox="0 0 12 12" fill="none" xmlns="http://www.w3.org/2000/svg">
<g clip-path="url(#clip0_1652_3044)">
<path d="M5.5001 0.994141C3.01512 0.994141 0.995117 3.01414 0.995117 5.49915C0.995117 7.98415 3.01512 10.0042 5.5001 10.0042C7.9851 10.0042 10.0051 7.98415 10.0051 5.49915C10.0051 3.01414 7.9851 0.994141 5.5001 0.994141ZM5.5001 6.62415H4.00012C3.79512 6.62415 3.62512 6.45415 3.62512 6.24915C3.62512 6.04415 3.79512 5.87415 4.00012 5.87415H5.5001C5.7051 5.87415 5.8751 6.04415 5.8751 6.24915C5.8751 6.45415 5.7051 6.62415 5.5001 6.62415ZM7.0001 5.12415H4.00012C3.79512 5.12415 3.62512 4.95414 3.62512 4.74914C3.62512 4.54414 3.79512 4.37414 4.00012 4.37414H7.0001C7.2051 4.37414 7.3751 4.54414 7.3751 4.74914C7.3751 4.95414 7.2051 5.12415 7.0001 5.12415Z" fill="currentColor"/>
<path d="M10.9951 9.475C10.8301 9.17 10.4801 9 10.0101 9C9.65505 9 9.35005 9.145 9.17005 9.395C8.99005 9.645 8.95005 9.98 9.06005 10.315C9.27505 10.965 9.65005 11.11 9.85505 11.135C9.88505 11.14 9.91505 11.14 9.95005 11.14C10.1701 11.14 10.5101 11.045 10.8401 10.55C11.1051 10.165 11.1551 9.78 10.9951 9.475Z" fill="currentColor"/>
<path d="M10.9951 9.475C10.8301 9.17 10.4801 9 10.0101 9C9.65505 9 9.35005 9.145 9.17005 9.395C8.99005 9.645 8.95005 9.98 9.06005 10.315C9.27505 10.965 9.65005 11.11 9.85505 11.135C9.88505 11.14 9.91505 11.14 9.95005 11.14C10.1701 11.14 10.5101 11.045 10.8401 10.55C11.1051 10.165 11.1551 9.78 10.9951 9.475Z" fill="currentColor"/>
</g>
<defs>
<clipPath id="clip0_1652_3044">
<rect width="12" height="12" fill="currentColor"/>
</clipPath>
</defs>
</svg>
