<svg width="12" height="12" viewBox="0 0 12 12" fill="none" xmlns="http://www.w3.org/2000/svg">
<path d="M6 4.125C5.105 4.125 4.375 4.855 4.375 5.75C4.375 6.645 5.105 7.375 6 7.375C6.895 7.375 7.625 6.645 7.625 5.75C7.625 4.855 6.895 4.125 6 4.125ZM6.5 5.59C6.5 5.895 6.335 6.185 6.075 6.34L5.69 6.57C5.63 6.605 5.565 6.625 5.495 6.625C5.37 6.625 5.245 6.56 5.175 6.445C5.07 6.265 5.125 6.035 5.305 5.93L5.685 5.7C5.725 5.675 5.745 5.635 5.745 5.595V5.13C5.745 4.925 5.915 4.755 6.12 4.755C6.325 4.755 6.5 4.92 6.5 5.125V5.59Z" fill="currentColor"/>
<path d="M9.2704 2.08531L6.5204 1.05531C6.2354 0.950314 5.7704 0.950314 5.4854 1.05531L2.73539 2.08531C2.20539 2.28531 1.77539 2.90531 1.77539 3.47031V7.5203C1.77539 7.9253 2.04039 8.4603 2.36539 8.7003L5.1154 10.7553C5.6004 11.1203 6.3954 11.1203 6.8804 10.7553L9.6304 8.7003C9.9554 8.4553 10.2204 7.9253 10.2204 7.5203V3.47031C10.2254 2.90531 9.7954 2.28531 9.2704 2.08531ZM6.0004 8.1253C4.69039 8.1253 3.62539 7.0603 3.62539 5.7503C3.62539 4.44031 4.69039 3.37531 6.0004 3.37531C7.3104 3.37531 8.3754 4.44031 8.3754 5.7503C8.3754 7.0603 7.3104 8.1253 6.0004 8.1253Z" fill="currentColor"/>
</svg>
