<svg width="12" height="12" viewBox="0 0 12 12" fill="none" xmlns="http://www.w3.org/2000/svg">
<path d="M10.4549 5.56015V3.36516C10.4549 2.95516 10.1449 2.49016 9.7599 2.33516L6.9749 1.19516C6.3499 0.940156 5.6449 0.940156 5.0199 1.19516L2.23492 2.33516C1.85492 2.49016 1.54492 2.95516 1.54492 3.36516V5.56015C1.54492 8.00515 3.31992 10.2952 5.7449 10.9652C5.9099 11.0102 6.0899 11.0102 6.2549 10.9652C8.6799 10.2952 10.4549 8.00515 10.4549 5.56015ZM6.3749 6.43515V7.75015C6.3749 7.95515 6.2049 8.12515 5.9999 8.12515C5.7949 8.12515 5.6249 7.95515 5.6249 7.75015V6.43515C5.1199 6.27515 4.74992 5.80515 4.74992 5.25015C4.74992 4.56016 5.3099 4.00016 5.9999 4.00016C6.6899 4.00016 7.2499 4.56016 7.2499 5.25015C7.2499 5.81015 6.8799 6.27515 6.3749 6.43515Z" fill="currentColor"/>
</svg>
