<svg width="12" height="12" viewBox="0 0 12 12" fill="none" xmlns="http://www.w3.org/2000/svg">
<path d="M9.16405 2.835L3.29407 8.705C3.07407 8.925 2.70407 8.895 2.52407 8.635C1.90407 7.73 1.53906 6.66 1.53906 5.56V3.365C1.53906 2.955 1.84907 2.49 2.22907 2.335L5.01405 1.195C5.64405 0.935 6.34405 0.935 6.97405 1.195L8.99905 2.02C9.32905 2.155 9.41405 2.585 9.16405 2.835Z" fill="currentColor"/>
<path d="M9.635 3.5208C9.96 3.2458 10.455 3.4808 10.455 3.9058V5.5608C10.455 8.0058 8.68 10.2958 6.255 10.9658C6.09 11.0108 5.91 11.0108 5.74 10.9658C5.03 10.7658 4.37001 10.4308 3.80501 9.9908C3.56501 9.8058 3.54001 9.4558 3.75001 9.2408C4.84001 8.1258 8.03 4.8758 9.635 3.5208Z" fill="currentColor"/>
</svg>
