<svg width="12" height="12" viewBox="0 0 12 12" fill="none" xmlns="http://www.w3.org/2000/svg">
<path d="M9.2501 2.05516L6.7551 1.12016C6.3401 0.965156 5.6601 0.965156 5.2451 1.12016L2.75008 2.05516C2.17508 2.27016 1.70508 2.95016 1.70508 3.56016V7.27515C1.70508 7.86515 2.09508 8.64015 2.57008 8.99515L4.72008 10.6002C5.4251 11.1302 6.5851 11.1302 7.2901 10.6002L9.4401 8.99515C9.9151 8.64015 10.3051 7.86515 10.3051 7.27515V3.56016C10.2951 2.95016 9.8251 2.27016 9.2501 2.05516ZM5.9651 3.51516C6.5551 3.51516 7.0351 3.99516 7.0351 4.58516C7.0351 5.16515 6.5801 5.63015 6.0051 5.65015H5.9951H5.9851C5.9751 5.65015 5.9651 5.65015 5.9551 5.65015C5.3551 5.63015 4.90508 5.16515 4.90508 4.58516C4.90008 3.99516 5.3801 3.51516 5.9651 3.51516ZM7.0951 8.18015C6.7901 8.38015 6.3951 8.48515 6.0001 8.48515C5.6051 8.48515 5.2051 8.38515 4.90508 8.18015C4.62008 7.99015 4.46508 7.73015 4.46008 7.44515C4.46008 7.16515 4.62008 6.89515 4.90508 6.70515C5.5101 6.30515 6.4951 6.30515 7.1001 6.70515C7.3851 6.89515 7.5451 7.15515 7.5451 7.44015C7.5401 7.72015 7.3801 7.99015 7.0951 8.18015Z" fill="currentColor"/>
</svg>
