<svg width="12" height="12" viewBox="0 0 12 12" fill="none" xmlns="http://www.w3.org/2000/svg">
<path d="M6.74545 6.68945H5.50045C5.35045 6.68945 5.23045 6.80945 5.23045 6.95945C5.23045 7.10945 5.35045 7.22945 5.50045 7.22945H6.74545C6.89545 7.22945 7.01545 7.10945 7.01545 6.95945C7.01545 6.80945 6.89545 6.68945 6.74545 6.68945Z" fill="currentColor"/>
<path d="M4.71922 6.68945H4.09422C3.94422 6.68945 3.82422 6.80945 3.82422 6.95945C3.82422 7.10945 3.94422 7.22945 4.09422 7.22945H4.71922C4.86922 7.22945 4.98922 7.10945 4.98922 6.95945C4.98922 6.80945 4.86922 6.68945 4.71922 6.68945Z" fill="currentColor"/>
<path d="M9.2704 2.1107L6.5204 1.0807C6.2354 0.975703 5.7704 0.975703 5.4854 1.0807L2.73539 2.1107C2.20539 2.3107 1.77539 2.9307 1.77539 3.4957V7.5457C1.77539 7.9507 2.04039 8.4857 2.36539 8.7257L5.1154 10.7807C5.6004 11.1457 6.3954 11.1457 6.8804 10.7807L9.6304 8.7257C9.9554 8.4807 10.2204 7.9507 10.2204 7.5457V3.4957C10.2254 2.9307 9.7954 2.3107 9.2704 2.1107ZM9.0854 6.8257C9.0754 7.8607 8.7904 8.1207 7.7154 8.1207H4.29039C3.19539 8.1207 2.92039 7.8507 2.92039 6.7657V5.6007C2.92039 5.4607 3.03039 5.3507 3.17039 5.3507H8.8354C8.9754 5.3507 9.0854 5.4607 9.0854 5.6007V6.8257ZM9.0854 4.5557C9.0854 4.6957 8.9754 4.8057 8.8354 4.8057H3.17039C3.03039 4.8057 2.92039 4.6957 2.92039 4.5557V4.2357C2.92039 3.2557 3.15039 2.9407 4.00539 2.8857C4.09539 2.8857 4.19039 2.8807 4.29039 2.8807H7.7154C8.8104 2.8807 9.0854 3.1507 9.0854 4.2357V4.5557Z" fill="currentColor"/>
</svg>
