<svg width="12" height="12" viewBox="0 0 12 12" fill="none" xmlns="http://www.w3.org/2000/svg">
<path d="M8.095 1H3.905C2.085 1 1 2.085 1 3.905V8.09C1 9.915 2.085 11 3.905 11H8.09C9.91 11 10.995 9.915 10.995 8.095V3.905C11 2.085 9.915 1 8.095 1ZM4.32 6.405L6.51 4.215H5.295C5.09 4.215 4.92 4.045 4.92 3.84C4.92 3.635 5.09 3.465 5.295 3.465H7.415C7.465 3.465 7.51 3.475 7.56 3.495C7.65 3.535 7.725 3.605 7.765 3.7C7.785 3.745 7.795 3.795 7.795 3.845V5.965C7.795 6.17 7.625 6.34 7.42 6.34C7.215 6.34 7.045 6.17 7.045 5.965V4.75L4.85 6.935C4.775 7.01 4.68 7.045 4.585 7.045C4.49 7.045 4.395 7.01 4.32 6.935C4.175 6.79 4.175 6.55 4.32 6.405ZM9.12 8.61C8.115 8.945 7.06 9.115 6 9.115C4.94 9.115 3.885 8.945 2.88 8.61C2.685 8.545 2.58 8.33 2.645 8.135C2.71 7.94 2.92 7.83 3.12 7.9C4.98 8.52 7.025 8.52 8.885 7.9C9.08 7.835 9.295 7.94 9.36 8.135C9.42 8.335 9.315 8.545 9.12 8.61Z" fill="currentColor"/>
</svg>
