<svg width="12" height="12" viewBox="0 0 12 12" fill="none" xmlns="http://www.w3.org/2000/svg">
<path d="M8.095 1H3.905C2.085 1 1 2.085 1 3.905V8.09C1 9.915 2.085 11 3.905 11H8.09C9.91 11 10.995 9.915 10.995 8.095V3.905C11 2.085 9.915 1 8.095 1ZM4.235 4.49L5.735 2.99C5.77 2.955 5.81 2.93 5.855 2.91C5.945 2.87 6.05 2.87 6.14 2.91C6.185 2.93 6.225 2.955 6.26 2.99L7.76 4.49C7.905 4.635 7.905 4.875 7.76 5.02C7.685 5.095 7.59 5.13 7.495 5.13C7.4 5.13 7.305 5.095 7.23 5.02L6.37 4.16V7.255C6.37 7.46 6.2 7.63 5.995 7.63C5.79 7.63 5.62 7.46 5.62 7.255V4.16L4.76 5.02C4.615 5.165 4.375 5.165 4.23 5.02C4.085 4.875 4.09 4.64 4.235 4.49ZM9.12 8.61C8.115 8.945 7.06 9.115 6 9.115C4.94 9.115 3.885 8.945 2.88 8.61C2.685 8.545 2.58 8.33 2.645 8.135C2.71 7.94 2.925 7.83 3.12 7.9C4.98 8.52 7.025 8.52 8.885 7.9C9.08 7.835 9.295 7.94 9.36 8.135C9.42 8.335 9.315 8.545 9.12 8.61Z" fill="currentColor"/>
</svg>
