<svg width="12" height="12" viewBox="0 0 12 12" fill="none" xmlns="http://www.w3.org/2000/svg">
<path d="M8.06955 1.47953L3.55457 2.97953C0.51957 3.99453 0.51957 5.64955 3.55457 6.65955L4.89457 7.10455L5.33955 8.44455C6.34955 11.4795 8.00955 11.4795 9.01955 8.44455L10.5246 3.93453C11.1946 1.90953 10.0946 0.804533 8.06955 1.47953ZM8.22955 4.16953L6.32955 6.07955C6.25455 6.15455 6.15955 6.18955 6.06455 6.18955C5.96955 6.18955 5.87455 6.15455 5.79955 6.07955C5.65455 5.93455 5.65455 5.69455 5.79955 5.54955L7.69955 3.63953C7.84455 3.49453 8.08455 3.49453 8.22955 3.63953C8.37455 3.78453 8.37455 4.02453 8.22955 4.16953Z" fill="currentColor"/>
</svg>
