<svg width="12" height="12" viewBox="0 0 12 12" fill="none" xmlns="http://www.w3.org/2000/svg">
<path d="M10.25 10.625H1.75C1.545 10.625 1.375 10.795 1.375 11C1.375 11.205 1.545 11.375 1.75 11.375H10.25C10.455 11.375 10.625 11.205 10.625 11C10.625 10.795 10.455 10.625 10.25 10.625Z" fill="currentColor"/>
<path d="M2.5 7.26C2.705 7.26 2.875 7.09 2.875 6.885V2.655L9.235 9.015C9.31 9.09 9.405 9.125 9.5 9.125C9.595 9.125 9.69 9.09 9.765 9.015C9.91 8.87 9.91 8.63 9.765 8.485L3.405 2.125H7.635C7.84 2.125 8.01 1.955 8.01 1.75C8.01 1.545 7.84 1.375 7.635 1.375H2.5C2.45 1.375 2.405 1.385 2.355 1.405C2.265 1.44 2.19 1.515 2.155 1.605C2.135 1.655 2.125 1.7 2.125 1.75V6.885C2.125 7.09 2.295 7.26 2.5 7.26Z" fill="currentColor"/>
</svg>
