<svg width="12" height="12" viewBox="0 0 12 12" fill="none" xmlns="http://www.w3.org/2000/svg">
<path d="M9.03465 4.25433L4.75464 2.11433C1.87964 0.674335 0.699644 1.85433 2.13964 4.72933L2.57464 5.59935C2.69964 5.85435 2.69964 6.14935 2.57464 6.40435L2.13964 7.26935C0.699644 10.1444 1.87464 11.3244 4.75464 9.88435L9.03465 7.74435C10.9546 6.78435 10.9546 5.21435 9.03465 4.25433ZM7.41965 6.37435H4.71964C4.51464 6.37435 4.34464 6.20435 4.34464 5.99935C4.34464 5.79435 4.51464 5.62435 4.71964 5.62435H7.41965C7.62465 5.62435 7.79465 5.79435 7.79465 5.99935C7.79465 6.20435 7.62465 6.37435 7.41965 6.37435Z" fill="currentColor"/>
</svg>
