<svg width="12" height="12" viewBox="0 0 12 12" fill="none" xmlns="http://www.w3.org/2000/svg">
<path d="M10.05 4.6107C9.145 4.6107 8.775 3.9707 9.225 3.1857C9.485 2.7307 9.33 2.1507 8.875 1.8907L8.01 1.3957C7.615 1.1607 7.105 1.3007 6.87 1.6957L6.815 1.7907C6.365 2.5757 5.625 2.5757 5.17 1.7907L5.115 1.6957C4.89 1.3007 4.38 1.1607 3.985 1.3957L3.12 1.8907C2.665 2.1507 2.51 2.7357 2.77 3.1907C3.225 3.9707 2.855 4.6107 1.95 4.6107C1.43 4.6107 1 5.0357 1 5.5607V6.4407C1 6.9607 1.425 7.3907 1.95 7.3907C2.855 7.3907 3.225 8.0307 2.77 8.8157C2.51 9.2707 2.665 9.8507 3.12 10.1107L3.985 10.6057C4.38 10.8407 4.89 10.7007 5.125 10.3057L5.18 10.2107C5.63 9.4257 6.37 9.4257 6.825 10.2107L6.88 10.3057C7.115 10.7007 7.625 10.8407 8.02 10.6057L8.885 10.1107C9.34 9.8507 9.495 9.2657 9.235 8.8157C8.78 8.0307 9.15 7.3907 10.055 7.3907C10.575 7.3907 11.005 6.9657 11.005 6.4407V5.5607C11 5.0407 10.575 4.6107 10.05 4.6107ZM6 7.6257C5.105 7.6257 4.375 6.8957 4.375 6.0007C4.375 5.1057 5.105 4.3757 6 4.3757C6.895 4.3757 7.625 5.1057 7.625 6.0007C7.625 6.8957 6.895 7.6257 6 7.6257Z" fill="currentColor"/>
</svg>
