<svg width="12" height="12" viewBox="0 0 12 12" fill="none" xmlns="http://www.w3.org/2000/svg">
<path d="M8.095 1H3.905C2.085 1 1 2.085 1 3.905V8.09C1 9.915 2.085 11 3.905 11H8.09C9.91 11 10.995 9.915 10.995 8.095V3.905C11 2.085 9.915 1 8.095 1ZM3.835 2.75C3.835 2.545 4.005 2.375 4.21 2.375C4.415 2.375 4.585 2.545 4.585 2.75V4.7C4.585 4.905 4.415 5.075 4.21 5.075C4.005 5.075 3.835 4.905 3.835 4.7V2.75ZM4.76141 8.21565C4.65969 8.2608 4.585 8.3566 4.585 8.4679V9.25C4.585 9.455 4.415 9.625 4.21 9.625C4.005 9.625 3.835 9.455 3.835 9.25V8.4679C3.835 8.3566 3.7603 8.2608 3.65862 8.21555C3.18138 8.0032 2.85 7.529 2.85 6.975C2.85 6.225 3.46 5.61 4.21 5.61C4.96 5.61 5.575 6.22 5.575 6.975C5.575 7.5291 5.23955 8.0033 4.76141 8.21565ZM8.165 9.25C8.165 9.455 7.995 9.625 7.79 9.625C7.585 9.625 7.415 9.455 7.415 9.25V7.3C7.415 7.095 7.585 6.925 7.79 6.925C7.995 6.925 8.165 7.095 8.165 7.3V9.25ZM7.79 6.385C7.04 6.385 6.425 5.775 6.425 5.02C6.425 4.46592 6.76045 3.99171 7.2386 3.77937C7.3403 3.73419 7.415 3.63841 7.415 3.52711V2.75C7.415 2.545 7.585 2.375 7.79 2.375C7.995 2.375 8.165 2.545 8.165 2.75V3.5321C8.165 3.6434 8.2397 3.73918 8.3414 3.78443C8.8186 3.9968 9.15 4.47098 9.15 5.025C9.15 5.775 8.54 6.385 7.79 6.385Z" fill="currentColor"/>
</svg>
