<svg width="12" height="12" viewBox="0 0 12 12" fill="none" xmlns="http://www.w3.org/2000/svg">
<path d="M10.6497 3.78984H7.85975C7.66475 3.78984 7.50975 3.63484 7.50975 3.43984C7.50975 3.24484 7.66475 3.08984 7.85975 3.08984H10.6497C10.8447 3.08984 10.9998 3.24484 10.9998 3.43984C10.9998 3.63484 10.8447 3.78984 10.6497 3.78984Z" fill="currentColor"/>
<path d="M3.21 3.78984H1.35C1.155 3.78984 1 3.63484 1 3.43984C1 3.24484 1.155 3.08984 1.35 3.08984H3.21C3.405 3.08984 3.56 3.24484 3.56 3.43984C3.56 3.63484 3.4 3.78984 3.21 3.78984Z" fill="currentColor"/>
<path d="M5.06975 5.41485C6.1605 5.41485 7.04475 4.5306 7.04475 3.43984C7.04475 2.34908 6.1605 1.46484 5.06975 1.46484C3.97896 1.46484 3.09472 2.34908 3.09472 3.43984C3.09472 4.5306 3.97896 5.41485 5.06975 5.41485Z" fill="currentColor"/>
<path d="M10.6504 8.9051H8.79045C8.59545 8.9051 8.44045 8.7501 8.44045 8.5551C8.44045 8.3601 8.59545 8.2051 8.79045 8.2051H10.6504C10.8454 8.2051 11.0005 8.3601 11.0005 8.5551C11.0005 8.7501 10.8454 8.9051 10.6504 8.9051Z" fill="currentColor"/>
<path d="M4.14 8.9051H1.35C1.155 8.9051 1 8.7501 1 8.5551C1 8.3601 1.155 8.2051 1.35 8.2051H4.14C4.335 8.2051 4.49 8.3601 4.49 8.5551C4.49 8.7501 4.33 8.9051 4.14 8.9051Z" fill="currentColor"/>
<path d="M6.9301 10.5359C8.02085 10.5359 8.9051 9.6517 8.9051 8.56095C8.9051 7.4702 8.02085 6.58595 6.9301 6.58595C5.8393 6.58595 4.95508 7.4702 4.95508 8.56095C4.95508 9.6517 5.8393 10.5359 6.9301 10.5359Z" fill="currentColor"/>
</svg>
