<svg width="12" height="12" viewBox="0 0 12 12" fill="none" xmlns="http://www.w3.org/2000/svg">
<path d="M9.47005 2.7107L6.88505 1.2157C6.39005 0.930703 5.61505 0.930703 5.12005 1.2157L2.51004 2.7207C1.47504 3.4207 1.41504 3.5257 1.41504 4.6407V7.3557C1.41504 8.4707 1.47504 8.5807 2.53004 9.2907L5.11505 10.7857C5.36505 10.9307 5.68505 11.0007 6.00005 11.0007C6.31505 11.0007 6.63505 10.9307 6.88005 10.7857L9.49005 9.2807C10.525 8.5807 10.585 8.4757 10.585 7.3607V4.6407C10.585 3.5257 10.525 3.4207 9.47005 2.7107ZM6.00005 7.6257C5.10505 7.6257 4.37504 6.8957 4.37504 6.0007C4.37504 5.1057 5.10505 4.3757 6.00005 4.3757C6.89505 4.3757 7.62505 5.1057 7.62505 6.0007C7.62505 6.8957 6.89505 7.6257 6.00005 7.6257Z" fill="currentColor"/>
</svg>
