<svg width="12" height="12" viewBox="0 0 12 12" fill="none" xmlns="http://www.w3.org/2000/svg">
<path d="M6 8.25C7.24265 8.25 8.25 7.24265 8.25 6C8.25 4.75736 7.24265 3.75 6 3.75C4.75736 3.75 3.75 4.75736 3.75 6C3.75 7.24265 4.75736 8.25 6 8.25Z" fill="currentColor"/>
<path d="M5 6.375H1C0.795 6.375 0.625 6.205 0.625 6C0.625 5.795 0.795 5.625 1 5.625H5C5.205 5.625 5.375 5.795 5.375 6C5.375 6.205 5.205 6.375 5 6.375Z" fill="currentColor"/>
<path d="M11 6.375H7C6.795 6.375 6.625 6.205 6.625 6C6.625 5.795 6.795 5.625 7 5.625H11C11.205 5.625 11.375 5.795 11.375 6C11.375 6.205 11.205 6.375 11 6.375Z" fill="currentColor"/>
</svg>
