<svg width="12" height="12" viewBox="0 0 12 12" fill="none" xmlns="http://www.w3.org/2000/svg">
<path d="M9.2547 4.12539C9.5047 4.12539 9.7047 3.92539 9.7047 3.67539V1.35039C9.7047 1.10039 9.5047 0.900391 9.2547 0.900391C9.0047 0.900391 8.8047 1.10039 8.8047 1.35039V3.67539C8.8047 3.92039 9.0097 4.12539 9.2547 4.12539Z" fill="currentColor"/>
<path d="M5.9998 7.875C5.7498 7.875 5.5498 8.075 5.5498 8.325V10.65C5.5498 10.9 5.7498 11.1 5.9998 11.1C6.2498 11.1 6.4498 10.9 6.4498 10.65V8.325C6.4498 8.08 6.2498 7.875 5.9998 7.875Z" fill="currentColor"/>
<path d="M2.74492 4.12539C2.99492 4.12539 3.19492 3.92539 3.19492 3.67539V1.35039C3.19492 1.10039 2.99492 0.900391 2.74492 0.900391C2.49492 0.900391 2.29492 1.10039 2.29492 1.35039V3.67539C2.29492 3.92039 2.49492 4.12539 2.74492 4.12539Z" fill="currentColor"/>
<path d="M3.67523 5.08595H1.81523C1.56523 5.08595 1.36523 5.28595 1.36523 5.53595C1.36523 5.78595 1.56523 5.98595 1.81523 5.98595H2.29523V10.651C2.29523 10.901 2.49523 11.101 2.74523 11.101C2.99523 11.101 3.19523 10.901 3.19523 10.651V5.98595H3.67523C3.92523 5.98595 4.12523 5.78595 4.12523 5.53595C4.12523 5.28595 3.92023 5.08595 3.67523 5.08595Z" fill="currentColor"/>
<path d="M10.185 5.08595H8.325C8.075 5.08595 7.875 5.28595 7.875 5.53595C7.875 5.78595 8.075 5.98595 8.325 5.98595H8.805V10.651C8.805 10.901 9.005 11.101 9.255 11.101C9.505 11.101 9.705 10.901 9.705 10.651V5.98595H10.185C10.435 5.98595 10.635 5.78595 10.635 5.53595C10.635 5.28595 10.435 5.08595 10.185 5.08595Z" fill="currentColor"/>
<path d="M6.9301 6.0154H6.4501V1.35039C6.4501 1.10039 6.2501 0.900391 6.0001 0.900391C5.7501 0.900391 5.5501 1.10039 5.5501 1.35039V6.0154H5.0701C4.82011 6.0154 4.62011 6.2154 4.62011 6.4654C4.62011 6.7154 4.82011 6.9154 5.0701 6.9154H6.9301C7.1801 6.9154 7.3801 6.7154 7.3801 6.4654C7.3801 6.2154 7.1801 6.0154 6.9301 6.0154Z" fill="currentColor"/>
</svg>
