<svg width="12" height="12" viewBox="0 0 12 12" fill="none" xmlns="http://www.w3.org/2000/svg">
<path d="M6.71515 7.5007H2.20017C1.29017 7.5007 0.710168 6.5257 1.15017 5.7257L3.40517 1.6207C3.86017 0.795703 5.05015 0.795703 5.50515 1.6207L6.60015 3.6057L7.76515 5.7257C8.20515 6.5257 7.62515 7.5007 6.71515 7.5007Z" fill="currentColor"/>
<path d="M11.3253 7.9995C11.3253 9.7945 9.87035 11.2495 8.07535 11.2495C6.55035 11.2495 5.27535 10.2045 4.92037 8.7845C4.88537 8.6345 5.00035 8.4995 5.15535 8.4995H7.04035C7.73535 8.4995 8.36535 8.1395 8.72035 7.5445C9.07035 6.9445 9.08535 6.2245 8.74535 5.6145L8.49535 5.1545C8.40035 4.98449 8.53535 4.77949 8.72535 4.81449C10.2053 5.1145 11.3253 6.4245 11.3253 7.9995Z" fill="currentColor"/>
</svg>
