<svg width="12" height="12" viewBox="0 0 12 12" fill="none" xmlns="http://www.w3.org/2000/svg">
<path d="M5.875 3.5H3.5C2.12 3.5 1 4.62 1 6V8.5C1 9.88 2.12 11 3.5 11H6C7.38 11 8.5 9.88 8.5 8.5V6.125C8.5 4.675 7.325 3.5 5.875 3.5Z" fill="currentColor"/>
<path d="M10.9403 3.16516C11.2026 4.44495 10.5814 5.60615 9.5799 6.153C9.4261 6.23695 9.2503 6.11715 9.2503 5.9419V5.87515C9.2503 4.15516 7.8453 2.75016 6.1253 2.75016H6.05855C5.8833 2.75016 5.7635 2.57439 5.8475 2.42059C6.39435 1.41905 7.5555 0.797869 8.8353 1.06016C9.8803 1.27516 10.7253 2.12016 10.9403 3.16516Z" fill="currentColor"/>
</svg>
