<svg width="12" height="12" viewBox="0 0 12 12" fill="none" xmlns="http://www.w3.org/2000/svg">
<path d="M10.1795 6.36575C9.99455 6.36575 9.83955 6.22575 9.81955 6.04075C9.69955 4.94077 9.10955 3.95077 8.19955 3.32077C8.03455 3.20577 7.99455 2.98077 8.10955 2.81577C8.22455 2.65077 8.44955 2.61077 8.61455 2.72577C9.69955 3.48077 10.3995 4.66077 10.5445 5.96575C10.5645 6.16575 10.4195 6.34575 10.2195 6.36575C10.2045 6.36575 10.1945 6.36575 10.1795 6.36575Z" fill="currentColor"/>
<path d="M1.86965 6.3906C1.85965 6.3906 1.84465 6.3906 1.83465 6.3906C1.63465 6.3706 1.48965 6.1906 1.50965 5.9906C1.64465 4.68559 2.33465 3.50559 3.40965 2.74559C3.56965 2.63059 3.79965 2.67059 3.91465 2.83059C4.02965 2.99559 3.98965 3.22059 3.82965 3.33559C2.92965 3.97559 2.34465 4.96559 2.23465 6.0606C2.21465 6.2506 2.05465 6.3906 1.86965 6.3906Z" fill="currentColor"/>
<path d="M7.9953 10.5501C7.3803 10.8451 6.7203 10.9951 6.0303 10.9951C5.3103 10.9951 4.62529 10.8351 3.98529 10.5101C3.80529 10.4251 3.73529 10.2051 3.82529 10.0251C3.91029 9.84515 4.13029 9.77515 4.31029 9.86015C4.62529 10.0201 4.96029 10.1301 5.3003 10.1951C5.7603 10.2851 6.2303 10.2901 6.6903 10.2101C7.0303 10.1501 7.3653 10.0451 7.6753 9.89515C7.8603 9.81015 8.0803 9.88015 8.1603 10.0651C8.2503 10.2451 8.1803 10.4651 7.9953 10.5501Z" fill="currentColor"/>
<path d="M6.02525 1.00586C5.25025 1.00586 4.61523 1.63586 4.61523 2.41586C4.61523 3.19586 5.24525 3.82586 6.02525 3.82586C6.80525 3.82586 7.43525 3.19586 7.43525 2.41586C7.43525 1.63586 6.80525 1.00586 6.02525 1.00586Z" fill="currentColor"/>
<path d="M2.52523 6.93555C1.75023 6.93555 1.11523 7.56555 1.11523 8.34555C1.11523 9.12555 1.74523 9.75555 2.52523 9.75555C3.30523 9.75555 3.93523 9.12555 3.93523 8.34555C3.93523 7.56555 3.30023 6.93555 2.52523 6.93555Z" fill="currentColor"/>
<path d="M9.47545 6.93555C8.70045 6.93555 8.06545 7.56555 8.06545 8.34555C8.06545 9.12555 8.69545 9.75555 9.47545 9.75555C10.2554 9.75555 10.8854 9.12555 10.8854 8.34555C10.8854 7.56555 10.2554 6.93555 9.47545 6.93555Z" fill="currentColor"/>
</svg>
