<svg width="12" height="12" viewBox="0 0 12 12" fill="none" xmlns="http://www.w3.org/2000/svg">
<path d="M4.19995 5.95002C4.19995 6.95002 3.39995 7.70002 2.44995 7.70002C1.49995 7.70002 0.699951 6.90002 0.699951 5.95002C0.699951 5.00002 1.49995 4.20002 2.44995 4.20002C3.39995 4.20002 4.19995 5.00002 4.19995 5.95002Z" fill="currentColor"/>
<path d="M10.35 9.60003C10.35 10.6 9.54995 11.35 8.59995 11.35C7.64995 11.35 6.84995 10.55 6.84995 9.60003C6.84995 8.65003 7.64995 7.85002 8.59995 7.85002C9.54995 7.85002 10.35 8.65003 10.35 9.60003Z" fill="currentColor"/>
<path d="M10.35 2.40002C10.35 3.40002 9.54995 4.15002 8.59995 4.15002C7.64995 4.15002 6.84995 3.35002 6.84995 2.40002C6.84995 1.45002 7.64995 0.650024 8.59995 0.650024C9.54995 0.650024 10.35 1.45002 10.35 2.40002Z" fill="currentColor"/>
<path d="M7.39995 9.20002C7.29995 9.40002 7.04995 9.45003 6.89995 9.35003L3.54995 7.35002C3.34995 7.25002 3.29995 7.00002 3.39995 6.85002C3.49995 6.70002 3.74995 6.60002 3.89995 6.70002L7.24995 8.70002C7.44995 8.80002 7.49995 9.05002 7.39995 9.20002Z" fill="currentColor"/>
<path d="M7.39995 2.85002C7.49995 3.05002 7.39995 3.25002 7.24995 3.35002L3.84995 5.25002C3.64995 5.35002 3.44995 5.25002 3.34995 5.10002C3.24995 4.95002 3.34995 4.70002 3.49995 4.60002L6.89995 2.70002C7.09995 2.60002 7.29995 2.70002 7.39995 2.85002Z" fill="currentColor"/>
</svg>
