<svg width="12" height="12" viewBox="0 0 12 12" fill="none" xmlns="http://www.w3.org/2000/svg">
<path d="M9.6804 2.31992L2.91539 9.0849L2.36539 8.6749C2.04039 8.4299 1.77539 7.8999 1.77539 7.4899V3.44492C1.77539 2.87992 2.20539 2.25992 2.73039 2.05992L5.4804 1.02992C5.7654 0.924922 6.2354 0.924922 6.5204 1.02992L9.2704 2.05992C9.4154 2.11492 9.5554 2.20492 9.6804 2.31992Z" fill="currentColor"/>
<path d="M10.2245 7.48945C10.2245 7.89945 9.9595 8.42945 9.6345 8.67445L6.8845 10.7295C6.3945 11.0895 5.6045 11.0895 5.1145 10.7295L4.2345 10.0745C3.9895 9.89445 3.9645 9.53445 4.1795 9.31945L9.3695 4.12943C9.6845 3.81443 10.2245 4.03943 10.2245 4.48443V7.48945Z" fill="currentColor"/>
<path d="M10.8844 1.11446C10.7344 0.964457 10.4894 0.964457 10.3394 1.11446L1.11445 10.3445C0.964453 10.4945 0.964453 10.7395 1.11445 10.8895C1.18945 10.9595 1.28445 10.9995 1.38445 10.9995C1.48445 10.9995 1.57945 10.9595 1.65445 10.8845L10.8844 1.65446C11.0394 1.50446 11.0394 1.26446 10.8844 1.11446Z" fill="currentColor"/>
</svg>
