<svg width="12" height="12" viewBox="0 0 12 12" fill="none" xmlns="http://www.w3.org/2000/svg">
<path d="M9.2704 2.08531L6.5204 1.05531C6.2354 0.950314 5.7704 0.950314 5.4854 1.05531L2.73539 2.08531C2.20539 2.28531 1.77539 2.90531 1.77539 3.47031V7.5203C1.77539 7.9253 2.04039 8.4603 2.36539 8.7003L5.1154 10.7553C5.6004 11.1203 6.3954 11.1203 6.8804 10.7553L9.6304 8.7003C9.9554 8.4553 10.2204 7.9253 10.2204 7.5203V3.47031C10.2254 2.90531 9.7954 2.28531 9.2704 2.08531ZM6.3754 6.4353V7.7503C6.3754 7.9553 6.2054 8.1253 6.0004 8.1253C5.7954 8.1253 5.6254 7.9553 5.6254 7.7503V6.4353C5.1204 6.2753 4.75039 5.8053 4.75039 5.2503C4.75039 4.56031 5.3104 4.00031 6.0004 4.00031C6.6904 4.00031 7.2504 4.56031 7.2504 5.2503C7.2504 5.8103 6.8804 6.2753 6.3754 6.4353Z" fill="currentColor"/>
</svg>
