<svg width="12" height="12" viewBox="0 0 12 12" fill="none" xmlns="http://www.w3.org/2000/svg">
<path d="M9.72455 3.47031V4.72531C9.72455 5.0803 9.36455 5.3103 9.02955 5.1853C8.60955 5.0303 8.14455 4.97031 7.65455 5.0203C6.46455 5.1503 5.24455 6.2953 5.04455 7.4803C4.87953 8.4653 5.19455 9.3853 5.79955 10.0353C6.07455 10.3353 5.88955 10.8203 5.48455 10.8653C5.13955 10.9053 4.79953 10.8953 4.60953 10.7553L1.85953 8.7003C1.53453 8.4553 1.26953 7.9253 1.26953 7.5153V3.47031C1.26953 2.90531 1.69953 2.28531 2.22453 2.08531L4.97453 1.05531C5.25955 0.950314 5.72955 0.950314 6.01455 1.05531L8.76455 2.08531C9.29455 2.28531 9.72455 2.90531 9.72455 3.47031Z" fill="currentColor"/>
<path d="M8 5.75585C6.76 5.75585 5.75 6.76585 5.75 8.00585C5.75 9.24585 6.76 10.2558 8 10.2558C9.24 10.2558 10.25 9.24585 10.25 8.00585C10.25 6.76085 9.24 5.75585 8 5.75585Z" fill="currentColor"/>
<path d="M10.5 11.0004C10.365 11.0004 10.24 10.9454 10.145 10.8554C10.125 10.8304 10.1 10.8054 10.085 10.7754C10.065 10.7504 10.05 10.7204 10.04 10.6904C10.025 10.6604 10.015 10.6304 10.01 10.6004C10.005 10.5654 10 10.5354 10 10.5004C10 10.4354 10.015 10.3704 10.04 10.3104C10.065 10.2454 10.1 10.1954 10.145 10.1454C10.26 10.0304 10.435 9.97545 10.595 10.0104C10.63 10.0154 10.66 10.0254 10.69 10.0404C10.72 10.0504 10.75 10.0654 10.775 10.0854C10.805 10.1004 10.83 10.1254 10.855 10.1454C10.9 10.1954 10.935 10.2454 10.96 10.3104C10.985 10.3704 11 10.4354 11 10.5004C11 10.6304 10.945 10.7604 10.855 10.8554C10.83 10.8754 10.805 10.8954 10.775 10.9154C10.75 10.9354 10.72 10.9504 10.69 10.9604C10.66 10.9754 10.63 10.9854 10.595 10.9904C10.565 10.9954 10.53 11.0004 10.5 11.0004Z" fill="currentColor"/>
</svg>
