<svg width="12" height="12" viewBox="0 0 12 12" fill="none" xmlns="http://www.w3.org/2000/svg">
<path d="M9.2704 2.05992L6.5204 1.02992C6.2354 0.924922 5.7704 0.924922 5.4854 1.02992L2.73539 2.05992C2.20539 2.25992 1.77539 2.87992 1.77539 3.44492V7.4949C1.77539 7.8999 2.04039 8.4349 2.36539 8.6749L5.1154 10.7299C5.6004 11.0949 6.3954 11.0949 6.8804 10.7299L9.6304 8.6749C9.9554 8.4299 10.2204 7.8999 10.2204 7.4949V3.44492C10.2254 2.87992 9.7954 2.25992 9.2704 2.05992ZM7.7404 4.85992L5.5904 7.0099C5.5154 7.0849 5.4204 7.1199 5.3254 7.1199C5.2304 7.1199 5.1354 7.0849 5.0604 7.0099L4.26039 6.1999C4.11539 6.0549 4.11539 5.8149 4.26039 5.6699C4.40539 5.5249 4.64539 5.5249 4.79039 5.6699L5.3304 6.2099L7.2154 4.32492C7.3604 4.17992 7.6004 4.17992 7.7454 4.32492C7.8904 4.46992 7.8904 4.71492 7.7404 4.85992Z" fill="currentColor"/>
</svg>
