<svg width="12" height="12" viewBox="0 0 12 12" fill="none" xmlns="http://www.w3.org/2000/svg">
<path d="M9.2704 2.05992L6.5204 1.02992C6.2354 0.924922 5.7704 0.924922 5.4854 1.02992L2.73539 2.05992C2.20539 2.25992 1.77539 2.87992 1.77539 3.44492V7.4949C1.77539 7.8999 2.04039 8.4349 2.36539 8.6749L5.1154 10.7299C5.6004 11.0949 6.3954 11.0949 6.8804 10.7299L9.6304 8.6749C9.9554 8.4299 10.2204 7.8999 10.2204 7.4949V3.44492C10.2254 2.87992 9.7954 2.25992 9.2704 2.05992ZM7.3404 6.9849C7.2654 7.0599 7.1704 7.0949 7.0754 7.0949C6.9804 7.0949 6.8854 7.0599 6.8104 6.9849L6.0154 6.1899L5.1954 7.0099C5.1204 7.0849 5.0254 7.1199 4.93039 7.1199C4.83539 7.1199 4.74039 7.0849 4.66539 7.0099C4.52039 6.8649 4.52039 6.6249 4.66539 6.4799L5.4854 5.6599L4.68539 4.85992C4.54039 4.71492 4.54039 4.47492 4.68539 4.32992C4.83039 4.18492 5.0704 4.18492 5.2154 4.32992L6.0104 5.1249L6.7854 4.34992C6.9304 4.20492 7.1704 4.20492 7.3154 4.34992C7.4604 4.49492 7.4604 4.73492 7.3154 4.87992L6.5404 5.6549L7.3354 6.4499C7.4854 6.5999 7.4854 6.8349 7.3404 6.9849Z" fill="currentColor"/>
</svg>
