<svg width="12" height="12" viewBox="0 0 12 12" fill="none" xmlns="http://www.w3.org/2000/svg">
<path d="M10.8148 7.3304L10.6098 8.2604C10.2548 9.8604 8.99985 11.0004 7.18985 11.0004H4.80987C2.99987 11.0004 1.74487 9.8604 1.38987 8.2604L1.18487 7.3304C1.08487 6.8754 1.35487 6.3604 1.78987 6.1854L5.25485 4.79539C5.49485 4.70039 5.74985 4.65039 5.99985 4.65039C6.24985 4.65039 6.50485 4.70039 6.74485 4.79539L10.2098 6.1854C10.6448 6.3604 10.9148 6.8754 10.8148 7.3304Z" fill="currentColor"/>
<path d="M9.5 4V4.72C9.5 4.895 9.32 5.02 9.155 4.95L7.02 4.095C6.365 3.84 5.635 3.84 4.975 4.1L2.845 4.955C2.68 5.025 2.5 4.9 2.5 4.725V4C2.5 3.175 3.175 2.5 4 2.5H8C8.825 2.5 9.5 3.175 9.5 4Z" fill="currentColor"/>
<path d="M7.25 2.5H4.75V1.5C4.75 1.225 4.975 1 5.25 1H6.75C7.025 1 7.25 1.225 7.25 1.5V2.5Z" fill="currentColor"/>
</svg>
