<svg width="12" height="12" viewBox="0 0 12 12" fill="none" xmlns="http://www.w3.org/2000/svg">
<path d="M8 4.375C7.795 4.375 7.625 4.205 7.625 4V2.25C7.625 1.71 7.29 1.375 6.75 1.375H5.25C4.71 1.375 4.375 1.71 4.375 2.25V4C4.375 4.205 4.205 4.375 4 4.375C3.795 4.375 3.625 4.205 3.625 4V2.25C3.625 1.295 4.295 0.625 5.25 0.625H6.75C7.705 0.625 8.375 1.295 8.375 2.25V4C8.375 4.205 8.205 4.375 8 4.375Z" fill="currentColor"/>
<path d="M4.00041 8.89C3.79541 8.89 3.62541 8.72 3.62541 8.515C3.62541 8.305 3.79541 8.14 4.00041 8.14H9.8804C10.0304 8.14 10.1454 8.01 10.1304 7.86L9.7904 5.015C9.6704 4.045 9.5004 3.25 7.8004 3.25H4.20041C2.50041 3.25 2.33041 4.045 2.21541 5.015L1.76541 8.765C1.62041 9.995 2.00041 11 3.75541 11H8.2454C9.8254 11 10.2904 10.185 10.2654 9.125C10.2604 8.99 10.1504 8.89 10.0154 8.89H4.00041Z" fill="currentColor"/>
</svg>
