<svg width="12" height="12" viewBox="0 0 12 12" fill="none" xmlns="http://www.w3.org/2000/svg">
<path d="M8.125 11.25C8.60825 11.25 9 10.8582 9 10.375C9 9.89175 8.60825 9.5 8.125 9.5C7.64175 9.5 7.25 9.89175 7.25 10.375C7.25 10.8582 7.64175 11.25 8.125 11.25Z" fill="currentColor"/>
<path d="M4.125 11.25C4.60825 11.25 5 10.8582 5 10.375C5 9.89175 4.60825 9.5 4.125 9.5C3.64175 9.5 3.25 9.89175 3.25 10.375C3.25 10.8582 3.64175 11.25 4.125 11.25Z" fill="currentColor"/>
<path d="M2.42 1.97L2.32 3.195C2.3 3.43 2.485 3.625 2.72 3.625H10.375C10.585 3.625 10.76 3.465 10.775 3.255C10.84 2.37 10.165 1.65 9.28 1.65H3.135C3.085 1.43 2.985 1.22 2.83 1.045C2.58 0.78 2.23 0.625 1.87 0.625H1C0.795 0.625 0.625 0.795 0.625 1C0.625 1.205 0.795 1.375 1 1.375H1.87C2.025 1.375 2.17 1.44 2.275 1.55C2.38 1.665 2.43 1.815 2.42 1.97Z" fill="currentColor"/>
<path d="M10.255 4.375H2.58503C2.37503 4.375 2.20502 4.535 2.18502 4.74L2.00502 6.915C1.93502 7.77 2.60503 8.5 3.46003 8.5H9.02005C9.77005 8.5 10.43 7.885 10.4851 7.135L10.6501 4.8C10.6701 4.57 10.49 4.375 10.255 4.375Z" fill="currentColor"/>
</svg>
