<svg width="12" height="12" viewBox="0 0 12 12" fill="none" xmlns="http://www.w3.org/2000/svg">
<path d="M3.90012 11.0742C2.57512 11.0742 1.49512 9.99915 1.49512 8.66915V7.24915C1.49512 6.91415 1.82512 6.68915 2.14012 6.79915C2.27012 6.84415 2.40012 6.87415 2.53512 6.89415C2.59512 6.90415 2.65512 6.91415 2.71512 6.91415C2.79012 6.92415 2.87012 6.92915 2.94512 6.92915C3.50012 6.92915 4.05012 6.72415 4.48512 6.36915C4.90012 6.72415 5.4351 6.92915 6.0051 6.92915C6.5751 6.92915 7.1051 6.73415 7.5201 6.37415C7.9501 6.72415 8.4901 6.92915 9.0401 6.92915C9.1251 6.92915 9.2151 6.92415 9.2951 6.91415C9.3551 6.90915 9.4051 6.90415 9.4601 6.89415C9.6101 6.87415 9.7451 6.83415 9.8801 6.78915C10.1901 6.68415 10.5151 6.91415 10.5151 7.23915V8.66915C10.5151 9.99415 9.4401 11.0742 8.1101 11.0742H3.90012Z" fill="currentColor"/>
<path d="M10.99 4.29578L10.85 2.96578C10.65 1.51578 9.98995 0.925781 8.58495 0.925781H3.40993C1.99993 0.925781 1.34493 1.51578 1.13993 2.98078L1.00993 4.30078C0.959926 4.81578 1.09993 5.3158 1.40493 5.7058C1.76993 6.1808 2.32993 6.4508 2.95493 6.4508C3.55993 6.4508 4.13993 6.1458 4.50993 5.6608C4.83493 6.1458 5.38995 6.4508 6.00995 6.4508C6.62995 6.4508 7.17495 6.1608 7.50495 5.6808C7.87495 6.1558 8.44995 6.4508 9.04495 6.4508C9.68495 6.4508 10.26 6.1658 10.62 5.6658C10.91 5.2808 11.04 4.79578 10.99 4.29578ZM6.74995 3.86578H5.24995C5.04495 3.86578 4.87493 3.70078 4.87493 3.49078C4.87493 3.28578 5.04495 3.11578 5.24995 3.11578H6.74995C6.95495 3.11578 7.12495 3.28578 7.12495 3.49078C7.12495 3.70078 6.95495 3.86578 6.74995 3.86578Z" fill="currentColor"/>
</svg>
