<svg width="12" height="12" viewBox="0 0 12 12" fill="none" xmlns="http://www.w3.org/2000/svg">
<g clip-path="url(#clip0_1652_3020)">
<path d="M11.1798 4.135L11.0348 2.75C10.8248 1.24 10.1398 0.625 8.67485 0.625H3.29483C1.82483 0.625 1.14482 1.24 0.929825 2.765L0.794825 4.14C0.744825 4.675 0.889825 5.195 1.20483 5.6C1.58483 6.095 2.16982 6.375 2.81982 6.375C3.44982 6.375 4.05482 6.06 4.43482 5.555C4.77482 6.06 5.35485 6.375 5.99985 6.375C6.6448 6.375 7.20985 6.075 7.5548 5.575C7.93985 6.07 8.5348 6.375 9.1548 6.375C9.8198 6.375 10.4198 6.08 10.7948 5.56C11.0948 5.16 11.2298 4.655 11.1798 4.135Z" fill="currentColor"/>
<path d="M5.67455 8.3301C5.03955 8.3951 4.55957 8.9351 4.55957 9.5751V10.9451C4.55957 11.0801 4.66957 11.1901 4.80457 11.1901H7.18955C7.32455 11.1901 7.43455 11.0801 7.43455 10.9451V9.7501C7.43955 8.7051 6.82455 8.2101 5.67455 8.3301Z" fill="currentColor"/>
<path d="M10.6854 7.19905V8.68905C10.6854 10.069 9.56545 11.189 8.18545 11.189C8.05045 11.189 7.94045 11.0791 7.94045 10.944V9.74905C7.94045 9.10905 7.74545 8.60905 7.36545 8.26905C7.03045 7.96405 6.57545 7.81405 6.01045 7.81405C5.88545 7.81405 5.76045 7.81905 5.62545 7.83405C4.73543 7.92405 4.06043 8.67405 4.06043 9.57405V10.944C4.06043 11.0791 3.95043 11.189 3.81543 11.189C2.43543 11.189 1.31543 10.069 1.31543 8.68905V7.20905C1.31543 6.85905 1.66043 6.62405 1.98543 6.73905C2.12043 6.78405 2.25543 6.81905 2.39543 6.83905C2.45543 6.84905 2.52043 6.85905 2.58043 6.85905C2.66043 6.86905 2.74043 6.87405 2.82043 6.87405C3.40043 6.87405 3.97043 6.65905 4.42043 6.28905C4.85043 6.65905 5.41045 6.87405 6.00045 6.87405C6.59545 6.87405 7.14545 6.66905 7.57545 6.29905C8.02545 6.66405 8.58545 6.87405 9.15545 6.87405C9.24545 6.87405 9.33545 6.86905 9.42045 6.85905C9.48045 6.85405 9.53545 6.84905 9.59045 6.83905C9.74545 6.81905 9.88545 6.77405 10.0254 6.72905C10.3504 6.61905 10.6854 6.85905 10.6854 7.19905Z" fill="currentColor"/>
</g>
<defs>
<clipPath id="clip0_1652_3020">
<rect width="12" height="12" fill="currentColor"/>
</clipPath>
</defs>
</svg>
