<svg width="12" height="12" viewBox="0 0 12 12" fill="none" xmlns="http://www.w3.org/2000/svg">
<path d="M10.8753 8.99045C10.8753 8.98045 10.8703 8.97045 10.8703 8.96045C10.8653 8.92045 10.8604 8.88045 10.8454 8.84545C10.8253 8.80045 10.8004 8.76545 10.7704 8.73045C10.7704 8.73045 10.7704 8.72545 10.7654 8.72545C10.7304 8.69045 10.6904 8.66545 10.6454 8.64545C10.6004 8.62545 10.5504 8.61545 10.5003 8.61545L8.16535 8.62545C8.16535 8.62545 8.16535 8.62545 8.16035 8.62545C7.86035 8.62545 7.57035 8.48545 7.39035 8.24545L6.78035 7.46045C6.65535 7.29545 6.42035 7.26545 6.25535 7.39545C6.09035 7.52545 6.06035 7.75545 6.19035 7.92045L6.80035 8.70545C7.12535 9.12545 7.63535 9.37545 8.16535 9.37545H8.17035L9.59535 9.37045L9.24035 9.72545C9.09535 9.87045 9.09535 10.1104 9.24035 10.2555C9.31535 10.3305 9.41035 10.3654 9.50535 10.3654C9.60035 10.3654 9.69535 10.3305 9.77035 10.2555L10.7704 9.25545C10.8054 9.22045 10.8303 9.18045 10.8504 9.13545C10.8654 9.08545 10.8753 9.03545 10.8753 8.99045Z" fill="currentColor"/>
<path d="M4.21 3.34586C3.885 2.89586 3.365 2.63086 2.81 2.63086C2.805 2.63086 2.805 2.63086 2.8 2.63086L1.5 2.63586C1.295 2.63586 1.125 2.80586 1.125 3.01086C1.125 3.21586 1.295 3.38586 1.5 3.38586L2.805 3.38086H2.81C3.125 3.38086 3.42 3.53086 3.6 3.78586L4.14 4.53586C4.215 4.63586 4.33 4.69086 4.445 4.69086C4.52 4.69086 4.6 4.66586 4.665 4.62086C4.835 4.49586 4.87 4.26086 4.75 4.09586L4.21 3.34586Z" fill="currentColor"/>
<path d="M10.87 3.03938C10.87 3.02938 10.875 3.01937 10.875 3.01437C10.875 2.96438 10.865 2.91437 10.845 2.86937C10.825 2.82438 10.8 2.78438 10.765 2.74938L9.765 1.74938C9.62 1.60438 9.38 1.60438 9.235 1.74938C9.09 1.89437 9.09 2.13438 9.235 2.27938L9.59 2.63438L8.225 2.62937C8.22 2.62937 8.22 2.62937 8.215 2.62937C7.64 2.62937 7.1 2.91437 6.78 3.39937L3.585 8.18935C3.405 8.45935 3.1 8.62435 2.775 8.62435H2.77L1.5 8.61435C1.295 8.61435 1.125 8.77935 1.125 8.98935C1.125 9.19435 1.29 9.36435 1.5 9.36435L2.775 9.36935C2.78 9.36935 2.78 9.36935 2.785 9.36935C3.365 9.36935 3.9 9.0844 4.22 8.5994L7.415 3.80938C7.595 3.53938 7.9 3.37438 8.225 3.37438H8.23L10.5 3.38438C10.55 3.38438 10.595 3.37437 10.645 3.35437C10.69 3.33437 10.73 3.30937 10.765 3.27437C10.765 3.27437 10.765 3.26938 10.77 3.26938C10.8 3.23438 10.83 3.19938 10.845 3.15438C10.86 3.11938 10.865 3.07938 10.87 3.03938Z" fill="currentColor"/>
</svg>
