<svg width="12" height="12" viewBox="0 0 12 12" fill="none" xmlns="http://www.w3.org/2000/svg">
<path d="M3.905 1C3.16 1 2.54 1.18 2.065 1.525C1.855 1.67 1.67 1.855 1.525 2.065C1.18 2.54 1 3.16 1 3.905V8.095C1 9.915 2.085 11 3.905 11H7.64V1H3.905ZM6.06 6.265L4.78 7.545C4.705 7.62 4.61 7.655 4.515 7.655C4.42 7.655 4.325 7.62 4.25 7.545C4.105 7.4 4.105 7.16 4.25 7.015L5.26 6L4.25 4.985C4.1 4.84 4.1 4.6 4.25 4.455C4.4 4.31 4.635 4.31 4.78 4.455L6.06 5.735C6.205 5.88 6.205 6.12 6.06 6.265Z" fill="currentColor"/>
<path d="M8.38965 1.01562V10.9906C9.00465 10.9506 9.52465 10.7757 9.93465 10.4756C10.1447 10.3306 10.3296 10.1456 10.4747 9.93565C10.8197 9.4606 10.9997 8.84065 10.9997 8.09565V3.90563C10.9997 2.18563 10.0297 1.12062 8.38965 1.01562Z" fill="currentColor"/>
</svg>
