<svg width="12" height="12" viewBox="0 0 12 12" fill="none" xmlns="http://www.w3.org/2000/svg">
<path d="M10.4747 2.065C10.3296 1.855 10.1447 1.67 9.93465 1.525C9.45965 1.18 8.83965 1 8.09465 1H3.90465C2.18465 1 1.11965 1.97 1.01465 3.61H10.9896C10.9496 2.995 10.7747 2.475 10.4747 2.065Z" fill="currentColor"/>
<path d="M1 8.0944C1 8.8394 1.18 9.4594 1.525 9.9344C1.67 10.1444 1.855 10.3294 2.065 10.4744C2.54 10.8194 3.16 10.9993 3.905 10.9993H8.095C9.915 10.9993 11 9.9144 11 8.0944V4.35938H1V8.0944ZM4.455 7.21935L5.735 5.93935C5.88 5.79435 6.12 5.79435 6.265 5.93935L7.545 7.21935C7.62 7.29435 7.655 7.38935 7.655 7.4844C7.655 7.5794 7.62 7.67435 7.545 7.74935C7.4 7.89435 7.16 7.89435 7.015 7.74935L6 6.73935L4.985 7.74935C4.84 7.89435 4.6 7.89435 4.455 7.74935C4.31 7.60435 4.31 7.36935 4.455 7.21935Z" fill="currentColor"/>
</svg>
