<svg width="12" height="12" viewBox="0 0 12 12" fill="none" xmlns="http://www.w3.org/2000/svg">
<path d="M1 3.90563V8.09565C1 8.84065 1.18 9.4606 1.525 9.93565C1.67 10.1456 1.855 10.3306 2.065 10.4756C2.475 10.7757 2.995 10.9506 3.61 10.9906V1.01562C1.97 1.12062 1 2.18563 1 3.90563Z" fill="currentColor"/>
<path d="M10.4754 2.065C10.3303 1.855 10.1454 1.67 9.93535 1.525C9.46035 1.18 8.84035 1 8.09535 1H4.36035V11H8.09535C9.91535 11 11.0003 9.915 11.0003 8.095V3.905C11.0003 3.16 10.8204 2.54 10.4754 2.065ZM7.75035 7.015C7.89535 7.16 7.89535 7.4 7.75035 7.545C7.67535 7.62 7.58035 7.655 7.48535 7.655C7.39035 7.655 7.29535 7.62 7.22035 7.545L5.94035 6.265C5.79535 6.12 5.79535 5.88 5.94035 5.735L7.22035 4.455C7.36535 4.31 7.60535 4.31 7.75035 4.455C7.89535 4.6 7.89535 4.84 7.75035 4.985L6.74035 6L7.75035 7.015Z" fill="currentColor"/>
</svg>
