<svg width="12" height="12" viewBox="0 0 12 12" fill="none" xmlns="http://www.w3.org/2000/svg">
<path d="M1.52477 9.93565C1.66976 10.1456 1.85476 10.3306 2.06476 10.4756C2.53977 10.8207 3.15977 11.0006 3.90477 11.0006H8.09475C9.81475 11.0006 10.8798 10.0306 10.9847 8.3906H1.00977C1.04977 9.00565 1.22477 9.52565 1.52477 9.93565Z" fill="currentColor"/>
<path d="M10.475 2.065C10.33 1.855 10.145 1.67 9.935 1.525C9.46 1.18 8.84 1 8.095 1H3.905C2.085 1 1 2.085 1 3.905V7.64H11V3.905C11 3.16 10.82 2.54 10.475 2.065ZM7.545 4.78L6.265 6.06C6.12 6.205 5.88 6.205 5.735 6.06L4.455 4.78C4.38 4.705 4.345 4.61 4.345 4.515C4.345 4.42 4.38 4.32 4.455 4.25C4.6 4.1 4.84 4.1 4.985 4.25L6 5.26L7.015 4.245C7.16 4.1 7.4 4.1 7.545 4.245C7.69 4.39 7.69 4.63 7.545 4.78Z" fill="currentColor"/>
</svg>
