<svg width="12" height="12" viewBox="0 0 12 12" fill="none" xmlns="http://www.w3.org/2000/svg">
<path d="M9.1699 7.065L8.0799 6.19C7.9249 6.07 7.7299 6 7.5299 6H6.3749V4.5H8.6099C9.0949 4.5 9.4849 4.11 9.4849 3.625V1.875C9.4849 1.39 9.0949 1 8.6099 1H4.47992C4.28492 1 4.08992 1.07 3.93492 1.19L2.83992 2.065C2.40492 2.415 2.40492 3.085 2.83992 3.435L3.93492 4.31C4.08992 4.43 4.28492 4.5 4.47992 4.5H5.6249V6H3.39992C2.91492 6 2.52492 6.39 2.52492 6.875V8.625C2.52492 9.11 2.91492 9.5 3.39992 9.5H5.6249V10.625H4.49992C4.29492 10.625 4.12492 10.795 4.12492 11C4.12492 11.205 4.29492 11.375 4.49992 11.375H7.4999C7.7049 11.375 7.8749 11.205 7.8749 11C7.8749 10.795 7.7049 10.625 7.4999 10.625H6.3749V9.5H7.5299C7.7299 9.5 7.9249 9.43 8.0799 9.31L9.1699 8.435C9.6099 8.085 9.6099 7.415 9.1699 7.065Z" fill="currentColor"/>
</svg>
