<svg width="12" height="12" viewBox="0 0 12 12" fill="none" xmlns="http://www.w3.org/2000/svg">
<path d="M9.77 3.27L8.235 1.735C7.765 1.265 7.13 1 6.465 1H4C2.5 1 1.5 2 1.5 3.5V8.5C1.5 10 2.5 11 4 11H8C9.5 11 10.5 10 10.5 8.5V5.035C10.5 4.37 10.235 3.735 9.77 3.27ZM5.015 8.735C5.16 8.88 5.16 9.12 5.015 9.265C4.94 9.34 4.845 9.375 4.75 9.375C4.655 9.375 4.56 9.34 4.485 9.265L3.485 8.265C3.34 8.12 3.34 7.88 3.485 7.735L4.485 6.735C4.63 6.59 4.87 6.59 5.015 6.735C5.16 6.88 5.16 7.12 5.015 7.265L4.28 8L5.015 8.735ZM8.515 8.265L7.515 9.265C7.44 9.34 7.345 9.375 7.25 9.375C7.155 9.375 7.06 9.34 6.985 9.265C6.84 9.12 6.84 8.88 6.985 8.735L7.72 8L6.985 7.265C6.84 7.12 6.84 6.88 6.985 6.735C7.13 6.59 7.37 6.59 7.515 6.735L8.515 7.735C8.66 7.88 8.66 8.12 8.515 8.265Z" fill="currentColor"/>
</svg>
