<svg width="12" height="12" viewBox="0 0 12 12" fill="none" xmlns="http://www.w3.org/2000/svg">
<path d="M9.77 3.27L8.235 1.735C7.765 1.265 7.13 1 6.465 1H4C2.5 1 1.5 2 1.5 3.5V8.5C1.5 10 2.5 11 4 11H8C9.5 11 10.5 10 10.5 8.5V5.035C10.5 4.37 10.235 3.735 9.77 3.27ZM5.75 9C5.75 9.13805 5.63805 9.25 5.5 9.25H5C4.175 9.25 3.5 8.575 3.5 7.75V7.5C3.5 7.36195 3.61193 7.25 3.75 7.25H5.625C5.695 7.25 5.75 7.305 5.75 7.375V9ZM5.75 6.625C5.75 6.695 5.695 6.75 5.625 6.75H3.75C3.61193 6.75 3.5 6.63805 3.5 6.5V6.25C3.5 5.425 4.175 4.75 5 4.75H5.5C5.63805 4.75 5.75 4.86193 5.75 5V6.625ZM8.5 7.75C8.5 8.575 7.825 9.25 7 9.25H6.5C6.36195 9.25 6.25 9.13805 6.25 9V7.375C6.25 7.305 6.305 7.25 6.375 7.25H8.25C8.38805 7.25 8.5 7.36195 8.5 7.5V7.75ZM8.5 6.5C8.5 6.63805 8.38805 6.75 8.25 6.75H6.375C6.305 6.75 6.25 6.695 6.25 6.625V5C6.25 4.86193 6.36195 4.75 6.5 4.75H7C7.825 4.75 8.5 5.425 8.5 6.25V6.5Z" fill="currentColor"/>
</svg>
