<svg width="12" height="12" viewBox="0 0 12 12" fill="none" xmlns="http://www.w3.org/2000/svg">
<path d="M8 6.34595V9.04095C8 10.2109 7.22 10.986 6.055 10.986H2.945C1.78 10.986 1 10.2109 1 9.04095V5.15595C1 3.98594 1.78 3.21094 2.945 3.21094H4.86C5.375 3.21094 5.87 3.41594 6.235 3.78094L7.43 4.97093C7.795 5.33595 8 5.83095 8 6.34595Z" fill="currentColor"/>
<path d="M10.9998 4.12437V6.8194C10.9998 7.9844 10.2198 8.7644 9.05475 8.7644H8.49975V6.34435C8.49975 5.69935 8.23975 5.06935 7.78475 4.61438L6.58975 3.42438C6.13475 2.96938 5.50475 2.70937 4.85977 2.70937H4.00977C4.09977 1.66937 4.85476 0.984375 5.94475 0.984375H7.85975C8.37475 0.984375 8.86975 1.18938 9.23475 1.55438L10.4298 2.74938C10.7948 3.11438 10.9998 3.60938 10.9998 4.12437Z" fill="currentColor"/>
</svg>
