<svg width="12" height="12" viewBox="0 0 12 12" fill="none" xmlns="http://www.w3.org/2000/svg">
<path d="M10.9854 2.75V4.75C10.9854 5.63075 10.3356 6.3616 9.4846 6.48245C9.3479 6.5019 9.23535 6.38805 9.23535 6.25V6.125C9.23535 4.265 7.72535 2.75 5.86035 2.75H5.73535C5.5973 2.75 5.48345 2.63743 5.50305 2.50075C5.6244 1.65339 6.35495 1 7.23535 1H9.23535C10.2054 1 10.9854 1.785 10.9854 2.75Z" fill="currentColor"/>
<path d="M5.86035 3.5H3.48535C2.10535 3.5 0.985352 4.62 0.985352 6V8.5C0.985352 9.88 2.10535 11 3.48535 11H5.98535C7.36535 11 8.48535 9.88 8.48535 8.5V6.125C8.48535 4.675 7.31035 3.5 5.86035 3.5Z" fill="currentColor"/>
</svg>
