<svg width="12" height="12" viewBox="0 0 12 12" fill="none" xmlns="http://www.w3.org/2000/svg">
<path d="M9.765 2.765L2.765 9.765C2.755 9.775 2.75 9.78 2.74 9.785C2.55 9.625 2.375 9.45 2.215 9.26C1.455 8.385 1 7.245 1 6C1 3.24 3.24 1 6 1C7.245 1 8.385 1.455 9.26 2.215C9.45 2.375 9.625 2.55 9.785 2.74C9.78 2.75 9.775 2.755 9.765 2.765Z" fill="currentColor"/>
<path d="M11.0004 6.0004C11.0004 8.7454 8.7454 11.0004 6.0004 11.0004C5.2504 11.0004 4.54042 10.8354 3.90042 10.5354C3.59042 10.3904 3.53042 9.9754 3.77042 9.7304L9.7304 3.77042C9.9704 3.53042 10.3904 3.59042 10.5354 3.90042C10.8354 4.53542 11.0004 5.2504 11.0004 6.0004Z" fill="currentColor"/>
<path d="M10.8855 1.11446C10.7355 0.964455 10.4904 0.964455 10.3405 1.11446L1.11543 10.3444C0.96543 10.4944 0.96543 10.7395 1.11543 10.8895C1.19043 10.9594 1.28543 10.9994 1.38543 10.9994C1.48543 10.9994 1.58043 10.9594 1.65543 10.8844L10.8855 1.65446C11.0405 1.50445 11.0405 1.26446 10.8855 1.11446Z" fill="currentColor"/>
</svg>
