<svg width="12" height="12" viewBox="0 0 12 12" fill="none" xmlns="http://www.w3.org/2000/svg">
<path d="M4.5 11H7.5C8.33 11 9 10.33 9 9.5V2.5C9 1.67 8.33 1 7.5 1H4.5C3.67 1 3 1.67 3 2.5V9.5C3 10.33 3.67 11 4.5 11Z" fill="currentColor"/>
<path d="M2.25 2.96462V9.0346C2.25 9.1946 2.105 9.3096 1.95 9.2796C1.21 9.1446 1 8.7146 1 7.6646V4.33462C1 3.28462 1.21 2.85462 1.95 2.71962C2.105 2.68962 2.25 2.80462 2.25 2.96462Z" fill="currentColor"/>
<path d="M11 4.33462V7.6646C11 8.7146 10.79 9.1446 10.05 9.2796C9.895 9.3096 9.75 9.1896 9.75 9.0346V2.96462C9.75 2.80462 9.895 2.68962 10.05 2.71962C10.79 2.85462 11 3.28462 11 4.33462Z" fill="currentColor"/>
</svg>
