<svg width="12" height="12" viewBox="0 0 12 12" fill="none" xmlns="http://www.w3.org/2000/svg">
<path d="M1.75 2.52929V9.4693C1.75 9.6743 1.58 9.8443 1.375 9.8443C1.17 9.8443 1 9.6743 1 9.4693V2.52929C1 2.32429 1.17 2.15429 1.375 2.15429C1.58 2.15429 1.75 2.32429 1.75 2.52929Z" fill="currentColor"/>
<path d="M11 2.52929V9.4693C11 9.6743 10.83 9.8443 10.625 9.8443C10.42 9.8443 10.25 9.6743 10.25 9.4693V2.52929C10.25 2.32429 10.42 2.15429 10.625 2.15429C10.83 2.15429 11 2.32429 11 2.52929Z" fill="currentColor"/>
<path d="M4 10.625H8C8.83 10.625 9.5 9.955 9.5 9.125V2.875C9.5 2.045 8.83 1.375 8 1.375H4C3.17 1.375 2.5 2.045 2.5 2.875V9.125C2.5 9.955 3.17 10.625 4 10.625Z" fill="currentColor"/>
</svg>
