<svg width="12" height="12" viewBox="0 0 12 12" fill="none" xmlns="http://www.w3.org/2000/svg">
<path d="M11 7.5V4.5C11 3.67 10.33 3 9.5 3H2.5C1.67 3 1 3.67 1 4.5V7.5C1 8.33 1.67 9 2.5 9H9.5C10.33 9 11 8.33 11 7.5Z" fill="currentColor"/>
<path d="M2.96462 9.75H9.0346C9.1946 9.75 9.3096 9.895 9.2796 10.05C9.1446 10.79 8.7096 11 7.6646 11H4.33462C3.28462 11 2.85462 10.79 2.71962 10.05C2.68962 9.895 2.80462 9.75 2.96462 9.75Z" fill="currentColor"/>
<path d="M4.33462 1H7.6646C8.7146 1 9.1446 1.21 9.2796 1.95C9.3096 2.105 9.1896 2.25 9.0346 2.25H2.96462C2.80462 2.25 2.68962 2.105 2.71962 1.95C2.85462 1.21 3.28462 1 4.33462 1Z" fill="currentColor"/>
</svg>
