<svg width="12" height="12" viewBox="0 0 12 12" fill="none" xmlns="http://www.w3.org/2000/svg">
<path d="M9 8.00585C9.275 8.00585 9.5 8.23085 9.5 8.50585V9.00085C9.5 10.1009 8.75 11.0008 7.5 11.0008H4.5C3.25 11.0008 2.5 10.1009 2.5 9.00085V8.50585C2.5 8.23085 2.725 8.00585 3 8.00585H9Z" fill="currentColor"/>
<path d="M9.5 3V6.75C9.5 7.025 9.275 7.25 9 7.25H3C2.725 7.25 2.5 7.025 2.5 6.75V3C2.5 1.9 3.25 1 4.5 1H7.5C8.75 1 9.5 1.9 9.5 3Z" fill="currentColor"/>
<path d="M1.5 10.375C1.295 10.375 1.125 10.205 1.125 10V2C1.125 1.795 1.295 1.625 1.5 1.625C1.705 1.625 1.875 1.795 1.875 2V10C1.875 10.205 1.705 10.375 1.5 10.375Z" fill="currentColor"/>
<path d="M10.5 10.375C10.295 10.375 10.125 10.205 10.125 10V2C10.125 1.795 10.295 1.625 10.5 1.625C10.705 1.625 10.875 1.795 10.875 2V10C10.875 10.205 10.705 10.375 10.5 10.375Z" fill="currentColor"/>
</svg>
