<svg width="12" height="12" viewBox="0 0 12 12" fill="none" xmlns="http://www.w3.org/2000/svg">
<path d="M9.47025 1.75H2.53028C2.32528 1.75 2.15528 1.58 2.15528 1.375C2.15528 1.17 2.32528 1 2.53028 1H9.47025C9.67525 1 9.84525 1.17 9.84525 1.375C9.84525 1.58 9.67525 1.75 9.47025 1.75Z" fill="currentColor"/>
<path d="M9.47025 11H2.53028C2.32528 11 2.15528 10.83 2.15528 10.625C2.15528 10.42 2.32528 10.25 2.53028 10.25H9.47025C9.67525 10.25 9.84525 10.42 9.84525 10.625C9.84525 10.83 9.67525 11 9.47025 11Z" fill="currentColor"/>
<path d="M1.375 4V8C1.375 8.83 2.045 9.5 2.875 9.5H9.125C9.955 9.5 10.625 8.83 10.625 8V4C10.625 3.17 9.955 2.5 9.125 2.5H2.875C2.045 2.5 1.375 3.17 1.375 4Z" fill="currentColor"/>
</svg>
