<svg width="12" height="12" viewBox="0 0 12 12" fill="none" xmlns="http://www.w3.org/2000/svg">
<path d="M10.475 2.065C10.33 1.855 10.145 1.67 9.935 1.525C9.46 1.18 8.84 1 8.095 1H3.905C3.805 1 3.705 1.005 3.61 1.015C1.97 1.12 1 2.185 1 3.905V8.095C1 8.84 1.18 9.46 1.525 9.935C1.67 10.145 1.855 10.33 2.065 10.475C2.475 10.775 2.995 10.95 3.61 10.99C3.705 10.995 3.805 11 3.905 11H8.095C9.915 11 11 9.915 11 8.095V3.905C11 3.16 10.82 2.54 10.475 2.065ZM5.695 7.94H4.26C4.055 7.94 3.885 7.77 3.885 7.565C3.885 7.36 4.055 7.19 4.26 7.19H4.76V3.955H3.475C3.42 3.955 3.375 4 3.375 4.055V4.445C3.375 4.65 3.205 4.815 3 4.815C2.795 4.815 2.625 4.65 2.625 4.44V4.05C2.625 3.58 3.005 3.2 3.475 3.2H6.795C7.265 3.2 7.645 3.58 7.645 4.05V4.44C7.645 4.645 7.475 4.815 7.27 4.815C7.065 4.815 6.895 4.645 6.895 4.44V4.05C6.895 3.995 6.85 3.95 6.795 3.95H5.51V7.19H5.695C5.9 7.19 6.07 7.36 6.07 7.565C6.07 7.77 5.9 7.94 5.695 7.94ZM9.375 6.115C9.375 6.32 9.205 6.49 9 6.49C8.795 6.49 8.625 6.32 8.625 6.115V5.95H7.85V8.05H8.025C8.23 8.05 8.4 8.22 8.4 8.425C8.4 8.63 8.23 8.8 8.025 8.8H6.925C6.72 8.8 6.55 8.63 6.55 8.425C6.55 8.22 6.72 8.05 6.925 8.05H7.1V5.95H6.86C6.655 5.95 6.485 5.78 6.485 5.575C6.485 5.37 6.655 5.2 6.86 5.2H8.66C9.055 5.2 9.375 5.52 9.375 5.915V6.115Z" fill="currentColor"/>
</svg>
