<svg width="12" height="12" viewBox="0 0 12 12" fill="none" xmlns="http://www.w3.org/2000/svg">
<path d="M9.35445 4.74524C9.30445 4.74524 9.25445 4.73524 9.20445 4.71524C9.01445 4.63024 8.92945 4.41024 9.00945 4.22024C9.10445 4.00524 9.04945 3.69024 8.87445 3.43024C8.69945 3.16525 8.43445 2.98524 8.19445 3.00025C7.97445 3.00025 7.81945 2.83524 7.81445 2.63024C7.81445 2.42024 7.97945 2.25525 8.18445 2.25025C8.69945 2.24025 9.18445 2.53525 9.49945 3.01025C9.81945 3.49025 9.89445 4.06524 9.69945 4.51524C9.63945 4.66024 9.49945 4.74524 9.35445 4.74524Z" fill="currentColor"/>
<path d="M10.9101 5.2397C10.8751 5.2397 10.8451 5.2347 10.8101 5.2247C10.6101 5.1697 10.4951 4.96468 10.5501 4.76469C10.7401 4.08469 10.5801 3.27469 10.1251 2.59469C9.67005 1.91469 8.98005 1.45969 8.27505 1.37469C8.07005 1.34969 7.92505 1.16469 7.95005 0.959685C7.97505 0.754685 8.16505 0.604685 8.36505 0.634685C9.28005 0.744685 10.1701 1.32469 10.7451 2.18469C11.3201 3.04469 11.5151 4.08469 11.2701 4.97469C11.2251 5.1297 11.0751 5.2397 10.9101 5.2397Z" fill="currentColor"/>
<path d="M8.55945 5.89045C8.55945 6.04045 8.43445 6.16545 8.28445 6.16545H1.71446C1.56446 6.16545 1.43946 6.04045 1.43946 5.89045C1.43946 5.74045 1.56446 5.61545 1.71446 5.61545H2.08446L2.22446 4.95547C2.35446 4.31547 2.62946 3.73047 3.71946 3.73047H6.28445C7.37445 3.73047 7.64445 4.32047 7.77945 4.95547L7.91945 5.61545H8.28945C8.43445 5.61545 8.55945 5.74045 8.55945 5.89045Z" fill="currentColor"/>
<path d="M8.71525 7.95595C8.66025 7.35595 8.50025 6.71095 7.33025 6.71095H2.67027C1.50027 6.71095 1.34027 7.35595 1.28527 7.95595L1.08027 10.181C1.05527 10.4559 1.14527 10.7359 1.33527 10.9459C1.53027 11.1559 1.80027 11.276 2.09527 11.276H2.78027C3.37027 11.276 3.48527 10.936 3.56027 10.716L3.63527 10.4959C3.72027 10.2459 3.74027 10.181 4.07027 10.181H5.94025C6.27025 10.181 6.28025 10.216 6.37525 10.4959L6.45025 10.716C6.52525 10.941 6.63525 11.276 7.23025 11.276H7.91525C8.20525 11.276 8.48025 11.1559 8.67525 10.9459C8.86525 10.7359 8.95525 10.4609 8.93025 10.181L8.71525 7.95595ZM3.90527 8.71595H2.81027C2.66027 8.71595 2.53527 8.59095 2.53527 8.44095C2.53527 8.29095 2.66027 8.16595 2.81027 8.16595H3.90527C4.05527 8.16595 4.18027 8.29095 4.18027 8.44095C4.18027 8.59095 4.05527 8.71595 3.90527 8.71595ZM7.19025 8.71595H6.09525C5.94525 8.71595 5.82025 8.59095 5.82025 8.44095C5.82025 8.29095 5.94525 8.16595 6.09525 8.16595H7.19025C7.34025 8.16595 7.46525 8.29095 7.46525 8.44095C7.46525 8.59095 7.34025 8.71595 7.19025 8.71595Z" fill="currentColor"/>
</svg>
