<svg width="12" height="12" viewBox="0 0 12 12" fill="none" xmlns="http://www.w3.org/2000/svg">
<path d="M10.4296 4.28063L6.96465 1.51063C6.42965 1.08063 5.56465 1.08063 5.03465 1.50563L1.56964 4.28063C1.17964 4.59063 0.929644 5.24565 1.01464 5.73565L1.67964 9.71565C1.79964 10.4256 2.47964 11.0006 3.19964 11.0006H8.79965C9.51465 11.0006 10.1996 10.4206 10.3196 9.71565L10.9846 5.73565C11.0646 5.24565 10.8146 4.59063 10.4296 4.28063ZM4.68964 8.69065C4.40964 8.69065 4.18964 8.46565 4.18964 8.19065C4.18964 7.91565 4.41464 7.69065 4.68964 7.69065C4.96464 7.69065 5.18965 7.91565 5.18965 8.19065C5.18965 8.46565 4.96464 8.69065 4.68964 8.69065ZM6.19465 8.56065C6.18965 8.56065 6.18965 8.56065 6.18465 8.56065C5.97965 8.56065 5.81465 8.39565 5.80965 8.19565C5.79465 7.52065 5.34965 7.07565 4.67464 7.06065C4.46964 7.05565 4.30464 6.88565 4.30964 6.67565C4.31464 6.47065 4.47964 6.31065 4.68464 6.31065C4.68964 6.31065 4.68964 6.31065 4.69464 6.31065C5.76965 6.33565 6.53965 7.10065 6.55965 8.17565C6.56465 8.38565 6.40465 8.56065 6.19465 8.56065ZM7.68965 8.56065C7.47965 8.56065 7.31465 8.39565 7.30965 8.19065C7.30465 7.86065 7.24965 7.54565 7.14965 7.25065C6.89465 6.52065 6.34965 5.98065 5.61965 5.72065C5.32465 5.61565 5.00965 5.56065 4.67964 5.56065C4.47464 5.56065 4.30464 5.39065 4.30964 5.18065C4.30964 4.97563 4.47964 4.81063 4.68464 4.81063H4.68964C5.10465 4.81563 5.49965 4.88563 5.86965 5.01565C6.81465 5.35065 7.51965 6.05565 7.85465 7.00065C7.98465 7.37065 8.05465 7.77065 8.05965 8.18065C8.06465 8.39065 7.89965 8.56065 7.68965 8.56065Z" fill="currentColor"/>
</svg>
