<svg width="12" height="12" viewBox="0 0 12 12" fill="none" xmlns="http://www.w3.org/2000/svg">
<path d="M5 0.5H2C1.17 0.5 0.5 1.17 0.5 2V5C0.5 5.83 1.17 6.5 2 6.5H4.25C4.25 5.26 5.26 4.25 6.5 4.25V2C6.5 1.17 5.83 0.5 5 0.5ZM1.885 2.135C2.27 1.86 2.795 1.855 3.19 2.125C3.36 2.24 3.405 2.475 3.29 2.645C3.175 2.815 2.94 2.86 2.77 2.745C2.635 2.65 2.45 2.65 2.315 2.75C2.25 2.795 2.175 2.815 2.1 2.815C1.985 2.815 1.865 2.76 1.795 2.66C1.675 2.49 1.715 2.255 1.885 2.135ZM4.635 4.12C4.505 4.285 4.27 4.31 4.11 4.18C3.935 4.04 3.725 3.965 3.5 3.965C3 3.965 2.585 4.345 2.53 4.835H3.58C3.785 4.835 3.955 5.005 3.955 5.21C3.955 5.415 3.785 5.585 3.58 5.585H2.42C2.065 5.585 1.775 5.295 1.775 4.94C1.775 3.99 2.55 3.215 3.5 3.215C3.89 3.215 4.275 3.35 4.58 3.595C4.74 3.725 4.765 3.96 4.635 4.12ZM5.29 2.645C5.175 2.815 4.94 2.86 4.77 2.745C4.635 2.65 4.45 2.65 4.315 2.75C4.25 2.795 4.175 2.815 4.1 2.815C3.985 2.815 3.865 2.76 3.795 2.66C3.675 2.49 3.715 2.255 3.885 2.135C4.27 1.86 4.795 1.855 5.19 2.125C5.36 2.24 5.405 2.475 5.29 2.645Z" fill="currentColor"/>
<path d="M9.11035 8.3393C9.07535 8.2993 9.02535 8.2793 8.97035 8.2793H7.03035C6.97535 8.2793 6.92535 8.2993 6.89035 8.3393C6.85535 8.3793 6.83535 8.4343 6.84535 8.4843C6.91035 9.0743 7.40535 9.5243 8.00035 9.5243C8.59535 9.5243 9.09035 9.0793 9.15535 8.4843C9.16035 8.4293 9.14535 8.3793 9.11035 8.3393Z" fill="currentColor"/>
<path d="M9.5 5H6.5C5.675 5 5 5.675 5 6.5V9.5C5 10.325 5.675 11 6.5 11H9.5C10.325 11 11 10.325 11 9.5V6.5C11 5.675 10.325 5 9.5 5ZM6.295 6.585C6.415 6.415 6.65 6.375 6.82 6.495C6.955 6.59 7.135 6.59 7.27 6.5C7.44 6.38 7.675 6.425 7.79 6.6C7.905 6.77 7.865 7.005 7.69 7.12C7.495 7.25 7.27 7.32 7.045 7.32C6.81 7.32 6.58 7.25 6.385 7.11C6.215 6.985 6.175 6.75 6.295 6.585ZM8 10.085C7.05 10.085 6.275 9.31 6.275 8.36C6.275 8.005 6.565 7.715 6.92 7.715H9.08C9.435 7.715 9.725 8.005 9.725 8.36C9.725 9.31 8.95 10.085 8 10.085ZM9.69 7.115C9.495 7.245 9.27 7.315 9.045 7.315C8.81 7.315 8.58 7.245 8.385 7.105C8.215 6.985 8.175 6.75 8.295 6.58C8.415 6.41 8.65 6.37 8.82 6.49C8.955 6.585 9.135 6.585 9.27 6.495C9.44 6.375 9.675 6.42 9.79 6.595C9.905 6.77 9.86 7 9.69 7.115Z" fill="currentColor"/>
</svg>
