<svg width="12" height="12" viewBox="0 0 12 12" fill="none" xmlns="http://www.w3.org/2000/svg">
<path d="M9.7406 1.40938L9.8806 1.69438C9.9506 1.83438 10.1256 1.96438 10.2806 1.99438L10.4706 2.02438C11.0406 2.11938 11.1756 2.53938 10.7656 2.95438L10.5906 3.12938C10.4756 3.24938 10.4106 3.47938 10.4456 3.63938L10.4706 3.74438C10.6256 4.43438 10.2606 4.69938 9.6606 4.33938L9.5306 4.26438C9.3756 4.17438 9.1256 4.17438 8.9706 4.26438L8.8406 4.33938C8.2356 4.70438 7.8706 4.43438 8.0306 3.74438L8.0556 3.63938C8.0906 3.47938 8.0256 3.24938 7.9106 3.12938L7.7356 2.94938C7.3256 2.53438 7.4606 2.11438 8.0306 2.01938L8.2206 1.98938C8.3706 1.96438 8.5506 1.82938 8.6206 1.68938L8.7606 1.40438C9.0306 0.864377 9.4706 0.864377 9.7406 1.40938Z" fill="currentColor"/>
<path d="M10.785 5.045C10.605 5.175 10.1 5.415 9.38 5.045C9.3 5.005 9.2 5 9.12 5.045C8.835 5.19 8.575 5.25 8.37 5.25C8.05 5.25 7.825 5.125 7.715 5.045C7.53 4.91 7.14 4.525 7.275 3.71C7.29 3.625 7.265 3.54 7.21 3.475C6.865 3.08 6.675 2.55 6.81 2.135C6.86 1.97 6.755 1.75 6.585 1.75H3.5C2 1.75 1 2.5 1 4.25V7.75C1 9.5 2 10.25 3.5 10.25H8.5C10 10.25 11 9.5 11 7.75V5.135C11 5.04 10.865 4.99 10.785 5.045ZM7.17 6.045C6.84 6.31 6.42 6.44 6 6.44C5.58 6.44 5.155 6.31 4.83 6.045L3.265 4.795C3.105 4.665 3.08 4.425 3.205 4.265C3.335 4.105 3.57 4.075 3.73 4.205L5.295 5.455C5.675 5.76 6.32 5.76 6.7 5.455C6.86 5.325 7.095 5.35 7.225 5.515C7.36 5.675 7.335 5.915 7.17 6.045Z" fill="currentColor"/>
</svg>
