<svg width="12" height="12" viewBox="0 0 12 12" fill="none" xmlns="http://www.w3.org/2000/svg">
<path d="M8.5 1.5H3.5C2 1.5 1 2.25 1 4V7.5C1 9.25 2 10 3.5 10H5.285C5.58 10 5.82 9.74 5.78 9.445C5.73 9.09 5.74 8.72 5.815 8.34C6.08 7.04 7.15 6.005 8.46 5.79C9.115 5.685 9.74 5.775 10.29 6.015C10.625 6.16 11 5.93 11 5.565V4C11 2.25 10 1.5 8.5 1.5ZM8.735 4.295L7.17 5.545C6.84 5.81 6.42 5.94 6 5.94C5.58 5.94 5.155 5.81 4.83 5.545L3.265 4.295C3.105 4.165 3.08 3.93 3.205 3.765C3.335 3.605 3.57 3.575 3.73 3.705L5.295 4.955C5.675 5.26 6.32 5.26 6.7 4.955L8.265 3.705C8.425 3.575 8.665 3.6 8.79 3.765C8.92 3.93 8.895 4.165 8.735 4.295Z" fill="currentColor"/>
<path d="M9 6.5C7.62 6.5 6.5 7.615 6.5 9C6.5 10.38 7.62 11.5 9 11.5C10.385 11.5 11.5 10.38 11.5 9C11.5 7.615 10.385 6.5 9 6.5ZM10.025 8.775L9.84 8.955L8.75 10.05C8.7 10.095 8.605 10.145 8.535 10.155L8.045 10.225C7.87 10.25 7.745 10.125 7.77 9.95L7.84 9.46C7.85 9.39 7.895 9.295 7.945 9.245L9.035 8.16L9.215 7.975C9.335 7.855 9.47 7.775 9.61 7.775C9.73 7.775 9.865 7.83 10.015 7.975C10.35 8.3 10.245 8.555 10.025 8.775Z" fill="currentColor"/>
</svg>
