<svg width="12" height="12" viewBox="0 0 12 12" fill="none" xmlns="http://www.w3.org/2000/svg">
<path d="M8.5 1.5H3.5C2 1.5 1 2.25 1 4V7.98C1 9.125 1.925 10.05 3.07 10.05H6.2C6.49 10.05 6.74 9.805 6.71 9.515C6.64 8.75 6.89 7.925 7.57 7.26C7.85 6.985 8.195 6.775 8.57 6.655C9.195 6.455 9.8 6.48 10.335 6.665C10.66 6.775 11 6.54 11 6.195V4C11 2.25 10 1.5 8.5 1.5ZM8.735 4.295L7.17 5.545C6.84 5.81 6.42 5.94 6 5.94C5.58 5.94 5.155 5.81 4.83 5.545L3.265 4.295C3.105 4.165 3.08 3.93 3.205 3.765C3.335 3.605 3.57 3.575 3.73 3.705L5.295 4.955C5.675 5.26 6.32 5.26 6.7 4.955L8.265 3.705C8.425 3.575 8.665 3.6 8.79 3.765C8.92 3.93 8.895 4.165 8.735 4.295Z" fill="currentColor"/>
<path d="M11.325 10.7245L10.95 10.3495C11.145 10.0545 11.26 9.69945 11.26 9.31945C11.26 8.27945 10.42 7.43945 9.38 7.43945C8.34 7.43945 7.5 8.27945 7.5 9.31445C7.5 10.3495 8.34 11.1945 9.38 11.1945C9.76 11.1945 10.115 11.0794 10.41 10.8844L10.785 11.2594C10.86 11.3344 10.955 11.3694 11.055 11.3694C11.155 11.3694 11.25 11.3344 11.325 11.2594C11.475 11.1144 11.475 10.8744 11.325 10.7245Z" fill="currentColor"/>
</svg>
