<svg width="12" height="12" viewBox="0 0 12 12" fill="none" xmlns="http://www.w3.org/2000/svg">
<path d="M3 6.5C1.62 6.5 0.5 7.615 0.5 9C0.5 10.385 1.62 11.5 3 11.5C4.38 11.5 5.5 10.38 5.5 9C5.5 7.62 4.385 6.5 3 6.5ZM1.98 7.98H3C3.19 7.98 3.34 8.135 3.34 8.32C3.34 8.505 3.19 8.66 3 8.66H1.98C1.79 8.66 1.64 8.505 1.64 8.32C1.64 8.135 1.79 7.98 1.98 7.98ZM4.02 10.02H1.98C1.79 10.02 1.64 9.865 1.64 9.68C1.64 9.495 1.795 9.34 1.98 9.34H4.025C4.215 9.34 4.365 9.495 4.365 9.68C4.365 9.865 4.21 10.02 4.02 10.02Z" fill="currentColor"/>
<path d="M8.5 1.5H3.5C2 1.5 1 2.25 1 4V5.57C1 5.935 1.375 6.165 1.71 6.02C2.26 5.78 2.885 5.69 3.54 5.795C4.85 6.01 5.92 7.045 6.185 8.345C6.26 8.725 6.27 9.095 6.22 9.45C6.18 9.745 6.42 10.005 6.715 10.005H8.5C10 10.005 11 9.255 11 7.505V4C11 2.25 10 1.5 8.5 1.5ZM8.735 4.295L7.17 5.545C6.84 5.81 6.42 5.94 6 5.94C5.58 5.94 5.155 5.81 4.83 5.545L3.265 4.295C3.105 4.165 3.08 3.925 3.205 3.765C3.335 3.605 3.57 3.575 3.73 3.705L5.295 4.955C5.675 5.26 6.32 5.26 6.7 4.955L8.265 3.705C8.425 3.575 8.665 3.6 8.79 3.765C8.92 3.925 8.895 4.165 8.735 4.295Z" fill="currentColor"/>
</svg>
