<svg width="12" height="12" viewBox="0 0 12 12" fill="none" xmlns="http://www.w3.org/2000/svg">
<path d="M8.095 1H3.905C2.085 1 1 2.085 1 3.905V8.09C1 9.915 2.085 11 3.905 11H8.09C9.91 11 10.995 9.915 10.995 8.095V3.905C11 2.085 9.915 1 8.095 1ZM6.665 8.5H5.33C5.125 8.5 4.955 8.33 4.955 8.125C4.955 7.92 5.125 7.75 5.33 7.75H6.665C6.87 7.75 7.04 7.92 7.04 8.125C7.04 8.33 6.875 8.5 6.665 8.5ZM8 6.375H4C3.795 6.375 3.625 6.205 3.625 6C3.625 5.795 3.795 5.625 4 5.625H8C8.205 5.625 8.375 5.795 8.375 6C8.375 6.205 8.205 6.375 8 6.375ZM9 4.25H3C2.795 4.25 2.625 4.08 2.625 3.875C2.625 3.67 2.795 3.5 3 3.5H9C9.205 3.5 9.375 3.67 9.375 3.875C9.375 4.08 9.205 4.25 9 4.25Z" fill="currentColor"/>
</svg>
