<svg width="12" height="12" viewBox="0 0 12 12" fill="none" xmlns="http://www.w3.org/2000/svg">
<path d="M1.5 8.25C1.295 8.25 1.125 8.08 1.125 7.875V4.125C1.125 3.92 1.295 3.75 1.5 3.75C1.705 3.75 1.875 3.92 1.875 4.125V7.875C1.875 8.08 1.705 8.25 1.5 8.25Z" fill="currentColor"/>
<path d="M3.75 9.5C3.545 9.5 3.375 9.33 3.375 9.125V2.875C3.375 2.67 3.545 2.5 3.75 2.5C3.955 2.5 4.125 2.67 4.125 2.875V9.125C4.125 9.33 3.955 9.5 3.75 9.5Z" fill="currentColor"/>
<path d="M6 10.75C5.795 10.75 5.625 10.58 5.625 10.375V1.625C5.625 1.42 5.795 1.25 6 1.25C6.205 1.25 6.375 1.42 6.375 1.625V10.375C6.375 10.58 6.205 10.75 6 10.75Z" fill="currentColor"/>
<path d="M8.25 9.5C8.045 9.5 7.875 9.33 7.875 9.125V2.875C7.875 2.67 8.045 2.5 8.25 2.5C8.455 2.5 8.625 2.67 8.625 2.875V9.125C8.625 9.33 8.455 9.5 8.25 9.5Z" fill="currentColor"/>
<path d="M10.5 8.25C10.295 8.25 10.125 8.08 10.125 7.875V4.125C10.125 3.92 10.295 3.75 10.5 3.75C10.705 3.75 10.875 3.92 10.875 4.125V7.875C10.875 8.08 10.705 8.25 10.5 8.25Z" fill="currentColor"/>
</svg>
