<svg width="12" height="12" viewBox="0 0 12 12" fill="none" xmlns="http://www.w3.org/2000/svg">
<path d="M7.49955 0.810547H4.49957C2.90457 0.810547 2.30957 1.40555 2.30957 3.00055V9.00055C2.30957 10.5956 2.90457 11.1906 4.49957 11.1906H7.49955C9.09455 11.1906 9.68955 10.5956 9.68955 9.00055V3.00055C9.68955 1.40555 9.09455 0.810547 7.49955 0.810547ZM5.99955 3.00055C6.41455 3.00055 6.74955 3.33555 6.74955 3.75055C6.74955 4.16555 6.41455 4.50055 5.99955 4.50055C5.58455 4.50055 5.24955 4.16555 5.24955 3.75055C5.24955 3.33555 5.58455 3.00055 5.99955 3.00055ZM5.99955 9.00055C5.16955 9.00055 4.49957 8.33055 4.49957 7.50055C4.49957 6.67055 5.16955 6.00055 5.99955 6.00055C6.82955 6.00055 7.49955 6.67055 7.49955 7.50055C7.49955 8.33055 6.82955 9.00055 5.99955 9.00055Z" fill="currentColor"/>
</svg>
