<svg width="12" height="12" viewBox="0 0 12 12" fill="none" xmlns="http://www.w3.org/2000/svg">
<path d="M9.57 10.125C9.475 10.125 9.38 10.09 9.305 10.02C9.155 9.875 9.155 9.64 9.3 9.49C10.155 8.62 10.625 7.47 10.625 6.25C10.625 3.7 8.55 1.625 6 1.625C3.45 1.625 1.375 3.7 1.375 6.25C1.375 7.465 1.84 8.61 2.69 9.48C2.835 9.63 2.83 9.865 2.685 10.01C2.535 10.155 2.3 10.15 2.155 10.005C1.17 8.995 0.625 7.66 0.625 6.25C0.625 3.285 3.035 0.875 6 0.875C8.965 0.875 11.375 3.285 11.375 6.25C11.375 7.665 10.83 9.005 9.835 10.015C9.765 10.09 9.665 10.125 9.57 10.125Z" fill="currentColor"/>
<path d="M5.99955 10.9992C7.071 10.9992 7.93955 10.1305 7.93955 9.05915C7.93955 7.9877 7.071 7.11915 5.99955 7.11915C4.92814 7.11915 4.05957 7.9877 4.05957 9.05915C4.05957 10.1305 4.92814 10.9992 5.99955 10.9992Z" fill="currentColor"/>
<path d="M8 4.25C7.45 4.25 7 4.7 7 5.25V5.625C7 5.97 7.28 6.25 7.625 6.25H8C8.55 6.25 9 5.8 9 5.25C9 4.7 8.55 4.25 8 4.25Z" fill="currentColor"/>
</svg>
