<svg width="12" height="12" viewBox="0 0 12 12" fill="none" xmlns="http://www.w3.org/2000/svg">
<path d="M2.86969 8C2.92469 7.755 2.82469 7.405 2.64969 7.23L1.43469 6.015C1.05469 5.635 0.904685 5.23 1.01469 4.88C1.12969 4.53 1.48469 4.29 2.01469 4.2L3.57469 3.94C3.79969 3.9 4.07469 3.7 4.17969 3.495L5.0397 1.77C5.2897 1.275 5.6297 1 5.9997 1C6.3697 1 6.7097 1.275 6.9597 1.77L7.8197 3.495C7.8847 3.625 8.0197 3.75 8.1647 3.835L2.77969 9.22C2.70969 9.29 2.58969 9.225 2.60969 9.125L2.86969 8Z" fill="currentColor"/>
<path d="M9.3504 7.23095C9.1704 7.41095 9.0704 7.75595 9.1304 8.00095L9.4754 9.50595C9.6204 10.1309 9.5304 10.6009 9.2204 10.8259C9.0954 10.9159 8.9454 10.9609 8.7704 10.9609C8.5154 10.9609 8.2154 10.8659 7.8854 10.6709L6.4204 9.80095C6.1904 9.66595 5.8104 9.66595 5.5804 9.80095L4.11539 10.6709C3.56039 10.9959 3.08539 11.051 2.78039 10.8259C2.66539 10.7409 2.58039 10.6259 2.52539 10.476L8.6054 4.39592C8.8354 4.16592 9.1604 4.06092 9.4754 4.11592L9.9804 4.20092C10.5104 4.29092 10.8654 4.53093 10.9804 4.88092C11.0904 5.23095 10.9404 5.63595 10.5604 6.01595L9.3504 7.23095Z" fill="currentColor"/>
</svg>
