<svg width="12" height="12" viewBox="0 0 12 12" fill="none" xmlns="http://www.w3.org/2000/svg">
<path d="M7.69475 2.60563L8.39975 4.01563C8.49475 4.21063 8.74975 4.39563 8.96475 4.43563L10.2397 4.64563C11.0547 4.78063 11.2448 5.37065 10.6597 5.96065L9.66475 6.95565C9.49975 7.12065 9.40475 7.44565 9.45975 7.68065L9.74475 8.91065C9.96975 9.88065 9.44975 10.2607 8.59475 9.75065L7.39975 9.04065C7.18475 8.91065 6.82475 8.91065 6.60975 9.04065L5.41475 9.75065C4.55973 10.2557 4.03973 9.88065 4.26473 8.91065L4.54973 7.68065C4.59473 7.44065 4.49972 7.11565 4.33472 6.95065L3.33973 5.95565C2.75472 5.37065 2.94473 4.78063 3.75973 4.64063L5.03475 4.43063C5.24975 4.39563 5.50475 4.20563 5.59975 4.01063L6.30475 2.60063C6.68975 1.84063 7.30975 1.84063 7.69475 2.60563Z" fill="currentColor"/>
<path d="M4 2.875H1C0.795 2.875 0.625 2.705 0.625 2.5C0.625 2.295 0.795 2.125 1 2.125H4C4.205 2.125 4.375 2.295 4.375 2.5C4.375 2.705 4.205 2.875 4 2.875Z" fill="currentColor"/>
<path d="M2.5 9.875H1C0.795 9.875 0.625 9.705 0.625 9.5C0.625 9.295 0.795 9.125 1 9.125H2.5C2.705 9.125 2.875 9.295 2.875 9.5C2.875 9.705 2.705 9.875 2.5 9.875Z" fill="currentColor"/>
<path d="M1.5 6.375H1C0.795 6.375 0.625 6.205 0.625 6C0.625 5.795 0.795 5.625 1 5.625H1.5C1.705 5.625 1.875 5.795 1.875 6C1.875 6.205 1.705 6.375 1.5 6.375Z" fill="currentColor"/>
</svg>
