<svg width="12" height="12" viewBox="0 0 12 12" fill="none" xmlns="http://www.w3.org/2000/svg">
<g clip-path="url(#clip0_1652_3775)">
<path d="M8.84999 11.35C8.59999 11.35 8.24999 11.25 7.79999 11L6.29999 10.1C6.14999 10 5.84999 10 5.69999 10.1L4.19999 11C3.29999 11.55 2.79999 11.3 2.54999 11.15C2.29999 11 1.94999 10.55 2.19999 9.55002L2.54999 8.00002C2.59999 7.85002 2.49999 7.55002 2.39999 7.45002L1.14999 6.20002C0.549988 5.60002 0.599988 5.05002 0.649988 4.80002C0.749988 4.55002 0.999988 4.10002 1.84999 3.95002L3.49999 3.65002C3.64999 3.65002 3.84999 3.45002 3.94999 3.35002L4.84999 1.60002C5.24999 0.800024 5.74999 0.650024 6.04999 0.650024C6.34999 0.650024 6.84999 0.750024 7.24999 1.60002L8.14999 3.35002C8.14999 3.50002 8.34999 3.65002 8.49999 3.65002L10.1 3.90002C10.95 4.05002 11.25 4.50002 11.3 4.75002C11.4 5.00002 11.45 5.55002 10.8 6.15002L9.54999 7.40002C9.44999 7.50002 9.34999 7.80002 9.39999 7.95002L9.74999 9.50002C9.99999 10.5 9.64999 10.95 9.39999 11.1C9.29999 11.25 9.09999 11.35 8.84999 11.35Z" fill="currentColor"/>
</g>
<defs>
<clipPath id="clip0_1652_3775">
<rect width="12" height="12" fill="currentColor"/>
</clipPath>
</defs>
</svg>
