<svg width="12" height="12" viewBox="0 0 12 12" fill="none" xmlns="http://www.w3.org/2000/svg">
<path d="M9.3496 7.2293C9.1746 7.4043 9.0746 7.7543 9.1296 7.9943L9.4746 9.5043C9.6196 10.1293 9.5296 10.5993 9.2196 10.8243C9.0946 10.9143 8.9446 10.9593 8.7696 10.9593C8.5146 10.9593 8.2146 10.8643 7.8846 10.6693L6.4196 9.7993C6.1896 9.6643 5.8096 9.6643 5.5796 9.7993L4.11461 10.6693C3.55961 10.9943 3.08461 11.0493 2.77961 10.8243C2.75961 10.8093 2.73961 10.7943 2.72461 10.7743L9.0346 4.46428C9.2646 4.23428 9.5896 4.12928 9.9096 4.18428L9.9846 4.19928C10.5146 4.28928 10.8696 4.52928 10.9846 4.87928C11.0946 5.2293 10.9446 5.6343 10.5646 6.0143L9.3496 7.2293Z" fill="currentColor"/>
<path d="M2.86969 8C2.92469 7.76 2.82469 7.405 2.64969 7.23L1.43469 6.015C1.05469 5.635 0.904685 5.23 1.01469 4.88C1.12969 4.53 1.48469 4.29 2.01469 4.2L3.57469 3.94C3.79969 3.9 4.07469 3.7 4.17969 3.495L5.0397 1.77C5.2897 1.275 5.6297 1 5.9997 1C6.3697 1 6.7097 1.275 6.9597 1.77L7.8197 3.495C7.8847 3.625 8.0197 3.75 8.1647 3.835L2.53469 9.465L2.86969 8Z" fill="currentColor"/>
<path d="M10.8855 1.11446C10.7355 0.964455 10.4905 0.964455 10.3405 1.11446L1.11543 10.3444C0.96543 10.4944 0.96543 10.7395 1.11543 10.8895C1.19043 10.9594 1.28543 10.9994 1.38543 10.9994C1.48543 10.9994 1.58043 10.9594 1.65543 10.8844L10.8855 1.65446C11.0405 1.50445 11.0405 1.26446 10.8855 1.11446Z" fill="currentColor"/>
</svg>
