<svg width="12" height="12" viewBox="0 0 12 12" fill="none" xmlns="http://www.w3.org/2000/svg">
<g clip-path="url(#clip0_1652_3744)">
<path d="M4.50042 7.1094H1.96042C1.65542 7.1094 1.37542 7.26435 1.21542 7.52435C1.05542 7.77935 1.04042 8.08435 1.17042 8.35435C1.78542 9.61435 2.89542 10.6044 4.21542 11.0694C4.30542 11.0993 4.40542 11.1194 4.50042 11.1194C4.67542 11.1194 4.85042 11.0643 5.0004 10.9593C5.2354 10.7943 5.3754 10.5244 5.3754 10.2394L5.3804 7.98935C5.3804 7.75435 5.2904 7.53435 5.1254 7.36935C4.95542 7.20435 4.73542 7.1094 4.50042 7.1094Z" fill="currentColor"/>
<path d="M11.2399 4.8C10.6799 2.34 8.52495 0.625 5.99995 0.625C3.47496 0.625 1.31996 2.34 0.759963 4.8C0.699963 5.06 0.759963 5.325 0.929963 5.535C1.09996 5.745 1.34996 5.865 1.61996 5.865H10.3849C10.6549 5.865 10.9049 5.745 11.0749 5.535C11.2399 5.325 11.2999 5.055 11.2399 4.8Z" fill="currentColor"/>
<path d="M10.03 7.13585L7.5 7.13085C7.265 7.13085 7.045 7.22085 6.88 7.38585C6.715 7.55085 6.625 7.77085 6.625 8.00585L6.63 10.2458C6.63 10.5308 6.77 10.8008 7.005 10.9658C7.155 11.0708 7.33 11.1258 7.505 11.1258C7.6 11.1258 7.695 11.1108 7.785 11.0758C9.095 10.6158 10.205 9.63085 10.82 8.38585C10.95 8.12085 10.935 7.81085 10.78 7.56085C10.615 7.29085 10.335 7.13585 10.03 7.13585Z" fill="currentColor"/>
</g>
<defs>
<clipPath id="clip0_1652_3744">
<rect width="12" height="12" fill="currentColor"/>
</clipPath>
</defs>
</svg>
