<svg width="12" height="12" viewBox="0 0 12 12" fill="none" xmlns="http://www.w3.org/2000/svg">
<path d="M4.14453 3.145C3.93453 3.145 3.76953 2.975 3.76953 2.77V1.375C3.76953 1.17 3.93453 1 4.14453 1C4.35453 1 4.51953 1.17 4.51953 1.375V2.765C4.51953 2.975 4.35453 3.145 4.14453 3.145Z" fill="currentColor"/>
<path d="M7.85545 3.145C7.64545 3.145 7.48045 2.975 7.48045 2.77V1.375C7.48045 1.165 7.65045 1 7.85545 1C8.06545 1 8.23045 1.17 8.23045 1.375V2.765C8.23045 2.975 8.06545 3.145 7.85545 3.145Z" fill="currentColor"/>
<path d="M10.7498 7.90985C10.7498 7.98485 10.7247 8.05985 10.6597 8.12485C9.93475 8.85485 8.64475 10.1549 7.90475 10.8998C7.83975 10.9698 7.75475 10.9999 7.66975 10.9999C7.50475 10.9999 7.34475 10.8698 7.34475 10.6798V8.92985C7.34475 8.19985 7.96475 7.59485 8.72475 7.59485C9.19975 7.58985 9.85975 7.58985 10.4248 7.58985C10.6198 7.58985 10.7498 7.74485 10.7498 7.90985Z" fill="currentColor"/>
<path d="M10.7498 7.90985C10.7498 7.98485 10.7247 8.05985 10.6597 8.12485C9.93475 8.85485 8.64475 10.1549 7.90475 10.8998C7.83975 10.9698 7.75475 10.9999 7.66975 10.9999C7.50475 10.9999 7.34475 10.8698 7.34475 10.6798V8.92985C7.34475 8.19985 7.96475 7.59485 8.72475 7.59485C9.19975 7.58985 9.85975 7.58985 10.4248 7.58985C10.6198 7.58985 10.7498 7.74485 10.7498 7.90985Z" fill="currentColor"/>
<path d="M9.785 2.25C9.455 2.005 8.98 2.24 8.98 2.655V2.705C8.98 3.29 8.56 3.83 7.975 3.89C7.3 3.96 6.73 3.43 6.73 2.77V2.25C6.73 1.975 6.505 1.75 6.23 1.75H5.77C5.495 1.75 5.27 1.975 5.27 2.25V2.705C5.27 3.145 5.035 3.555 4.67 3.755C4.65 3.77 4.63 3.78 4.61 3.79C4.605 3.79 4.605 3.795 4.6 3.795C4.565 3.81 4.53 3.825 4.49 3.84C4.48 3.845 4.47 3.845 4.46 3.85C4.4 3.87 4.335 3.885 4.265 3.89H4.26C4.185 3.9 4.105 3.9 4.03 3.89H4.025C3.955 3.885 3.89 3.87 3.83 3.85C3.78 3.835 3.73 3.815 3.68 3.79C3.29 3.615 3.02 3.225 3.02 2.77V2.655C3.02 2.27 2.61 2.04 2.285 2.205C2.28 2.21 2.275 2.21 2.27 2.215H2.265C2.23 2.24 2.2 2.265 2.165 2.29C2.11 2.335 2.055 2.38 2.005 2.43C1.97 2.465 1.935 2.5 1.905 2.535C1.865 2.575 1.83 2.615 1.795 2.66C1.77 2.69 1.74 2.72 1.72 2.755C1.695 2.785 1.675 2.82 1.655 2.85C1.65 2.855 1.645 2.86 1.64 2.87C1.595 2.935 1.555 3.01 1.52 3.08C1.51 3.09 1.505 3.095 1.505 3.105C1.475 3.165 1.445 3.225 1.425 3.29C1.41 3.315 1.405 3.335 1.395 3.36C1.385 3.38 1.38 3.405 1.37 3.425C1.355 3.475 1.34 3.53 1.325 3.585C1.305 3.655 1.29 3.73 1.28 3.805C1.27 3.86 1.265 3.915 1.26 3.975C1.255 4.045 1.25 4.115 1.25 4.185V8.565C1.25 9.91 2.34 11 3.685 11H6.095C6.37 11 6.595 10.775 6.595 10.5V8.93C6.595 7.78 7.55 6.845 8.725 6.845C8.99 6.84 9.635 6.84 10.25 6.84C10.525 6.84 10.75 6.615 10.75 6.34V4.185C10.75 3.39 10.37 2.695 9.785 2.25ZM5.565 7.955C5.52 8.105 5.38 8.21 5.215 8.21H3.395C3.37 8.21 3.35 8.21 3.33 8.2C3.15 8.175 3.02 8.02 3.02 7.835C3.02 7.625 3.185 7.455 3.395 7.455H5.215C5.42 7.455 5.59 7.625 5.59 7.835C5.59 7.875 5.585 7.92 5.565 7.955ZM6.955 6.1C6.91 6.25 6.77 6.355 6.605 6.355H3.395C3.37 6.355 3.35 6.355 3.33 6.345C3.15 6.32 3.02 6.165 3.02 5.98C3.02 5.77 3.185 5.6 3.395 5.6H6.605C6.815 5.6 6.98 5.77 6.98 5.98C6.98 6.02 6.975 6.065 6.955 6.1Z" fill="currentColor"/>
</svg>
