<svg width="12" height="12" viewBox="0 0 12 12" fill="none" xmlns="http://www.w3.org/2000/svg">
<path d="M10.9798 5.8304C10.3848 5.4554 9.69475 5.2504 8.98475 5.2504C6.91475 5.2504 5.23475 6.9304 5.23475 9.0004C5.23475 9.7104 5.43475 10.3954 5.80975 10.9904C5.57975 10.9854 5.34475 10.9604 5.10475 10.9254C3.04975 10.5754 1.39475 8.9104 1.05475 6.8504C0.489752 3.42538 3.40975 0.505376 6.83475 1.07038C8.89475 1.41038 10.5598 3.06538 10.9098 5.1204C10.9498 5.3604 10.9748 5.6004 10.9798 5.8304Z" fill="currentColor"/>
<path d="M6.69035 10.93C6.25035 10.41 5.98535 9.735 5.98535 9C5.98535 7.345 7.33035 6 8.98535 6C9.72035 6 10.3954 6.265 10.9154 6.705" fill="currentColor"/>
</svg>
