<svg width="12" height="12" viewBox="0 0 12 12" fill="none" xmlns="http://www.w3.org/2000/svg">
<path d="M10.18 3.89L2.27 8.64C1.965 8.825 1.555 8.64 1.515 8.285C1.505 8.19 1.5 8.095 1.5 8V4C1.5 2.5 2.5 1.5 4 1.5H8C9.5 1.5 10.115 2.27 10.405 3.325C10.465 3.545 10.37 3.775 10.18 3.89Z" fill="currentColor"/>
<path d="M10.4997 5.545V8C10.4997 9.5 9.4997 10.5 7.9997 10.5H3.99971C3.53971 10.5 3.10471 10.375 2.73471 10.155C2.41471 9.97 2.43471 9.5 2.74971 9.31L9.7397 5.115C10.0747 4.915 10.4997 5.155 10.4997 5.545Z" fill="currentColor"/>
</svg>
