<svg width="12" height="12" viewBox="0 0 12 12" fill="none" xmlns="http://www.w3.org/2000/svg">
<g clip-path="url(#clip0_1652_3783)">
<path d="M8.21 3.97554C9.43 5.19555 9.43 7.17555 8.21 8.39555C6.99 9.61555 5.01 9.61555 3.79 8.39555C2.57 7.17555 2.57 5.19555 3.79 3.97554C5.01 2.75554 6.99 2.75554 8.21 3.97554Z" fill="currentColor"/>
<path d="M4.12453 11.1944C4.07953 11.1944 4.02953 11.1844 3.98453 11.1694C2.85953 10.7194 1.94953 9.92445 1.33953 8.87445C0.749527 7.84945 0.514527 6.68945 0.669527 5.50945C0.694527 5.30445 0.889527 5.15945 1.08953 5.18445C1.29453 5.20945 1.43953 5.39945 1.41453 5.60445C1.28453 6.61945 1.48453 7.61945 1.98953 8.49945C2.50953 9.39945 3.29453 10.0844 4.25953 10.4694C4.44953 10.5494 4.54453 10.7644 4.46953 10.9594C4.41453 11.1044 4.26953 11.1944 4.12453 11.1944Z" fill="currentColor"/>
<path d="M2.92481 2.61468C2.81481 2.61468 2.70481 2.56468 2.62981 2.46968C2.49981 2.30968 2.52981 2.07469 2.69481 1.94469C3.64481 1.19969 4.78981 0.804688 5.9998 0.804688C7.1798 0.804688 8.3048 1.18468 9.2498 1.90468C9.4148 2.02968 9.4448 2.26469 9.3198 2.42969C9.1948 2.59468 8.9598 2.62468 8.7948 2.49968C7.9798 1.87968 7.0148 1.55468 5.9998 1.55468C4.95981 1.55468 3.97481 1.89469 3.15481 2.53469C3.08481 2.58968 3.00481 2.61468 2.92481 2.61468Z" fill="currentColor"/>
<path d="M7.87535 11.1953C7.72535 11.1953 7.58535 11.1053 7.52535 10.9603C7.45035 10.7703 7.54035 10.5503 7.73535 10.4703C8.70035 10.0803 9.48535 9.4003 10.0054 8.5003C10.5154 7.6203 10.7154 6.6203 10.5804 5.6103C10.5554 5.4053 10.7004 5.2153 10.9054 5.1903C11.1054 5.1653 11.3004 5.3103 11.3254 5.5153C11.4754 6.6903 11.2454 7.8553 10.6554 8.8803C10.0504 9.9303 9.13535 10.7203 8.01035 11.1753C7.97035 11.1853 7.92535 11.1953 7.87535 11.1953Z" fill="currentColor"/>
</g>
<defs>
<clipPath id="clip0_1652_3783">
<rect width="12" height="12" fill="currentColor"/>
</clipPath>
</defs>
</svg>
