<svg width="12" height="12" viewBox="0 0 12 12" fill="none" xmlns="http://www.w3.org/2000/svg">
<path d="M6.625 6.2901V7.2801C6.625 7.6251 6.345 7.9051 6 7.9051C5.655 7.9051 5.375 7.6251 5.375 7.2801V6.2901C5.195 6.1801 5.055 6.0201 4.955 5.8301H1.5C1.225 5.8301 1 6.0551 1 6.3301V8.0951C1 9.7001 2.3 11.0001 3.905 11.0001H8.09C9.7 11.0001 11 9.7001 11 8.0951V6.3301C11 6.0551 10.775 5.8301 10.5 5.8301H7.045C6.945 6.0201 6.805 6.1801 6.625 6.2901Z" fill="currentColor"/>
<path d="M8.095 1H3.905C2.3 1 1 2.3 1 3.905V4.58C1 4.855 1.225 5.08 1.5 5.08H4.835C4.95 4.42 5.605 3.95 6.32 4.14C6.72 4.245 7.045 4.57 7.15 4.97C7.16 5.005 7.16 5.045 7.165 5.08H10.5C10.775 5.08 11 4.855 11 4.58V3.905C11 2.3 9.7 1 8.095 1Z" fill="currentColor"/>
</svg>
