<svg width="12" height="12" viewBox="0 0 12 12" fill="none" xmlns="http://www.w3.org/2000/svg">
<path d="M8.095 1H3.905C2.085 1 1 2.085 1 3.905V8.09C1 9.915 2.085 11 3.905 11H8.09C9.91 11 10.995 9.915 10.995 8.095V3.905C11 2.085 9.915 1 8.095 1ZM9.5 4.12C9.5 4.395 9.275 4.62 9 4.62H8C7.795 4.62 7.625 4.79 7.625 4.995C7.625 5.205 7.795 5.37 8 5.37H9C9.275 5.37 9.5 5.595 9.5 5.87V6.125C9.5 6.4 9.275 6.625 9 6.625H8C7.795 6.625 7.625 6.795 7.625 7C7.625 7.205 7.795 7.375 8 7.375H9C9.275 7.375 9.5 7.6 9.5 7.875V8C9.5 8.83 8.83 9.5 8 9.5H4C3.17 9.5 2.5 8.83 2.5 8V7.75C2.5 7.475 2.725 7.25 3 7.25H3.74C4.475 7.25 5.06 6.62 4.985 5.87C4.92 5.22 4.325 4.75 3.67 4.75H3C2.725 4.75 2.5 4.525 2.5 4.25V4C2.5 3.17 3.17 2.5 4 2.5H8C8.83 2.5 9.5 3.17 9.5 4V4.12ZM2.5 6C2.5 5.725 2.725 5.5 3 5.5H3.5C3.775 5.5 4 5.725 4 6C4 6.275 3.775 6.5 3.5 6.5H3C2.725 6.5 2.5 6.275 2.5 6Z" fill="currentColor"/>
</svg>
