<svg width="12" height="12" viewBox="0 0 12 12" fill="none" xmlns="http://www.w3.org/2000/svg">
<path d="M8.095 1H3.905C2.085 1 1 2.085 1 3.905V8.09C1 9.915 2.085 11 3.905 11H8.09C9.91 11 10.995 9.915 10.995 8.095V3.905C11 2.085 9.915 1 8.095 1ZM3.25 6.285H4.635C4.84 6.285 5.01 6.455 5.01 6.66C5.01 6.865 4.84 7.035 4.635 7.035H3.25C3.045 7.035 2.875 6.865 2.875 6.66C2.875 6.455 3.045 6.285 3.25 6.285ZM6.485 8.915H3.25C3.045 8.915 2.875 8.745 2.875 8.54C2.875 8.335 3.045 8.165 3.25 8.165H6.485C6.69 8.165 6.86 8.335 6.86 8.54C6.86 8.745 6.695 8.915 6.485 8.915ZM8.75 8.915H7.825C7.62 8.915 7.45 8.745 7.45 8.54C7.45 8.335 7.62 8.165 7.825 8.165H8.75C8.955 8.165 9.125 8.335 9.125 8.54C9.125 8.745 8.955 8.915 8.75 8.915ZM8.75 7.035H5.985C5.78 7.035 5.61 6.865 5.61 6.66C5.61 6.455 5.78 6.285 5.985 6.285H8.75C8.955 6.285 9.125 6.455 9.125 6.66C9.125 6.865 8.955 7.035 8.75 7.035Z" fill="currentColor"/>
</svg>
