<svg width="12" height="12" viewBox="0 0 12 12" fill="none" xmlns="http://www.w3.org/2000/svg">
<path d="M4.25001 5.99999C4.20001 5.99999 4.10001 5.99999 4.05001 5.99999C3.85001 5.99999 3.70001 5.99999 3.60001 5.84999C3.40001 5.59999 2.65001 5.59999 2.35001 5.79999C2.15001 5.94999 2.20001 6.14999 2.45001 6.29999C2.75001 6.44999 3.05001 6.44999 3.40001 6.49999C3.70001 6.54999 4.00001 6.64999 4.30001 6.74999C5.15001 7.09999 5.15001 8.14999 4.65001 8.64999C4.15001 9.14999 3.55001 9.29999 2.85001 9.24999C2.35001 9.19999 1.85001 9.04999 1.50001 8.69999C1.30001 8.49999 1.15001 8.24999 1.05001 7.94999C1.00001 7.84999 1.05001 7.79999 1.15001 7.79999C1.30001 7.79999 1.45001 7.79999 1.55001 7.79999C1.85001 7.79999 2.10001 7.79999 2.30001 8.04999C2.60001 8.34999 3.30001 8.39999 3.70001 8.14999C3.85001 8.04999 3.85001 7.94999 3.85001 7.79999C3.85001 7.64999 3.75001 7.59999 3.65001 7.54999C3.25001 7.39999 2.80001 7.39999 2.40001 7.29999C2.00001 7.19999 1.65001 7.09999 1.35001 6.79999C0.900011 6.29999 1.10001 5.39999 1.75001 5.04999C2.50001 4.54999 3.30001 4.54999 4.10001 4.99999C4.45001 5.19999 4.70001 5.49999 4.80001 5.89999C4.80001 5.99999 4.80001 5.99999 4.70001 5.99999C4.55001 5.99999 4.40001 5.99999 4.25001 5.99999Z" fill="currentColor"/>
<path d="M6.70001 7.49999C6.70001 7.99999 6.70001 8.49999 6.70001 8.94999C6.70001 9.09999 6.65001 9.14999 6.50001 9.14999C6.25001 9.14999 6.00001 9.14999 5.75001 9.14999C5.60001 9.14999 5.55001 9.09999 5.55001 8.94999C5.55001 7.94999 5.55001 6.94999 5.55001 5.94999C5.55001 5.79999 5.50001 5.74999 5.35001 5.74999C5.00001 5.74999 5.00001 5.74999 5.00001 5.39999C5.00001 5.34999 5.00001 5.24999 5.00001 5.19999C5.00001 4.74999 5.00001 4.74999 5.40001 4.74999C5.50001 4.74999 5.50001 4.69999 5.50001 4.59999C5.50001 4.19999 5.65001 3.79999 5.85001 3.49999C6.20001 2.99999 6.70001 2.84999 7.30001 2.89999C7.40001 2.89999 7.45001 2.94999 7.45001 3.04999C7.45001 3.29999 7.45001 3.54999 7.45001 3.79999C7.55001 3.99999 7.55001 3.99999 7.40001 3.99999C7.00001 3.99999 6.75001 4.19999 6.70001 4.64999C6.70001 4.74999 6.70001 4.79999 6.80001 4.79999C6.80001 4.79999 6.80001 4.79999 6.85001 4.79999C7.05001 4.79999 7.35001 4.69999 7.45001 4.84999C7.55001 4.99999 7.50001 5.24999 7.50001 5.44999C7.50001 5.79999 7.50001 5.79999 7.15001 5.79999C6.70001 5.79999 6.70001 5.79999 6.70001 6.24999C6.70001 6.64999 6.70001 7.04999 6.70001 7.49999Z" fill="currentColor"/>
<path d="M7.95001 3.59999C7.95001 3.24999 8.10001 2.99999 8.40001 2.84999C8.70001 2.69999 9.00001 2.69999 9.30001 2.94999C9.40001 3.04999 9.50001 3.04999 9.60001 2.94999C9.95001 2.64999 10.45 2.69999 10.75 3.04999C11.05 3.34999 11.1 3.84999 10.8 4.19999C10.45 4.59999 10.05 4.94999 9.65001 5.34999C9.55001 5.44999 9.40001 5.44999 9.30001 5.34999C8.95001 4.99999 8.55001 4.59999 8.20001 4.24999C8.00001 4.04999 7.95001 3.84999 7.95001 3.59999ZM8.75001 3.24999C8.65001 3.24999 8.50001 3.29999 8.45001 3.44999C8.40001 3.59999 8.40001 3.74999 8.50001 3.84999C8.75001 4.14999 9.05001 4.39999 9.30001 4.64999C9.40001 4.74999 9.45001 4.74999 9.55001 4.64999C9.80001 4.39999 10.1 4.09999 10.35 3.84999C10.45 3.84999 10.5 3.74999 10.5 3.69999C10.5 3.54999 10.45 3.39999 10.3 3.29999C10.1 3.19999 9.95001 3.24999 9.80001 3.39999C9.45001 3.74999 9.45001 3.74999 9.10001 3.39999C9.00001 3.29999 8.95001 3.24999 8.75001 3.24999Z" fill="currentColor"/>
</svg>
