<svg width="12" height="12" viewBox="0 0 12 12" fill="none" xmlns="http://www.w3.org/2000/svg">
<g clip-path="url(#clip0_1652_3728)">
<path d="M6 9.5C7.933 9.5 9.5 7.933 9.5 6C9.5 4.06701 7.933 2.5 6 2.5C4.06701 2.5 2.5 4.06701 2.5 6C2.5 7.933 4.06701 9.5 6 9.5Z" fill="currentColor"/>
<path d="M6 11.48C5.725 11.48 5.5 11.275 5.5 11V10.96C5.5 10.685 5.725 10.46 6 10.46C6.275 10.46 6.5 10.685 6.5 10.96C6.5 11.235 6.275 11.48 6 11.48ZM9.57 10.07C9.44 10.07 9.315 10.02 9.215 9.925L9.15 9.86C8.955 9.665 8.955 9.35 9.15 9.155C9.345 8.96 9.66 8.96 9.855 9.155L9.92 9.22C10.115 9.415 10.115 9.73 9.92 9.925C9.825 10.02 9.7 10.07 9.57 10.07ZM2.43 10.07C2.3 10.07 2.175 10.02 2.075 9.925C1.88 9.73 1.88 9.415 2.075 9.22L2.14 9.155C2.335 8.96 2.65 8.96 2.845 9.155C3.04 9.35 3.04 9.665 2.845 9.86L2.78 9.925C2.685 10.02 2.555 10.07 2.43 10.07ZM11 6.5H10.96C10.685 6.5 10.46 6.275 10.46 6C10.46 5.725 10.685 5.5 10.96 5.5C11.235 5.5 11.48 5.725 11.48 6C11.48 6.275 11.275 6.5 11 6.5ZM1.04 6.5H1C0.725 6.5 0.5 6.275 0.5 6C0.5 5.725 0.725 5.5 1 5.5C1.275 5.5 1.52 5.725 1.52 6C1.52 6.275 1.315 6.5 1.04 6.5ZM9.505 2.995C9.375 2.995 9.25 2.945 9.15 2.85C8.955 2.655 8.955 2.34 9.15 2.145L9.215 2.08C9.41 1.885 9.725 1.885 9.92 2.08C10.115 2.275 10.115 2.59 9.92 2.785L9.855 2.85C9.76 2.945 9.635 2.995 9.505 2.995ZM2.495 2.995C2.365 2.995 2.24 2.945 2.14 2.85L2.075 2.78C1.88 2.585 1.88 2.27 2.075 2.075C2.27 1.88 2.585 1.88 2.78 2.075L2.845 2.14C3.04 2.335 3.04 2.65 2.845 2.845C2.75 2.945 2.62 2.995 2.495 2.995ZM6 1.52C5.725 1.52 5.5 1.315 5.5 1.04V1C5.5 0.725 5.725 0.5 6 0.5C6.275 0.5 6.5 0.725 6.5 1C6.5 1.275 6.275 1.52 6 1.52Z" fill="currentColor"/>
</g>
<defs>
<clipPath id="clip0_1652_3728">
<rect width="12" height="12" fill="currentColor"/>
</clipPath>
</defs>
</svg>
