<svg width="12" height="12" viewBox="0 0 12 12" fill="none" xmlns="http://www.w3.org/2000/svg">
<path d="M9.24035 6.125C9.38035 6.125 9.50035 6.005 9.49035 5.865C9.35535 4.05 7.84535 2.625 6.00035 2.625C4.15535 2.625 2.64535 4.05 2.51035 5.865C2.50035 6.005 2.62035 6.125 2.76035 6.125H9.24035Z" fill="currentColor"/>
<path d="M11 6.5H10.96C10.685 6.5 10.46 6.275 10.46 6C10.46 5.725 10.685 5.5 10.96 5.5C11.235 5.5 11.48 5.725 11.48 6C11.48 6.275 11.275 6.5 11 6.5ZM1.04 6.5H1C0.725 6.5 0.5 6.275 0.5 6C0.5 5.725 0.725 5.5 1 5.5C1.275 5.5 1.52 5.725 1.52 6C1.52 6.275 1.315 6.5 1.04 6.5ZM9.505 2.995C9.375 2.995 9.25 2.945 9.15 2.85C8.955 2.655 8.955 2.34 9.15 2.145L9.215 2.08C9.41 1.885 9.725 1.885 9.92 2.08C10.115 2.275 10.115 2.59 9.92 2.785L9.855 2.85C9.76 2.945 9.635 2.995 9.505 2.995ZM2.495 2.995C2.365 2.995 2.24 2.945 2.14 2.85L2.075 2.78C1.88 2.585 1.88 2.27 2.075 2.075C2.27 1.88 2.585 1.88 2.78 2.075L2.845 2.14C3.04 2.335 3.04 2.65 2.845 2.845C2.75 2.945 2.62 2.995 2.495 2.995ZM6 1.52C5.725 1.52 5.5 1.315 5.5 1.04V1C5.5 0.725 5.725 0.5 6 0.5C6.275 0.5 6.5 0.725 6.5 1C6.5 1.275 6.275 1.52 6 1.52Z" fill="currentColor"/>
<path d="M10 7.875H2C1.795 7.875 1.625 7.705 1.625 7.5C1.625 7.295 1.795 7.125 2 7.125H10C10.205 7.125 10.375 7.295 10.375 7.5C10.375 7.705 10.205 7.875 10 7.875Z" fill="currentColor"/>
<path d="M9 9.375H3C2.795 9.375 2.625 9.205 2.625 9C2.625 8.795 2.795 8.625 3 8.625H9C9.205 8.625 9.375 8.795 9.375 9C9.375 9.205 9.205 9.375 9 9.375Z" fill="currentColor"/>
<path d="M7.5 10.875H4.5C4.295 10.875 4.125 10.705 4.125 10.5C4.125 10.295 4.295 10.125 4.5 10.125H7.5C7.705 10.125 7.875 10.295 7.875 10.5C7.875 10.705 7.705 10.875 7.5 10.875Z" fill="currentColor"/>
</svg>
