<svg width="12" height="12" viewBox="0 0 12 12" fill="none" xmlns="http://www.w3.org/2000/svg">
<path d="M5 1.875H5.625V4.25C5.625 4.455 5.795 4.625 6 4.625C6.205 4.625 6.375 4.455 6.375 4.25V1.875H7C7.205 1.875 7.375 1.705 7.375 1.5C7.375 1.295 7.205 1.125 7 1.125H5C4.795 1.125 4.625 1.295 4.625 1.5C4.625 1.705 4.795 1.875 5 1.875Z" fill="currentColor"/>
<path d="M7 10.125H6.375V7.75C6.375 7.545 6.205 7.375 6 7.375C5.795 7.375 5.625 7.545 5.625 7.75V10.125H5C4.795 10.125 4.625 10.295 4.625 10.5C4.625 10.705 4.795 10.875 5 10.875H7C7.205 10.875 7.375 10.705 7.375 10.5C7.375 10.295 7.205 10.125 7 10.125Z" fill="currentColor"/>
<path d="M1.41518 4.93948C1.47518 4.97448 1.54018 4.98948 1.60018 4.98948C1.73018 4.98948 1.85518 4.92448 1.92518 4.79948L2.24018 4.25948L4.30019 5.4495C4.35519 5.4845 4.42018 5.4995 4.48519 5.4995C4.61518 5.4995 4.74018 5.4345 4.81018 5.3095C4.91518 5.1345 4.85019 4.90448 4.67519 4.79948L2.61518 3.60948L2.92518 3.06948C3.03018 2.88948 2.96518 2.65948 2.79018 2.55948C2.61018 2.45448 2.38018 2.51448 2.28018 2.69448L1.28018 4.42448C1.17518 4.60948 1.23518 4.83448 1.41518 4.93948Z" fill="currentColor"/>
<path d="M10.5843 7.06055C10.4043 6.95555 10.1743 7.01555 10.0743 7.19555L9.75925 7.73555L7.69925 6.55055C7.51925 6.44555 7.28925 6.51055 7.18925 6.68555C7.08425 6.86555 7.14925 7.09555 7.32425 7.19555L9.37925 8.38555L9.06925 8.92555C8.96425 9.10555 9.02925 9.33555 9.20425 9.43555C9.26425 9.47055 9.32925 9.48555 9.38925 9.48555C9.51925 9.48555 9.64425 9.42055 9.71425 9.29555L10.7143 7.56555C10.8243 7.39055 10.7643 7.16555 10.5843 7.06055Z" fill="currentColor"/>
<path d="M9.38535 3.61034L7.32535 4.80034C7.14535 4.90534 7.08535 5.13535 7.19035 5.31035C7.26035 5.43035 7.38535 5.50035 7.51535 5.50035C7.58035 5.50035 7.64535 5.48535 7.70035 5.45035L9.75535 4.26034L10.0704 4.80034C10.1404 4.92034 10.2654 4.99034 10.3954 4.99034C10.4604 4.99034 10.5254 4.97534 10.5804 4.94034C10.7604 4.83534 10.8204 4.60534 10.7154 4.43034L9.71535 2.70034C9.61035 2.52034 9.38035 2.46034 9.20535 2.56534C9.02535 2.67034 8.96535 2.90034 9.07035 3.07534L9.38535 3.61034Z" fill="currentColor"/>
<path d="M2.61518 8.39055L4.67018 7.20055C4.85019 7.09555 4.91018 6.86555 4.80518 6.69055C4.70018 6.51055 4.47018 6.45055 4.29518 6.55555L2.24018 7.74555L1.92518 7.20555C1.82018 7.02555 1.59018 6.96555 1.41518 7.07055C1.23518 7.17555 1.17518 7.40555 1.28018 7.58055L2.28018 9.31055C2.35018 9.43055 2.47518 9.50055 2.60518 9.50055C2.67018 9.50055 2.73518 9.48555 2.79018 9.45055C2.97018 9.34555 3.03018 9.11555 2.92518 8.94055L2.61518 8.39055Z" fill="currentColor"/>
<path d="M7.75 6C7.75 6.32 7.665 6.615 7.515 6.875C7.21 7.4 6.645 7.75 6 7.75C5.355 7.75 4.79 7.4 4.485 6.875C4.335 6.615 4.25 6.32 4.25 6C4.25 5.68 4.335 5.385 4.485 5.125C4.79 4.6 5.355 4.25 6 4.25C6.645 4.25 7.21 4.6 7.515 5.125C7.665 5.385 7.75 5.68 7.75 6Z" fill="currentColor"/>
</svg>
