<svg width="12" height="12" viewBox="0 0 12 12" fill="none" xmlns="http://www.w3.org/2000/svg">
<path d="M8.49985 1.875H5.13985C4.43484 1.875 3.76484 2.17 3.28984 2.695L1.52484 4.635C0.819844 5.41 0.819844 6.59 1.52484 7.365L3.28984 9.305C3.76484 9.825 4.43484 10.125 5.13985 10.125H8.49985C9.87985 10.125 10.9998 9.005 10.9998 7.625V4.375C10.9998 2.995 9.87985 1.875 8.49985 1.875ZM8.26485 6.97C8.40985 7.115 8.40985 7.355 8.26485 7.5C8.18985 7.575 8.09485 7.61 7.99985 7.61C7.90485 7.61 7.80985 7.575 7.73485 7.5L6.76485 6.53L5.79485 7.5C5.71985 7.575 5.62485 7.61 5.52985 7.61C5.43485 7.61 5.33985 7.575 5.26485 7.5C5.11985 7.355 5.11985 7.115 5.26485 6.97L6.23485 6L5.26485 5.03C5.11985 4.885 5.11985 4.645 5.26485 4.5C5.40985 4.355 5.64985 4.355 5.79485 4.5L6.76485 5.47L7.73485 4.5C7.87985 4.355 8.11985 4.355 8.26485 4.5C8.40985 4.645 8.40985 4.885 8.26485 5.03L7.29485 6L8.26485 6.97Z" fill="currentColor"/>
</svg>
