<svg width="12" height="12" viewBox="0 0 12 12" fill="none" xmlns="http://www.w3.org/2000/svg">
<path d="M8.9398 3.06078L1.9598 10.0408C1.7448 10.2558 1.3848 10.2358 1.2098 9.9908C0.9598 9.6458 0.9098 9.1658 1.1698 8.7508L2.5498 6.5358C2.7348 6.2408 2.7348 5.7608 2.5498 5.4658L1.1698 3.25078C0.7048 2.51078 1.2398 1.55078 2.1098 1.55078H7.8348C8.1748 1.55078 8.5948 1.78578 8.7748 2.07078L9.0098 2.44078C9.1298 2.64078 9.1048 2.89578 8.9398 3.06078Z" fill="currentColor"/>
<path d="M10.8149 6.55595L8.22495 10.006C8.04495 10.251 7.64495 10.451 7.33495 10.451H3.75494C3.30994 10.451 3.08493 9.91095 3.39994 9.59595L9.15995 3.84098C9.38495 3.61598 9.76995 3.65598 9.93995 3.93098L10.865 5.41595C11.0649 5.73595 11.0449 6.25095 10.8149 6.55595Z" fill="currentColor"/>
</svg>
