<svg width="12" height="12" viewBox="0 0 12 12" fill="none" xmlns="http://www.w3.org/2000/svg">
<path d="M9 1H3C2.17 1 1.5 1.665 1.5 2.485V7.94C1.5 8.76 2.17 9.43 3 9.43H3.38C3.775 9.43 4.16 9.585 4.44 9.865L5.295 10.71C5.685 11.095 6.315 11.095 6.705 10.71L7.56 9.865C7.84 9.585 8.225 9.43 8.62 9.43H9C9.83 9.43 10.5 8.76 10.5 7.94V2.485C10.5 1.665 9.83 1 9 1ZM6 2.775C6.54 2.775 6.975 3.215 6.975 3.75C6.975 4.28 6.555 4.705 6.035 4.725C6.015 4.725 5.985 4.725 5.96 4.725C5.435 4.705 5.02 4.28 5.02 3.75C5.025 3.215 5.46 2.775 6 2.775ZM7.375 7.345C6.62 7.85 5.38 7.85 4.625 7.345C3.96 6.905 3.96 6.175 4.625 5.73C5.385 5.225 6.625 5.225 7.375 5.73C8.04 6.175 8.04 6.9 7.375 7.345Z" fill="currentColor"/>
</svg>
