<svg width="12" height="12" viewBox="0 0 12 12" fill="none" xmlns="http://www.w3.org/2000/svg">
<path d="M9.91525 4.3499L7.65025 2.0849C7.17525 1.6099 6.52025 1.3549 5.85025 1.3899L3.35023 1.5099C2.35023 1.5549 1.55523 2.3499 1.50523 3.3449L1.38523 5.8449C1.35523 6.5149 1.60523 7.1699 2.08023 7.6449L4.34523 9.9099C5.27525 10.8399 6.78525 10.8399 7.72025 9.9099L9.91525 7.7149C10.8503 6.7899 10.8503 5.2799 9.91525 4.3499ZM4.75023 6.1899C3.95523 6.1899 3.31023 5.5449 3.31023 4.7499C3.31023 3.9549 3.95523 3.3099 4.75023 3.3099C5.54525 3.3099 6.19025 3.9549 6.19025 4.7499C6.19025 5.5449 5.54525 6.1899 4.75023 6.1899Z" fill="currentColor"/>
</svg>
