<svg width="12" height="12" viewBox="0 0 12 12" fill="none" xmlns="http://www.w3.org/2000/svg">
<path d="M9.9997 9.63055H5.4647C5.2397 9.63055 5.0547 9.44555 5.0547 9.22055C5.0547 8.99555 5.2397 8.81055 5.4647 8.81055H9.9997C10.2247 8.81055 10.4097 8.99555 10.4097 9.22055C10.4097 9.45055 10.2247 9.63055 9.9997 9.63055Z" fill="currentColor"/>
<path d="M9.9997 6.48405H5.4647C5.2397 6.48405 5.0547 6.29905 5.0547 6.07405C5.0547 5.84905 5.2397 5.66405 5.4647 5.66405H9.9997C10.2247 5.66405 10.4097 5.84905 10.4097 6.07405C10.4097 6.29905 10.2247 6.48405 9.9997 6.48405Z" fill="currentColor"/>
<path d="M9.9997 3.33562H5.4647C5.2397 3.33562 5.0547 3.15062 5.0547 2.92562C5.0547 2.70062 5.2397 2.51562 5.4647 2.51562H9.9997C10.2247 2.51562 10.4097 2.70062 10.4097 2.92562C10.4097 3.15062 10.2247 3.33562 9.9997 3.33562Z" fill="currentColor"/>
<path d="M2.45484 4.01593C2.34484 4.01593 2.23984 3.97093 2.16484 3.89593L1.70984 3.44094C1.54984 3.28094 1.54984 3.02093 1.70984 2.86093C1.86984 2.70093 2.12984 2.70093 2.28984 2.86093L2.45484 3.02594L3.52484 1.95593C3.68484 1.79594 3.94484 1.79594 4.10484 1.95593C4.26484 2.11594 4.26484 2.37594 4.10484 2.53594L2.74484 3.89593C2.66484 3.97093 2.56484 4.01593 2.45484 4.01593Z" fill="currentColor"/>
<path d="M2.45484 7.16435C2.34984 7.16435 2.24484 7.12435 2.16484 7.04435L1.70984 6.5894C1.54984 6.4294 1.54984 6.1694 1.70984 6.0094C1.86984 5.8494 2.12984 5.8494 2.28984 6.0094L2.45484 6.1744L3.52484 5.10435C3.68484 4.94437 3.94484 4.94437 4.10484 5.10435C4.26484 5.2644 4.26484 5.52435 4.10484 5.68435L2.74484 7.04435C2.66484 7.12435 2.55984 7.16435 2.45484 7.16435Z" fill="currentColor"/>
<path d="M2.45484 10.1644C2.34984 10.1644 2.24484 10.1244 2.16484 10.0444L1.70984 9.5894C1.54984 9.4294 1.54984 9.1694 1.70984 9.0094C1.86984 8.8494 2.12984 8.8494 2.28984 9.0094L2.45484 9.1744L3.52484 8.10435C3.68484 7.9444 3.94484 7.9444 4.10484 8.10435C4.26484 8.2644 4.26484 8.5244 4.10484 8.6844L2.74484 10.0444C2.66484 10.1244 2.55984 10.1644 2.45484 10.1644Z" fill="currentColor"/>
</svg>
