<svg width="12" height="12" viewBox="0 0 12 12" fill="none" xmlns="http://www.w3.org/2000/svg">
<path d="M8.41555 7.8201C8.75055 7.6001 9.19055 7.8401 9.19055 8.2401V8.8851C9.19055 9.5201 8.69555 10.2001 8.10055 10.4001L6.50555 10.9301C6.22555 11.0251 5.77055 11.0251 5.49555 10.9301L3.90055 10.4001C3.30055 10.2001 2.81055 9.5201 2.81055 8.8851V8.2351C2.81055 7.8401 3.25055 7.6001 3.58055 7.8151L4.61055 8.4851C5.00555 8.7501 5.50555 8.8801 6.00555 8.8801C6.50555 8.8801 7.00555 8.7501 7.40055 8.4851L8.41555 7.8201Z" fill="currentColor"/>
<path d="M9.98975 3.2293L6.99475 1.2643C6.45475 0.909297 5.56475 0.909297 5.02475 1.2643L2.01477 3.2293C1.04977 3.8543 1.04977 5.2693 2.01477 5.8993L2.81477 6.4193L5.02475 7.8593C5.56475 8.2143 6.45475 8.2143 6.99475 7.8593L9.87475 5.9693V7.4993C9.87475 7.7043 10.0448 7.8743 10.2498 7.8743C10.4548 7.8743 10.6248 7.7043 10.6248 7.4993V5.0393C10.8248 4.3943 10.6198 3.6443 9.98975 3.2293Z" fill="currentColor"/>
</svg>
