<svg width="12" height="12" viewBox="0 0 12 12" fill="none" xmlns="http://www.w3.org/2000/svg">
<path d="M10.5 2.625H1.5C1.295 2.625 1.125 2.455 1.125 2.25C1.125 2.045 1.295 1.875 1.5 1.875H10.5C10.705 1.875 10.875 2.045 10.875 2.25C10.875 2.455 10.705 2.625 10.5 2.625Z" fill="currentColor"/>
<path d="M10.5007 5.125H5.7656C5.56065 5.125 5.3906 4.955 5.3906 4.75C5.3906 4.545 5.56065 4.375 5.7656 4.375H10.5007C10.7057 4.375 10.8757 4.545 10.8757 4.75C10.8757 4.955 10.7057 5.125 10.5007 5.125Z" fill="currentColor"/>
<path d="M10.5 7.625H1.5C1.295 7.625 1.125 7.455 1.125 7.25C1.125 7.045 1.295 6.875 1.5 6.875H10.5C10.705 6.875 10.875 7.045 10.875 7.25C10.875 7.455 10.705 7.625 10.5 7.625Z" fill="currentColor"/>
<path d="M10.5007 10.125H5.7656C5.56065 10.125 5.3906 9.955 5.3906 9.75C5.3906 9.545 5.56065 9.375 5.7656 9.375H10.5007C10.7057 9.375 10.8757 9.545 10.8757 9.75C10.8757 9.955 10.7057 10.125 10.5007 10.125Z" fill="currentColor"/>
</svg>
