<svg width="12" height="12" viewBox="0 0 12 12" fill="none" xmlns="http://www.w3.org/2000/svg">
<path d="M8.095 1H3.905C2.085 1 1 2.085 1 3.905V8.09C1 9.915 2.085 11 3.905 11H8.09C9.91 11 10.995 9.915 10.995 8.095V3.905C11 2.085 9.915 1 8.095 1ZM8.835 4.61C8.74 4.795 8.52 4.87 8.33 4.78C7.715 4.47 7.05 4.3 6.375 4.25V8.145C6.375 8.35 6.205 8.52 6 8.52C5.795 8.52 5.625 8.35 5.625 8.145V4.25C4.95 4.3 4.285 4.47 3.67 4.78C3.615 4.805 3.555 4.815 3.5 4.815C3.365 4.815 3.23 4.74 3.165 4.61C3.07 4.425 3.145 4.2 3.33 4.105C5 3.27 6.995 3.27 8.665 4.105C8.855 4.2 8.93 4.425 8.835 4.61Z" fill="currentColor"/>
</svg>
