<svg width="12" height="12" viewBox="0 0 12 12" fill="none" xmlns="http://www.w3.org/2000/svg">
<path d="M10.5 2.625H1.5C1.295 2.625 1.125 2.455 1.125 2.25C1.125 2.045 1.295 1.875 1.5 1.875H10.5C10.705 1.875 10.875 2.045 10.875 2.25C10.875 2.455 10.705 2.625 10.5 2.625Z" fill="currentColor"/>
<path d="M6.235 5.125H1.5C1.295 5.125 1.125 4.955 1.125 4.75C1.125 4.545 1.295 4.375 1.5 4.375H6.235C6.44 4.375 6.61 4.545 6.61 4.75C6.61 4.955 6.445 5.125 6.235 5.125Z" fill="currentColor"/>
<path d="M10.5 7.625H1.5C1.295 7.625 1.125 7.455 1.125 7.25C1.125 7.045 1.295 6.875 1.5 6.875H10.5C10.705 6.875 10.875 7.045 10.875 7.25C10.875 7.455 10.705 7.625 10.5 7.625Z" fill="currentColor"/>
<path d="M6.235 10.125H1.5C1.295 10.125 1.125 9.955 1.125 9.75C1.125 9.545 1.295 9.375 1.5 9.375H6.235C6.44 9.375 6.61 9.545 6.61 9.75C6.61 9.955 6.445 10.125 6.235 10.125Z" fill="currentColor"/>
</svg>
