<svg width="12" height="12" viewBox="0 0 12 12" fill="none" xmlns="http://www.w3.org/2000/svg">
<path d="M10.475 2.065C10.33 1.855 10.145 1.67 9.935 1.525C9.46 1.18 8.84 1 8.095 1H3.905C3.805 1 3.705 1.005 3.61 1.015C1.97 1.12 1 2.185 1 3.905V8.095C1 8.84 1.18 9.46 1.525 9.935C1.67 10.145 1.855 10.33 2.065 10.475C2.475 10.775 2.995 10.95 3.61 10.99C3.705 10.995 3.805 11 3.905 11H8.095C9.915 11 11 9.915 11 8.095V3.905C11 3.16 10.82 2.54 10.475 2.065ZM9.375 4.45C9.375 4.655 9.205 4.825 9 4.825C8.795 4.825 8.625 4.655 8.625 4.45V3.86C8.625 3.7 8.495 3.57 8.335 3.57H6.375V8.43H7.265C7.47 8.43 7.64 8.6 7.64 8.805C7.64 9.01 7.47 9.18 7.265 9.18H4.735C4.53 9.18 4.36 9.01 4.36 8.805C4.36 8.6 4.53 8.43 4.735 8.43H5.625V3.57H3.665C3.505 3.57 3.375 3.7 3.375 3.86V4.45C3.375 4.655 3.205 4.825 3 4.825C2.795 4.825 2.625 4.655 2.625 4.45V3.86C2.625 3.285 3.09 2.82 3.665 2.82H8.33C8.905 2.82 9.37 3.285 9.37 3.86V4.45H9.375Z" fill="currentColor"/>
</svg>
