<svg width="12" height="12" viewBox="0 0 12 12" fill="none" xmlns="http://www.w3.org/2000/svg">
<path d="M10.5 2.625H6C5.795 2.625 5.625 2.455 5.625 2.25C5.625 2.045 5.795 1.875 6 1.875H10.5C10.705 1.875 10.875 2.045 10.875 2.25C10.875 2.455 10.705 2.625 10.5 2.625Z" fill="currentColor"/>
<path d="M10.5 5.125H6C5.795 5.125 5.625 4.955 5.625 4.75C5.625 4.545 5.795 4.375 6 4.375H10.5C10.705 4.375 10.875 4.545 10.875 4.75C10.875 4.955 10.705 5.125 10.5 5.125Z" fill="currentColor"/>
<path d="M10.5 7.625H1.5C1.295 7.625 1.125 7.455 1.125 7.25C1.125 7.045 1.295 6.875 1.5 6.875H10.5C10.705 6.875 10.875 7.045 10.875 7.25C10.875 7.455 10.705 7.625 10.5 7.625Z" fill="currentColor"/>
<path d="M10.5 10.125H1.5C1.295 10.125 1.125 9.955 1.125 9.75C1.125 9.545 1.295 9.375 1.5 9.375H10.5C10.705 9.375 10.875 9.545 10.875 9.75C10.875 9.955 10.705 10.125 10.5 10.125Z" fill="currentColor"/>
</svg>
