<svg width="12" height="12" viewBox="0 0 12 12" fill="none" xmlns="http://www.w3.org/2000/svg">
<path d="M10.475 2.065C10.33 1.855 10.145 1.67 9.935 1.525C9.46 1.18 8.84 1 8.095 1H3.905C3.805 1 3.705 1.005 3.61 1.015C1.97 1.12 1 2.185 1 3.905V8.095C1 8.84 1.18 9.46 1.525 9.935C1.67 10.145 1.855 10.33 2.065 10.475C2.475 10.775 2.995 10.95 3.61 10.99C3.705 10.995 3.805 11 3.905 11H8.095C9.915 11 11 9.915 11 8.095V3.905C11 3.16 10.82 2.54 10.475 2.065ZM8.415 9.48H3.585C3.38 9.48 3.21 9.31 3.21 9.105C3.21 8.9 3.38 8.73 3.585 8.73H8.42C8.625 8.73 8.795 8.9 8.795 9.105C8.795 9.31 8.625 9.48 8.415 9.48ZM8.79 5.31C8.79 6.85 7.54 8.1 6 8.1C4.46 8.1 3.21 6.85 3.21 5.31V2.895C3.21 2.69 3.38 2.52 3.585 2.52C3.79 2.52 3.96 2.69 3.96 2.895V5.31C3.96 6.435 4.875 7.35 6 7.35C7.125 7.35 8.04 6.435 8.04 5.31V2.895C8.04 2.69 8.21 2.52 8.415 2.52C8.62 2.52 8.79 2.69 8.79 2.895V5.31Z" fill="currentColor"/>
</svg>
