<svg width="12" height="12" viewBox="0 0 12 12" fill="none" xmlns="http://www.w3.org/2000/svg">
<path d="M10.5 2.625H1.5C1.295 2.625 1.125 2.455 1.125 2.25C1.125 2.045 1.295 1.875 1.5 1.875H10.5C10.705 1.875 10.875 2.045 10.875 2.25C10.875 2.455 10.705 2.625 10.5 2.625Z" fill="currentColor"/>
<path d="M8.37085 5.125H3.63086C3.42586 5.125 3.25586 4.955 3.25586 4.75C3.25586 4.545 3.42586 4.375 3.63086 4.375H8.36585C8.57085 4.375 8.74085 4.545 8.74085 4.75C8.74085 4.955 8.57585 5.125 8.37085 5.125Z" fill="currentColor"/>
<path d="M10.5 7.625H1.5C1.295 7.625 1.125 7.455 1.125 7.25C1.125 7.045 1.295 6.875 1.5 6.875H10.5C10.705 6.875 10.875 7.045 10.875 7.25C10.875 7.455 10.705 7.625 10.5 7.625Z" fill="currentColor"/>
<path d="M8.37085 10.125H3.63086C3.42586 10.125 3.25586 9.955 3.25586 9.75C3.25586 9.545 3.42586 9.375 3.63086 9.375H8.36585C8.57085 9.375 8.74085 9.545 8.74085 9.75C8.74085 9.955 8.57585 10.125 8.37085 10.125Z" fill="currentColor"/>
</svg>
