<svg width="12" height="12" viewBox="0 0 12 12" fill="none" xmlns="http://www.w3.org/2000/svg">
<path d="M8.5944 2.48C8.5944 2.485 8.5944 2.485 8.5944 2.49C8.4694 2.485 8.34435 2.48 8.20935 2.48H4.35937L4.89437 1.95C5.38435 1.455 5.9244 1 6.5494 1C7.1794 1 7.71935 1.455 8.20935 1.95L8.48935 2.23C8.55935 2.295 8.5944 2.385 8.5944 2.48Z" fill="currentColor"/>
<path d="M10.4204 6.5846C10.6154 6.5846 10.7704 6.4246 10.7704 6.2246V5.7846C10.7704 3.81961 10.1704 3.22461 8.21045 3.22461H3.79047C1.83047 3.22461 1.23047 3.82461 1.23047 5.7846V5.9996C1.23047 6.1996 1.38547 6.3546 1.58047 6.3546C2.00047 6.3546 2.33547 6.6946 2.33547 7.1096C2.33547 7.5246 2.00047 7.8696 1.58047 7.8696C1.38547 7.8696 1.23047 8.0246 1.23047 8.2246V8.4396C1.23047 10.4046 1.83047 10.9996 3.79047 10.9996H8.20545C10.1654 10.9996 10.7654 10.3996 10.7654 8.4396C10.7654 8.2446 10.6104 8.0846 10.4154 8.0846C9.99545 8.0846 9.66045 7.7496 9.66045 7.3346C9.66545 6.9196 10.0004 6.5846 10.4204 6.5846ZM5.41045 9.4296C5.41045 9.6246 5.25045 9.7846 5.05545 9.7846C4.86047 9.7846 4.70047 9.6246 4.70047 9.4296V8.0896C4.70047 7.8946 4.86047 7.7346 5.05545 7.7346C5.25045 7.7346 5.41045 7.8946 5.41045 8.0896V9.4296ZM5.41045 6.1346C5.41045 6.3296 5.25045 6.4896 5.05545 6.4896C4.86047 6.4896 4.70047 6.3296 4.70047 6.1346V4.79461C4.70047 4.59961 4.86047 4.43961 5.05545 4.43961C5.25045 4.43961 5.41045 4.59961 5.41045 4.79461V6.1346Z" fill="currentColor"/>
</svg>
