<svg width="12" height="12" viewBox="0 0 12 12" fill="none" xmlns="http://www.w3.org/2000/svg">
<path d="M10.65 5.4197C10.845 5.4197 11 5.2647 11 5.0697V4.60469C11 2.55469 10.375 1.92969 8.325 1.92969H3.675C1.625 1.92968 1 2.55469 1 4.60469V4.83969C1 5.0347 1.155 5.1897 1.35 5.1897C1.8 5.1897 2.165 5.5547 2.165 6.0047C2.165 6.4547 1.8 6.8147 1.35 6.8147C1.155 6.8147 1 6.9697 1 7.1647V7.3997C1 9.4497 1.625 10.0747 3.675 10.0747H8.325C10.375 10.0747 11 9.4497 11 7.3997C11 7.2047 10.845 7.0497 10.65 7.0497C10.2 7.0497 9.835 6.6847 9.835 6.2347C9.835 5.7847 10.2 5.4197 10.65 5.4197ZM4.5 4.43969C4.775 4.43969 5 4.66469 5 4.93969C5 5.2147 4.78 5.4397 4.5 5.4397C4.225 5.4397 4 5.2147 4 4.93969C4 4.66469 4.22 4.43969 4.5 4.43969ZM7.5 7.9397C7.22 7.9397 6.995 7.7147 6.995 7.4397C6.995 7.1647 7.22 6.9397 7.495 6.9397C7.77 6.9397 7.995 7.1647 7.995 7.4397C7.995 7.7147 7.78 7.9397 7.5 7.9397ZM7.95 4.73968L4.585 8.1047C4.51 8.1797 4.415 8.2147 4.32 8.2147C4.225 8.2147 4.13 8.1797 4.055 8.1047C3.91 7.9597 3.91 7.7197 4.055 7.5747L7.42 4.20969C7.565 4.06469 7.805 4.06469 7.95 4.20969C8.095 4.35469 8.095 4.59468 7.95 4.73968Z" fill="currentColor"/>
</svg>
