<svg width="12" height="12" viewBox="0 0 12 12" fill="none" xmlns="http://www.w3.org/2000/svg">
<path d="M11 5.375C11.205 5.375 11.375 5.205 11.375 5V4.5C11.375 2.295 10.705 1.625 8.5 1.625H5.375V2.75C5.375 2.955 5.205 3.125 5 3.125C4.795 3.125 4.625 2.955 4.625 2.75V1.625H3.5C1.295 1.625 0.625 2.295 0.625 4.5V4.75C0.625 4.955 0.795 5.125 1 5.125C1.48 5.125 1.875 5.52 1.875 6C1.875 6.48 1.48 6.875 1 6.875C0.795 6.875 0.625 7.045 0.625 7.25V7.5C0.625 9.705 1.295 10.375 3.5 10.375H4.625V9.25C4.625 9.045 4.795 8.875 5 8.875C5.205 8.875 5.375 9.045 5.375 9.25V10.375H8.5C10.705 10.375 11.375 9.705 11.375 7.5C11.375 7.295 11.205 7.125 11 7.125C10.52 7.125 10.125 6.73 10.125 6.25C10.125 5.77 10.52 5.375 11 5.375ZM5.375 7.085C5.375 7.29 5.205 7.46 5 7.46C4.795 7.46 4.625 7.29 4.625 7.085V4.915C4.625 4.71 4.795 4.54 5 4.54C5.205 4.54 5.375 4.71 5.375 4.915V7.085Z" fill="currentColor"/>
</svg>
