<svg width="12" height="12" viewBox="0 0 12 12" fill="none" xmlns="http://www.w3.org/2000/svg">
<path d="M8.32435 1.92969H4.95433V3.43969C4.95433 3.63469 4.79433 3.78969 4.60433 3.78969C4.41433 3.78969 4.25433 3.63469 4.25433 3.43969V1.92969H3.67433C1.69933 1.92969 1.04933 2.51968 1.00433 4.36468C0.999326 4.45468 1.03933 4.54968 1.10433 4.61468C1.16933 4.68468 1.25433 4.71968 1.35433 4.71968C2.05433 4.71968 2.62933 5.2997 2.62933 5.9997C2.62933 6.6997 2.05433 7.2797 1.35433 7.2797C1.25933 7.2797 1.16933 7.3147 1.10433 7.3847C1.03933 7.4497 0.999326 7.5447 1.00433 7.6347C1.04933 9.4797 1.69933 10.0697 3.67433 10.0697H4.25433V8.5597C4.25433 8.3647 4.41433 8.2097 4.60433 8.2097C4.79433 8.2097 4.95433 8.3647 4.95433 8.5597V10.0697H8.32435C10.3744 10.0697 10.9994 9.4447 10.9994 7.3947V4.60469C10.9994 2.55469 10.3744 1.92969 8.32435 1.92969ZM9.23435 5.9497L8.76935 6.3997C8.74935 6.4147 8.74435 6.4447 8.74935 6.4697L8.85935 7.1047C8.87935 7.2197 8.83435 7.3397 8.73435 7.4097C8.63935 7.4797 8.51435 7.4897 8.40935 7.4347L7.83435 7.1347C7.81435 7.1247 7.78435 7.1247 7.76435 7.1347L7.18935 7.4347C7.14435 7.4597 7.09435 7.4697 7.04435 7.4697C6.97935 7.4697 6.91935 7.4497 6.86435 7.4097C6.76935 7.3397 6.71935 7.2247 6.73935 7.1047L6.84935 6.4697C6.85435 6.4447 6.84435 6.4197 6.82935 6.3997L6.36435 5.9497C6.27935 5.8697 6.24935 5.7447 6.28435 5.6347C6.31935 5.5197 6.41435 5.4397 6.53435 5.4247L7.17435 5.3297C7.19935 5.3247 7.21935 5.3097 7.23435 5.2897L7.51935 4.70969C7.57435 4.60469 7.67935 4.53969 7.79935 4.53969C7.91935 4.53969 8.02435 4.60469 8.07435 4.70969L8.35935 5.2897C8.36935 5.3147 8.38935 5.3297 8.41435 5.3297L9.05435 5.4247C9.17435 5.4397 9.26935 5.5247 9.30435 5.6347C9.34935 5.7447 9.31935 5.8647 9.23435 5.9497Z" fill="currentColor"/>
</svg>
