<svg width="12" height="12" viewBox="0 0 12 12" fill="none" xmlns="http://www.w3.org/2000/svg">
<path d="M9.92505 6.4704C9.92505 6.8704 10.2501 7.2004 10.6501 7.2004C10.8401 7.2004 11.0001 7.3554 11.0001 7.5454C11.0001 9.4654 10.4201 10.0454 8.50005 10.0454H5.87505V9.2504C5.87505 9.0554 5.72505 8.8954 5.53505 8.8804C5.52505 8.8754 5.51005 8.8754 5.50005 8.8754C5.29505 8.8754 5.12505 9.0454 5.12505 9.2504V10.0454H4.24505C3.30505 10.0454 2.82005 9.3404 2.38005 8.2754L2.29505 8.0654C2.22505 7.8854 2.31005 7.6804 2.49005 7.6104C2.67505 7.5404 2.82005 7.3954 2.89505 7.2054C2.97505 7.0204 2.97505 6.8154 2.90005 6.6304C2.74005 6.2454 2.30005 6.0604 1.91005 6.2154C1.82505 6.2554 1.72505 6.2554 1.64005 6.2154C1.55505 6.1804 1.49005 6.1104 1.45005 6.0204L1.37505 5.8204C0.630046 4.0104 0.955046 3.2354 2.76505 2.4854L3.99005 1.9804C4.17005 1.9054 4.37505 1.9904 4.44505 2.1704L5.53505 4.5454C5.33005 4.5454 5.12505 4.7104 5.12505 4.9154V7.0854C5.12505 7.2904 5.29505 7.4604 5.50005 7.4604C5.51005 7.4604 5.52505 7.4604 5.53505 7.4554C5.72505 7.4404 5.87505 7.2804 5.87505 7.0854V4.9154C5.87505 4.7204 5.72505 4.5604 5.53505 4.5454V2.4654H8.50005C10.4201 2.4654 11.0001 3.0454 11.0001 4.9654V5.3904C11.0001 5.5854 10.8401 5.7404 10.6501 5.7404C10.2501 5.7404 9.92505 6.0654 9.92505 6.4704Z" fill="currentColor"/>
</svg>
