<svg width="12" height="12" viewBox="0 0 12 12" fill="none" xmlns="http://www.w3.org/2000/svg">
<path d="M7.4453 1.725H4.55531C4.35531 1.725 4.19531 1.565 4.19531 1.365C4.19531 1.165 4.35531 1 4.55531 1H7.4453C7.6453 1 7.8053 1.16 7.8053 1.36C7.8053 1.56 7.6453 1.725 7.4453 1.725Z" fill="currentColor"/>
<path d="M7.00005 9.9842V8.5142C7.00005 7.6092 7.61005 6.9992 8.51505 6.9992H9.98505C10.1 6.9992 10.21 7.0092 10.315 7.0292C10.325 6.9092 10.335 6.7892 10.335 6.6642C10.335 4.26922 8.39005 2.32422 6.00005 2.32422C3.61004 2.32422 1.66504 4.26922 1.66504 6.6642C1.66504 9.0542 3.61004 10.9992 6.00005 10.9992C6.42505 10.9992 6.83005 10.9292 7.22005 10.8192C7.08005 10.5842 7.00005 10.3042 7.00005 9.9842ZM6.37505 6.4992C6.37505 6.7042 6.20505 6.8742 6.00005 6.8742C5.79505 6.8742 5.62505 6.7042 5.62505 6.4992V3.99922C5.62505 3.79422 5.79505 3.62422 6.00005 3.62422C6.20505 3.62422 6.37505 3.79422 6.37505 3.99922V6.4992Z" fill="currentColor"/>
<path d="M9.985 7.5H8.52C7.88 7.5 7.5 7.88 7.5 8.515V9.985C7.5 10.62 7.88 11 8.52 11H9.985C10.62 11 11 10.62 11 9.985V8.515C11 7.88 10.62 7.5 9.985 7.5ZM8.96 10.03C8.96 10.19 8.83 10.32 8.665 10.32C8.505 10.32 8.375 10.19 8.375 10.03V8.47C8.375 8.31 8.505 8.18 8.665 8.18C8.83 8.18 8.96 8.31 8.96 8.47V10.03ZM10.125 10.03C10.125 10.19 9.995 10.32 9.835 10.32C9.675 10.32 9.54 10.19 9.54 10.03V8.47C9.54 8.31 9.675 8.18 9.835 8.18C9.995 8.18 10.125 8.31 10.125 8.47V10.03Z" fill="currentColor"/>
</svg>
