<svg width="12" height="12" viewBox="0 0 12 12" fill="none" xmlns="http://www.w3.org/2000/svg">
<path d="M7.4453 1.725H4.55531C4.35531 1.725 4.19531 1.565 4.19531 1.365C4.19531 1.165 4.35531 1 4.55531 1H7.4453C7.6453 1 7.8053 1.16 7.8053 1.36C7.8053 1.56 7.6453 1.725 7.4453 1.725Z" fill="currentColor"/>
<path d="M9.985 7.5H8.515C7.88 7.5 7.5 7.88 7.5 8.515V9.985C7.5 10.62 7.88 11 8.515 11H9.985C10.62 11 11 10.62 11 9.985V8.515C11 7.88 10.62 7.5 9.985 7.5ZM9.845 9.73L9.255 10.07C9.135 10.14 9.015 10.175 8.905 10.175C8.82 10.175 8.745 10.155 8.675 10.115C8.515 10.02 8.425 9.835 8.425 9.59V8.91C8.425 8.665 8.515 8.48 8.675 8.385C8.835 8.29 9.04 8.31 9.255 8.43L9.845 8.77C10.055 8.895 10.175 9.065 10.175 9.25C10.175 9.435 10.06 9.605 9.845 9.73Z" fill="currentColor"/>
<path d="M7.00005 9.9842V8.5142C7.00005 7.6092 7.61005 6.9992 8.51505 6.9992H9.98505C10.1 6.9992 10.21 7.0092 10.315 7.0292C10.325 6.9092 10.335 6.7892 10.335 6.6642C10.335 4.26922 8.39005 2.32422 6.00005 2.32422C3.61004 2.32422 1.66504 4.26922 1.66504 6.6642C1.66504 9.0542 3.61004 10.9992 6.00005 10.9992C6.42505 10.9992 6.83005 10.9292 7.22005 10.8192C7.08005 10.5842 7.00005 10.3042 7.00005 9.9842ZM6.37505 6.4992C6.37505 6.7042 6.20505 6.8742 6.00005 6.8742C5.79505 6.8742 5.62505 6.7042 5.62505 6.4992V3.99922C5.62505 3.79422 5.79505 3.62422 6.00005 3.62422C6.20505 3.62422 6.37505 3.79422 6.37505 3.99922V6.4992Z" fill="currentColor"/>
</svg>
