<svg width="12" height="12" viewBox="0 0 12 12" fill="none" xmlns="http://www.w3.org/2000/svg">
<path d="M6.00005 2.32422C3.61004 2.32422 1.66504 4.26922 1.66504 6.6592C1.66504 9.0492 3.61004 10.9992 6.00005 10.9992C8.39005 10.9992 10.335 9.0542 10.335 6.6642C10.335 4.27422 8.39005 2.32422 6.00005 2.32422ZM6.37505 6.4992C6.37505 6.7042 6.20505 6.8742 6.00005 6.8742C5.79505 6.8742 5.62505 6.7042 5.62505 6.4992V3.99922C5.62505 3.79422 5.79505 3.62422 6.00005 3.62422C6.20505 3.62422 6.37505 3.79422 6.37505 3.99922V6.4992Z" fill="currentColor"/>
<path d="M7.4453 1.725H4.55531C4.35531 1.725 4.19531 1.565 4.19531 1.365C4.19531 1.165 4.35531 1 4.55531 1H7.4453C7.6453 1 7.8053 1.16 7.8053 1.36C7.8053 1.56 7.6453 1.725 7.4453 1.725Z" fill="currentColor"/>
</svg>
