<svg width="12" height="12" viewBox="0 0 12 12" fill="none" xmlns="http://www.w3.org/2000/svg">
<path d="M8.69475 7.835L6.67475 6H5.31975L3.29975 7.835C2.73475 8.345 2.54974 9.13 2.82474 9.84C3.09974 10.545 3.76974 11 4.52474 11H7.46975C8.22975 11 8.89475 10.545 9.16975 9.84C9.44475 9.13 9.25975 8.345 8.69475 7.835ZM6.90975 9.07H5.08975C4.89974 9.07 4.74974 8.915 4.74974 8.73C4.74974 8.545 4.90474 8.39 5.08975 8.39H6.90975C7.09975 8.39 7.24975 8.545 7.24975 8.73C7.24975 8.915 7.09475 9.07 6.90975 9.07Z" fill="currentColor"/>
<path d="M9.1753 2.16C8.9003 1.455 8.2303 1 7.4753 1H4.52532C3.77032 1 3.10033 1.455 2.82533 2.16C2.55533 2.87 2.74033 3.655 3.30533 4.165L5.3253 6H6.6803L8.7003 4.165C9.2603 3.655 9.4453 2.87 9.1753 2.16ZM6.9103 3.615H5.0903C4.90033 3.615 4.75033 3.46 4.75033 3.275C4.75033 3.09 4.90533 2.935 5.0903 2.935H6.9103C7.1003 2.935 7.2503 3.09 7.2503 3.275C7.2503 3.46 7.0953 3.615 6.9103 3.615Z" fill="currentColor"/>
</svg>
