<svg width="12" height="12" viewBox="0 0 12 12" fill="none" xmlns="http://www.w3.org/2000/svg">
<path d="M8.325 1.92969H3.675C1.625 1.92969 1 2.55469 1 4.60469V7.3947C1 9.4447 1.625 10.0697 3.675 10.0697H8.325C10.375 10.0697 11 9.4447 11 7.3947V4.60469C11 2.55469 10.375 1.92969 8.325 1.92969ZM7.045 6.5597C7.045 7.6847 6.52 8.2097 5.395 8.2097H4.28C3.155 8.2097 2.63 7.6847 2.63 6.5597V5.4447C2.63 4.31969 3.155 3.79469 4.28 3.79469H5.395C6.52 3.79469 7.045 4.31969 7.045 5.4447V6.5597Z" fill="currentColor"/>
</svg>
