<svg width="12" height="12" viewBox="0 0 12 12" fill="none" xmlns="http://www.w3.org/2000/svg">
<path d="M7.5 7.75C7.5 9.545 6.045 11 4.25 11C2.455 11 1 9.545 1 7.75C1 5.955 2.455 4.5 4.25 4.5C4.335 4.5 4.425 4.505 4.51 4.51C6.095 4.635 7.365 5.905 7.49 7.49C7.495 7.575 7.5 7.665 7.5 7.75Z" fill="currentColor"/>
<path d="M11 4.25C11 5.88 9.80005 7.225 8.24005 7.46V7.43C8.08505 5.49 6.51005 3.915 4.55504 3.76H4.54004C4.77504 2.2 6.12005 1 7.75005 1C9.54505 1 11 2.455 11 4.25Z" fill="currentColor"/>
<path d="M2.795 1H1.5C1.225 1 1 1.225 1 1.5V2.795C1 3.24 1.54 3.465 1.855 3.15L3.15 1.855C3.46 1.54 3.24 1 2.795 1Z" fill="currentColor"/>
<path d="M9.20485 11.0001H10.4999C10.7748 11.0001 10.9999 10.7751 10.9999 10.5001V9.20515C10.9999 8.76015 10.4598 8.53515 10.1448 8.85015L8.84985 10.1452C8.53985 10.4601 8.75985 11.0001 9.20485 11.0001Z" fill="currentColor"/>
</svg>
