<svg width="12" height="12" viewBox="0 0 12 12" fill="none" xmlns="http://www.w3.org/2000/svg">
<path d="M7.89 1H4.11C2.22 1 1.75 1.505 1.75 3.52V9.15C1.75 10.48 2.48 10.795 3.365 9.845L3.37 9.84C3.78 9.405 4.405 9.44 4.76 9.915L5.265 10.59C5.67 11.125 6.325 11.125 6.73 10.59L7.235 9.915C7.595 9.435 8.22 9.4 8.63 9.84C9.52 10.79 10.245 10.475 10.245 9.145V3.52C10.25 1.505 9.78 1 7.89 1ZM7.375 5.375H4.625C4.42 5.375 4.25 5.205 4.25 5C4.25 4.795 4.42 4.625 4.625 4.625H7.375C7.58 4.625 7.75 4.795 7.75 5C7.75 5.205 7.58 5.375 7.375 5.375Z" fill="currentColor"/>
</svg>
