<svg width="12" height="12" viewBox="0 0 12 12" fill="none" xmlns="http://www.w3.org/2000/svg">
<g clip-path="url(#clip0_1652_3771)">
<path d="M4.465 1H2.51C1.5 1 1 1.5 1 2.51V4.47C1 5.5 1.5 6 2.51 5.975H4.47C5.5 6 6 5.5 5.975 4.465V2.51C6 1.5 5.5 1 4.465 1ZM4.505 4.88C4.165 4.88 3.835 4.75 3.56 4.52C3.25 4.745 2.875 4.88 2.47 4.88C2.265 4.88 2.095 4.71 2.095 4.505C2.095 4.3 2.265 4.13 2.47 4.13C2.98 4.13 3.405 3.78 3.56 3.3H2.47C2.265 3.3 2.095 3.13 2.095 2.925C2.095 2.72 2.265 2.55 2.47 2.55H3.115C3.135 2.36 3.29 2.21 3.485 2.21C3.68 2.21 3.835 2.36 3.855 2.55H3.985C3.99 2.55 3.995 2.55 3.995 2.55H4.5C4.705 2.55 4.875 2.72 4.875 2.925C4.875 3.13 4.71 3.3 4.5 3.3H4.335C4.29 3.54 4.195 3.765 4.07 3.97C4.205 4.07 4.35 4.13 4.505 4.13C4.71 4.13 4.88 4.3 4.88 4.505C4.88 4.71 4.71 4.88 4.505 4.88Z" fill="currentColor"/>
<path d="M4.5 11.375C2.365 11.375 0.625 9.635 0.625 7.5C0.625 7.295 0.795 7.125 1 7.125C1.205 7.125 1.375 7.295 1.375 7.5C1.375 8.98 2.405 10.22 3.79 10.545L3.655 10.32C3.55 10.14 3.605 9.91 3.785 9.805C3.96 9.7 4.195 9.755 4.3 9.935L4.825 10.81C4.895 10.925 4.895 11.07 4.83 11.185C4.76 11.3 4.635 11.375 4.5 11.375Z" fill="currentColor"/>
<path d="M10.9993 4.875C10.7943 4.875 10.6243 4.705 10.6243 4.5C10.6243 3.02 9.59425 1.78 8.20925 1.455L8.34425 1.68C8.44925 1.86 8.39425 2.09 8.21425 2.195C8.03925 2.3 7.80425 2.245 7.69925 2.065L7.17425 1.19C7.10425 1.075 7.10425 0.93 7.16925 0.815C7.23925 0.7 7.36425 0.625 7.49925 0.625C9.63425 0.625 11.3743 2.365 11.3743 4.5C11.3743 4.705 11.2043 4.875 10.9993 4.875Z" fill="currentColor"/>
<path d="M8.4599 5.9258C7.0599 5.9258 5.9199 7.0608 5.9199 8.4658C5.9199 9.8658 7.0549 11.0058 8.4599 11.0058C9.8599 11.0058 10.9999 9.8708 10.9999 8.4658C10.9999 7.0608 9.8649 5.9258 8.4599 5.9258ZM9.6999 9.6708C9.5149 9.7608 9.2899 9.6908 9.1949 9.5008L9.1099 9.3308H7.8149L7.7299 9.5008C7.6649 9.6308 7.5299 9.7058 7.3949 9.7058C7.3399 9.7058 7.2799 9.6908 7.2299 9.6658C7.0449 9.5708 6.9699 9.3458 7.0599 9.1608L8.1299 7.0258C8.1949 6.9008 8.3249 6.8208 8.4649 6.8208C8.6049 6.8208 8.7349 6.9008 8.7999 7.0308L9.8699 9.1658C9.9599 9.3508 9.8849 9.5758 9.6999 9.6708Z" fill="currentColor"/>
<path d="M8.18945 8.58015H8.73445L8.45945 8.03515L8.18945 8.58015Z" fill="currentColor"/>
</g>
<defs>
<clipPath id="clip0_1652_3771">
<rect width="12" height="12" fill="currentColor"/>
</clipPath>
</defs>
</svg>
