<svg width="12" height="12" viewBox="0 0 12 12" fill="none" xmlns="http://www.w3.org/2000/svg">
<path d="M10.5349 2.615C9.72985 2.535 8.92485 2.475 8.11485 2.43V2.425L8.00485 1.775C7.92985 1.315 7.81985 0.625 6.64985 0.625H5.33985C4.17483 0.625 4.06483 1.285 3.98483 1.77L3.87983 2.41C3.41483 2.44 2.94983 2.47 2.48483 2.515L1.46483 2.615C1.25483 2.635 1.10483 2.82 1.12483 3.025C1.14483 3.23 1.32483 3.38 1.53483 3.36L2.55483 3.26C5.17485 3 7.81485 3.1 10.4649 3.365C10.4799 3.365 10.4899 3.365 10.5049 3.365C10.6948 3.365 10.8598 3.22 10.8799 3.025C10.8949 2.82 10.7449 2.635 10.5349 2.615Z" fill="currentColor"/>
<path d="M9.61485 4.07C9.49485 3.945 9.32985 3.875 9.15985 3.875H2.83987C2.66987 3.875 2.49987 3.945 2.38487 4.07C2.26987 4.195 2.20487 4.365 2.21487 4.54L2.52487 9.67C2.57987 10.43 2.64987 11.38 4.39487 11.38H7.60485C9.34985 11.38 9.4199 10.435 9.47485 9.67L9.78485 4.545C9.79485 4.365 9.72985 4.195 9.61485 4.07ZM6.82985 8.875H5.16485C4.95987 8.875 4.78987 8.705 4.78987 8.5C4.78987 8.295 4.95987 8.125 5.16485 8.125H6.82985C7.03485 8.125 7.20485 8.295 7.20485 8.5C7.20485 8.705 7.03485 8.875 6.82985 8.875ZM7.24985 6.875H4.74987C4.54487 6.875 4.37487 6.705 4.37487 6.5C4.37487 6.295 4.54487 6.125 4.74987 6.125H7.24985C7.45485 6.125 7.62485 6.295 7.62485 6.5C7.62485 6.705 7.45485 6.875 7.24985 6.875Z" fill="currentColor"/>
</svg>
