<svg width="12" height="12" viewBox="0 0 12 12" fill="none" xmlns="http://www.w3.org/2000/svg">
<path d="M8.08465 5.03015H3.91467C3.32467 5.03015 3.11967 4.63516 3.46467 4.15516L5.54965 1.23516C5.79465 0.885156 6.20465 0.885156 6.44965 1.23516L8.53465 4.15516C8.87965 4.63516 8.67465 5.03015 8.08465 5.03015Z" fill="currentColor"/>
<path d="M8.7948 8.9993H3.2048C2.4148 8.9993 2.1448 8.4743 2.6098 7.8343L4.6048 5.0293H7.3948L9.3898 7.8343C9.8548 8.4743 9.5848 8.9993 8.7948 8.9993Z" fill="currentColor"/>
<path d="M6.375 9V11C6.375 11.205 6.205 11.375 6 11.375C5.795 11.375 5.625 11.205 5.625 11V9H6.375Z" fill="currentColor"/>
</svg>
