<svg width="12" height="12" viewBox="0 0 12 12" fill="none" xmlns="http://www.w3.org/2000/svg">
<path d="M8.095 1H3.905C2.085 1 1 2.085 1 3.905V8.09C1 9.915 2.085 11 3.905 11H8.09C9.91 11 10.995 9.915 10.995 8.095V3.905C11 2.085 9.915 1 8.095 1ZM8.44 7.165C8.44 7.21 8.43 7.255 8.415 7.3C8.38 7.385 8.31 7.455 8.225 7.49C8.18 7.51 8.135 7.515 8.09 7.515H7.16C6.965 7.515 6.81 7.36 6.81 7.165C6.81 6.97 6.965 6.815 7.16 6.815H7.25L6.195 5.76L5.685 6.52C5.625 6.605 5.535 6.665 5.43 6.675C5.325 6.685 5.225 6.65 5.15 6.575L3.66 5.085C3.525 4.95 3.525 4.73 3.66 4.59C3.795 4.45 4.015 4.455 4.155 4.59L5.345 5.78L5.855 5.02C5.915 4.935 6.005 4.875 6.11 4.865C6.22 4.855 6.315 4.89 6.39 4.965L7.75 6.325V6.235C7.75 6.04 7.905 5.885 8.1 5.885C8.295 5.885 8.45 6.04 8.45 6.235V7.165H8.44Z" fill="currentColor"/>
</svg>
