<svg width="12" height="12" viewBox="0 0 12 12" fill="none" xmlns="http://www.w3.org/2000/svg">
<path d="M5.62485 1.94932V6.4593C5.62485 6.6243 5.54485 6.7743 5.40985 6.8693L1.80484 9.3943C1.50984 9.5993 1.08984 9.4393 1.02484 9.0843C0.949843 8.6543 1.04984 8.1493 1.34984 7.6043L4.37984 2.15432C4.49484 1.94932 4.61984 1.76932 4.74984 1.61432C5.04985 1.26432 5.62485 1.48932 5.62485 1.94932Z" fill="currentColor"/>
<path d="M10.195 9.3943L6.59 6.8693C6.455 6.7743 6.375 6.6243 6.375 6.4593V1.94932C6.375 1.48932 6.95 1.26432 7.25 1.61432C7.38 1.76932 7.505 1.94932 7.62 2.15432L10.65 7.6043C10.95 8.1493 11.05 8.6543 10.975 9.0843C10.91 9.4393 10.49 9.5993 10.195 9.3943Z" fill="currentColor"/>
<path d="M2.63009 9.57L5.7051 7.52C5.8701 7.41 6.1401 7.41 6.3051 7.52L9.3801 9.57C10.1951 10.115 10.0601 10.56 9.0801 10.56H2.92509C1.95009 10.555 1.81509 10.11 2.63009 9.57Z" fill="currentColor"/>
</svg>
