<svg width="12" height="12" viewBox="0 0 12 12" fill="none" xmlns="http://www.w3.org/2000/svg">
<path d="M10.75 7.75C10.89 7.75 11 7.86 11 8V8.5C11 9.33 10.33 10 9.5 10C9.5 9.175 8.825 8.5 8 8.5C7.175 8.5 6.5 9.175 6.5 10H5.5C5.5 9.175 4.825 8.5 4 8.5C3.175 8.5 2.5 9.175 2.5 10C1.67 10 1 9.33 1 8.5V7.5C1 7.225 1.225 7 1.5 7H6.25C6.94 7 7.5 6.44 7.5 5.75V3C7.5 2.725 7.725 2.5 8 2.5H8.42C8.78 2.5 9.11 2.695 9.29 3.005L9.61 3.565C9.655 3.645 9.595 3.75 9.5 3.75C8.81 3.75 8.25 4.31 8.25 5V6.5C8.25 7.19 8.81 7.75 9.5 7.75H10.75Z" fill="currentColor"/>
<path d="M4 11C4.55228 11 5 10.5523 5 10C5 9.4477 4.55228 9 4 9C3.44772 9 3 9.4477 3 10C3 10.5523 3.44772 11 4 11Z" fill="currentColor"/>
<path d="M8 11C8.5523 11 9 10.5523 9 10C9 9.4477 8.5523 9 8 9C7.4477 9 7 9.4477 7 10C7 10.5523 7.4477 11 8 11Z" fill="currentColor"/>
<path d="M11 6.265V7H9.5C9.225 7 9 6.775 9 6.5V5C9 4.725 9.225 4.5 9.5 4.5H10.145L10.87 5.77C10.955 5.92 11 6.09 11 6.265Z" fill="currentColor"/>
<path d="M6.54 0.990234H2.845C1.825 0.990234 1 1.81523 1 2.83523V6.03025C1 6.30525 1.225 6.53025 1.5 6.53025H6.075C6.585 6.53025 7 6.11525 7 5.60525V1.45023C7 1.19523 6.795 0.990234 6.54 0.990234ZM4.8 4.55023C4.725 4.62023 4.63 4.65523 4.535 4.65523C4.44 4.65523 4.345 4.62023 4.27 4.55023L4.005 4.28523L3.73 4.56023C3.655 4.63523 3.56 4.67023 3.465 4.67023C3.37 4.67023 3.275 4.63523 3.2 4.56023C3.055 4.41523 3.055 4.17523 3.2 4.03023L3.475 3.75523L3.21 3.49023C3.065 3.34523 3.065 3.10523 3.21 2.96023C3.36 2.81523 3.595 2.81523 3.745 2.96023L4.005 3.22523L4.255 2.97023C4.405 2.82523 4.64 2.82523 4.79 2.97023C4.935 3.12023 4.935 3.35523 4.79 3.50523L4.535 3.75523L4.8 4.01523C4.945 4.16523 4.945 4.40023 4.8 4.55023Z" fill="currentColor"/>
</svg>
