<svg width="12" height="12" viewBox="0 0 12 12" fill="none" xmlns="http://www.w3.org/2000/svg">
<path d="M10.75 7.75C10.89 7.75 11 7.86 11 8V8.5C11 9.33 10.33 10 9.5 10C9.5 9.175 8.825 8.5 8 8.5C7.175 8.5 6.5 9.175 6.5 10H5.5C5.5 9.175 4.825 8.5 4 8.5C3.175 8.5 2.5 9.175 2.5 10C1.67 10 1 9.33 1 8.5V7.5C1 7.225 1.225 7 1.5 7H6.25C6.94 7 7.5 6.44 7.5 5.75V3C7.5 2.725 7.725 2.5 8 2.5H8.42C8.78 2.5 9.11 2.695 9.29 3.005L9.61 3.565C9.655 3.645 9.595 3.75 9.5 3.75C8.81 3.75 8.25 4.31 8.25 5V6.5C8.25 7.19 8.81 7.75 9.5 7.75H10.75Z" fill="currentColor"/>
<path d="M4 11C4.55229 11 5 10.5523 5 10C5 9.4477 4.55229 9 4 9C3.44772 9 3 9.4477 3 10C3 10.5523 3.44772 11 4 11Z" fill="currentColor"/>
<path d="M8 11C8.5523 11 9 10.5523 9 10C9 9.4477 8.5523 9 8 9C7.4477 9 7 9.4477 7 10C7 10.5523 7.4477 11 8 11Z" fill="currentColor"/>
<path d="M11 6.265V7H9.5C9.225 7 9 6.775 9 6.5V5C9 4.725 9.225 4.5 9.5 4.5H10.145L10.87 5.77C10.955 5.92 11 6.09 11 6.265Z" fill="currentColor"/>
<path d="M6.54 1H2.845C1.95 1 1.2 1.64 1.035 2.49H3.22C3.41 2.49 3.56 2.645 3.56 2.835C3.56 3.025 3.41 3.175 3.22 3.175H1V3.865H2.3C2.49 3.865 2.645 4.02 2.645 4.21C2.645 4.4 2.49 4.55 2.3 4.55H1V5.24H1.385C1.575 5.24 1.73 5.395 1.73 5.585C1.73 5.775 1.575 5.925 1.385 5.925H1V6.04C1 6.315 1.225 6.54 1.5 6.54H6.075C6.585 6.54 7 6.125 7 5.615V1.46C7 1.205 6.795 1 6.54 1Z" fill="currentColor"/>
<path d="M1.035 2.49L0.96 2.49024H0.47C0.28 2.49024 0.125 2.64524 0.125 2.83524C0.125 3.02524 0.28 3.17524 0.47 3.17524H0.925L1 3.175V2.84524C1 2.72524 1.015 2.605 1.035 2.49Z" fill="currentColor"/>
<path d="M0.925 3.86524H0.47C0.28 3.86524 0.125 4.02024 0.125 4.21024C0.125 4.40024 0.28 4.55023 0.47 4.55023H0.925L1 4.55V3.865L0.925 3.86524Z" fill="currentColor"/>
<path d="M0.925 5.24025H0.47C0.28 5.24025 0.125 5.39525 0.125 5.58525C0.125 5.77525 0.28 5.92525 0.47 5.92525H0.925L1 5.925V5.24L0.925 5.24025Z" fill="currentColor"/>
</svg>
