<svg width="12" height="12" viewBox="0 0 12 12" fill="none" xmlns="http://www.w3.org/2000/svg">
<path d="M10.75 7.75C10.89 7.75 11 7.86 11 8V8.5C11 9.33 10.33 10 9.5 10C9.5 9.175 8.825 8.5 8 8.5C7.175 8.5 6.5 9.175 6.5 10H5.5C5.5 9.175 4.825 8.5 4 8.5C3.175 8.5 2.5 9.175 2.5 10C1.67 10 1 9.33 1 8.5V7.5C1 7.225 1.225 7 1.5 7H6.25C6.94 7 7.5 6.44 7.5 5.75V3C7.5 2.725 7.725 2.5 8 2.5H8.42C8.78 2.5 9.11 2.695 9.29 3.005L9.61 3.565C9.655 3.645 9.595 3.75 9.5 3.75C8.81 3.75 8.25 4.31 8.25 5V6.5C8.25 7.19 8.81 7.75 9.5 7.75H10.75Z" fill="currentColor"/>
<path d="M4 11C4.55228 11 5 10.5523 5 10C5 9.4477 4.55228 9 4 9C3.44772 9 3 9.4477 3 10C3 10.5523 3.44772 11 4 11Z" fill="currentColor"/>
<path d="M8 11C8.5523 11 9 10.5523 9 10C9 9.4477 8.5523 9 8 9C7.4477 9 7 9.4477 7 10C7 10.5523 7.4477 11 8 11Z" fill="currentColor"/>
<path d="M11 6.265V7H9.5C9.225 7 9 6.775 9 6.5V5C9 4.725 9.225 4.5 9.5 4.5H10.145L10.87 5.77C10.955 5.92 11 6.09 11 6.265Z" fill="currentColor"/>
<path d="M6.54 1H2.845C1.825 1 1 1.825 1 2.845V6.04C1 6.315 1.225 6.54 1.5 6.54H6.075C6.585 6.54 7 6.125 7 5.615V1.46C7 1.205 6.795 1 6.54 1ZM4.69 3.955C4.69 4.085 4.62 4.21 4.51 4.275L3.885 4.65C3.82 4.69 3.755 4.705 3.69 4.705C3.565 4.705 3.44 4.64 3.37 4.525C3.26 4.345 3.32 4.115 3.495 4.01L3.94 3.745V3.205C3.94 3 4.11 2.83 4.315 2.83C4.52 2.83 4.69 3 4.69 3.205V3.955Z" fill="currentColor"/>
</svg>
