<svg width="12" height="12" viewBox="0 0 12 12" fill="none" xmlns="http://www.w3.org/2000/svg">
<path d="M10.75 7.75C10.89 7.75 11 7.86 11 8V8.5C11 9.33 10.33 10 9.5 10C9.5 9.175 8.825 8.5 8 8.5C7.175 8.5 6.5 9.175 6.5 10H5.5C5.5 9.175 4.825 8.5 4 8.5C3.175 8.5 2.5 9.175 2.5 10C1.67 10 1 9.33 1 8.5V7.5C1 7.225 1.225 7 1.5 7H6.25C6.94 7 7.5 6.44 7.5 5.75V3C7.5 2.725 7.725 2.5 8 2.5H8.42C8.78 2.5 9.11 2.695 9.29 3.005L9.61 3.565C9.655 3.645 9.595 3.75 9.5 3.75C8.81 3.75 8.25 4.31 8.25 5V6.5C8.25 7.19 8.81 7.75 9.5 7.75H10.75Z" fill="currentColor"/>
<path d="M4 11C4.55228 11 5 10.5523 5 10C5 9.4477 4.55228 9 4 9C3.44772 9 3 9.4477 3 10C3 10.5523 3.44772 11 4 11Z" fill="currentColor"/>
<path d="M8 11C8.5523 11 9 10.5523 9 10C9 9.4477 8.5523 9 8 9C7.4477 9 7 9.4477 7 10C7 10.5523 7.4477 11 8 11Z" fill="currentColor"/>
<path d="M11 6.265V7H9.5C9.225 7 9 6.775 9 6.5V5C9 4.725 9.225 4.5 9.5 4.5H10.145L10.87 5.77C10.955 5.92 11 6.09 11 6.265Z" fill="currentColor"/>
<path d="M6.54 1H2.845C1.825 1 1 1.825 1 2.845V6.035C1 6.31 1.225 6.535 1.5 6.535H6.075C6.585 6.535 7 6.12 7 5.61V1.46C7 1.205 6.795 1 6.54 1ZM5.035 3.535L3.99 4.545C3.915 4.615 3.82 4.65 3.73 4.65C3.635 4.65 3.54 4.615 3.47 4.545L2.965 4.065C2.815 3.92 2.81 3.68 2.955 3.53C3.095 3.38 3.335 3.38 3.485 3.52L3.73 3.755L4.515 2.995C4.665 2.85 4.9 2.855 5.045 3.005C5.19 3.155 5.185 3.39 5.035 3.535Z" fill="currentColor"/>
</svg>
