<svg width="12" height="12" viewBox="0 0 12 12" fill="none" xmlns="http://www.w3.org/2000/svg">
<path d="M8.095 1H3.905C2.085 1 1 2.085 1 3.905V8.09C1 9.915 2.085 11 3.905 11H8.09C9.91 11 10.995 9.915 10.995 8.095V3.905C11 2.085 9.915 1 8.095 1ZM7.88 7.88C7.85 8.305 7.815 8.835 6.855 8.835H5.145C4.19 8.835 4.15 8.305 4.12 7.88L3.965 5.9C3.955 5.77 4 5.645 4.085 5.55C4.17 5.455 4.295 5.405 4.42 5.405H7.58C7.705 5.405 7.83 5.46 7.915 5.55C8 5.645 8.045 5.77 8.035 5.895L7.88 7.88ZM8.4 4.91C8.39 4.91 8.38 4.91 8.37 4.91C7.85 4.86 7.375 4.825 6.92 4.805C6.31 4.775 5.7 4.765 5.085 4.79C4.785 4.805 4.48 4.825 4.18 4.855L3.635 4.91C3.625 4.91 3.61 4.91 3.6 4.91C3.425 4.91 3.275 4.78 3.26 4.6C3.24 4.415 3.38 4.245 3.565 4.23L4.11 4.175C4.325 4.155 4.535 4.14 4.75 4.13L4.79 3.895C4.83 3.645 4.905 3.165 5.655 3.165H6.35C7.105 3.165 7.18 3.66 7.215 3.9L7.255 4.14C7.63 4.16 8.015 4.19 8.435 4.23C8.625 4.25 8.76 4.415 8.745 4.605C8.725 4.78 8.575 4.91 8.4 4.91Z" fill="currentColor"/>
</svg>
