<svg width="12" height="12" viewBox="0 0 12 12" fill="none" xmlns="http://www.w3.org/2000/svg">
<path d="M8.095 1H3.905C2.085 1 1 2.085 1 3.905V8.09C1 9.915 2.085 11 3.905 11H8.09C9.91 11 10.995 9.915 10.995 8.095V3.905C11 2.085 9.915 1 8.095 1ZM6.96 8.315H4.5C4.295 8.315 4.125 8.145 4.125 7.94C4.125 7.735 4.295 7.565 4.5 7.565H6.96C7.6 7.565 8.125 7.045 8.125 6.4C8.125 5.755 7.605 5.235 6.96 5.235H4.425L4.555 5.365C4.7 5.51 4.7 5.75 4.555 5.895C4.48 5.97 4.385 6.005 4.29 6.005C4.195 6.005 4.1 5.97 4.025 5.895L3.24 5.11C3.095 4.965 3.095 4.725 3.24 4.58L4.025 3.795C4.17 3.65 4.41 3.65 4.555 3.795C4.7 3.94 4.7 4.18 4.555 4.325L4.385 4.49H6.96C8.015 4.49 8.875 5.35 8.875 6.405C8.875 7.46 8.015 8.315 6.96 8.315Z" fill="currentColor"/>
</svg>
