<svg width="12" height="12" viewBox="0 0 12 12" fill="none" xmlns="http://www.w3.org/2000/svg">
<path d="M8.7251 8.65095C7.8851 8.65095 7.1101 8.25595 6.6051 7.56095C6.4851 7.39595 6.5201 7.16095 6.6851 7.03595C6.8501 6.91095 7.0851 6.95095 7.2101 7.11595C7.5751 7.61095 8.1251 7.89595 8.7251 7.89595C9.7701 7.89595 10.6251 7.04595 10.6251 5.99595C10.6251 4.94593 9.7751 4.09593 8.7251 4.09593C8.0151 4.09593 7.3451 4.47593 6.9801 5.08095L5.6551 7.28595C5.1551 8.12095 4.24012 8.63595 3.27012 8.63595C1.81012 8.63595 0.620117 7.44595 0.620117 5.98595C0.620117 4.52594 1.81012 3.33594 3.27012 3.33594C4.11012 3.33594 4.88512 3.73094 5.3901 4.42594C5.5101 4.59094 5.4751 4.82593 5.3101 4.95093C5.1401 5.07595 4.91012 5.03595 4.78512 4.87093C4.42512 4.38593 3.87512 4.10093 3.27512 4.10093C2.23012 4.10093 1.37512 4.95094 1.37512 6.00095C1.37512 7.05095 2.22512 7.90095 3.27512 7.90095C3.98512 7.90095 4.65512 7.52095 5.0201 6.91595L6.3451 4.71094C6.8451 3.87594 7.7601 3.36093 8.7301 3.36093C10.1901 3.36093 11.3801 4.55094 11.3801 6.01095C11.3801 7.47095 10.1851 8.65095 8.7251 8.65095Z" fill="currentColor"/>
<path d="M3.25 7C3.80229 7 4.25 6.5523 4.25 6C4.25 5.4477 3.80229 5 3.25 5C2.69772 5 2.25 5.4477 2.25 6C2.25 6.5523 2.69772 7 3.25 7Z" fill="currentColor"/>
<path d="M8.75 7C9.3023 7 9.75 6.5523 9.75 6C9.75 5.4477 9.3023 5 8.75 5C8.1977 5 7.75 5.4477 7.75 6C7.75 6.5523 8.1977 7 8.75 7Z" fill="currentColor"/>
</svg>
