<svg width="12" height="12" viewBox="0 0 12 12" fill="none" xmlns="http://www.w3.org/2000/svg">
<path d="M9.75595 2.925L6.78595 1.21C6.30095 0.93 5.70095 0.93 5.21095 1.21L2.24593 2.925C1.76093 3.205 1.46094 3.725 1.46094 4.29V7.71C1.46094 8.27 1.76093 8.79 2.24593 9.075L5.21595 10.79C5.70095 11.07 6.30095 11.07 6.79095 10.79L9.76095 9.075C10.2459 8.795 10.5459 8.275 10.5459 7.71V4.29C10.5409 3.725 10.2409 3.21 9.75595 2.925ZM6.00095 3.67C6.64595 3.67 7.16595 4.19 7.16595 4.835C7.16595 5.48 6.64595 6 6.00095 6C5.35595 6 4.83594 5.48 4.83594 4.835C4.83594 4.195 5.35595 3.67 6.00095 3.67ZM7.34095 8.33H4.66093C4.25593 8.33 4.02093 7.88 4.24593 7.545C4.58593 7.04 5.24595 6.7 6.00095 6.7C6.75595 6.7 7.41595 7.04 7.75595 7.545C7.98095 7.875 7.74095 8.33 7.34095 8.33Z" fill="currentColor"/>
</svg>
