<svg width="12" height="12" viewBox="0 0 12 12" fill="none" xmlns="http://www.w3.org/2000/svg">
<path d="M8.095 1H3.905C2.085 1 1 2.085 1 3.905V8.095C1 9.5 1.645 10.465 2.78 10.83C3.11 10.945 3.49 11 3.905 11H8.095C8.51 11 8.89 10.945 9.22 10.83C10.355 10.465 11 9.5 11 8.095V3.905C11 2.085 9.915 1 8.095 1ZM10.25 8.095C10.25 9.165 9.83 9.84 8.985 10.12C8.5 9.165 7.35 8.485 6 8.485C4.65 8.485 3.505 9.16 3.015 10.12H3.01C2.175 9.85 1.75 9.17 1.75 8.1V3.905C1.75 2.495 2.495 1.75 3.905 1.75H8.095C9.505 1.75 10.25 2.495 10.25 3.905V8.095Z" fill="currentColor"/>
<path d="M6.00095 4C5.01095 4 4.21094 4.8 4.21094 5.79C4.21094 6.78 5.01095 7.585 6.00095 7.585C6.99095 7.585 7.79095 6.78 7.79095 5.79C7.79095 4.8 6.99095 4 6.00095 4Z" fill="currentColor"/>
</svg>
