<svg width="12" height="12" viewBox="0 0 12 12" fill="none" xmlns="http://www.w3.org/2000/svg">
<path d="M9 1H3C2.17 1 1.5 1.665 1.5 2.485V7.94C1.5 8.76 2.17 9.425 3 9.425H3.38C3.78 9.425 4.16 9.58 4.44 9.86L5.295 10.705C5.685 11.09 6.32 11.09 6.71 10.705L7.565 9.86C7.845 9.58 8.23 9.425 8.625 9.425H9C9.83 9.425 10.5 8.76 10.5 7.94V2.485C10.5 1.665 9.83 1 9 1ZM6 2.875C6.645 2.875 7.165 3.395 7.165 4.04C7.165 4.685 6.645 5.205 6 5.205C5.355 5.205 4.835 4.68 4.835 4.04C4.835 3.395 5.355 2.875 6 2.875ZM7.34 7.53H4.66C4.255 7.53 4.02 7.08 4.245 6.745C4.585 6.24 5.245 5.9 6 5.9C6.755 5.9 7.415 6.24 7.755 6.745C7.98 7.08 7.74 7.53 7.34 7.53Z" fill="currentColor"/>
</svg>
