<svg width="12" height="12" viewBox="0 0 12 12" fill="none" xmlns="http://www.w3.org/2000/svg">
<path d="M6.0001 7.5C3.49508 7.5 1.45508 9.18 1.45508 11.25C1.45508 11.39 1.56508 11.5 1.70508 11.5H10.2951C10.4351 11.5 10.5451 11.39 10.5451 11.25C10.5451 9.18 8.5051 7.5 6.0001 7.5Z" fill="currentColor"/>
<path d="M7.855 1.83C7.405 1.32 6.735 1 6 1C5.3 1 4.66 1.285 4.205 1.755C3.77 2.205 3.5 2.825 3.5 3.5C3.5 3.97 3.63 4.41 3.865 4.785C3.99 5 4.15 5.195 4.34 5.355C4.775 5.755 5.355 6 6 6C6.915 6 7.705 5.51 8.14 4.785C8.27 4.57 8.37 4.33 8.425 4.08C8.475 3.895 8.5 3.7 8.5 3.5C8.5 2.86 8.255 2.275 7.855 1.83ZM6.935 3.96H6.47V4.445C6.47 4.705 6.26 4.915 6 4.915C5.74 4.915 5.53 4.705 5.53 4.445V3.96H5.065C4.805 3.96 4.595 3.75 4.595 3.49C4.595 3.23 4.805 3.02 5.065 3.02H5.53V2.575C5.53 2.315 5.74 2.105 6 2.105C6.26 2.105 6.47 2.315 6.47 2.575V3.02H6.935C7.195 3.02 7.405 3.23 7.405 3.49C7.405 3.75 7.195 3.96 6.935 3.96Z" fill="currentColor"/>
</svg>
