<svg width="12" height="12" viewBox="0 0 12 12" fill="none" xmlns="http://www.w3.org/2000/svg">
<path d="M6.0001 7C3.49508 7 1.45508 8.68 1.45508 10.75C1.45508 10.89 1.56508 11 1.70508 11H10.2951C10.4351 11 10.5451 10.89 10.5451 10.75C10.5451 8.68 8.5051 7 6.0001 7Z" fill="currentColor"/>
<path d="M8.36 5.175L7.88 4.695C8.13 4.32 8.275 3.87 8.275 3.385C8.275 2.065 7.205 1 5.89 1C4.575 1 3.5 2.07 3.5 3.385C3.5 4.7 4.57 5.77 5.885 5.77C6.37 5.77 6.82 5.625 7.195 5.375L7.675 5.855C7.77 5.95 7.895 5.995 8.015 5.995C8.14 5.995 8.265 5.95 8.355 5.855C8.545 5.67 8.545 5.365 8.36 5.175Z" fill="currentColor"/>
</svg>
