<svg width="12" height="12" viewBox="0 0 12 12" fill="none" xmlns="http://www.w3.org/2000/svg">
<g clip-path="url(#clip0_1652_3767)">
<path d="M5.5 5.84998C6.9 5.84998 8 4.74998 8 3.34998C8 1.94998 6.9 0.849976 5.5 0.849976C4.1 0.849976 3 1.94998 3 3.34998C3 4.74998 4.15 5.84998 5.5 5.84998Z" fill="currentColor"/>
<path d="M6.60001 8.79998C6.60001 8.24998 6.80001 7.74998 7.10001 7.34998C6.60001 7.19998 6.10001 7.09998 5.50001 7.09998C3.00001 7.09998 0.950012 8.79998 0.950012 10.85C0.950012 11 1.05001 11.1 1.20001 11.1H8.90001C7.65001 11.1 6.60001 10.1 6.60001 8.79998Z" fill="currentColor"/>
<path opacity="0.4" d="M8.95001 11.1H9.85001C9.95001 11.1 10 11.05 10.05 11L9.95001 10.9C9.60001 11.05 9.25001 11.1 8.95001 11.1Z" fill="currentColor"/>
<path d="M10.9 10.2L10.5 9.79998C10.7 9.49998 10.8 9.14998 10.8 8.74998C10.8 7.69998 9.95 6.84998 8.9 6.84998C7.85 6.84998 7 7.74998 7 8.79998C7 9.84998 7.85 10.7 8.9 10.7C9.3 10.7 9.65 10.6 9.95 10.4L10.35 10.8C10.4 10.85 10.55 10.9 10.6 10.9C10.7 10.9 10.8 10.85 10.9 10.8C11.05 10.6 11.05 10.35 10.9 10.2Z" fill="currentColor"/>
</g>
<defs>
<clipPath id="clip0_1652_3767">
<rect width="12" height="12" fill="currentColor"/>
</clipPath>
</defs>
</svg>
