<svg width="12" height="12" viewBox="0 0 12 12" fill="none" xmlns="http://www.w3.org/2000/svg">
<path d="M6.0001 7C3.49508 7 1.45508 8.68 1.45508 10.75C1.45508 10.89 1.56508 11 1.70508 11H10.2951C10.4351 11 10.5451 10.89 10.5451 10.75C10.5451 8.68 8.5051 7 6.0001 7Z" fill="currentColor"/>
<path d="M8.4253 2.89907C8.3653 2.65407 8.2653 2.41407 8.1253 2.19407C8.0303 2.03407 7.9053 1.87407 7.7703 1.73407C7.3203 1.28407 6.7353 1.03907 6.1353 1.00907C5.4553 0.964066 4.76029 1.21407 4.23529 1.73407C3.74029 2.22407 3.49029 2.87907 3.50029 3.53907C3.50529 4.16407 3.75529 4.78907 4.23029 5.26905C4.56029 5.59905 4.96529 5.81905 5.4003 5.91905C5.6353 5.97905 5.8853 6.00905 6.1353 5.98905C6.7303 5.96405 7.3103 5.72905 7.7653 5.26905C8.4103 4.62407 8.6303 3.71907 8.4253 2.89907ZM7.0003 4.49907C6.8203 4.67907 6.5203 4.67907 6.3403 4.49907L5.9953 4.15407L5.6653 4.48407C5.4853 4.66407 5.1853 4.66407 5.0053 4.48407C4.82029 4.29907 4.82029 4.00407 5.0003 3.82407L5.3303 3.49407L5.0103 3.18407C4.83029 2.99907 4.83029 2.70407 5.0103 2.51407C5.1953 2.33407 5.4903 2.33407 5.6803 2.51407L5.9903 2.83407L6.3253 2.49907C6.5053 2.31907 6.8003 2.31907 6.9853 2.49907C7.1653 2.67907 7.1653 2.97907 6.9853 3.15907L6.6553 3.48907L7.0003 3.83907C7.1803 4.01907 7.1803 4.31907 7.0003 4.49907Z" fill="currentColor"/>
</svg>
