<svg width="12" height="12" viewBox="0 0 12 12" fill="none" xmlns="http://www.w3.org/2000/svg">
<path d="M9.75595 2.925L6.78595 1.21C6.30095 0.93 5.70095 0.93 5.21095 1.21L2.24593 2.925C1.76093 3.205 1.46094 3.725 1.46094 4.29V7.71C1.46094 8.27 1.76093 8.79 2.24593 9.075L5.21595 10.79C5.70095 11.07 6.30095 11.07 6.79095 10.79L9.76095 9.075C10.2459 8.795 10.5459 8.275 10.5459 7.71V4.29C10.5409 3.725 10.2409 3.21 9.75595 2.925ZM7.12595 6.7L6.60595 7L6.08595 7.3C5.42095 7.685 4.87593 7.37 4.87593 6.6V6V5.4C4.87593 4.63 5.42095 4.315 6.08595 4.7L6.60595 5L7.12595 5.3C7.79095 5.685 7.79095 6.315 7.12595 6.7Z" fill="currentColor"/>
</svg>
