<svg width="12" height="12" viewBox="0 0 12 12" fill="none" xmlns="http://www.w3.org/2000/svg">
<path d="M10.99 7.825C10.58 7.32 9.955 7 9.25 7C8.72 7 8.23 7.185 7.845 7.495C7.325 7.905 7 8.54 7 9.25C7 9.67 7.12 10.07 7.325 10.41C7.46 10.635 7.63 10.83 7.83 10.99H7.835C8.22 11.31 8.715 11.5 9.25 11.5C9.82 11.5 10.335 11.29 10.73 10.94C10.905 10.79 11.055 10.61 11.175 10.41C11.38 10.07 11.5 9.67 11.5 9.25C11.5 8.71 11.31 8.21 10.99 7.825ZM10.38 8.97L9.18 10.08C9.11 10.145 9.015 10.18 8.925 10.18C8.83 10.18 8.735 10.145 8.66 10.07L8.105 9.515C7.96 9.37 7.96 9.13 8.105 8.985C8.25 8.84 8.49 8.84 8.635 8.985L8.935 9.285L9.87 8.42C10.02 8.28 10.26 8.29 10.4 8.44C10.545 8.595 10.535 8.83 10.38 8.97Z" fill="currentColor"/>
<path d="M7.36475 2.93V1.25C7.36475 1.11 7.25475 1 7.11475 1H4.88477C4.74477 1 4.63477 1.11 4.63477 1.25V2.93C4.63477 3.07 4.74477 3.18 4.88477 3.18H7.11475C7.25475 3.18 7.36475 3.07 7.36475 2.93Z" fill="currentColor"/>
<path d="M3.62425 1.01035C2.34425 1.09035 1.46925 1.75035 1.14425 2.85035C1.09426 3.01535 1.21425 3.18035 1.38425 3.18035H3.63425C3.77426 3.18035 3.88425 3.07035 3.88425 2.93035V1.26035C3.88425 1.12035 3.76425 1.00035 3.62425 1.01035Z" fill="currentColor"/>
<path d="M8.37525 1.00449C9.65525 1.08449 10.5303 1.74449 10.8553 2.84449C10.9053 3.00949 10.7852 3.17449 10.6152 3.17449H8.36525C8.22525 3.17449 8.11525 3.06449 8.11525 2.92449V1.25449C8.11525 1.11449 8.23525 0.99449 8.37525 1.00449Z" fill="currentColor"/>
<path d="M11 4.17969V6.3697C11 6.5547 10.805 6.6747 10.64 6.5897C10.22 6.3697 9.74 6.2497 9.25 6.2497C8.445 6.2497 7.66 6.5797 7.1 7.1547C6.55 7.7147 6.25 8.4597 6.25 9.2497C6.25 9.6547 6.41 10.1747 6.61 10.6097C6.69 10.7847 6.57 10.9997 6.375 10.9997H3.905C2.3 10.9997 1 9.6997 1 8.0947V4.17969C1 4.03969 1.11 3.92969 1.25 3.92969H10.75C10.89 3.92969 11 4.03969 11 4.17969Z" fill="currentColor"/>
</svg>
