<svg width="12" height="12" viewBox="0 0 12 12" fill="none" xmlns="http://www.w3.org/2000/svg">
<path d="M8.87025 3.78515C8.87525 3.82015 8.87525 3.86015 8.87025 3.89515C8.87025 3.86015 8.86525 3.82515 8.86525 3.79015L8.87025 3.78515Z" fill="currentColor"/>
<path d="M8.63945 3.28L1.91446 10.005C1.21446 9.56 0.939455 8.765 0.939455 8V4C0.939455 2.29 1.60445 1.625 3.31446 1.625H6.31445C7.75945 1.625 8.45445 2.1 8.63945 3.28Z" fill="currentColor"/>
<path d="M10.7 1.11445C10.55 0.964453 10.305 0.964453 10.155 1.11445L0.925 10.3444C0.775 10.4944 0.775 10.7394 0.925 10.8894C1 10.9594 1.1 10.9994 1.195 10.9994C1.295 10.9994 1.39 10.9594 1.465 10.8844L10.7 1.65445C10.85 1.50445 10.85 1.26445 10.7 1.11445Z" fill="currentColor"/>
<path d="M11.1901 4.19023V7.81025C11.1901 8.52525 10.8401 8.81025 10.6401 8.91525C10.5451 8.96525 10.3951 9.02025 10.2101 9.02025C9.9951 9.02025 9.7301 8.95025 9.4201 8.73025L8.6801 8.21025C8.6451 9.31525 8.2951 9.94525 7.5001 10.2102C7.1801 10.3252 6.7851 10.3752 6.3101 10.3752H3.31008C3.19008 10.3752 3.07508 10.3702 2.95508 10.3552L10.3251 2.99023C10.4551 3.00023 10.5601 3.04023 10.6401 3.08523C10.8401 3.19023 11.1901 3.47523 11.1901 4.19023Z" fill="currentColor"/>
</svg>
