<svg width="12" height="12" viewBox="0 0 12 12" fill="none" xmlns="http://www.w3.org/2000/svg">
<path d="M3.18 3.89062H1V5.6256H3.18V3.89062Z" fill="currentColor"/>
<path d="M3.17922 3.14445V1.06446C2.03922 1.27446 1.29422 2.00946 1.07422 3.13946H3.16422C3.16922 3.13946 3.17422 3.14445 3.17922 3.14445Z" fill="currentColor"/>
<path d="M3.18 8.155V6.375H1V8.14H3.12C3.14 8.14 3.16 8.15 3.18 8.155Z" fill="currentColor"/>
<path d="M10.9247 3.13984C10.7097 2.04484 10.0097 1.32484 8.9297 1.08984V3.13984H10.9247Z" fill="currentColor"/>
<path d="M8.1797 5.625V1.005C8.1547 1 8.1247 1 8.0947 1H3.92969V5.625H8.1797Z" fill="currentColor"/>
<path d="M10.9997 6.375H8.9297V8.14H10.9997V6.375Z" fill="currentColor"/>
<path d="M8.9297 10.9106C9.9997 10.6756 10.6997 9.96565 10.9197 8.8906H8.9297V10.9106Z" fill="currentColor"/>
<path d="M3.12008 8.89085H1.08008C1.31008 10.0008 2.05008 10.7259 3.18008 10.9359V8.88085C3.16008 8.88585 3.14008 8.89085 3.12008 8.89085Z" fill="currentColor"/>
<path d="M10.9997 3.89062H8.9297V5.6256H10.9997V3.89062Z" fill="currentColor"/>
<path d="M3.92969 6.375V11H8.0947C8.1247 11 8.1547 11 8.1797 10.995V6.375H3.92969Z" fill="currentColor"/>
</svg>
