<svg width="12" height="12" viewBox="0 0 12 12" fill="none" xmlns="http://www.w3.org/2000/svg">
<path d="M5.625 3.92969H1V8.0947C1 8.1247 1 8.1547 1.005 8.1797H5.625V3.92969Z" fill="currentColor"/>
<path d="M3.84571 3.18H5.6257V1H3.8607V3.12C3.8607 3.14 3.85071 3.16 3.84571 3.18Z" fill="currentColor"/>
<path d="M3.10946 3.12008V1.08008C1.99946 1.31008 1.27446 2.05008 1.06446 3.18008H3.11946C3.11445 3.16008 3.10946 3.14008 3.10946 3.12008Z" fill="currentColor"/>
<path d="M8.11 1H6.375V3.18H8.11V1Z" fill="currentColor"/>
<path d="M8.85545 3.17922H10.9354C10.7254 2.03922 9.99045 1.29422 8.86045 1.07422V3.16422C8.86045 3.16922 8.85545 3.17422 8.85545 3.17922Z" fill="currentColor"/>
<path d="M8.8594 10.9247C9.9544 10.7097 10.6744 10.0097 10.9094 8.9297H8.8594V10.9247Z" fill="currentColor"/>
<path d="M8.11 8.9297H6.375V10.9997H8.11V8.9297Z" fill="currentColor"/>
<path d="M6.375 8.1797H10.995C11 8.1547 11 8.1247 11 8.0947V3.92969H6.375V8.1797Z" fill="currentColor"/>
<path d="M5.6244 8.9297H3.85938V10.9997H5.6244V8.9297Z" fill="currentColor"/>
<path d="M1.08984 8.9297C1.32484 9.9997 2.03484 10.6997 3.10984 10.9197V8.9297H1.08984Z" fill="currentColor"/>
</svg>
