<svg width="12" height="12" viewBox="0 0 12 12" fill="none" xmlns="http://www.w3.org/2000/svg">
<path d="M7.36475 2.93V1.25C7.36475 1.11 7.25475 1 7.11475 1H4.88477C4.74477 1 4.63477 1.11 4.63477 1.25V2.93C4.63477 3.07 4.74477 3.18 4.88477 3.18H7.11475C7.25475 3.18 7.36475 3.07 7.36475 2.93Z" fill="currentColor"/>
<path d="M3.62425 1.01035C2.34425 1.09035 1.46925 1.75035 1.14425 2.85035C1.09426 3.01535 1.21425 3.18035 1.38425 3.18035H3.63425C3.77426 3.18035 3.88425 3.07035 3.88425 2.93035V1.26035C3.88425 1.12035 3.76425 1.00035 3.62425 1.01035Z" fill="currentColor"/>
<path d="M8.37525 1.00449C9.65525 1.08449 10.5303 1.74449 10.8553 2.84449C10.9053 3.00949 10.7852 3.17449 10.6152 3.17449H8.36525C8.22525 3.17449 8.11525 3.06449 8.11525 2.92449V1.25449C8.11525 1.11449 8.23525 0.99449 8.37525 1.00449Z" fill="currentColor"/>
<path d="M11 7.85C11 7.845 10.995 7.84 10.99 7.835C10.97 7.805 10.945 7.775 10.92 7.75C10.915 7.745 10.91 7.735 10.905 7.73C10.5 7.28 9.905 7 9.25 7C8.62 7 8.045 7.26 7.635 7.68C7.24 8.085 7 8.64 7 9.25C7 9.67 7.12 10.07 7.325 10.41C7.435 10.595 7.575 10.765 7.735 10.905C7.745 10.91 7.75 10.915 7.755 10.92C7.78 10.945 7.805 10.965 7.835 10.99C7.835 10.99 7.835 10.99 7.84 10.99C7.845 10.995 7.85 11 7.855 11C8.23 11.315 8.715 11.5 9.25 11.5C10.07 11.5 10.785 11.06 11.175 10.41C11.29 10.215 11.38 10 11.435 9.775C11.48 9.605 11.5 9.43 11.5 9.25C11.5 8.72 11.315 8.23 11 7.85ZM10.09 9.615H9.625V10.1C9.625 10.305 9.455 10.475 9.25 10.475C9.045 10.475 8.875 10.305 8.875 10.1V9.615H8.41C8.205 9.615 8.035 9.445 8.035 9.24C8.035 9.035 8.205 8.865 8.41 8.865H8.875V8.42C8.875 8.215 9.045 8.045 9.25 8.045C9.455 8.045 9.625 8.215 9.625 8.42V8.865H10.09C10.295 8.865 10.465 9.035 10.465 9.24C10.465 9.445 10.3 9.615 10.09 9.615Z" fill="currentColor"/>
<path d="M11 4.17969V6.3697C11 6.5547 10.805 6.6747 10.64 6.5897C10.22 6.3697 9.74 6.2497 9.25 6.2497C8.445 6.2497 7.66 6.5797 7.1 7.1547C6.55 7.7147 6.25 8.4597 6.25 9.2497C6.25 9.6547 6.41 10.1747 6.61 10.6097C6.69 10.7847 6.57 10.9997 6.375 10.9997H3.905C2.3 10.9997 1 9.6997 1 8.0947V4.17969C1 4.03969 1.11 3.92969 1.25 3.92969H10.75C10.89 3.92969 11 4.03969 11 4.17969Z" fill="currentColor"/>
</svg>
