<svg width="12" height="12" viewBox="0 0 12 12" fill="none" xmlns="http://www.w3.org/2000/svg">
<path d="M7.36475 1H4.63477V3.18H7.36475V1Z" fill="currentColor"/>
<path d="M8.11525 1V3.18H10.9353C10.6803 1.805 9.66525 1.005 8.11525 1Z" fill="currentColor"/>
<path d="M1 3.92969V8.0947C1 9.9147 2.085 10.9997 3.905 10.9997H8.095C9.915 10.9997 11 9.9147 11 8.0947V3.92969H1ZM7.22 8.0897L6.18 8.6897C5.96 8.8147 5.745 8.8797 5.545 8.8797C5.395 8.8797 5.26 8.8447 5.135 8.7747C4.845 8.6097 4.685 8.2697 4.685 7.8297V6.6297C4.685 6.1897 4.845 5.8497 5.135 5.6847C5.425 5.5147 5.795 5.5447 6.18 5.7697L7.22 6.3697C7.605 6.5897 7.815 6.8997 7.815 7.2347C7.815 7.5697 7.6 7.8647 7.22 8.0897Z" fill="currentColor"/>
<path d="M3.88445 1C2.33446 1.005 1.31946 1.805 1.06446 3.18H3.88445V1Z" fill="currentColor"/>
</svg>
