<svg width="12" height="12" viewBox="0 0 12 12" fill="none" xmlns="http://www.w3.org/2000/svg">
<path d="M6 1C3.24 1 1 3.24 1 6C1 8.76 3.24 11 6 11C8.76 11 11 8.76 11 6C11 3.24 8.76 1 6 1ZM3.375 7.07C3.375 7.275 3.205 7.445 3 7.445C2.795 7.445 2.625 7.275 2.625 7.07V4.93C2.625 4.725 2.795 4.555 3 4.555C3.205 4.555 3.375 4.725 3.375 4.93V7.07ZM4.875 7.785C4.875 7.99 4.705 8.16 4.5 8.16C4.295 8.16 4.125 7.99 4.125 7.785V4.215C4.125 4.01 4.295 3.84 4.5 3.84C4.705 3.84 4.875 4.01 4.875 4.215V7.785ZM6.375 8.5C6.375 8.705 6.205 8.875 6 8.875C5.795 8.875 5.625 8.705 5.625 8.5V3.5C5.625 3.295 5.795 3.125 6 3.125C6.205 3.125 6.375 3.295 6.375 3.5V8.5ZM7.875 7.785C7.875 7.99 7.705 8.16 7.5 8.16C7.295 8.16 7.125 7.99 7.125 7.785V4.215C7.125 4.01 7.295 3.84 7.5 3.84C7.705 3.84 7.875 4.01 7.875 4.215V7.785ZM9.375 7.07C9.375 7.275 9.205 7.445 9 7.445C8.795 7.445 8.625 7.275 8.625 7.07V4.93C8.625 4.725 8.795 4.555 9 4.555C9.205 4.555 9.375 4.725 9.375 4.93V7.07Z" fill="currentColor"/>
</svg>
