<svg width="12" height="12" viewBox="0 0 12 12" fill="none" xmlns="http://www.w3.org/2000/svg">
<path d="M9.6642 8.37515C9.5842 8.37515 9.5092 8.35015 9.4392 8.30015C9.2742 8.17515 9.2392 7.94015 9.3642 7.77515C10.1492 6.73015 10.1492 5.27015 9.3642 4.22513C9.2392 4.06013 9.2742 3.82513 9.4392 3.70013C9.6042 3.57513 9.8392 3.61013 9.9642 3.77513C10.9492 5.08515 10.9492 6.91515 9.9642 8.22515C9.8942 8.32515 9.7792 8.37515 9.6642 8.37515Z" fill="currentColor"/>
<path d="M7.67405 1.89084C7.11405 1.58084 6.39905 1.66084 5.66905 2.11584L4.20907 3.03084C4.10907 3.09084 3.99407 3.12584 3.87907 3.12584H3.16406C1.95406 3.12584 1.28906 3.79084 1.28906 5.00085V7.00085C1.28906 8.21085 1.95406 8.87585 3.16406 8.87585H3.87907C3.99407 8.87585 4.10907 8.91085 4.20907 8.97085L5.66905 9.88585C6.10905 10.1608 6.53905 10.2958 6.93905 10.2958C7.19905 10.2958 7.44905 10.2358 7.67405 10.1108C8.22905 9.80085 8.53905 9.15585 8.53905 8.29585V3.70584C8.53905 2.84584 8.22905 2.20084 7.67405 1.89084Z" fill="currentColor"/>
</svg>
