<svg width="12" height="12" viewBox="0 0 12 12" fill="none" xmlns="http://www.w3.org/2000/svg">
<path d="M11 5.625H10.375V5C10.375 4.795 10.205 4.625 10 4.625C9.795 4.625 9.625 4.795 9.625 5V5.625H9C8.795 5.625 8.625 5.795 8.625 6C8.625 6.205 8.795 6.375 9 6.375H9.625V7C9.625 7.205 9.795 7.375 10 7.375C10.205 7.375 10.375 7.205 10.375 7V6.375H11C11.205 6.375 11.375 6.205 11.375 6C11.375 5.795 11.205 5.625 11 5.625Z" fill="currentColor"/>
<path d="M7.01 1.89084C6.45 1.58084 5.735 1.66084 5.005 2.11584L3.545 3.03084C3.445 3.09084 3.33 3.12584 3.215 3.12584H2.5C1.29 3.12584 0.625 3.79084 0.625 5.00085V7.00085C0.625 8.21085 1.29 8.87585 2.5 8.87585H3.215C3.33 8.87585 3.445 8.91085 3.545 8.97085L5.005 9.88585C5.445 10.1608 5.875 10.2958 6.275 10.2958C6.535 10.2958 6.785 10.2358 7.01 10.1108C7.565 9.80085 7.875 9.15585 7.875 8.29585V3.70584C7.875 2.84584 7.565 2.20084 7.01 1.89084Z" fill="currentColor"/>
</svg>
