<svg width="12" height="12" viewBox="0 0 12 12" fill="none" xmlns="http://www.w3.org/2000/svg">
<path d="M11.2657 6.70985L10.5407 5.98485L11.2407 5.28485C11.3857 5.13985 11.3857 4.89984 11.2407 4.75484C11.0957 4.60984 10.8557 4.60984 10.7107 4.75484L10.0107 5.45485L9.2857 4.72984C9.1407 4.58484 8.9007 4.58484 8.7557 4.72984C8.6107 4.87484 8.6107 5.11485 8.7557 5.25985L9.4807 5.98485L8.7357 6.72985C8.5907 6.87485 8.5907 7.11485 8.7357 7.25985C8.8107 7.33485 8.9057 7.36985 9.0007 7.36985C9.0957 7.36985 9.1907 7.33485 9.2657 7.25985L10.0107 6.51485L10.7357 7.23985C10.8107 7.31485 10.9057 7.34985 11.0007 7.34985C11.0957 7.34985 11.1907 7.31485 11.2657 7.23985C11.4107 7.09485 11.4107 6.85985 11.2657 6.70985Z" fill="currentColor"/>
<path d="M7.01 1.89084C6.45 1.58084 5.735 1.66084 5.005 2.11584L3.545 3.03084C3.445 3.09084 3.33 3.12584 3.215 3.12584H2.5C1.29 3.12584 0.625 3.79084 0.625 5.00085V7.00085C0.625 8.21085 1.29 8.87585 2.5 8.87585H3.215C3.33 8.87585 3.445 8.91085 3.545 8.97085L5.005 9.88585C5.445 10.1608 5.875 10.2958 6.275 10.2958C6.535 10.2958 6.785 10.2358 7.01 10.1108C7.565 9.80085 7.875 9.15585 7.875 8.29585V3.70584C7.875 2.84584 7.565 2.20084 7.01 1.89084Z" fill="currentColor"/>
</svg>
