<svg width="12" height="12" viewBox="0 0 12 12" fill="none" xmlns="http://www.w3.org/2000/svg">
<path d="M9.00015 8.37515C8.92015 8.37515 8.84515 8.35015 8.77515 8.30015C8.61015 8.17515 8.57515 7.94015 8.70015 7.77515C9.33015 6.93515 9.46515 5.82015 9.06015 4.85516C8.98015 4.66516 9.07015 4.44516 9.26015 4.36516C9.45015 4.28516 9.67015 4.37516 9.75015 4.56516C10.2601 5.77515 10.0851 7.18015 9.30015 8.23015C9.22515 8.32515 9.11515 8.37515 9.00015 8.37515Z" fill="currentColor"/>
<path d="M9.9142 9.6246C9.8342 9.6246 9.7592 9.5996 9.6892 9.5496C9.5242 9.4246 9.4892 9.1896 9.6142 9.0246C10.6842 7.5996 10.9192 5.6896 10.2292 4.04461C10.1492 3.85461 10.2392 3.63461 10.4292 3.55461C10.6192 3.47461 10.8392 3.56461 10.9192 3.75461C11.7142 5.6446 11.4442 7.8346 10.2142 9.4746C10.1442 9.5746 10.0292 9.6246 9.9142 9.6246Z" fill="currentColor"/>
<path d="M7.02025 6.47905C7.33525 6.16405 7.87525 6.38905 7.87525 6.83405V8.29905C7.87525 9.15905 7.56525 9.80405 7.01025 10.114C6.78525 10.239 6.53525 10.299 6.27525 10.299C5.87525 10.299 5.44525 10.164 5.00525 9.88905L4.68524 9.68905C4.41524 9.51905 4.37023 9.13905 4.59523 8.91405L7.02025 6.47905Z" fill="currentColor"/>
<path d="M10.885 1.11445C10.735 0.964453 10.49 0.964453 10.34 1.11445L7.865 3.58945C7.835 2.78945 7.535 2.18945 7.005 1.89445C6.445 1.58445 5.73 1.66445 5 2.11945L3.545 3.02945C3.445 3.08945 3.33 3.12445 3.215 3.12445H2.5C1.29 3.12445 0.625 3.78945 0.625 4.99945V6.99945C0.625 8.20945 1.29 8.87445 2.5 8.87445H2.58L1.11 10.3444C0.96 10.4944 0.96 10.7394 1.11 10.8894C1.19 10.9594 1.285 10.9994 1.385 10.9994C1.485 10.9994 1.58 10.9594 1.655 10.8844L10.885 1.65445C11.04 1.50445 11.04 1.26445 10.885 1.11445Z" fill="currentColor"/>
</svg>
