<svg width="12" height="12" viewBox="0 0 12 12" fill="none" xmlns="http://www.w3.org/2000/svg">
<path d="M9.00015 8.37515C8.92015 8.37515 8.84515 8.35015 8.77515 8.30015C8.61015 8.17515 8.57515 7.94015 8.70015 7.77515C9.48515 6.73015 9.48515 5.27015 8.70015 4.22513C8.57515 4.06013 8.61015 3.82513 8.77515 3.70013C8.94015 3.57513 9.17515 3.61013 9.30015 3.77513C10.2801 5.08515 10.2801 6.91515 9.30015 8.22515C9.22515 8.32515 9.11515 8.37515 9.00015 8.37515Z" fill="currentColor"/>
<path d="M9.9142 9.62515C9.8342 9.62515 9.7592 9.60015 9.6892 9.55015C9.5242 9.42515 9.4892 9.19015 9.6142 9.02515C10.9492 7.24515 10.9492 4.75513 9.6142 2.97513C9.4892 2.81013 9.5242 2.57513 9.6892 2.45013C9.8542 2.32513 10.0892 2.36013 10.2142 2.52513C11.7492 4.57013 11.7492 7.43015 10.2142 9.47515C10.1442 9.57515 10.0292 9.62515 9.9142 9.62515Z" fill="currentColor"/>
<path d="M7.01 1.89084C6.45 1.58084 5.735 1.66084 5.005 2.11584L3.545 3.03084C3.445 3.09084 3.33 3.12584 3.215 3.12584H2.5C1.29 3.12584 0.625 3.79084 0.625 5.00085V7.00085C0.625 8.21085 1.29 8.87585 2.5 8.87585H3.215C3.33 8.87585 3.445 8.91085 3.545 8.97085L5.005 9.88585C5.445 10.1608 5.875 10.2958 6.275 10.2958C6.535 10.2958 6.785 10.2358 7.01 10.1108C7.565 9.80085 7.875 9.15585 7.875 8.29585V3.70584C7.875 2.84584 7.565 2.20084 7.01 1.89084Z" fill="currentColor"/>
</svg>
