<svg width="12" height="12" viewBox="0 0 12 12" fill="none" xmlns="http://www.w3.org/2000/svg">
<path d="M8.76 1.89084C8.2 1.58084 7.485 1.66084 6.755 2.11584L5.295 3.03084C5.195 3.09084 5.08 3.12584 4.965 3.12584H4.5H4.25C3.04 3.12584 2.375 3.79084 2.375 5.00085V7.00085C2.375 8.21085 3.04 8.87585 4.25 8.87585H4.5H4.965C5.08 8.87585 5.195 8.91085 5.295 8.97085L6.755 9.88585C7.195 10.1608 7.625 10.2958 8.025 10.2958C8.285 10.2958 8.535 10.2358 8.76 10.1108C9.315 9.80085 9.625 9.15585 9.625 8.29585V3.70584C9.625 2.84584 9.315 2.20084 8.76 1.89084Z" fill="currentColor"/>
</svg>
