<svg width="12" height="12" viewBox="0 0 12 12" fill="none" xmlns="http://www.w3.org/2000/svg">
<path d="M2.5 7.5C1.395 7.5 0.5 8.395 0.5 9.5C0.5 9.875 0.605 10.23 0.79 10.53C1.135 11.11 1.77 11.5 2.5 11.5C3.23 11.5 3.865 11.11 4.21 10.53C4.395 10.23 4.5 9.875 4.5 9.5C4.5 8.395 3.605 7.5 2.5 7.5ZM3.245 9.865H2.875V10.255C2.875 10.46 2.705 10.63 2.5 10.63C2.295 10.63 2.125 10.46 2.125 10.255V9.865H1.755C1.55 9.865 1.38 9.695 1.38 9.49C1.38 9.285 1.55 9.115 1.755 9.115H2.125V8.76C2.125 8.555 2.295 8.385 2.5 8.385C2.705 8.385 2.875 8.555 2.875 8.76V9.115H3.245C3.45 9.115 3.62 9.285 3.62 9.49C3.62 9.695 3.455 9.865 3.245 9.865Z" fill="currentColor"/>
<path d="M10.75 6.25H9.5C8.95 6.25 8.5 6.7 8.5 7.25C8.5 7.8 8.95 8.25 9.5 8.25H10.75C10.89 8.25 11 8.14 11 8V6.5C11 6.36 10.89 6.25 10.75 6.25Z" fill="currentColor"/>
<path d="M8.2646 2.70008C8.4146 2.84508 8.2896 3.07008 8.0796 3.07008L3.93961 3.06508C3.69961 3.06508 3.57961 2.77508 3.74961 2.60508L4.62462 1.72508C5.3646 0.990078 6.5596 0.990078 7.2996 1.72508L8.2446 2.68008C8.2496 2.68508 8.2596 2.69508 8.2646 2.70008Z" fill="currentColor"/>
<path d="M10.9347 9.33C10.6297 10.36 9.7497 11 8.5497 11H5.2997C5.1047 11 4.97969 10.785 5.0597 10.605C5.2097 10.255 5.3047 9.86 5.3047 9.5C5.3047 7.985 4.06969 6.75 2.55469 6.75C2.17469 6.75 1.80469 6.83 1.46469 6.98C1.27969 7.06 1.05469 6.935 1.05469 6.735V6C1.05469 4.64 1.87469 3.69 3.14969 3.53C3.27469 3.51 3.40968 3.5 3.54969 3.5H8.5497C8.6797 3.5 8.8047 3.505 8.9247 3.525C9.9347 3.64 10.6647 4.255 10.9347 5.17C10.9847 5.335 10.8647 5.5 10.6947 5.5H9.5497C8.4647 5.5 7.6047 6.49 7.8397 7.615C8.0047 8.435 8.7647 9 9.5997 9H10.6947C10.8697 9 10.9847 9.17 10.9347 9.33Z" fill="currentColor"/>
</svg>
