<svg width="12" height="12" viewBox="0 0 12 12" fill="none" xmlns="http://www.w3.org/2000/svg">
<path d="M10.75 6.25H9.5C8.95 6.25 8.5 6.7 8.5 7.25C8.5 7.8 8.95 8.25 9.5 8.25H10.75C10.89 8.25 11 8.14 11 8V6.5C11 6.36 10.89 6.25 10.75 6.25Z" fill="currentColor"/>
<path d="M2.5 7.5C1.9 7.5 1.365 7.765 1 8.18C0.69 8.535 0.5 8.995 0.5 9.5C0.5 9.875 0.605 10.23 0.79 10.53C1.135 11.11 1.77 11.5 2.5 11.5C3.005 11.5 3.465 11.315 3.815 11C3.97 10.87 4.105 10.71 4.21 10.53C4.395 10.23 4.5 9.875 4.5 9.5C4.5 8.395 3.605 7.5 2.5 7.5ZM3.3 10.29C3.225 10.365 3.13 10.4 3.035 10.4C2.94 10.4 2.845 10.365 2.77 10.29L2.505 10.025L2.23 10.3C2.155 10.375 2.06 10.41 1.965 10.41C1.87 10.41 1.775 10.375 1.7 10.3C1.555 10.155 1.555 9.915 1.7 9.77L1.975 9.495L1.71 9.23C1.565 9.085 1.565 8.845 1.71 8.7C1.855 8.555 2.095 8.555 2.24 8.7L2.505 8.965L2.755 8.715C2.9 8.57 3.14 8.57 3.285 8.715C3.43 8.86 3.43 9.1 3.285 9.245L3.035 9.495L3.3 9.76C3.445 9.905 3.445 10.14 3.3 10.29Z" fill="currentColor"/>
<path d="M8.2646 2.70008C8.4146 2.84508 8.2896 3.07008 8.0796 3.07008L3.93961 3.06508C3.69961 3.06508 3.57961 2.77508 3.74961 2.60508L4.62462 1.72508C5.3646 0.990078 6.5596 0.990078 7.2996 1.72508L8.2446 2.68008C8.2496 2.68508 8.2596 2.69508 8.2646 2.70008Z" fill="currentColor"/>
<path d="M10.9347 9.33C10.6297 10.36 9.7497 11 8.5497 11H5.2997C5.1047 11 4.97969 10.785 5.0597 10.605C5.2097 10.255 5.3047 9.86 5.3047 9.5C5.3047 7.985 4.06969 6.75 2.55469 6.75C2.17469 6.75 1.80469 6.83 1.46469 6.98C1.27969 7.06 1.05469 6.935 1.05469 6.735V6C1.05469 4.64 1.87469 3.69 3.14969 3.53C3.27469 3.51 3.40968 3.5 3.54969 3.5H8.5497C8.6797 3.5 8.8047 3.505 8.9247 3.525C9.9347 3.64 10.6647 4.255 10.9347 5.17C10.9847 5.335 10.8647 5.5 10.6947 5.5H9.5497C8.4647 5.5 7.6047 6.49 7.8397 7.615C8.0047 8.435 8.7647 9 9.5997 9H10.6947C10.8697 9 10.9847 9.17 10.9347 9.33Z" fill="currentColor"/>
</svg>
