<svg width="12" height="12" viewBox="0 0 12 12" fill="none" xmlns="http://www.w3.org/2000/svg">
<path d="M10.485 8.04C10.365 9.375 9.4 10.25 8 10.25H3.5C2.12 10.25 1 9.13 1 7.75V4.25C1 2.89 1.82 1.94 3.095 1.78C3.225 1.76 3.36 1.75 3.5 1.75H8C8.13 1.75 8.255 1.755 8.375 1.775C9.57 1.915 10.38 2.75 10.485 3.96C10.5 4.105 10.38 4.225 10.235 4.225H9.46C8.98 4.225 8.535 4.41 8.215 4.74C7.835 5.11 7.645 5.63 7.69 6.15C7.77 7.06 8.57 7.775 9.52 7.775H10.235C10.38 7.775 10.5 7.895 10.485 8.04Z" fill="currentColor"/>
<path d="M11.0001 5.4846V6.5146C11.0001 6.7896 10.7801 7.0146 10.5001 7.0246H9.5201C8.9801 7.0246 8.4851 6.6296 8.4401 6.0896C8.4101 5.7746 8.5301 5.4796 8.7401 5.2746C8.9251 5.0846 9.1801 4.97461 9.4601 4.97461H10.5001C10.7801 4.98461 11.0001 5.2096 11.0001 5.4846Z" fill="currentColor"/>
</svg>
