<svg width="12" height="12" viewBox="0 0 12 12" fill="none" xmlns="http://www.w3.org/2000/svg">
<path d="M10.7249 6.8203V7.3203C10.7249 7.4553 10.62 7.5653 10.4799 7.5703H9.74995C9.48495 7.5703 9.24495 7.3753 9.22495 7.1153C9.20995 6.9603 9.26995 6.8153 9.36995 6.7153C9.45995 6.6203 9.58495 6.5703 9.71995 6.5703H10.4749C10.62 6.5753 10.7249 6.6853 10.7249 6.8203Z" fill="currentColor"/>
<path d="M8.9946 6.3453C8.7446 6.5903 8.6246 6.9553 8.7246 7.3353C8.8546 7.8003 9.3096 8.0953 9.7896 8.0953H10.2246C10.4996 8.0953 10.7246 8.3203 10.7246 8.5953V8.6903C10.7246 9.7253 9.8796 10.5703 8.8446 10.5703H3.10461C2.06961 10.5703 1.22461 9.7253 1.22461 8.6903V5.3253C1.22461 4.71031 1.51961 4.16531 1.97461 3.82531C2.28961 3.58531 2.67961 3.44531 3.10461 3.44531H8.8446C9.8796 3.44531 10.7246 4.29031 10.7246 5.3253V5.5453C10.7246 5.8203 10.4996 6.0453 10.2246 6.0453H9.7146C9.4346 6.0453 9.1796 6.1553 8.9946 6.3453Z" fill="currentColor"/>
<path d="M8.09955 2.41C8.23455 2.545 8.11955 2.755 7.92955 2.755L4.08954 2.75C3.86954 2.75 3.75454 2.48 3.91454 2.325L4.72454 1.51C5.40955 0.83 6.51955 0.83 7.20455 1.51L8.07955 2.395C8.08455 2.4 8.09455 2.405 8.09955 2.41Z" fill="currentColor"/>
</svg>
