<svg width="12" height="12" viewBox="0 0 12 12" fill="none" xmlns="http://www.w3.org/2000/svg">
<path d="M11.0001 6.3108V7.3408C11.0001 7.6208 10.7701 7.8508 10.4851 7.8508H9.5201C8.9801 7.8508 8.4851 7.4558 8.4401 6.9158C8.4101 6.6008 8.5301 6.3058 8.7401 6.1008C8.9251 5.9108 9.1801 5.8008 9.4601 5.8008H10.4851C10.7701 5.8008 11.0001 6.0308 11.0001 6.3108Z" fill="currentColor"/>
<path d="M7.69 6.9792C7.645 6.4542 7.835 5.9392 8.215 5.5642C8.535 5.2392 8.98 5.0492 9.46 5.0492H9.745C9.885 5.0492 10 4.93422 9.98 4.79422C9.845 3.82422 9.005 3.07422 8 3.07422H3C1.895 3.07422 1 3.96922 1 5.0742V8.5742C1 9.6792 1.895 10.5742 3 10.5742H8C9.01 10.5742 9.845 9.8242 9.98 8.8542C10 8.7142 9.885 8.5992 9.745 8.5992H9.52C8.57 8.5992 7.77 7.8892 7.69 6.9792ZM6.5 5.9492H3.5C3.295 5.9492 3.125 5.7842 3.125 5.5742C3.125 5.3642 3.295 5.1992 3.5 5.1992H6.5C6.705 5.1992 6.875 5.3692 6.875 5.5742C6.875 5.7792 6.705 5.9492 6.5 5.9492Z" fill="currentColor"/>
<path d="M7.1053 1.99078C7.2353 2.12578 7.1203 2.32578 6.9303 2.32578H3.01532C2.47032 2.32578 1.96032 2.48578 1.53532 2.76078C1.34032 2.88578 1.07532 2.75078 1.17032 2.53578C1.45032 1.88078 2.10532 1.42578 2.86032 1.42578H5.6703C6.2503 1.42578 6.7653 1.63078 7.1053 1.99078Z" fill="currentColor"/>
</svg>
