<svg width="12" height="12" viewBox="0 0 12 12" fill="none" xmlns="http://www.w3.org/2000/svg">
<path d="M5.9696 1.10589L4.76461 3.91089H3.55961C3.35961 3.91089 3.16461 3.92589 2.97461 3.96589L3.47461 2.76589L3.49461 2.72089L3.52461 2.64089C3.53961 2.60589 3.54961 2.57589 3.56461 2.55089C4.14461 1.20589 4.79461 0.785892 5.9696 1.10589Z" fill="currentColor"/>
<path d="M9.36555 4.04477L9.35555 4.03977C9.05555 3.95477 8.75055 3.90977 8.44055 3.90977H5.31055L6.43555 1.29477L6.45055 1.25977C6.52055 1.28477 6.59555 1.31977 6.67055 1.34477L7.77555 1.80977C8.39055 2.06477 8.82055 2.32977 9.08555 2.64977C9.13055 2.70977 9.17055 2.76477 9.21055 2.82977C9.25555 2.89977 9.29055 2.96977 9.31055 3.04477C9.33055 3.08977 9.34555 3.12977 9.35555 3.17477C9.43055 3.42977 9.43555 3.71977 9.36555 4.04477Z" fill="currentColor"/>
<path d="M9.14415 4.76016C8.91915 4.69516 8.68415 4.66016 8.43915 4.66016H3.55914C3.21914 4.66016 2.89914 4.72516 2.59914 4.85516C1.72914 5.23015 1.11914 6.09515 1.11914 7.10015V8.07515C1.11914 8.19515 1.12914 8.31015 1.14414 8.43015C1.25414 10.0202 2.10414 10.8702 3.69414 10.9752C3.80914 10.9902 3.92414 11.0002 4.04914 11.0002H7.94915C9.79915 11.0002 10.7742 10.1202 10.8692 8.37015C10.8742 8.27515 10.8792 8.17515 10.8792 8.07515V7.10015C10.8792 5.99515 10.1442 5.06515 9.14415 4.76016ZM7.24915 8.37515H4.74914C4.54414 8.37515 4.37414 8.20515 4.37414 8.00015C4.37414 7.79515 4.54414 7.62515 4.74914 7.62515H7.24915C7.45415 7.62515 7.62415 7.79515 7.62415 8.00015C7.62415 8.20515 7.45415 8.37515 7.24915 8.37515Z" fill="currentColor"/>
</svg>
