<svg width="12" height="12" viewBox="0 0 12 12" fill="none" xmlns="http://www.w3.org/2000/svg">
<path d="M5.9696 1.10589L4.76461 3.91089H3.55961C3.35961 3.91089 3.16461 3.92589 2.97461 3.96589L3.47461 2.76589L3.49461 2.72089L3.52461 2.64089C3.53961 2.60589 3.54961 2.57589 3.56461 2.55089C4.14461 1.20589 4.79461 0.785892 5.9696 1.10589Z" fill="currentColor"/>
<path d="M9.36555 4.04477L9.35555 4.03977C9.05555 3.95477 8.75055 3.90977 8.44055 3.90977H5.31055L6.43555 1.29477L6.45055 1.25977C6.52055 1.28477 6.59555 1.31977 6.67055 1.34477L7.77555 1.80977C8.39055 2.06477 8.82055 2.32977 9.08555 2.64977C9.13055 2.70977 9.17055 2.76477 9.21055 2.82977C9.25555 2.89977 9.29055 2.96977 9.31055 3.04477C9.33055 3.08977 9.34555 3.12977 9.35555 3.17477C9.43055 3.42977 9.43555 3.71977 9.36555 4.04477Z" fill="currentColor"/>
<path d="M6.25975 8.82905H6.38475C6.53475 8.82905 6.65975 8.69405 6.65975 8.52905C6.65975 8.31905 6.59975 8.28905 6.46975 8.23905L6.25975 8.16405V8.82905Z" fill="currentColor"/>
<path d="M9.14415 4.76016C8.91915 4.69516 8.68415 4.66016 8.43915 4.66016H3.55914C3.21914 4.66016 2.89914 4.72516 2.59914 4.85516C1.72914 5.23015 1.11914 6.09515 1.11914 7.10015V8.07515C1.11914 8.19515 1.12914 8.31015 1.14414 8.43015C1.25414 10.0202 2.10414 10.8702 3.69414 10.9752C3.80914 10.9902 3.92414 11.0002 4.04914 11.0002H7.94915C9.79915 11.0002 10.7742 10.1202 10.8692 8.37015C10.8742 8.27515 10.8792 8.17515 10.8792 8.07515V7.10015C10.8792 5.99515 10.1442 5.06515 9.14415 4.76016ZM6.63915 7.75015C6.86915 7.83015 7.17915 8.00015 7.17915 8.53015C7.17915 8.98515 6.82415 9.35015 6.38415 9.35015H6.25915V9.46015C6.25915 9.60515 6.14415 9.72015 5.99915 9.72015C5.85415 9.72015 5.73915 9.60515 5.73915 9.46015V9.35015H5.69415C5.21415 9.35015 4.81914 8.94515 4.81914 8.44515C4.81914 8.30015 4.93414 8.18515 5.07915 8.18515C5.22415 8.18515 5.33915 8.30015 5.33915 8.44515C5.33915 8.65515 5.49915 8.83015 5.69415 8.83015H5.73915V7.98515L5.35915 7.85015C5.12915 7.77015 4.81914 7.60015 4.81914 7.07015C4.81914 6.61515 5.17415 6.25015 5.61415 6.25015H5.73915V6.14015C5.73915 5.99515 5.85415 5.88015 5.99915 5.88015C6.14415 5.88015 6.25915 5.99515 6.25915 6.14015V6.25015H6.30415C6.78415 6.25015 7.17915 6.65515 7.17915 7.15515C7.17915 7.30015 7.06415 7.41515 6.91915 7.41515C6.77415 7.41515 6.65915 7.30015 6.65915 7.15515C6.65915 6.94515 6.49915 6.77015 6.30415 6.77015H6.25915V7.61515L6.63915 7.75015Z" fill="currentColor"/>
<path d="M5.33985 7.06955C5.33985 7.27955 5.39985 7.30955 5.52985 7.35955L5.73985 7.43455V6.76955H5.61485C5.45985 6.76955 5.33985 6.90455 5.33985 7.06955Z" fill="currentColor"/>
</svg>
