<svg width="12" height="12" viewBox="0 0 12 12" fill="none" xmlns="http://www.w3.org/2000/svg">
<path d="M9.75495 2.925L6.78495 1.21C6.29995 0.93 5.69995 0.93 5.20995 1.21L2.24496 2.925C1.75996 3.205 1.45996 3.725 1.45996 4.29V7.71C1.45996 8.27 1.75996 8.79 2.24496 9.075L5.21495 10.79C5.69995 11.07 6.29995 11.07 6.78995 10.79L9.75995 9.075C10.245 8.795 10.545 8.275 10.545 7.71V4.29C10.54 3.725 10.24 3.21 9.75495 2.925ZM5.62495 3.875C5.62495 3.67 5.79495 3.5 5.99995 3.5C6.20495 3.5 6.37495 3.67 6.37495 3.875V6.5C6.37495 6.705 6.20495 6.875 5.99995 6.875C5.79495 6.875 5.62495 6.705 5.62495 6.5V3.875ZM6.45995 8.315C6.43495 8.375 6.39995 8.43 6.35495 8.48C6.25995 8.575 6.13495 8.625 5.99995 8.625C5.93495 8.625 5.86995 8.61 5.80995 8.585C5.74495 8.56 5.69495 8.525 5.64495 8.48C5.59995 8.43 5.56495 8.375 5.53495 8.315C5.50995 8.255 5.49995 8.19 5.49995 8.125C5.49995 7.995 5.54995 7.865 5.64495 7.77C5.69495 7.725 5.74495 7.69 5.80995 7.665C5.99495 7.585 6.21495 7.63 6.35495 7.77C6.39995 7.82 6.43495 7.87 6.45995 7.935C6.48495 7.995 6.49995 8.06 6.49995 8.125C6.49995 8.19 6.48495 8.255 6.45995 8.315Z" fill="currentColor"/>
</svg>
