<svg width="12" height="12" viewBox="0 0 12 12" fill="none" xmlns="http://www.w3.org/2000/svg">
<path d="M8 1.875H4C3.795 1.875 3.625 1.705 3.625 1.5C3.625 1.295 3.795 1.125 4 1.125H8C8.205 1.125 8.375 1.295 8.375 1.5C8.375 1.705 8.205 1.875 8 1.875Z" fill="currentColor"/>
<path d="M8 10.875H4C3.795 10.875 3.625 10.705 3.625 10.5C3.625 10.295 3.795 10.125 4 10.125H8C8.205 10.125 8.375 10.295 8.375 10.5C8.375 10.705 8.205 10.875 8 10.875Z" fill="currentColor"/>
<path d="M7.75 2.5H4.25C3.085 2.5 2.5 3.085 2.5 4.25V7.75C2.5 8.915 3.085 9.5 4.25 9.5H7.75C8.915 9.5 9.5 8.915 9.5 7.75V4.25C9.5 3.085 8.915 2.5 7.75 2.5ZM4.875 7C4.875 7.205 4.705 7.375 4.5 7.375C4.295 7.375 4.125 7.21 4.125 7V6.5C4.125 6.295 4.295 6.125 4.5 6.125C4.705 6.125 4.875 6.295 4.875 6.5V7ZM6.375 7C6.375 7.205 6.205 7.375 6 7.375C5.795 7.375 5.625 7.205 5.625 7V5C5.625 4.795 5.795 4.625 6 4.625C6.205 4.625 6.375 4.795 6.375 5V7ZM7.875 7C7.875 7.205 7.705 7.375 7.5 7.375C7.295 7.375 7.125 7.205 7.125 7V6C7.125 5.795 7.295 5.625 7.5 5.625C7.705 5.625 7.875 5.795 7.875 6V7Z" fill="currentColor"/>
</svg>
