<svg width="12" height="12" viewBox="0 0 12 12" fill="none" xmlns="http://www.w3.org/2000/svg">
<path d="M8 1.875H4C3.795 1.875 3.625 1.705 3.625 1.5C3.625 1.295 3.795 1.125 4 1.125H8C8.205 1.125 8.375 1.295 8.375 1.5C8.375 1.705 8.205 1.875 8 1.875Z" fill="currentColor"/>
<path d="M8 10.875H4C3.795 10.875 3.625 10.705 3.625 10.5C3.625 10.295 3.795 10.125 4 10.125H8C8.205 10.125 8.375 10.295 8.375 10.5C8.375 10.705 8.205 10.875 8 10.875Z" fill="currentColor"/>
<path d="M7.75 2.5H4.25C3.085 2.5 2.5 3.085 2.5 4.25V7.75C2.5 8.915 3.085 9.5 4.25 9.5H7.75C8.915 9.5 9.5 8.915 9.5 7.75V4.25C9.5 3.085 8.915 2.5 7.75 2.5ZM7.25 6.625H5.75C5.545 6.625 5.375 6.455 5.375 6.25V4.75C5.375 4.545 5.545 4.375 5.75 4.375C5.955 4.375 6.125 4.545 6.125 4.75V5.875H7.25C7.455 5.875 7.625 6.045 7.625 6.25C7.625 6.455 7.455 6.625 7.25 6.625Z" fill="currentColor"/>
</svg>
