<svg width="12" height="12" viewBox="0 0 12 12" fill="none" xmlns="http://www.w3.org/2000/svg">
<path d="M8 1H4C2.5 1 1.5 2 1.5 3.5V8.5C1.5 10 2.5 11 4 11H8C9.5 11 10.5 10 10.5 8.5V3.5C10.5 2 9.5 1 8 1ZM8.785 4.24L7.695 5.99C7.665 6.035 7.615 6.07 7.565 6.075C7.555 6.075 7.545 6.075 7.54 6.075C7.495 6.075 7.45 6.06 7.415 6.03C6.61 5.315 5.4 5.315 4.595 6.03C4.555 6.065 4.5 6.085 4.445 6.075C4.39 6.065 4.34 6.035 4.315 5.99L3.225 4.24C3.165 4.165 3.18 4.065 3.25 4C4.815 2.605 7.18 2.605 8.75 4C8.82 4.065 8.835 4.165 8.785 4.24Z" fill="currentColor"/>
</svg>
