<svg width="12" height="12" viewBox="0 0 12 12" fill="none" xmlns="http://www.w3.org/2000/svg">
<path d="M9.54545 6.2942C9.46545 6.2942 9.38545 6.2692 9.31545 6.2142C7.30045 4.65922 4.69545 4.65922 2.68045 6.2142C2.51545 6.3392 2.28045 6.3092 2.15545 6.1492C2.03045 5.9842 2.06045 5.7492 2.22045 5.6242C4.51545 3.84922 7.48045 3.84922 9.77045 5.6242C9.93545 5.7492 9.96545 5.9842 9.83545 6.1492C9.77045 6.2442 9.66045 6.2942 9.54545 6.2942Z" fill="currentColor"/>
<path d="M11 4.55422C10.92 4.55422 10.84 4.52922 10.77 4.47422C7.87 2.23422 4.125 2.23422 1.23 4.47422C1.065 4.59922 0.830004 4.56922 0.705004 4.40922C0.575004 4.24922 0.605004 4.00922 0.770004 3.88422C3.945 1.42922 8.05 1.42922 11.23 3.88422C11.395 4.00922 11.425 4.24422 11.295 4.40922C11.225 4.50422 11.11 4.55422 11 4.55422Z" fill="currentColor"/>
<path d="M8.6048 8.12065C8.5248 8.12065 8.4448 8.09565 8.3748 8.04065C6.9348 6.92565 5.0698 6.92565 3.62479 8.04065C3.45979 8.16565 3.22479 8.13565 3.09979 7.97565C2.97479 7.81065 3.00479 7.57565 3.16479 7.45065C4.88479 6.12065 7.1098 6.12065 8.8298 7.45065C8.9948 7.57565 9.0248 7.81065 8.8948 7.97565C8.8248 8.07065 8.7148 8.12065 8.6048 8.12065Z" fill="currentColor"/>
<path d="M7.2996 9.95025C7.2196 9.95025 7.1396 9.92525 7.0696 9.87025C6.4196 9.36525 5.5746 9.36525 4.92459 9.87025C4.75959 9.99525 4.52459 9.96525 4.39959 9.80525C4.27459 9.64025 4.30459 9.40525 4.46459 9.28025C5.3946 8.56025 6.5946 8.56025 7.5246 9.28025C7.6896 9.40525 7.7196 9.64025 7.5896 9.80525C7.5246 9.89525 7.4146 9.95025 7.2996 9.95025Z" fill="currentColor"/>
</svg>
