<svg width="12" height="12" viewBox="0 0 12 12" fill="none" xmlns="http://www.w3.org/2000/svg">
<path d="M9.25 11.375C8.08 11.375 7.125 10.42 7.125 9.25V9C7.125 8.795 7.295 8.625 7.5 8.625C7.705 8.625 7.875 8.795 7.875 9V9.25C7.875 10.01 8.49 10.625 9.25 10.625C10.01 10.625 10.625 10.01 10.625 9.25C10.625 8.49 10.01 7.875 9.25 7.875H1C0.795 7.875 0.625 7.705 0.625 7.5C0.625 7.295 0.795 7.125 1 7.125H9.25C10.42 7.125 11.375 8.08 11.375 9.25C11.375 10.42 10.42 11.375 9.25 11.375Z" fill="currentColor"/>
<path d="M9.25 6.375H1C0.795 6.375 0.625 6.205 0.625 6C0.625 5.795 0.795 5.625 1 5.625H9.25C10.01 5.625 10.625 5.01 10.625 4.25C10.625 3.49 10.01 2.875 9.25 2.875C8.49 2.875 7.875 3.49 7.875 4.25V4.5C7.875 4.705 7.705 4.875 7.5 4.875C7.295 4.875 7.125 4.705 7.125 4.5V4.25C7.125 3.08 8.08 2.125 9.25 2.125C10.42 2.125 11.375 3.08 11.375 4.25C11.375 5.42 10.42 6.375 9.25 6.375Z" fill="currentColor"/>
<path d="M4.655 4.87555H1C0.795 4.87555 0.625 4.70555 0.625 4.50055C0.625 4.29555 0.795 4.12555 1 4.12555H4.655C5.19 4.12555 5.625 3.69055 5.625 3.15555C5.625 2.62055 5.19 2.18555 4.655 2.18555C4.12 2.18555 3.685 2.62055 3.685 3.15555V3.34555C3.685 3.55055 3.515 3.72055 3.31 3.72055C3.105 3.72055 2.935 3.55555 2.935 3.34555V3.15555C2.935 2.20555 3.705 1.43555 4.655 1.43555C5.605 1.43555 6.375 2.20555 6.375 3.15555C6.375 4.10555 5.605 4.87555 4.655 4.87555Z" fill="currentColor"/>
</svg>
