<svg width="12" height="12" viewBox="0 0 12 12" fill="none" xmlns="http://www.w3.org/2000/svg">
<path d="M10.9999 6.92545C10.9349 6.92545 10.8699 6.91045 10.8099 6.87045L9.55995 6.12045C8.90995 5.73045 8.09995 5.73045 7.44495 6.12045C6.55495 6.65545 5.44995 6.65545 4.55994 6.12045C3.90994 5.73045 3.09994 5.73045 2.44494 6.12045L1.19494 6.87045C1.01494 6.97545 0.784939 6.92045 0.679939 6.74045C0.574939 6.56545 0.629939 6.33045 0.809939 6.22545L2.05994 5.47545C2.94994 4.94047 4.05494 4.94047 4.94494 5.47545C5.59495 5.86545 6.40495 5.86545 7.05995 5.47545C7.94995 4.94047 9.05495 4.94047 9.94495 5.47545L11.1949 6.22545C11.3749 6.33045 11.4299 6.56045 11.3249 6.74045C11.2499 6.86045 11.1249 6.92545 10.9999 6.92545Z" fill="currentColor"/>
<path d="M3.50041 3.42416C3.00041 3.42416 2.50041 3.28916 2.05541 3.02416L0.805409 2.27416C0.630409 2.16416 0.570409 1.93416 0.680409 1.75916C0.785409 1.57916 1.01541 1.52416 1.19541 1.62916L2.44541 2.37916C3.09541 2.76916 3.90541 2.76916 4.56041 2.37916C5.4504 1.84416 6.5554 1.84416 7.4454 2.37916C8.0954 2.76916 8.9054 2.76916 9.5604 2.37916L10.8104 1.62916C10.9904 1.52416 11.2204 1.57916 11.3254 1.75916C11.4304 1.93416 11.3754 2.16916 11.1954 2.27416L9.9454 3.02416C9.0554 3.55916 7.9504 3.55916 7.0604 3.02416C6.4104 2.63416 5.6004 2.63416 4.94541 3.02416C4.50041 3.28916 4.00041 3.42416 3.50041 3.42416Z" fill="currentColor"/>
<path d="M10.9999 10.4255C10.9349 10.4255 10.8699 10.4104 10.8099 10.3705L9.55995 9.62045C8.90995 9.23045 8.09995 9.23045 7.44495 9.62045C6.55495 10.1554 5.44995 10.1554 4.55994 9.62045C3.90994 9.23045 3.09994 9.23045 2.44494 9.62045L1.19494 10.3705C1.01494 10.4754 0.784939 10.4205 0.679939 10.2404C0.574939 10.0654 0.629939 9.83045 0.809939 9.72545L2.05994 8.97545C2.94994 8.44045 4.05494 8.44045 4.94494 8.97545C5.59495 9.36545 6.40495 9.36545 7.05995 8.97545C7.94995 8.44045 9.05495 8.44045 9.94495 8.97545L11.1949 9.72545C11.3749 9.83045 11.4299 10.0604 11.3249 10.2404C11.2499 10.3604 11.1249 10.4255 10.9999 10.4255Z" fill="currentColor"/>
</svg>
