<svg width="12" height="12" viewBox="0 0 12 12" fill="none" xmlns="http://www.w3.org/2000/svg">
<path d="M5 4.59961L5.08105 4.6084C5.26309 4.64588 5.40039 4.80687 5.40039 5C5.40039 5.19313 5.26309 5.35412 5.08105 5.3916L5 5.40039H3C2.77909 5.40039 2.59961 5.22091 2.59961 5C2.59961 4.77909 2.77909 4.59961 3 4.59961H5Z" fill="currentColor"/>
<path d="M6.59961 9V3C6.59961 2.84087 6.53635 2.68869 6.42383 2.57617C6.33936 2.49171 6.23263 2.43512 6.11719 2.41211L6 2.40039H2C1.84087 2.40039 1.68869 2.46365 1.57617 2.57617C1.46365 2.68869 1.40039 2.84087 1.40039 3V8.5L1.40723 8.53809C1.41221 8.55022 1.42024 8.56086 1.42969 8.57031C1.44844 8.58907 1.47348 8.59961 1.5 8.59961H2.5L2.58105 8.6084C2.76309 8.64588 2.90039 8.80687 2.90039 9C2.90039 9.19313 2.76309 9.35412 2.58105 9.3916L2.5 9.40039H1.5C1.26131 9.40039 1.03206 9.3055 0.863281 9.13672C0.715578 8.98902 0.624934 8.79493 0.604492 8.58887L0.599609 8.5V3C0.599609 2.6287 0.747215 2.27232 1.00977 2.00977C1.27232 1.74721 1.6287 1.59961 2 1.59961H6L6.13867 1.60645C6.45907 1.63832 6.76056 1.78009 6.99023 2.00977C7.25279 2.27232 7.40039 2.6287 7.40039 3V9C7.40039 9.22091 7.22091 9.40039 7 9.40039C6.77909 9.40039 6.59961 9.22091 6.59961 9Z" fill="currentColor"/>
<path d="M9.82227 5.68555L10.7842 6.00684L10.9141 6.06152C11.0386 6.12607 11.1467 6.2192 11.2295 6.33398C11.3399 6.48702 11.4002 6.67067 11.4004 6.85938V8.5C11.4004 8.73869 11.3055 8.96794 11.1367 9.13672C10.9679 9.3055 10.7387 9.40039 10.5 9.40039H9.5C9.27909 9.40039 9.09961 9.22091 9.09961 9C9.09961 8.77909 9.27909 8.59961 9.5 8.59961H10.5C10.5265 8.59961 10.5516 8.58907 10.5703 8.57031C10.5891 8.55156 10.5996 8.52652 10.5996 8.5V6.86035C10.5996 6.83937 10.5933 6.81877 10.5811 6.80176C10.575 6.79345 10.5677 6.78632 10.5596 6.78027L10.5312 6.76562L9.57031 6.44531C9.45829 6.40786 9.35383 6.34796 9.26465 6.27051C9.19778 6.2124 9.13975 6.14504 9.09277 6.07031L9.0498 5.99316L8.28027 4.45508C8.27197 4.43853 8.25891 4.42478 8.24316 4.41504C8.23524 4.41015 8.22665 4.4068 8.21777 4.4043L8.19043 4.40039H7C6.77909 4.40039 6.59961 4.22091 6.59961 4C6.59961 3.77909 6.77909 3.59961 7 3.59961H8.19141L8.31543 3.6084C8.43866 3.62563 8.55746 3.66847 8.66406 3.73438C8.80617 3.82228 8.9214 3.94818 8.99609 4.09766L9.76562 5.63574L9.78906 5.66699C9.79871 5.67537 9.8102 5.68137 9.82227 5.68555Z" fill="currentColor"/>
<path d="M3.59961 6V4C3.59961 3.77909 3.77909 3.59961 4 3.59961C4.22091 3.59961 4.40039 3.77909 4.40039 4V6C4.40039 6.22091 4.22091 6.40039 4 6.40039C3.77909 6.40039 3.59961 6.22091 3.59961 6Z" fill="currentColor"/>
<path d="M7.5 8.59961L7.58105 8.6084C7.76309 8.64588 7.90039 8.80687 7.90039 9C7.90039 9.19313 7.76309 9.35412 7.58105 9.3916L7.5 9.40039H4.5C4.27909 9.40039 4.09961 9.22091 4.09961 9C4.09961 8.77909 4.27909 8.59961 4.5 8.59961H7.5Z" fill="currentColor"/>
<path d="M9.09961 9C9.09961 8.66863 8.83137 8.40039 8.5 8.40039C8.16863 8.40039 7.90039 8.66863 7.90039 9C7.90039 9.33137 8.16863 9.59961 8.5 9.59961C8.83137 9.59961 9.09961 9.33137 9.09961 9ZM9.90039 9C9.90039 9.7732 9.2732 10.4004 8.5 10.4004C7.7268 10.4004 7.09961 9.7732 7.09961 9C7.09961 8.2268 7.7268 7.59961 8.5 7.59961C9.2732 7.59961 9.90039 8.2268 9.90039 9Z" fill="currentColor"/>
<path d="M4.09961 9C4.09961 8.66863 3.83137 8.40039 3.5 8.40039C3.16863 8.40039 2.90039 8.66863 2.90039 9C2.90039 9.33137 3.16863 9.59961 3.5 9.59961C3.83137 9.59961 4.09961 9.33137 4.09961 9ZM4.90039 9C4.90039 9.7732 4.2732 10.4004 3.5 10.4004C2.7268 10.4004 2.09961 9.7732 2.09961 9C2.09961 8.2268 2.7268 7.59961 3.5 7.59961C4.2732 7.59961 4.90039 8.2268 4.90039 9Z" fill="currentColor"/>
</svg>
