<svg width="12" height="12" viewBox="0 0 12 12" fill="none" xmlns="http://www.w3.org/2000/svg">
<path d="M5.59961 8.5V1.5C5.59961 1.27909 5.77909 1.09961 6 1.09961C6.22091 1.09961 6.40039 1.27909 6.40039 1.5V8.5C6.40039 8.72091 6.22091 8.90039 6 8.90039C5.77909 8.90039 5.59961 8.72091 5.59961 8.5Z" fill="currentColor"/>
<path d="M8.7168 5.2168C8.87301 5.06059 9.12699 5.06059 9.2832 5.2168C9.43941 5.37301 9.43941 5.62699 9.2832 5.7832L6.2832 8.7832C6.12699 8.93941 5.87301 8.93941 5.7168 8.7832L2.7168 5.7832L2.66602 5.71973C2.56365 5.56449 2.58017 5.35342 2.7168 5.2168C2.85342 5.08017 3.06449 5.06365 3.21973 5.16602L3.2832 5.2168L6 7.93359L8.7168 5.2168Z" fill="currentColor"/>
<path d="M9.5 10.0996L9.58105 10.1084C9.76309 10.1459 9.90039 10.3069 9.90039 10.5C9.90039 10.6931 9.76309 10.8541 9.58105 10.8916L9.5 10.9004H2.5C2.27909 10.9004 2.09961 10.7209 2.09961 10.5C2.09961 10.2791 2.27909 10.0996 2.5 10.0996H9.5Z" fill="currentColor"/>
</svg>
