<svg width="12" height="12" viewBox="0 0 12 12" fill="none" xmlns="http://www.w3.org/2000/svg">
<g clip-path="url(#clip0_1662_810)">
<path d="M10.5996 6C10.5996 3.45949 8.54051 1.40039 6 1.40039C3.45949 1.40039 1.40039 3.45949 1.40039 6C1.40039 8.54051 3.45949 10.5996 6 10.5996C8.54051 10.5996 10.5996 8.54051 10.5996 6ZM11.4004 6C11.4004 8.98234 8.98234 11.4004 6 11.4004C3.01766 11.4004 0.599609 8.98234 0.599609 6C0.599609 3.01766 3.01766 0.599609 6 0.599609C8.98234 0.599609 11.4004 3.01766 11.4004 6Z" fill="currentColor"/>
<path d="M9.83281 9.26738C9.98893 9.4236 9.98899 9.67664 9.83281 9.83281C9.67664 9.98899 9.4236 9.98893 9.26738 9.83281L9.83281 9.26738ZM2.1668 2.1668C2.30342 2.03017 2.51449 2.01365 2.66973 2.11602L2.7332 2.1668L9.83281 9.26738L9.54961 9.54961L9.26738 9.83281L2.1668 2.7332L2.11602 2.66973C2.01365 2.51449 2.03017 2.30342 2.1668 2.1668Z" fill="currentColor"/>
</g>
<defs>
<clipPath id="clip0_1662_810">
<rect width="12" height="12" fill="currentColor"/>
</clipPath>
</defs>
</svg>
