<svg width="12" height="12" viewBox="0 0 12 12" fill="none" xmlns="http://www.w3.org/2000/svg">
<path d="M9.59961 1.5C9.59961 1.47348 9.58907 1.44844 9.57031 1.42969C9.56086 1.42024 9.55022 1.41221 9.53809 1.40723L9.5 1.40039H3.25C3.02457 1.40039 2.80882 1.49001 2.64941 1.64941C2.49001 1.80882 2.40039 2.02457 2.40039 2.25V8.33691C2.65501 8.18383 2.94793 8.09961 3.25 8.09961H9.59961V1.5ZM2.4043 9.83398C2.42361 10.0286 2.50993 10.2111 2.64941 10.3506C2.80882 10.51 3.02457 10.5996 3.25 10.5996H9.5C9.52652 10.5996 9.55156 10.5891 9.57031 10.5703C9.58907 10.5516 9.59961 10.5265 9.59961 10.5V8.90039H3.25C3.02457 8.90039 2.80882 8.99001 2.64941 9.14941C2.49001 9.30882 2.40039 9.52457 2.40039 9.75L2.4043 9.83398ZM10.4004 10.5C10.4004 10.7387 10.3055 10.9679 10.1367 11.1367C9.96794 11.3055 9.73869 11.4004 9.5 11.4004H3.25C2.81239 11.4004 2.39244 11.2264 2.08301 10.917C1.81226 10.6462 1.64591 10.2908 1.6084 9.91309L1.59961 9.75V2.25C1.59961 1.81239 1.77357 1.39244 2.08301 1.08301C2.39244 0.773573 2.81239 0.599609 3.25 0.599609H9.5L9.58887 0.604492C9.79493 0.624934 9.98902 0.715578 10.1367 0.863281C10.3055 1.03206 10.4004 1.26131 10.4004 1.5V10.5Z" fill="currentColor"/>
<path d="M7.09961 6.5C7.09961 6.20826 6.98363 5.92895 6.77734 5.72266C6.57105 5.51637 6.29174 5.40039 6 5.40039C5.70826 5.40039 5.42895 5.51637 5.22266 5.72266C5.01637 5.92895 4.90039 6.20826 4.90039 6.5C4.90039 6.72091 4.72091 6.90039 4.5 6.90039C4.27909 6.90039 4.09961 6.72091 4.09961 6.5C4.09961 5.99609 4.29993 5.51257 4.65625 5.15625C5.01257 4.79993 5.49609 4.59961 6 4.59961C6.50391 4.59961 6.98743 4.79993 7.34375 5.15625C7.70007 5.51257 7.90039 5.99609 7.90039 6.5C7.90039 6.72091 7.72091 6.90039 7.5 6.90039C7.27909 6.90039 7.09961 6.72091 7.09961 6.5Z" fill="currentColor"/>
<path d="M6.59961 4C6.59961 3.66863 6.33137 3.40039 6 3.40039C5.66863 3.40039 5.40039 3.66863 5.40039 4C5.40039 4.33137 5.66863 4.59961 6 4.59961C6.33137 4.59961 6.59961 4.33137 6.59961 4ZM7.40039 4C7.40039 4.7732 6.7732 5.40039 6 5.40039C5.2268 5.40039 4.59961 4.7732 4.59961 4C4.59961 3.2268 5.2268 2.59961 6 2.59961C6.7732 2.59961 7.40039 3.2268 7.40039 4Z" fill="currentColor"/>
</svg>
