<svg width="12" height="12" viewBox="0 0 12 12" fill="none" xmlns="http://www.w3.org/2000/svg">
<path d="M5.59961 10.5V3.5C5.59961 3.27909 5.77909 3.09961 6 3.09961C6.22091 3.09961 6.40039 3.27909 6.40039 3.5V10.5C6.40039 10.7209 6.22091 10.9004 6 10.9004C5.77909 10.9004 5.59961 10.7209 5.59961 10.5Z" fill="currentColor"/>
<path d="M10.7803 4.66602C10.9355 4.56365 11.1466 4.58017 11.2832 4.7168C11.4198 4.85342 11.4363 5.06449 11.334 5.21973L11.2832 5.2832L9.2832 7.2832C9.14658 7.41983 8.93552 7.43635 8.78027 7.33398L8.7168 7.2832L7.7168 6.2832L7.66602 6.21973C7.56365 6.06449 7.58017 5.85342 7.7168 5.7168C7.85342 5.58017 8.06449 5.56365 8.21973 5.66602L8.2832 5.7168L9 6.43359L10.7168 4.7168L10.7803 4.66602Z" fill="currentColor"/>
<path d="M10.5996 3V2C10.5996 1.97348 10.5891 1.94844 10.5703 1.92969C10.5609 1.92024 10.5502 1.91221 10.5381 1.90723L10.5 1.90039H8C7.57565 1.90039 7.16822 2.06811 6.86816 2.36816C6.60564 2.63069 6.44459 2.97556 6.4082 3.3418L6.40039 3.5L6.3916 3.58105C6.35412 3.76309 6.19313 3.90039 6 3.90039C5.77909 3.90039 5.59961 3.72091 5.59961 3.5C5.59961 3.07565 5.43189 2.66822 5.13184 2.36816C4.83178 2.06811 4.42435 1.90039 4 1.90039H1.5C1.47348 1.90039 1.44844 1.91093 1.42969 1.92969C1.41093 1.94844 1.40039 1.97348 1.40039 2V8.5L1.40723 8.53809C1.41221 8.55022 1.42024 8.56086 1.42969 8.57031C1.44844 8.58907 1.47348 8.59961 1.5 8.59961H4.5L4.6875 8.60938C5.12256 8.65251 5.5319 8.8444 5.84375 9.15625C5.90025 9.21274 5.95153 9.27348 6 9.33594C6.04847 9.27348 6.09975 9.21274 6.15625 9.15625C6.51257 8.79993 6.99609 8.59961 7.5 8.59961H10.5C10.5265 8.59961 10.5516 8.58907 10.5703 8.57031C10.5891 8.55156 10.5996 8.52652 10.5996 8.5V7.84961C10.5998 7.62887 10.7792 7.4502 11 7.4502C11.2208 7.4502 11.4002 7.62887 11.4004 7.84961V8.5C11.4004 8.73869 11.3055 8.96794 11.1367 9.13672C10.9679 9.3055 10.7387 9.40039 10.5 9.40039H7.5C7.20826 9.40039 6.92895 9.51637 6.72266 9.72266C6.54207 9.90324 6.43021 10.1397 6.40527 10.3916L6.40039 10.5L6.3916 10.5811C6.35412 10.7631 6.19313 10.9004 6 10.9004C5.77909 10.9004 5.59961 10.7209 5.59961 10.5C5.59961 10.2083 5.48363 9.92895 5.27734 9.72266C5.09676 9.54207 4.86034 9.43021 4.6084 9.40527L4.5 9.40039H1.5C1.26131 9.40039 1.03206 9.3055 0.863281 9.13672C0.715578 8.98902 0.624934 8.79493 0.604492 8.58887L0.599609 8.5V2C0.599609 1.76131 0.694498 1.53206 0.863281 1.36328C1.03206 1.1945 1.26131 1.09961 1.5 1.09961H4C4.63652 1.09961 5.24718 1.35265 5.69727 1.80273C5.81128 1.91675 5.9122 2.04142 6 2.17383C6.0878 2.04142 6.18872 1.91675 6.30273 1.80273C6.75282 1.35265 7.36348 1.09961 8 1.09961H10.5L10.5889 1.10449C10.7949 1.12493 10.989 1.21558 11.1367 1.36328C11.3055 1.53206 11.4004 1.76131 11.4004 2V3C11.4004 3.22091 11.2209 3.40039 11 3.40039C10.7791 3.40039 10.5996 3.22091 10.5996 3Z" fill="currentColor"/>
</svg>
