<svg width="12" height="12" viewBox="0 0 12 12" fill="none" xmlns="http://www.w3.org/2000/svg">
<g clip-path="url(#clip0_1662_926)">
<path d="M4.46053 0.596166C4.71375 0.590903 4.96536 0.636526 5.20077 0.729955C5.43621 0.823398 5.65092 0.962608 5.83163 1.14011C6.0123 1.3176 6.15588 1.52946 6.2535 1.76316C6.35104 1.99666 6.40064 2.24741 6.39999 2.50046V9.00046L6.38729 9.24558C6.36202 9.48918 6.29965 9.72805 6.20175 9.95359C6.07111 10.2544 5.87962 10.5253 5.64022 10.7495C5.40078 10.9737 5.11796 11.1467 4.80917 11.2573C4.50032 11.3679 4.17168 11.4143 3.84432 11.393C3.51714 11.3718 3.19767 11.2837 2.90585 11.1343C2.61388 10.9847 2.35555 10.7762 2.14706 10.5229C1.93871 10.2698 1.78461 9.97666 1.69393 9.6616C1.62719 9.42959 1.59623 9.18909 1.60116 8.9487C1.3556 8.7725 1.14419 8.55201 0.980066 8.29636C0.768873 7.96728 0.640879 7.59127 0.607995 7.20163C0.575113 6.812 0.637561 6.41986 0.790613 6.06003C0.902609 5.79678 1.06093 5.55665 1.25643 5.35007C1.16521 5.10951 1.11168 4.85557 1.10116 4.59714C1.08638 4.23329 1.15532 3.87018 1.30135 3.5366C1.44739 3.20321 1.66768 2.90721 1.94491 2.67136C2.14555 2.50074 2.37219 2.36452 2.61581 2.26804C2.63352 2.12139 2.66596 1.97661 2.71737 1.83738C2.80516 1.59985 2.9398 1.3816 3.11288 1.19675C3.28604 1.01186 3.49481 0.863401 3.72616 0.760228C3.9575 0.657066 4.20729 0.601444 4.46053 0.596166ZM4.47714 1.39597C4.33065 1.39902 4.18616 1.43107 4.05233 1.4907C3.91839 1.55043 3.79711 1.63659 3.69686 1.74363C3.59667 1.85064 3.51917 1.97722 3.46835 2.11472C3.41763 2.25209 3.39446 2.39812 3.40096 2.54441C3.4094 2.73341 3.28437 2.90252 3.10116 2.94968C2.86604 3.01014 2.6474 3.12343 2.46249 3.28074C2.27764 3.43802 2.13111 3.63555 2.03378 3.85788C1.9365 4.08011 1.89119 4.32156 1.90096 4.56394C1.91082 4.80651 1.97535 5.04451 2.09042 5.25828C2.18132 5.42733 2.1398 5.63724 1.99081 5.75828C1.78853 5.92264 1.62896 6.13367 1.52694 6.37351C1.42495 6.61332 1.38298 6.87457 1.40487 7.13425C1.42679 7.39392 1.5122 7.64441 1.65292 7.86374C1.79371 8.08313 1.98645 8.2649 2.21346 8.39304C2.35505 8.47307 2.43436 8.63115 2.41366 8.79245C2.38564 9.00928 2.40208 9.2298 2.46249 9.43992C2.52294 9.65008 2.62526 9.84627 2.76425 10.0151C2.90321 10.1839 3.07551 10.3226 3.2701 10.4223C3.46465 10.522 3.67796 10.58 3.89608 10.5942C4.11432 10.6084 4.33374 10.5781 4.53964 10.5044C4.74546 10.4306 4.93375 10.3149 5.09335 10.1655C5.25292 10.0161 5.38028 9.83574 5.46737 9.63523C5.55437 9.4349 5.59983 9.21886 5.60018 9.00046V2.49851L5.5953 2.38913C5.58471 2.28016 5.55756 2.17316 5.51522 2.07175C5.45869 1.93643 5.37571 1.81319 5.27108 1.71042C5.16649 1.6077 5.04211 1.5272 4.90585 1.47312C4.76955 1.41903 4.62374 1.39292 4.47714 1.39597Z" fill="currentColor"/>
<path d="M7.54003 0.596166C7.793 0.601498 8.04232 0.657224 8.27343 0.760228C8.50477 0.863397 8.71355 1.01188 8.88671 1.19675C9.05987 1.38164 9.1944 1.59977 9.28222 1.83738C9.33365 1.97664 9.36607 2.12136 9.38378 2.26804C9.62766 2.36458 9.85484 2.50053 10.0557 2.67136C10.3329 2.90725 10.5532 3.20312 10.6992 3.5366C10.8452 3.87018 10.9132 4.23329 10.8984 4.59714C10.8879 4.85573 10.8335 5.10938 10.7422 5.35007C10.938 5.55677 11.0969 5.79654 11.209 6.06003C11.362 6.41986 11.4245 6.812 11.3916 7.20163C11.3587 7.59126 11.2317 7.96729 11.0205 8.29636C10.8563 8.55221 10.6442 8.77241 10.3984 8.9487C10.4034 9.18909 10.3734 9.42959 10.3066 9.6616C10.2159 9.97679 10.061 10.2697 9.85253 10.5229C9.64409 10.7761 9.38659 10.9847 9.09472 11.1343C8.80275 11.2838 8.48263 11.3718 8.15527 11.393C7.82809 11.4143 7.50009 11.3678 7.1914 11.2573C6.88255 11.1467 6.59885 10.9737 6.35937 10.7495C6.12008 10.5254 5.92942 10.2543 5.79882 9.95359C5.6682 9.65275 5.60054 9.32844 5.60018 9.00046L5.5996 2.50046C5.59895 2.24739 5.64952 1.99668 5.74706 1.76316C5.8447 1.52947 5.98826 1.31759 6.16894 1.14011C6.34952 0.962786 6.56361 0.823364 6.79882 0.729955C7.03427 0.636512 7.28677 0.590887 7.54003 0.596166ZM7.52245 1.39597C7.37599 1.39298 7.22991 1.41908 7.09374 1.47312C6.95775 1.52715 6.83393 1.60793 6.72949 1.71042C6.62486 1.81319 6.54187 1.93643 6.48535 2.07175C6.42886 2.20697 6.39999 2.35197 6.40038 2.49851V8.99949L6.4082 9.16257C6.42502 9.3252 6.46684 9.48467 6.53222 9.63523C6.61928 9.83569 6.74674 10.0161 6.90624 10.1655C7.0659 10.315 7.25503 10.4306 7.46093 10.5044C7.66672 10.578 7.8854 10.6084 8.10351 10.5942C8.32167 10.5801 8.5349 10.522 8.72949 10.4223C8.92406 10.3227 9.09638 10.1839 9.23534 10.0151C9.37434 9.84626 9.47762 9.65009 9.53808 9.43992C9.59845 9.22985 9.61492 9.00922 9.58691 8.79245C9.56617 8.63104 9.64536 8.47304 9.7871 8.39304C10.014 8.26491 10.2059 8.08306 10.3467 7.86374C10.4875 7.64436 10.5728 7.394 10.5947 7.13425C10.6166 6.87453 10.5747 6.61336 10.4726 6.37351C10.3707 6.13382 10.2119 5.92258 10.0098 5.75828C9.86082 5.63728 9.81839 5.4273 9.90917 5.25828C10.0242 5.04451 10.0898 4.80651 10.0996 4.56394C10.1094 4.32154 10.0631 4.08012 9.96581 3.85788C9.86845 3.63553 9.72199 3.43802 9.5371 3.28074C9.39858 3.16291 9.24128 3.07003 9.07226 3.00535L8.89843 2.94968C8.71543 2.90239 8.59019 2.73328 8.59863 2.54441V2.43503C8.59261 2.32578 8.57024 2.21776 8.53222 2.11472C8.48138 1.97716 8.40298 1.85067 8.30273 1.74363C8.20251 1.63664 8.08211 1.55041 7.94824 1.4907C7.8143 1.43097 7.66908 1.39903 7.52245 1.39597Z" fill="currentColor"/>
<path d="M6 4.09961C6.21245 4.09961 6.38785 4.26638 6.39941 4.47851C6.41938 4.84369 6.5472 5.19471 6.7666 5.4873C6.95875 5.7435 7.21383 5.94462 7.50586 6.07227L7.63281 6.12305L7.70605 6.15723C7.8656 6.25291 7.94109 6.45048 7.87695 6.63281C7.81278 6.81495 7.63045 6.92163 7.44629 6.89648L7.36719 6.87695L7.18457 6.80566C6.76663 6.62286 6.40203 6.33443 6.12695 5.96777C6.08175 5.90751 6.0397 5.84479 6 5.78125C5.9603 5.84479 5.91825 5.90751 5.87305 5.96777C5.55864 6.38685 5.12702 6.70306 4.63281 6.87695C4.42448 6.95024 4.19643 6.84109 4.12305 6.63281C4.04976 6.42448 4.15891 6.19643 4.36719 6.12305C4.71234 6.00163 5.01387 5.78001 5.2334 5.4873C5.4528 5.19471 5.58062 4.84369 5.60059 4.47851L5.61231 4.40137C5.65642 4.22731 5.814 4.09961 6 4.09961Z" fill="currentColor"/>
<path d="M9.01532 2.16309C9.23604 2.17225 9.40827 2.35838 9.39911 2.5791C9.38639 2.88552 9.29946 3.18456 9.14618 3.45019C9.03574 3.64145 8.79061 3.70707 8.59931 3.59668C8.40805 3.48624 8.34243 3.24111 8.45282 3.0498C8.54152 2.89605 8.59194 2.72326 8.59931 2.5459C8.60847 2.32527 8.79471 2.15407 9.01532 2.16309Z" fill="currentColor"/>
<path d="M2.9849 2.16309C3.17803 2.15519 3.34545 2.28523 3.39017 2.46582L3.40091 2.5459L3.41459 2.67773C3.42877 2.76499 3.45324 2.85028 3.48783 2.93164L3.5474 3.05078L3.5806 3.12402C3.63933 3.30061 3.56746 3.50017 3.39994 3.59668C3.23246 3.69303 3.02416 3.65492 2.90091 3.51562L2.85404 3.44922L2.7515 3.24414C2.69192 3.10389 2.64904 2.95704 2.62455 2.80664L2.60209 2.5791L2.60697 2.49805C2.63676 2.31447 2.79187 2.17111 2.9849 2.16309Z" fill="currentColor"/>
<path d="M1.91135 4.86816C2.0888 4.81236 2.28728 4.88669 2.38108 5.05566C2.48828 5.24882 2.41799 5.49241 2.22483 5.59961L2.10471 5.67383C2.06578 5.70018 2.0273 5.72857 1.99081 5.75828L1.92307 5.80273C1.75823 5.88872 1.54995 5.84998 1.42795 5.70019C1.28888 5.52895 1.31454 5.2771 1.48557 5.13769L1.65647 5.01172C1.71502 4.97208 1.77525 4.93473 1.83713 4.90039L1.91135 4.86816Z" fill="currentColor"/>
<path d="M9.61939 5.05566C9.71331 4.88669 9.91163 4.81212 10.0891 4.86816L10.1633 4.90039L10.344 5.01172L10.5139 5.13769L10.5715 5.19531C10.6891 5.33927 10.6934 5.55039 10.5715 5.70019C10.4494 5.8501 10.2413 5.88899 10.0764 5.80273L10.0098 5.75828L9.89576 5.67383L9.77466 5.59961L9.70826 5.55371C9.56695 5.43265 9.52558 5.22469 9.61939 5.05566Z" fill="currentColor"/>
<path d="M1.66787 8.54571C1.7628 8.37741 1.96154 8.30419 2.13857 8.36114L2.21346 8.39304L2.39834 8.48321C2.52546 8.5347 2.65879 8.56922 2.79482 8.58673L2.9999 8.6004L3.07998 8.60821C3.26247 8.64526 3.4002 8.80637 3.40029 8.99981C3.40038 9.19303 3.26309 9.35394 3.08095 9.39141L2.9999 9.4002L2.8456 9.39532C2.53713 9.37556 2.23537 9.29614 1.95693 9.16192L1.82021 9.09063L1.75381 9.04376C1.61341 8.92179 1.57309 8.71404 1.66787 8.54571Z" fill="currentColor"/>
<path d="M9.7871 8.39304C9.97949 8.28466 10.2235 8.35336 10.332 8.54571C10.4404 8.73809 10.372 8.98214 10.1797 9.09063C9.81967 9.29362 9.41331 9.40036 9 9.4002C8.77909 9.4001 8.59951 9.22073 8.59961 8.99981C8.59971 8.77896 8.77917 8.6004 9 8.6004C9.27567 8.60053 9.547 8.52847 9.7871 8.39304Z" fill="currentColor"/>
</g>
<defs>
<clipPath id="clip0_1662_926">
<rect width="12" height="12" fill="currentColor"/>
</clipPath>
</defs>
</svg>
