<svg width="12" height="12" viewBox="0 0 12 12" fill="none" xmlns="http://www.w3.org/2000/svg">
<path d="M6.00488 5.59961L6.08594 5.6084C6.26803 5.64584 6.40527 5.80683 6.40527 6C6.40527 6.19317 6.26803 6.35416 6.08594 6.3916L6.00488 6.40039H6C5.77909 6.40039 5.59961 6.22091 5.59961 6C5.59961 5.77909 5.77909 5.59961 6 5.59961H6.00488Z" fill="currentColor"/>
<path d="M7.59961 3V2C7.59961 1.84087 7.53635 1.68869 7.42383 1.57617C7.33936 1.49171 7.23263 1.43512 7.11719 1.41211L7 1.40039H5C4.84087 1.40039 4.68869 1.46365 4.57617 1.57617C4.46365 1.68869 4.40039 1.84087 4.40039 2V3C4.40039 3.22091 4.22091 3.40039 4 3.40039C3.77909 3.40039 3.59961 3.22091 3.59961 3V2C3.59961 1.6287 3.74721 1.27232 4.00977 1.00977C4.27232 0.747215 4.6287 0.599609 5 0.599609H7L7.13867 0.606445C7.45907 0.638317 7.76056 0.780095 7.99023 1.00977C8.25279 1.27232 8.40039 1.6287 8.40039 2V3C8.40039 3.22091 8.22091 3.40039 8 3.40039C7.77909 3.40039 7.59961 3.22091 7.59961 3Z" fill="currentColor"/>
<path d="M10.7793 6.16602C10.9636 6.04433 11.2122 6.09505 11.334 6.2793C11.4557 6.46361 11.4049 6.71223 11.2207 6.83398C9.67171 7.85665 7.85613 8.40137 6 8.40137C4.25984 8.40137 2.55583 7.92211 1.07324 7.01953L0.779297 6.83398L0.716797 6.78223C0.585412 6.65066 0.559569 6.44053 0.666016 6.2793C0.772532 6.1181 0.975836 6.05966 1.14844 6.12891L1.2207 6.16602L1.48926 6.33691C2.84659 7.16316 4.40689 7.60156 6 7.60156C7.69936 7.60156 9.36112 7.10227 10.7793 6.16602Z" fill="currentColor"/>
<path d="M10.5996 4C10.5996 3.66863 10.3314 3.40039 10 3.40039H2C1.66863 3.40039 1.40039 3.66863 1.40039 4V9C1.40039 9.33137 1.66863 9.59961 2 9.59961H10C10.3314 9.59961 10.5996 9.33137 10.5996 9V4ZM11.4004 9C11.4004 9.7732 10.7732 10.4004 10 10.4004H2C1.2268 10.4004 0.599609 9.7732 0.599609 9V4C0.599609 3.2268 1.2268 2.59961 2 2.59961H10C10.7732 2.59961 11.4004 3.2268 11.4004 4V9Z" fill="currentColor"/>
</svg>
