<svg width="12" height="12" viewBox="0 0 12 12" fill="none" xmlns="http://www.w3.org/2000/svg">
<path d="M5.59961 10V5C5.59961 4.77909 5.77909 4.59961 6 4.59961C6.22091 4.59961 6.40039 4.77909 6.40039 5V10C6.40039 10.2209 6.22091 10.4004 6 10.4004C5.77909 10.4004 5.59961 10.2209 5.59961 10Z" fill="currentColor"/>
<path d="M8.59961 10V2C8.59961 1.77909 8.77909 1.59961 9 1.59961C9.22091 1.59961 9.40039 1.77909 9.40039 2V10C9.40039 10.2209 9.22091 10.4004 9 10.4004C8.77909 10.4004 8.59961 10.2209 8.59961 10Z" fill="currentColor"/>
<path d="M2.59961 10V8C2.59961 7.77909 2.77909 7.59961 3 7.59961C3.22091 7.59961 3.40039 7.77909 3.40039 8V10C3.40039 10.2209 3.22091 10.4004 3 10.4004C2.77909 10.4004 2.59961 10.2209 2.59961 10Z" fill="currentColor"/>
</svg>
