<svg width="12" height="12" viewBox="0 0 12 12" fill="none" xmlns="http://www.w3.org/2000/svg">
<path d="M5.59961 10.5V8C5.59961 7.77909 5.77908 7.59961 6 7.59961C6.22091 7.59961 6.40039 7.77909 6.40039 8V10.5C6.40039 10.7209 6.22091 10.9004 6 10.9004C5.77908 10.9004 5.59961 10.7209 5.59961 10.5Z" fill="currentColor"/>
<path d="M7.59961 10.5V7C7.59961 6.77909 7.77908 6.59961 8 6.59961C8.22091 6.59961 8.40039 6.77909 8.40039 7V10.5C8.40039 10.7209 8.22091 10.9004 8 10.9004C7.77908 10.9004 7.59961 10.7209 7.59961 10.5Z" fill="currentColor"/>
<path d="M9.59961 10.5V5C9.59961 4.77909 9.77908 4.59961 10 4.59961C10.2209 4.59961 10.4004 4.77909 10.4004 5V10.5C10.4004 10.7209 10.2209 10.9004 10 10.9004C9.77908 10.9004 9.59961 10.7209 9.59961 10.5Z" fill="currentColor"/>
<path d="M10.7168 1.2168C10.873 1.06059 11.127 1.06059 11.2832 1.2168C11.4394 1.37301 11.4394 1.62699 11.2832 1.7832L6.95996 6.10547C6.8996 6.16595 6.82794 6.21432 6.74902 6.24707C6.6701 6.27979 6.58543 6.29688 6.5 6.29688C6.41456 6.29688 6.32989 6.27979 6.25097 6.24707C6.21156 6.23072 6.17396 6.21014 6.13867 6.18652L6.04004 6.10547L4.5 4.56543L1.2832 7.7832C1.12699 7.93939 0.872994 7.9394 0.716794 7.7832C0.560603 7.62699 0.560594 7.373 0.716794 7.2168L4.04101 3.89453L4.13965 3.8125C4.24553 3.74196 4.37089 3.70415 4.5 3.7041L4.62793 3.7168C4.71086 3.73342 4.78993 3.76565 4.86035 3.8125L4.95996 3.89453L6.49902 5.43359L10.7168 1.2168Z" fill="currentColor"/>
<path d="M1.59961 10.5V9C1.59961 8.77909 1.77908 8.59961 2 8.59961C2.22091 8.59961 2.40039 8.77909 2.40039 9V10.5C2.40039 10.7209 2.22091 10.9004 2 10.9004C1.77908 10.9004 1.59961 10.7209 1.59961 10.5Z" fill="currentColor"/>
<path d="M3.59961 10.5V7C3.59961 6.77909 3.77908 6.59961 4 6.59961C4.22091 6.59961 4.40039 6.77909 4.40039 7V10.5C4.40039 10.7209 4.22091 10.9004 4 10.9004C3.77908 10.9004 3.59961 10.7209 3.59961 10.5Z" fill="currentColor"/>
</svg>
