<svg width="12" height="12" viewBox="0 0 12 12" fill="none" xmlns="http://www.w3.org/2000/svg">
<path d="M2.7168 3.2168C2.85342 3.08017 3.06449 3.06365 3.21973 3.16602L3.2832 3.2168L5.7832 5.7168C5.93941 5.87301 5.93941 6.12699 5.7832 6.2832L3.2832 8.7832C3.12699 8.93941 2.87301 8.93941 2.7168 8.7832C2.56059 8.62699 2.56059 8.37301 2.7168 8.2168L4.93359 6L2.7168 3.7832L2.66602 3.71973C2.56365 3.56449 2.58017 3.35342 2.7168 3.2168Z" fill="currentColor"/>
<path d="M6.2168 3.2168C6.35342 3.08017 6.56449 3.06365 6.71973 3.16602L6.7832 3.2168L9.2832 5.7168C9.43941 5.87301 9.43941 6.12699 9.2832 6.2832L6.7832 8.7832C6.62699 8.93941 6.37301 8.93941 6.2168 8.7832C6.06059 8.62699 6.06059 8.37301 6.2168 8.2168L8.43359 6L6.2168 3.7832L6.16602 3.71973C6.06365 3.56449 6.08017 3.35342 6.2168 3.2168Z" fill="currentColor"/>
</svg>
