<svg width="12" height="12" viewBox="0 0 12 12" fill="none" xmlns="http://www.w3.org/2000/svg">
<path d="M5.2168 3.2168C5.37301 3.06059 5.62699 3.06059 5.7832 3.2168C5.93941 3.37301 5.93941 3.62699 5.7832 3.7832L3.56641 6L5.7832 8.2168L5.83398 8.28027C5.93635 8.43552 5.91983 8.64658 5.7832 8.7832C5.64658 8.91983 5.43552 8.93635 5.28027 8.83398L5.2168 8.7832L2.7168 6.2832C2.56059 6.12699 2.56059 5.87301 2.7168 5.7168L5.2168 3.2168Z" fill="currentColor"/>
<path d="M8.7168 3.2168C8.87301 3.06059 9.12699 3.06059 9.2832 3.2168C9.43941 3.37301 9.43941 3.62699 9.2832 3.7832L7.06641 6L9.2832 8.2168L9.33398 8.28027C9.43635 8.43552 9.41983 8.64658 9.2832 8.7832C9.14658 8.91983 8.93551 8.93635 8.78027 8.83398L8.7168 8.7832L6.2168 6.2832C6.06059 6.12699 6.06059 5.87301 6.2168 5.7168L8.7168 3.2168Z" fill="currentColor"/>
</svg>
