<svg width="12" height="12" viewBox="0 0 12 12" fill="none" xmlns="http://www.w3.org/2000/svg">
<path d="M7.59961 1.5C7.59961 1.44477 7.55523 1.40039 7.5 1.40039H4.5C4.44477 1.40039 4.40039 1.44477 4.40039 1.5V2.5C4.40039 2.55523 4.44477 2.59961 4.5 2.59961H7.5C7.55523 2.59961 7.59961 2.55523 7.59961 2.5V1.5ZM8.40039 2.5C8.40039 2.99706 7.99706 3.40039 7.5 3.40039H4.5C4.00294 3.40039 3.59961 2.99706 3.59961 2.5V1.5C3.59961 1.00294 4.00294 0.599609 4.5 0.599609H7.5C7.99706 0.599609 8.40039 1.00294 8.40039 1.5V2.5Z" fill="currentColor"/>
<path d="M1.59961 10V3C1.59961 2.6287 1.74721 2.27232 2.00977 2.00977C2.27232 1.74721 2.6287 1.59961 3 1.59961H4L4.08105 1.6084C4.26309 1.64588 4.40039 1.80687 4.40039 2C4.40039 2.19313 4.26309 2.35412 4.08105 2.3916L4 2.40039H3C2.84087 2.40039 2.68869 2.46365 2.57617 2.57617C2.46365 2.68869 2.40039 2.84087 2.40039 3V10L2.41211 10.1172C2.43512 10.2326 2.49171 10.3394 2.57617 10.4238C2.68869 10.5364 2.84087 10.5996 3 10.5996H9C9.15913 10.5996 9.31131 10.5364 9.42383 10.4238C9.53635 10.3113 9.59961 10.1591 9.59961 10V3C9.59961 2.84087 9.53635 2.68869 9.42383 2.57617C9.33936 2.49171 9.23263 2.43512 9.11719 2.41211L9 2.40039H8C7.77909 2.40039 7.59961 2.22091 7.59961 2C7.59961 1.77909 7.77909 1.59961 8 1.59961H9L9.13867 1.60645C9.45907 1.63832 9.76056 1.78009 9.99023 2.00977C10.2528 2.27232 10.4004 2.6287 10.4004 3V10C10.4004 10.3713 10.2528 10.7277 9.99023 10.9902C9.72768 11.2528 9.3713 11.4004 9 11.4004H3C2.6287 11.4004 2.27232 11.2528 2.00977 10.9902C1.78009 10.7606 1.63832 10.4591 1.60645 10.1387L1.59961 10Z" fill="currentColor"/>
<path d="M7.2168 5.2168C7.37301 5.06059 7.62699 5.06059 7.7832 5.2168C7.93941 5.37301 7.93941 5.62699 7.7832 5.7832L4.7832 8.7832C4.62699 8.93941 4.37301 8.93941 4.2168 8.7832C4.06059 8.62699 4.06059 8.37301 4.2168 8.2168L7.2168 5.2168Z" fill="currentColor"/>
<path d="M4.2168 5.2168C4.35342 5.08017 4.56449 5.06365 4.71973 5.16602L4.7832 5.2168L7.7832 8.2168L7.83398 8.28027C7.93635 8.43551 7.91983 8.64658 7.7832 8.7832C7.64658 8.91983 7.43551 8.93635 7.28027 8.83398L7.2168 8.7832L4.2168 5.7832L4.16602 5.71973C4.06365 5.56449 4.08017 5.35342 4.2168 5.2168Z" fill="currentColor"/>
</svg>
