<svg width="12" height="12" viewBox="0 0 12 12" fill="none" xmlns="http://www.w3.org/2000/svg">
<path d="M7.59961 1.5C7.59961 1.44477 7.55523 1.40039 7.5 1.40039H4.5C4.44477 1.40039 4.40039 1.44477 4.40039 1.5V2.5C4.40039 2.55523 4.44477 2.59961 4.5 2.59961H7.5C7.55523 2.59961 7.59961 2.55523 7.59961 2.5V1.5ZM8.40039 2.5C8.40039 2.99706 7.99706 3.40039 7.5 3.40039H4.5C4.00294 3.40039 3.59961 2.99706 3.59961 2.5V1.5C3.59961 1.00294 4.00294 0.599609 4.5 0.599609H7.5C7.99706 0.599609 8.40039 1.00294 8.40039 1.5V2.5Z" fill="currentColor"/>
<path d="M1.59961 10V3C1.59961 2.6287 1.74721 2.27232 2.00977 2.00977C2.27232 1.74721 2.6287 1.59961 3 1.59961H4L4.08105 1.6084C4.26309 1.64588 4.40039 1.80687 4.40039 2C4.40039 2.19313 4.26309 2.35412 4.08105 2.3916L4 2.40039H3C2.84087 2.40039 2.68869 2.46365 2.57617 2.57617C2.46365 2.68869 2.40039 2.84087 2.40039 3V10L2.41211 10.1172C2.43512 10.2326 2.49171 10.3394 2.57617 10.4238C2.68869 10.5364 2.84087 10.5996 3 10.5996H9C9.15913 10.5996 9.31131 10.5364 9.42383 10.4238C9.53635 10.3113 9.59961 10.1591 9.59961 10V9C9.59961 8.77909 9.77909 8.59961 10 8.59961C10.2209 8.59961 10.4004 8.77909 10.4004 9V10C10.4004 10.3713 10.2528 10.7277 9.99023 10.9902C9.72768 11.2528 9.3713 11.4004 9 11.4004H3C2.6287 11.4004 2.27232 11.2528 2.00977 10.9902C1.74721 10.7277 1.59961 10.3713 1.59961 10Z" fill="currentColor"/>
<path d="M9.59961 5V3C9.59961 2.84087 9.53635 2.68869 9.42383 2.57617C9.33936 2.49171 9.23263 2.43512 9.11719 2.41211L9 2.40039H8C7.77909 2.40039 7.59961 2.22091 7.59961 2C7.59961 1.77909 7.77909 1.59961 8 1.59961H9L9.13867 1.60645C9.45907 1.63832 9.76056 1.78009 9.99023 2.00977C10.2528 2.27232 10.4004 2.6287 10.4004 3V5C10.4004 5.22091 10.2209 5.40039 10 5.40039C9.77909 5.40039 9.59961 5.22091 9.59961 5Z" fill="currentColor"/>
<path d="M10.5 6.59961L10.5811 6.6084C10.7631 6.64588 10.9004 6.80687 10.9004 7C10.9004 7.19313 10.7631 7.35412 10.5811 7.3916L10.5 7.40039H5.5C5.27909 7.40039 5.09961 7.22091 5.09961 7C5.09961 6.77909 5.27909 6.59961 5.5 6.59961H10.5Z" fill="currentColor"/>
<path d="M7.28027 4.66602C7.43551 4.56365 7.64658 4.58017 7.7832 4.7168C7.91983 4.85342 7.93635 5.06449 7.83398 5.21973L7.7832 5.2832L6.06641 7L7.7832 8.7168L7.83398 8.78027C7.93635 8.93552 7.91983 9.14658 7.7832 9.2832C7.64658 9.41983 7.43551 9.43635 7.28027 9.33398L7.2168 9.2832L5.2168 7.2832C5.06059 7.12699 5.06059 6.87301 5.2168 6.7168L7.2168 4.7168L7.28027 4.66602Z" fill="currentColor"/>
</svg>
