<svg width="12" height="12" viewBox="0 0 12 12" fill="none" xmlns="http://www.w3.org/2000/svg">
<path d="M5.59961 3C5.59961 2.77909 5.77909 2.59961 6 2.59961C6.22092 2.59961 6.40039 2.77909 6.40039 3V5.75293L8.17871 6.64258C8.3763 6.74137 8.45622 6.98112 8.35742 7.17871C8.27093 7.3517 8.07628 7.43505 7.89649 7.38672L7.82129 7.35742L5.82129 6.35742C5.68578 6.28967 5.59961 6.15151 5.59961 6V3Z" fill="currentColor"/>
<path d="M5.7396 0.60457C6.7975 0.553811 7.84674 0.815394 8.75718 1.35652C9.55394 1.83009 10.2139 2.49904 10.6751 3.29793L10.8597 3.64754L10.888 3.72371C10.9339 3.90404 10.8481 4.09749 10.6742 4.18172C10.5002 4.26583 10.2949 4.2133 10.182 4.06551L10.14 3.99617L9.98179 3.69832C9.58894 3.01787 9.02758 2.44743 8.34898 2.04402C7.57337 1.58303 6.67892 1.36012 5.77769 1.4034C4.87648 1.44669 4.0075 1.75401 3.27964 2.28719C2.55188 2.82037 1.99695 3.55629 1.68394 4.40242C1.37099 5.24856 1.31427 6.16854 1.51988 7.04695C1.72554 7.92512 2.18441 8.72364 2.84019 9.34285C3.49628 9.96223 4.32043 10.3756 5.20933 10.5304C6.09822 10.6851 7.01338 10.5742 7.84019 10.213C8.04253 10.1249 8.27818 10.2177 8.36656 10.42C8.45486 10.6223 8.36264 10.8578 8.1605 10.9464C7.19005 11.3703 6.11594 11.5 5.07261 11.3184C4.02913 11.1368 3.06156 10.652 2.29136 9.92488C1.52117 9.19778 0.981974 8.25991 0.74058 7.22859C0.49924 6.19734 0.566475 5.11743 0.933939 4.1241C1.30144 3.13094 1.95271 2.2675 2.80699 1.64168C3.66144 1.01576 4.68164 0.655375 5.7396 0.60457Z" fill="currentColor"/>
<path d="M9.59961 8.75V5.75C9.59961 5.52909 9.77909 5.34961 10 5.34961C10.2209 5.34961 10.4004 5.52909 10.4004 5.75V8.75C10.4004 8.97091 10.2209 9.15039 10 9.15039C9.77909 9.15039 9.59961 8.97091 9.59961 8.75Z" fill="currentColor"/>
<path d="M10.0049 10.3496L10.0859 10.3584C10.268 10.3958 10.4053 10.5568 10.4053 10.75C10.4053 10.9432 10.268 11.1042 10.0859 11.1416L10.0049 11.1504H10C9.77909 11.1504 9.59961 10.9709 9.59961 10.75C9.59961 10.5291 9.77909 10.3496 10 10.3496H10.0049Z" fill="currentColor"/>
</svg>
