<svg width="16" height="16" viewBox="0 0 16 16" fill="none" xmlns="http://www.w3.org/2000/svg">
<path d="M9.66667 1V3.66667C9.66667 4.02029 9.80714 4.35943 10.0572 4.60948C10.3072 4.85952 10.6464 5 11 5H13.6667M10 8L6.66667 11.3333M6.66667 8L10 11.3333M10.3333 1H4.33333C3.97971 1 3.64057 1.14048 3.39052 1.39052C3.14048 1.64057 3 1.97971 3 2.33333V13C3 13.3536 3.14048 13.6928 3.39052 13.9428C3.64057 14.1929 3.97971 14.3333 4.33333 14.3333H12.3333C12.687 14.3333 13.0261 14.1929 13.2761 13.9428C13.5262 13.6928 13.6667 13.3536 13.6667 13V4.33333L10.3333 1Z" stroke="currentColor" stroke-linecap="round" stroke-linejoin="round"/>
</svg>
