<svg width="12" height="12" viewBox="0 0 12 12" fill="none" xmlns="http://www.w3.org/2000/svg">
<path d="M1.59961 10V2C1.59961 1.6287 1.74721 1.27232 2.00977 1.00977C2.27232 0.747215 2.6287 0.599609 3 0.599609H7.5L7.57812 0.607422C7.65514 0.622749 7.72686 0.660456 7.7832 0.716797L10.2832 3.2168C10.3582 3.29181 10.4004 3.39391 10.4004 3.5V10C10.4004 10.3713 10.2528 10.7277 9.99023 10.9902C9.72768 11.2528 9.3713 11.4004 9 11.4004H3C2.6287 11.4004 2.27232 11.2528 2.00977 10.9902C1.74721 10.7277 1.59961 10.3713 1.59961 10ZM2.40039 10C2.40039 10.1591 2.46365 10.3113 2.57617 10.4238C2.68869 10.5364 2.84087 10.5996 3 10.5996H9C9.15913 10.5996 9.31131 10.5364 9.42383 10.4238C9.53635 10.3113 9.59961 10.1591 9.59961 10V3.66602L7.33398 1.40039H3C2.84087 1.40039 2.68869 1.46365 2.57617 1.57617C2.46365 1.68869 2.40039 1.84087 2.40039 2V10Z" fill="currentColor"/>
<path d="M6.59961 3V1C6.59961 0.779086 6.77909 0.599609 7 0.599609C7.22091 0.599609 7.40039 0.779086 7.40039 1V3C7.40039 3.15913 7.46365 3.31131 7.57617 3.42383C7.68869 3.53635 7.84087 3.59961 8 3.59961H10L10.0811 3.6084C10.2631 3.64588 10.4004 3.80687 10.4004 4C10.4004 4.19313 10.2631 4.35412 10.0811 4.3916L10 4.40039H8C7.6287 4.40039 7.27232 4.25279 7.00977 3.99023C6.74721 3.72768 6.59961 3.3713 6.59961 3Z" fill="currentColor"/>
<path d="M7.5 7.09961L7.58105 7.1084C7.76309 7.14588 7.90039 7.30687 7.90039 7.5C7.90039 7.69313 7.76309 7.85412 7.58105 7.8916L7.5 7.90039H4.5C4.27909 7.90039 4.09961 7.72091 4.09961 7.5C4.09961 7.27909 4.27909 7.09961 4.5 7.09961H7.5Z" fill="currentColor"/>
<path d="M5.59961 9V6C5.59961 5.77909 5.77909 5.59961 6 5.59961C6.22091 5.59961 6.40039 5.77909 6.40039 6V9C6.40039 9.22091 6.22091 9.40039 6 9.40039C5.77909 9.40039 5.59961 9.22091 5.59961 9Z" fill="currentColor"/>
</svg>
