<svg width="12" height="12" viewBox="0 0 12 12" fill="none" xmlns="http://www.w3.org/2000/svg">
<path d="M7.59961 2.5V1C7.59961 0.779086 7.77909 0.599609 8 0.599609C8.22091 0.599609 8.40039 0.779086 8.40039 1V2.5L8.41211 2.61719C8.43512 2.73263 8.49171 2.83936 8.57617 2.92383C8.68869 3.03635 8.84087 3.09961 9 3.09961H10.5L10.5811 3.1084C10.7631 3.14588 10.9004 3.30687 10.9004 3.5C10.9004 3.69313 10.7631 3.85412 10.5811 3.8916L10.5 3.90039H9C8.6287 3.90039 8.27232 3.75279 8.00977 3.49023C7.7801 3.26056 7.63832 2.95907 7.60645 2.63867L7.59961 2.5Z" fill="currentColor"/>
<path d="M5.09961 6.25V1.75C5.09961 1.12909 5.62909 0.599609 6.25 0.599609H8.5L8.57812 0.607422C8.65514 0.622749 8.72686 0.660456 8.7832 0.716797L10.7832 2.7168C10.8582 2.79181 10.9004 2.89391 10.9004 3V6.25C10.9004 6.87091 10.3709 7.40039 9.75 7.40039H6.25C5.62909 7.40039 5.09961 6.87091 5.09961 6.25ZM5.90039 6.25C5.90039 6.42909 6.07091 6.59961 6.25 6.59961H9.75C9.92909 6.59961 10.0996 6.42909 10.0996 6.25V3.16602L8.33398 1.40039H6.25C6.07091 1.40039 5.90039 1.57091 5.90039 1.75V6.25Z" fill="currentColor"/>
<path d="M3.09961 8.40039V4C3.09961 3.77909 3.27909 3.59961 3.5 3.59961C3.72091 3.59961 3.90039 3.77909 3.90039 4V8.40039C3.90039 8.38828 3.89741 8.39616 3.91406 8.42676C3.92999 8.45596 3.95413 8.48928 3.98242 8.51758C4.01072 8.54587 4.04404 8.57001 4.07324 8.58594C4.10384 8.60259 4.11172 8.59961 4.09961 8.59961H7.5L7.58105 8.6084C7.76309 8.64588 7.90039 8.80687 7.90039 9C7.90039 9.19313 7.76309 9.35412 7.58105 9.3916L7.5 9.40039H4.09961C3.79017 9.40023 3.5429 9.20892 3.41699 9.08301C3.29108 8.9571 3.09977 8.70982 3.09961 8.40039Z" fill="currentColor"/>
<path d="M1.09961 10.4004V6C1.09961 5.77909 1.27909 5.59961 1.5 5.59961C1.72091 5.59961 1.90039 5.77909 1.90039 6V10.4004C1.90039 10.3883 1.89741 10.3962 1.91406 10.4268C1.92999 10.456 1.95413 10.4893 1.98242 10.5176C2.01072 10.5459 2.04404 10.57 2.07324 10.5859C2.10383 10.6026 2.11172 10.5996 2.09961 10.5996H5.5L5.58105 10.6084C5.76309 10.6459 5.90039 10.8069 5.90039 11C5.90039 11.1931 5.76309 11.3541 5.58105 11.3916L5.5 11.4004H2.09961C1.79018 11.4002 1.5429 11.2089 1.41699 11.083C1.29108 10.9571 1.09977 10.7098 1.09961 10.4004Z" fill="currentColor"/>
</svg>
