<svg width="12" height="12" viewBox="0 0 12 12" fill="none" xmlns="http://www.w3.org/2000/svg">
<path d="M1.59961 10V2C1.59961 1.6287 1.74721 1.27232 2.00977 1.00977C2.27232 0.747215 2.6287 0.599609 3 0.599609H7.5L7.57812 0.607422C7.65514 0.622749 7.72686 0.660456 7.7832 0.716797L10.2832 3.2168C10.3582 3.29181 10.4004 3.39391 10.4004 3.5V10C10.4004 10.3713 10.2528 10.7277 9.99023 10.9902C9.72768 11.2528 9.3713 11.4004 9 11.4004H3C2.6287 11.4004 2.27232 11.2528 2.00977 10.9902C1.74721 10.7277 1.59961 10.3713 1.59961 10ZM2.40039 10C2.40039 10.1591 2.46365 10.3113 2.57617 10.4238C2.68869 10.5364 2.84087 10.5996 3 10.5996H9C9.15913 10.5996 9.31131 10.5364 9.42383 10.4238C9.53635 10.3113 9.59961 10.1591 9.59961 10V3.66602L7.33398 1.40039H3C2.84087 1.40039 2.68869 1.46365 2.57617 1.57617C2.46365 1.68869 2.40039 1.84087 2.40039 2V10Z" fill="currentColor"/>
<path d="M6.59961 3V1C6.59961 0.779086 6.77909 0.599609 7 0.599609C7.22091 0.599609 7.40039 0.779086 7.40039 1V3C7.40039 3.15913 7.46365 3.31131 7.57617 3.42383C7.68869 3.53635 7.84087 3.59961 8 3.59961H10L10.0811 3.6084C10.2631 3.64588 10.4004 3.80687 10.4004 4C10.4004 4.19313 10.2631 4.35412 10.0811 4.3916L10 4.40039H8C7.6287 4.40039 7.27232 4.25279 7.00977 3.99023C6.74721 3.72768 6.59961 3.3713 6.59961 3Z" fill="currentColor"/>
<path d="M5 4.09961L5.08105 4.1084C5.26309 4.14588 5.40039 4.30687 5.40039 4.5C5.40039 4.69313 5.26309 4.85412 5.08105 4.8916L5 4.90039H4C3.77909 4.90039 3.59961 4.72091 3.59961 4.5C3.59961 4.27909 3.77909 4.09961 4 4.09961H5Z" fill="currentColor"/>
<path d="M8 6.09961L8.08105 6.1084C8.26309 6.14588 8.40039 6.30687 8.40039 6.5C8.40039 6.69313 8.26309 6.85412 8.08105 6.8916L8 6.90039H4C3.77909 6.90039 3.59961 6.72091 3.59961 6.5C3.59961 6.27909 3.77909 6.09961 4 6.09961H8Z" fill="currentColor"/>
<path d="M8 8.09961L8.08105 8.1084C8.26309 8.14588 8.40039 8.30687 8.40039 8.5C8.40039 8.69313 8.26309 8.85412 8.08105 8.8916L8 8.90039H4C3.77909 8.90039 3.59961 8.72091 3.59961 8.5C3.59961 8.27909 3.77909 8.09961 4 8.09961H8Z" fill="currentColor"/>
</svg>
