<svg width="12" height="12" viewBox="0 0 12 12" fill="none" xmlns="http://www.w3.org/2000/svg">
<path d="M5.59961 10.5V1.5C5.59961 1.27909 5.77909 1.09961 6 1.09961C6.22091 1.09961 6.40039 1.27909 6.40039 1.5V10.5C6.40039 10.7209 6.22091 10.9004 6 10.9004C5.77909 10.9004 5.59961 10.7209 5.59961 10.5Z" fill="currentColor"/>
<path d="M10.5 5.59961L10.5811 5.6084C10.7631 5.64588 10.9004 5.80687 10.9004 6C10.9004 6.19313 10.7631 6.35412 10.5811 6.3916L10.5 6.40039H1.5C1.27909 6.40039 1.09961 6.22091 1.09961 6C1.09961 5.77909 1.27909 5.59961 1.5 5.59961H10.5Z" fill="currentColor"/>
<path d="M10.0996 2.5C10.0996 2.16863 9.83137 1.90039 9.5 1.90039H2.5C2.16863 1.90039 1.90039 2.16863 1.90039 2.5V9.5C1.90039 9.83137 2.16863 10.0996 2.5 10.0996H9.5C9.83137 10.0996 10.0996 9.83137 10.0996 9.5V2.5ZM10.9004 9.5C10.9004 10.2732 10.2732 10.9004 9.5 10.9004H2.5C1.7268 10.9004 1.09961 10.2732 1.09961 9.5V2.5C1.09961 1.7268 1.7268 1.09961 2.5 1.09961H9.5C10.2732 1.09961 10.9004 1.7268 10.9004 2.5V9.5Z" fill="currentColor"/>
</svg>
