<svg width="12" height="12" viewBox="0 0 12 12" fill="none" xmlns="http://www.w3.org/2000/svg">
<path d="M5.21679 8.2168C5.35342 8.08017 5.56448 8.06365 5.71972 8.16602L5.7832 8.2168L6.7832 9.2168L6.88281 9.2998C6.91864 9.32373 6.95707 9.34378 6.99707 9.36035C7.07722 9.39355 7.16324 9.41113 7.25 9.41113C7.33676 9.41113 7.42277 9.39355 7.50293 9.36035C7.58304 9.32715 7.65547 9.27812 7.71679 9.2168C7.77812 9.15547 7.82715 9.08305 7.86035 9.00293C7.87696 8.96283 7.89001 8.92127 7.89843 8.87891L7.91113 8.75C7.91113 8.66324 7.89355 8.57723 7.86035 8.49707C7.84377 8.45707 7.82373 8.41864 7.7998 8.38281L7.71679 8.2832L7.66601 8.21973C7.56365 8.06449 7.58017 7.85342 7.71679 7.7168C7.85342 7.58017 8.06448 7.56365 8.21972 7.66602L8.2832 7.7168L8.3789 7.82324C8.46994 7.93414 8.5445 8.05837 8.59961 8.19141C8.67291 8.36852 8.71093 8.55832 8.71093 8.75L8.70312 8.89355C8.68905 9.03598 8.65454 9.17587 8.59961 9.30859C8.5262 9.48581 8.41884 9.64757 8.2832 9.7832C8.14757 9.91884 7.98581 10.0262 7.80859 10.0996C7.63148 10.1729 7.44168 10.2109 7.25 10.2109C7.05831 10.2109 6.86851 10.1729 6.6914 10.0996C6.55837 10.0445 6.43413 9.96994 6.32324 9.87891L6.21679 9.7832L5.21679 8.7832L5.16601 8.71973C5.06365 8.56449 5.08017 8.35342 5.21679 8.2168Z" fill="currentColor"/>
<path d="M6.71668 6.71752C6.85325 6.58096 7.06439 6.56354 7.21961 6.66576L7.28309 6.71752L8.53309 7.96752L8.63367 8.04955C8.74137 8.12134 8.86855 8.16086 8.99988 8.16088L9.12977 8.14819C9.25649 8.12281 9.37387 8.06016 9.46668 7.96752C9.55959 7.87461 9.62293 7.7566 9.64832 7.62963L9.66102 7.49975C9.66097 7.36845 9.62146 7.2412 9.54969 7.13354L9.46668 7.03295L7.52723 5.09252C7.32098 4.88653 7.04138 4.77123 6.74988 4.77123C6.45842 4.77126 6.17876 4.88753 5.97254 5.0935L5.97156 5.09252L5.53309 5.53295C5.25916 5.80688 4.88728 5.96069 4.49988 5.96069C4.11253 5.96066 3.74058 5.80685 3.46668 5.53295C3.22709 5.29327 3.07994 4.9786 3.04676 4.64428L3.03895 4.49975C3.03901 4.11265 3.19308 3.74135 3.46668 3.46752L4.87195 2.06225L5.0741 1.8767C5.56147 1.46534 6.1599 1.20323 6.79676 1.12475C7.52379 1.03523 8.25966 1.19059 8.88856 1.56615L9.12488 1.70678L9.12684 1.70776L9.22645 1.75561C9.32932 1.79412 9.44145 1.80407 9.55066 1.78295L10.4208 1.60815L10.5018 1.60033C10.6877 1.601 10.8542 1.73138 10.8925 1.92065C10.936 2.1372 10.7955 2.34873 10.579 2.39233L9.70887 2.56713H9.70691C9.36555 2.63429 9.01165 2.57204 8.71375 2.39233L8.48035 2.25365C8.0039 1.96882 7.44535 1.85083 6.89442 1.91869C6.34338 1.9866 5.83048 2.23658 5.43738 2.62865L5.43641 2.62768L4.03309 4.03295C3.90925 4.15679 3.83979 4.32462 3.83973 4.49975L3.85242 4.62963C3.87783 4.75655 3.94021 4.87464 4.03309 4.96752C4.15693 5.0912 4.32485 5.16085 4.49988 5.16088C4.6749 5.16088 4.84282 5.09116 4.96668 4.96752L5.40711 4.52709L5.54676 4.40112C5.88471 4.12451 6.30935 3.97145 6.74988 3.97143C7.1904 3.97143 7.61505 4.12456 7.95301 4.40112L8.09266 4.52709L10.0331 6.46752L10.1298 6.57397C10.3428 6.83386 10.4608 7.16076 10.4608 7.49975L10.454 7.64428C10.4208 7.97868 10.2728 8.29324 10.0331 8.53295C9.7934 8.77263 9.47879 8.92065 9.14441 8.95385L8.99988 8.96069C8.66086 8.96066 8.33403 8.84269 8.0741 8.62963L7.96668 8.53295L6.71668 7.28295L6.6659 7.22045C6.56331 7.06533 6.58031 6.85429 6.71668 6.71752Z" fill="currentColor"/>
<path d="M10.4639 1.10156C10.6562 1.08412 10.829 1.20592 10.8828 1.38379L10.8984 1.46387L11.3984 6.96387C11.4086 7.07576 11.3707 7.18657 11.2949 7.26953C11.2191 7.35245 11.1123 7.40039 11 7.40039H10C9.77908 7.40039 9.59961 7.22091 9.59961 7C9.59961 6.77909 9.77908 6.59961 10 6.59961H10.5615L10.1016 1.53613L10.1025 1.45508C10.1232 1.27023 10.2714 1.11906 10.4639 1.10156Z" fill="currentColor"/>
<path d="M1.53613 1.10156C1.72859 1.11906 1.87676 1.27023 1.89746 1.45508L1.89843 1.53613L1.41504 6.84863L4.5332 9.9668C4.6571 10.0907 4.82478 10.1611 5 10.1611C5.17521 10.1611 5.3429 10.0907 5.46679 9.9668C5.59069 9.8429 5.66113 9.67522 5.66113 9.5C5.66113 9.3687 5.62152 9.24147 5.5498 9.13379L5.46679 9.0332L5.41601 8.96973C5.31365 8.81449 5.33017 8.60342 5.46679 8.4668C5.60342 8.33017 5.81448 8.31365 5.96972 8.41602L6.0332 8.4668L6.12988 8.57422C6.34287 8.83414 6.46093 9.16101 6.46093 9.5C6.46093 9.88739 6.30713 10.2593 6.0332 10.5332C5.75927 10.8071 5.38739 10.9609 5 10.9609C4.61261 10.9609 4.24072 10.8071 3.96679 10.5332L0.716794 7.2832C0.632873 7.19928 0.590841 7.08206 0.60156 6.96387L1.10156 1.46387L1.11718 1.38379C1.17098 1.20592 1.34382 1.08412 1.53613 1.10156Z" fill="currentColor"/>
<path d="M5.5 1.59961L5.58105 1.6084C5.76309 1.64588 5.90039 1.80687 5.90039 2C5.90039 2.19313 5.76309 2.35412 5.58105 2.3916L5.5 2.40039H1.5C1.27908 2.40039 1.09961 2.22091 1.09961 2C1.09961 1.77909 1.27908 1.59961 1.5 1.59961H5.5Z" fill="currentColor"/>
</svg>
