<svg width="12" height="12" viewBox="0 0 12 12" fill="none" xmlns="http://www.w3.org/2000/svg">
<path d="M10.5996 4.25C10.5996 3.62674 10.3528 3.0286 9.91211 2.58789C9.4714 2.14718 8.87326 1.90039 8.25 1.90039C7.85013 1.90039 7.53259 1.95693 7.23633 2.08594C6.93744 2.21611 6.63541 2.431 6.2832 2.7832C6.12699 2.93941 5.87301 2.93941 5.7168 2.7832C5.36459 2.431 5.06256 2.21611 4.76367 2.08594C4.5414 1.98915 4.30723 1.93303 4.03516 1.91113L3.75 1.90039C3.12674 1.90039 2.5286 2.14718 2.08789 2.58789C1.64718 3.0286 1.40039 3.62674 1.40039 4.25L1.40723 4.42969C1.4697 5.19691 1.92695 5.8397 2.50391 6.43848L2.77832 6.71289L2.7832 6.7168L6 9.93359L9.21973 6.71387L9.49316 6.43848C10.1144 5.78819 10.5996 5.09312 10.5996 4.25ZM11.4004 4.25C11.4004 5.5749 10.5257 6.55338 9.78223 7.28223L9.7832 7.2832L6.2832 10.7832C6.12699 10.9394 5.87301 10.9394 5.7168 10.7832L2.2168 7.2832C1.51274 6.602 0.708278 5.69939 0.610352 4.49512L0.599609 4.25C0.599609 3.41457 0.931721 2.6132 1.52246 2.02246C2.1132 1.43172 2.91457 1.09961 3.75 1.09961L4.10156 1.11328C4.44523 1.14114 4.76725 1.21412 5.08301 1.35156C5.40186 1.49044 5.70021 1.68966 6 1.95215C6.29979 1.68966 6.59814 1.49044 6.91699 1.35156C7.33802 1.1683 7.77014 1.09961 8.25 1.09961C9.08543 1.09961 9.8868 1.43172 10.4775 2.02246C11.0683 2.6132 11.4004 3.41457 11.4004 4.25Z" fill="currentColor"/>
<path d="M6.97426 3.85059C7.14317 3.83988 7.30114 3.9372 7.36781 4.09277L8.01332 5.59961H10.3854L10.4655 5.6084C10.6478 5.64566 10.7848 5.80667 10.7848 6C10.7848 6.19333 10.6478 6.35434 10.4655 6.3916L10.3854 6.40039H7.74965C7.58978 6.40025 7.44545 6.30419 7.38246 6.15723L7.07484 5.44043L6.38441 7.86035C6.33804 8.0219 6.19567 8.13766 6.02797 8.14941C5.86011 8.16117 5.70276 8.06588 5.63441 7.91211L4.94008 6.35059C4.8826 6.38175 4.81754 6.40039 4.74965 6.40039H1.61C1.38909 6.40039 1.20961 6.22091 1.20961 6C1.20961 5.77909 1.38909 5.59961 1.61 5.59961H4.50355L4.64223 5.32129L4.67152 5.27148C4.74737 5.16241 4.87408 5.09751 5.00941 5.10059C5.16402 5.10423 5.30304 5.19655 5.36586 5.33789L5.91762 6.58008L6.61586 4.13965L6.63734 4.08105C6.69835 3.95 6.82675 3.86009 6.97426 3.85059Z" fill="currentColor"/>
</svg>
