<svg width="12" height="12" viewBox="0 0 12 12" fill="none" xmlns="http://www.w3.org/2000/svg">
<path d="M4.40039 1.5C4.40039 1.44477 4.44477 1.40039 4.5 1.40039H7.5C7.55523 1.40039 7.59961 1.44477 7.59961 1.5V2.5C7.59961 2.55523 7.55523 2.59961 7.5 2.59961H4.5C4.44477 2.59961 4.40039 2.55523 4.40039 2.5V1.5ZM3.59961 2.5C3.59961 2.99706 4.00294 3.40039 4.5 3.40039H7.5C7.99706 3.40039 8.40039 2.99706 8.40039 2.5V1.5C8.40039 1.00294 7.99706 0.599609 7.5 0.599609H4.5C4.00294 0.599609 3.59961 1.00294 3.59961 1.5V2.5Z" fill="currentColor"/>
<path d="M2.40039 10V3C2.40039 2.84087 2.46365 2.68869 2.57617 2.57617C2.66064 2.49171 2.76737 2.43512 2.88281 2.41211L3 2.40039H4C4.22091 2.40039 4.40039 2.22091 4.40039 2C4.40039 1.77909 4.22091 1.59961 4 1.59961H3L2.86133 1.60645C2.54093 1.63832 2.23944 1.78009 2.00977 2.00977C1.74721 2.27232 1.59961 2.6287 1.59961 3V10C1.59961 10.3713 1.74721 10.7277 2.00977 10.9902C2.27232 11.2528 2.6287 11.4004 3 11.4004H5.75C5.97091 11.4004 6.15039 11.2209 6.15039 11C6.15039 10.7791 5.97091 10.5996 5.75 10.5996H3C2.84087 10.5996 2.68869 10.5364 2.57617 10.4238C2.46365 10.3113 2.40039 10.1591 2.40039 10Z" fill="currentColor"/>
<path d="M10.4004 6.75V3C10.4004 2.6287 10.2528 2.27232 9.99023 2.00977C9.72768 1.74721 9.3713 1.59961 9 1.59961H8L7.91895 1.6084C7.73691 1.64588 7.59961 1.80687 7.59961 2C7.59961 2.19313 7.73691 2.35412 7.91895 2.3916L8 2.40039H9C9.15913 2.40039 9.31131 2.46365 9.42383 2.57617C9.53635 2.68869 9.59961 2.84087 9.59961 3V6.75C9.59961 6.97091 9.77909 7.15039 10 7.15039C10.2209 7.15039 10.4004 6.97091 10.4004 6.75Z" fill="currentColor"/>
<path d="M9.78027 8.66602C9.93552 8.56365 10.1466 8.58017 10.2832 8.7168C10.4198 8.85342 10.4363 9.06448 10.334 9.21973L10.2832 9.2832L8.2832 11.2832C8.14658 11.4198 7.93551 11.4363 7.78027 11.334L7.7168 11.2832L6.7168 10.2832L6.66602 10.2197C6.56365 10.0645 6.58017 9.85342 6.7168 9.7168C6.85342 9.58017 7.06449 9.56365 7.21973 9.66602L7.2832 9.7168L8 10.4336L9.7168 8.7168L9.78027 8.66602Z" fill="currentColor"/>
<path d="M6.64193 5.66699C6.64193 5.31272 6.35456 5.02557 6.00033 5.02539C5.64594 5.02539 5.35872 5.31261 5.35872 5.66699C5.3589 6.02123 5.64605 6.30859 6.00033 6.30859C6.35445 6.30842 6.64175 6.02112 6.64193 5.66699ZM7.44173 5.66699C7.44156 6.46294 6.79628 7.10822 6.00033 7.1084C5.20422 7.1084 4.55812 6.46305 4.55794 5.66699C4.55794 4.87078 5.20411 4.22461 6.00033 4.22461C6.79639 4.22479 7.44173 4.87089 7.44173 5.66699Z" fill="currentColor"/>
<path d="M7.26693 8.37533C7.26693 8.03954 7.13318 7.71733 6.89583 7.47982C6.68801 7.272 6.41525 7.1434 6.12533 7.11458L6.00033 7.1084C5.66438 7.1084 5.34236 7.24227 5.10482 7.47982C4.86727 7.71736 4.73372 8.03938 4.73372 8.37533C4.73355 8.59609 4.55414 8.77474 4.33333 8.77474C4.11253 8.77474 3.93312 8.59609 3.93294 8.37533C3.93294 7.82721 4.15084 7.30099 4.53841 6.91341C4.92599 6.52584 5.45221 6.30859 6.00033 6.30859L6.20443 6.31869C6.67739 6.36569 7.1222 6.57442 7.46126 6.91341C7.84884 7.30099 8.06673 7.82721 8.06673 8.37533C8.06656 8.59609 7.88715 8.77474 7.66634 8.77474C7.44569 8.77456 7.2671 8.59598 7.26693 8.37533Z" fill="currentColor"/>
</svg>
