<svg width="12" height="12" viewBox="0 0 12 12" fill="none" xmlns="http://www.w3.org/2000/svg">
<g clip-path="url(#clip0_1662_845)">
<path d="M5.59961 5V3C5.59961 2.77909 5.77909 2.59961 6 2.59961C6.22091 2.59961 6.40039 2.77909 6.40039 3V5C6.40039 5.22091 6.22091 5.40039 6 5.40039C5.77909 5.40039 5.59961 5.22091 5.59961 5Z" fill="currentColor"/>
<path d="M7 6.59961L7.08105 6.6084C7.26309 6.64588 7.40039 6.80687 7.40039 7C7.40039 7.19313 7.26309 7.35412 7.08105 7.3916L7 7.40039H5C4.77909 7.40039 4.59961 7.22091 4.59961 7C4.59961 6.77909 4.77909 6.59961 5 6.59961H7Z" fill="currentColor"/>
<path d="M7 8.59961L7.08105 8.6084C7.26309 8.64588 7.40039 8.80687 7.40039 9C7.40039 9.19313 7.26309 9.35412 7.08105 9.3916L7 9.40039H5C4.77909 9.40039 4.59961 9.22091 4.59961 9C4.59961 8.77909 4.77909 8.59961 5 8.59961H7Z" fill="currentColor"/>
<path d="M7 3.59961L7.08105 3.6084C7.26309 3.64588 7.40039 3.80687 7.40039 4C7.40039 4.19313 7.26309 4.35412 7.08105 4.3916L7 4.40039H5C4.77909 4.40039 4.59961 4.22091 4.59961 4C4.59961 3.77909 4.77909 3.59961 5 3.59961H7Z" fill="currentColor"/>
<path d="M0.599609 10V5.5C0.599609 5.1287 0.747215 4.77232 1.00977 4.50977C1.27232 4.24721 1.6287 4.09961 2 4.09961H3L3.08105 4.1084C3.26309 4.14588 3.40039 4.30687 3.40039 4.5C3.40039 4.69313 3.26309 4.85412 3.08105 4.8916L3 4.90039H2C1.84087 4.90039 1.68869 4.96365 1.57617 5.07617C1.46365 5.18869 1.40039 5.34087 1.40039 5.5V10C1.40039 10.1591 1.46365 10.3113 1.57617 10.4238C1.68869 10.5364 1.84087 10.5996 2 10.5996H10C10.1591 10.5996 10.3113 10.5364 10.4238 10.4238C10.5364 10.3113 10.5996 10.1591 10.5996 10V7C10.5996 6.84087 10.5364 6.68869 10.4238 6.57617C10.3113 6.46365 10.1591 6.40039 10 6.40039H9C8.77909 6.40039 8.59961 6.22091 8.59961 6C8.59961 5.77909 8.77909 5.59961 9 5.59961H10C10.3713 5.59961 10.7277 5.74721 10.9902 6.00977C11.2528 6.27232 11.4004 6.6287 11.4004 7V10C11.4004 10.3713 11.2528 10.7277 10.9902 10.9902C10.7277 11.2528 10.3713 11.4004 10 11.4004H2C1.6287 11.4004 1.27232 11.2528 1.00977 10.9902C0.747215 10.7277 0.599609 10.3713 0.599609 10Z" fill="currentColor"/>
<path d="M8.59961 11V2C8.59961 1.84087 8.53635 1.68869 8.42383 1.57617C8.31131 1.46365 8.15913 1.40039 8 1.40039H4C3.84087 1.40039 3.68869 1.46365 3.57617 1.57617C3.46365 1.68869 3.40039 1.84087 3.40039 2V11C3.40039 11.2209 3.22091 11.4004 3 11.4004C2.77909 11.4004 2.59961 11.2209 2.59961 11V2C2.59961 1.6287 2.74721 1.27232 3.00977 1.00977C3.27232 0.747215 3.6287 0.599609 4 0.599609H8C8.3713 0.599609 8.72768 0.747215 8.99023 1.00977C9.25278 1.27232 9.40039 1.6287 9.40039 2V11C9.40039 11.2209 9.22091 11.4004 9 11.4004C8.77909 11.4004 8.59961 11.2209 8.59961 11Z" fill="currentColor"/>
</g>
<defs>
<clipPath id="clip0_1662_845">
<rect width="12" height="12" fill="currentColor"/>
</clipPath>
</defs>
</svg>
