<svg width="12" height="12" viewBox="0 0 12 12" fill="none" xmlns="http://www.w3.org/2000/svg">
<path d="M10.0996 2.5C10.0996 2.16863 9.83137 1.90039 9.5 1.90039H2.5C2.16863 1.90039 1.90039 2.16863 1.90039 2.5V9.5C1.90039 9.83137 2.16863 10.0996 2.5 10.0996H9.5C9.83137 10.0996 10.0996 9.83137 10.0996 9.5V2.5ZM10.9004 9.5C10.9004 10.2732 10.2732 10.9004 9.5 10.9004H2.5C1.7268 10.9004 1.09961 10.2732 1.09961 9.5V2.5C1.09961 1.7268 1.7268 1.09961 2.5 1.09961H9.5C10.2732 1.09961 10.9004 1.7268 10.9004 2.5V9.5Z" fill="currentColor"/>
<path d="M5.09961 4.5C5.09961 4.16863 4.83137 3.90039 4.5 3.90039C4.16863 3.90039 3.90039 4.16863 3.90039 4.5C3.90039 4.83137 4.16863 5.09961 4.5 5.09961C4.83137 5.09961 5.09961 4.83137 5.09961 4.5ZM5.90039 4.5C5.90039 5.2732 5.2732 5.90039 4.5 5.90039C3.7268 5.90039 3.09961 5.2732 3.09961 4.5C3.09961 3.7268 3.7268 3.09961 4.5 3.09961C5.2732 3.09961 5.90039 3.7268 5.90039 4.5Z" fill="currentColor"/>
<path d="M8.25 5.26382C8.62123 5.26382 8.9777 5.41152 9.24023 5.67398L10.7832 7.21695L10.834 7.27945C10.9367 7.43459 10.9196 7.64557 10.7832 7.78238C10.6466 7.91898 10.4355 7.93645 10.2803 7.83414L10.2168 7.78238L8.67383 6.23941C8.56135 6.12719 8.4089 6.0646 8.25 6.0646C8.13059 6.0646 8.01488 6.09987 7.91699 6.16519L7.82617 6.23941L3.2832 10.7824L3.21973 10.8341C3.06449 10.9364 2.8534 10.919 2.7168 10.7824C2.56102 10.6262 2.5608 10.373 2.7168 10.2169L7.25977 5.67398L7.36328 5.58121C7.61235 5.37727 7.92527 5.26382 8.25 5.26382Z" fill="currentColor"/>
</svg>
