<svg width="12" height="12" viewBox="0 0 12 12" fill="none" xmlns="http://www.w3.org/2000/svg">
<g clip-path="url(#clip0_1662_762)">
<path d="M0.599609 10V3C0.599609 2.77909 0.779086 2.59961 1 2.59961C1.22091 2.59961 1.40039 2.77909 1.40039 3V10C1.40039 10.1591 1.46365 10.3113 1.57617 10.4238C1.68869 10.5364 1.84087 10.5996 2 10.5996H9L9.08105 10.6084C9.26309 10.6459 9.40039 10.8069 9.40039 11C9.40039 11.1931 9.26309 11.3541 9.08105 11.3916L9 11.4004H2C1.6287 11.4004 1.27232 11.2528 1.00977 10.9902C0.747215 10.7277 0.599609 10.3713 0.599609 10Z" fill="currentColor"/>
<path d="M9.5 5.09874C9.92563 5.09874 10.3338 5.2685 10.6348 5.56944L11.2832 6.2169L11.334 6.28038C11.4363 6.43561 11.4198 6.6467 11.2832 6.78331C11.1466 6.91987 10.9355 6.9364 10.7803 6.83409L10.7168 6.78331L10.0693 6.13487C9.91837 5.98393 9.71348 5.89952 9.5 5.89952C9.31335 5.89952 9.13342 5.96398 8.99023 6.08116L8.93066 6.13487L5.7832 9.28331C5.62701 9.43945 5.37299 9.43945 5.2168 9.28331C5.0606 9.12711 5.06064 8.87311 5.2168 8.7169L8.36523 5.56944L8.48242 5.46299C8.7681 5.22876 9.12735 5.09874 9.5 5.09874Z" fill="currentColor"/>
<path d="M6.59961 4C6.59961 3.66863 6.33137 3.40039 6 3.40039C5.66863 3.40039 5.40039 3.66863 5.40039 4C5.40039 4.33137 5.66863 4.59961 6 4.59961C6.33137 4.59961 6.59961 4.33137 6.59961 4ZM7.40039 4C7.40039 4.7732 6.7732 5.40039 6 5.40039C5.2268 5.40039 4.59961 4.7732 4.59961 4C4.59961 3.2268 5.2268 2.59961 6 2.59961C6.7732 2.59961 7.40039 3.2268 7.40039 4Z" fill="currentColor"/>
<path d="M10.5996 2C10.5996 1.66863 10.3314 1.40039 10 1.40039H4C3.66863 1.40039 3.40039 1.66863 3.40039 2V8C3.40039 8.33137 3.66863 8.59961 4 8.59961H10C10.3314 8.59961 10.5996 8.33137 10.5996 8V2ZM11.4004 8C11.4004 8.7732 10.7732 9.40039 10 9.40039H4C3.2268 9.40039 2.59961 8.7732 2.59961 8V2C2.59961 1.2268 3.2268 0.599609 4 0.599609H10C10.7732 0.599609 11.4004 1.2268 11.4004 2V8Z" fill="currentColor"/>
</g>
<defs>
<clipPath id="clip0_1662_762">
<rect width="12" height="12" fill="currentColor"/>
</clipPath>
</defs>
</svg>
