<svg width="12" height="12" viewBox="0 0 12 12" fill="none" xmlns="http://www.w3.org/2000/svg">
<g clip-path="url(#clip0_1662_958)">
<path d="M10.5996 5C10.5996 4.8131 10.5111 4.63473 10.3584 4.51855L6.36035 1.51953C6.25649 1.44164 6.12982 1.40039 6 1.40039C5.90254 1.40039 5.80717 1.42396 5.72168 1.46875L5.63965 1.51953L1.63965 4.51953C1.56513 4.57542 1.50455 4.64813 1.46289 4.73145C1.42123 4.81476 1.40039 4.90685 1.40039 5V10C1.40039 10.1591 1.46365 10.3113 1.57617 10.4238C1.68869 10.5364 1.84087 10.5996 2 10.5996H10C10.1591 10.5996 10.3113 10.5364 10.4238 10.4238C10.5364 10.3113 10.5996 10.1591 10.5996 10V5ZM11.4004 10C11.4004 10.3713 11.2528 10.7277 10.9902 10.9902C10.7277 11.2528 10.3713 11.4004 10 11.4004H2C1.6287 11.4004 1.27232 11.2528 1.00977 10.9902C0.747215 10.7277 0.599609 10.3713 0.599609 10V5C0.599609 4.78266 0.650848 4.56842 0.748047 4.37402C0.845246 4.17963 0.986282 4.01029 1.16016 3.87988L5.16016 0.879883L5.25293 0.81543C5.47585 0.674839 5.73492 0.599609 6 0.599609C6.30285 0.599609 6.59754 0.698207 6.83984 0.879883L10.8398 3.87988L10.8418 3.88184L10.9658 3.9873C11.2386 4.24889 11.4004 4.61247 11.4004 5V10Z" fill="currentColor"/>
<path d="M10.8574 4.62598C11.0313 4.55948 11.2341 4.62196 11.3379 4.78516C11.4415 4.9482 11.4119 5.15785 11.2783 5.28711L11.2148 5.33789L6.72949 8.1875L6.72754 8.18945C6.56401 8.29189 6.38108 8.35801 6.19141 8.38477L6 8.39844C5.74276 8.39844 5.49046 8.32601 5.27246 8.18945L5.27051 8.1875L0.785156 5.33789L0.72168 5.28711C0.588062 5.15785 0.558504 4.9482 0.662109 4.78516C0.765873 4.62196 0.968683 4.55948 1.14258 4.62598L1.21484 4.66211L5.69629 7.51074C5.787 7.56757 5.89296 7.59766 6 7.59766L6.08008 7.59277C6.13262 7.58532 6.18396 7.57046 6.23242 7.54883L6.30273 7.51074L10.7852 4.66211L10.8574 4.62598Z" fill="currentColor"/>
</g>
<defs>
<clipPath id="clip0_1662_958">
<rect width="12" height="12" fill="currentColor"/>
</clipPath>
</defs>
</svg>
