<svg width="12" height="12" viewBox="0 0 12 12" fill="none" xmlns="http://www.w3.org/2000/svg">
<path d="M10.5996 3C10.5996 2.66863 10.3314 2.40039 10 2.40039H2C1.66863 2.40039 1.40039 2.66863 1.40039 3V9C1.40039 9.33137 1.66863 9.59961 2 9.59961H10C10.3314 9.59961 10.5996 9.33137 10.5996 9V3ZM11.4004 9C11.4004 9.7732 10.7732 10.4004 10 10.4004H2C1.2268 10.4004 0.599609 9.7732 0.599609 9V3C0.599609 2.2268 1.2268 1.59961 2 1.59961H10C10.7732 1.59961 11.4004 2.2268 11.4004 3V9Z" fill="currentColor"/>
<path d="M10.8574 3.12598C11.0313 3.05948 11.2341 3.12196 11.3379 3.28516C11.4415 3.4482 11.4119 3.65785 11.2783 3.78711L11.2148 3.83789L6.72949 6.6875L6.72754 6.68945C6.56401 6.79189 6.38108 6.85801 6.19141 6.88477L6 6.89844C5.74276 6.89844 5.49046 6.82601 5.27246 6.68945L5.27051 6.6875L0.785156 3.83789L0.72168 3.78711C0.588062 3.65785 0.558504 3.4482 0.662109 3.28516C0.765873 3.12196 0.968683 3.05948 1.14258 3.12598L1.21484 3.16211L5.69629 6.01074C5.787 6.06757 5.89296 6.09766 6 6.09766L6.08008 6.09277C6.13262 6.08532 6.18396 6.07046 6.23242 6.04883L6.30273 6.01074L10.7852 3.16211L10.8574 3.12598Z" fill="currentColor"/>
</svg>
