<svg width="12" height="12" viewBox="0 0 12 12" fill="none" xmlns="http://www.w3.org/2000/svg">
<g clip-path="url(#clip0_1662_799)">
<path d="M9.00027 0.599609L9.16238 0.609375C9.3234 0.628177 9.4805 0.675176 9.62624 0.748047C9.82055 0.845242 9.99002 0.986345 10.1204 1.16016L10.9192 2.22852L11.0305 2.40039C11.1286 2.57944 11.1864 2.77901 11.1995 2.98438C11.2168 3.25803 11.1531 3.5306 11.0169 3.76855L11.0159 3.77051L8.74148 7.7002L8.69363 7.76562C8.57005 7.90485 8.36197 7.94259 8.1946 7.8457C8.00358 7.73498 7.93848 7.49092 8.04909 7.2998L10.3235 3.36914C10.3812 3.26761 10.408 3.15172 10.4007 3.03516C10.3932 2.91782 10.3514 2.80473 10.2805 2.71094L10.2796 2.70996L9.47976 1.63965C9.42391 1.56529 9.35103 1.50448 9.26784 1.46289C9.20556 1.43183 9.13839 1.41233 9.0696 1.4043L9.00027 1.40039H3.00027C2.9072 1.40039 2.81497 1.4213 2.73171 1.46289C2.64845 1.50452 2.57567 1.56519 2.5198 1.63965L1.71511 2.71094L1.71413 2.70996C1.64402 2.80392 1.60386 2.91714 1.59695 3.03418C1.59009 3.15121 1.61744 3.26761 1.67605 3.36914L3.95144 7.2998C4.0619 7.49096 3.99606 7.73508 3.80495 7.8457C3.61378 7.95628 3.36971 7.89134 3.25906 7.7002L0.983664 3.77051C0.846325 3.53312 0.78194 3.26011 0.798118 2.98633C0.814346 2.71277 0.910317 2.4499 1.07448 2.23047L1.07546 2.22949L1.88015 1.15918C2.01049 0.985579 2.18011 0.845135 2.37429 0.748047C2.56863 0.650918 2.783 0.599609 3.00027 0.599609H9.00027Z" fill="currentColor"/>
<path d="M2.35395 0.757227C2.51982 0.657699 2.72919 0.692125 2.85492 0.829492L2.90277 0.893945L5.8432 5.79434L5.87738 5.86758C5.93916 6.04306 5.87125 6.24372 5.70551 6.34316C5.53985 6.44238 5.33121 6.40783 5.20551 6.2709L5.15668 6.20547L2.21723 1.30605L2.18207 1.23281C2.12022 1.05739 2.18835 0.856767 2.35395 0.757227Z" fill="currentColor"/>
<path d="M9.14551 0.829492C9.27123 0.692335 9.47973 0.657836 9.64551 0.757227C9.83494 0.870886 9.89686 1.11662 9.7832 1.30605L6.84277 6.20547L6.79492 6.2709C6.66917 6.40809 6.45974 6.44264 6.29395 6.34316C6.1046 6.22947 6.04359 5.98373 6.15723 5.79434L9.09668 0.893945L9.14551 0.829492Z" fill="currentColor"/>
<path d="M8 3.09961L8.08105 3.1084C8.26309 3.14588 8.40039 3.30687 8.40039 3.5C8.40039 3.69313 8.26309 3.85412 8.08105 3.8916L8 3.90039H4C3.77909 3.90039 3.59961 3.72091 3.59961 3.5C3.59961 3.27909 3.77909 3.09961 4 3.09961H8Z" fill="currentColor"/>
<path d="M8.09961 8.5C8.09961 7.3402 7.1598 6.40039 6 6.40039C4.8402 6.40039 3.90039 7.3402 3.90039 8.5C3.90039 9.6598 4.8402 10.5996 6 10.5996C7.1598 10.5996 8.09961 9.6598 8.09961 8.5ZM8.90039 8.5C8.90039 10.1016 7.60163 11.4004 6 11.4004C4.39837 11.4004 3.09961 10.1016 3.09961 8.5C3.09961 6.89837 4.39837 5.59961 6 5.59961C7.60163 5.59961 8.90039 6.89837 8.90039 8.5Z" fill="currentColor"/>
<path d="M5.59961 9V8.36914C5.45353 8.30956 5.34961 8.1675 5.34961 8C5.34961 7.77909 5.52909 7.59961 5.75 7.59961H6L6.08105 7.6084C6.26309 7.64588 6.40039 7.80687 6.40039 8V9C6.40039 9.22091 6.22091 9.40039 6 9.40039C5.77909 9.40039 5.59961 9.22091 5.59961 9Z" fill="currentColor"/>
</g>
<defs>
<clipPath id="clip0_1662_799">
<rect width="12" height="12" fill="currentColor"/>
</clipPath>
</defs>
</svg>
