<svg width="12" height="12" viewBox="0 0 12 12" fill="none" xmlns="http://www.w3.org/2000/svg">
<path d="M3.59961 3V1.5C3.59961 1.27909 3.77909 1.09961 4 1.09961C4.22091 1.09961 4.40039 1.27909 4.40039 1.5V3L4.39355 3.13867C4.36168 3.45907 4.21991 3.76056 3.99023 3.99023C3.76056 4.21991 3.45907 4.36168 3.13867 4.39355L3 4.40039H1.5C1.27909 4.40039 1.09961 4.22091 1.09961 4C1.09961 3.77909 1.27909 3.59961 1.5 3.59961H3L3.11719 3.58789C3.23263 3.56488 3.33936 3.50829 3.42383 3.42383C3.50829 3.33936 3.56488 3.23263 3.58789 3.11719L3.59961 3Z" fill="currentColor"/>
<path d="M7.59961 3V1.5C7.59961 1.27909 7.77909 1.09961 8 1.09961C8.22091 1.09961 8.40039 1.27909 8.40039 1.5V3L8.41211 3.11719C8.43512 3.23263 8.49171 3.33936 8.57617 3.42383C8.68869 3.53635 8.84087 3.59961 9 3.59961H10.5L10.5811 3.6084C10.7631 3.64588 10.9004 3.80687 10.9004 4C10.9004 4.19313 10.7631 4.35412 10.5811 4.3916L10.5 4.40039H9C8.6287 4.40039 8.27232 4.25279 8.00977 3.99023C7.7801 3.76056 7.63832 3.45907 7.60645 3.13867L7.59961 3Z" fill="currentColor"/>
<path d="M3.59961 10.5V9C3.59961 8.84087 3.53635 8.68869 3.42383 8.57617C3.33936 8.49171 3.23263 8.43512 3.11719 8.41211L3 8.40039H1.5C1.27909 8.40039 1.09961 8.22091 1.09961 8C1.09961 7.77909 1.27909 7.59961 1.5 7.59961H3L3.13867 7.60645C3.45907 7.63832 3.76056 7.7801 3.99023 8.00977C4.25279 8.27232 4.40039 8.6287 4.40039 9V10.5C4.40039 10.7209 4.22091 10.9004 4 10.9004C3.77909 10.9004 3.59961 10.7209 3.59961 10.5Z" fill="currentColor"/>
<path d="M7.59961 10.5V9C7.59961 8.6287 7.74721 8.27232 8.00977 8.00977C8.27232 7.74721 8.6287 7.59961 9 7.59961H10.5L10.5811 7.6084C10.7631 7.64588 10.9004 7.80687 10.9004 8C10.9004 8.19313 10.7631 8.35412 10.5811 8.3916L10.5 8.40039H9C8.84087 8.40039 8.68869 8.46365 8.57617 8.57617C8.46365 8.68869 8.40039 8.84087 8.40039 9V10.5C8.40039 10.7209 8.22091 10.9004 8 10.9004C7.77909 10.9004 7.59961 10.7209 7.59961 10.5Z" fill="currentColor"/>
</svg>
