<svg width="12" height="12" viewBox="0 0 12 12" fill="none" xmlns="http://www.w3.org/2000/svg">
<g clip-path="url(#clip0_1662_866)">
<path d="M10.4365 5.24024C10.5927 5.08403 10.8457 5.08403 11.002 5.24024C11.1581 5.39645 11.1581 5.64948 11.002 5.80567L6.40723 10.4004C5.80906 10.9986 5.01084 11.351 4.16992 11.3926L4.00195 11.3975C3.09978 11.3975 2.23462 11.0383 1.59668 10.4004C0.958743 9.76245 0.599609 8.8973 0.599609 7.99512C0.599679 7.09303 0.958805 6.22772 1.59668 5.58984L5.88086 1.30469C6.33097 0.853889 6.94207 0.600291 7.5791 0.59961C8.21638 0.599048 8.82827 0.852506 9.2793 1.30274C9.73017 1.75294 9.98381 2.36381 9.98438 3.00098C9.98488 3.63812 9.73233 4.24923 9.28223 4.7002L9.28125 4.70117L4.98633 8.98633C4.72383 9.24849 4.36807 9.3954 3.99707 9.39551C3.62562 9.39551 3.26851 9.24801 3.00586 8.98535C2.74347 8.72274 2.5957 8.36637 2.5957 7.99512C2.59577 7.62384 2.74336 7.26746 3.00586 7.00488H3.00684L7.25195 2.76465C7.40828 2.60887 7.66138 2.60944 7.81738 2.76563C7.97319 2.92195 7.9726 3.17504 7.81641 3.33106L3.57227 7.57129L3.57129 7.57031C3.45882 7.68286 3.39655 7.83601 3.39648 7.99512C3.39648 8.1544 3.45964 8.3073 3.57227 8.41992C3.68489 8.53251 3.83783 8.5957 3.99707 8.5957C4.15613 8.5956 4.30838 8.53236 4.4209 8.41992H4.42188L8.7168 4.13477C9.01663 3.83408 9.18482 3.4266 9.18457 3.00195C9.1842 2.57684 9.01473 2.1685 8.71387 1.86817C8.41303 1.56799 8.00507 1.40002 7.58008 1.40039C7.15512 1.40081 6.74754 1.56941 6.44727 1.87012V1.87109L2.16211 6.15527C1.67426 6.64312 1.40046 7.30521 1.40039 7.99512C1.40039 8.68512 1.6742 9.34705 2.16211 9.83496C2.65002 10.3229 3.31195 10.5967 4.00195 10.5967L4.25879 10.584C4.85437 10.5248 5.41488 10.2619 5.8418 9.83496L10.4365 5.24024Z" fill="currentColor"/>
</g>
<defs>
<clipPath id="clip0_1662_866">
<rect width="12" height="12" fill="currentColor"/>
</clipPath>
</defs>
</svg>
