<svg width="12" height="12" viewBox="0 0 12 12" fill="none" xmlns="http://www.w3.org/2000/svg">
<path d="M6.8998 6.44989L3.12949 10.2203C3.04087 10.3089 2.93566 10.3793 2.81987 10.4273C2.70408 10.4753 2.57997 10.5 2.45463 10.5C2.20148 10.5 1.9587 10.3995 1.77967 10.2205C1.60064 10.0415 1.50004 9.79873 1.5 9.54556C1.49996 9.29238 1.60048 9.04956 1.77944 8.8705L5.55021 5.09965M7.78739 2.41267C7.12146 1.98937 6.37678 1.70522 5.59816 1.57732C4.81955 1.44943 4.02311 1.48044 3.2568 1.66849C2.62789 1.82237 2.76555 2.63944 3.38141 2.83876C4.3237 3.14424 5.20876 3.60402 6.00052 4.19934M7.79998 5.99951C8.39531 6.79166 8.85502 7.67716 9.16037 8.61989C9.36011 9.23585 10.1771 9.37397 10.3314 8.74497C10.5186 7.98198 10.5503 7.18908 10.4245 6.41358C10.2987 5.63809 10.0179 4.89589 9.59899 4.23129M8.85761 2.10897C8.75595 2.00731 8.61808 1.9502 8.47433 1.9502C8.33057 1.9502 8.1927 2.00731 8.09104 2.10897L5.70856 4.49179C5.60692 4.59347 5.54982 4.73136 5.54982 4.87513C5.54982 5.01891 5.60692 5.1568 5.70856 5.25847L6.74145 6.29151C6.84311 6.39317 6.98098 6.45028 7.12473 6.45028C7.26849 6.45028 7.40636 6.39317 7.50802 6.29151L9.8905 3.90869C9.99215 3.80701 10.0492 3.66912 10.0492 3.52535C10.0492 3.38157 9.99215 3.24368 9.8905 3.14201L8.85761 2.10897Z" stroke="currentColor" stroke-linecap="round" stroke-linejoin="round"/>
</svg>
