<svg width="12" height="12" viewBox="0 0 12 12" fill="none" xmlns="http://www.w3.org/2000/svg">
<path d="M10.0996 4.5V3C10.0996 2.84087 10.0364 2.68869 9.92383 2.57617C9.83936 2.49171 9.73263 2.43512 9.61719 2.41211L9.5 2.40039H2C1.84087 2.40039 1.68869 2.46365 1.57617 2.57617C1.46365 2.68869 1.40039 2.84087 1.40039 3V8C1.40039 8.32909 1.67091 8.59961 2 8.59961H4L4.08105 8.6084C4.26309 8.64588 4.40039 8.80687 4.40039 9C4.40039 9.19313 4.26309 9.35412 4.08105 9.3916L4 9.40039H2C1.22909 9.40039 0.599609 8.77091 0.599609 8V3C0.599609 2.6287 0.747215 2.27232 1.00977 2.00977C1.27232 1.74721 1.6287 1.59961 2 1.59961H9.5L9.63867 1.60645C9.95907 1.63832 10.2606 1.78009 10.4902 2.00977C10.7528 2.27232 10.9004 2.6287 10.9004 3V4.5C10.9004 4.72091 10.7209 4.90039 10.5 4.90039C10.2791 4.90039 10.0996 4.72091 10.0996 4.5Z" fill="currentColor"/>
<path d="M10.5996 7.5C10.5996 7.16863 10.3314 6.90039 10 6.90039H7C6.66863 6.90039 6.40039 7.16863 6.40039 7.5V9C6.40039 9.33137 6.66863 9.59961 7 9.59961H10C10.3314 9.59961 10.5996 9.33137 10.5996 9V7.5ZM11.4004 9C11.4004 9.7732 10.7732 10.4004 10 10.4004H7C6.2268 10.4004 5.59961 9.7732 5.59961 9V7.5C5.59961 6.7268 6.2268 6.09961 7 6.09961H10C10.7732 6.09961 11.4004 6.7268 11.4004 7.5V9Z" fill="currentColor"/>
</svg>
