<svg width="12" height="12" viewBox="0 0 12 12" fill="none" xmlns="http://www.w3.org/2000/svg">
<path d="M5.72893 7.52385L4.19047 5.98541M5.72893 7.52385C6.44527 7.25142 7.13247 6.90782 7.78022 6.49822M5.72893 7.52385V10.0879C5.72893 10.0879 7.28278 9.80587 7.78022 9.06229C8.33406 8.23154 7.78022 6.49822 7.78022 6.49822M4.19047 5.98541C4.46337 5.27743 4.80699 4.59879 5.21611 3.9598C5.81364 3.00442 6.64566 2.21779 7.63304 1.67474C8.62041 1.13169 9.7303 0.850281 10.8571 0.85727C10.8571 2.25212 10.4571 4.70338 7.78022 6.49822M4.19047 5.98541H1.62637C1.62637 5.98541 1.90842 4.43158 2.65201 3.93415C3.48278 3.38032 5.21611 3.93415 5.21611 3.93415M1.88278 8.29307C1.11355 8.93922 0.85714 10.8571 0.85714 10.8571C0.85714 10.8571 2.77509 10.6007 3.42124 9.83152C3.78534 9.40075 3.78022 8.73922 3.37509 8.33923C3.17576 8.14898 2.91319 8.03904 2.63777 8.03053C2.36235 8.02201 2.09349 8.1155 1.88278 8.29307Z" stroke="currentColor" stroke-linecap="round" stroke-linejoin="round"/>
</svg>
