<svg width="12" height="12" viewBox="0 0 12 12" fill="none" xmlns="http://www.w3.org/2000/svg">
<g clip-path="url(#clip0_1662_767)">
<path d="M6.10526 0.608276C6.17461 0.619627 6.24136 0.642843 6.3035 0.675659L6.39334 0.7323L6.47147 0.802612C6.51983 0.85357 6.55997 0.911772 6.58963 0.975464L6.62576 1.07507L6.62869 1.08289L7.41873 4.15027L7.44412 4.22644C7.47419 4.3003 7.51919 4.36791 7.57596 4.42468C7.65172 4.50033 7.7467 4.55419 7.85037 4.58093L10.9178 5.37195L10.9236 5.37292L11.0232 5.41003C11.0871 5.43951 11.1459 5.47895 11.1971 5.52722L11.2683 5.60632L11.325 5.69519C11.3746 5.78857 11.4011 5.89309 11.4012 5.99988C11.4012 6.14201 11.3544 6.2803 11.2683 6.39343C11.1821 6.50662 11.0608 6.589 10.9236 6.62683L10.9178 6.62878L7.8494 7.41785L7.85037 7.41882C7.74675 7.44555 7.6517 7.49949 7.57596 7.57507C7.51903 7.632 7.4742 7.70019 7.44412 7.77429L7.41873 7.84949L6.62772 10.9178L6.62576 10.9257C6.5875 11.0621 6.5053 11.1828 6.39236 11.2684C6.27942 11.354 6.14148 11.4003 5.99979 11.4003C5.8581 11.4003 5.72015 11.354 5.60721 11.2684C5.49428 11.1828 5.41208 11.0621 5.37381 10.9257L5.37186 10.9169L4.58084 7.84949C4.55401 7.74586 4.50029 7.65077 4.42459 7.57507C4.36784 7.51837 4.30015 7.47426 4.22635 7.44421L4.15018 7.41882L1.08279 6.62781L1.07303 6.62585C0.937102 6.58719 0.817412 6.50423 0.732208 6.39148C0.668411 6.30697 0.626149 6.2088 0.609161 6.10535L0.600372 5.99988L0.609161 5.89539C0.626084 5.7916 0.668198 5.69301 0.732208 5.60828L0.802521 5.52917C0.87844 5.4569 0.971202 5.40383 1.07303 5.37488L1.08279 5.37195L4.15018 4.58093L4.22635 4.55554C4.30025 4.5255 4.36778 4.48047 4.42459 4.42371C4.50016 4.3481 4.554 4.25373 4.58084 4.15027L5.37186 1.08289L5.37381 1.07507C5.41201 0.938577 5.49433 0.818018 5.60721 0.7323L5.69608 0.675659C5.78921 0.626325 5.89335 0.599563 5.99979 0.599487L6.10526 0.608276ZM5.35623 4.34949C5.29361 4.59153 5.16687 4.81339 4.99002 4.99011C4.81313 5.16687 4.59154 5.29194 4.3494 5.35437L4.35037 5.35535L1.8494 5.99988L4.3494 6.64441L4.52713 6.703C4.69975 6.77314 4.85736 6.87703 4.99002 7.00964C5.16693 7.18655 5.29374 7.40802 5.35623 7.65027L5.99979 10.1483L6.64432 7.65027L6.70291 7.47253C6.77307 7.29996 6.87695 7.14226 7.00955 7.00964C7.18646 6.83274 7.40793 6.7069 7.65018 6.64441L10.1482 5.99988L7.65018 5.35632C7.40794 5.29383 7.18645 5.16701 7.00955 4.99011C6.87695 4.85747 6.77305 4.69982 6.70291 4.52722L6.64432 4.34949L5.99979 1.85144L5.35623 4.34949Z" fill="currentColor"/>
<path d="M9.59961 3.5V1.5C9.59961 1.27909 9.77909 1.09961 10 1.09961C10.2209 1.09961 10.4004 1.27909 10.4004 1.5V3.5C10.4004 3.72092 10.2209 3.90039 10 3.90039C9.77909 3.90039 9.59961 3.72092 9.59961 3.5Z" fill="currentColor"/>
<path d="M11 2.09961L11.0811 2.1084C11.2631 2.14588 11.4004 2.30687 11.4004 2.5C11.4004 2.69313 11.2631 2.85412 11.0811 2.8916L11 2.90039H9C8.77909 2.90039 8.59961 2.72092 8.59961 2.5C8.59961 2.27909 8.77909 2.09961 9 2.09961H11Z" fill="currentColor"/>
<path d="M1.59961 9.5V8.5C1.59961 8.27909 1.77909 8.09961 2 8.09961C2.22091 8.09961 2.40039 8.27909 2.40039 8.5V9.5C2.40039 9.72092 2.22091 9.90039 2 9.90039C1.77909 9.90039 1.59961 9.72092 1.59961 9.5Z" fill="currentColor"/>
<path d="M2.5 8.59961L2.58106 8.6084C2.76309 8.64588 2.90039 8.80687 2.90039 9C2.90039 9.19313 2.76309 9.35412 2.58106 9.3916L2.5 9.40039H1.5C1.27909 9.40039 1.09961 9.22092 1.09961 9C1.09961 8.77909 1.27909 8.59961 1.5 8.59961H2.5Z" fill="currentColor"/>
</g>
<defs>
<clipPath id="clip0_1662_767">
<rect width="12" height="12" fill="currentColor"/>
</clipPath>
</defs>
</svg>
