<svg width="12" height="12" viewBox="0 0 12 12" fill="none" xmlns="http://www.w3.org/2000/svg">
<path d="M10.0996 2.5C10.0996 2.16863 9.83137 1.90039 9.5 1.90039H2.5C2.16863 1.90039 1.90039 2.16863 1.90039 2.5V9.5C1.90039 9.83137 2.16863 10.0996 2.5 10.0996H9.5C9.83137 10.0996 10.0996 9.83137 10.0996 9.5V2.5ZM10.9004 9.5C10.9004 10.2732 10.2732 10.9004 9.5 10.9004H2.5C1.7268 10.9004 1.09961 10.2732 1.09961 9.5V2.5C1.09961 1.7268 1.7268 1.09961 2.5 1.09961H9.5C10.2732 1.09961 10.9004 1.7268 10.9004 2.5V9.5Z" fill="currentColor"/>
<path d="M8.5 3.59961L8.58105 3.6084C8.76309 3.64588 8.90039 3.80687 8.90039 4C8.90039 4.19313 8.76309 4.35412 8.58105 4.3916L8.5 4.40039H3.5C3.27909 4.40039 3.09961 4.22091 3.09961 4C3.09961 3.77909 3.27909 3.59961 3.5 3.59961H8.5Z" fill="currentColor"/>
<path d="M8.5 5.59961L8.58105 5.6084C8.76309 5.64588 8.90039 5.80687 8.90039 6C8.90039 6.19313 8.76309 6.35412 8.58105 6.3916L8.5 6.40039H3.5C3.27909 6.40039 3.09961 6.22091 3.09961 6C3.09961 5.77909 3.27909 5.59961 3.5 5.59961H8.5Z" fill="currentColor"/>
<path d="M8.5 7.59961L8.58105 7.6084C8.76309 7.64588 8.90039 7.80687 8.90039 8C8.90039 8.19313 8.76309 8.35412 8.58105 8.3916L8.5 8.40039H3.5C3.27909 8.40039 3.09961 8.22091 3.09961 8C3.09961 7.77909 3.27909 7.59961 3.5 7.59961H8.5Z" fill="currentColor"/>
</svg>
