<svg width="12" height="12" viewBox="0 0 12 12" fill="none" xmlns="http://www.w3.org/2000/svg">
<path d="M10.5996 6C10.5996 4.56406 9.43594 3.40039 8 3.40039H4C2.56406 3.40039 1.40039 4.56406 1.40039 6C1.40039 7.43594 2.56406 8.59961 4 8.59961H8C9.43594 8.59961 10.5996 7.43594 10.5996 6ZM11.4004 6C11.4004 7.87777 9.87777 9.40039 8 9.40039H4C2.12223 9.40039 0.599609 7.87777 0.599609 6C0.599609 4.12223 2.12223 2.59961 4 2.59961H8C9.87777 2.59961 11.4004 4.12223 11.4004 6Z" fill="currentColor"/>
<path d="M4.59961 6C4.59961 5.66863 4.33137 5.40039 4 5.40039C3.66863 5.40039 3.40039 5.66863 3.40039 6C3.40039 6.33137 3.66863 6.59961 4 6.59961C4.33137 6.59961 4.59961 6.33137 4.59961 6ZM5.40039 6C5.40039 6.7732 4.7732 7.40039 4 7.40039C3.2268 7.40039 2.59961 6.7732 2.59961 6C2.59961 5.2268 3.2268 4.59961 4 4.59961C4.7732 4.59961 5.40039 5.2268 5.40039 6Z" fill="currentColor"/>
</svg>
