<svg width="12" height="12" viewBox="0 0 12 12" fill="none" xmlns="http://www.w3.org/2000/svg">
<path d="M1.09961 9.5V7.5C1.09961 7.27909 1.27909 7.09961 1.5 7.09961C1.72091 7.09961 1.90039 7.27909 1.90039 7.5V9.5L1.91211 9.61719C1.93512 9.73263 1.99171 9.83936 2.07617 9.92383C2.18869 10.0364 2.34087 10.0996 2.5 10.0996H9.5C9.65913 10.0996 9.81131 10.0364 9.92383 9.92383C10.0364 9.81131 10.0996 9.65913 10.0996 9.5V7.5C10.0996 7.27909 10.2791 7.09961 10.5 7.09961C10.7209 7.09961 10.9004 7.27909 10.9004 7.5V9.5C10.9004 9.8713 10.7528 10.2277 10.4902 10.4902C10.2277 10.7528 9.8713 10.9004 9.5 10.9004H2.5C2.1287 10.9004 1.77232 10.7528 1.50977 10.4902C1.28009 10.2606 1.13832 9.95907 1.10645 9.63867L1.09961 9.5Z" fill="currentColor"/>
<path d="M5.78027 1.16602C5.93551 1.06365 6.14658 1.08017 6.2832 1.2168L8.7832 3.7168L8.83398 3.78027C8.93635 3.93551 8.91983 4.14658 8.7832 4.2832C8.64658 4.41983 8.43551 4.43635 8.28027 4.33398L8.2168 4.2832L6 2.06641L3.7832 4.2832C3.62699 4.43941 3.37301 4.43941 3.2168 4.2832C3.06059 4.12699 3.06059 3.87301 3.2168 3.7168L5.7168 1.2168L5.78027 1.16602Z" fill="currentColor"/>
<path d="M5.59961 7.5V1.5C5.59961 1.27909 5.77909 1.09961 6 1.09961C6.22091 1.09961 6.40039 1.27909 6.40039 1.5V7.5C6.40039 7.72091 6.22091 7.90039 6 7.90039C5.77909 7.90039 5.59961 7.72091 5.59961 7.5Z" fill="currentColor"/>
</svg>
