<svg width="16" height="16" viewBox="0 0 16 16" fill="none" xmlns="http://www.w3.org/2000/svg">
<path d="M14.1663 10.083C14.1663 9.84004 14.0706 9.60637 13.8988 9.43457C13.727 9.26277 13.4933 9.16699 13.2503 9.16699C13.0075 9.16708 12.7746 9.26294 12.6029 9.43457L9.93001 12.1094H9.92903C9.83 12.2084 9.75832 12.3314 9.71907 12.4658L9.24544 14.0869L10.8675 13.6143C11.0018 13.575 11.124 13.5023 11.223 13.4033L13.8988 10.7305C14.0704 10.5588 14.1662 10.3258 14.1663 10.083ZM9.50032 5.33301C9.50014 3.76835 8.23103 2.5 6.66634 2.5C5.10179 2.50018 3.8335 3.76846 3.83333 5.33301C3.83333 6.89249 5.09325 8.15743 6.65071 8.16602C6.65885 8.16599 6.66699 8.166 6.67513 8.16602C8.23604 8.16145 9.50032 6.89499 9.50032 5.33301ZM15.1663 10.083C15.1662 10.591 14.965 11.0783 14.6058 11.4375L11.93 14.1104C11.7123 14.3281 11.4434 14.4879 11.1478 14.5742L9.23372 15.1318C9.09052 15.1736 8.93876 15.1766 8.79427 15.1396C8.64955 15.1026 8.51708 15.0265 8.41145 14.9209C8.30597 14.8154 8.23076 14.6836 8.19368 14.5391C8.15661 14.3944 8.15869 14.242 8.20052 14.0986L8.75911 12.1855L8.83723 11.9688C8.9287 11.7582 9.05869 11.5656 9.222 11.4023L11.8958 8.72754C12.2551 8.36837 12.7423 8.16708 13.2503 8.16699C13.7585 8.16699 14.2465 8.3682 14.6058 8.72754C14.9651 9.08688 15.1663 9.57483 15.1663 10.083ZM10.5003 5.33301C10.5003 6.68303 9.8011 7.86882 8.74641 8.55176C8.98911 8.65727 9.10916 8.93416 9.01497 9.18457C8.91764 9.44286 8.62973 9.57369 8.37141 9.47656C7.82931 9.27228 7.25608 9.16761 6.68001 9.16602C6.67556 9.16603 6.67079 9.16699 6.66634 9.16699C6.65917 9.16699 6.65201 9.16606 6.64485 9.16602C6.45537 9.16687 6.26558 9.17889 6.07649 9.20215C5.30067 9.29762 4.55915 9.57965 3.91634 10.0244C3.2736 10.4691 2.74889 11.0636 2.38606 11.7559C2.02322 12.4482 1.83324 13.2183 1.83333 14C1.83333 14.2761 1.60945 14.5 1.33333 14.5C1.05721 14.5 0.833359 14.2761 0.833328 14C0.833233 13.0566 1.06243 12.1276 1.50032 11.292C1.93823 10.4564 2.57217 9.73893 3.34798 9.20215C3.73395 8.93513 4.14906 8.71612 4.5843 8.5498C3.53115 7.86658 2.83333 6.68187 2.83333 5.33301C2.8335 3.21617 4.5495 1.50018 6.66634 1.5C8.78332 1.5 10.5001 3.21607 10.5003 5.33301Z" fill="currentColor"/>
</svg>
