<svg width="12" height="12" viewBox="0 0 12 12" fill="none" xmlns="http://www.w3.org/2000/svg">
<g clip-path="url(#clip0_1662_830)">
<path d="M6.00488 9.59961L6.08594 9.6084C6.26803 9.64584 6.40527 9.80683 6.40527 10C6.40527 10.1932 6.26803 10.3542 6.08594 10.3916L6.00488 10.4004H6C5.77909 10.4004 5.59961 10.2209 5.59961 10C5.59961 9.77909 5.77909 9.59961 6 9.59961H6.00488Z" fill="currentColor"/>
<path d="M6 7.09947C6.66431 7.09947 7.30528 7.328 7.81836 7.74107L8.03027 7.92857L8.08203 7.99107C8.18605 8.14529 8.17143 8.35695 8.03613 8.49498C7.90079 8.63305 7.68949 8.65167 7.5332 8.55064L7.46973 8.49986L7.31641 8.36412C6.9449 8.06512 6.48095 7.90025 6 7.90025C5.45046 7.90025 4.9228 8.11526 4.53027 8.49986L4.4668 8.55064C4.31051 8.65167 4.09921 8.63305 3.96387 8.49498C3.80923 8.33721 3.81197 8.08321 3.96973 7.92857L4.18164 7.74107C4.69472 7.328 5.33569 7.09947 6 7.09947Z" fill="currentColor"/>
<path d="M5.01172 4.69095C5.2289 4.65051 5.43808 4.79408 5.47852 5.01126C5.51894 5.22843 5.37538 5.43762 5.1582 5.47806C4.26023 5.64526 3.43255 6.07595 2.78027 6.71536C2.6226 6.86993 2.36951 6.86702 2.21485 6.7095C2.06027 6.55182 2.06221 6.29874 2.21973 6.14407C2.98546 5.39342 3.95754 4.88722 5.01172 4.69095Z" fill="currentColor"/>
<path d="M8.14982 5.46781C8.24643 5.30051 8.44601 5.22939 8.62248 5.28812L8.6967 5.32132L8.98674 5.50101C9.17601 5.62667 9.35677 5.76464 9.52873 5.91312L9.7797 6.14359L9.83146 6.20609C9.93567 6.36034 9.92094 6.5719 9.78556 6.70999C9.6503 6.84771 9.43976 6.8664 9.28361 6.76566L9.22013 6.71488L9.00627 6.51859C8.85962 6.39195 8.70481 6.27516 8.54338 6.168L8.29631 6.01468L8.23088 5.96683C8.0918 5.84347 8.05336 5.63517 8.14982 5.46781Z" fill="currentColor"/>
<path d="M2.93359 2.72034C3.13714 2.63469 3.37129 2.72971 3.45703 2.93323C3.54271 3.13666 3.4474 3.37075 3.24414 3.45667C2.52046 3.76147 1.85193 4.18515 1.2666 4.70862C1.10193 4.85564 0.849341 4.84097 0.70215 4.67639C0.554889 4.51173 0.568751 4.25921 0.7334 4.11194C1.38467 3.52948 2.12837 3.05949 2.93359 2.72034Z" fill="currentColor"/>
<path d="M5.32182 2.1292C6.39551 2.03667 7.47723 2.16525 8.49956 2.50615C9.52178 2.84708 10.4639 3.39325 11.2671 4.11162C11.4317 4.25891 11.4456 4.51243 11.2984 4.67705C11.1511 4.84162 10.8976 4.85554 10.733 4.7083C10.011 4.06265 9.16445 3.57131 8.24565 3.26494C7.3269 2.95863 6.35507 2.84289 5.39018 2.92607C5.17028 2.94495 4.97675 2.78262 4.95756 2.56279C4.93859 2.34269 5.10172 2.14817 5.32182 2.1292Z" fill="currentColor"/>
<path d="M0.716798 0.716798C0.853422 0.580174 1.06449 0.563653 1.21973 0.666017L1.2832 0.716798L11.2832 10.7168L11.334 10.7803C11.4363 10.9355 11.4198 11.1466 11.2832 11.2832C11.1466 11.4198 10.9355 11.4363 10.7803 11.334L10.7168 11.2832L0.716798 1.2832L0.666017 1.21973C0.563653 1.06449 0.580174 0.853422 0.716798 0.716798Z" fill="currentColor"/>
</g>
<defs>
<clipPath id="clip0_1662_830">
<rect width="12" height="12" fill="currentColor"/>
</clipPath>
</defs>
</svg>
