<svg width="12" height="12" viewBox="0 0 12 12" fill="none" xmlns="http://www.w3.org/2000/svg">
<path d="M6.00489 9.59961L6.08594 9.6084C6.26803 9.64584 6.40528 9.80683 6.40528 10C6.40528 10.1932 6.26803 10.3542 6.08594 10.3916L6.00489 10.4004H6C5.77909 10.4004 5.59961 10.2209 5.59961 10C5.59961 9.77909 5.77909 9.59961 6 9.59961H6.00489Z" fill="currentColor"/>
<path d="M6 2.09978C7.82187 2.09978 9.58365 2.72991 10.9902 3.87615L11.2666 4.1115L11.3213 4.17205C11.4321 4.32135 11.4267 4.53293 11.2979 4.67693C11.169 4.82073 10.9594 4.84963 10.7988 4.75603L10.7334 4.70818L10.4844 4.49627C9.22028 3.46627 7.63723 2.90056 6 2.90056C4.25356 2.90056 2.56832 3.54389 1.2666 4.70818L1.20117 4.75603C1.04057 4.84963 0.831018 4.82073 0.702151 4.67693C0.554875 4.51227 0.568742 4.25878 0.733401 4.1115L1.00977 3.87615C2.41636 2.72991 4.17814 2.09978 6 2.09978Z" fill="currentColor"/>
<path d="M6.26465 4.60666C7.49411 4.66694 8.66674 5.14549 9.58692 5.96311L9.78028 6.14377L9.83203 6.20627C9.93585 6.36033 9.92103 6.57121 9.78614 6.7092C9.65082 6.84725 9.43949 6.86681 9.28321 6.76584L9.21973 6.71506L9.05567 6.56174C8.2718 5.86509 7.27302 5.45688 6.22559 5.40549L6 5.40061C4.79603 5.40061 3.64013 5.87233 2.78028 6.71506L2.7168 6.76584C2.56052 6.86681 2.34918 6.84725 2.21387 6.7092C2.05965 6.55144 2.0622 6.29829 2.21973 6.14377L2.41309 5.96311C3.39909 5.087 4.67491 4.59983 6 4.59983L6.26465 4.60666Z" fill="currentColor"/>
<path d="M6 7.09947C6.66431 7.09947 7.30528 7.328 7.81836 7.74107L8.03028 7.92857L8.08203 7.99107C8.18605 8.14529 8.17143 8.35695 8.03614 8.49498C7.9008 8.63305 7.68949 8.65167 7.53321 8.55064L7.46973 8.49986L7.31641 8.36412C6.94491 8.06512 6.48095 7.90025 6 7.90025C5.45046 7.90025 4.9228 8.11526 4.53028 8.49986L4.4668 8.55064C4.31051 8.65167 4.09921 8.63305 3.96387 8.49498C3.80923 8.33721 3.81197 8.08321 3.96973 7.92857L4.18164 7.74107C4.69473 7.328 5.3357 7.09947 6 7.09947Z" fill="currentColor"/>
</svg>
