<svg width="12" height="12" viewBox="0 0 12 12" fill="none" xmlns="http://www.w3.org/2000/svg">
<path d="M6.00488 9.59961L6.08594 9.6084C6.26803 9.64584 6.40527 9.80683 6.40527 10C6.40527 10.1932 6.26803 10.3542 6.08594 10.3916L6.00488 10.4004H6C5.77909 10.4004 5.59961 10.2209 5.59961 10C5.59961 9.77909 5.77909 9.59961 6 9.59961H6.00488Z" fill="currentColor"/>
<path d="M6.26465 4.60666C7.49411 4.66694 8.66674 5.14548 9.58691 5.9631L9.78027 6.14377L9.83203 6.20627C9.93584 6.36033 9.92103 6.57121 9.78613 6.7092C9.65082 6.84725 9.43948 6.8668 9.2832 6.76584L9.21973 6.71506L9.05566 6.56174C8.27179 5.86509 7.27301 5.45687 6.22559 5.40549L6 5.4006C4.79603 5.4006 3.64013 5.87233 2.78027 6.71506L2.7168 6.76584C2.56052 6.8668 2.34918 6.84725 2.21387 6.7092C2.05965 6.55144 2.06219 6.29829 2.21973 6.14377L2.41309 5.9631C3.39908 5.087 4.67491 4.59982 6 4.59982L6.26465 4.60666Z" fill="currentColor"/>
<path d="M6 7.09947C6.66431 7.09947 7.30528 7.328 7.81836 7.74107L8.03027 7.92857L8.08203 7.99107C8.18604 8.14529 8.17142 8.35695 8.03613 8.49497C7.90079 8.63304 7.68949 8.65167 7.5332 8.55064L7.46973 8.49986L7.31641 8.36411C6.9449 8.06512 6.48095 7.90025 6 7.90025C5.45045 7.90025 4.92279 8.11526 4.53027 8.49986L4.4668 8.55064C4.31051 8.65167 4.09921 8.63304 3.96387 8.49497C3.80923 8.33721 3.81196 8.08321 3.96973 7.92857L4.18164 7.74107C4.69472 7.328 5.33569 7.09947 6 7.09947Z" fill="currentColor"/>
</svg>
