<?xml version="1.0" encoding="utf-8"?>
<!-- Generator: Adobe Illustrator 25.4.1, SVG Export Plug-In . SVG Version: 6.00 Build 0)  -->
<svg version="1.1" fill="#404040" id="Capa_1" xmlns="http://www.w3.org/2000/svg" xmlns:xlink="http://www.w3.org/1999/xlink" x="24px" y="24px"
	 viewBox="0 0 24 24" style="enable-background:new 0 0 24 24;" xml:space="preserve">
<path d="M19.9,9.6c-0.8-0.8-2-1.2-3.8-1.2H16c0-1.4-0.1-3.3-3.3-3.3h-1.3C8.1,5.1,8,7,8,8.4H7.9c-1.8,0-3,0.4-3.8,1.2
	c-0.9,1-0.9,2.3-0.8,3.2L4,19.3c0.2,1.7,0.9,3.6,4.8,3.6h6.5c3.9,0,4.6-1.8,4.8-3.6l0.6-6.5C20.7,11.9,20.7,10.6,19.9,9.6z M9.5,8.4
	c0-1.4,0-1.8,1.9-1.8h1.3c1.8,0,1.9,0.4,1.9,1.8H9.5z M16.1,9.8c1.3,0,2.3,0.3,2.7,0.8c0.4,0.4,0.5,1.1,0.4,2l-0.6,6.5
	c-0.1,1.3-0.5,2.3-3.3,2.3H8.7c-2.8,0-3.2-1-3.3-2.2l-0.6-6.5c-0.1-1,0-1.6,0.4-2c0.5-0.5,1.4-0.8,2.7-0.8H16.1z"/>
<path d="M12,3.8c-0.4,0-0.8-0.3-0.8-0.8V2c0-0.4,0.3-0.8,0.8-0.8s0.8,0.3,0.8,0.8v1C12.8,3.4,12.4,3.8,12,3.8z"/>
<path d="M5,5.7c-0.2,0-0.4-0.1-0.5-0.2l-1-1c-0.3-0.3-0.3-0.8,0-1.1s0.8-0.3,1.1,0l1,1c0.3,0.3,0.3,0.8,0,1.1C5.4,5.7,5.2,5.7,5,5.7
	z"/>
<path d="M19,5.7c-0.2,0-0.4-0.1-0.5-0.2c-0.3-0.3-0.3-0.8,0-1.1l1-1c0.3-0.3,0.8-0.3,1.1,0c0.3,0.3,0.3,0.8,0,1.1l-1,1
	C19.4,5.7,19.2,5.7,19,5.7z"/>
<path d="M11.1,17.9c-0.2,0-0.4-0.1-0.5-0.2l-1.5-1.5c-0.3-0.3-0.3-0.8,0-1.1s0.8-0.3,1.1,0l1,1l2.7-2.5c0.3-0.3,0.8-0.3,1.1,0
	s0.3,0.8,0,1.1l-3.2,3C11.5,17.8,11.3,17.9,11.1,17.9z"/>
</svg>
