<svg width="16" height="16" viewBox="0 0 16 16" fill="none" xmlns="http://www.w3.org/2000/svg">
<path d="M8.00001 14.3333C4.53334 14.3333 1.66667 11.4667 1.66667 8C1.66667 4.53333 4.53334 1.66667 8.00001 1.66667C11.4667 1.66667 14.3333 4.53333 14.3333 8C14.3333 11.4667 11.4667 14.3333 8.00001 14.3333ZM8.00001 2.33333C4.86668 2.33333 2.33334 4.86667 2.33334 8C2.33334 11.1333 4.86668 13.6667 8.00001 13.6667C11.1333 13.6667 13.6667 11.1333 13.6667 8C13.6667 4.86667 11.1333 2.33333 8.00001 2.33333Z" fill="currentColor"/>
<path fill-rule="evenodd" clip-rule="evenodd" d="M8.00001 1.86667C4.6438 1.86667 1.86667 4.64379 1.86667 8C1.86667 11.3562 4.6438 14.1333 8.00001 14.1333C11.3562 14.1333 14.1333 11.3562 14.1333 8C14.1333 4.64379 11.3562 1.86667 8.00001 1.86667ZM1.46667 8C1.46667 4.42288 4.42288 1.46667 8.00001 1.46667C11.5771 1.46667 14.5333 4.42288 14.5333 8C14.5333 11.5771 11.5771 14.5333 8.00001 14.5333C4.42288 14.5333 1.46667 11.5771 1.46667 8ZM2.13334 8C2.13334 4.75621 4.75622 2.13333 8.00001 2.13333C11.2438 2.13333 13.8667 4.75621 13.8667 8C13.8667 11.2438 11.2438 13.8667 8.00001 13.8667C4.75622 13.8667 2.13334 11.2438 2.13334 8ZM8.00001 2.53333C4.97713 2.53333 2.53334 4.97712 2.53334 8C2.53334 11.0229 4.97713 13.4667 8.00001 13.4667C11.0229 13.4667 13.4667 11.0229 13.4667 8C13.4667 4.97712 11.0229 2.53333 8.00001 2.53333Z" fill="currentColor"/>
<path d="M8.00001 8.33333C7.80001 8.33333 7.66668 8.2 7.66668 8V5.33333C7.66668 5.13333 7.80001 5 8.00001 5C8.20001 5 8.33334 5.13333 8.33334 5.33333V8C8.33334 8.2 8.20001 8.33333 8.00001 8.33333Z" fill="currentColor"/>
<path fill-rule="evenodd" clip-rule="evenodd" d="M7.89976 5.23309C7.88399 5.24887 7.86667 5.27878 7.86667 5.33333V8C7.86667 8.05455 7.88399 8.08447 7.89976 8.10025C7.91554 8.11602 7.94546 8.13333 8.00001 8.13333C8.05456 8.13333 8.08448 8.11602 8.10025 8.10025C8.11603 8.08447 8.13334 8.05455 8.13334 8V5.33333C8.13334 5.27878 8.11603 5.24887 8.10025 5.23309C8.08448 5.21731 8.05456 5.2 8.00001 5.2C7.94546 5.2 7.91554 5.21731 7.89976 5.23309ZM7.61692 4.95025C7.71781 4.84936 7.85456 4.8 8.00001 4.8C8.14546 4.8 8.28221 4.84936 8.3831 4.95025C8.48399 5.05113 8.53334 5.18788 8.53334 5.33333V8C8.53334 8.14545 8.48399 8.2822 8.3831 8.38309C8.28221 8.48398 8.14546 8.53333 8.00001 8.53333C7.85456 8.53333 7.71781 8.48398 7.61692 8.38309C7.51603 8.2822 7.46667 8.14545 7.46667 8V5.33333C7.46667 5.18788 7.51603 5.05113 7.61692 4.95025Z" fill="currentColor"/>
<path d="M8.00001 11C7.80001 11 7.66668 10.8667 7.66668 10.6667C7.66668 10.4667 7.80001 10.3333 8.00001 10.3333C8.20001 10.3333 8.33334 10.4667 8.33334 10.6667C8.33334 10.8667 8.20001 11 8.00001 11Z" fill="currentColor"/>
<path fill-rule="evenodd" clip-rule="evenodd" d="M7.89976 10.5664C7.88399 10.5822 7.86667 10.6121 7.86667 10.6667C7.86667 10.7212 7.88399 10.7511 7.89976 10.7669C7.91554 10.7827 7.94546 10.8 8.00001 10.8C8.05456 10.8 8.08448 10.7827 8.10025 10.7669C8.11603 10.7511 8.13334 10.7212 8.13334 10.6667C8.13334 10.6121 8.11603 10.5822 8.10025 10.5664C8.08448 10.5506 8.05456 10.5333 8.00001 10.5333C7.94546 10.5333 7.91554 10.5506 7.89976 10.5664ZM7.61692 10.2836C7.71781 10.1827 7.85456 10.1333 8.00001 10.1333C8.14546 10.1333 8.28221 10.1827 8.3831 10.2836C8.48399 10.3845 8.53334 10.5212 8.53334 10.6667C8.53334 10.8121 8.48399 10.9489 8.3831 11.0498C8.28221 11.1506 8.14546 11.2 8.00001 11.2C7.85456 11.2 7.71781 11.1506 7.61692 11.0498C7.51603 10.9489 7.46667 10.8121 7.46667 10.6667C7.46667 10.5212 7.51603 10.3845 7.61692 10.2836Z" fill="currentColor"/>
</svg>
