<svg width="16" height="16" viewBox="0 0 16 16" fill="none" xmlns="http://www.w3.org/2000/svg">
<path fill-rule="evenodd" clip-rule="evenodd" d="M2.13336 13.3333C2.13336 13.0388 2.37214 12.8 2.6667 12.8H13.3334C13.6279 12.8 13.8667 13.0388 13.8667 13.3333C13.8667 13.6279 13.6279 13.8667 13.3334 13.8667H2.6667C2.37214 13.8667 2.13336 13.6279 2.13336 13.3333Z" fill="currentColor"/>
<path fill-rule="evenodd" clip-rule="evenodd" d="M8.00003 2.13333C8.29458 2.13333 8.53336 2.37211 8.53336 2.66666V9.33333C8.53336 9.62788 8.29458 9.86666 8.00003 9.86666C7.70548 9.86666 7.4667 9.62788 7.4667 9.33333V2.66666C7.4667 2.37211 7.70548 2.13333 8.00003 2.13333Z" fill="currentColor"/>
<path fill-rule="evenodd" clip-rule="evenodd" d="M11.0438 6.28954C11.2521 6.49782 11.2521 6.83551 11.0438 7.04379L8.37715 9.71045C8.16887 9.91873 7.83118 9.91873 7.6229 9.71045C7.41463 9.50218 7.41463 9.16449 7.6229 8.95621L10.2896 6.28954C10.4979 6.08126 10.8355 6.08126 11.0438 6.28954Z" fill="currentColor"/>
<path fill-rule="evenodd" clip-rule="evenodd" d="M4.95624 6.28954C5.16452 6.08126 5.50221 6.08126 5.71049 6.28954L8.37715 8.95621C8.58543 9.16449 8.58543 9.50218 8.37715 9.71045C8.16887 9.91873 7.83118 9.91873 7.6229 9.71045L4.95624 7.04379C4.74796 6.83551 4.74796 6.49782 4.95624 6.28954Z" fill="currentColor"/>
</svg>
