<svg width="16" height="16" viewBox="0 0 16 16" fill="none" xmlns="http://www.w3.org/2000/svg">
<path fill-rule="evenodd" clip-rule="evenodd" d="M8 2.13334C8.29455 2.13334 8.53333 2.37212 8.53333 2.66667V9.33334C8.53333 9.62789 8.29455 9.86667 8 9.86667C7.70545 9.86667 7.46666 9.62789 7.46666 9.33334V2.66667C7.46666 2.37212 7.70545 2.13334 8 2.13334Z" fill="currentColor"/>
<path fill-rule="evenodd" clip-rule="evenodd" d="M7.62287 2.28954C7.83115 2.08127 8.16884 2.08127 8.37712 2.28954L11.0438 4.95621C11.2521 5.16449 11.2521 5.50218 11.0438 5.71046C10.8355 5.91874 10.4978 5.91874 10.2895 5.71046L7.62287 3.04379C7.41459 2.83551 7.41459 2.49782 7.62287 2.28954Z" fill="currentColor"/>
<path fill-rule="evenodd" clip-rule="evenodd" d="M8.37712 2.28954C8.5854 2.49782 8.5854 2.83551 8.37712 3.04379L5.71045 5.71046C5.50218 5.91874 5.16449 5.91874 4.95621 5.71046C4.74793 5.50218 4.74793 5.16449 4.95621 4.95621L7.62287 2.28954C7.83115 2.08127 8.16884 2.08127 8.37712 2.28954Z" fill="currentColor"/>
<path fill-rule="evenodd" clip-rule="evenodd" d="M2.13333 13.3333C2.13333 13.0388 2.37211 12.8 2.66666 12.8H13.3333C13.6279 12.8 13.8667 13.0388 13.8667 13.3333C13.8667 13.6279 13.6279 13.8667 13.3333 13.8667H2.66666C2.37211 13.8667 2.13333 13.6279 2.13333 13.3333Z" fill="currentColor"/>
</svg>
