<svg width="16" height="16" viewBox="0 0 16 16" fill="none" xmlns="http://www.w3.org/2000/svg">
<path fill-rule="evenodd" clip-rule="evenodd" d="M2.8 8C2.8 7.70545 3.03878 7.46667 3.33333 7.46667H12.6667C12.9612 7.46667 13.2 7.70545 13.2 8C13.2 8.29455 12.9612 8.53333 12.6667 8.53333H3.33333C3.03878 8.53333 2.8 8.29455 2.8 8Z" fill="currentColor"/>
<path fill-rule="evenodd" clip-rule="evenodd" d="M13.0438 7.62288C13.2521 7.83116 13.2521 8.16884 13.0438 8.37712L9.04379 12.3771C8.83551 12.5854 8.49782 12.5854 8.28954 12.3771C8.08126 12.1688 8.08126 11.8312 8.28954 11.6229L12.2895 7.62288C12.4978 7.4146 12.8355 7.4146 13.0438 7.62288Z" fill="currentColor"/>
<path fill-rule="evenodd" clip-rule="evenodd" d="M8.28954 3.62288C8.49782 3.4146 8.83551 3.4146 9.04379 3.62288L13.0438 7.62288C13.2521 7.83116 13.2521 8.16884 13.0438 8.37712C12.8355 8.5854 12.4978 8.5854 12.2895 8.37712L8.28954 4.37712C8.08126 4.16884 8.08126 3.83116 8.28954 3.62288Z" fill="currentColor"/>
</svg>
