<svg width="16" height="16" viewBox="0 0 16 16" fill="none" xmlns="http://www.w3.org/2000/svg">
<path fill-rule="evenodd" clip-rule="evenodd" d="M8 2.53333C6.08542 2.53333 4.53334 4.08541 4.53334 6C4.53334 7.91459 6.08542 9.46667 8 9.46667C9.91459 9.46667 11.4667 7.91459 11.4667 6C11.4667 4.08541 9.91459 2.53333 8 2.53333ZM3.46667 6C3.46667 3.49631 5.49631 1.46667 8 1.46667C10.5037 1.46667 12.5333 3.49631 12.5333 6C12.5333 8.50369 10.5037 10.5333 8 10.5333C5.49631 10.5333 3.46667 8.50369 3.46667 6Z" fill="currentColor"/>
<path fill-rule="evenodd" clip-rule="evenodd" d="M11.2004 7.5379C11.4556 7.39083 11.7817 7.4785 11.9288 7.73371L14.1954 11.667C14.2932 11.8367 14.2901 12.0462 14.1875 12.2129C14.0849 12.3796 13.8992 12.4767 13.7038 12.4658L11.6536 12.352L10.7437 14.1718C10.6559 14.3475 10.4787 14.4606 10.2824 14.4664C10.0862 14.4722 9.90261 14.3697 9.80457 14.1996L7.53791 10.2663C7.39084 10.0111 7.4785 9.68497 7.73371 9.5379C7.98892 9.39083 8.31503 9.4785 8.4621 9.73371L10.2334 12.8074L10.8563 11.5615C10.9514 11.3712 11.1505 11.2557 11.3629 11.2675L12.7794 11.3462L11.0046 8.26629C10.8575 8.01108 10.9452 7.68497 11.2004 7.5379Z" fill="currentColor"/>
<path fill-rule="evenodd" clip-rule="evenodd" d="M4.79963 7.5379C5.05484 7.68497 5.1425 8.01108 4.99543 8.26629L3.22058 11.3462L4.63709 11.2675C4.84948 11.2557 5.04857 11.3712 5.1437 11.5615L5.76664 12.8074L7.53791 9.73371C7.68498 9.4785 8.01109 9.39083 8.2663 9.5379C8.5215 9.68497 8.60917 10.0111 8.4621 10.2663L6.19543 14.1996C6.0974 14.3697 5.91383 14.4722 5.71757 14.4664C5.52131 14.4606 5.34412 14.3475 5.25631 14.1718L4.34636 12.352L2.29625 12.4658C2.10079 12.4767 1.91509 12.3796 1.81248 12.2129C1.70987 12.0462 1.70683 11.8367 1.80457 11.667L4.07124 7.73371C4.21831 7.4785 4.54442 7.39083 4.79963 7.5379Z" fill="currentColor"/>
</svg>
