<svg width="16" height="16" viewBox="0 0 16 16" fill="none" xmlns="http://www.w3.org/2000/svg">
<path d="M3.45052 11.1771C3.41984 11.0232 3.34439 10.8808 3.23177 10.7682C3.08174 10.6182 2.87884 10.5339 2.66667 10.5339C2.45449 10.5339 2.25159 10.6182 2.10156 10.7682C1.95153 10.9183 1.86719 11.1212 1.86719 11.3333L1.88281 11.4896C1.9135 11.6435 1.98894 11.7858 2.10156 11.8984C2.25159 12.0485 2.45449 12.1328 2.66667 12.1328C2.87884 12.1328 3.08174 12.0485 3.23177 11.8984C3.3818 11.7484 3.46615 11.5455 3.46615 11.3333L3.45052 11.1771ZM4.52474 11.5182C4.48224 11.9454 4.29321 12.3474 3.98698 12.6536C3.63691 13.0037 3.16174 13.2005 2.66667 13.2005C2.1716 13.2005 1.69642 13.0037 1.34636 12.6536C1.04013 12.3474 0.851091 11.9454 0.808595 11.5182L0.79948 11.3333C0.79948 10.8383 0.996288 10.3631 1.34636 10.013C1.69642 9.66295 2.1716 9.46615 2.66667 9.46615C3.16174 9.46615 3.63691 9.66295 3.98698 10.013C4.33705 10.3631 4.53386 10.8383 4.53386 11.3333L4.52474 11.5182Z" fill="currentColor"/>
<path d="M9.46615 11.3333C9.46615 11.1212 9.3818 10.9183 9.23177 10.7682C9.08174 10.6182 8.87884 10.5339 8.66667 10.5339C8.45449 10.5339 8.25159 10.6182 8.10156 10.7682C7.95153 10.9183 7.86719 11.1212 7.86719 11.3333C7.86719 11.5455 7.95153 11.7484 8.10156 11.8984C8.25159 12.0485 8.45449 12.1328 8.66667 12.1328C8.87884 12.1328 9.08174 12.0485 9.23177 11.8984C9.3818 11.7484 9.46615 11.5455 9.46615 11.3333ZM10.5339 11.3333C10.5339 11.8284 10.337 12.3036 9.98698 12.6536C9.63691 13.0037 9.16174 13.2005 8.66667 13.2005C8.1716 13.2005 7.69642 13.0037 7.34635 12.6536C6.99629 12.3036 6.79948 11.8284 6.79948 11.3333C6.79948 10.8383 6.99629 10.3631 7.34635 10.013C7.69642 9.66295 8.1716 9.46615 8.66667 9.46615C9.16174 9.46615 9.63691 9.66295 9.98698 10.013C10.337 10.3631 10.5339 10.8383 10.5339 11.3333Z" fill="currentColor"/>
<path d="M8.66667 12.1328L8.77474 12.1445C9.01745 12.1945 9.20052 12.4092 9.20052 12.6667C9.20052 12.9242 9.01745 13.1388 8.77474 13.1888L8.66667 13.2005H2.66667C2.37212 13.2005 2.13281 12.9612 2.13281 12.6667C2.13281 12.3721 2.37212 12.1328 2.66667 12.1328H8.66667Z" fill="currentColor"/>
<path d="M8.66667 9.46615L8.77474 9.47786C9.01745 9.52784 9.20052 9.74249 9.20052 10C9.20052 10.2575 9.01745 10.4722 8.77474 10.5221L8.66667 10.5339H2.66667C2.37212 10.5339 2.13281 10.2946 2.13281 10C2.13281 9.70545 2.37212 9.46615 2.66667 9.46615H8.66667Z" fill="currentColor"/>
<path d="M8.13281 10V6.66667C8.13281 6.27768 7.97818 5.90526 7.70313 5.63021C7.42807 5.35515 7.05565 5.20052 6.66667 5.20052H5.86719V8C5.86719 8.29455 5.62789 8.53385 5.33333 8.53385C5.03878 8.53385 4.79948 8.29455 4.79948 8V4.66667L4.8112 4.55859C4.86117 4.31588 5.07583 4.13281 5.33333 4.13281H6.66667C7.33855 4.13281 7.98324 4.39991 8.45833 4.875C8.93343 5.35009 9.20052 5.99478 9.20052 6.66667V10C9.20052 10.2946 8.96122 10.5339 8.66667 10.5339C8.37212 10.5339 8.13281 10.2946 8.13281 10Z" fill="currentColor"/>
<path d="M2.79948 10V8.66667C2.79948 8.34841 2.926 8.04275 3.15104 7.81771C3.37609 7.59266 3.68174 7.46615 4 7.46615H8.66667L8.77474 7.47786C9.01745 7.52784 9.20052 7.74249 9.20052 8C9.20052 8.25751 9.01745 8.47216 8.77474 8.52214L8.66667 8.53385H4C3.96464 8.53385 3.93126 8.54791 3.90625 8.57292C3.88125 8.59792 3.86719 8.6313 3.86719 8.66667V10C3.86719 10.2946 3.62789 10.5339 3.33333 10.5339C3.03878 10.5339 2.79948 10.2946 2.79948 10Z" fill="currentColor"/>
<path d="M12.724 2.13672C12.8844 2.15416 13.0288 2.243 13.1159 2.37891L15.1966 5.63281L15.2448 5.72917C15.3338 5.9607 15.251 6.23097 15.0339 6.36979C14.8167 6.50843 14.5373 6.46961 14.3646 6.29167L14.2969 6.20703L12.5742 3.51302L9.71094 6.3776C9.50266 6.58588 9.16401 6.58588 8.95573 6.3776C8.74745 6.16932 8.74745 5.83067 8.95573 5.6224L12.2891 2.28906L12.3828 2.21484C12.4834 2.15162 12.6035 2.1237 12.724 2.13672Z" fill="currentColor"/>
<path d="M14.0802 6.05281C14.2217 6.05286 14.3578 6.11024 14.4578 6.21036C14.8112 6.56445 15.0516 7.01525 15.1492 7.50594C15.2467 7.99706 15.1975 8.50685 15.0059 8.96948C14.8144 9.43206 14.4898 9.82783 14.0736 10.1062C13.6575 10.3845 13.168 10.5328 12.6674 10.5333C11.9958 10.5327 11.3503 10.265 10.8757 9.78979C10.668 9.58147 10.6677 9.24397 10.8757 9.03588L13.7026 6.20906L13.7846 6.14266C13.8715 6.08482 13.9742 6.05278 14.0802 6.05281ZM12.0789 9.34187C12.2624 9.4225 12.4618 9.46525 12.6661 9.46557C12.9558 9.46532 13.2391 9.38044 13.4799 9.21948C13.7209 9.0583 13.9094 8.82846 14.0203 8.56062C14.131 8.29294 14.16 7.99841 14.1036 7.71427C14.083 7.61037 14.0479 7.51091 14.0059 7.41479L12.0789 9.34187Z" fill="currentColor"/>
</svg>
