<svg width="16" height="16" viewBox="0 0 16 16" fill="none" xmlns="http://www.w3.org/2000/svg">
<path d="M6.46613 6C6.46613 5.61102 6.31149 5.23859 6.03644 4.96354C5.76138 4.68849 5.38896 4.53385 4.99998 4.53385H2.53383V11.4661H4.99998L5.14451 11.4596C5.48043 11.4264 5.79566 11.2772 6.03644 11.0365C6.31149 10.7614 6.46613 10.389 6.46613 10C6.46613 9.61102 6.31149 9.23859 6.03644 8.96354C5.79566 8.72276 5.48043 8.57362 5.14451 8.54036L4.99998 8.53385L4.89191 8.52214C4.64919 8.47216 4.46613 8.25751 4.46613 8C4.46613 7.70545 4.70543 7.46615 4.99998 7.46615L5.14451 7.45964C5.48043 7.42638 5.79566 7.27724 6.03644 7.03646C6.31149 6.7614 6.46613 6.38898 6.46613 6ZM7.53383 6C7.53383 6.67188 7.26674 7.31657 6.79165 7.79167C6.71607 7.86724 6.63433 7.9352 6.55076 8C6.63433 8.0648 6.71607 8.13276 6.79165 8.20833C7.26674 8.68343 7.53383 9.32812 7.53383 10C7.53383 10.6719 7.26674 11.3166 6.79165 11.7917C6.37585 12.2075 5.83006 12.4633 5.24998 12.5208L4.99998 12.5339H1.99998C1.70543 12.5339 1.46613 12.2946 1.46613 12V4L1.47784 3.89193C1.52782 3.64921 1.74247 3.46615 1.99998 3.46615H4.99998C5.67186 3.46615 6.31655 3.73324 6.79165 4.20833C7.26674 4.68343 7.53383 5.32812 7.53383 6Z" fill="currentColor"/>
<path d="M4.99998 7.46615L5.10805 7.47786C5.35077 7.52784 5.53383 7.74249 5.53383 8C5.53383 8.25751 5.35077 8.47216 5.10805 8.52214L4.99998 8.53385H1.99998C1.70543 8.53385 1.46613 8.29455 1.46613 8C1.46613 7.70545 1.70543 7.46615 1.99998 7.46615H4.99998Z" fill="currentColor"/>
<path d="M11.6666 5.79948C12.4269 5.79948 13.1564 6.10172 13.694 6.63932C14.2316 7.17693 14.5338 7.90638 14.5338 8.66667C14.5338 8.96122 14.2945 9.20052 14 9.20052H9.86717V9.95703C9.92506 10.3306 10.0986 10.6773 10.3646 10.9466C10.6375 11.2228 10.9923 11.403 11.3763 11.4609C11.7606 11.5188 12.1536 11.4508 12.4961 11.2669C12.8384 11.0831 13.1119 10.7937 13.276 10.4414L13.332 10.349C13.4797 10.1496 13.752 10.0748 13.9857 10.1836C14.2523 10.3081 14.3677 10.6251 14.2435 10.8919L14.138 11.0977C13.8721 11.5658 13.4783 11.9508 13.0013 12.207C12.4559 12.4998 11.8295 12.6078 11.2174 12.5156C10.6056 12.4234 10.0402 12.1356 9.60545 11.6953C9.225 11.31 8.96264 10.8264 8.84633 10.3008L8.80467 10.0729C8.80134 10.0488 8.79946 10.0244 8.79946 10V8.66667C8.79946 7.90638 9.1017 7.17693 9.6393 6.63932C10.1769 6.10172 10.9064 5.79948 11.6666 5.79948ZM11.6666 6.86719C11.1893 6.86719 10.7308 7.05566 10.3932 7.39323C10.1848 7.60159 10.0337 7.85649 9.9479 8.13281H13.3854C13.2996 7.85649 13.1484 7.60159 12.9401 7.39323C12.6025 7.05566 12.144 6.86719 11.6666 6.86719Z" fill="currentColor"/>
<path d="M12.6666 3.46615L12.7747 3.47786C13.0174 3.52784 13.2005 3.74249 13.2005 4C13.2005 4.25751 13.0174 4.47216 12.7747 4.52214L12.6666 4.53385H10.6666C10.3721 4.53385 10.1328 4.29455 10.1328 4C10.1328 3.70545 10.3721 3.46615 10.6666 3.46615H12.6666Z" fill="currentColor"/>
</svg>
