<svg width="16" height="16" viewBox="0 0 16 16" fill="none" xmlns="http://www.w3.org/2000/svg">
<path fill-rule="evenodd" clip-rule="evenodd" d="M1.46667 10C1.46667 9.70545 1.70546 9.46666 2.00001 9.46666H14C14.2946 9.46666 14.5333 9.70545 14.5333 10C14.5333 10.2945 14.2946 10.5333 14 10.5333H2.00001C1.70546 10.5333 1.46667 10.2945 1.46667 10Z" fill="currentColor"/>
<path fill-rule="evenodd" clip-rule="evenodd" d="M1.46667 12.6667C1.46667 12.3721 1.70546 12.1333 2.00001 12.1333H14C14.2946 12.1333 14.5333 12.3721 14.5333 12.6667C14.5333 12.9612 14.2946 13.2 14 13.2H2.00001C1.70546 13.2 1.46667 12.9612 1.46667 12.6667Z" fill="currentColor"/>
<path fill-rule="evenodd" clip-rule="evenodd" d="M9.46667 7.33333C9.46667 7.03878 9.70546 6.8 10 6.8H14C14.2946 6.8 14.5333 7.03878 14.5333 7.33333C14.5333 7.62788 14.2946 7.86666 14 7.86666H10C9.70546 7.86666 9.46667 7.62788 9.46667 7.33333Z" fill="currentColor"/>
<path fill-rule="evenodd" clip-rule="evenodd" d="M9.46667 4.66666C9.46667 4.37211 9.70546 4.13333 10 4.13333H14C14.2946 4.13333 14.5333 4.37211 14.5333 4.66666C14.5333 4.96122 14.2946 5.2 14 5.2H10C9.70546 5.2 9.46667 4.96122 9.46667 4.66666Z" fill="currentColor"/>
<path fill-rule="evenodd" clip-rule="evenodd" d="M7.33334 4.2C6.89456 4.2 6.53334 4.56122 6.53334 5V5.46666H6.66667C6.98787 5.46666 7.29698 5.57606 7.52713 5.80621C7.75728 6.03636 7.86667 6.34547 7.86667 6.66666C7.86667 6.98786 7.75728 7.29697 7.52713 7.52712C7.29698 7.75727 6.98787 7.86666 6.66667 7.86666C6.34548 7.86666 6.03637 7.75727 5.80622 7.52712C5.57607 7.29697 5.46667 6.98786 5.46667 6.66666V5C5.46667 3.97211 6.30546 3.13333 7.33334 3.13333C7.62789 3.13333 7.86667 3.37211 7.86667 3.66666C7.86667 3.96122 7.62789 4.2 7.33334 4.2Z" fill="currentColor"/>
<path fill-rule="evenodd" clip-rule="evenodd" d="M3.33334 4.2C2.89456 4.2 2.53334 4.56122 2.53334 5V5.46666H2.66667C2.98787 5.46666 3.29698 5.57606 3.52713 5.80621C3.75728 6.03636 3.86667 6.34547 3.86667 6.66666C3.86667 6.98786 3.75728 7.29697 3.52713 7.52712C3.29698 7.75727 2.98787 7.86666 2.66667 7.86666C2.34548 7.86666 2.03637 7.75727 1.80622 7.52712C1.57607 7.29697 1.46667 6.98786 1.46667 6.66666V5C1.46667 3.97211 2.30546 3.13333 3.33334 3.13333C3.62789 3.13333 3.86667 3.37211 3.86667 3.66666C3.86667 3.96122 3.62789 4.2 3.33334 4.2Z" fill="currentColor"/>
</svg>
