<svg width="16" height="16" viewBox="0 0 16 16" fill="none" xmlns="http://www.w3.org/2000/svg">
<path fill-rule="evenodd" clip-rule="evenodd" d="M4.13336 3.33334C4.13336 3.03878 4.37214 2.8 4.6667 2.8H8.6667C10.2279 2.8 11.5334 4.10545 11.5334 5.66667C11.5334 7.22789 10.2279 8.53334 8.6667 8.53334H4.6667C4.37214 8.53334 4.13336 8.29456 4.13336 8V3.33334ZM5.20003 3.86667V7.46667H8.6667C9.63881 7.46667 10.4667 6.63878 10.4667 5.66667C10.4667 4.69456 9.63881 3.86667 8.6667 3.86667H5.20003Z" fill="currentColor"/>
<path fill-rule="evenodd" clip-rule="evenodd" d="M4.6667 7.46667C4.96125 7.46667 5.20003 7.70545 5.20003 8V12.1333H9.33336C10.3055 12.1333 11.1334 11.3055 11.1334 10.3333C11.1334 9.36122 10.3055 8.53334 9.33336 8.53334H8.6667C8.37214 8.53334 8.13336 8.29456 8.13336 8C8.13336 7.70545 8.37214 7.46667 8.6667 7.46667H9.33336C10.8946 7.46667 12.2 8.77212 12.2 10.3333C12.2 11.8946 10.8946 13.2 9.33336 13.2H4.6667C4.37214 13.2 4.13336 12.9612 4.13336 12.6667V8C4.13336 7.70545 4.37214 7.46667 4.6667 7.46667Z" fill="currentColor"/>
</svg>
