<svg width="16" height="16" viewBox="0 0 16 16" fill="none" xmlns="http://www.w3.org/2000/svg">
<path d="M11.4661 8V4.66667C11.4661 4.10087 11.2425 3.55763 10.8424 3.15755C10.4424 2.75747 9.89911 2.53385 9.33331 2.53385H6.66665C6.10085 2.53385 5.55761 2.75747 5.15753 3.15755C4.75745 3.55763 4.53383 4.10087 4.53383 4.66667V13.0026L7.70441 10.8893L7.79946 10.8385C8.02925 10.7451 8.30103 10.8233 8.44399 11.0378C8.58676 11.2522 8.55353 11.5322 8.37889 11.7083L8.29555 11.7773L4.29555 14.444C4.132 14.5529 3.92195 14.5627 3.74868 14.4701C3.57526 14.3772 3.46613 14.1967 3.46613 14V4.66667C3.46613 3.81797 3.80351 3.00376 4.40363 2.40365C5.00374 1.80353 5.81795 1.46615 6.66665 1.46615H9.33331C10.182 1.46615 10.9962 1.80353 11.5963 2.40365C12.1965 3.00376 12.5338 3.81797 12.5338 4.66667V8C12.5338 8.29455 12.2945 8.53385 12 8.53385C11.7054 8.53385 11.4661 8.29455 11.4661 8Z" fill="currentColor"/>
<path d="M14.6666 12.1328L14.7747 12.1445C15.0174 12.1945 15.2005 12.4092 15.2005 12.6667C15.2005 12.9242 15.0174 13.1388 14.7747 13.1888L14.6666 13.2005H10.6666C10.3721 13.2005 10.1328 12.9612 10.1328 12.6667C10.1328 12.3721 10.3721 12.1328 10.6666 12.1328H14.6666Z" fill="currentColor"/>
<path d="M12.1328 14.6667V10.6667C12.1328 10.3721 12.3721 10.1328 12.6666 10.1328C12.9612 10.1328 13.2005 10.3721 13.2005 10.6667V14.6667C13.2005 14.9612 12.9612 15.2005 12.6666 15.2005C12.3721 15.2005 12.1328 14.9612 12.1328 14.6667Z" fill="currentColor"/>
</svg>
