<svg width="16" height="16" viewBox="0 0 16 16" fill="none" xmlns="http://www.w3.org/2000/svg">
<path d="M11.4661 4.66667C11.4661 4.10087 11.2425 3.55763 10.8424 3.15755C10.4423 2.75748 9.89911 2.53385 9.33331 2.53385H6.66665C6.10085 2.53385 5.55761 2.75748 5.15753 3.15755C4.75745 3.55763 4.53383 4.10087 4.53383 4.66667V13.0026L7.70441 10.8893L7.77342 10.8503C7.94047 10.7719 8.1388 10.785 8.29555 10.8893L11.4661 13.0026V4.66667ZM12.5338 14C12.5338 14.1967 12.4247 14.3772 12.2513 14.4701C12.078 14.5627 11.868 14.5529 11.7044 14.444L7.99998 11.974L4.29555 14.444C4.132 14.5529 3.92195 14.5627 3.74868 14.4701C3.57526 14.3772 3.46613 14.1967 3.46613 14V4.66667C3.46613 3.81797 3.80351 3.00376 4.40363 2.40365C5.00374 1.80353 5.81795 1.46615 6.66665 1.46615H9.33331C10.182 1.46615 10.9962 1.80353 11.5963 2.40365C12.1964 3.00376 12.5338 3.81797 12.5338 4.66667V14Z" fill="currentColor"/>
</svg>
