<svg width="16" height="16" viewBox="0 0 16 16" fill="none" xmlns="http://www.w3.org/2000/svg">
<path fill-rule="evenodd" clip-rule="evenodd" d="M6.13333 5.33333C6.13333 3.19878 7.86545 1.46667 10 1.46667H12C12.2945 1.46667 12.5333 1.70545 12.5333 2V4.66667C12.5333 4.96122 12.2945 5.2 12 5.2H10C9.92788 5.2 9.86666 5.26122 9.86666 5.33333V6.13333H12C12.1642 6.13333 12.3193 6.209 12.4204 6.33845C12.5214 6.4679 12.5572 6.63669 12.5174 6.79602L11.8507 9.46269C11.7914 9.70011 11.5781 9.86667 11.3333 9.86667H9.86666V14C9.86666 14.2946 9.62788 14.5333 9.33333 14.5333H6.66666C6.37211 14.5333 6.13333 14.2946 6.13333 14V9.86667H4.66666C4.37211 9.86667 4.13333 9.62789 4.13333 9.33333V6.66667C4.13333 6.37212 4.37211 6.13333 4.66666 6.13333H6.13333V5.33333ZM10 2.53333C8.45455 2.53333 7.2 3.78789 7.2 5.33333V6.66667C7.2 6.96122 6.96122 7.2 6.66666 7.2H5.2V8.8H6.66666C6.96122 8.8 7.2 9.03878 7.2 9.33333V13.4667H8.8V9.33333C8.8 9.03878 9.03878 8.8 9.33333 8.8H10.9169L11.3169 7.2H9.33333C9.03878 7.2 8.8 6.96122 8.8 6.66667V5.33333C8.8 4.67212 9.33878 4.13333 10 4.13333H11.4667V2.53333H10Z" fill="currentColor"/>
</svg>
