<svg width="16" height="16" viewBox="0 0 16 16" fill="none" xmlns="http://www.w3.org/2000/svg">
<path fill-rule="evenodd" clip-rule="evenodd" d="M12.8263 2.73201C11.8878 1.88044 10.6019 1.97135 9.54607 2.36728C8.2783 2.8427 7.46667 3.97024 7.46667 5.33333V5.46023C5.72528 5.35997 4.16201 4.47565 3.09728 3.01865C2.99047 2.87248 2.8168 2.79048 2.63606 2.80087C2.45533 2.81126 2.2922 2.91263 2.20284 3.07007L2.66667 3.33333C2.20284 3.07007 2.203 3.0698 2.20284 3.07007L2.20217 3.07125L2.20125 3.07288L2.19866 3.07752L2.19059 3.09218C2.18397 3.10431 2.17493 3.12115 2.1638 3.14246C2.14156 3.18506 2.11094 3.24563 2.07473 3.32234C2.00241 3.47555 1.90724 3.69428 1.81185 3.96361C1.62213 4.49931 1.42587 5.25109 1.4167 6.0942C1.40749 6.94151 1.58763 7.88944 2.15975 8.79352C2.60486 9.49691 3.27217 10.1499 4.22609 10.7039C3.30119 11.2087 2.41313 11.5131 1.35651 11.4672C1.10862 11.4564 0.886044 11.618 0.819528 11.857C0.753012 12.0961 0.860127 12.3494 1.07795 12.4682C3.36866 13.7177 5.91329 14.1601 8.14576 13.513C10.7214 12.7965 12.7921 10.8603 13.6442 8.01991C13.6466 8.012 13.6487 8.00403 13.6507 7.99601C13.8518 7.19163 13.9905 6.31358 13.9995 5.42516C14.0225 5.37453 14.0571 5.30335 14.1031 5.21142C14.1465 5.12461 14.1971 5.02511 14.2533 4.9146L14.269 4.88367C14.3312 4.76149 14.3991 4.62778 14.4687 4.48851C14.7366 3.95263 15.0671 3.26402 15.1841 2.79601C15.2346 2.59395 15.1629 2.38097 15.0004 2.25064C14.8379 2.12031 14.6145 2.09649 14.4282 2.18963C13.9787 2.41436 13.5477 2.533 13.063 2.66643C12.9856 2.68775 12.9068 2.70945 12.8263 2.73201ZM2.80958 4.34171C2.64783 4.80386 2.49069 5.42641 2.48331 6.10579C2.47585 6.79181 2.62071 7.52722 3.0611 8.22313C3.50084 8.91804 4.26019 9.61305 5.54773 10.1783C5.72834 10.2576 5.85044 10.4301 5.86518 10.6268C5.87992 10.8235 5.7849 11.0123 5.61814 11.1176C4.87095 11.5895 4.11441 12.0147 3.27882 12.2744C4.86187 12.8072 6.4525 12.8939 7.85131 12.4878L7.85725 12.4861C10.0767 11.8696 11.8693 10.2105 12.6189 7.72522C12.8092 6.96077 12.9333 6.14272 12.9333 5.33333C12.9333 5.25991 12.9483 5.20143 12.9538 5.18051C12.9613 5.15171 12.97 5.12627 12.9769 5.10745C12.9907 5.06954 13.0076 5.03026 13.0236 4.99467C13.0561 4.92221 13.1002 4.83208 13.149 4.7344C13.194 4.64439 13.2461 4.54191 13.3017 4.43276L13.3182 4.40017C13.3803 4.27808 13.4468 4.14721 13.5146 4.01148C13.5851 3.8706 13.6547 3.72886 13.7209 3.59029C13.5676 3.63526 13.4173 3.67651 13.2721 3.71639C13.1147 3.75959 12.9632 3.80118 12.8199 3.84417C12.6167 3.90514 12.3966 3.83982 12.2595 3.67783C11.7426 3.06692 10.9019 2.99806 9.92061 3.36604C9.05505 3.69062 8.53334 4.42975 8.53334 5.33333V5.99999C8.53334 6.28806 8.30459 6.52407 8.01666 6.53307C6.00123 6.59605 4.15421 5.78102 2.80958 4.34171Z" fill="currentColor"/>
</svg>
