<svg width="16" height="16" viewBox="0 0 16 16" fill="none" xmlns="http://www.w3.org/2000/svg">
<path fill-rule="evenodd" clip-rule="evenodd" d="M3.81697 2.93334C3.33217 2.93334 2.9333 3.3322 2.9333 3.817V12.319C2.9333 12.8038 3.33217 13.2027 3.81697 13.2027H12.319C12.8038 13.2027 13.2026 12.8038 13.2026 12.319V3.817C13.2026 3.3322 12.8038 2.93334 12.319 2.93334H3.81697ZM1.86664 3.817C1.86664 2.7431 2.74307 1.86667 3.81697 1.86667H12.319C13.3929 1.86667 14.2693 2.7431 14.2693 3.817V12.319C14.2693 13.3929 13.3929 14.2693 12.319 14.2693H3.81697C2.74307 14.2693 1.86664 13.3929 1.86664 12.319V3.817Z" fill="currentColor"/>
<path fill-rule="evenodd" clip-rule="evenodd" d="M5.23411 6.8261C5.52866 6.8261 5.76744 7.06488 5.76744 7.35943V10.9019C5.76744 11.1965 5.52866 11.4353 5.23411 11.4353C4.93956 11.4353 4.70078 11.1965 4.70078 10.9019V7.35943C4.70078 7.06488 4.93956 6.8261 5.23411 6.8261Z" fill="currentColor"/>
<path fill-rule="evenodd" clip-rule="evenodd" d="M8.06797 6.8261C8.36252 6.8261 8.6013 7.06488 8.6013 7.35943V10.9019C8.6013 11.1965 8.36252 11.4353 8.06797 11.4353C7.77342 11.4353 7.53464 11.1965 7.53464 10.9019V7.35943C7.53464 7.06488 7.77342 6.8261 8.06797 6.8261Z" fill="currentColor"/>
<path fill-rule="evenodd" clip-rule="evenodd" d="M7.53464 8.77643C7.53464 7.70253 8.41107 6.8261 9.48497 6.8261C10.5589 6.8261 11.4353 7.70253 11.4353 8.77643V10.9019C11.4353 11.1965 11.1965 11.4353 10.902 11.4353C10.6074 11.4353 10.3686 11.1965 10.3686 10.9019V8.77643C10.3686 8.29163 9.96977 7.89277 9.48497 7.89277C9.00017 7.89277 8.6013 8.29163 8.6013 8.77643C8.6013 9.07098 8.36252 9.30977 8.06797 9.30977C7.77342 9.30977 7.53464 9.07098 7.53464 8.77643Z" fill="currentColor"/>
<path d="M5.05685 6.29668C4.73802 6.29668 4.52547 6.08413 4.52547 5.76531C4.52547 5.44648 4.73802 5.23393 5.05685 5.23393C5.37567 5.23393 5.58822 5.44648 5.58822 5.76531C5.58822 6.08413 5.37567 6.29668 5.05685 6.29668Z" fill="currentColor"/>
</svg>
