<svg width="16" height="16" viewBox="0 0 16 16" fill="none" xmlns="http://www.w3.org/2000/svg">
<path fill-rule="evenodd" clip-rule="evenodd" d="M11.5527 3.85203C10.5397 2.98802 9.24624 2.52339 7.91503 2.54533C6.58382 2.56726 5.30637 3.07426 4.32242 3.97117C3.33846 4.86808 2.71565 6.09324 2.57086 7.41674C2.42606 8.74024 2.76925 10.0711 3.536 11.1595C3.64312 11.3116 3.66328 11.5085 3.5892 11.6791L2.88516 13.3005L5.27308 12.8749C5.38457 12.8551 5.49948 12.8712 5.60119 12.921C6.79694 13.5065 8.16526 13.6354 9.44935 13.2837C10.7334 12.9319 11.845 12.1237 12.5755 11.0106C13.306 9.89745 13.6051 8.55602 13.4168 7.23802C13.2285 5.92001 12.5656 4.71603 11.5527 3.85203ZM1.93791 14.5299C1.99282 14.5363 2.04775 14.534 2.10083 14.5238L5.29268 13.9549C6.6829 14.5894 8.25368 14.7172 9.73116 14.3125C11.2658 13.8921 12.5943 12.9261 13.4673 11.5958C14.3403 10.2655 14.6978 8.66232 14.4727 7.08714C14.2477 5.51196 13.4555 4.07306 12.2449 3.04047C11.0343 2.00788 9.48842 1.45259 7.89746 1.4788C6.3065 1.50502 4.77979 2.11094 3.60384 3.18286C2.4279 4.25477 1.68356 5.719 1.51052 7.30074C1.34851 8.78156 1.69766 10.2701 2.49479 11.5214L1.51371 13.7809C1.49145 13.8301 1.47655 13.883 1.47014 13.9379C1.46245 14.0034 1.46715 14.0689 1.48302 14.1312C1.50191 14.2059 1.53605 14.2734 1.58146 14.3307C1.66833 14.4405 1.79645 14.5133 1.93791 14.5299Z" fill="currentColor"/>
<path fill-rule="evenodd" clip-rule="evenodd" d="M5.7205 5.38717C5.88303 5.22464 6.10347 5.13333 6.33332 5.13333C6.56318 5.13333 6.78362 5.22464 6.94615 5.38717C7.10868 5.54971 7.19999 5.77015 7.19999 6V6.66667C7.19999 6.89652 7.10868 7.11696 6.94615 7.27949C6.86148 7.36417 6.76109 7.42951 6.65184 7.47268C6.7839 7.912 7.02315 8.31629 7.35343 8.64657C7.6837 8.97684 8.08799 9.21609 8.52731 9.34815C8.57048 9.2389 8.63583 9.13851 8.7205 9.05384C8.88303 8.89131 9.10347 8.8 9.33332 8.8H9.99999C10.2298 8.8 10.4503 8.89131 10.6128 9.05384C10.7753 9.21637 10.8667 9.43682 10.8667 9.66667C10.8667 9.89652 10.7753 10.117 10.6128 10.2795C10.4503 10.442 10.2298 10.5333 9.99999 10.5333H9.33332C8.30782 10.5333 7.32432 10.126 6.59918 9.40081C5.87404 8.67567 5.46666 7.69217 5.46666 6.66667V6C5.46666 5.77015 5.55797 5.54971 5.7205 5.38717Z" fill="currentColor"/>
</svg>
