<svg width="16" height="16" viewBox="0 0 16 16" fill="none" xmlns="http://www.w3.org/2000/svg">
<path fill-rule="evenodd" clip-rule="evenodd" d="M8.66665 2.13334C8.96121 2.13334 9.19999 2.37212 9.19999 2.66667C9.19999 4.21212 10.4545 5.46667 12 5.46667C12.2945 5.46667 12.5333 5.70545 12.5333 6C12.5333 6.29455 12.2945 6.53334 12 6.53334C10.8986 6.53334 9.90442 6.07222 9.19999 5.33262V10.6667C9.19999 12.4346 7.76787 13.8667 5.99999 13.8667C4.2321 13.8667 2.79999 12.4346 2.79999 10.6667C2.79999 8.89878 4.2321 7.46667 5.99999 7.46667C6.29454 7.46667 6.53332 7.70545 6.53332 8C6.53332 8.29455 6.29454 8.53334 5.99999 8.53334C4.82121 8.53334 3.86665 9.48789 3.86665 10.6667C3.86665 11.8455 4.82121 12.8 5.99999 12.8C7.17877 12.8 8.13332 11.8455 8.13332 10.6667V2.66667C8.13332 2.37212 8.3721 2.13334 8.66665 2.13334Z" fill="currentColor"/>
</svg>
