<svg width="16" height="16" viewBox="0 0 16 16" fill="none" xmlns="http://www.w3.org/2000/svg">
<path fill-rule="evenodd" clip-rule="evenodd" d="M4.66668 3.86667C3.48789 3.86667 2.53334 4.82122 2.53334 6V10C2.53334 11.1788 3.48789 12.1333 4.66668 12.1333H11.3333C12.5121 12.1333 13.4667 11.1788 13.4667 10V6C13.4667 4.82122 12.5121 3.86667 11.3333 3.86667H4.66668ZM1.46667 6C1.46667 4.23211 2.89879 2.8 4.66668 2.8H11.3333C13.1012 2.8 14.5333 4.23211 14.5333 6V10C14.5333 11.7679 13.1012 13.2 11.3333 13.2H4.66668C2.89879 13.2 1.46667 11.7679 1.46667 10V6Z" fill="currentColor"/>
<path fill-rule="evenodd" clip-rule="evenodd" d="M6.4039 5.53589C6.57111 5.44122 6.77631 5.44381 6.94107 5.54267L10.2744 7.54267C10.435 7.63906 10.5333 7.81266 10.5333 8C10.5333 8.18734 10.435 8.36094 10.2744 8.45733L6.94107 10.4573C6.77631 10.5562 6.57111 10.5588 6.4039 10.4641C6.2367 10.3694 6.13334 10.1921 6.13334 10V6C6.13334 5.80785 6.2367 5.63056 6.4039 5.53589ZM7.20001 6.94197V9.05803L8.96339 8L7.20001 6.94197Z" fill="currentColor"/>
</svg>
