<svg width="16" height="16" viewBox="0 0 16 16" fill="none" xmlns="http://www.w3.org/2000/svg">
<path d="M10.6667 13.6667H5.33333C3.66666 13.6667 2.33333 12.3333 2.33333 10.6667V5.33333C2.33333 3.66666 3.66666 2.33333 5.33333 2.33333H10.6667C12.3333 2.33333 13.6667 3.66666 13.6667 5.33333V10.6667C13.6667 12.3333 12.3333 13.6667 10.6667 13.6667ZM5.33333 3C4.06666 3 3 4.06666 3 5.33333V10.6667C3 11.9333 4.06666 13 5.33333 13H10.6667C11.9333 13 13 11.9333 13 10.6667V5.33333C13 4.06666 11.9333 3 10.6667 3H5.33333Z" fill="currentColor"/>
<path fill-rule="evenodd" clip-rule="evenodd" d="M5.33333 2.53333C3.77712 2.53333 2.53333 3.77712 2.53333 5.33333V10.6667C2.53333 12.2229 3.77712 13.4667 5.33333 13.4667H10.6667C12.2229 13.4667 13.4667 12.2229 13.4667 10.6667V5.33333C13.4667 3.77712 12.2229 2.53333 10.6667 2.53333H5.33333ZM2.13333 5.33333C2.13333 3.55621 3.55621 2.13333 5.33333 2.13333H10.6667C12.4438 2.13333 13.8667 3.55621 13.8667 5.33333V10.6667C13.8667 12.4438 12.4438 13.8667 10.6667 13.8667H5.33333C3.55621 13.8667 2.13333 12.4438 2.13333 10.6667V5.33333ZM2.8 5.33333C2.8 3.95621 3.95621 2.8 5.33333 2.8H10.6667C12.0438 2.8 13.2 3.95621 13.2 5.33333V10.6667C13.2 12.0438 12.0438 13.2 10.6667 13.2H5.33333C3.95621 13.2 2.8 12.0438 2.8 10.6667V5.33333ZM5.33333 3.2C4.17712 3.2 3.2 4.17712 3.2 5.33333V10.6667C3.2 11.8229 4.17712 12.8 5.33333 12.8H10.6667C11.8229 12.8 12.8 11.8229 12.8 10.6667V5.33333C12.8 4.17712 11.8229 3.2 10.6667 3.2H5.33333Z" fill="currentColor"/>
<path d="M8 10.3333C6.73333 10.3333 5.66666 9.26666 5.66666 8C5.66666 6.73333 6.73333 5.66666 8 5.66666C9.26666 5.66666 10.3333 6.73333 10.3333 8C10.3333 9.26666 9.26666 10.3333 8 10.3333ZM8 6.33333C7.06666 6.33333 6.33333 7.06666 6.33333 8C6.33333 8.93333 7.06666 9.66667 8 9.66667C8.93333 9.66667 9.66667 8.93333 9.66667 8C9.66667 7.06666 8.93333 6.33333 8 6.33333Z" fill="currentColor"/>
<path fill-rule="evenodd" clip-rule="evenodd" d="M8 5.86666C6.84379 5.86666 5.86666 6.84379 5.86666 8C5.86666 9.15621 6.84379 10.1333 8 10.1333C9.15621 10.1333 10.1333 9.15621 10.1333 8C10.1333 6.84379 9.15621 5.86666 8 5.86666ZM5.46666 8C5.46666 6.62287 6.62287 5.46666 8 5.46666C9.37712 5.46666 10.5333 6.62287 10.5333 8C10.5333 9.37712 9.37712 10.5333 8 10.5333C6.62287 10.5333 5.46666 9.37712 5.46666 8ZM6.13333 8C6.13333 6.95621 6.95621 6.13333 8 6.13333C9.04379 6.13333 9.86666 6.95621 9.86666 8C9.86666 9.04379 9.04379 9.86666 8 9.86666C6.95621 9.86666 6.13333 9.04379 6.13333 8ZM8 6.53333C7.17712 6.53333 6.53333 7.17712 6.53333 8C6.53333 8.82287 7.17712 9.46666 8 9.46666C8.82287 9.46666 9.46666 8.82287 9.46666 8C9.46666 7.17712 8.82287 6.53333 8 6.53333Z" fill="currentColor"/>
<path d="M11 5.33333C11.1841 5.33333 11.3333 5.18409 11.3333 5C11.3333 4.8159 11.1841 4.66666 11 4.66666C10.8159 4.66666 10.6667 4.8159 10.6667 5C10.6667 5.18409 10.8159 5.33333 11 5.33333Z" fill="currentColor"/>
<path fill-rule="evenodd" clip-rule="evenodd" d="M11 4.86666C10.9264 4.86666 10.8667 4.92636 10.8667 5C10.8667 5.07364 10.9264 5.13333 11 5.13333C11.0736 5.13333 11.1333 5.07364 11.1333 5C11.1333 4.92636 11.0736 4.86666 11 4.86666ZM10.4667 5C10.4667 4.70545 10.7054 4.46666 11 4.46666C11.2945 4.46666 11.5333 4.70545 11.5333 5C11.5333 5.29455 11.2945 5.53333 11 5.53333C10.7054 5.53333 10.4667 5.29455 10.4667 5Z" fill="currentColor"/>
</svg>
