<svg width="16" height="16" viewBox="0 0 16 16" fill="none" xmlns="http://www.w3.org/2000/svg">
<path d="M11.25 13.6666H4.25004C3.55004 13.6666 3.00004 12.9333 3.00004 12V5.99997C3.00004 5.06663 3.55004 4.3333 4.25004 4.3333H11.25C11.95 4.3333 12.5 5.06663 12.5 5.99997V12C12.5 12.9333 11.95 13.6666 11.25 13.6666ZM4.25004 4.99997C3.85004 4.99997 3.50004 5.46663 3.50004 5.99997V12C3.50004 12.5333 3.85004 13 4.25004 13H11.25C11.65 13 12 12.5333 12 12V5.99997C12 5.46663 11.65 4.99997 11.25 4.99997H4.25004Z" fill="currentColor"/>
<path d="M10.25 5.00003C10.1 5.00003 10 4.8667 10 4.6667V3.33336C10 2.80003 9.65002 2.33336 9.25002 2.33336H6.25002C5.85002 2.33336 5.50002 2.80003 5.50002 3.33336V4.6667C5.50002 4.8667 5.40002 5.00003 5.25002 5.00003C5.10002 5.00003 5.00002 4.8667 5.00002 4.6667V3.33336C5.00002 2.40003 5.55002 1.6667 6.25002 1.6667H9.25002C9.95002 1.6667 10.5 2.40003 10.5 3.33336V4.6667C10.5 4.8667 10.4 5.00003 10.25 5.00003Z" fill="currentColor"/>
<path d="M7.71966 10.4C6.11966 10.4 4.56966 9.93338 3.11966 8.93338C3.01966 8.86671 2.96966 8.66671 3.01966 8.46671C3.06966 8.33338 3.21966 8.26671 3.36966 8.33338C6.11966 10.2 9.41966 10.2 12.1697 8.33338C12.2697 8.26671 12.4197 8.33338 12.5197 8.46671C12.5697 8.60005 12.5197 8.80005 12.4197 8.93338C10.8697 9.93338 9.31966 10.4 7.71966 10.4Z" fill="currentColor"/>
<path fill-rule="evenodd" clip-rule="evenodd" d="M6.25002 1.8667C5.63287 1.8667 5.15002 2.51049 5.15002 3.33336V4.1333H5.35002V3.33336C5.35002 2.68957 5.76718 2.13336 6.25002 2.13336H9.25002C9.73287 2.13336 10.15 2.68957 10.15 3.33336V4.1333H10.35V3.33336C10.35 2.51049 9.86718 1.8667 9.25002 1.8667H6.25002ZM10.65 4.1333V3.33336C10.65 2.28957 10.0329 1.4667 9.25002 1.4667H6.25002C5.46718 1.4667 4.85002 2.28957 4.85002 3.33336V4.1333H4.25004C3.46719 4.1333 2.85004 4.95618 2.85004 5.99997V12C2.85004 13.0438 3.46719 13.8666 4.25004 13.8666H11.25C12.0329 13.8666 12.65 13.0438 12.65 12V8.82966C12.6576 8.80593 12.6641 8.78182 12.6696 8.75751C12.6953 8.64304 12.7012 8.50368 12.6538 8.37727L12.65 8.36716V5.99997C12.65 4.95618 12.0329 4.1333 11.25 4.1333H10.65ZM10.35 4.5333H10.15V4.6667C10.15 4.72125 10.163 4.75117 10.1748 4.76694C10.1863 4.78216 10.2075 4.7988 10.2457 4.79997H10.2543C10.2925 4.7988 10.3138 4.78216 10.3252 4.76694C10.337 4.75117 10.35 4.72125 10.35 4.6667V4.5333ZM10.6391 4.79997C10.6464 4.75695 10.65 4.71225 10.65 4.6667V4.5333H11.25C11.8672 4.5333 12.35 5.17709 12.35 5.99997V8.12055C12.2872 8.1026 12.2174 8.10043 12.15 8.12887V5.99997C12.15 5.35618 11.7329 4.79997 11.25 4.79997H10.6391ZM10.2432 5.19997C10.2455 5.20001 10.2477 5.20003 10.25 5.20003C10.2523 5.20003 10.2546 5.20001 10.2569 5.19997H11.25C11.5672 5.19997 11.85 5.57709 11.85 5.99997V8.31966C9.26604 9.9462 6.22942 9.93791 3.65004 8.2948V5.99997C3.65004 5.57709 3.93288 5.19997 4.25004 5.19997H5.24319C5.24546 5.20001 5.24774 5.20003 5.25002 5.20003C5.25231 5.20003 5.25459 5.20001 5.25686 5.19997H10.2432ZM9.86097 4.79997C9.85366 4.75695 9.85002 4.71225 9.85002 4.6667V4.5333H5.65002V4.6667C5.65002 4.71225 5.64639 4.75695 5.63908 4.79997H9.86097ZM5.25432 4.79997C5.29252 4.7988 5.3138 4.78216 5.32521 4.76694C5.33704 4.75117 5.35002 4.72125 5.35002 4.6667V4.5333H5.15002V4.6667C5.15002 4.72125 5.16301 4.75117 5.17484 4.76694C5.18625 4.78216 5.20753 4.7988 5.24573 4.79997H5.25432ZM4.86097 4.79997C4.85366 4.75695 4.85002 4.71225 4.85002 4.6667V4.5333H4.25004C3.63288 4.5333 3.15004 5.17709 3.15004 5.99997V8.12158C3.21499 8.10372 3.28394 8.1037 3.35004 8.12042V5.99997C3.35004 5.35618 3.76719 4.79997 4.25004 4.79997H4.86097ZM3.31284 8.51922C3.26947 8.50251 3.22974 8.50482 3.20027 8.51661C3.17605 8.52629 3.16356 8.53984 3.15773 8.54876C3.14665 8.60414 3.14857 8.6547 3.15709 8.69258C3.16693 8.73632 3.18209 8.75139 3.18675 8.75449L3.18858 8.75572C3.24226 8.79274 3.29608 8.82904 3.35004 8.86458V8.54425C3.33763 8.53595 3.32523 8.5276 3.31284 8.51922ZM3.65004 8.73656V9.05375C4.94313 9.8333 6.31092 10.2 7.71966 10.2C9.12326 10.2 10.4879 9.83594 11.85 9.05969V8.76048C9.25602 10.3323 6.23977 10.3243 3.65004 8.73656ZM12.15 8.57038V8.88202C12.2097 8.84535 12.2694 8.80788 12.329 8.76961C12.3367 8.75762 12.3437 8.74512 12.35 8.73235V8.54428C12.3338 8.53228 12.3174 8.52293 12.3016 8.51661C12.263 8.50117 12.2425 8.50859 12.237 8.51212C12.208 8.53174 12.1791 8.55117 12.15 8.57038ZM12.35 9.19915C12.2834 9.24084 12.2167 9.28157 12.15 9.32133V12C12.15 12.6438 11.7329 13.2 11.25 13.2H4.25004C3.76719 13.2 3.35004 12.6438 3.35004 12V9.30911C3.28317 9.26669 3.2165 9.22318 3.15004 9.17857V12C3.15004 12.8228 3.63288 13.4666 4.25004 13.4666H11.25C11.8672 13.4666 12.35 12.8228 12.35 12V9.19915ZM3.65004 9.4914V12C3.65004 12.4228 3.93288 12.8 4.25004 12.8H11.25C11.5672 12.8 11.85 12.4228 11.85 12V9.49369C10.4904 10.2453 9.12408 10.6 7.71966 10.6C6.3153 10.6 4.94739 10.2453 3.65004 9.4914ZM5.65002 4.1333H9.85002V3.33336C9.85002 2.91049 9.56718 2.53336 9.25002 2.53336H6.25002C5.93287 2.53336 5.65002 2.91049 5.65002 3.33336V4.1333Z" fill="currentColor"/>
</svg>
