<svg width="16" height="16" viewBox="0 0 16 16" fill="none" xmlns="http://www.w3.org/2000/svg">
<path fill-rule="evenodd" clip-rule="evenodd" d="M4.66667 9.2C3.49456 9.2 2.53334 10.1612 2.53334 11.3333V13.4667H4.66667C5.83879 13.4667 6.80001 12.5054 6.80001 11.3333C6.80001 10.1612 5.83879 9.2 4.66667 9.2ZM1.46667 11.3333C1.46667 9.57211 2.90546 8.13333 4.66667 8.13333C6.42789 8.13333 7.86667 9.57211 7.86667 11.3333C7.86667 13.0945 6.42789 14.5333 4.66667 14.5333H2.00001C1.70546 14.5333 1.46667 14.2945 1.46667 14V11.3333Z" fill="currentColor"/>
<path fill-rule="evenodd" clip-rule="evenodd" d="M14.5283 1.92712C14.5686 2.21891 14.3647 2.48808 14.0729 2.52833C10.4 3.03493 7.2958 5.50461 5.96492 8.99024C5.85986 9.26541 5.55161 9.40331 5.27643 9.29825C5.00126 9.19318 4.86336 8.88493 4.96842 8.60976C6.43755 4.76205 9.86669 2.03173 13.9271 1.47167C14.2189 1.43142 14.4881 1.63533 14.5283 1.92712Z" fill="currentColor"/>
<path fill-rule="evenodd" clip-rule="evenodd" d="M14.0729 1.47167C14.3647 1.51191 14.5686 1.78108 14.5283 2.07287C13.9683 6.13332 11.238 9.56246 7.39025 11.0316C7.11507 11.1366 6.80683 10.9987 6.70176 10.7236C6.59669 10.4484 6.73459 10.1401 7.00977 10.0351C10.4954 8.7042 12.9651 5.60001 13.4717 1.92712C13.5119 1.63533 13.7811 1.43142 14.0729 1.47167Z" fill="currentColor"/>
<path fill-rule="evenodd" clip-rule="evenodd" d="M6.58468 5.77168C6.71077 5.50549 7.02879 5.39191 7.29499 5.518C8.67297 6.17073 9.82927 7.32703 10.482 8.70502C10.6081 8.97121 10.4945 9.28923 10.2283 9.41532C9.96212 9.54142 9.64411 9.42784 9.51801 9.16164C8.97074 8.00629 7.99371 7.02926 6.83836 6.48199C6.57216 6.3559 6.45859 6.03788 6.58468 5.77168Z" fill="currentColor"/>
</svg>
