<svg width="16" height="16" viewBox="0 0 16 16" fill="none" xmlns="http://www.w3.org/2000/svg">
<path d="M14 13.4661L14.1081 13.4779C14.3508 13.5278 14.5339 13.7425 14.5339 14C14.5339 14.2575 14.3508 14.4722 14.1081 14.5221L14 14.5339H2C1.70545 14.5339 1.46615 14.2945 1.46615 14C1.46615 13.7054 1.70545 13.4661 2 13.4661H14Z" fill="currentColor"/>
<path d="M6.66406 4.80214L6.77214 4.81386C7.01482 4.86386 7.19792 5.07851 7.19792 5.336C7.19792 5.59349 7.01482 5.80813 6.77214 5.85813L6.66406 5.86985H6C5.70545 5.86985 5.46615 5.63055 5.46615 5.336C5.46615 5.04145 5.70545 4.80214 6 4.80214H6.66406Z" fill="currentColor"/>
<path d="M6.66406 7.46614L6.77214 7.47786C7.01482 7.52786 7.19792 7.74251 7.19792 8C7.19792 8.25749 7.01482 8.47213 6.77214 8.52213L6.66406 8.53385H6C5.70545 8.53385 5.46615 8.29455 5.46615 8C5.46615 7.70545 5.70545 7.46614 6 7.46614H6.66406Z" fill="currentColor"/>
<path d="M6.66406 10.1301L6.77214 10.1419C7.01482 10.1919 7.19792 10.4065 7.19792 10.664C7.19792 10.9215 7.01482 11.1361 6.77214 11.1861L6.66406 11.1979H6C5.70545 11.1979 5.46615 10.9586 5.46615 10.664C5.46615 10.3694 5.70545 10.1301 6 10.1301H6.66406Z" fill="currentColor"/>
<path d="M10.0001 4.80214L10.1081 4.81386C10.3508 4.86386 10.5339 5.07851 10.5339 5.336C10.5339 5.59349 10.3508 5.80813 10.1081 5.85813L10.0001 5.86985H9.336C9.04145 5.86985 8.80215 5.63055 8.80215 5.336C8.80215 5.04145 9.04145 4.80214 9.336 4.80214H10.0001Z" fill="currentColor"/>
<path d="M10.0001 7.46614L10.1081 7.47786C10.3508 7.52786 10.5339 7.74251 10.5339 8C10.5339 8.25749 10.3508 8.47213 10.1081 8.52213L10.0001 8.53385H9.336C9.04145 8.53385 8.80215 8.29455 8.80215 8C8.80215 7.70545 9.04145 7.46614 9.336 7.46614H10.0001Z" fill="currentColor"/>
<path d="M10.0001 10.1301L10.1081 10.1419C10.3508 10.1919 10.5339 10.4065 10.5339 10.664C10.5339 10.9215 10.3508 11.1361 10.1081 11.1861L10.0001 11.1979H9.336C9.04145 11.1979 8.80215 10.9586 8.80215 10.664C8.80215 10.3694 9.04145 10.1301 9.336 10.1301H10.0001Z" fill="currentColor"/>
<path d="M12.1381 14V3.33594C12.1381 2.94976 11.8622 2.62471 11.4975 2.54948L11.336 2.53385H4.67194C4.23054 2.53389 3.86989 2.89454 3.86986 3.33594V14C3.86986 14.2945 3.63055 14.5339 3.336 14.5339C3.04145 14.5339 2.80215 14.2945 2.80215 14V3.33594C2.80218 2.30543 3.64144 1.46618 4.67194 1.46614H11.336L11.5274 1.47656C12.4684 1.57276 13.2058 2.37003 13.2058 3.33594V14C13.2058 14.2945 12.9665 14.5339 12.6719 14.5339C12.3774 14.5338 12.1381 14.2945 12.1381 14Z" fill="currentColor"/>
</svg>
