<svg width="16" height="16" viewBox="0 0 16 16" fill="none" xmlns="http://www.w3.org/2000/svg">
<path d="M14 13.4661L14.1081 13.4779C14.3508 13.5278 14.5338 13.7425 14.5338 14C14.5338 14.2575 14.3508 14.4722 14.1081 14.5221L14 14.5339H1.99998C1.70543 14.5339 1.46613 14.2946 1.46613 14C1.46613 13.7054 1.70543 13.4661 1.99998 13.4661H14Z" fill="currentColor"/>
<path d="M8.13279 14V2.86198L3.86717 4.99479V14C3.86717 14.2946 3.62786 14.5339 3.33331 14.5339C3.03876 14.5339 2.79946 14.2946 2.79946 14V4.66667L2.80467 4.59245C2.82881 4.42027 2.93674 4.26925 3.09503 4.1901L8.42836 1.52344L8.55727 1.47786C8.68945 1.45018 8.82882 1.47411 8.94659 1.54688C9.10383 1.64405 9.2005 1.81516 9.2005 2V14C9.2005 14.2946 8.9612 14.5339 8.66665 14.5339C8.37209 14.5339 8.13279 14.2946 8.13279 14Z" fill="currentColor"/>
<path d="M12.1328 14V7.61849L8.37107 5.11068L8.28774 5.04167C8.11309 4.86557 8.07987 4.58555 8.22264 4.37109C8.36559 4.15666 8.63738 4.07847 8.86717 4.17187L8.96222 4.22266L12.9622 6.88932L13.0625 6.97526C13.1502 7.07219 13.2005 7.19958 13.2005 7.33333V14C13.2005 14.2946 12.9612 14.5339 12.6666 14.5339C12.3721 14.5339 12.1328 14.2946 12.1328 14Z" fill="currentColor"/>
<path d="M5.46613 6.00651V6C5.46613 5.70545 5.70543 5.46615 5.99998 5.46615C6.25749 5.46615 6.47214 5.64921 6.52211 5.89193L6.53383 6V6.00651L6.52211 6.11458C6.4722 6.35737 6.25754 6.54036 5.99998 6.54036C5.74242 6.54036 5.52776 6.35737 5.47784 6.11458L5.46613 6.00651Z" fill="currentColor"/>
<path d="M5.46613 8.00651V8C5.46613 7.70545 5.70543 7.46615 5.99998 7.46615C6.25749 7.46615 6.47214 7.64921 6.52211 7.89193L6.53383 8V8.00651L6.52211 8.11458C6.4722 8.35737 6.25754 8.54036 5.99998 8.54036C5.74242 8.54036 5.52776 8.35737 5.47784 8.11458L5.46613 8.00651Z" fill="currentColor"/>
<path d="M5.46613 10.0065V10C5.46613 9.70545 5.70543 9.46615 5.99998 9.46615C6.25749 9.46615 6.47214 9.64921 6.52211 9.89193L6.53383 10V10.0065L6.52211 10.1146C6.4722 10.3574 6.25754 10.5404 5.99998 10.5404C5.74242 10.5404 5.52776 10.3574 5.47784 10.1146L5.46613 10.0065Z" fill="currentColor"/>
<path d="M5.46613 12.0065V12C5.46613 11.7054 5.70543 11.4661 5.99998 11.4661C6.25749 11.4661 6.47214 11.6492 6.52211 11.8919L6.53383 12V12.0065L6.52211 12.1146C6.4722 12.3574 6.25754 12.5404 5.99998 12.5404C5.74242 12.5404 5.52776 12.3574 5.47784 12.1146L5.46613 12.0065Z" fill="currentColor"/>
</svg>
