<svg width="16" height="16" viewBox="0 0 16 16" fill="none" xmlns="http://www.w3.org/2000/svg">
<path d="M2.66668 7.46615L2.77475 7.47786C3.01746 7.52784 3.20053 7.74249 3.20053 8C3.20053 8.25751 3.01746 8.47216 2.77475 8.52214L2.66668 8.53385H2.00001C1.70546 8.53385 1.46616 8.29455 1.46616 8C1.46616 7.70545 1.70546 7.46615 2.00001 7.46615H2.66668ZM14 7.46615L14.1081 7.47786C14.3508 7.52784 14.5339 7.74249 14.5339 8C14.5339 8.25751 14.3508 8.47216 14.1081 8.52214L14 8.53385H13.3333C13.0388 8.53385 12.7995 8.29455 12.7995 8C12.7995 7.70545 13.0388 7.46615 13.3333 7.46615H14ZM3.35678 3.35677C3.53912 3.17443 3.82031 3.15083 4.02735 3.28776L4.11069 3.35677L4.57683 3.82292L4.64584 3.90625C4.78255 4.11327 4.75909 4.39457 4.57683 4.57682C4.39458 4.75908 4.11328 4.78254 3.90626 4.64583L3.82293 4.57682L3.35678 4.11068L3.28777 4.02734C3.15084 3.8203 3.17444 3.53911 3.35678 3.35677ZM11.9727 3.28776C12.1797 3.15083 12.4609 3.17443 12.6432 3.35677C12.8515 3.56505 12.8515 3.9024 12.6432 4.11068L12.1771 4.57682L12.0938 4.64583C11.8867 4.78254 11.6054 4.75908 11.4232 4.57682C11.2149 4.36854 11.2149 4.0312 11.4232 3.82292L11.8893 3.35677L11.9727 3.28776ZM7.46616 2.66667V2C7.46616 1.70545 7.70546 1.46615 8.00001 1.46615C8.29456 1.46615 8.53386 1.70545 8.53386 2V2.66667C8.53386 2.96122 8.29456 3.20052 8.00001 3.20052C7.70546 3.20052 7.46616 2.96122 7.46616 2.66667Z" fill="currentColor"/>
<path d="M8.3034 4.14583C9.00726 4.20123 9.6845 4.44825 10.2604 4.86328C10.9188 5.3378 11.4113 6.00744 11.668 6.77734C11.9245 7.54701 11.9332 8.37791 11.6914 9.15234C11.4549 9.90964 10.9892 10.5742 10.362 11.0586C10.1678 11.2548 10.021 11.4932 9.9336 11.7552C9.84426 12.0232 9.81932 12.3091 9.86069 12.5885L9.8672 12.6667C9.8672 13.1617 9.67039 13.6369 9.32032 13.987C8.97025 14.337 8.49508 14.5339 8.00001 14.5339C7.50494 14.5339 7.02977 14.337 6.6797 13.987C6.32963 13.6369 6.13282 13.1617 6.13282 12.6667C6.13282 12.6405 6.1355 12.6144 6.13933 12.5885C6.1807 12.3091 6.15576 12.0232 6.06642 11.7552C5.97891 11.4929 5.83125 11.2549 5.63673 11.0586C5.00989 10.5743 4.54506 9.90931 4.3086 9.15234C4.06685 8.37791 4.07548 7.54701 4.33204 6.77734C4.58867 6.00744 5.08123 5.3378 5.73959 4.86328C6.3979 4.38889 7.18857 4.13281 8.00001 4.13281L8.3034 4.14583ZM7.77996 5.20833C7.2703 5.2485 6.7803 5.4286 6.36329 5.72917C5.88655 6.07278 5.5296 6.55707 5.34376 7.11458C5.15796 7.67198 5.15173 8.2738 5.32683 8.83464C5.48018 9.32554 5.76583 9.76356 6.14975 10.1016L6.32032 10.2396L6.37501 10.2878L6.60027 10.5378C6.80943 10.8001 6.97143 11.098 7.07814 11.418C7.21216 11.8201 7.25105 12.2465 7.20053 12.6667L7.21616 12.8229C7.24684 12.9768 7.32228 13.1191 7.43491 13.2318C7.58493 13.3818 7.78784 13.4661 8.00001 13.4661C8.21218 13.4661 8.41508 13.3818 8.56511 13.2318C8.67774 13.1191 8.75318 12.9768 8.78386 12.8229L8.79949 12.6667C8.74897 12.2465 8.78786 11.8201 8.92188 11.418C9.06419 10.9913 9.30532 10.6042 9.62501 10.2878L9.6797 10.2396L9.85027 10.1016C10.2342 9.76356 10.5198 9.32554 10.6732 8.83464C10.8483 8.2738 10.8421 7.67198 10.6563 7.11458C10.4704 6.55707 10.1135 6.07278 9.63673 5.72917C9.15999 5.38555 8.58768 5.20052 8.00001 5.20052L7.77996 5.20833Z" fill="currentColor"/>
<path d="M9.53308 10.7995L9.64116 10.8112C9.88399 10.8611 10.0669 11.0757 10.0669 11.3333C10.0669 11.5909 9.88399 11.8056 9.64116 11.8555L9.53308 11.8672H6.46668C6.17212 11.8672 5.93282 11.6279 5.93282 11.3333C5.93282 11.0388 6.17212 10.7995 6.46668 10.7995H9.53308Z" fill="currentColor"/>
</svg>
