<svg width="16" height="16" viewBox="0 0 16 16" fill="none" xmlns="http://www.w3.org/2000/svg">
<path d="M12.1862 7.28V4.63938C12.1859 4.15457 11.8053 3.81385 11.3594 3.81385H3.35935C2.87478 3.81418 2.53415 4.19366 2.53383 4.63938V12.6394C2.53383 13.1243 2.91345 13.4659 3.35935 13.4662H7.83982L7.9479 13.4779C8.19068 13.5278 8.37368 13.7425 8.37368 14.0001C8.37365 14.2576 8.19067 14.4723 7.9479 14.5222L7.83982 14.5339H3.35935C2.36578 14.5336 1.46613 13.754 1.46613 12.6394V4.63938C1.46645 3.64599 2.24506 2.74648 3.35935 2.74615H11.3594C12.353 2.74615 13.2536 3.52485 13.2539 4.63938V7.28C13.2539 7.57454 13.0146 7.81383 12.72 7.81386C12.4255 7.81386 12.1862 7.57455 12.1862 7.28Z" fill="currentColor"/>
<path d="M14.1061 12.0006C14.1061 10.8374 13.1638 9.89419 12.0006 9.89386C10.8371 9.89386 9.89383 10.8371 9.89383 12.0006C9.89417 13.1638 10.8373 14.1061 12.0006 14.1061C13.1636 14.1058 14.1057 13.1636 14.1061 12.0006ZM15.1738 12.0006C15.1734 13.7527 13.7527 15.1735 12.0006 15.1738C10.2482 15.1738 8.82646 13.7529 8.82613 12.0006C8.82613 10.248 10.248 8.82615 12.0006 8.82615C13.7529 8.82648 15.1738 10.2483 15.1738 12.0006Z" fill="currentColor"/>
<path d="M9.46613 4.64063V2C9.46613 1.70545 9.70543 1.46615 9.99998 1.46615C10.2945 1.46615 10.5338 1.70545 10.5338 2V4.64063C10.5335 4.93489 10.2943 5.17318 9.99998 5.17318C9.70564 5.17318 9.46646 4.93489 9.46613 4.64063Z" fill="currentColor"/>
<path d="M4.10613 4.64063V2C4.10613 1.70545 4.34543 1.46615 4.63998 1.46615C4.93453 1.46615 5.17383 1.70545 5.17383 2V4.64063C5.1735 4.93489 4.93432 5.17318 4.63998 5.17318C4.34564 5.17318 4.10646 4.93489 4.10613 4.64063Z" fill="currentColor"/>
<path d="M12.6406 6.82615L12.7474 6.83787C12.9904 6.88759 13.1732 7.10226 13.1732 7.36C13.1732 7.61774 12.9904 7.83241 12.7474 7.88214L12.6406 7.89386H1.99998C1.70543 7.89386 1.46613 7.65455 1.46613 7.36C1.46613 7.06545 1.70543 6.82615 1.99998 6.82615H12.6406Z" fill="currentColor"/>
<path d="M11.4661 10.96C11.4661 10.6654 11.7054 10.4261 12 10.4261C12.2945 10.4261 12.5338 10.6654 12.5338 10.96V11.779L13.0169 12.2634L13.0859 12.3467C13.2224 12.5537 13.1991 12.8351 13.0169 13.0173C12.8346 13.1995 12.5533 13.2219 12.3463 13.085L12.263 13.0173L11.6224 12.3767C11.5227 12.2768 11.4662 12.1415 11.4661 12.0004V10.96Z" fill="currentColor"/>
</svg>
