<svg width="16" height="16" viewBox="0 0 16 16" fill="none" xmlns="http://www.w3.org/2000/svg">
<path fill-rule="evenodd" clip-rule="evenodd" d="M4 3.86667C3.56122 3.86667 3.2 4.22789 3.2 4.66667V12.6667C3.2 13.1054 3.56122 13.4667 4 13.4667H12C12.4388 13.4667 12.8 13.1054 12.8 12.6667V4.66667C12.8 4.22789 12.4388 3.86667 12 3.86667H4ZM2.13333 4.66667C2.13333 3.63878 2.97211 2.8 4 2.8H12C13.0279 2.8 13.8667 3.63878 13.8667 4.66667V12.6667C13.8667 13.6946 13.0279 14.5333 12 14.5333H4C2.97211 14.5333 2.13333 13.6946 2.13333 12.6667V4.66667Z" fill="currentColor"/>
<path fill-rule="evenodd" clip-rule="evenodd" d="M10.6667 1.46667C10.9612 1.46667 11.2 1.70545 11.2 2V4.66667C11.2 4.96122 10.9612 5.2 10.6667 5.2C10.3721 5.2 10.1333 4.96122 10.1333 4.66667V2C10.1333 1.70545 10.3721 1.46667 10.6667 1.46667Z" fill="currentColor"/>
<path fill-rule="evenodd" clip-rule="evenodd" d="M5.33333 1.46667C5.62789 1.46667 5.86667 1.70545 5.86667 2V4.66667C5.86667 4.96122 5.62789 5.2 5.33333 5.2C5.03878 5.2 4.8 4.96122 4.8 4.66667V2C4.8 1.70545 5.03878 1.46667 5.33333 1.46667Z" fill="currentColor"/>
<path fill-rule="evenodd" clip-rule="evenodd" d="M2.13333 7.33333C2.13333 7.03878 2.37211 6.8 2.66667 6.8H13.3333C13.6279 6.8 13.8667 7.03878 13.8667 7.33333C13.8667 7.62789 13.6279 7.86667 13.3333 7.86667H2.66667C2.37211 7.86667 2.13333 7.62789 2.13333 7.33333Z" fill="currentColor"/>
<path fill-rule="evenodd" clip-rule="evenodd" d="M4.8 10C4.8 9.70545 5.03878 9.46667 5.33333 9.46667H6.66667C6.96122 9.46667 7.2 9.70545 7.2 10V11.3333C7.2 11.6279 6.96122 11.8667 6.66667 11.8667H5.33333C5.03878 11.8667 4.8 11.6279 4.8 11.3333V10Z" fill="currentColor"/>
</svg>
