<svg width="16" height="16" viewBox="0 0 16 16" fill="none" xmlns="http://www.w3.org/2000/svg">
<path fill-rule="evenodd" clip-rule="evenodd" d="M10 8.53333C9.18999 8.53333 8.53334 9.18998 8.53334 10C8.53334 10.81 9.18999 11.4667 10 11.4667C10.81 11.4667 11.4667 10.81 11.4667 10C11.4667 9.18998 10.81 8.53333 10 8.53333ZM7.46667 10C7.46667 8.60088 8.60089 7.46667 10 7.46667C11.3991 7.46667 12.5333 8.60088 12.5333 10C12.5333 11.3991 11.3991 12.5333 10 12.5333C8.60089 12.5333 7.46667 11.3991 7.46667 10Z" fill="currentColor"/>
<path fill-rule="evenodd" clip-rule="evenodd" d="M8.66668 11.1333C8.96123 11.1333 9.20001 11.3721 9.20001 11.6667V13.6L9.68001 13.24C9.86964 13.0978 10.1304 13.0978 10.32 13.24L10.8 13.6V11.6667C10.8 11.3721 11.0388 11.1333 11.3333 11.1333C11.6279 11.1333 11.8667 11.3721 11.8667 11.6667V14.6667C11.8667 14.8687 11.7525 15.0534 11.5719 15.1437C11.3912 15.234 11.175 15.2145 11.0133 15.0933L10 14.3333L8.98667 15.0933C8.82507 15.2145 8.60885 15.234 8.42816 15.1437C8.24748 15.0534 8.13334 14.8687 8.13334 14.6667V11.6667C8.13334 11.3721 8.37212 11.1333 8.66668 11.1333Z" fill="currentColor"/>
<path fill-rule="evenodd" clip-rule="evenodd" d="M3.33334 3.86667C2.89456 3.86667 2.53334 4.22788 2.53334 4.66667V11.3333C2.53334 11.7721 2.89456 12.1333 3.33334 12.1333H6.66668C6.96123 12.1333 7.20001 12.3721 7.20001 12.6667C7.20001 12.9612 6.96123 13.2 6.66668 13.2H3.33334C2.30546 13.2 1.46667 12.3612 1.46667 11.3333V4.66667C1.46667 3.63878 2.30546 2.8 3.33334 2.8H12.6667C13.6946 2.8 14.5333 3.63878 14.5333 4.66667V11.3333C14.5333 11.9803 14.1712 12.644 13.5719 12.9437C13.3084 13.0754 12.988 12.9686 12.8563 12.7052C12.7246 12.4417 12.8314 12.1214 13.0948 11.9896C13.2955 11.8893 13.4667 11.6197 13.4667 11.3333V4.66667C13.4667 4.22788 13.1055 3.86667 12.6667 3.86667H3.33334Z" fill="currentColor"/>
<path fill-rule="evenodd" clip-rule="evenodd" d="M3.46667 6C3.46667 5.70545 3.70546 5.46667 4.00001 5.46667H12C12.2946 5.46667 12.5333 5.70545 12.5333 6C12.5333 6.29455 12.2946 6.53333 12 6.53333H4.00001C3.70546 6.53333 3.46667 6.29455 3.46667 6Z" fill="currentColor"/>
<path fill-rule="evenodd" clip-rule="evenodd" d="M3.46667 8C3.46667 7.70545 3.70546 7.46667 4.00001 7.46667H6.00001C6.29456 7.46667 6.53334 7.70545 6.53334 8C6.53334 8.29455 6.29456 8.53333 6.00001 8.53333H4.00001C3.70546 8.53333 3.46667 8.29455 3.46667 8Z" fill="currentColor"/>
<path fill-rule="evenodd" clip-rule="evenodd" d="M3.46667 10C3.46667 9.70545 3.70546 9.46667 4.00001 9.46667H5.33334C5.62789 9.46667 5.86667 9.70545 5.86667 10C5.86667 10.2946 5.62789 10.5333 5.33334 10.5333H4.00001C3.70546 10.5333 3.46667 10.2946 3.46667 10Z" fill="currentColor"/>
</svg>
