<svg width="16" height="16" viewBox="0 0 16 16" fill="none" xmlns="http://www.w3.org/2000/svg">
<path d="M14.2891 4.28906C14.4973 4.08078 14.836 4.08078 15.0443 4.28906C15.2526 4.49734 15.2526 4.83599 15.0443 5.04427L8.37761 11.7109C8.16933 11.9192 7.83068 11.9192 7.6224 11.7109L4.28907 8.37761L4.22136 8.29297C4.08488 8.08598 4.1069 7.80456 4.28907 7.6224C4.47123 7.44023 4.75265 7.4182 4.95964 7.55469L5.04428 7.6224L8.00001 10.5781L14.2891 4.28906Z" fill="currentColor"/>
<path d="M0.955736 7.6224C1.1379 7.44023 1.41932 7.4182 1.62631 7.55469L1.71094 7.6224L5.04428 10.9557L5.11199 11.0404C5.24847 11.2474 5.22644 11.5288 5.04428 11.7109C4.86211 11.8931 4.58069 11.9151 4.3737 11.7786L4.28907 11.7109L0.955736 8.37761L0.888028 8.29297C0.751543 8.08598 0.773571 7.80456 0.955736 7.6224ZM10.9557 4.28906C11.164 4.08078 11.5027 4.08078 11.7109 4.28906C11.9192 4.49734 11.9192 4.83599 11.7109 5.04427L8.37761 8.37761C8.16933 8.58589 7.83068 8.58589 7.6224 8.37761C7.41412 8.16933 7.41412 7.83068 7.6224 7.6224L10.9557 4.28906Z" fill="currentColor"/>
</svg>
