<svg width="16" height="16" viewBox="0 0 16 16" fill="none" xmlns="http://www.w3.org/2000/svg">
<path fill-rule="evenodd" clip-rule="evenodd" d="M6.33334 2.53333C4.23466 2.53333 2.53334 4.23465 2.53334 6.33333C2.53334 8.43202 4.23466 10.1333 6.33334 10.1333C8.43202 10.1333 10.1333 8.43202 10.1333 6.33333C10.1333 4.23465 8.43202 2.53333 6.33334 2.53333ZM1.46667 6.33333C1.46667 3.64555 3.64556 1.46667 6.33334 1.46667C9.02113 1.46667 11.2 3.64555 11.2 6.33333C11.2 9.02112 9.02113 11.2 6.33334 11.2C3.64556 11.2 1.46667 9.02112 1.46667 6.33333Z" fill="currentColor"/>
<path fill-rule="evenodd" clip-rule="evenodd" d="M8.00001 7.2C7.56123 7.2 7.20001 7.56122 7.20001 8V12.6667C7.20001 13.1054 7.56123 13.4667 8.00001 13.4667H12.6667C13.1055 13.4667 13.4667 13.1054 13.4667 12.6667V8C13.4667 7.56122 13.1055 7.2 12.6667 7.2H8.00001ZM6.13334 8C6.13334 6.97211 6.97212 6.13333 8.00001 6.13333H12.6667C13.6946 6.13333 14.5333 6.97211 14.5333 8V12.6667C14.5333 13.6946 13.6946 14.5333 12.6667 14.5333H8.00001C6.97212 14.5333 6.13334 13.6946 6.13334 12.6667V8Z" fill="currentColor"/>
</svg>
