<svg width="16" height="16" viewBox="0 0 16 16" fill="none" xmlns="http://www.w3.org/2000/svg">
<path d="M13.4661 8C13.4661 4.98084 11.0191 2.53385 7.99998 2.53385C4.98082 2.53385 2.53383 4.98084 2.53383 8C2.53383 11.0192 4.98082 13.4661 7.99998 13.4661C11.0191 13.4661 13.4661 11.0192 13.4661 8ZM14.5338 8C14.5338 11.6083 11.6082 14.5339 7.99998 14.5339C4.39172 14.5339 1.46613 11.6083 1.46613 8C1.46613 4.39174 4.39172 1.46615 7.99998 1.46615C11.6082 1.46615 14.5338 4.39174 14.5338 8Z" fill="currentColor"/>
<path d="M9.99998 7.46615L10.1081 7.47786C10.3508 7.52784 10.5338 7.74249 10.5338 8C10.5338 8.25751 10.3508 8.47216 10.1081 8.52214L9.99998 8.53385H5.99998C5.70543 8.53385 5.46613 8.29455 5.46613 8C5.46613 7.70545 5.70543 7.46615 5.99998 7.46615H9.99998Z" fill="currentColor"/>
</svg>
