<svg width="16" height="16" viewBox="0 0 16 16" fill="none" xmlns="http://www.w3.org/2000/svg">
<path fill-rule="evenodd" clip-rule="evenodd" d="M1.46667 8C1.46667 7.70545 1.70546 7.46667 2.00001 7.46667H4.00001C4.29456 7.46667 4.53334 7.70545 4.53334 8C4.53334 8.29455 4.29456 8.53333 4.00001 8.53333H2.00001C1.70546 8.53333 1.46667 8.29455 1.46667 8Z" fill="currentColor"/>
<path fill-rule="evenodd" clip-rule="evenodd" d="M8.00001 1.46667C8.29456 1.46667 8.53334 1.70545 8.53334 2V4C8.53334 4.29455 8.29456 4.53333 8.00001 4.53333C7.70546 4.53333 7.46667 4.29455 7.46667 4V2C7.46667 1.70545 7.70546 1.46667 8.00001 1.46667Z" fill="currentColor"/>
<path fill-rule="evenodd" clip-rule="evenodd" d="M3.35622 3.35621C3.5645 3.14793 3.90219 3.14793 4.11047 3.35621L5.57713 4.82288C5.78541 5.03116 5.78541 5.36884 5.57713 5.57712C5.36885 5.7854 5.03116 5.7854 4.82288 5.57712L3.35622 4.11046C3.14794 3.90218 3.14794 3.56449 3.35622 3.35621Z" fill="currentColor"/>
<path fill-rule="evenodd" clip-rule="evenodd" d="M12.6438 3.35621C12.8521 3.56449 12.8521 3.90218 12.6438 4.11046L11.1771 5.57712C10.9689 5.7854 10.6312 5.7854 10.4229 5.57712C10.2146 5.36884 10.2146 5.03116 10.4229 4.82288L11.8896 3.35621C12.0978 3.14793 12.4355 3.14793 12.6438 3.35621Z" fill="currentColor"/>
<path fill-rule="evenodd" clip-rule="evenodd" d="M5.57713 10.4229C5.78541 10.6312 5.78541 10.9688 5.57713 11.1771L4.11046 12.6438C3.90219 12.8521 3.5645 12.8521 3.35622 12.6438C3.14794 12.4355 3.14794 12.0978 3.35622 11.8895L4.82288 10.4229C5.03116 10.2146 5.36885 10.2146 5.57713 10.4229Z" fill="currentColor"/>
<path fill-rule="evenodd" clip-rule="evenodd" d="M7.62288 7.62288C7.76573 7.48003 7.97702 7.43015 8.16866 7.49404L14.1687 9.49404C14.3733 9.56225 14.5167 9.74702 14.532 9.96219C14.5473 10.1774 14.4315 10.3806 14.2385 10.477L11.7309 11.7309L10.477 14.2385C10.3806 14.4315 10.1774 14.5473 9.9622 14.532C9.74703 14.5167 9.56226 14.3733 9.49404 14.1687L7.49404 8.16865C7.43016 7.97701 7.48004 7.76572 7.62288 7.62288ZM8.84328 8.84327L10.0988 12.6098L10.8563 11.0948C10.9079 10.9916 10.9916 10.9079 11.0948 10.8563L12.6098 10.0988L8.84328 8.84327Z" fill="currentColor"/>
</svg>
