<svg width="16" height="16" viewBox="0 0 16 16" fill="none" xmlns="http://www.w3.org/2000/svg">
<path fill-rule="evenodd" clip-rule="evenodd" d="M8.00001 2.53333C4.98085 2.53333 2.53334 4.98084 2.53334 8C2.53334 11.0192 4.98085 13.4667 8.00001 13.4667C11.0192 13.4667 13.4667 11.0192 13.4667 8C13.4667 4.98084 11.0192 2.53333 8.00001 2.53333ZM1.46667 8C1.46667 4.39174 4.39175 1.46667 8.00001 1.46667C11.6083 1.46667 14.5333 4.39174 14.5333 8C14.5333 11.6083 11.6083 14.5333 8.00001 14.5333C4.39175 14.5333 1.46667 11.6083 1.46667 8Z" fill="currentColor"/>
<path fill-rule="evenodd" clip-rule="evenodd" d="M8.00001 4.13333C8.29456 4.13333 8.53334 4.37212 8.53334 4.66667V7.77909L10.3771 9.62288C10.5854 9.83116 10.5854 10.1688 10.3771 10.3771C10.1689 10.5854 9.83116 10.5854 9.62288 10.3771L7.62288 8.37712C7.52286 8.27711 7.46667 8.14145 7.46667 8V4.66667C7.46667 4.37212 7.70546 4.13333 8.00001 4.13333Z" fill="currentColor"/>
</svg>
