<svg width="16" height="16" viewBox="0 0 16 16" fill="none" xmlns="http://www.w3.org/2000/svg">
<path fill-rule="evenodd" clip-rule="evenodd" d="M12.3771 3.62288C12.5854 3.83116 12.5854 4.16884 12.3771 4.37712L4.37712 12.3771C4.16884 12.5854 3.83116 12.5854 3.62288 12.3771C3.4146 12.1688 3.4146 11.8312 3.62288 11.6229L11.6229 3.62288C11.8312 3.4146 12.1688 3.4146 12.3771 3.62288Z" fill="currentColor"/>
<path fill-rule="evenodd" clip-rule="evenodd" d="M3.62288 3.62288C3.83116 3.4146 4.16884 3.4146 4.37712 3.62288L12.3771 11.6229C12.5854 11.8312 12.5854 12.1688 12.3771 12.3771C12.1688 12.5854 11.8312 12.5854 11.6229 12.3771L3.62288 4.37712C3.4146 4.16884 3.4146 3.83116 3.62288 3.62288Z" fill="currentColor"/>
</svg>
