<svg width="16" height="16" viewBox="0 0 16 16" fill="none" xmlns="http://www.w3.org/2000/svg">
<path fill-rule="evenodd" clip-rule="evenodd" d="M8.98424 3.85941C7.65675 3.56442 6.3866 4.63897 6.14047 6.1157C6.0998 6.35972 5.93748 6.53333 5.75 6.53333C4.65371 6.53333 3.8 7.65031 3.8 9C3.8 10.3497 4.65371 11.4667 5.75 11.4667C5.97091 11.4667 6.15 11.7054 6.15 12C6.15 12.2946 5.97091 12.5333 5.75 12.5333C4.24629 12.5333 3 10.9836 3 9C3 7.15285 4.08068 5.68198 5.44358 5.48832C5.93365 3.59899 7.54983 2.45927 9.11576 2.80726C10.6449 3.14708 11.7567 4.85471 11.7019 6.8H11.75C12.9209 6.8 13.9 8.10545 13.9 9.66667C13.9 11.2279 12.9209 12.5333 11.75 12.5333H11.25C11.0291 12.5333 10.85 12.2946 10.85 12C10.85 11.7054 11.0291 11.4667 11.25 11.4667H11.75C12.4791 11.4667 13.1 10.6388 13.1 9.66667C13.1 8.69455 12.4791 7.86667 11.75 7.86667H11.25C11.1292 7.86667 11.0149 7.79388 10.9389 7.66863C10.863 7.54338 10.8336 7.37907 10.8589 7.22159C11.1052 5.68888 10.2879 4.14911 8.98424 3.85941Z" fill="currentColor"/>
<path fill-rule="evenodd" clip-rule="evenodd" d="M7.96716 7.62288C8.12337 7.4146 8.37663 7.4146 8.53284 7.62288L10.0328 9.62288C10.1891 9.83116 10.1891 10.1688 10.0328 10.3771C9.87663 10.5854 9.62337 10.5854 9.46716 10.3771L8.25 8.75425L7.03284 10.3771C6.87663 10.5854 6.62337 10.5854 6.46716 10.3771C6.31095 10.1688 6.31095 9.83116 6.46716 9.62288L7.96716 7.62288Z" fill="currentColor"/>
<path fill-rule="evenodd" clip-rule="evenodd" d="M8.25 7.46667C8.47091 7.46667 8.65 7.70545 8.65 8V14C8.65 14.2946 8.47091 14.5333 8.25 14.5333C8.02909 14.5333 7.85 14.2946 7.85 14V8C7.85 7.70545 8.02909 7.46667 8.25 7.46667Z" fill="currentColor"/>
</svg>
