<svg width="16" height="16" viewBox="0 0 16 16" fill="none" xmlns="http://www.w3.org/2000/svg">
<path fill-rule="evenodd" clip-rule="evenodd" d="M8.00001 2.53333C4.98085 2.53333 2.53334 4.98084 2.53334 8C2.53334 11.0192 4.98085 13.4667 8.00001 13.4667C11.0192 13.4667 13.4667 11.0192 13.4667 8C13.4667 4.98084 11.0192 2.53333 8.00001 2.53333ZM1.46667 8C1.46667 4.39174 4.39175 1.46667 8.00001 1.46667C11.6083 1.46667 14.5333 4.39174 14.5333 8C14.5333 11.6083 11.6083 14.5333 8.00001 14.5333C4.39175 14.5333 1.46667 11.6083 1.46667 8Z" fill="currentColor"/>
<path fill-rule="evenodd" clip-rule="evenodd" d="M5.46667 6.66667C5.46667 5.63878 6.30546 4.8 7.33334 4.8H8.66668C9.32679 4.8 9.95355 5.16883 10.3104 5.70416C10.4738 5.94924 10.4076 6.28037 10.1625 6.44376C9.91743 6.60715 9.5863 6.54092 9.42291 6.29584C9.24647 6.03117 8.9399 5.86667 8.66668 5.86667H7.33334C6.89456 5.86667 6.53334 6.22789 6.53334 6.66667C6.53334 7.10545 6.89456 7.46667 7.33334 7.46667H8.66668C9.69456 7.46667 10.5333 8.30545 10.5333 9.33333C10.5333 10.3612 9.69456 11.2 8.66668 11.2H7.33334C6.67323 11.2 6.04647 10.8312 5.68958 10.2958C5.52619 10.0508 5.59242 9.71963 5.8375 9.55624C6.08258 9.39285 6.41371 9.45908 6.5771 9.70416C6.75355 9.96883 7.06012 10.1333 7.33334 10.1333H8.66668C9.10546 10.1333 9.46667 9.77212 9.46667 9.33333C9.46667 8.89455 9.10546 8.53333 8.66668 8.53333H7.33334C6.30546 8.53333 5.46667 7.69455 5.46667 6.66667Z" fill="currentColor"/>
<path fill-rule="evenodd" clip-rule="evenodd" d="M8.00001 3.46667C8.29456 3.46667 8.53334 3.70545 8.53334 4V5.33333C8.53334 5.62789 8.29456 5.86667 8.00001 5.86667C7.70546 5.86667 7.46667 5.62789 7.46667 5.33333V4C7.46667 3.70545 7.70546 3.46667 8.00001 3.46667ZM8.00001 10.1333C8.29456 10.1333 8.53334 10.3721 8.53334 10.6667V12C8.53334 12.2946 8.29456 12.5333 8.00001 12.5333C7.70546 12.5333 7.46667 12.2946 7.46667 12V10.6667C7.46667 10.3721 7.70546 10.1333 8.00001 10.1333Z" fill="currentColor"/>
</svg>
