<svg width="16" height="16" viewBox="0 0 16 16" fill="none" xmlns="http://www.w3.org/2000/svg">
<path fill-rule="evenodd" clip-rule="evenodd" d="M6.6667 5.86667C6.22791 5.86667 5.8667 6.22789 5.8667 6.66667V12C5.8667 12.4388 6.22791 12.8 6.6667 12.8H12C12.4388 12.8 12.8 12.4388 12.8 12V6.66667C12.8 6.22789 12.4388 5.86667 12 5.86667H6.6667ZM4.80003 6.66667C4.80003 5.63878 5.63881 4.8 6.6667 4.8H12C13.0279 4.8 13.8667 5.63878 13.8667 6.66667V12C13.8667 13.0279 13.0279 13.8667 12 13.8667H6.6667C5.63881 13.8667 4.80003 13.0279 4.80003 12V6.66667Z" fill="currentColor"/>
<path fill-rule="evenodd" clip-rule="evenodd" d="M2.13336 4C2.13336 2.97212 2.97214 2.13334 4.00003 2.13334H9.33336C10.3612 2.13334 11.2 2.97212 11.2 4V5.33334C11.2 5.62789 10.9612 5.86667 10.6667 5.86667C10.3721 5.86667 10.1334 5.62789 10.1334 5.33334V4C10.1334 3.56122 9.77214 3.2 9.33336 3.2H4.00003C3.56125 3.2 3.20003 3.56122 3.20003 4V9.33334C3.20003 9.77212 3.56125 10.1333 4.00003 10.1333H5.33336C5.62791 10.1333 5.8667 10.3721 5.8667 10.6667C5.8667 10.9612 5.62791 11.2 5.33336 11.2H4.00003C2.97214 11.2 2.13336 10.3612 2.13336 9.33334V4Z" fill="currentColor"/>
</svg>
