<svg width="16" height="16" viewBox="0 0 16 16" fill="none" xmlns="http://www.w3.org/2000/svg">
<path fill-rule="evenodd" clip-rule="evenodd" d="M2.66666 2.8C2.96122 2.8 3.2 3.03878 3.2 3.33333V7.33333C3.2 8.17211 3.82788 8.8 4.66666 8.8H9.33333C9.62788 8.8 9.86666 9.03878 9.86666 9.33333C9.86666 9.62788 9.62788 9.86667 9.33333 9.86667H4.66666C3.23878 9.86667 2.13333 8.76122 2.13333 7.33333V3.33333C2.13333 3.03878 2.37211 2.8 2.66666 2.8Z" fill="currentColor"/>
<path fill-rule="evenodd" clip-rule="evenodd" d="M6.28954 6.28954C6.49782 6.08126 6.83551 6.08126 7.04379 6.28954L9.71045 8.95621C9.91873 9.16449 9.91873 9.50218 9.71045 9.71046L7.04379 12.3771C6.83551 12.5854 6.49782 12.5854 6.28954 12.3771C6.08126 12.1688 6.08126 11.8312 6.28954 11.6229L8.57908 9.33333L6.28954 7.04379C6.08126 6.83551 6.08126 6.49782 6.28954 6.28954ZM9.62287 6.28954C9.83115 6.08126 10.1688 6.08126 10.3771 6.28954L13.0438 8.95621C13.2521 9.16449 13.2521 9.50218 13.0438 9.71046L10.3771 12.3771C10.1688 12.5854 9.83115 12.5854 9.62287 12.3771C9.41459 12.1688 9.41459 11.8312 9.62287 11.6229L11.9124 9.33333L9.62287 7.04379C9.41459 6.83551 9.41459 6.49782 9.62287 6.28954Z" fill="currentColor"/>
</svg>
