<svg width="16" height="16" viewBox="0 0 16 16" fill="none" xmlns="http://www.w3.org/2000/svg">
<path fill-rule="evenodd" clip-rule="evenodd" d="M12.6667 2.8C12.9612 2.8 13.2 3.03878 13.2 3.33333V7.33333C13.2 8.76122 12.0945 9.86667 10.6667 9.86667H6C5.70545 9.86667 5.46666 9.62788 5.46666 9.33333C5.46666 9.03878 5.70545 8.8 6 8.8H10.6667C11.5054 8.8 12.1333 8.17211 12.1333 7.33333V3.33333C12.1333 3.03878 12.3721 2.8 12.6667 2.8Z" fill="currentColor"/>
<path fill-rule="evenodd" clip-rule="evenodd" d="M5.71045 6.28954C5.91873 6.49782 5.91873 6.83551 5.71045 7.04379L3.42091 9.33333L5.71045 11.6229C5.91873 11.8312 5.91873 12.1688 5.71045 12.3771C5.50218 12.5854 5.16449 12.5854 4.95621 12.3771L2.28954 9.71046C2.08126 9.50218 2.08126 9.16449 2.28954 8.95621L4.95621 6.28954C5.16449 6.08126 5.50218 6.08126 5.71045 6.28954ZM9.04379 6.28954C9.25207 6.49782 9.25207 6.83551 9.04379 7.04379L6.75424 9.33333L9.04379 11.6229C9.25207 11.8312 9.25207 12.1688 9.04379 12.3771C8.83551 12.5854 8.49782 12.5854 8.28954 12.3771L5.62287 9.71046C5.41459 9.50218 5.41459 9.16449 5.62287 8.95621L8.28954 6.28954C8.49782 6.08126 8.83551 6.08126 9.04379 6.28954Z" fill="currentColor"/>
</svg>
