<svg width="16" height="16" viewBox="0 0 16 16" fill="none" xmlns="http://www.w3.org/2000/svg">
<path d="M12.1328 4C12.1328 3.96464 12.1187 3.93125 12.0937 3.90625C12.0687 3.88125 12.0354 3.86719 12 3.86719H3.99999C3.96463 3.86719 3.93125 3.88125 3.90624 3.90625C3.88124 3.93126 3.86718 3.96464 3.86718 4V12C3.86718 12.0354 3.88124 12.0687 3.90624 12.0938C3.93125 12.1188 3.96463 12.1328 3.99999 12.1328H12C12.0354 12.1328 12.0687 12.1188 12.0937 12.0938C12.1187 12.0687 12.1328 12.0354 12.1328 12V4ZM13.2005 12C13.2005 12.3183 13.074 12.6239 12.849 12.849C12.6239 13.074 12.3183 13.2005 12 13.2005H3.99999C3.68174 13.2005 3.37608 13.074 3.15104 12.849C2.92599 12.6239 2.79947 12.3183 2.79947 12V4C2.79947 3.68174 2.92599 3.37609 3.15104 3.15104C3.37608 2.926 3.68173 2.79948 3.99999 2.79948H12C12.3183 2.79948 12.6239 2.926 12.849 3.15104C13.074 3.37609 13.2005 3.68174 13.2005 4V12Z" fill="currentColor"/>
<path d="M9.99999 5.46615L10.1081 5.47786C10.3508 5.52784 10.5338 5.74249 10.5338 6V10C10.5338 10.2946 10.2945 10.5339 9.99999 10.5339H5.99999C5.70544 10.5339 5.46614 10.2946 5.46614 10V6L5.47786 5.89193C5.52783 5.64921 5.74249 5.46615 5.99999 5.46615H9.99999ZM6.53385 9.46615H9.46614V6.53385H6.53385V9.46615Z" fill="currentColor"/>
<path d="M3.33333 6.13281L3.4414 6.14453C3.68412 6.19451 3.86718 6.40916 3.86718 6.66667C3.86718 6.92418 3.68412 7.13883 3.4414 7.1888L3.33333 7.20052H1.99999C1.70544 7.20052 1.46614 6.96122 1.46614 6.66667C1.46614 6.37212 1.70544 6.13281 1.99999 6.13281H3.33333Z" fill="currentColor"/>
<path d="M3.33333 8.79948L3.4414 8.8112C3.68412 8.86117 3.86718 9.07582 3.86718 9.33333C3.86718 9.59084 3.68412 9.80549 3.4414 9.85547L3.33333 9.86719H1.99999C1.70544 9.86719 1.46614 9.62788 1.46614 9.33333C1.46614 9.03878 1.70544 8.79948 1.99999 8.79948H3.33333Z" fill="currentColor"/>
<path d="M6.13281 3.33333V2C6.13281 1.70545 6.37211 1.46615 6.66666 1.46615C6.96121 1.46615 7.20052 1.70545 7.20052 2V3.33333C7.20052 3.62789 6.96121 3.86719 6.66666 3.86719C6.37211 3.86719 6.13281 3.62789 6.13281 3.33333Z" fill="currentColor"/>
<path d="M8.79947 3.33333V2C8.79947 1.70545 9.03878 1.46615 9.33333 1.46615C9.62788 1.46615 9.86718 1.70545 9.86718 2V3.33333C9.86718 3.62789 9.62788 3.86719 9.33333 3.86719C9.03878 3.86719 8.79947 3.62789 8.79947 3.33333Z" fill="currentColor"/>
<path d="M14 6.13281L14.1081 6.14453C14.3508 6.19451 14.5338 6.40916 14.5338 6.66667C14.5338 6.92418 14.3508 7.13883 14.1081 7.1888L14 7.20052H12.6667C12.3721 7.20052 12.1328 6.96122 12.1328 6.66667C12.1328 6.37212 12.3721 6.13281 12.6667 6.13281H14Z" fill="currentColor"/>
<path d="M14 8.79948L14.1081 8.8112C14.3508 8.86117 14.5338 9.07582 14.5338 9.33333C14.5338 9.59084 14.3508 9.80549 14.1081 9.85547L14 9.86719H12.6667C12.3721 9.86719 12.1328 9.62788 12.1328 9.33333C12.1328 9.03878 12.3721 8.79948 12.6667 8.79948H14Z" fill="currentColor"/>
<path d="M8.79947 14V12.6667C8.79947 12.3721 9.03878 12.1328 9.33333 12.1328C9.62788 12.1328 9.86718 12.3721 9.86718 12.6667V14C9.86718 14.2946 9.62788 14.5339 9.33333 14.5339C9.03878 14.5339 8.79947 14.2946 8.79947 14Z" fill="currentColor"/>
<path d="M6.13281 14V12.6667C6.13281 12.3721 6.37211 12.1328 6.66666 12.1328C6.96121 12.1328 7.20052 12.3721 7.20052 12.6667V14C7.20052 14.2946 6.96121 14.5339 6.66666 14.5339C6.37211 14.5339 6.13281 14.2946 6.13281 14Z" fill="currentColor"/>
</svg>
