<svg width="16" height="16" viewBox="0 0 16 16" fill="none" xmlns="http://www.w3.org/2000/svg">
<g clip-path="url(#clip0_1623_949)">
<path d="M9.46614 8C9.46614 7.61102 9.31151 7.23859 9.03646 6.96354C8.7614 6.68849 8.38898 6.53385 8 6.53385C7.61101 6.53385 7.23859 6.68849 6.96354 6.96354C6.68849 7.23859 6.53385 7.61102 6.53385 8C6.53385 8.38898 6.68849 8.7614 6.96354 9.03646C7.23859 9.31151 7.61101 9.46615 8 9.46615C8.38898 9.46615 8.7614 9.31151 9.03646 9.03646C9.31151 8.7614 9.46614 8.38898 9.46614 8ZM10.5339 8C10.5339 8.67188 10.2668 9.31657 9.79166 9.79167C9.31657 10.2668 8.67188 10.5339 8 10.5339C7.32812 10.5339 6.68342 10.2668 6.20833 9.79167C5.73324 9.31657 5.46614 8.67188 5.46614 8C5.46614 7.32812 5.73324 6.68343 6.20833 6.20833C6.68342 5.73324 7.32812 5.46615 8 5.46615C8.67188 5.46615 9.31657 5.73324 9.79166 6.20833C10.2668 6.68343 10.5339 7.32812 10.5339 8Z" fill="currentColor"/>
<path d="M12.7943 7.76172C12.7354 6.57543 12.2384 5.44932 11.3945 4.60547C10.4944 3.70529 9.27304 3.20052 8 3.20052C6.72696 3.20052 5.50564 3.70529 4.60547 4.60547C3.70529 5.50564 3.20052 6.72696 3.20052 8L3.20573 8.23828C3.26464 9.42457 3.76161 10.5507 4.60547 11.3945C5.50564 12.2947 6.72696 12.7995 8 12.7995L8.23828 12.7943C9.42457 12.7354 10.5507 12.2384 11.3945 11.3945C12.2947 10.4944 12.7995 9.27304 12.7995 8L12.7943 7.76172ZM13.8594 8.29036C13.7876 9.74058 13.18 11.1169 12.1484 12.1484C11.1169 13.18 9.74058 13.7876 8.29036 13.8594L8 13.8672C6.44406 13.8672 4.95177 13.2487 3.85156 12.1484C2.81998 11.1169 2.21243 9.74058 2.14062 8.29036L2.13281 8C2.13281 6.44406 2.75135 4.95178 3.85156 3.85156C4.95177 2.75135 6.44406 2.13281 8 2.13281L8.29036 2.14062C9.74058 2.21244 11.1169 2.81998 12.1484 3.85156C13.2486 4.95178 13.8672 6.44406 13.8672 8L13.8594 8.29036Z" fill="currentColor"/>
<path d="M7.46614 2.66667V1.33333C7.46614 1.03878 7.70545 0.799479 8 0.799479C8.29455 0.799479 8.53385 1.03878 8.53385 1.33333V2.66667C8.53385 2.96122 8.29455 3.20052 8 3.20052C7.70545 3.20052 7.46614 2.96122 7.46614 2.66667Z" fill="currentColor"/>
<path d="M7.46614 14.6667V13.3333C7.46614 13.0388 7.70545 12.7995 8 12.7995C8.29455 12.7995 8.53385 13.0388 8.53385 13.3333V14.6667C8.53385 14.9612 8.29455 15.2005 8 15.2005C7.70545 15.2005 7.46614 14.9612 7.46614 14.6667Z" fill="currentColor"/>
<path d="M14.6667 7.46615L14.7747 7.47786C15.0175 7.52784 15.2005 7.74249 15.2005 8C15.2005 8.25751 15.0175 8.47216 14.7747 8.52213L14.6667 8.53385H13.3333C13.0388 8.53385 12.7995 8.29455 12.7995 8C12.7995 7.70545 13.0388 7.46615 13.3333 7.46615H14.6667Z" fill="currentColor"/>
<path d="M2.66666 7.46615L2.77474 7.47786C3.01745 7.52784 3.20052 7.74249 3.20052 8C3.20052 8.25751 3.01745 8.47216 2.77474 8.52213L2.66666 8.53385H1.33333C1.03878 8.53385 0.799477 8.29455 0.799477 8C0.799477 7.70545 1.03878 7.46615 1.33333 7.46615H2.66666Z" fill="currentColor"/>
</g>
<defs>
<clipPath id="clip0_1623_949">
<rect width="16" height="16" fill="currentColor"/>
</clipPath>
</defs>
</svg>
