<svg width="16" height="16" viewBox="0 0 16 16" fill="none" xmlns="http://www.w3.org/2000/svg">
<path d="M8.13281 3.33333C8.13281 3.12116 8.04847 2.91826 7.89844 2.76823C7.78582 2.65561 7.64351 2.58017 7.48958 2.54948L7.33333 2.53385C7.12116 2.53385 6.91826 2.6182 6.76823 2.76823C6.6182 2.91826 6.53385 3.12116 6.53385 3.33333C6.53385 3.54551 6.6182 3.74841 6.76823 3.89844C6.91826 4.04847 7.12116 4.13281 7.33333 4.13281L7.48958 4.11719C7.64351 4.0865 7.78582 4.01106 7.89844 3.89844C8.04847 3.74841 8.13281 3.54551 8.13281 3.33333ZM9.20052 3.33333C9.20052 3.8284 9.00371 4.30358 8.65365 4.65365C8.34742 4.95987 7.94542 5.14891 7.51823 5.19141L7.33333 5.20052C6.83826 5.20052 6.36309 5.00371 6.01302 4.65365C5.66295 4.30358 5.46615 3.8284 5.46615 3.33333C5.46615 2.83826 5.66295 2.36309 6.01302 2.01302C6.36309 1.66295 6.83826 1.46615 7.33333 1.46615L7.51823 1.47526C7.94542 1.51776 8.34742 1.70679 8.65365 2.01302C9.00371 2.36309 9.20052 2.83826 9.20052 3.33333Z" fill="currentColor"/>
<path d="M6.79948 4.66667C6.79948 4.37212 7.03878 4.13281 7.33333 4.13281C7.62788 4.13281 7.86719 4.37212 7.86719 4.66667V9.46615H10L10.1198 9.48047C10.2357 9.50721 10.3409 9.57196 10.4167 9.66667L13.0833 13L13.1419 13.0911C13.2547 13.3119 13.2012 13.5891 13 13.75C12.7987 13.9111 12.5162 13.9024 12.3255 13.7435L12.25 13.6667L9.74349 10.5339H7.33333C7.03878 10.5339 6.79948 10.2946 6.79948 10V4.66667Z" fill="currentColor"/>
<path d="M10.6667 6.79948L10.7747 6.8112C11.0175 6.86117 11.2005 7.07583 11.2005 7.33333C11.2005 7.59084 11.0175 7.80549 10.7747 7.85547L10.6667 7.86719H7.33333C7.03878 7.86719 6.79948 7.62789 6.79948 7.33333C6.79948 7.03878 7.03878 6.79948 7.33333 6.79948H10.6667Z" fill="currentColor"/>
<path d="M4.56575 7.14323C4.80934 7.096 5.06075 7.22418 5.1595 7.46224C5.2722 7.73438 5.14257 8.04615 4.87044 8.15885L4.57877 8.30078C4.29573 8.45856 4.04101 8.66424 3.82747 8.91016C3.54276 9.2381 3.33798 9.62888 3.22981 10.0495C3.12179 10.4699 3.11394 10.9102 3.20507 11.3346C3.29629 11.759 3.48467 12.1571 3.75585 12.4961C4.02705 12.8349 4.37359 13.1057 4.76757 13.2878C5.16166 13.4699 5.59276 13.5587 6.02669 13.5456C6.46078 13.5324 6.88643 13.418 7.26887 13.2122C7.6513 13.0065 7.98093 12.7143 8.23111 12.3594L8.30143 12.2773C8.48194 12.1076 8.76277 12.0825 8.9733 12.2305C9.21406 12.4002 9.2719 12.7332 9.10221 12.974L8.96809 13.1536C8.64238 13.5631 8.23617 13.9024 7.77408 14.151C7.24594 14.4352 6.65869 14.5924 6.05924 14.6107C5.45989 14.6289 4.86398 14.508 4.31965 14.2565C3.77541 14.005 3.29707 13.6296 2.92252 13.1615C2.54813 12.6934 2.28803 12.1446 2.1621 11.5586C2.03623 10.9724 2.04801 10.3645 2.19726 9.78386C2.34663 9.20302 2.62961 8.66382 3.02278 8.21094C3.41587 7.75834 3.90902 7.40385 4.46288 7.17448L4.56575 7.14323Z" fill="currentColor"/>
</svg>
