<svg width="16" height="16" viewBox="0 0 16 16" fill="none" xmlns="http://www.w3.org/2000/svg">
<path fill-rule="evenodd" clip-rule="evenodd" d="M1.62288 1.62288C1.83116 1.4146 2.16885 1.4146 2.37713 1.62288L14.3771 13.6229C14.5854 13.8312 14.5854 14.1688 14.3771 14.3771C14.1688 14.5854 13.8312 14.5854 13.6229 14.3771L1.62288 2.37712C1.4146 2.16884 1.4146 1.83116 1.62288 1.62288Z" fill="currentColor"/>
<path fill-rule="evenodd" clip-rule="evenodd" d="M7.43046 6.68288C7.63874 6.89116 7.63874 7.22884 7.43046 7.43712C7.11874 7.74884 7.11874 8.25782 7.43046 8.56954C7.74218 8.88126 8.25116 8.88126 8.56288 8.56954C8.77116 8.36126 9.10885 8.36126 9.31713 8.56954C9.52541 8.77782 9.52541 9.11551 9.31713 9.32379C8.58885 10.0521 7.40449 10.0521 6.67621 9.32379C5.94793 8.59551 5.94793 7.41116 6.67621 6.68288C6.88449 6.4746 7.22218 6.4746 7.43046 6.68288Z" fill="currentColor"/>
<path fill-rule="evenodd" clip-rule="evenodd" d="M8 3.86667C7.45446 3.86667 6.90939 3.94024 6.38336 4.08704C6.09965 4.16621 5.80547 4.0004 5.7263 3.71669C5.64712 3.43298 5.81293 3.1388 6.09664 3.05963C6.71729 2.88643 7.35888 2.8 8 2.8C10.9227 2.8 13.2919 4.52085 15.1297 7.73529C15.2236 7.89953 15.2234 8.10123 15.1293 8.26534C14.5934 9.19967 14.0177 10.0064 13.393 10.6872C13.1938 10.9043 12.8565 10.9188 12.6394 10.7196C12.4224 10.5205 12.4079 10.1831 12.607 9.9661C13.1116 9.41614 13.5911 8.76347 14.0487 7.99965C12.3577 5.17109 10.3388 3.86667 8 3.86667ZM4.86217 4.14179C5.02687 4.386 4.96242 4.71748 4.71821 4.88217C3.71977 5.55554 2.79551 6.58484 1.95096 7.99979C3.64204 10.8287 5.66105 12.1333 8 12.1333C9.18577 12.1333 10.2754 11.7991 11.275 11.1246C11.5192 10.9598 11.8507 11.0242 12.0154 11.2683C12.1802 11.5125 12.1158 11.844 11.8717 12.0088C10.6979 12.8009 9.4009 13.2 8 13.2C5.07733 13.2 2.70814 11.4792 0.870334 8.26471C0.776623 8.10081 0.776555 7.89957 0.870155 7.7356C1.81088 6.08761 2.88811 4.82984 4.12179 3.99783C4.366 3.83313 4.69748 3.89759 4.86217 4.14179Z" fill="currentColor"/>
</svg>
