<svg width="16" height="16" viewBox="0 0 16 16" fill="none" xmlns="http://www.w3.org/2000/svg">
<path fill-rule="evenodd" clip-rule="evenodd" d="M8 7.2C7.55818 7.2 7.2 7.55818 7.2 8C7.2 8.44183 7.55818 8.8 8 8.8C8.44183 8.8 8.8 8.44183 8.8 8C8.8 7.55818 8.44183 7.2 8 7.2ZM6.13334 8C6.13334 6.96907 6.96907 6.13334 8 6.13334C9.03093 6.13334 9.86667 6.96907 9.86667 8C9.86667 9.03093 9.03093 9.86667 8 9.86667C6.96907 9.86667 6.13334 9.03093 6.13334 8Z" fill="currentColor"/>
<path fill-rule="evenodd" clip-rule="evenodd" d="M1.95175 8C3.66029 10.8473 5.66085 12.1333 8 12.1333C10.3392 12.1333 12.3397 10.8473 14.0483 8C12.3397 5.15267 10.3392 3.86667 8 3.86667C5.66085 3.86667 3.66029 5.15267 1.95175 8ZM0.87088 7.73434C2.72845 4.5008 5.07738 2.8 8 2.8C10.9226 2.8 13.2716 4.5008 15.1291 7.73434C15.2236 7.89884 15.2236 8.10116 15.1291 8.26567C13.2716 11.4992 10.9226 13.2 8 13.2C5.07738 13.2 2.72845 11.4992 0.87088 8.26567C0.776377 8.10116 0.776377 7.89884 0.87088 7.73434Z" fill="currentColor"/>
</svg>
