<svg width="16" height="16" viewBox="0 0 16 16" fill="none" xmlns="http://www.w3.org/2000/svg">
<path d="M8.7995 4.66667V2C8.7995 1.70545 9.0388 1.46615 9.33335 1.46615C9.62791 1.46615 9.86721 1.70545 9.86721 2V4.66667C9.86721 4.74547 9.89007 4.77025 9.89325 4.77344C9.89643 4.77662 9.92122 4.79948 10 4.79948H12.6667L12.7748 4.8112C13.0175 4.86117 13.2005 5.07583 13.2005 5.33333C13.2005 5.59084 13.0175 5.80549 12.7748 5.85547L12.6667 5.86719H10C9.67882 5.86719 9.36949 5.75749 9.13934 5.52734C8.90919 5.2972 8.7995 4.98787 8.7995 4.66667Z" fill="currentColor"/>
<path d="M2.7995 12.6667V3.33333C2.7995 2.30545 3.6388 1.46615 4.66669 1.46615H9.33335L9.43752 1.47656C9.5402 1.497 9.63584 1.54727 9.71096 1.6224L13.0443 4.95573C13.1443 5.05575 13.2005 5.19188 13.2005 5.33333V12.6667C13.2005 13.6946 12.3612 14.5339 11.3334 14.5339H4.66669C3.6388 14.5339 2.7995 13.6946 2.7995 12.6667ZM3.86721 12.6667C3.86721 13.1054 4.22791 13.4661 4.66669 13.4661H11.3334C11.7721 13.4661 12.1328 13.1054 12.1328 12.6667V5.55469L9.112 2.53385H4.66669C4.22791 2.53385 3.86721 2.89455 3.86721 3.33333V12.6667Z" fill="currentColor"/>
<path d="M7.46617 11.3333V7.33333C7.46617 7.03878 7.70547 6.79948 8.00002 6.79948C8.29457 6.79948 8.53387 7.03878 8.53387 7.33333V11.3333C8.53387 11.6279 8.29457 11.8672 8.00002 11.8672C7.70547 11.8672 7.46617 11.6279 7.46617 11.3333Z" fill="currentColor"/>
<path d="M9.28908 9.28906C9.49736 9.08078 9.83601 9.08078 10.0443 9.28906C10.2526 9.49734 10.2526 9.83599 10.0443 10.0443L8.37762 11.7109C8.19546 11.8931 7.91404 11.9151 7.70705 11.7786L7.62242 11.7109L5.95575 10.0443L5.88804 9.95964C5.75156 9.75265 5.77358 9.47123 5.95575 9.28906C6.13791 9.1069 6.41933 9.08487 6.62632 9.22135L6.71096 9.28906L8.00002 10.5781L9.28908 9.28906Z" fill="currentColor"/>
</svg>
