<svg width="16" height="16" viewBox="0 0 16 16" fill="none" xmlns="http://www.w3.org/2000/svg">
<path fill-rule="evenodd" clip-rule="evenodd" d="M9.33332 1.46667C9.62787 1.46667 9.86665 1.70545 9.86665 2V4.66667C9.86665 4.74547 9.89059 4.76969 9.89378 4.77288C9.89696 4.77606 9.92119 4.8 9.99999 4.8H12.6667C12.9612 4.8 13.2 5.03878 13.2 5.33333C13.2 5.62789 12.9612 5.86667 12.6667 5.86667H9.99999C9.67879 5.86667 9.36968 5.75727 9.13953 5.52712C8.90938 5.29698 8.79999 4.98787 8.79999 4.66667V2C8.79999 1.70545 9.03877 1.46667 9.33332 1.46667Z" fill="currentColor"/>
<path fill-rule="evenodd" clip-rule="evenodd" d="M4.66665 2.53333C4.22787 2.53333 3.86665 2.89455 3.86665 3.33333V12.6667C3.86665 13.1054 4.22787 13.4667 4.66665 13.4667H11.3333C11.7721 13.4667 12.1333 13.1054 12.1333 12.6667V5.55425L9.11241 2.53333H4.66665ZM2.79999 3.33333C2.79999 2.30545 3.63877 1.46667 4.66665 1.46667H9.33332C9.47477 1.46667 9.61043 1.52286 9.71044 1.62288L13.0438 4.95621C13.1438 5.05623 13.2 5.19189 13.2 5.33333V12.6667C13.2 13.6946 12.3612 14.5333 11.3333 14.5333H4.66665C3.63877 14.5333 2.79999 13.6946 2.79999 12.6667V3.33333Z" fill="currentColor"/>
<path fill-rule="evenodd" clip-rule="evenodd" d="M10.3771 8.28954C10.5854 8.49782 10.5854 8.83551 10.3771 9.04379L7.71044 11.7105C7.50217 11.9187 7.16448 11.9187 6.9562 11.7105L5.62286 10.3771C5.41458 10.1688 5.41458 9.83116 5.62286 9.62288C5.83114 9.4146 6.16883 9.4146 6.37711 9.62288L7.33332 10.5791L9.62286 8.28954C9.83114 8.08126 10.1688 8.08126 10.3771 8.28954Z" fill="currentColor"/>
</svg>
