<svg width="16" height="16" viewBox="0 0 16 16" fill="none" xmlns="http://www.w3.org/2000/svg">
<path d="M8.7995 4.66667V2C8.7995 1.70545 9.0388 1.46615 9.33335 1.46615C9.62791 1.46615 9.86721 1.70545 9.86721 2V4.66667C9.86721 4.74547 9.89007 4.77025 9.89325 4.77344C9.89643 4.77662 9.92122 4.79948 10 4.79948H12.6667L12.7748 4.8112C13.0175 4.86117 13.2005 5.07583 13.2005 5.33333C13.2005 5.59084 13.0175 5.80549 12.7748 5.85547L12.6667 5.86719H10C9.67882 5.86719 9.36949 5.75749 9.13934 5.52734C8.90919 5.2972 8.7995 4.98787 8.7995 4.66667Z" fill="currentColor"/>
<path d="M2.7995 12.6667V3.33333C2.7995 2.30545 3.6388 1.46615 4.66669 1.46615H9.33335L9.43752 1.47656C9.5402 1.497 9.63584 1.54727 9.71096 1.6224L13.0443 4.95573C13.1443 5.05575 13.2005 5.19188 13.2005 5.33333V12.6667C13.2005 13.6946 12.3612 14.5339 11.3334 14.5339H4.66669C3.6388 14.5339 2.7995 13.6946 2.7995 12.6667ZM3.86721 12.6667C3.86721 13.1054 4.22791 13.4661 4.66669 13.4661H11.3334C11.7721 13.4661 12.1328 13.1054 12.1328 12.6667V5.55469L9.112 2.53385H4.66669C4.22791 2.53385 3.86721 2.89455 3.86721 3.33333V12.6667Z" fill="currentColor"/>
<path d="M10.6667 6.79948L10.7748 6.8112C11.0175 6.86117 11.2005 7.07583 11.2005 7.33333V12C11.2005 12.2946 10.9612 12.5339 10.6667 12.5339H5.33335C5.0388 12.5339 4.7995 12.2946 4.7995 12V7.33333L4.81122 7.22526C4.86119 6.98255 5.07585 6.79948 5.33335 6.79948H10.6667ZM5.86721 11.4661H10.1328V7.86719H5.86721V11.4661Z" fill="currentColor"/>
<path d="M10.6667 9.46615L10.7748 9.47786C11.0175 9.52784 11.2005 9.74249 11.2005 10C11.2005 10.2575 11.0175 10.4722 10.7748 10.5221L10.6667 10.5339H5.33335C5.0388 10.5339 4.7995 10.2946 4.7995 10C4.7995 9.70545 5.0388 9.46615 5.33335 9.46615H10.6667Z" fill="currentColor"/>
<path d="M6.7995 12V7.33333C6.7995 7.03878 7.0388 6.79948 7.33335 6.79948C7.62791 6.79948 7.86721 7.03878 7.86721 7.33333V12C7.86721 12.2946 7.62791 12.5339 7.33335 12.5339C7.0388 12.5339 6.7995 12.2946 6.7995 12Z" fill="currentColor"/>
</svg>
