<svg width="16" height="16" viewBox="0 0 16 16" fill="none" xmlns="http://www.w3.org/2000/svg">
<path fill-rule="evenodd" clip-rule="evenodd" d="M9.33332 1.46667C9.62787 1.46667 9.86665 1.70545 9.86665 2V4.66667C9.86665 4.74547 9.89059 4.76969 9.89378 4.77288C9.89696 4.77606 9.92119 4.8 9.99999 4.8H12.6667C12.9612 4.8 13.2 5.03878 13.2 5.33333C13.2 5.62789 12.9612 5.86667 12.6667 5.86667H9.99999C9.67879 5.86667 9.36968 5.75727 9.13953 5.52712C8.90938 5.29698 8.79999 4.98787 8.79999 4.66667V2C8.79999 1.70545 9.03877 1.46667 9.33332 1.46667Z" fill="currentColor"/>
<path fill-rule="evenodd" clip-rule="evenodd" d="M4.66665 2.53333C4.22787 2.53333 3.86665 2.89455 3.86665 3.33333V12.6667C3.86665 13.1054 4.22787 13.4667 4.66665 13.4667H11.3333C11.7721 13.4667 12.1333 13.1054 12.1333 12.6667V5.55425L9.11241 2.53333H4.66665ZM2.79999 3.33333C2.79999 2.30545 3.63877 1.46667 4.66665 1.46667H9.33332C9.47477 1.46667 9.61043 1.52286 9.71044 1.62288L13.0438 4.95621C13.1438 5.05623 13.2 5.19189 13.2 5.33333V12.6667C13.2 13.6946 12.3612 14.5333 11.3333 14.5333H4.66665C3.63877 14.5333 2.79999 13.6946 2.79999 12.6667V3.33333Z" fill="currentColor"/>
<path fill-rule="evenodd" clip-rule="evenodd" d="M5.46665 6C5.46665 5.70545 5.70544 5.46667 5.99999 5.46667H6.66665C6.96121 5.46667 7.19999 5.70545 7.19999 6C7.19999 6.29455 6.96121 6.53333 6.66665 6.53333H5.99999C5.70544 6.53333 5.46665 6.29455 5.46665 6Z" fill="currentColor"/>
<path fill-rule="evenodd" clip-rule="evenodd" d="M5.46665 8.66667C5.46665 8.37212 5.70544 8.13333 5.99999 8.13333H9.99999C10.2945 8.13333 10.5333 8.37212 10.5333 8.66667C10.5333 8.96122 10.2945 9.2 9.99999 9.2H5.99999C5.70544 9.2 5.46665 8.96122 5.46665 8.66667Z" fill="currentColor"/>
<path fill-rule="evenodd" clip-rule="evenodd" d="M5.46665 11.3333C5.46665 11.0388 5.70544 10.8 5.99999 10.8H9.99999C10.2945 10.8 10.5333 11.0388 10.5333 11.3333C10.5333 11.6279 10.2945 11.8667 9.99999 11.8667H5.99999C5.70544 11.8667 5.46665 11.6279 5.46665 11.3333Z" fill="currentColor"/>
</svg>
