<svg width="16" height="16" viewBox="0 0 16 16" fill="none" xmlns="http://www.w3.org/2000/svg">
<path fill-rule="evenodd" clip-rule="evenodd" d="M9.33334 1.46667C9.62789 1.46667 9.86667 1.70545 9.86667 2V4.66667C9.86667 4.74547 9.89061 4.76969 9.89379 4.77288C9.89698 4.77606 9.9212 4.8 10 4.8H12.6667C12.9612 4.8 13.2 5.03878 13.2 5.33333C13.2 5.62789 12.9612 5.86667 12.6667 5.86667H10C9.6788 5.86667 9.3697 5.75727 9.13955 5.52712C8.9094 5.29698 8.8 4.98787 8.8 4.66667V2C8.8 1.70545 9.03878 1.46667 9.33334 1.46667Z" fill="currentColor"/>
<path fill-rule="evenodd" clip-rule="evenodd" d="M4.66667 2.53333C4.22789 2.53333 3.86667 2.89455 3.86667 3.33333V12.6667C3.86667 13.1054 4.22789 13.4667 4.66667 13.4667H11.3333C11.7721 13.4667 12.1333 13.1054 12.1333 12.6667V5.55425L9.11242 2.53333H4.66667ZM2.8 3.33333C2.8 2.30545 3.63878 1.46667 4.66667 1.46667H9.33334C9.47479 1.46667 9.61044 1.52286 9.71046 1.62288L13.0438 4.95621C13.1438 5.05623 13.2 5.19189 13.2 5.33333V12.6667C13.2 13.6946 12.3612 14.5333 11.3333 14.5333H4.66667C3.63878 14.5333 2.8 13.6946 2.8 12.6667V3.33333Z" fill="currentColor"/>
<path fill-rule="evenodd" clip-rule="evenodd" d="M8 6.8C8.29456 6.8 8.53334 7.03878 8.53334 7.33333V11.3333C8.53334 11.6279 8.29456 11.8667 8 11.8667C7.70545 11.8667 7.46667 11.6279 7.46667 11.3333V7.33333C7.46667 7.03878 7.70545 6.8 8 6.8Z" fill="currentColor"/>
<path fill-rule="evenodd" clip-rule="evenodd" d="M7.62288 6.95621C7.83116 6.74793 8.16885 6.74793 8.37713 6.95621L10.3771 8.95621C10.5854 9.16449 10.5854 9.50218 10.3771 9.71046C10.1688 9.91874 9.83116 9.91874 9.62288 9.71046L8 8.08758L6.37713 9.71046C6.16885 9.91874 5.83116 9.91874 5.62288 9.71046C5.4146 9.50218 5.4146 9.16449 5.62288 8.95621L7.62288 6.95621Z" fill="currentColor"/>
</svg>
