<svg width="16" height="16" viewBox="0 0 16 16" fill="none" xmlns="http://www.w3.org/2000/svg">
<path fill-rule="evenodd" clip-rule="evenodd" d="M9.33333 1.46667C9.62789 1.46667 9.86667 1.70545 9.86667 2V4.66667C9.86667 4.74547 9.89061 4.76969 9.89379 4.77288C9.89698 4.77606 9.9212 4.8 10 4.8H12.6667C12.9612 4.8 13.2 5.03878 13.2 5.33333C13.2 5.62789 12.9612 5.86667 12.6667 5.86667H10C9.6788 5.86667 9.36969 5.75727 9.13954 5.52712C8.90939 5.29698 8.8 4.98787 8.8 4.66667V2C8.8 1.70545 9.03878 1.46667 9.33333 1.46667Z" fill="currentColor"/>
<path fill-rule="evenodd" clip-rule="evenodd" d="M4.66667 2.53333C4.22789 2.53333 3.86667 2.89455 3.86667 3.33333V5.33333C3.86667 5.62789 3.62789 5.86667 3.33333 5.86667C3.03878 5.86667 2.8 5.62789 2.8 5.33333V3.33333C2.8 2.30545 3.63878 1.46667 4.66667 1.46667H9.33333C9.47478 1.46667 9.61044 1.52286 9.71046 1.62288L13.0438 4.95621C13.1438 5.05623 13.2 5.19188 13.2 5.33333V12.6667C13.2 13.6946 12.3612 14.5333 11.3333 14.5333H8C7.70545 14.5333 7.46667 14.2946 7.46667 14C7.46667 13.7054 7.70545 13.4667 8 13.4667H11.3333C11.7721 13.4667 12.1333 13.1054 12.1333 12.6667V5.55425L9.11242 2.53333H4.66667Z" fill="currentColor"/>
<path fill-rule="evenodd" clip-rule="evenodd" d="M4 7.86667C3.18998 7.86667 2.53333 8.52332 2.53333 9.33333C2.53333 10.1434 3.18998 10.8 4 10.8C4.81002 10.8 5.46667 10.1434 5.46667 9.33333C5.46667 8.52332 4.81002 7.86667 4 7.86667ZM1.46667 9.33333C1.46667 7.93421 2.60088 6.8 4 6.8C5.39912 6.8 6.53333 7.93421 6.53333 9.33333C6.53333 10.7325 5.39912 11.8667 4 11.8667C2.60088 11.8667 1.46667 10.7325 1.46667 9.33333Z" fill="currentColor"/>
<path fill-rule="evenodd" clip-rule="evenodd" d="M3.15325 10.8225C3.43538 10.9071 3.59548 11.2045 3.51084 11.4866L2.86553 13.6376L3.76149 13.1896C3.91163 13.1146 4.08837 13.1146 4.23851 13.1896L5.13447 13.6376L4.48916 11.4866C4.40452 11.2045 4.56462 10.9071 4.84675 10.8225C5.12888 10.7379 5.4262 10.898 5.51084 11.1801L6.51084 14.5134C6.57198 14.7172 6.50613 14.9379 6.3433 15.0748C6.18046 15.2118 5.9518 15.2388 5.76149 15.1437L4 14.263L2.23851 15.1437C2.0482 15.2388 1.81954 15.2118 1.6567 15.0748C1.49387 14.9379 1.42802 14.7172 1.48916 14.5134L2.48916 11.1801C2.5738 10.898 2.87112 10.7379 3.15325 10.8225Z" fill="currentColor"/>
</svg>
