<svg width="16" height="16" viewBox="0 0 16 16" fill="none" xmlns="http://www.w3.org/2000/svg">
<path fill-rule="evenodd" clip-rule="evenodd" d="M9.33332 1.46667C9.62787 1.46667 9.86665 1.70545 9.86665 2V4.66667C9.86665 4.74547 9.89059 4.76969 9.89378 4.77288C9.89696 4.77606 9.92119 4.8 9.99999 4.8H12.6667C12.9612 4.8 13.2 5.03878 13.2 5.33333C13.2 5.62789 12.9612 5.86667 12.6667 5.86667H9.99999C9.67879 5.86667 9.36968 5.75727 9.13953 5.52712C8.90938 5.29698 8.79999 4.98787 8.79999 4.66667V2C8.79999 1.70545 9.03877 1.46667 9.33332 1.46667Z" fill="currentColor"/>
<path fill-rule="evenodd" clip-rule="evenodd" d="M4.66665 2.53333C4.22787 2.53333 3.86665 2.89455 3.86665 3.33333V12.6667C3.86665 13.1054 4.22787 13.4667 4.66665 13.4667H7.66665C7.96121 13.4667 8.19999 13.7054 8.19999 14C8.19999 14.2946 7.96121 14.5333 7.66665 14.5333H4.66665C3.63877 14.5333 2.79999 13.6946 2.79999 12.6667V3.33333C2.79999 2.30545 3.63877 1.46667 4.66665 1.46667H9.33332C9.47477 1.46667 9.61043 1.52286 9.71044 1.62288L13.0438 4.95621C13.1438 5.05623 13.2 5.19189 13.2 5.33333V8.66667C13.2 8.96122 12.9612 9.2 12.6667 9.2C12.3721 9.2 12.1333 8.96122 12.1333 8.66667V5.55425L9.11241 2.53333H4.66665ZM11.6229 10.2895C11.8311 10.0813 12.1688 10.0813 12.3771 10.2895L14.3771 12.2895C14.5854 12.4978 14.5854 12.8355 14.3771 13.0438L12.3771 15.0438C12.1688 15.2521 11.8311 15.2521 11.6229 15.0438C11.4146 14.8355 11.4146 14.4978 11.6229 14.2895L12.7124 13.2H9.33332C9.03877 13.2 8.79999 12.9612 8.79999 12.6667C8.79999 12.3721 9.03877 12.1333 9.33332 12.1333H12.7124L11.6229 11.0438C11.4146 10.8355 11.4146 10.4978 11.6229 10.2895Z" fill="currentColor"/>
</svg>
