<svg width="16" height="16" viewBox="0 0 16 16" fill="none" xmlns="http://www.w3.org/2000/svg">
<path fill-rule="evenodd" clip-rule="evenodd" d="M4.66667 2.53333C4.22484 2.53333 3.86667 2.89151 3.86667 3.33333C3.86667 3.77516 4.22484 4.13333 4.66667 4.13333C5.10849 4.13333 5.46667 3.77516 5.46667 3.33333C5.46667 2.89151 5.10849 2.53333 4.66667 2.53333ZM2.8 3.33333C2.8 2.3024 3.63573 1.46667 4.66667 1.46667C5.6976 1.46667 6.53333 2.3024 6.53333 3.33333C6.53333 4.36427 5.6976 5.2 4.66667 5.2C3.63573 5.2 2.8 4.36427 2.8 3.33333Z" fill="currentColor"/>
<path fill-rule="evenodd" clip-rule="evenodd" d="M3.22712 7.89379C3.22394 7.89698 3.2 7.9212 3.2 8V10.4458L3.71046 10.9562C3.81048 11.0562 3.86667 11.1919 3.86667 11.3333V14.6667C3.86667 14.9612 3.62789 15.2 3.33333 15.2C3.03878 15.2 2.8 14.9612 2.8 14.6667V11.5542L2.28954 11.0438C2.18952 10.9438 2.13333 10.8081 2.13333 10.6667V8C2.13333 7.6788 2.24273 7.36969 2.47288 7.13954C2.70303 6.90939 3.01213 6.8 3.33333 6.8H6C6.3212 6.8 6.63031 6.90939 6.86046 7.13954C7.09061 7.36969 7.2 7.6788 7.2 8V10.6667C7.2 10.8081 7.14381 10.9438 7.04379 11.0438L6.53333 11.5542V14.6667C6.53333 14.9612 6.29455 15.2 6 15.2C5.70545 15.2 5.46667 14.9612 5.46667 14.6667V11.3333C5.46667 11.1919 5.52286 11.0562 5.62288 10.9562L6.13333 10.4458V8C6.13333 7.9212 6.10939 7.89698 6.10621 7.89379C6.10303 7.89061 6.0788 7.86667 6 7.86667H3.33333C3.25453 7.86667 3.23031 7.89061 3.22712 7.89379Z" fill="currentColor"/>
<path fill-rule="evenodd" clip-rule="evenodd" d="M11.3333 2.53333C10.8915 2.53333 10.5333 2.89151 10.5333 3.33333C10.5333 3.77516 10.8915 4.13333 11.3333 4.13333C11.7752 4.13333 12.1333 3.77516 12.1333 3.33333C12.1333 2.89151 11.7752 2.53333 11.3333 2.53333ZM9.46667 3.33333C9.46667 2.3024 10.3024 1.46667 11.3333 1.46667C12.3643 1.46667 13.2 2.3024 13.2 3.33333C13.2 4.36427 12.3643 5.2 11.3333 5.2C10.3024 5.2 9.46667 4.36427 9.46667 3.33333Z" fill="currentColor"/>
<path fill-rule="evenodd" clip-rule="evenodd" d="M10.5605 7.89379C10.5573 7.89698 10.5333 7.9212 10.5333 8C10.5333 8.05732 10.5241 8.11427 10.506 8.16866L9.40663 11.4667H10C10.2946 11.4667 10.5333 11.7054 10.5333 12V14.6667C10.5333 14.9612 10.2946 15.2 10 15.2C9.70545 15.2 9.46667 14.9612 9.46667 14.6667V12.5333H8.66667C8.49523 12.5333 8.33424 12.4509 8.234 12.3118C8.13376 12.1728 8.10649 11.994 8.1607 11.8313L9.47 7.90344C9.48991 7.61737 9.59923 7.34653 9.80621 7.13954C10.0364 6.90939 10.3455 6.8 10.6667 6.8H12C12.3212 6.8 12.6303 6.90939 12.8605 7.13954C13.0674 7.34653 13.1768 7.61737 13.1967 7.90344L14.506 11.8313C14.5602 11.994 14.5329 12.1728 14.4327 12.3118C14.3324 12.4509 14.1714 12.5333 14 12.5333H13.2V14.6667C13.2 14.9612 12.9612 15.2 12.6667 15.2C12.3721 15.2 12.1333 14.9612 12.1333 14.6667V12C12.1333 11.7054 12.3721 11.4667 12.6667 11.4667H13.26L12.1607 8.16866C12.1426 8.11427 12.1333 8.05732 12.1333 8C12.1333 7.9212 12.1094 7.89698 12.1062 7.89379C12.103 7.89061 12.0788 7.86667 12 7.86667H10.6667C10.5879 7.86667 10.5636 7.89061 10.5605 7.89379Z" fill="currentColor"/>
</svg>
