<svg width="16" height="16" viewBox="0 0 16 16" fill="none" xmlns="http://www.w3.org/2000/svg">
<path d="M13.3333 4.79948L13.4414 4.8112C13.6841 4.86117 13.8672 5.07582 13.8672 5.33333C13.8672 5.59084 13.6841 5.80549 13.4414 5.85547L13.3333 5.86719H2.66667C2.37211 5.86719 2.13281 5.62788 2.13281 5.33333C2.13281 5.03878 2.37211 4.79948 2.66667 4.79948H13.3333Z" fill="currentColor"/>
<path d="M13.3333 10.1328L13.4414 10.1445C13.6841 10.1945 13.8672 10.4092 13.8672 10.6667C13.8672 10.9242 13.6841 11.1388 13.4414 11.1888L13.3333 11.2005H2.66667C2.37211 11.2005 2.13281 10.9612 2.13281 10.6667C2.13281 10.3721 2.37211 10.1328 2.66667 10.1328H13.3333Z" fill="currentColor"/>
</svg>
