<svg width="16" height="16" viewBox="0 0 16 16" fill="none" xmlns="http://www.w3.org/2000/svg">
<path d="M4.79948 10C4.79948 9.56122 4.43878 9.20052 4 9.20052C3.56122 9.20052 3.20052 9.56122 3.20052 10V11.3333C3.20052 11.7721 3.56122 12.1328 4 12.1328C4.43878 12.1328 4.79948 11.7721 4.79948 11.3333V10ZM5.86719 11.3333C5.86719 12.3612 5.02789 13.2005 4 13.2005C2.97211 13.2005 2.13281 12.3612 2.13281 11.3333V10C2.13281 8.97211 2.97211 8.13281 4 8.13281C5.02789 8.13281 5.86719 8.97211 5.86719 10V11.3333Z" fill="currentColor"/>
<path d="M12.7995 10C12.7995 9.56122 12.4388 9.20052 12 9.20052C11.5612 9.20052 11.2005 9.56122 11.2005 10V11.3333C11.2005 11.7721 11.5612 12.1328 12 12.1328C12.4388 12.1328 12.7995 11.7721 12.7995 11.3333V10ZM13.8672 11.3333C13.8672 12.3612 13.0279 13.2005 12 13.2005C10.9721 13.2005 10.1328 12.3612 10.1328 11.3333V10C10.1328 8.97211 10.9721 8.13281 12 8.13281C13.0279 8.13281 13.8672 8.97211 13.8672 10V11.3333Z" fill="currentColor"/>
<path d="M12.7995 10V8C12.7995 5.36122 10.6388 3.20052 8 3.20052C5.36122 3.20052 3.20052 5.36122 3.20052 8V10C3.20052 10.2946 2.96122 10.5339 2.66667 10.5339C2.37211 10.5339 2.13281 10.2946 2.13281 10V8C2.13281 4.77211 4.77211 2.13281 8 2.13281C11.2279 2.13281 13.8672 4.77211 13.8672 8V10C13.8672 10.2946 13.6279 10.5339 13.3333 10.5339C13.0388 10.5339 12.7995 10.2946 12.7995 10Z" fill="currentColor"/>
<path d="M11.4661 12.6667C11.4661 12.3721 11.7054 12.1328 12 12.1328C12.2946 12.1328 12.5339 12.3721 12.5339 12.6667C12.5339 13.5432 11.8468 14.182 11.0612 14.5703C10.247 14.9727 9.16225 15.2005 8 15.2005C7.70545 15.2005 7.46615 14.9612 7.46615 14.6667C7.46615 14.3721 7.70545 14.1328 8 14.1328C9.03761 14.1328 9.95276 13.9275 10.5885 13.6133C11.253 13.2849 11.4661 12.9235 11.4661 12.6667Z" fill="currentColor"/>
</svg>
