<svg width="16" height="16" viewBox="0 0 16 16" fill="none" xmlns="http://www.w3.org/2000/svg">
<path fill-rule="evenodd" clip-rule="evenodd" d="M8 4.8C8.29455 4.8 8.53333 5.03878 8.53333 5.33333V7.77908L9.71046 8.95621C9.91874 9.16449 9.91874 9.50218 9.71046 9.71046C9.50218 9.91874 9.16449 9.91874 8.95621 9.71046L7.62288 8.37712C7.52286 8.2771 7.46667 8.14145 7.46667 8V5.33333C7.46667 5.03878 7.70545 4.8 8 4.8Z" fill="currentColor"/>
<path fill-rule="evenodd" clip-rule="evenodd" d="M8.54586 2.53058C5.57584 2.22751 2.89505 4.41186 2.52938 7.39815C2.49358 7.69052 2.22755 7.89851 1.93518 7.86271C1.64281 7.82691 1.43482 7.56088 1.47062 7.26851C1.90495 3.72147 5.09082 1.10582 8.65414 1.46942C12.2166 1.83294 14.8263 5.03026 14.464 8.65307C14.1006 12.2145 10.9049 14.8248 7.28332 14.4643C5.34767 14.2926 3.58994 13.2307 2.53333 11.6236V13.3333C2.53333 13.6279 2.29455 13.8667 2 13.8667C1.70545 13.8667 1.46667 13.6279 1.46667 13.3333V10C1.46667 9.70545 1.70545 9.46667 2 9.46667H2.32105C2.32931 9.46647 2.33755 9.46647 2.34577 9.46667H5.33333C5.62789 9.46667 5.86667 9.70545 5.86667 10C5.86667 10.2945 5.62789 10.5333 5.33333 10.5333H3.13237C3.95084 12.1477 5.57174 13.2425 7.38021 13.4021L7.38641 13.4026C10.4301 13.707 13.0993 11.5169 13.4027 8.5463C13.7067 5.50271 11.5165 2.83371 8.54586 2.53058Z" fill="currentColor"/>
</svg>
