<svg width="16" height="16" viewBox="0 0 16 16" fill="none" xmlns="http://www.w3.org/2000/svg">
<path fill-rule="evenodd" clip-rule="evenodd" d="M4 3.2C3.16122 3.2 2.53333 3.82788 2.53333 4.66666V11.3333C2.53333 12.1721 3.16122 12.8 4 12.8H12C12.8388 12.8 13.4667 12.1721 13.4667 11.3333V4.66666C13.4667 3.82788 12.8388 3.2 12 3.2H4ZM1.46667 4.66666C1.46667 3.23878 2.57212 2.13333 4 2.13333H12C13.4279 2.13333 14.5333 3.23878 14.5333 4.66666V11.3333C14.5333 12.7612 13.4279 13.8667 12 13.8667H4C2.57212 13.8667 1.46667 12.7612 1.46667 11.3333V4.66666Z" fill="currentColor"/>
<path fill-rule="evenodd" clip-rule="evenodd" d="M6 5.86666C5.55817 5.86666 5.2 6.22484 5.2 6.66666C5.2 7.10849 5.55817 7.46666 6 7.46666C6.44183 7.46666 6.8 7.10849 6.8 6.66666C6.8 6.22484 6.44183 5.86666 6 5.86666ZM4.13333 6.66666C4.13333 5.63573 4.96907 4.8 6 4.8C7.03093 4.8 7.86667 5.63573 7.86667 6.66666C7.86667 7.6976 7.03093 8.53333 6 8.53333C4.96907 8.53333 4.13333 7.6976 4.13333 6.66666Z" fill="currentColor"/>
<path fill-rule="evenodd" clip-rule="evenodd" d="M9.46667 5.33333C9.46667 5.03878 9.70545 4.8 10 4.8H11.3333C11.6279 4.8 11.8667 5.03878 11.8667 5.33333C11.8667 5.62788 11.6279 5.86666 11.3333 5.86666H10C9.70545 5.86666 9.46667 5.62788 9.46667 5.33333Z" fill="currentColor"/>
<path fill-rule="evenodd" clip-rule="evenodd" d="M9.46667 8C9.46667 7.70545 9.70545 7.46666 10 7.46666H11.3333C11.6279 7.46666 11.8667 7.70545 11.8667 8C11.8667 8.29455 11.6279 8.53333 11.3333 8.53333H10C9.70545 8.53333 9.46667 8.29455 9.46667 8Z" fill="currentColor"/>
<path fill-rule="evenodd" clip-rule="evenodd" d="M4.13333 10.6667C4.13333 10.3721 4.37212 10.1333 4.66667 10.1333H11.3333C11.6279 10.1333 11.8667 10.3721 11.8667 10.6667C11.8667 10.9612 11.6279 11.2 11.3333 11.2H4.66667C4.37212 11.2 4.13333 10.9612 4.13333 10.6667Z" fill="currentColor"/>
</svg>
