<svg width="16" height="16" viewBox="0 0 16 16" fill="none" xmlns="http://www.w3.org/2000/svg">
<path fill-rule="evenodd" clip-rule="evenodd" d="M6.8 3.33334C6.8 3.03878 7.03878 2.8 7.33333 2.8H11.3333C11.6279 2.8 11.8667 3.03878 11.8667 3.33334C11.8667 3.62789 11.6279 3.86667 11.3333 3.86667H7.33333C7.03878 3.86667 6.8 3.62789 6.8 3.33334Z" fill="currentColor"/>
<path fill-rule="evenodd" clip-rule="evenodd" d="M4.13333 12.6667C4.13333 12.3721 4.37211 12.1333 4.66666 12.1333H8.66667C8.96122 12.1333 9.2 12.3721 9.2 12.6667C9.2 12.9612 8.96122 13.2 8.66667 13.2H4.66666C4.37211 13.2 4.13333 12.9612 4.13333 12.6667Z" fill="currentColor"/>
<path fill-rule="evenodd" clip-rule="evenodd" d="M9.47985 2.82052C9.76307 2.90144 9.92706 3.19664 9.84614 3.47985L7.17948 12.8132C7.09856 13.0964 6.80337 13.2604 6.52015 13.1795C6.23693 13.0986 6.07293 12.8034 6.15385 12.5202L8.82052 3.18682C8.90144 2.9036 9.19663 2.7396 9.47985 2.82052Z" fill="currentColor"/>
</svg>
