<svg width="16" height="16" viewBox="0 0 16 16" fill="none" xmlns="http://www.w3.org/2000/svg">
<path fill-rule="evenodd" clip-rule="evenodd" d="M2.13333 3.33333C2.13333 3.03878 2.37211 2.8 2.66666 2.8H7.33333C7.62788 2.8 7.86666 3.03878 7.86666 3.33333C7.86666 3.62789 7.62788 3.86667 7.33333 3.86667H2.66666C2.37211 3.86667 2.13333 3.62789 2.13333 3.33333Z" fill="currentColor"/>
<path fill-rule="evenodd" clip-rule="evenodd" d="M6 1.46667C6.29455 1.46667 6.53333 1.70545 6.53333 2V3.33333C6.53333 4.88247 6.14715 6.31684 5.48647 7.38126C4.82965 8.43947 3.85001 9.2 2.66666 9.2C2.37211 9.2 2.13333 8.96122 2.13333 8.66667C2.13333 8.37212 2.37211 8.13333 2.66666 8.13333C3.34999 8.13333 4.03701 7.69386 4.58019 6.81874C5.11951 5.94983 5.46666 4.71753 5.46666 3.33333V2C5.46666 1.70545 5.70545 1.46667 6 1.46667Z" fill="currentColor"/>
<path fill-rule="evenodd" clip-rule="evenodd" d="M3.33333 5.46667C3.62788 5.46667 3.86666 5.70545 3.86666 6C3.86666 6.42909 4.18069 6.93629 4.91537 7.37559C5.63293 7.80465 6.65715 8.10225 7.81441 8.13353C8.10885 8.14149 8.34109 8.38663 8.33314 8.68108C8.32518 8.97552 8.08003 9.20776 7.78559 9.19981C6.47618 9.16442 5.26706 8.82869 4.36796 8.29108C3.48598 7.76371 2.8 6.97091 2.8 6C2.8 5.70545 3.03878 5.46667 3.33333 5.46667Z" fill="currentColor"/>
<path fill-rule="evenodd" clip-rule="evenodd" d="M10.6667 6.8C10.8774 6.8 11.0684 6.92413 11.154 7.11673L13.8207 13.1167C13.9403 13.3859 13.8191 13.7011 13.5499 13.8207C13.2808 13.9403 12.9656 13.8191 12.846 13.5499L10.6667 8.64651L8.48736 13.5499C8.36774 13.8191 8.05256 13.9403 7.78339 13.8207C7.51423 13.7011 7.393 13.3859 7.51263 13.1167L10.1793 7.11673C10.2649 6.92413 10.4559 6.8 10.6667 6.8Z" fill="currentColor"/>
<path fill-rule="evenodd" clip-rule="evenodd" d="M8.06666 12C8.06666 11.7055 8.30545 11.4667 8.6 11.4667H12.7333C13.0279 11.4667 13.2667 11.7055 13.2667 12C13.2667 12.2946 13.0279 12.5333 12.7333 12.5333H8.6C8.30545 12.5333 8.06666 12.2946 8.06666 12Z" fill="currentColor"/>
</svg>
