<svg width="16" height="16" viewBox="0 0 16 16" fill="none" xmlns="http://www.w3.org/2000/svg">
<path fill-rule="evenodd" clip-rule="evenodd" d="M8.95622 2.95621C10.0978 1.8146 11.9022 1.8146 13.0438 2.95621C14.1854 4.09782 14.1854 5.90218 13.0438 7.04379L10.376 9.71162L10.3748 9.71277L10.3726 9.71503L10.3693 9.71833L10.3661 9.7215L10.3651 9.72253L10.362 9.72555L10.3601 9.7275L10.3591 9.72846L10.3582 9.7294L10.3569 9.73064L10.3557 9.73186L10.3545 9.73306L10.3534 9.73423L10.3522 9.73538L10.3511 9.73652L10.35 9.73763L10.3489 9.73872L10.3478 9.73979L10.3467 9.74084L10.3457 9.74188L10.3447 9.74289L10.3437 9.74388L10.3427 9.74485L10.3395 9.74811L10.3384 9.74922L10.3373 9.75029L10.3362 9.75135L10.3352 9.75237L10.3342 9.75336L10.3333 9.75433L10.3321 9.75546L10.331 9.75655L10.33 9.7576L10.329 9.75862L10.328 9.75959L10.326 9.7616L10.325 9.76261L10.324 9.76358L10.323 9.76463L10.322 9.76562L10.3209 9.76668L10.3199 9.76767L10.3189 9.76869L10.3179 9.76964L10.317 9.77059L10.316 9.77154L10.3151 9.77252L10.3141 9.7735L10.3131 9.77446L10.3122 9.77541L10.3112 9.77637C9.22633 10.8613 7.42108 10.842 6.28955 9.71045C6.08127 9.50218 6.08127 9.16449 6.28955 8.95621C6.49783 8.74793 6.83552 8.74793 7.0438 8.95621C7.77894 9.69135 8.90777 9.67132 9.55622 9.02287L9.55716 9.02193L9.55814 9.02095L9.55911 9.01998L9.56007 9.01902L9.56102 9.01807L9.56203 9.01706L9.563 9.01609L9.56398 9.01511L9.56495 9.01414L9.56599 9.0131L9.567 9.01209L9.56796 9.01113L9.56897 9.01012L9.57003 9.00906L9.57101 9.00808L9.57311 9.00598L9.57407 9.00502L9.57506 9.00403L9.57608 9.00301L9.57715 9.00194L9.57825 9.00084L9.5792 8.99989L9.58017 8.99892L9.58117 8.99792L9.5822 8.99689L9.58326 8.99583L9.58434 8.99475L9.58777 8.99132L9.58873 8.99037L9.5897 8.98939L9.5907 8.98839L9.59172 8.98737L9.59275 8.98634L9.59381 8.98528L9.59489 8.9842L9.59598 8.98311L9.5971 8.98199L9.59824 8.98085L9.5994 8.97969L9.60058 8.97851L9.60178 8.97731L9.603 8.97609L9.60425 8.97484L9.6052 8.97389L9.60713 8.97196L9.61012 8.96897L9.61115 8.96794L9.6143 8.9648L9.61756 8.96153L9.61981 8.95928L9.62095 8.95814L12.2895 6.28954C13.0146 5.56449 13.0146 4.43551 12.2895 3.71046C11.5645 2.9854 10.4355 2.9854 9.71046 3.71046L9.37713 4.04379C9.16885 4.25207 8.83116 4.25207 8.62288 4.04379C8.4146 3.83551 8.4146 3.49782 8.62288 3.28954L8.95622 2.95621ZM5.68955 6.22287C6.77444 5.13798 8.57894 5.15801 9.71046 6.28954C9.91874 6.49782 9.91874 6.83551 9.71046 7.04379C9.50218 7.25207 9.16449 7.25207 8.95622 7.04379C8.22108 6.30865 7.09224 6.32868 6.4438 6.97712L6.42361 6.99731L6.42239 6.99853L6.4212 6.99972L6.41887 7.00205L6.41773 7.00318L6.41662 7.0043L6.41553 7.00539L6.41237 7.00854L6.41136 7.00956L6.40504 7.01588L6.3977 7.02321L6.39665 7.02427L6.39564 7.02528L6.39466 7.02626L6.39371 7.02721L6.39265 7.02826L6.39164 7.02928L6.39068 7.03024L6.38962 7.03129L6.38863 7.03229L6.38757 7.03335L6.38658 7.03433L6.38556 7.03536L6.38461 7.0363L6.38366 7.03726L6.38271 7.03821L6.38173 7.03919L6.38076 7.04016L6.37979 7.04113L6.37884 7.04208L6.37789 7.04303L3.71046 9.71045C2.98541 10.4355 2.98541 11.5645 3.71046 12.2895C4.43552 13.0146 5.5645 13.0146 6.28955 12.2895L6.62288 11.9562C6.83116 11.7479 7.16885 11.7479 7.37713 11.9562C7.58541 12.1645 7.58541 12.5022 7.37713 12.7105L7.0438 13.0438C5.90218 14.1854 4.09783 14.1854 2.95622 13.0438C1.8146 11.9022 1.8146 10.0978 2.95622 8.95621L5.62288 6.28954L5.62383 6.28859L5.6248 6.28762L5.62578 6.28664L5.62674 6.28569L5.62768 6.28474L5.62869 6.28373L5.62966 6.28276L5.63064 6.28178L5.63161 6.28081L5.63266 6.27976L5.63367 6.27875L5.63462 6.2778L5.63563 6.27679L5.6367 6.27572L5.63768 6.27474L5.63871 6.27372L5.63978 6.27265L5.64073 6.27169L5.64172 6.2707L5.64275 6.26967L5.64992 6.2625L5.65637 6.25605L5.65737 6.25506L5.66048 6.25195L5.66155 6.25087L5.66265 6.24977L5.66377 6.24866L5.66607 6.24636L5.66725 6.24518L5.66845 6.24398L5.68955 6.22287Z" fill="currentColor"/>
</svg>
