<svg width="16" height="16" viewBox="0 0 16 16" fill="none" xmlns="http://www.w3.org/2000/svg">
<path fill-rule="evenodd" clip-rule="evenodd" d="M5.6 5.4C5.6 5.17909 5.77909 5 6 5H11.5C11.7209 5 11.9 5.17909 11.9 5.4C11.9 5.62092 11.7209 5.8 11.5 5.8H6C5.77909 5.8 5.6 5.62092 5.6 5.4Z" fill="currentColor"/>
<path d="M4.375 5.75C4.15 5.75 4 5.6 4 5.375C4 5.15 4.15 5 4.375 5C4.6 5 4.75 5.15 4.75 5.375C4.75 5.6 4.6 5.75 4.375 5.75Z" fill="currentColor"/>
<path d="M4.375 8.75C4.15 8.75 4 8.6 4 8.375C4 8.15 4.15 8 4.375 8C4.6 8 4.75 8.15 4.75 8.375C4.75 8.6 4.6 8.75 4.375 8.75Z" fill="currentColor"/>
<path d="M4.375 11.75C4.15 11.75 4 11.6 4 11.375C4 11.15 4.15 11 4.375 11C4.6 11 4.75 11.15 4.75 11.375C4.75 11.6 4.6 11.75 4.375 11.75Z" fill="currentColor"/>
<path fill-rule="evenodd" clip-rule="evenodd" d="M5.6 8.4C5.6 8.17909 5.77909 8 6 8H11.5C11.7209 8 11.9 8.17909 11.9 8.4C11.9 8.62092 11.7209 8.8 11.5 8.8H6C5.77909 8.8 5.6 8.62092 5.6 8.4Z" fill="currentColor"/>
<path fill-rule="evenodd" clip-rule="evenodd" d="M5.6 11.4C5.6 11.1791 5.77909 11 6 11H11.5C11.7209 11 11.9 11.1791 11.9 11.4C11.9 11.6209 11.7209 11.8 11.5 11.8H6C5.77909 11.8 5.6 11.6209 5.6 11.4Z" fill="currentColor"/>
</svg>
