<svg width="16" height="16" viewBox="0 0 16 16" fill="none" xmlns="http://www.w3.org/2000/svg">
<path fill-rule="evenodd" clip-rule="evenodd" d="M6.8 4C6.8 3.70545 7.03878 3.46666 7.33333 3.46666H13.3333C13.6279 3.46666 13.8667 3.70545 13.8667 4C13.8667 4.29455 13.6279 4.53333 13.3333 4.53333H7.33333C7.03878 4.53333 6.8 4.29455 6.8 4Z" fill="currentColor"/>
<path fill-rule="evenodd" clip-rule="evenodd" d="M6.8 8C6.8 7.70545 7.03878 7.46666 7.33333 7.46666H13.3333C13.6279 7.46666 13.8667 7.70545 13.8667 8C13.8667 8.29455 13.6279 8.53333 13.3333 8.53333H7.33333C7.03878 8.53333 6.8 8.29455 6.8 8Z" fill="currentColor"/>
<path fill-rule="evenodd" clip-rule="evenodd" d="M7.46667 12C7.46667 11.7054 7.70545 11.4667 8 11.4667H13.3333C13.6279 11.4667 13.8667 11.7054 13.8667 12C13.8667 12.2946 13.6279 12.5333 13.3333 12.5333H8C7.70545 12.5333 7.46667 12.2946 7.46667 12Z" fill="currentColor"/>
<path fill-rule="evenodd" clip-rule="evenodd" d="M4 9.86666C3.56122 9.86666 3.2 10.2279 3.2 10.6667C3.2 10.9612 2.96122 11.2 2.66667 11.2C2.37211 11.2 2.13333 10.9612 2.13333 10.6667C2.13333 9.63878 2.97211 8.8 4 8.8C5.02788 8.8 5.86667 9.63878 5.86667 10.6667C5.86667 11.0309 5.70983 11.3116 5.5436 11.5221C5.42648 11.6705 5.27259 11.8203 5.14542 11.9441C5.10882 11.9797 5.07444 12.0131 5.04379 12.0438C5.03239 12.0552 5.02048 12.0661 5.0081 12.0764L4.13976 12.8H5.33333C5.62788 12.8 5.86667 13.0388 5.86667 13.3333C5.86667 13.6279 5.62788 13.8667 5.33333 13.8667H2.66667C2.44212 13.8667 2.24163 13.726 2.16519 13.5149C2.08875 13.3038 2.15273 13.0674 2.32523 12.9236L4.30688 11.2722C4.35708 11.2223 4.40228 11.1782 4.4434 11.1381C4.55467 11.0296 4.63614 10.9502 4.70639 10.8612C4.79017 10.7551 4.8 10.7025 4.8 10.6667C4.8 10.2279 4.43878 9.86666 4 9.86666Z" fill="currentColor"/>
<path fill-rule="evenodd" clip-rule="evenodd" d="M4.2041 2.17393C4.40339 2.25648 4.53333 2.45095 4.53333 2.66666V6.66667C4.53333 6.96122 4.29455 7.2 4 7.2C3.70545 7.2 3.46667 6.96122 3.46667 6.66667V3.95425L3.04379 4.37712C2.83551 4.5854 2.49782 4.5854 2.28954 4.37712C2.08126 4.16884 2.08126 3.83115 2.28954 3.62287L3.62288 2.28954C3.77541 2.13701 4.0048 2.09138 4.2041 2.17393Z" fill="currentColor"/>
</svg>
