<svg width="16" height="16" viewBox="0 0 16 16" fill="none" xmlns="http://www.w3.org/2000/svg">
<path fill-rule="evenodd" clip-rule="evenodd" d="M5.37711 2.62288C5.58539 2.83116 5.58539 3.16884 5.37711 3.37712L3.71044 5.04379C3.50216 5.25207 3.16448 5.25207 2.9562 5.04379L1.9562 4.04379C1.74792 3.83551 1.74792 3.49782 1.9562 3.28954C2.16448 3.08126 2.50217 3.08126 2.71044 3.28954L3.33332 3.91242L4.62286 2.62288C4.83114 2.4146 5.16883 2.4146 5.37711 2.62288Z" fill="currentColor"/>
<path fill-rule="evenodd" clip-rule="evenodd" d="M5.37711 6.62288C5.58539 6.83116 5.58539 7.16884 5.37711 7.37712L3.71044 9.04379C3.50216 9.25207 3.16448 9.25207 2.9562 9.04379L1.9562 8.04379C1.74792 7.83551 1.74792 7.49782 1.9562 7.28954C2.16448 7.08126 2.50217 7.08126 2.71044 7.28954L3.33332 7.91242L4.62286 6.62288C4.83114 6.4146 5.16883 6.4146 5.37711 6.62288Z" fill="currentColor"/>
<path fill-rule="evenodd" clip-rule="evenodd" d="M5.37711 10.6229C5.58539 10.8312 5.58539 11.1688 5.37711 11.3771L3.71044 13.0438C3.50216 13.2521 3.16448 13.2521 2.9562 13.0438L1.9562 12.0438C1.74792 11.8355 1.74792 11.4978 1.9562 11.2895C2.16448 11.0813 2.50217 11.0813 2.71044 11.2895L3.33332 11.9124L4.62286 10.6229C4.83114 10.4146 5.16883 10.4146 5.37711 10.6229Z" fill="currentColor"/>
<path fill-rule="evenodd" clip-rule="evenodd" d="M6.79999 4C6.79999 3.70545 7.03877 3.46667 7.33332 3.46667H13.3333C13.6279 3.46667 13.8667 3.70545 13.8667 4C13.8667 4.29455 13.6279 4.53333 13.3333 4.53333H7.33332C7.03877 4.53333 6.79999 4.29455 6.79999 4Z" fill="currentColor"/>
<path fill-rule="evenodd" clip-rule="evenodd" d="M6.79999 8C6.79999 7.70545 7.03877 7.46667 7.33332 7.46667H13.3333C13.6279 7.46667 13.8667 7.70545 13.8667 8C13.8667 8.29455 13.6279 8.53333 13.3333 8.53333H7.33332C7.03877 8.53333 6.79999 8.29455 6.79999 8Z" fill="currentColor"/>
<path fill-rule="evenodd" clip-rule="evenodd" d="M6.79999 12C6.79999 11.7055 7.03877 11.4667 7.33332 11.4667H13.3333C13.6279 11.4667 13.8667 11.7055 13.8667 12C13.8667 12.2946 13.6279 12.5333 13.3333 12.5333H7.33332C7.03877 12.5333 6.79999 12.2946 6.79999 12Z" fill="currentColor"/>
</svg>
