<svg width="16" height="16" viewBox="0 0 16 16" fill="none" xmlns="http://www.w3.org/2000/svg">
<g clip-path="url(#clip0_1623_440)">
<path fill-rule="evenodd" clip-rule="evenodd" d="M3.33333 3.86667C2.89455 3.86667 2.53333 4.22789 2.53333 4.66667V11.3333C2.53333 11.7721 2.89455 12.1333 3.33333 12.1333H12.6667C13.1054 12.1333 13.4667 11.7721 13.4667 11.3333V4.66667C13.4667 4.22789 13.1054 3.86667 12.6667 3.86667H3.33333ZM1.46667 4.66667C1.46667 3.63878 2.30545 2.8 3.33333 2.8H12.6667C13.6946 2.8 14.5333 3.63878 14.5333 4.66667V11.3333C14.5333 12.3612 13.6946 13.2 12.6667 13.2H3.33333C2.30545 13.2 1.46667 12.3612 1.46667 11.3333V4.66667Z" fill="currentColor"/>
<path fill-rule="evenodd" clip-rule="evenodd" d="M1.55624 4.37083C1.71963 4.12575 2.05076 4.05952 2.29584 4.22291L8 8.02568L13.7042 4.22291C13.9492 4.05952 14.2804 4.12575 14.4438 4.37083C14.6071 4.61591 14.5409 4.94704 14.2958 5.11043L8.29584 9.11043C8.11669 9.22986 7.88331 9.22986 7.70416 9.11043L1.70416 5.11043C1.45908 4.94704 1.39285 4.61591 1.55624 4.37083Z" fill="currentColor"/>
</g>
<defs>
<clipPath id="clip0_1623_440">
<rect width="16" height="16" fill="currentColor"/>
</clipPath>
</defs>
</svg>
