<svg width="16" height="16" viewBox="0 0 16 16" fill="none" xmlns="http://www.w3.org/2000/svg">
<path fill-rule="evenodd" clip-rule="evenodd" d="M8.00001 2.53333C7.55818 2.53333 7.20001 2.89151 7.20001 3.33333C7.20001 3.77516 7.55818 4.13333 8.00001 4.13333C8.44184 4.13333 8.80001 3.77516 8.80001 3.33333C8.80001 2.89151 8.44184 2.53333 8.00001 2.53333ZM6.13334 3.33333C6.13334 2.3024 6.96908 1.46667 8.00001 1.46667C9.03094 1.46667 9.86668 2.3024 9.86668 3.33333C9.86668 4.36427 9.03094 5.2 8.00001 5.2C6.96908 5.2 6.13334 4.36427 6.13334 3.33333ZM6.56047 7.89379C6.55728 7.89698 6.53334 7.9212 6.53334 8V10.4458L7.0438 10.9562C7.14382 11.0562 7.20001 11.1919 7.20001 11.3333V14.6667C7.20001 14.9612 6.96123 15.2 6.66667 15.2C6.37212 15.2 6.13334 14.9612 6.13334 14.6667V11.5542L5.62288 11.0438C5.52287 10.9438 5.46667 10.8081 5.46667 10.6667V8C5.46667 7.6788 5.57607 7.36969 5.80622 7.13954C6.03637 6.90939 6.34548 6.8 6.66667 6.8H9.33334C9.65454 6.8 9.96365 6.90939 10.1938 7.13954C10.4239 7.36969 10.5333 7.6788 10.5333 8V10.6667C10.5333 10.8081 10.4772 10.9438 10.3771 11.0438L9.86668 11.5542V14.6667C9.86668 14.9612 9.62789 15.2 9.33334 15.2C9.03879 15.2 8.80001 14.9612 8.80001 14.6667V11.3333C8.80001 11.1919 8.8562 11.0562 8.95622 10.9562L9.46667 10.4458V8C9.46667 7.9212 9.44274 7.89698 9.43955 7.89379C9.43637 7.89061 9.41214 7.86667 9.33334 7.86667H6.66667C6.58787 7.86667 6.56365 7.89061 6.56047 7.89379Z" fill="currentColor"/>
</svg>
