<svg width="16" height="16" viewBox="0 0 16 16" fill="none" xmlns="http://www.w3.org/2000/svg">
<path fill-rule="evenodd" clip-rule="evenodd" d="M8 5.86667C7.18998 5.86667 6.53333 6.52332 6.53333 7.33334C6.53333 8.14335 7.18998 8.8 8 8.8C8.81002 8.8 9.46667 8.14335 9.46667 7.33334C9.46667 6.52332 8.81002 5.86667 8 5.86667ZM5.46667 7.33334C5.46667 5.93422 6.60088 4.8 8 4.8C9.39912 4.8 10.5333 5.93422 10.5333 7.33334C10.5333 8.73246 9.39912 9.86667 8 9.86667C6.60088 9.86667 5.46667 8.73246 5.46667 7.33334Z" fill="currentColor"/>
<path fill-rule="evenodd" clip-rule="evenodd" d="M11.4865 3.97404C9.62776 2.11874 6.56781 2.11977 4.71046 3.97713C2.85207 5.83551 2.85207 8.89783 4.71046 10.7562L7.51046 13.5562C7.83551 13.8813 8.29782 13.8813 8.62288 13.5562L11.4198 10.7593C13.2863 8.8295 13.2783 5.82899 11.4865 3.97404ZM3.95621 3.22288C6.23116 0.947934 9.96884 0.947934 12.2438 3.22288L12.25 3.22906C14.4542 5.50675 14.446 9.16854 12.1831 11.5044L12.1772 11.5105L9.37712 14.3105C8.63551 15.0521 7.49782 15.0521 6.75621 14.3105L3.95621 11.5105C1.68126 9.23552 1.68126 5.49783 3.95621 3.22288Z" fill="currentColor"/>
</svg>
