<svg width="16" height="16" viewBox="0 0 16 16" fill="none" xmlns="http://www.w3.org/2000/svg">
<path d="M10.6666 7C10.4666 7 10.3333 6.86666 10.3333 6.66667V2.66666C10.3333 2.46666 10.4666 2.33333 10.6666 2.33333C10.8666 2.33333 11 2.46666 11 2.66666V6.66667C11 6.86666 10.8666 7 10.6666 7ZM5.33332 7C5.13332 7 4.99998 6.86666 4.99998 6.66667V2.66666C4.99998 2.46666 5.13332 2.33333 5.33332 2.33333C5.53332 2.33333 5.66665 2.46666 5.66665 2.66666V6.66667C5.66665 6.86666 5.53332 7 5.33332 7ZM7.99998 5C7.79998 5 7.66665 4.86666 7.66665 4.66666V2.66666C7.66665 2.46666 7.79998 2.33333 7.99998 2.33333C8.19998 2.33333 8.33332 2.46666 8.33332 2.66666V4.66666C8.33332 4.86666 8.19998 5 7.99998 5Z" fill="currentColor"/>
<path fill-rule="evenodd" clip-rule="evenodd" d="M5.23307 2.56642C5.21729 2.5822 5.19998 2.61211 5.19998 2.66666V6.66667C5.19998 6.72122 5.21729 6.75113 5.23307 6.76691C5.24885 6.78269 5.27876 6.8 5.33332 6.8C5.38787 6.8 5.41778 6.78269 5.43356 6.76691C5.44934 6.75113 5.46665 6.72122 5.46665 6.66667V2.66666C5.46665 2.61211 5.44934 2.5822 5.43356 2.56642C5.41778 2.55064 5.38787 2.53333 5.33332 2.53333C5.27876 2.53333 5.24885 2.55064 5.23307 2.56642ZM4.95023 2.28358C5.05112 2.18269 5.18787 2.13333 5.33332 2.13333C5.47877 2.13333 5.61551 2.18269 5.7164 2.28358C5.81729 2.38447 5.86665 2.52122 5.86665 2.66666V6.66667C5.86665 6.81211 5.81729 6.94886 5.7164 7.04975C5.61551 7.15064 5.47877 7.2 5.33332 7.2C5.18787 7.2 5.05112 7.15064 4.95023 7.04975C4.84934 6.94886 4.79998 6.81211 4.79998 6.66667V2.66666C4.79998 2.52122 4.84934 2.38447 4.95023 2.28358ZM7.89974 2.56642C7.88396 2.5822 7.86665 2.61211 7.86665 2.66666V4.66666C7.86665 4.72122 7.88396 4.75113 7.89974 4.76691C7.91551 4.78269 7.94543 4.8 7.99998 4.8C8.05453 4.8 8.08445 4.78269 8.10023 4.76691C8.116 4.75113 8.13332 4.72122 8.13332 4.66666V2.66666C8.13332 2.61211 8.116 2.5822 8.10023 2.56642C8.08445 2.55064 8.05453 2.53333 7.99998 2.53333C7.94543 2.53333 7.91551 2.55064 7.89974 2.56642ZM7.61689 2.28358C7.71778 2.18269 7.85453 2.13333 7.99998 2.13333C8.14543 2.13333 8.28218 2.18269 8.38307 2.28358C8.48396 2.38447 8.53332 2.52122 8.53332 2.66666V4.66666C8.53332 4.81211 8.48396 4.94886 8.38307 5.04975C8.28218 5.15064 8.14543 5.2 7.99998 5.2C7.85453 5.2 7.71778 5.15064 7.61689 5.04975C7.51601 4.94886 7.46665 4.81211 7.46665 4.66666V2.66666C7.46665 2.52122 7.51601 2.38447 7.61689 2.28358ZM10.5664 2.56642C10.5506 2.5822 10.5333 2.61211 10.5333 2.66666V6.66667C10.5333 6.72122 10.5506 6.75113 10.5664 6.76691C10.5822 6.78269 10.6121 6.8 10.6666 6.8C10.7212 6.8 10.7511 6.78269 10.7669 6.76691C10.7827 6.75113 10.8 6.72122 10.8 6.66667V2.66666C10.8 2.61211 10.7827 2.5822 10.7669 2.56642C10.7511 2.55064 10.7212 2.53333 10.6666 2.53333C10.6121 2.53333 10.5822 2.55064 10.5664 2.56642ZM10.2836 2.28358C10.3844 2.18269 10.5212 2.13333 10.6666 2.13333C10.8121 2.13333 10.9488 2.18269 11.0497 2.28358C11.1506 2.38447 11.2 2.52122 11.2 2.66666V6.66667C11.2 6.81211 11.1506 6.94886 11.0497 7.04975C10.9488 7.15064 10.8121 7.2 10.6666 7.2C10.5212 7.2 10.3844 7.15064 10.2836 7.04975C10.1827 6.94886 10.1333 6.81211 10.1333 6.66667V2.66666C10.1333 2.52122 10.1827 2.38447 10.2836 2.28358Z" fill="currentColor"/>
<path d="M9.99998 13.6667C9.93332 13.6667 9.86665 13.6667 9.86665 13.6L7.99998 12.7333L6.13332 13.6667C5.99998 13.7333 5.86665 13.7333 5.79998 13.6667C5.66665 13.6 5.66665 13.4667 5.66665 13.3333L5.99998 11.1333L4.79998 9.93333C4.66665 9.8 4.66665 9.66666 4.66665 9.53333C4.73332 9.46666 4.79998 9.33333 4.93332 9.33333L6.73332 9L7.66665 7.13333C7.79998 6.93333 8.13332 6.93333 8.26665 7.13333L9.19998 9L11 9.33333C11.1333 9.33333 11.2 9.46666 11.2666 9.53333C11.3333 9.66666 11.2666 9.8 11.2 9.86666L9.99998 11.1333L10.3333 13.3333C10.3333 13.4667 10.2666 13.6 10.2 13.6667C10.1333 13.6667 10.0666 13.6667 9.99998 13.6667ZM7.99998 12C8.06665 12 8.13332 12 8.13332 12.0667L9.53332 12.8L9.33332 11.0667C9.33332 10.9333 9.33332 10.8667 9.39998 10.8L10.2666 9.93333L8.93332 9.73333C8.79998 9.73333 8.73332 9.66666 8.66665 9.53333L7.99998 8.06666L7.26665 9.46666C7.19998 9.53333 7.13332 9.6 6.99998 9.66666L5.66665 9.86666L6.53332 10.7333C6.59998 10.8 6.66665 10.9333 6.59998 11L6.33332 12.7333L7.73332 12C7.86665 12 7.93332 12 7.99998 12Z" fill="currentColor"/>
<path fill-rule="evenodd" clip-rule="evenodd" d="M7.8385 7.23685L6.86766 9.17852L4.95168 9.53333H4.93578C4.93274 9.53512 4.92657 9.53958 4.9164 9.54975C4.90394 9.56221 4.89125 9.57743 4.87314 9.5998L4.86764 9.60661C4.86886 9.63732 4.87155 9.66163 4.87734 9.68482C4.88541 9.71708 4.90091 9.75142 4.9414 9.79191L6.21286 11.0634L5.86666 13.3483C5.8667 13.3759 5.86696 13.3984 5.86832 13.4194C5.86988 13.4437 5.87262 13.4595 5.87562 13.4701C5.87703 13.475 5.87912 13.4797 5.87912 13.4797L5.8804 13.4819L5.88149 13.483C5.88149 13.483 5.88477 13.4855 5.88942 13.4878L5.91845 13.5023L5.93239 13.5162C5.93239 13.5162 5.93771 13.5167 5.94165 13.5167C5.9635 13.5167 5.99967 13.5099 6.04387 13.4878L7.99677 12.5113L10.0544 13.4667H10.098C10.1013 13.4603 10.1047 13.4534 10.1078 13.4462C10.1224 13.4122 10.1311 13.3773 10.1329 13.3459L9.7876 11.0667L11.0585 9.72519C11.0708 9.7129 11.0848 9.69186 11.091 9.67005C11.0942 9.65899 11.0951 9.64947 11.0936 9.64036C11.0824 9.62729 11.0723 9.61478 11.0642 9.60475L11.0602 9.5998C11.0421 9.57743 11.0294 9.56221 11.0169 9.54975C11.0067 9.53958 11.0006 9.53512 10.9975 9.53333H10.9816L9.06564 9.17852L8.0948 7.23685C8.07057 7.2066 8.02552 7.18333 7.96665 7.18333C7.90778 7.18333 7.86273 7.2066 7.8385 7.23685ZM10.9952 9.5323L10.9975 9.53333L10.9952 9.5323ZM4.93811 9.5323L4.93578 9.53333L4.93811 9.5323ZM7.96665 6.78333C8.13638 6.78333 8.32224 6.85617 8.43306 7.02239L8.43997 7.03275L9.33433 8.82148L11.0214 9.1339C11.152 9.14084 11.2432 9.21033 11.2997 9.26691C11.3289 9.29612 11.3537 9.32673 11.3711 9.34812C11.3913 9.37318 11.4005 9.38438 11.4081 9.39191L11.431 9.41486L11.4455 9.44389C11.5656 9.68405 11.4414 9.90666 11.3436 10.0059L10.2124 11.2L10.5333 13.3183V13.3333C10.5333 13.5232 10.4431 13.7064 10.3414 13.8081L10.2828 13.8667H9.99998L9.99408 13.8667C9.96722 13.8669 9.90278 13.8673 9.84507 13.8481C9.8081 13.8357 9.759 13.8112 9.72024 13.7613C9.71683 13.7569 9.71361 13.7525 9.71058 13.748L8.0032 12.9553L6.22276 13.8455C6.13362 13.8901 6.03646 13.9167 5.94165 13.9167C5.85767 13.9167 5.76217 13.8951 5.68429 13.8314C5.57709 13.769 5.51854 13.6763 5.49101 13.5799C5.46646 13.494 5.46657 13.4026 5.46664 13.3424C5.46665 13.3393 5.46665 13.3363 5.46665 13.3333V13.3183L5.7871 11.2033L4.65856 10.0748C4.46649 9.88268 4.46658 9.67701 4.46665 9.5406L4.46665 9.45049L4.52523 9.39191C4.53276 9.38438 4.54195 9.37318 4.56224 9.34812C4.57955 9.32673 4.60435 9.29612 4.63356 9.26691C4.69014 9.21033 4.78129 9.14084 4.91189 9.1339L6.59897 8.82148L7.49333 7.03275L7.50024 7.02239C7.61106 6.85617 7.79692 6.78333 7.96665 6.78333ZM8.01271 7.61134L8.84711 9.44702C8.87544 9.5031 8.89257 9.52128 8.89992 9.52716C8.90221 9.52899 8.90573 9.53035 8.90573 9.53035C8.90858 9.53126 8.91667 9.53333 8.93332 9.53333H8.94823L10.6885 9.79436L9.5414 10.9414L9.53843 10.9446L9.53777 10.9476C9.53649 10.9539 9.53503 10.9652 9.5342 10.9861C9.53345 11.0049 9.53333 11.0266 9.53332 11.0552L9.77532 13.1525L7.95683 12.2H7.78307L6.07545 13.0942L6.41226 10.9049L6.41385 10.9033L6.4125 10.9011C6.4051 10.8895 6.39741 10.8803 6.39189 10.8748L5.24484 9.7277L6.9373 9.47383C7.01216 9.43309 7.05604 9.39374 7.10375 9.34663L8.01271 7.61134ZM7.98726 8.52199L7.42965 9.5865L7.40807 9.60809C7.33739 9.67876 7.25179 9.76437 7.08943 9.84555L7.06104 9.85974L6.08846 10.0056L6.67474 10.5919C6.72741 10.6446 6.77879 10.7206 6.80639 10.8034C6.82696 10.8651 6.84711 10.976 6.79048 11.077L6.59118 12.3725L7.68411 11.8H7.9992L8.00588 11.8C8.03275 11.7998 8.09719 11.7994 8.15489 11.8186C8.19186 11.8309 8.24097 11.8555 8.27973 11.9053C8.28468 11.9117 8.28923 11.9182 8.2934 11.9247L9.29131 12.4475L9.13332 11.0782V11.0667C9.13332 11.0598 9.13328 11.0527 9.13325 11.0456C9.13273 10.9312 9.13207 10.7851 9.25856 10.6586L9.84484 10.0723L8.91685 9.9331C8.81918 9.93031 8.72864 9.90238 8.65004 9.83951C8.5742 9.77883 8.52516 9.69757 8.48776 9.62277L8.48445 9.61615L7.98726 8.52199Z" fill="currentColor"/>
</svg>
