<svg width="16" height="16" viewBox="0 0 16 16" fill="none" xmlns="http://www.w3.org/2000/svg">
<path d="M8 2C8.78793 2 9.56815 2.15519 10.2961 2.45672C11.0241 2.75825 11.6855 3.20021 12.2426 3.75736C12.7998 4.31451 13.2417 4.97595 13.5433 5.7039C13.8448 6.43185 14 7.21207 14 8C14 8.78793 13.8448 9.56815 13.5433 10.2961C13.2417 11.0241 12.7998 11.6855 12.2426 12.2426C11.6855 12.7998 11.0241 13.2417 10.2961 13.5433C9.56815 13.8448 8.78793 14 8 14C7.21207 14 6.43185 13.8448 5.7039 13.5433C4.97595 13.2417 4.31451 12.7998 3.75736 12.2426C3.20021 11.6855 2.75825 11.0241 2.45672 10.2961C2.15519 9.56815 2 8.78793 2 8C2 7.21207 2.15519 6.43185 2.45672 5.7039C2.75825 4.97595 3.20021 4.31451 3.75736 3.75736C4.31451 3.20021 4.97595 2.75825 5.7039 2.45672C6.43185 2.15519 7.21207 2 8 2ZM8 2C7.64638 2 7.30724 2.14048 7.05719 2.39052C6.80715 2.64057 6.66667 2.97971 6.66667 3.33333C6.66667 3.68696 6.80715 4.02609 7.05719 4.27614C7.30724 4.52619 7.64638 4.66667 8 4.66667M6 6.66666H6.00706M10 6.66666H10.0071M6.33333 10C6.55058 10.2217 6.8099 10.3979 7.09608 10.5181C7.38227 10.6384 7.68957 10.7003 8 10.7003C8.31042 10.7003 8.61773 10.6384 8.90391 10.5181C9.1901 10.3979 9.44941 10.2217 9.66666 10" stroke="currentColor" stroke-width="1.2" stroke-linecap="round" stroke-linejoin="round"/>
</svg>
