<svg width="16" height="16" viewBox="0 0 16 16" fill="none" xmlns="http://www.w3.org/2000/svg">
<path fill-rule="evenodd" clip-rule="evenodd" d="M4.14517 4.07604C4.07662 4.17465 4.00993 4.258 3.95381 4.32815L3.94979 4.33317C3.88201 4.4179 3.82919 4.48436 3.77709 4.5625C3.76884 4.57487 3.76008 4.58689 3.75083 4.59853C1.85786 6.98001 2.17432 10.3752 4.53186 12.2492C6.78029 14.0364 10.0065 13.7993 11.9385 11.7594L8.5562 8.37712C8.34923 8.17014 8.34774 7.83503 8.55288 7.62623L11.9157 4.20332L11.8229 4.11045C9.70935 1.99693 6.27305 1.98546 4.14517 4.07604ZM3.3562 3.35621C5.89782 0.814594 10.0355 0.814594 12.5771 3.35621L13.0438 3.82287C13.2508 4.02985 13.2522 4.36497 13.0471 4.57377L9.68425 7.99667L13.0438 11.3562C13.2355 11.5479 13.2529 11.853 13.0842 12.0652C10.8308 14.9001 6.69435 15.3307 3.86813 13.0842C1.03135 10.8293 0.676873 6.76959 2.90241 3.95173C2.9776 3.84088 3.05153 3.74848 3.11285 3.67184L3.11686 3.66683C3.18465 3.5821 3.23747 3.51564 3.28957 3.43749C3.30905 3.40827 3.33137 3.38104 3.3562 3.35621Z" fill="currentColor"/>
<path d="M7.66666 5.66666C8.03485 5.66666 8.33333 5.36819 8.33333 5C8.33333 4.63181 8.03485 4.33333 7.66666 4.33333C7.29847 4.33333 6.99999 4.63181 6.99999 5C6.99999 5.36819 7.29847 5.66666 7.66666 5.66666Z" fill="currentColor"/>
<path fill-rule="evenodd" clip-rule="evenodd" d="M7.66666 4.86666C7.59302 4.86666 7.53333 4.92636 7.53333 5C7.53333 5.07364 7.59302 5.13333 7.66666 5.13333C7.7403 5.13333 7.79999 5.07364 7.79999 5C7.79999 4.92636 7.7403 4.86666 7.66666 4.86666ZM6.46666 5C6.46666 4.33726 7.00392 3.8 7.66666 3.8C8.3294 3.8 8.86666 4.33726 8.86666 5C8.86666 5.66274 8.3294 6.2 7.66666 6.2C7.00392 6.2 6.46666 5.66274 6.46666 5Z" fill="currentColor"/>
</svg>
