<svg width="16" height="16" viewBox="0 0 16 16" fill="none" xmlns="http://www.w3.org/2000/svg">
<path fill-rule="evenodd" clip-rule="evenodd" d="M8.00001 2.53333C4.96123 2.53333 2.53334 4.96122 2.53334 8C2.53334 11.0388 4.96123 13.4667 8.00001 13.4667C8.18446 13.4667 8.29151 13.4209 8.35622 13.3562C8.40177 13.3107 8.42422 13.2519 8.41825 13.1742C8.41254 13.1 8.37952 13.014 8.31605 12.9392C7.8105 12.5769 7.46667 11.9707 7.46667 11.3333C7.46667 10.3054 8.30546 9.46667 9.33334 9.46667H11C12.4309 9.46667 13.4667 8.44993 13.4667 7.33333C13.4667 4.75007 11.0976 2.53333 8.00001 2.53333ZM1.46667 8C1.46667 4.37212 4.37212 1.46667 8.00001 1.46667C11.5691 1.46667 14.5333 4.04993 14.5333 7.33333C14.5333 9.15007 12.9025 10.5333 11 10.5333H9.33334C8.89456 10.5333 8.53334 10.8946 8.53334 11.3333C8.53334 11.6066 8.69785 11.9131 8.96251 12.0896C8.99174 12.1091 9.01896 12.1314 9.0438 12.1562C9.52878 12.6412 9.70452 13.5164 9.11047 14.1105C8.77517 14.4458 8.34889 14.5333 8.00001 14.5333C4.37212 14.5333 1.46667 11.6279 1.46667 8Z" fill="currentColor"/>
<path d="M5.00001 7.33333C5.1841 7.33333 5.33334 7.1841 5.33334 7C5.33334 6.81591 5.1841 6.66667 5.00001 6.66667C4.81591 6.66667 4.66668 6.81591 4.66668 7C4.66668 7.1841 4.81591 7.33333 5.00001 7.33333Z" fill="currentColor"/>
<path fill-rule="evenodd" clip-rule="evenodd" d="M5.00001 7.2C5.11047 7.2 5.20001 7.11046 5.20001 7C5.20001 6.88954 5.11047 6.8 5.00001 6.8C4.88955 6.8 4.80001 6.88954 4.80001 7C4.80001 7.11046 4.88955 7.2 5.00001 7.2ZM4.13334 7C4.13334 6.52135 4.52136 6.13333 5.00001 6.13333C5.47865 6.13333 5.86667 6.52135 5.86667 7C5.86667 7.47865 5.47865 7.86667 5.00001 7.86667C4.52136 7.86667 4.13334 7.47865 4.13334 7Z" fill="currentColor"/>
<path d="M8.00001 5.33333C8.1841 5.33333 8.33334 5.1841 8.33334 5C8.33334 4.81591 8.1841 4.66667 8.00001 4.66667C7.81591 4.66667 7.66668 4.81591 7.66668 5C7.66668 5.1841 7.81591 5.33333 8.00001 5.33333Z" fill="currentColor"/>
<path fill-rule="evenodd" clip-rule="evenodd" d="M8.00001 5.2C8.11046 5.2 8.20001 5.11046 8.20001 5C8.20001 4.88954 8.11046 4.8 8.00001 4.8C7.88955 4.8 7.80001 4.88954 7.80001 5C7.80001 5.11046 7.88955 5.2 8.00001 5.2ZM7.13334 5C7.13334 4.52135 7.52136 4.13333 8.00001 4.13333C8.47865 4.13333 8.86667 4.52135 8.86667 5C8.86667 5.47865 8.47865 5.86667 8.00001 5.86667C7.52136 5.86667 7.13334 5.47865 7.13334 5Z" fill="currentColor"/>
<path d="M11 7.33333C11.1841 7.33333 11.3333 7.1841 11.3333 7C11.3333 6.81591 11.1841 6.66667 11 6.66667C10.8159 6.66667 10.6667 6.81591 10.6667 7C10.6667 7.1841 10.8159 7.33333 11 7.33333Z" fill="currentColor"/>
<path fill-rule="evenodd" clip-rule="evenodd" d="M11 7.2C11.1105 7.2 11.2 7.11046 11.2 7C11.2 6.88954 11.1105 6.8 11 6.8C10.8896 6.8 10.8 6.88954 10.8 7C10.8 7.11046 10.8896 7.2 11 7.2ZM10.1333 7C10.1333 6.52135 10.5214 6.13333 11 6.13333C11.4787 6.13333 11.8667 6.52135 11.8667 7C11.8667 7.47865 11.4787 7.86667 11 7.86667C10.5214 7.86667 10.1333 7.47865 10.1333 7Z" fill="currentColor"/>
</svg>
