<svg width="16" height="16" viewBox="0 0 16 16" fill="none" xmlns="http://www.w3.org/2000/svg">
<g clip-path="url(#clip0_1623_462)">
<path fill-rule="evenodd" clip-rule="evenodd" d="M9.28954 3.28955C10.2312 2.34793 11.7688 2.34793 12.7105 3.28955C13.6521 4.23116 13.6521 5.76885 12.7105 6.71046L5.71045 13.7105C5.61044 13.8105 5.47478 13.8667 5.33333 13.8667H2.66666C2.37211 13.8667 2.13333 13.6279 2.13333 13.3333V10.6667C2.13333 10.5252 2.18952 10.3896 2.28954 10.2895L9.28954 3.28955ZM11.9562 4.04379C11.4312 3.51874 10.5688 3.51874 10.0438 4.04379L3.2 10.8876V12.8H5.11242L11.9562 5.95621C12.4813 5.43116 12.4813 4.56885 11.9562 4.04379Z" fill="currentColor"/>
<path fill-rule="evenodd" clip-rule="evenodd" d="M8.62287 3.95621C8.83115 3.74793 9.16884 3.74793 9.37712 3.95621L12.0438 6.62288C12.2521 6.83116 12.2521 7.16885 12.0438 7.37713C11.8355 7.58541 11.4978 7.58541 11.2895 7.37713L8.62287 4.71046C8.41459 4.50218 8.41459 4.16449 8.62287 3.95621Z" fill="currentColor"/>
</g>
<defs>
<clipPath id="clip0_1623_462">
<rect width="16" height="16" fill="currentColor"/>
</clipPath>
</defs>
</svg>
