<svg width="16" height="16" viewBox="0 0 16 16" fill="none" xmlns="http://www.w3.org/2000/svg">
<g clip-path="url(#clip0_1623_466)">
<path fill-rule="evenodd" clip-rule="evenodd" d="M2.8668 3.65211C3.19165 8.76867 7.23134 12.8084 12.3479 13.1332C12.7801 13.1253 13.1333 12.7673 13.1333 12.3333V10.0278L10.557 8.99721L9.79066 10.2744C9.64728 10.5134 9.34408 10.6017 9.09482 10.477C7.52494 9.69209 6.30791 8.47506 5.52297 6.90518C5.39834 6.65592 5.48663 6.35272 5.7256 6.20934L7.00279 5.44303L5.97225 2.86667H3.66667C3.23275 2.86667 2.87468 3.21993 2.8668 3.65211ZM1.8 3.66667C1.8 2.63878 2.63878 1.8 3.66667 1.8H6.33333C6.55142 1.8 6.74753 1.93278 6.82852 2.13526L8.16185 5.46859C8.25907 5.71164 8.16553 5.98932 7.94106 6.124L6.71217 6.86134C7.30784 7.87468 8.12532 8.69216 9.13866 9.28784L9.876 8.05894C10.0107 7.83447 10.2884 7.74093 10.5314 7.83815L13.8647 9.17148C14.0672 9.25248 14.2 9.44859 14.2 9.66667V12.3333C14.2 13.3612 13.3612 14.2 12.3333 14.2C12.3224 14.2 12.3114 14.1997 12.3005 14.199C6.6318 13.8491 2.15093 9.3682 1.80101 3.69953C1.80034 3.68859 1.8 3.67763 1.8 3.66667Z" fill="currentColor"/>
</g>
<defs>
<clipPath id="clip0_1623_466">
<rect width="16" height="16" fill="currentColor"/>
</clipPath>
</defs>
</svg>
