<svg width="16" height="16" viewBox="0 0 16 16" fill="none" xmlns="http://www.w3.org/2000/svg">
<path d="M11.3333 13.6667H4.66664C3.39998 13.6667 2.33331 12.6 2.33331 11.3333V4.66666C2.33331 3.4 3.39998 2.33333 4.66664 2.33333H11.3333C12.6 2.33333 13.6666 3.4 13.6666 4.66666V11.3333C13.6666 12.6 12.6 13.6667 11.3333 13.6667ZM4.66664 3C3.73331 3 2.99998 3.73333 2.99998 4.66666V11.3333C2.99998 12.2667 3.73331 13 4.66664 13H11.3333C12.2666 13 13 12.2667 13 11.3333V4.66666C13 3.73333 12.2666 3 11.3333 3H4.66664Z" fill="currentColor"/>
<path d="M10.6666 11C10.6 11 10.4666 11 10.4 10.9333L7.06664 7.6C6.59998 7.13333 5.99998 7.13333 5.53331 7.6L2.86664 10.2667C2.73331 10.4 2.53331 10.4 2.39998 10.2667C2.26664 10.1333 2.26664 9.93333 2.39998 9.8L5.06664 7.13333C5.79998 6.4 6.79998 6.4 7.53331 7.13333L10.8666 10.4667C11 10.6 11 10.8 10.8666 10.9333C10.8666 11 10.7333 11 10.6666 11Z" fill="currentColor"/>
<path d="M13.3333 10.3333C13.2666 10.3333 13.1333 10.3333 13.0666 10.2667L11.7333 8.93333C11.2666 8.46666 10.6666 8.46666 10.2 8.93333L9.53331 9.6C9.39998 9.73333 9.19998 9.73333 9.06664 9.6C8.93331 9.46666 8.93331 9.26666 9.06664 9.13333L9.73331 8.46666C10.4666 7.73333 11.4666 7.73333 12.2 8.46666L13.5333 9.8C13.6666 9.93333 13.6666 10.1333 13.5333 10.2667C13.5333 10.3333 13.4 10.3333 13.3333 10.3333Z" fill="currentColor"/>
<path d="M10.5 5.83333C10.2 5.83333 10 5.63333 10 5.33333C10 5.03333 10.2 4.83333 10.5 4.83333C10.8 4.83333 11 5.03333 11 5.33333C11 5.63333 10.8 5.83333 10.5 5.83333Z" fill="currentColor"/>
<path fill-rule="evenodd" clip-rule="evenodd" d="M4.66664 2.53333C3.51043 2.53333 2.53331 3.51045 2.53331 4.66666V9.38382L2.79998 9.11716V4.66666C2.79998 3.62287 3.62285 2.8 4.66664 2.8H11.3333C12.3771 2.8 13.2 3.62287 13.2 4.66666V9.18382L13.4666 9.45049V4.66666C13.4666 3.51045 12.4895 2.53333 11.3333 2.53333H4.66664ZM13.4666 10.5263C13.4147 10.5334 13.3638 10.5334 13.3376 10.5333L13.3305 10.5333C13.3029 10.5333 13.254 10.5334 13.2 10.5269V11.3333C13.2 12.3771 12.3771 13.2 11.3333 13.2H4.66664C3.62285 13.2 2.79998 12.3771 2.79998 11.3333V10.5389C2.7136 10.5684 2.62186 10.5744 2.53331 10.5568V11.3333C2.53331 12.4895 3.51043 13.4667 4.66664 13.4667H11.3333C12.4895 13.4667 13.4666 12.4895 13.4666 11.3333V10.5263ZM2.13331 10.2156V11.3333C2.13331 12.7105 3.28952 13.8667 4.66664 13.8667H11.3333C12.7104 13.8667 13.8666 12.7105 13.8666 11.3333V4.66666C13.8666 3.28954 12.7104 2.13333 11.3333 2.13333H4.66664C3.28952 2.13333 2.13331 3.28954 2.13331 4.66666V9.85109C2.08886 9.96888 2.08886 10.0978 2.13331 10.2156ZM2.53331 10.1166C2.53586 10.1195 2.53855 10.1224 2.5414 10.1252C2.59663 10.1805 2.66999 10.1805 2.72522 10.1252L2.79998 10.0505V9.68284L2.5414 9.94142C2.53855 9.94426 2.53586 9.94715 2.53331 9.95009V10.1166ZM3.19998 9.28284V9.65049L5.39189 7.45858C5.65606 7.19441 5.97152 7.05 6.29998 7.05C6.62843 7.05 6.94389 7.19441 7.20806 7.45858L8.84404 9.09455C8.8663 9.05825 8.89336 9.02377 8.92522 8.99191L9.01713 8.9L7.39189 7.27475C7.05816 6.94103 6.67414 6.78333 6.29998 6.78333C5.92581 6.78333 5.54179 6.94103 5.20806 7.27475L3.19998 9.28284ZM9.29998 9.18284L9.20806 9.27475C9.15284 9.32998 9.15284 9.40335 9.20806 9.45858C9.26329 9.5138 9.33666 9.5138 9.39189 9.45858L9.4838 9.36666L9.29998 9.18284ZM9.76664 9.08382L9.58282 8.9L9.87473 8.60809C10.2085 8.27436 10.5925 8.11666 10.9666 8.11666C11.3408 8.11666 11.7248 8.27436 12.0586 8.60809L12.8 9.34951V9.71715L11.8747 8.79191C11.6106 8.52774 11.2951 8.38333 10.9666 8.38333C10.6382 8.38333 10.3227 8.52774 10.0586 8.79191L9.76664 9.08382ZM9.76664 9.64951L9.67473 9.74142C9.64287 9.77328 9.60839 9.80034 9.57209 9.8226L10.5363 10.7869C10.5417 10.789 10.5513 10.7919 10.5662 10.7944C10.5977 10.7996 10.6322 10.8 10.6666 10.8C10.6837 10.8 10.7 10.8 10.7165 10.7992L10.718 10.7991L10.7252 10.7919C10.7804 10.7367 10.7804 10.6633 10.7252 10.6081L9.76664 9.64951ZM10.0495 9.36666L10.3414 9.07475C10.5439 8.87226 10.7618 8.78333 10.9666 8.78333C11.1715 8.78333 11.3894 8.87226 11.5919 9.07475L12.8 10.2828V11.3333C12.8 12.1562 12.1562 12.8 11.3333 12.8H4.66664C3.84377 12.8 3.19998 12.1562 3.19998 11.3333V10.2162L5.67473 7.74142C5.87723 7.53892 6.0951 7.45 6.29998 7.45C6.50486 7.45 6.72272 7.53892 6.92522 7.74142L10.2586 11.0748C10.3362 11.1524 10.4366 11.1783 10.5004 11.1889C10.5669 11.2 10.6307 11.2 10.6638 11.2L10.6709 11.2C10.7023 11.2 10.7693 11.2001 10.8309 11.1878C10.8622 11.1815 10.9121 11.1685 10.9586 11.1363C10.9915 11.1135 11.0244 11.0792 11.0451 11.034C11.2187 10.8231 11.2063 10.5235 11.0081 10.3252L10.0495 9.36666ZM13.2 10.1172L13.203 10.1202C13.2083 10.1223 13.218 10.1252 13.2329 10.1277C13.2644 10.133 13.2988 10.1333 13.3333 10.1333C13.3503 10.1333 13.3667 10.1333 13.3832 10.1325L13.3847 10.1324L13.3919 10.1252C13.4471 10.07 13.4471 9.99665 13.3919 9.94142L13.2 9.74951V10.1172ZM12.8 8.78382L12.3414 8.32524C11.9418 7.92564 11.4591 7.71666 10.9666 7.71666C10.4741 7.71666 9.99149 7.92564 9.59189 8.32524L9.29998 8.61716L7.67473 6.99191C7.27512 6.5923 6.79248 6.38333 6.29998 6.38333C5.80747 6.38333 5.32483 6.5923 4.92522 6.99191L3.19998 8.71715V4.66666C3.19998 3.84379 3.84377 3.2 4.66664 3.2H11.3333C12.1562 3.2 12.8 3.84379 12.8 4.66666V8.78382ZM10.2789 5.11225C10.234 5.1572 10.2 5.22878 10.2 5.33333C10.2 5.43788 10.234 5.50947 10.2789 5.55441C10.3239 5.59935 10.3955 5.63333 10.5 5.63333C10.6046 5.63333 10.6761 5.59935 10.7211 5.55441C10.766 5.50947 10.8 5.43788 10.8 5.33333C10.8 5.22878 10.766 5.1572 10.7211 5.11225C10.6761 5.06731 10.6046 5.03333 10.5 5.03333C10.3955 5.03333 10.3239 5.06731 10.2789 5.11225ZM9.99609 4.82941C10.1261 4.69935 10.3046 4.63333 10.5 4.63333C10.6955 4.63333 10.8739 4.69935 11.0039 4.82941C11.134 4.95947 11.2 5.13788 11.2 5.33333C11.2 5.52878 11.134 5.7072 11.0039 5.83725C10.8739 5.96731 10.6955 6.03333 10.5 6.03333C10.3046 6.03333 10.1261 5.96731 9.99609 5.83725C9.86603 5.7072 9.80001 5.52878 9.80001 5.33333C9.80001 5.13788 9.86603 4.95947 9.99609 4.82941Z" fill="currentColor"/>
</svg>
