<svg width="16" height="16" viewBox="0 0 16 16" fill="none" xmlns="http://www.w3.org/2000/svg">
<path d="M12.7995 4C12.7995 3.78783 12.7151 3.58493 12.5651 3.4349C12.4525 3.32227 12.3102 3.24683 12.1562 3.21615L12 3.20052H4C3.78783 3.20052 3.58492 3.28487 3.4349 3.4349C3.28487 3.58492 3.20052 3.78783 3.20052 4V12L3.21615 12.1562C3.24683 12.3102 3.32227 12.4525 3.4349 12.5651C3.58493 12.7151 3.78783 12.7995 4 12.7995H12C12.2122 12.7995 12.4151 12.7151 12.5651 12.5651C12.7151 12.4151 12.7995 12.2122 12.7995 12V4ZM13.8672 12C13.8672 12.4951 13.6704 12.9702 13.3203 13.3203C12.9702 13.6704 12.4951 13.8672 12 13.8672H4C3.50493 13.8672 3.02976 13.6704 2.67969 13.3203C2.37346 13.0141 2.18442 12.6121 2.14193 12.1849L2.13281 12V4C2.13281 3.50493 2.32962 3.02976 2.67969 2.67969C3.02976 2.32962 3.50493 2.13281 4 2.13281H12L12.1849 2.14193C12.6121 2.18442 13.0141 2.37346 13.3203 2.67969C13.6704 3.02976 13.8672 3.50493 13.8672 4V12Z" fill="currentColor"/>
<path d="M8.53385 4.33333C8.53385 4.56319 8.44248 4.78408 8.27995 4.94661C8.15789 5.06867 8.00277 5.15038 7.83594 5.18359L7.57552 5.20964C7.48574 5.22754 7.40293 5.27155 7.33724 5.33724C7.24972 5.42476 7.20052 5.5429 7.20052 5.66667L7.20964 5.75781C7.22754 5.84759 7.27155 5.93041 7.33724 5.99609C7.40293 6.06178 7.48574 6.10579 7.57552 6.1237L7.83594 6.14974C7.94708 6.17187 8.05282 6.21583 8.14714 6.27865L8.27995 6.38672L8.38802 6.51953C8.48211 6.66079 8.53385 6.82777 8.53385 7V8C8.53385 8.29455 8.29455 8.53385 8 8.53385C7.70545 8.53385 7.46615 8.29455 7.46615 8V7.1849C7.13358 7.14098 6.82185 6.99112 6.58203 6.7513C6.33029 6.49957 6.17538 6.16892 6.14063 5.81771L6.13281 5.66667C6.13281 5.26 6.29448 4.86959 6.58203 4.58203C6.82189 4.34217 7.13352 4.19102 7.46615 4.14714V2.66667C7.46615 2.37211 7.70545 2.13281 8 2.13281C8.29455 2.13281 8.53385 2.37211 8.53385 2.66667V4.33333Z" fill="currentColor"/>
<path d="M7.46615 13.3333V11.6667C7.46615 11.4368 7.55752 11.2159 7.72005 11.0534L7.85286 10.9453C7.94718 10.8825 8.05292 10.8385 8.16406 10.8164L8.42448 10.7904C8.51426 10.7725 8.59707 10.7284 8.66276 10.6628C8.75028 10.5752 8.79948 10.4571 8.79948 10.3333C8.79948 10.2096 8.75028 10.0914 8.66276 10.0039C8.59707 9.93822 8.51426 9.89421 8.42448 9.8763L8.16406 9.85026C7.99723 9.81704 7.84211 9.73534 7.72005 9.61328C7.55752 9.45075 7.46615 9.22985 7.46615 9V8C7.46615 7.70545 7.70545 7.46615 8 7.46615C8.29455 7.46615 8.53385 7.70545 8.53385 8V8.8138C8.86648 8.85769 9.17811 9.00884 9.41797 9.2487C9.70552 9.53625 9.86719 9.92667 9.86719 10.3333C9.86719 10.74 9.70552 11.1304 9.41797 11.418C9.17815 11.6578 8.86642 11.8076 8.53385 11.8516V13.3333C8.53385 13.6279 8.29455 13.8672 8 13.8672C7.70545 13.8672 7.46615 13.6279 7.46615 13.3333Z" fill="currentColor"/>
<path d="M9.85026 7.83594C9.81704 8.00277 9.73534 8.15789 9.61328 8.27995C9.45075 8.44248 9.22985 8.53385 9 8.53385H8C7.70545 8.53385 7.46615 8.29455 7.46615 8C7.46615 7.70545 7.70545 7.46615 8 7.46615H8.8151C8.85902 7.13358 9.00888 6.82185 9.2487 6.58203C9.53625 6.29448 9.92667 6.13281 10.3333 6.13281L10.4844 6.14063C10.8356 6.17538 11.1662 6.3303 11.418 6.58203C11.6578 6.82185 11.8076 7.13358 11.8516 7.46615H13.3333L13.4414 7.47786C13.6841 7.52784 13.8672 7.74249 13.8672 8C13.8672 8.25751 13.6841 8.47216 13.4414 8.52214L13.3333 8.53385H11.6667C11.4368 8.53385 11.2159 8.44248 11.0534 8.27995C10.9313 8.15789 10.8496 8.00277 10.8164 7.83594L10.7904 7.57552C10.7725 7.48575 10.7284 7.40293 10.6628 7.33724C10.5971 7.27155 10.5143 7.22754 10.4245 7.20964L10.3333 7.20052C10.2096 7.20052 10.0914 7.24972 10.0039 7.33724C9.93822 7.40293 9.89421 7.48574 9.8763 7.57552L9.85026 7.83594Z" fill="currentColor"/>
<path d="M5.20964 8.42448C5.22754 8.51426 5.27155 8.59707 5.33724 8.66276C5.42476 8.75028 5.5429 8.79948 5.66667 8.79948C5.79043 8.79948 5.90858 8.75028 5.99609 8.66276C6.06178 8.59707 6.10579 8.51426 6.1237 8.42448L6.14974 8.16406C6.18296 7.99723 6.26466 7.84211 6.38672 7.72005L6.51953 7.61198C6.66079 7.51789 6.82777 7.46615 7 7.46615H8L8.10807 7.47786C8.35079 7.52784 8.53385 7.74249 8.53385 8C8.53385 8.25751 8.35079 8.47216 8.10807 8.52214L8 8.53385H7.1849C7.14098 8.86642 6.99112 9.17815 6.7513 9.41797C6.46375 9.70552 6.07333 9.86719 5.66667 9.86719C5.26 9.86719 4.86959 9.70552 4.58203 9.41797C4.34222 9.17815 4.19236 8.86642 4.14844 8.53385H2.66667C2.37211 8.53385 2.13281 8.29455 2.13281 8C2.13281 7.70545 2.37211 7.46615 2.66667 7.46615H4.33333C4.50557 7.46615 4.67254 7.51789 4.8138 7.61198L4.94661 7.72005L5.05469 7.85286C5.11751 7.94718 5.16147 8.05292 5.18359 8.16406L5.20964 8.42448Z" fill="currentColor"/>
</svg>
