<svg width="16" height="16" viewBox="0 0 16 16" fill="none" xmlns="http://www.w3.org/2000/svg">
<path d="M6.13281 3.33333C6.13281 3.29797 6.11876 3.26459 6.09375 3.23958C6.06874 3.21458 6.03536 3.20052 6 3.20052H3.33333C3.29797 3.20052 3.26459 3.21458 3.23958 3.23958C3.21458 3.26459 3.20052 3.29797 3.20052 3.33333V6C3.20052 6.03536 3.21458 6.06874 3.23958 6.09375C3.26459 6.11876 3.29797 6.13281 3.33333 6.13281H6C6.03536 6.13281 6.06874 6.11876 6.09375 6.09375C6.11876 6.06874 6.13281 6.03536 6.13281 6V3.33333ZM7.20052 6C7.20052 6.31826 7.074 6.62392 6.84896 6.84896C6.62392 7.074 6.31826 7.20052 6 7.20052H3.33333C3.01507 7.20052 2.70942 7.074 2.48438 6.84896C2.25933 6.62392 2.13281 6.31826 2.13281 6V3.33333C2.13281 3.01507 2.25933 2.70942 2.48438 2.48438C2.70942 2.25933 3.01507 2.13281 3.33333 2.13281H6C6.31826 2.13281 6.62392 2.25933 6.84896 2.48438C7.074 2.70942 7.20052 3.01507 7.20052 3.33333V6Z" fill="currentColor"/>
<path d="M4.13281 11.3398V11.3333C4.13281 11.0388 4.37211 10.7995 4.66667 10.7995C4.92418 10.7995 5.13883 10.9825 5.1888 11.2253L5.20052 11.3333V11.3398L5.1888 11.4479C5.13888 11.6907 4.92423 11.8737 4.66667 11.8737C4.40911 11.8737 4.19445 11.6907 4.14453 11.4479L4.13281 11.3398Z" fill="currentColor"/>
<path d="M12.7995 3.33333C12.7995 3.29797 12.7854 3.26459 12.7604 3.23958C12.7354 3.21458 12.702 3.20052 12.6667 3.20052H10C9.96464 3.20052 9.93126 3.21458 9.90625 3.23958C9.88125 3.26459 9.86719 3.29797 9.86719 3.33333V6C9.86719 6.03536 9.88125 6.06874 9.90625 6.09375C9.93126 6.11876 9.96464 6.13281 10 6.13281H12.6667C12.702 6.13281 12.7354 6.11875 12.7604 6.09375C12.7854 6.06875 12.7995 6.03536 12.7995 6V3.33333ZM13.8672 6C13.8672 6.31826 13.7407 6.62391 13.5156 6.84896C13.2906 7.074 12.9849 7.20052 12.6667 7.20052H10C9.68174 7.20052 9.37609 7.074 9.15104 6.84896C8.926 6.62392 8.79948 6.31826 8.79948 6V3.33333C8.79948 3.01507 8.926 2.70942 9.15104 2.48438C9.37609 2.25933 9.68174 2.13281 10 2.13281H12.6667C12.9849 2.13281 13.2906 2.25933 13.5156 2.48438C13.7407 2.70942 13.8672 3.01507 13.8672 3.33333V6Z" fill="currentColor"/>
<path d="M4.13281 4.67318V4.66667C4.13281 4.37211 4.37211 4.13281 4.66667 4.13281C4.92418 4.13281 5.13883 4.31588 5.1888 4.55859L5.20052 4.66667V4.67318L5.1888 4.78125C5.13888 5.02404 4.92423 5.20703 4.66667 5.20703C4.40911 5.20703 4.19445 5.02404 4.14453 4.78125L4.13281 4.67318Z" fill="currentColor"/>
<path d="M6.13281 10C6.13281 9.96464 6.11876 9.93126 6.09375 9.90625C6.06874 9.88125 6.03536 9.86719 6 9.86719H3.33333C3.29797 9.86719 3.26459 9.88125 3.23958 9.90625C3.21458 9.93126 3.20052 9.96464 3.20052 10V12.6667C3.20052 12.702 3.21458 12.7354 3.23958 12.7604C3.26459 12.7854 3.29797 12.7995 3.33333 12.7995H6C6.03536 12.7995 6.06875 12.7854 6.09375 12.7604C6.11875 12.7354 6.13281 12.702 6.13281 12.6667V10ZM7.20052 12.6667C7.20052 12.9849 7.074 13.2906 6.84896 13.5156C6.62391 13.7407 6.31826 13.8672 6 13.8672H3.33333C3.01507 13.8672 2.70942 13.7407 2.48438 13.5156C2.25933 13.2906 2.13281 12.9849 2.13281 12.6667V10C2.13281 9.68174 2.25933 9.37609 2.48438 9.15104C2.70942 8.926 3.01507 8.79948 3.33333 8.79948H6C6.31826 8.79948 6.62392 8.926 6.84896 9.15104C7.074 9.37609 7.20052 9.68174 7.20052 10V12.6667Z" fill="currentColor"/>
<path d="M10.7995 4.67318V4.66667C10.7995 4.37211 11.0388 4.13281 11.3333 4.13281C11.5908 4.13281 11.8055 4.31588 11.8555 4.55859L11.8672 4.66667V4.67318L11.8555 4.78125C11.8056 5.02404 11.5909 5.20703 11.3333 5.20703C11.0758 5.20703 10.8611 5.02404 10.8112 4.78125L10.7995 4.67318Z" fill="currentColor"/>
<path d="M11.3333 8.79948L11.4414 8.8112C11.6841 8.86117 11.8672 9.07583 11.8672 9.33333C11.8672 9.59084 11.6841 9.80549 11.4414 9.85547L11.3333 9.86719H9.33333C9.03878 9.86719 8.79948 9.62789 8.79948 9.33333C8.79948 9.03878 9.03878 8.79948 9.33333 8.79948H11.3333Z" fill="currentColor"/>
<path d="M12.7995 9.33984V9.33333C12.7995 9.03878 13.0388 8.79948 13.3333 8.79948C13.5908 8.79948 13.8055 8.98255 13.8555 9.22526L13.8672 9.33333V9.33984L13.8555 9.44792C13.8056 9.69071 13.5909 9.8737 13.3333 9.8737C13.0758 9.8737 12.8611 9.69071 12.8112 9.44792L12.7995 9.33984Z" fill="currentColor"/>
<path d="M8.79948 11.3333V9.33333C8.79948 9.03878 9.03878 8.79948 9.33333 8.79948C9.62789 8.79948 9.86719 9.03878 9.86719 9.33333V11.3333C9.86719 11.6279 9.62789 11.8672 9.33333 11.8672C9.03878 11.8672 8.79948 11.6279 8.79948 11.3333Z" fill="currentColor"/>
<path d="M11.3333 12.7995L11.4414 12.8112C11.6841 12.8612 11.8672 13.0758 11.8672 13.3333C11.8672 13.5908 11.6841 13.8055 11.4414 13.8555L11.3333 13.8672H9.33333C9.03878 13.8672 8.79948 13.6279 8.79948 13.3333C8.79948 13.0388 9.03878 12.7995 9.33333 12.7995H11.3333Z" fill="currentColor"/>
<path d="M13.3333 10.7995L13.4414 10.8112C13.6841 10.8612 13.8672 11.0758 13.8672 11.3333C13.8672 11.5908 13.6841 11.8055 13.4414 11.8555L13.3333 11.8672H11.3333C11.0388 11.8672 10.7995 11.6279 10.7995 11.3333C10.7995 11.0388 11.0388 10.7995 11.3333 10.7995H13.3333Z" fill="currentColor"/>
<path d="M12.7995 13.3333V11.3333C12.7995 11.0388 13.0388 10.7995 13.3333 10.7995C13.6279 10.7995 13.8672 11.0388 13.8672 11.3333V13.3333C13.8672 13.6279 13.6279 13.8672 13.3333 13.8672C13.0388 13.8672 12.7995 13.6279 12.7995 13.3333Z" fill="currentColor"/>
</svg>
