<svg width="16" height="16" viewBox="0 0 16 16" fill="none" xmlns="http://www.w3.org/2000/svg">
<path d="M4.79947 5.33333C4.79947 4.63271 5.12521 3.98079 5.66926 3.51432C6.21095 3.05002 6.93066 2.79948 7.66666 2.79948H8.33332C9.06932 2.79948 9.78903 3.05002 10.3307 3.51432C10.8748 3.98079 11.2005 4.63271 11.2005 5.33333C11.2246 5.87135 11.0764 6.40302 10.7773 6.85156C10.4825 7.29383 10.0554 7.62869 9.55858 7.8151L9.55989 7.81641C9.2793 7.94796 9.00729 8.21338 8.80989 8.60807C8.63748 8.95289 8.53916 9.36475 8.53124 9.79297L8.53254 9.97786L8.52603 10.0846C8.48685 10.3298 8.27978 10.5216 8.02213 10.5326C7.7651 10.5432 7.5433 10.3704 7.48306 10.1302L7.46744 10.0221L7.46353 9.77474C7.47402 9.19773 7.60715 8.62824 7.85546 8.13151C8.13899 7.56445 8.56947 7.10219 9.10676 6.85026L9.15624 6.83073L9.37239 6.73437C9.57984 6.6212 9.75824 6.45898 9.89061 6.26042C10.0229 6.06199 10.1042 5.83511 10.1289 5.60026L10.1341 5.36328C10.1335 5.35331 10.1328 5.34332 10.1328 5.33333C10.1328 4.97336 9.96738 4.60783 9.63671 4.32422C9.30323 4.03837 8.835 3.86719 8.33332 3.86719H7.66666C7.16498 3.86719 6.69675 4.03837 6.36327 4.32422C6.0326 4.60783 5.86718 4.97336 5.86718 5.33333C5.86718 5.62788 5.62788 5.86719 5.33332 5.86719C5.03877 5.86719 4.79947 5.62788 4.79947 5.33333Z" fill="currentColor"/>
<path d="M7.46614 12.6732V12.6667C7.46614 12.3721 7.70544 12.1328 7.99999 12.1328C8.29454 12.1328 8.53384 12.3721 8.53384 12.6667V12.6732C8.53384 12.9677 8.29454 13.207 7.99999 13.207C7.70544 13.207 7.46614 12.9677 7.46614 12.6732Z" fill="currentColor"/>
</svg>
