<svg width="16" height="16" viewBox="0 0 16 16" fill="none" xmlns="http://www.w3.org/2000/svg">
<path fill-rule="evenodd" clip-rule="evenodd" d="M7.80191 2.83815C7.92907 2.78729 8.07091 2.78729 8.19806 2.83815L14.8647 5.50482C15.0672 5.58581 15.2 5.78192 15.2 6V10C15.2 10.2946 14.9612 10.5333 14.6667 10.5333C14.3721 10.5333 14.1333 10.2946 14.1333 10V6.78775L8.19806 9.16186C8.07091 9.21272 7.92907 9.21272 7.80191 9.16186L1.13525 6.49519C0.932762 6.4142 0.799988 6.21809 0.799988 6C0.799988 5.78192 0.932762 5.58581 1.13525 5.50482L7.80191 2.83815ZM13.2306 6L7.99999 8.09225L2.76936 6L7.99999 3.90775L13.2306 6Z" fill="currentColor"/>
<path fill-rule="evenodd" clip-rule="evenodd" d="M3.99999 6.53334C4.29454 6.53334 4.53332 6.77212 4.53332 7.06667V10.6667C4.53332 10.9235 4.74688 11.2852 5.4113 11.6135C6.04708 11.9278 6.96238 12.1333 7.99999 12.1333C9.0376 12.1333 9.9529 11.9278 10.5887 11.6135C11.2531 11.2852 11.4667 10.9235 11.4667 10.6667V7.06667C11.4667 6.77212 11.7054 6.53334 12 6.53334C12.2945 6.53334 12.5333 6.77212 12.5333 7.06667V10.6667C12.5333 11.5432 11.8469 12.1815 11.0613 12.5698C10.2471 12.9722 9.16238 13.2 7.99999 13.2C6.8376 13.2 5.7529 12.9722 4.93867 12.5698C4.15309 12.1815 3.46665 11.5432 3.46665 10.6667V7.06667C3.46665 6.77212 3.70544 6.53334 3.99999 6.53334Z" fill="currentColor"/>
</svg>
