<svg width="16" height="16" viewBox="0 0 16 16" fill="none" xmlns="http://www.w3.org/2000/svg">
<path fill-rule="evenodd" clip-rule="evenodd" d="M4.00001 6.53333C3.18999 6.53333 2.53334 7.18998 2.53334 8C2.53334 8.81002 3.18999 9.46667 4.00001 9.46667C4.81003 9.46667 5.46667 8.81002 5.46667 8C5.46667 7.18998 4.81003 6.53333 4.00001 6.53333ZM1.46667 8C1.46667 6.60088 2.60089 5.46667 4.00001 5.46667C5.39913 5.46667 6.53334 6.60088 6.53334 8C6.53334 9.39912 5.39913 10.5333 4.00001 10.5333C2.60089 10.5333 1.46667 9.39912 1.46667 8Z" fill="currentColor"/>
<path fill-rule="evenodd" clip-rule="evenodd" d="M12 2.53333C11.19 2.53333 10.5333 3.18998 10.5333 4C10.5333 4.81002 11.19 5.46667 12 5.46667C12.81 5.46667 13.4667 4.81002 13.4667 4C13.4667 3.18998 12.81 2.53333 12 2.53333ZM9.46667 4C9.46667 2.60088 10.6009 1.46667 12 1.46667C13.3991 1.46667 14.5333 2.60088 14.5333 4C14.5333 5.39912 13.3991 6.53333 12 6.53333C10.6009 6.53333 9.46667 5.39912 9.46667 4Z" fill="currentColor"/>
<path fill-rule="evenodd" clip-rule="evenodd" d="M12 10.5333C11.19 10.5333 10.5333 11.19 10.5333 12C10.5333 12.81 11.19 13.4667 12 13.4667C12.81 13.4667 13.4667 12.81 13.4667 12C13.4667 11.19 12.81 10.5333 12 10.5333ZM9.46667 12C9.46667 10.6009 10.6009 9.46667 12 9.46667C13.3991 9.46667 14.5333 10.6009 14.5333 12C14.5333 13.3991 13.3991 14.5333 12 14.5333C10.6009 14.5333 9.46667 13.3991 9.46667 12Z" fill="currentColor"/>
<path fill-rule="evenodd" clip-rule="evenodd" d="M10.6741 4.62242C10.809 4.88427 10.7061 5.20589 10.4443 5.34079L6.04425 7.60745C5.7824 7.74235 5.46078 7.63943 5.32589 7.37758C5.191 7.11573 5.29392 6.79411 5.55576 6.65921L9.95576 4.39255C10.2176 4.25766 10.5392 4.36057 10.6741 4.62242Z" fill="currentColor"/>
<path fill-rule="evenodd" clip-rule="evenodd" d="M5.32589 8.62242C5.46078 8.36057 5.7824 8.25766 6.04425 8.39255L10.4443 10.6592C10.7061 10.7941 10.809 11.1157 10.6741 11.3776C10.5392 11.6394 10.2176 11.7423 9.95576 11.6075L5.55576 9.34079C5.29392 9.2059 5.191 8.88427 5.32589 8.62242Z" fill="currentColor"/>
</svg>
