<svg width="16" height="16" viewBox="0 0 16 16" fill="none" xmlns="http://www.w3.org/2000/svg">
<path fill-rule="evenodd" clip-rule="evenodd" d="M6.62752 2.62974C7.47782 2.03453 8.5889 2.03453 9.43921 2.62974C9.44616 2.63461 9.45299 2.63964 9.45969 2.64482L12.993 5.37816L13.0081 5.39028C13.5226 5.81898 13.8667 6.49929 13.8667 7.2V12C13.8667 13.0279 13.0279 13.8667 12 13.8667H4.00003C2.97214 13.8667 2.13336 13.0279 2.13336 12V7.2C2.13336 6.49621 2.48115 5.80524 3.08122 5.37234L6.60703 2.64482C6.61374 2.63964 6.62057 2.63461 6.62752 2.62974ZM7.24885 3.4969L3.72636 6.22185L3.71002 6.23399C3.38216 6.46818 3.20003 6.84056 3.20003 7.2V12C3.20003 12.4388 3.56125 12.8 4.00003 12.8H12C12.4388 12.8 12.8 12.4388 12.8 12V7.2C12.8 6.83693 12.6138 6.45377 12.332 6.21537L8.81787 3.4969C8.33945 3.1677 7.72727 3.1677 7.24885 3.4969Z" fill="currentColor"/>
<path fill-rule="evenodd" clip-rule="evenodd" d="M4.8742 9.72868C5.02405 9.47509 5.3511 9.39099 5.60468 9.54084C6.23634 9.91409 7.10327 10.1167 8.00003 10.1167C8.89679 10.1167 9.76372 9.91409 10.3954 9.54084C10.649 9.39099 10.976 9.47509 11.1259 9.72868C11.2757 9.98227 11.1916 10.3093 10.938 10.4592C10.103 10.9526 9.0366 11.1833 8.00003 11.1833C6.96346 11.1833 5.89705 10.9526 5.06204 10.4592C4.80845 10.3093 4.72435 9.98227 4.8742 9.72868Z" fill="currentColor"/>
</svg>
