<svg width="16" height="16" viewBox="0 0 16 16" fill="none" xmlns="http://www.w3.org/2000/svg">
<path d="M7.33333 3.46615L7.44141 3.47787C7.68412 3.52784 7.86719 3.74249 7.86719 4C7.86719 4.25751 7.68412 4.47216 7.44141 4.52214L7.33333 4.53385H2.66667C2.37211 4.53385 2.13281 4.29455 2.13281 4C2.13281 3.70545 2.37211 3.46615 2.66667 3.46615H7.33333Z" fill="currentColor"/>
<path d="M7.33333 7.46615L7.44141 7.47786C7.68412 7.52784 7.86719 7.74249 7.86719 8C7.86719 8.25751 7.68412 8.47216 7.44141 8.52214L7.33333 8.53385H2.66667C2.37211 8.53385 2.13281 8.29455 2.13281 8C2.13281 7.70545 2.37211 7.46615 2.66667 7.46615H7.33333Z" fill="currentColor"/>
<path d="M8.66667 11.4661L8.77474 11.4779C9.01745 11.5278 9.20052 11.7425 9.20052 12C9.20052 12.2575 9.01745 12.4722 8.77474 12.5221L8.66667 12.5339H2.66667C2.37211 12.5339 2.13281 12.2946 2.13281 12C2.13281 11.7054 2.37211 11.4661 2.66667 11.4661H8.66667Z" fill="currentColor"/>
<path d="M11.707 3.55469C11.914 3.4182 12.1954 3.44023 12.3776 3.6224L14.3776 5.6224L14.4453 5.70703C14.5818 5.91402 14.5598 6.19544 14.3776 6.3776C14.1954 6.55977 13.914 6.5818 13.707 6.44531L13.6224 6.3776L12 4.75521L10.3776 6.3776C10.1693 6.58588 9.83068 6.58588 9.6224 6.3776C9.41412 6.16933 9.41412 5.83068 9.6224 5.6224L11.6224 3.6224L11.707 3.55469Z" fill="currentColor"/>
<path d="M11.4661 12V4C11.4661 3.70545 11.7054 3.46615 12 3.46615C12.2946 3.46615 12.5339 3.70545 12.5339 4V12C12.5339 12.2946 12.2946 12.5339 12 12.5339C11.7054 12.5339 11.4661 12.2946 11.4661 12Z" fill="currentColor"/>
</svg>
