<svg width="16" height="16" viewBox="0 0 16 16" fill="none" xmlns="http://www.w3.org/2000/svg">
<path d="M8.66667 3.46615L8.77474 3.47787C9.01745 3.52784 9.20052 3.74249 9.20052 4C9.20052 4.25751 9.01745 4.47216 8.77474 4.52214L8.66667 4.53385H2.66667C2.37211 4.53385 2.13281 4.29455 2.13281 4C2.13281 3.70545 2.37211 3.46615 2.66667 3.46615H8.66667Z" fill="currentColor"/>
<path d="M7.33333 7.46615L7.44141 7.47786C7.68412 7.52784 7.86719 7.74249 7.86719 8C7.86719 8.25751 7.68412 8.47216 7.44141 8.52214L7.33333 8.53385H2.66667C2.37211 8.53385 2.13281 8.29455 2.13281 8C2.13281 7.70545 2.37211 7.46615 2.66667 7.46615H7.33333Z" fill="currentColor"/>
<path d="M7.33333 11.4661L7.44141 11.4779C7.68412 11.5278 7.86719 11.7425 7.86719 12C7.86719 12.2575 7.68412 12.4722 7.44141 12.5221L7.33333 12.5339H2.66667C2.37211 12.5339 2.13281 12.2946 2.13281 12C2.13281 11.7054 2.37211 11.4661 2.66667 11.4661H7.33333Z" fill="currentColor"/>
<path d="M13.6224 9.6224C13.8307 9.41412 14.1693 9.41412 14.3776 9.6224C14.5859 9.83068 14.5859 10.1693 14.3776 10.3776L12.3776 12.3776C12.1954 12.5598 11.914 12.5818 11.707 12.4453L11.6224 12.3776L9.6224 10.3776L9.55469 10.293C9.4182 10.086 9.44023 9.80456 9.6224 9.6224C9.80456 9.44023 10.086 9.4182 10.293 9.55469L10.3776 9.6224L12 11.2448L13.6224 9.6224Z" fill="currentColor"/>
<path d="M11.4661 12V4C11.4661 3.70545 11.7054 3.46615 12 3.46615C12.2946 3.46615 12.5339 3.70545 12.5339 4V12C12.5339 12.2946 12.2946 12.5339 12 12.5339C11.7054 12.5339 11.4661 12.2946 11.4661 12Z" fill="currentColor"/>
</svg>
