<svg width="16" height="16" viewBox="0 0 16 16" fill="none" xmlns="http://www.w3.org/2000/svg">
<path d="M13.4662 7.33333C13.4662 6.94435 13.3115 6.57193 13.0365 6.29687C12.7957 6.0561 12.4805 5.90695 12.1445 5.8737L12 5.86719L11.8919 5.85547C11.6492 5.80549 11.4662 5.59084 11.4662 5.33333C11.4662 5.03878 11.7055 4.79948 12 4.79948L12.25 4.8125C12.8301 4.87001 13.3759 5.12587 13.7917 5.54167C14.2668 6.01676 14.5339 6.66145 14.5339 7.33333L14.5208 7.58333C14.4633 8.16341 14.2075 8.7092 13.7917 9.125C13.3759 9.54079 12.8301 9.79666 12.25 9.85417L12 9.86719C11.7055 9.86719 11.4662 9.62788 11.4662 9.33333C11.4662 9.03878 11.7055 8.79948 12 8.79948L12.1445 8.79297C12.4805 8.75972 12.7957 8.61057 13.0365 8.36979C13.2772 8.12901 13.4264 7.81378 13.4596 7.47786L13.4662 7.33333Z" fill="currentColor"/>
<path d="M4.13282 12.6667V9.33333C4.13282 9.03878 4.37212 8.79948 4.66668 8.79948C4.96123 8.79948 5.20053 9.03878 5.20053 9.33333V12.6667C5.20053 12.702 5.21459 12.7354 5.23959 12.7604C5.2646 12.7854 5.29798 12.7995 5.33334 12.7995H6.00001C6.03537 12.7995 6.06876 12.7854 6.09376 12.7604C6.11876 12.7354 6.13282 12.702 6.13282 12.6667V5.33333C6.13282 5.03878 6.37212 4.79948 6.66668 4.79948C6.96123 4.79948 7.20053 5.03878 7.20053 5.33333V12.6667C7.20053 12.9849 7.07401 13.2906 6.84897 13.5156C6.62392 13.7407 6.31827 13.8672 6.00001 13.8672H5.33334C5.01508 13.8672 4.70943 13.7407 4.48439 13.5156C4.25934 13.2906 4.13282 12.9849 4.13282 12.6667Z" fill="currentColor"/>
<path d="M11.4557 3.24483C11.449 3.23439 11.4397 3.22537 11.4284 3.22009C11.4171 3.21482 11.4043 3.21337 11.3919 3.21488C11.3796 3.21646 11.3664 3.22007 11.3568 3.2279L11.3581 3.2292L8.34116 5.74352C8.24537 5.82318 8.1246 5.86722 8.00001 5.86722H2.66668C2.63131 5.86722 2.59793 5.88128 2.57293 5.90628C2.54793 5.93129 2.53386 5.96468 2.53386 6.00003V8.6667L2.54298 8.71748C2.54962 8.73364 2.56033 8.74786 2.57293 8.76045C2.59793 8.78544 2.63132 8.79951 2.66668 8.79951H8.00001L8.09246 8.80863C8.1834 8.82465 8.26935 8.86349 8.34116 8.92321L11.3568 11.4362L11.3919 11.4519C11.4043 11.4534 11.4171 11.4519 11.4284 11.4466C11.4396 11.4414 11.449 11.4323 11.4557 11.4219L11.4662 11.3855V3.28128L11.4557 3.24483ZM12.5339 11.3855L12.5221 11.5456C12.4995 11.7043 12.4434 11.8572 12.3568 11.9935C12.2414 12.1752 12.0764 12.32 11.8815 12.4115C11.6865 12.5029 11.4689 12.5367 11.2552 12.5091C11.0949 12.4885 10.9412 12.4346 10.8047 12.3503L10.6745 12.2565L7.8073 9.86722H2.66668C2.34843 9.86722 2.04276 9.74069 1.81772 9.51566C1.62079 9.31873 1.49993 9.05992 1.47267 8.78519L1.46616 8.6667V6.00003C1.46616 5.68178 1.59269 5.37612 1.81772 5.15108C2.04276 4.92603 2.34842 4.79951 2.66668 4.79951H7.8073L10.6745 2.41019L10.8047 2.31644C10.9413 2.23216 11.0949 2.17825 11.2552 2.15759C11.4689 2.13008 11.6865 2.16379 11.8815 2.25524C12.0764 2.3467 12.2414 2.49152 12.3568 2.67321C12.4722 2.85497 12.5339 3.06596 12.5339 3.28128V11.3855Z" fill="currentColor"/>
</svg>
