<svg width="16" height="16" viewBox="0 0 16 16" fill="none" xmlns="http://www.w3.org/2000/svg">
<path fill-rule="evenodd" clip-rule="evenodd" d="M1.46666 5.33333C1.46666 4.30545 2.30544 3.46666 3.33333 3.46666H5.26666C5.74515 3.46666 6.21218 3.65878 6.57543 4.02119L10.6438 8.02286C11.3854 8.76447 11.3854 9.96884 10.6438 10.7105L8.77712 12.5771C8.0355 13.3187 6.83115 13.3187 6.08954 12.5771L2.046 8.53358C1.62231 8.19265 1.46666 7.61867 1.46666 7.2V5.33333ZM3.33333 4.53333C2.89454 4.53333 2.53333 4.89455 2.53333 5.33333V7.2C2.53333 7.43698 2.63605 7.64371 2.71999 7.70666C2.74018 7.72181 2.75927 7.73836 2.77712 7.75621L6.84378 11.8229C7.16884 12.1479 7.69782 12.1479 8.02287 11.8229L9.88953 9.95621C10.2141 9.63161 10.2146 9.10368 9.89092 8.77851L5.82286 4.77713C5.65302 4.60729 5.45409 4.53333 5.26666 4.53333H3.33333Z" fill="currentColor"/>
<path fill-rule="evenodd" clip-rule="evenodd" d="M8.48954 3.35621C8.69782 3.14793 9.0355 3.14793 9.24378 3.35621L13.9771 8.08954C14.7187 8.83115 14.7187 10.0355 13.9771 10.7771L12.1104 12.6438C11.9022 12.8521 11.5645 12.8521 11.3562 12.6438C11.1479 12.4355 11.1479 12.0978 11.3562 11.8895L13.2229 10.0229C13.5479 9.69782 13.5479 9.16884 13.2229 8.84379L8.48954 4.11045C8.28126 3.90217 8.28126 3.56449 8.48954 3.35621Z" fill="currentColor"/>
</svg>
