<svg width="16" height="16" viewBox="0 0 16 16" fill="none" xmlns="http://www.w3.org/2000/svg">
<path d="M8.13282 8C8.13282 7.96464 8.11877 7.93126 8.09376 7.90625C8.06876 7.88125 8.03537 7.86719 8.00001 7.86719C7.96465 7.86719 7.93127 7.88125 7.90626 7.90625C7.88126 7.93126 7.8672 7.96464 7.8672 8C7.8672 8.03536 7.88126 8.06875 7.90626 8.09375C7.93127 8.11876 7.96465 8.13281 8.00001 8.13281C8.03537 8.13281 8.06876 8.11876 8.09376 8.09375C8.11877 8.06875 8.13282 8.03536 8.13282 8ZM9.20053 8C9.20053 8.31826 9.07401 8.62392 8.84897 8.84896C8.62393 9.074 8.31827 9.20052 8.00001 9.20052C7.68175 9.20052 7.3761 9.074 7.15105 8.84896C6.92601 8.62392 6.79949 8.31826 6.79949 8C6.79949 7.68174 6.92601 7.37609 7.15105 7.15104C7.3761 6.926 7.68175 6.79948 8.00001 6.79948C8.31827 6.79948 8.62393 6.926 8.84897 7.15104C9.07401 7.37609 9.20053 7.68174 9.20053 8Z" fill="currentColor"/>
<path d="M8.00001 4.13281C8.29456 4.13281 8.53386 4.37212 8.53386 4.66667C8.53386 4.96122 8.29456 5.20052 8.00001 5.20052C7.44622 5.20052 6.90448 5.36421 6.44402 5.67188C5.98369 5.97953 5.62466 6.41685 5.41277 6.92839C5.20086 7.44001 5.14588 8.00375 5.25392 8.54688C5.36203 9.08978 5.6281 9.58903 6.01954 9.98047C6.41098 10.3719 6.91023 10.638 7.45314 10.7461C7.99626 10.8541 8.56 10.7991 9.07162 10.5872C9.58316 10.3754 10.0205 10.0163 10.3281 9.55599C10.6358 9.09553 10.7995 8.55379 10.7995 8C10.7995 7.70545 11.0388 7.46615 11.3333 7.46615C11.6279 7.46615 11.8672 7.70545 11.8672 8C11.8672 8.76476 11.6397 9.51257 11.2149 10.1484C10.79 10.7842 10.1856 11.2803 9.47918 11.5729C8.77298 11.8653 7.99576 11.942 7.2461 11.793C6.49604 11.6438 5.8064 11.2751 5.26564 10.7344C4.72487 10.1936 4.35624 9.50397 4.20704 8.75391C4.05804 8.00425 4.13473 7.22703 4.42709 6.52083C4.71972 5.81438 5.21582 5.21002 5.85157 4.78516C6.48744 4.36028 7.23526 4.13281 8.00001 4.13281Z" fill="currentColor"/>
<path d="M8.72561 1.50707L8.83238 1.5292C9.0679 1.60584 9.22539 1.83988 9.19696 2.09561C9.16822 2.35177 8.96229 2.54598 8.71519 2.56827L8.60712 2.56696L8.18524 2.53571C7.19938 2.50187 6.21972 2.73545 5.35191 3.2154C4.36032 3.76383 3.5635 4.60718 3.07196 5.62816C2.58052 6.64909 2.4187 7.79756 2.60842 8.91462C2.79816 10.0318 3.33081 11.0624 4.13186 11.8638C4.93287 12.6651 5.96286 13.1983 7.07977 13.3886C8.19665 13.5788 9.34513 13.4172 10.3662 12.9263C11.3874 12.4353 12.2314 11.6389 12.7803 10.6477C13.3292 9.65637 13.5558 8.51864 13.43 7.39249L13.9613 7.33389L14.4912 7.274C14.6415 8.61989 14.3699 9.97987 13.7139 11.1646C13.0579 12.3493 12.0489 13.3005 10.8285 13.8873C9.60803 14.474 8.23502 14.6668 6.90009 14.4394C5.56527 14.2119 4.33388 13.5755 3.37665 12.6177C2.41936 11.6599 1.78308 10.4281 1.55634 9.09301C1.32964 7.75794 1.5236 6.38476 2.11102 5.16462C2.69849 3.94461 3.65135 2.93716 4.83628 2.28181C5.87325 1.70842 7.04372 1.4289 8.2217 1.46931L8.72561 1.50707ZM13.9014 6.80394C14.1941 6.77126 14.4585 6.98131 14.4912 7.274L13.43 7.39249C13.3974 7.09985 13.6088 6.83671 13.9014 6.80394Z" fill="currentColor"/>
<path d="M11.6836 1.57031C11.8324 1.4607 12.0302 1.43563 12.2044 1.50781C12.4035 1.59048 12.5339 1.78446 12.5339 2V3.46615H14C14.2156 3.46615 14.4095 3.59655 14.4922 3.79557C14.5747 3.99487 14.5301 4.22507 14.3776 4.3776L12.3776 6.3776C12.2776 6.47762 12.1415 6.53385 12 6.53385H10C9.70546 6.53385 9.46616 6.29455 9.46616 6V4L9.47657 3.89583C9.49701 3.79315 9.54729 3.69752 9.62241 3.6224L11.6224 1.6224L11.6836 1.57031ZM10.5339 4.22135V5.46615H11.7787L12.7109 4.53385H12C11.7055 4.53385 11.4662 4.29455 11.4662 4V3.28906L10.5339 4.22135Z" fill="currentColor"/>
<path d="M9.62241 5.6224C9.83069 5.41412 10.1693 5.41412 10.3776 5.6224C10.5859 5.83068 10.5859 6.16933 10.3776 6.3776L8.37762 8.3776C8.16934 8.58588 7.83069 8.58588 7.62241 8.3776C7.41413 8.16933 7.41413 7.83068 7.62241 7.6224L9.62241 5.6224Z" fill="currentColor"/>
</svg>
