<svg width="16" height="16" viewBox="0 0 16 16" fill="none" xmlns="http://www.w3.org/2000/svg">
<path fill-rule="evenodd" clip-rule="evenodd" d="M2 4.66667C2 4.29848 2.29848 4 2.66667 4H13.3333C13.7015 4 14 4.29848 14 4.66667C14 5.03486 13.7015 5.33333 13.3333 5.33333H2.66667C2.29848 5.33333 2 5.03486 2 4.66667Z" fill="currentColor"/>
<path fill-rule="evenodd" clip-rule="evenodd" d="M6.66667 6.8C6.96122 6.8 7.2 7.03878 7.2 7.33333V11.3333C7.2 11.6279 6.96122 11.8667 6.66667 11.8667C6.37212 11.8667 6.13333 11.6279 6.13333 11.3333V7.33333C6.13333 7.03878 6.37212 6.8 6.66667 6.8Z" fill="currentColor"/>
<path fill-rule="evenodd" clip-rule="evenodd" d="M9.33333 6.8C9.62789 6.8 9.86667 7.03878 9.86667 7.33333V11.3333C9.86667 11.6279 9.62789 11.8667 9.33333 11.8667C9.03878 11.8667 8.8 11.6279 8.8 11.3333V7.33333C8.8 7.03878 9.03878 6.8 9.33333 6.8Z" fill="currentColor"/>
<path fill-rule="evenodd" clip-rule="evenodd" d="M3.28904 4.13518C3.58258 4.11071 3.84036 4.32884 3.86482 4.62238L4.53149 12.6224C4.53272 12.6371 4.53333 12.6519 4.53333 12.6667C4.53333 13.1054 4.89455 13.4667 5.33333 13.4667H10.6667C11.1054 13.4667 11.4667 13.1054 11.4667 12.6667C11.4667 12.6519 11.4673 12.6371 11.4685 12.6224L12.1352 4.62238C12.1596 4.32884 12.4174 4.11071 12.711 4.13518C13.0045 4.15964 13.2226 4.41742 13.1982 4.71096L12.5332 12.6907C12.5202 13.7076 11.6865 14.5333 10.6667 14.5333H5.33333C4.31347 14.5333 3.47976 13.7076 3.46682 12.6907L2.80184 4.71096C2.77738 4.41742 2.99551 4.15964 3.28904 4.13518Z" fill="currentColor"/>
<path fill-rule="evenodd" clip-rule="evenodd" d="M6.56046 2.56046C6.55727 2.56364 6.53333 2.58787 6.53333 2.66667V4.66667C6.53333 4.96122 6.29455 5.2 6 5.2C5.70545 5.2 5.46667 4.96122 5.46667 4.66667V2.66667C5.46667 2.34547 5.57606 2.03636 5.80621 1.80621C6.03636 1.57606 6.34547 1.46667 6.66667 1.46667H9.33333C9.65453 1.46667 9.96364 1.57606 10.1938 1.80621C10.4239 2.03636 10.5333 2.34547 10.5333 2.66667V4.66667C10.5333 4.96122 10.2946 5.2 10 5.2C9.70545 5.2 9.46667 4.96122 9.46667 4.66667V2.66667C9.46667 2.58787 9.44273 2.56364 9.43954 2.56046C9.43636 2.55727 9.41213 2.53333 9.33333 2.53333H6.66667C6.58787 2.53333 6.56364 2.55727 6.56046 2.56046Z" fill="currentColor"/>
</svg>
