<svg width="16" height="16" viewBox="0 0 16 16" fill="none" xmlns="http://www.w3.org/2000/svg">
<path fill-rule="evenodd" clip-rule="evenodd" d="M2.13333 13.3333C2.13333 13.0388 2.37211 12.8 2.66666 12.8H4.66666C4.96122 12.8 5.2 13.0388 5.2 13.3333C5.2 13.6279 4.96122 13.8667 4.66666 13.8667H2.66666C2.37211 13.8667 2.13333 13.6279 2.13333 13.3333Z" fill="currentColor"/>
<path fill-rule="evenodd" clip-rule="evenodd" d="M8.8 13.3333C8.8 13.0388 9.03878 12.8 9.33333 12.8H14C14.2945 12.8 14.5333 13.0388 14.5333 13.3333C14.5333 13.6279 14.2945 13.8667 14 13.8667H9.33333C9.03878 13.8667 8.8 13.6279 8.8 13.3333Z" fill="currentColor"/>
<path fill-rule="evenodd" clip-rule="evenodd" d="M4.06666 10C4.06666 9.70545 4.30545 9.46666 4.6 9.46666H9.2C9.49455 9.46666 9.73333 9.70545 9.73333 10C9.73333 10.2945 9.49455 10.5333 9.2 10.5333H4.6C4.30545 10.5333 4.06666 10.2945 4.06666 10Z" fill="currentColor"/>
<path fill-rule="evenodd" clip-rule="evenodd" d="M6.59207 3.70887C6.86332 3.59403 7.1763 3.72083 7.29113 3.99207L11.1578 13.1254C11.2726 13.3967 11.1458 13.7096 10.8746 13.8245C10.6033 13.9393 10.2904 13.8125 10.1755 13.5413L6.30886 4.40792C6.19403 4.13668 6.32083 3.8237 6.59207 3.70887Z" fill="currentColor"/>
<path fill-rule="evenodd" clip-rule="evenodd" d="M6.83396 2.4794C6.91202 2.27124 7.11101 2.13333 7.33333 2.13333H8.66667C8.87856 2.13333 9.07035 2.25877 9.15528 2.45289L13.8219 13.1196C13.94 13.3894 13.817 13.7039 13.5471 13.8219C13.2772 13.94 12.9628 13.817 12.8447 13.5471L8.31786 3.2H7.70293L3.83271 13.5206C3.72928 13.7964 3.42186 13.9361 3.14607 13.8327C2.87027 13.7293 2.73053 13.4219 2.83396 13.1461L6.83396 2.4794Z" fill="currentColor"/>
</svg>
