<svg width="16" height="16" viewBox="0 0 16 16" fill="none" xmlns="http://www.w3.org/2000/svg">
<path fill-rule="evenodd" clip-rule="evenodd" d="M4.66667 2.8C4.96122 2.8 5.2 3.03878 5.2 3.33334V6.66667C5.2 8.23878 6.42789 9.46667 8 9.46667C9.57212 9.46667 10.8 8.23878 10.8 6.66667V3.33334C10.8 3.03878 11.0388 2.8 11.3333 2.8C11.6279 2.8 11.8667 3.03878 11.8667 3.33334V6.66667C11.8667 8.82789 10.1612 10.5333 8 10.5333C5.83878 10.5333 4.13334 8.82789 4.13334 6.66667V3.33334C4.13334 3.03878 4.37212 2.8 4.66667 2.8Z" fill="currentColor"/>
<path fill-rule="evenodd" clip-rule="evenodd" d="M2.8 12.6667C2.8 12.3721 3.03878 12.1333 3.33334 12.1333H12.6667C12.9612 12.1333 13.2 12.3721 13.2 12.6667C13.2 12.9612 12.9612 13.2 12.6667 13.2H3.33334C3.03878 13.2 2.8 12.9612 2.8 12.6667Z" fill="currentColor"/>
</svg>
