<svg width="16" height="16" viewBox="0 0 16 16" fill="none" xmlns="http://www.w3.org/2000/svg">
<path d="M4.20001 4.9C4.40001 5 4.60001 5 4.80001 4.9C5.00001 4.8 5.00001 4.5 4.80001 4.3L4.40001 3.8C4.20001 3.6 4.00001 3.6 3.80001 3.8C3.60001 4 3.60001 4.2 3.80001 4.4L4.20001 4.9Z" fill="currentColor"/>
<path d="M2.60001 7.4C2.30001 7.4 2.10001 7.6 2.10001 7.9C2.10001 8.2 2.30001 8.4 2.60001 8.4H3.30001C3.50001 8.4 3.70001 8.2 3.70001 7.9C3.70001 7.6 3.50001 7.5 3.30001 7.4H2.60001Z" fill="currentColor"/>
<path d="M7.90001 3.6C8.20001 3.6 8.40001 3.4 8.40001 3.1V2.5C8.40001 2.2 8.20001 2 7.90001 2C7.60001 2 7.40001 2.2 7.40001 2.5V3.1C7.40001 3.4 7.60001 3.6 7.90001 3.6Z" fill="currentColor"/>
<path d="M12.8 7.4C12.5 7.4 12.3 7.6 12.3 7.9C12.3 8.2 12.5 8.4 12.8 8.4H13.5C13.7 8.4 13.9 8.2 13.9 7.9C13.9 7.6 13.7 7.5 13.5 7.4H12.8Z" fill="currentColor"/>
<path d="M12.1 3.7C11.9 3.5 11.7 3.5 11.5 3.7L11.1 4.2C10.9 4.4 10.9 4.7 11.1 4.9C11.3 5.1 11.5 5.1 11.7 4.9L12.1 4.4C12.3 4.2 12.3 3.9 12.1 3.7Z" fill="currentColor"/>
<path d="M10.9 9.8H4.90001C4.60001 9.8 4.30001 9.9 4.10001 10.1C3.90001 10.3 3.80001 10.6 3.80001 10.9V12.1C3.80001 12.4 3.90001 12.7 4.10001 12.9C4.30001 13.1 4.60001 13.2 4.90001 13.2H10.9C11.2 13.2 11.5 13.1 11.7 12.9C11.9 12.7 12 12.4 12 12.1V10.9C12 10.6 11.9 10.3 11.7 10.1C11.5 9.9 11.2 9.8 10.9 9.8Z" fill="currentColor"/>
<path d="M5.40001 9.4H10.5C10.7 9.4 10.9 9.2 10.9 9V7.9C10.9 7.1 10.6 6.4 10.1 5.9C9.60001 5.4 9.00001 5.1 8.30001 5.1H8.00001C7.20001 5.1 6.50001 5.4 6.00001 5.9C5.50001 6.4 5.20001 7.2 5.20001 7.9V9C5.20001 9.2 5.40001 9.4 5.60001 9.4H5.40001Z" fill="currentColor"/>
</svg>
