<svg width="16" height="16" viewBox="0 0 16 16" fill="none" xmlns="http://www.w3.org/2000/svg">
<path d="M9.82591 10.308V7.9C9.82591 7.38909 9.62398 6.89855 9.26271 6.53729C8.94664 6.22121 8.53142 6.02731 8.09047 5.9835L7.9 5.97409C7.38909 5.97409 6.89855 6.17602 6.53729 6.53729C6.17602 6.89855 5.97409 7.38909 5.97409 7.9V10.308C5.97409 10.5739 5.75801 10.79 5.49203 10.79C5.22605 10.79 5.00996 10.5739 5.00996 10.308V7.9C5.00996 7.13364 5.31462 6.39842 5.85652 5.85652C6.39842 5.31462 7.13364 5.00996 7.9 5.00996L8.18571 5.02407C8.84718 5.08977 9.46934 5.38237 9.94348 5.85652C10.4854 6.39842 10.79 7.13364 10.79 7.9V10.308C10.79 10.5739 10.5739 10.79 10.308 10.79C10.042 10.79 9.82591 10.5739 9.82591 10.308Z" fill="currentColor"/>
<path d="M3.08406 7.41794L3.18165 7.42852C3.40081 7.47365 3.56612 7.66747 3.56612 7.9C3.56612 8.13253 3.40081 8.32636 3.18165 8.37148L3.08406 8.38207H2.48206C2.21609 8.38207 2 8.16598 2 7.9C2 7.63402 2.21609 7.41794 2.48206 7.41794H3.08406ZM13.3179 7.41794L13.4155 7.42852C13.6347 7.47365 13.8 7.66747 13.8 7.9C13.8 8.13253 13.6347 8.32636 13.4155 8.37148L13.3179 8.38207H12.7159C12.45 8.38207 12.2339 8.16598 12.2339 7.9C12.2339 7.63402 12.45 7.41794 12.7159 7.41794H13.3179ZM3.70721 3.70721C3.87187 3.54256 4.12577 3.52125 4.31273 3.6449L4.38798 3.70721L4.80891 4.12814L4.87122 4.20339C4.99467 4.39032 4.97348 4.64433 4.80891 4.80891C4.64433 4.97348 4.39032 4.99467 4.20339 4.87122L4.12814 4.80891L3.70721 4.38798L3.6449 4.31273C3.52125 4.12577 3.54256 3.87187 3.70721 3.70721ZM11.4873 3.6449C11.6742 3.52125 11.9281 3.54256 12.0928 3.70721C12.2809 3.89529 12.2809 4.19991 12.0928 4.38798L11.6719 4.80891L11.5966 4.87122C11.4097 4.99467 11.1557 4.97348 10.9911 4.80891C10.803 4.62083 10.803 4.31621 10.9911 4.12814L11.412 3.70721L11.4873 3.6449ZM7.41794 3.08406V2.48206C7.41794 2.21609 7.63402 2 7.9 2C8.16598 2 8.38206 2.21609 8.38206 2.48206V3.08406C8.38206 3.35003 8.16598 3.56612 7.9 3.56612C7.63402 3.56612 7.41794 3.35003 7.41794 3.08406Z" fill="currentColor"/>
<path d="M11.0299 10.91C11.0299 10.878 11.0172 10.8479 10.9946 10.8253C10.972 10.8027 10.9419 10.79 10.91 10.79H4.89004C4.8581 10.79 4.82796 10.8027 4.80538 10.8253C4.7828 10.8479 4.77011 10.878 4.77011 10.91V12.114C4.77011 12.1459 4.7828 12.176 4.80538 12.1986C4.82796 12.2212 4.8581 12.2339 4.89004 12.2339H10.91C10.9419 12.2339 10.972 12.2212 10.9946 12.1986C11.0172 12.176 11.0299 12.1459 11.0299 12.114V10.91ZM11.994 12.114C11.994 12.4013 11.8798 12.6773 11.6766 12.8806C11.4734 13.0838 11.1973 13.198 10.91 13.198H4.89004C4.60265 13.198 4.32665 13.0838 4.12344 12.8806C3.92022 12.6773 3.80598 12.4013 3.80598 12.114V10.91C3.80598 10.6226 3.92022 10.3466 4.12344 10.1434C4.32665 9.94015 4.60265 9.82591 4.89004 9.82591H10.91C11.1973 9.82591 11.4734 9.94015 11.6766 10.1434C11.8798 10.3466 11.994 10.6226 11.994 10.91V12.114Z" fill="currentColor"/>
</svg>
