<svg width="16" height="16" viewBox="0 0 16 16" fill="none" xmlns="http://www.w3.org/2000/svg">
<path d="M8.13282 4.66667C8.13282 3.48846 7.17821 2.53385 6 2.53385C4.82179 2.53385 3.86719 3.48846 3.86719 4.66667C3.86719 5.84487 4.82179 6.79948 6 6.79948C7.17821 6.79948 8.13282 5.84487 8.13282 4.66667ZM9.20052 4.66667C9.20052 6.43398 7.76731 7.86719 6 7.86719C4.23269 7.86719 2.79948 6.43398 2.79948 4.66667C2.79948 2.89935 4.23269 1.46614 6 1.46614C7.76731 1.46614 9.20052 2.89935 9.20052 4.66667Z" fill="currentColor"/>
<path d="M9.46615 14V12.6667C9.46615 11.4945 8.50545 10.5339 7.33334 10.5339H4.66667C3.49455 10.5339 2.53386 11.4945 2.53386 12.6667V14C2.53386 14.2945 2.29455 14.5339 2 14.5339C1.70545 14.5339 1.46615 14.2945 1.46615 14V12.6667C1.46615 10.9054 2.90545 9.46614 4.66667 9.46614H7.33334C9.09455 9.46614 10.5339 10.9054 10.5339 12.6667V14C10.5339 14.2945 10.2946 14.5339 10 14.5339C9.70545 14.5339 9.46615 14.2945 9.46615 14Z" fill="currentColor"/>
<path d="M13.707 5.55469C13.914 5.4182 14.1954 5.44023 14.3776 5.62239C14.5598 5.80456 14.5818 6.08598 14.4453 6.29297L14.3776 6.3776L13.4219 7.33333L14.3776 8.28906L14.4453 8.3737C14.5818 8.58069 14.5598 8.8621 14.3776 9.04427C14.1954 9.22643 13.914 9.24846 13.707 9.11198L13.6224 9.04427L12.6667 8.08854L11.7109 9.04427C11.5027 9.25255 11.164 9.25255 10.9557 9.04427C10.7475 8.83599 10.7475 8.49734 10.9557 8.28906L11.9115 7.33333L10.9557 6.3776L10.888 6.29297C10.7515 6.08598 10.7736 5.80456 10.9557 5.62239C11.1379 5.44023 11.4193 5.4182 11.6263 5.55469L11.7109 5.62239L12.6667 6.57812L13.6224 5.62239L13.707 5.55469Z" fill="currentColor"/>
</svg>
