<svg width="16" height="16" viewBox="0 0 16 16" fill="none" xmlns="http://www.w3.org/2000/svg">
<path d="M8.13281 4.66667C8.13281 3.48846 7.17821 2.53385 6 2.53385C4.82179 2.53385 3.86719 3.48846 3.86719 4.66667C3.86719 5.84487 4.82179 6.79948 6 6.79948C7.17821 6.79948 8.13281 5.84487 8.13281 4.66667ZM9.20052 4.66667C9.20052 6.43398 7.76731 7.86719 6 7.86719C4.23269 7.86719 2.79948 6.43398 2.79948 4.66667C2.79948 2.89935 4.23269 1.46614 6 1.46614C7.76731 1.46614 9.20052 2.89935 9.20052 4.66667Z" fill="currentColor"/>
<path d="M9.46615 14V12.6667C9.46615 12.1009 9.24253 11.5576 8.84245 11.1575C8.49241 10.8075 8.03259 10.5928 7.54427 10.5443L7.33333 10.5339H4.66667C4.10087 10.5339 3.55763 10.7575 3.15755 11.1575C2.75747 11.5576 2.53385 12.1009 2.53385 12.6667V14C2.53385 14.2945 2.29455 14.5339 2 14.5339C1.70545 14.5339 1.46615 14.2945 1.46615 14V12.6667C1.46615 11.818 1.80353 11.0038 2.40365 10.4036C3.00376 9.80353 3.81797 9.46614 4.66667 9.46614H7.33333L7.64974 9.48177C8.38227 9.55452 9.07127 9.87856 9.59635 10.4036C10.1965 11.0038 10.5339 11.818 10.5339 12.6667V14C10.5339 14.2945 10.2946 14.5339 10 14.5339C9.70545 14.5339 9.46615 14.2945 9.46615 14Z" fill="currentColor"/>
<path d="M12.1328 9.33333V7.86719H10.6667C10.3721 7.86719 10.1328 7.62788 10.1328 7.33333C10.1328 7.03878 10.3721 6.79948 10.6667 6.79948H12.1328V5.33333C12.1328 5.03878 12.3721 4.79948 12.6667 4.79948C12.9612 4.79948 13.2005 5.03878 13.2005 5.33333V6.79948H14.6667L14.7747 6.8112C15.0175 6.86117 15.2005 7.07582 15.2005 7.33333C15.2005 7.59084 15.0175 7.80549 14.7747 7.85547L14.6667 7.86719H13.2005V9.33333C13.2005 9.62788 12.9612 9.86719 12.6667 9.86719C12.3721 9.86719 12.1328 9.62788 12.1328 9.33333Z" fill="currentColor"/>
</svg>
