<svg width="16" height="16" viewBox="0 0 16 16" fill="none" xmlns="http://www.w3.org/2000/svg">
<path fill-rule="evenodd" clip-rule="evenodd" d="M7.06669 2.26666C5.88848 2.26666 4.93336 3.22179 4.93336 4.4C4.93336 5.5782 5.88848 6.53333 7.06669 6.53333C8.2449 6.53333 9.20002 5.57821 9.20002 4.4C9.20002 3.22179 8.2449 2.26666 7.06669 2.26666ZM3.86669 4.4C3.86669 2.63269 5.29938 1.2 7.06669 1.2C8.834 1.2 10.2667 2.63269 10.2667 4.4C10.2667 6.16731 8.834 7.6 7.06669 7.6C5.29938 7.6 3.86669 6.16731 3.86669 4.4Z" fill="currentColor"/>
<path fill-rule="evenodd" clip-rule="evenodd" d="M5.73336 10.2667C4.56124 10.2667 3.60002 11.2279 3.60002 12.4V13.7333C3.60002 14.0279 3.36124 14.2667 3.06669 14.2667C2.77214 14.2667 2.53336 14.0279 2.53336 13.7333V12.4C2.53336 10.6388 3.97214 9.2 5.73336 9.2H6.40002C6.69457 9.2 6.93336 9.43878 6.93336 9.73333C6.93336 10.0279 6.69457 10.2667 6.40002 10.2667H5.73336Z" fill="currentColor"/>
<path fill-rule="evenodd" clip-rule="evenodd" d="M10.0497 9.13526C10.0543 9.13414 10.0601 9.13333 10.0667 9.13333C10.0735 9.13333 10.0795 9.1342 10.0841 9.13538C10.218 9.65784 10.7336 10.0315 11.3352 9.92963C11.4937 9.91253 11.6089 9.8406 11.6542 9.81042C11.6607 9.80611 11.6669 9.80183 11.6729 9.79761C11.667 9.8076 11.6615 9.81779 11.6563 9.82815C11.4271 10.2866 11.4984 10.9788 12.0948 11.277C12.0984 11.2788 12.1019 11.2805 12.1055 11.2822C12.1194 11.2924 12.1352 11.303 12.1527 11.3136C12.1948 11.3388 12.2442 11.3615 12.3008 11.3774C12.3112 11.3803 12.3216 11.3829 12.3319 11.3852C12.3328 11.3894 12.3334 11.3944 12.3334 11.4C12.3334 11.4068 12.3325 11.4128 12.3313 11.4174C11.8089 11.5513 11.4351 12.0669 11.5371 12.6685C11.5542 12.827 11.6261 12.9422 11.6563 12.9875C11.6606 12.994 11.6649 13.0002 11.6691 13.0062C11.6591 13.0003 11.6489 12.9948 11.6385 12.9896C11.1801 12.7604 10.4879 12.8317 10.1897 13.4281C10.1879 13.4317 10.1862 13.4352 10.1845 13.4388C10.1743 13.4527 10.1636 13.4685 10.1531 13.486C10.1279 13.5281 10.1052 13.5775 10.0893 13.6341C10.0864 13.6445 10.0838 13.6549 10.0815 13.6652C10.0773 13.6661 10.0723 13.6667 10.0667 13.6667C10.0599 13.6667 10.0539 13.6658 10.0492 13.6646C9.9154 13.1422 9.3998 12.7685 8.79816 12.8704C8.63967 12.8875 8.52445 12.9594 8.47918 12.9896C8.47272 12.9939 8.46649 12.9982 8.46052 13.0024C8.46636 12.9924 8.47187 12.9822 8.47705 12.9718C8.70629 12.5134 8.635 11.8212 8.03854 11.523C8.035 11.5212 8.03144 11.5195 8.02787 11.5178C8.01398 11.5076 7.99823 11.497 7.98067 11.4864C7.93859 11.4612 7.88923 11.4385 7.83263 11.4226C7.82222 11.4197 7.81183 11.4171 7.80146 11.4148C7.80061 11.4106 7.80002 11.4056 7.80002 11.4C7.80002 11.3932 7.8009 11.3872 7.80207 11.3825C8.32453 11.2487 8.69824 10.7331 8.59633 10.1315C8.57922 9.97297 8.5073 9.85776 8.47712 9.81249C8.47282 9.80604 8.46854 9.79983 8.46433 9.79386C9.10512 10.1737 9.89424 9.80684 10.0497 9.13526ZM7.62272 10.4436C7.59253 10.4134 7.5661 10.3797 7.54398 10.3432L7.54545 10.338C7.54545 10.338 7.54638 10.332 7.54626 10.326C7.54615 10.3206 7.5455 10.3135 7.54371 10.3046C7.53683 10.2702 7.53336 10.2351 7.53336 10.2C7.53336 10.2415 7.5393 10.2767 7.54637 10.3041C7.54812 10.3108 7.54993 10.3171 7.55174 10.3228C7.555 10.3332 7.55826 10.3421 7.56109 10.3491C7.57226 10.3771 7.58387 10.3956 7.5896 10.4042C7.5959 10.4136 7.60142 10.4205 7.6055 10.4252L7.61299 10.4336L7.61752 10.4383L7.62009 10.441L7.62146 10.4423L7.62272 10.4436ZM7.45468 12.4268C6.96133 12.2632 6.73336 11.8047 6.73336 11.4C6.73336 10.9734 6.98674 10.4869 7.53734 10.3493C7.53734 10.3493 7.54154 10.3473 7.54306 10.3449L7.54398 10.3432C7.54159 10.3392 7.53925 10.3353 7.53696 10.3313C7.26651 9.85798 7.41459 9.33838 7.70502 9.03266C8.00491 8.71699 8.5326 8.55646 9.01393 8.87898C9.01458 8.8762 9.01525 8.87342 9.01595 8.87064C9.1536 8.32005 9.64007 8.06666 10.0667 8.06666C10.4933 8.06666 10.9798 8.32005 11.1174 8.87064C11.1174 8.87064 11.1194 8.87485 11.1218 8.87637L11.1235 8.87728C11.1274 8.87489 11.1314 8.87255 11.1354 8.87027C11.6087 8.59982 12.1283 8.7479 12.434 9.03833C12.7445 9.33324 12.9049 9.84845 12.6034 10.3232L12.6021 10.3285C12.618 10.3363 12.6331 10.3445 12.6473 10.3531C12.6585 10.3598 12.669 10.3666 12.6787 10.3732C13.172 10.5368 13.4 10.9953 13.4 11.4C13.4 11.8266 13.1466 12.3131 12.596 12.4507C12.596 12.4507 12.5918 12.4527 12.5903 12.4551L12.5894 12.4568C12.5918 12.4607 12.5941 12.4647 12.5964 12.4687C12.8669 12.942 12.7188 13.4616 12.4284 13.7673C12.1334 14.0778 11.6182 14.2382 11.1435 13.9367L11.1382 13.9354C11.1304 13.9513 11.1222 13.9664 11.1136 13.9806C11.1069 13.9918 11.1001 14.0023 11.0935 14.012C10.9299 14.5054 10.4713 14.7333 10.0667 14.7333C9.64007 14.7333 9.1536 14.4799 9.01595 13.9293C9.01595 13.9293 9.01398 13.9251 9.01162 13.9236L9.00988 13.9227C9.00594 13.9251 9.00197 13.9274 8.99796 13.9297C8.52467 14.2002 8.00507 14.0521 7.69936 13.7617C7.38892 13.4668 7.22853 12.9515 7.53001 12.4768L7.53133 12.4715C7.5154 12.4637 7.5003 12.4555 7.48604 12.4469C7.47485 12.4402 7.46439 12.4334 7.45468 12.4268Z" fill="currentColor"/>
<path fill-rule="evenodd" clip-rule="evenodd" d="M10.0667 11C9.84578 11 9.66669 11.1791 9.66669 11.4C9.66669 11.6209 9.84578 11.8 10.0667 11.8C10.2876 11.8 10.4667 11.6209 10.4667 11.4C10.4667 11.1791 10.2876 11 10.0667 11ZM8.60002 11.4C8.60002 10.59 9.25667 9.93333 10.0667 9.93333C10.8767 9.93333 11.5334 10.59 11.5334 11.4C11.5334 12.21 10.8767 12.8667 10.0667 12.8667C9.25667 12.8667 8.60002 12.21 8.60002 11.4Z" fill="currentColor"/>
</svg>
