<svg width="16" height="16" viewBox="0 0 16 16" fill="none" xmlns="http://www.w3.org/2000/svg">
<path d="M8.13281 4.66667C8.13281 3.48846 7.17821 2.53385 6 2.53385C4.82179 2.53385 3.86719 3.48846 3.86719 4.66667C3.86719 5.84487 4.82179 6.79948 6 6.79948C7.17821 6.79948 8.13281 5.84487 8.13281 4.66667ZM9.20052 4.66667C9.20052 6.43398 7.76731 7.86719 6 7.86719C4.23269 7.86719 2.79948 6.43398 2.79948 4.66667C2.79948 2.89935 4.23269 1.46614 6 1.46614C7.76731 1.46614 9.20052 2.89935 9.20052 4.66667Z" fill="currentColor"/>
<path d="M9.46614 14V12.6667C9.46614 11.4945 8.50545 10.5339 7.33333 10.5339H4.66667C3.49455 10.5339 2.53385 11.4945 2.53385 12.6667V14C2.53385 14.2945 2.29455 14.5339 2 14.5339C1.70545 14.5339 1.46614 14.2945 1.46614 14V12.6667C1.46614 10.9054 2.90545 9.46614 4.66667 9.46614H7.33333C9.09455 9.46614 10.5339 10.9054 10.5339 12.6667V14C10.5339 14.2945 10.2945 14.5339 10 14.5339C9.70545 14.5339 9.46614 14.2945 9.46614 14Z" fill="currentColor"/>
<path d="M14.3737 5.55469C14.5807 5.4182 14.8621 5.44023 15.0443 5.62239C15.2264 5.80456 15.2485 6.08598 15.112 6.29297L15.0443 6.3776L12.3776 9.04427C12.1954 9.22643 11.914 9.24846 11.707 9.11198L11.6224 9.04427L10.2891 7.71094L10.2214 7.6263C10.0849 7.41931 10.1069 7.13789 10.2891 6.95573C10.4712 6.77356 10.7526 6.75153 10.9596 6.88802L11.0443 6.95573L12 7.91146L14.2891 5.62239L14.3737 5.55469Z" fill="currentColor"/>
</svg>
