<svg width="16" height="16" viewBox="0 0 16 16" fill="none" xmlns="http://www.w3.org/2000/svg">
<path d="M9.46614 6.66667C9.46614 6.27768 9.31151 5.90526 9.03645 5.63021C8.7614 5.35516 8.38898 5.20052 7.99999 5.20052C7.61101 5.20052 7.23859 5.35516 6.96354 5.63021C6.68848 5.90526 6.53385 6.27768 6.53385 6.66667C6.53385 7.05565 6.68848 7.42807 6.96354 7.70313C7.23859 7.97818 7.61101 8.13281 7.99999 8.13281L8.14453 8.1263C8.48044 8.09305 8.79568 7.9439 9.03645 7.70313C9.31151 7.42807 9.46614 7.05565 9.46614 6.66667ZM10.5338 6.66667C10.5338 7.33855 10.2668 7.98324 9.79166 8.45833C9.37587 8.87413 8.83007 9.12999 8.24999 9.1875L7.99999 9.20052C7.32811 9.20052 6.68342 8.93343 6.20833 8.45833C5.73324 7.98324 5.46614 7.33855 5.46614 6.66667C5.46614 5.99479 5.73324 5.35009 6.20833 4.875C6.68342 4.39991 7.32811 4.13281 7.99999 4.13281C8.67188 4.13281 9.31657 4.39991 9.79166 4.875C10.2668 5.35009 10.5338 5.99479 10.5338 6.66667Z" fill="currentColor"/>
<path d="M13.4661 8C13.4661 5.59619 13.1536 4.30722 12.4232 3.57682C11.6928 2.84643 10.4038 2.53385 7.99999 2.53385C5.59618 2.53385 4.30721 2.84643 3.57682 3.57682C2.84642 4.30722 2.53385 5.59619 2.53385 8C2.53385 10.4038 2.84642 11.6928 3.57682 12.4232C4.30721 13.1536 5.59618 13.4661 7.99999 13.4661C10.4038 13.4661 11.6928 13.1536 12.4232 12.4232C13.1536 11.6928 13.4661 10.4038 13.4661 8ZM14.5338 8C14.5338 10.3962 14.2467 12.1075 13.1771 13.1771C12.1075 14.2467 10.3962 14.5339 7.99999 14.5339C5.60381 14.5339 3.89252 14.2467 2.82291 13.1771C1.75331 12.1075 1.46614 10.3962 1.46614 8C1.46614 5.60381 1.75331 3.89252 2.82291 2.82292C3.89252 1.75331 5.60381 1.46615 7.99999 1.46615C10.3962 1.46615 12.1075 1.75331 13.1771 2.82292C14.2467 3.89252 14.5338 5.60381 14.5338 8Z" fill="currentColor"/>
<path d="M11.4661 13.3672V13.3333C11.4661 12.7675 11.2425 12.2243 10.8424 11.8242C10.4424 11.4241 9.89912 11.2005 9.33333 11.2005H6.66666C6.10087 11.2005 5.55762 11.4241 5.15755 11.8242C4.75747 12.2243 4.53385 12.7675 4.53385 13.3333V13.3672C4.53357 13.6615 4.29437 13.8997 3.99999 13.8997C3.70562 13.8997 3.46642 13.6615 3.46614 13.3672V13.3333C3.46614 12.4846 3.80352 11.6704 4.40364 11.0703C5.00376 10.4702 5.81797 10.1328 6.66666 10.1328H9.33333C10.182 10.1328 10.9962 10.4702 11.5963 11.0703C12.1965 11.6704 12.5338 12.4846 12.5338 13.3333V13.3672C12.5336 13.6615 12.2944 13.8997 12 13.8997C11.7056 13.8997 11.4664 13.6615 11.4661 13.3672Z" fill="currentColor"/>
</svg>
