<svg width="16" height="16" viewBox="0 0 16 16" fill="none" xmlns="http://www.w3.org/2000/svg">
<path d="M5.29305 4.92953C5.53943 4.85474 5.79843 4.96692 5.91675 5.18474L5.95842 5.285L6.04956 5.52979C6.29661 6.08508 6.77208 6.51459 7.35295 6.69906C7.63371 6.78815 7.78969 7.08888 7.7006 7.36964C7.61148 7.65009 7.31188 7.80473 7.03133 7.71599C6.09411 7.4186 5.34443 6.7006 5.00139 5.7824L4.93758 5.5949L4.91675 5.48943C4.89352 5.24249 5.04654 5.00466 5.29305 4.92953ZM6.46102 1.86052C7.8803 1.07465 9.70346 1.48159 10.6407 2.85141C11.6374 4.30892 11.2729 6.29466 9.8243 7.30193L9.73055 7.35401C9.50267 7.45221 9.22944 7.38056 9.08211 7.16912C8.91399 6.92734 8.97323 6.59382 9.21493 6.42563L9.3881 6.29281C10.2096 5.58942 10.3843 4.36659 9.7592 3.45297C9.13641 2.54322 7.92268 2.27167 6.97795 2.79412L6.79305 2.91C6.57472 3.0622 6.39246 3.24005 6.2592 3.43995C6.09573 3.68476 5.76459 3.7517 5.51961 3.58839C5.27472 3.42505 5.20939 3.09382 5.37248 2.8488C5.59118 2.52075 5.87408 2.25078 6.18368 2.035L6.46102 1.86052Z" fill="currentColor"/>
<path d="M3.46615 14V12.6641C3.46615 10.8975 4.89751 9.46615 6.66406 9.46615H9.32812C9.56064 9.46616 9.79561 9.4935 10.0221 9.54297L10.2448 9.60026L10.3451 9.64063C10.5643 9.75619 10.6798 10.0131 10.6081 10.2604C10.5362 10.508 10.3007 10.6633 10.0534 10.6432L9.94792 10.6237L9.79297 10.5846C9.63777 10.5509 9.4796 10.5339 9.32812 10.5339H6.66406C5.48661 10.5339 4.53385 11.4866 4.53385 12.6641V14C4.53385 14.2946 4.29455 14.5339 4 14.5339C3.70545 14.5339 3.46615 14.2946 3.46615 14ZM11.4661 14V12.6641C11.4661 12.507 11.4493 12.3517 11.4154 12.1979L11.3763 12.0443L11.3568 11.9388C11.3366 11.6914 11.4919 11.456 11.7396 11.3841C11.987 11.3124 12.2438 11.4278 12.3594 11.6471L12.3997 11.7474L12.457 11.9688C12.5064 12.193 12.5339 12.4251 12.5339 12.6641V14C12.5339 14.2946 12.2946 14.5339 12 14.5339C11.7054 14.5339 11.4661 14.2946 11.4661 14Z" fill="currentColor"/>
<path d="M1.6224 1.6224C1.80456 1.44023 2.08598 1.4182 2.29297 1.55469L2.3776 1.6224L14.3776 13.6224L14.4453 13.707C14.5818 13.914 14.5598 14.1954 14.3776 14.3776C14.1954 14.5598 13.914 14.5818 13.707 14.4453L13.6224 14.3776L1.6224 2.37761L1.55469 2.29297C1.4182 2.08598 1.44023 1.80456 1.6224 1.6224Z" fill="currentColor"/>
</svg>
