<svg width="16" height="16" viewBox="0 0 16 16" fill="none" xmlns="http://www.w3.org/2000/svg">
<path d="M8.65625 3.98958C8.60773 3.50126 8.393 3.04144 8.04297 2.69141C7.69293 2.34137 7.23311 2.12664 6.74479 2.07812L6.53385 2.06771C5.96806 2.06771 5.42482 2.29133 5.02474 2.69141C4.62466 3.09148 4.40104 3.63473 4.40104 4.20052L4.41146 4.41146C4.45997 4.89978 4.6747 5.3596 5.02474 5.70964C5.42482 6.10971 5.96806 6.33333 6.53385 6.33333L6.74479 6.32292C7.23311 6.2744 7.69293 6.05967 8.04297 5.70964C8.44305 5.30956 8.66667 4.76632 8.66667 4.20052L8.65625 3.98958ZM9.71875 4.51693C9.646 5.24945 9.32196 5.93846 8.79687 6.46354C8.27179 6.98863 7.58279 7.31267 6.85026 7.38542L6.53385 7.40104C5.68516 7.40104 4.87095 7.06366 4.27083 6.46354C3.74575 5.93846 3.42171 5.24945 3.34896 4.51693L3.33333 4.20052C3.33333 3.35183 3.67072 2.53762 4.27083 1.9375C4.87095 1.33738 5.68516 1 6.53385 1L6.85026 1.01562C7.58279 1.08837 8.27179 1.41241 8.79687 1.9375C9.39699 2.53762 9.73437 3.35183 9.73437 4.20052L9.71875 4.51693Z" fill="currentColor"/>
<path d="M2 13.5339V12.2005C2 11.3518 2.33738 10.5376 2.9375 9.9375C3.53762 9.33738 4.35183 9 5.20052 9H5.53385L5.64193 9.01172C5.88464 9.06169 6.06771 9.27635 6.06771 9.53385C6.06771 9.79136 5.88464 10.006 5.64193 10.056L5.53385 10.0677H5.20052C4.63473 10.0677 4.09148 10.2913 3.69141 10.6914C3.29133 11.0915 3.06771 11.6347 3.06771 12.2005V13.5339C3.06771 13.8284 2.82841 14.0677 2.53385 14.0677C2.2393 14.0677 2 13.8284 2 13.5339Z" fill="currentColor"/>
<path d="M10.5103 8.34084C10.583 8.35097 10.654 8.37112 10.7212 8.40073L10.8189 8.45282L10.9087 8.51662C10.9652 8.56358 11.0143 8.61876 11.0558 8.67938L11.1118 8.77443L11.7121 9.98537L13.0532 10.1807L13.1613 10.2041C13.232 10.2246 13.2995 10.2548 13.3618 10.294L13.4504 10.3591L13.5298 10.4359C13.5789 10.4905 13.6212 10.5509 13.6535 10.6169L13.6939 10.7197L13.7212 10.8265C13.7406 10.935 13.7372 11.0468 13.7108 11.1546C13.6755 11.2984 13.6005 11.4301 13.4946 11.5335L13.4933 11.5348L12.5233 12.4763L12.7524 13.8057L12.7629 13.9164C12.7663 14.0264 12.7473 14.1365 12.7056 14.2393C12.6497 14.3767 12.5561 14.496 12.436 14.583C12.316 14.6701 12.1738 14.7224 12.0259 14.7328C11.8779 14.7431 11.7299 14.7111 11.5988 14.6416L10.4009 14.0127L9.20036 14.6429L9.19906 14.6442C9.06852 14.7122 8.92135 14.7421 8.77458 14.7315C8.62773 14.7208 8.48643 14.6692 8.36703 14.583C8.24759 14.4968 8.15391 14.3792 8.0975 14.2432C8.04108 14.1071 8.02331 13.9576 8.04672 13.8122L8.04802 13.807L8.27718 12.4763L7.30713 11.5348L7.30843 11.5335C7.20205 11.4304 7.12541 11.2998 7.08968 11.1559C7.05405 11.012 7.05938 10.8607 7.10531 10.7197L7.14698 10.6169C7.19566 10.5174 7.26579 10.4294 7.3514 10.3578L7.44125 10.2927C7.53418 10.2349 7.63813 10.1963 7.74724 10.1807L9.08838 9.98537L9.68864 8.77573L9.74463 8.67938C9.80679 8.58854 9.88741 8.51125 9.98161 8.45282L10.0793 8.40073C10.18 8.35624 10.2899 8.33302 10.4009 8.33302L10.5103 8.34084ZM9.92041 10.7106C9.84262 10.8676 9.69277 10.9771 9.51937 11.0023L8.44906 11.1559L9.2225 11.9072L9.30323 12.0088C9.37121 12.1183 9.3984 12.25 9.37614 12.3799L9.19255 13.4411L10.1535 12.9398L10.2746 12.8942C10.3991 12.8639 10.5322 12.879 10.6483 12.9398L11.6066 13.4411L11.4243 12.3799C11.3947 12.2066 11.4532 12.0297 11.5793 11.9072L12.3501 11.1559L11.2824 11.0023C11.1522 10.9834 11.0348 10.9168 10.9517 10.8187L10.88 10.7106L10.3996 9.74058L9.92041 10.7106Z" fill="currentColor"/>
</svg>
