<svg width="16" height="16" viewBox="0 0 16 16" fill="none" xmlns="http://www.w3.org/2000/svg">
<path fill-rule="evenodd" clip-rule="evenodd" d="M7.4 2.53333C6.51634 2.53333 5.8 3.48846 5.8 4.66667C5.8 5.84487 6.51634 6.8 7.4 6.8C8.28366 6.8 9 5.84487 9 4.66667C9 3.48846 8.28366 2.53333 7.4 2.53333ZM5 4.66667C5 2.89936 6.07452 1.46667 7.4 1.46667C8.72548 1.46667 9.8 2.89936 9.8 4.66667C9.8 6.43398 8.72548 7.86667 7.4 7.86667C6.07452 7.86667 5 6.43398 5 4.66667Z" fill="currentColor"/>
<path fill-rule="evenodd" clip-rule="evenodd" d="M6.4 10.5333C5.52091 10.5333 4.8 11.4946 4.8 12.6667V14C4.8 14.2946 4.62091 14.5333 4.4 14.5333C4.17909 14.5333 4 14.2946 4 14V12.6667C4 10.9054 5.07909 9.46667 6.4 9.46667H6.9C7.12091 9.46667 7.3 9.70545 7.3 10C7.3 10.2946 7.12091 10.5333 6.9 10.5333H6.4Z" fill="currentColor"/>
<path fill-rule="evenodd" clip-rule="evenodd" d="M9.65 10.5333C9.18056 10.5333 8.8 11.0407 8.8 11.6667C8.8 12.2926 9.18056 12.8 9.65 12.8C10.1194 12.8 10.5 12.2926 10.5 11.6667C10.5 11.0407 10.1194 10.5333 9.65 10.5333ZM8 11.6667C8 10.4516 8.73873 9.46667 9.65 9.46667C10.5613 9.46667 11.3 10.4516 11.3 11.6667C11.3 12.8817 10.5613 13.8667 9.65 13.8667C8.73873 13.8667 8 12.8817 8 11.6667Z" fill="currentColor"/>
<path fill-rule="evenodd" clip-rule="evenodd" d="M10.3672 12.6229C10.5234 12.4146 10.7766 12.4146 10.9328 12.6229L12.1828 14.2895C12.3391 14.4978 12.3391 14.8355 12.1828 15.0438C12.0266 15.2521 11.7734 15.2521 11.6172 15.0438L10.3672 13.3771C10.2109 13.1688 10.2109 12.8312 10.3672 12.6229Z" fill="currentColor"/>
</svg>
