<svg width="16" height="16" viewBox="0 0 16 16" fill="none" xmlns="http://www.w3.org/2000/svg">
<path d="M9.01412 4.82973C8.97028 4.36752 8.77627 3.93229 8.46 3.60097C8.14373 3.26965 7.72827 3.0664 7.28706 3.02048L7.09647 3.01062C6.58526 3.01062 6.09442 3.22228 5.73294 3.60097C5.37146 3.97965 5.16941 4.49385 5.16941 5.02939L5.17882 5.22905C5.22266 5.69126 5.41667 6.12649 5.73294 6.45781C6.09442 6.8365 6.58526 7.04816 7.09647 7.04816L7.28706 7.0383C7.72827 6.99238 8.14373 6.78913 8.46 6.45781C8.82148 6.07913 9.02353 5.56493 9.02353 5.02939L9.01412 4.82973ZM9.97412 5.32888C9.90839 6.02224 9.61561 6.6744 9.14118 7.17141C8.66675 7.66842 8.04421 7.97513 7.38235 8.04399L7.09647 8.05878C6.32965 8.05878 5.59399 7.73943 5.05176 7.17141C4.57733 6.6744 4.28455 6.02224 4.21882 5.32888L4.20471 5.02939C4.20471 4.22608 4.50954 3.4554 5.05176 2.88737C5.59399 2.31934 6.32965 2 7.09647 2L7.38235 2.01479C8.04421 2.08365 8.66675 2.39036 9.14118 2.88737C9.6834 3.4554 9.98823 4.22608 9.98823 5.02939L9.97412 5.32888Z" fill="currentColor"/>
<path d="M3 13.8637V12.6016C3 11.7983 3.30484 11.0276 3.84706 10.4596C4.38928 9.89158 5.12495 9.57224 5.89176 9.57224H8L8.09765 9.58333C8.31695 9.63064 8.48235 9.83381 8.48235 10.0775C8.48235 10.3213 8.31695 10.5245 8.09765 10.5718L8 10.5829H5.89176C5.38055 10.5829 4.88972 10.7945 4.52824 11.1732C4.16675 11.5519 3.96471 12.0661 3.96471 12.6016V13.8637C3.96471 14.1425 3.74849 14.369 3.48235 14.369C3.21622 14.369 3 14.1425 3 13.8637Z" fill="currentColor"/>
<path d="M9.62588 14.4947V11.3396C9.62588 11.0608 9.8421 10.8343 10.1082 10.8343C10.3744 10.8343 10.5906 11.0608 10.5906 11.3396V14.4947C10.5906 14.7735 10.3744 15 10.1082 15C9.8421 15 9.62588 14.7735 9.62588 14.4947Z" fill="currentColor"/>
<path d="M12.0353 14.4947V11.3396C12.0353 11.0608 12.2515 10.8343 12.5176 10.8343C12.7838 10.8343 13 11.0608 13 11.3396V14.4947C13 14.7735 12.7838 15 12.5176 15C12.2515 15 12.0353 14.7735 12.0353 14.4947Z" fill="currentColor"/>
</svg>
