<svg width="16" height="16" viewBox="0 0 16 16" fill="none" xmlns="http://www.w3.org/2000/svg">
<path fill-rule="evenodd" clip-rule="evenodd" d="M8.00001 2.53333C6.8218 2.53333 5.86667 3.48846 5.86667 4.66667C5.86667 5.84487 6.8218 6.8 8.00001 6.8C9.17822 6.8 10.1333 5.84487 10.1333 4.66667C10.1333 3.48846 9.17822 2.53333 8.00001 2.53333ZM4.80001 4.66667C4.80001 2.89936 6.2327 1.46667 8.00001 1.46667C9.76732 1.46667 11.2 2.89936 11.2 4.66667C11.2 6.43398 9.76732 7.86667 8.00001 7.86667C6.2327 7.86667 4.80001 6.43398 4.80001 4.66667Z" fill="currentColor"/>
<path fill-rule="evenodd" clip-rule="evenodd" d="M6.66667 10.5333C5.49456 10.5333 4.53334 11.4946 4.53334 12.6667V14C4.53334 14.2946 4.29456 14.5333 4.00001 14.5333C3.70546 14.5333 3.46667 14.2946 3.46667 14V12.6667C3.46667 10.9054 4.90546 9.46667 6.66667 9.46667H9.33334C11.0946 9.46667 12.5333 10.9054 12.5333 12.6667V14C12.5333 14.2946 12.2946 14.5333 12 14.5333C11.7055 14.5333 11.4667 14.2946 11.4667 14V12.6667C11.4667 11.4946 10.5055 10.5333 9.33334 10.5333H6.66667Z" fill="currentColor"/>
</svg>
