<svg width="16" height="16" viewBox="0 0 16 16" fill="none" xmlns="http://www.w3.org/2000/svg">
<path fill-rule="evenodd" clip-rule="evenodd" d="M8.00001 2.53333C4.98085 2.53333 2.53334 4.98084 2.53334 8C2.53334 11.0192 4.98085 13.4667 8.00001 13.4667C11.0192 13.4667 13.4667 11.0192 13.4667 8C13.4667 4.98084 11.0192 2.53333 8.00001 2.53333ZM1.46667 8C1.46667 4.39174 4.39175 1.46667 8.00001 1.46667C11.6083 1.46667 14.5333 4.39174 14.5333 8C14.5333 11.6083 11.6083 14.5333 8.00001 14.5333C4.39175 14.5333 1.46667 11.6083 1.46667 8Z" fill="currentColor"/>
<path fill-rule="evenodd" clip-rule="evenodd" d="M8.00001 5.2C7.18999 5.2 6.53334 5.85665 6.53334 6.66667C6.53334 7.47668 7.18999 8.13333 8.00001 8.13333C8.81003 8.13333 9.46667 7.47668 9.46667 6.66667C9.46667 5.85665 8.81003 5.2 8.00001 5.2ZM5.46667 6.66667C5.46667 5.26755 6.60089 4.13333 8.00001 4.13333C9.39913 4.13333 10.5333 5.26755 10.5333 6.66667C10.5333 8.06579 9.39913 9.2 8.00001 9.2C6.60089 9.2 5.46667 8.06579 5.46667 6.66667Z" fill="currentColor"/>
<path fill-rule="evenodd" clip-rule="evenodd" d="M6.66668 11.2C5.71094 11.2 4.90949 11.8377 4.6424 12.6924C4.55454 12.9736 4.25541 13.1302 3.97426 13.0424C3.69312 12.9545 3.53643 12.6554 3.62429 12.3743C4.02386 11.0956 5.22241 10.1333 6.66668 10.1333H9.33334C10.784 10.1333 11.9823 11.103 12.3783 12.4495C12.4614 12.7321 12.2997 13.0285 12.0172 13.1117C11.7346 13.1948 11.4381 13.0331 11.355 12.7505C11.0844 11.8303 10.2826 11.2 9.33334 11.2H6.66668Z" fill="currentColor"/>
</svg>
