<svg width="16" height="16" viewBox="0 0 16 16" fill="none" xmlns="http://www.w3.org/2000/svg">
<path d="M10.1224 4.45573C10.0739 3.96741 9.85916 3.50759 9.50912 3.15755C9.15909 2.80752 8.69927 2.59279 8.21095 2.54427L8.00001 2.53385C7.43422 2.53385 6.89097 2.75748 6.4909 3.15755C6.09082 3.55763 5.8672 4.10087 5.8672 4.66667L5.87761 4.8776C5.92613 5.36593 6.14086 5.82575 6.4909 6.17578C6.89097 6.57586 7.43422 6.79948 8.00001 6.79948L8.21095 6.78906C8.69927 6.74055 9.15909 6.52582 9.50912 6.17578C9.9092 5.7757 10.1328 5.23246 10.1328 4.66667L10.1224 4.45573ZM11.1849 4.98307C11.1122 5.7156 10.7881 6.4046 10.263 6.92969C9.73795 7.45477 9.04894 7.77881 8.31642 7.85156L8.00001 7.86719C7.15132 7.86719 6.33711 7.5298 5.73699 6.92969C5.2119 6.4046 4.88786 5.7156 4.81511 4.98307L4.79949 4.66667C4.79949 3.81797 5.13687 3.00376 5.73699 2.40365C6.33711 1.80353 7.15132 1.46615 8.00001 1.46615L8.31642 1.48177C9.04894 1.55452 9.73795 1.87856 10.263 2.40365C10.8631 3.00376 11.2005 3.81797 11.2005 4.66667L11.1849 4.98307Z" fill="currentColor"/>
<path d="M3.46616 14V12.6667C3.46616 11.818 3.80354 11.0038 4.40366 10.4036C5.00377 9.80353 5.81798 9.46615 6.66668 9.46615H9.00001L9.10808 9.47786C9.3508 9.52784 9.53386 9.74249 9.53386 10C9.53386 10.2575 9.3508 10.4722 9.10808 10.5221L9.00001 10.5339H6.66668C6.10088 10.5339 5.55764 10.7575 5.15756 11.1576C4.75748 11.5576 4.53386 12.1009 4.53386 12.6667V14C4.53386 14.2946 4.29456 14.5339 4.00001 14.5339C3.70546 14.5339 3.46616 14.2946 3.46616 14Z" fill="currentColor"/>
<path d="M12.1328 14.6732V14.6667C12.1328 14.3721 12.3721 14.1328 12.6667 14.1328C12.9612 14.1328 13.2005 14.3721 13.2005 14.6667V14.6732C13.2005 14.9677 12.9612 15.207 12.6667 15.207C12.3721 15.207 12.1328 14.9677 12.1328 14.6732Z" fill="currentColor"/>
<path d="M12.3112 9.50276C12.6702 9.43107 13.0411 9.46755 13.3776 9.60563L13.5195 9.67073L13.5208 9.67203L13.6563 9.74885C13.9644 9.94239 14.21 10.223 14.362 10.5561C14.5354 10.9363 14.5772 11.3635 14.4792 11.7697C14.3809 12.1762 14.1486 12.5391 13.8203 12.7983C13.4922 13.0574 13.0861 13.198 12.668 13.1994L12.5612 13.189C12.3179 13.1401 12.1336 12.9259 12.1328 12.6681C12.132 12.3737 12.3709 12.1339 12.6654 12.133L12.7982 12.1213C12.9292 12.0987 13.0534 12.0443 13.1589 11.9611C13.2997 11.8499 13.3992 11.6941 13.4414 11.5197C13.4836 11.3453 13.4663 11.1621 13.3919 10.9989C13.3176 10.8359 13.1915 10.7012 13.0326 10.6186C12.8746 10.5378 12.6936 10.5135 12.5195 10.5483C12.3457 10.5832 12.1889 10.6762 12.0742 10.8114L11.9961 10.8869C11.8011 11.0403 11.5184 11.0404 11.3216 10.8739C11.0973 10.6835 11.0691 10.3472 11.2591 10.1226L11.3659 10.008C11.6235 9.75114 11.9523 9.57458 12.3112 9.50276Z" fill="currentColor"/>
</svg>
