<svg width="16" height="16" viewBox="0 0 16 16" fill="none" xmlns="http://www.w3.org/2000/svg">
<path d="M8.79948 6C8.79948 5.78783 8.71513 5.58492 8.5651 5.4349C8.45248 5.32227 8.31018 5.24683 8.15625 5.21615L8 5.20052C7.78783 5.20052 7.58493 5.28487 7.4349 5.4349C7.28487 5.58492 7.20052 5.78783 7.20052 6C7.20052 6.21217 7.28487 6.41507 7.4349 6.5651C7.58493 6.71513 7.78783 6.79948 8 6.79948C8.21217 6.79948 8.41508 6.71513 8.5651 6.5651C8.71513 6.41507 8.79948 6.21217 8.79948 6ZM9.86719 6C9.86719 6.49507 9.67038 6.97024 9.32031 7.32031C8.97025 7.67038 8.49507 7.86719 8 7.86719C7.50493 7.86719 7.02976 7.67038 6.67969 7.32031C6.32962 6.97024 6.13281 6.49507 6.13281 6C6.13281 5.50493 6.32962 5.02976 6.67969 4.67969C7.02976 4.32962 7.50493 4.13281 8 4.13281L8.1849 4.14193C8.61209 4.18442 9.01409 4.37346 9.32031 4.67969C9.67038 5.02976 9.86719 5.50493 9.86719 6Z" fill="currentColor"/>
<path d="M2.13281 5.33333V4C2.13281 3.50493 2.32962 3.02976 2.67969 2.67969C3.02976 2.32962 3.50493 2.13281 4 2.13281H5.33333L5.44141 2.14453C5.68412 2.19451 5.86719 2.40916 5.86719 2.66667C5.86719 2.92417 5.68412 3.13883 5.44141 3.1888L5.33333 3.20052H4C3.78783 3.20052 3.58492 3.28487 3.4349 3.4349C3.28487 3.58492 3.20052 3.78783 3.20052 4V5.33333C3.20052 5.62789 2.96122 5.86719 2.66667 5.86719C2.37211 5.86719 2.13281 5.62789 2.13281 5.33333Z" fill="currentColor"/>
<path d="M2.13281 12V10.6667C2.13281 10.3721 2.37211 10.1328 2.66667 10.1328C2.96122 10.1328 3.20052 10.3721 3.20052 10.6667V12L3.21615 12.1562C3.24683 12.3102 3.32227 12.4525 3.4349 12.5651C3.58493 12.7151 3.78783 12.7995 4 12.7995H5.33333L5.44141 12.8112C5.68412 12.8612 5.86719 13.0758 5.86719 13.3333C5.86719 13.5908 5.68412 13.8055 5.44141 13.8555L5.33333 13.8672H4C3.50493 13.8672 3.02976 13.6704 2.67969 13.3203C2.37346 13.0141 2.18442 12.6121 2.14193 12.1849L2.13281 12Z" fill="currentColor"/>
<path d="M12.7995 5.33333V4C12.7995 3.78783 12.7151 3.58493 12.5651 3.4349C12.4525 3.32227 12.3102 3.24683 12.1562 3.21615L12 3.20052H10.6667C10.3721 3.20052 10.1328 2.96122 10.1328 2.66667C10.1328 2.37211 10.3721 2.13281 10.6667 2.13281H12L12.1849 2.14193C12.6121 2.18442 13.0141 2.37346 13.3203 2.67969C13.6704 3.02976 13.8672 3.50493 13.8672 4V5.33333C13.8672 5.62789 13.6279 5.86719 13.3333 5.86719C13.0388 5.86719 12.7995 5.62789 12.7995 5.33333Z" fill="currentColor"/>
<path d="M12.7995 12V10.6667C12.7995 10.3721 13.0388 10.1328 13.3333 10.1328C13.6279 10.1328 13.8672 10.3721 13.8672 10.6667V12C13.8672 12.4951 13.6704 12.9702 13.3203 13.3203C12.9702 13.6704 12.4951 13.8672 12 13.8672H10.6667C10.3721 13.8672 10.1328 13.6279 10.1328 13.3333C10.1328 13.0388 10.3721 12.7995 10.6667 12.7995H12C12.2122 12.7995 12.4151 12.7151 12.5651 12.5651C12.7151 12.4151 12.7995 12.2122 12.7995 12Z" fill="currentColor"/>
<path d="M10.1328 10.6667C10.1328 10.4545 10.0485 10.2516 9.89844 10.1016C9.74841 9.95153 9.54551 9.86719 9.33333 9.86719H6.66667C6.45449 9.86719 6.25159 9.95153 6.10156 10.1016C5.95153 10.2516 5.86719 10.4545 5.86719 10.6667C5.86719 10.9612 5.62789 11.2005 5.33333 11.2005C5.03878 11.2005 4.79948 10.9612 4.79948 10.6667C4.79948 10.1716 4.99629 9.69642 5.34635 9.34635C5.69642 8.99629 6.1716 8.79948 6.66667 8.79948H9.33333C9.8284 8.79948 10.3036 8.99629 10.6536 9.34635C11.0037 9.69642 11.2005 10.1716 11.2005 10.6667C11.2005 10.9612 10.9612 11.2005 10.6667 11.2005C10.3721 11.2005 10.1328 10.9612 10.1328 10.6667Z" fill="currentColor"/>
</svg>
