<svg width="16" height="16" viewBox="0 0 16 16" fill="none" xmlns="http://www.w3.org/2000/svg">
<path d="M8.13282 4.66667C8.13282 3.48846 7.17821 2.53385 6 2.53385C4.82179 2.53385 3.86719 3.48846 3.86719 4.66667C3.86719 5.84487 4.82179 6.79948 6 6.79948C7.17821 6.79948 8.13282 5.84487 8.13282 4.66667ZM9.20052 4.66667C9.20052 6.43398 7.76731 7.86719 6 7.86719C4.23269 7.86719 2.79948 6.43398 2.79948 4.66667C2.79948 2.89935 4.23269 1.46614 6 1.46614C7.76731 1.46614 9.20052 2.89935 9.20052 4.66667Z" fill="currentColor"/>
<path d="M9.46615 14V12.6667C9.46615 11.4945 8.50545 10.5339 7.33334 10.5339H4.66667C3.49455 10.5339 2.53386 11.4945 2.53386 12.6667V14C2.53386 14.2945 2.29455 14.5339 2 14.5339C1.70545 14.5339 1.46615 14.2945 1.46615 14V12.6667C1.46615 10.9054 2.90545 9.46614 4.66667 9.46614H7.33334C9.09455 9.46614 10.5339 10.9054 10.5339 12.6667V14C10.5339 14.2945 10.2946 14.5339 10 14.5339C9.70545 14.5339 9.46615 14.2945 9.46615 14Z" fill="currentColor"/>
<path d="M12.2661 6.8V4.8C12.2661 4.50545 12.5055 4.26614 12.8 4.26614C13.0946 4.26614 13.3339 4.50545 13.3339 4.8V6.8C13.3339 7.09455 13.0946 7.33385 12.8 7.33385C12.5055 7.33385 12.2661 7.09455 12.2661 6.8Z" fill="currentColor"/>
<path d="M12.8 9.7333C13.2418 9.7333 13.6 9.37513 13.6 8.9333C13.6 8.49147 13.2418 8.1333 12.8 8.1333C12.3582 8.1333 12 8.49147 12 8.9333C12 9.37513 12.3582 9.7333 12.8 9.7333Z" fill="currentColor"/>
</svg>
