<svg width="16" height="16" viewBox="0 0 16 16" fill="none" xmlns="http://www.w3.org/2000/svg">
<path fill-rule="evenodd" clip-rule="evenodd" d="M6 2.53333C4.82179 2.53333 3.86667 3.48846 3.86667 4.66667C3.86667 5.84487 4.82179 6.8 6 6.8C7.17821 6.8 8.13333 5.84487 8.13333 4.66667C8.13333 3.48846 7.17821 2.53333 6 2.53333ZM2.8 4.66667C2.8 2.89936 4.23269 1.46667 6 1.46667C7.76731 1.46667 9.2 2.89936 9.2 4.66667C9.2 6.43398 7.76731 7.86667 6 7.86667C4.23269 7.86667 2.8 6.43398 2.8 4.66667Z" fill="currentColor"/>
<path fill-rule="evenodd" clip-rule="evenodd" d="M4.66667 10.5333C3.49455 10.5333 2.53333 11.4946 2.53333 12.6667V14C2.53333 14.2946 2.29455 14.5333 2 14.5333C1.70545 14.5333 1.46667 14.2946 1.46667 14V12.6667C1.46667 10.9054 2.90545 9.46667 4.66667 9.46667H7.33333C9.09455 9.46667 10.5333 10.9054 10.5333 12.6667V14C10.5333 14.2946 10.2946 14.5333 10 14.5333C9.70545 14.5333 9.46667 14.2946 9.46667 14V12.6667C9.46667 11.4946 8.50545 10.5333 7.33333 10.5333H4.66667Z" fill="currentColor"/>
<path fill-rule="evenodd" clip-rule="evenodd" d="M10.1478 1.94314C10.2161 1.65659 10.5037 1.47961 10.7902 1.54784C12.4964 1.95408 13.5131 3.72203 13.1201 5.45153C13.1179 5.46104 13.1155 5.47048 13.1128 5.47985C12.7955 6.59036 11.9237 7.46219 10.8132 7.77948C10.53 7.8604 10.2348 7.6964 10.1539 7.41318C10.0729 7.12997 10.2369 6.83477 10.5201 6.75385C11.2716 6.53915 11.8638 5.95032 12.0831 5.20083C12.3478 4.00209 11.6326 2.84489 10.5431 2.5855C10.2566 2.51727 10.0796 2.22968 10.1478 1.94314Z" fill="currentColor"/>
<path fill-rule="evenodd" clip-rule="evenodd" d="M11.4861 9.92392C11.565 9.64012 11.8589 9.47396 12.1427 9.55279C13.5716 9.94971 14.5333 11.2251 14.5333 12.6667V14C14.5333 14.2946 14.2946 14.5333 14 14.5333C13.7054 14.5333 13.4667 14.2946 13.4667 14V12.6667C13.4667 11.7082 12.8284 10.8503 11.8573 10.5805C11.5735 10.5017 11.4073 10.2077 11.4861 9.92392Z" fill="currentColor"/>
</svg>
