<svg width="16" height="16" viewBox="0 0 16 16" fill="none" xmlns="http://www.w3.org/2000/svg">
<path fill-rule="evenodd" clip-rule="evenodd" d="M13.2787 5.62361L10.5333 6.99629V9.00372L13.3052 10.3896C13.3118 10.393 13.3184 10.3964 13.3249 10.4C13.3276 10.4 13.3304 10.4 13.3333 10.4C13.4121 10.4 13.4364 10.3761 13.4396 10.3729C13.4427 10.3697 13.4667 10.3455 13.4667 10.2667V5.73333C13.4667 5.70185 13.4662 5.68479 13.4637 5.66709C13.4624 5.65806 13.4608 5.65143 13.4594 5.64673C13.4535 5.64212 13.44 5.63332 13.4144 5.62524C13.3692 5.61096 13.3196 5.61105 13.2787 5.62361ZM13.7356 4.60809C13.9973 4.69073 14.2646 4.87002 14.4104 5.16149C14.5339 5.40858 14.5335 5.64696 14.5333 5.7263L14.5333 5.73333V10.2667C14.5333 10.5879 14.4239 10.897 14.1938 11.1271C13.9636 11.3573 13.6545 11.4667 13.3333 11.4667C13.3269 11.4667 13.3193 11.4668 13.3108 11.4669C13.213 11.4686 12.9837 11.4724 12.7736 11.3164L9.76149 9.81036C9.58081 9.72002 9.46667 9.53535 9.46667 9.33333V6.66667C9.46667 6.46466 9.58081 6.27998 9.76149 6.18964L12.8282 4.65631C12.8414 4.64969 12.8549 4.64364 12.8686 4.63815C13.1588 4.52207 13.4695 4.52404 13.7356 4.60809Z" fill="currentColor"/>
<path fill-rule="evenodd" clip-rule="evenodd" d="M3.33334 4.53333C2.89456 4.53333 2.53334 4.89455 2.53334 5.33333V10.6667C2.53334 11.1054 2.89456 11.4667 3.33334 11.4667H8.66667C9.10546 11.4667 9.46667 11.1054 9.46667 10.6667V5.33333C9.46667 4.89455 9.10546 4.53333 8.66667 4.53333H3.33334ZM1.46667 5.33333C1.46667 4.30545 2.30546 3.46667 3.33334 3.46667H8.66667C9.69456 3.46667 10.5333 4.30545 10.5333 5.33333V10.6667C10.5333 11.6946 9.69456 12.5333 8.66667 12.5333H3.33334C2.30546 12.5333 1.46667 11.6946 1.46667 10.6667V5.33333Z" fill="currentColor"/>
</svg>
