<svg width="16" height="16" viewBox="0 0 16 16" fill="none" xmlns="http://www.w3.org/2000/svg">
<path d="M4.79946 11.3333C4.79946 11.298 4.7854 11.2646 4.7604 11.2396C4.73539 11.2146 4.70201 11.2005 4.66665 11.2005H2.66665C2.63128 11.2005 2.5979 11.2146 2.5729 11.2396C2.54789 11.2646 2.53383 11.298 2.53383 11.3333V13.3333L2.54295 13.3841C2.54959 13.4003 2.56029 13.4145 2.5729 13.4271C2.5979 13.4521 2.63128 13.4661 2.66665 13.4661H4.66665C4.70201 13.4661 4.73539 13.4521 4.7604 13.4271C4.7854 13.4021 4.79946 13.3687 4.79946 13.3333V11.3333ZM5.86717 13.3333C5.86717 13.6516 5.74065 13.9572 5.5156 14.1823C5.29056 14.4073 4.98491 14.5339 4.66665 14.5339H2.66665C2.34839 14.5339 2.04273 14.4073 1.81769 14.1823C1.62075 13.9854 1.49989 13.7266 1.47264 13.4518L1.46613 13.3333V11.3333C1.46613 11.0151 1.59264 10.7094 1.81769 10.4844C2.04273 10.2593 2.34839 10.1328 2.66665 10.1328H4.66665C4.98491 10.1328 5.29056 10.2593 5.5156 10.4844C5.74065 10.7094 5.86717 11.0151 5.86717 11.3333V13.3333Z" fill="currentColor"/>
<path d="M12.7995 12V4C12.7995 3.78783 12.7151 3.58493 12.5651 3.4349C12.4525 3.32227 12.3102 3.24683 12.1562 3.21615L12 3.20052H3.99998C3.78781 3.20052 3.5849 3.28487 3.43488 3.4349C3.28485 3.58492 3.2005 3.78783 3.2005 4V8C3.2005 8.29455 2.9612 8.53385 2.66665 8.53385C2.37209 8.53385 2.13279 8.29455 2.13279 8V4C2.13279 3.50493 2.3296 3.02976 2.67967 2.67969C3.02973 2.32962 3.50491 2.13281 3.99998 2.13281H12L12.1849 2.14193C12.6121 2.18442 13.0141 2.37346 13.3203 2.67969C13.6704 3.02976 13.8672 3.50493 13.8672 4V12C13.8672 12.4951 13.6704 12.9702 13.3203 13.3203C12.9702 13.6704 12.4951 13.8672 12 13.8672H7.99998C7.70543 13.8672 7.46613 13.6279 7.46613 13.3333C7.46613 13.0388 7.70543 12.7995 7.99998 12.7995H12C12.2122 12.7995 12.4151 12.7151 12.5651 12.5651C12.7151 12.4151 12.7995 12.2122 12.7995 12Z" fill="currentColor"/>
<path d="M10.1328 8V5.86719H7.99998C7.70543 5.86719 7.46613 5.62789 7.46613 5.33333C7.46613 5.03878 7.70543 4.79948 7.99998 4.79948H10.6666L10.7747 4.8112C11.0174 4.86117 11.2005 5.07583 11.2005 5.33333V8C11.2005 8.29455 10.9612 8.53385 10.6666 8.53385C10.3721 8.53385 10.1328 8.29455 10.1328 8Z" fill="currentColor"/>
<path d="M10.289 4.95573C10.4973 4.74745 10.836 4.74745 11.0443 4.95573C11.2525 5.16401 11.2525 5.50266 11.0443 5.71094L7.71092 9.04427C7.50264 9.25255 7.16399 9.25255 6.95571 9.04427C6.74743 8.83599 6.74743 8.49734 6.95571 8.28906L10.289 4.95573Z" fill="currentColor"/>
</svg>
