<svg width="16" height="16" viewBox="0 0 16 16" fill="none" xmlns="http://www.w3.org/2000/svg">
<path fill-rule="evenodd" clip-rule="evenodd" d="M7.99999 2.53333C7.55816 2.53333 7.19999 2.89151 7.19999 3.33333C7.19999 3.77516 7.55816 4.13333 7.99999 4.13333C8.44182 4.13333 8.79999 3.77516 8.79999 3.33333C8.79999 2.89151 8.44182 2.53333 7.99999 2.53333ZM6.13332 3.33333C6.13332 2.3024 6.96906 1.46667 7.99999 1.46667C9.03092 1.46667 9.86666 2.3024 9.86666 3.33333C9.86666 4.36427 9.03092 5.2 7.99999 5.2C6.96906 5.2 6.13332 4.36427 6.13332 3.33333Z" fill="currentColor"/>
<path fill-rule="evenodd" clip-rule="evenodd" d="M7.22712 7.89379C7.22393 7.89698 7.19999 7.9212 7.19999 8C7.19999 8.05732 7.19075 8.11427 7.17262 8.16866L6.07329 11.4667H6.66666C6.96121 11.4667 7.19999 11.7054 7.19999 12V14.6667C7.19999 14.9612 6.96121 15.2 6.66666 15.2C6.37211 15.2 6.13332 14.9612 6.13332 14.6667V12.5333H5.33332C5.16189 12.5333 5.0009 12.4509 4.90066 12.3118C4.80042 12.1728 4.77315 11.994 4.82736 11.8313L6.13666 7.90344C6.15657 7.61737 6.26589 7.34653 6.47287 7.13954C6.70302 6.90939 7.01213 6.8 7.33332 6.8H8.66666C8.98786 6.8 9.29697 6.90939 9.52712 7.13954C9.7341 7.34653 9.84341 7.61737 9.86332 7.90344L11.1726 11.8313C11.2268 11.994 11.1996 12.1728 11.0993 12.3118C10.9991 12.4509 10.8381 12.5333 10.6667 12.5333H9.86666V14.6667C9.86666 14.9612 9.62788 15.2 9.33332 15.2C9.03877 15.2 8.79999 14.9612 8.79999 14.6667V12C8.79999 11.7054 9.03877 11.4667 9.33332 11.4667H9.9267L8.82736 8.16866C8.80923 8.11427 8.79999 8.05732 8.79999 8C8.79999 7.9212 8.77605 7.89698 8.77287 7.89379C8.76968 7.89061 8.74546 7.86667 8.66666 7.86667H7.33332C7.25452 7.86667 7.2303 7.89061 7.22712 7.89379Z" fill="currentColor"/>
</svg>
