<svg width="16" height="16" viewBox="0 0 16 16" fill="none" xmlns="http://www.w3.org/2000/svg">
<path fill-rule="evenodd" clip-rule="evenodd" d="M8.00001 2.53333C4.98085 2.53333 2.53334 4.98084 2.53334 8C2.53334 11.0192 4.98085 13.4667 8.00001 13.4667C11.0192 13.4667 13.4667 11.0192 13.4667 8C13.4667 4.98084 11.0192 2.53333 8.00001 2.53333ZM1.46667 8C1.46667 4.39174 4.39175 1.46666 8.00001 1.46666C11.6083 1.46666 14.5333 4.39174 14.5333 8C14.5333 11.6083 11.6083 14.5333 8.00001 14.5333C4.39175 14.5333 1.46667 11.6083 1.46667 8Z" fill="currentColor"/>
<path fill-rule="evenodd" clip-rule="evenodd" d="M1.86667 6C1.86667 5.70545 2.10546 5.46666 2.40001 5.46666H13.6C13.8946 5.46666 14.1333 5.70545 14.1333 6C14.1333 6.29455 13.8946 6.53333 13.6 6.53333H2.40001C2.10546 6.53333 1.86667 6.29455 1.86667 6Z" fill="currentColor"/>
<path fill-rule="evenodd" clip-rule="evenodd" d="M1.86667 10C1.86667 9.70545 2.10546 9.46667 2.40001 9.46667H13.6C13.8946 9.46667 14.1333 9.70545 14.1333 10C14.1333 10.2945 13.8946 10.5333 13.6 10.5333H2.40001C2.10546 10.5333 1.86667 10.2945 1.86667 10Z" fill="currentColor"/>
<path fill-rule="evenodd" clip-rule="evenodd" d="M7.94711 1.54635C8.19766 1.70123 8.27521 2.02989 8.12033 2.28044C5.9599 5.77524 5.9599 10.2248 8.12033 13.7196C8.27521 13.9701 8.19766 14.2988 7.94711 14.4536C7.69657 14.6085 7.36791 14.531 7.21302 14.2804C4.84011 10.4419 4.84011 5.55809 7.21302 1.71956C7.36791 1.46902 7.69657 1.39147 7.94711 1.54635Z" fill="currentColor"/>
<path fill-rule="evenodd" clip-rule="evenodd" d="M8.0529 1.54635C8.30345 1.39147 8.63211 1.46902 8.78699 1.71956C11.1599 5.55809 11.1599 10.4419 8.78699 14.2804C8.63211 14.531 8.30345 14.6085 8.0529 14.4536C7.80236 14.2988 7.72481 13.9701 7.87969 13.7196C10.0401 10.2248 10.0401 5.77524 7.87969 2.28044C7.72481 2.02989 7.80236 1.70123 8.0529 1.54635Z" fill="currentColor"/>
</svg>
