<svg width="16" height="16" viewBox="0 0 16 16" fill="none" xmlns="http://www.w3.org/2000/svg">
<path fill-rule="evenodd" clip-rule="evenodd" d="M6.66666 2.53333C4.38388 2.53333 2.53333 4.38389 2.53333 6.66667C2.53333 8.94944 4.38388 10.8 6.66666 10.8C8.94944 10.8 10.8 8.94944 10.8 6.66667C10.8 4.38389 8.94944 2.53333 6.66666 2.53333ZM1.46666 6.66667C1.46666 3.79479 3.79478 1.46667 6.66666 1.46667C9.53854 1.46667 11.8667 3.79479 11.8667 6.66667C11.8667 9.53855 9.53854 11.8667 6.66666 11.8667C3.79478 11.8667 1.46666 9.53855 1.46666 6.66667Z" fill="currentColor"/>
<path fill-rule="evenodd" clip-rule="evenodd" d="M4.13333 6.66667C4.13333 6.37211 4.37211 6.13333 4.66666 6.13333H8.66666C8.96121 6.13333 9.19999 6.37211 9.19999 6.66667C9.19999 6.96122 8.96121 7.2 8.66666 7.2H4.66666C4.37211 7.2 4.13333 6.96122 4.13333 6.66667Z" fill="currentColor"/>
<path fill-rule="evenodd" clip-rule="evenodd" d="M6.66666 4.13333C6.96121 4.13333 7.19999 4.37211 7.19999 4.66667V8.66667C7.19999 8.96122 6.96121 9.2 6.66666 9.2C6.37211 9.2 6.13333 8.96122 6.13333 8.66667V4.66667C6.13333 4.37211 6.37211 4.13333 6.66666 4.13333Z" fill="currentColor"/>
<path fill-rule="evenodd" clip-rule="evenodd" d="M9.62287 9.62288C9.83115 9.4146 10.1688 9.4146 10.3771 9.62288L14.3771 13.6229C14.5854 13.8312 14.5854 14.1688 14.3771 14.3771C14.1688 14.5854 13.8311 14.5854 13.6229 14.3771L9.62287 10.3771C9.41459 10.1688 9.41459 9.83116 9.62287 9.62288Z" fill="currentColor"/>
</svg>
